<?xml version="1.0" encoding="utf-8"?>
<!-- Generator: Adobe Illustrator 23.0.6, SVG Export Plug-In . SVG Version: 6.00 Build 0)  -->
<svg version="1.1" id="Layer_1" xmlns="http://www.w3.org/2000/svg" xmlns:xlink="http://www.w3.org/1999/xlink" x="0px" y="0px"
	 viewBox="0 0 629.6 391.6" style="enable-background:new 0 0 629.6 391.6;" xml:space="preserve">
<style type="text/css">
	.st0{fill:#FFFFFF;}
</style>
<g>
	<g id="Layer_1-2">
		<path class="st0" d="M248.5,128.6c0-0.5-0.1-1.1-0.2-1.6c-1.6-2.4-3.4-4.8-5.3-7.3c-2.4,0.8-4.8,1.7-7.4,2.5
			c-1,2.7-2.1,5.5-3.3,8.2c1.6,1.5,3.2,2.9,4.7,4.4c3.3-1.6,6.4-3.2,9.3-4.9C247.1,129.4,247.8,129,248.5,128.6"/>
		<path class="st0" d="M308.2,156.1c2.1-8.2,3.1-16.7,3-25.2l-5.3-4.4c0.6,14.7-2.4,29.4-8.6,42.7L308.2,156.1z"/>
		<path class="st0" d="M327.3,198c2.4-12.1,9.4-48.6,10-54l-1-0.2L319.2,232l1.1,0.2C322.1,224.3,325.6,206.6,327.3,198"/>
		<path class="st0" d="M382.2,206.4c0.5-0.2,1-0.5,1.5-0.7l-0.5-0.6C382.8,205.6,382.5,206,382.2,206.4"/>
		<path class="st0" d="M433.9,204.8c-0.2-0.3-0.6-0.4-0.9-0.2l-2.5,1.5c-0.3,0.2-0.4,0.6-0.2,0.8c0,0,0,0,0,0l0.4,0.6
			c0.1,0.2,0.3,0.3,0.5,0.4l2,1.1c0.4,0.2,0.8,0.2,1.2,0l1-0.6c0.3-0.2,0.4-0.5,0.2-0.8c0,0,0,0,0,0L433.9,204.8z"/>
		<path class="st0" d="M470.9,171.9l0.4-0.5c0.1-0.1,0.1-0.1,0-0.2c0,0,0,0,0,0l-0.6-0.5c-0.1-0.1-0.2-0.1-0.2,0l-0.2,0.2
			c-0.1,0.1-0.1,0.2-0.1,0.3l0.2,0.5c0,0,0,0.1,0.1,0.1l0.1,0.1C470.8,171.9,470.9,171.9,470.9,171.9
			C470.9,171.9,470.9,171.9,470.9,171.9"/>
		<path class="st0" d="M468.5,121.5c-0.2,0.3-0.2,0.8,0.1,1c0,0,0,0,0,0l2.6,2c0.3,0.2,0.8,0.2,1-0.1l2.3-3c0.2-0.3,0.2-0.8-0.1-1
			c0,0,0,0,0,0l-1-0.8c-0.4-0.3-0.9-0.4-1.4-0.2l-2.4,0.9c-0.2,0.1-0.4,0.2-0.6,0.4L468.5,121.5z"/>
		<path class="st0" d="M441.5,73.6l0.9-0.2l-1.1-0.7C441.3,73,441.4,73.3,441.5,73.6"/>
		<path class="st0" d="M307.4,13.7l0.7,5.2c0.2,1.5,1.6,2.6,3.2,2.4l5.2-0.7c1.5-0.2,2.6-1.6,2.4-3.1c0,0,0,0,0,0l-0.7-5.2
			c-0.2-1.5-1.6-2.6-3.1-2.4c0,0,0,0-0.1,0l-5.2,0.7C308.3,10.7,307.2,12.2,307.4,13.7C307.4,13.7,307.4,13.7,307.4,13.7"/>
		<path class="st0" d="M236.9,0c-4.2,1.8-8.5,3.5-12.6,5.1c-0.3,1.5-0.6,2.9-0.9,4.4c0.9,1.6,1.8,3.1,2.7,4.6
			c1.6,0.8,3.2,1.6,4.9,2.4c1.4-0.4,2.8-0.8,4.2-1.2c1.3-4.3,2.7-8.7,4.1-13.1l-0.8-1.5L236.9,0"/>
		<path class="st0" d="M149.8,4l-9.3,0.1c0,2.5-0.2,5-0.5,7.4l9.1-0.1C149.5,9,149.7,6.5,149.8,4"/>
		<path class="st0" d="M80.4,26.1c-4.2,0.7-8.5,1.7-13.1,2.8c1.5,3.2,2.9,6.5,4.3,10c4.3-1.4,8.7-2.8,13-4
			C83.3,31.8,81.9,28.9,80.4,26.1"/>
		<path class="st0" d="M27.6,116.4l1.3,4.1c2.4,2.2,5,4.1,7.9,5.6l2.3-0.7C34.6,123.3,30.7,120.2,27.6,116.4"/>
		<path class="st0" d="M29.8,171.6c0,0.9,0.8,1.6,1.7,1.5c0.9,0,1.6-0.8,1.5-1.7c0-0.9-0.8-1.6-1.7-1.5
			C30.4,170,29.7,170.7,29.8,171.6C29.8,171.6,29.8,171.6,29.8,171.6"/>
		<path class="st0" d="M53.3,242.7c-3.9,7.2-12.9,9.8-20.1,5.8c-7.2-3.9-9.8-12.9-5.8-20.1c3.9-7.2,12.9-9.8,20.1-5.8
			C54.6,226.5,57.2,235.5,53.3,242.7 M26.9,228.2c-4.1,7.4-1.4,16.7,6.1,20.8s16.7,1.4,20.8-6.1c4.1-7.4,1.4-16.7-6-20.8
			C40.3,218.1,31,220.8,26.9,228.2"/>
		<path class="st0" d="M150.3,330.4l-0.9,0.2c0.5,0.8,1,1.6,1.6,2.4c0.2-0.7,0.4-1.3,0.6-2C151.2,330.9,150.7,330.6,150.3,330.4"/>
		<path class="st0" d="M235.5,346.9l2.5-0.9c0.6-2.6,1.3-5.3,2-8l-0.5-0.9l-1-0.3c-2.5,1.2-4.9,2.4-7.4,3.5
			c-0.1,0.9-0.3,1.8-0.4,2.6c0.6,0.9,1.2,1.8,1.8,2.6C233.4,346.1,234.4,346.5,235.5,346.9"/>
		<path class="st0" d="M338.1,332.8c0.1-0.2,0.1-0.4,0-0.6l-0.3-0.5c-0.1-0.1-0.3-0.2-0.4-0.1l-1.4,0.8c-0.1,0.1-0.2,0.3-0.1,0.4
			c0,0,0,0,0,0l0.7,1.2c0.1,0.1,0.3,0.2,0.4,0.1l0.3-0.2c0.1-0.1,0.2-0.1,0.2-0.2L338.1,332.8z"/>
		<path class="st0" d="M350.5,331.4c0.7,1.1,80.4,15,81.4,14.2L350.5,331.4z"/>
		<path class="st0" d="M496.6,261.5c-0.3-12.9-1.3-51.7-1.9-57.4h-1l2.2,93.9h1.2C497.3,289.6,496.9,270.8,496.6,261.5"/>
		<path class="st0" d="M507.1,187.4c-0.4,0.3-0.9,0.7-1.3,1c1.3-0.2,2.7-0.5,3.9-1.1C508.8,187.5,508,187.6,507.1,187.4"/>
		<path class="st0" d="M511,154.1c-0.6-6.2-1.5-12.5-2.7-18.6c-5.9-2-12-3.7-18.1-5c0.7,6.2,1.1,12.9,1.4,19.8
			C498.4,151.3,504.9,152.6,511,154.1"/>
		<path class="st0" d="M465,112l-22.6,1.9c0.1,0.3,0.1,0.5,0.2,0.7l22.6-1.9C465.1,112.5,465.1,112.2,465,112"/>
		<path class="st0" d="M406.7,69l-2.4,1.4l-1,7.7l2.4-1.4L406.7,69z"/>
		<path class="st0" d="M345.5,73.8c-1.2-1.7-2.4-3.5-3.5-5.4c-1.7-1.4-3.3-2.8-4.9-4.3c0.1,2.7,0.3,5.4,0.6,8
			C340.2,72.8,342.8,73.3,345.5,73.8"/>
		<path class="st0" d="M282.3,83c0.7-0.3,1-1.1,0.7-1.8c0,0,0,0,0-0.1l-1-2.4c-0.3-0.7-1.1-1-1.8-0.7c0,0,0,0,0,0l-2.5,1.1
			c-0.7,0.3-1,1.1-0.7,1.8c0,0,0,0,0,0l1,2.5c0.3,0.7,1.1,1,1.8,0.7c0,0,0,0,0,0L282.3,83z"/>
		<path class="st0" d="M236.5,127.1c2.7-2.7,2.8-7.1,0.1-9.8c-2.7-2.7-7.1-2.8-9.8-0.1c-2.7,2.7-2.8,7-0.2,9.8
			C229.3,129.7,233.7,129.8,236.5,127.1C236.5,127.1,236.5,127.1,236.5,127.1"/>
		<path class="st0" d="M202.9,178.4l-0.3-0.6l-23,10.1l0.3,0.6L202.9,178.4z"/>
		<path class="st0" d="M219.8,275.4c0.5-0.5,0.6-1.2,0.4-1.9l-0.5-1.8c-0.2-0.5-0.7-0.8-1.2-0.7c0,0,0,0,0,0l-5.1,1.5
			c-0.5,0.2-0.8,0.7-0.7,1.2c0,0,0,0,0,0l1.3,4.5c0.2,0.5,0.7,0.8,1.2,0.7c0,0,0,0,0,0l1.2-0.4c0.3-0.1,0.6-0.3,0.9-0.5L219.8,275.4
			z"/>
		<path class="st0" d="M383.4,242.4l1.3,4.7c2.8-3,5.3-6.2,7.6-9.6C389.7,239.8,386.7,241.5,383.4,242.4"/>
		<path class="st0" d="M383,216.9c-9,3.3-18.2,5.6-27.7,7c23,9.4,46.7,10.7,66.7,2.5C410.7,227.7,397.2,224.3,383,216.9"/>
		<path class="st0" d="M392.9,209.2c-1.4-2.3-2.9-4.4-4.7-6.3L392.9,209.2"/>
		<path class="st0" d="M371,225.6c-1-0.1-2.3,0.7-3.7,2.2c0.5,0.2,1,0.4,1.5,0.6C369.4,227.3,370.1,226.4,371,225.6"/>
		<path class="st0" d="M352.6,277.9c-0.8-1.9-1.6-3.7-2.5-5.5c-1.3,2.2-2.7,4.6-4.1,7.1C348.2,278.9,350.4,278.4,352.6,277.9"/>
		<path class="st0" d="M355.2,326.2l-0.8-1.9c-0.3-0.7-0.9-1.2-1.6-1.3l-3.9-0.6c-0.4-0.1-0.8,0-1.1,0.1l-1.3,0.5
			c-0.6,0.2-0.8,0.9-0.6,1.4l1.9,4.8c0.2,0.6,0.9,0.8,1.4,0.6l5.4-2.1C355.2,327.5,355.4,326.8,355.2,326.2
			C355.2,326.2,355.2,326.2,355.2,326.2"/>
		<path class="st0" d="M393.4,352.7c-1.2-0.1-2.3-0.3-3.4-0.7c-1.4,0.9-3.1,1.4-4.8,1.4C387.9,354.2,390.9,354,393.4,352.7"/>
		<path class="st0" d="M464.1,360.4c-0.5,0.6-1.1,1.1-1.7,1.5c-0.1,1.3-0.7,2.6-1.5,3.6C462.5,364.3,463.7,362.4,464.1,360.4"/>
		<path class="st0" d="M540.4,367.6c0.3-0.2,0.7-0.3,1-0.5s0.5-0.6,0.7-0.9c-1.6-1.3-2.5-1.9-2.8-1.7S539.4,365.7,540.4,367.6"/>
		<path class="st0" d="M598.9,375.3c-0.1-0.6-0.2-1.2-0.3-1.8c-1.2-0.2-2.5-0.5-3.7-0.8c-0.9,0.9-1.8,1.8-2.7,2.6
			c0.3,0.6,0.5,1.2,0.7,1.7c1-0.2,2-0.5,3-0.8S597.9,375.7,598.9,375.3"/>
		<path class="st0" d="M629.6,388.5L609,376.6c0,0.1,0.1,0.1,0.1,0.2C615.9,380.7,622.7,384.6,629.6,388.5
			C639.6,394.4,629.5,388.6,629.6,388.5"/>
		<path class="st0" d="M381,128.6c0-0.5,0.1-1.1,0.2-1.6c1.6-2.4,3.4-4.8,5.4-7.3c2.4,0.8,4.8,1.7,7.4,2.5c1,2.7,2.1,5.5,3.3,8.2
			c-1.6,1.5-3.2,2.9-4.7,4.4c-3.3-1.6-6.4-3.2-9.3-4.9C382.5,129.4,381.7,129,381,128.6"/>
		<path class="st0" d="M248.5,263c0,0.5-0.1,1.1-0.2,1.6c-1.6,2.4-3.4,4.8-5.3,7.3c-2.4-0.8-4.8-1.7-7.4-2.5c-1-2.7-2.1-5.5-3.3-8.2
			c1.6-1.5,3.2-2.9,4.7-4.4c3.3,1.6,6.4,3.2,9.3,4.9C247.1,262.1,247.8,262.5,248.5,263"/>
		<path class="st0" d="M381,263c0,0.5,0.1,1.1,0.2,1.6c1.6,2.4,3.4,4.9,5.4,7.3c2.4-0.8,4.8-1.7,7.4-2.5c1-2.7,2.1-5.5,3.3-8.2
			c-1.6-1.5-3.2-2.9-4.7-4.4c-3.3,1.6-6.4,3.2-9.3,4.9C382.5,262.1,381.7,262.5,381,263"/>
		<path class="st0" d="M321.4,156.1c-2.1-8.2-3.1-16.7-3-25.2l5.3-4.4c-0.6,14.7,2.4,29.4,8.6,42.7L321.4,156.1z"/>
		<path class="st0" d="M308.2,235.5c2.1,8.2,3.1,16.7,3,25.2l-5.3,4.4c0.6-14.7-2.4-29.4-8.6-42.7L308.2,235.5z"/>
		<path class="st0" d="M321.4,235.5c-2.1,8.2-3.1,16.7-3,25.2l5.3,4.4c-0.6-14.7,2.4-29.4,8.6-42.7L321.4,235.5z"/>
		<path class="st0" d="M302.3,198c-2.4-12.1-9.4-48.6-10-54l1-0.2l17.1,88.2l-1.1,0.2C307.5,224.3,304,206.6,302.3,198"/>
		<path class="st0" d="M327.3,193.6c2.4,12.1,9.4,48.6,10,54l-1,0.2l-17.2-88.2l1.1-0.2C322.1,167.2,325.5,184.9,327.3,193.6"/>
		<path class="st0" d="M302.3,193.6c-2.4,12.1-9.4,48.6-10,54l1,0.2l17.2-88.2l-1.1-0.2C307.5,167.2,304,184.9,302.3,193.6"/>
		<path class="st0" d="M247.4,206.4c-0.5-0.2-1-0.5-1.5-0.7l0.5-0.6C246.7,205.6,247,206,247.4,206.4"/>
		<path class="st0" d="M382.2,185.1c0.5,0.2,1,0.5,1.5,0.7l-0.5,0.6C382.8,186,382.5,185.6,382.2,185.1"/>
		<path class="st0" d="M247.4,185.1c-0.5,0.2-1,0.5-1.5,0.7l0.5,0.6C246.7,186,247,185.6,247.4,185.1"/>
		<path class="st0" d="M195.7,204.8c0.2-0.3,0.6-0.4,0.9-0.2l2.5,1.5c0.3,0.2,0.4,0.6,0.2,0.9l-0.4,0.6c-0.1,0.2-0.3,0.3-0.5,0.4
			l-2,1.1c-0.4,0.2-0.8,0.2-1.2,0l-1-0.6c-0.3-0.2-0.4-0.6-0.2-0.9L195.7,204.8z"/>
		<path class="st0" d="M433.9,186.8c-0.2,0.3-0.6,0.4-0.8,0.2c0,0,0,0,0,0l-2.5-1.5c-0.3-0.2-0.4-0.5-0.2-0.8c0,0,0,0,0,0l0.4-0.6
			c0.1-0.2,0.3-0.3,0.5-0.4l2-1.1c0.4-0.2,0.8-0.2,1.2,0l1,0.6c0.3,0.2,0.4,0.5,0.2,0.8c0,0,0,0,0,0L433.9,186.8z"/>
		<path class="st0" d="M195.7,186.8c0.2,0.3,0.6,0.4,0.8,0.2c0,0,0,0,0,0l2.5-1.5c0.3-0.2,0.4-0.6,0.2-0.9l-0.4-0.6
			c-0.1-0.2-0.3-0.3-0.5-0.4l-2-1.1c-0.4-0.2-0.8-0.2-1.2,0l-1,0.6c-0.3,0.2-0.4,0.6-0.2,0.9L195.7,186.8z"/>
		<path class="st0" d="M158.6,171.9l-0.4-0.5c-0.1-0.1-0.1-0.1,0-0.2c0,0,0,0,0,0l0.6-0.5c0.1-0.1,0.2-0.1,0.2,0l0.2,0.2
			c0.1,0.1,0.1,0.2,0.1,0.3l-0.2,0.5c0,0,0,0.1-0.1,0.1l-0.1,0.1C158.8,171.9,158.7,171.9,158.6,171.9
			C158.6,171.9,158.6,171.9,158.6,171.9"/>
		<path class="st0" d="M470.9,219.7l0.4,0.5c0.1,0.1,0.1,0.1,0,0.2c0,0,0,0,0,0l-0.6,0.5c-0.1,0.1-0.1,0.1-0.2,0l-0.2-0.2
			c-0.1-0.1-0.1-0.2-0.1-0.3l0.2-0.5c0,0,0-0.1,0.1-0.1l0.1-0.1C470.8,219.7,470.9,219.7,470.9,219.7
			C470.9,219.7,470.9,219.7,470.9,219.7"/>
		<path class="st0" d="M158.6,219.7l-0.4,0.5c-0.1,0.1-0.1,0.1,0,0.2c0,0,0,0,0,0l0.6,0.5c0.1,0.1,0.1,0.1,0.2,0l0.2-0.2
			c0.1-0.1,0.1-0.2,0.1-0.3l-0.2-0.5c0,0,0-0.1-0.1-0.1l-0.1-0.1C158.8,219.7,158.7,219.7,158.6,219.7
			C158.6,219.7,158.6,219.7,158.6,219.7"/>
		<path class="st0" d="M161.1,121.5c0.2,0.3,0.2,0.7-0.1,1c0,0,0,0,0,0l-2.6,2c-0.3,0.2-0.8,0.2-1-0.1l-2.3-3
			c-0.2-0.3-0.2-0.8,0.1-1c0,0,0,0,0,0l1-0.8c0.4-0.3,0.9-0.4,1.4-0.2l2.4,0.9c0.2,0.1,0.4,0.2,0.6,0.4L161.1,121.5z"/>
		<path class="st0" d="M468.5,270.1c-0.2-0.3-0.2-0.8,0.1-1c0,0,0,0,0,0l2.6-2c0.3-0.2,0.8-0.2,1,0.1c0,0,0,0,0,0l2.3,3
			c0.2,0.3,0.2,0.8-0.1,1c0,0,0,0,0,0l-1,0.8c-0.4,0.3-0.9,0.4-1.4,0.2l-2.4-0.9c-0.2-0.1-0.4-0.2-0.6-0.4L468.5,270.1z"/>
		<path class="st0" d="M161.1,270.1c0.2-0.3,0.2-0.7-0.1-1c0,0,0,0,0,0l-2.6-2c-0.3-0.2-0.8-0.2-1,0.1c0,0,0,0,0,0l-2.3,3
			c-0.2,0.3-0.2,0.8,0.1,1c0,0,0,0,0,0l1,0.8c0.4,0.3,0.9,0.4,1.4,0.2l2.4-0.9c0.2-0.1,0.4-0.2,0.6-0.4L161.1,270.1z"/>
		<path class="st0" d="M188.1,73.6l-0.9-0.2l1.1-0.7C188.2,73,188.2,73.3,188.1,73.6"/>
		<path class="st0" d="M441.5,318l0.9,0.2l-1.1,0.7C441.3,318.6,441.4,318.3,441.5,318"/>
		<path class="st0" d="M188.1,318l-0.9,0.2l1.1,0.7C188.2,318.6,188.2,318.3,188.1,318"/>
		<path class="st0" d="M322.1,13.7l-0.7,5.2c-0.2,1.5-1.6,2.6-3.1,2.4l-5.2-0.7c-1.5-0.2-2.6-1.6-2.4-3.1l0.7-5.2
			c0.2-1.5,1.6-2.6,3.1-2.4c0,0,0,0,0,0l5.2,0.7C321.3,10.7,322.3,12.2,322.1,13.7"/>
		<path class="st0" d="M307.4,377.9l0.7-5.2c0.2-1.5,1.6-2.6,3.2-2.4l5.2,0.7c1.5,0.2,2.6,1.6,2.4,3.1c0,0,0,0,0,0l-0.7,5.2
			c-0.2,1.5-1.6,2.6-3.1,2.4c0,0,0,0,0,0l-5.2-0.7C308.3,380.8,307.2,379.4,307.4,377.9C307.4,377.9,307.4,377.9,307.4,377.9"/>
		<path class="st0" d="M322.1,377.9l-0.7-5.2c-0.2-1.5-1.6-2.6-3.1-2.4L313,371c-1.5,0.2-2.6,1.6-2.4,3.1l0.7,5.2
			c0.2,1.5,1.6,2.6,3.1,2.4l5.2-0.7C321.3,380.8,322.3,379.4,322.1,377.9"/>
		<path class="st0" d="M392.6,391.6c4.2-1.8,8.5-3.5,12.6-5.1c0.3-1.5,0.6-3,0.9-4.4c-0.9-1.6-1.8-3.1-2.7-4.6
			c-1.6-0.8-3.2-1.6-4.9-2.4c-1.4,0.4-2.8,0.8-4.2,1.2c-1.3,4.3-2.7,8.7-4.1,13.1c0.3,0.5,0.5,1,0.8,1.5L392.6,391.6"/>
		<path class="st0" d="M479.8,4l9.3,0.1c0,2.5,0.2,5,0.5,7.4l-9.1-0.1C480.1,9,479.8,6.5,479.8,4"/>
		<path class="st0" d="M149.8,387.5l-9.3-0.1c0-2.5-0.1-5-0.5-7.5l9.1,0.1C149.6,382.5,149.8,385,149.8,387.5"/>
		<path class="st0" d="M479.8,387.5l9.3-0.1c0-2.5,0.2-5,0.5-7.4l-9.1,0.1C480.1,382.6,479.8,385,479.8,387.5"/>
		<path class="st0" d="M549.1,26.1c4.2,0.7,8.5,1.7,13.1,2.8c-1.5,3.2-2.9,6.5-4.3,10c-4.3-1.4-8.7-2.8-13-4
			C546.2,31.8,547.6,28.9,549.1,26.1"/>
		<path class="st0" d="M80.4,365.5c-4.2-0.7-8.5-1.7-13.1-2.8c1.5-3.2,2.9-6.5,4.3-10c4.3,1.4,8.7,2.8,13,4
			C83.3,359.7,81.9,362.7,80.4,365.5"/>
		<path class="st0" d="M549.1,365.5c4.2-0.7,8.5-1.7,13.1-2.8c-1.5-3.2-2.9-6.5-4.3-10c-4.3,1.4-8.7,2.8-13,4
			C546.2,359.7,547.6,362.7,549.1,365.5"/>
		<path class="st0" d="M572,65l25.2-0.3c1,6.3,1.5,12.6,1.7,19L573.2,84C573.1,77.5,572.7,71.1,572,65"/>
		<path class="st0" d="M57.6,326.6l-25.2,0.3c-1-6.3-1.5-12.6-1.7-18.9l25.7-0.3C56.5,314.2,56.9,320.5,57.6,326.6"/>
		<path class="st0" d="M602,116.4l-1.3,4.1c-2.4,2.2-5,4.1-7.9,5.6l-2.3-0.7C595,123.3,598.9,120.2,602,116.4"/>
		<path class="st0" d="M27.6,275.1l1.3-4.1c2.4-2.2,5-4.1,7.9-5.6l2.3,0.7C34.6,268.3,30.7,271.4,27.6,275.1"/>
		<path class="st0" d="M602,275.1l-1.3-4.1c-2.4-2.2-5-4.1-7.9-5.6l-2.3,0.7C595,268.3,598.9,271.4,602,275.1"/>
		<path class="st0" d="M599.8,171.6c0,0.9-0.8,1.6-1.7,1.5c-0.9,0-1.6-0.8-1.5-1.7c0-0.9,0.8-1.6,1.7-1.5
			C599.1,170,599.8,170.7,599.8,171.6C599.8,171.6,599.8,171.6,599.8,171.6"/>
		<path class="st0" d="M29.8,220c0-0.9,0.8-1.6,1.7-1.5c0.9,0,1.6,0.8,1.5,1.7c0,0.9-0.8,1.6-1.7,1.5
			C30.4,221.6,29.7,220.9,29.8,220C29.8,220,29.8,220,29.8,220"/>
		<path class="st0" d="M599.8,220c0-0.9-0.8-1.6-1.7-1.5c-0.9,0-1.6,0.8-1.5,1.7c0,0.9,0.8,1.6,1.7,1.5
			C599.1,221.6,599.8,220.9,599.8,220C599.8,220,599.8,220,599.8,220"/>
		<path class="st0" d="M576.3,242.7c3.9,7.2,12.9,9.8,20.1,5.8c7.2-3.9,9.8-12.9,5.8-20.1c-3.9-7.2-12.9-9.8-20.1-5.8
			C575,226.5,572.4,235.5,576.3,242.7 M602.7,228.2c4.1,7.4,1.4,16.7-6.1,20.8c-7.4,4.1-16.7,1.4-20.8-6.1c-4.1-7.4-1.4-16.7,6-20.8
			C589.3,218.1,598.6,220.8,602.7,228.2"/>
		<path class="st0" d="M53.3,148.9c-4-7.2-13-9.8-20.1-5.8c-7.2,4-9.8,13-5.8,20.1c3.9,7.1,12.9,9.7,20.1,5.8
			C54.6,165.1,57.2,156.1,53.3,148.9 M26.9,163.4c-4.1-7.4-1.4-16.7,6.1-20.8s16.7-1.4,20.8,6.1c4.1,7.4,1.4,16.7-6,20.8
			C40.3,173.5,31,170.8,26.9,163.4"/>
		<path class="st0" d="M576.3,148.9c3.9-7.2,12.9-9.8,20.1-5.8c7.2,3.9,9.8,12.9,5.8,20.1c-3.9,7.2-12.9,9.8-20.1,5.8
			C575,165,572.4,156,576.3,148.9 M602.7,163.4c4.1-7.4,1.4-16.7-6.1-20.8c-7.4-4.1-16.7-1.4-20.8,6.1c-4.1,7.4-1.4,16.7,6,20.8
			C589.3,173.5,598.6,170.8,602.7,163.4"/>
		<path class="st0" d="M479.3,330.4l0.9,0.2c-0.5,0.8-1.1,1.6-1.6,2.4c-0.2-0.7-0.4-1.3-0.6-2C478.4,330.9,478.9,330.6,479.3,330.4"
			/>
		<path class="st0" d="M150.3,61.1l-0.9-0.2c0.5-0.8,1.1-1.6,1.6-2.4c0.2,0.7,0.4,1.3,0.6,2L150.3,61.1"/>
		<path class="st0" d="M479.3,61.1l0.9-0.2c-0.5-0.8-1-1.6-1.6-2.4c-0.2,0.7-0.4,1.3-0.6,2L479.3,61.1"/>
		<path class="st0" d="M394.1,346.9l-2.5-0.9c-0.6-2.6-1.3-5.3-2-8l0.5-0.9l1-0.3c2.5,1.2,5,2.4,7.4,3.5c0.1,0.9,0.3,1.8,0.4,2.6
			c-0.6,0.9-1.2,1.8-1.8,2.6C396.1,346.1,395.1,346.5,394.1,346.9"/>
		<path class="st0" d="M235.5,44.6l2.5,0.9c0.6,2.6,1.3,5.3,2,8c-0.2,0.3-0.3,0.6-0.5,0.9l-1,0.3c-2.5-1.2-4.9-2.4-7.4-3.5
			c-0.1-0.9-0.3-1.8-0.4-2.7c0.6-0.9,1.2-1.8,1.8-2.7C233.4,45.5,234.4,45.1,235.5,44.6"/>
		<path class="st0" d="M394.1,44.6l-2.5,0.9c-0.6,2.6-1.3,5.3-2,8c0.2,0.3,0.3,0.6,0.5,0.9l1,0.3c2.5-1.2,5-2.4,7.4-3.5
			c0.1-0.9,0.3-1.8,0.4-2.7c-0.6-0.9-1.2-1.8-1.8-2.7C396.1,45.5,395.1,45.1,394.1,44.6"/>
		<path class="st0" d="M291.5,332.8c-0.1-0.2-0.1-0.4,0-0.6l0.3-0.5c0.1-0.1,0.3-0.2,0.4-0.1l1.4,0.8c0.1,0.1,0.2,0.3,0.1,0.4
			l-0.7,1.2c-0.1,0.1-0.3,0.2-0.4,0.1l-0.3-0.2c-0.1,0-0.2-0.1-0.2-0.2L291.5,332.8z"/>
		<path class="st0" d="M338.1,58.7c0.1,0.2,0.1,0.4,0,0.6l-0.3,0.5c-0.1,0.1-0.3,0.2-0.4,0.1c0,0,0,0,0,0l-1.4-0.8
			c-0.1-0.1-0.2-0.3-0.1-0.4c0,0,0,0,0,0l0.7-1.3c0.1-0.1,0.3-0.2,0.4-0.1c0,0,0,0,0,0l0.3,0.2c0.1,0.1,0.2,0.1,0.2,0.2L338.1,58.7z
			"/>
		<path class="st0" d="M291.5,58.7c-0.1,0.2-0.1,0.4,0,0.6l0.3,0.5c0.1,0.1,0.3,0.2,0.4,0.1c0,0,0,0,0,0l1.4-0.8
			c0.1-0.1,0.2-0.3,0.1-0.4l-0.7-1.2c-0.1-0.1-0.3-0.2-0.4-0.1c0,0,0,0,0,0l-0.3,0.2c-0.1,0-0.2,0.1-0.2,0.2L291.5,58.7z"/>
		<path class="st0" d="M279.1,331.4c-0.7,1.1-80.4,15-81.4,14.2L279.1,331.4z"/>
		<path class="st0" d="M350.5,60.1c0.7-1.1,80.4-15,81.4-14.2L350.5,60.1z"/>
		<path class="st0" d="M279.1,60.1c-0.7-1.1-80.4-15-81.4-14.2L279.1,60.1z"/>
		<path class="st0" d="M133,261.5c0.3-12.9,1.3-51.7,1.9-57.4h1l-2.3,93.9h-1.2C132.3,289.6,132.8,270.8,133,261.5"/>
		<path class="st0" d="M496.6,130c-0.3,12.9-1.3,51.7-1.9,57.3h-1l2.2-93.9h1.2C497.3,102,496.9,120.7,496.6,130"/>
		<path class="st0" d="M133,130c0.3,12.9,1.3,51.7,1.9,57.3h1l-2.3-93.9h-1.2C132.3,101.9,132.8,120.7,133,130"/>
		<path class="st0" d="M122.5,187.4c0.4,0.3,0.8,0.7,1.3,1c-1.3-0.2-2.7-0.5-3.9-1.1C120.7,187.5,121.6,187.6,122.5,187.4"/>
		<path class="st0" d="M507.1,204.1c-0.4-0.3-0.9-0.7-1.3-1c1.3,0.2,2.7,0.5,3.9,1.1C508.8,204.1,508,204,507.1,204.1"/>
		<path class="st0" d="M122.5,204.1c0.4-0.3,0.8-0.7,1.3-1c-1.3,0.2-2.7,0.5-3.9,1.1C120.7,204.1,121.6,204,122.5,204.1"/>
		<path class="st0" d="M118.5,237.5c0.6,6.2,1.5,12.5,2.7,18.6c5.9,2,12,3.7,18.1,5c-0.7-6.2-1.1-12.9-1.4-19.8
			C131.1,240.2,124.6,239,118.5,237.5"/>
		<path class="st0" d="M164.6,112l22.6,1.9c-0.1,0.3-0.1,0.5-0.2,0.7l-22.6-1.9C164.5,112.5,164.5,112.2,164.6,112"/>
		<path class="st0" d="M465,279.6l-22.6-1.9c0.1-0.3,0.1-0.5,0.2-0.7l22.6,1.9L465,279.6"/>
		<path class="st0" d="M164.6,279.6l22.6-1.9c-0.1-0.3-0.1-0.5-0.2-0.7l-22.6,1.9C164.5,279.1,164.5,279.4,164.6,279.6"/>
		<path class="st0" d="M222.9,69l2.4,1.4l1,7.7l-2.4-1.4L222.9,69z"/>
		<path class="st0" d="M406.7,322.5l-2.4-1.4l-1-7.7l2.4,1.4L406.7,322.5z"/>
		<path class="st0" d="M222.9,322.5l2.4-1.4l1-7.7l-2.4,1.4L222.9,322.5z"/>
		<path class="st0" d="M284,73.8c1.2-1.7,2.4-3.5,3.5-5.4c1.7-1.4,3.3-2.8,4.9-4.3c-0.1,2.7-0.3,5.4-0.6,8
			C289.3,72.8,286.7,73.3,284,73.8"/>
		<path class="st0" d="M345.5,317.8c-1.2,1.7-2.4,3.5-3.5,5.4c-1.7,1.4-3.3,2.8-4.9,4.3c0.1-2.7,0.3-5.4,0.6-8
			C340.2,318.9,342.8,318.3,345.5,317.8"/>
		<path class="st0" d="M284,317.8c1.2,1.7,2.4,3.5,3.5,5.4c1.7,1.4,3.3,2.8,4.9,4.3c-0.1-2.7-0.3-5.4-0.6-8
			C289.3,318.9,286.7,318.3,284,317.8"/>
		<path class="st0" d="M347.3,83c-0.7-0.3-1-1.1-0.7-1.8l1.1-2.4c0.3-0.7,1.1-1,1.8-0.7c0,0,0,0,0,0l2.4,1c0.7,0.3,1,1.1,0.7,1.8
			c0,0,0,0,0,0l-1.1,2.4c-0.3,0.7-1.1,1-1.9,0.7L347.3,83z"/>
		<path class="st0" d="M282.3,308.6c0.7,0.3,1,1.1,0.7,1.8c0,0,0,0,0,0l-1,2.4c-0.3,0.7-1.1,1-1.9,0.7l-2.4-1.1
			c-0.7-0.3-1-1.1-0.7-1.8c0,0,0,0,0,0l1.1-2.4c0.3-0.7,1.1-1,1.8-0.7c0,0,0,0,0,0L282.3,308.6z"/>
		<path class="st0" d="M347.3,308.6c-0.7,0.3-1,1.1-0.7,1.8l1.1,2.4c0.3,0.7,1.1,1,1.9,0.7l2.4-1.1c0.7-0.3,1-1.1,0.7-1.8
			c0,0,0,0,0,0l-1.1-2.4c-0.3-0.7-1.1-1-1.9-0.7L347.3,308.6z"/>
		<path class="st0" d="M393.1,127.1c-2.7-2.7-2.8-7-0.2-9.8c2.7-2.7,7-2.8,9.8-0.2c2.7,2.7,2.8,7,0.2,9.8
			C400.3,129.7,395.9,129.8,393.1,127.1C393.1,127.1,393.1,127.1,393.1,127.1"/>
		<path class="st0" d="M236.5,264.5c2.7,2.7,2.8,7.1,0.1,9.8c-2.7,2.7-7.1,2.8-9.8,0.1c-2.7-2.7-2.8-7-0.2-9.8
			C229.3,261.9,233.7,261.8,236.5,264.5C236.5,264.5,236.5,264.5,236.5,264.5"/>
		<path class="st0" d="M393.1,264.5c-2.7,2.7-2.8,7-0.2,9.8c2.7,2.7,7,2.8,9.8,0.2c2.7-2.7,2.8-7,0.2-9.8
			C400.3,261.9,395.9,261.8,393.1,264.5C393.1,264.5,393.1,264.5,393.1,264.5"/>
		<path class="st0" d="M426.7,178.4l0.3-0.6l23,10.1l-0.3,0.6L426.7,178.4z"/>
		<path class="st0" d="M202.9,213.2l-0.3,0.6l-23-10.1l0.3-0.6L202.9,213.2z"/>
		<path class="st0" d="M426.7,213.2l0.3,0.6l23-10.1l-0.3-0.6L426.7,213.2z"/>
		<path class="st0" d="M409.8,275.4c-0.5-0.5-0.6-1.2-0.5-1.9l0.5-1.8c0.2-0.5,0.7-0.8,1.2-0.7c0,0,0,0,0,0l5.1,1.5
			c0.5,0.1,0.8,0.7,0.7,1.2c0,0,0,0,0,0l-1.3,4.5c-0.2,0.5-0.7,0.8-1.2,0.7c0,0,0,0,0,0l-1.2-0.4c-0.3-0.1-0.6-0.3-0.9-0.5
			L409.8,275.4z"/>
		<path class="st0" d="M219.8,116.2c0.5,0.5,0.6,1.2,0.4,1.9l-0.5,1.8c-0.2,0.5-0.7,0.8-1.2,0.7c0,0,0,0,0,0l-5.1-1.5
			c-0.5-0.2-0.8-0.7-0.7-1.2c0,0,0,0,0,0l1.3-4.4c0.2-0.5,0.7-0.8,1.2-0.7c0,0,0,0,0,0l1.2,0.3c0.3,0.1,0.6,0.3,0.9,0.5L219.8,116.2
			z"/>
		<path class="st0" d="M409.8,116.2c-0.5,0.5-0.6,1.2-0.5,1.9l0.5,1.8c0.2,0.5,0.7,0.8,1.2,0.7c0,0,0,0,0,0l5.1-1.5
			c0.5-0.1,0.8-0.7,0.7-1.2c0,0,0,0,0,0l-1.3-4.4c-0.2-0.5-0.7-0.8-1.2-0.7c0,0,0,0,0,0l-1.2,0.3c-0.3,0.1-0.6,0.3-0.9,0.5
			L409.8,116.2z"/>
		<path class="st0" d="M421.9,175.1l-4.9,13.1l-11.5,30.5l-11.7,0.9l16.4-43.6l-22.6-40.6l11.7-0.9l15.9,28.5L421.9,175.1z"/>
		<path class="st0" d="M207.6,179.4l4.9-13.1l11.5-30.5l11.7-0.9l-16.3,43.6l22.7,40.7l-11.7,0.9l-15.9-28.5L207.6,179.4z"/>
		<path class="st0" d="M279.4,238c31.1-9.7,64.9-4.3,91.3,14.7l1.5,4.9c-42.8-34.4-105.3-27.5-139.7,15.3
			c-8.2,10.2-14.3,21.9-17.9,34.4l-1.6-4.9C223.8,271.7,248.3,247.8,279.4,238"/>
		<path class="st0" d="M350.2,153.6c-31.1,9.7-64.9,4.3-91.3-14.7l-1.5-4.8c12,9.6,26,16.3,41,19.6c51.1,11.2,102.1-19.1,116.7-69.3
			l1.5,4.9C405.8,119.8,381.2,143.7,350.2,153.6"/>
		<path class="st0" d="M246.2,242.4l-1.3,4.7c-2.8-3-5.3-6.2-7.6-9.6C239.9,239.8,242.9,241.5,246.2,242.4"/>
		<path class="st0" d="M383.4,149.1l1.3-4.7c2.8,3,5.3,6.2,7.6,9.6C389.7,151.8,386.7,150.1,383.4,149.1"/>
		<path class="st0" d="M246.2,149.1l-1.3-4.7c-2.8,3-5.3,6.2-7.6,9.6C239.9,151.8,242.9,150.1,246.2,149.1"/>
		<path class="st0" d="M246.5,216.9c9,3.3,18.2,5.6,27.7,7c-23,9.4-46.7,10.7-66.7,2.5C218.9,227.7,232.3,224.3,246.5,216.9"/>
		<path class="st0" d="M236.6,209.2c-0.1-0.3,4.5-6.4,4.7-6.3L236.6,209.2"/>
		<path class="st0" d="M392.9,182.4c-1.4,2.2-2.9,4.4-4.7,6.3L392.9,182.4"/>
		<path class="st0" d="M236.6,182.4c-0.1,0.3,4.5,6.4,4.7,6.3L236.6,182.4"/>
		<path class="st0" d="M258.6,225.6c1-0.1,2.3,0.7,3.7,2.2c-0.5,0.2-1,0.4-1.5,0.6C260.2,227.3,259.5,226.4,258.6,225.6"/>
		<path class="st0" d="M371,166c-1,0.1-2.3-0.7-3.7-2.2c0.5-0.2,1-0.4,1.5-0.6C369.4,164.3,370.1,165.2,371,166"/>
		<path class="st0" d="M258.6,166c1,0.1,2.3-0.7,3.7-2.2c-0.5-0.2-1-0.4-1.5-0.6C260.2,164.3,259.5,165.2,258.6,166"/>
		<path class="st0" d="M277,277.9c0.8-1.9,1.6-3.7,2.5-5.5c1.3,2.2,2.7,4.6,4.1,7.1C281.3,278.9,279.1,278.4,277,277.9"/>
		<path class="st0" d="M352.6,113.7c-0.8,1.9-1.6,3.7-2.5,5.5c-1.3-2.2-2.7-4.6-4.1-7.1C348.2,112.6,350.4,113.2,352.6,113.7"/>
		<path class="st0" d="M277,113.7c0.8,1.9,1.6,3.7,2.5,5.5c1.3-2.2,2.7-4.6,4.1-7.1C281.3,112.6,279.1,113.2,277,113.7"/>
		<path class="st0" d="M274.4,326.2l0.7-1.9c0.3-0.7,0.9-1.2,1.6-1.3l3.9-0.6c0.4-0.1,0.8,0,1.1,0.1l1.2,0.5
			c0.6,0.2,0.8,0.9,0.6,1.4l-1.9,4.8c-0.2,0.6-0.9,0.8-1.4,0.6c0,0,0,0,0,0l-5.3-2.1C274.4,327.4,274.2,326.8,274.4,326.2
			C274.4,326.2,274.4,326.2,274.4,326.2"/>
		<path class="st0" d="M355.2,65.3l-0.8,1.9c-0.3,0.7-0.9,1.2-1.6,1.3l-3.9,0.6c-0.4,0.1-0.8,0-1.1-0.1l-1.3-0.5
			c-0.6-0.2-0.8-0.9-0.6-1.4l1.9-4.7c0.2-0.6,0.9-0.8,1.4-0.6l5.4,2.1C355.2,64.1,355.4,64.8,355.2,65.3
			C355.2,65.3,355.2,65.3,355.2,65.3"/>
		<path class="st0" d="M274.4,65.3l0.7,1.9c0.3,0.7,0.9,1.2,1.6,1.3l3.9,0.6c0.4,0.1,0.8,0,1.1-0.1l1.3-0.5c0.6-0.2,0.8-0.9,0.6-1.4
			l-1.9-4.7c-0.2-0.6-0.8-0.8-1.4-0.6c0,0,0,0,0,0l-5.4,2.1C274.4,64.1,274.2,64.8,274.4,65.3C274.4,65.3,274.4,65.3,274.4,65.3"/>
		<path class="st0" d="M236.1,352.7c1.2-0.1,2.3-0.4,3.4-0.7c1.4,0.9,3.1,1.4,4.8,1.4C241.6,354.2,238.7,354,236.1,352.7"/>
		<path class="st0" d="M393.4,38.9c-1.2,0.1-2.3,0.4-3.4,0.7c-1.4-0.9-3.1-1.4-4.8-1.4C387.9,37.4,390.9,37.6,393.4,38.9"/>
		<path class="st0" d="M236.1,38.9c1.2,0.1,2.3,0.4,3.4,0.7c1.4-0.9,3.1-1.4,4.8-1.4C241.6,37.4,238.7,37.6,236.1,38.9"/>
		<path class="st0" d="M165.5,360.4c0.5,0.6,1.1,1.1,1.7,1.5c0.1,1.3,0.7,2.6,1.5,3.6C167,364.3,165.9,362.4,165.5,360.4"/>
		<path class="st0" d="M464.1,31.2c-0.5-0.6-1.1-1.1-1.7-1.5c-0.1-1.3-0.7-2.6-1.5-3.6C462.5,27.3,463.7,29.2,464.1,31.2"/>
		<path class="st0" d="M165.5,31.2c0.5-0.6,1.1-1.1,1.7-1.5c0.1-1.3,0.7-2.6,1.5-3.6C167,27.3,165.9,29.2,165.5,31.2"/>
		<path class="st0" d="M89.2,367.6c-0.3-0.2-0.7-0.3-1-0.5s-0.5-0.6-0.7-0.9c1.6-1.3,2.5-1.9,2.8-1.7S90.2,365.7,89.2,367.6"/>
		<path class="st0" d="M540.4,24c0.3,0.2,0.7,0.3,1,0.5c0.2,0.3,0.5,0.6,0.7,0.9c-1.6,1.3-2.5,1.9-2.8,1.7S539.4,25.8,540.4,24"/>
		<path class="st0" d="M89.2,24c-0.3,0.2-0.7,0.3-1,0.5c-0.2,0.3-0.5,0.6-0.7,0.9c1.5,1.3,2.5,1.9,2.7,1.7S90.2,25.8,89.2,24"/>
		<path class="st0" d="M30.7,375.3c0.1-0.6,0.2-1.2,0.3-1.8c1.2-0.2,2.4-0.5,3.7-0.8c0.9,0.9,1.8,1.8,2.7,2.6
			c-0.3,0.6-0.5,1.2-0.7,1.7c-1-0.2-2-0.5-3-0.8S31.7,375.7,30.7,375.3"/>
		<path class="st0" d="M598.9,16.2c-0.1,0.6-0.2,1.2-0.3,1.8c-1.2,0.2-2.5,0.5-3.7,0.7c-0.9-0.9-1.8-1.8-2.7-2.6
			c0.3-0.6,0.5-1.2,0.7-1.7c1,0.2,2,0.5,3,0.8S597.9,15.9,598.9,16.2"/>
		<path class="st0" d="M30.7,16.2c0.1,0.6,0.2,1.2,0.3,1.8c1.2,0.2,2.4,0.5,3.7,0.7c0.9-0.9,1.8-1.8,2.7-2.6
			c-0.3-0.6-0.5-1.2-0.7-1.7c-1,0.2-2,0.5-3,0.8S31.7,15.9,30.7,16.2"/>
		<path class="st0" d="M0,388.5l20.5-11.9c0,0.1-0.1,0.1-0.1,0.2L0.1,388.6C0.1,388.6,0.1,388.6,0,388.5"/>
		<path class="st0" d="M629.6,3.1L609,15c0-0.1,0.1-0.1,0.1-0.2L629.6,3.1C629.5,3,629.5,3,629.6,3.1"/>
		<path class="st0" d="M0,3.1L20.5,15c-0.1-0.1-0.1-0.2-0.1-0.2L0.1,3C0.1,3,0.1,3,0,3.1"/>
	</g>
</g>
</svg>
