<?xml version="1.0" encoding="utf-8"?>
<!-- Generator: Adobe Illustrator 23.0.6, SVG Export Plug-In . SVG Version: 6.00 Build 0)  -->
<svg version="1.1" id="Layer_1" xmlns="http://www.w3.org/2000/svg" xmlns:xlink="http://www.w3.org/1999/xlink" x="0px" y="0px"
	 viewBox="0 0 300.5 112.3" style="enable-background:new 0 0 300.5 112.3;" xml:space="preserve">
<style type="text/css">
	.st0{fill:#FFFFFF;}
</style>
<g>
	<g id="Layer_1-2">
		<path class="st0" d="M174.4,10.6c2.9-3.6,6.7-6.5,11-8.4c2.1-0.9,4.4-1.4,6.7-1.5c3.8-0.2,7.5,1.2,10.1,4
			c6.7,7.1,5.2,21.3-3.4,31.7c-5,6-11.6,9.7-17.7,9.9c-3.8,0.2-7.5-1.2-10.1-4C164.2,35.2,165.8,21,174.4,10.6 M181.1,47.1
			c2.4-0.1,4.7-0.6,6.9-1.6c4.4-1.9,8.3-4.8,11.3-8.6c8.9-10.7,10.4-25.3,3.4-32.7c-2.8-2.9-6.7-4.4-10.7-4.2
			c-6.3,0.2-13.1,4-18.3,10.1c-8.9,10.7-10.4,25.3-3.4,32.7C173.2,45.8,177.1,47.3,181.1,47.1"/>
		<path class="st0" d="M143.5,62.4c-4.6-1.7-9.1-3.7-13.4-6.2c-4.3,2.4-8.8,4.4-13.4,6c4.3,2.2,8.7,4,13.4,5.3
			C134.7,66.3,139.2,64.6,143.5,62.4"/>
		<path class="st0" d="M118.4,81.1c0.1-1,0.2-1.9,0.3-2.9c-1.3-1.7-2.6-3.3-3.7-5c-1.5,2.3-2.9,4.7-4,7.2c0.8,1.9,1.6,3.8,2.6,5.6
			C115,84.3,116.6,82.6,118.4,81.1"/>
		<path class="st0" d="M148,66.5c0,0-6.5,8.5-10,7.5c0,0,1.1,1.8-2.4,7.8c-3.7,6.3-21,30.5-21,30.5s17.7-23.9,22.6-29.3
			c4.6-5.2,6.7-4.7,6.7-4.7C141.8,75.3,148,66.5,148,66.5"/>
		<path class="st0" d="M178.9,84l-1.5,2c4.7,3.7,10.6,5.8,16.6,5.9v-2.5C188.5,89.3,183.2,87.4,178.9,84"/>
		<path class="st0" d="M259.3,59.5v0.2c0,0.2-0.1,0.3-0.1,0.5c-0.7,2.6-3.4,4-6,3.3c-0.8-0.2-1.6-0.7-2.2-1.3l-0.1-0.1
			c0,0-0.1-0.1-0.1-0.1c-1.9-1.9-1.8-5,0.1-6.8c0.6-0.6,1.3-1,2.1-1.2l0.5-0.1h0.1c2.5-0.7,5,0.7,5.7,3.2
			C259.6,57.8,259.6,58.7,259.3,59.5 M252.8,51.3c-16.8,4.5-34.1-5-39.3-21.6c0.1,0.4,0.2,0.9,0.3,1.3c1.5,5.5,4.3,10.4,8.3,14.4
			c1.9,1.9,1.8,4.9-0.1,6.8c-0.6,0.6-1.3,1-2.1,1.2c-5.6,1.4-10.7,4.2-14.8,8.3c-0.3,0.3-0.6,0.6-0.9,0.9c13.3-12,33.7-11,45.7,2.3
			c11.3,12.5,11.1,31.6-0.4,43.9c0.3-0.3,0.6-0.6,0.9-0.9c4.1-4,7.1-9.1,8.5-14.6c0.7-2.5,3.4-4,5.9-3.3c0.8,0.2,1.6,0.7,2.1,1.3
			c3.9,4.1,8.8,7,14.3,8.6c0.4,0.1,0.8,0.2,1.3,0.3c-16.9-5.7-26.1-24-20.4-41c5.3-16,22.1-25.2,38.4-21.2c-0.4-0.1-0.8-0.3-1.2-0.4
			c-5.7-1.7-11.8-1.7-17.5-0.1c-2.5,0.7-5-0.7-5.7-3.2c-0.2-0.9-0.2-1.8,0-2.6c1.7-5.7,1.8-11.8,0.2-17.5c-0.1-0.4-0.2-0.8-0.4-1.3
			C279.8,29.8,269.6,46.8,252.8,51.3"/>
		<path class="st0" d="M126.1,10.6c-2.9-3.6-6.7-6.5-11-8.4c-2.1-0.9-4.4-1.4-6.7-1.5c-3.8-0.2-7.5,1.3-10.1,4
			c-6.7,7.1-5.2,21.3,3.4,31.7c5,6,11.6,9.7,17.7,9.9c3.8,0.2,7.5-1.2,10.1-4C136.3,35.2,134.8,21,126.1,10.6 M119.5,47.1
			c-2.4-0.1-4.7-0.6-6.9-1.6c-4.4-1.9-8.3-4.9-11.3-8.6c-8.9-10.7-10.4-25.3-3.4-32.7c2.8-2.9,6.7-4.4,10.7-4.2
			c6.3,0.2,13.1,4,18.3,10.1c8.9,10.7,10.4,25.3,3.4,32.7C127.4,45.8,123.5,47.3,119.5,47.1"/>
		<path class="st0" d="M157,62.4c4.6-1.7,9.1-3.7,13.4-6.2c4.3,2.4,8.8,4.4,13.4,6c-4.3,2.2-8.7,4-13.4,5.3
			C165.8,66.3,161.3,64.6,157,62.4"/>
		<path class="st0" d="M182.2,81.1c-0.1-1-0.2-1.9-0.3-2.9c1.3-1.7,2.6-3.3,3.7-5c1.5,2.3,2.9,4.7,4,7.2c-0.7,1.9-1.6,3.8-2.5,5.6
			C185.5,84.3,183.9,82.6,182.2,81.1"/>
		<path class="st0" d="M152.5,66.5c0,0,6.5,8.5,10,7.5c0,0-1.1,1.8,2.4,7.8c3.7,6.3,21,30.5,21,30.5S168.2,88.4,163.3,83
			c-4.6-5.2-6.7-4.7-6.7-4.7C158.7,75.3,152.5,66.5,152.5,66.5"/>
		<path class="st0" d="M121.6,84l1.5,2c-4.8,3.7-10.6,5.8-16.7,5.9v-2.5C112,89.3,117.3,87.4,121.6,84"/>
		<path class="st0" d="M41.3,59.5v0.2c0,0.2,0.1,0.3,0.1,0.5c0.7,2.6,3.4,4,6,3.3c0.8-0.2,1.6-0.7,2.2-1.3l0.1-0.1l0.2,0
			c1.9-1.9,1.9-4.9,0-6.8c-0.6-0.6-1.4-1.1-2.2-1.3l-0.5-0.1H47c-2.5-0.7-5,0.7-5.7,3.2C41,57.8,41,58.7,41.3,59.5 M47.8,51.3
			c16.8,4.5,34.1-5.1,39.3-21.7c-0.1,0.4-0.2,0.9-0.3,1.3c-1.5,5.5-4.3,10.4-8.3,14.4c-1.9,1.9-1.8,4.9,0.1,6.8
			c0.6,0.6,1.3,1,2.1,1.2c5.6,1.4,10.7,4.2,14.8,8.3c0.3,0.3,0.6,0.6,0.9,0.9c-13.3-12-33.7-11-45.7,2.3
			c-11.3,12.5-11.1,31.6,0.4,43.9c-0.3-0.3-0.6-0.6-1-0.9c-4.1-4-7.1-9.1-8.6-14.6c-0.7-2.5-3.4-4-5.9-3.3c-0.8,0.2-1.6,0.7-2.1,1.3
			c-3.9,4.1-8.8,7-14.3,8.6c-0.4,0.1-0.8,0.2-1.3,0.3c17-5.6,26.1-24,20.5-40.9C33.1,43.2,16.4,33.9,0,38c0.4-0.1,0.8-0.3,1.2-0.4
			C7,36,13,35.9,18.8,37.5c2.5,0.7,5-0.7,5.7-3.2c0.2-0.9,0.2-1.8,0-2.6c-1.7-5.7-1.8-11.8-0.2-17.5c0.1-0.4,0.2-0.8,0.4-1.3
			C20.8,29.8,31,46.7,47.8,51.3"/>
	</g>
</g>
</svg>
