<?xml version="1.0" encoding="utf-8"?>
<!-- Generator: Adobe Illustrator 23.0.6, SVG Export Plug-In . SVG Version: 6.00 Build 0)  -->
<svg version="1.1" id="Layer_1" xmlns="http://www.w3.org/2000/svg" xmlns:xlink="http://www.w3.org/1999/xlink" x="0px" y="0px"
	 viewBox="0 0 653.6 611.8" style="enable-background:new 0 0 653.6 611.8;" xml:space="preserve">
<style type="text/css">
	.st0{fill:#FFFFFF;}
</style>
<g id="Layer_2_00000099649443286339980460000016159727575418699179_">
	<g id="Layer_1-2">
		<path class="st0" d="M653.4,590.4h-32.3c-10.2-1.9-20.8,0.1-29.6,5.8c-7.8-5.3-15.5-5.1-23,0.4c-0.5,11.4-6.3,16.4-17.5,15
			c-22.4,0.5-16-22.2-33.8-27.8c-7,4.4-15.2,6.7-23.5,6.7c-7.3,0.9-13-1.3-17.2-6.5c-12.5-10.3-7.1-28-16-38.5
			c-10.3-12.3-27.4,20.3-34.9,26.7c-15,12.6-26.4,21.7-46.3,19.5c-15.2-1.7-30-4.1-45.1-5.9c-13.9-1.7-26.1,0.4-39.9,2.7
			c-18.4,3.1-28.4-1.7-45.7-5.7c-7.7,2.8-14.5,1.3-20.4-4.5c-3.1-7.4-7.6-14.1-13.2-19.9c-11.8-5.1-25.6,21.9-33.9,27.9
			c-12,8.7-22.2,4.6-36.5,4.2c-18.3-0.5-37.3,3.5-52.6-9.2c-14.8-12.3-19.5-42.7-37.5-16.5c-3.5,9.1-10.4,16.6-19.1,20.9
			c-10.9,7.2-19.3,4.8-25.4-7.1c0.1-10.2,0.2-15.2,0.2-25.2c6.9,10.9,15.2,12.1,24.8,3.7c8.2-5.3,14.7-13,18.5-22.1
			c18.3-23.8,24.8,9.2,39,20.7c16.9,13.7,74.2,18.1,91.4,4c10.7-8.7,19.3-37.2,36-24.8c5.1,6.5,9.9,13.1,14.5,20
			c7.4,1.3,14.6,3,21.8,5c13.1,4.2,20.8,8.3,35.1,4.6c15.9-4.1,30.6-11.1,47.5-9.1c32.5,3.8,57.2,13.8,84.7-8.6
			c5.6-4.5,26.9-37.4,34.8-32.3c11.2,7.2,6.7,33.4,20.1,43c13.2,9.4,24.2,0.1,36.6,1.8c19.2,2.6,11.3,30.7,34.6,30.1
			c11.5,1,17.8-4.4,18.8-16.3c6.1-8,13.4-9.4,22-4.1c8.6-6.6,19.6-9.4,30.4-7.8c10.9,1,21.8,2.3,32.6,3.9L653.4,590.4z"/>
		<path class="st0" d="M653.4,534.1c-15.6-4.5-33.4-11.9-49.7-6.3l-14.2,8.3l-11.7-1.1c-11.9,4.3-10.1,21.8-22.7,26.1
			c-11.3,3.8-15.3,0.7-22.3-6.8c-7.5-8-7.5-20.6-19.5-24.3c-10.3-3.2-21,1-31.2-5.7c-16.3-10.7-13.9-31-26.3-44.6
			c-17,14.6-25.6,37.8-49.3,44.5c-19.9,5.7-41.3-3.7-61.5-4.6c-21.3-1-36,12.7-55.8,17.2c-15.1,3.5-22.2-5-35.2-10.4
			c-9.7-4-12.1-0.9-19.9-10.6c-7.6-9.3-11.7-17.8-23.9-15.1c-11.2,2.5-14.4,18.8-22.5,26.4c-16.8,15.7-47.6,10.4-68.6,8.2
			c-12.9-1.4-22.1-6.7-31.2-16c-5.3-5.4-15.3-28.3-24.5-28.6c-10-0.3-18.4,21-24,26.5c-11.2,11.1-14.4,14.2-28.8,5.7
			c0-10.3-0.9-5.4-0.5-14.4c15.1,5.2,18,0.3,27.7-11.2c5.4-6.4,13.1-28.2,24.1-27.8c9.3,0.3,19.5,22.1,25.1,27.5
			c9.1,8.9,18.4,14.8,31.2,16c20.7,1.9,54.4,4.9,70.6-10.9c8.5-8.3,10.5-25.5,22.9-27.9s17.9,5.5,25.6,14.6
			c7.5,8.8,10.7,7.6,19.7,12.3c12.6,6.5,19.2,16,34.7,11.2c20.3-6.4,33.6-23.3,56.3-23c20.1,0.3,40.7,9.9,60.7,5.1
			c24-5.8,30.7-28,48-42c12.9,13,11.9,33,27.8,43.8c9.5,6.5,21.2,4.3,30.9,9.1c11.7,5.8,11.6,19.5,19.5,28.1c7.3,7.9,10.6,10.4,22,5
			c12.2-5.7,10.4-23.2,22.1-28.9l11.3-1l14.1-9.3c17.7-7,33.4,2.4,49.3,9.2L653.4,534.1z"/>
		<path class="st0" d="M653.4,477.9c-10-6.9-20.8-12.4-32.1-16.6c-12.2,0-23.8,5.3-31.9,14.5c-10.1,0.7-16.9,6.1-20.4,16.1
			c-2,11.3-8.2,19.1-18.5,23.5c-20.9,6.8-19.3-17.8-27.7-29.9c-12-17.3-30.3-13.1-46.2-23.2c-7.2-4.5-18.5-32.5-27.1-31.6
			c-9.1,1-19.1,25.7-23.8,31.5c-23.3,28.3-57,19.7-88.8,21c-17.1,0.6-27.7,7.1-42.3,15.7c-21.9,13-26,4-42.5-11.2
			c-8.6-3.2-14.4-9.3-17.6-18.1l-8.5-12.3c-23.2-20.5-24.1,5.7-37.6,18c-14.8,13.5-38.2,7.5-56.1,7.9c-17.5,0.3-27.4-0.6-41-12.4
			c-12.3-10.7-24-45.4-42.9-27.4c-14.9,14.1-13.2,39.1-38.6,35.5v-25.3c22,5.7,25.1-27.3,36.3-38.3c18.7-18.3,31.3,16.2,42.8,27.5
			c15.4,15.2,26.8,15.3,47.3,15.6c14.6,0.2,37,5.7,49.6-3.9c14.6-11.2,11.2-39.8,35.7-21.1c13.2,10.1,22.8,29.6,33.4,42.7
			c9.9,12.3,14.6,19.6,30.2,9.8c17-10.8,25.5-20.6,46.4-20.6c27.6,0,63.2,1.5,84.9-18.8c9.5-8.9,17.2-39.9,33.2-38.5
			c9.5,0.8,19.9,23.6,29.9,27.9c12.6,5.4,26.7,5.6,37,16.2c12.4,12.8,14,54.6,36.9,39.8c9-6.1,15-15.7,16.6-26.4
			c3.8-8.7,11.3-15.3,20.4-18c7.7-9.7,19.5-15.4,31.9-15.3c11.2,5.3,21.7,12.1,31,20.3L653.4,477.9z"/>
		<path class="st0" d="M653.4,421.6c-12-11.6-21.7-25.1-38.4-22.6c-11.3,1.7-20,10.7-28.2,18.4c-17.5,16.6-21.2,38.9-40.3,54.8
			c-14.4-18.3-17.6-42.7-35.1-58.5c-11.2-10.1-23.8-8.9-35.8-16.9c-6.6-4.4-14.7-18.3-22.2-20.9c-15.5-5.4-18.9,11.9-24.8,21.9
			c-16.8,28.4-46.8,28.8-76.4,30.6c-13.3,0.8-26.4-2.3-38.7,4.5c-12,6.6-19.2,19.7-31.1,26.5c-17.4,9.9-19.6-5.8-28-17.5
			c-9.2-12.9-17.3-28.2-29.3-37.9c-19.7-15.8-21.6-6.1-32.2,11.2c-9.4,15.5-20.9,14.5-37.8,13.8c-12.9-0.6-33,2.6-45.4-1.4
			c-14.1-4.5-24.4-19.2-33.1-30.4c-14-18.2-20.2-29.9-36.8-9C30.4,400,29,424,9.7,423.2C9.6,413,9.6,408,9.5,397.9
			c18.9-7.4,16.9-23.1,28.1-38c2.4-7.1,7.4-11.7,15.1-13.9c9.2,5.4,16.8,13.1,22.2,22.3c7.9,10.4,18.8,27.7,31.5,33.2
			c13.2,5.6,30.9,1.9,45.1,2.5c26.7,1.1,34.2-1.8,46.6-25.3c2.7-4.2,5.3-8.5,7.9-12.7c6.9,5,14.8,8.5,23.1,10.4
			c9.3,5.9,19,26.7,25,36c4.2,8.1,8.9,16,13.9,23.6c7.2,5,12.8,4.2,16.6-2.4c14.6-7,20.9-28.1,36.5-34.2c10.7-4.1,27.7-1.2,38.9-2.1
			c27.1-2.2,52.5-2.1,68.9-26.8c8.8-13.3,10.3-26.6,28.2-21c8.6,2.7,15.9,15.4,23.7,20c14,8.2,25,6.7,35.7,20.2
			c15.6,19.6,16.4,43.6,34.8,60.8c15.8-19,20.9-42.5,37.5-60.6c7.9-8.6,15.8-18.4,27.8-20c17-2.2,26.2,13.7,37.1,26.3L653.4,421.6z"
			/>
		<path class="st0" d="M653.4,365.3c-5.5-9.1-12.5-17.3-20.6-24.3c-4-7.7-9.5-9.2-16.5-4.5c-12.9,2.1-20.7,14-28.2,23.9
			c-16.4,21.4-22,47.8-36.7,70.3c-14.8-12.2-16-22.2-23.3-39.1c-5.3-12-13-32.2-24.7-39.3c-7.1-4.3-16.4-4.5-23.8-9.3
			c-6.2-4-11-9.9-17-14.3c-4.2-3.1-11.6-10.7-17.5-9.9c-9.8,1.4-13.8,15.1-18.2,22.1c-9.5,15.1-20.4,18.1-37.8,19.8
			s-34.9,0.7-52.3,1.5c-29.4,1.4-30,27.2-51.9,41.6c-9.8,6.5-11.8,7.4-19.9-2.7c-5.5-6.9-8.6-17.4-12.8-25.2
			c-5.3-9.7-11.6-26.3-21.6-31.8c-7.9-4.4-15.9-5.3-24-10.7c-6.6,11-10.3,25.8-19.7,34.1c-10.5,9.4-23,7-35.9,6.5
			c-21.3-0.9-41.5,3-57.5-13.4c-9.5-9.7-16.2-21.6-25-31.8c-7.4-8.6-12.5-18-23.5-13.8c-11.3,4.3-14.7,21.8-18.7,31.6
			c-4.5,10.9-7.1,14.8-17,20.8c0-10.1-0.6-7.4,0.3-17.3c9.5-8,12.1-13.1,16-25c3.4-10.4,6.2-29,18.3-33.4
			c17.7-6.5,37.7,33.6,48.8,45.5c16.1,17,36.2,12.6,57.9,12.7c12.2,0.1,26.3,3,36.3-5.3c9.1-7.5,12.2-21.4,18.8-31.7
			c8.4,7.8,15.1,8.9,24,14.4c11.1,6.8,16.5,25.4,21.2,36.9c3.8,9.5,5.8,21.7,11.1,30.4c7,11.4,8.6,12,18.9,5.5
			c22.6-14.3,20.2-39.4,50.6-39.7c17.2-0.2,34.4,0.6,51.6-0.2s27.7-1.8,37.1-16.8c4.4-7,7.7-19.3,17.8-20.5
			c6.1-0.8,14.1,6.5,18.4,9.7c6.1,4.5,11.4,10.2,17.7,14.5c7.5,5,16.7,5.3,24,9.7c11.7,7,19.9,26.9,25.5,38.9
			c7.9,16.7,8.4,25.6,25,35.6c14.3-28.2,20.7-59.7,37.5-86.6c7.3-11.7,14.9-27,29.2-30.9c6.8-6.2,12.5-5.4,17,2.6
			c8.3,6.4,15.4,14.3,20.9,23.3C653.3,349.9,653.3,355,653.4,365.3z"/>
		<path class="st0" d="M653.6,309.1c-10.8-15.8-24-46.5-46.9-26.7c-10.9,9.4-19.6,25.8-26,38.5c-8,16.2-13,34.2-18.5,51.3
			c-1.9,7-4.4,13.9-7.5,20.5c-0.1,9.3-3.8,12.2-11.1,8.7c-15.5,1-29-63.8-43.4-75.8c-7.5-6.3-20.6-9.6-29.1-15.3
			c-6.3-4.2-11.8-9.4-18.2-13.4c-22.2-13.9-23.7-2.7-35.1,13.3c-12,16.7-28.2,13.1-47.5,13.3c-16.1,0.1-40-4-54,3.2
			c-19.2,9.9-30.2,38.1-45.3,53.7c-12.5-19.3-14.2-40.8-23.7-61.6c-9.7-21.4-25.8-25.9-45-36.6c-4.8,13.6-6.4,27.6-18.1,34.9
			c-10.3,6.5-25.9,3.4-37.7,3.4c-23,0-40.6,2.6-56.6-16.4c-8.7-10.4-15.8-22.1-24.8-32.3c-7.7-8.7-12.9-18.6-23.9-14.1
			c-12.1,5-14.2,23.6-16.9,34.3c-3.2,12.8-5.8,18.6-14.7,28.1c0-10.4-0.1-20.9-0.2-31.3c16.1-16.2,10.7-39.6,25.8-55.4
			c17.7-18.5,34.9,16.8,44.4,29.6c14.7,19.9,22.8,31.5,48.7,31.1c14.2-0.2,48.6,6.6,60.4-2.1c5.6-9.6,9.6-20,11.9-30.9
			c9.8-4.1,17.5-1.2,23.3,8.5c11-0.3,18.4,5.1,22.1,16.1c4.3,10.6,8.1,21.3,11.5,32.2c6.6,22.1,9.1,46.2,29.3,17.7
			c7-8.2,13.1-17.2,18.2-26.7c5.3-11.1,14.1-15.6,26.3-13.5c14.4-1.3,28.8-1.9,43.2-1.8c13.7,0.1,28.3,4.5,39.5-4.7
			c12.5-10.3,6.6-26.1,28-24.8c13.1,0.8,27,16.6,38.3,22.1c24.7,12,32.8,23.5,44,49.2c4.8,13.2,10.1,26.2,15.9,39
			c14,1.6,20.9-5.5,20.7-21.2c9.5-27,16-55,32.5-78.9c6.5-14.5,17.5-22.6,33-24.4c10.7,9.7,19.8,21.2,26.6,34
			C653.4,294.1,653.7,298.8,653.6,309.1z"/>
		<path class="st0" d="M653.4,254.7c-6.7-11.6-15.7-21.7-26.4-29.8c-14.2,2.3-24.8,9.9-31.7,22.8c-16.5,20.9-22.1,45.2-32.3,69.2
			c-16.8,39.2-26-5.5-34.6-23C516.8,270.4,508,260.5,484,252c-12.6-4.4-26.6-17.8-40.8-17c-18.9,1.1-16.6,16.3-29.7,24.3
			c-11.7,7.1-26.4,0.9-39.3,0c-14.9-1-28.2,3-42.7,6c-11.6-0.9-19.8,4-24.6,14.5c-4.7,9.3-10.9,17.8-18.4,25.2
			c-20.6,24.7-22.6-2.5-29.3-21.2c-4.1-10.3-8.4-20.5-12.7-30.7c-3.7-10.9-11-15.8-21.8-14.7c-6.4-8.2-13.9-10-22.6-5.2
			c-2.6,9.6-7,18.6-13.2,26.4c-9.8,2.1-19.8,2.2-29.6,0.3c-9.6,0.1-19.3,0.4-28.9,1c-24.7,1.2-33.8-9.3-47.8-28.6
			c-9.4-13-25-48.5-44.2-32.8C23.1,212,26.1,232,9.3,244c0-10.4,0-20.8,0-31.2c17-8.9,16.2-26.6,31.4-37.1
			c20-13.8,34,20.6,43.6,33.8c13.6,18.7,23.2,27.5,46.7,25c9.1-1.1,18.3-1.9,27.5-2.3c9.7,1.4,19.6,1.6,29.4,0.6
			c6.6-6.3,11.6-14.1,14.3-22.8c7.9-5.1,15.3-4.3,22.1,2.5c10.6-1.7,17.8,2.8,21.6,13.6c4.4,9.9,9.1,19.7,13.9,29.4
			c6.8,16.3,8.6,45.1,29.5,24.2c7.7-6.6,14.1-14.7,18.6-23.9c4.6-10,12.4-15.2,23.4-15.4c14.7-4.7,26.3-11.3,42.2-9.6
			c12.4,1.4,27,9.3,39.1,4c13.4-5.9,14.8-21.2,31.2-23.9c15.1-2.4,28.9,9.2,42.8,12.6c23.2,5.8,32.8,13.9,44.8,35.7
			c7.6,13.8,15.8,60.1,33,27.4c11.3-21.4,15.5-42.9,32.2-61.1c6.7-11.1,17.8-18.9,30.5-21.5c10.6,6.6,19.6,15.6,26.2,26.2
			C653.4,240.2,653.4,245,653.4,254.7z"/>
		<path class="st0" d="M653.3,201c-11.6-12.4-17.9-22.5-34-18.1c-10,2.8-19,12.9-26.3,20c-14.3,14-16,39.9-31.1,52
			C544.3,269,538.3,229,529.5,217c-5.7-7.8-12.6-16.1-21.3-20.6s-15-3.2-24.4-5.1c-14.8-3-28-11.9-43.3-6.3
			c-12.4,4.5-18,19.4-31.2,21.7c-12.5,2.1-25.3-7.8-37.7-9.3c-15.4-1.9-27.5,5.8-41,12.8c-11.6,6-17.7,12-25,22.5
			c-5.1,7.4-10,15.9-19,19.2c-9.8,3.6-11.1,3.8-17.2-6.7c-5.1-8.7-7.4-19.4-12-28.4c-4.4-8.6-9.6-19.8-15.6-27.3
			c-8.6-10.6-11.6-6.9-22.6-8.2c-11.8-1.4-10.4-5.7-19.8,5.2c-5,5.8-9.3,13.3-17.5,15.3s-19.7-2.3-28.7-1.1
			c-8.5,1.1-17,3.9-25.3,6.1c-20.2,5.3-31.4-2.5-44-18.6c-10.4-13.4-22.9-41.7-42-28.5C27.7,169.5,25,185.3,8.5,192
			c-1-12.4-2.3-24.7-3.6-37c18.5-3.1,23.4-18.3,40.1-24c22.8-7.8,33.8,24.4,45.8,38c15.8,17.8,27.1,16.3,48.4,10.3
			c8.7-2.9,17.6-4.7,26.7-5.4c9.2,1.8,18.8,1.8,28,0c7.2-4.5,13-10.9,17-18.4c7.1,2.9,15.1,2.7,22-0.6c12.1,2.4,23.1,27.4,28.1,36.3
			c8,14,9.3,41.6,30.2,33.8c18.6-7,21.6-30.7,40.3-39.6c13.9-6.6,24.6-11.9,39.1-3.6c11,6.3,22.7,23.1,35.3,25.4
			c12.2,2.2,11.8-5.6,23.3-9.3c16.6-5.4,29.4,6,43.4,12.6c16.7,7.8,33.3,6.4,49.4,17.2c9.1,5.4,15.5,14.5,17.6,24.9
			c6.2,11.7,12.1,12.3,17.8,1.8c18.2-15.1,17.8-43.6,36.3-60c9.1-10.4,19.4-19.7,30.7-27.6c10.6-0.9,21.1,2.7,28.9,10
			C653.3,186.2,653.3,191.1,653.3,201z"/>
		<path class="st0" d="M653.4,147.4c-28.8-12.8-37.3,1.2-59.2,19.9c-10.6,1.7-16.9,8.3-19.1,19.8c-2.8,11.7-9.3,22.2-18.4,30
			c-17.8,8.8-19.3-23.1-34.7-29.7c-16.8-7.2-33.9-4.2-50.5-10.3c-16.3-6-27-14.7-44.3-6.9c-12.9,5.8-10.5,13.2-24.2,8.1
			c-13-4.9-22.3-23-34.1-30.6c-15.5-10-24.3-1.3-37.5,7.6c-14,9.4-22.3,35.4-39,38.8c-19.4,4-22.6-24.6-30.6-36.8
			c-5.2-7.8-17.6-32.4-29.1-33.8c-6.6,3.4-14,4.9-21.4,4.3c-3.6,8.2-9.7,13.4-18.1,15.3c-9.4,0-18.8-0.8-28-2.5
			c-8.5,1-16.8,3.3-24.6,7c-18.9,7.5-30.3,11.8-45.7-5.1C82.5,128.6,74.6,98.3,51.2,104c-17,4.2-22.9,16-41.6,15.5
			c-0.1-8,1.8-23.3-2.6-30.3c19.2,3.7,26-5.3,44-8.2c24.2-3.8,29.6,24.7,43.1,38.9c15.4,16.3,27,9.6,44.2,1c7.1-4.3,15-7.1,23.3-8.3
			c9.4,1.6,18.8,3.2,28.3,4.7c15.7-1,22.7-21.2,40-20c10.9,0.7,24.8,24.7,30.1,31.8c8.3,10.9,13.2,40.6,31.2,39.3
			c16-1.2,26.9-28.4,38.2-38.1c12.4-10.7,20.3-22.6,36.8-11c12.8,8.9,20.3,27.9,33.8,34.9c13.8,7.1,12.6,1.1,25.4-7.2
			c17-11.1,28.3-2.9,45.8,2.1c17,4.8,34.2,0.1,51.5,4.6c16.8,4.3,16.7,36.5,33.9,32.5c10.2-5.7,16.6-14.4,19.1-26.3
			c2.2-12.4,8.5-17.3,19.1-14.9c23-15.2,29.6-31.4,58.7-21.7C653.4,132.7,653.4,137.6,653.4,147.4z"/>
		<path class="st0" d="M653.3,93.8c-29.4-6.4-32.8,13.1-57.1,23.8c-8.7-6.9-15-4.5-19,7.1c-2.5,11.7-9,19.7-19.7,23.9
			c-17.3,0.8-13.7-33.6-31.6-36.5c-16.1-2.6-34.3,5.7-50.9,3.5c-18.7-2.5-30.3-12.5-47.5,0.4c-16.6,12.4-16.7,22.4-32.9,3.3
			c-9.1-10.8-20-33.9-34.1-38.9c-14.4-5.1-22.7,11-30.1,20S311,134,299.8,137.6c-20.1,6.5-26.2-25.3-33.7-35.3
			c-7.5-9.8-28.1-37.8-42.2-35.2c-18.3,3.4-21.1,24-41.1,18.6c-23.7-6.4-31.7-5.5-49.9,11.4c-13,12-25.4,26.4-42.5,12.3
			C75,96.8,71.5,76.1,48,83.4C29.7,89,21.5,97.4,1.5,95.1c-0.2-12.5,1-24.8,1.4-37.2c20.1,6.5,28.3,1.3,48.3-2.5
			C75.6,50.8,76.8,70.8,92.4,84c16.9,14.5,29-2.2,40.6-14.5c16.7-17.6,25.4-19.5,48.1-10c23.7,9.8,21.7-13,41.8-18.2
			c13.2-3.5,36.1,23.8,43.6,32.8c8.6,10.2,14.1,42.2,33.8,39.2c10.8-1.7,24-28.9,29.6-37.4c6.5-9.6,13.4-29.2,28.7-23.8
			c13.5,4.8,25.6,31.1,32.9,42.3c14.7,22.3,17.7,13.3,33.4-2c16.6-16.1,28.5-6.4,48.4-5.2c9.1,0.4,18.2-1.1,26.7-4.3
			c8.7,0.7,17.4-1.1,25.1-5.2c21.9,0.9,13.5,37.6,31.2,40c11.3-1.7,18.1-8.5,20.5-20.5c5.7-11.7,12.2-12.5,19.3-2.1
			c10.8-4.2,20.3-11.1,27.5-20.2c8.8-7.7,18.6-9.6,29.5-5.6C653.3,79.1,653.3,84,653.3,93.8z"/>
		<path class="st0" d="M653.4,40.1c-11.6-2.9-21.4,0.2-29.4,9.4c-6.4,9.1-15.7,15.8-26.3,19.1c-4.4-12.5-10.8-14.5-19.3-5.9
			c-2.7,11.6-9.7,18-21,19.1c-16.9-5.3-7.1-45.2-29.1-46.5c-7.3,5.4-15.9,8.9-24.9,10.2c-9.2,2.6-18.2,5.5-27.1,8.9
			c-22.1,3.3-35.9-8.2-52.8,11.2c-13.1,15-21.1,33.3-37.3,10.9c-10-13.8-17.8-34.1-32.3-44c-19.5-13.3-26.8,14-33.2,27.8
			c-4.9,10.6-13.5,42.3-29.7,40.1c-12.5-1.7-18.6-35-27-42.9c-8.5-3.5-15.7-9.5-20.7-17.2c-5.3-9-11.3-9.8-18.3-2.3
			c-17.9,13-12.1,30.2-37.6,17.5c-21-10.6-30.5-3.7-45.5,11.9C128.8,81,116.3,95.6,99.1,78.9C82.8,63,80.8,45.5,54.8,46.1
			c-23.5,0.6-33.9,0.5-54.7-11.4c-0.5-5.1,1.9-7.9,7.3-8.4c1.1-5.9,1.2-12,0.4-18c7.8,6.2,16.2,11.7,25,16.4
			c10.2,1.1,20.5,1.4,30.8,1.1c26.3,1.3,24.5,19.2,42,33.9c18.1,15.2,29.9-6.3,40-19.7c13.9-18.5,23.6-22.7,44.3-9
			c6.7,11.1,14.1,12,22.1,2.7c5.3-8.1,10.6-16.1,15.9-24.1c8.3-3.3,14.7-0.8,19,7.4c6.3,6.9,14,12.4,22.6,16
			c8.7,8.5,13.1,44.4,29.2,43.8c12.5-0.5,20.4-32.5,23.7-41.2c4.3-11.1,9.4-40.2,27.5-35c13.9,4,26.4,35.3,33,46.6
			c3.1,9.2,9.8,16.6,18.6,20.8c7.9-6.3,14.3-14.2,18.8-23.2c16.5-23.3,28.4-15.6,53.2-18.9c9.9-1.6,19.4-5.2,28-10.4
			c10-1.6,19.1-6.3,26.1-13.6c26.6-4.6,13.8,39.2,29.2,47.9c11.4,4.1,18.7-0.2,21.9-13c9.7-10.3,16-7.4,19.2,8.9
			c11.6-0.5,20.2-6,25.8-16.7c7.3-10.6,17.3-15,29.8-13.3C653.4,25.3,653.4,30.3,653.4,40.1z"/>
	</g>
</g>
</svg>
