<svg xmlns="http://www.w3.org/2000/svg" viewBox="0 0 519.1 518.7"><defs><style>.cls-1{fill:none;stroke:#fff;stroke-width:2px;}</style></defs><g id="Layer_2" data-name="Layer 2"><g id="Layer_1-2" data-name="Layer 1"><path class="cls-1" d="M517.8,259.5v-.8l-.1-.8-.1-.8-.1-.8-.2-.8-.2-.8-.3-.8-.3-.8-.3-.8-.4-.8-.4-.8-.5-.8-.5-.8-.5-.8-.6-.7-.6-.7-.7-.7-.7-.7-.7-.7-.8-.7-.8-.7-.8-.7-.9-.7-.9-.7-1-.6-1-.6-1-.6-1.1-.6-1.1-.6-1.1-.5-1.2-.5-1.2-.5-1.2-.5-1.3-.5-1.3-.5-1.3-.4-1.4-.4-1.4-.4-1.4-.4-1.5-.4-1.5-.4-1.5-.3-1.6-.3-1.6-.3-1.6-.3-1.7-.2-1.7-.2-1.7-.2-1.7-.1-1.8-.1-1.8-.1-1.8-.1-1.8-.1h-5.7l-1.9.1-1.9.1-2,.1-2,.1-2,.2-2,.2-2.1.2-2.1.3-2.1.3-2.1.3-2.1.3-2.2.4-2.2.4-2.2.4-2.2.5-2.2.5-2.2.5-2.2.6-2.2.6-2.3.6-2.3.6-2.3.7-2.3.7-2.3.7-2.3.8-2.3.8-2.3.8-2.3.9-2.3.9-2.3.9-2.3.9-2.3,1-2.3,1-2.3,1.1-2.3,1.1-2.3,1.1-2.3,1.1-2.4,1.2-2.3,1.2-2.3,1.2-2.3,1.3-2.3,1.3-2.3,1.3-2.3,1.4-2.3,1.4-2.3,1.4-2.3,1.4-2.3,1.5-2.3,1.5-2.3,1.5-2.3,1.5-2.3,1.6-2.3,1.6-2.3,1.6-2.2,1.6-2.2,1.7-2.2,1.7-2.2,1.7-2.2,1.8-2.2,1.8-2.2,1.8-2.1,1.8-2.1,1.9-2.1,1.9-2.1,1.9-2.1,1.9-2.1,1.9-2,2-2,2-2,2-2,2-2,2-1.9,2-1.9,2.1-1.9,2.1-1.9,2.1-1.9,2.1-1.8,2.1-1.8,2.1-1.8,2.2-1.8,2.2-1.7,2.2-1.7,2.2-1.7,2.2-1.7,2.2-1.6,2.2-1.6,2.3-1.6,2.3-1.6,2.3-1.5,2.3-1.5,2.3-1.5,2.3-1.4,2.3-1.4,2.3-1.4,2.3-1.4,2.3-1.3,2.3-1.3,2.3-1.3,2.3-1.2,2.3-1.2,2.3-1.2,2.3-1.1,2.3-1.1,2.4-1.1,2.3-1.1,2.3-1,2.3-1,2.3-1,2.3-.9,2.3-.9,2.3-.9,2.3-.8,2.3-.8,2.3-.8,2.3-.8,2.3-.7,2.3-.7,2.3-.6,2.3-.6,2.3-.6,2.3-.6,2.2-.5,2.2-.5,2.2-.5,2.2-.5,2.2-.4,2.2-.4,2.2-.4,2.1-.3,2.1-.3,2.1-.3,2.1-.2,2.1-.2,2-.2,2-.1,2-.1,2-.1,2-.1,1.9v7.5l.1,1.8.1,1.8.1,1.8.1,1.7.2,1.7.2,1.7.2,1.7.2,1.6.3,1.6.3,1.6.3,1.5.3,1.5.4,1.5.4,1.5.4,1.4.4,1.4.4,1.4.5,1.3.5,1.3.5,1.3.5,1.2.5,1.2.5,1.2.6,1.1.6,1.1.6,1,.6,1,.6,1,.6.9.7.9.7.9.7.8.7.8.7.8.7.7.7.7.7.6.7.6.8.5.8.5.8.5.8.4.8.4.8.4.8.3.8.3.8.2.8.2.8.2.8.1.8.1h2.4l.8-.1.8-.1.8-.2.8-.2.8-.3.8-.3.8-.3.8-.4.8-.4.8-.5.8-.5.8-.5.8-.6.7-.6.7-.6.7-.7.7-.7.7-.8.7-.8.7-.8.7-.9.6-.9.6-1,.6-1,.6-1,.6-1.1.6-1.1.6-1.1.5-1.2.5-1.2.5-1.2.5-1.3.5-1.3.5-1.3.4-1.4.4-1.4.4-1.4.4-1.5.4-1.5.3-1.5.3-1.5.3-1.6.3-1.6.2-1.6.2-1.7.2-1.7.2-1.7.1-1.8.1-1.8.1-1.8.1-1.8v-7.6l-.1-2-.1-2-.1-2-.2-2-.2-2-.2-2.1-.3-2.1-.3-2.1-.3-2.1-.3-2.1-.4-2.1-.4-2.2-.4-2.2-.5-2.2-1.1-1.5-.5-2.2-.5-2.2-.6-2.2-.6-2.3-.6-2.3-.7-2.3-.7-2.3-.8-2.2-.8-2.3-.8-2.3-.8-2.3-.9-2.3-.9-2.3-.9-2.3-1-2.3-1-2.3-1-2.3-1-2.3-1.1-2.3-1.1-2.3-1.1-2.4-1.2-2.3-1.2-2.3-1.2-2.3-1.3-2.3-1.3-2.3-1.3-2.3-1.3-2.3-1.4-2.3L255,358l-1.4-2.3-1.5-2.3-1.5-2.3-1.5-2.3-1.5-2.3-1.6-2.3-1.6-2.3-1.6-2.3-1.6-2.2-1.7-2.2-1.7-2.2-1.7-2.2-1.7-2.2-1.8-2.2-1.8-2.2-1.8-2.1-1.8-2.1-1.9-2.1-1.9-2.1-1.9-2.1-1.9-2.1-1.9-2-2-2-2-2-2-2-2-2-2-2-2.1-1.9-2.1-1.9-2.1-1.9-2.1-1.9-2.1-1.8-2.1-1.8-2.2-1.8-2.2-1.8-2.2-1.7-2.2-1.7-2.2-1.7-2.2-1.7-2.2-1.6-2.3-1.6-2.3-1.6-2.3-1.6-2.3-1.5-2.3-1.5-2.2-1.9-2.3-1.4-2.3-1.4-2.3-1.4-2.3-1.4-2.3-1.3-2.3-1.3-2.3-1.3-2.3-1.3-2.3-1.2-2.3-1.2-2.4-1.2-2.3-1.1-2.3-1.1-2.3-1.1-2.3-1-2.3-1-2.3-1-2.3-1-2.3-.9-2.3-.9-2.3-.9-2.3-.8-2.3-.8-2.3-.8-2.3-.7-2.3-.7-2.3-.7-2.3-.6-2.3-.6L97,236l-2.2-.6-2.2-.5-2.2-.5-2.2-.5-2.2-.4-2.1-.4-2.1-.4-2.1-.3-2.1-.3-2.1-.3-2.1-.3-2-.2-2-.2-2-.2-2-.1-2-.1-1.9-.1H53.9l-1.8.1-1.8.1-1.8.1-1.8.1-1.7.2-1.7.2-1.7.2-1.6.2-1.6.3-1.6.3-1.6.3-1.5.3-1.5.4-1.5.4-1.4.4-1.4.4-1.4.4-1.3.4-1.3.5-1.3.5-1.2.5-1.2.5-1.2.5-1.1.6-1.1.6-1.1.6-1,.6-1,.6-1,.6-.9.6-.9.7-.8.7-.8.7-.8.7-.7.7-.7.7-.6.7-.6.7-.6.8-.5.8-.5.8-.4.8-.4.8-.4.8-.3.8-.3.8-.3.8-.2.8-.2.8-.1.8-.1.8-.1.8v1.6l.1.8.1.8.1.8.2.8.2.8.3.8.3.8.4.8.4.8.4.8.5.8.5.8.5.8.6.7.6.7.7.7.7.7.8.7.8.7.8.7.9.7.9.7.9.6,1,.6,1,.6,1.1.6,1.1.6,1.1.6,1.1.5,1.2.5,1.2.5,1.3.5,1.3.5,1.3.5,1.4.4,1.4.4,1.4.4,1.4.4,1.5.4,1.5.3,1.5.3,1.6.3,1.6.3,1.6.2,1.7.2,1.7.2,1.7.2,1.7.1,1.8.1,1.8.1,1.8.1h7.6l1.9-.1,2-.1,2-.1,2-.1,2-.2,2-.2,2.1-.2,2.1-.3,2.1-.3,2.1-.3,2.1-.4,2.1-.4,2.2-.4,2.2-.5,2.2-.5,2.2-.5,2.2-.5,2.2-.6,2.3-.6,2.3-.6,2.3-.7,2.3-.7,2.3-.7,2.3-.8,2.3-.8,2.3-.8,2.3-.8,2.3-.9,2.3-.9,2.3-.9,2.3-1,2.3-1,2.3-1,2.3-1.1,2.3-1.1,2.3-1.1,2.3-1.1,2.3-1.2,2.3-1.2,2.3-1.2,2.3-1.3,2.3-1.3,2.3-1.3,2.3-1.4,2.3-1.4,2.3-1.4,2.3-1.5,2.3-1.5,2.3-1.5,2.3-1.5,2.3-1.6,2.3-1.6,2.3-1.6,2.2-1.6,2.2-1.7,2.2-1.7,2.2-1.7,2.2-1.7,2.2-1.8,2.2-1.8,2.2-1.8,2.1-1.8,2.1-1.9,2.1-1.9,2.1-1.9,2.1-1.9,2.1-1.9,2-2,2-2,2-2,2-2,2-2,1.9-2.1,1.9-2.1,1.9-2.1,1.9-2.1,1.9-2.1,1.8-2.1,1.8-2.2,1.8-2.2,1.8-2.2,1.7-2.2,1.7-2.2,1.7-2.2,1.6-2.2L244,178l1.6-2.3,1.6-2.3,1.5-2.3,1.5-2.3,1.5-2.3,1.5-2.3,1.4-2.3,1.4-2.3,1.4-2.3,1.4-2.3,1.3-2.3,1.3-2.3,1.3-2.3,1.2-2.3,1.2-2.4,1.2-2.3,1.1-2.3,1.1-2.3,1.1-2.4,1-2.3,1-2.3,1-2.3,1-2.3.9-2.3.9-2.3.9-2.3.8-2.3.8-2.3.8-2.3.7-2.3.7-2.3.7-2.3.6-2.3.6-2.3.6-2.2.6-2.2.5-2.2.5-2.2.5-2.2.4-2.2.4-2.2.4-2.1.4-2.1.3-2.1.3-2.1.3-2.1.2-2.1.2-2,.2-2,.1-2,.1-2,.1-2V52.2l-.1-1.8-.1-1.8-.1-1.8-.2-1.7-.2-1.7-.2-1.7-.2-1.6-.3-1.6-.3-1.6-.3-1.6-.3-1.5-.3-1.5-.4-1.5-.4-1.4-.4-1.4-.4-1.4-.4-1.3L283,24l-.5-1.3-.5-1.3-.5-1.2L281,19l-.5-1.1-.6-1.1-.6-1.1-.6-1-.6-1-.6-1-.7-.9-.7-.9-.7-.8-.7-.8-.7-.8-.7-.7-.7-.7-.7-.7-.7-.6-.8-.6-.8-.5-.8-.5-.8-.5-.8-.4-.8-.4-.8-.3-.8-.3L264,2l-.8-.2-.8-.2-.8-.1-.8-.1-.8-.1h-1.6l-.8.1-.8.1-.8.2-.8.2-.8.2-.8.3-.8.3L252,3l-.8.4-.8.4-.8.5-.8.5-.8.5-.8.6-.7.6-.7.7-.7.7-.7.7-.7.8-.7.8-.7.8-.7.9-.7.9-.6,1-.6,1-.6,1-.1.9-.6,1.1-.5,1.1-.5,1.2-.5,1.2-.5,1.2-.5,1.3-.5,1.3-.4,1.3-.4,1.4-.4,1.4-.4,1.4-.4,1.5-.3,1.5-.3,1.5-.3,1.6-.3,1.6-.3,1.6-.2,1.7-.2,1.7-.2,1.7-.2,1.7-.1,1.8-.1,1.8-.1,1.8v9.4l.1,2,.1,2,.1,2,.2,2,.2,2,.2,2.1.3,2.1.3,2.1.3,2.1.3,2.1.4,2.1.4,2.2.4,2.2.5,2.2.5,2.2.5,2.2.6,2.2.6,2.2.6,2.3.6,2.3.7,2.3.7,2.3.7,2.3.8,2.3.8,2.3.8,2.3.9,2.3.9,2.3.9,2.3,1,2.3,1,2.3,1,2.3,1,2.3,1.1,2.3,1.1,2.3,1.1,2.3,1.2,2.3,1.2,2.3,1.2,2.3,1.3,2.3,1.3,2.3,1.3,2.3,1.4,2.3,1.4,2.3,1.4,2.3,1.4,2.3,1.5,2.3,1.5,2.3,1.5,2.3,1.5,2.3,1.6,2.3,1.6,2.3,1.6,2.3,1.6,2.2,1.7,2.2,1.7,2.2,1.7,2.2,1.8,2.2,1.8,2.2,1.8,2.2,1.8,2.1,1.8,2.1,1.9,2.1,1.9,2.1,1.9,2.1,1.9,2.1,2,2,2,2,2,2,2,2,2,2,2,1.9,2.1,1.9,2.1,1.9,2.1,1.9,2.1,1.9,2.1,1.8,2.2,1.8,2.2,1.8,2.2,1.8,2.2,1.7,2.2,1.7,2.2,1.7,2.2,1.7,2.2,1.6,2.3,1.6,2.3,1.6,2.3,1.5,2.3,1.5,2.3,1.5,2.3,1.5,2.3,1.4,2.3,1.4,2.3,1.4,2.3,1.4,2.3,1.3,2.3,1.3,2.3,1.3L372,263l2.3,1.2,2.3,1.2,2.3,1.1,2.3,1.1,2.3,1.1,2.3,1.1,2.3,1,2.3,1,2.3,1,2.3.9,2.3.9,2.3.9,2.3.8,2.3.8,2.3.8,2.3.8,2.3.7,2.3.7,2.3.7,2.3.6,2.3.6,2.2.6,2.2.5,2.2.5,2.2.5,2.2.5,2.2.4,2.1.4,2.1.4,2.1.3,2.1.3,2.1.3,2.1.2,2.1.2,2,.2,2,.1,2,.1,2,.1,1.9.1h7.6l1.8-.1,1.8-.1,1.8-.1,1.7-.1,1.7-.2,1.7-.2,1.7-.2,1.6-.2,1.6-.3,1.6-.3,1.5-.3,1.5-.3,1.5-.4,1.5-.4,1.4-.4,1.4-.4,1.3-.4,1.3-.5,1.3-.5,1.3-.5,1.2-.5,1.2-.5,1.2-.6,1.1-.6,1.1-.6,1-.6,1-.6,1-.6.9-.6.9-.6.9-.7.8-.7.8-.7.7-.7.7-.7.7-.7.6-.7.6-.7.5-.8.5-.8.5-.8.4-.8.4-.8.4-.8.3-.8.3-.8.2-.8.2-.8.2-.8.1-.8.1-.8v-2.4l-.1-.8-.1-.8-.2-.8-.2-.8-.3-.8-.3-.8-.3-.8-.4-.8-.4-.8-.5-.8-.5-.8.1-.1-.6-.7-.6-.7-.6-.7-.7-.7-.7-.7-.8-.7-.8-.7-.8-.7-.9-.7-.9-.6-.9-.6-1-.6-1-.6-1.1-.6-1.1-.6-1.1-.6-1.2-.5-1.2-.5-1.2-.5-1.3-.5-1.3-.5-1.3-.5-1.4-.4-1.4-.4-1.4-.4-1.5-.4-1.5-.3-1.5-.3-1.5-.3-1.6-.3-1.6-.3-1.6-.2-1.7-.2-1.7-.2-1.7-.2-1.8-.1-1.8-.1-1.8-.1-1.8-.1H458l-1.9.1-2,.1-2,.1-2,.2-2,.2-2,.2-2.1.2-2.1.3-2.1.3-2.1.3-2.1.4-2.2.4-2.2.4-2.2.5-2.2.5-2.2.5-2.2.5-2.2.6-2.3.6-2.3.6-2.3.7-2.3.7-2.3.7-2.3.8-2.3.8-2.3.8-2.3.9-2.3.9-2.3.9-2.3.9-2.3,1-2.3,1-2.3,1-2.3,1.1-2.3,1.1-2.4,1.1-2.3,1.2-2.3,1.2-2.3,1.2-2.3,1.3-2.3,1.3-2.3,1.3-2.3,1.3-2.3,1.4-2.3,1.4-2.3,1.4-2.3,1.5-2.3,1.5-2.3,1.5-2.3,1.5-2.3,1.6-2.3,1.6-2.3,1.6-2.6,1.6-2.2,1.7-2.2,1.7-2.2,1.7-2.2,1.7-2.2,1.8-2.2,1.8-2.2,1.8-2.1,1.8-2.1,1.9-2.1,1.9-2.1,1.9-2.1,1.9-2,2-2,2-2,2-2,2-2,2-1.9,2-1.9,2.1-1.9,2.1-1.9,2.1-1.9,2.1-1.8,2.1-1.8,2.1-1.8,2.2-1.8,2.2-1.7,2.2-1.7,2.2-1.7,2.2-1.7,2.2-1.6,2.2-1.6,2.3-1.6,2.3-1.6,2.3-1.5,2.3-1.5,2.3-1.5,2.3-1.5,2.3-1.4,2.3-1.4,2.3-1.4,2.3-1.3,2.3-1.3,2.3-1.3,2.3-1.2,2.3-1.2,2.3-1.2,2.3-1.2,2.3-1.1,2.3-1.1,2.3-1.1,2.4-1,2.3-1,2.3-1,2.3-.9,2.3-.9,2.3-.9,2.3-.9,2.3-.8,2.3-.8,2.3-.8,2.3-.7,2.3-.7,2.3-.7,2.3-.6,2.3-.6,2.3-.6,2.2-.6,2.2-.5,2.2-.5,2.2-.4,2.2-.4,2.2-.4,2.2-.4,2.1-.3,2.1-.3,2.1-.3,2.1-.3,2.1-.2,2-.2,2-.2,2-.1,2-.1,2-.1,2v7.5l.1,1.8.1,1.8.1,1.8.1,1.8.2,1.7.2,1.7.2,1.7.2,1.6.3,1.6.3,1.6.3,1.6.3,1.5.3,1.5.4,1.5.4,1.4.4,1.4.4,1.4.4,1.3.5,1.3.5,1.3.5,1.2.5,1.2.5,1.2.6,1.1.6,1.1.6,1.1.6,1,.6,1,.6.9.6.9.7.9.7.8.7.8.7.8.7.7.7.7.7.7.7.6.7.6.8.5.8.5.8.4.8.4.8.4.8.3.8.3.8.3.8.2.8.2.8.1.8.1h2.4l.8-.1.8-.1.8-.2.8-.2.8-.2.8-.3.8-.3.8-.4.8-.4.8-.4.8-.5.8-.5.8-.6.7-.6.7-.6.7-.7.7-.7.7-.7.7-.8.7-.8.7-.9.7-.9.6-.9.6-1,.6-1,.6-1.1.6-1.1.6-1.1.5-1.2.5-1.2.5-1.2.5-1.3.5-1.3.5-1.3.4-1.4.4-1.4.4-1.4.4-1.5.4-1.5.3-1.5.3-1.5.3-1.6.3-1.6.2-1.6.2-1.7.2-1.7.2-1.7.1-1.7.1-1.8.1-1.8.1-1.8v-7.5l-.1-1.9-.1-2-.1-2-.1-2-.2-2-.2-2-.2-2.1-.3-2.1-.3-2.1-.3-2.1-.4-2.1-.4-2.1-.4-2.2-.4-2.2-.5-2.2-.5-2.2-.5-2.2-.6-2.2-.6-2.3-.6-2.3-.7-2.3-.7-2.3-.7-2.3-.8-2.3-.8-2.3-.8-2.3-.8-2.3-.9-2.3-.9-2.3-.9-2.3-1-2.3-1-2.3-1-2.3-1.1-2.3-1.1-2.4-1.1-2.3-1.2-2.3-1.2-2.4-1.2-2.3-1.2-2.3-1.3-2.3-1.3-2.3-1.3-2.3-1.4-2.3-1.4-2.3-1.4-2.3-1.4-2.3-1.5-2.3-1.5-2.3-1.5-2.3-1.6-2.3-1.6-2.3-1.6-2.3-1.6-2.2-1.7-2.2-1.7-2.2-1.7-2.2-1.7-2.2-1.8-2.2-1.8-2.2-1.8-2.1-1.8-2.1-1.8-2.1-1.9-2.1-1.9-2.1-1.9-2.1-1.9-2-2-2-2-2-2-2-2-2-2-2-2.1-1.9-2.1-1.9-2.1-1.9-2.1-1.9-2.1-1.8-2.1-1.8-2.2-1.8-2.2-1.8-2.2-1.8-2.2-1.7-2.2-1.7-2.2-1.7-2.2-1.6-2.3-1.6-2.3-1.6-2.3-1.6-2.3-1.5-2.3-1.5-2.3-1.5-2.3-1.5-2.3-1.4-2.3-1.4-2.3-1.4-2.3-1.3-2.3-1.3-2.3-1.3-2.3-1.3-2.3-1.2-2.3-1.2-2.3-1.2-2.3-1.1-2.4-1.1-2.3-1.1-2.3-1.1-2.3-1-2.3-1-2.3-1-2.3-.9-2.3-.9-2.3-.9-2.3-.8-2.3-.8-2.3-.8-2.3-.7-2.3-.7-2.3-.7-2.3-.6-2.3-.6-2.2-.6-2.2-.5-2.2-.5-2.2-.5-2.2-.5-2.2-.4-2.2-.4-2.1-.4-2.1-.3-2.1-.3-2.1-.3L74,232l-2.1-.2-2-.2-2-.2-2-.1-2-.1-2-.1L60,231H54.3l-1.8.1-1.8.1-1.8.1-1.8.1-1.7.1-1.7.2-1.7.2-1.6.2-1.6.3-1.6.3-1.6.3-1.5.3-1.5.3-1.5.4-1.4.4-1.4.4-1.4.4-1.3.5-1.3.5-1.3.5-1.2.5-1.2.5-1.2.5-1.1.6-1.1.6-1.1.6-1,.6-1,.6-1,.6-.9.6-.9.7-.9.7-.8.7-.8.7-.7.7-.7.7-.7.7-.6.7-.6.8-.5.8-.5.8-.5.8-.4.8-.4.8-.3.8-.3.8-.3.8-.2.8-.2.8-.1.8-.1.8-.1.8v1.6l.1.8.1.8.1.8.2.8.2.8.3.8.3.8.3.8.4.8.4.8.5.8.5.8.6.8.6.8.6.7.7.7.7.7.7.7.8.7.8.7.9.7.9.7.9.6,1,.6,1,.6,1,.6,1.1.6,1.1.6,1.1.5,1.2.5,1.2.5,1.2.5,1.3.5,1.3.5,1.4.5,1.4.4,1.4.4,1.4.4,1.5.4,1.5.3,1.5.3,1.6.3,1.6.3,1.6.3,1.7.2,1.7.2,1.7.2,1.7.1,1.8.1,1.8.1,1.8.1h7.5l1.9-.1,1.9-.1,2-.1,2-.1,2-.2,2-.2,2-.2,2.1-.3,2.1-.3,2.1-.3,2.1-.3,2.2-.4,2.2-.4,2.2-.4,2.2-.5,2.2-.5,2.2-.5,2.2-.6,2.2-.6,2.3-.6,2.3-.7,2.3-.7,2.3-.7,2.3-.7,2.3-.8,2.3-.8,2.3-.8,2.3-.9,2.3-.9,2.3-.9,2.3-1,2.3-1,2.3-1,2.3-1,2.3-1.1,2.3-1.1,2.4-1.1,2.3-1.2,2.3-1.2,2.3-1.2,2.3-1.3,2.3-1.3,2.3-1.3,2.3-1.4,2.3-1.4,2.3-1.4,2.3-1.4,2.3-1.5,2.3-1.5,2.3-1.5,2.3-1.5,2.3-1.6,2.3-1.6,2.3-1.6,2.2-1.6,2.2-1.7,2.2-1.7,2.2-1.7,2.2-1.8,2.2-1.8,2.2-1.8,2.1-1.8,2.1-1.8,2.1-1.9,2.1-1.9,2.1-1.9,2.1-1.9,2-2,2-2,2-2,2-2,2-2,1.9-2.1,1.9-2.1,1.9-2.1,1.9-2.1,1.8-2.1,1.8-2.1,1.8-2.2,1.8-2.2,1.8-2.2,1.7-2.2,1.7-2.2,1.7-2.2,1.7-2.2,1.6-2.2,1.6-2.3,1.6-2.3,1.5-2.3,1.5-2.3,1.5-2.3,1.5-2.3,1.4-2.3,1.4-2.3,1.4-2.3,1.4-2.3,1.3-2.3,1.3-2.3,1.3-2.3,1.2-2.3,1.2-2.3,1.2-2.3,1.2-2.3,1.1-2.3,1.1-2.3,1.1-2.3,1-2.3,1-2.3,1-2.3.9-2.3.9-2.3.9-2.3.8-2.3.8-2.3.8-2.3.8-2.3.7-2.3.7-2.3.7-2.3.6-2.3.6-2.3.6-2.2.5-2.2.5-2.2.5-2.2.4-2.2.4-2.2.4-2.2.4-2.1.3-2.1.3-2.1.3-2.1.2-2.1.2-2,.2-2,.2-2,.1-2,.1-2,.1-1.9V53.7l-.1-1.8-.1-1.8-.1-1.8-.1-1.7-.2-1.7-.2-1.7-.2-1.7-.2-1.6-.3-1.6-.3-1.6-.3-1.5-.3-1.5-.4-1.5-.6-2.5-.4-1.4-.4-1.4-.4-1.4-.5-1.3-.5-1.3-.5-1.3-.5-1.2-.5-1.2-.5-1.2-.6-1.1-.6-1.1-.6-1-.6-1-.6-1-.6-.9-.6-.9-.7-.9-.7-.8-.7-.8-.7-.7-.7-.7-.7-.7-.7-.6-.7-.6-1-.5-.8-.5-.8-.5-.8-.4-.8-.4-.8-.4-.8-.3-.8-.3-.8-.2-.8-.2-.8-.2-.8-.1-.8-.1h-1.6l-.8.1-.8.1-.8.1-.8.2-.8.2-.8.3-.8.3-.8.3-.8.4-.8.4-.8.4-.8.5-.8.5-.8.6-.7.6-.7.6-.7.7-.7.7-.7.8-.7.8-.7.8-.7.9-.7.9-.6,1-.6,1-.6,1-.6,1.1-.6,1.1-.6,1.1-.5,1.2-.5,1.2-.5,1.2-.5,1.3-.5,1.3-.5,1.3-.4,1.4-.4,1.4-.4,1.4-.4,1.5-.4,1.5-.3,1.5-.3,1.6-.3,1.6-.3,1.6-.2,1.6-.2,1.7-.2,1.7-.2,1.7-.1,1.8-.1,1.8-.1,1.8V61l.1,1.9.1,2,.1,2,.2,2,.2,2,.2,2.1.3,2.1.3,2.1.3,2.1.3,2.1.4,2.1.4,2.2.4,2.2.5,2.2.5,2.2.5,2.2.5,2.2.6,2.2.6,2.3.6,2.3.7,2.3.7,2.3.7,2.3.8,2.3.8,2.3.8,2.3.9,2.3.9,2.3.9,2.3,1,2.3,1,2.3,1,2.3,1,2.3,1.1,2.3,1.1,2.4,1.1,2.3,1.2,2.3,1.2,2.3,1.2,2.3,1.3,2.3,1.3,2.3,1.3,2.3,1.3,2.3,1.4,2.3,1.4,2.3,1.4,2.3,1.4,2.3,1.5,2.3,1.5,2.3,1.5,2.3,1.6,2.3,1.6,2.3,1.6,2.3,1.6,2.2,1.7,2.2,1.7,2.2,1.7,2.2,1.7,2.2,1.8,2.2,1.8,2.2,1.8,2.1,1.8,2.1,1.9,2.1,1.9,2.1,1.9,2.1,1.9,2.1,1.9,2,2,2,2,2,2,2,2,2,2,1.9,2.1,1.9,2.1,1.9,2.1,1.9,2.1,1.9,2.1,1.8,2.1,1.8,2.2,1.8,2.2,1.8,2.2,1.7,2.2,1.7,2.2,1.7,2.2,1.7,2.2,1.6,2.3,1.6,2.3,1.6,2.3,1.6,2.3,1.5,2.3,1.5,2.3,1.5,2.3,1.5,2.3,1.4,2.3,1.4,2.3,1.4,2.3,1.3,2.3,1.3,2.3,1.3,2.3,1.3,2.3,1.2,2.3,1.2,2.3,1.1,2.3,1.1,2.3,1.1,2.3,1.1,2.3,1,2.3,1,2.3,1,2.3,1,2.3.9,2.3.9,2.3.9,2.3.8,2.3.8,2.3.8,2.3.7,2.3.7,2.3.7,2.3.6,2.3.6,2.2.6,2.2.5,2.2.5,2.2.5,2.2.5,2.2.4,2.2.4,2.1.4,2.1.3,2.1.3,2.1.3,2.1.3,2.1.2,2,.2,2,.2,2,.1,2,.1,1.9.1h7.6l1.8-.1,1.8-.1,1.8-.1,1.8-.1,1.7-.2,1.7-.2,1.7-.2,1.6-.2,1.6-.3,1.6-.3,1.6-.3,1.5-.3,1.5-.3,1.5-.4,1.4-.4,1.4-.4,1.4-.4,1.3-.4,1.3-.5,1.3-.5,1.2-.5,1.2-.5,1.2-.5,1.1-.6,1.1-.6,1-.6,1-.6,1-.6,1-.6.9-.7.9-.7.8-.7.8-.7.8-.7.7-.7.7-.7.6-.7.6-.7.6-.8.5-.8.5-.8.5-.8.4-.8.4-.8.3-.8.3-.8.2-.8.2-.8.2-.8.1-.8.1-.8V258l-.1-.8-.1-.8-.2-.8-.2-.8-.2-.8-.3-.8-.3-.8-.4-.8-.4-.8-.4-.8-.5-.8-.5-.8-.5-.8-.6-.7-.6-.7-.7-.7-.7-.7-.8-.7-.8-.7-.8-.7-.9-.7-.9-.6-.9-.6-1-.6-1-.6-1-.6-1.1-.6-1.1-.6-1.2-.5-1.2-.5-1.2-.5-1.3-.5-1.3-.5-1.3-.5-1.4-.4-1.4-.4-1.4-.4-1.4-.4-1.5-.4-1.5-.3-1.6-.3-1.6-.3-1.6-.3-1.6-.2-1.7-.2-1.7-.2-1.7-.2-1.7-.1-1.8-.1-1.8-.1-1.8-.1h-7.6l-1.9.1-2,.1-2,.1-2,.2-2,.2-2,.2-2.1.2-2.1.3-2.1.3-2.1.3-2.1.4-2.2.4-2.2.4-2.2.4-2.2.5-2.2.5-2.2.5-2.2.6-2.3.6-2.3.6-2.3.7-2.3.7-2.3.7-2.3.8-2.3.8-2.3.8-2.3.8-2.3.9-2.3.9-2.3.9-2.3,1-2.3,1-2.3,1-2.3,1.1-2.3,1.1-2.3,1.1-2.4,1.2-2.3,1.2-2.3,1.2-2.3,1.2-2.3,1.3-2.3,1.3-2.3,1.3-2.3,1.4-2.3,1.4-2.3,1.4-2.3,1.4-2.3,1.5-2.3,1.5-2.3,1.5-2.3,1.5-2.3,1.6-2.3,1.6-2.2,1.6-2.2,1.7-2.2,1.7-2.2,1.7-2.2,1.7-2.2,1.8-2.2,1.8-2.1,1.8-2.1,1.8-2.1,1.9-2.1,1.9-2.1,1.9-2.1,1.9-2,1.9-2,2-2,2-2,2-2,2-2,2-1.9,2.1-1.4,2.4-1.9,2.1-1.9,2.1-1.9,2.1-1.8,2.1-1.8,2.2-1.8,2.2-1.8,2.2-1.7,2.2-1.7,2.2-1.7,2.2-1.7,2.2-1.6,2.3-1.6,2.3-1.6,2.3-1.5,2.3-1.5,2.3-1.5,2.3-1.5,2.3-1.4,2.3-1.4,2.3-1.4,2.3-1.3,2.3-1.3,2.3-1.3,2.3-1.3,2.3-1.2,2.3-1.2,2.3-1.2,2.3-1.1,2.3-1.1,2.4-1.1,2.3-1,2.3-1,2.3-1,2.3-1,2.3-.9,2.3-.9,2.3-.9,2.3-.8,2.3-.8,2.3-.8,2.3-.7,2.3-.7,2.3-.7,2.3-.6,2.3-.6,2.3-.6,2.2-.5,2.2-.5,2.2-.5,2.2-.5,2.2-.4,2.2-.4,2.2-.4,2.1-.3,2.1-.3,2.1-.3,2.1-.3,2.1-.2,2.1-.2,2-.2,2-.1,2-.1,2-.1,2-.1,1.9v7.5l.1,1.8.1,1.8.1,1.8.2,1.7.2,1.7.2,1.7.2,1.7.3,1.6.3,1.6.3,1.6.3,1.5.3,1.5.4,1.5.4,1.4.4,1.4.4,1.4.5,1.3.5,1.3.5,1.3.5,1.2.5,1.2.5,1.2.6,1.1.6,1.1.6,1.1.6,1,.6,1,.6,1,.6.9.7.9.7.8.7.8.7.8.7.7.7.7.7.7.7.6.7.6.8.5.8.5.8.5.8.4.8.4.8.3.8.3.8.3.8.2.8.2.8.1.8.1.8.1h1.6l.8-.1.8-.1.8-.1.8-.2.8-.2.8-.3.8-.3.8-.3.8-.4.8-.4.8-.5.8-.5.8-.5.7-.6.7-.6.7-.7.7-.7.7-.7.7-.8.7-.8.7-.9.7-.9.6-.9.6-1,.6-1,.6-1,.6-1.1.6-1.1.6-1.2.5-1.2.5-1.2.5-1.3.5-1.3.5-1.3.4-1.3.4-1.4.4-1.4.4-1.4.4-1.5.3-1.5.3-1.5.3-1.6.3-1.6.2-1.6.2-1.7.2-1.7.2-1.7.2-1.7.1-1.8.1-1.8.1-1.8v-7.5l-.1-1.9-.1-2-.1-2-.1-2-.2-2-.2-2-.2-2.1-.3-2.1-.3-2.1-.3-2.1-.3-2.1-.4-2.1-.4-2.2-.4-2.2-.5-2.2-.5-2.2-.5-2.2-.6-2.2-.6-2.2-.6-2.3-.6-2.3-.7-2.3-.7-2.3-.8-2.3-.8-2.3-.8-2.3-.8-2.3-.9-2.3-.9-2.3-.9-2.3-1-2.3-1-2.3-1-2.3-1-2.3-1.1-2.3-1.1-2.4-1.1-2.3-1.2-2.3-1.2-2.3-1.2-2.3-1.3-2.3-1.3-2.3-1.3-2.3-1.3-2.3-1.4-2.3-1.4-2.3-1.4-2.3L252,352l-1.5-2.3-1.5-2.3-1.5-2.3-1.6-2.3-1.6-2.3-1.6-2.3-1.6-2.2-1.7-2.2-1.7-2.2-1.7-2.2-1.8-2.2-1.8-2.2-1.8-2.1-1.8-2.1-1.8-2.1-1.9-2.1-1.9-2.1-1.9-2.1-1.9-2.1-2-2-2-2-2-2-2-2-2-2-2-1.9-2.1-1.9-2.1-1.9-2.1-1.9-2.1-1.9-2.1-1.8-2.2-1.8-2.2-1.8-2.2-1.8-2.2-1.7-2.2-1.7-2.2-1.7-2.2-1.7-2.2-1.6-2.3-1.6-2.3-1.6-2.3-1.6-2.3-1.5-2.3-1.5-2.3-1.5-2.3-1.4-2.3-1.4-2.3-1.4-2.3-1.4L154,259l-2.3-1.3-2.3-1.3-2.3-1.2-2.3-1.2-2.3-1.2-2.4-1.1-2.3-1.1-2.3-1.1-2.3-1-2.3-1-2.3-1-2.3-1-2.3-.9-2.3-.9-2.3-.9-2.3-.8-2.3-.8-2.3-.8-2.3-.8-2.3-.7-2.3-.7-2.3-.7-2.3-.6-2.3-.6-2.2-.6-2.2-.5-2.2-.5-2.2-.5-2.2-.4-2.2-.4-2.2-.4-2.1-.4-2.1-.3L77,232l-2.1-.3-2.1-.2-2-.2-2-.2-2-.1-2-.1-2-.1-1.9-.1H53.4l-1.8.1-1.8.1L48,231l-1.8.1-1.7.2-1.7.2-1.7.2-1.6.3-1.6.3-1.6.3-1.5.3-1.5.3-1.5.4-1.5.4-1.4.4-1.4.4-1.4.4-1.3.5-1.3.5-1.3.5-1.2.5-1.2.5-1.1.5-1.1.6-1.1.6-1,.6-1,.6-1,.6-.9.6-.9.6-.9.7-.8.7-.8.7-.8.7-.7.7-.7.7-.6.7-.6.7-.6.8-.5.8-.5.8-.4.8-.4.8-.4.8-.3.8-.3.8-.2.8L2,256l-.1.8-.1.8-.1.8V260l.1.8.1.8.1.8.2.8.2.8.3.8.3.8.3.8.4.8.4.8.5.8.5.8.5.8.6.8.6.7.6.7.7.7.7.7.8.7.8.7.8.7.9.7.9.6,1,.6,1,.6,1,.6,1.1.6,1.1.6,1.1.6,1.2.5,1.2.5,1.2.5,1.3.5,1.3.5,1.3.5,1.4.4,1.4.4,1.4.4,1.5.4,1.5.3,1.5.3,1.6.3,1.6.3,1.6.3,1.6.2,1.7.2,1.7.2,1.7.2,1.8.1,1.8.1,1.8.1,1.8.1h5.7l1.9-.1,2-.1,2-.1,2-.1,2-.2,2-.2,2-.2,2.1-.2,2.1-.3,2.1-.3,2.1-.3,2.1-.4,2.2-.4,2.2-.4,2.2-.4,2.2-.5,2.2-.5,2.2-.6,2.2-.6,2.3-.6,2.3-.6,2.3-.7,2.3-.7,2.3-.7,2.3-.8,2.3-.8,2.3-.8,2.3-.9,2.3-.9,2.3-.9,2.3-1,2.3-1,2.3-1,2.3-1,2.3-1.1,2.4-1.1,2.3-1.1,2.3-1.2,2.3-1.2,2.3-1.2,2.3-1.3,2.3-1.3,2.3-1.3,2.3-1.3,2.3-1.4,2.3-1.4,2.3-1.4,2.3-1.5,2.3-1.5,2.3-1.5,2.3-1.5,2.3-1.6,2.3-1.6,2.3-1.6,2.2-1.7,2.2-1.7,2.2-1.7,2.2-1.7,2.2-1.7,2.2-1.8,2.2-1.8,2.1-1.8,2.1-1.8,2.1-1.9,2.1-1.9,2.1-1.9,2.1-1.9,2-1.9,2-2,2-2,2-2,2-2,1.9-2,1.9-2.1,1.9-2.1,1.9-2.1,1.9-2.1,1.8-2.1,1.8-2.2,1.8-2.2,1.8-2.2,1.8-2.2,1.7-2.2,1.7-2.2,1.7-2.2,1.6-2.2,1.6-2.3,1.6-2.3,1.6-2.3,1.5-2.3,1.5-2.3,1.5-2.3,1.5-2.3,1.4-2.3,1.4-2.3,1.4-2.3,1.3-2.3,1.3-2.3,1.3-2.3,1.3-2.3,1.2-2.3,1.2-2.3,1.2-2.3,1.1-2.3,1.1-2.4,1.1-2.3,1-2.3,1-2.3,1-2.3,1-2.3.9-2.3.9-2.3.9-2.3.8-2.3.8-2.3.8-2.3.7-2.3.7-2.3.7-2.3.6-2.3L283,99l.6-2.2.5-2.2.5-2.2.5-2.2.5-2.2.4-2.2.4-2.2.4-2.1.3-2.1.3-2.1.3-2.1.2-2.1.2-2.1.2-2,.2-2,.1-2,.1-2,.1-1.9V53.5l-.1-1.8-.1-1.8-.1-1.8-.1-1.8-.2-1.7-.2-1.7-.2-1.7-.2-1.6-.3-1.6-.3-1.6-.3-1.5-.3-1.5-.3-1.5-.4-1.5-.4-1.4-.4-1.4-.4-1.4-.5-1.3-.5-1.3-.5-1.3-.5-1.2-.5-1.2-.5-1.2-.6-1.1-.6-1.1-.6-1-.6-1-.6-1-.6-1-.7-.9-.7-.9-.7-.8-.7-.8-.7-.8-.7-.7-.7-.7-.7-.6-.7-.6-.8-.6-.8-.5-.8-.5-.8-.5-.8-.4-.8-.4-.8-.3-.8-.3-.8-.3-.8-.2-.8-.2-.8-.1-.8-.1h-2.4l-.8.1-.8.1-.8.2-.8.2-.8.2-.8.3-.8.3-.8.4-.8.4-.8.4-.8.5-.8.5-.8.6-.7.6-.7.6-.7.7-.7.7-.7.8-.7.8-.7.8-.7.9-.7.9-.6.9-.6,1-.6,1-.6,1-.6,1.1-.6,1.1-.6,1.2-.5,1.2-.5,1.2-.5,1.3-.5,1.3-.5,1.3-.4,1.4-.4,1.4-.4,1.4-.4,1.5-.3,1.5-.3,1.5-.3,1.5-.3,1.6-.3,1.6-.2,1.6-.2,1.7-.2,1.7-.2,1.7-.1,1.8-.1,1.8-.1,1.8-.1,1.8v7.5l.1,1.9.1,2,.1,2,.1,2,.2,2,.2,2.1.2,2.1.3,2.1.3,2.1.3,2.1.4,2.1.4,2.2.4,2.2.5,2.2.5,2.2.5,2.2.5,2.2.6,2.2.6,2.3.6,2.3.7,2.3.7,2.3.7,2.3.8,2.3.8,2.3.8,2.3.9,2.3.9,2.3.9,2.3.9,2.3,1,2.3,1,2.3,1,2.3,1.1,2.3,1.1,2.3,1.1,2.3,1.2,2.3,1.2,2.3,1.2,2.3,1.2,2.3,1.3,2.3,1.3,2.3,1.3,2.3,1.4,2.3,1.4,2.3,1.4,2.3,1.5,2.3,1.5,2.3,1.5,2.3,1.5,2.3,1.5,2.3,1.6,2.3,1.6,2.3,1.6,2.2,1.7,2.2,1.7,2.2,1.7,2.2,1.7,2.2,1.8,2.2,1.8,2.2,1.8,2.2,1.8,2.1,1.8,2.1,1.9,2.1,1.9,2.1,1.9,2.1,1.9,2.1,2,2,2,2,2,2,2,2,2,2,2,1.9,2.1,1.9,2.1,1.9,2.1,1.9,2.1,1.9,2.1,1.8,2.2,1.8,2.2,1.8,2.2,1.8,2.2,1.7,2.2,1.7,2.2,1.7,2.2,1.6,2.3,1.6,2.3,1.6,2.3,1.6,2.3,1.5,2.3,1.5,2.3,1.5,2.3,1.5,2.3,1.4,2.3,1.4,2.3,1.4,2.3,1.3,2.3,1.3,2.3,1.3,2.3,1.3,2.3,1.2,2.3,1.2,2.3,1.2,2.4,1.1,2.3,1.1,2.3,1.1,2.3,1.1,2.3,1,2.3,1,2.3,1,2.3.9,2.3.9,2.3.9,2.3.8,2.3.8,2.3.8,2.3.7,2.3.7,2.3.7,2.3.6,2.3.6,2.2.6,2.2.5,2.2.5,2.2.5,2.2.5,2.2.4,2.2.4,2.1.4,2.1.4,2.1.3,2.1.3,2.1.3,2,.2,2,.2,2,.2,2,.1,2,.1,2,.1,1.9.1H465l1.8-.1,1.8-.1,1.8-.1,1.8-.1,1.7-.1,1.7-.2,1.7-.2,1.7-.2,1.6-.3,1.6-.3,1.6-.3,1.5-.3,1.5-.3,1.5-.4,1.4-.4,1.4-.4,1.4-.4,1.3-.5,1.3-.5,1.3-.5,1.2-.5,1.2-.5,1.2-.5,1.1-.6,1.1-.6,1.1-.6,1-.6,1-.6,1-.6.9-.6.9-.7.8-.7.8-.7.8-.7.7-.7.7-.7.7-.7.6-.7.6-.8.5-.8.5-.8.5-.8.4-.8.4-.8.3-.8.3-.8.3-.8.2-.8.2-.8.1-.8.1-.8.1-.8.1-.7v-.9l-.1-.8-.1-.8-.1-.8-.2-.8-.2-.8-.3-.8-.3-.8-.3-.8-.4-.8-.4-.8-.5-.8-.5-.8-.5-.8-.6-.7-.6-.7-.7-.7-.7-.7-.7-.7-.8-.7-.8-.7-.8-.7-.9-.7-.9-.6-1-.6-1-.6-1-.6-1.1-.6-1.1-.6-1.1-.6-1.2-.5-1.2-.5-1.3-.5-1.3-.5-1.3-.5-1.3-.4-1.4-.4-1.4-.4-1.4-.4-1.5-.4-1.5-.3-1.5-.3-1.6-.3-1.6-.3-1.6-.3-1.6-.2-1.7-.2-1.7-.2-1.7-.1-1.8-.1-1.8-.1-1.8-.1h-7.5l-1.9.1-2,.1-2,.1-2,.1-2,.2-2,.2-2.1.2-2.1.3-2.1.3-2.1.3-2.1.4-2.1.4-2.2.4-2.2.4-2.2.5-2.2.5-2.2.5-2.2.6-2.2.6-2.3.6-2.3.6-2.3.7-2.3.7-2.3.7-2.3.8-2.3.8-2.3.8-2.3.9-2.3.9-2.3.9-2.3,1-2.3,1-2.3,1-2.3,1-2.3,1.1-2.4,1.1-2.3,1.1-2.3,1.2-2.3,1.2-2.3,1.2-2.3,1.3-2.3,1.3-2.3,1.3-2.3,1.4-2.3,1.4-2.3,1.4-2.3,1.4-2.3,1.5-2.3,1.5-2.3,1.5-2.3,1.6-2.3,1.6-2.3,1.6-2.3,1.6-2.2,1.6-2.2,1.7-2.2,1.7-2.2,1.7-2.2,1.8-2.2,1.8-2.7,1.8-2.1,1.8-2.1,1.9-2.1,1.9-2.1,1.9-2.1,1.9-2.1,1.9-2,2-2,2-2,2-2,2-2,2-1.9,2-1.9,2.1-1.9,2.1-1.9,2.1-1.9,2.1-1.8,2.1-1.8,2.1-1.8,2.2-1.8,2.2-1.7,2.2-1.7,2.2-1.7,2.2-1.7,2.2-1.6,2.2-1.6,2.3-1.6,2.3-1.5,2.3-1.5,2.3-1.5,2.3-1.5,2.3-1.4,2.3-1.4,2.3-1.4,2.3-1.4,2.3-1.3,2.3-1.3,2.3-1.3,2.3-1.2,2.3-1.2,2.3-1.2,2.4-1.2,2.3-1.1,2.3-1.1,2.3-1.1,2.4-1,2.3-1,2.3-1,2.3-.9,2.3-.9,2.3-.9,2.3-.8,2.3-.8,2.3-.8,2.3-.8,2.3-.7,2.3-.7,2.3-.7,2.3-.6,2.3-.6,2.3-.6,2.2-.5,2.2-.5,2.2-.5,2.2-.4,2.2-.4,2.2L233,436l-.4,2.1-.3,2.1-.3,2.1-.3,2.1-.2,2.1-.2,2-.2,2-.2,2-.1,2-.1,2-.1,1.9v7.5l.1,1.8.1,1.8.1,1.8.1,1.8.2,1.7.2,1.7.2,1.7.2,1.6.3,1.6.3,1.6.3,1.5.3,1.5.3,1.5.4,1.5.4,1.4.4,1.4.4,1.3.5,1.3.5,1.3.5,1.3.5,1.2.5,1.2.5,1.2.6,1.1.6,1.1.6,1,.6,1,.6,1,.6.9.7.9.7.9.7.8.7.8.7.7.7.7.7.7.7.6.7.6.8.6.8.5.8.5.8.4.8.4.8.4.8.3.8.3.8.2.8.2.8.2.8.1.8.1h2.4l.8-.1.8-.1.8-.2.8-.2.8-.3.8-.3.8-.3.8-.4.8-.4.8-.4.8-.5.8-.5.7-.6.7-.6.7-.7.7-.7.7-.7.7-.8.7-.8.7-.8.7-.9.7-.9.6-1,.6-1,.6-1,.6-1.1.6-1.1.5-1.1.5-1.2.5-1.2.5-1.2.5-1.3.5-1.3.5-1.3.4-1.4.4-1.4.4-1.4.4-1.5.4-1.5.3-1.5.3-1.6.3-1.6.3-1.6.2-1.6.2-1.7.2-1.7.2-1.7.1-1.8.1-1.8.1-1.8v-9.4l-.1-1.9-.1-2-.1-2-.2-2-.2-2-.2-2-.3-2.1-.3-2.1-.3-2.1-.3-2.1-.4-2.1-.4-2.1-.4-2.2-.5-2.2-.5-2.2-.5-2.2-.6-2.2-.6-2.2-.6-2.3-.6-2.3-.7-2.3-.7-2.3-.7-2.3-.8-2.3-.8-2.3-.8-2.3-.9-2.3-.9-2.3-.9-2.3-1-2.3-1-2.3-1-2.3-1-2.3-1.1-2.4-1.1-2.3-1.1-2.3-1.2-2.3-1.2-2.3-1.2-2.3-1.3-2.3-1.3-2.3-1.3-2.3-1.3-2.3-1.4-2.3-1.4-2.3-1.4-2.3-1.5-2.3-1.5-2.3-1.5-2.3-1.5-2.3-1.6-2.3-1.6-2.3-1.6-2.3-1.6-2.2-1.7-2.2-1.7-2.2-1.7-2.2-1.8-2.2-1.8-2.2-1.8-2.2-1.8-2.1-1.8-2.1-1.9-2.1-1.9-2.1-1.9-2.1-1.9-2.1-2-2-2-2-2-2-2-2-2-2-2-1.9-2.1-1.9-2.1-1.9-2.1-1.9-2.1-1.9-2.1-1.8-2.1-1.8-2.2-1.8-2.2-1.8-2.2-1.7-2.2-1.7-2.2-1.7-2.2-1.7-2.2-1.6-2.3-1.6-2.3-1.6-2.3-1.6-2.3-1.5-2.3-1.5-2.3-1.5-2.3-1.4-2.3-1.4-2.3-1.4-2.3-1.4-2.3-1.3-2.3-1.3-2.3-1.3-2.3-1.3-2.3-1.2-2.3-1.2-2.3-1.2-2.4-1.1-2.3-1.1-2.3-1.1-2.3-1-2.3-1-2.3-1-2.3-.9-2.3-.9-2.3-.9-2.3-.9-2.3-.8-2.3-.8-2.3-.8-2.3-.7-2.3-.7-2.3-.7-2.3-.6-2.2-.6-2.2-.6-2.2-.5-2.2-.5-2.2-.5-2.2-.5-2.2-.4-2.2-.4-2.1-.4-2.1-.3-2.1-.3-2.1-.3-2.1-.3-2.1-.2-2-.2-2-.2-2-.1-2-.1-2-.1H53.2l-1.8.1-1.8.1-1.8.1-1.8.1-1.7.2-1.7.2-1.6-.1-1.6.2-1.6.3-1.6.3-1.5.3-1.5.3-1.5.4-1.5.4-1.4.4-1.4.4-1.4.4-1.3.4-1.3.5-1.3.5-1.2.5-1.2.5-1.1.5-1.1.6-1.1.6-1.1.6-1,.6-1,.6-.9.6-.9.6-.9.7-.8.7-.8.7-.8.7-.7.7-.7.7-.6.7-.6.7-.6.7-.5.8-.5.8-.4.8-.4.8-.4.8-.3.8-.3.8-.2.8-.2.8-.2.8-.1.8-.1.8v2.4l.1.8.1.8.1.8.2.8.2.8.3.8.3.8.4.8.4.8.4.8.5.8.5.8.5.8.6.7.6.7.7.7.7.7.8.7.8.7.8.7.9.7.9.6.9.6,1,.6,1,.6,1,.6,1.1.6,1.1.6,1.2.6,1.2.5,1.2.5,1.3.5,1.3.5,1.3.5,1.4.4,1.4.4,1.4.4,1.4.4,1.5.4,1.5.3,1.5.3,1.6.3,1.6.3,1.6.2,1.7.2,1.7.2,1.7.2,1.8.1,1.8.1,1.8.1,1.8.1h7.5l1.9-.1,2-.1,2-.1,2-.1,2-.2,2-.2,2.1-.2,2.1-.3,2.1-.3,2.1-.3,2.1-.4,2.2-.4,2.2-.4,2.2-.5,2.2-.5,2.2-.5,2.2-.5,2.2-.6,2.3-.6,2.3-.6,2.3-.7,2.3-.7,2.3-.7,2.3-.8,2.3-.8,2.3-.8,2.3-.8,2.3-.9,2.3-.9,2.3-.9,2.3-1,2.3-1,2.3-1,2.3-1.1,2.3-1.1,2.3-1.1,2.3-1.2,2.3-1.2,2.3-1.2,2.3-1.3,2.3-1.3,2.3-1.3,2.3-1.3,2.3-1.4,2.3-1.4,2.3-1.4,2.3-1.4,2.3-1.5,2.3-1.5,2.3-1.5,2.3-1.6,2.3-1.6,2.3-1.6,2.2-1.6,2.2-1.7,2.2-1.7,2.2-1.7,2.2-1.7,2.2-1.8,2.2-1.8,2.1-1.8,2.1-1.8,2.1-1.8,2.1-1.9,2.1-1.9,2.1-1.9,2-1.9,2-2,2-2,2-2,2-2,2-2,1.9-2.1,1.9-2.1,1.9-2.1,1.9-2.1,1.8-2.1,1.8-2.1,1.8-2.2,1.8-2.2,1.8-2.2,1.7-2.2,1.7-2.2,1.7-2.2,1.6-2.2,1.6-2.3,1.6-2.3,1.6-2.3,1.5-2.3,1.5-2.3,1.5-2.3,1.5-2.3,1.4-2.3,1.4-2.3,1.4-2.3,1.3-2.3,1.3-2.3,1.3-2.3,1.3-2.3,1.2-2.3,1.2-2.3,1.2-2.3,1.1-2.3,1.1-2.3,1.1-2.3,1-2.3,1-2.3,1-2.3,1-2.3.9-2.3.9-2.3.9-2.3.8-2.3.8-2.3.8-2.3.7-2.3.7-2.3.7-2.3.7-2.3.6-2.3.6-2.2.5-2.2.5-2.2.5-2.2.5-2.2.4-2.2.4-2.2.4-2.1.3-2.1.3-2.1.3-2.1.3-2.1.2-2.1.2-2,.2-2,.1-2,.1-2,.1-2,.1-1.9V52.4l-.1-1.8-.1-1.8-.1-1.8-.2-1.7-.2-1.7-.2-1.7-.2-1.6-.3-1.6-.3-1.6-.3-1.6-.3-1.5-.4-1.5-.4-1.5-.4-1.4-.4-1.4-.4-1.4-.4-1.3-.5-1.3-.5-1.3-.5-1.2-.5-1.2-.5-1.2-.6-1.1-.6-1.1-.6-1.1-.6-1-.6-1-.6-1-.7-.9-.6-.9-.7-.8-.7-.8-.7-.8-.7-.7-.7-.7-.7-.7-.7-.6-.8-.6-.8-.5-.8-.5-.8-.5-.8-.4-.8-.4-.8-.3-.8-.3-.8-.3-.8-.2-.8-.2-.8-.1-.8-.1h-2.4l-.8.1-.8.1-.8.2-.8.2-.8.2-.8.3-.8.3-.8.3-.8.4-.8.4-.8.5-.8.5-.8.6-.8.6L246,7l-.7.7-.7.7-.7.7-.7.8-.7.8-.7.9-.7.9-.6.9-.6,1-.6,1-.6,1-.6,1.1-.6,1.1-.5,1.1-.5,1.2-.5,1.2-.5,1.2-.5,1.3-.5,1.3-.4,1.3-.4,1.4-.4,1.4-.4,1.4-.4,1.5-.3,1.5-.3,1.5-.3,1.6-.3,1.6-.2,1.6-.2,1.7-.2,1.7-.2,1.7-.2,1.7.7,1.2-.1,1.8-.1,1.8v7.5l.1,1.9.1,2,.1,2,.2,2,.2,2,.2,2,.2,2.1.3,2.1.3,2.1.3,2.1.4,2.1.4,2.2.4,2.2.4,2.2.5,2.2.5,2.2.5,2.2.6,2.2.6,2.2.6,2.3.7,2.3.7,2.3.7,2.3.7,2.3.8,2.3.8,2.3.8,2.3.9,2.3.9,2.3.9,2.3,1,2.3,1,2.3,1,2.3,1.1,2.3,1.1,2.4,1.1,2.3,1.2,2.3,1.2,2.3,1.2,2.4,1.2,2.3,1.3,2.3,1.3,2.3,1.3,2.3,1.3,2.3,1.4,2.3,1.4,2.3,1.4,2.3,1.5,2.3,1.5,2.3,1.5,2.3,1.5,2.3,1.6,2.3,1.6,2.3,1.6,2.3,1.6,2.2,1.7,2.2,1.7,2.2,1.7,2.2,1.8,2.2,1.8,2.2,1.8,2.2,1.8,2.1,1.8,2.1,1.9,2.1,1.9,2.1,1.9,2.1,1.9,2.1,2,2,2,2,2,2,2,2,2,1.9,2.1,1.9,2.1,1.9,2.1,1.9,2.1,1.9,2.1,1.9,2.1,1.8,2.1,1.8,2.2,1.8,2.2,1.8,2.2,1.7,2.2,1.7,2.2,1.7,2.2,1.7,2.2,1.6,2.3,1.6,2.3,1.6,2.3,1.6,2.3,1.5,2.3,1.5,2.3,1.5,2.3,1.4,2.3,1.4L361,257l2.3,1.4,2.3,1.3,2.3,1.3,2.3,1.3,2.3,1.2,2.3,1.2,2.4,1.2,2.3,1.1,2.3,1.1,2.3,1.1,2.3,1.1,2.3,1,2.3,1,2.3,1,2.3.9,2.3.9,2.3.9,2.3.8,2.3.8,2.3.8,2.3.8,2.3.7,2.3.7,2.3.6,2.3.6,2.3.6,2.2.6,2.2.5,2.2.5,2.2.5,2.2.4,2.2.4,2.2.4,2.1.4,2.1.3,2.1.3,2.1.3,2.1.2,2,.2,2,.2,2,.1,2,.1,2,.1,1.9.1h7.5l1.8-.1,1.8-.1,1.8-.1,1.7-.1,1.7-.2,1.7-.2,1.7-.2,1.6-.3,1.6-.3,1.6-.3,1.5-.3,1.5-.3,1.5-.4,1.4-.4,1.4-.4,1.4-.4,1.4-.4,1.3-.5,1.3-.5,1.3-.5,1.2-.5,1.2-.5,1.1-.5,1.1-.6,1.1-.6,1-.6,1-.6,1-.6.9-.6.9-.7.9-.7.8-.7.8-.7.7-.7.7-.7.7-.7.6-.7.6-.7.6-.8.5-.8.5-.8.4-.8.4-.8.3-.8.3-.8.3-.8.2-.8.2-.8.2-.8.1-.8.1-.8v-2.4l-.1-.8-.1-.8-.2-.8-.2-.8-.3-.8-.3-.8-.3-.8-.4-.8-.4-.8-.4-.8-.5-.8-.5-.8-.6-.8-.6-.7-.7-.7-.7-.7-.7-.7-.8-.7-.8-.7-.8-.7-.9-.7-.9-.6-1-.6-1-.6-1-.6-1.1-.6-1.1-.6-1.1-.5-1.2-.5-1.2-.5-1.2-.5-1.3-.5-1.3-.5-1.3-.5-1.4-.4-1.4-.4-1.4-.4-1.5-.4-1.5-.4-1.5-.3-1.5-.3-1.6-.3-1.6-.3-1.7-.2-1.7-.2-1.7-.2-1.7-.2-1.8-.1-1.8-.1-1.8-.1-1.8-.1h-5.7l-1.9.1-2,.1-2,.1-2,.1-2,.2-2,.2-2.1.2-2.1.3-2.1.3-2.1.3-2.1.3-2.1.4-2.2.4-2.2.4-2.2.5-2.2.5-2.2.5-2.2.6-2.2.6-2.3.6-2.3.6-2.3.7-2.3.7-2.3.7-2.3.8-2.3.8-2.3.8-2.3.9-2.3.9-2.3.9-2.3,1-2.3,1-2.3,1-2.3,1-2.3,1.1-2.3,1.1-2.3,1.1-2.4,1.2-2.3,1.2-2.3,1.2-2.3,1.3-2.3,1.3-2.3,1.3-2.3,1.3-2.3,1.4-2.3,1.4-2.3,1.4-2.3,1.5-2.3,1.5-2.3,1.5-2.3,1.5-2.3,1.6-2.3,1.6-2.3,1.6-2.2,1.6-2.2,1.7-2.2,1.7-2.2,1.7-2.2,1.8-2.2,1.8-2.2,1.8-2.1,1.8-2.1,1.8-2.1,1.9-2.1,1.9-2.1,1.9-2.1,1.9-2,1.9-2,2-2,2-2,2-2,2-1.9,2-1.9,2.1-1.9,2.1-1.9,2.1-1.9,2.1-1.8,2.1-1.8,2.1-1.8,2.2-1.8,2.2-1.7,2.2-1.7,2.2-1.7,2.2-1.7,2.2-1.6,2.2-1.6,2.3-1.6,2.3-1.6,2.3-1.5,2.3-1.5,2.3-1.5,2.3-1.5,2.3-1.4,2.3-1.4,2.3-1.4,2.3-1.3,2.3-1.3,2.3L257,369l-1.2,2.3-1.2,2.3-1.2,2.3-1.2,2.3-1.1,2.4-1.1,2.3-1.1,2.3-1,2.3-1,2.3-1,2.3-.9,2.3-.9,2.3-.9,2.3-.8,2.3-.8,2.3-.8,2.3-.8,2.3-.7,2.3-.7,2.3-.7,2.3-.6,2.3-.6,2.2-.6,2.2-.5,2.2-.5,2.2-.5,2.2-.5,2.2-.4,2.2-.4,2.1-.4,2.1-.3,2.1-.3,2.1-.3,2.1-.2,2.1-.2,2-.2,2-.2,2-.1,2-.1,2-.1,1.9v7.6l.1,1.8.1,1.8.1,1.8.1,1.8.2,1.7.2,1.7.2,1.7.2,1.6.3,1.6.3,1.6.3,1.5.3,1.5.4,1.5.4,1.5.4,1.4.4,1.4.4,1.4.5,1.3.5,1.3.5,1.3.5,1.2.5,1.2.5,1.2.6,1.1.6,1.1.6,1,.6,1,.6,1,.6.9.6.9.7.9.7.8.7.8.7.8.7.7.7.7.7.6.7.6.8.6.8.5.8.5.8.4.8.4.8.4.8.3.8.3.8.3.8.2.8.2.8.1.8.1h2.4l.8-.1.8-.1.8-.2.8-.2.8-.2.8-.3.8-.3.8-.4.8-.4.8-.4.8-.5.8-.5.8-.5.7-.6.7-.6.7-.7.7-.7.7-.8.7-.8.7-.8.7-.9.7-.9.6-.9.6-1,.6-1,.6-1,.6-1.1.6-1.1.5-1.2.5-1.2.5-1.2.5-1.3.5-1.3.5-1.3.4-1.3.4-1.4.4-1.4.4-1.5.4-1.5.3-1.5.3-1.5.3-1.6.3-1.6.2-1.6.2-1.7.2-1.7.2-1.7.1-1.8.1-1.8.1-1.8.1-1.8v-7.5l-.1-1.9-.1-2-.1-2-.1-2-.2-2-.2-2-.2-2.1-.3-2.1-.3-2.1-.3-2.1-.4-2.1-.4-2.2-.9-1.4-.5-2.2-.5-2.2-.5-2.2-.5-2.2-.6-2.2-.6-2.3-.6-2.3-.7-2.3-.7-2.3-.7-2.3-.8-2.3-.8-2.3-.8-2.3-.8-2.3-.9-2.3-.9-2.3-.9-2.3-1-2.3-1-2.3-1-2.3-1.1-2.3-1.1-2.3-1.1-2.4-1.2-2.3-1.2-2.3-1.2-2.3L262,370l-1.3-2.3-1.3-2.3-1.3-2.3-1.4-2.3-1.4-2.3-1.4-2.3-1.5-2.3-1.5-2.3-1.5-2.3-1.5-2.3-1.6-2.3-1.6-2.3-1.6-2.3-1.6-2.2-1.7-2.2-1.7-2.2-1.7-2.2-1.7-2.2-1.8-2.2-1.8-2.2-1.8-2.1-1.8-2.1-1.9-2.1-1.9-2.1-1.9-2.1-1.9-2.1-2-2-2-2-2-2-2-2-2-2-2-2-2.1-1.9-2.1-1.9-2.1-1.9-2.1-1.9-2.1-1.8-2.1-1.8-2.2-1.8-2.2-1.8-2.2-1.8-2.2-1.7-2.2-1.7-2.2-1.7-2.2-1.6-1.9-2.1-2.3-1.6-2.3-1.6-2.3-1.5-2.3-1.5-2.3-1.5-2.3-1.5-2.3-1.4-2.3-1.4-2.3-1.4-2.3-1.4-2.3-1.3-2.3-1.3-2.3-1.3-2.3-1.2-2.3-1.2-2.4-1.2-2.3-1.1-2.3-1.1-2.3-1.1-2.3-1-2.3-1-2.3-1-2.3-1-2.3-.9-2.3-.9-2.3-.9-2.3-.8-2.3-.8-2.3-.8-2.3-.7-2.3-.7-2.3-.7-2.3-.6-2.3-.6-2.2-.6-2.2-.6-2.2-.5-2.2-.5-2.2-.5-2.2-.4-2.2-.4-2.1-.4-2.1-.4-2.1-.3-2.1-.3-2.1-.3-2.1-.2-2-.2-2-.2-2-.1-2-.1-1.9-.1-1.9-.1H54.2l-1.8.1-1.8.1-1.8.1-1.8.1-1.7.1-1.7.2-1.7.2-1.6.2-1.6.3-1.6.3-1.6.3-1.5.3-1.5.3-1.5.4-1.4.4-1.4.4-1.4.4-1.3.4-1.3.5-1.3.5-1.2.5-1.2.5-1.2.5-1.1.6-1.1.6-1.1.6-1,.6-1,.6-1,.6-.9.6-.9.7-.9.7-.8.7-.8.7-.7.7-.7.7-.7.7-.6.7-.6.7-.5.8-.5.8-.5.8-.4.8-.4.8-.3.8-.3.8-.3.8-.2.8-.2.8-.1.8-.1.8v2.4l.1.8.1.8.1.8.2.8.2.8.3.8.3.8.4.8.4.8.4.8.5.8.5.8.6.8.6.7.6.7.7.7.7.7.7.7.8.7.8.7.9.7.9.6.9.6,1,.6,1,.6,1,.6,1.1.6,1.1.6,1.1.5,1.2.5,1.2.5,1.2.5,1.3.5,1.3.5,1.4.4,1.4.4,1.4.4,1.4.4,1.5.4,1.5.3,1.5.3,1.6.3,1.6.3,1.6.3,1.6.2,1.7.2,1.7.2,1.7.1,1.8.1,1.8.1,1.8.1h7.5l1.9-.1,2-.1,2-.1,2-.1,2-.2,2-.2,2.1-.2,2.1-.3,2.1-.3,2.1-.3,2.1-.4,2.1-.4,2.2-.4,2.2-.4,2.2-.5,2.2-.5,2.2-.5,2.2-.6,2.2-.6,2.3-.6,2.3-.7,2.3-.7,2.3-.7,2.3-.8,2.3-.8,2.3-.8,2.3-.8,2.3-.9,2.3-.9,2.3-.9,2.3-1,2.3-1,2.3-1,2.3-1.1,2.3-1.1,2.3-1.1,2.3-1.1,2.4-1.2,2.3-1.2,2.3-1.2,2.3-1.3,2.3-1.3,2.3-1.3,2.3-1.4,2.3-1.4,2.3-1.4,2.3-1.4L167,251l2.3-1.5,2.3-1.5,2.3-1.5,2.3-1.6,2.3-1.6,2.3-1.6L183,240l2.2-1.7,2.2-1.7,2.2-1.7,2.2-1.8,2.2-1.8,2.2-1.8,2.1-1.8,2.1-1.9,2.1-1.9,2.1-1.9,2.1-1.9,2.1-1.9,2-2,2-2,2-2,2-2,2-2,1.9-2,1.9-2.1,1.9-2.1,1.9-2.1,1.8-2.1,1.8-2.1,1.8-2.1,1.8-2.2,1.8-2.2,1.7-2.2,1.7-2.2,1.7-2.2,1.7-2.2,1.6-2.2,1.6-2.3,1.6-2.3,1.5-2.3L250,169l1.5-2.3,1.5-2.3,1.4-2.3,1.4-2.3,1.4-2.3,1.4-2.3,1.3-2.3,1.3-2.3,1.3-2.3,1.2-2.3,1.2-2.3,1.2-2.3,1.1-2.3,1.1-2.3,1.1-2.3,1.1-2.3,1-2.3,1-2.3,1-2.3.9-2.3.9-2.3.9-2.3.8-2.3.8-2.3.8-2.3.8-2.3.7-2.3.7-2.3.6-2.3.6-2.3.6-2.3.6-2.2.5-2.2.5-2.2.5-2.2.4-2.2.4-2.2.4-2.1.3-2.1.3-2.1.3-2.1.3-2.1.2-2.1.2-2.1.2-2,.2-2,.1-2,.1-2,.1-1.9V52.4l-.1-1.8-.1-1.8-.1-1.8-.1-1.7-.2-1.7-.2-1.7-.2-1.6-.2-1.6-.3-1.6-.3-1.6-.3-1.5-.3-1.5-.4-1.5-.4-1.4-.4-1.4-.4-1.4-.4-1.3-.5-1.3-.5-1.3-.5-1.3-.5-1.2-.5-1.2-.5-1.2-.6-1.1-.6-1.1-.6-1-.6-1-.6-1-.6-.9-.7-.9-.7-.9-.7-.8-.7-.8-.7-.8L273,7l-.7-.7-.7-.6-.8-.6-.8-.6-.8-.5-.8-.5-.8-.4-.8-.4-.8-.4-.8-.3-.8-.3-.8-.2-.8-.2-.8-.1-.8-.1-.8-.1h-1.6l-.8.1-.8.1-.8.1-.8.2-.8.2L254,2l-.8.3-.8.3-.8.4-.8.4-.8.4-.8.5-.8.5-.8.6-.7.6-.7.6-.7.7-.7.7-.7.8-.7.8-.7.8-.7.9-.7.9-.6,1-.6,1-.6,1-.6,1.1-.6,1.1-.5,1.1-.5,1.2-.5,1.2-.5,1.2-.5,1.3-.5,1.3-.4,1.3-.4,1.4-.4,1.4-.4,1.4-.4,1.5-.3,1.5-.3,1.5-.3,1.6-.3,1.6-.3,1.6-.2,1.6-.2,1.7-.2,1.7-.2,1.7-.1,1.8-.1,1.8-.1,1.8-.1,1.8V61l.1,1.9.1,2,.1,2,.2,2,.2,2,.2,2.1.3,2.1.3,2.1.3,2.1.3,2.1.4,2.1.4,2.2.4,2.2.5,2.2.5,2.2.5,2.2.5,2.2.6,2.2.6,2.3.6,2.3.7,2.3.7,2.3.7,2.3.8,2.3.8,2.3.8,2.3.9,2.3.9,2.3.9,2.3,1,2.3,1,2.3,1,2.3,1,2.3,1.1,2.3,1.1,2.3,1.1,2.3,1.2,2.3,1.2,2.3,1.2,2.3,1.3,2.3,1.3,2.3,1.3,2.3,1.3,2.3,1.4,2.3,1.4,2.3,1.4,2.3,1.5,2.3,1.5,2.3,1.5,2.3,1.5,2.3,1.6,2.3,1.6,2.3,1.6,2.3,1.6,2.2,1.7,2.2L281,186l1.7,2.2,1.8,2.2,1.8,2.2,1.8,2.2,1.8,2.1,1.8,2.1,1.9,2.1,1.9,2.1,1.9,2.1,1.9,2.1,2,2,2,2,2,2,2,2,2,2,2,1.9,2.1,1.9,2.1,1.9,2.1,1.9,2.1,1.9,2.1,1.8,2.1,1.8,2.2,1.8,2.2,1.8,2.2,1.7,2.2,1.7,2.2,1.7,2.2,1.7,2.2,1.6,2.3,1.6,2.3,1.6,2.3,1.6,2.3,1.5,2.3,1.5,2.3,1.5,2.3,1.4,2.3,1.4L360,256l2.3,1.4,2.3,1.3,2.3,1.3,2.3,1.3,2.3,1.2,2.3,1.2,2.3,1.2,2.3,1.2,2.3,1.1,2.3,1.1,2.3,1.1,2.3,1,2.3,1,2.3,1,2.3.9,2.3.9,2.3.9,2.3.9,2.3.8,2.3.8,2.3.8,2.3.7,2.3.7,2.3.7,2.3.6,2.2.6,2.2.6,2.2.6,2.2.5,2.2.5,2.2.5,2.2.4,2.2.4,2.1.4,2.1.3,2.1.3,2.1.3,2.1.3,2,.2,2,.2,2,.1,2,.1,2,.1,1.9.1h7.6l1.8-.1,1.8-.1,1.8-.1,1.8-.1,1.7-.2,1.7-.2,1.7-.2,1.6-.2,1.6-.3,1.6-.3,1.5-.3,1.5-.3,1.5-.3,1.5-.4,1.4-.4,1.4-.4,1.4-.4,1.3-.5,1.3-.5,1.3-.5,1.2-.5,1.2-.5,1.2-.5,1.1-.6,1.1-.6,1-.6,1-.6,1-.6,1-.6.9-.6.9-.7.8-.7.8-.7.8-.7.7-.7.7-.7.6-.7.6-.7.6-.8.5-.8.5-.8.4-.8.4-.8.4-.8.3-.8.3-.8.2-.8.2-.8.2-.8.1-.8.1-.8v-2.4l-.1-.8-.1-.8-.2-.8-.2-.8-.2-.8-.3-.8-.3-.8-.4-.8-.4-.8-.4-.8-.5-.8-.5-.8-.6-.8-.6-.7-.6-.7-.7-.7-.7-.7-.8-.7-.8-.7-.8-.7-.9-.7-.9-.7-.9-.6-1-.6-1-.6-1-.6-1.1-.6-1.1-.6-1.2-.5-1.2-.5-1.2-.5-1.3-.5-1.3-.5-1.3-.4-1.4-.4-1.4-.4-1.4-.4-1.5-.4-1.5-.3-1.5-.3-1.5-.3-1.6-.3-1.6-.3-1.6-.2-1.7-.2-1.7-.2-1.7-.2-1.8-.1-1.8-.1-1.8-.1-1.8-.1h-7.6l-1.9.1-2,.1-2,.1-2,.2-2,.2-2,.2-2.1.2-2.1.3-2.1.3-2.1.3-2.1.4-2.1.4-2.2.4-2.2.4-2.2.5-2.2.5-2.2.5-2.2.6-2.3.6-2.3.6-2.3.7-2.3.7-2.3.7-2.3.8-2.3.8-2.3.8-2.3.8-2.3.9-2.3.9-2.3,1-2.3,1-2.3,1-2.3,1-2.3,1.1-2.3,1.1-2.3,1.1-2.3,1.2-2.3,1.2-2.3,1.2-2.3,1.2-2.3,1.3-2.3,1.3-2.3,1.3-2.3,1.4-2.3,1.4-2.3,1.4-2.3,1.4-2.3,1.5-2.3,1.5-2.3,1.5-2.3,1.6-2.3,1.6-2.3,1.6-2.2,1.6-2.2,1.7-2.2,1.7-2.2,1.7-2.2,1.7-2.2,1.8-2.2,1.8-2.2,1.8-2.1,1.8-2.1,1.9-2.1,1.9-2.1,1.9-2.1,1.9-2,1.9-2,2-2,2-2,2-2,2-2,2-1.9,2.1-1.9,2.1-1.9,2.1-1.9,2.1-1.9,2.1-1.8,2.1-1.8,2.2-1.8,2.2-1.8,2.2-1.7,2.2-1.7,2.2-1.7,2.2-1.7,2.2-1.6,2.3-1.6,2.3-1.6,2.3-1.5,2.3-1.5,2.3-1.5,2.3-1.5,2.3-1.4,2.3-1.4,2.3-1.4,2.3-1.3,2.3-1.3,2.3-1.3,2.3-1.3,2.3-1.2,2.3-1.2,2.3-1.2,2.3-1.1,2.3-1.1,2.3-1.1,2.3-1,2.3-1,2.3-1,2.3-1,2.3-.9,2.3-.9,2.3-.9,2.3-.8,2.3-.8,2.3-.8,2.3-.7,2.3-.7,2.3-.7,2.3-.6,2.3-.6,2.3-.6,2.2-.5,2.2-.5,2.2-.5,2.2-.5,2.2-.4,2.2-.4,2.2-.4,2.1-.3,2.1-.3,2.1-.3,2.1-.3,2.1-.2,2-.2,2-.2,2-.1,2-.1,2-.1,2v9.3l.1,1.8.1,1.8.1,1.8.1,1.7.2,1.7.2,1.7.2,1.6.3,1.6.3,1.6.3,1.6.3,1.5.3,1.5.4,1.5.4,1.4.4,1.4.4,1.4.5,1.3.5,1.3.5,1.3.5,1.2.5,1.2.5,1.2.6,1.1.6,1.1.6,1.1.6,1,.6,1,.6,1,.6.9.7.9.7.8.7.8.7.8.7.7.7.7.7.7.7.6.8.6.8.5.8.5.8.5.8.4.8.4.8.3.8.3.8.3.8.2.8.2.8.1.8.1.8.1h1.6l.8-.1.8-.1.8-.1.8-.2.8-.2.8-.3.8-.3.8-.3.8-.4.8-.4.8-.5.8-.5.8-.6.7-.6.7-.6.7-.7.7-.7.7-.7.7-.8.7-.8.7-.9.7-.9.7-.9.6-1,.6-1,.6-1,.6-1.1.6-1.1.5-1.1.5-1.2.5-1.2.5-1.3.5-1.3.5-1.3.5-1.3.4-1.4.4-1.4.4-1.5.4-1.5.3-1.5.3-1.5.3-1.6.3-1.6.3-1.6.2-1.7.2-1.7.2-1.7.2-1.7.1-1.8.1-1.8.1-1.8v-7.5l-.1-1.9-.1-2-.1-2-.1-2-.2-2-.2-2-.2-2.1-.3-2.1-.3-2.1-.3-2.1-.4-2.1-.4-2.2-.4-2.2-.4-2.2-.5-2.2-.5-2.2-.5-2.2-.6-2.2-.6-2.2-.6-2.3-.6-2.3-.7-2.3-.7-2.3-.7-2.3-.8-2.3-.8-2.3-.8-2.3-.9-2.3-.9-2.3-.9-2.3-1-2.3-1-2.3-1-2.3-1.1-2.4-1.1-2.3-1.1-2.3-1.2-2.3-1.2-2.4-1.2-2.3-1.2-2.3-1.3-2.3-1.2-1.4-1.3-2.3-1.4-2.3-1.4-2.3-1.4-2.3-1.4-2.3-1.5-2.3-1.5-2.3-1.5-2.3-1.5-2.3-1.6-2.3-1.6-2.3-1.6-2.3-1.6-2.2-1.7-2.2-1.7-2.2-1.7-2.2-1.8-2.2-1.8-2.2-1.8-2.2-1.8-2.1-1.8-2.1-1.9-2.1-1.9-2.1-1.9-2.1-1.9-2.1-2-2-2-2-2-2-2-2-2-2-2-1.9-2.1-1.9-2.1-1.9-2.1-1.9-2.1-1.9-2.1-1.8-2.2-1.8-2.2-1.8-2.2-1.8-2.2-1.7-2.2-1.7-2.2-1.7-2.2-1.6-2.2-1.6-2.3-1.6-2.3-1.6-2.3-1.5-2.3-1.5-2.3-1.5-2.3-1.5-2.3-1.4-2.3-1.4-2.3-1.4-2.3-1.4-2.3-1.3-2.3-1.3-2.3-1.3-2.3-1.2-2.3-1.2-2.3-1.2-2.3-1.1-2.3-1.1-2.3-1.1-2.3-1.1-2.3-1-2.3-1-2.3-1-2.3-.9-2.3-.9-2.3-.9-2.3-.8-2.3-.8-2.3-.8-2.3-.8-2.3-.7-2.3-.7-2.3-.6-2.3-.6-2.3-.6-2.2-.6-2.2-.5-2.2-.5-2.2-.5-2.2-.4-2.2-.4L83,233l-2.1-.3-2.1-.3-2.1-.3-2.1-.3-2.1-.2-2-.2-2-.2-2-.1-2-.1-2-.1-1.9-.1H53.1l-1.8.1-1.8.1-1.8.1-1.7.1-1.7.2-1.7.2-1.7.2-1.6.3-1.6.3-1.6.3-1.5.3-1.5.3-2.1.4-1.4.4-1.4.4-1.4.4-1.4.4-1.3.5-1.3.5-1.3.5-1.2.5-1.2.5-1.1.6-1.1.6-1.1.6-1,.6-1,.6-1,.6-.9.7-.9.6-.9.7-.8.7-.8.7-.7.7-.7.7-.7.7-.6.7-.6.7-.5.8-.5.8-.5.8-.4.8-.4.8-.4.8-.3.8-.3.8-.2.8-.2.8-.1.8-.1.8-.1.8v1.6l.1.8.1.8.1.8.2.8.2.8.3.8.3.8.3.8.4.8.4.8.5.8.5.8.5.8.6.7.6.7.6.7.7.7.7.7.8.7.8.7.8.7.9.7.9.6,1,.6,1,.6,1,.6,1.1.6,1.1.6,1.1.6,1.2.5,1.2.5,1.2.5,1.3.5,1.3.5,1.3.5,1.4.4,1.4.4,1.4.4,1.5.4,1.5.3,1.5.3,1.6.3,1.6.3,1.6.3,1.6.2,1.7.2,1.7.2,1.7.2,1.8.1,1.8.1,1.8.1,1.8.1h5.7l1.9-.1,2-.1,2-.1,2-.1,2-.2,2-.2,2.1-.2,2.1-.3,2.1-.3,2.1-.3,2.1-.3,2.1-.4,2.2-.4,2.2-.4,2.2-.5,2.2-.5,2.2-.5,2.2-.5,2.2-.6,2.3-.6,2.3-.6,2.3-.7,2.3-.7,2.3-.7,2.3-.8,2.3-.8,2.3-.8,2.3-.9,2.3-.9,2.3-.9,2.3-1,2.3-1,2.3-1,2.3-1,2.3-1.1,2.3-1.1,2.4-1.1,2.3-1.2,2.3-1.2,2.3-1.2,2.3-1.3,2.3-1.3,2.3-1.3,2.3-1.3,2.3-1.4,2.3-1.4,2.3-1.4,2.3-1.5,2.3-1.5,2.3-1.5,2.3-1.5,2.3-1.6,2.3-1.6,2.3-1.6,2.2-1.6,2.2-1.7,2.2-1.7,2.2-1.7,2.2-1.8,2.2-1.8,2.2-1.8,2.2-1.8,2.1-1.8,2.1-1.9,2.1-1.9,2.1-1.9,2.1-1.9,2-2,2-2,2-2,2-2,2-2,2-2,1.9-2.1,1.9-2.1,1.9-2.1,1.9-2.1,1.8-2.1,1.8-2.1,1.8-2.2,1.8-2.2,1.7-2.2,1.7-2.2,1.7-2.2,1.7-2.2,1.6-2.2,1.6-2.3,1.6-2.3,1.6-2.3,1.5-2.3,1.5-2.3,1.5-2.3,1.5-2.3,1.4-2.3,1.4-2.3,1.4-2.3,1.3-2.3,1.3-2.3,1.3-2.3,1.3-2.3,1.2-2.3,1.2-2.3,1.2-2.4,1.1-2.3,1.1-2.3,1.1-2.3,1-2.3,1-2.3,1-2.3.9-2.3.9-2.3.9-2.3.9-2.3.8-2.3.8-2.3.8-2.3.7-2.3.7-2.3.7-2.3.6-2.3.6-2.2.6-2.2.6-2.2.5-2.2.5-2.2.5-2.2.4-2.2.4-2.2.4-2.1.3-2.1.3-2.1.3-2.1.2-2.1.2-2.1.2-2,.2-2,.1-2,.1-2,.1-1.9V53.8l-.1-1.8-.1-1.8-.1-1.8-.1-1.8-.2-1.7-.2-1.7-.2-1.7-.2-1.6-.3-1.6-.3-1.6-.3-1.6-.3-1.5-.4-1.5-.4-1.4-.4-1.4-.4-1.4-.4-1.4-.5-1.3-.5-1.3-.5-1.3-.5-1.2-.5-1.2-.5-1.2-.6-1.1-.6-1.1-.6-1-.6-1-.6-1-.6-.9-.7-.9-.7-.9-.7-.8-.7-.8-.7-.8-.7-.7-.7-.7-.7-.6-.7-.6-.7-.6-.8-.5-.8-.5-.8-.4-.8-.4-.8-.4-.8-.3-.8-.3-.8-.2-.8-.2-.8-.2-.8-.1-.8-.1h-2.4l-.8.1-.8.1-.8.2-.8.2-.8.2-.8.3-.8.3-.8.4-.8.4-.8.4-.8.5-.8.5-.8.6-.7.6-.7.6L246,8l-.7.7-.7.8-.7.8-.7.8-.7.9-.6.9-.6.9-.6,1-.6,1-.6,1.1-.6,1.1-.6,1.1-.5,1.2-.5,1.2-.5,1.2-.5,1.3-.5,1.3-.5,1.3-.4,1.4-.4,1.4-.4,1.4-.4,1.4-.3,1.5-.3,1.5-.3,1.6-.3,1.6-.3,1.6-.2,1.6-.2,1.7-.2,1.7-.2,1.7-.1,1.8-.1,1.8-.1,1.8-.1,1.8v7.5l.1,1.9.1,2,.1,2,.2,2,.2,2,.2,2,.2,2.1.3,2.1.3,2.1.3,2.1.4,2.1.4,2.1.4,2.2.5,2.2.5,2.2.5,2.2.5,2.2.6,2.2.6,2.3.6,2.3.7,2.3.7,2.3.7,2.3.8,2.3.8,2.3.8,2.3.9,2.3.9,2.3.9,2.3.9,2.3,1,2.3,1,2.3,1,2.3,1.1,2.3,1.1,2.4,1.1,2.3,1.2,2.3,1.2,2.4,1.2,2.3,1.2,2.3,1.3,2.3,1.3,2.3,1.3,2.3,1.4,2.3,1.4,2.3,1.4,2.3,1.5,2.3,1.5,2.3,1.5,2.3,1.5,2.3,1.5,2.3,1.6,2.3,1.6,2.3,1.6,2.2,1.7,2.2,1.7,2.2,1.7,2.2,1.7,2.2,1.8,2.2,1.8,2.2,1.8,2.1,1.8,2.1,1.8,2.1,1.9,2.1,1.9,2.1,1.9,2.1,2,2.1,2,2,2,2,2,2,2,2,2,1.9,2.1,1.9,2.1,1.9,2.1,1.9,2.1,1.9,2.1,1.8,2.2,1.8,2.2,1.8,2.2,1.8,2.2,1.8,2.2,1.7,2.2,1.7,2.2,1.7,2.2,1.7,2.3,1.6,2.3,1.6,2.3,1.6,2.3,1.5,2.3,1.5,2.3,1.5,2.3,1.5,2.3,1.4,2.3,1.4,2.3,1.4,2.3,1.4,2.3,1.3,2.3,1.3,2.3,1.3,2.3,1.2,2.3,1.2,2.3,1.2,2.3,1.1,2.4,1.1,2.3,1.1,2.3,1,2.3,1,2.3,1,2.3,1,2.3.9,2.3.9,2.3.9,2.3.8,2.3.8,2.3.8,2.3.7,2.3.7,2.3.7,2.3.6,2.3.6,2.2.6,2.2.5,2.2.5,2.2.5,2.2.5,2.2.4,2.2.4,2.1.4,2.1.3,2.1.3,2.1.3,2.1.3,2.1.2,2,.2,2,.2,2,.1,2,.1,2,.1,1.9.1h5.7l1.8-.1,1.8-.1,1.8-.1,1.8-.1,1.7-.2,1.7-.2,1.7-.2,1.7-.2,1.6-.3,1.6-.3,1.6-.3,1.5-.3,1.5-.4,1.5-.4,1.4-.4,1.4-.4,1.4-.4,1.3-.5,1.3-.5,1.3-.5,1.2-.5,1.2-.5,1.2-.5,1.1-.6,1.1-.6,1.1-.6,1-.6,1-.6,1-.6.9-.7.9-.7.8-.7.8-.7.8-.7.7-.7.7-.7.7-.7.6-.7.6-.8.5-.8.5-.8.5-.8.4-.8.4-.8.3-.8.3-.8.3-.8.2-.8.2-.8.1-.8.1-.8.1-.8v-1.6l-.1-.8-.1-.8-.1-.8-.2-.8-.2-.8-.3-.8-.3-.8-.3-.8-.4-.8-.4-.8-.5-.8-.5-.8-.5-.8-.6-.8-.6-.7-.7-.7-.7-.7-.7-.7-.8-.7-.8-.7-1.3-.6-.9-.7-.9-.6-1-.6-1-.6-1-.6-1.1-.6-1.1-.6-1.2-.6-1.2-.5-1.2-.5-1.3-.5-1.3-.5-1.3-.5-1.3-.4-1.4-.4-1.4-.4-1.4-.4-1.5-.4L485,233l-1.5-.3-1.6-.3-1.6-.3-1.6-.3-1.6-.2-1.7-.2-1.7-.2-1.7-.1-1.8-.1-1.8-.1-1.8-.1h-7.5l-1.9.1-2,.1-2,.1-2,.2-2,.2-2,.2-2.1.2-2.1.3-2.1.3-2.1.3-2.1.3-2.1.4-2.2.4-2.2.4-2.2.4-2.2.5-2.2.5-2.2.6-2.2.6-2.3.6-2.3.6-2.3.7-2.3.7-2.3.8-2.3.8-2.3.8-2.3.8-2.3.9-2.3.9-2.3.9-2.3,1-2.3,1-2.3,1-2.3,1.1-2.3,1.1-2.3,1.1-2.4,1.2-2.3,1.2-2.3,1.2-2.3,1.2-2.3,1.3-2.3,1.3-2.3,1.3-2.3,1.4-2.3,1.4-2.3,1.4-2.3,1.4-2.3,1.5-2.3,1.5-2.3,1.5-2.3,1.5-2.3,1.6-2.3,1.6-2.3,1.6-2.2,1.7-2.2,1.7-2.2,1.7-2.2,1.7-2.2,1.8-2.2,1.8-2.2,1.8-2.1,1.8-2.1,1.9-2.1,1.9-2.1,1.9-2.1,1.9-2,1.9-2,2-2,2-2,2-2,2-2,2-1.9,2.1-1.9,2.1-1.9,2.1-1.9,2.1-1.9,2.1-2.2,1.9-1.8,2.2-1.8,2.2-1.8,2.2-1.7,2.2-1.7,2.2-1.7,2.2-1.7,2.2-1.6,2.2-1.6,2.3-1.6,2.3-1.5,2.3-1.5,2.3-1.5,2.3-1.5,2.3-1.4,2.3-1.4,2.3-1.4,2.3-1.3,2.3-1.3,2.3-1.3,2.3-1.3,2.3-1.2,2.3-1.2,2.3-1.2,2.3-1.2,2.4-1.1,2.3-1.1,2.3-1.1,2.3-1,2.3-1,2.3-1,2.3-.9,2.3-.9,2.3-.9,2.3-.8,2.3-.8,2.3-.8,2.3-.8,2.3-.7,2.3-.7,2.3-.7,2.3-.6,2.3-.6,2.3-.6,2.2-.5,2.2-.5,2.2-.5,2.2-.4,2.2-.4,2.2-.4,2.2-.3,2.1-.3,2.1-.3,2.1-.3,2.1-.2,2.1-.2,2-.2,2-.1,2-.1,2-.1,2-.1,1.9v7.5l.1,1.8.1,1.8.1,1.8.1,1.7.2,1.7.2,1.7.2,1.6.3,1.6.3,1.6.3,1.6.3,1.5.3,1.5.4,1.5.4,1.5.4,1.4.4,1.4.4,1.4.5,1.3.5,1.3.5,1.3.5,1.2.5,1.2.6,1.1.6,1.1.6,1.1.6,1,.6,1,.6,1,.6.9.6.9.7.9.7.8.7.8.7.7.7.7.7.7.7.6.7.6.8.5.8.5.8.5.8.4.8.4.8.4.8.3.8.3.8.2.8.2.8.1.8.1.8.1h1.6l.8-.1.8-.1.8-.1.8-.2.8-.2.8-.3.8-.3.8-.3.8-.4.8-.4.8-.5.8-.5.8-.5.7-.6.7-.6.7-.6.7-.7.7-.7.7-.8.7-.8.7-.8.7-.9.7-.9.6-1,.6-1,.6-1,.6-1.1.6-1.1.6-1.1.5-1.2.5-1.2.5-1.2.5-1.3.5-1.3.5-1.3.4-1.4.4-1.4.4-1.4.4-1.5.3-1.5.3-1.5.3-1.6.3-1.6.3-1.6.2-1.7.2-1.7.2-1.7.1-1.7.1-1.8.1-1.8.1-1.8.1-1.8v-7.6l-.1-2-.1-2-.1-2-.2-2-.2-2-.2-2.1-.3-2.1-.3-2.1-.3-2.1-.3-2.1-.4-2.1-.4-2.2-.4-2.2-.5-2.2-.5-2.2-.5-2.2-.5-2.2-.6-2.2-.6-2.3-.6-2.3-.7-2.3-.7-2.3-.7-2.3-.8-2.3-.8-2.3-.8-2.3-.9-2.3-.9-2.3-.9-2.3-1-2.3-1-2.3-1-2.3-1-2.3-1.1-2.3-1.1-2.4-1.1-2.3-1.2-2.3-1.2-2.3-1.2-2.3-1.3-2.3-1.3-2.3-1.3-2.3-1.3-2.3-1.4-2.3-1.4-2.3-1.4-2.3-1.5-2.3-1.5-2.3-1.5-2.3-1.5-2.3-1.6-2.3-1.6-2.3-1.6-2.3-1.6-2.2-1.7-2.2-1.7-2.2-1.7-2.2-1.8-2.2-1.8-2.2-1.8-2.2-1.8-2.1-1.8-2.1-1.9-2.1-1.9-2.1-1.9-2.1-1.9-2.1-2-2-2-2-2-2-2-2-2-2-2-1.9-2.1-1.9-2.1-1.9-2.1-1.9-2.1-1.9-2.1-1.8-2.2-1.8-2.2-1.8-2.2-1.8-2.2-1.7-2.2-1.7-2.2-1.7-2.2-1.7-2.2-1.6-2.3-1.6-2.3-1.6-2.3-1.6-2.3-1.5-2.3-1.5-2.3-1.5-2.3-1.5-2.3-1.4-2.3-1.4-2.3-1.4-2.3-1.3L152,258l-2.3-1.3-2.3-1.3-2.3-1.2-2.3-1.2-2.3-1.2-2.3-1.1-2.3-1.1-2.3-1.1-2.3-1-2.3-1-2.3-1-2.3-.9-2.3-.9-2.3-.9-2.3-.9-2.3-.8-2.3-.8-2.3-.8-2.3-.7-2.3-.7-2.3-.7-2.3-.6-2.2-.6-2.2-.6-2.2-.5-2.2-.5-2.2-.5-2.2-.5-2.2-.4-2.1-.4-2.1-.4-2.1-.3-2.1-.3-2.1-.3-2.1-.2-2-.2-2-.2-2-.2-2-.1-2-.1-1.9-.1H53.9l-1.8.1-1.8.1-1.8.1-1.8.1L45,231l-1.7.2-1.7.2-1.6.2-1.6.3-1.6.3-1.6.3-1.5.3-1.5.4-1.5.4-1.4.4-1.4.4-1.4.4-1.3.5-1.3.5-1.3.5-1.2.5-1.2.5-1.2.5-1.1.6-1.1.6-1,.6-1,.6-1,.6-.9.6-.9.6-.9.7-.8.7-.8.7-.8.7-.7.7-.7.7-.6.7-.6.7-.6.8-.5.8-.5.8-.4.8-.4.8-.4.8-.3.8-.3.8-.3.8-.2.8-.2.8-.1.8-.1.8v2.4l.1.8.1.8.2.8.2.8.2.8.3.8.3.8.4.8.4.8.4.8.5.8.5.8.6.8.6.7.6.7.7.7.7.7.8.7.8.7.8.7.9.7.9.6.9.6,1,.6,1,.6,1.1.6,1.1.6,1.1.6,1.1.5,1.2.5,1.2.5,1.3.5,1.3.5,1.3.5,1.4.4,1.4.4,1.4.4,1.5.4,1.5.4,1.5.3,1.5.3,1.6.3,1.6.3,1.6.2,1.7.2,1.7.2,1.7.2,1.8.1,1.8.1,1.8.1,1.8.1h7.6l2-.1,2-.1,2-.1,2-.1,2-.2,2-.2,2.1-.2,2.1-.3,2.1-.3,2.1-.3,2.1-.4,2.1-.4,2.2-.4,2.2-.5,2.2-.5,2.2-.5,2.2-.5,2.2-.6,2.3-.6,2.3-.6,2.3-.7,2.3-.7,2.3-.7,2.3-.8,2.3-.8,2.3-.8,2.3-.8,2.3-.9,2.3-.9,2.3-.9,2.3-1,2.3-1,2.3-1,2.3-1.1,2.3-1.1,2.3-1.1,2.4-1.2,2.3-1.2,2.3-1.2,2.3-1.3,2.3-1.3,2.3-1.3,2.3-1.3,2.3-1.4,2.3-1.4,2.3-1.4,2.3-1.5,2.3-1.5,2.3-1.5,2.3-1.5,2.3-1.6,2.3-1.6,2.3-1.6,2.2-1.6,2.2-1.7,2.2-1.7,2.2-1.7,2.2-1.7,2.2-1.8,2.2-1.8,2.2-1.8,2.1-1.8,2.1-1.9,2.1-1.9,2.1-1.9,2.1-1.9,2-1.9,2-2,2-2,2-2,2-2,2-2,1.9-2.1,1.9-2.1,1.9-2.1,1.9-2.1,1.8-2.1,1.8-2.1,1.8-2.1,1.8-2.2,1.7-2.2,1.7-2.2,1.7-2.2,1.7-2.2,1.7-2.2,1.6-2.3,1.6-2.3,1.6-2.3,1.5-2.3,1.5-2.3,1.5-2.3,1.4-2.3,1.4-2.3,1.4-2.3L258,157l1.3-2.3,1.3-2.3,1.3-2.3,1.3-2.3,1.2-2.3,1.2-2.3,1.2-2.3,1.1-2.3,1.1-2.4,1.1-2.3,1-2.3,1-2.3,1-2.3,1-2.3.9-2.3.9-2.3.9-2.3.8-2.3.8-2.3.8-2.3.7-2.3.7-2.3.7-2.3.6-2.3.6-2.3.6-2.2.5-2.2.5-2.2.5-2.2.5-2.2.4-2.2.4-2.2.4-2.1.3-2.1.3-2.1.3-2.1.3-2.1.2-2.1.2-2,.2-2,.1-2,.1-2,.1-1.9V53.9l-.1-1.8-.1-1.8-.1-1.8-.1-1.8-.2-1.7-.2-1.7-.2-1.7-.4-1.9-.3-1.6-.3-1.6-.3-1.6-.3-1.5-.3-1.5-.4-1.5-.4-1.4-.4-1.4-.4-1.4-.5-1.3-.5-1.3-.5-1.3-.5-1.2-.5-1.2-.4-1.2-.6-1.1-.6-1.1-.6-1.1-.6-1-.6-1-.6-.9-.6-.9-.7-.9-.7-.8-.7-.8-.7-.8-.7-.7-.7-.7-.7-.6-.7-.6-.7-.6-.8-.5-.8-.5-.8-.5-.8-.4-.8-.4-.8-.3-.8-.3-.8-.3-.8-.2-.8-.2-.8-.1-.8-.1-.8-.1h-1.6l-.8.1-.8.1-.8.2-.8.2-.8.2-.8.3-.8.3-.8.3-.8.4-.8.4-.8.5-.8.5-.8.6-.7.6-.7.6-.7.7-.7.7-.7.7-.7.8-.7.8-.7.9-.7.9-.6.9-.6,1-.6,1-.6,1-.6,1.1-.6,1.1-.6,1.2-.5,1.2-.5,1.2-.5,1.3-.5,1.3-.5,1.3-.4,1.4-.4,1.4-.4,1.4-.4,1.4-.4,1.5-.3,1.5-.3,1.5-.3,1.6-.3,1.6-.3,1.6-.2,1.7-.2,1.7-.2,1.7-.2,1.7-.1,1.8-.1,1.8-.1,1.8v7.5l.1,1.9.1,2,.1,2,.2,2,.2,2,.2,2,.2,2.1.3,2.1.3,2.1.3,2.1.4,2.1.4,2.1.4,2.2.4,2.2.5,2.2.5,2.2.5,2.2.6,2.2.6,2.2.6,2.3.7,2.3.7,2.3.7,2.3.8,2.3.8,2.3.8,2.3.8,2.3.9,2.3.9,2.3.9,2.3,1,2.3,1,2.3,1,2.3,1,2.3,1.1,2.3,1.1,2.3,1.1,2.3,1.2,2.3,1.2,2.3,1.2,2.3,1.3,2.3,1.3,2.3,1.3,2.3,1.4,2.3,1.4,2.3,1.4,2.3,1.4,2.3,1.5,2.3,1.5,2.3,1.5,2.3,1.6,2.3,1.6,2.3,1.6,2.3,1.6,2.3,1.7,2.2,1.7,2.2,1.7,2.2,1.7,2.2,1.8,2.2,1.8,2.2,1.8,2.1,1.8,2.1,1.8,2.1,1.9,2.1,1.9,2.1,1.9,2.1,1.9,2.1,2,2,2,2,2,2,2,2,2,2,2,1.9,2.1,1.9,2.1,1.9,2.1,1.9,2.1,1.9,2.1,1.8,2.2,1.8,2.2,1.8,2.2,1.8,2.2,1.7,2.2,1.7,2.2,1.7,2.2,1.6,2.2,1.6,2.3,1.6,2.3,1.6,2.3,1.5,2.3,1.5,2.3,1.5,2.3,1.5,2.3,1.4,2.3,1.4,2.3,1.4,2.3,1.3,2.3,1.3,2.3,1.3,2.3,1.3,2.3,1.2,2.3,1.2,2.3,1.2,2.4,1.2,2.3,1.1,2.3,1.1,2.3,1.1,2.3,1,2.3,1,2.3,1,2.3.9,2.3.9,2.3.9,2.3.8,2.3.8,2.3.8,2.3.7,2.3.7,2.3.7,2.3.7,2.3.6,2.3.6,2.2.6,2.2.5,2.2.5,2.2.5,2.2.4,2.2.4,2.1.4,2.1.4,2.1.3,2.1.3,2.1.3,2.1.2,2,.2,2,.2,2,.2,2,.1,2,.1,1.9.1H466l1.8-.1,1.8-.1,1.8-.1,1.7-.1,1.7-.2,1.7-.2,1.7-.2,1.6-.2,1.6-.3,1.6-.3,1.5-.3,1.5-.3,1.5-.4,1.4-.4,1.4-.4,1.4-.4,1.3-.4,1.3-.5,1.3-.5,1.3-.5,1.2-.5,1.2-.5,1.2-.6,1.1-.6,1.1-.6,1-.6,1-.6,1-.6.9-.6.9-.6.8-.7.8-.7.8-.7.7-.7.7-.7.7-.7.6-.7.6-.8.5-.8.5-.8.5-.8.4-.8.4-.8.4-.8.3-.8.3-.8.2-.8.2-.8.1-.8.1-.8.1-.8v-1.6l-.1-.8-.1-.8-.1-.8-.2-.8-.2-.8-.3-.8-.3-.8-.3-.8-.4-.8-.4-.8-.5-.8-.5-.8-.5-.8-.6-.8-.6-.7-.7-.7-.7-.7-.7-.7-.8-.7-.8-.7-.8-.7-.9-.7-.9-.6-1-.6-1-.6-1-.6-1.1-.6-1.1-.6-1.1-.5-1.2-.5-1.2-.5-1.2-.5-1.3-.5-1.3-.5-1.3-.5-1.4-.4-1.4-.4-1.4-.4-1.5-.4-1.5-.3-1.5-.3-1.5-.3-1.6-.3-1.6-.3-1.7-.2-1.7-.2-1.7-.2-1.7-.2-1.8-.1-1.8-.1-1.8-.1-1.8-.1H459l-1.9.1-2,.1-2,.1-2,.1-2,.2-2,.2-2.1.2-2.1.3-2.1.3-2.1.3-2.1.3-2.1.4-1.5.7-2.2.4-2.2.5-2.2.5-2.2.5-2.2.6-2.2.6-2.3.6-2.3.6-2.2.7-2.3.7-2.3.7-2.3.8-2.3.8-2.3.8-2.3.9-2.3.9-2.3.9-2.3,1-2.3,1-2.3,1-2.3,1-2.3,1.1-2.4,1.1-2.3,1.1-2.3,1.2-2.3,1.2-2.3,1.2-2.3,1.3-2.3,1.3-2.3,1.3-2.3,1.3-2.3,1.4-2.3,1.4-2.3,1.4-2.3,1.5-2.3,1.5-2.3,1.5-2.3,1.5-2.3,1.6-2.3,1.6-2.3,1.6-2.2,1.6-2.2,1.7-2.2,1.7-2.2,1.7-2.2,1.8-2.2,1.8-2.2,1.8-2.1,1.8-2.1,1.8-2.1,1.9-2.6,1.8-2.1,1.9-2.1,1.9-2,2-2,2-2,2-2,2-2,2-2,2-1.9,2.1-1.9,2.1-1.9,2.1-1.9,2.1-1.8,2.1-1.8,2.1-1.8,2.2-1.8,2.2-1.7,2.2-1.7,2.2-1.7,2.2-1.7,2.2-1.6,2.2-1.6,2.3-1.6,2.3-1.5,2.3-1.5,2.3-1.5,2.3-1.5,2.3-1.4,2.3-1.4,2.3-1.4,2.3-1.4,2.3-1.3,2.3-1.3,2.3-1.3,2.3-1.3,2.3-1.2,2.3-1.2,2.4-1.2,2.3-1.1,2.3-1.1,2.4-1.1,2.3-1,2.3-1,2.3-1,2.3-.9,2.3-.9,2.3-.9,2.3-.8,2.3-.8,2.3-.8,2.3-.8,2.3-.7,2.3-.7,2.3-.7,2.3-.6,2.3-.6,2.2-.5,2.6-.5,2.2-.5,2.2-.5,2.2-.4,2.2-.4,2.2-.4,2.2-.4,2.1-.3,2.1-.3,2.1-.3,2.1-.2,2.1-.2,2.1-.2,2-.2,2-.1,2-.1,2-.1,1.9v7.5l.1,1.8.1,1.8.1,1.8.1,1.7.2,1.7.2,1.7.2,1.7.2,1.6.3,1.6.3,1.6.3,1.5.3,1.5.4,1.5.4,1.5.4,1.4.4,1.4.4,1.4.4,1.3.5,1.3.5,1.3.5,1.2.5,1.2.5,1.2.6,1.1.6,1.1.6,1,.6,1,.6,1,.6.9.6.9.7.9.7.8.7.8.7.8.7.7.7.7.7.6.7.6.8.6.8.5.8.5.8.4.8.4.8.4.8.3.8.3.8.2.8.2.8.2.8.1.8.1h2.4l.8-.1.8-.1.8-.2.8-.2.8-.2.8-.3.8-.3.8-.4.8-.4.8-.4.8-.5.8-.5.7-.6.7-.6.7-.6.7-.7.7-.7.7-.8.7-.8.7-.8.7-.9.7-.9.6-1,.6-1,.6-1,.6-1,.6-1.1.6-1.1.6-1.1.5-1.2.5-1.2.5-1.3.5-1.3.4-1.3.4-1.4.4-1.4.4-1.4.4-1.5.4-1.5.3-1.5.3-1.6.3-1.6.3-1.6.2-1.6.2-1.7.2-1.7.2-1.7.1-1.8.1-1.8.1-1.8.1-1.8v-7.5l-.1-1.9-.1-2-.1-2-.2-2-.2-2-.2-2-.3-2.1-.3-2.1-.3-2.1-.3-2.1-.4-2.1-.4-2.2-.4-2.2-.4-2.2-.5-2.2-.5-2.2-.7-2.1-.6-2.2-.6-2.3-.6-2.3-.7-2.3-.7-2.3-.7-2.3-.8-2.3-.8-2.3-.8-2.3-.8-2.3-.9-2.3-.9-2.3-1-2.3-1-2.3-1-2.3-1-2.3-1.1-2.3-1.1-2.3-1.1-2.3-1.2-2.4-1.2-2.3-1.2-2.3-1.3-2.3-1.3-2.3-1.3-2.3-1.3-2.3-1.4-2.3-1.4-2.3-1.4-2.3-1.5-2.3-1.5-2.3-1.5-2.3-1.5-2.3-1.6-2.3-1.6-2.3-1.6-2.3-1.6-2.2-1.7-2.2-1.7-2.2-1.7-2.2-1.7-2.2-1.8-2.2-1.8-2.2-1.8-2.1-1.8-2.1-1.9-2.1-1.9-2.1-1.9-2.1-1.9-2.1-2-2.1-2-2-2-2-2-2-2-2-2-1.9-2.1-1.9-1.7-2.3-2.1-1.9-2.1-1.9-2.1-1.8-2.1-1.8-2.2-1.8-2.2-1.8L189,283l-2.2-1.7-2.2-1.7-2.2-1.7-2.2-1.7-2.3-1.6-2.3-1.6-2.3-1.6-2.3-1.5-2.3-1.5-2.3-1.5-2.3-1.5-2.3-1.4-2.3-1.4-2.3-1.4-2.3-1.3-2.3-1.3-2.3-1.3L148,256l-2.3-1.2-2.3-1.2-2.3-1.2-2.4-1.1-2.3-1.1-2.3-1.1-2.3-1-2.3-1-2.3-1-2.3-1-2.3-.9-2.3-.9-2.3-.9-2.3-.8-2.3-.8-2.3-.8-2.3-.7-2.8-.6-2.3-.7-2.3-.6-2.3-.6-2.2-.6-2.2-.5-2.2-.5-2.2-.5-2.2-.5-2.1-.5-2.2-.4-2.2-.4-2.1-.3-2.1-.3-2.1-.3-2.1-.3-2-.2-2-.2-2-.2-2-.1-2-.1-2-.1-1.9-.1H53.6l-1.8.1-1.8.1-1.8.1-1.8.1-1.7.1-1.7.2-1.7.2-1.6.2-1.6.3-1.6.3-1.6.3-1.5.3-1.5.4-1.5.4-1.4.4-1.4.4-1.4.4-1.3.4-1.3.5-1.3.5-1.2.5-1.2.5-1.2.5-1.1.6-1.1.6-1.1.6-1,.6-1,.6-1,.6-.9.6-.9.7-.9.7-.8.7-.8.7-.7.7-.7.7-.6.7-.6.7-.6.8-.5.8-.5.8-.5.8-.4.8-.4.8-.3.8-.3.8-.3.8-.2.8-.2.8-.1.8-.1.8-.1.8v1.6l.1.8.1.8.1.8.2.8.2.8.3.8.3.8.4.8.4.8.4.8.5.8.5.8.5.8.6.7.6.7.7.7.7.7.7.7.8.7.8.7.9.7.9.7.9.6,1,.6,1,.6,1,.6,1.1.6,1.1.6,1.1.6,1.2.5,1.2.5,1.3.5,1.3.5,1.3.5,1.4.4,1.4.4,1.4.4,1.5.4,1.5.4,1.5.3,1.5.3,1.6.3,1.6.3,1.6.2,1.6.2,1.7.2,1.7.2,1.7.1,1.8.1,1.8.1,1.8.1h7.5l1.9-.1,2-.1,2-.1,2-.1,2-.2,2-.2,2.1-.2,2.1-.3,2.1-.3,2.1-.3,2.1-.4,2.2-.4,2.2-.4,2.2-.4,2.2-.5,2.2-.5,2.2-.5,2.2-.6,2.2-.6,2.3-.6,2.3-.7,2.3-.7,2.3-.7,2.3-.7,2.3-.8,2.3-.8,2.3-.8,2.3-.9,2.3-.9,2.3-.9,2.3-1,2.3-1,2.3-1,2.3-1,2.3-1.1,2.4-1.1,2.3-1.1,2.3-1.2,2.3-1.2,2.3-1.2,2.3-1.3,2.3-1.3,2.3-1.3,2.3-1.4,2.3-1.4,2.3-1.4,2.3-1.4,2.3-1.5,2.3-1.5,2.3-1.5,2.3-1.5,2.3-1.6,2.3-1.6,2.2-1.6,2.2-1.7,2.2-1.7,2.2-1.7,2.2-1.7,2.2-1.8,2.2-1.8,2.1-1.8,2.1-1.8,2.1-1.9,2.1-1.9,2.1-1.9,2.1-1.9,2-1.9,2-1.9,2-2,2-2,2-2,2-2,1.9-2.1,1.9-2.1,1.9-2.1,1.9-2.1,1.9-2.1,1.8-2.1,1.8-2.2L233,192l1.8-2.2,1.7-2.2,1.7-2.2,1.7-2.2,1.7-2.2,1.6-2.2,1.6-2.3,1.6-2.3,1.5-2.3,1.5-2.3,1.5-2.3,1.5-2.3,1.4-2.3,1.4-2.3,1.4-2.3,1.4-2.3,1.3-2.3,1.3-2.3,1.3-2.3,1.2-2.3,1.2-2.3,1.2-2.4,1.2-2.3,1.1-2.3,1.1-2.3,1-2.4,1-2.3,1-2.3,1-2.3.9-2.3.9-2.3.9-2.3.8-2.3.8-2.3.8-2.3.8-2.3.7-2.3.7-2.3.7-2.3.6-2.3.6-2.3.6-2.2.5-2.2.5-2.2.5-2.2.4-2.2.4-2.2.4-2.1.4-2.1.3-2.1.3-2.1.3-2.1.2-2.1.2-2,.2-2,.2-2,.1-2,.1-2,.1-1.9V52.9l-.1-1.8-.1-1.8-.1-1.8-.2-1.7-.2-1.7-.2-1.7-.2-1.7-.3-1.6-.3-1.6-.3-1.6-.3-1.5-.3-1.5-.4-1.5-.4-1.4-.4-1.4-.4-1.4-.5-1.3-.5-1.3-.5-1.3-.5-1.3-.5-1.2-.5-1.2-.6-1.1-.6-1.1-.6-1.1-.6-1-.6-1-.6-1-.6-.9-.7-.9-.7-.9-.7-.8-.7-.8-.7-.7-.7-.7-.7-.7-.7-.6-.7-.6-.8-.6-.8-.5-.8-.5-.8-.4-.8-.4-.8-.3-.8-.3-.8-.3-.8-.2-.8-.2-.8-.2-.8-.1-.8-.1h-1.6l-.8.1-.8.1-.8.1-.8.2-.8.2-.8.3-.8.3-.8.3-.8.4-.8.4-.8.4-.8.5-.8.5L247,6l-.7.6-.7.7-.7.7-.7.7-.7.8-.7.8-.7.8-.7.9-.6.9-.6,1-.6,1-.6,1-.6,1.1-.6,1.1.2.6-.5,1.2-.5,1.2-.5,1.2-.5,1.3-.5,1.3-.5,1.3-.4,1.4-.4,1.4-.4,1.4-.4,1.5-.3,1.5-.3,1.5-.3,1.6-.3,1.6-.2,1.6-.2,1.6-.2,1.7-.2,1.7-.2,1.7-.1,1.8L231,50l-.1,1.8v9.4l.1,1.9.1,2,.1,2,.2,2,.2,2,.2,2.1.3,2.1.3,2.1.3,2.1.3,2.1.4,2.1.4,2.2.4,2.2.5,2.2.5,2.2.5,2.2.6,2.2.6,2.2.6,2.3.6,2.3.7,2.3.7,2.3.7,2.3.8,2.3.8,2.3.8,2.3.9,2.3.9,2.3.9,2.3,1,2.3,1,2.3,1,2.3,1,2.3,1.1,2.4,1.1,2.3,1.1,2.3,1.2,2.4,1.2,2.3,1.2,2.3,1.3,2.3,1.3,2.3,1.3,2.3,1.4,2.3,1.4,2.3,1.4,2.3,1.4,2.3,1.5,2.3,1.5,2.3,1.5,2.3,1.5,2.3,1.6,2.3,1.6,2.3,1.6,2.3,1.6,2.2,1.7,2.2,1.7,2.2,1.7,2.2,1.7,2.2,1.8,2.2,1.8,2.2,1.8,2.1,1.8,2.1,1.9,2.1,1.9,2.1,1.9,2.1,1.9,2.1,2,2,2,2,2,2,2,2,2,2,2,1.9,2.1,1.9,2.1,1.9,2.1,1.9,2.1,1.9,2.1,1.8,2.2,1.8,2.2,1.8,2.2,1.8,2.2,1.7,2.2,1.7,2.2,1.7,2.2,1.7,2.3,1.6,2.3,1.6,2.3,1.6,2.3,1.6,2.3,1.5,2.3,1.5,2.3,1.5,2.3,1.5,2.3,1.4,2.3,1.4,2.3,1.4,2.3,1.3,2.3,1.3,2.3,1.3,2.3,1.2,2.3,1.2,2.3,1.2,2.3,1.2,2.3,1.1,2.3,1.1,2.3,1.1,2.3,1,2.3,1,2.3,1,2.3.9,2.3.9,2.3.9,2.3.9,2.3.8,2.3.8,2.3.8,2.3.7,2.3.7,2.3.7,2.3.6,2.2.6,2.2.6,2.2.5,2.2.5,2.2.5,2.2.5,2.2.4,2.2.4,2.1.4,2.1.3,2.1.3,2.1.3,2.1.2,2,.2,2,.2,2,.1,2,.1,2,.1,2,.1h7.5l1.8-.1,1.8-.1,1.8-.1,1.7-.1,1.7-.2,1.7-.2,1.7-.2,1.6-.2,1.6-.3,1.6-.3,1.5-.3,1.5-.3,1.5-.4,1.5-.4,1.4-.4,1.4-.4,1.4-.4,1.3-.5,1.3-.5,1.3-.5,1.2-.5,1.2-.5,1.2-.5,1.1-.6,1.1-.6,1.1-.6,1-.6,1-.6.9-.6.9-.7.9-.7.8-.7.8-.7.8-.7.7-.7.7-.7.6-.7.6-.7.6-.7.5-.8.5-.8.4-.8.4-.8.4-.8.3-.8.3-.8.3-.8.2-.8.2-.8.1-.8.1-.8v-.8"/></g></g></svg>