<?xml version="1.0" encoding="utf-8"?>
<!-- Generator: Adobe Illustrator 23.0.6, SVG Export Plug-In . SVG Version: 6.00 Build 0)  -->
<svg version="1.1" id="Layer_1" xmlns="http://www.w3.org/2000/svg" xmlns:xlink="http://www.w3.org/1999/xlink" x="0px" y="0px"
	 viewBox="0 0 643.7 564.2" style="enable-background:new 0 0 643.7 564.2;" xml:space="preserve">
<style type="text/css">
	.st0{fill:#FFFFFF;}
</style>
<g id="Layer_2_00000047741884511382562900000015633368145035211677_">
	<g id="Layer_1-2">
		<path class="st0" d="M630.8,487.7c-35.5,4.3-59.1,27.1-86.2,48.2c-23.2,18.1-49.9,35.6-80.4,25.2c-31.4-10.7-56.9-37.1-82-57.4
			c-21.2-17-47.6-41.5-76.8-41.5c-56,0-79.2,80.2-127.3,98.9c-39.1,15.2-63-32.7-78.6-60c-20.9-36.6-40.7-94.8-85.1-106.7
			c0-9.8-0.1-13.9-0.3-21c43.5,13.8,63.5,67.6,85.3,104c15.7,26.2,40.7,73.9,78.6,59.1c48-18.7,71.8-98.6,127.7-98.6
			c29.2,0,55.6,24.4,76.7,41.4c25.1,20.3,50.5,46.5,81.7,57.2c29.9,10.2,57.2-7.4,80.3-24.6c27.1-20.2,51-41.4,85.6-46.5
			C630.7,473.4,630.8,477.9,630.8,487.7z"/>
		<path class="st0" d="M627.8,443.6c-33.2,5-57.1,23.3-84.2,41.6c-23.1,15.6-50.8,31.7-79.4,21.9c-31-10.6-56.1-36.7-81-56.9
			c-21-17-47.2-41.2-76.2-41.2c-55.9,0.1-80.8,79.4-128.9,98c-36.4,14.1-62.4-29.5-79-54.6c-23-34.7-43.8-82.2-86-95.8
			c-0.3-2.9-0.7-5.8-1.4-8.6c41,11.9,62.7,53.7,86.9,85.9c18,23.9,44.6,61.9,79.6,48.6c48.4-18.5,74.4-97.3,130.4-97.3
			c28.9,0,54.8,23.9,75.6,40.9c24.5,20,49.4,46,80.1,56.4c27.4,9.3,55.1-4.5,78.3-18.3c26.8-15.9,50.7-31.4,82.3-35.6
			C626.3,434.1,626.8,437.1,627.8,443.6z"/>
		<path class="st0" d="M620.7,413.4c-30.3,2.9-54,14.9-81,27.5c-22.4,10.4-47.5,19.7-72.3,12.9c-31-8.5-56.2-35.2-80.4-55.3
			c-20.8-17.3-47.3-41.4-76.1-41.2c-61.3,0.4-83.3,87.5-141,98.4c-28.8,5.4-52.9-21.5-70.5-40.5C73,386.4,49.9,351.2,9.8,342
			c-0.5-1-1.1-2-1.8-2.9c38.6,6.2,62.7,34.8,90.8,59.5c19.3,17,43.7,37.7,71.3,32.5c58-11,81.6-97.1,143-97.3
			c61.8-0.3,97.7,79.9,154.5,95.5c48.8,13.5,100.4-24.5,149.2-27.3C618.3,406.4,619.1,408.6,620.7,413.4z"/>
		<path class="st0" d="M611.8,388.5c-46.2,0.2-98.9,24-144.2,11.4c-56.1-15.5-91-94.5-152.1-94.3c-61.7,0.2-87.2,85-145.5,96.1
			c-60.6,11.6-105-61-164.3-65.5c-0.8-1.1-1.4-2.3-1.8-3.6c58.2,0.8,107.5,55.8,166.2,44.6s85.6-95.1,147.4-95.1
			c60.5-0.1,94.7,77.9,150.2,93.4c43,12,96-0.3,140.3,1.3C609.5,381.6,610.3,384,611.8,388.5z"/>
		<path class="st0" d="M604.1,360.3c-24-1.7-47.8-4.4-71.7-7.2c-20.2-2.4-41.9-1.4-61.6-6c-57.5-13.3-89.6-93.6-151.2-93.8
			c-60.8-0.2-90,80.7-146.5,93.8c-56.9,13.2-113.8-24.4-171-22.3c-0.6-3.6-1-7.2-1.2-10.8c56.3-3,116.7,21.3,172.2,8.6
			c56.7-13,86.9-93.4,147.8-93.1c61.2,0.2,92.7,79.9,149.9,93.1c19.8,4.6,40.7,4.1,60.7,8.8c23.5,5.5,45.9,10.8,70,12.7
			C602.4,351.2,602.9,354.4,604.1,360.3z"/>
		<path class="st0" d="M599.9,320.1c-25.1-1.6-45.5-8.7-68.9-16.6c-20-6.7-40.1-5.8-60.3-10.4c-56.9-13.1-88.1-92.5-149-92.7
			S229.8,280,173,293.1c-23.8,5.5-51.2,2.1-75.4,1.5c-32.6-0.8-65-1.9-97.5-1c-0.1-8.4-0.2-14.1,0.2-23.1
			c32.5,0.5,64.9-0.1,97.3-0.5c24.1-0.4,51.8,4,75.4-1.7c56-13.6,88.8-91.9,148.8-91.9s92.9,78.2,148.9,91.9
			c20.3,4.9,40.3,3.1,60.3,10.6c23.6,8.9,42.9,16.9,69,17.7C599.6,305.7,599.6,311.2,599.9,320.1z"/>
		<path class="st0" d="M602.3,271.9c-27.6-0.4-46.3-10.3-70.6-21c-20.4-9-40.1-7-61-12.2c-54.5-13.6-90.6-86.6-148.9-86.6
			s-94.3,73-148.8,86.6c-23.4,5.8-50.5,1.6-74.6,3.5c-32,2.5-63.4,5.3-95.5,4.3c0.9-5.6,2.3-11.1,4-16.5c31.8,0.7,61.6-4.7,92.8-9.7
			c24-3.8,49.8-0.7,73.2-6.1c53.8-12.5,91.8-79.2,148.8-79.2s95.1,66.6,148.9,79.2c22,5.1,41.4,3.9,62.2,14.6
			c25,12.8,43.6,25,73,25.7C604.4,260.2,603.2,266,602.3,271.9z"/>
		<path class="st0" d="M611.5,236.2c-31.4-1.7-51-17.1-76.6-33c-21.3-13.2-40.4-13.5-64.2-18.2c-53.1-10.4-93.3-67.5-148.9-67.5
			s-95.7,57.1-148.9,67.5c-23.8,4.7-47.3,3.4-71,10.3c-30,8.7-57.1,17.6-88.8,17.9c2.3-5.1,3.6-7.6,6.1-12.3
			c31.9-1.5,56.1-13.6,84.9-25.9c23.2-9.9,44.7-10.6,68.9-14.3c52.5-8.2,94.6-56.8,148.8-56.3c54.5,0.5,96.1,48.1,148.9,56.3
			c25.5,4,44.5,6.4,66.1,21.7c26.1,18.4,46.7,37.1,80,39.9C614.6,227.8,613.5,230.5,611.5,236.2z"/>
		<path class="st0" d="M623.7,206.8c-35.7-4.6-57.5-27.4-84.4-48.7c-21.9-17.3-41.1-23.3-68.6-26.1c-51.9-5.3-95.9-41.9-148.9-42.2
			s-97,36.9-148.9,42.2c-24.9,2.5-44.3,5.7-66.1,19.4c-26.7,16.7-47.6,32.6-80,35.8c2.6-4.6,3.9-6.9,6.3-11.8
			c32.9-4.7,51.1-23.9,75.9-44c20.3-16.4,38.5-22.1,63.9-23.6c51.1-3,97.2-30.7,148.8-30.6s97.7,27.6,148.9,30.6
			c28.9,1.7,48.6,11,70.6,29.7c27.6,23.6,50.4,49.9,88,55.9C627.1,198.9,626,201.6,623.7,206.8z"/>
		<path class="st0" d="M635.3,176.2c-67.2-12.9-93.2-96.4-164.6-97.4c-50.3-0.7-98.4-18.1-148.9-18s-98.6,17.3-148.8,18
			c-61.5,0.9-75.9,70.3-133,81c1.9-5,3.4-10.1,4.6-15.2c57.9-12.1,64.8-90.8,128.4-90.2c49.8,0.5,99-9.3,148.8-9.4
			s99.1,9.9,148.9,9.4c73.6-0.8,99.9,91.3,168.8,105.5C638.4,165.4,637,170.8,635.3,176.2z"/>
		<path class="st0" d="M642.7,137C570.3,122,546,24,467.6,25c-48.6,0.6-97.2-2.6-145.8-2.6S224.6,25.6,176,25
			c-32.2-0.4-46.5,11.2-64.5,37.9C93.7,89.2,82,115.6,48.3,122.6c0.8-7.5,1.2-15,1.1-22.4C84,94,94.7,66.1,111.8,38.8
			C129.4,10.9,143.3,0,176.1,0h291.5c79.8,0,102,100.5,176,114.3C643.7,121.9,643.4,129.5,642.7,137z"/>
	</g>
</g>
</svg>
