<svg xmlns="http://www.w3.org/2000/svg" viewBox="0 0 648.6 648.2"><defs><style>.cls-1{fill:none;stroke:#fff;stroke-width:2px;}</style></defs><g id="Layer_2" data-name="Layer 2"><g id="Layer_1-2" data-name="Layer 1"><path class="cls-1" d="M646.9,324.1v-2l-.1-2-.2-2-.2-2-.3-2-.3-2-.4-2-.5-2-.5-2-.6-2-.7-2-.7-2-.8-1.9-.8-1.9-.9-1.9-1-1.9-1-1.9-1.1-1.9-1.2-1.9-1.2-1.8-1.3-1.8-1.3-1.8-1.4-1.8-1.4-1.7-1.5-1.7-1.5-1.7-1.6-1.7-1.7-1.6-1.7-1.6-1.8-1.6-1.8-1.6-1.9-1.5-1.9-1.5-2-1.5-2-1.4-2.1-1.4-2.1-1.4-2.2-1.3-2.2-1.3-2.3-1.3-2.3-1.2-2.4-1.2-2.4-1.1-2.5-1.1-2.5-1.1-2.6-1-2.6-1-2.6-.9-2.7-.9-2.7-.9-2.8-.8-2.8-.8-2.9-.7-2.9-.7-2.9-.6-3-.6-3-.5-3-.5-3.1-.4-3.1-.4-3.1-.3-3.1-.3-3.2-.3-3.2-.2-3.2-.1-3.3-.1h-6.6l-3.3.1-3.3.1-3.4.2-3.4.2-3.4.3-3.4.3-3.4.4-3.4.4-3.5.5-3.5.5-3.5.6-3.5.6-3.5.7-3.5.8-3.5.8-3.5.9-3.5.9-3.5,1-3.5,1-3.5,1.1-3.5,1.1-3.5,1.2-3.6,1.2-3.5,1.3-3.5,1.3-3.5,1.4-3.5,1.4-3.5,1.5-3.5,1.5-3.5,1.6-3.5,1.7-3.5,1.7-3.5,1.8-3.5,1.8-3.4,1.8-3.4,1.9-3.4,1.9-3.4,2-3.4,2-3.4,2.1-3.4,2.1L373,284l-3.3,2.2-3.3,2.3-3.3,2.3-3.2,2.4-3.2,2.4-3.2,2.5-3.1,2.5-3.1,2.5-3.1,2.6-3.1,2.6-3,2.7-3,2.7-3,2.7-2.9,2.8-2.9,2.8-2.9,2.9-2.8,2.9-2.8,2.9-2.8,2.9-2.7,3-2.7,3-2.6,3-2.6,3.1-2.5,3.1-2.5,3.1-2.9,3.4-2.4,3.2-2.4,3.2-2.3,3.3-2.3,3.3-2.3,3.3-2.2,3.3-2.1,3.3-2.1,3.4-2.1,3.4-2,3.4-2,3.4-1.9,3.4-1.9,3.4-1.8,3.5-1.8,3.5-1.7,3.5-1.7,3.5-1.6,3.5-1.6,3.5-1.5,3.5-1.5,3.5-1.4,3.5-1.3,3.5-1.3,3.5-1.3,3.5-1.2,3.5-1.2,3.6-1.1,3.5-1,3.5-1,3.5-.9,3.5-.9,3.5-.8,3.5-.8,3.5-.7,3.5-.7,3.5-.6,3.5-.6,3.5-.5,3.5-.5,3.5-.4,3.4-.3,3.4-.3,3.4-.2,3.4-.2,3.4-.1,3.3-.1,3.3v6.6l.1,3.3.1,3.2.2,3.2.2,3.2.3,3.1.3,3.1.4,3.1.4,3.1.5,3,.5,3,.6,3,.6,2.9.7,2.9.7,2.9.8,2.8.8,2.8.8,2.7.9,2.7.9,2.7,1,2.6,1,2.6,1.1,2.5,1.1,2.5,1.1,2.4,1.2,2.4,1.2,2.4,1.2,2.3,1.3,2.3,1.3,2.2,1.4,2.2,1.4,2.1,1.4,2,1.5,2,1.5,2,1.5,1.9,1.5,1.9,1.6,1.8,1.6,1.7,1.6,1.7,1.7,1.6,1.7,1.6,1.7,1.5,1.7,1.5,1.8,1.4,1.8,1.4,1.8,1.3,1.8,1.2,1.8,1.2,1.9,1.1,1.9,1.1,1.9,1,1.9.9,1.9.9,1.9.8,2,.7,2,.7,2,.6,2,.5,2,.5,2,.4,2,.4,2,.3,2,.3,2,.2,2,.1h4l2-.1,2-.1,2-.2,2-.3,2-.3,2-.4,2-.4,2-.5,2-.6,2-.6,2-.7,1.9-.8,1.9-.8,1.9-.9,1.9-1,1.9-1,1.9-1.1,1.9-1.1,1.8-1.2,1.8-1.3,1.8-1.3,1.8-1.4,1.8-1.4,1.7-1.5,1.7-1.5,1.7-1.6,1.6-1.7,1.6-1.7,1.6-1.8,1.6-1.8,1.5-1.9,1.5-1.9,1.5-2,1.4-2,1.4-2.1,1.4-2.1,1.3-2.2,1.3-2.2,1.3-2.3,1.2-2.3,1.2-2.4,1.2-2.4,1.1-2.5,1.1-2.5,1-2.5,1-2.6,1-2.6.9-2.7.9-2.7.8-2.8.8-2.8.7-2.8.7-2.9.7-2.9.6-2.9.5-3,.5-3,.5-3,.4-3.1.4-3.1.3-3.1.3-3.2.2-3.2.2-3.2.1-3.2.1-3.3V516l-.1-3.3-.1-3.4-.2-3.4-.3-3.4-.3-3.4-.4-3.4-.4-3.4-.5-3.5-.5-3.5-.6-3.5-.6-3.5-.7-3.5-.7-3.5-.8-3.5-.8-3.5-.9-3.5-.9-3.5-1-3.5-1.1-3.5-1.1-3.5-1.2-3.5-1.2-3.5-1.3-3.5-1.3-3.5-1.4-3.5-1.4-3.5-1.5-3.5-1.5-3.5-1.6-3.5-1.6-3.5-1.7-3.5-1.7-3.5-1.8-3.5-1.8-3.5-1.9-3.4-1.9-3.4-2-3.4-2-3.4-2.1-3.4-2.1-3.3-2.2-3.3-2.2-3.3-2.3-3.3-2.3-3.3-2.4-3.2-2.4-3.2-2.4-3.2-2.5-3.2-2.5-3.1-2.6-3.1-2.6-3.1-2.6-3-2.7-3-2.7-3-2.8-2.9-2.8-2.9-2.8-2.9-2.9-2.8-2.9-2.8-2.9-2.8-3-2.7-3-2.7-3-2.7-3.1-2.6-3.1-2.6-3.1-2.5-3.2-2.5-3.2-2.4-3.2-2.4-3.2-2.4-3.3-2.3L278,286l-3.3-2.2-3.3-2.2-3.3-2.1-3.4-2.1-3.4-2-3.4-2-3.4-1.9-3.4-1.9-3.5-1.8-3.5-1.8-3.5-1.7-3.5-1.7-3.5-1.6-3.5-1.6-3.5-1.5-3.5-1.5-3.5-1.4-3.5-1.4-3.5-1.3-3.5-1.3-3.5-1.2-3.5-1.2-3.5-1.1-3.5-1.1-3.5-1-3.5-.9-3.5-.9-3.5-.8-3.5-.8-3.5-.7-3.5-.7-3.5-.6-3.5-.6-3.5-.5-3.5-.5-3.4-.4-3.4-.4-3.4-.3L143,237l-3.4-.2-3.4-.2-3.3-.1h-6.6l-3.3.1-3.2.1-3.2.2-3.2.2-3.2.3-3.1.3-3.1.4-3.1.4-3,.4-3,.5-3,.5-2.9.6-2.9.6-2.9.7-2.8.7-2.8.8-2.8.8-2.7.9-2.7.9-2.6.9-2.6,1-2.5,1-2.5,1.1L56.7,251l-2.4,1.1-2.4,1.2-2.3,1.2-2.3,1.3-2.2,1.3-2.2,1.3-2.1,1.4-2.1,1.4-2,1.4-2,1.5-1.9,1.5-1.9,1.5-1.8,1.6-1.8,1.6-1.7,1.6L24,273.5l-1.6,1.7-1.5,1.7-1.5,1.7L18,280.4l-1.4,1.8L15.3,284l-1.2,1.8-1.2,1.8-1.1,1.9-1.1,1.9-1,1.9-.9,1.9-.9,1.9L7.1,299l-.8,1.9-.7,2-.6,2-.6,2-.5,2-.5,2-.4,2-.3,2-.3,2-.2,2-.1,2-.1,2v4l.1,2,.2,2,.2,2,.3,2,.4,2,.4,2,.5,2,.5,2,.6,2,.7,2,.7,1.9.8,1.9.9,1.9.9,1.9,1,1.9,1.1,1.9,1.1,1.9,1.2,1.8,1.2,1.8,1.3,1.8,1.3,1.8,1.4,1.8,1.5,1.7,1.5,1.7,1.6,1.7L25,376l1.7,1.6,1.7,1.6,1.8,1.6,1.8,1.5,1.9,1.5,2,1.5,2,1.5,2.1,1.4,2.1,1.4,2.2,1.4,2.2,1.3,2.3,1.3,2.3,1.3,2.3,1.2,2.4,1.2,2.4,1.1,2.5,1.1,2.5,1.1,2.6,1,2.6,1,2.7.9,2.7.9,2.7.8,2.8.8,2.8.8,2.9.7,2.9.7,2.9.6,3,.6,3,.5,3,.5,3.1.4,3.1.4,3.1.3,3.2.3,3.2.2,3.2.2,3.2.1,3.3.1h6.6l3.3-.1,3.3-.1,3.4-.2,3.4-.2,3.4-.3,3.4-.3,3.4-.4,3.5-.4,3.5-.5,3.5-.6,3.5-.6,3.5-.7,3.5-.7,3.5-.8,3.5-.8,3.5-.9,3.5-.9,3.5-1,3.5-1,3.5-1.1,3.5-1.2,3.6-1.2,3.5-1.3,3.5-1.3,3.5-1.4L222,393l3.5-1.5L229,390l3.5-1.6,3.5-1.6,3.5-1.7,3.5-1.7,3.5-1.8,3.5-1.8,3.4-1.9,3.4-1.9,3.4-2,3.4-2,3.4-2.1,3.4-2.1,3.3-2.2,3.3-2.2,3.3-2.3,3.3-2.3,3.2-2.3,3.2-2.4,3.2-2.4,3.2-2.5,3.1-2.5,3.1-2.5,3.1-2.6,3.1-2.6,3-2.7,3-2.7,2.9-2.8,2.9-2.8,2.9-2.8,2.8-2.9,2.8-2.9,2.8-2.9,2.7-3,2.7-3,2.7-3,2.6-3.1,2.6-3.1,2.5-3.1,2.5-3.1,2.5-3.2,2.4-3.2,2.4-3.2,2.3-3.3,2.3-3.3,2.2-3.3,2.2-3.3,2.1-3.3,2.1-3.4,2-3.4,2-3.4,1.9-3.4,1.9-3.4,1.8-3.4,1.8-3.5,1.8-3.5,1.7-3.5,1.7-3.5,1.6-3.5,1.6-3.5,1.5-3.5,1.4-3.5,1.4-3.5,1.3-3.5,1.3-3.5,1.2-3.5,1.2-3.5,1.1-3.6L402,196l1-3.5,1-3.5.9-3.5.9-3.5.8-3.5.8-3.5.7-3.5.6-3.5.6-3.5.5-3.5.5-3.5.4-3.4.4-3.4.3-3.4.3-3.4.2-3.4.2-3.4.1-3.3.1-3.3v-6.6l-.1-3.3-.1-3.2-.2-3.2-.2-3.2-.3-3.2-.3-3.1-.4-3.1-.4-3.1-.5-3-.5-3-.6-3-.6-2.9-.7-2.9-.7-2.8-.8-2.8-.8-2.8-.8-2.7-.9-2.7-.9-2.6-1-2.6-1-2.6-1.1-2.5-1.1-2.5-1.1-2.4L396,52.3,394.8,50l-1.3-2.3-1.3-2.2-1.3-2.2-1.4-2.1-1.4-2.1-1.4-2-1.5-2-1.5-1.9-1.5-1.9-1.6-1.8L379,27.7,377.4,26l-1.6-1.7-1.7-1.6-1.7-1.5-1.7-1.5L369,18.3l-1.8-1.4-1.8-1.3-1.8-1.3-1.8-1.2-1.9-1.2L358,10.8l-1.9-1-1.9-1-1.9-.9-1.9-.8-1.9-.8-2-.7-2-.7-2-.6-2-.5-2-.5-2-.4-2-.3-2-.3-2-.2-2-.2-2-.1h-4l-2,.1-2,.2-2,.2-2,.3-2,.4-2,.4-2,.5-2,.5-2,.6-2,.7-2,.7-1.9.8-1.9.9-1.9.9-1.9,1L291,11l-1.9,1.1-1.8,1.1-1.8,1.2-1.8,1.3L281.9,17l-1.8,1.4-1.7,1.4-1.7,1.5L275,22.9l-1.7,1.6-1.6,1.7-1.6,1.7-1.6,1.8L267,31.5l-1.5,1.9L264,35.3l-1.5,2-1.4,2-1.4,2.1-1.4,2.2L257,45.8,255.7,48l-1.3,2.3-1.2,2.3-1.7,1.7-1.1,2.4-1.1,2.5-1.1,2.5-1,2.6-1,2.6-.9,2.7-.9,2.7-.9,2.7-.8,2.8-.8,2.8-.7,2.8-.7,2.9-.6,2.9-.6,3-.5,3-.5,3-.4,3.1-.4,3-.3,3.1-.3,3.2-.2,3.2-.2,3.2-.1,3.2-.1,3.3v6.6l.1,3.3.1,3.3.2,3.4.2,3.4.3,3.4.3,3.4.4,3.4.4,3.4.5,3.5.5,3.5.6,3.5.7,3.5.7,3.5.8,3.5.8,3.5.9,3.5.9,3.5,1,3.5,1,3.5,1.1,3.6,1.1,3.5,1.2,3.6,1.2,3.5,1.3,3.5,1.3,3.5,1.4,3.5,1.4,3.5,1.5,3.5,1.5,3.5,1.6,3.5,1.7,3.5,1.7,3.5,1.8,3.5,1.8,3.5,1.8,3.4,1.9,3.4,1.9,3.4,2,3.4,2,3.4,2.1,3.4,2.1,3.3,2.2,3.3,2.2,3.3,2.3,3.3,2.3,3.3,2.4,3.2,2.4,3.2,2.5,3.2,2.5,3.1,2.5,3.1,2.6,3.1,2.6,3,2.7,3,2.7,3,2.7,3,2.8,2.9,2.8,2.9,2.9,2.9,2.9,2.8,2.9,2.8,3,2.8,3,2.7,3,2.7,3,2.6,3.1,2.6,3.1,2.5,3.1,2.5,3.2,2.5,3.2,2.4,3.2,2.4,3.2,2.3,3.3,2.3,3.3,2.3,3.3,2.2,3.3,2.1,3.4,2.1,3.4,2.1,3.4,2,3.4,2,3.4,1.9,3.4,1.9,3.5,1.8,3.5,1.8,3.5,1.7,3.5,1.7,3.5,1.6,3.5,1.6,3.5,1.5,3.5,1.5,3.5,1.4,3.5,1.4,3.5,1.3,3.5,1.3,3.5,1.2,3.5,1.1,3.5,1.1,3.5,1,3.5,1,3.5.9,3.5.9,3.5.8,3.5.8,3.5.7,3.5.7,3.5.6,3.5.6,3.5.5,3.5.5,3.4.4,3.4.3,3.4.3,3.4.2,3.4.2,3.4.1,3.3.1h6.6l3.3-.1,3.2-.1,3.2-.2,3.2-.2,3.1-.3,3.1-.3,3.1-.4,3.1-.4,3-.5,3-.5,3-.6,2.9-.6,2.9-.7,2.9-.7,2.8-.8,2.8-.8,2.8-.8,2.7-.9,2.7-.9,2.6-1,2.6-1L588,399l2.5-1.1,2.4-1.1,2.4-1.2,2.4-1.2,2.3-1.2,2.3-1.3,2.2-1.3,2.2-1.4,2.1-1.4,2.1-1.4,2-1.5,2-1.5,1.9-1.5,1.8-1.5,1.8-1.6,1.7-1.6,1.7-1.6,1.6-1.7,1.6-1.7,1.5-1.7,1.5-1.7,1.4-1.8,1.3-1.8,1.3-1.8,1.2-1.8,1.2-1.8,1.1-1.9,1-1.9,1-1.9.9-1.9.9-1.9.8-1.9.7-1.9.7-2,.6-2,.5-2,.5-2,.4-2,.4-2,.3-2,.2-2,.2-2,.1-2,.1-2v-2l-.1-2-.1-2-.2-2-.3-2-.3-2-.4-2-.5-2-.5-2-.6-2-.6-2-.7-2-.8-1.9-.8-1.9-.9-1.9-1-1.9-1-1.9-1.1-1.9-1.1-1.8-1.2-1.8-1.3-1.8-1.3-1.8-1.4-1.8-1.4-1.8-1.5-1.7-1.5-1.7-1.6-1.7-1.7-1.6-1.7-1.6-1.8-1.6-1.8-1.6-1.9-1.5-1.9-1.5-2-1.5-2-1.4-2.1-1.4-2.1-1.4-2.2-1.3-2.2-1.3-2.3-1.3-2.3-1.2-2.4-1.2-2.4-1.1-2.5-1.1-2.5-1.1-2.5-1-2.6-1-2.6-.9-2.7-.9-2.7-.9-2.8-.8-2.8-.8-2.8-.7-2.9-.7-2.9-.6-2.9-.6-3-.5-3-.5-3-.5-3.1-.4-3.1-.4-3.1-.3-3.2-.3-3.2-.2-3.2-.2-3.3-.1-3.3-.1h-6.6l-3,.2-3.4.2-3.4.2-3.4.3-3.4.3-3.4.4-3.4.4-3.5.5-3.5.5-3.5.6-3.5.6-3.5.7-3.5.7-3.5.8-3.5.9-3.5.9-3.5.9-3.5,1-3.5,1-3.5,1.1-3.5,1.2-3.5,1.2-3.5,1.3-3.5,1.3-3.5,1.4-3.5,1.4-3.5,1.5-3.5,1.5-3.5,1.6-3.5,1.6-3.5,1.7-3.5,1.7-3.5,1.8-3.5,1.8-3.4,1.9-3.4,1.9-3.4,2-3.4,2-3.4,2.1-3.3,2.1-3.3,2.2-3.3,2.2-3.3,2.3-3.3,2.3-3.2,2.4-3.2,2.4-3.2,2.4-3.1,2.5-3.1,2.5-3.1,2.6-3.1,2.6-3,2.6-3,2.7-3,2.7-2.9,2.8-2.9,2.8-2.9,2.8-2.8,2.9-2.8,2.9-2.8,2.9-2.7,3-2.7,3-2.6,3-2.6,3.1-2.6,3.1-2.5,3.1-2.5,3.2-2.4,3.2-2.4,3.2-2.3,3.2-2.3,3.3-2.3,3.3-2.2,3.3-2.2,3.3-2.1,3.4-2.1,3.4-2,3.4-2,3.4-1.9,3.4-1.9,3.4-1.8,3.5-1.8,3.5-1.7,3.5-1.7,3.5-1.6,3.5-1.6,3.5L258,422l-1.5,3.5-1.4,3.5-1.4,3.5-1.3,3.5-1.3,3.5-1.2,3.5-1.2,3.6-1.1,3.5-1,3.5-1,3.5-1,3.5-.9,3.5-.8,3.5-.8,3.5-.7,3.5-.7,3.5-.6,3.5-.6,3.5-.5,3.5-.5,3.5-.4,3.4-.4,3.4-.3,3.4-.3,3.4-.2,3.4-.1,3.3-.1,3.3v9.9l.1,3.2.2,3.2.2,3.2.3,3.2.3,3.1.4,3.1.4,3.1.5,3,.5,3,.6,3,.6,2.9.6,2.9.7,2.9.7,2.8.8,2.8.8,2.8.9,2.7.9,2.7.9,2.6,1,2.6,1,2.5,1.1,2.5,1.1,2.5,1.1,2.4,1.2,2.4,1.2,2.3,1.3,2.3,1.3,2.2,1.3,2.2,1.4,2.1,1.4,2.1,1.4,2,1.5,2,1.5,1.9,1.5,1.9,1.6,1.8,1.6,1.8,1.6,1.7,1.6,1.6,1.7,1.6,1.7,1.5,1.7,1.5,1.8,1.4,1.8,1.4,1.8,1.3,1.8,1.2,1.8,1.2,1.9,1.1,1.9,1.1,1.9,1,1.9.9,1.9.9,1.9.8,1.9.8,2,.7,2,.6,2,.6,2,.5,2,.5,2,.4,2,.3,2,.3,2,.2,2,.1,2,.1h4l2-.1,2-.2,2-.2,2-.3,2-.4,2-.4,2-.5,2-.5,2-.6,2-.7,2-.7,1.9-.8,1.9-.9,1.9-.9,1.9-1,1.9-1,1.8-1.1,1.8-1.2,1.8-1.2,1.8-1.3,1.8-1.3,1.8-1.4,1.7-1.5,1.7-1.5,1.7-1.6,1.7-1.6,1.6-1.7,1.6-1.7,1.6-1.8,1.5-1.8,1.5-1.9,1.5-2,1.5-2,1.4-2.1,1.4-2.1,1.4-2.2,1.3-2.2,1.3-2.3,1.2-2.3,1.2-2.4,1.2-2.4,1.1-2.4,1.1-2.5,1-2.5,1-2.6,1-2.6.9-2.7.9-2.7.8-2.7.8-2.8.8-2.8.7-2.9.7-2.9.6-2.9.6-3,.5-3,.5-3,.4-3.1.4-3.1.3-3.1.3-3.2.2-3.2.2-3.2.1-3.2.1-3.3v-6.6l-.1-3.3-.1-3.3-.2-3.4-.2-3.4-.3-3.4-.3-3.4-.4-3.4-.5-3.5-.5-3.5-.6-3.5-.6-3.5-.7-3.5-.7-3.5-.8-3.5-.8-3.5-.9-3.5-.9-3.5-1-3.5-1-3.6-1.1-3.5-1.2-3.6-1.2-3.5-1.3-3.5-1.3-3.5-1.4-3.5-1.4-3.5-1.5-3.5-2-3.7-1.6-3.5-1.6-3.5-1.7-3.5-1.7-3.5-1.8-3.5-1.8-3.4-1.9-3.4-1.9-3.4-2-3.4-2-3.4-2.1-3.4-2.1-3.4-2.2-3.3-2.2-3.3-2.3-3.3-2.3-3.3-2.3-3.2-2.4-3.2-2.4-3.2-2.5-3.2-2.5-3.1-2.5-3.1-2.6-3.1-2.6-3.1-2.7-3-2.7-3-2.8-2.9-2.8-2.9-2.8-2.9-2.9-2.8-2.9-2.8-2.9-2.8-3-2.7-3-2.7-3-2.7-3.1-2.6-3.1-2.6-3.1-2.5-3.1-2.5-3.2-2.4-3.2-2.4L285,291l-3.3-2.3-3.3-2.3-3.3-2.2-3.3-2.2-3.3-2.1-3.4-2.1-3.4-2-3.4-2-3.4-1.9-3.4-1.9-3.5-1.8-3.5-1.8-3.5-1.8-3.5-1.7-3.5-1.6-3.5-1.6-3.5-1.5-3.5-1.5-3.5-1.4-3.5-1.4-3.5-1.3-3.5-1.3-3.5-1.2-3.5-1.2-3.5-1.1-3.6-1.1-3.5-1-3.5-1-3.5-.9-3.5-.9-3.5-.8-3.5-.8-3.5-.7-3.5-.6-3.5-.6-3.5-.5-3.5-.5-3.5-.4-3.4-.4-3.4-.3-3.4-.3-3.4-.2-3.4-.2-3.3-.1-3.3-.1h-6.6l-3.3.1-3.2.1-3.2.2-3.2.3-3.1.3-3.1.3-3.1.4-3.1.4-3,.5-3,.5-3,.6-2.9.6-2.9.7-2.8.7-2.8.8-2.8.8-2.7.9-2.7.9-2.6.9-2.6,1-2.6,1L59,249.5l-2.5,1.1-2.4,1.1-2.4,1.2-2.3,1.2-2.3,1.3-2.2,1.3L42.7,258l-2.1,1.4-2.1,1.4-2,1.4-2,1.5-1.9,1.5-1.9,1.5-1.8,1.5-1.8,1.6-1.7,1.6L23.7,273l-1.6,1.7-1.6,1.6L19,278l-1.4,1.7-1.4,1.8-1.3,1.8-1.3,1.8-1.2,1.8-1.1,1.8-1.1,1.9-1,1.9-1,1.9-.9,1.9-.8,1.9-.8,1.9-.7,2-.6,2-.6,2-.5,2-.5,2-.4,2-.4,2-.3,2-.2,2-.1,2-.1,2v4l.1,2,.2,2,.2,2,.3,2,.3,2,.4,2,.5,2,.5,2,.6,2,.7,2,.7,1.9.8,1.9.8,1.9.9,1.9,1,1.9,1,1.9,1.1,1.9,1.1,1.8,1.2,1.8,1.3,1.8,1.3,1.8,1.4,1.8,1.4,1.7,1.5,1.7,1.5,1.7,1.6,1.7,1.7,1.6,1.7,1.6,1.8,1.6,1.8,1.5,1.9,1.5,1.9,1.5,2,1.5,2,1.4,2.1,1.4,2.1,1.4,2.2,1.3,2.2,1.3,2.3,1.3,2.3,1.2,2.4,1.2,2.4,1.1,2.5,1.1,2.5,1.1,2.6,1,2.6,1,2.6.9,2.7.9,2.7.9,2.8.8,2.8.8,2.9.7,2.9.7,2.9.6,3,.6,3,.5,3,.5,3.1.4,3.1.4,3.1.3,3.1.3,3.2.2,3.2.2,3.2.1,3.3.1h6.6l3.3-.1,3.3-.1,3.4-.2,3.4-.2,3.4-.3,3.4-.3,3.4-.4,3.4-.4,3.5-.5,3.5-.5,3.5-.6,3.5-.7,3.5-.7,3.5-.8,3.5-.8,3.5-.9,3.5-.9,3.5-1,3.5-1,3.5-1.1,3.5-1.1,3.5-1.2,3.5-1.2,3.5-1.3,3.5-1.3,3.5-1.4,3.5-1.5,3.5-1.5,3.5-1.6,3.5-1.6,3.5-1.6,3.5-1.7,3.5-1.8,3.5-1.8,3.5-1.9,3.4-1.9,3.4-2,3.4-2,3.4-2,3.4-2.1,3.3-2.1,3.3-2.2,3.3-2.2,3.3-2.3,3.3-2.3,3.2-2.4,3.2-2.4,3.2-2.5,3.2-2.5,3.1-2.5,3.1-2.6,3.1-2.6,3-2.7,3-2.7,3-2.7,2.9-2.8,2.9-2.8,2.9-2.9,2.8-2.9,2.8-2.9,2.7-3,2.7-3,2.7-3,2.6-3,2.6-3.1,2.5-3.1,2.5-3.1,2.5-3.2,2.4-3.2,2.4-3.2,2.3-3.2,2.3-3.3,2.3-3.3,2.2-3.3,2.2-3.3,2.1-3.3,2.1-3.4,2-3.4,2-3.4,1.9-3.4,1.9-3.5,1.8-3.4,1.8-3.5,1.7-3.5,1.7-3.5,1.6-3.5,1.6-3.5,1.5-3.5,1.5-3.5,1.4-3.5,1.4-3.5,1.3-3.5,1.3-3.5,1.2-3.6,1.1-3.5,1.1-3.5,1-3.5,1-3.5.9-3.5.9-3.5.8-3.5.8-3.5.7-3.5.7-3.5.6-3.5.6-3.5.5-3.5.4-3.5.4-3.4.3-3.4.3-3.4.2-3.4.2-3.4.1-3.3.1-3.3v-6.6l-.1-3.3-.1-3.2-.2-3.2-.2-3.2-.3-3.2-.3-3.1-.4-3.1-.4-3.1-.5-3-.5-3-.6-3-.6-2.9-.7-2.9-.7-2.8-.8-2.8-.8-2.8-.8-2.8-.9-2.7-.9-2.7-1-2.6-1-2.6-1-2.5-1.1-2.5-1.1-2.5-1.2-2.4-1.2-2.3-1.2-2.3-1.3-2.3-1.3-2.2-1.3-2.2L387.8,39l-1.4-2.1-1.5-2-1.5-2L381.9,31l-1.5-1.8-1.6-1.8-1.6-1.7L375.6,24l-1.7-1.6-1.7-1.6-1.7-1.5-1.7-1.5L367,16.4l-1.8-1.3-1.8-1.3-1.8-1.2-1.8-1.2L358,10.3l-1.9-1-1.9-1-1.9-.9-1.9-.9-1.9-.8-2-.7-2-.7-2-.6-2-.5-2-.5-2-.4-2-.4-2-.3-2-.2-2-.2-2-.1h-4l-2,.1-2,.1-2,.2-2,.3-2,.3-2,.4-2,.5-2,.5-2,.6-2,.6-1.9.7-2,.8-1.9.8-1.9.9-1.9.9-1.9,1-1.9,1.1L287.2,12l-1.7,1.3-1.8,1.2-1.8,1.3-1.8,1.4-1.8,1.4-1.7,1.5-1.7,1.5-1.7,1.6-1.7,1.7-1.6,1.7-1.4,1.7-1.6,1.8L265.4,32l-1.5,1.9-1.5,2-1.4,2L259.6,40l-1.4,2.1-1.3,2.2-1.3,2.2-1.3,2.3-1.2,2.3-1.2,2.4-1.2,2.4-1.1,2.5-1.1,2.5-1,2.6-1,2.6-.9,2.6-.9,2.7-.9,2.7-.8,2.8-.8,2.8-.7,2.8-.7,2.9-.6,2.9-.6,3-.5,3-.5,3-.5,3-.4,3.1-.4,3.1-.3,3.1-.3,3.2-.2,3.2-.2,3.2-.1,3.3-.1,3.3v6.6l.1,3.3.1,3.4.2,3.4.3,3.4.3,3.4.4,3.4.4,3.4.5,3.5.5,3.5.6,3.5.6,3.5.7,3.5.7,3.5.8,3.5.8,3.5.9,3.5,1,3.5,1,3.6,1.1,3.5,1.1,3.5,1.2,3.6,1.2,3.5,1.3,3.5,1.3,3.5,1.4,3.5,1.4,3.5,1.5,3.5,1.5,3.5,1.6,3.5,1.6,3.5,1.7,3.5,1.7,3.5,1.8,3.5,1.8,3.5,1.9,3.4,1.9,3.4,2,3.4,2,3.4,2.1,3.4,2.1,3.3,2.2,3.3,2.2,3.3,2.3,3.3,2.3,3.3,2.4,3.2,2.4,3.2,2.4,3.2,2.5,3.2,2.5,3.1,2.6,3.1,2.6,3.1,2.7,3,2.7,3,2.7,3,2.8,2.9,2.8,2.9,2.8,2.9,2.9,2.8,2.9,2.8,2.9,2.8,3,2.7,3,2.7,3,2.6,3.1,2.6,3.1,2.6,3.1,2.5,3.2,2.5,3.2,2.4,3.2,2.4,3.2,2.4,3.3,2.3,3.3,2.3,3.3,2.2,3.3,2.2,3.3,2.1,3.4,2.1,3.4,2,3.4,2L394,377l3.4,1.9,3.5,1.8,3.5,1.8,3.5,1.7,3.5,1.7,3.5,1.6,3.5,1.6,3.5,1.5,3.5,1.5,3.5,1.4,3.5,1.4,3.5,1.3,3.5,1.3,3.5,1.2,3.5,1.2L450,401l3.5,1.1,3.5,1,3.5.9,3.5.9,3.5.8,3.5.8,3.5.7,3.5.7,3.5.6,3.5.6,3.5.5,3.5.5,3.5.4,3.4.4,3.4.3,3.4.3,3.4.2,3.3.1,3.3.1h6.6l3.3-.1,3.3-.1,3.2-.2,3.2-.2,3.2-.3,3.1-.3,3.1-.4,3.1-.4,3-.5,3-.5,3-.6,2.9-.6,2.9-.6,2.9-.7,2.8-.7,2.8-.8,2.8-.8,2.7-.9,2.7-.9,2.6-1,2.6-1,2.5-1,2.5-1.1,2.5-1.1,2.4-1.1,2.4-1.2,2.3-1.2,2.3-1.3,2.2-1.3,2.2-1.3,2.1-1.4,2.1-1.4,2-1.4,2-1.5,1.9-1.5,1.9-1.5,1.8-1.6,1.8-1.6,1.7-1.6,1.6-1.6,1.6-1.7,1.5-1.7,1.5-1.7,1.4-1.8,1.4-1.8,1.3-1.8,1.2-1.8,1.2-1.8,1.1-1.9,1.1-1.9,1-1.9.9-1.9.9-1.9.8-1.9.8-1.9.7-1.9.6-2,.6-2,.5-2,.4-2,.4-2,.3-2,.3-2,.2-2,.1-2,.1-2v-2l-.1-2-.1-2-.2-2-.2-2-.3-2-.4-2-.4-2-.5-2-.6-2-.6-2-.7-1.9-.8-2-.8-1.9-.9-1.9-.9-1.9-1-1.9-1-1.9L636,288l-1.2-1.8-1.2-1.8-1.3-1.8-1.4-1.8-1.4-1.8-1.5-1.7-1.5-1.7-1.6-1.7-1.6-1.6-1.7-1.6-1.7-1.6-1.8-1.6-1.8-1.5-1.9-1.5-2-1.5-2-1.4-2.1-1.4-2.1-1.4-2.2-1.3-2.2-1.3-2.3-1.3-2.3-1.2-2.4-1.2-2.4-1.2-2.5-1.1-2.5-1.1-2.5-1-2.6-1-2.6-1-2.7-.9-2.7-.9-2.7-.8-2.8-.8L566,242l-2.9-.7-2.9-.6-2.9-.6-3-.6-3-.5-3-.5-3.1-.4-3.1-.4-3.1-.3-3.2-.3-3.2-.2-3.2-.2-3.2-.1-3.3-.1h-6.6l-2.8-.2-3.3.1-3.4.2-3.4.2-3.4.3-3.4.4-3.4.4-3.5.5-3.5.5-3.5.6-3.5.6-3.5.7-3.5.7-3.5.8-3.5.8-3.5.9-3.5.9-3.5,1-3.5,1-3.5,1.1-3.5,1.1-3.5,1.2-3.5,1.3-3.5,1.3-3.5,1.4-3.5,1.4-3.5,1.5-3.5,1.5-3.5,1.6-3.5,1.6-3.5,1.7-3.5,1.7-3.5,1.8-3.5,1.8-3.4,1.9-3.4,1.9-3.4,2-3.4,2-3.4,2.1-3.4,2.1-3.3,2.2-3.3,2.2-3.3,2.3-3.3,2.3-3.2,2.3-3.2,2.4-3.2,2.4-3.2,2.5-3.1,2.5-3.1,2.5-3.1,2.6-3,2.6-3,2.7-3,2.7-3,2.8-2.9,2.8-2.9,2.8-2.8,2.9-2.8,2.9-2.8,2.9-2.7,3-2.7,3-2.7,3-2.6,3.1-2.6,3.1-2.5,3.1-2.5,3.1-2.5,3.2-2.4,3.2-2.4,3.2-2.3,3.3-2.3,3.3-2.2,3.3-2.2,3.3-2.1,3.3-2.1,3.4-2,3.4-2,3.4-1.9,3.4-1.9,3.4-1.8,3.5-1.8,3.5-1.8,3.5-1.7,3.5-1.6,3.5-1.6,3.5-1.5,3.5-1.5,3.5-1.4,3.5-1.4,3.5-1.3,3.5-1.3,3.5-1.2,3.5-1.2,3.5-1.1,3.5-1.1,3.5-1,3.5-1,3.5-.9,3.5-.8,3.5-.8,3.5-.8,3.5-.7,3.5-.6,3.5-.6,3.5-.5,3.5-.5,3.5-.4,3.5-.4,3.4-.3,3.4-.3,3.4-.8,3.4-.2,3.4-.1,3.3-.1,3.3v6.6l.1,3.3.1,3.2.2,3.2.2,3.2.3,3.2.3,3.1.4,3.1.4,3,.5,3,.5,3,.6,3,.6,2.9.7,2.9.7,2.8.8,2.8.8,2.8.9,2.7.9,2.7.9,2.7,1,2.6,1,2.6,1.1,2.5,1.1,2.5,1.1,2.4,1.2,2.4,1.2,2.3,1.3,2.3,1.3,2.2,1.3,2.2,1.4,2.1,1.4,2.1,1.4,2,1.5,2,1.5,1.9,1.5,1.9,1.6,1.8,1.6,1.8,1.6,1.7,1.6,1.7,1.7,1.6,1.7,1.5,1.7,1.5,1.7,1.4,1.8,1.4,1.8,1.3,1.8,1.3,1.8,1.2,1.9,1.2,1.9,1.1,1.9,1,1.9,1,1.9.9,1.9.8,1.9.8,2,.7,2,.7,2,.6,2,.5,2,.5,2,.4,2,.3,2,.3,2,.2,2,.2,2,.1h4l2-.1,2-.2,2-.2,2-.3,2-.4,2-.4,2-.5,2-.5,2-.6,2-.7,1.9-.7,1.9-.8,1.9-.9,1.9-.9,1.9-1,1.9-1,1.9-1.1,1.9-1.2,1.8-1.2,1.8-1.3,1.8-1.3,1.8-1.4,1.7-1.4,1.7-1.5,1.7-1.5,1.7-1.6,1.6-1.7,1.6-1.7,1.6-1.8,1.5-1.8,1.5-1.9,1.5-1.9,1.5-2,1.4-2,1.4-2.1,1.4-2.1,1.3-2.2,1.3-2.2,1.3-2.3,1.2-2.3,1.2-2.4,1.1-2.4,1.1-2.5,1.1-2.5,1-2.6,1-2.6.9-2.7.9-2.7.8-2.7.8-2.8.8-2.8.7-2.8.7-2.9.6-2.9.6-3,.5-3,.5-3,.4-3,.4-3.1.3-3.1.3-3.1.2-3.2.2-3.2.1-3.2.1-3.3v-6.6l-.1-3.3-.1-3.3-.2-3.4-.2-3.4-.3-3.4-.3-3.4-.4-3.4-.4-3.5-.5-3.5-.5-3.5-.6-3.5-.7-3.5-.7-3.5-.8-3.5-.8-3.5-.9-3.5-.9-3.5-1-3.5-1-3.5-1.1-3.5-1.1-3.6-1.2-3.5-1.2-3.5-1.3-3.5-1.3-3.5-1.4-3.5-1.4-3.5-1.5-3.5-1.5-3.5-1.6-3.5-1.7-3.5-1.7-3.5-1.8-3.5-1.8-3.5-1.8-3.5-1.9-3.4-2-3.4-2-3.4-2-3.4-2.1-3.4-2.1-3.3-2.2-3.3-2.2-3.3-2.3-3.3-2.3-3.3-2.4-3.2-2.4-3.2-2.5-3.2-2.5-3.1-2.5-3.1-2.6-3.1-2.6-3.1-2.7-3-2.7-3-2.7-3-2.8-2.9-2.8-2.9-2.8-2.9-2.9-2.8-2.9-2.8-3-2.7-3-2.7-3-2.7-3-2.6-3.1-2.6-3.1-2.5-3.1-2.5-3.2-2.5-3.2-2.4-3.2-2.4-3.2-2.3-3.3-2.3-3.3-2.3-3.3-2.2-3.3-2.2-3.4-2.1-3.4-2.1-3.4-2-3.4-2-3.4-1.9-3.4-1.9-3.5-1.8-3.5-1.8-3.5-1.7-3.5-1.7-3.5-1.6-3.5-1.6-3.5-1.5-3.5-1.5-3.5-1.4-3.5-1.4-3.5-1.3-3.5-1.3-3.6-1.2-3.5-1.1-3.5-1.1-3.5-1-3.5-1-3.5-.9-3.5-.9-3.5-.8-3.5-.8-3.5-.7-3.5-.7-3.5-.6-3.5-.6-3.5-.5-3.5-.4-3.4-.4-3.4-.3-3.4-.3-3.4-.2-3.4-.2-3.4-.1-3.3-.1h-6.6l-3.3.1-3.2.1-3.2.2-3.2.2-3.1.3-3.1.3-3.1.4-3.1.4-3,.5-3,.5-3,.6-2.9.6-2.9.7-2.8.7-2.8.8-2.8.8-2.7.9-2.7.9-2.6.9-2.6,1-2.6,1-2.5,1-2.5,1.1-2.4,1.1-2.4,1.2-2.4,1.2-2.3,1.3-2.3,1.3-2.2,1.3-2.1,1.4-2.1,1.4-2.1,1.4-2,1.4-1.9,1.5-1.9,1.5-1.9,1.6-1.8,1.6-1.7,1.6-1.7,1.6-1.6,1.7-1.6,1.7-1.5,1.7-1.5,1.7-1.4,1.8-1.3,1.8-1.3,1.8L13,286.7l-1.2,1.8-1.1,1.9-1,1.9-1,1.9-.9,1.9L6.9,298l-.8,1.9-.7,1.9-.7,2-.6,2-.5,2-.5,2-.4,2-.4,2-.3,2-.2,2-.2,2-.1,2v4l.1,2,.1,2,.2,2,.3,2,.3,2,.4,2,.5,2,.5,2,.6,2,.6,2,.7,2,.8,1.9.8,1.9.9,1.9.9,1.9,1,1.9,1.1,1.9,1.1,1.9,1.2,1.8,1.2,1.8,1.3,1.8,1.4,1.8,1.4,1.8,1.5,1.7,1.5,1.7,1.6,1.7,1.6,1.6,1.7,1.6,1.8,1.6,1.8,1.6,1.9,1.5,1.9,1.5,2,1.5,2,1.4,2.1,1.4,2.1,1.4,2.2,1.3,2.2,1.3,2.3,1.3,2.3,1.2,2.4,1.2,2.4,1.1,2.5,1.1,2.5,1.1,2.5,1,2.6,1,2.6,1,2.7.9,2.7.9,2.8.8,2.8.8,2.8.7,2.9.7,2.9.6,2.9.6,3,.6,3,.5,3,.4,3.1.4,3.1.4,3.1.3,3.2.3,3.2.2,3.2.2,3.2.1,3.3.1h6.6l3.3-.1,3.4-.1,3.4-.2,3.4-.3,3.4-.3,3.4-.4,3.4-.4,3.5-.5,3.5-.5,3.5-.6,3.5-.6,3.5-.7,3.5-.7,3.5-.8,3.5-.8,3.5-.9,3.5-.9,3.5-1,3.5-1.1,3.5-1.1,3.5-1.2,3.5-1.2,3.5-1.3,3.5-1.3,3.5-1.4,3.5-1.4,3.5-1.5,3.5-1.5,3.5-1.6,3.5-1.6,3.5-1.7,3.5-1.7,3.5-1.8,3.5-1.8,3.4-1.9,3.4-1.9,3.4-2,3.4-2,3.4-2.1,3.3-2.1,3.3-2.2,3.3-2.2,3.3-2.3,3.3-2.3,3.2-2.4,3.2-2.4,3.2-2.4,3.1-2.5,3.1-2.5,3.1-2.6,3.1-2.6,3-2.6,3-2.7,3-2.7,2.9-2.8,2.9-2.8,2.9-2.8,2.8-2.9,2.8-2.9,2.8-2.9,2.7-3,2.7-3,2.7-3,2.6-3.1,2.6-3.1,2.5-3.1,2.5-3.1,2.4-3.2,2.4-3.2,2.4-3.2,2.3-3.3,2.3-3.3,2.2-3.3,2.2-3.3,2.1-3.4,2.1-3.4,2-3.4,2-3.4,1.9-3.4,1.9-3.4,1.8-3.5,1.8-3.5,1.7-3.5,1.7-3.5,1.6-3.5,1.6-3.5,1.5-3.5,1.5-3.5,1.4-3.5,1.4-3.5,1.3-3.5,1.3-3.5,1.2-3.5,1.2-3.5,1.1-3.6,1.1-3.5,1-3.5.9-3.5.9-3.5.8-3.5.8-3.5.7-3.5.7-3.5.6-3.5.6-3.5.5-3.5.5-3.4.4-3.4.4-3.4.3-3.4.3-3.4.2-3.4.1-3.4.1-3.3v-6.6l-.1-3.3-.1-3.2-.2-3.2-.2-3.2-.3-3.2-.3-3.1-.4-3.1-.4-3.1-.5-3-.5-3-.6-3-.6-2.9-.6-2.9-.7-2.9-.7-2.8-.8-2.8-.8-2.8-.9-2.7-.9-2.7-1-2.6-1-2.6-1-2.6L398,59.3l-1.1-2.4-1.2-2.4-1.2-2.4-1.2-2.3L392,47.5l-1.3-2.2-1.3-2.2L388,41l-1.4-2.1-1.4-2-1.5-2L382.2,33l-1.5-1.9-1.6-1.8-1.6-1.8-1.6-1.7-1.6-1.6-1.7-1.6-1.7-1.5-1.7-1.5-1.7-1.4-1.8-1.3-1.8-1.3-1.8-1.2-1.8-1.2-1.8-1.1L356.6,11l-1.9-1-1.9-.9-1.9-.9L349,7.4l-1.9-.8-2-.7-2-.6-2-.6-2-.5-2-.4-2-.4-2-.3-2-.3-2-.2-2-.1-2-.1h-2l-2,.1-2,.1-2,.2-2,.2-2,.3-2,.4-2,.4-2,.5-2,.6-2,.6-2,.7-2,.7-1.9.8-1.9.9-1.9.9-1.9,1-1.9,1-1.9,1.1-1.8,1.2-1.8,1.2-1.8,1.3-1.8,1.3-1.8,1.4L277,20.8l-1.7,1.5-1.7,1.6-1.7,1.6-1.6,1.7-1.6,1.7-1.6,1.8-1.5,1.8-1.5,1.9-1.5,2-1.5,2-1.4,2.1-1.4,2.1-1.4,2.2L255.6,47l-1.3,2.3-1.2,2.3L251.9,54l-1.2,2.4-1.1,2.4-1.1,2.5-1,2.5-1,2.6-1,2.6-.9,2.7-.9,2.7-.8,2.8-.8,2.8-.8,2.8-.7,2.9-.6,2.9-.6,2.9-.6,3-.5,3-.5,3-.4,3.1-.4,3.1-.3,3.1-.3,3.2-.2,3.2-.2,3.2-.1,3.2-.1,3.3v6.6l.1,3.3.1,3.3.2,3.4.2,3.4.3,3.4.3,3.4.4,3.4.4,3.5.5,3.5.6,3.5.6,3.5.7,3.5.7,3.5.8,3.5.8,3.5.9,3.5.9,3.5,1,3.5,1,3.5,1.1,3.6,1.1,3.5,1.2,3.5,1.3,3.5,1.3,3.5,1.4,3.5,1.4,3.5,1.5,3.5,1.5,3.5,1.6,3.5,1.6,3.5,1.7,3.5,1.7,3.5,1.8,3.5,1.8,3.4,1.9,3.4,1.9,3.4,2,3.4,2,3.4,2.1,3.4,2.1,3.4,2.2,3.3,2.2,3.3,2.3,3.3,2.3,3.3,2.3,3.2,2.4,3.2,2.4,3.2,2.5,3.2,2.5,3.1,2.6,3.1,2.6,3.1,2.6,3,2.7,3,2.7,3,2.8,3,2.8,2.9,2.8,2.9,2.9,2.9,2.9,2.8,2.9,2.8,3,2.7,3,2.7,3,2.7,3.1,2.6,3.1,2.6,3.1,2.5,3.1,2.5,3.2,2.4,3.2,2.4,3.2,2.4,3.3,2.3,3.3,2.3,3.3,2.2,3.3,2.2,3.3,2.1,3.4,2.1,3.4,2,3.4,2,3.4,2,3.4,1.9,3.5,1.9,3.5,1.8,3.5,1.8,3.5,1.7,3.5,1.6,3.5,1.6,3.5,1.5,3.5,1.5,3.5,1.4,3.5,1.4,3.5,1.3,3.5,1.3,3.6,1.2,3.5,1.2,3.5,1.1,3.5,1.1,3.5,1,3.5,1,3.5.9,3.5.9,3.5.8,3.5.8,3.5.7,3.5.6,3.5.6,3.5.5,3.5.5,3.5.4,3.4.4,3.4.3,3.4.3,3.4.2,3.4.2,3.3.1h9.9l3.3-.1,3.2-.1,3.2-.2,3.2-.3,3.1-.3,3.1-.4,3.1-.4,3-.4,3-.5,3-.5,3-.6,2.9-.6,2.9-.7,2.8-.7,2.8-.8,2.8-.8,2.7-.9,2.7-.9,2.6-.9,2.6-1,2.6-1,2.5-1.1,2.5-1.1,2.4-1.1,2.4-1.2,2.3-1.2,2.3-1.3,2.2-1.3,2.2-1.3,2.1-1.4,2.1-1.4,2-1.4,2-1.5,1.9-1.5,1.9-1.5,1.8-1.6,1.8-1.6,1.7-1.6,1.7-1.6,1.6-1.7,1.5-1.7,1.5-1.7,1.4-1.7,1.4-1.8,1.3-1.8,1.3-1.8,1.2-1.8,1.2-1.8,1.1-1.9,1-1.9,1-1.9.9-1.9.8-1.9.8-1.9.7-2,.7-2,.6-2,.5-2,.5-2,.4-2,.3-2,.3-2,.2-2,.2-2,.1-2v-4l-.1-2-.2-2-.2-2-.3-2-.4-2-.4-2-.5-2-.5-2-.6-2-.7-2-.7-2-.8-1.9-.8-1.9-.9-1.9-1-1.9-1-1.9-1.1-1.9-1.1-1.9-1.2-1.8-1.3-1.8-1.3-1.8-1.4-1.8-1.4-1.7-1.5-1.7-1.6-1.7-1.6-1.7-1.7-1.6-1.7-1.6-1.8-1.6-1.8-1.6-1.9-1.5-1.9-1.5-2-1.5-2-1.4-2.1-1.4-2.1-1.4-2.2-1.3-2.2-1.3-2.3-1.3-2.3-1.2-2.4-1.2L591,251l-2.5-1.1-2.5-1.1-2.6-1-2.6-1-2.6-.9-2.7-.9-2.7-.9-2.8-.8-2.8-.8-2.8-.7-2.9-.7-2.9-.6-2.9-.6-3-.5-3-.5-3.1-.4-3.1-.4-3.1-.3-3.1-.3-3.2-.2-3.2-.2-3.2-.1-3.3-.1h-6.6l-3.3.1-3.4.1-3.4.2-3.4.2-3.4.3-3.4.3-3.4.4-3.4.4-3.5.5-3.5.5-3.5.6-3.5.6-3.5.7-3.5.8-3.5.8-3.5.9-3.5.9-3.5,1-3.5,1-3.6,1.1-3.5,1.1-3.5,1.2-3.5,1.2-3.5,1.3-3.5,1.3-3.5,1.4-3.5,1.4-3.5,1.5-3.5,1.6-3.5,1.6-3.5,1.6-3.5,1.7-3.5,1.8-3.5,1.8-3.5,1.9-3.4,1.9-3.4,2-3.4,2-3.4,2-3.4,2.1-3.3,2.1-3.3,2.2-3.3,2.2-3.3,2.3-3.3,2.3-3.2,2.4-3.2,2.4-3.2,2.5-3.2,2.5-3.1,2.5-3.1,2.6-3,2.6-3,2.7-3,2.7-3,2.7-2.9,2.8-2.9,2.8-2.9,2.9-2.8,2.9-2.8,2.9-2.7,3-2.7,3-2.7,3-2.6,3.1-2.6,3.1-2.5,3.1-2.5,3.1-2.5,3.2-2.4,3.2-2.4,3.2-2.3,3.3-2.3,3.3-2.2,3.3-2.2,3.3-2.2,3.3-2.1,3.4-2,3.4-2,3.4-2,3.4-1.9,3.4-1.9,3.4-1.8,3.5-1.8,3.5-1.7,3.5-1.7,3.5-1.6,3.5-1.6,3.5-1.5,3.5-1.5,3.5-1.4,3.5-1.4,3.5-1.3,3.5-1.2,3.5-1.2,3.5-1.1,3.6-1.1,3.5-1,3.5-1,3.5-.9,3.5-.9,3.5-.8,3.5-.8,3.5-.8,3.1-.7,3.5-.6,3.5-.6,3.5-.5,3.5-.4,3.5-.4,3.4-.3,3.4-.3,3.4-.2,3.3-.2,3.4-.1,3.4-.1,3.3V524l.1,3.3.1,3.2.2,3.2.2,3.2.3,3.1.3,3.1.4,3.1.4,3.1.5,3,.5,3,.6,3,.6,2.9.7,2.9.7,2.8.8,2.8.8,2.8.8,2.7.9,2.7.9,2.7,1,2.6,1,2.6,1,2.5,1.1,2.5,1.1,2.4,1.2,2.4,1.2,2.4,1.3,2.3,1.3,2.3,1.3,2.2,1.4,2.2,1.4,2.1,1.4,2.1,1.5,2,1.5,1.9,1.5,1.9,1.5,1.9,1.6,1.8,1.6,1.7,1.6,1.7,1.7,1.6,1.7,1.6,1.7,1.5,1.7,1.5,1.8,1.4,1.8,1.3,1.8,1.3,1.8,1.2,1.8,1.2,1.9,1.1,1.9,1,1.9,1,1.9.9,1.9.9,1.9.8,2,.7,2,.7,2,.6,2,.5,2,.5,2,.4,2,.4,2,.3,2,.2,2,.2,2,.1h4l2-.1,2-.1,2-.2,2-.3,2-.3,2-.4,2-.5,2-.5,2-.6,2-.6,2-.7,1.9-.8,1.9-.8,1.9-.9,1.9-1,1.9-1,1.9-1.1,1.9-1.1,1.8-1.2,1.8-1.3,1.8-1.3,1.8-1.4,1.7-1.4,1.7-1.5,1.7-1.5,1.7-1.6,1.7-1.7,1.6-1.7,1.6-1.8,1.6-1.8,1.5-1.9,1.5-1.9,1.5-2,1.4-2,1.4-2.1,1.4-2.1,1.3-2.2,1.3-2.2,1.3-2.3,1.2-2.3,1.2-2.4,1.1-2.4,1.1-2.5,1.1-2.5,1-2.6,1-2.6,1-2.6.9-2.7.9-2.7.8-2.8.8-2.8.7-2.8.7-2.9.6-2.9.6-2.9.5-3,.5-3,.5-3,.4-3.1.4-3.1.3-3.1.3-3.2.2-3.2.2-3.2.1-3.2.1-3.3v-6.6l-.1-3.3L412,509l-.2-3.4-.3-3.4-.3-3.4-.4-3.4-.4-3.4-.5-3.5-.5-3.5-.6-3.5-.6-3.5-.7-3.5-.7-3.5-.8-3.5-.8-3.5-.9-3.5-.9-3.5-1-3.5-1.1-3.5-1.1-3.5L399,443l-1.2-3.5-1.3-3.5-1.3-3.5-1.4-3.5-1.4-3.5-1.5-3.5-1.5-3.5-1.6-3.5-1.6-3.5-1.7-3.5-1.7-3.5L381,401l-1.8-3.4-1.9-3.4-1.9-3.4-2-3.4-2-3.4-2.1-3.4-2.1-3.3L365,374l-2.2-3.3-2.3-3.3-2.3-3.3-2.3-3.2-2.4-3.2-2.5-3.2-2.5-3.1-2.5-3.1-2.6-3.1-2.6-3.1-2.6-3-2.7-3-2.7-3-2.8-2.9-2.8-2.9-2.8-2.9-2.9-2.8-2.9-2.8-2.9-2.8-3-2.7-3-2.7-3-2.6-3.1-2.6-3.1-2.6-3.1-2.5-3.2-2.5-3.2-2.4-3.2-2.4-3.2-2.3-3.3-2.3-3.3-2.3-3.3-2.2-3.3-2.2-3.3-2.1-3.4-2.1-3.4-2-3.4-2-3.4-1.9-3.4-1.9-3.5-1.8-3.5-1.8-3.5-1.7-3.5-1.7-3.5-1.6-3.5-1.6-3.5-1.5-3.5-1.5-3.5-1.4-3.5-1.4-3.5-1.3-3.5-1.3-3.5-1.2-3.5-1.2-3.5-1.1-3.5-1-3.5-1-3.5-1-3.5-.9-3.5-.8-3.5-.8-3.5-.7-3.5-.7-3.5-.6-3.5-.6-3.5-.5-3.5-.5-3.4-.4-3.4-.4-3.4-.3-3.4-.3-3.4-.2-3.3-.1-3.3-.1h-6.6l-3.3.1-3.2.1-3.2.2-3.2.2-3.2.3-3.1.3-3.1.4-3.1.4-3,.5-3,.5-3,.6-2.9.6-2.9.6-2.9.7-2.8.7-2.8.8-2.8.8-2.7.9-2.7.9-2.6.9-2.6,1-2.5,1-2.5,1.1-2.5,1.1-2.4,1.2L52,253.8,49.7,255l-2.3,1.3-2.2,1.3L43,259l-2.1,1.4-2.1,1.4-2,1.5-2,1.5-1.9,1.5L31,267.8l-1.8,1.6L27.4,271l-1.7,1.6-1.6,1.6-1.6,1.7L21,277.6l-1.5,1.7-1.4,1.8-1.4,1.8-1.3,1.8-1.2,1.8L13,288.3l-1.1,1.9-1.1,1.9-1,1.9-.9,1.9L8,297.8l-.8,1.9-.8,1.9-.7,1.9-.6,2-.6,2-.5,2-.5,2-.4,2-.3,2-.3,2-.2,2-.1,2-.1,2v2l.1,2,.1,2,.2,2,.3,2,.3,2,.4,2,.4,2,.5,2,.6,2,.6,2,.7,2,.8,2,.8,1.9.9,1.9.9,1.9,1,1.9,1,1.9,1.1,1.9,1.2,1.8,1.2,1.8,1.3,1.8,1.4,1.8,1.4,1.8,1.5,1.7,1.5,1.7,1.6,1.7,1.6,1.6,1.7,1.6,1.8,1.6,1.8,1.6,1.9,1.6,1.9,1.5,2,1.5,2,1.5,2.1,1.4,2.1,1.4,2.2,1.3,2.2,1.3,2.3,1.3,2.3,1.2,2.4,1.2,2.4,1.2,2.4,1.1,2.5,1.1,2.5,1,2.6,1,2.6,1,2.7.9,2.7.9,2.8.8,2.8.8,2.8.8,2.9.7,2.9.7,2.9.6,3,.6,3,.5,3,.5,3.1.4,3.1.4,3.1.3,3.2.3,3.2.2,3.2.2,3.2.1,3.3.1h6.6l3.3-.1,3.3-.1,3.4-.2,3.4-.2,3.4-.3,3.4-.4,3.4-.4,3.5-.4,3.5-.5,3.5-.6,3.5-.6,3.5-.7,3.5-.7,3.5-.8,3.5-.8,3.5-.9,3.5-.9,3.5-1,3.5-1,3.5-1.1,3.5-1.1,3.6-1.2,3.5-1.3,3.5-1.3,3.5-1.4,3.5-1.4,3.5-1.5,3.5-1.5,3.5-1.6,3.5-1.6,3.5-1.7,3.5-1.7,3.5-1.8,3.5-1.8,3.4-1.9,3.4-1.9,3.4-2,3.4-2,3.4-2.1,3.3-2.1,3.3-2.2,3.3-2.2,3.3-2.3,3.3-2.3,3.2-2.3,3.2-2.4,3.2-2.4,3.2-2.5,3.1-2.5,3.1-2.5,3.1-2.6,3-2.6,3-2.7,3-2.7,3-2.8,2.9-2.8,2.9-2.8,2.9-2.9,2.8-2.9,2.8-2.9,2.7-3,2.7-3,2.6-3,2.6-3.1,2.6-3.1,2.5-3.1,2.5-3.1,2.4-3.2,2.4-3.2,2.4-3.2,2.3-3.3,2.3-3.3L365,276l2.2-3.3,2.1-3.3,2.1-3.4,2-3.4,2-3.4,1.9-3.4,1.9-3.4,1.8-3.5,1.8-3.5,1.7-3.5,1.7-3.5,1.6-3.5,1.6-3.5,1.5-3.5,1.5-3.5,1.4-3.5,1.4-3.5,1.3-3.5,1.3-3.5,1.2-3.5,1.2-3.6,1.1-3.5,1.1-3.6,1-3.5,1-3.5.9-3.5.9-3.5.8-3.5.8-3.5.7-3.5.6-3.5.6-3.5.5-3.5.5-3.5.4-3.4.4-3.4.3-3.4.3-3.4.2-3.4.2-3.4.1-3.3.1-3.3V123l-.1-3.3-.1-3.2-.2-3.2-.3-3.2-.3-3.1-.3-3.1-.4-3.1-.4-3.1-.5-3-.5-3-.6-3-.6-2.9-.7-2.9-.7-2.8-.8-2.8-.8-2.8-.9-2.7-.9-2.7-.9-2.6-1-2.6-1-2.6-1.1-2.5-1.1-2.5-1.1-2.4-1.2-2.4L395,49.2l-1.3-2.3-1.3-2.2-1.3-2.2-1.4-2.1-1.4-2.1-1.4-2-1.5-2-1.5-1.9-1.5-1.9-1.6-1.8-1.6-1.8-1.6-1.7L376,23.5l-1.7-1.6-1.7-1.5-1.7-1.5-1.7-1.4-1.8-1.4-1.8-1.3-1.8-1.3L362,12.3l-1.8-1.1-1.9-1.1-1.9-1-1.9-1-1.9-.9-1.9-.8-1.9-.8-2-.7-2-.7-2-.6-2-.5-2-.5-2-.4-2-.3-2-.3-2-.2-2-.1-2-.1h-4l-2,.1-2,.2-2,.2-2,.3-2,.4-2,.4-2,.5-2,.5-2,.6-2,.7-2,.7-1.9.8-1.9.8-1.9.9-1.9,1-1.9,1-1.9,1.1-1.8,1.2-1.8,1.2L284,15.1l-1.8,1.3-1.8,1.4-1.7,1.4L277,20.7l-1.7,1.6-1.7,1.6L272,25.6l-1.6,1.7-1.6,1.8-1.5,1.8-1.5,1.9-1.5,1.9-1.5,2-1.4,2.1L260,40.9l-1.4,2.2-1.3,2.2L256,47.5l-1.3,2.3-1.2,2.3-1.2,2.4-1.1,2.4-1.1,2.5L249,61.9l-1,2.6-1,2.6-.9,2.7-.9,2.7-.9,2.7-.8,2.8-.8,2.8-.7,2.8-.7,2.9-.6,2.9-.6,3-.5,3-.5,3-.4,3.1-.4,3.1-.3,3.1-.3,3.1-.2,3.2-.2,3.2-.1,3.2-.1,3.3v6.6l.1,3.3.1,3.4.2,3.4.2,3.4.3,3.4.3,3.4.4,3.4.4,3.4.5,3.5.5,3.5.6,3.5.6,3.5.7,3.5.8,3.5.8,3.5.9,3.5.9,3.5,1,3.5,1,3.5,1.1,3.6,1.1,3.5,1.2,3.6,1.2,3.5,1.3,3.5,1.3,3.5,1.4,3.5,1.5,3.5,1.5,3.5,1.6,3.5,1.6,3.5,1.7,3.5,1.7,3.5,1.8,3.5,1.8,3.5,1.9,3.4,1.9,3.4,1.9,3.4,2,3.4,2,3.4L281,269l2.1,3.3,2.2,3.3,2.2,3.3,2.3,3.3,2.3,3.3,2.4,3.2,2.4,3.2,2.5,3.2,2.5,3.1,2.5,3.1,2.6,3.1,2.6,3.1,2.7,3,2.7,3,2.7,3,2.8,2.9,2.8,2.9,2.8,2.9L329,328l2.9,2.8,3,2.8,3,2.7,3,2.7,3,2.6,3.1,2.6,3.1,2.5,3.1,2.5,3.2,2.5,3.2,2.4,3.2,2.4,3.3,2.3,3.3,2.3,3.3,2.2,3.3,2.2,3.3,2.1,3.4,2.1,3.4,2.1,3.4,2,3.4,2,3.4,1.9,3.4,1.9,3.5,1.8,3.5,1.8,3.5,1.7,3.5,1.7,3.5,1.6,3.5,1.6,3.5,1.5,3.5,1.5,3.5,1.4,3.5,1.4,3.5,1.3,3.5,1.3,3.5,1.2,3.5,1.1,3.5,1.1,3.5,1,3.5,1,3.5.9,3.5.9,3.5.8,3.5.8,3.5.7,3.5.7,3.5.6,3.5.6,3.5.5,3.5.5,3.4.4,3.4.3,3.4.3,3.4.2,3.4.2,3.4.1,3.3.1h6.6l3.3-.1,3.2-.1,3.2-.2,3.2-.2,3.2-.3,3.1-.3,3.1-.4,3.1-.4,3-.5,3-.5,3-.6,2.9-.6,2.9-.7,2.9-.7,2.8-.8,2.8-.8,2.7-.9,2.7-.9,2.7-.9,2.6-1,2.6-1,2.5-1.1,2.5-1.1L594,397l2.4-1.2,2.3-1.2,2.3-1.3,2.3-1.3,2.2-1.3,2.2-1.4,2.1-1.4,2-1.4,2-1.5,2-1.5,1.9-1.5,1.8-1.5,1.8-1.6,1.7-1.6,1.7-1.6,1.6-1.7,1.6-1.7,1.5-1.7,1.5-1.7,1.4-1.8,1.3-1.8,1.3-1.8,1.2-1.8,1.2-1.8,1.1-1.8,1-1.9,1-1.9.9-1.9.8-1.9.8-1.9.7-1.9.7-2,.6-2,.6-2,.5-2,.4-2,.4-2,.3-2,.2-2,.2-2,.1-2v-4l-.1-2-.2-2-.2-2-.3-2-.3-2-.4-2-.5-2-.5-2-.6-2-.7-2-.7-2-.8-1.9-.8-1.9-.9-1.9-.9-1.9-1-1.9-1.1-1.9-1.1-1.8-1.2-1.8-1.3-1.8-1.3-1.8-1.4-1.8-1.4-1.7-1.5-1.7-1.5-1.7-1.6-1.7-1.6-1.7-1.7-1.6-1.8-1.6-1.8-1.6-1.9-1.5-1.9-1.5-2-1.5-2-1.4-2.1-1.4-2.1-1.4-2.2-1.3-2.2-1.3-2.3-1.3-2.3-1.2L595,252l-2.4-1.1-2.5-1.1-2.5-1.1-2.5-1-2.6-1-2.6-1-2.7-.9-2.7-.9-2.8-.8-2.8-.8-2.8-.7-2.9-.7-2.9-.6-3-.6-3-.5-3-.5-3-.5-3.1-.4-3.7-.5-3.1-.3-3.2-.3-3.2-.2-3.2-.1-3.3-.1h-9.9l-3.3.1-3.4.2-3.4.2-3.4.3-3.4.3-3.4.4-3.4.4-3.5.5-3.5.5-3.5.6-3.5.6-3.5.7-3.5.7-3.5.8-3.5.8-3.5.9-3.5.9-3.5,1-3.5,1.1-3.5,1.1-3.5,1.2-3.5,1.2-3.5,1.3-3.5,1.3-3.5,1.4-3.5,1.4-3.5,1.5-3.5,1.5-3.5,1.6-3.5,1.6-3.5,1.7-3.5,1.7-3.5,1.8-3.5,1.8-3.4,1.9-3.4,1.9-3.4,2-3.4,2-3.4,2.1-3.4,2.1-3.3,2.2-3.3,2.2-3.3,2.3-3.3,2.3-3.2,2.4-3.2,2.4-3.2,2.4-3.2,2.5-3.1,2.5-3.1,2.6-3.1,2.6-3,2.7-3,2.7-3,2.7-2.9,2.8-2.9,2.8-2.9,2.8-2.8,2.9-2.8,2.9-2.8,3-2.7,3-2.7,3-2.6,3-2.6,3.1-2.6,3.1-2.5,3.1-2.5,3.2-2.4,3.2-2.4,3.2-2.3,3.2-2.3,3.3-2.3,3.3-2.2,3.3-2.2,3.3-2.1,3.4-2.1,3.4-2,3.4-2,3.4-1.9,3.4-1.9,3.4-1.8,3.5-1.8,3.5-1.7,3.5-1.7,3.5-1.6,3.5-1.6,3.5-1.5,3.5-1.5,3.5-1.4,3.5-1.4,3.5-1.3,3.5-1.3,3.5-1.2,3.5-1.2,3.6-1.1,3.5-1,3.5-1,3.5-.9,3.5-.9,3.5-.8,3.5-.8,3.5-.7,3.5-.7,3.5-.6,3.5-.6,3.5-.5,3.5-.5,3.5-.4,3.4-.4,3.4-.3,3.4-.3,3.4-.2,3.4-.1,3.3-.1,3.3v6.6l.1,3.3.1,3.2.2,3.2.2,3.2.3,3.2.3,3.1.4,3.1.4,3.1.5,3,.5,3,.6,3,.6,2.9.7,2.9.7,2.9.7,2.8.8,2.8.8,2.8.9,2.7.9,2.7,1,2.6,1,2.6,1,2.5,1.1,2.5,1.1,2.5,1.2,2.4,1.2,2.4,1.2,2.3,1.3,2.3,1.3,2.2,1.3,2.2,1.4,2.1,1.4,2.1,1.4,2,1.5,2,1.5,1.9,1.5,1.9,1.6,1.8,1.6,1.8,1.6,1.7,1.6,1.6,1.7,1.6,1.7,1.5,1.7,1.5,1.8,1.4,1.8,1.4,1.8,1.3,1.8,1.2L288,636l1.8,1.1,1.9,1.1,1.9,1,1.9.9,1.9.9,1.9.8,1.9.8,2,.7,2,.6,2,.6,2,.5,2,.5,2,.4,2,.3,2,.3,2,.2,2,.1,2,.1h2l2-.1,2-.1,2-.2,2-.2,2-.3,2-.4,2-.4,2-.5,2-.6,2-.6,2-.7,1.9-.8,1.9-.8,1.9-.9,1.9-.9,1.9-1,1.9-1,1.9-1.1,1.8-1.2,1.8-1.2,1.8-1.3,1.8-1.4,1.8-1.4,1.7-1.5,1.7-1.5,1.7-1.6,1.7-1.6,1.6-1.7,1.6-1.8,1.6-1.8,1.5-1.8,1.5-1.9,1.5-2,1.4-2,1.4-2.1,1.4-2.1,1.3-2.2,1.3-2.2,1.3-2.3,1.2-2.3,1.2-2.4,1.2-2.4,1.1-2.5,1.1-2.5,1-2.5,1-2.6,1-2.6.9-2.7.9-2.7.8-2.8.8-2.8.7-2.8.7-2.9.7-2.9.6-2.9.6-3,.5-3,.5-3,.4-3.1.4-3.1.3-3.1.3-3.2.2-3.2.2-3.2.1-3.2.1-3.3v-6.6l-.1-3.3-.1-3.3-.2-3.4-.2-3.4-.3-3.4-.4-3.4-.4-3.4-.5-3.4-.5-3.5-.6-3.5-.6-3.5-.7-3.5-.7-3.5-.8-3.5-.8-3.5-.9-3.5-.9-3.5-1-3.5-1.1-3.6-1.1-3.5-1.2-3.6-1.2-3.5-1.3-3.5-1.3-3.5-1.4-3.5-1.4-3.5-1.5-3.5-1.5-3.5-1.6-3.5-1.6-3.5-1.7-3.5-1.7-3.5-1.8-3.5-1.8-3.4-1.9-3.4-1.9-3.4-2-3.4-2-3.4-2.1-3.4-2.1-3.4-2.2-3.3-2.2-3.3-2.3-3.3-2.3-3.3-2.3-3.2-2.4-3.2-2.4-3.2-2.5-3.2-2.5-3.1-2.6-3.1-2.6-3.1-2.6-3-2.7-3-2.7-3-2.8-2.9-2.8-2.9-2.8-2.9-2.9-2.9-2.9-2.8-2.9-2.8-3-2.7-3-2.7-3-2.7-3.1-2.6-3.1-2.6-3.1-2.5-3.2-2.5-3.2-2.5-3.2-2.4-3.2-2.4-3.3-2.3-3.3-2.3-3.3-2.2-3.3-2.2-3.3-2.1-3.4-2.1-3.4-2-3.4-2-3.4-1.9-3.4-1.9-3.5-1.8-3.5-1.8-3.5-1.7-3.5-1.7-3.5-1.6-3.5-1.6-3.5-1.5-3.3-1.8-3.5-1.4-3.5-1.4-3.5-1.3-3.5-1.3-3.5-1.2-3.5-1.2-3.5-1.1-3.6-1.1-3.5-1-3.5-1-3.5-.9-3.5-.9-3.5-.8-3.5-.7-3.9-.7-3.5-.6-3.5-.6-3.5-.5-3.5-.5-3.4-.4-3.4-.4-3.4-.3-3.4-.3-3.4-.2-3.4-.2-3.3-.1-3.3-.1h-6.6l-3.3.1-3.2.2-3.2.2-3.2.2-3.1.3-3.1.4-3.1.4-3.1.4-3,.5-3,.5-2.9.6-2.9.6-2.9.7-2.8.7-2.8.8-2.8.8-2.7.9-2.7.9-2.6,1-2.6,1-2.6,1-2.5,1.1-2.5,1.1-2.4,1.1-2.4,1.2L49.2,254l-2.3,1.3-2.2,1.3-2.2,1.3-2.1,1.4-2.1,1.4-2,1.4-2,1.5-1.9,1.5-1.9,1.5-1.8,1.6-1.8,1.6-1.7,1.6L23.5,273l-1.6,1.7-1.6,1.7-1.5,1.7-1.4,1.7L16,281.6l-1.3,1.8-1.3,1.8L12.2,287l-1.1,1.8L10,290.7l-1,1.9-1,1.9-.9,1.9-.8,1.9-.8,1.9-.7,1.9-.6,2-.6,2-.5,2-.5,2-.4,2-.3,2-.3,2-.2,2-.2,2-.1,2v4l.1,2,.2,2,.2,2,.3,2,.3,2,.4,2,.5,2,.5,2,.6,2,.7,2,.7,2,.8,1.9.9,1.9.9,1.9,1,1.9,1,1.9,1.1,1.9,1.1,1.8,1.2,1.8,1.3,1.8,1.3,1.8,1.4,1.8,1.5,1.7,1.5,1.7,1.6,1.7,1.6,1.7,1.7,1.6,1.7,1.6,1.8,1.6,1.8,1.5,1.9,1.5,2,1.5,2,1.5,2.1,1.4,2.1,1.4,2.1,1.4,2.2,1.3,2.2,1.3,2.3,1.3,2.3,1.2,2.4,1.2,2.4,1.1,2.5,1.1,2.5,1.1,2.6,1,2.6,1,2.7.9,2.7.9,2.7.9,2.8.8,2.8.8,2.9.7,2.9.7,2.9.6,3,.6,3,.5,3,.5,3.1.4,3.1.4,3.1.3,3.1.3,3.2.2,3.2.2,3.2.1,3.3.1h6.6l3.3-.1,3.4-.1,3.4-.2,3.4-.2,3.4-.3,3.4-.3,3.4-.4,3.4-.4,3.5-.5,3.5-.5,3.5-.6,3.5-.6,3.5-.7,3.5-.8,3.5-.8,3.5-.9,3.5-.9,3.5-1,3.5-1,3.5-1.1,3.5-1.1,3.5-1.2,3.5-1.2,3.5-1.3,3.5-1.4,3.5-1.4,3.5-1.5,3.5-1.5,3.5-1.5,3.5-1.6,3.5-1.6,3.5-1.7,3.5-1.8,3.5-1.8,3.4-1.9,3.4-1.9,3.4-2,3.4-2,3.4-2,3.4-2.1,3.3-2.1,3.3-2.2,3.3-2.2,3.3-2.3,3.3-2.3,3.2-2.4,3.2-2.4,3.2-2.4,3.1-2.5,3.1-2.6,3.1-2.6,3-2.6,3-2.7,3-2.7,3-2.7,2.9-2.8,2.9-2.8,2.9-2.8,2.8-2.9,2.8-2.9,2.8-3,2.7-3,2.7-3,2.6-3,2.6-3.1,2.5-3.1,2.5-3.1,2.5-3.2,2.4-3.2,2.4-3.2,2.3-3.2,2.3-3.3,2.2-3.3,2.2-3.3,2.1-3.3,2.1-3.4,2.1-3.4,2-3.4,2-3.4,1.9-3.4,1.9-3.4,1.8-3.5,1.8-3.5,1.7-3.5,1.7-3.5,1.6-3.5,1.5-3.5,1.5-3.5,1.5-3.5,1.4-3.5,1.3-3.5,1.3-3.5,1.3-3.5,1.2-3.6,1.1-3.5,1.1-3.5,1-3.5,1-3.5.9-3.5.9-3.5.8-3.5.8-3.5.7-3.5.7-3.5.6-3.5.5-3.5.5-3.5.4-3.5.4-3.4.3-3.4.3-3.4.2-3.4.2-3.4.1-3.4.1-3.3v-6.6l-.1-3.3-.1-3.2-.2-3.2-.2-3.2-.3-3.2-.3-3.1-.4-3.1-.4-3.1-.5-3-.5-3-.6-3-.6-2.9-.7-2.9-.7-2.8-.4-3.1-.8-2.8-.8-2.7-.9-2.7-.9-2.7-1-2.6-1-2.6L399,59.7l-1.1-2.5-1.1-2.4-1.2-2.4-1.2-2.3-1.2-2.3-1.3-2.3-1.4-2.2-1.4-2.2L387.7,39l-1.4-2-1.5-2-1.5-2-1.5-1.9-1.6-1.8-1.6-1.8L377,25.8l-1.6-1.7-1.7-1.6L372,20.9l-1.7-1.5-1.7-1.5-1.8-1.4L365,15.2l-1.8-1.3-1.8-1.2-1.8-1.2-1.9-1.1-1.9-1-1.9-1L352,7.5l-1.9-.9-1.9-.8-1.9-.7-2-.7-2-.6-2-.5-2-.5-2-.4-2-.4-2-.3-2-.2-2-.2-2-.1h-4l-2,.1-2,.1-2,.2-2,.3-2,.3-2,.4-2,.5-2,.5-2,.6-2,.6-2,.7-1.9.8-1.9.8-1.9.9-1.9.9-1.9,1L288.9,11,287,12.1l-1.8,1.2-1.8,1.3-1.8,1.3-1.8,1.4-1.7,1.4-1.7,1.5-1.7,1.5L273,23.3l-1.7,1.6-1.6,1.7-1.6,1.8-1.6,1.8L265,32.1,263.5,34,262,36l-1.4,2-1.4,2.1-1.4,2.1-1.3,2.2-1.3,2.2-1.3,2.3-1.2,2.3-1.2,2.4L250.3,56l-1.1,2.5L248.1,61l-1,2.6-1,2.6-1,2.6-.9,2.7-.9,2.7-.8,2.8-.8,2.8-.7,2.8-.7,2.9-.6,2.9-.6,3-.5,3-.5,3-.5,3.1-.4,3.1-.3,3.1-.3,3.1-.3,3.2-.2,3.2-.2,3.2-.1,3.3v9.9l.1,3.3.2,3.4.2,3.4.3,3.4.3,3.4.4,3.4.4,3.4.5,3.5.5,3.5.6,3.5.6,3.5.7,3.5.7,3.5.8,3.5.8,3.5.9,3.5,1,3.5,1,3.5,1.1,3.5,1.1,3.6,1.2,3.5,1.2,3.5,1.3,3.5,1.3,3.5,1.4,3.5,1.4,3.5,1.5,3.5,1.5,3.5,1.6,3.5,1.6,3.5,1.7,3.5,1.7,3.5,1.8,3.5,1.8,3.4,1.9,3.4,1.9,3.4,2,3.4,2,3.4,2.1,3.4,2.1,3.4,2.2,3.3,2.2,3.3,2.3,3.3,2.3,3.3,2.4,3.2,2.4,3.2,2.4,3.2,2.5,3.1,2.5,3.1,2.6,3.1,2.6,3.1,2.7,3,2.7,3,2.7,3,2.8,2.9,2.8,2.9,2.8,2.9,2.9,2.8,2.9,2.8,2.9,2.8,3,2.7,3,2.7,3,2.7,3.1,2.6,3.1,2.6,3.1,2.5,3.2,2.5,3.2,2.4,3.2,2.4,3.2,2.4,3.3,2.3,3.3,2.3,3.3,2.2,3.3,2.2,3.3,2.1,3.4,2.1,3.4,2,3.4,2,3.4,1.9,3.4,1.9,3.5,1.8,3.5,1.8,3.5,1.7,3.5,1.7,3.5,1.6,3.5,1.6,3.5,1.5,3.5,1.5,3.5,1.4,3.5,1.4,3.5,1.3,3.5,1.3,3.5,1.2,3.5,1.2,3.6,1.1,3.5,1,3.5,1,3.5.9,3.5.9,3.5.8,3.5.8,3.5.7,3.5.7,3.5.6,3.5.6,3.5.5,3.5.5,3.4.4,3.4.4,3.4.3,3.4.2,3.4.2,3.3.1,3.3.1H522l3.3-.1,3.3-.1,3.2-.2,3.2-.2,3.2-.3,3.1-.3,3.1-.4,3.1-.4,3-.5,3-.5,3-.6,2.9-.6,2.9-.6,2.9-.7,2.8-.7,2.8-.8,2.8-.8,2.7-.9,2.7-.9,2.6-1,2.6-1,2.5-1,2.5-1.1,2.5-1.1,2.4-1.2,2.4-1.2,2.3-1.2,2.3-1.3,2.2-1.3,2.2-1.3,2.1-1.4,2.1-1.4,2-1.4,2-1.5,1.9-1.5,1.9-1.5,1.8-1.6,1.8-1.6,1.7-1.6,1.6-1.6,1.6-1.7,1.5-1.7,1.5-1.7,1.4-1.8,1.3-1.8,1.3-1.8,1.2-1.8,1.2-1.8,1.1-1.9,1.1-1.9,1-1.9.9-1.9.9-1.9.8-1.9.8-1.9.7-2,.6-2,.6-2,.5-2,.4-2,.4-2,.3-2,.3-2,.2-2,.1-2,.1-2v-2l-.1-2-.1-2-.2-2-.3-2-.3-2-.4-2-.4-2-.5-2-.6-2-.6-2-.7-2-.7-1.9-.8-1.9-.9-1.9-.9-1.9-1-1.9-1.1-1.9-1.1-1.9-1.2-1.8-1.2-1.8-1.3-1.8-1.3-1.8-1.4-1.8-1.5-1.7-1.5-1.7-1.6-1.7-1.6-1.6-1.7-1.6-1.8-1.6-1.8-1.6-1.8-1.5-1.9-1.5-2-1.5-2-1.5-2.1-1.4-2.1-1.4-2.2-1.3-2.2-1.3-2.3-1.3-2.3-1.2-2.4-1.2-2.4-1.2-2.4-1.1-2.5-1.1-2.5-1-2.6-1-2.6-1-2.7-.9-2.7-.9-2.8-.8-2.8-.8-2.8-.7-2.9-.7-2.1-.6-2.9-.6-3-.6-3-.5-3-.5-3.1-.4-3.1-.4-3.1-.3-3.1-.3-3.2-.2-3.2-.2h-3.3l-3.3-.1h-6.6l-3.3.1-3.3.1-3.4.2-3.4.3-3.4.3-3.4.4-3.4.4-3.4.5-3.5.5-3.5.6-3.5.6-3.5.7-3.5.7-3.5.8-3.5.8-3.5.9-3.5.9-3.5,1-3.5,1-3.5,1.1-3.5,1.1-3.5,1.2-3.5,1.3-3.5,1.3-4.1,1.3-3.5,1.4-3.5,1.5-3.5,1.5-3.5,1.6-3.5,1.6-3.5,1.7-3.5,1.7-3.5,1.8-3.5,1.8-3.4,1.9-3.4,1.9-3.4,2-3.4,2-3.4,2.1-3.4,2.1-3.3,2.2-3.3,2.2-3.3,2.3-3.3,2.3-3.2,2.3-3.2,2.4-3.2,2.4-3.2,2.5-3.1,2.5-3.1,2.6-3.1,2.6-3,2.6-3,2.7-3,2.7-2.9,2.8-2.9,2.8-2.9,2.8-2.8,2.9-2.8,2.9-2.8,2.9-2.7,3-2.7,3-2.7,3-2.6,3.1-2.6,3.1-2.5,3.1-2.5,3.1-2.5,3.2-2.4,3.2-2.4,3.2-2.3,3.3-2.3,3.3-2.2,3.3-2.2,3.3-2.1,3.3-2.1,3.4-2,3.4-2,3.4-1.9,3.4-1.9,3.4-1.8,3.5-1.8,3.5-1.7,3.5-1.7,3.5-1.6,3.5-1.6,3.5-1.5,3.5-1.5,3.5-1.4,3.5-1.4,3.5-1.3,3.5-1.3,3.5-1.2,3.5-1.2,3.5-1.1,3.5-1.1,3.5-1,3.5-1,3.5-.9,3.5-.8,3.5-.8,3.5-.8,3.5-.7,3.5-.6,3.5-.6,3.5-.5,3.5-.5,3.5-.4,3.5-.4,3.4-.3,3.4-.3,3.4-.2,3.4-.2,3.4-.1,3.3-.1,3.3V525l.1,3.3.1,3.2.2,3.2.3,3.2.3,3.1.4,3.1.4,3.1.5,3.1.5,3,.5,3,.6,3,.6,2.9.7,2.9.7,2.8.8,2.8.8,2.8.9,2.7.9,2.7,1,2.6,1,2.6,1,2.6,1.1,2.5,1.1,2.5,1.1,2.4,1.2,2.4,1.2,2.3,1.3,2.3,1.3,2.2,1.3,2.2,1.4,2.1,1.4,2.1,1.4,2,1.5,2,1.5,1.9,1.5,1.9,1.6,1.8,1.6,1.8,1.6,1.7,1.6,1.7,1.7,1.6,1.7,1.5,1.7,1.5,1.7,1.4,1.8,1.4,1.8,1.3,1.8,1.3,1.8,1.2,1.9,1.1,1.9,1.1,1.9,1,1.9,1,1.9.9,1.9.8,1.9.8,2,.7,2,.7,2,.6,2,.5,2,.5,2,.4,2,.3,2,.3,2,.2,2,.2,2,.1h4l2-.1,2-.2,2-.2,2-.3,2-.4,2-.4,2-.5,2-.5,2-.6,2-.7,1.9-.7,1.9-.8,1.9-.8,1.9-.9,1.9-1,1.9-1,1.9-1.1,1.8-1.1,1.8-1.2,1.8-1.3,1.8-1.3,1.8-1.4,1.7-1.4,1.7-1.5,1.7-1.6,1.7-1.6,1.6-1.7,1.6-1.7,1.6-1.8,1.5-1.8,1.5-1.9,1.5-1.9,1.5-2,1.4-2,1.4-2.1,1.4-2.2,1.3-2.2,1.3-2.2,1.3-2.3,1.2-2.3,1.2-2.4,1.1-2.4,1.1-2.5,1.1-2.5,1-2.6,1-2.6.9-2.7.9-2.7.8-2.7.8-2.8.8-2.8.7-2.8.7-2.9.6-2.9.6-3,.5-3,.5-3,.4-3.1.4-3.1.3-3.1.3-3.2.2-3.2.2-3.2.1-3.2.1-3.3v-6.6l-.1-3.3-.1-3.4-.2-3.4-.2-3.4-.3-3.4-.3-3.4-.4-3.4-.4-3.4-.5-3.5-.5-3.5-.6-3.5-.7-3.5-.7-3.5-.8-3.5-.8-3.5-.9-3.5-.9-3.5-1-3.5-1-3.5-1.1-3.5-1.1-3.6-1.2-3.5-1.2-3.5-1.3-3.5-1.3-3.5-1.4-3.5-1.5-3.5-1.5-3.5-1.5-3.5-1.6-3.5-1.7-3.5-1.7-3.5-1.8-3.5-1.8-3.5-1.9-3.4-1.9-3.4-2-3.4-2-3.4-2-3.4-2.1-3.4-2.1-3.3-2.2-3.3-2.2-3.3-2.3-3.3-2.3-3.3-2.4-3.2-2.4-3.2-2.5-3.2-2.5-3.1-2.5-3.1-2.6-3.1-2.6-3.1-2.7-3-2.7-3-2.7-3-2.8-2.9-2.8-2.9-2.9-2.9-2.9-2.8-2.9-2.8-3-2.8-3-2.7-3-2.7-3.1-2.6-3.1-2.6-3.1-2.5-3.1-2.5-3.2-2.5-3.2-2.4-3.2-2.4-3.2-2.3-3.3-2.3-3.3-2.2-3.3-2.2-3.4-2.5-3.3-2.1-3.4-2.1-3.4-2-3.4-2-3.5-1.8-3.4-1.9-3.5-1.8-3.5-1.8-3.5-1.7-3.5-1.7-3.5-1.6-3.5-1.6-3.5-1.5-3.5-1.4-3.5-1.4-3.5-1.4-3.6-1.2-3.5-1.2-3.5-1.2-3.5-1.1-3.5-1.1-3.5-1-3.5-1-3.5-.9-3.5-.9-3.5-.8-3.5-.8-3.5-.7-3.5-.6-3.5-.6-3.5-.5-3.5-.5-3.5-.4-3.4-.4-3.4-.3-3.4-.3-3.4-.2-3.4-.2-3.4-.1-3.3-.1h-6.6l-3.3.1-3.2.1-3.2.2-3.2.2-3.1.3-3.1.3-3.1.4-3.1.4-3,.5-3,.5-3,.6-2.9.6-2.9.7-2.9.7-2.8.8-2.8.8-2.7.9-2.7.9-2.6.9-2.6,1-2.6,1-2.5,1.1-2.5,1.1L55,251.6l-2.4,1.2L50.2,254l-2.3,1.3-2.3,1.3-2.2,1.3-2.1,1.4-2.1,1.4-2.1,1.4-2,1.4-2,1.5-1.9,1.5L29.4,268l-1.8,1.6-1.7,1.6-1.7,1.6-1.6,1.7L21,276.2l-1.5,1.7L18,279.6l-1.4,1.8-1.3,1.8L14,285l-1.2,1.8-1.3,1.5-1.1,1.9-1,1.9-1,1.9-.9,1.9-.9,1.9-.8,1.9-.7,2-.7,2-.6,2-.6,2-.5,2-.4,2-.4,2-.3,2-.2,2-.2,2-.1,2v4l.1,2,.1,2,.2,2,.3,2,.3,2,.4,2,.5,2,.5,2,.6,2,.6,2,.7,2,.8,1.9.8,1.9.9,1.9,1,1.9,1,1.9,1.1,1.9,1.1,1.8,1.2,1.8,1.3,1.8,1.3,1.8,1.4,1.8,1.4,1.7,1.5,1.7,1.5,1.7,1.6,1.7,1.6,1.7,1.7,1.6,1.8,1.6,1.8,1.6,1.9,1.5,1.9,1.5,2,1.5,2,1.4,2.1,1.4,2.1,1.4,2.2,1.3,2.2,1.3,2.3,1.3,2.3,1.2,2.4,1.2,2.4,1.1,2.5,1.1,2.5,1.1,2.6,1,2.6,1,2.6.9,2.7.9,2.7.9,2.8.8,2.8.8,2.8.7,2.9.7,2.9.6,3,.6,3,.5,3,.5,3,.4,3.1.4,3.1.4,3.1.3,3.2.3,3.2.2,3.2.2,3.3.1h9.9l3.3-.1,3.4-.1,3.4-.2,3.4-.3,3.4-.3,3.4-.4,3.5-.4,3.5-.5,3.5-.5,3.5-.6,3.5-.6,3.5-.7,3.5-.7,3.5-.8,3.5-.8,3.5-.9,3.5-1,3.5-1,3.5-1.1,3.5-1.1,3.5-1.2,3.5-1.2,3.5-1.3,3.5-1.3,3.5-1.4,3.5-1.4,3.5-1.5,3.5-1.5,3.5-1.6,3.5-1.6,3.5-1.7,3.5-1.7,3.5-1.8,3.4-1.8,3.4-1.9,3.4-1.9,3.4-2,3.4-2,3.4-2.1,3.4-2.1,3.3-2.2,3.3-2.2,3.3-2.3,3.3-2.3,3.2-2.4,3.2-2.4,3.2-2.5,3.2-2.5,3.1-2.5,3.1-2.6,3.1-2.6,3-2.6,3-2.7,3-2.7,2.9-2.8,2.9-2.8,2.9-2.8,2.8-2.9,2.8-2.9,2.8-2.9,2.7-3,2.7-3,2.6-3,2.6-3.1,2.6-3.1,2.5-3.1,2.5-3.2,2.4-3.2,2.4-3.2,2.3-3.2,2.3-3.3,2.3-3.3,2.2-3.3,2.2-3.3,2.1-3.4,2.1-3.4,2-3.4,2-3.4,1.9-3.4,1.9-3.4,1.8-3.5,1.8-3.5,1.7-3.5,1.7-3.5,1.6-3.5,1.6-3.5,1.5-3.5,1.5-3.5,1.4-3.5,1.4-3.5,1.3-3.5,1.3-3.6,1.2-3.5,1.2-3.6,1.1-3.5,1-3.5,1-3.5.9-3.5.9-3.5.8-3.5.8-3.5.7-3.5.7-3.5.6-3.5.6-3.5.5-3.5.5-3.5.4-3.4.3-3.4.3-3.4.3-3.4.2-3.4.2-3.3.1-3.3v-6.6l-.1-3.3-.1-3.2-.2-3.2-.2-3.2-.3-3.2-.3-3.1-.4-3.1-.4-3.1-.5-3-.5-3-.6-3-.6-2.9-.7-2.9-.7-2.9-.7-2.8-.8-2.8-.8-2.8-.9-2.7-.9-2.7-1-2.6-1-2.6L399,61l-1.1-2.5L396.8,56l-1.2-2.4-1.2-2.4-1.2-2.3-1.3-2.3-1.3-2.2-1.3-2.2-1.4-2.1L386.5,38l-1.4-2-1.5-2-1.5-1.9-1.5-1.9L379,28.4l-1.6-1.8-1.6-1.7-1.6-1.6-1.7-1.6-1.7-1.5-1.7-1.5-1.8-1.4-1.8-1.4-1.8-1.3-1.8-1.2-1.8-1.2-1.8-1.1L356.4,10l-1.9-1-1.9-.9-1.9-.9-1.9-.8-1.9-.8-2-.7-2-.6-2-.6-2-.5-2-.4-2-.4-2-.3-2-.3-2-.2-2-.1-2-.1h-2l-2,.1-2,.1-2,.2-2,.3-2,.3-2,.4-2,.4-2,.5-2,.6-2,.6-2,.7-1.9.8-1.9.8-1.9.9-1.9.9-1.9,1-1.9,1-1.9,1.1-1.8,1.2L284,14.5l-1.8,1.3-1.8,1.4-1.8,1.4-1.7,1.5-1.7,1.5-1.7,1.6-1.7,1.6-1.6,1.7-1.6,1.8L267,30.1l-1.5,1.8L264,33.8l-1.5,2-1.4,2-1.4,2.1L258.3,42,257,44.2l-1.3,2.2-1.3,2.3L253.2,51,252,53.4l-1.2,2.4-1.1,2.5-1.1,2.5-1,2.5-1,2.6-1,2.6-.9,2.7-.9,2.7-.8,2.8-.8,2.8-.8,2.8-.7,2.9-.7,2.9-.6,2.9-.6,3-.5,3-.5,3-.4,3.1-.4,3.1-.3,3.1-.3,3.2-.2,3.2-.2,3.2-.1,3.2-.1,3.3V132l.1,3.3.1,3.4.2,3.4.2,3.4.3,3.4.3,3.4.4,3.4.5,3.5.5,3.5.6,3.5.6,3.5.7,3.5.7,3.5.8,3.5.8,3.5.9,3.5.9,3.5,1,3.5,1,3.5,1.1,3.6,1.2,3.5,1.2,3.5,1.3,3.5,1.3,3.5,1.4,3.5,1.4,3.5,1.5,3.5,1.5,3.5,1.6,3.5,1.6,3.5,1.7,3.5,1.7,3.5,1.8,3.5,1.8,3.5,1.9,3.4,1.9,3.4,2,3.4,2,3.4,2.1,3.4,2.1,3.4,2.2,3.3,2.2,3.3,2.3,3.3,2.3,3.3,2.3,3.2,2.4,3.2,2.4,3.2,2.5,3.2,2.5,3.1,2.6,3.1,2.6,3.1,2.6,3,2.7,3,2.7,3,2.8,2.9,2.8,2.9,2.8,2.9,2.9,2.8,2.9,2.8,2.9,2.8,3,2.7,3,2.7,3,2.6,3.1,2.6,3.1,2.6,3.1,2.5,3.2,2.5,3.2,2.5,3.2,2.4,3.2,2.4,3.3,2.3,3.3,2.3,3.3,2.2,3.3,2.2,3.3,2.1,3.4,2.1,3.4,2,3.4,2,3.4,1.9,3.4,1.9,3.4,1.9,3.5,1.8,3.5,1.7,3.5,1.7,3.5,1.6,3.5,1.6,3.5,1.5,3.5,1.5,3.5,1.4,3.5,1.4,3.5,1.3,3.5,1.3,3.5,1.2,3.5,1.2,3.5,1.1,3.5,1.1,3.5,1,3.5,1,3.5.9,3.5.9,3.5.8,3.5.7,3.5.7,3.5.6,3.5.6,3.5.5,3.5.5,3.5.4,3.4.4,3.4.3,3.4.3,3.4.2,3.4.2,3.3.1,3.3.1h6.6l3.2-.1,3.2-.1,3.2-.2,3.2-.3,3.1-.3,3.1-.3,3.1-.4,3.1-.4,3-.5,3-.5,2.9-.6,2.9-.6,2.9-.7,2.8-.7,2.8-.8,2.8-.8,2.7-.9,2.7-.9,2.6-.9,2.6-1,2.6-1,2.5-1.1,2.5-1.1,2.4-1.1,2.4-1.2,2.3-1.2,2.3-1.3,2.2-1.3,2.2-1.3,2.1-1.4,2.1-1.4,2-1.4,2-1.5,1.9-1.5,1.9-1.5,1.8-1.6,1.8-1.6,1.7-1.6,1.7-1.6,1.6-1.7L627,372l1.5-1.7,1.4-1.7,1.4-1.8,1.3-1.8,1.3-1.8,1.2-1.8,1.1-1.9,1.1-1.9,1-1.9,1-1.9.9-1.9.8-1.9.8-1.9.7-2,.6-2,.6-2,.5-2,.5-2,.4-2,.3-2,.3-2,.2-2,.2-2,.1-2v-4l-.1-2-.2-2-.2-2-.3-2-.4-2-.4-2-.5-2-.5-2-.6-2-.7-2-.7-2-.8-1.9-.9-1.9-.9-1.9-1-1.9-1-1.9-1.1-1.9-1.2-1.8-1.2-1.8-1.3-1.8-1.3-1.8-1.4-1.8-1.4-1.7-1.5-1.7-1.6-1.7-1.6-1.7-1.7-1.6-1.7-1.6-1.8-1.6-1.8-1.5-1.9-1.5-2-1.5-2-1.4-2-1.4-2.1-1.4-2.1-1.4-2.2-1.3-2.2-1.3-2.3-1.3-2.3-1.2-2.4-1.2-2.4-1.1-2.5-1.1-2.5-1.1-2.6-1-2.6-1-2.6-.9-2.2-1.2-2.7-.9-2.8-.8-2.8-.8-2.8-.7-2.9-.7-2.9-.6-3-.6-3-.5-3-.5-3.1-.4-3.1-.4-3.1-.3-3.2-.3-3.2-.2-3.2-.2-3.2-.1-3.3-.1h-6.6l-3.3.1-3.4.1-3.4.2-3.4.2-3.4.3-3.4.3-3.4.4-3.4.4-3.5.5-3.5.5-3.5.6-3.5.6-3.5.7-3.5.8-3.5.8-3.5.9-3.5.9-3.5,1-3.5,1-3.6,1.1-3.5,1.1-3.5,1.2-3.5,1.2-3.5,1.3-3.5,1.4-3.5,1.4-3.5,1.4-3.5,1.5-3.5,1.5-3.5,1.6-3.5,1.7-3.5,1.7-3.5,1.8-3.5,1.8-3.4,1.9-3.4,1.9-3.4,2-3.4,2-3.4,2.1-3.4,2.1-3.3,2.2-3.3,2.2-3.3,2.2-3.3,2.3-3.3,2.3-3.2,2.4-3.2,2.4-3.2,2.5-3.1,2.5-3.1,2.6-3.1,2.6-3,2.6-3,2.7-3,2.7-3,2.7-2.9,2.8-2.9,2.8-2.8,2.9-2.8,2.9-2.8,2.9-2.8,3-2.7,3-2.7,3-2.6,3.1-2.6,3.1-2.6,3.1-2.5,3.1-2.5,3.2-2.4,3.2-2.4,3.2-2.3,3.3L287,369l-2.2,3.3-2.2,3.3-2.1,3.3-2.1,3.4-2,3.4-2,3.4-2,3.4-1.9,3.4-1.9,3.4-1.8,3.5-1.8,3.5-1.7,3.5-1.7,3.5-1.6,3.5-1.6,3.5-1.5,3.5-1.4,3.5-1.4,3.5-1.3,3.5-1.3,3.5-1.2,3.5-1.2,3.5-1.1,3.6-1.1,3.5-1,3.6-1,3.5-.9,3.5-.9,3.5-.8,3.5-.8,3.5-.7,3.5-.6,3.5-.6,3.5-.5,3.5-.5,3.5-.4,3.5-.4,3.4-.3,3.4-.3,3.4-.2,3.4-.2,3.4-.1,3.3-.1,3.3v6.6l.1,3.3.1,3.2.2,3.2.2,3.2.3,3.2.3,3.1.4,3.1.4,3.1.5,3,.5,3,.6,3,.6,2.9.7,2.9.7,2.9.8,2.8.8,2.8.8,2.7.9,2.7.9,2.7,1,2.6,1,2.6,1,2.5,1.1,2.5,1.1,2.4,1.2,2.4,1.2,2.3,1.3,2.3,1.3,2.3,1.3,2.2,1.4,2.2,1.4,2.1,1.4,2,1.5,2,1.5,1.9,1.5,1.9,1.6,1.8,1.6,1.8,1.6,1.7,1.6,1.7,1.7,1.6,1.7,1.6,1.7,1.5,1.7,1.5,1.8,1.4,1.8,1.3,1.8,1.3,1.8,1.2,1.8,1.2,1.9,1.1,1.9,1,1.9,1,1.9.9,1.9.9,1.9.8,2,.7,2,.7,2,.6,2,.6,2,.5,2,.4,2,.4,2,.3,2,.2,2,.2,2,.1h4l2-.1,2-.1,2-.2,2-.3,2-.3,2-.4,2-.5,2-.5,2-.6,2-.6,2-.7,1.9-.8,1.9-.8,1.9-.9,1.9-1,1.9-1,1.9-1.1,1.9-1.1,1.8-1.2,1.8-1.3,1.8-1.3,1.8-1.4,1.7-1.4,1.7-1.5,1.7-1.6,1.7-1.6,1.7-1.7,1.6-1.7,1.6-1.8,1.6-1.8,1.5-1.9,1.5-1.9,1.5-2,1.4-2,1.4-2.1,1.4-2.1,1.3-2.2,1.3-2.2,1.3-2.3,1.2-2.3,1.2-2.4,1.1-2.4,1.1-2.5,1.1-2.5,1-2.6,1-2.6,1-2.6.9-2.7.9-2.7.8-2.8.8-2.8.7-2.8.7-2.9.6-2.9.6-2.9.5-3,.5-3,.5-3.1.4-3.1.3-3.1.3-3.1.3-3.2.2-3.2.1-3.2.1-3.2v-9.9l-.1-3.3-.2-3.4-.2-3.4-.3-3.4-.3-3.4-.4-3.4-.4-3.5-1.1-3.6-.5-3.5-.6-3.5-.6-3.5-.7-3.5-.7-3.5-.9-3.5-.9-3.5-.9-3.5-1-3.5-1-3.5-1.1-3.5-1.1-3.5-1.2-3.5-1.2-3.5-1.3-3.5-1.3-3.5-1.4-3.5-1.4-3.5-1.5-3.5-1.5-3.5-1.6-3.5-1.6-3.5-1.7-3.5-1.7-3.5-1.8-3.5-1.8-3.4-1.9-3.4-1.9-3.4-2-3.4-2-3.4-2.1-3.4-2.1-3.3-2.2-3.3-2.2-3.3-2.3-3.3-2.3-3.3-2.4-3.2-2.4-3.2-2.4-3.2-2.5-3.1-2.5-3.1-2.6-3.1-2.6-3.1-2.7-3-2.7-3-2.7-3-2.8-2.9-2.8-2.9-2.8-2.9-2.9-2.8-2.9-2.8-3-2.8-3-2.7-3-2.7-3-2.6-3.1-2.6-3.1-2.6-3.1-2.5-3.2-2.5-3.2-2.4-3.2-2.4-3.2-2.4-3.3-2.3-3.3-2.3-3.3-2.2-3.3-2.2-3.4-2.1-3.4-2.1-3.4-2-3.4-2-3.4-1.9-3.4-1.9-3.5-1.8-3.5-1.8-3.5-1.7-3.5-1.7-3.5-1.6-3.5-1.6-3.5-1.5-3.5-1.5-3.5-1.4-3.5-1.4-3.5-1.3-3.5-1.3-3.5-1.2-3.5-1.2-3.5-1.1-3.5-1.1-3.5-1-3.5-.9-3.5-.9-3.5-.8-3.5-.8-3.5-.7-3.5-.7-3.5-.6-3.5-.6-3.5-.5-3.5-.5-3.4-.4-3.4-.4-3.4-.3-3.4-.2-3.4-.2-3.3-.1-3.3-.1h-6.6l-3.3.1-3.2.1-3.2.2-3.2.2-3.2.3-3.1.3-3.1.4-3.1.4-3,.5-3,.5-3,.6-2.9.6-2.9.6-2.9.7-2.8.7-2.8.8-2.8.8-2.7.9-2.7.9-2.6,1-2.6,1-2.5,1-2.5,1.1-2.4,1.1-2.4,1.2-2.4,1.2-2.3,1.2-2.3,1.3-2.2,1.3-2.2,1.3L40,260.2l-2.5,1.1-2,1.5-2,1.5-1.9,1.5-1.9,1.5-1.8,1.6-1.8,1.6-1.7,1.6-1.6,1.7-1.6,1.7-1.5,1.7-1.5,1.7-1.4,1.8-1.3,1.6-1.3,1.8L13,285.9l-1.2,1.8-1.1,1.9-1.1,1.9-1,1.9-.9,1.9-.9,1.9L6,299.1l-.8,2-.7,2-.6,2-.6,2-.5,2-.4,2-.4,2-.3,2-.3,2-.2,2-.1,2-.1,2v2l.1,2,.1,2,.2,2,.3,2,.3,2,.4,2,.4,2,.5,2,.6,2,.6,2,.7,2L6,349l.8,1.9.9,1.9.9,1.9,1,1.9,1.1,1.9,1.1,1.9,1.2,1.8,1.2,1.8,1.3,1.8,1.4,1.8,1.4,1.8,1.5,1.7,1.5,1.7,1.6,1.7,1.6,1.6,1.7,1.6,1.8,1.6,1.8,1.6,1.9,1.5,1.9,1.5,2,1.5,2,1.4,2.1,1.4,2.1,1.4L44,391l2.2,1.3,2.3,1.3,2.3,1.2,2.4,1.2,2.4,1.2,2.5,1.1,2.5,1.1,2.5,1,2.6,1,2.6,1,2.7.9,2.7.9,2.8.8,2.8.8,2.8.7,2.9.7,2.9.6,2.9.6,3,.5,3,.5,3,.5,3.1.4,3.1.4,3.1.3,3.2.3,3.2.2,3.2.2,3.2.1,3.3.1h6.6l3.3-.1,3.4-.1,3.4-.2,3.4-.3,3.4-.3,3.4-.4,3.4-.4,3.5-.5,3.5-.5,3.5-.6,3.5-.6,3.5-.7,3.5-.7,3.5-.8,3.5-.8,3.5-.9,3.5-.9,3.5-1,3.5-1L201,400l3.5-1.2,3.5-1.2,3.5-1.3L215,395l3.5-1.4,3.5-1.4,3.5-1.5,3.5-1.5,3.5-1.6L236,386l3.5-1.7,3.5-1.7,3.5-1.8L250,379l3.4-1.9,3.4-1.9,3.4-2,3.4-2,3.4-2.1,3.4-2.1,3.3-2.2,3.3-2.2,3.3-2.3,3.3-2.3,3.2-2.4,3.2-2.4,3.2-2.4,3.2-2.5,3.1-2.5,3.1-2.6,3.1-2.6,3.1-2.6,3-2.7,3-2.7,3-2.8,2.9-2.8,2.9-2.8,2.8-2.9,2.8-2.9,2.8-2.9,2.7-3,2.7-3,2.6-3,2.6-3.1,2.6-3.1,2.5-3.1,2.5-3.1,2.4-3.2,2.4-3.2,2.4-3.2,2.3-3.3,2.3-3.3,2.2-3.3,2.2-3.3,2.1-3.3,2.1-3.4,2-3.4,2-3.4,1.9-3.4,1.9-3.4,1.8-3.4,1.8-3.5,1.7-3.5,1.7-3.5,1.6-3.5,1.6-3.5,1.5-3.5,1.5-3.5,1.4-3.5,1.4-3.5,1.3-3.5,1.3-3.5,1.2-3.5,1.2-3.6,1.1-3.5,1.1-3.6,1-3.5,1-3.5.9-3.5.9-3.5.8-3.5.7-3.5.7-3.5.6-3.5.6-3.5.5-3.5.5-3.5.4-3.4.4-3.4.3-3.4.3-3.4.2-3.4.2-3.4.1-3.4.1-3.3v-6.6l-.1-3.3-.1-3.2-.2-3.2-.3-3.2-.3-3.1-.4-3.1-.4-3.1-.4-3.1-.5-3-.5-3-.6-3-.6-2.9-.7-2.9-.7-2.8-.8-2.8-.8-2.8-.9-2.7-.9-2.7-.9-2.7-1-2.6-1-2.6-1.1-2.5-1.1-2.1-1.2-2.4-1.2-2.4-1.2-2.3-1.3-2.3-1.3-2.2L390,42.5l-1.4-2.1-1.4-2.1-1.4-2-1.5-2-1.5-1.9-1.5-1.9-1.6-1.8-1.6-1.8-1.6-1.7-1.6-1.7-1.7-1.6-1.7-1.6-1.7-1.5L368,17.4,366.2,16l-1.8-1.3-1.8-1.3-1.8-1.2L359,11.1,357.1,10l-1.9-1-1.9-1-1.9-.9-1.9-.8-1.9-.8-2-.7-2-.7-2-.6-2-.5-2-.5-2-.4-2-.3-2-.3-2-.2-2-.2-2-.1h-4l-2,.1-2,.2-2,.2-2,.3-2,.4-2,.4-2,.5-2,.5-2,.6-2,.7-1.9.7-1.9.8-1.9.8-1.9.9-1.9,1-1.9,1-1.9,1.1-1.8,1.2-1.8,1.2-1.8,1.3-1.8,1.3-1.8,1.4L277.6,19l-1.7,1.5-1.7,1.6-1.7,1.6-1.6,1.7-1.6,1.7-1.6,1.8-1.5,1.8-1.5,1.9-1.5,1.9-1.5,2-1.4,2-1.4,2.1-1.4,2.1-1.3,2.2-1.3,2.3-1.3,2.3-1.2,2.3-1.2,2.4-1.1,2.4L249,59.1l-1,2.5-1,2.6-1,2.6-.9,2.7-.9,2.7-.8,2.7-.8,2.8-.8,2.8-.7,2.8-.7,2.9-.6,2.9-.6,3-.5,3-.5,3-.4,3.1-.4,3.1-.3,3.1-.3,3.2-.2,3.2-.2,3.2-.1,3.2-.1,3.3v6.6l.1,3.3.1,3.4.2,3.4.2,3.4.3,3.4.3,3.4.4,3.4.4,3.4.5,3.5.5,3.5.6,3.5.6,3.5.7,3.5.8,3.5.8,3.5.9,3.5.9,3.5,1,3.5,1,3.6,1.1,3.5,1.1,3.5,1.2,3.5,1.2,3.5,1.3,3.5,1.4,3.5,1.4,3.5,1.5,3.5,1.5,3.5,1.6,3.5,1.6,3.5,1.7,3.5,1.7,3.5,1.8,3.5,1.8,3.5,1.9,3.4,1.9,3.4,2,3.4,2,3.4,2,3.4,2.1,3.4,2.1,3.3,2.2,3.3,2.2,3.3,2.3,3.3,2.3,3.3,2.4,3.2,2.4,3.2,2.5,3.2,2.5,3.1,2.5,3.1,2.6,3.1,2.6,3,2.7,3,2.7,3L317,316l2.8,2.9,2.8,2.9,2.8,2.9,2.9,2.8,2.9,2.8,3,2.7,3,2.7,3,2.7,3.1,2.6,3.1,2.6,3.1,2.5,3.1,2.5,3.2,2.5,3.2,2.4,3.2,2.4,3.3,2.3,3.3,2.3,3.3,2.2,3.3,2.2,3.3,2.1,3.4,2.1,3.4,2.1,3.4,2,3.4,2,3.4,1.9,3.4,1.9,3.5,1.8,3.5,1.8,3.5,1.7,3.5,1.7,3.5,1.6,3.5,1.6,3.5,1.5,3.5,1.5,3.5,1.4,3.5,1.4,3.5,1.3,3.5,1.2,3.5,1.2,3.5,1.1,3.5,1.1,3.5,1,3.5,1,3.5.9,3.5.9,3.5.8,3.5.8,3.5.7,3.5.7,3.5.6,3.5.5,3.5.5,3.5.4,3.4.4,3.4.3,3.4.3,3.4.2,3.4.2,3.3.1,3.3.1h6.6l3.3-.1,3.2-.1,3.2-.2,3.2-.2,3.2-.3,3.1-.3,3.1-.4,3.1-.4,3-.5,3-.5,3-.6,2.9-.6,2.9-.7,2.9-.7,2.8-.8,2.8-.8,2.7-.9,2.7-.9,2.7-.9,2.6-1,2.6-1,2.5-1.1,2.5-1.1,2.4-1.1,2.4-1.2,2.3-1.2,2.3-1.3,2.3-1.3,2.2-1.3,2.1-1.4,2.1-1.4,2-1.4,2-1.5,2-1.5,1.9-1.5,1.8-1.5,1.8-1.6,1.7-1.6,1.7-1.6,1.6-1.7,1.6-1.7,1.5-1.7L630,368l1.4-1.8,1.3-1.8,1.3-1.8,1.2-1.8,1.2-1.8,1.1-1.9,1-1.9,1-1.9.9-1.9.8-1.9.8-1.9.7-2,.7-2,.6-2,.6-2,.5-2,.4-2,.3-2,.3-2,.2-2,.2-2,.1-2v-4l-.1-2-.2-2-.2-2-.3-2-.3-2-.4-2-.5-2-.5-2-.6-2-.6-2-.7-2-.8-1.9-.8-1.9-.9-1.9-1-1.9-1-1.9-1.1-1.9-1.1-1.9-1.2-1.8-1.3-1.8-1.3-1.8-1.4-1.8-1.4-1.7-1.5-1.7-1.5-1.7-1.6-1.7-1.7-1.6-1.7-1.6-1.8-1.6-1.8-1.6-1.9-1.5-1.9-1.5-2-1.5-2-1.4-2.1-1.4-2.1-1.4-2.2-1.3-2.2-1.3-2.3-1.3-2.3-1.2-2.4-1.2-2.4-1.1-2.5-1.1-2.5-1.1-2.5-1-2.6-1-2.6-1-2.7-.9-2.7-.9-2.8-.8-2.8-.8-2.8-.7-2.9-.7-2.9-.6-3-.6-3-.6-3-.5-3-.5-3.1-.4-3.1-.4-3.1-.3-3.2-.3-3.2-.2-3,.9-3.3-.1h-6.6l-3.3.1-3.3.1-3.4.2-3.4.2-3.4.3-3.3.2-3.4.4-3.4.4-3.5.5-3.5.5-3.5.6-3.5.6-3.5.7-3.5.7-3.5.8-3.5.8-3.5.9-3.5,1-3.5,1-3.7,1.1-3.5,1.1-3.5,1.2-3.5,1.2-3.5,1.3-3.5,1.3-3.5,1.4-3.5,1.4-3.5,1.5-3.5,1.5-3.5,1.6-3.5,1.6-3.5,1.7-3.5,1.7-3.5,1.8-3.5,1.8-3.4,1.9-3.4,1.9-3.4,2-3.4,2-3.4,2.1-3.4,2.1-3.3,2.2-3.3,2.2-3.5,2.5-3.3,2.3L360,293l-3.2,2.4-3.2,2.5-3.1,2.4-3.1,2.5-3.1,2.6-3.1,2.6-3,2.7-3,2.7-3,2.7-2.9,2.8-2.9,2.8-2.9,2.8-2.8,2.9-2.8,2.9-2.8,3-2.7,3-2.7,3-2.6,3-2.6,3.1-2.5,3.1-2.5,3.1-2.5,3.2-2.4,3.2-2.4,3.2-2.3,3.2-2.3,3.3-2.3,3.3-2.2,3.3-2.2,3.3-2.1,3.4-2.1,3.4-2,3.4-2,3.4-1.9,3.4-1.9,3.4-1.8,3.5-1.8,3.5-1.7,3.5-1.7,3.5-1.6,3.5-1.6,3.5-1.5,3.5-1.5,3.5-1.4,3.5-1.4,3.5-1.3,3.5-1.3,3.5-1.2,3.5-1.2,3.5-1.1,3.5-1,3.5-1,3.5-.9,3.5-.9,3.5-.8,3.5-.8,3.5-.7,3.5-.7,3.5-.6,3.5-.6,3.5-.5,3.5-.5,3.5-.3,3.8-.3,3.4-.3,3.4-.3,3.4-.2,3.4-.1,3.3-.1,3.3v6.6l.1,3.3.1,3.2.2,3.2.2,3.2.3,3.2.3,3.1.4,3.1.4,3.1.5,3,.5,3,.6,3,.6,2.9.7,2.9.7,2.9.8,2.8.8,2.8.8,2.8.9,2.7.9,2.7,1,2.6,1,2.6,1,2.5,1.1,2.5,1.1,2.5,1.2,2.4,1.2,2.4,1.2,2.3,1.3,2.3,1.3,2.2,1.4,2.2,1.4,2.1,1.4,2.1,1.5,2,1.5,2,1.5,1.9,1.5,1.9,1.6,1.8,1.6,1.7,1.6,1.7,1.6,1.6,1.7,1.6,1.7,1.5,1.7,1.5,1.8,1.4,1.8,1.4,1.8,1.3,1.8,1.2,1.8,1.2,1.9,1.1,1.9,1.1,1.9,1,1.9.9,1.9.9,1.9.8,1.9.8,2,.7,2,.6,2,.6,2,.5,2,.4,2,.4,2,.3,2,.3,2,.2,2,.1,2,.1h2l2-.1,2-.1,2-.2,2-.3,2-.3,2-.4,2-.4,2-.5,2-.6,2-.6,2-.7,1.9-.8,1.9-.8,1.9-.9,1.9-.9,1.9-1,1.9-1.1,1.9-1.1,1.8-1.2,1.8-1.2,1.8-1.3,1.8-1.3,1.8-1.4,1.7-1.5,1.7-1.5,1.7-1.6,1.7-1.6,1.6-1.7,1.6-1.8,1.6-1.8,1.5-1.8,1.5-1.9,1.5-2,1.4-2,1.4-2.1,1.4-2.1,1.3-2.2,1.3-2.2,1.3-2.3,1.2-2.3,1.2-2.4,1.2-2.4,1.1-2.4,1.1-2.5,1-2.5,1-2.6,1-2.6.9-2.7.9-2.7.8-2.8.8-2.8.7-2.8.7-2.9.6-2.9.6-2.9.5-3,.5-3,.5-3,.4-3.1.4-3.1.3-3.1.3-3.2.2-3.2.2-3.2.1-3.2.1-3.3v-6.6l-.1-3.3L412,510l-.2-3.4-.2-3.4-.3-3.4-.3-3.4-.4-3.4-.5-3.5-.5-3.5-.6-3.5-.6-3.5-.7-3.5L407,472l-.8-3.5-.8-3.5-.9-3.5-.9-3.5-1-3.6-1-3.5-1.1-3.5-1.2-3.6-1.2-3.5-1.3-3.6-1.3-3.5-1.4-3.5-1.4-3.5-1.5-3.5-1.5-3.5-1.6-3.5-1.6-3.5-1.7-3.5-1.7-3.5-1.8-3.5-1.8-3.4-1.9-3.4-1.9-3.4-2-3.4-2-3.4-2.1-3.4-2.1-3.4-2.2-3.3-2.2-3.3-2.3-3.3-2.3-3.3-2.3-3.2-2.4-3.2-2.4-3.2-2.5-3.2-2.5-3.1-2.9-3.5-2.6-3.1-2.6-3-2.7-3-2.7-3-2.8-3-2.8-2.9-2.8-2.9-2.9-2.8-2.9-2.8-2.9-2.8-3-2.7-3-2.7-3-2.7-3.1-2.6-3.1-2.6-3.1-2.4-3.1-2.5-3.2-2.5-3.2-2.4-3.2-2.4-3.3-2.2-3.3-2.3-3.3-2.2-3.3-2.2-3.3-2.1-3.4-2.1-3.4-2-3.4-2-3.4-1.9-3.4-1.9-3.5-1.8-3.5-1.8-3.5-1.7-3.5-1.7-3.5-1.6-3.5-1.6-3.5-1.5-3.5-1.5-3.5-1.4-3.5-1.4-3.5-1.3-3.5-1.3-3.6-1.2-3.5-1.2-3.7-1.3-3.5-1.1-3.5-1-3.5-.9-3.5-.9-3.5-.9-3.5-.8-3.5-.8-3.5-.7-3.5-.6-3.5-.6-3.5-.5-3.5-.5-3.5-.4-3.5-.3-3.4-.3-3.4-.3-3.4-.2-3.4-.2-3.3-.1-3.3-.1h-6.6l-3.2.2-3.2.1-3.2.2-3.2.3-3.1.3-3.1.4-3.1.4-3.1.4-3,.5-3,.5-3,.6-2.9.6-2.9.7-2.8.7-2.8.8-2.8.8-2.7.9-2.7.9-2.6.9-2.6,1-2.6,1-2.5,1.1-2.5,1.1-2.4,1.1-2.4,1.2L49,254l-2.3,1.3-2.2,1.3-2.2,1.3-2.1,1.4-2.1,1.4-2,1.4-2,1.5-1.9,1.5-1.9,1.5-1.8,1.7-1.8,1.6L25,271.5l-1.6,1.6-1.6,1.7-1.5,1.7-1.5,1.7L17.4,280,16,281.8l-1.3,1.8-1.3,1.8-1.2,1.8-1.1,1.9L10,291l-1,1.9-1,1.9-.9,1.9-.8,1.9-.8,1.9-.7,2-.6,2-.6,2-.5,2-.5,2-.4,2-.3,2-.3,2-.2,2-.1,2-.1,2v4l.1,2,.2,2,.2,2,.3,2,.4,2,.4,2,.5,2,.5,2,.6,2,.7,2,.7,1.9.8,1.9.9,1.9.9,1.9,1,1.9,1,1.9,1.1,1.9,1.2,1.8,1.2,1.8,1.3,1.8,1.3,1.8,1.4,1.8,1.4,1.7,1.5,1.7,1.6,1.7,1.6,1.7,1.7,1.6,1.7,1.6,1.8,1.6,1.8,1.5,1.9,1.5,1.9,1.5,2,1.5,2,1.4,2.1,1.4,2.1,1.4,2.2,1.3,2.3,1.3,2.3,1.3,2.4,1.2,2.4,1.2L57,398l2.5,1.1,2.5,1,2.6,1,2.6,1,2.7.9,2.7.9,2.7.9,2.8.8,2.8.8,2.9.7,2.9.7,2.9.6,3,.6,3,.5,3,.5,3.1.4,3.1.4,3.1.3,3.1.3,3.2.2,3.2.2,3.2.1,3.3.1h6.6l3.3-.1,3.3-.1,3.4-.2,3.4-.2,3.4-.3,3.4-.3,3.4-.4,3.5-.4,3.5-.5,3.5-.6,3.5-.6,3.5-.7,3.5-.7,3.5-.8,3.5-.8,3.5-.9,3.5-.9,3.5-1,3.5-1,3.5-1.1,3.5-1.1,3.5-1.2,3.5-1.2,3.5-1.3,3.5-1.3,3.5-1.4,3.5-1.5,3.5-1.5,3.5-1.6,3.5-1.6,3.5-1.7,3.5-1.7,3.5-1.8,3.5-1.8,3.4-1.9,3.4-1.9,3.4-2,3.4-2,3.4-2,3.4-2.1,3.3-2.1,3.3-2.2,3.3-2.2,3.3-2.3,3.2-2.3,3.2-2.4,3.2-2.4,3.2-2.5,3.1-2.5,3.1-2.5,3.1-2.6,3-2.6,3-2.7,3-2.7,3-2.8,2.9-2.8,2.9-2.8,2.9-2.9,2.8-2.9,2.8-2.9,2.7-3,2.7-3,2.7-3,2.6-3,2.6-3.1,2.5-3.1,2.5-3.1,2.5-3.2,2.4-3.2,2.4-3.2,2.3-3.2,2.3-3.3L363,276l2.2-3.3,2.2-3.3,2.1-3.4,2.1-3.4,2-3.4,1.9-3.4,1.9-3.4,1.8-3.4,1.8-3.5,1.8-3.5,1.7-3.5,1.6-3.5,1.6-3.5,1.5-3.5,1.5-3.5,1.4-3.5,1.4-3.5,1.4-3.5,1.3-3.5,1.2-3.6,1.2-3.5,1.1-3.6,1.1-3.5,1-3.5,1-3.5.9-3.5.9-3.5.8-3.5.8-3.5.7-3.5.7-3.5.6-3.5.5-3.5.5-3.5.4-3.4.4-3.4.3-3.4.3-3.4.2-3.4.2-3.4.1-3.3.1-3.3v-6.6l-.1-3.3-.1-3.2-.2-3.2-.2-3.2-.3-3.2L410,105l-.4-3.1-.4-3.1-.5-3-.5-3-.6-3-.6-2.9-.7-2.9-.7-2.9-.8-2.8-.8-2.8-.8-2.7-.9-2.7-.9-2.7-1-2.6-1-2.6-1.1-2.5-1.1-2.5-1.1-2.4-1.2-2.4-1.2-2.3-1.3-2.3-1.3-2.3-1.3-2.2-1.4-2.1L387,39.1l-1.4-2-1.5-2-1.5-1.9-1.5-1.9-1.5-1.8L378,27.7,376.4,26l-1.6-1.7-1.7-1.6-1.7-1.6-1.7-1.5L368,18.1l-1.8-1.4-1.8-1.3-1.8-1.3-1.8-1.2L359,11.7l-1.9-1.1-1.9-1-1.9-1-1.9-.9-1.9-.9L347.6,6l-2-.7-2-.7-2-.6-2-.5-2-.5-2-.4-2-.4-2-.3-2-.2-2-.2-2-.1h-4l-2,.1-2,.2-2,.2-2,.3-2,.3-2,.4-2,.5-2,.5-2,.6-2,.7-2,.7-1.9.8-1.9.8-1.9.9-1.9,1-1.9,1-1.9,1.1-1.8,1.1-1.8,1.2-1.8,1.3L281,16.4l-1.8,1.4-1.8,1.4-1.7,1.5L274,22.2l-1.7,1.6-1.6,1.7-1.6,1.7L267.5,29l-1.6,1.8-1.5,1.9-1.5,1.9-1.5,2-1.4,2-1.4,2.1-1.4,2.1L255.9,45l-1.3,2.2-1.3,2.3-1.2,2.3-1.2,2.4-.4,2.1-1.1,2.5-1.1,2.5-1,2.6-1,2.6-.9,2.6-.9,2.7-.8,2.7-.8,2.8-.8,2.8-.7,2.8-.7,2.9-.6,2.9-.6,3-.5,3-.5,3-.5,3.1-.4,3.1-.4,3.1-.3,3.1-.3,3.2-.2,3.2-.1,3.2-.1,3.3v6.6l.1,3.3.1,3.3.2,3.4.2,3.4.3,3.4.3,3.4.4,3.4.4,3.4.5,3.5.5,3.5.6,3.5.6,3.5.7,3.5.8,3.5.8,3.5.8,3.5.9,3.5,1,3.5,1,3.5,1.1,3.5,1.1,3.6,1.2,3.5,1.2,3.6,1.3,3.5,1.3,3.5,1.4,3.5,1.4,3.5,1.5,3.5,1.5,3.5,1.6,3.5,1.6,3.5,1.7,3.5,1.8,3.5,1.8,3.5,1.8,3.4,1.9,3.4,1.9,3.4,2,3.4,2,3.4,2.1,3.4,2.1,3.4,2.2,3.3,2.2,3.3,2.3,3.3,2.3,3.3,2.4,3.2,2.4,3.2,2.5,3.2,2.5,3.1,2.5,3.1,2.6,3.1,2.6,3.1,2.7,3,2.7,3,2.7,3,2.8,2.9,2.8,2.9,2.8,2.9,2.9,2.8,2.9,2.8,3,2.8,3,2.7,3,2.7,3,2.6,3.1,2.6,3.1,2.6,3.1,2.5,3.2,2.5,3.2,2.4,3.2,2.4,3.2,2.3,3.3,2.3,3.3,2.3,3.3,2.2,3.3,2.2,3.4,2.1,3.4,2.1,3.4,2,3.4,2,3.4,1.9,3.4,1.9,3.5,1.8,3.5,1.8,3.5,1.7,3.5,1.7,3.5,1.6,3.5,1.6,3.5,1.5,3.5,1.5,3.5,1.4,3.5,1.4,3.5,1.3,3.5,1.3,3.5,1.2,3.5,1.1,3.6,1.1,3.5,1,3.5,1,3.5.9,3.5.9,3.5.8,3.5.8,3.5.7,3.5.7,3.5.6,3.5.6,3.5.5,3.5.5,3.5.4,3.4.4,3.4.3,3.4.2,3.4.2,3.3.1,3.3.1h6.6l3.3-.1,3.2-.1,3.2-.2,3.2-.2,3.2-.3,3.1-.3,3.1-.4,3.1-.4,3-.5,3-.5,3-.6,2.9-.6,2.9-.6,2.9-.7,2.8-.7,2.8-.8,2.8-.8,2.7-.9,2.7-.9,2.6-1,2.6-1,2.5-1,2.5-1.1,2.5-1.1,2.4-1.2,2.4-1.2,2.3-1.2,2.3-1.3,2.2-1.3,2.2-1.3,2.1-1.4,2.1-1.4,2-1.4,2-1.5,1.9-1.5,1.9-1.5,1.8-1.6,1.7-1.6,1.7-1.6,1.6-1.7,1.6-1.7,1.5-1.7,1.5-1.7,1.4-1.8,1.4-1.8,1.3-1.8,1.2-1.8,1.2-1.8,1.1-1.9,1.1-1.9,1-1.9.9-1.9.9-1.9.8-1.9.8-2,.7-1.9.6-2,.6-2,.5-2,.4-2,.4-2,.3-2,.3-2,.2-2,.1-2,.1-2"/></g></g></svg>