<?xml version="1.0" encoding="utf-8"?>
<!-- Generator: Adobe Illustrator 23.0.6, SVG Export Plug-In . SVG Version: 6.00 Build 0)  -->
<svg version="1.1" id="Layer_1" xmlns="http://www.w3.org/2000/svg" xmlns:xlink="http://www.w3.org/1999/xlink" x="0px" y="0px"
	 viewBox="0 0 1256 977" style="enable-background:new 0 0 1256 977;" xml:space="preserve">
<style type="text/css">
	.st0{fill:#FFFFFF;}
</style>
<g>
	<g>
		<path class="st0" d="M587.7,378L565,400.7h45.4L587.7,378z"/>
		<path class="st0" d="M412,397l55.3,55.3h166L578,397H412z"/>
		<path class="st0" d="M418.2,260L381,297.2h74.4L418.2,260z"/>
		<path class="st0" d="M376,284.7l21.7-21.7h21.7l-21.7,21.7H376z"/>
		<path class="st0" d="M255,386v128.7L383.7,386H255z"/>
		<path class="st0" d="M313,551l-71,71h141.9L313,551z"/>
		<path class="st0" d="M358.2,576L298,636.2h96.4l60.2-60.2H358.2z"/>
		<path class="st0" d="M476,583.1l30.1-30.1l30.1,30.1l-30.1,30.1L476,583.1z"/>
		<path class="st0" d="M634,491l54.1,54.1V491H634z"/>
		<path class="st0" d="M686,371l164.5,164.5h61.7L747.7,371H686z"/>
		<path class="st0" d="M707,512l132.5,132.5h49.7L756.7,512H707z"/>
		<path class="st0" d="M632.3,378l22.7,22.7h-45.4L632.3,378z"/>
		<path class="st0" d="M587.7,528L565,505.3h45.4L587.7,528z"/>
		<path class="st0" d="M632.3,528l22.7-22.7h-45.4L632.3,528z"/>
		<path class="st0" d="M808,397l-55.3,55.3h-166L642,397H808z"/>
		<path class="st0" d="M412,509l55.3-55.3h166L578,509H412z"/>
		<path class="st0" d="M808,509l-55.3-55.3h-166L642,509H808z"/>
		<path class="st0" d="M801.8,260l37.2,37.2h-74.4L801.8,260z"/>
		<path class="st0" d="M418.2,646L381,608.8h74.4L418.2,646z"/>
		<path class="st0" d="M801.8,646l37.2-37.2h-74.4L801.8,646z"/>
		<path class="st0" d="M844,284.7L822.3,263h-21.7l21.7,21.7H844z"/>
		<path class="st0" d="M376,621.3l21.7,21.7h21.7l-21.7-21.7H376z"/>
		<path class="st0" d="M844,621.3L822.3,643h-21.7l21.7-21.7H844z"/>
		<path class="st0" d="M965,386v128.7L836.3,386H965z"/>
		<path class="st0" d="M255,520V391.3L383.7,520H255z"/>
		<path class="st0" d="M965,520V391.3L836.3,520H965z"/>
		<path class="st0" d="M907,551l71,71H836.1L907,551z"/>
		<path class="st0" d="M313,355l-71-71h141.9L313,355z"/>
		<path class="st0" d="M907,355l71-71H836.1L907,355z"/>
		<path class="st0" d="M861.8,576l60.2,60.2h-96.4L765.4,576H861.8z"/>
		<path class="st0" d="M358.2,330L298,269.8h96.4l60.2,60.2H358.2z"/>
		<path class="st0" d="M861.8,330l60.2-60.2h-96.4L765.4,330H861.8z"/>
		<path class="st0" d="M744,583.1L713.9,553l-30.1,30.1l30.1,30.1L744,583.1z"/>
		<path class="st0" d="M476,322.9l30.1,30.1l30.1-30.1l-30.1-30.1L476,322.9z"/>
		<path class="st0" d="M744,322.9L713.9,353l-30.1-30.1l30.1-30.1L744,322.9z"/>
		<path class="st0" d="M586,491l-54.1,54.1V491H586z"/>
		<path class="st0" d="M688.1,360.9V415H634"/>
		<path class="st0" d="M586,415l-54.1-54.1V415H586z"/>
		<path class="st0" d="M534,371L369.5,535.5h-61.7L472.3,371H534z"/>
		<path class="st0" d="M686,535l164.5-164.5h61.7L747.7,535H686z"/>
		<path class="st0" d="M534,535L369.5,370.5h-61.7L472.3,535H534z"/>
		<path class="st0" d="M513,512L380.5,644.5h-49.7L463.3,512H513z"/>
		<path class="st0" d="M707,394l132.5-132.5h49.7L756.7,394H707z"/>
		<path class="st0" d="M513,394L380.5,261.5h-49.7L463.3,394H513z"/>
	</g>
</g>
</svg>
