<?xml version="1.0" encoding="utf-8"?>
<!-- Generator: Adobe Illustrator 23.0.6, SVG Export Plug-In . SVG Version: 6.00 Build 0)  -->
<svg version="1.1" id="Layer_1" xmlns="http://www.w3.org/2000/svg" xmlns:xlink="http://www.w3.org/1999/xlink" x="0px" y="0px"
	 viewBox="0 0 131.1 66.8" style="enable-background:new 0 0 131.1 66.8;" xml:space="preserve">
<style type="text/css">
	.st0{fill:#FFFFFF;}
</style>
<g id="Layer_2_00000001663463003910366760000007350817732349045664_">
	<g id="_Layer_">
		<path class="st0" d="M48.5,5.3l10.9,6.3l4.5-2.5L50.7,1.5c-5.4-3.1-12.4-1.3-15.5,4.2c-3.1,5.4-1.3,12.4,4.2,15.5l0,0l19.9,11
			l4.4-2.6L41.5,17.4c-3.6-1.5-5.2-5.6-3.7-9.2C39.4,4.7,43.5,3,47,4.5C47.6,4.8,48.1,5,48.5,5.3L48.5,5.3z"/>
		<path class="st0" d="M89.5,17.4l-4,2.2l4.5,2.6l1.7-0.9c5.3-3.4,6.9-10.4,3.5-15.7c-3.2-5-9.6-6.7-14.9-4l-31.2,18l4.6,2.4
			L82.6,5.3C86,3.4,90.2,4.6,92.1,8c0.9,1.6,1.1,3.4,0.7,5.1C92.3,15,91.1,16.5,89.5,17.4z"/>
		<path class="st0" d="M0,33.4c0.1,6.3,5.2,11.3,11.5,11.3c1.7,0,3.3-0.4,4.8-1.1l29.3-16.9l-4.5-2.5L14.4,39.6
			c-0.9,0.4-2,0.7-3,0.7c-3.8,0-6.9-3.1-6.9-6.9s3.1-6.9,6.9-6.9c1,0,2,0.2,3,0.7l9.1,5.2l4.4-2.6l-11.5-6.6
			c-5.7-2.7-12.5-0.4-15.2,5.3C0.4,30,0,31.6,0,33.3l0,0V33.4z"/>
		<polygon class="st0" points="53.5,42.6 81.8,26.7 77.5,24.1 49,40 		"/>
		<path class="st0" d="M41.5,49.3l3.9-2.2L41,44.6l-1.7,1c-5.4,3.1-7.3,10.1-4.2,15.5s10.1,7.3,15.5,4.2l0,0L82,47.2l-4.4-2.5
			l-29,16.8c-3.6,1.5-7.7-0.1-9.2-3.7C38.1,54.8,39,51.3,41.5,49.3L41.5,49.3z"/>
		<polygon class="st0" points="95.3,32.4 99.6,29.8 71.7,13.7 67.3,16.3 		"/>
		<path class="st0" d="M82.6,61.4l-10.8-6.2l-4.3,2.6l12.9,7.4c5.4,3.3,12.4,1.6,15.7-3.7s1.6-12.4-3.7-15.7
			c-0.2-0.1-0.4-0.2-0.6-0.3L71.9,34.3l-4.5,2.5l22.1,12.5c3.6,1.5,5.2,5.6,3.7,9.2c-1.5,3.6-5.6,5.2-9.2,3.7
			C83.5,62,83,61.7,82.6,61.4L82.6,61.4z"/>
		<polygon class="st0" points="59.4,53.1 63.8,50.6 35.9,34.5 31.5,37 		"/>
		<path class="st0" d="M131.1,33.3C131,27,125.9,22,119.6,22.1c-1.7,0-3.3,0.4-4.8,1.1L85.6,40l4.4,2.5l26.7-15.4
			c3.4-1.7,7.6-0.2,9.3,3.2s0.2,7.6-3.2,9.3c-1,0.5-2,0.7-3.1,0.7c-1,0-2.1-0.2-3-0.7l-9.1-5.2l-4.4,2.6l11.6,6.6
			c5.7,2.7,12.5,0.4,15.2-5.3C130.7,36.8,131.1,35.1,131.1,33.3L131.1,33.3L131.1,33.3z"/>
	</g>
</g>
</svg>
