<svg xmlns="http://www.w3.org/2000/svg" viewBox="0 0 583.2 583.8"><defs><style>.cls-1{fill:none;stroke:#fff;stroke-width:2px;}</style></defs><g id="Layer_2" data-name="Layer 2"><g id="Layer_1-2" data-name="Layer 1"><path class="cls-1" d="M582.2,291.8v-1.4l-.1-1.4-.1-1.4-.2-1.4-.2-1.4-.3-1.4L581,282l-.4-1.4-.4-1.4-.5-1.4-.5-1.4-.6-1.4-.6-1.4-.7-1.3-.8-1.3-.8-1.3-.8-1.3-.9-1.3-.9-1.3-1-1.3-1-1.2-1.1-1.2-1.1-1.2-1.2-1.2-1.2-1.2-1.3-1.2-1.3-1.1-1.4-1.1-1.4-1.1-1.5-1.1-1.5-1-1.5-1-1.6-1-1.6-1-1.7-.9-1.7-.9-1.8-.9-1.8-.9-1.8-.8-1.9-.8-1.9-.8-2-.8-2-.7-2-.7-2.1-.7-2.1-.6-2.1-.6-2.2-.6-2.2-.5-2.3-.5-2.3-.5-2.3-.4-2.3-.4-2.4-.3-2.4-.3-2.4-.3-2.5-.2-2.5-.2-2.5-.2-2.5-.1-2.6-.1h-7.8l-2.7.1-2.7.1-2.7.1-2.7.2-2.7.2-2.8.3-2.8.3-2.8.4-2.8.4-2.8.4-2.8.5-2.8.5-2.9.6-2.9.6-2.9.6-2.9.7-2.9.7-2.9.8-2.9.8-2.9.9-2.9.9-2.9.9-2.9,1-2.9,1-2.9,1.1-2.9,1.1-3,1.2-2.9,1.2-2.9,1.2-2.9,1.3-2.9,1.3-2.9,1.4-2.9,1.4-2.9,1.4-2.9,1.5-2.9,1.5-2.9,1.6-2.9,1.6-2.9,1.6-2.9,1.7L370,271l-2.8,1.8-2.8,1.8-2.8,1.8-2.8,1.9-2.8,1.9-2.8,1.9-2.8,2-2.7,2-2.7,2-2.7,2.1-2.7,2.1-2.7,2.2-2.6,2.2-2.6,2.2-2.6,2.2-2.6,2.3-2.5,2.3-2.5,2.3-2.5,2.4-2.9,2.6-2.4,2.4-2.4,2.5-2.4,2.5-2.3,2.5-2.3,2.5-2.3,2.5-2.3,2.6-2.2,2.6-2.2,2.6-2.2,2.6L291,341l-2.1,2.7-2,2.7-2,2.7-2,2.7-2,2.8-1.9,2.8-1.9,2.8-1.8,2.8-1.8,2.8-1.8,2.8-1.7,2.8-1.7,2.9-1.7,2.9-1.6,2.9-1.6,2.9-1.5,2.9-1.5,2.9-1.5,2.9-1.4,2.9-1.4,2.9-1.3,2.9-1.3,2.9-1.3,2.9-1.2,2.9-1.2,2.9-1.1,3-1.1,2.9-1,2.9-1,2.9-1,2.9-.9,2.9-.9,2.9-.8,2.9-.8,2.9-.8,2.9-.7,2.9-.7,2.9-.6,2.9-.6,2.9-.5,2.9-.5,2.8-.5,2.8-.4,2.8-.4,2.8-.3,2.8-.3,2.8-.2,2.8-.2,2.7-.2,2.7-.1,2.7-.1,2.7v7.9l.1,2.6.1,2.5.2,2.5.2,2.5.2,2.5.3,2.4.3,2.4.3,2.4.4,2.4.4,2.3.4,2.3.5,2.3.5,2.2.5,2.2.6,2.2.6,2.1.6,2.1.7,2,.7,2,.7,2,.8,1.9.8,1.9.8,1.8.8,1.8.9,1.8.9,1.7.9,1.7,1,1.6,1,1.6,1,1.6,1,1.5,1.1,1.5,1.1,1.4,1.1,1.4,1.1,1.3,1.2,1.3,1.2,1.2,1.2,1.2,1.2,1.2,1.2,1.1,1.2,1.1,1.3,1,1.3,1,1.3.9,1.3.8,1.3.8,1.3.8,1.3.7,1.4.6,1.4.6,1.4.6,1.4.5,1.4.5,1.4.4,1.4.3,1.4.3,1.4.3,1.4.2,1.4.2,1.4.1h2.8l1.4-.1,1.4-.1,1.4-.2,1.4-.2,1.4-.3,1.4-.3,1.4-.4,1.4-.4,1.4-.5,1.4-.5,1.4-.6,1.4-.6,1.3-.7,1.3-.7,1.3-.8,1.3-.8,1.3-.9,1.3-.9,1.3-1,1.3-1,1.2-1.1,1.2-1.1,1.2-1.2,1.2-1.2,1.2-1.3,1.1-1.3,1.1-1.4,1.1-1.4,1.1-1.4,1-1.5,1-1.5,1-1.6,1-1.6,1-1.7.9-1.7.9-1.7.9-1.8.8-1.8.8-1.9.8-1.9.8-2,.7-2,.7-2,.7-2.1.6-2.1.6-2.1.6-2.2.5-2.2.5-2.2.5-2.3.4-2.3.4-2.3.4-2.4.3-2.4.3-2.4.3-2.5.2-2.5.2-2.5.1-2.5.1-2.6.1-2.6v-5.2l-.1-2.7-.1-2.7-.1-2.7-.2-2.7-.2-2.7-.3-2.8-.3-2.8-.3-2.8-.4-2.8-.4-2.8-.5-2.8-.5-2.8-.5-2.9-.6-2.9-.6-2.9-.7-2.9-.7-2.9L342,437l-.8-2.9-.8-2.9-.9-2.9-.9-2.9-1-2.9-1-2.9-1.1-2.9-1.1-2.9-1.1-2.9-1.2-2.9-1.2-2.9-1.3-2.9-1.3-2.9-1.3-2.9-1.4-2.9-1.4-2.9-1.5-2.9-1.5-2.9-1.6-2.9L318,379l-1.6-2.9-1.7-2.9-1.7-2.9-1.7-2.9-1.8-2.8-1.8-2.8-1.9-2.8-1.9-2.8-1.9-2.8-2-2.8-2-2.7-2-2.7-2.1-2.7-2.1-2.7-2.1-2.7-2.2-2.6-2.2-2.6-2.2-2.6-2.3-2.6-2.3-2.5-2.3-2.5-2.4-2.5-2.4-2.5-2.4-2.4-2.4-2.4-2.5-2.4-2.5-2.4-2.5-2.3-2.5-2.3-2.6-2.3-2.6-2.2-2.6-2.2-2.6-2.2-2.7-2.1-2.7-2.1-2.7-2.1-2.7-2-2.7-2-2.8-2-2.8-1.9-2.8-1.9-2.8-1.9-2.8-1.8-2.8-1.8-2.9-1.7-2.9-1.7-2.9-1.7-2.9-1.6-2.9-1.6-2.9-1.6-2.9-1.5-2.9-1.5-2.9-1.4-2.9-1.4-2.9-1.4-2.9-1.3-2.9-1.3-2.9-1.2-2.9-1.2-2.9-1.1-2.9-1.1-3-1-2.9-1-2.9-1-2.9-.9-2.9-.9-2.9-.8-2.9-.8-2.9-.8-2.9-.7-2.9-.7-2.9-.6-2.9-.6-2.9-.6-2.8-.5-2.8-.5-2.8-.4-2.8-.4-2.8-.3-2.8-.3-2.8-.3-2.7-.2-2.7-.2-2.7-.1-2.7-.1-2.7-.1H90.5l-2.6.1-2.6.1-2.5.1-2.5.2-2.5.2-2.5.3-2.4.3-2.4.3-2.4.4-2.3.4-2.3.4-2.3.5-2.2.5-2.2.5-2.2.6-2.1.6-2.1.6-2,.7-2,.7-2,.7-1.9.8-1.9.8-1.9.8-1.8.9-1.8.9-1.7.9-1.7.9-1.7,1-1.6,1-1.6,1-1.5,1-1.5,1-1.4,1.1L21,255.3l-1.4,1.1-1.3,1.1L17,258.7l-1.2,1.2-1.2,1.2-1.1,1.2-1.1,1.2-1,1.3-1,1.3-.9,1.3-.9,1.3L7.8,270,7,271.3l-.7,1.3L5.6,274,5,275.4l-.6,1.4-.5,1.4-.5,1.4L3,281l-.4,1.4-.3,1.4L2,285.2l-.2,1.4L1.6,288l-.1,1.4-.1,1.4v2.8l.1,1.4.2,1.4.2,1.4.3,1.4.3,1.4.4,1.4.4,1.4.5,1.4.5,1.4.6,1.4.6,1.4.7,1.4.7,1.3.8,1.3.8,1.3.9,1.3.9,1.3.9,1.3,1,1.3,1,1.2,1.1,1.2,1.1,1.2,1.2,1.2,1.2,1.2,1.3,1.1,1.3,1.1,1.4,1.1,1.4,1.1,1.5,1.1,1.5,1,1.6,1,1.6,1,1.6,1,1.7.9,1.7.9,1.8.9,1.8.9,1.9.8,1.9.8,1.9.8,2,.7,2,.7,2,.7,2.1.6,2.1.6,2.1.6,2.2.5,2.2.5,2.3.5,2.3.4,2.3.4,2.4.4,2.4.3,2.4.3,2.4.3,2.5.2,2.5.2,2.5.1,2.6.1,2.6.1h7.8l2.7-.1,2.7-.1,2.7-.2,2.7-.2,2.8-.3,2.8-.3,2.8-.3,2.8-.4,2.8-.4,2.8-.5,2.8-.5,2.9-.5,2.9-.6,2.9-.6,2.9-.7,2.9-.7,2.9-.8,2.9-.8,2.9-.8,2.9-.9,2.9-.9,2.9-1,2.9-1,2.9-1,3-1.1,2.9-1.1,2.9-1.2,2.9-1.2,2.9-1.3,2.9-1.3,2.9-1.3,2.9-1.4,2.9-1.4,2.9-1.5,2.9-1.5,2.9-1.5,2.9-1.6,2.9-1.6,2.9-1.7,2.9-1.7,2.8-1.7,2.8-1.8,2.8-1.8,2.8-1.9,2.8-1.9,2.8-1.9,2.8-2,2.7-2,2.7-2,2.7-2.1,2.7-2.1,2.7-2.1,2.6-2.2,2.6-2.2,2.6-2.2,2.6-2.3,2.5-2.3,2.5-2.3,2.5-2.3,2.5-2.4,2.5-2.4,2.4-2.4,2.4-2.5,2.4-2.5,2.3-2.5,2.3-2.5,2.3-2.6,2.2-2.6,2.2-2.6,2.2-2.6,2.2-2.7,2.1-2.7,2.1-2.7,2-2.7,2-2.7,2-2.8,1.9-2.8,1.9-2.8,1.9-2.8,1.8-2.8,1.8-2.8,1.8-2.9,1.7-2.9,1.7-2.9,1.6-2.9,1.6-2.9,1.6-2.9,1.5-2.9,1.5-2.9,1.4-2.9,1.4-2.9,1.4-2.9,1.3-2.9,1.3-2.9,1.2-2.9,1.2-2.9,1.2-2.9,1.1-2.9L336,164l1-2.9,1-2.9.9-2.9.9-2.9.9-2.9.8-2.9.8-2.9.7-2.9.7-2.9.7-2.9.6-2.9.6-2.9.5-2.8.5-2.8.4-2.8.4-2.8.4-2.8.3-2.8.3-2.8.2-2.7.2-2.7.2-2.7.1-2.7.1-2.7V90.9l-.1-2.6-.1-2.6-.1-2.5-.2-2.5-.2-2.5-.2-2.5-.3-2.4-.3-2.4-.4-2.4-.4-2.3-.4-2.3-.5-2.3-.5-2.3-.5-2.2-.6-2.2-.6-2.2-.6-2.1-.6-2.1-.7-2-.7-2-.8-2-.8-1.9-.8-1.9-.8-1.8-.9-1.8-.9-1.8-.9-1.7-1-1.7-1-1.6-1-1.6-1-1.5-1-1.5-1.1-1.4-1.1-1.4L327,19.5l-1.1-1.3-1.2-1.3-1.2-1.2-1.2-1.2-1.2-1.1-1.2-1.1-1.3-1-1.3-1L316,9.4l-1.3-.9-1.3-.8-1.3-.8-1.3-.7-1.3-.7-1.3-.6-1.4-.6-1.4-.5L304,3.3l-1.4-.4-1.4-.4-1.4-.3-1.4-.3L297,1.7l-1.4-.2-1.4-.1-1.4-.1H290l-1.4.1-1.4.1-1.4.2-1.4.2-1.4.3-1.4.3-1.4.4-1.4.4-1.4.5-1.4.5-1.4.6-1.4.6-1.3.7-1.3.7-1.3.8-1.3.8-1.3.9-1.3.9-1.3,1-1.2,1-1.2,1.1-1.2,1.1-1.2,1.2-1.2,1.2-1.2,1.3-1.1,1.3-1.1,1.4-1.1,1.4-1.1,1.5-1,1.5-1,1.6-1,1.6-1,1.6-.9,1.7-.9,1.7-.9,1.8-.9,1.8-.8,1.8-.8,1.9-.8,1.9-.8,2-.7,2-.7,2-.7,2.1-.6,2.1-.6,2.1-.6,2.2-.5,2.2-.5,2.3-.5,2.3-.4,2.3-.4,2.3-.4,2.4-.3,2.4-.3,2.4-.2,2.5-.2,2.5-.2,2.5-.1,2.5-.1,2.6-.1,2.6v5.2l.1,2.7.1,2.7.2,2.7.2,2.7.2,2.7.3,2.8.3,2.8.4,2.8.4,2.8.4,2.8.5,2.8.5,2.9.6,2.9.6,2.9.7,2.9.7,2.9.7,2.9.8,2.9.8,2.9.9,2.9.9,2.9.9,2.9,1,2.9,1,2.9,1.1,2.9L249,170l1.2,2.9,1.2,2.9,1.2,2.9,1.3,2.9,1.3,2.9,1.4,2.9,1.4,2.9,1.4,2.9,1.5,2.9,1.5,2.9,1.6,2.9,1.6,2.9,1.6,2.9,1.7,2.9,1.7,2.9,1.8,2.8,1.8,2.8,1.8,2.8,1.9,2.8,1.9,2.8,2,2.8,2,2.8,2,2.7,2,2.7,2.1,2.7,2.1,2.7,2.2,2.7,2.2,2.6,2.2,2.6,2.2,2.6,2.3,2.6,2.3,2.5,2.3,2.5,2.4,2.5,2.4,2.5,2.4,2.4,2.5,2.4,2.5,2.4,2.5,2.4,2.5,2.3,2.5,2.3,2.6,2.3,2.6,2.2,2.6,2.2,2.6,2.2,2.7,2.1,2.7,2.1,2.7,2.1,2.7,2,2.7,2,2.8,1.9,2.8,1.9,2.8,1.9,2.8,1.8,2.8,1.8,2.8,1.8,2.9,1.7,2.9,1.7,2.9,1.6,2.9,1.6,2.9,1.6,2.9,1.5,2.9,1.5,2.9,1.4,2.9,1.4,2.9,1.4,2.9,1.3,2.9,1.3,2.9,1.3,2.9,1.2,2.9,1.2,3,1.1,2.9,1.1,2.9,1,2.9,1,2.9,1,2.9.9,2.9.9,2.9.8,2.9.8,2.9.8,2.9.7,2.9.7,2.9.6,2.9.6,2.9.5,2.8.5,2.8.5,2.8.4,2.8.4,2.8.3,2.8.3,2.8.3,2.7.2,2.7.2,2.7.1,2.7.1h7.9l2.6-.1,2.5-.1,2.5-.2,2.5-.2,2.5-.2,2.4-.3,2.4-.3,2.4-.3,2.3-.4,2.3-.4,2.3-.4,2.3-.5,2.2-.5,2.2-.5,2.1-.6,2.1-.6,2.1-.6,2-.7,2-.7,2-.7,1.9-.8,1.9-.8,1.9-.8,1.8-.9,1.8-.9,1.7-.9,1.7-.9,1.6-1,1.6-1,1.6-1,1.5-1,1.5-1.1,1.4-1.1,1.4-1.1,1.3-1.1,1.3-1.2,1.2-1.2,1.2-1.2,1.2-1.2,1.1-1.2,1-1.2,1-1.3,1-1.3.9-1.3.9-1.3.8-1.3.8-1.3.7-1.3.7-1.3.6-1.4.6-1.4.5-1.4.5-1.4.4-1.4.3-1.4.3-1.4.3-1.4.2-1.4.2-1.4.1-1.4.1-1.4v-1.4l-.1-1.4-.1-1.4-.2-1.4-.2-1.4-.3-1.4-.3-1.4-.4-1.4-.4-1.4-.5-1.4-.5-1.4-.6-1.4-.6-1.4-.7-1.3-.7-1.3-.8-1.3-.8-1.3-.9-1.3-.9-1.3-1-1.3-1-1.3-1.1-1.2-1.1-1.2-1.2-1.2-1.2-1.2-1.3-1.2-1.3-1.1-1.4-1.1-1.4-1.1-1.4-1.1-1.5-1.1-1.5-1-1.6-1-1.6-1-1.7-1-1.7-.9L548,246l-1.8-.9-1.8-.9-1.9-.8-1.9-.8-1.9-.8-2-.7-2-.7-2.1-.7-2.1-.6-2.1-.6-2.2-.6-2.2-.5-2.2-.5-1.7.1-2.3-.4-2.3-.4-2.4-.4-2.4-.3-2.4-.3-2.5-.3-2.5-.2-2.5-.2-2.5-.1-2.6-.1-2.6-.1h-5.2l-2.7.1-2.7.1-2.7.1-2.7.2-2.7.2-2.8.3-2.8.3-2.8.3-2.8.4-2.8.4-2.8.5-2.8.5-2.9.6-2.9.6-2.9.6-2.9.7-2.9.7-2.9.8-2.9.8-2.9.8-2.9.9-2.9.9-2.9,1-2.9,1-2.9,1.1-2.9,1.1-3,1.1-2.9,1.2-2.9,1.2-2.9,1.3-2.9,1.3-2.9,1.4-2.9,1.4-2.9,1.4L388,261l-2.9,1.5-2.9,1.5-2.9,1.6-2.9,1.6-2.9,1.7-2.9,1.7-2.8,1.7-2.8,1.8-2.8,1.8-2.8,1.8-2.8,1.9-2.8,1.9-2.8,2-2.7,2-2.7,2-2.7,2.1-2.7,2.1-2.7,2.1-2.6,2.2-2.6,2.2-2.6,2.2-2.6,2.3-2.5,2.3-2.5,2.3-2.5,2.4-2.5,2.4-2.4,2.4-2.4,2.4-2.4,2.5-2.3,2.5-2.3,2.5-2.3,2.5-2.3,2.6-2.2,2.6-2.2,2.6-2.2,2.6L292,340l-2.1,2.7-2.1,2.7-2,2.7-2,2.7-2,2.8-1.9,2.8-1.9,2.8-1.9,2.8-1.8,2.8-1.8,2.8-1.7,2.9-1.7,2.9-1.7,2.9-1.6,2.9-1.6,2.9-1.5,2.9-1.5,2.9-1.5,2.9-1.4,2.9-1.4,2.9-1.3,2.9-1.3,2.9-1.3,2.9-1.2,2.9-1.2,2.9-1.2,2.9-1.1,3-1,2.9-1,2.9-1,2.9-.9,2.9-1.3,3.4-.9,2.9-.8,2.9-.8,2.9-.7,2.9-.7,2.9-.6,2.9-.6,2.9-.5,2.8L237,458l-.5,2.8-.4,2.8-.4,2.8-.3,2.8-.3,2.8-.3,2.8-.2,2.7-.2,2.7-.1,2.7-.1,2.7-.1,2.7v5.2l.1,2.6.1,2.6.1,2.5.2,2.5.2,2.5.3,2.5.3,2.4.3,2.4.4,2.4.4,2.3.4,2.3.5,2.3.5,2.2.5,2.2.6,2.2.6,2.1.6,2.1.7,2.1.7,2,.7,2,.8,2,.8,1.9.8,1.9.8,1.8.9,1.8.9,1.7.9,1.7,1,1.7,1,1.6,1,1.6,1,1.5,1,1.5,1.1,1.4,1.1,1.4,1.1,1.4,1.1,1.3,1.2,1.3,1.2,1.2,1.2,1.2,1.2,1.1,1.2,1.1,1.3,1,1.3,1,1.3.9,1.3.9,1.3.8,1.3.8,1.3.7,1.3.7,1.4.6,1.4.6,1.4.5,1.4.5,1.4.4,1.4.4,1.4.3,1.4.3,1.4.2,1.4.2,1.4.1,1.4.1h2.8l1.4-.1,1.4-.1,1.4-.2,1.4-.3,1.4-.3,1.4-.3,1.4-.4,1.4-.5,1.4-.5,1.4-.6,1.4-.6,1.3-.7,1.3-.7,1.3-.8,1.3-.8,1.3-.9,1.3-.9,1.3-1,1.3-1,1.2-1,1.2-1.1,1.2-1.2,1.2-1.2,1.2-1.3,1.1-1.3,1.1-1.3,1.1-1.4,1.1-1.4,1.1-1.5,1-1.5,1-1.6,1-1.6,1-1.6.9-1.7.9-1.7.9-1.8.8-1.8.8-1.8.8-1.9.8-1.9.7-2,.7-2,.7-2,.6-2.1.6-2.1.6-2.2.5-2.2.5-2.2.5-2.3.5-2.3.4-2.3.4-2.3.3-2.4.3-2.4.3-2.4.2-2.5.2-2.5.2-2.5.1-2.6.1-2.6v-5.2l-.1-2.6-.1-2.7-.1-2.7-.2-2.7-.2-2.7-.3-2.8-.3-2.8-.3-2.8-.4-2.8-.4-2.8-.5-2.8-.5-2.8-.5-2.9-.6-2.9-.6-2.9-.7-2.9-.7-2.9-.8-2.9-.8-2.9-.8-2.9-.9-2.9-.9-2.9-1-2.9-1-2.9-1.1-2.9-1.1-2.9-1.1-2.9L332,410l-1.2-2.9-1.3-2.9-1.3-2.9-1.3-2.9-1.4-2.9-1.4-2.9-1.5-2.9-1.5-2.9-1.5-2.9L318,381l-1.6-2.9-1.7-2.9-1.7-2.9-1.7-2.9-1.8-2.8-1.8-2.8-1.8-2.8-1.9-2.8-1.9-2.8-2-2.8-2-2.7-2-2.7-2.1-2.7-2.1-2.7-2.1-2.7-2.2-2.6-2.2-2.6-2.2-2.6-2.3-2.6-2.3-2.5-2.3-2.5-2.3-2.5-2.4-2.5-2.4-2.5-2.4-2.4-2.5-2.4-2.5-2.4-2.5-2.3-2.5-2.3-2.6-2.3-2.6-2.2-2.6-2.2-2.6-2.2-2.7-2.1-2.7-2.1-2.7-2.1-2.7-2-2.7-2-2.8-2-2.8-1.9-2.8-1.9-2.8-1.9-2.8-1.8-2.8-1.8-2.9-1.8-2.8-1.7-2.9-1.7-2.9-1.6-2.9-1.6-2.9-1.6-2.9-1.5-2.9-1.5-2.9-1.4-2.9-1.4-2.9-1.4-2.9-1.3-2.9-1.3-3-1.2-2.9-1.2-2.9-1.2-2.9-1.1-3-1.1-2.9-1-2.9-1-2.9-.9-2.9-.9-2.9-.9-2.9-.8-2.9-.8-2.9-.7-2.9-.7-2.9-.6-2.9-.6-2.9-.6-2.9-.5-2.8-.5-2.8-.4-2.8-.4-2.8-.4-2.8-.3-2.8-.3-2.7-.2-2.7-.2-2.7-.1-2.7-.1-2.7-.1H88l-2.6.1-2.5.1-2.5.2-2.5.2-2.5.2-2.4.3-2.4.3-2.4.4-2.3.4-2.3.4-2.3.5-2.3.5-2.2.5-2.2.6-2.1.6-2.1.6-2.1.6-2,.7-2,.7-2,.8-1.9.8-1.9.8-1.8.8-1.8.9-1.8.9-1.7.9-1.7.9-1.6,1-1.6,1L25,253l-1.5,1L22,255.1l-1.4,1.1-1.4,1.1-1.3,1.1-1.3,1.2-1.2,1.2L14.2,262l-1.1,1.2L12,264.4l-1,1.3L10,267l-.9,1.3-.9,1.3-.8,1.3-.8,1.3-.7,1.3-.7,1.3-.6,1.3L4,277.5l-.5,1.4L3,280.3l-.4,1.4-.4,1.4-.3,1.4-.3,1.4-.2,1.4-.2,1.4-.1.3L1,290.4v2.8l.1,1.4.1,1.4.2,1.4.2,1.4.3,1.4.3,1.4.4,1.4.4,1.4.5,1.4.5,1.4.6,1.4.6,1.3.7,1.3.7,1.3.8,1.3.8,1.3.9,1.3.9,1.3,1,1.3,1,1.2,1.1,1.2,1.1,1.2,1.2,1.2,1.2,1.2,1.3,1.2,1.3,1.1,1.4,1.1,1.4,1.1,1.5,1.1,1.5,1,1.5,1,1.6,1,1.6,1,1.7.9,1.7.9,1.8.9,1.8.9,1.8.8,1.9.8,1.9.8,2,.8,2,.7,2,.7,2.1.7,2.1.6,2.1.6,2.2.6,2.2.5,2.3.5,2.3.5,2.3.4,2.3.4,2.4.3,2.4.3,2.4.3,2.5.2,2.5.2,2.5.2,2.5.1,2.6.1h7.8l2.7-.1,2.7-.1,2.7-.2,2.7-.2,2.8-.2,2.8-.3,2.8-.3,2.8-.4,2.8-.4,2.8-.4,2.8-.5,2.9-.5,2.9-.6,2.9-.6,2.9-.6,2.9-.7,2.9-.7,2.9-.8,2.9-.8,2.9-.9,2.9-.9,2.9-.9,2.9-1,2.9-1,3-1.1,2.9-1.1,2.9-1.2,2.9-1.2,2.9-1.2,2.9-1.3,2.9-1.3,2.9-1.4,2.9-1.4,2.9-1.4,2.9-1.5,2.9-1.5,2.9-1.6,2.9-1.6,2.9-1.6,2.9-1.7,2.9-1.7,2.8-1.8,2.8-1.8,2.8-1.8,2.8-1.9,2.8-1.9,2.8-1.9,2.7-2,2.7-2,2.7-2,2.7-2.1,2.7-2.1,2.7-2.1,2.6-2.2,2.6-2.2,2.6-2.2,2.6-2.3,2.5-2.3,2.5-2.3,2.5-2.4,2.5-2.4,2.4-2.4,2.4-2.4,2.4-2.5,2.3-2.5,2.3-2.5,2.3-2.5,2.3-2.6,2.2-2.6,2.2-2.6,2.2-2.6,2.1-2.7,2.1-2.7,2.1-2.7,2-2.7,2-2.8,2-2.8,1.9-2.8,1.9-2.8,1.8-2.8,1.8-2.8,1.8-2.8,1.7-2.9,1.7-2.9,1.7-2.9,1.6-2.9,1.6-2.9,1.5-2.9,1.5-2.9,1.5-2.9,1.4-2.9,1.4-2.9,1.3-2.9,1.3-2.9,1.3-2.9,1.2-2.9,1.2-2.9,1.1-2.9,1.1-2.9,1-2.9,1-2.9,1-2.9.9-2.9.9-2.9.8-2.9.8-2.9.8-2.9.7-2.9.7-2.9.6-2.9.6-2.9.5-2.9.5-2.8.5-2.8.4-2.8.4-2.8.3-2.8.3-2.8.2-2.7.2-2.7.2-2.7.1-2.7.1-2.7V90l-.1-2.6-.1-2.6-.2-2.5-.2-2.5-.2-2.5-.3-2.4-.3-2.4-.3-2.4V67l-.4-2.3-.5-2.3-.5-2.3-.5-2.2-.5-2.2-.6-2.2-.6-2.1-.7-2.1-.7-2-.7-2-.8-2-.8-1.9-.8-1.9-.8-1.8-.8-1.8-.9-1.8-.9-1.7-.9-1.7-1-1.7-1-1.6-1-1.6-1-1.5-1.1-1.5-1.1-1.4L327.4,20l-1.1-1.3-1.2-1.3-1.2-1.2L322.7,15l-1.2-1.2-1.2-1.1-1.2-1.1-1.3-1-1.3-1-1.3-.9-1.3-.8-1.3-.8-1.3-.8L310,5.6l-1.4-.7-1.3-.6-1.4-.6-1.4-.5-1.4-.4-1.4-.4L300.3,2l-1.4-.3-1.4-.3-1.4-.2-1.4-.1L293.3,1h-2.8l-1.4.1-1.4.1-1.4.2-1.4.2-1.4.3-1.4.3-1.4.4-1.4.4-1.4.5-1.4.5-1.4.6-1.3.6-1.4.7-1.3.7-1.3.8-1.3.8-1.3.9-1.3.9-1.3,1-1.3,1-1.2,1.1-1.2,1.1-1.2,1.2-1.2,1.2-1.2,1.3-1.1,1.3-1.1,1.4L254,22l-1.1,1.4-1.1,1.5-1,1.5-1,1.6-1,1.6-1,1.7-.9,1.7-.9,1.7-.9,1.8-.8,1.8-.8,1.9-.8,1.9-.8,1.9-.7,2-.7,2-.7,2.1-.6,2.1-.6,2.1-.6,2.2-.5,2.2-.5,2.2-.5,2.3-.4,2.3-.4,2.3-.3,2.4-.3,2.4-.3,2.4-.3,2.4-.2,2.5-.2,2.5-.1,2.5-.1,2.6-.1,2.6v5.2l.1,2.6.1,2.7.1,2.7.2,2.7.2,2.7.3,2.8.3,2.8.3,2.8.4,2.8.4,2.8.5,2.8.5,2.8.6,2.9.6,2.9.6,2.9.7,2.9.7,2.9.8,2.9.8,2.9.9,2.9.9,2.9.9,2.9,1,2.9,1,2.9,1.1,2.9,1.1,2.9,1.2,2.9,1.2,2.9,1.2,2.9,1.3,2.9,1.3,2.9,1.3,2.9,1.4,2.9,1.4,2.9,1.5,2.9,1.5,2.9,1.6,2.9,1.6,2.9,1.6,2.9,1.7,2.9,1.7,2.9,1.7,2.9,1.8,2.8,1.8,2.8,1.9,2.8,1.9,2.8,1.9,2.8,2,2.8,2,2.7,2,2.7,2.1,2.7,2.1,2.7,2.1,2.6,2.2,2.6,2.2,2.6,2.2,2.6,2.3,2.6,2.3,2.5,2.3,2.5,2.4,2.5,2.4,2.5,2.4,2.4,2.4,2.4,2.5,2.4,2.5,2.4,2.5,2.3,2.5,2.3,2.6,2.3,2.6,2.2,2.6,2.2,2.6,2.2,2.7,2.1,2.7,2.1,2.7,2.1,2.7,2,2.7,2,2.8,2,2.8,1.9,2.8,1.9,2.8,1.9,2.8,1.8,2.8,1.8,2.8,1.8,2.9,1.7,2.9,1.7,2.9,1.6,2.9,1.6,2.9,1.6,2.9,1.5,2.9,1.5,2.9,1.4,2.9,1.4,2.9,1.3,2.9,1.3,2.9,1.3,2.9,1.2,2.9,1.2,3,1.1,2.9,1.1,2.9,1.1,2.9,1,2.9,1,2.9.9,2.9.9,2.9.8,2.9.8,2.9.8,2.9.7,2.9.7,2.9.6,2.9.6,2.9.5,2.8.5,2.8.5,2.8.4,2.8.4,2.8.3,2.8.3,2.8.3,2.7.2,2.7.2,2.7.1,2.7.1h7.9l2.6-.1,2.6-.1,2.5-.1,2.5-.2,2.5-.2,2.5-.3,2.4-.3,2.4-.3,2.4-.4,2.3-.4,2.3-.4,2.3-.5,2.2-.5,2.2-.5,2.2-.6,2.1-.6,2.1-.6,2.1-.7,2-.7,2-.7,1.9-.8,1.9-.8,1.9-.8,1.8-.9,1.8-.9,1.8-.9,1.7-.9,1.7-1,1.6-1,1.6-1,1.5-1,1.5-1,1.4-1.1,1.4-1.1,1.3-1.1,1.3-1.1,1.3-1.2,1.2-1.2,1.2-1.2,1.1-1.2L571,319l1-1.3,1-1.3.9-1.3.9-1.3.8-1.3.8-1.3.7-1.3.7-1.4.6-1.3.6-1.4.5-1.4.5-1.4.4-1.4.4-1.4.3-1.4.3-1.4.2-1.4.2-1.4.1-1.4.1-1.4V289l-.1-1.4-.2-1.4-.2-1.4-.3-1.4-.3-1.4-.4-1.4-.4-1.4-.5-1.4-.5-1.4-.6-1.4-.6-1.4-.7-1.3-.7-1.3-.8-1.3-.8-1.3-.9-1.3-.9-1.3-1-1.3-1-1.3L570,262l-1.1-1.2-1.2-1.2-1.2-1.2-1.3-1.2-1.3-1.1-1.3-1.1-1.4-1.1-1.4-1.1-1.5-1.1-1.5-1-1.6-1-1.6-1-1.6-1-1.7-.9-1.7-.9-1.8-.9-1.8-.9-1.8-.8-1.9-.8-1.9-.8-2-.7-2-.7-2.1-.7-2.1-.6-2.1-.6-2.2-.6-2.2-.5-2.2-.5-2.3-.5-2.3-.4-2.3-.4-2.4-.4-2.4-.3-2.4-.3-2.4-.3-2.5-.2-2.5-.2-2.5-.1-2.5-.1-2.6-.1h-7.9l-2.7.1-2.7.1-2.7.2-2.7.2-2.8.3-2.8.3-2.8.3-2.8.4-2.8.4-2.8.5-2.8.5-2.9.5-2.9.6-2.9.6-2.9.7-2.9.7-2.9.8-2.9.8-2.9.8-2.9.9-2.9.9-2.9,1-2.9,1-2.9,1.1-2.9,1.1-2.9,1.1-2.9,1.2-2.9,1.2-2.9,1.3-2.9,1.3-2.9,1.3-2.9,1.4-2.9,1.4-2.9,1.5-2.9,1.5-2.9,1.5-2.9,1.6-2.9,1.6-2.9,1.7-2.9,1.7-2.8,1.7-2.8,1.8-2.8,1.8-2.8,1.8-2.8,1.9-2.8,1.9-2.8,2-2.7,2-2.7,2-2.7,2.1-2.7,2.1-2.7,2.1-2.6,2.2-2.6,2.2-2.6,2.2-2.6,2.3-2.6,2.3-2.5,2.3-2.5,2.4-2.5,2.4-2.4,2.4-2.4,2.4-2.4,2.5-2.4,2.5-2.3,2.5-2.3,2.5-2.3,2.6-2.2,2.6-2.2,2.6-2.2,2.6-2.1,2.7-2.1,3-2.1,2.7-2,2.7-2,2.7-2,2.8-1.9,2.8-1.9,2.8-1.9,2.8-1.8,2.8-1.8,2.8-1.8,2.9-1.7,2.8-1.7,2.9-1.6,2.9-1.6,2.9-1.6,2.9-1.5,2.9-1.5,2.9-1.4,2.9-1.4,2.9-1.4,2.9-1.3,2.9-1.3,2.9-1.2,2.9-1.2,2.9-1.2,2.9-1.1,3-1.1,2.9-1,2.9-1,2.9-1,2.9-.9,2.9-.9,2.9-.8,2.9-.8,2.9-.7,2.9-.7,2.9-.7,2.9L238,451l-.6,2.9-.5,2.9-.5,2.8-.4,2.8-.4,2.8-.3,2.8-.3,2.8-.3,2.8-.2,2.7-.2,2.7-.2,2.7-.1,2.7-.1,2.7v5.2l.1,2.6.1,2.6.1,2.5.2,2.5.2,2.5.2,2.5.3,2.4.3,2.4.4,2.4.4,2.4.4,2.3.5,2.3.5,2.2.5,2.2.6,2.2.6,2.1.6,2.1.7,2.1.7,2,.7,2,.8,2,.8,1.9.8,1.9.8,1.8.9,1.8.9,1.8.9,1.7.9,1.7,1,1.6,1,1.6,1,1.5,1,1.5,1.1,1.5,1.1,1.4,1.1,1.4,1.1,1.3,1.2,1.3,1.2,1.2,1.2,1.2,1.2,1.1,1.2,1.1,1.3,1,1.3,1,1.3.9,1.3.9,1.3.8,1.3.8,1.3.7,1.3.7,1.3.6,1.4.6,1.4.5,1.4.5,1.4.4,1.4.4,1.4.3,1.4.3,1.4.2,1.4.2,1.4.1,1.4.1h2.8l1.4-.1,1.4-.1,1.4-.2,1.4-.2,1.4-.3,1.4-.3,1.4-.4,1.4-.4,1.4-.5,1.4-.5,1.4-.6,1.4-.6,1.3-.7,1.3-.8,1.3-.8,1.3-.8,1.3-.9,1.3-.9,1.3-1,1.3-1,1.2-1.1,1.2-1.1,1.2-1.2,1.2-1.2,1.2-1.3,1.1-1.3,1.1-1.4,1.1-1.4,1.1-1.5,1-1.5,1-1.6,1-1.6,1-1.6,1-1.7.9-1.7.9-1.8.9-1.8.8-1.8.8-1.9.8-1.9.8-2,.7-2,.7-2,.7-2.1.6-2.1.6-2.1.6-2.2.5-2.2.5-2.3.5-2.3.4-2.3.4-2.4.3-2.4.3-2.4.3-2.4.2-2.5.2-2.5.2-2.5.1-2.5.1-2.6v-7.8l-.1-2.7-.1-2.7-.2-2.7-.2-2.7-.2-2.8-.3-2.8-.3-2.8-.4-2.8-.4-2.8-.4-2.8-.5-2.8-.5-2.9-.6-2.9-.6-2.9-.6-2.9-.7-2.9-.7-2.9-.8-2.9-.8-2.9-.9-2.9-.9-2.9-1-2.9-1-2.9-1-2.9-1.1-2.9-1.1-2.9-1.2-2.9-1.2-2.9-1.2-2.9-1.3-2.9-1.3-2.9-1.4-2.9-1.4-2.9-1.5-2.9-1.5-2.9-1.5-2.9L319,381l-1.9-3-1.6-2.9-1.7-2.9-1.7-2.9-1.8-2.8-1.8-2.8-1.8-2.8-1.9-2.8-1.9-2.8-2-2.8-2-2.8-2-2.7-2-2.7-2.1-2.7-2.1-2.7-2.2-2.6-2.2-2.6-2.2-2.6-2.2-2.6-2.3-2.6-2.3-2.5-2.3-2.5-2.4-2.5-2.4-2.4-2.4-2.4-2.4-2.4-2.5-2.4-2.5-2.3-2.5-2.3-2.5-2.3-2.6-2.3-2.6-2.2-2.6-2.2L245,293l-2.7-2.1-2.7-2.1-2.7-2.1-2.7-2-2.8-2-2.8-1.9-2.8-1.9L223,277l-2.8-1.8-2.8-1.8-2.8-1.8-2.9-1.7-2.9-1.7-2.9-1.6-2.8-1.6-2.9-1.6-2.9-1.5-2.9-1.5-2.9-1.5-2.9-1.4-2.9-1.4-2.9-1.3-2.9-1.3-2.9-1.3-3-1.2-2.9-1.2-2.9-1.1-2.9-1.1-3-1-2.9-1-2.9-1-2.9-.9-2.9-.9-2.9-.8-2.9-.8-2.9-.8-2.9-.7-2.9-.7-2.9-.6-3.2-.4-2.9-.5-2.8-.5-2.8-.5-2.8-.4-2.8-.4-2.8-.3-2.8-.3-2.7-.3-2.7-.2-2.7-.2-2.7-.1-2.7-.1H89.1l-2.6.1-2.5.1-2.5.1-2.5.2-2.5.2-2.4.3-2.4.3-2.4.3-2.4.4-2.3.4-2.3.4-2.3.5-2.2.5-2.2.5-2.1.6-2.1.6-2.1.6-2,.7-2,.7-2,.7-1.9.8-1.9.8-1.9.8-1.8.9-1.8.9-1.7.9-1.7.9-1.6,1-1.6,1-1.6,1-1.5,1-1.5,1.1-1.4,1.1L20,255.7l-1.3,1.1-1.3,1.1-1.2,1.2L15,260.3l-1.1,1.2-1.1,1.2-1.1,1.2-1,1.3-1,1.3-.9,1.3-.9,1.3-.8,1.3-.8,1.3L5.6,273l-.7,1.4-.6,1.4-.6,1.4-.5,1.4L2.7,280l-.4,1.4-.4,1.4-.3,1.4-.3,1.4L1.1,287,1,288.4l.1,1.6v2.8l.1,1.4.1,1.4.2,1.4.2,1.4.3,1.4.3,1.4.4,1.4.4,1.4.5,1.4.5,1.4.6,1.4.6,1.4.7,1.3.7,1.3.8,1.3.8,1.3.9,1.3.9,1.3,1,1.3,1,1.3,1.1,1.2,1.1,1.2,1.2,1.2,1.2,1.2L18,326l1.3,1.1,1.4,1.1,1.4,1.1,1.4,1.1,1.5,1.1,1.5,1,1.6,1,1.6,1,1.7,1,1.7.9,1.8.9,1.8.9,1.8.9,1.9.8,1.9.8,2,.8,2,.7,2,.7,2.1.7,2.1.6,2.1.6,2.2.6,2.2.5,2.2.5,2.3.5,2.3.4,2.3.4,2.4.4,2.4.3,2.4.3,2.4.3,2.5.2,2.5.2,2.5.1,2.6.1,2.6.1h5.2l2.7-.1,2.7-.1,2.7-.1,2.7-.2,2.7-.2,2.8-.3,2.8-.3,2.8-.3,2.8-.4,2.8-.4,2.8-.5,2.9-.5,2.9-.6,2.9-.6,2.9-.6,2.9-.7,2.9-.7,2.9-.8,2.9-.8,2.9-.9,2.9-.9,2.9-.9,2.9-1,2.9-1,2.9-1.1,3-1.1,2.9-1.1,2.9-1.2,2.9-1.2,2.9-1.3,2.9-1.3,2.9-1.4,2.9-1.4,2.9-1.4,2.9-1.5,2.9-1.5,2.9-1.6,2.9-1.6,2.9-1.6,2.9-1.7,2.8-1.7,2.9-1.7,2.8-1.8,2.8-1.8,2.8-1.9L227,304l2.8-1.9,2.8-2,2.7-2,2.7-2,2.7-2.1,2.7-2.1,2.7-2.1,2.6-2.2,2.6-2.2,2.6-2.2,2.6-2.3,2.5-2.3,2.5-2.3,2.5-2.4,2.5-2.4,2.4-2.4,2.4-2.4,2.4-2.5,2.4-2.5,2.3-2.5,2.3-2.5,2.3-2.6,2.2-2.6,2.2-2.6,2.2-2.6,2.1-2.7,2.1-2.7,2.1-2.7,2-2.7,2-2.7,2-2.8,1.9-2.8,1.9-2.8,1.9-2.8,1.8-2.8,1.8-2.8,1.8-2.8,1.7-2.9,1.7-2.9,1.6-2.9,1.6-2.9,1.5-2.9,1.5-2.9,1.5-2.9,1.4-2.9,1.4-2.9,1.3-2.9,1.3-2.9,1.3-2.9,1.2-2.9,1.2-2.9,1.1-2.9,1.1-2.9,1.1-2.9,1-2.9,1-2.9.9-2.9.9-2.9.8-2.9.8-2.9.8-2.9.7-2.9.7-2.9.6-2.9.6-2.9.5-2.9.5-2.8.5-2.8.4-2.8.4-2.8.3-2.8.3-2.8.3-2.8.2-2.7.2-2.7.1-2.7.1-2.7.1-2.7V90.8l-.1-2.6-.1-2.6-.1-2.5-.2-2.5-.2-2.5-.3-2.5-.3-2.4-.3-2.4-.4-2.4-.4-2.3-.4-2.3-.5-2.3-.5-2.2-.5-2.2-.6-2.2-.6-2.1-.6-2.1-.7-2.1-.7-2-.7-2-.8-1.9-.8-1.9-.8-1.9-.8-1.8-.9-1.8-.9-1.8-.9-1.7-1-1.7-1-1.6-1-1.6-1-1.5L330,23.9l-1.1-1.4-1.1-1.4-1.1-1.3-1.1-1.3-1.2-1.3L323.2,16,322,14.8l-1.2-1.1-1.2-1.1-1.3-1-1.3-1-1.3-.9-1.3-.9L313.1,8l-1.3-.8-1.3-.7-1.3-.7-1.4-.6-1.4-.6L305,4.1l-1.4-.5-1.4-.4-1.4-.4-1.4-.3L298,2.2,296.6,2l-1.4-.2-1.4-.1-1.4-.1h-2.8l-1.4.1-1.4.2-1.4.2-1.4.3-1.4.3-1.4.4-1.4.4-1.4.5-1.4.5-1.4.6-1.4.6-1.3.7-1.3.7-1.3.8-1.3.8-1.3.9-1.3.9-1.3,1-1.3,1-1.2,1.1-1.2,1.1-1.2,1.2L259,17.1l-1.2,1.2-1.1,1.3-1.1,1.3-1.1,1.4-1.1,1.4-1.1,1.5-1,1.5-1,1.6-1,1.6-1,1.7-.9,1.7-.9,1.7-.9,1.8-.9,1.8-.8,1.9-.8,1.9-.8,1.9-.7,2-.7,2-.7,2-.7,2.1-.6,2.1-.6,2.2-.5,2.2-.5,2.2-.5,2.3-.4,2.3L236,68l-.4,2.4-.3,2.4-.3,2.4-.3,2.5-.2,2.5-.2,2.5-.2,2.5-.1,2.6-.1,2.6v5.2l.1,2.7.1,2.7.1,2.7.2,2.7.2,2.7.3,2.8.3,2.8.3,2.8.4,2.8.4,2.8.5,2.8.5,2.9.5,2.8.6,2.9.6,2.9.7,2.9.7,2.9.8,2.9.8,2.9.8,2.9.9,2.9.9,2.9,1,2.9,1,2.9,1,2.9,1.1,2.9,1.1,2.9,1.2,2.9,1.2,2.9,1.3,2.9,1.3,2.9,1.3,2.9,1.4,2.9,1.4,2.9,1.5,2.9,1.5,2.9,1.5,2.9,1.6,2.9,1.6,2.9,1.7,2.9,1.7,2.9,1.7,2.9,1.8,2.8,1.8,2.8,1.9,2.8,1.9,2.8,1.9,2.8,2,2.8,2,2.7,2,2.7,2.1,2.7,2.1,2.7,2.1,2.7,2.2,2.6,2.2,2.6,2.2,2.6,2.3,2.6,2.3,2.5,2.3,2.5,2.3,2.5,2.4,2.5,2.4,2.4,2.4,2.4,2.5,2.4,2.5,2.4,2.5,2.3,2.5,2.3,2.6,2.3,2.6,2.2,2.6,2.2,2.6,2.2,2.7,2.1,2.7,2.1,2.7,2.1,2.7,2,2.7,2,2.8,2,2.8,1.9,2.8,1.9,2.8,1.9,2.8,1.8,2.8,1.8,2.8,1.8,2.8,1.7,2.9,1.7,2.9,1.6,2.9,1.6,2.9,1.6,2.9,1.5,2.9,1.5,2.9,1.5,2.9,1.4,2.9,1.4,2.9,1.3,2.9,1.3,2.9,1.2,2.9,1.2,2.9,1.2,3,1.1,2.9,1.1,2.9,1,2.9,1,2.9.9,2.9.9,2.9.9,2.9.8,2.9.8,2.9.7,2.9.7,2.9.6,2.9.6,2.9.6,2.8.5,2.8.5,2.8.4,2.8.4,2.8.4,2.8.3,2.8.3,2.7.2,2.7.2,2.7.1,2.7.1,2.7.1h7.8l2.6-.1,2.5-.1,2.5-.2,2.5-.2,2.5-.2,2.4-.3,2.4-.3,2.4-.4,2.3-.4,2.3-.4,2.3-.5,2.2-.5,2.2-.5,2.2-.6,2.1-.6,2.1-.6,2.1-.7,2-.7,2-.7,2-.8,1.9-.8,1.9-.8,1.8-.8,1.8-.9,1.8-.9,1.7-.9,1.7-1,1.6-1,1.6-1,1.5-1,1.5-1.1,1.5-1.1,1.4-1.1,1.4-1.1,1.3-1.1,1.3-1.2,1.2-1.2,1.2-1.2,1.1-1.2,1.1-1.2,1-1.2,1-1.3.9-1.3.9-1.3.8-1.3.8-1.3.7-1.3.7-1.3.6-1.4.6-1.4.5-1.4.5-1.4.4-1.4.4-1.4.3-1.4.3-1.4.2-1.4.2-1.4.1-1.4.1-1.4v-2.8l-.1-1.4-.1-1.4-.2-1.4-.2-1.4-.3-1.4-.3-1.4-.4-1.4V279l-.5-1.4-.5-1.4-.6-1.4-.6-1.4-.7-1.3-.7-1.3-.8-1.3-.8-1.3-.9-1.3-.9-1.3-1-1.3-1-1.2-1.1-1.2-1.1-1.2-1.2-1.2-1.2-1.2-1.3-1.1-1.3-1.1-1.4-1.1-1.4-1.1-1.5-1.1-1.5-1-1.5-1-1.6-1-1.6-1-1.7-.9L550,247l-1.8-.9-1.8-.9-1.9-.8-1.9-.8-1.9-.8-2-.7-2-.7-2-.7-2.1-.7-2.1-.6-2.1-.6-2.2-.6-2.2-.5-2.3-.5-2.3-.4-2.3-.4-2.3-.4-2.4-.3-2.4-.3-2.4-.3-2.5-.2-2.5-.2-2.5-.2-2.6-.1-2.6-.1h-7.8l-2.7.1-2.7.1-2.7.1-2.7.2-2.7.2-2.8.3-2.8.3-2.9.4-2.8.4-2.8.4-2.8.5-2.8.5-2.9.6-2.9.6-2.9.7-2.9.7-2.9.7-2.9.8-2.9.8-2.9.9-2.9.9-2.9,1-2.9,1-2.9,1-2.9,1.1-2.9,1.1-3,1.2-2.9,1.2-2.9,1.3-2.9,1.3-2.9,1.3-2.9,1.4-2.9,1.4-2.9,1.4-2.9,1.5-2.9,1.5-2.9,1.6-2.9,1.6-2.9,1.6-2.9,1.7-2.9,1.7-2.8,1.8-2.8,1.8-2.8,1.8-2.8,1.9-2.8,1.9-2.8,1.9-2.8,2-2.7,2-2.7,2-2.7,2.1-2.7,2.1-2.7,2.1L334,297l-2.6,2.2-2.6,2.2-2.6,2.3-2.5,2.3-2.5,2.3-2.5,2.4-2.5,2.4-2.4,2.4-2.4,2.4-2.4,2.5-2.3,2.5-2.3,2.5-2.3,2.5-2.3,2.6-2.2,2.6-2.2,2.6-2.1,2.6-2.1,2.7-2.1,2.7-2.1,2.7-2,2.7-2,2.8-1.9,2.8-1.9,2.8-1.9,2.8-1.8,2.8-1.8,2.8-1.8,2.8-1.7,2.9-1.7,2.9-1.6,2.9-1.6,2.9-1.6,2.9-1.5,2.9-1.5,2.9-1.5,2.9-1.4,2.9-1.4,2.9-1.3,2.9-1.3,2.9-1.3,2.9-1.2,2.9-1.2,2.9-1.1,2.9-1.1,3-1,2.9-1,2.9-1,2.9-.9,2.9-.9,2.9-.8,2.9-.8,2.9-.7,2.9-.7,2.9-.7,2.9-.6,2.9-.6,2.9-.5,2.9-.5,2.8-.4,2.8-.4,2.8L236,467l-.3,2.8-.3,2.8-.2,2.7L235,478l-.2,2.7-.1,2.7-.1,2.7V494l.1,2.6.1,2.5.2,2.5.2,2.5.2,2.5.3,2.4.3,2.4.3,2.4.4,2.3.4,2.3.4,2.3.5,2.3.5,2.2.5,2.2.6,2.2.6,2.1.6,2.1.7,2,.7,2,.7,2,.8,1.9.8,1.9.8,1.8.8,1.8.9,1.8.9,1.7.9,1.7,1,1.7,1,1.6,1,1.6,1,1.5,1.1,1.5,1.1,1.4,1.1,1.4,1.1,1.3,1.1,1.3,1.2,1.2,1.2,1.2,1.2,1.1,1.2,1.1,1.2,1.1,1.3,1,1.3.9,1.3.9,1.3.8,1.3.8,1.3.8,1.3.7,1.3.7,1.3.6,1.4.6,1.4.5,1.4.5,1.4.4,1.4.4,1.4.3,1.4.3,1.4.2,1.4.2,1.4.1h2.8l1.4-.1,1.4-.1,1.4-.2,1.4-.2,1.4-.3,1.4-.3,1.4-.4,1.4-.4,1.4-.5,1.4-.5,1.4-.6,1.3-.6,1.3-.7,1.3-.7,1.3-.8,1.3-.8,1.3-.9,1.3-.9,1.3-1,1.2-1L321,570l1.2-1.1,1.2-1.2,1.2-1.2,1.2-1.3,1.1-1.3,1.1-1.4,1.1-1.4,1.1-1.4,1-1.5,1-1.5,1-1.6,1-1.6,1-1.7.9-1.7.9-1.8.9-1.8.8-1.8.8-1.9.8-1.9.8-2,.7-2,.7-2,.7-2.1.6-2.1.6-2.1.6-2.2.5-2.2.5-2.2.5-2.3.4-2.3.4-2.3.4-2.4.3-2.4.3-2.4.3-2.5.2-2.5.2-2.5.1-2.5.1-2.6.1-2.6v-5.2l-.1-2.6-.1-2.7-.1-2.7-.2-2.7-.2-2.7-.3-2.8-.3-2.8-.3-2.8-.4-2.8-.4-2.8-.5-2.8-.5-2.8-.8-2.5-.6-2.9-.6-2.9-.7-2.9-.7-2.9-.8-2.9-.8-2.9-.8-2.9-.9-2.9-.9-2.9-1-2.9-1-2.9-1.1-2.9-1.1-3.2-1.1-2.9-1.2-2.9-1.2-2.9-1.3-2.9-1.3-2.9-1.4-2.9-1.4-2.9-1.4-2.9-1.5-2.9-1.5-2.9-1.6-2.9-1.6-2.9-1.6-2.9-1.7-2.9-1.7-2.9-1.8-2.9-1.8-2.8-1.8-2.8-1.9-2.8-1.9-2.8-1.9-2.8-2-2.8-2-2.7-2-2.7-2.1-2.7-2.1-2.7-2.1-2.7-2.2-2.6-2.2-2.6-2.2-2.6-2.3-2.6-2.3-2.5-2.3-2.5-2.3-2.5-2.4-2.5-2.4-2.4-2.5-2.5-2.5-2.4-2.5-2.4-2.5-2.3-2.5-2.3-2.6-2.3-2.6-2.2-2.6-2.2-2.6-2.2-2.7-2.1-2.7-2.1-2.7-2.1-2.7-2-2.7-2-2.8-2-2.8-1.9-2.8-1.9-2.8-1.9-2.8-1.8-2.8-1.8-2.8-1.7-2.9-1.7-2.9-1.7-2.9-1.6-2.9-1.6-2.9-1.5-2.9-1.5-2.9-1.5-2.9-1.4-2.9-1.4-2.9-1.4-2.9-1.3-2.9-1.3-3-1.2-2.9-1.2L169,249l-2.9-1.1-3-1.1-2.9-1-2.9-1-2.9-.9-2.9-.9-2.9-.8-2.9-.8-2.9-.8-2.9-.7-2.9-.7-2.9-.6-2.9-.6-2.9-.6-2.8-.5-2.8-.5-2.8-.4-2.8-.4-2.8-.3-2.8-.3-2.8-.3-2.7-.2-2.7-.2-2.7-.1-2.7-.1H90.1l-2.6.1-2.6.1-2.5.1-2.5.2-2.5.2-2.4.3-2.4.3-2.4.3-2.4.4-2.3.4-2.3.4-2.3.5-2.2.5-2.2.5-2.2.6-2.1.6-2.1.6-2.1.7-2,.7-2,.7-1.9.8-1.9.8-1.9.8-1.8.9-1.8.9-1.8.9-1.7.9-1.6,1-1.6,1-1.6,1-1.5,1-1.5,1.1L22,254.5l-1.4,1.1-1.4,1.1-1.3,1.1L16.6,259l-1.2,1.2-1.2,1.2-1.1,1.2L12,263.8l-1,1.3-1,1.3-.9,1.3L8.2,269l-.8,1.3-.8,1.3-.7,1.3-.7,1.3-.6,1.4L4,277l-.5,1.4L3,279.8l-.4,1.4-.4,1.4L1.9,284l-.3,1.4-.2,1.4-.1,1.4-.1,1.4L1.1,291v2.8l.1,1.4.1,1.4.2,1.4.3,1.4.3,1.4.3,1.4.4,1.4.5,1.4.5,1.4.6,1.4.6,1.4.7,1.4.7,1.3.8,1.3.8,1.3.9,1.3.9,1.3,1,1.3,1,1.3,1.1,1.2,1.1,1.2,1.2,1.2,1.2,1.2,1.2,1.2,1.3,1.1,1.3,1.1,1.4,1.1,1.4,1.1,1.5,1.1,1.5,1,1.6,1,1.6,1,1.6,1,1.7.9,1.7.9,1.8.9,1.8.9,1.9.8,1.9.8,1.9.8,2,.7,2,.7,2.1.7,2.1.6,2.1.6,2.2.6,2.2.5,2.2.5,2.3.5,2.3.4,2.3.4,2.3.4,2.4.3,2.4.3,2.4.3,2.5.2,2.5.2,2.5.1,2.6.1,2.6.1h7.8l2.7-.1,2.7-.1,2.7-.2,2.7-.2,2.8-.3,2.8-.3,2.8-.3,2.8-.4,2.8-.4,2.8-.5,2.9-.5,2.8-.5,2.9-.6,2.9-.6,2.9-.7,2.9-.7,2.9-.8,2.9-.8,2.9-.8,2.9-.9,2.9-.9,2.9-1,2.9-1,2.9-1,3-1.1,2.9-1.1,2.9-1.2,2.9-1.2,2.9-1.3,2.9-1.3,2.9-1.3,2.9-1.4,2.9-1.4,2.9-1.5,2.9-1.5,2.9-1.5,2.9-1.6,2.9-1.6,2.9-1.7,2.9-1.7,2.9-1.7,2.8-1.8,2.8-1.8,2.8-1.9,2.8-1.9,2.8-1.9,2.8-2,2.8-2,2.7-2,2.7-2.1,2.7-2.1,2.7-2.1,2.6-2.2,2.6-2.2,2.6-2.2,2.6-2.3,2.5-2.3,2.5-2.3,2.5-2.4,2.5-2.4,2.5-2.4,2.4-2.4,2.4-2.5,2.4-2.5,2.3-2.5,2.3-2.5,2.3-2.6,2.2-2.6,2.2-2.6,2.2-2.6,2.1-2.7,2.1-2.7,2.1-2.7,2-2.7,2-2.7,2-2.8,1.9-2.8,1.9-2.8,1.9-2.8,1.8-2.8,1.8-2.8,1.8-2.8,1.7-2.9,1.7-2.9,1.6-2.9,1.6-2.9,1.6-2.9,1.5-2.9,1.5-2.9,1.4-2.9,1.4-2.9,1.4-2.9,1.3-2.9,1.3-2.9,1.2-2.9,1.2-2.9,1.2-2.9,1.1-2.9,1.1-2.9,1-2.9,1-2.9.9-2.9.9-2.9.9-2.9.8-2.9.8-2.9.7-2.9.7-2.9.7-2.9.6-2.9.6-2.9.5-2.8.5-2.8.4-2.8.4-2.8.3-2.8.3-2.8.3-2.8.2-2.7.2-2.7.1-2.7.1-2.7.1-2.7V91.1l-.1-2.6-.1-2.6-.1-2.5-.2-2.5-.2-2.5-.2-2.5-.3-2.4-.3-2.4-.3-2.4-.4-2.3-.4-2.3-.5-2.3-.5-2.2-.5-2.2-.6-2.2-.6-2.1-.6-2.1-.7-2.1-.7-2-.7-2-.8-2-.8-1.9-.8-1.9-.8-1.8-.9-1.8-.9-1.8-.9-1.7-.9-1.7-1-1.6-1-1.6-1-1.5-1-1.5-1.1-1.5L328,21.2l-1.1-1.4-1.1-1.3-1.2-1.3L323.4,16l-1.2-1.2L321,13.7l-1.2-1.1-1.2-1-1.3-1L316,9.7l-1.3-.9L313.4,8l-1.3-.8-1.3-.7-1.3-.7-1.4-.6-1.4-.6-1.4-.5-1.4-.5-1.4-.4-1.4-.4-1.4-.3-1.4-.3L296.9,2l-1.4-.2-1.4-.1-1.4-.1h-2.8l-1.4.1-1.4.1-1.4.2-1.4.2-1.4.3-1.4.3-1.4.4-1.4.4-1.4.5-1.4.5-1.4.6-1.3.6-1.3.7-1.3.7-1.3.8-1.3.9-1.3.9-1.3.9-1.3,1-1.2,1-1.2,1.1-1.2,1.1-1.2,1.2-1.2,1.2L257,18.6l-1.1,1.3-1.1,1.4-1.1,1.4-1.1,1.5-1,1.5-1,1.6-1,1.6-1,1.6-.9,1.7-.9,1.7-.9,1.8-.9,1.8-.8,1.9-.8,1.9-.8,1.9-.8,2-.7,2-.7,2-.6,2.1-.6,2.1-.6,2.2-.6,2.2-.5,2.2-.5,2.3-.4,2.3-.4,2.3-.4,2.3-.3,2.4-.3,2.4-.3,2.4-.2,2.5-.2,2.5-.2,2.5-.1,2.5-.1,2.6v7.8l.1,2.7.1,2.7.2,2.7.2,2.7.2,2.7.3,2.8.3,2.8.4,2.8.4,2.8.5,2.8.5,2.8.5,2.9.6,2.9.6,2.9.7,2.9.7,2.9.7,2.9.8,2.9.8,2.9.9,2.9.9,2.9,1,2.9,1,2.9,1,2.9,1.1,2.9,1.1,3,1.2,2.9,1.2,2.9,1.2,2.9,1.3,2.9,1.3,2.9,1.4,2.9,1.4,2.9,1.5,2.9,1.5,2.9,1.5,2.9,1.6,2.9,1.6,2.9,1.6,2.9,1.7,2.9,1.7,2.9,1.8,2.8,1.8,2.8,1.8,2.8,1.9,2.8,1.9,2.8,1.9,2.8,2,2.8,2,2.7,2,2.7,2.1,2.7,2.1,2.7,2.1,2.7,2.2,2.6,2.2,2.6,2.2,2.6,2.3,2.6,2.3,2.5,2.3,2.5,2.4,2.5,2.4,2.4,2.4,2.4,2.5,2.4,2.5,2.4,2.5,2.3,2.5,2.3,2.5,2.3,2.6,2.3,2.6,2.2,2.6,2.2,2.7,2.1,2.7,2.1,2.7,2.1,2.7,2.1,2.7,2,2.8,2,2.8,2,2.8,1.9,2.8,1.9,2.8,1.8,2.8,1.8,2.8,1.8,2.9,1.7,2.9,1.7,2.9,1.6,2.9,1.6,2.9,1.6,2.9,1.5,2.9,1.5,2.9,1.4L395,326l2.9,1.4,2.9,1.3,2.9,1.3,2.9,1.3,2.9,1.2,2.9,1.2,3,1.1,2.9,1.1,2.9,1,2.9,1,2.9,1,2.9.9,2.9.9,2.9.8,2.9.8,2.9.8,2.9.7,2.9.7,2.9.6,2.9.6,2.8.5,2.8.5,2.8.5,2.8.4,2.8.4,2.8.3,2.8.3,2.8.2,2.7.2,2.7.2,2.7.1,2.7.1h7.8l2.6-.1,2.5-.1,2.5-.2,2.5-.2,2.5-.2,2.4-.3,2.4-.3,2.4-.3,2.3-.4,2.3-.4,2.3-.4,2.3-.5,2.2-.5,2.2-.5,2.2-.6,2.1-.6,2.1-.6,2-.7,2-.7,2-.8,1.9-.8,1.9-.8,1.9-.8,1.8-.9,1.8-.9,1.7-.9,1.7-.9,1.7-1,1.6-1,1.5-1,1.5-1,1.5-1.1,1.4-1.1,1.4-1.1,1.3-1.1,1.3-1.1,1.2-1.2,1.2-1.2,1.1-1.2,1.1-1.2,1-1.2,1-1.3,1-1.3.9-1.3.9-1.3.8-1.3.8-1.3.7-1.3.6-1.4.6-1.4.5-1.4.5-1.4.5-1.4.4-1.4.4-1.4.3-1.4.2-1.4.2-1.4.1-1.4.1-1.4v-2.8l-.1-1.4-.1-1.4-.2-1.4-.2-1.4-.3-1.4-.3-1.4-.4-1.4-.4-1.4-.5-1.4-.5-1.4-.6-1.4-.6-1.4-.7-1.3-.7-1.3-.8-1.3-.8-1.3-.9-1.3-.9-1.3-1-1.3-1-1.3-1.1-1.2-1.1-1.2-1.2-1.2-1.2-1.2-1.3-1.1-1.3-1.1-1.3-1.1-1.4-1.1-1.4-1.1-1.5-1-1.5-1-1.6-1-1.6-1-1.7-1-1.7-.9-1.8-.9-1.8-.9-1.8-.9-1.9-.8-1.9-.8-2-.8-2-.7-2-.7-2.1-.7-2.1-.6-2.1-.6-2.2-.6-2.2-.5-2.2-.5-2.3-.5-2.3-.4-2.3-.4-2.4-.4-2.4-.3-2.4-.3-2.5-.3-2.5-.2-2.5-.2-2.5-.1-2.6-.1h-7.8l-2.7.1-2.7.1-2.7.1-2.7.2-2.7.2-2.8.3-2.8.3-2.8.4-2.8.4-2.8.4-2.8.5-2.8.5-2.9.6-2.9.6-2.9.6-2.9.7-2.9.7-2.9.8-2.9.8-2.9.9-2.9.9-2.9.9-2.9,1-2.9,1-2.9,1.1-2.9,1.1-2.9,1.2-2.9,1.2L405,253l-2.9,1.3-2.9,1.3-2.9,1.3-2.9,1.4-2.9,1.4-2.9,1.5-2.9,1.5-2.9,1.6-2.9,1.6-2.9,1.6-2.9,1.7-2.9,1.7-2.8,1.8-2.8,1.8-2.8,1.8-2.8,1.9-2.8,1.9-2.8,1.9-2.8,2-2.7,2-2.7,2-2.7,2.1-2.7,2.1-2.7,2.1-2.6,2.2-2.6,2.2-2.6,2.2-2.6,2.3-2.5,2.3-2.5,2.3-2.6,2.2-2.5,2.4-2.4,2.4-2.4,2.4-2.4,2.5-2.3,2.5-2.3,2.5-2.3,2.5-2.3,2.6-2.2,2.6-2.2,2.6-2.2,2.6-2.1,2.7-2.1,2.7-2.1,2.7-2,2.7-2,2.7-2,2.8-1.9,2.8-1.9,2.8-1.8,2.8-1.8,2.8-1.8,2.8-1.7,2.9-1.7,2.9-1.7,2.9-1.6,2.9-1.6,2.9-1.5,2.9-1.5,2.9-1.5,2.9-1.4,2.9-1.4,2.9-1.3,2.9-1.3,2.9-1.3,2.9-1.2,2.9-1.2,2.9-1.1,2.9-1.1,3-1.1,2.9-1,2.9-1,2.9-.9,2.9-.9,2.9-.9,2.9-.8,2.9-.8,2.9-.7,2.9-.7,2.9-.6,2.9-.6,2.9-.5,2.9-.5,2.8-.5,2.8-.4,2.8-.4,2.8-.3,2.8-.3,2.8-.3,2.8-.2,2.7-.2,2.7-.1,2.7-.1,2.7-.1,2.7v5.2l.1,2.6.1,2.5.1,2.5.2,2.5.2,2.5.3,2.4.3,2.4.3,2.4.4,2.4.4,2.3.4,2.3.5,2.3.5,2.2.5,2.2.6,2.2.6,2.1.6,2.1.7,2,.7,2,.7,2,.8,1.9.8,1.9.8,1.9.8,1.8.9,1.8.9,1.7.9,1.7,1,1.6,1,1.6,1,1.6,1,1.5,1.1,1.5,1.1,1.4,1.1,1.4,1.1,1.3,1.1,1.3,1.2,1.3,1.2,1.2,1.2,1.2,1.2,1.1,1.2,1.1,1.3,1,1.3,1,1.3.9,1.3.9,1.3.8,1.3.8,1.3.7,1.4.7,1.3.6,1.4.6,1.4.5,1.4.5,1.4.4,1.4.4,1.4.3,1.4.3,1.4.2,1.4.2,1.4.1,1.4.1h2.8l1.4-.1,1.4-.1,1.4-.2,1.4-.3,1.4-.3,1.4-.4,1.4-.4,1.4-.5,1.4-.5,1.4-.6,1.3-.6,1.4-.7,1.3-.7,1.3-.8,1.3-.8,1.3-.9,1.3-.9,1.3-1,1.3-1,1.2-1.1,1.2-1.1,1.2-1.2,1.2-1.2,1.2-1.3,1.1-1.3,1.1-1.3,1.1-1.4,1.1-1.4,1.1-1.5,1-1.5,1-1.6,1-1.6,1-1.7.9-1.7.9-1.7.9-1.8.8-1.8.8-1.9.8-1.9.8-1.9.7-2,.7-2,.7-2,.6-2.1.6-2.1.6-2.2.5-2.2.5-2.2.5-2.3.4-2.3.4-2.3.4-2.4.3-2.4.3-2.4.3-2.4.2-2.5.2-2.5.1-2.5.1-2.6.1-2.6v-5.2l-.1-2.6-.1-2.7-.1-2.7-.2-2.7-.2-2.7-.3-2.8-.3-2.8-.3-2.8-.4-2.8-.4-2.8-.5-2.8-.5-2.8-.5-2.8-.6-2.9-.6-2.9-.7-2.9-.7-2.9-.8-2.9-.8-2.9-.8-2.9-.9-2.9-.9-2.9-1-2.9-1-2.9-1-2.9-1.1-2.9-1.1-2.9-1.2-2.9-1.2-3-1.3-2.9-1.3-2.9-1.3-2.9-1.4-2.9-1.4-2.9-1.5-2.9-1.5-2.9-1.5-2.9-1.6-2.9-1.6-2.9-1.7-2.9L313,371l-1.7-2.9-1.8-2.8-1.8-2.8-1.8-2.8-1.9-2.8-1.9-2.8-2-2.8-2-2.7-2-2.7-2.1-2.7-2.1-2.7-2.1-2.7-2.2-2.6-2.2-2.6-2.2-2.6-2.3-2.6-2.3-2.6-2.3-2.5-2.3-2.5-2.4-2.5-2.4-2.4-2.4-2.4-2.5-2.4-2.5-2.4-2.5-2.3-2.5-2.3-2.6-2.3-2.6-2.2-2.6-2.2-2.6-2.2-2.7-2.1L241,290l-2.7-2.1-2.7-2-2.7-2-2.8-2-2.8-1.9-2.8-1.9-2.8-1.9-2.8-1.8-2.8-1.8-2.8-1.8-2.9-1.7-2.9-1.7-2.9-1.6-2.9-1.6-2.9-1.6-2.9-1.5-2.9-1.5-2.9-1.4-2.9-1.4-2.9-1.4-2.9-1.3-2.9-1.3-2.9-1.2-3-1.2-2.9-1.1-2.9-1.1-2.9-1.1-2.9-1-2.9-1-2.9-.9-2.9-.9-2.9-.9-2.9-.8-2.9-.8-2.9-.7-2.9-.7-2.9-.6-2.9-.6-2.9-.6-2.8-.5-2.8-.5-2.8-.4-2.8-.4-2.8-.4-2.8-.3-2.8-.3-2.7-.2-2.7-.2-2.7-.1-2.7-.1-2.6-.1H88.3l-2.6.1-2.5.1-2.5.2-2.5.2-2.5.3-2.4.3-2.4.3-2.4.4-2.3.4-2.3.4-2.3.5-2.2.5-2.2.5-2.2.6-2.1.6-2.1.6-2.1.7-2,.7-2,.7-2,.8-1.9.8-1.9.8-1.8.8-1.8.9-1.8.9-1.7.9-1.7,1-1.6,1-1.6,1-1.5,1-1.5,1-1.5,1.1L21,255.3l-1.4,1.1-1.3,1.1L17,258.7l-1.2,1.2-1.2,1.2-1.1,1.2-1.1,1.2-1,1.3-1,1.3-.9,1.3-.9,1.3L7.8,270,7,271.3l-.7,1.3-.7,1.3L5,275.3l-.6,1.4-.5,1.4-.5,1.4L3,280.9l-.4,1.4-.3,1.4L2,285.1l-.2,1.4-.2,1.4-.1,1.4-.1,1.4v2.8l.1,1.4.1,1.4.2,1.4.2,1.4.3,1.4.3,1.4.4,1.4.4,1.4.5,1.4.5,1.4.6,1.4.6,1.4.7,1.3.8,1.3.8,1.3.9,1.3.9,1.3.9,1.3,1,1.3,1,1.2,1.1,1.2,1.1,1.2,1.2,1.2,1.2,1.2,1.3,1.1,1.3,1.1,1.4,1.1,1.4,1.1,1.5,1.1,1.5,1,1.5,1,1.6,1,1.6,1,1.7.9,1.7.9,1.8.9,1.8.9,1.8.8,1.9.8,1.9.8,2,.8,2,.7,2,.7,2.1.6,2.1.6,2.1.6,2.2.6,2.2.5,2.3.5,2.3.5,2.3.4,2.3.4,2.4.4,2.4.3,2.4.3,2.5.2,2.5.2,2.5.2,2.5.1,2.6.1h7.8l2.7-.1,2.7-.1,2.7-.2,2.7-.2,2.7-.2,2.8-.3,2.8-.3,2.8-.4,2.8-.4,2.8-.4,2.8-.5,2.9-.5,2.9-.6,2.9-.6,2.9-.7,2.9-.7,2.9-.7,2.9-.8,2.9-.8,2.9-.9,2.9-.9,2.9-1,2.9-1,2.9-1,2.9-1.1,2.9-1.1,2.9-1.2,2.9-1.2,2.9-1.2,2.9-1.3,2.9-1.3,2.9-1.4,2.9-1.4,2.9-1.5,2.9-1.5,2.9-1.5,2.9-1.6,2.9-1.6,2.9-1.6,2.9-1.7,2.9-1.7,2.8-1.8,2.8-1.8,2.8-1.8,2.8-1.9,2.8-1.9,2.8-2,2.8-2,2.7-2,2.7-2,2.7-2.1,2.7-2.1,2.6-2.1,2.6-2.2,2.6-2.2,2.6-2.2,2.6-2.3,2.5-2.3,2.5-2.3,2.5-2.4,2.5-2.4,2.4-2.4,2.4-2.4,2.4-2.5,2.3-2.5,2.3-2.5,2.3-2.6,2.3-2.6,2.2-2.6,2.2-2.6,2.2-2.6,2.1-2.7,2.1-2.7,2.1-2.7,2-2.7,2-2.7,1.9-2.8,1.9-2.8,1.9-2.8,1.8-2.8,1.8-2.8,1.8-2.8,1.7-2.8,1.7-2.9,1.6-2.9,1.6-2.9,1.6-2.9,1.5-2.9,1.5-2.9,1.5-2.9,1.4-2.9,1.4-2.9,1.3-2.9,1.3-2.9,1.3-2.9,1.2-2.9,1.2-3,1.1-2.9,1.1-2.9,1-2.9,1-2.9,1-2.9.9-2.9.9-2.9.8-2.9.8-2.9.7-2.9.7-2.9.7-2.9.6-2.9.6-2.9.5-2.9.5-2.8.5-2.8.4-2.8.4-2.8.3-2.8.3-2.8.2-2.8.2-2.7.2-2.7.1-2.7.1-2.7V89.8l-.1-2.6-.1-2.6-.1-2.5-.2-2.5-.2-2.5-.3-2.4-.3-2.4-.3-2.4-.4-2.3-.4-2.3-.4-2.3-.5-2.3-.5-2.2-.5-2.2-.6-2.2-.6-2.1-.7-2.1-.7-2-.7-2-.7-2-.8-1.9-.8-1.9-.8-1.8-.9-1.8-.9-1.8-.9-1.7-.9-1.7-1-1.7-1-1.6-1-1.6-1-1.5-1.1-1.5L328.4,22l-1.1-1.4-1.1-1.3L325,18l-1.2-1.2-1.2-1.2-1.2-1.1-1.2-1.1-1.2-1-1.3-1-1.3-1-1.3-.9-1.3-.8-1.3-.8-1.3-.8-1.3-.7-1.3-.7-1.4-.6-1.4-.6L304.4,4,303,3.6l-1.4-.4-1.4-.3-1.4-.3-1.4-.3L296,2.1,294.6,2l-1.4-.1h-2.8L289,2l-1.4.1-1.4.2-1.4.2-1.4.3-1.4.3-1.4.4-1.4.4-1.4.5-1.4.5-1.4.6-1.4.6-1.3.7-1.3.7-1.3.8-1.3.8-1.3.9-1.3.9-1.3,1-1.3,1L262,14l-1.2,1.1-1.2,1.2-1.2,1.2-1.2,1.3-1.1,1.3L255,21.5l-1.1,1.4-1.1,1.4-1,1.5-1,1.5-1,1.6-1,1.6-1,1.7-.9,1.7-.9,1.8-.9,1.8-.8,1.8-.8,1.9-.8,1.9-.8,1.9-.7,2-.7,2-.7,2.1-.6,2.1-.6,2.1-.6,2.2-.5,2.2-.5,2.2-.5,2.3-.4,2.3-.4,2.3-.4,2.4-.3,2.4-.3,2.4-.3,2.4-.2,2.5-.2,2.5-.1,2.5-.1,2.6-.1,2.6v5.2l.1,2.7.1,2.7.1,2.7.2,2.7.2,2.7.3,2.8.3,2.8.3,2.8.4,2.8.4,2.8.5,2.8.5,2.8.6,2.9.6,2.9.6,2.9.7,2.9.7,2.9.8,2.9.8,2.9.9,2.9.9,2.9.9,2.9,1,2.9,1,2.9,1.1,2.9,1.1,2.9,1.1,2.9,1.2,2.9,1.2,2.9,1.3,2.9,1.3,2.9,1.4,2.9,1.4,2.9,1.4,2.9,1.5,2.9,1.5,2.9,1.5,2.9,1.6,2.9,1.6,2.9,1.7,2.9,1.7,2.9,1.8,2.8,1.8,2.8,1.8,2.8,1.9,2.8,1.9,2.8,1.9,2.8,2,2.8,2,2.7,2,2.7,2.1,2.7,2.1,2.7,2.1,2.6,2.2,2.6,2.2,2.6,2.2,2.6,2.3,2.6,2.3,2.5,2.3,2.5,2.4,2.5,2.4,2.5,2.4,2.4,2.4,2.4,2.5,2.4,2.5,2.4,2.5,2.3,2.6,2.3,2.6,2.3,2.6,2.2,2.6,2.2,2.6,2.2,2.7,2.1,2.7,2.1,2.7,2.1,2.7,2,2.7,2,2.8,2,2.8,1.9,2.8,1.9,2.8,1.9,2.8,1.8,2.8,1.8,2.8,1.7,2.9,1.7,2.9,1.7,2.9,1.6,2.9,1.6,2.9,1.5,2.9,1.5,2.9,1.5,2.9,1.4,2.9,1.4,2.9,1.3,2.9,1.3,2.9,1.3,2.9,1.2,2.9,1.2,3,1.1,2.9,1.1,2.9,1,2.9,1,2.9,1,2.9.9,2.9.9,2.9.8,2.9.8,2.9.8,2.9.7,2.9.7,2.9.6,2.9.6,2.9.5,2.8.5,2.8.5,2.8.4,2.8.4,2.8.3,2.8.3,2.8.3,2.7.2,2.7.2,2.7.1,2.7.1,2.7.1h5.2l2.6-.1,2.6-.1,2.5-.1,2.5-.2,2.5-.2,2.4-.3,2.4-.3,2.4-.3,2.4-.4,2.3-.4,2.3-.4,2.3-.5,2.2-.5,2.2-.5,2.2-.6,2.1-.6,2.1-.6,2-.7,2-.7,2-.7,1.9-.8,1.9-.8,1.9-.8,1.8-.9,1.8-.9,1.7-.9,1.7-.9,1.7-1,1.6-1,1.6-1,1.5-1,1.5-1.1,1.4-1.1,1.4-1.1,1.4-1.1,1.3-1.1,1.3-1.2,1.2-1.2,1.2-1.2,1.1-1.2,1.1-1.2,1-1.3,1-1.3.9-1.3.9-1.3.8-1.3.8-1.3.7-1.3.7-1.3.6-1.4.6-1.4.5-1.4.5-1.4.4-1.4.4-1.4.3-1.4.3-1.4.2-1.4.2-1.4.1-1.4v-4.2l-.1-1.4-.1-1.4-.2-1.4-.3-1.4-.3-1.4-.4-1.4-.4-1.4-.5-1.4-.5-1.4-.6-1.4-.6-1.4L577,273l-.7-1.3-.8-1.3-.8-1.3-.9-1.3-.9-1.3-1-1.3-1-1.3-1.1-1.2-1.1-1.2-1.1-1.2-1.2-1.2-1.3-1.2-1.3-1.1-1.3-1.1-1.4-1.1-1.4-1.1-1.5-1.1-1.5-1-1.6-1-1.6-1-1.6-1-1.7-.9-1.7-.9-1.8-.9-1.8-.8-1.9-.8-1.9-.8-1.9-.8-2-.7-2-.7-2-.7-2.1-.6-2.1-.6-2.2-.6-1.7-.6-2.2-.5-2.3-.5-2.3-.4-2.3-.4-2.4-.4-2.4-.3-2.4-.3-2.5-.3-2.5-.2-2.5-.2-2.5-.1-2.5-.1-2.6-.1h-7.9l-2.7.1-2.7.1-2.7.2-2.7.2-2.8.3-2.8.3-2.8.3-2.8.4-2.8.4-2.8.5-2.8.5-2.9.5-2.9.6-2.9.6-2.9.7-2.9.7-2.9.8-2.9.8-2.9.8-2.9.9-2.9.9-2.9,1-2.9,1-2.9,1-2.9,1.1-2.9,1.1-3,1.2-2.9,1.2-2.9,1.3-2.9,1.3-2.9,1.3-2.9,1.4-2.9,1.4-2.9,1.5-2.9,1.5-2.9,1.5-2.9,1.6-2.9,1.6-2.9,1.7-2.9,1.7-2.8,1.7-2.8,1.8-2.8,1.8-2.8,1.9-2.8,1.9-2.8,1.9-2.8,2-2.7,2-2.7,2-2.7,2.1-2.7,2.1-2.7,2.1-2.6,2.2-2.6,2.2-2.6,2.2-2.6,2.3-2.5,2.3-2.5,2.3-2.5,2.3-2.5,2.4-2.4,2.4-2.4,2.4-2.8,2.5-2.4,2.5-2.3,2.5-2.3,2.5-2.3,2.6-2.2,2.6-2.2,2.6-2.2,2.6-2.1,2.7-2.1,2.7-2.1,2.7-2,2.7-2,2.7-2,2.8L280,356l-1.9,2.8-1.9,2.8-1.8,2.8-1.8,2.8-1.8,2.8-1.7,2.9-1.7,2.9-1.6,2.9-1.6,2.9-1.6,2.9-1.5,2.9-1.5,2.9-1.4,2.9-1.4,2.9-1.4,2.9-1.3,2.9-1.3,2.9-1.2,2.9-1.2,2.9-1.2,2.9-1.1,2.9-1.1,3-1,2.9-1,2.9-.9,2.9-.9,2.9-.9,2.9-.8,2.9-.8,2.9-.7,2.9-.7,2.9-.6,2.9-.6,2.9-.6,2.9-.5,2.9-.5,2.8-.4,2.8-.4,2.8-.3,2.8-.3,2.8-.3,2.8-.2,2.7-.2,2.7-.2,2.7-.1,2.7-.1,2.7v5.2l.1,2.6.1,2.6.1,2.5.2,2.5.2,2.5.2,2.5.3,2.4.3,2.4.3,2.4.4,2.3.4,2.3.5,2.3.5,2.2.5,2.2.6,2.2.6,2.1.6,2.1.7,2.1.7,2,.7,2,.8,2,.8,1.9.8,1.9.8,1.8.9,1.8.9,1.8.9,1.7,1,1.7,1,1.6,1,1.6,1,1.5,1,1.5,1.1,1.5,1.1,1.4,1.1,1.4,1.1,1.3,1.2,1.3,1.2,1.2,1.2,1.2,1.2,1.1,1.2,1.1,1.3,1,1.3,1,1.3.9,1.3.9,1.3.8,1.3.8,1.3.7,1.3.7,1.4.6,1.4.6,1.4.5,1.4.5,1.4.4,1.4.4,1.4.3,1.4.3,1.4.2,1.4.2,1.4.1,1.4.1h2.8l1.4-.1,1.4-.1,1.4-.2,1.4-.2,1.4-.3,1.4-.3,1.4-.4,1.4-.4,1.4-.5,1.4-.5,1.4-.6,1.3-.6,1.3-.7,1.3-.8,1.3-.8,1.3-.8,1.3-.9,1.3-1,1.3-1,1.2-1,1.2-1.1,1.2-1.1,1.2-1.2,1.2-1.2,1.2-1.3,1.1-1.3,1.1-1.4,1.1-1.4,1.1-1.5,1.1-1.5,1-1.5,1-1.6,1-1.6.9-1.7.9-1.7.9-1.8.9-1.8.8-1.8.8-1.9.8-1.9.7-2,.7-2,.7-2,.7-2.1.6-2.1.6-2.1.6-2.2.5-2.2.5-2.3.4-2.3.4-2.3.4-2.3.3-2.4.3-2.4.3-2.4.2-2.5.2-2.5.2-2.5.1-2.5.1-2.6v-7.8l-.1-2.7-.1-2.7-.2-2.7-.2-2.7-.2-2.7-.3-2.8-.3-2.8-.4-2.8-.4-2.8-.4-2.8-.5-2.8-.5-2.9-.6-2.9-.6-2.9-.7-2.9-.7-2.9-.7-2.9-.8-2.9-.8-2.9-.9-2.9-.9-2.9-1-2.9-1-2.9-1-2.9-1.1-2.9-1.1-2.9-1.2-2.9-1.2-3-1.2-2.9-1.3-2.9-1.3-2.9-1.4-2.9-1.4-2.9-1.4-2.9-1.5-2.9-1.5-2.9-1.6-2.9-1.6-2.9-1.7-2.9-1.7-2.9-1.7-2.9-1.8-2.8-1.8-2.8-1.8-2.8-1.9-2.8-1.9-2.8-1.9-2.8-2-2.8-2-2.7-2-2.7-2.1-2.7-2.1-2.7-2.2-2.6-2.2-2.6-2.2-2.6-2.3-2.6-2.3-2.6-2.3-2.5-2.3-2.5-2.4-2.5-2.4-2.5-2.4-2.4-2.5-2.4-2.5-2.4-2.5-2.3-2.5-2.3-2.5-2.3-2.6-2.3-2.6-2.2-2.6-2.2-2.6-2.2-2.7-2.1-2.7-2.1-2.7-2.1-2.7-2-2.7-2-2.8-2-2.8-1.9-2.8-1.9-2.8-1.8-2.8-1.8-2.8-1.8-2.8-1.7-2.9-1.7-2.9-1.6-2.9-1.6-2.9-1.6-2.9-1.5-2.9-1.5-2.9-1.5-2.9-1.4-2.9-1.4-2.9-1.3-2.9-1.3-2.9-1.2-3-1.2-2.9-1.2-2.9-1.1-2.9-1.1-2.9-1-2.9-1-2.9-1-2.9-.9-2.9-.9-2.9-.8-2.9-.8-2.9-.7-2.9-.7-2.9-.7-2.9-.6-2.9-.6-2.8-.5-2.8-.5-2.8-.5-2.8-.4-2.8-.4-2.8-.3-2.8-.3-2.8-.2-2.7-.2-2.7-.2-2.7-.1-2.7-.1H89.5l-2.6.1-2.5.1-2.5.1-2.5.2-2.5.2-2.4.3-2.4.3-2.4.3-2.3.4-2.3.4-2.3.4-2.3.5-2.2.5-2.2.6-2.1.6-2.1.6-2.1.6-2,.7-2,.7-2,.7-1.9.8-1.9.8-1.8.8-1.8.9-1.8.9-1.7.9-1.7.9-1.6,1-1.6,1-1.6,1-1.5,1-1.5,1.1L22,255l-1.4,1.1-1.3,1.1L18,258.3l-1.2,1.2-1.2,1.2-1.1,1.2-1.1,1.2-1,1.2-1,1.3-.9,1.3-.9,1.3-.9,1.3-.8,1.3-.8,1.3-.7,1.3-.6,1.4-.6,1.3-.5,1.4-.5,1.4-.5,1.4-.4,1.4L3,283.1l-.3,1.4-.2,1.4-.2,1.4-.1,1.4L1.1,290v2.8l.1,1.4.1,1.4.2,1.4.2,1.4.3,1.4.3,1.4.4,1.4.4,1.4.5,1.4.5,1.4.6,1.4.6,1.4L6,311l.7,1.3.8,1.3.8,1.3.9,1.3.9,1.3,1,1.3,1,1.3,1.1,1.2,1.1,1.2,1.2,1.2,1.2,1.2,1.3,1.2,1.3,1.1,1.4,1.1,1.4,1.1,1.4,1.1,1.5,1,1.5,1,1.6,1,1.6,1,1.7.9,1.7.9,1.8.9,1.8.9,1.8.9,1.9.8,1.9.8,2,.8,2,.7,2,.7,2.1.7,2.1.6,2.1.6,2.2.6,2.2.5,2.2.5,2.3.5,2.3.4,2.3.4,2.4.4,2.4.3,2.4.3,2.5.2,2.5.2,2.5.2,2.5.1,2.6.1h7.8l2.7-.1,2.7-.1,2.7-.1,2.7-.2,2.7-.2,2.8-.3,2.8-.3,2.8-.4,2.8-.4,2.8-.4,2.8-.5,2.9-.5,2.9-.6,2.9-.6,2.9-.6,2.9-.7,2.9-.7,2.9-.8,2.9-.8,2.9-.9,2.9-.9,2.9-.9,2.9-1,2.9-1,2.9-1.1,3-1.1,2.9-1.1,2.9-1.2,2.9-1.2,2.9-1.3,2.9-1.3,2.9-1.4,2.9-1.4,2.9-1.4,2.9-1.5,2.9-1.5,2.9-1.6,2.9-1.6,2.9-1.6,2.9-1.7,2.9-1.7,2.8-1.8,2.8-1.8,2.8-1.8,2.8-1.9,2.8-1.9,2.8-1.9,2.8-2,2.7-2,2.7-2,2.7-2.1,2.7-2.1,2.7-2.1,2.6-2.2,2.6-2.2,2.6-2.2,2.6-2.3,2.5-2.3,2.5-2.3,2.5-2.4,2.5-2.4,2.4-2.4,2.4-2.5,2.4-2.5,2.3-2.5,2.3-2.5,2.3-2.5,2.3-2.6,2.2-2.6,2.2-2.6,2.2-2.6,2.1-2.7,2.1-2.7,2.1-2.7,2-2.7,2-2.7,2-2.8,1.9-2.8,1.9-2.8,1.8-2.8,1.8-2.8,1.8-2.8,1.7-2.8,1.7-2.9,1.7-2.9,1.6-2.9,1.6-2.9,1.5-2.9,1.5-2.9,1.5-2.9,1.4-2.9,1.4-2.9,1.3-2.9,1.3-2.9,1.3-2.9,1.2-2.9L333,172l1.1-2.9,1.1-2.9,1-2.9,1-2.9,1-2.9.9-2.9.9-2.9.8-2.9.8-2.9.8-2.9.7-2.9.7-2.9.6-2.9.6-2.9.5-2.9.5-2.8.5-2.8.4-2.8.4-2.8.3-2.8.3-2.8.3-2.8.2-2.7.2-2.7.1-2.7.1-2.7.1-2.6V90.3l-.1-2.6-.1-2.6-.1-2.5-.2-2.5-.2-2.5-.3-2.4-.3-2.4-.3-2.4-.4-2.4-.4-2.3-.4-2.3-.5-2.3-.5-2.2-.5-2.2-.6-2.2-.6-2.1-.6-2.1-.7-2.1-.7-2-.7-2-.8-1.9-.8-1.9-.8-1.9-.9-1.8-.9-1.8-.9-1.7-.9-1.7-1-1.7-1-1.6-1-1.6-1-1.5-1.1-1.5-1.1-1.4-1.1-1.4-1.1-1.3-1.1-1.3L324,16.9l-1.2-1.2-1.2-1.2-1.2-1.1-1.2-1.1-1.3-1-1.3-1-1.3-.9L314,8.5l-1.3-.8-1.3-.8-1.3-.7-1.4-.7-1.3-.6L306,4.3l-1.4-.5-1.4-.5-1.4-.4-1.4-.4L299,2.2l-1.4-.3-1.4-.2-1.4-.2-1.4-.1L292,1.3h-1.4l-1.4.1-1.4.1-1.4.2-1.4.2-1.4.3-1.4.3-1.4.4-1.4.4-1.4.5-1.4.5-1.4.6-1.3.6-1.4.7-1.3.7-1.3.8-1.3.8-1.3.9-1.3.9-1.3,1-1.3,1-1.2,1.1L261,14.5l-1.2,1.1-1.2,1.2-1.2,1.3-1.1,1.3-1.1,1.3-1.1,1.4L253,23.5,251.9,25l-1,1.5-1,1.6-1,1.6-1,1.7-.9,1.7-.9,1.7-.9,1.8-.9,1.8-.8,1.9-.8,1.9-.8,1.9-.7,2-.7,2-.7,2-.6,2.1-.6,2.1-.6,2.2-.5,2.2-.5,2.2-.5,2.3-.4,2.3-.4,2.3-.4,2.4-.3,2.4-.3,2.4-.3,2.5-.2,2.5-.2,2.5-.2,2.5-.1,2.6-.1,2.6v5.2l.1,2.6.1,2.7.1,2.7.2,2.7.2,2.7.3,2.8.3,2.8.3,2.8.4,2.8.4,2.8.5,2.8.5,2.9.5,2.8.6,2.9.6,2.9.7,2.9.7,2.9.8,2.9.8,2.9.8,2.9.9,2.9.9,2.9,1,2.9,1,2.9,1,2.9,1.1,2.9,1.1,2.9,1.2,2.9,1.2,2.9,1.3,2.9,1.3,2.9,1.3,2.9,1.4,2.9,1.4,2.9,1.5,2.9,1.5,2.9,1.5,2.9,1.6,2.9,1.6,2.9,1.7,2.9,1.7,2.9,1.7,2.9,1.8,2.8L275,221l1.9,2.8,1.9,2.8,1.9,2.8,2,2.8,2,2.7,2,2.7,2.1,2.7,2.1,2.7,2.1,2.7,2.2,2.6,2.2,2.6,2.2,2.6,2.3,2.6,2.3,2.6,2.3,2.5,2.4,2.5,2.4,2.5,2.4,2.5,2.4,2.4,2.5,2.4,2.5,2.4,2.5,2.3,2.5,2.3,2.6,2.3,2.6,2.2,2.6,2.2,2.6,2.2,2.7,2.1,2.7,2.1,2.7,2.1,2.7,2,2.7,2,2.8,2,2.8,1.9,2.8,1.9,2.8,1.9,2.8,1.8,2.8,1.8,2.8,1.8,2.9,1.7,2.9,1.7,2.9,1.6,2.9,1.6,2.9,1.6,2.9,1.5,2.9,1.5,2.9,1.4,2.9,1.4,2.9,1.4,2.9,1.3,2.9,1.3,2.9,1.2,2.9,1.2,2.9,1.1,3,1.1,2.9,1.1,2.9,1,2.9,1,2.9.9,2.9.9,2.9.9,2.9.8,2.9.8,2.9.7,2.9.7,2.9.6,2.9.6,2.9.6,2.9.5,2.8.5,2.8.4,2.8.4,2.8.4,2.8.3,2.8.3,2.7.2,2.7.2,2.7.1,2.7.1,2.7.1h5.2l2.6-.1,2.6-.1,2.5-.1,2.5-.2,2.5-.2,2.5-.3,2.4-.3,2.4-.3,2.4-.4,2.3-.4,2.3-.4,2.3-.5,2.2-.5,2.2-.5,2.2-.6,2.1-.6,2.1-.6,2.1-.7,2-.7,2-.7,2-.8,1.9-.8,1.9-.8,1.8-.8,1.8-.9,1.8-.9,1.7-.9,1.7-1,1.6-1,1.6-1,1.5-1,1.5-1,1.5-1.1,1.4-1.1,1.4-1.1,1.3-1.1,1.3-1.2,1.2-1.2,1.2-1.2,1.1-1.2,1.1-1.2,1-1.3,1-1.3.9-1.3.9-1.3.8-1.3.8-1.3.7-1.3.7-1.3.6-1.4.6-1.4.5-1.4.5-1.4.4-1.4.4-1.4.3-1.4.3-1.4.2-1.4.2-1.4.1-1.4.1-1.4V290l-.1-1.4-.1-1.4-.2-1.4-.2-1.4-.3-1.4-.3-1.4-.4-1.4-.5-1.4-.5-1.4-.5-1.4-.6-1.4-.6-1.4-.7-1.3-.8-1.3-.8-1.3-.9-1.3-.9-1.3-1-1.3-1-1.3-1.1-1.3-1.1-1.2-1.1-1.2-1.2-1.2-1.2-1.2-1.3-1.1-1.3-1.1-.9-.8-1.4-1.1-1.5-1.1-1.5-1.1-1.5-1-1.6-1-1.6-1-1.7-.9-1.7-.9-1.8-.9-1.8-.9-1.8-.8-1.9-.8-1.9-.8-2-.8-2-.7-2-.7-2.1-.7-2.1-.6-2.2-.6-2.2-.6-2.2-.5-2.3-.5-2.3-.4-2.3-.4-2.3-.4-2.4-.3-2.4-.3-2.4-.3-2.5-.2-2.5-.2-2.5-.1-2.6-.1-2.6-.1h-7.8l-2.7.1-2.7.1-2.7.1-2.7.2-2.7.2-2.8.3-2.8.3-2.8.4-2.8.4-2.8.4-2.8.5-2.9.5-2.9.6-2.9.6-2.9.6-2.9.7-2.9.7-2.9.8-2.9.8-2.9.9-2.9.9-2.9,1-2.9,1-2.9,1-2.9,1.1-2.9,1.1-3,1.2-2.9,1.2-2.9,1.3-2.9,1.3-2.9,1.3-2.9,1.4-2.9,1.4-2.9,1.5-2.9,1.5-2.9,1.5-2.9,1.6-2.9,1.6-2.9,1.6-2.9,1.7-2.8,1.7-2.8,1.8-2.8,1.8-2.8,1.8-2.8,1.9-2.8,1.9-2.8,2-2.8,2-2.7,2-2.7,2-2.7,2.1-2.7,2.1-2.7,2.2-2.6,2.2-2.6,2.2-2.6,2.3-2.6,2.3-2.5,2.3-2.5,2.3-2.5,2.4-2.5,2.4-2.4,2.4-2.4,2.5-2.4,2.5-2.3,2.5-2.3,2.5-2.3,2.6-2.3,2.6-2.2,2.6-2.2,2.6-2.2,2.6-2.1,2.7-2.1,2.7-2.1,2.7-2,2.7-2,2.7-1.9,2.8-1.9,2.8-1.9,2.8-1.8,2.8-1.8,2.8-1.8,2.8-1.7,2.9-1.7,2.9-1.6,2.9-1.6,2.9-1.6,2.9-1.5,2.9-1.5,2.9-1.5,2.9-1.4,2.9L256,398l-1.3,2.9-1.3,2.9-1.3,2.9-1.2,2.9-1.2,2.9-1.1,2.9-1.1,2.9-1,2.9-1,2.9-1,2.9-.9,2.9-.9,2.9-.8,2.9-.8,2.9-.8,2.9-.7,2.9-.7,2.9-.6,2.9-.6,2.9-.5,2.9-.5,2.8-.5,2.8-.4,2.8-.4,2.8-.3,2.8-.3,2.8-.2,2.8-.2,2.7-.2,2.7-.1,2.7-.1,2.7v7.8l.1,2.6.1,2.5.2,2.5.2,2.5.2,2.5.3,2.4.3,2.4.3,2.4.4,2.4.4,2.3.5,2.3.5,2.3.5,2.2.5,2.2.6,2.1.6,2.1.6,2.1.7,2,.7,2,.8,2,.8,1.9.8,1.9.8,1.8.9,1.8.9,1.8.9,1.7.9,1.7,1,1.6,1,1.6,1,1.5,1,1.5,1.1,1.5,1.1,1.4,1.1,1.4,1.1,1.3,1.2,1.3,1.2,1.2,1.2,1.2,1.2,1.1,1.2,1.1,1.2,1,1.3,1,1.3,1,1.3.9,1.3.8,1.3.8,1.3.8,1.3.7,1.4.7,1.4.6,1.4.5,1.4.5,1.4.5,1.4.4,1.4.3,1.4.3,1.4.2,1.4.2,1.4.1,1.4.1h2.8l1.4-.1,1.4-.1,1.4-.2,1.4-.2,1.4-.3,1.4-.3,1.4-.4,1.4-.4,1.4-.5,1.4-.5,1.4-.6,1.4-.6,1.3-.7,1.3-.7,1.3-.8,1.3-.8,1.3-.9,1.3-.9,1.3-1,1.3-1,1.2-1.1,1.2-1.1,1.2-1.2,1.2-1.2,1.2-1.3,1.1-1.3,1.1-1.4,1.1-1.4,1.1-1.5,1-1.5,1-1.5,1-1.6,1-1.6,1-1.7.9-1.7.9-1.8.9-1.8.8-1.8.8-1.9.8-1.9.8-2,.7-2,.7-2,.7-2.1.6-2.1.6-2.1.6-2.2.5-2.2.5-2.2.5-2.3.4-2.3.4-2.3.4-2.4.3-2.4.3-2.4.3-2.5.2-2.5.2-2.5.1-2.5.1-2.6.1-2.6V487l-.1-2.6-.1-2.7-.1-2.7-.2-2.7-.2-2.7-.3-2.8-.3-2.8-.4-2.8-.4-2.8-.4-2.8-.5-2.8-.5-2.9-.6-2.9-.6-2.9-.6-2.9-.7-2.9-.7-2.9-.8-2.9-.8-2.9-.8-2.9-.9-2.9-.9-2.9-1-2.9-1-2.9-1.1-2.9-1.1-2.9-1.2-2.9-1.2-2.9-1.2-3-1.3-2.9-1.3-2.9-1.4-2.9-1.4-2.9L324,390l-1.5-2.9-1.5-2.9-1.6-2.9-1.6-2.9-1.6-2.9-1.7-2.9-1.7-2.9-1.8-2.8-1.8-2.8-1.8-2.8-1.9-2.8-1.9-2.8-1.9-2.8-2-2.8-2-2.7-2-2.7-2.1-2.7-2.1-2.7-2.4-2.3-2.2-2.6-2.2-2.6-2.2-2.6-2.3-2.6-2.3-2.5-2.3-2.5-2.4-2.5-2.4-2.5-2.4-2.4-2.4-2.4-2.5-2.4L261,307l-2.5-2.3-2.5-2.3-2.6-2.3-2.6-2.2-2.6-2.2-2.6-2.2-2.7-2.1-2.7-2.1-2.7-2.1-2.7-2-2.7-2-2.8-2-2.8-1.9-2.8-1.9-2.8-1.9-2.8-1.8-2.8-1.8-2.8-1.7-2.9-1.7-2.9-1.7-2.9-1.6-2.9-1.6-2.9-1.5-2.9-1.5-2.9-1.5-2.9-1.4-2.9-1.4-2.9-1.3-2.9-1.3-2.9-1.3-2.9-1.2-3-1.2-2.9-1.1-2.9-1.1-2.9-1-2.9-1-2.9-1-2.9-.9-2.9-.9-2.9-.8-2.9-.8-2.9-.8-2.9-.7-2.9-.7-2.9-.6-2.9-.6-2.9-.5-2.8-.5-2.8-.5-2.8-.4-2.8-.4-2.8-.3-2.8-.3-2.8-.3-2.7-.2-2.7-.2-2.7-.1-2.7-.1-2.6-.1H90.1l-2.6.1-2.6.1-2.5.1-2.5.2-2.5.2-2.5.3-2.4.3-2.4.3-2.4.4-2.3.4-2.3.4-2.3.5-2.2.5-2.2.5-2.2.6-2.1.6-2.1.6-2,.7-2,.7-2,.7-1.9.8-1.9.8-1.9.8-1.8.9-1.8.9-1.7.9-1.7.9-1.7,1-1.6,1-1.6,1-1.5,1-1.5,1.1L22,254.5l-1.4,1.1-1.3,1.1L18,257.8,16.7,259l-1.2,1.2-1.2,1.2-1.1,1.2-1.1,1.2-1,1.3-1,1.3-.9,1.3L8.3,269l-.8,1.3-.8,1.3L6,272.9l-.7,1.4-.6,1.4-.6,1.4-.5,1.4-.5,1.4-.4,1.4-.4,1.4L2,284.1l-.3,1.4-.2,1.4-.2,1.4-.1,1.4v4.2l.1,1.4.2,1.4.2,1.4.3,1.4.3,1.4.4,1.4.4,1.4.5,1.4.5,1.4.6,1.4.6,1.4.7,1.3.7,1.3.8,1.3.8,1.3.9,1.3.9,1.3,1,1.3,1,1.3,1.1,1.2,1.1,1.2,1.1,1.2,1.2,1.2,1.3,1.2,1.3,1.1,1.4,1.1L22,329l1.4,1.1,1.5,1.1,1.5,1,1.6,1,1.6,1,1.6,1,1.7.9,1.7.9,1.8.9,1.8.8,1.9.8,1.9.8,1.9.8,2,.7,2,.7,2,.7,2.1.6,2.1.6,2.2.6,2.2.5,2.2.5,2.3.5,2.3.4,2.3.4,2.4.4,2.4.3,2.4.3,2.4.3,2.5.2,2.5.2,2.5.1,2.5.1,2.6.1h7.8l2.7-.1,2.7-.1,2.7-.2,2.7-.2,2.8-.3,2.8-.3,2.8-.3,2.8-.4,2.8-.4,2.8-.5,2.9-.5,2.9-.5,2.9-.6,2.9-.6,2.9-.7,2.9-.7,2.9-.8,2.9-.8,2.9-.8,2.9-.9,2.9-.9,2.9-1,2.9-1,2.9-1,2.9-1.1,2.9-1.1,2.9-1.2,2.9-1.2,2.9-1.3,2.9-1.3,2.9-1.3,2.9-1.4,2.9-1.4,2.9-1.5,2.9-1.5,2.9-1.5,2.9-1.6,2.9-1.6,2.9-1.7,2.9-1.7,2.9-1.7,2.8-1.8,2.8-1.8,2.8-1.9,2.8-1.9,2.8-1.9,2.8-2,2.7-2,2.7-2,2.7-2.1,2.7-2.1,2.7-2.1,2.6-2.2,2.6-2.2,2.6-2.2,2.6-2.3,2.5-2.3,2.5-2.3,2.5-2.4,2.5-2.4,2.4-2.4,2.4-2.4,2.4-2.5,2.4-2.5,2.3-2.5,2.3-2.5,2.3-2.6,2.2-2.6,2.2-2.6,2.2-2.6,2.1-2.7,2.1-2.7,2.1-2.7,2-2.7,2-2.7,2-2.8,1.9-2.8,1.9-2.8,1.9-2.8,1.8-2.8,1.8-2.8,1.8-2.8,1.7-2.9,1.7-2.9,1.6-2.9,1.6-2.9,1.6-2.9L322,196l1.5-2.9,1.4-2.9,1.4-2.9,1.3-2.9,1.3-2.9,1.3-2.9,1.2-2.9,1.2-2.9,1.1-2.9,1.1-2.9,1.1-2.9,1-2.9,1-2.9.9-2.9.9-2.9.9-2.9.8-2.9.8-2.9.7-2.9.7-2.9.6-2.9.6-2.9.6-2.9.5-2.9.5-2.8.4-2.8.4-2.8.4-2.8.3-2.8.3-2.8.2-2.7.2-2.7.1-2.7.1-2.7.1-2.7V90.9l.2-2.9-.1-2.6-.1-2.5-.2-2.5-.2-2.5-.2-2.4-.3-2.4-.3-2.4-.4-2.4-.4-2.3-.4-2.3-.5-2.3-.5-2.2L345,57l-.6-2.2-.6-2.1-.6-2.1-.7-2.1-.7-2-.7-2-.8-2-.8-1.9-.8-1.9-.8-1.8-.9-1.8-.9-1.8-.9-1.7-1-1.7-1-1.6-1-1.6-1-1.5-1-1.5-1.1-1.5L328,20.8l-1.1-1.4-1.1-1.3-1.2-1.3-1.2-1.2-1.2-1.2L321,13.3l-1.2-1.1-1.2-1-1.3-1L316,9.3l-1.3-.9-1.3-.8-1.3-.8-1.3-.7-1.3-.7-1.3-.6-1.4-.6-1.4-.5L304,3.2l-1.4-.4-1.4-.4-1.4-.3-1.4-.3L297,1.6l-1.4-.2-1.4-.1-1.4-.1H290l-1.4.1-1.4.1-1.4.2-1.4.2-1.4.3-1.4.3-1.4.4-1.4.5-1.4.5-1.4.6-1.3.6-1.4.7-1.3.7-1.3.8-1.3.8-1.3.8-1.3.9-1.3.9-1.3,1-1.2,1-1.2,1.1-1.2,1.1L259.4,16l-1.2,1.2L257,18.5l-1.1,1.3-1.1,1.4-1.1,1.4-1.1,1.5-1,1.5-1,1.6-1,1.6-1,1.6-1,1.7-.9,1.7-.9,1.8-.9,1.8-.8,1.8-.8,1.9-.8,1.9-.8,2-.7,2-.7,2-.6,2.1-.6,2.1-.6,2.2-.5,2.2-.5,2.2-.5,2.3-.5,2.3-.4,2.3-.4,2.3-.4,2.4-.3,2.4-.3,2.4-.2,2.5-.2,2.5-.2,2.5-.1,2.5-.1,2.6v7.8l.1,2.7.1,2.7.2,2.7.2,2.7.2,2.8.3,2.8.3,2.8.4,2.8.4,2.8.5,2.8.5,2.8.5,2.9.6,2.9.6,2.9.7,2.9.7,2.9.7,2.9.8,2.9.8,2.9.9,2.9.9,2.9,1,2.9,1,2.9,1,2.9,1.1,2.9,1.1,2.9,1.2,2.9,1.2,2.9,1.3,2.9,1.3,2.9,1.3,2.9,1.4,2.9,1.4,2.9,1.5,2.9,1.5,2.9,1.5,2.9,1.6,2.9,1.6,2.9,1.7,2.9,1.7,2.9,1.7,2.9,1.8,2.8,1.8,2.8,1.8,2.8,1.9,2.8,1.9,2.8,1.9,2.8,2,2.7,2,2.7,2.1,2.7,2.1,2.7,2.1,2.7,2.2,2.6,2.2,2.6,2.2,2.6,2.3,2.6,2.3,2.5,2.3,2.5,2.3,2.5,2.4,2.5,2.4,2.5,2.4,2.4,2.5,2.4,2.5,2.4,2.5,2.3,2.5,2.3,2.5,2.3,2.6,2.3,2.6,2.2,2.6,2.2,2.7,2.1,2.7,2.1,2.7,2.1,2.7,2.1,2.7,2,2.8,2,2.8,1.9,2.8,1.9,2.8,1.9,2.8,1.8,2.8,1.8,2.8,1.8,2.8,1.7,2.9,1.7,2.9,1.6,2.9,1.6,2.9,1.6,2.9,1.5,2.9,1.5,2.9,1.5,2.9,1.4,2.9,1.4,2.9,1.3,2.9,1.3,2.9,1.3,2.9,1.2,2.9,1.2,2.9,1.1,2.9,1.1,2.9,1,2.9,1,2.9,1,2.9.9,2.9.9,2.9.8,2.9.8,2.9.7,2.9.7,2.9.7,2.9.6,2.9.6,2.9.5,2.8.5,2.8.4,2.8.4,2.8.4,2.8.3,2.8.3,2.8.2,2.7.2,2.7.2,2.7.1,2.7.1h7.8l2.6-.1,2.5-.1,2.5-.2,2.5-.2,2.5-.2,2.4-.3,2.4-.3,2.4-.3,2.4-.4,2.3-.4,2.3-.5,2.3-.5,2.2-.5,2.2-.5,2.1-.6,2.1-.6,2.1-.6,2-.7,2-.7,2-.7,1.9-.8,1.9-.8,1.9-.8,1.8-.9,1.8-.9,1.7-.9,1.7-.9,1.6-1,1.6-1,1.5-1,1.5-1,1.5-1.1,1.4-1.1,1.4-1.1,1.3-1.1,1.3-1.1,1.2-1.2,1.2-1.2,1.1-1.2,1.1-1.2,1-1.2,1-1.3,1-1.3.9-1.3.8-1.3.8-1.3.8-1.3.7-1.3.7-1.4.6-1.4.5-1.4.5-1.4.5-1.4.4-1.4.3-1.4.3-1.4.2-1.4.2-1.4.1-1.4.1-1.4v-2.8l-.1-1.4-.1-1.4-.2-1.4-.2-1.4-.3-1.4-.3-1.4-.4-1.4-.4-1.4-.5-1.4-.5-1.4-.6-1.4-.6-1.4-.7-1.3-.7-1.3-.8-1.3-.8-1.3-.9-1.3-.7-.9-1-1.3-1-1.2-1.1-1.2-1.1-1.2-1.2-1.2-1.2-1.2-1.3-1.2-1.3-1.1-1.4-1.1-1.4-1.1-1.5-1.1-1.5-1.1-1.5-1-1.6-1-1.6-1-1.7-.9-1.7-.9-1.8-.9-1.8-.9-1.8-.9-1.9-.8-1.9-.8-2-.8-2-.7-2-.7-2.1-.7-2.1-.6-2.1-.6-2.2-.6-2.2-.5-2.2-.5-2.3-.5-2.3-.4-2.3-.4-2.4-.4-2.4-.3-2.4-.3-2.5-.2-2.5-.2-2.5-.2-2.5-.1-2.6-.1-2.6-.1h-5.2l-2.7.1-2.7.1-2.7.1-2.7.2-2.7.2-2.8.3-2.8.3-2.8.4-2.8.4-2.8.4-2.8.5-2.8.5-2.9.6-2.9.6-2.9.6-2.9.7-2.9.7-2.9.8-2.9.8-2.9.9-2.9.9-2.9.9-2.9,1-2.9,1-2.9,1.1-2.9,1.1-2.9,1.1-3,1.2-2.9,1.2L402,254l-2.9,1.3-2.9,1.4-2.9,1.4-2.9,1.4-2.9,1.5-2.9,1.5-2.9,1.6-2.9,1.6-2.9,1.6L373,269l-2.9,1.7-2.8,1.8-2.8,1.8-2.8,1.8-2.8,1.9-2.8,1.9-3,2.1-2.8,2-2.7,2-2.7,2-2.7,2.1-2.7,2.1-2.6,2.1-2.6,2.2-2.6,2.2-2.6,2.2-2.6,2.3-2.5,2.3-2.5,2.3-2.5,2.4-2.5,2.4-2.4,2.4-2.4,2.4-2.4,2.5-2.4,2.5-2.3,2.5-2.3,2.5L300,330l-2.2,2.6-2.2,2.6-2.2,2.6-2.1,2.7-2.1,2.7-2.1,2.8-2,2.7-2,2.7-2,2.8-1.9,2.8-1.9,2.8-1.8,2.8-1.8,2.8-1.8,2.8-1.7,2.8-1.7,2.9-1.7,2.9-1.6,2.9-1.6,2.9-1.5,2.9-1.5,2.9-1.5,2.9-1.4,2.9-1.4,2.9L255,400l-1.3,2.9-1.3,2.9-1.2,3-1.2,2.9-1.1,2.9-1.1,2.9-1,2.9-1,2.9-1,2.9-.9,2.9L243,432l-.9,2.9-.8,2.9-.8,2.9-.7,2.9-.7,2.9-.6,2.9-.6,2.9-.5,2.9-.5,2.8-.5,2.8-.4,2.8-.4,2.8-.3,2.8L235,472l-.3,2.8-.2,2.7-.2,2.7-.1,2.7-.1,2.7-.1,2.7v5.2l.1,2.6.1,2.5.1,2.5.2,2.5.2,2.5.3,2.4.3,2.4.3,2.4.4,2.4.4,2.3.4,2.3.5,2.3.5,2.2.5,2.2.6,2.2.6,2.1.6,2.1.7,2,.7,2,.7,2,.8,1.9.8,1.9.8,1.9.9,1.8.9,1.8.9,1.7.9,1.7,1,1.6,1,1.6,1,1.6,1,1.5,1,1.5,1.1,1.4,1.1,1.4,1.1,1.4,1.1,1.3,1.2,1.3,1.2,1.2,1.2,1.2,1.2,1.1,1.2,1.1,1.3,1,1.3,1,1.3.9,1.3.9,1.3.8,1.3.8,1.3.7,1.3.7,1.4.6,1.4.6,1.4.5,1.4.5,1.4.4,1.4.4,1.4.3,1.4.3,1.4.2,1.4.2,1.4.1h4.2l1.4-.1,1.4-.2,1.4-.2,1.4-.3,1.4-.3,1.4-.4,1.4-.4,1.4-.5,1.4-.5,1.4-.6,1.4-.6,1.3-.7,1.3-.7,1.3-.8,1.3-.8,1.3-.9,1.3-.9,1.3-1,1.3-1,1.2-1.1,1.2-1.1L323,568l1.2-1.2,1.2-1.3,1.1-1.3,1.1-1.3,1.1-1.4,1.1-1.4,1-1.5,1-1.5,1-1.6,1-1.6,1-1.7.9-1.7.9-1.7.9-1.8.8-1.8.8-1.9.8-1.9.8-1.9.7-2,.7-2,.7-2.1.6-2.1.6-2.1.6-2.2.5-2.2.5-2.2.5-2.3.4-2.3.4-2.3.4-2.4.3-2.4.3-2.4.3-2.5.2-2.5.2-2.5.1-2.5.1-2.6.1-2.6v-5.2l-.1-2.6-.1-2.7-.1-2.7-.2-2.7-.2-2.7-.3-2.8-.3-2.8-.3-2.8-.4-2.8-.4-2.8-.5-2.8-.5-2.9-.5-2.9-.6-2.9-.6-2.9-.7-2.9-.7-2.9-.8-2.9-.8-2.9-.8-2.9-.9-2.9-.9-2.9-1-2.9-1-2.9-1-2.9-1.1-2.9-1.1-2.9-1.2-2.9-1.2-2.9-1.3-2.9-1.3-2.9-1.3-2.9-1.4-2.9-1.4-2.9-1.5-2.9-1.5-2.9-1.5-2.9-1.6-2.9-1.6-2.9-1.7-2.9-1.7-2.9-1.7-2.8-1.8-2.8-1.8-2.8-1.9-2.8-1.9-2.8-1.9-2.8-2-2.8-2-2.7-2-2.7-2.1-2.7-2.1-2.7-2.1-2.7-2.2-2.6-2.2-2.6-2.2-2.6-2.3-2.6-2.3-2.6-2.3-2.5-2.3-2.5-2.4-2.5-2.2-2.3-2.4-2.4-2.5-2.4-2.5-2.4-2.5-2.3-2.5-2.3-2.6-2.3-2.6-2.2-2.6-2.2-2.6-2.2-2.7-2.1-2.7-2.1-2.7-2.1-2.7-2-2.7-2-2.8-2-2.8-1.9-2.8-1.9-2.8-1.9-2.8-1.8-2.8-1.8-2.8-1.8-2.9-1.7-2.9-1.7-2.9-1.6-2.9-1.6-2.9-1.6-2.9-1.5-2.9-1.5-2.9-1.4-2.9-1.4-2.9-1.4-2.9-1.3-2.9-1.3-2.9-1.2-3-1.2-2.9-1.1-2.9-1.1-2.9-1.1-2.9-1-2.9-1-2.9-.9-2.9-.9-2.9-.9-2.9-.8-2.9-.8-2.9-.7-2.9-.7-2.9-.6-2.9-.6-2.9-.6-2.8-.5-2.8-.5-2.8-.4-2.8-.4-2.8-.4-2.8-.3-3.1-.2-2.7-.2-2.7-.2-2.7-.1-2.7-.1-2.6-.1H90.5l-2.6.1-2.6.1-2.5.1-2.5.2-2.5.2-2.5.3-2.4.3-2.4.3-2.4.3-2.3.4-2.3.4-2.3.5L59,238l-2.2.5-2.2.6-2.1.6-2.1.6-2.1.7-2,.7-2,.7-1.9.8-1.9.8-1.9.8-1.8.8-1.8.9-1.8.9-1.7.9-1.7,1-1.6,1-1.6,1-1.5,1-1.5,1-1.5,1.1-1.4,1.1-1.4,1.1L18,257.7l-1.3,1.2-1.2,1.2-1.2,1.2-1.1,1.2-1.1,1.2-1,1.3-1,1.3-.9,1.3-.9,1.3-.8,1.3-.8,1.3L6,272.8l-.7,1.3-.6,1.3-.6,1.4-.5,1.4-.5,1.4L2.7,281l-.4,1.4L2,283.8l-.3,1.4-.2,1.4L1.3,288l-.1,1.4-.1,1.4v2.8l.1,1.4.1,1.4.2,1.4.3,1.4.3,1.4.3,1.4.4,1.4.4,1.4.5,1.4.6,1.4.6,1.4.6,1.4.7,1.3L7,313l.8,1.3.9,1.3.9,1.3.9,1.3,1,1.3,1,1.2,1.1,1.2,1.1,1.2,1.2,1.2,1.2,1.2,1.3,1.1,1.3,1.1,1.4,1.1,1.4,1.1L24,331l1.5,1,1.6,1,1.6,1,1.6,1,1.7.9,1.7.9,1.8.9,1.8.9,1.8.8,1.9.8,1.9.8,2,.7,2,.7,2,.7,2.1.6,2.1.6,2.2.6,2.2.5,2.2.5,2.3.5,2.3.5,2.3.4,2.3.4,2.4.3,2.4.3,2.4.3,2.5.2,2.5.2,2.5.2,2.5.1,2.6.1h7.8l2.7-.1,2.7-.1,2.7-.2,2.7-.2,2.8-.2,2.8-.3,2.8-.3,2.8-.4,2.8-.4,2.8-.5,2.8-.5,2.8-.5,2.9-.6,2.9-.6,2.9-.7,2.9-.7,2.9-.7,2.9-.8,2.9-.8,2.9-.9,2.9-.9,2.9-1,2.9-1,2.9-1,2.9-1.1,3-1.1,2.9-1.2,2.9-1.2,2.9-1.3,2.9-1.3,2.9-1.3,2.9-1.4,2.9-1.4,2.9-1.4,2.9-1.5,2.9-1.5,2.9-1.6,2.9-1.6,2.9-1.6,2.9-1.7,2.9-1.7,2.8-1.8,2.8-1.8,2.8-1.8,2.8-1.9,2.8-1.9,2.8-2,2.7-2,2.7-2,2.7-2,2.7-2.1,2.7-2.1,2.6-2.1,2.6-2.2,2.6-2.2,2.6-2.3,2.6-2.3,2.5-2.3,2.5-2.3,2.5-2.4,2.5-2.4,2.4-2.4,2.4-2.5,2.4-2.5,2.3-2.5,2.3-2.5,2.3-2.6,2.3-2.6,2.2-2.6,2.2-2.6,2.1-2.6,2.1-2.7,2.1-2.7,2-2.7,2-2.7,2-2.8,1.9-2.8,1.9-2.8,1.9-2.8,1.8-2.8,1.8-2.8,1.8-2.8,1.7-2.9,1.7-2.9,1.6-2.9,1.6-2.9,1.6-2.9,1.5-2.9,1.5-2.9,1.5-2.9,1.4-2.9,1.4-2.9,1.3-2.9,1.3-2.9,1.3-2.9,1.2-2.9,1.2-2.9,1.1-2.9,1.1-2.9,1-2.9,1-2.9,1-2.9.9-2.9.9-2.9.8-2.9.8-2.9.7-2.9.7-2.9.7-2.9.6-2.9.6-2.9.5-2.9.5-2.8.4-2.8.4-2.8.4-2.8.3-2.8.3-2.8.2-2.7.2-2.7.2-2.7.1-2.7.1-2.7V89.3l-.1-2.6-.1-2.6-.1-2.5-.2-2.5-.2-2.5-.3-2.4-.3-2.4-.3-2.4-.4-2.3-.4-2.3-.2-2.8-.5-2.3-.5-2.2-.5-2.2-.6-2.2-.6-2.1-.7-2.1-.7-2-.7-2-.7-2-.8-1.9-.8-1.9-.8-1.8-.9-1.8-.9-1.8-.9-1.7-.9-1.7-1-1.6-1-1.6-1-1.5-1-1.5-1.1-1.5-1.1-1.4-1.1-1.4-1.1-1.3-1.1-1.3L323.9,16l-1.2-1.2-1.2-1.1-1.2-1.1-1.3-1-1.3-1-1.3-.9-1.3-.9L313.8,8l-1.3-.8-1.3-.8-1.3-.7L308.5,5l-1.4-.6-1.4-.6-1.4-.5-1.4-.4-1.4-.4-1.4-.3-1.4-.3-1.4-.2-1.4-.2-1.4-.1-1.4-.1h-2.8l-1.4.1-1.4.1-1.4.2-1.4.2-1.4.3-1.4.3-1.4.4-1.4.4-1.4.5-1.4.5-1.4.6-1.4.6-1.3.7-1.3.7-1.3.8-1.3.8-1.3.9-1.3.9-1.3,1-1.3,1-1.2,1.1-1.2,1.1-1.2,1.2-1.2,1.2-1.2,1.3L256,19.5l-1.1,1.4-1.1,1.4-1.1,1.4-1,1.5-1,1.5-1,1.6-1,1.6-1,1.7-.9,1.7-.7,1.7-.9,1.8-.8,1.8-.8,1.9-.8,1.9-.8,2-.7,2-.7,2-.7,2.1-.6,2.1-.6,2.1-.6,2.2-.5,2.2-.5,2.2-.5,2.3-.4,2.3-.4,2.3-.4,2.4-.3,2.4-.3,2.4-.3,2.5-.2,2.5-.2,2.5-.1,2.5.1,2.6-.1,2.6v5.2l.1,2.7.1,2.7.1,2.7.2,2.7.2,2.7.3,2.8.3,2.8.4,2.8.4,2.8.4,2.8.5,2.8.5,2.9.6,2.9.6,2.9.7,2.9.7,2.9.7,2.9.8,2.9.8,2.9.8,2.9.9,2.9.9,2.9,1,2.9,1,2.9,1.1,2.9,1.1,2.9,1.1,2.9,1.2,2.9,1.2,2.9,1.3,2.9,1.3,2.9,1.4,2.9,1.4,2.9,1.4,2.9,1.5,2.9,1.5,2.9,1.5,2.9,1.6,2.9,1.6,2.9,1.7,2.9,1.7,2.9,1.8,2.8,1.8,2.8,1.8,2.8,1.9,2.8,1.9,2.8,1.9,2.8,2,2.8,2,2.7,2,2.7,2.1,2.7,2.1,2.7,2.1,2.6,2.2,2.6,2.2,2.6,2.2,2.6,2.3,2.6,2.3,2.5,2.3,2.5,2.4,2.5,2.4,2.5,2.4,2.4,2.4,2.4,2.5,2.4,2.5,2.4,2.5,2.3,2.6,2.3,2.6,2.3,2.6,2.2,2.6,2.2,2.6,2.2,2.7,2.1,2.7,2.1,2.7,2.1,2.7,2,2.7,2,2.8,2,2.8,1.9,2.8,1.9,2.8,1.9,2.8,1.8,2.8,1.8,2.8,1.7,2.9,1.7,2.9,1.7,2.9,1.6,2.9,1.6,2.9,1.6,2.9,1.5,2.9,1.5,2.9,1.4,2.9,1.4,2.9,1.3,2.9,1.3,2.9,1.3,2.9,1.2,2.9,1.2,2.9,1.1,3,1.1,2.9,1.1,2.9,1,2.9,1,2.9.9,2.9.9,2.9.8,2.9.8,2.9.8,2.9.7,2.9.7,2.9.6,2.9.6,2.9.6,2.8.5,2.8.5,2.8.4,2.8.4,2.8.3,2.8.3,2.8.3,2.7.2,2.7.2,2.7.1,2.7.1h7.8l2.6-.1,2.6-.1,2.5-.1,2.5-.2,2.5-.2,2.5-.3,2.4-.3,2.4-.3,2.4-.4,2.3-.4,2.3-.4,2.3-.5,2.2-.5,2.2-.5,2.2-.6,2.1-.6,2.1-.6,2.1-.7,2-.7,2-.7,1.9-.8,1.9-.8,1.9-.8,1.8-.9,1.8-.9,1.7-.9,1.7-.9,1.7-1,1.6-1,1.6-1,1.5-1,1.5-1.1,1.4-1.1,1.4-1.1,1.3-1.1,1.3-1.1,1.3-1.2,1.2-1.2,1.2-1.2,1.1-1.2,1.1-1.2,1-1.3,1-1.3.9-1.3.9-1.3.8-1.3.8-1.3.7-1.3.7-1.4.6-1.3.6-1.4.5-1.4.5-1.4.4-1.4.4-1.4.3-1.4.3-1.4.2-1.4.2-1.4.1-1.4v-1.4"/></g></g></svg>