<?xml version="1.0" encoding="utf-8"?>
<!-- Generator: Adobe Illustrator 23.0.6, SVG Export Plug-In . SVG Version: 6.00 Build 0)  -->
<svg version="1.1" id="Layer_1" xmlns="http://www.w3.org/2000/svg" xmlns:xlink="http://www.w3.org/1999/xlink" x="0px" y="0px"
	 viewBox="0 0 97.4 97.4" style="enable-background:new 0 0 97.4 97.4;" xml:space="preserve">
<style type="text/css">
	.st0{fill:#FFFFFF;}
</style>
<title>Asset 108</title>
<g>
	<g id="_Layer_">
		<path class="st0" d="M19.8,30.3c0.9,1.3,2,2.7,3.3,4.3c1.8-1.9,3.6-3.9,5.5-5.8l-3.8-3.8C23.1,26.8,21.4,28.6,19.8,30.3z"/>
		<path class="st0" d="M56.9,79.2c-2,1.5-3.9,3-5.8,4.2c1.6,1.1,3.3,2,5.1,2.8c1.8-1.2,3.7-2.6,5.5-4C60,81.4,58.4,80.3,56.9,79.2z"
			/>
		<path class="st0" d="M73.3,81c1.3-1.2,2.5-2.4,3.8-3.7l-1.8-1.9c-1.5,1.5-3,3-4.6,4.4C71.5,80.3,72.4,80.7,73.3,81z"/>
		<path class="st0" d="M70.6,79.8c-1.2-0.7-2.4-1.4-3.5-2.2c-1.8,1.6-3.6,3.2-5.4,4.6c1.3,0.7,2.7,1.3,4.1,1.8
			C67.5,82.6,69.1,81.2,70.6,79.8z"/>
		<path class="st0" d="M55.7,91.2c-1.7,0.9-3.5,1.7-5.3,2.3c1.6,0.5,3.3,0.7,4.9,0.8c1.7-0.8,3.4-1.7,5-2.8
			C58.8,91.7,57.2,91.6,55.7,91.2z"/>
		<path class="st0" d="M77.3,67.5c-1.6,1.8-3.3,3.5-5,5.2l2.8,2.8c1.5-1.5,3-3,4.4-4.6C78.8,69.8,78.1,68.6,77.3,67.5z"/>
		<path class="st0" d="M68.5,68.8c-1.9,1.9-3.8,3.7-5.8,5.5c1.6,1.3,3,2.4,4.3,3.3c1.8-1.6,3.5-3.3,5.3-5L68.5,68.8z"/>
		<path class="st0" d="M56.3,86.3c-1.8,1.2-3.6,2.2-5.5,3.2c1.6,0.7,3.2,1.3,4.9,1.7c1.8-1,3.5-2.1,5.2-3.3
			C59.3,87.5,57.8,87,56.3,86.3z"/>
		<path class="st0" d="M28.4,63.4c-1.9-1.9-3.7-3.9-5.4-5.8c-1.4,1.8-2.6,3.5-3.6,5.1c1.6,1.8,3.2,3.6,4.9,5.3
			C25.4,66.7,26.8,65.1,28.4,63.4z"/>
		<path class="st0" d="M55.2,96.1c1.7-0.7,3.4-1.5,5-2.5c-1.6,0.5-3.2,0.7-4.8,0.7c-1.7,0.8-3.5,1.3-5.3,1.7
			C51.8,96.3,53.5,96.3,55.2,96.1z"/>
		<path class="st0" d="M22.4,45.9c1.6-2,3.4-4,5.3-6.1c-1.6-1.8-3.1-3.5-4.4-5.1c-1.8,1.9-3.4,3.9-5,5.8
			C19.5,42.2,20.9,44,22.4,45.9z"/>
		<path class="st0" d="M29.4,73.4c-1.8-1.7-3.5-3.4-5.2-5.2c-1.2,1.4-2.2,2.6-3,3.7c1.5,1.5,3,3,4.5,4.5
			C26.8,75.6,28,74.6,29.4,73.4z"/>
		<path class="st0" d="M50.3,93.5c-1.7-0.5-3.4-1.2-5-2c-1.7,0.4-3.5,0.6-5.3,0.6c1.6,0.9,3.2,1.8,4.9,2.5
			C46.8,94.5,48.6,94.1,50.3,93.5z"/>
		<path class="st0" d="M40.1,74.7c-1.9-1.7-3.9-3.5-5.8-5.4c-1.7,1.5-3.3,2.9-4.6,4.1c1.8,1.7,3.5,3.3,5.3,4.9
			C36.5,77.3,38.3,76.1,40.1,74.7z"/>
		<path class="st0" d="M34.1,69.3c1.7-1.5,3.5-3.2,5.4-5.1c-2-2-4.1-4-6.1-6.1c-1.8,1.9-3.5,3.7-5.1,5.4
			C30.3,65.5,32.2,67.4,34.1,69.3z"/>
		<path class="st0" d="M57.8,69.9c2-1.8,4-3.7,5.9-5.7l4.6,4.6c1.9-1.9,3.7-3.8,5.5-5.8c-1.3-1.5-2.7-3.2-4.3-4.9c1.9-2,3.6-4,5.2-6
			c-1.5-1.9-3.2-3.8-5.1-5.8c-1.7,2-3.6,4-5.5,6.1c1.8,1.9,3.5,3.8,5.1,5.6c-1.8,2-3.7,4-5.7,6l-5.4-5.4c-2.1,2-4.2,4.1-6.3,6
			c1.9,1.8,3.8,3.6,5.5,5.1c-2,1.8-4,3.6-6,5.2c1.9,1.6,3.7,3,5.4,4.2c2-1.5,3.9-3.2,5.8-5C61.2,72.9,59.5,71.5,57.8,69.9z"/>
		<path class="st0" d="M45.8,14.4c1.8-1.2,3.7-2.2,5.6-3.2c-1.7-1.1-3.4-2-5.2-2.9c-1.9,0.9-3.7,2-5.5,3.2
			C42.5,12.4,44.2,13.3,45.8,14.4z"/>
		<path class="st0" d="M56.8,9.3c1.6-0.4,3.3-0.5,4.9-0.4c-1.5-1.1-3.1-2.2-4.7-3.1c-1.8-0.1-3.6,0.1-5.3,0.6
			C53.5,7.2,55.2,8.2,56.8,9.3z"/>
		<path class="st0" d="M45.6,22.7c2-1.6,4-3.1,5.8-4.4c-1.9-1.5-3.7-2.8-5.4-3.9c-1.9,1.2-3.8,2.7-5.8,4.2
			C41.9,19.8,43.7,21.2,45.6,22.7z"/>
		<path class="st0" d="M57,15c1.6-0.8,3.2-1.5,4.9-2c-1.6-1.3-3.3-2.5-4.9-3.6c-1.8,0.4-3.6,1-5.3,1.8C53.4,12.3,55.2,13.6,57,15z"
			/>
		<path class="st0" d="M31.2,13.8c1.4,0.5,2.8,1,4.1,1.8c1.8-1.5,3.6-2.8,5.5-4c-1.5-0.7-3-1.3-4.6-1.6
			C34.5,11.1,32.9,12.4,31.2,13.8z"/>
		<path class="st0" d="M21.9,22.3l2.8,2.8c1.7-1.7,3.5-3.4,5.2-5c-1.1-0.8-2.3-1.5-3.5-2.1C24.9,19.4,23.4,20.9,21.9,22.3z"/>
		<path class="st0" d="M34.2,23.6c1.9-1.8,3.9-3.4,5.8-5c-1.5-1.1-3.1-2.1-4.8-3c-1.8,1.5-3.6,3-5.4,4.6
			C31.2,21.1,32.7,22.3,34.2,23.6z"/>
		<path class="st0" d="M78.8,57.3c-1.6,2-3.2,3.9-5,5.8c1.3,1.6,2.4,3,3.3,4.3c1.6-1.8,3.2-3.6,4.6-5.4
			C80.9,60.4,79.9,58.8,78.8,57.3z"/>
		<path class="st0" d="M67.8,24.7c-1.4,1.2-2.9,2.6-4.6,4.1c1.9,1.9,3.8,3.8,5.7,5.7c1.5-1.7,2.9-3.2,4.1-4.6
			C71.3,28.1,69.6,26.4,67.8,24.7z"/>
		<path class="st0" d="M64,40c2,2,3.9,4.1,5.7,6.1c1.7-2,3.3-3.9,4.7-5.7c-1.7-1.9-3.5-3.9-5.4-5.8C67.5,36.3,65.8,38.1,64,40z"/>
		<path class="st0" d="M73.2,29.9c1.7,1.7,3.3,3.5,4.8,5.3c0.9-1.4,1.7-2.9,2.4-4.4c-1.4-1.6-2.8-3.1-4.3-4.6
			C75.3,27.2,74.3,28.5,73.2,29.9z"/>
		<path class="st0" d="M52.2,3.3c1.7,0.7,3.3,1.5,4.9,2.5c1.7,0.1,3.4,0.4,5.1,0.9c-1.4-1-3-2-4.5-2.8C55.9,3.4,54,3.2,52.2,3.3z"/>
		<path class="st0" d="M61.9,8.9c1.5,1.1,3,2.3,4.4,3.4c1.3,0,2.5,0.1,3.7,0.4c-1.1-1-2.3-2-3.6-3C64.9,9.3,63.4,9,61.9,8.9z"/>
		<path class="st0" d="M61.9,13.1c1.6,1.3,3.2,2.7,4.8,4.1c1.2-0.5,2.4-1,3.6-1.2c-1.3-1.2-2.7-2.4-4.1-3.5
			C64.8,12.5,63.4,12.7,61.9,13.1z"/>
		<path class="st0" d="M62.5,19.6c1.8,1.6,3.6,3.2,5.3,4.9c1.4-1.2,2.6-2.2,3.7-3c-1.5-1.5-3.1-2.9-4.6-4.3
			C65.4,17.9,63.9,18.7,62.5,19.6z"/>
		<path class="st0" d="M51.5,18.4c1.9,1.5,3.8,3.1,5.7,4.8c1.8-1.4,3.5-2.6,5.1-3.6c-1.8-1.6-3.6-3.1-5.4-4.5
			C55,16.1,53.2,17.2,51.5,18.4z"/>
		<path class="st0" d="M30.7,88.1c1.3,1,2.6,2,4.1,3c1.6,0.5,3.3,0.8,5.1,0.9c-1.6-1-3.2-2-4.7-3.1C33.7,88.8,32.2,88.5,30.7,88.1z"
			/>
		<path class="st0" d="M51.8,6.3c-1.6-0.8-3.3-1.5-5-2c-1.8,0.6-3.6,1.4-5.3,2.3c1.7,0.4,3.3,0.9,4.9,1.7
			C48.1,7.4,49.9,6.8,51.8,6.3z"/>
		<path class="st0" d="M86.2,46c-0.9,1.9-2,3.8-3.2,5.5c1.1,1.6,2,3.3,2.8,5.1c1.2-1.8,2.2-3.6,3.2-5.5C88.2,49.3,87.3,47.6,86.2,46
			z"/>
		<path class="st0" d="M32.4,7.2c1.4-0.5,2.8-0.9,4.3-1c1.6-1,3.3-2,5-2.8c-1.6,0-3.2,0.2-4.8,0.7C35.3,5.1,33.8,6.1,32.4,7.2z"/>
		<path class="st0" d="M35.4,84.9c1.7-0.5,3.3-1.2,4.9-2c-1.8-1.4-3.6-2.9-5.4-4.4c-1.4,0.9-2.9,1.7-4.4,2.4
			c1.5,1.3,3.1,2.6,4.6,3.9c-1.4,0.4-2.8,0.6-4.3,0.7c1.4,1.2,2.9,2.3,4.4,3.4c1.7,0.1,3.3-0.1,4.9-0.4
			C38.5,87.3,36.9,86.1,35.4,84.9z"/>
		<path class="st0" d="M74.4,40.5c1.6,1.9,3.2,3.7,4.6,5.5c-1.3,1.9-2.8,3.8-4.4,5.8c1.6,1.9,2.9,3.7,4.2,5.4c1.6-2,3-3.9,4.2-5.8
			c-1.1-1.7-2.4-3.4-3.8-5.2c1.2-1.7,2.3-3.5,3.3-5.4c-1.4-1.8-2.9-3.6-4.5-5.4C77,37,75.8,38.7,74.4,40.5z"/>
		<path class="st0" d="M83.7,66.2c1.3-1.6,2.7-3.3,3.9-5c-0.3-1.6-0.9-3.1-1.5-4.6c-1.2,1.8-2.6,3.7-4,5.5
			C82.7,63.4,83.2,64.8,83.7,66.2z"/>
		<path class="st0" d="M81.7,27.3c-0.3,1.3-0.7,2.5-1.2,3.6c1.3,1.5,2.6,3.1,3.9,4.6c-0.5,1.7-1.2,3.3-2,4.9
			c1.4,1.8,2.7,3.5,3.8,5.3c0.8-1.7,1.4-3.5,1.8-5.3c-1.1-1.6-2.3-3.2-3.5-4.7c0.4-1.4,0.6-2.9,0.7-4.3C84,30,82.9,28.6,81.7,27.3z"
			/>
		<path class="st0" d="M97.4,49.8c0-1.8-0.3-3.7-0.8-5.4c0.4,1.9,0.6,3.9,0.4,5.8c0.1,1.8,0,3.6-0.4,5.3
			C97.1,53.7,97.4,51.7,97.4,49.8z"/>
		<path class="st0" d="M3.1,42.1c0,1.7,0.3,3.3,0.8,4.9c0.6-1.8,1.4-3.6,2.3-5.3c-0.3-1.5-0.4-3.1-0.3-4.6
			C4.8,38.7,3.9,40.4,3.1,42.1z"/>
		<path class="st0" d="M95.8,55.5c0.7-1.8,1.1-3.6,1.2-5.5c-0.1-1.8-0.5-3.5-1.1-5.2c0.2,1.9,0.1,3.7-0.2,5.6
			C95.9,52.1,96,53.8,95.8,55.5z"/>
		<path class="st0" d="M26.8,86.3c1.2,0.7,2.6,1.3,3.9,1.7c-1.2-1-2.4-2-3.5-2.9c1.2,0.3,2.5,0.5,3.7,0.4c-1.4-1.2-2.8-2.3-4.1-3.5
			c-1,0.2-1.9,0.3-2.9,0.2c1,0.9,2,1.8,3.1,2.8c-1-0.3-2.1-0.7-3-1.2C24.9,84.6,25.8,85.4,26.8,86.3z"/>
		<path class="st0" d="M5.9,52.1c-0.8-1.6-1.5-3.3-2-5c-0.6,1.8-0.9,3.6-1,5.4c0.7,1.7,1.5,3.3,2.5,4.9C5.4,55.7,5.5,53.9,5.9,52.1z
			"/>
		<path class="st0" d="M12,66.7c0,1.2,0.1,2.5,0.4,3.7c1,1.1,1.9,2.2,2.9,3.2c-0.1-1,0-1.9,0.2-2.8C14.4,69.4,13.2,68.1,12,66.7z"/>
		<path class="st0" d="M1.4,47.5C1.1,49.3,1,51.2,1.2,53c0.6,1.7,1.3,3.4,2.2,5c-0.4-1.8-0.6-3.6-0.5-5.5
			C2.2,50.9,1.7,49.2,1.4,47.5z"/>
		<path class="st0" d="M45.4,45.8c2.1-2.1,4.2-4.2,6.3-6.3c-2.1-2.1-4.2-4.1-6.2-6c-2.1,2-4.2,4-6.3,6.1L45.4,45.8z"/>
		<path class="st0" d="M57.8,33.9c-1.9,1.8-4,3.8-6,5.8c2.1,2.1,4.2,4.2,6.2,6.3c2-2.1,4-4.1,5.8-6C61.8,37.9,59.8,35.9,57.8,33.9z"
			/>
		<path class="st0" d="M64.1,52.2c-1.9-2-3.9-4.1-6-6.2c-2,2.1-4.1,4.2-6.2,6.3l6.1,6.1C60.1,56.4,62.2,54.3,64.1,52.2z"/>
		<path class="st0" d="M51.9,52.2l-6.3-6.3c-2.1,2.1-4.2,4.3-6.3,6.3c2.1,2.1,4.2,4.2,6.3,6.3C47.7,56.4,49.8,54.3,51.9,52.2z"/>
		<path class="st0" d="M51.6,28c2,1.8,4,3.8,6.1,5.7c1.9-1.8,3.8-3.5,5.4-5.1c-1.9-1.9-3.9-3.7-5.8-5.4C55.5,24.7,53.6,26.3,51.6,28
			z"/>
		<path class="st0" d="M16.4,24.1c0.3,0.9,0.7,1.8,1.1,2.6c1.4-1.5,2.9-3.1,4.4-4.6l-1.9-1.9C18.9,21.6,17.6,22.9,16.4,24.1z"/>
		<path class="st0" d="M19.2,62.8c-1.6-1.8-3.1-3.6-4.5-5.4c-0.8,1.6-1.5,3.2-2,4.9c1.3,1.6,2.7,3.2,4.1,4.8
			C17.5,65.6,18.3,64.2,19.2,62.8z"/>
		<path class="st0" d="M33.4,58c1.8-1.9,3.8-4,5.8-6c-2.1-2.1-4.1-4.2-6-6.2c-2,2.1-3.8,4.2-5.6,6.1C29.5,53.9,31.5,56,33.4,58z"/>
		<path class="st0" d="M33.6,33.9c-2,2-4,4-5.8,6.1c1.6,1.8,3.5,3.8,5.4,5.8c2-2.1,4-4.2,6.1-6.3L33.6,33.9z"/>
		<path class="st0" d="M45.8,58.5c-2.1,2-4.1,4-6,5.8c2,2,4.1,3.9,6.1,5.7c2-1.7,4-3.6,6.1-5.6C49.9,62.5,47.8,60.5,45.8,58.5z"/>
		<path class="st0" d="M27.6,51.9c-1.8-2-3.5-4-5.1-5.8c-1.6,2-3.1,4-4.4,5.8c1.5,1.9,3.1,3.8,4.8,5.7
			C24.3,55.8,25.8,53.9,27.6,51.9z"/>
		<path class="st0" d="M18,51.7c-1.5-1.9-2.8-3.7-4-5.4c-1.2,1.8-2.2,3.6-3.1,5.6c1.1,1.8,2.4,3.5,3.8,5.3
			C15.7,55.3,16.8,53.5,18,51.7z"/>
		<path class="st0" d="M28.6,29.1l4.8,4.8c2-2,4-4,6.1-5.8c-1.8-1.6-3.5-3.1-5.1-4.4C32.4,25.3,30.5,27.2,28.6,29.1z"/>
		<path class="st0" d="M40.2,88.4c1.6,1.1,3.3,2.1,5,3c1.9-0.5,3.7-1.1,5.4-2c-1.8-0.8-3.5-1.8-5.2-2.9C43.7,87.4,42,88,40.2,88.4z"
			/>
		<path class="st0" d="M45.6,22.9c-2,1.6-4,3.4-6.1,5.3c1.8,1.6,3.8,3.5,5.8,5.4c2.1-2,4.1-3.8,6.1-5.6
			C49.5,26.1,47.5,24.4,45.6,22.9z"/>
		<path class="st0" d="M45.8,70.1c-2,1.7-3.9,3.3-5.7,4.7c1.9,1.6,3.7,3.2,5.5,4.6c-1.7,1.2-3.5,2.3-5.4,3.3
			c1.8,1.4,3.6,2.7,5.3,3.8c1.9-0.9,3.8-2,5.6-3.2c-1.7-1.1-3.4-2.4-5.2-3.8c1.9-1.3,3.8-2.8,5.8-4.4C49.8,73.6,47.8,72,45.8,70.1z"
			/>
		<path class="st0" d="M8.3,67.2c-0.9-1.5-1.5-3.1-2.1-4.7c-1-1.5-2-3-2.8-4.5c0.5,1.8,1.1,3.6,2,5.3C6.4,64.7,7.4,66,8.3,67.2z"/>
		<path class="st0" d="M70,12.8c1.1,1,2.2,1.9,3.2,2.9c0.7,0,1.5,0.2,2.1,0.5c-0.7-0.7-1.5-1.4-2.3-2.2C72.1,13.5,71.1,13.1,70,12.8
			z"/>
		<path class="st0" d="M70.4,16c1.3,1.2,2.6,2.4,3.8,3.6c0.6-0.4,1.3-0.8,1.9-1.1c-0.9-0.9-1.9-1.8-2.9-2.8
			C72.3,15.7,71.4,15.8,70.4,16z"/>
		<path class="st0" d="M62.2,6.7c1.4,1,2.8,2,4.1,3c1.4,0.4,2.7,1,3.9,1.8c-1-0.9-2.1-1.8-3.3-2.7C65.4,7.9,63.8,7.2,62.2,6.7z"/>
		<path class="st0" d="M52.6,1.5c1.7,0.6,3.3,1.3,4.9,2.2c1.8,0.5,3.6,1.1,5.3,2c-1.5-1-3-1.9-4.5-2.8C56.5,2.3,54.6,1.8,52.6,1.5z"
			/>
		<path class="st0" d="M47,1.7c1.8-0.3,3.7-0.4,5.6-0.2c-1.7-0.6-3.4-1-5.2-1.1c-1.9,0.2-3.7,0.6-5.5,1.3C43.6,1.5,45.3,1.5,47,1.7z
			"/>
		<path class="st0" d="M41.9,0.9c1.7-0.4,3.5-0.6,5.3-0.5c2-0.2,3.9,0,5.8,0.4C51.3,0.3,49.5,0,47.7,0C45.7,0,43.8,0.3,41.9,0.9z"/>
		<path class="st0" d="M46.7,4.2c1.8-0.6,3.6-0.9,5.4-1c-1.6-0.7-3.3-1.2-5.1-1.5c-1.8,0.4-3.6,0.9-5.3,1.7
			C43.4,3.5,45,3.8,46.7,4.2z"/>
		<path class="st0" d="M71.6,21.6c1.5,1.5,3,3,4.5,4.5c0.7-0.9,1.4-1.8,2-2.8c-1.2-1.2-2.4-2.5-3.7-3.7
			C73.5,20.1,72.6,20.8,71.6,21.6z"/>
		<path class="st0" d="M76.2,18.6c0.9,0.9,1.9,1.8,2.8,2.8c0.2-0.4,0.3-0.8,0.3-1.2l-1.9-1.9C77,18.2,76.6,18.4,76.2,18.6z"/>
		<path class="st0" d="M88.1,40.6c1.1,1.6,2.1,3.3,3,5c0.4-1.7,0.6-3.5,0.6-5.3c-1-1.6-2-3.2-3.1-4.7C88.6,37.3,88.4,38.9,88.1,40.6
			z"/>
		<path class="st0" d="M91.7,34.6c0.9,1.7,1.5,3.5,2,5.3c0.9,1.6,1.6,3.2,2.2,4.9c-0.2-2-0.7-3.9-1.5-5.7
			C93.6,37.5,92.7,36,91.7,34.6z"/>
		<path class="st0" d="M91.7,40.3c1,1.6,1.8,3.2,2.5,4.9c0.1-1.8-0.1-3.7-0.6-5.5c-0.9-1.6-1.8-3.1-2.8-4.5
			C91.3,36.9,91.6,38.6,91.7,40.3z"/>
		<path class="st0" d="M78.1,23.4c1.2,1.2,2.4,2.5,3.6,3.8c0.2-0.9,0.3-1.9,0.2-2.9c-0.9-1-1.9-2-2.8-2.9
			C78.8,22.1,78.4,22.7,78.1,23.4z"/>
		<path class="st0" d="M85.9,27.2c0.7,1.2,1.3,2.6,1.8,3.9c1,1.3,2,2.6,3,4.1c-0.5-1.6-1.2-3.2-2.1-4.7
			C87.7,29.3,86.8,28.2,85.9,27.2z"/>
		<path class="st0" d="M83.6,24.5c-0.8-0.8-1.5-1.6-2.2-2.3c0.3,0.7,0.5,1.4,0.5,2.2c0.9,1,1.8,2,2.8,3.1c0.3,1.2,0.4,2.5,0.4,3.7
			c1.2,1.4,2.3,2.8,3.4,4.3c-0.1-1.5-0.3-3.1-0.8-4.5c-1-1.2-1.9-2.4-2.9-3.5C84.5,26.5,84.1,25.5,83.6,24.5z"/>
		<path class="st0" d="M0.5,53.5C1,55.3,1.7,57,2.6,58.6c-0.7-1.8-1.2-3.8-1.4-5.7c-0.6-1.7-0.9-3.4-1.1-5.2
			C-0.1,49.7,0,51.6,0.5,53.5z"/>
		<path class="st0" d="M5.9,36.9c1-1.6,2.2-3.2,3.3-4.6c0.1-1.2,0.4-2.4,0.9-3.6c-1.1,1.2-2.1,2.5-3.2,3.9C6.4,34,6.1,35.5,5.9,36.9
			z"/>
		<path class="st0" d="M10.1,28.7c1.1-1.2,2.1-2.4,3.1-3.5c0.3-0.8,0.6-1.5,1.1-2.1c-0.8,0.8-1.6,1.6-2.5,2.6
			C11.1,26.6,10.6,27.6,10.1,28.7z"/>
		<path class="st0" d="M3.8,37.2c0.9-1.5,2-3,3.1-4.5c0.5-1.3,1.2-2.6,2-3.8c-1,1.2-2.1,2.4-3.1,3.8C4.9,34.1,4.3,35.6,3.8,37.2z"/>
		<path class="st0" d="M0.1,47.7c0.2-1.9,0.6-3.7,1.3-5.5c0.2-1.7,0.7-3.4,1.4-5c-0.9,1.6-1.7,3.3-2.3,5.1
			C0.1,44.1-0.1,45.9,0.1,47.7z"/>
		<path class="st0" d="M32.3,6.2c1.4-0.8,2.9-1.5,4.5-2c1.6-1,3.3-1.8,5-2.5c-1.7,0.3-3.4,0.7-5,1.5C35.2,4,33.7,5.1,32.3,6.2z"/>
		<path class="st0" d="M12.8,28c1.2-1.4,2.4-2.7,3.6-4c-0.2-0.6-0.3-1.3-0.3-1.9c-0.9,1-1.9,2-2.9,3.1C13,26.1,12.8,27,12.8,28z"/>
		<path class="st0" d="M1.4,47.3c0.4-1.8,0.9-3.6,1.7-5.3c0-1.6,0.2-3.2,0.7-4.8c-1,1.6-1.8,3.3-2.5,5C1.1,43.9,1.1,45.6,1.4,47.3z"
			/>
		<path class="st0" d="M95.7,55.6c-0.7,1.7-1.5,3.4-2.5,5c-0.5,1.6-1.2,3.1-2,4.5c1.1-1.4,2.1-2.9,3-4.5
			C95,59.1,95.5,57.4,95.7,55.6z"/>
		<path class="st0" d="M27.7,13.2c1.4-1.2,2.8-2.4,4.3-3.6c-1.2,0.1-2.4,0.4-3.6,0.9c-1.2,1.1-2.4,2.1-3.5,3.1
			C25.8,13.3,26.8,13.2,27.7,13.2z"/>
		<path class="st0" d="M25.3,12.2c0.9-0.7,1.9-1.3,3-1.7c1.2-1,2.5-2.1,3.9-3.2c-1.3,0.5-2.6,1.2-3.8,2
			C27.3,10.3,26.2,11.3,25.3,12.2z"/>
		<path class="st0" d="M36.1,9.9c1.7-1.2,3.4-2.3,5.2-3.3c-1.5-0.3-3.1-0.4-4.6-0.3c-1.6,1-3.2,2.2-4.6,3.3
			C33.4,9.5,34.7,9.6,36.1,9.9z"/>
		<path class="st0" d="M26.4,18c1.5-1.4,3.1-2.8,4.7-4.2c-1.1-0.4-2.3-0.5-3.4-0.6c-1.4,1.2-2.7,2.4-4,3.6
			C24.6,17.2,25.5,17.5,26.4,18z"/>
		<path class="st0" d="M20,20.4c1.2-1.2,2.5-2.4,3.8-3.6c-0.6-0.2-1.3-0.3-1.9-0.3c-1,1-1.9,1.9-2.9,2.8L20,20.4z"/>
		<path class="st0" d="M20.5,17c0.4-0.2,0.8-0.4,1.2-0.4c1-1,2-1.9,3.1-2.9c-0.8,0.3-1.5,0.6-2.1,1.1L20.5,17z"/>
		<path class="st0" d="M16.6,20.9c-0.3,0.4-0.4,0.8-0.4,1.3c1-1,1.9-1.9,2.8-2.9c-0.2-0.2-0.4-0.4-0.4-0.4L16.6,20.9z"/>
		<path class="st0" d="M24,82.2c-1-0.9-2-1.9-2.9-2.8c-0.4,0.2-0.8,0.3-1.3,0.3l2,2C22.5,82,23.2,82.2,24,82.2z"/>
		<path class="st0" d="M17.8,77.8c0.1-0.4,0.2-0.8,0.4-1.2c-0.9-0.9-1.8-1.9-2.8-2.9c0,0.7,0.2,1.4,0.5,2.1L17.8,77.8z"/>
		<path class="st0" d="M22.9,78.3c-1.2-1.2-2.5-2.4-3.7-3.7c-0.4,0.6-0.8,1.3-1.1,1.9c0.9,0.9,1.8,1.9,2.8,2.8
			C21.6,79.1,22.3,78.7,22.9,78.3z"/>
		<path class="st0" d="M21.2,71.8c-1.5-1.5-2.9-3.1-4.3-4.7c-0.5,1.1-1,2.4-1.2,3.6c1.2,1.3,2.4,2.6,3.6,3.8
			C19.7,73.8,20.4,72.9,21.2,71.8z"/>
		<path class="st0" d="M15.2,35.6c1.5-1.8,3-3.6,4.6-5.4c-0.8-1.1-1.5-2.3-2.2-3.5c-1.4,1.5-2.8,3.1-4.2,4.8
			C13.9,33,14.5,34.3,15.2,35.6z"/>
		<path class="st0" d="M44.9,94.6c-1.8,0.1-3.7-0.1-5.4-0.6c1.6,0.9,3.2,1.6,4.9,2.2c1.9,0.2,3.8,0.1,5.6-0.2
			C48.3,95.7,46.6,95.2,44.9,94.6z"/>
		<path class="st0" d="M30.5,80.8c-1.6-1.4-3.1-2.8-4.7-4.3c-1.1,0.8-2,1.4-2.8,1.9c1.3,1.2,2.5,2.4,3.8,3.6
			C28.1,81.7,29.3,81.3,30.5,80.8z"/>
		<path class="st0" d="M94.2,45.3c-0.1,1.8-0.4,3.7-1,5.4c0.5,1.6,0.7,3.3,0.8,4.9c0.8-1.7,1.4-3.5,1.7-5.3
			C95.4,48.7,94.9,47,94.2,45.3z"/>
		<path class="st0" d="M49.7,97.4c-1.8-0.1-3.5-0.5-5.2-1.1c-2-0.2-3.9-0.7-5.7-1.4c1.6,0.9,3.3,1.6,5.1,2.1
			C45.8,97.4,47.8,97.5,49.7,97.4z"/>
		<path class="st0" d="M12.8,28.1c-1.2,1.4-2.4,2.8-3.6,4.3c-0.1,1.4,0,2.7,0.3,4.1c1.2-1.7,2.5-3.3,3.9-5
			C13,30.4,12.8,29.3,12.8,28.1z"/>
		<path class="st0" d="M13.6,73.4c-0.5-0.9-0.9-2-1.2-3c-1-1.1-2-2.3-3-3.6c0.4,1.4,1,2.7,1.8,3.9C12,71.6,12.8,72.5,13.6,73.4z"/>
		<path class="st0" d="M14,46.3c1.2-1.9,2.6-3.8,4.2-5.8c-1.1-1.5-2.1-3.1-3-4.8c-1.5,1.8-2.8,3.6-4,5.5C12,43,12.9,44.6,14,46.3z"
			/>
		<path class="st0" d="M8,46.6c0.9-1.9,2-3.7,3.2-5.5c-0.7-1.5-1.2-3-1.6-4.6c-1.2,1.7-2.3,3.4-3.3,5.2C6.7,43.4,7.3,45,8,46.6z"/>
		<path class="st0" d="M9,57.2c0.4-1.8,1-3.6,1.8-5.2c-1.1-1.7-2-3.4-2.9-5.2c-0.9,1.7-1.5,3.5-2,5.4C6.8,54,7.9,55.6,9,57.2z"/>
		<path class="st0" d="M12.7,62.2c-1.3-1.6-2.5-3.2-3.7-4.9c-0.4,1.6-0.5,3.3-0.5,4.9c1.1,1.5,2.3,3,3.4,4.4
			C12,65.1,12.3,63.6,12.7,62.2z"/>
		<path class="st0" d="M8.5,62.2c-1.1-1.5-2.2-3-3.1-4.7c0.1,1.7,0.4,3.4,0.9,5.1c1,1.4,2,2.8,3,4.1C8.9,65.2,8.6,63.7,8.5,62.2z"/>
		<path class="st0" d="M39.5,94c-1.6-0.9-3.1-1.8-4.5-2.8c-1.6-0.5-3.2-1.2-4.7-2.1c1.2,1,2.5,1.9,3.9,2.9
			C35.8,92.9,37.6,93.5,39.5,94z"/>
		<path class="st0" d="M90.1,65.2c-1.1,1.4-2.2,2.7-3.2,3.9c-0.4,1.1-1,2.1-1.7,3c0.9-0.9,1.9-2,2.9-3.1
			C88.9,67.8,89.6,66.5,90.1,65.2z"/>
		<path class="st0" d="M83.8,72.6c-1,1.1-2,2.1-2.9,3.1c0,0.4-0.1,0.9-0.4,1.2l2.2-2.2C83.2,74.1,83.6,73.4,83.8,72.6z"/>
		<path class="st0" d="M55.1,97c1.8-0.6,3.5-1.3,5.2-2.3c-1.6,0.7-3.3,1.2-5,1.4c-1.8,0.7-3.6,1.1-5.5,1.3
			C51.6,97.6,53.4,97.4,55.1,97z"/>
		<path class="st0" d="M87.8,65.5c-1.2,1.5-2.4,2.9-3.6,4.3c0,0.9-0.1,1.9-0.4,2.8c1-1.1,2.1-2.2,3.1-3.5
			C87.4,67.9,87.7,66.7,87.8,65.5z"/>
		<path class="st0" d="M94,55.8c-0.8,1.7-1.7,3.4-2.8,5c-0.1,1.5-0.5,2.9-1,4.3c1.1-1.4,2.1-2.9,3.1-4.5C93.8,59,94,57.4,94,55.8z"
			/>
		<path class="st0" d="M90.8,56.2c-1,1.8-2.1,3.5-3.3,5.2c0.3,1.3,0.4,2.7,0.3,4.1c1.2-1.5,2.3-3,3.3-4.6
			C91.2,59.3,91.1,57.7,90.8,56.2z"/>
		<path class="st0" d="M93.2,50.6c-0.5-1.7-1.2-3.4-2-5c-0.5,1.9-1.1,3.7-2,5.4c0.7,1.6,1.3,3.2,1.7,4.9
			C91.8,54.3,92.6,52.5,93.2,50.6z"/>
		<path class="st0" d="M83.7,66.3c-1.4,1.6-2.8,3.2-4.2,4.7c0.5,0.8,0.9,1.7,1.1,2.6c1.2-1.3,2.4-2.6,3.6-4
			C84.2,68.5,84,67.4,83.7,66.3z"/>
		<path class="st0" d="M65.1,88.2c-1.5,1.2-3,2.3-4.6,3.3c1.5-0.1,2.9-0.5,4.3-1c1.4-1.1,2.7-2.2,4-3.2C67.6,87.7,66.4,88,65.1,88.2
			z"/>
		<path class="st0" d="M68.6,88.5c-1.2,0.8-2.5,1.5-3.8,2c-1.4,1.1-2.9,2.1-4.5,3.1c1.6-0.5,3.1-1.2,4.5-2
			C66.2,90.6,67.4,89.6,68.6,88.5z"/>
		<path class="st0" d="M65.9,84.1c-1.6,1.3-3.3,2.7-5,3.8c1.3,0.3,2.7,0.4,4.1,0.3c1.5-1.2,2.9-2.4,4.3-3.6
			C68.1,84.6,67,84.4,65.9,84.1z"/>
		<path class="st0" d="M74.3,83.1c-0.6,0.5-1.4,0.9-2.1,1.1c-1.1,1-2.2,2-3.4,3.1c1.1-0.4,2.1-1,3-1.7
			C72.7,84.7,73.6,83.9,74.3,83.1z"/>
		<path class="st0" d="M78.5,78.8l-0.4-0.4l-2.9,2.8c0.4,0,0.9-0.2,1.2-0.4L78.5,78.8z"/>
		<path class="st0" d="M73.4,81c-1.3,1.2-2.6,2.4-4,3.6c0.9,0,1.9-0.1,2.8-0.4c1.1-1,2.1-2,3.1-2.9C74.6,81.3,74,81.2,73.4,81z"/>
		<path class="st0" d="M80.7,73.7c-1.2,1.3-2.4,2.5-3.7,3.7l1.1,1.1c1-0.9,1.9-1.9,2.8-2.9C80.9,75,80.8,74.3,80.7,73.7z"/>
	</g>
</g>
</svg>
