<?xml version="1.0" encoding="utf-8"?>
<!-- Generator: Adobe Illustrator 23.0.6, SVG Export Plug-In . SVG Version: 6.00 Build 0)  -->
<svg version="1.1" id="Layer_1" xmlns="http://www.w3.org/2000/svg" xmlns:xlink="http://www.w3.org/1999/xlink" x="0px" y="0px"
	 viewBox="0 0 414 552" style="enable-background:new 0 0 414 552;" xml:space="preserve">
<style type="text/css">
	.st0{fill:none;stroke:#FFFFFF;}
</style>
<path class="st0" d="M207,426.2l-4.5-0.7l-4.5-0.7l-4.4-0.8l-4.4-0.9l-4.4-0.9l-4.3-1l-4.3-1.2l-3.5-1.1"/>
<path class="st0" d="M91.8,376.9l-2.2-2.2l-3.2-3.4l-3.1-3.5l-3-3.5l-3-3.6l-3-3.6l-2.9-3.7l-2.9-3.8l-2.8-3.9l-2.7-4l-2.5-4.1
	l-2.3-4.2l-2.1-4.3l-1.9-4.5l-1.6-4.6l-1.3-4.6l-1-4.7l-0.7-4.8l-0.5-4.8l-0.2-4.8l0-4.8l0.2-4.8l0.4-4.8l0.6-4.7l0.7-4.7l0.8-4.7
	l0.9-4.6l1-4.6l1.1-4.5l1.1-4.5l1.1-4.5l1.1-4.5l1.1-4.5l1.1-4.5l1.1-4.5l1.2-4.5l1.3-4.5l1.4-4.5l1.5-4.4l1.7-4.4l1.9-4.3l2.1-4.2
	l2.3-4.1l2.5-4l2.8-3.8l3-3.6l3.2-3.4l3.4-3.3l3.5-3.1l3.7-2.9l3.7-2.8l3.8-2.7l3.8-2.6l3.8-2.6l3.8-2.6l3.8-2.6l3.8-2.6l3.8-2.6
	l3.8-2.6l3.8-2.5l3.9-2.5l3.9-2.4l4-2.4l4.1-2.2l4.2-2.1l4.3-1.9l4.4-1.7l4.4-1.5l4.5-1.2l4.6-0.9l4.6-0.6l4.7-0.4l4.7-0.1l4.7,0.1
	l4.6,0.2l4.6,0.4l1.6,0.2"/>
<path class="st0" d="M266.9,139l3.4,1.1l4.3,1.5l4.3,1.6l4.2,1.8l4.2,1.9l4.1,2.1l4,2.3l3.9,2.4l3.8,2.6l3.8,2.7l3.7,2.8l3.6,2.9
	l3.5,3l3.4,3.2l3.3,3.3l3.2,3.4l3.1,3.5l3,3.6l2.9,3.7l2.7,3.8l2.6,3.9l2.5,4l2.3,4.1l2.2,4.2l2.1,4.3l1.9,4.3l1.8,4.4l1.7,4.4
	l1.5,4.5l1.4,4.5l1.3,4.6l1.2,4.6l1,4.6l0.8,4.7l0.6,4.7l0.3,4.7l0.1,4.8l-0.2,4.8l-0.5,4.7l-0.8,4.7l-1.1,4.6l-1.3,4.6l-1.6,4.5
	l-1.7,4.4l-1.9,4.3l-2,4.2l-2.1,4.1l-2.1,4.1l-2.1,4l-2.1,3.9l-2.1,3.9l-0.5,0.9"/>
<path class="st0" d="M207,422.2l-4.4-0.3l-4.4-0.4l-4.4-0.4l-4.4-0.4l-4.4-0.4l-4.4-0.5l-4.4-0.6l-0.4-0.1"/>
<path class="st0" d="M117.6,400.8l-1.3-0.8l-3.8-2.6l-3.7-2.8l-3.5-3l-3.4-3.2l-3.2-3.3l-3.1-3.4l-2.9-3.6l-2.8-3.6l-2.7-3.7
	l-2.6-3.8l-2.5-3.8l-2.5-3.9l-2.4-3.9l-2.4-3.9l-2.3-3.9l-2.3-4l-2.2-4l-2.2-4.1l-2.1-4.1l-1.9-4.2l-1.8-4.3l-1.6-4.4l-1.4-4.4
	l-1.2-4.5l-0.9-4.6l-0.7-4.6l-0.4-4.6l-0.2-4.6l0-4.6l0.3-4.6l0.5-4.6l0.6-4.6l0.8-4.5l0.9-4.5l1-4.4l1-4.4l1-4.4l1-4.4l1-4.4
	l0.9-4.4l0.9-4.4l0.9-4.4l1-4.5l1-4.5l1.1-4.5l1.3-4.5l1.5-4.4l1.7-4.4l1.9-4.3l2.1-4.2l2.4-4l2.6-3.8l2.9-3.7l3.1-3.5l3.3-3.3
	l3.5-3.1l3.6-2.9l3.7-2.8l3.8-2.7l3.8-2.6l3.8-2.5l3.8-2.4l3.8-2.4l3.8-2.4l3.8-2.3l3.8-2.3l3.9-2.3l3.9-2.3l3.9-2.3l4-2.2l4-2.2
	l4.1-2.1l4.2-1.9l4.2-1.8l4.3-1.6l4.4-1.4l4.5-1.2l4.5-0.9l4.6-0.7l4.6-0.4l4.6-0.2l4.6-0.1l4.6,0l4.6,0.2l4.6,0.3l4.6,0.5l4.5,0.6
	l4.5,0.7l4.5,0.9l4.4,1l4.4,1.2l4.4,1.3l4.3,1.5l4.2,1.6l4.2,1.7l4.1,1.9l4,2l1,0.5"/>
<path class="st0" d="M307.8,170.4l0.4,0.5l2.9,3.3l2.9,3.3l2.9,3.3l2.8,3.3l2.8,3.3l2.8,3.4l2.8,3.4l2.9,3.4l2.9,3.4l2.9,3.5
	l2.8,3.6l2.8,3.6l2.7,3.7l2.6,3.8l2.4,4l2.3,4.1l2.1,4.2l1.9,4.3l1.7,4.4l1.5,4.5l1.3,4.5l1.1,4.6l0.9,4.6l0.6,4.7l0.3,4.7l-0.1,4.7
	l-0.4,4.7l-0.7,4.7l-1.1,4.6l-1.4,4.5l-1.6,4.5l-1.9,4.3l-2.1,4.2l-2.2,4.1l-1.2,2.2"/>
<path class="st0" d="M207,419.9l-4.3-0.1l-4.3,0l-4.3,0l-4.4,0l-4.4-0.1l-4.4-0.2l-4.4-0.3l-4.4-0.4l-4.5-0.4l-4.5-0.5l-4.5-0.6
	l-4.5-0.7l-4.5-0.9l-4.5-1.1l-4.4-1.3l-4.4-1.6l-4.3-1.8l-4.1-2.1l-4-2.4l-3.8-2.7l-3.6-2.9l-3.4-3.1l-3.2-3.3l-3.1-3.5l-2.9-3.6
	l-2.8-3.7l-2.6-3.7l-2.5-3.8l-2.4-3.8l-2.3-3.8l-2.2-3.9l-2.1-3.9l-2.1-3.9l-2.1-3.9l-2-3.9l-2-3.9l-2-3.9l-2-3.9l-2-3.9l-2-3.9
	l-1.9-4l-1.8-4.1l-1.7-4.1l-1.5-4.2l-1.3-4.3l-1.1-4.3l-0.9-4.4l-0.7-4.4l-0.4-4.5l-0.1-4.5l0.1-4.5l0.4-4.4l0.6-4.4l0.8-4.4
	l0.9-4.3l1-4.3l1-4.3l1-4.2l1-4.2l0.9-4.2l0.9-4.2l0.9-4.3l0.9-4.3l0.9-4.3l1-4.3l1.1-4.3l1.2-4.3l1.4-4.3l1.6-4.2l1.8-4.1l2-4
	l2.3-3.9l2.6-3.7l2.8-3.5l3-3.3l3.2-3.1l3.4-2.9l3.5-2.8l3.6-2.7l3.7-2.5l3.7-2.4l3.8-2.3l3.8-2.2l3.8-2.2l3.8-2.1l3.8-2.1l3.8-2.1
	l3.8-2.1l3.8-2.1l3.8-2.1l3.8-2.1l3.9-2.1l3.9-2l4-1.9l4-1.8l4.1-1.6l4.2-1.5l4.3-1.3l4.3-1l4.4-0.8l4.4-0.6l4.4-0.4l4.4-0.3
	l4.4-0.2l4.5-0.1l4.5,0l4.5,0l4.5,0.1l4.5,0.2l4.5,0.4l4.5,0.5l4.4,0.7l4.4,0.9l4.4,1.2l4.3,1.4l4.2,1.6l4.1,1.8l3.1,1.6"/>
<path class="st0" d="M330.7,210.9l1,1.2l2.7,3.4l2.6,3.5l2.6,3.6l2.5,3.7l2.4,3.8l2.2,3.9l2,4l1.8,4.1l1.6,4.2l1.5,4.3l1.3,4.3
	l1.1,4.4l0.9,4.4l0.7,4.5l0.5,4.5l0.2,4.5l-0.1,4.5l-0.4,4.5l-0.7,4.5l-0.9,4.5l-1.2,4.4l-1.4,4.3l-1.6,4.2l-1.8,4.2l-1.9,4.1l-2,4
	l-0.1,0.1"/>
<path class="st0" d="M207,417.3l-4.2,0l-4.3,0l-4.3,0l-4.3,0l-4.3-0.1l-4.3-0.1l-4.4-0.3l-4.4-0.4l-4.4-0.4l-4.4-0.6l-4.4-0.7
	l-4.4-0.8l-4.4-1l-4.3-1.2l-4.2-1.5l-4.1-1.8l-4-2l-3.8-2.3l-3.7-2.6l-3.5-2.8l-3.3-3.1l-3.1-3.3l-2.9-3.4l-2.8-3.5l-2.6-3.6
	l-2.5-3.6l-2.4-3.7l-2.4-3.7l-2.3-3.7l-2.2-3.7l-2.1-3.7l-2-3.7l-2-3.7l-2-3.7l-2-3.7l-2-3.6l-2.1-3.6L80,334l-2.1-3.7l-2.1-3.7
	l-2.1-3.8l-2-3.8l-1.9-3.9l-1.8-4l-1.6-4.1l-1.4-4.1l-1.1-4.2l-0.8-4.3l-0.5-4.3l-0.2-4.4l0.1-4.4l0.3-4.4l0.6-4.3l0.8-4.3l0.9-4.2
	l1-4.2l1-4.2l1-4.1l1-4.1l1-4.1l1-4.1l1-4.1l1.1-4.1l1.1-4.1l1.2-4.1l1.3-4.1l1.4-4.1l1.6-4l1.7-4l1.9-3.9l2.1-3.8l2.4-3.6l2.6-3.5
	l2.8-3.3l3-3.1l3.2-3l3.3-2.8l3.4-2.6l3.5-2.5l3.5-2.4l3.6-2.3l3.6-2.2l3.6-2.1l3.6-2.1l3.6-2l3.6-2l3.6-2l3.6-2l3.6-2l3.6-2l3.6-2
	l3.7-2l3.7-1.9l3.8-1.9l3.8-1.8l3.9-1.6l4-1.4l4.1-1.2l4.1-1l4.2-0.8l4.2-0.6l4.2-0.4l4.2-0.3l4.2-0.2l4.3-0.2l4.3-0.2l4.3-0.2
	l4.3-0.2l4.4-0.2l4.4-0.1l4.4,0l4.5,0.1l4.5,0.3l4.5,0.5l4.4,0.8l4.4,1l4.3,1.3l1.9,0.7"/>
<path class="st0" d="M341,236.8l1.3,2.7l1.7,3.9l1.6,4l1.4,4.1l1.3,4.1l1.2,4.2l1.1,4.2l0.9,4.3l0.8,4.3l0.6,4.4l0.4,4.4l0.1,4.4
	l-0.1,4.4l-0.3,4.4l-0.6,4.4l-0.8,4.4l-1,4.3l-1.2,4.3l-1.4,4.2l-1.5,4.1l-1.7,4.1l-1.8,4l-1.8,4l-1.9,3.9l-2,3.9l-2,3.9l-2.1,3.8
	l-2.2,3.8l-2.3,3.7l-2.4,3.6l-2.6,3.5l-2.7,3.5l-2.8,3.4l-2.9,3.3l-3,3.2l-3,3.1l-3.1,3l-3.2,2.9l-3.3,2.8l-3.4,2.7l-3.5,2.6
	l-3.6,2.5l-3.6,2.4l-3.7,2.3l-3.8,2.2l-3.8,2.1l-3.9,2l-4,1.9l-4,1.7l-4.1,1.6l-4.1,1.5l-4.1,1.4l-4.2,1.3l-4.2,1.2l-4.2,1.2
	l-1.6,0.4"/>
<path class="st0" d="M207,414.4l-4.2,0.1l-4.2,0.1l-4.2,0l-4.2,0l-4.2,0l-4.3-0.1l-4.3-0.2l-4.3-0.4l-4.3-0.5l-4.3-0.7l-4.3-0.9
	l-4.2-1.1l-4.1-1.3l-4.1-1.6L144,406l-3.8-2.1l-3.6-2.4l-3.5-2.6l-3.3-2.8l-3.1-3l-2.9-3.2l-2.8-3.3l-2.6-3.4l-2.5-3.5l-2.4-3.5
	l-2.4-3.5l-2.3-3.4l-0.1-0.1"/>
<path class="st0" d="M78.8,319.5l-1.2-2.3l-1.8-3.7l-1.7-3.8l-1.5-3.9l-1.3-4l-1.1-4l-0.9-4.1l-0.6-4.1l-0.3-4.2l-0.1-4.2l0.2-4.2
	l0.4-4.2l0.6-4.1l0.7-4.1l0.8-4.1l0.8-4l0.8-4l0.8-4l0.8-4l0.9-4l0.9-4l0.8-3.6"/>
<path class="st0" d="M86.1,206.9l1-1.8l2.2-3.6l2.4-3.4l2.6-3.3l2.8-3.1l2.9-3l3.1-2.8l3.2-2.7l3.3-2.5l3.4-2.4l3.4-2.3l3.4-2.2
	l3.5-2.1l3.5-2.1l3.4-2.1l3.4-2.1l3.4-2.1l3.4-2.1l3.4-2.1l3.4-2.2l1.8-1.2"/>
<path class="st0" d="M217.8,135.8l4-0.2l4.3-0.3l4.4-0.2l4.4-0.2l4.4-0.1l4.5,0.1l4.5,0.3l4.5,0.5l4.5,0.7l4.4,1l4.3,1.3l4.2,1.5
	l4.1,1.8l4,2.1l3.9,2.3l3.7,2.5l3.6,2.7l3.5,2.9l3.3,3l3.2,3.1l3.1,3.2l2.9,3.4l2.7,3.6l2.5,3.7l2.3,3.8l2.1,3.9l1,1.9"/>
<path class="st0" d="M345.6,254.8l0.3,1.2l1,4.1l0.9,4.2l0.7,4.2l0.6,4.2l0.4,4.3l0.2,4.3l0,4.3l-0.2,4.3l-0.4,4.3l-0.6,4.3
	l-0.8,4.2l-1,4.2l-1.1,4.2l-1.3,4.1l-1.4,4.1l-1.5,4l-1.7,4l-1.7,3.9l-1.8,3.9l-1.9,3.8l-2,3.8l-2.1,3.7l-2.2,3.7l-2.3,3.6l-2.4,3.5
	l-2.5,3.5l-2.6,3.4l-2.7,3.3l-2.8,3.2l-2.9,3.1l-3,3.1l-3,3l-3.1,2.9l-3.2,2.9l-3.2,2.8l-3.3,2.7l-3.4,2.6l-3.5,2.6l-3.5,2.5
	l-3.6,2.4l-3.7,2.3l-3.8,2.2l-3.8,2l-3.9,1.9l-4,1.8l-4,1.7l-4.1,1.5l-4.1,1.5l-4.1,1.4l-4.2,1.3l-4.2,1.3l-4.3,1.2l-4.3,1.1l-4.4,1
	l-4.4,0.8l-4.4,0.7l-4.5,0.5"/>
<path class="st0" d="M207,411.7l-4.1,0.1l-4.1,0.1l-4.1,0.1l-4.1,0l-4.2,0l-4.2-0.1l-4.2-0.2l-4.2-0.4l-4.2-0.5l-4.2-0.7l-4.1-0.9
	l-4.1-1.2l-4-1.4l-3.9-1.7l-3.8-1.9l-3.6-2.2l-3.5-2.4l-3.3-2.6l-3.2-2.8l-3-3l-2.9-3.1l-0.4-0.4"/>
<path class="st0" d="M89.7,201.3l2.2-3l2.6-3.3l2.8-3.1l3-2.9l3.1-2.8l3.2-2.6l3.3-2.5l3.4-2.4l3.4-2.3l3.4-2.2l3.4-2.2l3.4-2.1
	l3.4-2.1l3.4-2.1l3.4-2.1l3.3-2.2l3.3-2.2l3.3-2.2l3.4-2.3l3.4-2.3l3.5-2.2l3.5-2.2l3.6-2.1l3.7-2l3.8-1.8l3.9-1.6l4-1.3l4.1-1.1
	l4.1-0.8l4.2-0.6l4.2-0.4l4.2-0.3l4.2-0.2l4.2-0.1l4.2,0l4.2,0l4.2,0.1l4.2,0.2l4.3,0.3l4.3,0.3l4.3,0.5l4.3,0.6l4.3,0.7l4.2,0.9
	l4.2,1l4.2,1.2l4.1,1.4l4.1,1.6l4,1.8l3.9,2l3.8,2.1l3.7,2.3l3.6,2.4l3.5,2.6l3.4,2.7l3.3,2.8l3.2,2.9l3.1,3l3,3.2l2.8,3.3l2.7,3.4
	l2.6,3.5l2.4,3.6l2.3,3.6l2.2,3.7l2.1,3.7l2,3.8l1.9,3.8l1.8,3.8l1.8,3.8l1.7,3.8l1.7,3.9l1.6,3.9l1.5,3.9l1.4,3.9l1.4,4l1.3,4
	l1.2,4l1,4.1l0.9,4.1l0.8,4.1l0.6,4.2l0.5,4.2l0.3,4.2l0.1,4.2l-0.1,4.2l-0.3,4.2l-0.4,4.2l-0.6,4.2l-0.8,4.1l-0.9,4.1l-1.1,4
	l-1.2,4l-1.3,4l-1.4,3.9l-1.5,3.9l-1.6,3.8l-1.6,3.8l-1.7,3.7l-1.8,3.7l-1.8,3.7l-1.9,3.6l-2,3.6l-2.1,3.5l-2.2,3.4l-2.3,3.4
	l-2.5,3.3l-2.6,3.2l-2.7,3.1l-2.8,3l-2.9,2.9l-2.9,2.8l-3,2.8l-3,2.7l-3.1,2.7l-3.1,2.7l-3.1,2.6l-3.2,2.6l-3.2,2.6l-3.3,2.5
	l-3.3,2.5l-3.4,2.4l-3.5,2.3l-3.6,2.2l-3.6,2.1l-3.7,2l-3.8,1.9l-3.9,1.8l-3.9,1.7l-4,1.6l-4,1.5l-4.1,1.4l-4.2,1.3l-4.2,1.1
	l-4.3,0.9l-4.3,0.8l-4.3,0.6l-4.4,0.3"/>
<path class="st0" d="M207,409.3l-4,0l-4,0l-4,0l-4.1,0l-4.1,0l-4.1-0.1l-4.1-0.2l-4.1-0.4l-4.1-0.5l-4.1-0.7l-4.1-0.9l-4-1.1l-4-1.3
	l-3.9-1.5l-3.8-1.7l-3.7-1.9l-3.6-2.1l-3.5-2.3l-3.3-2.5l-3.2-2.7l-3.1-2.8l-3-2.9l-0.4-0.4"/>
<path class="st0" d="M76.2,236.1l0.6-3.6l0.9-4.1l1-4.1l1.2-4l1.4-3.9l1.7-3.8l1.9-3.7l2.1-3.6l2.3-3.5l2.5-3.3l2.7-3.2l2.9-3l3-2.9
	l3.1-2.8l3.2-2.6l3.3-2.5l3.3-2.4l3.4-2.3l3.4-2.2l3.5-2.1l3.5-2l3.5-2l3.4-2l3.4-2l3.4-2l3.4-2l3.4-2l3.4-2l3.4-2l3.5-2l3.5-1.9
	l3.6-1.9l3.7-1.8l3.8-1.6l3.8-1.4l3.9-1.2l4-1l4-0.8l4.1-0.6l4.1-0.4l4.1-0.2l4.1-0.1l4.1,0l4.1,0.1l4.1,0.2l4.1,0.4l4.1,0.5
	l4.1,0.6l4,0.7l4,0.8l4,1l4,1.1l3.9,1.2l3.9,1.3l3.8,1.4l3.8,1.6l3.8,1.7l3.7,1.8l3.6,1.9l3.6,2l3.5,2.1l3.5,2.2l3.4,2.3l3.3,2.4
	l3.2,2.5l3.2,2.6l3.1,2.7l3,2.8l2.9,2.9l2.8,3l2.7,3.1l2.6,3.2l2.5,3.2l2.4,3.3l2.3,3.4l2.2,3.4l2.1,3.5l2,3.6l1.9,3.6l1.8,3.7
	l1.7,3.7l1.6,3.8l1.5,3.8l1.4,3.9l1.2,3.9l1.1,3.9l1,4l0.9,4l0.8,4l0.6,4.1l0.5,4.1l0.4,4.1l0.2,4.1l0.1,4.1l-0.1,4.1l-0.2,4.1
	l-0.4,4.1l-0.5,4.1l-0.6,4l-0.8,4l-0.9,4l-1,3.9l-1.1,3.9l-1.2,3.9l-1.3,3.8l-0.6,1.6"/>
<path class="st0" d="M281.4,384l-0.2,0.2l-3.2,2.4l-3.2,2.4l-3.2,2.3l-3.3,2.3l-3.3,2.3l-3.4,2.2l-3.5,2.1l-3.5,2.1l-3.6,1.9
	l-3.7,1.8l-3.8,1.7l-3.8,1.6l-3.9,1.5l-4,1.3l-4,1.1l-4.1,0.9l-4.1,0.7l-4.2,0.5l-4.2,0.3l-4.2,0"/>
<path class="st0" d="M207,406.5l-3.9-0.1l-3.9-0.1l-3.9,0l-4,0l-4,0l-4-0.1l-4-0.2l-4-0.3l-4-0.4l-4-0.6l-4-0.7l-4-0.9l-4-1.1
	l-3.9-1.3l-3.9-1.5l-3.8-1.7l-3.7-1.9l-3.6-2.1l-3.5-2.2l-3.4-2.4l-3.2-2.5l-3.1-2.7l-3-2.8l-2.9-2.9l-2.9-2.9l-2.8-3l-2.8-3l-2.7-3
	l-2.7-3.1l-2.6-3.1l-2.5-3.2l-2.4-3.3l-2.3-3.4l-2.2-3.4l-2.1-3.5l-2-3.6l-1.9-3.6l-1.7-3.7l-1.6-3.7l-1.5-3.8l-1.4-3.8L78,317
	l-1.1-3.9l-1-3.9l-0.9-4l-0.8-4l-0.6-4l-0.5-4l-0.4-4l-0.3-4l-0.2-4.1l-0.1-4.1l0-4.1l0.1-4.1l0.3-4l0.3-4l0.4-4l0.4-4l0.5-4.1
	l0.6-4.1l0.6-4.1l0.8-4.1l0.9-4l1-4l1.2-4l1.4-3.9l1.6-3.8l1.8-3.7l2-3.6l2.2-3.5l2.4-3.4l2.6-3.2l2.8-3.1l2.9-3l3-2.8l3.1-2.7
	l3-2.5"/>
<path class="st0" d="M135.2,168.8l0.5-0.2l3.5-1.7l3.5-1.6l3.5-1.6l3.5-1.6l3.5-1.6l3.5-1.6l3.5-1.5l3.5-1.5l3.6-1.5l3.6-1.4
	l3.6-1.3l3.7-1.2l3.7-1l3.8-0.9l3.8-0.7l3.8-0.5l3.9-0.4l3.9-0.3l3.9-0.1l2.2,0"/>
<path class="st0" d="M252.6,154.9l1.9,0.7l3.6,1.5l3.5,1.6l3.5,1.7l3.4,1.8l3.4,1.9l3.3,2l3.3,2.1l3.2,2.2l3.1,2.3l3.1,2.4l3,2.5
	l2.9,2.5l2.9,2.6l2.8,2.7l2.7,2.8l2.7,2.8l2.6,2.9l2.5,3l2.4,3.1l2.3,3.1l2.2,3.2l2.1,3.3l1.1,1.8"/>
<path class="st0" d="M333.4,242.8l0.7,3l0.8,3.8l0.7,3.9l0.6,3.9l0.5,3.9l0.4,3.9l0.4,3.9l0.3,3.9l0.2,3.9l0.2,4l0.1,4l0,4l-0.1,4
	l-0.2,4l-0.3,4l-0.4,4l-0.6,4l-0.7,4l-0.9,4l-1,3.9l-1.2,3.9l-1.4,3.8l-1.5,3.8l-1.7,3.7l-1.8,3.6l-1.9,3.6l-2.1,3.5l-2.2,3.4
	l-2.4,3.3l-2.6,3.2l-2.1,2.3"/>
<path class="st0" d="M271,388.7l-0.6,0.4l-3.3,2.1l-3.3,2.1l-3.4,2.1l-3.4,2l-3.5,1.9l-3.5,1.9l-3.6,1.8l-3.7,1.6l-3.8,1.5l-3.8,1.4
	l-3.9,1.2l-3.9,1l-4,0.8l-4,0.5l-4.1,0.3l-4.1,0.1L207,411"/>
<path class="st0" d="M207,400.9l-3.8,0l-3.8,0l-3.8,0.1l-3.8,0l-3.8,0l-3.9-0.1l-3.9-0.2l-3.9-0.3l-3.9-0.4l-3.9-0.5l-3.9-0.7
	l-3.9-0.8l-3.8-1l-3.8-1.1l-3.8-1.3l-3.7-1.5l-3.6-1.7l-3.6-1.8l-3.5-2l-3.4-2.1l-3.3-2.2l-3.2-2.4l-3.1-2.5l-3.1-2.6l-3-2.6l-3-2.7
	l-2.9-2.8l-2.9-2.8l-2.8-2.9l-2.7-3l-2.7-3.1l-2.6-3.1l-2.4-3.2l-2.3-3.3l-2.2-3.4l-2-3.5l-1.8-3.6l-1.7-3.7l-1.5-3.8l-1.3-3.8
	l-1.1-3.9l-1-3.9l-0.8-4l-0.7-4l-0.5-4l-0.4-4l-0.3-4l-0.2-4l-0.2-4l-0.1-4l0-3.9l0-3.9l0.1-3.9l0.2-3.9l0.3-3.9l0.3-3.9l0.4-3.9
	l0.4-3.9l0.5-3.9l0.5-3.9l0.6-4l0.7-4l0.8-4l0.9-3.9l1-3.9l1.2-3.9l1.4-3.8l1.5-3.8l1.7-3.7l1.9-3.6l2.1-3.5l2.3-3.4l2.5-3.2
	l2.6-3.1l2.7-3l2.9-2.9l3-2.8l3.1-2.7l3.1-2.5l3.2-2.4l3.4-2.2l3.5-2l3.6-1.8l3.7-1.6l3.8-1.4l3.8-1.2l3.8-1.1l3.8-1l3.8-0.9
	l3.8-0.8l3.7-0.8l3.7-0.8l3.6-0.8l3.4-0.8"/>
<path class="st0" d="M334.2,253.7L334.2,253.7l0.4,4l0.2,3.9l0.1,3.9l0.1,3.9l0,3.9L335,277l-0.1,3.8l-0.1,3.8l-0.2,3.9l-0.2,3.9
	l-0.2,3.9l-0.3,3.9l-0.3,3.9l-0.4,3.9l-0.5,3.9l-0.6,3.9l-0.7,3.9l-0.9,3.9l-1,3.9l-1.2,3.8l-1.4,3.8l-1.6,3.7l-1.7,3.7l-1.8,3.6
	l-2,3.5l-2.2,3.4l-2.3,3.3l-2.5,3.2l-2.7,3l-2.9,2.8l-3,2.7l-3.2,2.5l-2.1,1.5"/>
<path class="st0" d="M256.1,392.8l-0.8,0.4l-3.5,1.5l-3.5,1.4l-3.6,1.3l-3.6,1.2l-3.7,1.1l-3.7,1l-3.7,1l-3.8,0.8l-3.8,0.7l-3.8,0.6
	l-3.8,0.5l-3.9,0.3l-3.9,0.1"/>
<path class="st0" d="M146.9,388.1l-2.1-1.2l-3.3-2l-3.2-2.1l-3.1-2.2l-3.1-2.3l-3-2.3l-3-2.4l-3-2.4l-2.9-2.4l-2.9-2.5l-2.9-2.5
	l-2.9-2.5l-2.9-2.6l-2.8-2.7l-2.8-2.8l-2.7-2.9l-2.6-3l-2.4-3.1l-2.3-3.2l-2.1-3.4l-1.9-3.5l-1.7-3.6l-1.5-3.7l-1.2-3.8l-1-3.8
	l-0.8-3.9l-0.6-3.9l-0.4-3.9l-0.3-3.9l-0.1-3.9l0-3.9l0-3.9l0-1.3"/>
<path class="st0" d="M85.9,236.8l0.3-1.3l0.8-3.8l0.9-3.8l1-3.8l1.2-3.7l1.3-3.7l1.5-3.7l1.6-3.6l1.8-3.5l2-3.4l2.1-3.3l2.3-3.2
	l2.4-3.1l2.6-3l2.7-2.9l2.8-2.8l2.9-2.7l3-2.6l3.2-2.4l3.3-2.1l3.5-1.9l3.6-1.6l3.7-1.4l3.8-1.2l3.8-1l3.8-0.9l3.8-0.8l3.8-0.7
	l3.7-0.7l3.7-0.7l1.6-0.3"/>
<path class="st0" d="M314.7,205.6l1.5,1.4l2.7,2.9l2.6,3.1l2.3,3.2l2.1,3.4l1.9,3.5l1.6,3.6l1.3,3.7l1.1,3.8l0.9,3.9l0.6,3.9
	l0.5,3.9l0.3,3.9l0.2,3.9l0,3.9l-0.2,3.9l-0.3,3.9l-0.5,3.9l-0.6,3.8l-0.7,3.8l-0.7,3.7l-0.8,3.7l-0.7,3.7l-0.7,3.6l-0.6,3.6
	l-0.6,3.6l-0.5,3.7l-0.5,3.7l-0.5,3.7l-0.5,3.8l-0.6,3.8l-0.6,3.8l-0.8,3.8l-0.9,3.8l-1.1,3.7l-1.2,3.7l-1.4,3.7l-1.5,3.6l-1.6,3.6
	l-1.7,3.6l-1.9,3.5l-2,3.4l-2.2,3.3l-2.4,3.2l-2.5,3.1l-2.7,2.9l-2.9,2.7l-3.1,2.5l-3.3,2.3l-0.9,0.6"/>
<path class="st0" d="M227.6,397l-2.3,0.4l-3.6,0.7l-3.6,0.7l-3.7,0.7l-3.7,0.7l-3.7,0.6"/>
<path class="st0" d="M118,361.2l-0.5-0.4l-2.8-2.4l-2.9-2.5l-2.8-2.5l-2.8-2.6l-2.7-2.7l-2.6-2.8l-2.5-2.9l-2.4-3l-2.2-3.2l-2-3.3
	l-1.9-3.4l-1.6-3.5l-1.4-3.6l-1.2-3.7l-1-3.7l-0.8-3.8l-0.6-3.8l-0.2-1.8"/>
<path class="st0" d="M93.2,224.5l0.9-2.1l1.6-3.4l1.7-3.4l1.8-3.3l1.9-3.2l2-3.2l2.1-3.1l2.2-3l2.3-3l2.4-2.9l2.5-2.8l2.6-2.7
	l2.7-2.6l2.8-2.5l2.9-2.4l3.1-2.2l3.2-2l3.3-1.8l3.4-1.7l3.4-1.5l3.5-1.4l3.5-1.3l3.5-1.2l3.5-1.2l3.4-1.2l3.1-1.1"/>
<path class="st0" d="M306.9,197.4l1.2,1.2l2.7,2.7l2.6,2.9l2.5,3l2.3,3.1l2.1,3.3l1.9,3.4l1.7,3.5l1.4,3.6l1.2,3.7l1,3.8l0.8,3.8
	l0.6,3.8l0.4,3.8l0.3,3.8l0.2,3.8l0,3.8l-0.1,3.8l-0.3,3.8l-0.5,3.8l-0.6,3.7l-0.8,3.7l-0.8,3.6l-0.9,3.6L325,284l-0.8,3.5l-0.7,3.5
	l-0.6,3.5l-0.5,3.5l-0.4,3.5l-0.4,3.6l-0.3,3.6l-0.3,3.6l-0.4,3.7l-0.5,3.7l-0.6,3.7l-0.7,3.7l-0.9,3.7l-1.1,3.6l-1.2,3.6l-1.4,3.6
	l-1.4,3.6l-1.5,3.6l-1.6,3.6l-1.7,3.6l-1.8,3.5l-2,3.5l-2.2,3.4l-2.4,3.2l-2.6,3l-2.8,2.8l-3,2.6l-3.2,2.4l-3.4,2.1l-3,1.6"/>
<path class="st0" d="M220.7,397.7l-2.7,0.5l-3.7,0.7l-3.7,0.6l-3.7,0.6"/>
<path class="st0" d="M171.4,398.4l-2.2-0.5l-2.7-0.8"/>
<path class="st0" d="M110.3,352.3l-2.6-2.6l-2.6-2.7l-2.5-2.8l-2.4-2.9l-2.3-3l-2.2-3.1l-2.1-3.2l-1.9-3.3l-1.8-3.4l-1.6-3.5
	l-1.4-3.6l-1.3-3.6l-1.1-3.7l-0.9-3.7l-0.7-3.8l-0.6-3.8l-0.5-3.8l-0.4-3.8l-0.3-3.8l-0.2-3.8l-0.1-3.8l0-0.9"/>
<path class="st0" d="M108,207.2l1.3-1.5l2.3-2.8l2.4-2.7l2.4-2.7l2.4-2.7l2.5-2.6l2.6-2.5l2.7-2.4l2.8-2.3l2.8-2.2l2.9-2.1l3-2
	l3-1.9l3.1-1.8l3.1-1.8l2.1-1.2"/>
<path class="st0" d="M232.7,147.6l3.6,0.8l3.8,1.1l3.7,1.3l3.6,1.5l3.5,1.7l3.5,1.8l3.4,2l3.3,2l3.3,2.1l3.2,2.1l2,1.4"/>
<path class="st0" d="M306.7,197.1l1.2,1.6l2.1,3.2l1.9,3.3l1.8,3.4l1.6,3.5l1.4,3.6l1.2,3.6l1,3.7l0.8,3.7l0.7,3.7l0.6,3.7l0.5,3.7
	l0.4,3.7l0.3,3.6l0.3,3.6l0.2,3.6l0.1,3.6l-0.1,3.6l-0.2,3.6l-0.3,3.5l-0.4,3.5l-0.3,2.1"/>
<path class="st0" d="M313.2,339l-0.6,1.6l-1.4,3.5l-1.5,3.5l-1.6,3.5l-1.6,3.5l-1.7,3.5l-1.9,3.5l-2,3.4l-2.2,3.3l-2.4,3.2l-2.6,3
	l-2.8,2.8l-3,2.5l-3.2,2.3l-3.4,2.1l-3.5,1.8l-3.6,1.6l-3.7,1.4l-3.8,1.2l-3.8,1.1l-3.8,1l-3.8,0.9l-3.8,0.8l-3.8,0.7l-3.8,0.6
	l-3.7,0.5l-3.7,0.5l-3.7,0.4l-3.7,0.4l-3.7,0.4l-3.7,0.4L218,398l-3.7,0.3l-3.7,0.3l-3.7,0.3"/>
<path class="st0" d="M207,400.4l-3.8,0.3l-3.8,0.2l-3.8,0.1l-3.8,0l-3.8-0.2l-3.8-0.3l-3.8-0.4l-3.8-0.6l-3.8-0.7l-3.7-0.9l-3.7-1
	l-3.6-1.2l-3.6-1.4l-3.5-1.6l-3.4-1.8l-3.3-2l-3.2-2.1l-3.1-2.3l-3-2.4l-2.9-2.5l-2.8-2.6l-2.7-2.6l-2.6-2.7l-2.6-2.7l-2.5-2.7
	l-2.5-2.7l-2.5-2.8l-2.5-2.8l-2.4-2.8l-2.4-2.9l-2.3-2.9l-2.2-3l-2.1-3.1l-2-3.1l-1.9-3.2l-1.8-3.2l-1.7-3.3l-1.6-3.3l-1.5-3.4
	l-1.4-3.4l-1.4-3.4l-1.3-3.5L88,310l-1.2-3.5l-1.1-3.6l-1-3.6l-1-3.6l-0.9-3.7l-0.8-3.7l-0.7-3.7l-0.5-3.8l-0.4-3.8l-0.3-3.8
	l-0.2-3.8l0-3.8l0.1-3.8l0.3-3.8l0.5-3.8l0.7-3.8l0.9-3.7l1.1-3.7l1.4-3.6l1.6-3.5l1.8-3.4l2-3.3l2.1-3.2l2.3-3.1l2.4-3l2.4-2.9
	l2.5-2.8l2.5-2.8l2.5-2.7l2.5-2.7l2.5-2.7l2.4-2.7l2.4-2.6l2.4-2.6l2.5-2.6l2.6-2.5l2.6-2.4l2.7-2.3l2.8-2.2l2.9-2.1l3-2l3-2l3-1.9
	l3.1-1.9l3.1-1.8l3.1-1.8l3.1-1.8l3.1-1.8l3.1-1.8l3.2-1.8l3.2-1.8l3.3-1.8l3.3-1.7l3.4-1.7l3.5-1.6l3.6-1.4l3.6-1.3l3.7-1.2l3.8-1
	l3.8-0.9l3.8-0.8l3.9-0.6l3.9-0.4l3.9-0.2l3.9,0.1l3.9,0.3l3.9,0.6l3.9,0.8l3.8,1l3.7,1.2l3.7,1.4l3.6,1.6l3.5,1.7l3.4,1.8l3.4,1.9
	l3.3,1.9l3.3,2l3.3,2l3.3,2l3.3,1.9l3.3,1.9l3.3,2l3.3,2l3.2,2.1l3.1,2.2l3,2.4l2.9,2.6l2.7,2.7l2.5,2.9l2.3,3.1l2.1,3.3l1.8,3.4
	l1.5,3.6l1.3,3.7l1,3.8l0.8,3.8l0.6,3.8l0.5,3.8l0.4,3.8l0.3,3.8l0.3,3.7l0,0.5"/>
<path class="st0" d="M320.1,311.1l0,0.9l-0.2,3.7l-0.4,3.7l-0.6,3.7l-0.9,3.6l-1.1,3.5l-1.3,3.5l-1.5,3.4l-1.6,3.4l-1.7,3.4
	l-1.7,3.4l-1.8,3.4l-1.8,3.4l-1.9,3.3l-2,3.3l-2.1,3.2l-2.3,3.1l-2.5,3l-2.6,2.8l-2.8,2.7l-3,2.5l-3.2,2.3l-3.3,2l-3.4,1.8l-3.5,1.6
	l-3.6,1.4l-3.7,1.2l-3.7,1.1l-3.7,1l-3.7,0.9l-3.7,0.8l-3.7,0.7l-3.7,0.6l-3.7,0.4l-3.7,0.3l-3.7,0.2l-3.7,0.1l-3.6,0.1l-3.6,0
	l-3.6,0l-3.6-0.1l-3.6-0.1l-3.6-0.1"/>
<path class="st0" d="M207,397.5l-3.6-0.2l-3.6-0.3l-3.6-0.4l-3.6-0.4l-3.6-0.5l-3.6-0.5l-3.6-0.6l-3.6-0.7l-3.6-0.8l-3.6-0.8
	l-3.6-0.9l-3.6-1l-3.5-1l-3.5-1.2l-3.5-1.3l-3.4-1.4l-3.4-1.6l-3.3-1.7l-3.2-1.9l-3.1-2.1l-3-2.2l-2.8-2.4l-2.7-2.5l-2.6-2.7
	l-2.5-2.8l-2.3-2.9l-2.2-2.9l-2.1-3l-2-3.1l-1.9-3.1l-1.8-3.2l-1.7-3.2l-1.5-3.3l-1.4-3.3l-1.2-3.4l-1.1-3.4l-1.1-3.4l-1-3.4l-1-3.4
	l-1-3.3l-1-3.3l-1.1-3.3l-1.1-3.3l-1.2-3.3l-1.2-3.3l-1.3-3.3l-1.3-3.3l-1.2-3.4l-1.2-3.4l-1-3.5l-0.9-3.5l-0.8-3.6l-0.6-3.6
	l-0.4-3.7l-0.3-3.7l-0.2-3.7l-0.1-3.7l0.1-3.7l0.3-3.7l0.5-3.7l0.7-3.7l0.9-3.6l1.2-3.6l1.4-3.5l1.6-3.4l1.8-3.3l2-3.2l2.1-3.1
	l2.2-3l2.3-2.9l2.4-2.8l2.4-2.7l2.4-2.7l2.4-2.7l2.4-2.7l2.4-2.6l2.4-2.6l2.5-2.6l2.5-2.5l2.7-2.4l2.8-2.3l2.9-2.1l3-2l3.1-1.8
	l3.1-1.7l3.2-1.6l3.2-1.5l3.2-1.5l3.2-1.4l3.2-1.4l3.2-1.4l3.2-1.4l3.2-1.4l3.2-1.4l3.2-1.4l3.3-1.4l3.3-1.4l3.4-1.4l3.4-1.3
	l3.5-1.2l3.5-1.1l3.6-1l3.6-0.9l3.7-0.7l3.7-0.5l3.7-0.3l3.7,0l3.7,0.2l3.7,0.5l3.7,0.8l3.6,1l3.5,1.2l3.5,1.4l3.4,1.5l3.3,1.6
	l3.3,1.7l3.2,1.7l3.2,1.8l3.2,1.7l3.2,1.7l3.2,1.7l3.2,1.6l3.3,1.6l3.3,1.6l3.3,1.6l3.3,1.7l3.3,1.8l3.2,1.9l3.1,2.1l3,2.3l2.8,2.5
	l2.6,2.7l2.4,2.9l2.2,3l1.9,3.2l1.7,3.4l1.4,3.5l1.2,3.6l1,3.6l0.8,3.7l0.7,3.7l0.5,3.3"/>
<path class="st0" d="M320.7,287.6l0.2,3l0.1,3.5l0,3.5l-0.1,3.6l-0.2,3.6l-0.3,3.6L320,312l-0.7,3.5l-0.9,3.5l-1,3.5l-1.2,3.4
	l-1.4,3.3l-1.6,3.3l-1.7,3.2l-1.8,3.2l-1.8,3.1l-1.9,3.1l-1.9,3.1l-2,3.1l-2,3.1l-2.1,3l-2.2,3l-2.3,2.9l-2.5,2.8l-2.6,2.6l-2.7,2.5
	l-2.9,2.3l-3,2.1l-3.1,2l-3.3,1.8l-3.4,1.6l-3.4,1.4l-3.5,1.2l-3.5,1.1l-3.5,1l-3.6,0.8l-3.6,0.7l-3.6,0.6l-3.6,0.5l-3.6,0.4
	l-3.6,0.2l-3.6,0l-3.5-0.1l-3.5-0.2l-3.5-0.3l-3.4-0.3l-3.4-0.3l-3.4-0.3l-3.4-0.2"/>
<path class="st0" d="M207,391.2l-3.5-0.4l-3.4-0.4l-3.4-0.5l-3.4-0.5l-3.4-0.5l-3.4-0.6l-3.4-0.7l-3.4-0.7l-3.4-0.7l-3.4-0.8
	l-3.4-0.8l-3.4-0.8l-3.4-0.9l-3.4-1l-3.4-1.1l-3.3-1.2l-3.3-1.3l-3.2-1.5l-3.1-1.7l-3-1.9l-2.9-2.1l-2.8-2.2l-2.6-2.4l-2.5-2.5
	l-2.3-2.7l-2.2-2.8l-2.1-2.9l-1.9-3l-1.8-3l-1.7-3.1l-1.6-3.1l-1.4-3.2l-1.3-3.2l-1.1-3.3l-1-3.3l-0.9-3.3l-0.8-3.3l-0.7-3.3
	l-0.7-3.2l-0.8-3.2l-0.8-3.1l-0.9-3.1l-1-3l-1.1-3l-1.2-3l-1.2-3.1l-1.3-3.1l-1.3-3.1l-1.2-3.2l-1.1-3.3l-1-3.3l-0.8-3.4l-0.7-3.4
	L93,270l-0.4-3.5l-0.3-3.5l-0.2-3.5l0-3.5l0.1-3.6l0.3-3.5l0.5-3.5l0.7-3.5l0.9-3.4l1.2-3.4l1.4-3.3l1.6-3.2l1.8-3.1l1.9-3l2.1-2.9
	l2.2-2.8l2.2-2.7l2.3-2.7l2.3-2.6l2.3-2.6l2.3-2.5l2.3-2.5l2.3-2.5l2.4-2.5l2.4-2.4l2.5-2.3l2.7-2.2l2.8-2l2.9-1.8l3-1.7l3.1-1.5
	l3.1-1.4l3.1-1.3l3.2-1.2l3.1-1.2l3.1-1.1l3.1-1.1l3.1-1.1l3.1-1.2l3.1-1.2l3.1-1.2l3.1-1.2l3.1-1.2l3.2-1.2l3.2-1.2l3.2-1.1
	l3.3-1.1l3.3-1l3.4-0.9l3.4-0.7l3.5-0.5l3.5-0.3l3.5,0l3.5,0.3l3.5,0.5l3.4,0.8l3.4,1l3.3,1.2l3.2,1.4l3.2,1.5l3.1,1.6l3,1.6l3,1.7
	l3,1.6l3,1.6l3,1.6l3,1.5l3,1.5l3.1,1.4l3.1,1.4l3.2,1.4l3.2,1.5l3.1,1.6l3.1,1.7l3,1.8l3,1.9l2.9,2.1l2.8,2.2l2.6,2.4l2.5,2.5
	l2.3,2.7l2.1,2.9l2,3l1.8,3.1l1.6,3.2l1.4,3.3l1.2,3.3l1.1,3.4l1,3.4l0.9,3.4l0.9,3.4l0.8,3.4l0.8,3.4l0.8,3.4l0.8,3.4l0.7,3.4
	l0.6,3.4l0.5,3.4l0.4,3.4l0.3,3.4l0.2,3.4l0.1,3.4l0,3.4l-0.1,3.4l-0.2,3.4l-0.3,3.4l-0.4,3.4l-0.5,3.4l-0.6,3.4l-0.7,3.4l-0.8,3.3
	l-0.9,3.3l-1,3.3l-1.1,3.3l-1.2,3.2l-1.3,3.2l-1.4,3.1l-1.5,3.1l-1.6,3.1l-1.7,3l-1.7,3l-1.8,2.9l-1.8,2.9l-1.8,2.9l-1.8,2.9
	l-1.9,2.9l-1.9,2.9l-2,2.9l-2.1,2.8l-2.2,2.8l-2.3,2.7l-2.5,2.5l-2.6,2.4l-2.8,2.2l-2.9,2.1l-3,1.9l-3.1,1.7l-3.2,1.5l-3.3,1.3
	l-3.4,1.1l-3.4,1l-3.4,0.8l-3.4,0.7l-3.4,0.6l-3.4,0.5l-3.5,0.3l-3.5,0.2l-3.5,0l-3.4-0.1l-3.4-0.2l-3.4-0.3l-3.3-0.3l-3.3-0.3
	l-3.3-0.3l-3.2-0.2"/>
<path class="st0" d="M207,385.1l-3.3-0.4l-3.3-0.4l-3.2-0.4l-3.2-0.4l-3.2-0.4l-3.2-0.5l-3.2-0.6l-3.2-0.6l-3.2-0.6l-3.2-0.7
	l-3.2-0.7l-3.2-0.7l-2.2-0.5"/>
<path class="st0" d="M147,371.1l-0.8-0.5l-2.9-1.8l-2.7-2l-2.6-2.2l-2.4-2.3l-2.3-2.5l-2.2-2.6l-2-2.7l-1.9-2.8l-1.8-2.8l-1.7-2.9
	l-1.6-2.9l-1.5-3l-1.3-3l-1.2-3.1l-1-3.1l-0.9-3.2l-0.7-3.2l-0.6-3.2l-0.6-3.1l-0.6-3.1l-0.5-2.3"/>
<path class="st0" d="M106.2,290.8l-0.7-1.7l-1.1-3l-1-3l-0.9-3.1l-0.8-3.1l-0.6-3.2l-0.5-3.2l-0.4-3.3l-0.3-3.3l-0.2-3.3l0-3.3
	l0.1-3.3l0.3-3.3l0.5-3.3l0.7-3.3l0.9-3.2l1.1-3.2l1.3-3.1l1.4-3l1.6-2.9l1.8-2.8l1.9-2.7l2-2.7l2-2.6l2.1-2.5l2.1-2.5l2.1-2.5
	l2.1-2.5l2.1-2.4l2.1-2.4l2.2-2.4l2.3-2.3l2.4-2.2l2.5-2.1l2.6-1.9l0.1,0"/>
<path class="st0" d="M193.9,171.4l2-0.6l3.1-0.9l3.2-0.8l3.2-0.6l3.2-0.5l3.3-0.3l3.3-0.1l3.3,0.1l3.3,0.4l3.2,0.6l3.2,0.7l3.1,0.9
	l3.1,1l3,1.1l3,1.2l3,1.3l2.9,1.3l0.8,0.3"/>
<path class="st0" d="M274.2,189.5l1.6,0.9l2.9,1.6l2.9,1.7l2.9,1.8l2.8,2l2.7,2.1l2.6,2.2l2.5,2.3l2.4,2.5l2.3,2.6l2.1,2.7l2,2.8
	l1.8,2.9l1.7,3l1.5,3.1l1.4,3.1l1.3,3.2l1.2,3.2l1.1,3.2l1,3.3l1,3.3l0.9,3.3l0.9,3.3l0.8,3.3l0.7,3.4l0.6,3.4l0.4,3.4l0.3,3.4
	l0.1,3.4l-0.1,3.4l-0.3,3.4l-0.5,3.4l-0.6,3.4l-0.8,3.3l-0.9,3.3l-1.1,3.2l-1.2,3.2l-1.3,3.1l-1.3,3.1l-1.4,3l-0.7,1.5"/>
<path class="st0" d="M296.2,334.8l-1.4,2.4l-1.6,2.8l-1.6,2.9l-1.5,2.9l-1.6,3l-1.6,3l-1.7,3l-1.8,3l-1.9,2.9l-2.1,2.8l-2.2,2.7
	l-2.4,2.5l-2.6,2.4l-2.7,2.1l-2.9,1.9l-3,1.7l-3.2,1.5l-3.2,1.3l-3.3,1.1l-3.4,0.9l-3.4,0.7l-3.4,0.6l-3.4,0.5l-3.4,0.3l-3.4,0.1
	l-3.4,0l-3.4-0.2l-3.4-0.3l-3.3-0.4l-3.3-0.4l-3.2-0.4l-3.2-0.4l-3.2-0.3"/>
<path class="st0" d="M207,380.9l-3.2-0.1l-3.1-0.1l-3.2-0.1l-3.2-0.1l-3.2-0.2L188,380l-1.6-0.1"/>
<path class="st0" d="M108.5,239.2l1-2.5l1.3-2.9l1.4-2.8l1.6-2.7l1.6-2.7l1.7-2.6l1.7-2.6l1.8-2.6l1.8-2.6l1.8-2.6l1.8-2.6l1.8-2.6
	l1.9-2.6l0.1-0.1"/>
<path class="st0" d="M264.6,184l2.6,1.3l2.9,1.6l2.8,1.7l2.8,1.8l2.7,1.9l2.6,2l2.5,2.2l2.4,2.3l2.2,2.4l2.1,2.6l2,2.7l1.8,2.8
	l1.7,2.8l1.6,2.9l1.5,2.9l1.4,3l1.3,3l1.3,3l1.2,3l1.2,3l1.2,3l1.2,3l1.2,3l1.2,3l1.2,3l1.1,3.1l1.1,3.1l1,3.1l0.8,3.2l0.7,3.2
	l0.5,3.3l0.3,3.3l0.1,3.3l-0.1,3.3l-0.1,1"/>
<path class="st0" d="M283.4,350.1l-0.9,2l-1.5,3.2l-1.6,3.1l-1.7,3.1l-1.9,3l-2.1,2.8l-2.3,2.6l-2.5,2.4l-2.7,2.2l-2.9,1.9l-3,1.6
	l-3.2,1.4l-3.3,1.1l-3.3,0.9l-3.4,0.7l-3.4,0.6l-3.4,0.5l-3.4,0.3l-3.4,0.1l-3.4-0.1l-3.4-0.3l-3.4-0.4l-3.3-0.5l-3.3-0.6l-3.2-0.6
	l-3.2-0.6l-3.1-0.5"/>
<path class="st0" d="M207,379.1l-3.1,0.2l-3.1,0.2l-3.1,0.2l-3.2,0.1l-3.2,0.1l-3.2,0l-3.2-0.1l-3.3-0.1l-3.3-0.2l-3.3-0.2l-3.3-0.3
	l-3.3-0.4L165,378l-3.3-0.7l-3.3-0.9l-3.2-1.1l-3.1-1.4l-3-1.6l-2.8-1.8l-2.7-2.1l-2.5-2.3l-2.4-2.4l-2.2-2.6l-2-2.7l-1.9-2.8
	l-1.8-2.8L129,350l-1.7-2.8l-1.6-2.8l-1.5-2.9l-1.4-2.9l-1.3-2.9l-1.1-3l-0.9-3.1l-0.8-3.1l-0.6-3.1l-0.5-3.1l-0.2-1.2"/>
<path class="st0" d="M110.6,235.9l1-1.7l1.6-2.7l1.6-2.7l1.7-2.6l1.7-2.6l1.7-2.6l1.7-2.6l1.7-2.6l1.7-2.6l1.6-2.7l1.7-2.7l1.7-2.7
	l1.7-2.7l1.8-2.7l1.9-2.6l2.1-2.5l2.2-2.4l2.3-2.3l2.5-2.2l2.6-2l2.7-1.8l2.9-1.6l2.7-1.2"/>
<path class="st0" d="M226.7,173.8l0.5,0l3.2,0.2l3.2,0.3l3.2,0.4l3.2,0.5l3.2,0.6l3.2,0.7l3.1,0.9l3.1,1l3,1.1l3,1.3l2.9,1.4
	l2.9,1.6l2.8,1.7l2.7,1.8l2.7,1.9l2.6,2l2.5,2.1l2.4,2.3l2.2,2.4l2,2.6l1.8,2.7l1.6,2.8l1.5,2.9l1.4,3l1.2,3l1.2,3l1.1,3l1.1,2.9
	l1.1,2.9l1.1,2.9l0.1,0.2"/>
<path class="st0" d="M283.6,349.8l-1.2,2.2l-1.7,2.9l-1.8,2.9l-2,2.8l-2.1,2.6l-2.3,2.5l-2.5,2.3l-2.6,2.1l-2.8,1.9l-2.9,1.7l-3,1.4
	l-3.1,1.2l-3.2,1l-3.3,0.8l-3.3,0.7l-3.3,0.5l-3.3,0.4l-3.3,0.3l-3.3,0.1l-3.3-0.1l-3.3-0.3l-3.3-0.4l-3.2-0.5l-3.2-0.5l-3.1-0.5
	l-3.1-0.5l-3-0.4"/>
<path class="st0" d="M207,376.6l-3,0.4l-3.1,0.3l-3.1,0.3l-3.1,0.2l-3.1,0.1l-3.2,0.1l-3.2,0l-3.2-0.1l-3.2-0.1l-3.3-0.2l-3.3-0.3
	l-3.3-0.4l-3.3-0.5l-3.3-0.7l-3.2-0.9l-3.2-1.1l-3.1-1.3l-2.9-1.6l-2.8-1.8l-2.6-2.1l-2.5-2.3l-2.3-2.4l-2.1-2.6l-2-2.7l-1.9-2.8
	l-1.8-2.8l-1.7-2.8l-1.6-2.8l-1.6-2.8l-1.5-2.8l-1.4-2.8l-1.3-2.9l-1.1-2.9l-1-3l-0.9-3l-0.8-3l-0.4-1.5"/>
<path class="st0" d="M102,263.7l0-2.8l0.2-3.2l0.4-3.2l0.7-3.1l0.9-3.1l1.2-3l1.4-2.9l1.5-2.8l1.7-2.7l1.8-2.7l1.9-2.6l1.9-2.5
	l1.9-2.5l1.9-2.5l1.8-2.5l1.8-2.5l1.7-2.5l1.7-2.6l1.6-2.6l1.6-2.7l1.6-2.7l1.7-2.7l1.8-2.7l1.9-2.6l2-2.6l2.1-2.5l2.2-2.4l2.3-2.3
	l2.4-2.2l2.6-2l2.7-1.8l2.8-1.7l2.9-1.5l3-1.3l3.1-1.1l3.1-0.9l3.2-0.7l3.2-0.6l3.2-0.5l0.5-0.1"/>
<path class="st0" d="M211.8,171.7l3,0.2l3.1,0.3l3.1,0.5l3.1,0.6l3.1,0.7l3,0.8l3,0.9l3,1l2.9,1l2.9,1.1l2.9,1.2l2.8,1.3l2.8,1.4
	l2.8,1.4l2.7,1.5l2.7,1.6l2.6,1.6l2.6,1.7l2.5,1.8l2.5,1.8l2.4,1.9l2.3,2l2.2,2.1l2.1,2.3l2,2.4l1.8,2.5l1.7,2.5l1.6,2.6l1.6,2.6
	l1.5,2.6l1.5,2.6l1.5,2.6l1.5,2.6l1.2,2.1"/>
<path class="st0" d="M285.4,347.3l-1.3,1.8l-2,2.6l-2.1,2.5l-2.2,2.4l-2.3,2.2l-2.5,2.1l-2.6,1.9l-2.7,1.8l-2.8,1.6l-2.9,1.4l-3,1.2
	l-3,1.1l-3.1,0.9l-3.1,0.8l-3.1,0.7l-3.1,0.6l-3.1,0.5l-3.1,0.4l-3.1,0.2l-3.1,0.1l-3.1-0.1l-3.1-0.2l-2-0.2"/>
<path class="st0" d="M207,372l-2.9,0.5l-2.9,0.4l-3,0.4l-3,0.3l-3,0.2l-3,0.1l-3.1,0l-3.1-0.1l-3.1-0.1l-3.1-0.2l-3.1-0.3l-3.1-0.4
	l-3.1-0.6l-3.1-0.8l-3-0.9l-2.9-1.2l-2.8-1.4l-2.7-1.6l-2.6-1.8l-2.5-2l-2.3-2.2l-2.2-2.3l-2-2.4l-1.9-2.5l-1.8-2.5l-1.8-2.6
	l-1.7-2.6l-1.7-2.6l-1.6-2.6l-1.6-2.6l-1.5-2.6l-1.4-2.6l-1.3-2.7l-1.2-2.7l-0.6-1.5"/>
<path class="st0" d="M105.5,286.3l-0.1-0.3l-1-3l-0.8-3.1l-0.6-3.1l-0.4-3.1l-0.3-3.2l-0.2-3.2l0-3.2l0.2-3.2l0.4-3.2l0.6-3.1
	l0.9-3.1l1.1-3l1.3-2.9l1.5-2.8l1.7-2.7l1.8-2.6l1.9-2.5l2-2.4l2-2.4l2-2.3l2-2.3l2-2.3l1.9-2.3l1.9-2.3l1.8-2.3l1.7-2.4l1.7-2.4
	l1.7-2.4l1.8-2.4l1.8-2.4l1.9-2.4l1.9-2.4l2-2.4l2-2.3l2.1-2.3l2.2-2.3l2.3-2.2l2.4-2.1l2.5-2l2.6-1.9l2.7-1.7l2.8-1.6l2.9-1.4
	l2.9-1.2l3-1.1l3.1-0.9l3.1-0.8l3.1-0.6l3.1-0.5l3.2-0.4l3.2-0.3l3.2-0.3l3.2-0.2l3.2-0.1l3.2,0.1l3.2,0.2l3.1,0.4l3.1,0.5l3.1,0.7
	l3,0.8l3,1l2.9,1.1l2.9,1.3l2.8,1.4l2.7,1.5l2.7,1.6l2.6,1.6l2.5,1.7l2.5,1.7l2.4,1.7l1.1,0.8"/>
<path class="st0" d="M262.5,198.9l1.6,1.3l2.2,1.8l2.1,1.9l2.1,1.9l2.1,2l2,2l2,2l2.1,2l2.1,2l2.1,2l2.2,2l2.2,2l2.2,2l2.3,2.1
	l0.8,0.7"/>
<path class="st0" d="M309.8,249.1l0.9,2.2l1.1,3l1,3.1l0.9,3.1l0.8,3.2l0.7,3.2l0.6,3.2l0.4,3.3l0.2,3.3l0.1,3.3l-0.1,3.3l-0.3,3.3
	l-0.5,3.3l-0.6,3.2l-0.8,3.2l-0.9,3.2l-1.1,3.1l-1.2,3.1l-1.3,3l-1.3,3l-1.4,2.9l-1.4,2.9l-1.4,2.9l-1.5,2.9l-1.5,2.8l-1.6,2.8
	l-1.6,2.8l-1.7,2.7l-1.8,2.6l-1.9,2.6l-2.1,2.5l-2.2,2.4l-2.3,2.2l-2.4,2.1l-2.5,2l-2.6,1.8l-2.7,1.7l-2.8,1.5l-2.9,1.4l-2.9,1.2
	l-3,1.1l-3,1l-3,0.9l-3,0.8l-2.9,0.8l-2.9,0.7l-2.9,0.7l-2.9,0.7l-2,0.5"/>
<path class="st0" d="M170.9,366.7l-1.1-0.4l-2.7-1.1l-2.7-1.2l-2.6-1.4l-2.5-1.6l-2.4-1.7l-2.3-1.8l-2.2-1.9l-2.1-2l-2-2.1l-2-2.1
	l-1.9-2.1l-1.9-2.1l-1.9-2.1l-1.9-2.1l-1.9-2.1l-1.9-2.1l-1.9-2.1l-0.6-0.7"/>
<path class="st0" d="M107.8,296.9l-0.6-1.9l-0.8-3l-0.6-3l-0.4-3l-0.2-3.1l-0.1-3.1l0-3.1l0.2-3.1l0.3-3l0.4-3l0.5-3l0.6-3l0.7-3
	l0.8-2.9l0.9-2.9l1.1-2.8l1.2-2.8l1.3-2.7l1.4-2.7l1.5-2.6l1.5-2.6l1.6-2.5l1.7-2.4l1.7-2.4l1.8-2.3l0.5-0.6"/>
<path class="st0" d="M141,209l0.8-0.7l2.1-1.9l2.1-1.9l2.1-1.9l2.1-2l2-2l2-2.1l2-2.1l2.1-2.2l2.1-2.2l2.2-2.1l2.3-2.1l2.4-2
	l2.5-1.9l2.6-1.7l2.7-1.5l2.8-1.3l2.9-1.1l3-0.9l3-0.6l3.1-0.4l3.1-0.2l3.1,0l3.1,0.1l3.1,0.2l3.1,0.3l3,0.4l3,0.5l3,0.6l2.9,0.7
	l2.9,0.8l2.9,0.9l2.8,1l2.8,1.1l2.7,1.2l2.7,1.3l2.6,1.3l2.6,1.4l0.1,0.1"/>
<path class="st0" d="M279.4,218.7l1.3,0.8l2.7,1.5l2.7,1.6l2.8,1.6l2.8,1.7l2.8,1.9l2.7,2l2.5,2.2l2.3,2.3l2.1,2.5l1.8,2.7l1.5,2.8
	l1.2,3l1,3l0.7,3.1l0.5,3.2l0.4,3.2l0.3,3.2l0.2,3.2l0.1,3.2l0.1,3.2l0,3.2l-0.1,3.2l-0.1,3.2l-0.2,3.1l-0.3,3.1l-0.3,3.1l-0.4,3.1
	l-0.5,3.1l-0.5,3.1l-0.6,3.1l-0.7,3.1l-0.8,3.1l-0.9,3l-1,3l-1.1,3l-1.2,2.9l-1.3,2.9l-1.4,2.8l-1.5,2.8l-1.6,2.7l-1.8,2.6l-1.9,2.5
	l-2.1,2.4l-2.3,2.2l-2.5,2l-2.7,1.8l-2.8,1.6l-2.9,1.4l-3,1.3l-3,1.1l-3,1l-3,0.9l-3,0.8l-2.9,0.8l-2.8,0.8l-2.8,0.8l-0.8,0.3"/>
<path class="st0" d="M112.8,312.1l-1.4-2.5l-1.3-2.8l-1-2.9l-0.8-3l-0.5-3l-0.3-3.1l0-3.1l0.2-3.1l0.3-3.1l0.4-3l0.5-3l0.6-3
	l0.6-2.9l0.7-2.9l0.8-2.8l0.8-2.8l0.8-2.8l0.8-2.7l0.8-2.7l0.8-2.7l0.7-2.7l0.7-2.7l0.7-2.7l0.7-2.7l0.8-2.7l0.8-2.7l0.9-2.7l1-2.7
	l0.6-1.5"/>
<path class="st0" d="M159.3,196.9l1.2-1.1l2.1-2l2.2-2l2.2-1.9l2.3-1.9l2.4-1.8l2.5-1.6l2.6-1.5l2.7-1.3l2.8-1l2.9-0.8l2.9-0.5
	l3-0.2l3,0l3,0.2l2.9,0.4l2.9,0.5l2.9,0.5l2.8,0.5l2.8,0.5l2.8,0.5l2.8,0.4l2.8,0.4l2.8,0.4l2.8,0.4l2.8,0.4l2.8,0.4l2.8,0.5
	l2.8,0.6l1.7,0.4"/>
<path class="st0" d="M278,217.7l0.2,0.2l2.3,1.7l2.4,1.7l2.4,1.8l2.4,1.8l2.4,1.9l2.3,2l2.2,2.2l2,2.3l1.8,2.5l1.6,2.6l1.3,2.7
	l1,2.9l0.7,2.9l0.5,3l0.2,3l0.1,3l0,3l-0.1,3l-0.2,3l-0.3,2.9l-0.3,2.9l-0.3,2.9l-0.3,2.9l-0.3,2.9l-0.3,2.8l-0.2,2.8l-0.2,2.8
	L301,291l-0.2,2.9l-0.2,2.9l-0.2,2.9l-0.3,2.9l-0.4,2.9l-0.5,2.9l-0.7,2.9l-0.8,2.9l-1,2.8l-1.2,2.7l-1.3,2.7l-1.4,2.6l-1.5,2.5
	l-1.7,2.5l-1.8,2.3l-2,2.2l-2.2,2l-2.3,1.9l-2.4,1.7l-2.5,1.6l-2.6,1.5l-2.6,1.4l-2.6,1.3l-2.6,1.2l-2.6,1.2l-2.5,1.2l-2.5,1.3
	l-1,0.6"/>
<path class="st0" d="M150.9,349.9l-0.8-0.8l-2-1.9l-2-1.9l-2.1-1.8l-2.1-1.8l-2.2-1.8l-2.2-1.8l-2.2-1.8l-2.2-1.8l-2.2-1.9l-2.2-1.9
	l-2.2-2l-2.2-2.1l-2.2-2.1l-2.1-2.2l-2-2.3l-1.9-2.4l-1.7-2.5l-1.5-2.7l-1.2-2.8l-1-2.9l-0.7-3l-0.4-3l-0.2-3.1l0-3.1l0.2-3.1l0.4-3
	l0.5-3l0.6-3l0.7-2.9l0.7-2.9l0.7-2.8l0.7-2.8l0.8-2.7l0.3-1.1"/>
<path class="st0" d="M120.4,241.9l0.1-0.7l0.5-2.8l0.6-2.8l0.7-2.8l0.9-2.8l1-2.7l1.2-2.6l1.4-2.5l1.7-2.4l1.9-2.2l2-2.1l2.2-1.9
	l2.3-1.8l2.4-1.6l2.5-1.5l2.5-1.5l2.4-1.5l2.4-1.5l2.3-1.5l2.3-1.6l2.3-1.6l2.2-1.6l2.2-1.7l2.3-1.7l2.3-1.7l2.3-1.6l2.4-1.6
	l2.5-1.5l2.5-1.4l2.6-1.2l2.7-1l2.8-0.8l2.8-0.6l2.9-0.4l2.9-0.1l2.9,0.1l2.9,0.3l2.9,0.4l2.8,0.5l2.8,0.5l2.8,0.5l2.7,0.4l2.7,0.3
	l2.7,0.2l2.7,0.1l2.8,0.1l2.8,0l2.8,0l2.9,0l2.9,0.1l2.9,0.2l2.9,0.3l2.9,0.5l2.8,0.7l2.8,0.9l2.7,1.1l2.6,1.3l2.5,1.6l2.3,1.8
	l2.2,2l2,2.1l1.9,2.2l1.8,2.3l1.8,2.3l1.7,2.2l1.7,2.2l1.8,2.2l1.8,2.1l1.8,2.1l1.8,2.1l1.9,2l1.9,2.1l1.9,2.1l1.8,2.1l1.8,2.2
	l1.7,2.3l1.6,2.4l1.4,2.5l1.3,2.5l1.1,2.6l0.9,2.7l0.7,2.8l0.5,2.8l0.3,2.8l0.1,2.8l0,2.8l-0.1,2.8l-0.2,2.8l-0.3,2.8l-0.3,2.7
	l-0.3,2.7l-0.3,2.7l-0.3,2.6l-0.3,2.6l-0.3,2.6l-0.2,2.6l-0.2,2.6l-0.1,2.6l-0.1,2.7l-0.1,2.7l-0.2,2.7l-0.2,2.7l-0.3,2.7l-0.4,2.7
	l-0.6,2.7l-0.7,2.7l-0.9,2.6l-1.1,2.5L288,319l-1.3,2.4l-1.4,2.4l-1.5,2.3l-1.6,2.2l-1.8,2.1l-1.9,2l-2,1.9l-2,1.9l-2.1,1.8
	l-2.1,1.7l-2.1,1.7l-2.1,1.7l-2.1,1.7l-2.1,1.7l-2.1,1.7l-0.5,0.4"/>
<path class="st0" d="M220,374.3l-1,0.4l-2.9,0.9l-3,0.7l-3,0.5l-3,0.2"/>
<path class="st0" d="M207,369.6l-2.8,0.4l-2.8,0.3l-2.9,0.2l-2.9,0.2l-2.9,0.1l-2.9,0l-2.9-0.1l-2.9-0.3l-2.9-0.4l-2.9-0.6l-2.8-0.8
	l-2.8-1l-2.7-1.2l-2.6-1.4l-2.5-1.6l-2.4-1.8l-2.3-1.9l-2.2-2l-2.1-2.1l-2-2.1l-1.9-2.1l-1.9-2.1l-1.9-2.1l-1.9-2.1l-1.9-2l-1.9-2
	l-1.9-1.9l-2-1.9l-2-1.9l-2-1.9l-1.9-2l-1.9-2.1L129,327l-1.9-2.1l-1.8-2.2l-1.8-2.3l-1.7-2.3l-1.6-2.4l-1.5-2.5l-1.3-2.6l-1.2-2.6
	l-1-2.7l-0.8-2.8l-0.7-2.8l-0.5-2.9l-0.3-2.9l-0.2-2.9l0-2.9l0.1-2.9l0.2-2.9l0.2-2.8l0.3-2.8l0.4-2.8l0.4-2.8l0.5-2.8l0.3-1.5"/>
<path class="st0" d="M119.8,244.5l0.1-0.6l0.7-2.7l0.8-2.7l0.9-2.7l1-2.6l1.2-2.6l1.3-2.5l1.4-2.4l1.6-2.3l1.7-2.2l1.9-2.1l2-2
	l2.1-1.9l2.2-1.8l2.3-1.7l2.3-1.6l2.3-1.5l2.3-1.5l2.3-1.5l2.3-1.5l2.3-1.4l2.3-1.4l2.3-1.4l2.3-1.4l2.3-1.4l2.4-1.3l2.4-1.3
	l2.4-1.2l2.5-1.1l2.5-1l2.6-0.9l2.6-0.8l2.6-0.6l2.7-0.5l2.7-0.3l2.7-0.1l2.7,0l2.7,0.2l2.7,0.3l2.7,0.3l2.6,0.3l2.6,0.3l2.6,0.2
	l2.6,0.1l2.6,0l2.7-0.1l2.7-0.2l2.7-0.2l2.8-0.2l2.8-0.2l2.9-0.1l2.9,0l2.9,0.2l2.9,0.4l2.8,0.6l2.7,0.8l2.6,1l2.5,1.3l2.4,1.5
	l2.3,1.7l2.1,1.9l2,2.1l1.9,2.2l1.8,2.2l1.7,2.2l1.7,2.2l1.7,2.2l1.6,2.2l1.6,2.1l1.6,2.1l1.7,2.1l1.6,2.1l1.6,2.1l1.6,2.1l1.6,2.2
	l1.5,2.2l1.4,2.3l1.3,2.4l1.2,2.4l1,2.5l0.9,2.5l0.7,2.6l0.5,2.6l0.4,2.7l0.2,2.7l0.1,2.7l-0.1,2.7l-0.2,2.7l-0.2,2.6l-0.3,2.6
	l-0.3,2.6l-0.3,2.5l-0.3,2.5l-0.2,2.5l0,0.4"/>
<path class="st0" d="M285.8,312L285.8,312l-1.1,2.4l-1.3,2.3l-1.4,2.2l-1.4,2.2l-1.5,2.1l-1.6,2.1l-1.6,2l-1.6,2l-1.6,2l-1.6,2
	l-1.6,2l-1.6,2.1l-1.6,2.1l-1.6,2.1l-1.6,2.2l-1.6,2.2l-1.7,2.2l-1.7,2.3l-1.8,2.2l-1.9,2.2l-2,2.1l-2.1,2.1l-2.2,1.9l-2.3,1.8
	l-2.4,1.7L241,366l-2.6,1.4l-2.6,1.3l-2.7,1.3l-2.7,1.2l-2.8,1.1l-2.8,0.9l-2.9,0.8l-2.9,0.6l-3,0.3l-3,0.1l-3-0.1l-3-0.4"/>
<path class="st0" d="M207,368.3l-2.8,0.3l-2.8,0.2l-2.8,0.1l-2.8,0l-2.8-0.2l-2.8-0.3l-2.8-0.4l-2.8-0.5l-2.8-0.6l-2.8-0.7l-2.7-0.8
	l-2.7-1l-2.6-1.1l-2.5-1.3l-2.5-1.4l-2.4-1.6l-2.3-1.7l-2.2-1.9l-2.1-2l-1.9-2.1l-1.9-2.1l-1.8-2.2l-1.7-2.2l-1.6-2.2l-1.6-2.2
	l-1.6-2.2l-1.4-2"/>
<path class="st0" d="M139.4,330l-0.2-0.4l-1.4-2.2l-1.3-2.2l-1.2-2.3l-1.2-2.3l-1.1-2.3l-1.1-2.3l-1.1-2.3l-1.1-2.3l-1.1-2.3
	l-1.1-2.3l-1.2-2.3l-1.2-2.3l-1.2-2.4l-1.2-2.4l-1.2-2.4l-1.1-2.5l-1.1-2.5l-1-2.6l-0.9-2.6l-0.7-2.7l-0.6-2.7l-0.4-2.7l-0.3-2.8
	l-0.2-2.8l-0.1-2.8l0-2.8l0.1-2.8l0.2-2.8l0.4-2.8l0.5-2.8l0.7-2.7l0.8-2.7l1-2.6l1.2-2.5l1.3-2.5l1.5-2.4l1.6-2.3l1.7-2.2l1.8-2.1
	l1.9-2l1.9-2l1.9-1.9l1.9-1.9l1.9-1.8l1.9-1.8l1.9-1.8l1.9-1.8l1.9-1.7l2-1.7l2-1.6l2.1-1.6l2.1-1.5l2.1-1.5l2.1-1.4l2.2-1.4
	l2.2-1.3l2.2-1.3l2.3-1.2l2.3-1.1l2.3-1.1l2.4-1l2.4-0.9l2.4-0.8l2.4-0.8l2.5-0.7l0,0"/>
<path class="st0" d="M237.4,192.6l2.3,0.5l2.6,0.8l2.5,1l2.4,1.2l2.3,1.4l2.2,1.6l2,1.8l1.9,1.9l1.8,2l1.7,2.1l1.6,2.1l1.6,2.1
	l1.6,2.1l1.6,2l1.6,2l1.7,1.9l1.7,1.8l1.8,1.8l1.8,1.8l1.8,1.8l1.8,1.8l1.8,1.9l1.7,2l1.7,2l1.6,2.1l1.4,2.2l1.2,2.3l1.1,2.4
	l0.9,2.5l0.6,2.6l0.4,2.6l0.2,2.6l0.1,2.6l-0.1,2.6l-0.2,2.6l-0.2,2.6l0,0.6"/>
<path class="st0" d="M281.9,316.9l-1,1.3l-1.7,2l-1.7,1.9l-1.7,1.9l-1.7,1.9l-1.7,1.9l-1.6,1.9l-1.6,2l-1.5,2l-1.5,2.1l-1.4,2.2
	l-1.4,2.2l-1.4,2.3l-1.5,2.3l-1.5,2.4l-1.6,2.3l-1.7,2.3l-1.8,2.2l-1.9,2.1l-2.1,2l-2.2,1.8l-2.3,1.6l-2.4,1.4l-2.5,1.3l-2.6,1.1
	l-2.7,1l-2.7,0.9l-2.7,0.8l-2.8,0.6l-2.8,0.5l-2.8,0.3l-2.9,0.1l-2.9-0.1l-2.8-0.3l-2.8-0.5L207,368"/>
<path class="st0" d="M207,362l-2.6,0.3l-2.6,0.2l-2.6,0l-2.6-0.1l-2.6-0.3l-2.6-0.4l-2.6-0.5l-2.6-0.5l-2.6-0.6l-2.6-0.6l-2.6-0.6
	l-2.6-0.7l-2.6-0.7l-2.5-0.8l-2.5-0.9l-2.5-1l-2.4-1.2l-2.3-1.3l-2.2-1.5l-2.1-1.6l-2-1.7l-1.9-1.9l-1.8-2l-0.6-0.8"/>
<path class="st0" d="M129.9,294.7l-0.8-1.4l-1.3-2.2l-1.3-2.2l-1.3-2.3l-1.2-2.4l-1.1-2.4l-1-2.5l-0.8-2.5l-0.7-2.6l-0.5-2.6
	l-0.4-2.7l-0.3-2.7l-0.2-2.7l-0.1-2.7l0.1-2.7l0.3-2.7l0.5-2.7l0.7-2.6l0.9-2.6l1.1-2.5l1.3-2.4l1.5-2.3l1.6-2.2l1.8-2.1l1.9-2
	l1.9-1.9l1.9-1.8l1.2-1.1"/>
<path class="st0" d="M272.1,225.8l0.2,0.2l1.9,1.6l2,1.7l2,1.7l1.9,1.8l1.8,1.9l1.7,2l1.6,2.1l1.4,2.2l1.2,2.3l1,2.4l0.7,2.5
	l0.5,2.6l0.3,2.6l0.1,2.6l-0.1,2.6l-0.2,2.6l-0.2,2.6l-0.2,2.6l-0.1,2.5l0,2.5l0,2.5l0.1,2.5l0.2,2.5l0.2,2.5l0.2,2.5l0.2,2.6
	l0.2,2.6l0.1,2.6l0,2.6l-0.2,2.6l-0.3,2.6l-0.5,2.6l-0.7,2.5l-0.9,2.4l-1.2,2.4l-1.4,2.3l-1.5,2.1l-1.7,2l-1.8,1.9L279,320l-1.9,1.8
	l-1.9,1.8l-1.9,1.7l-1.9,1.7l-1.8,1.7l-1.8,1.7l-1.7,1.7l-1.7,1.8l-1.7,1.8l-1.6,1.9l-1.6,1.9l-1.6,1.9l-1.7,2l-1.7,1.9l-1.8,1.9
	l-1.9,1.9l-1.9,1.8l-2,1.7l-2.2,1.5l-2.3,1.4l-2.3,1.2l-2.4,1l-2.5,0.9l-2.5,0.8l-2.5,0.7l-2.5,0.6l-2.6,0.5l-2.6,0.4l-2.6,0.3
	l-2.6,0.2l-2.6,0.1l-2.6,0l-2.6-0.1l-2.6-0.2"/>
<path class="st0" d="M207,355.6l-2.4,0.3l-2.4,0.1l-2.4,0l-2.4-0.1l-2.4-0.3l-2.4-0.4l-2.4-0.5l-2.4-0.5l-2.4-0.5l-2.4-0.4l-2.4-0.4
	l-2.5-0.3l-2.5-0.3L173,352l-2.6-0.4l-2.6-0.5l-2.6-0.6l-2.5-0.8l-2.5-0.9l-2.4-1.1l-2.3-1.3l-2.2-1.4l-2.1-1.6l-1.9-1.8l-0.3-0.3"
	/>
<path class="st0" d="M129.9,283.3l-0.8-2l-0.8-2.3l-0.7-2.4l-0.6-2.4l-0.5-2.4l-0.4-2.5l-0.4-2.5l-0.3-2.5l-0.2-2.6l-0.1-2.6l0-2.6
	l0.1-2.6l0.3-2.6l0.4-2.6l0.6-2.5l0.8-2.5l0.9-2.4l1.1-2.4l1.2-2.3l1.3-2.2l1.5-2.1l1.5-2.1l1.6-2l1.6-2l1.7-1.9l1.7-1.9l1.7-1.9
	l1.7-1.9l1.7-1.9l1.8-1.8l1.8-1.7l1.3-1.2"/>
<path class="st0" d="M164.8,202.6l1.9-1.1l2.3-1.2l2.3-1.1l2.3-1l2.4-1l2.4-0.9l2.4-0.8l2.4-0.8l2.5-0.7l2.5-0.6l2.5-0.5l2.5-0.5
	l2.5-0.4l2.5-0.3l2.5-0.2l2.5-0.2l2.5-0.2l1.2-0.1"/>
<path class="st0" d="M215.9,190.6l0.2,0l2.6-0.2l2.6-0.1l2.7,0l2.7,0.1l2.7,0.2l2.6,0.4l2.6,0.6l2.6,0.8l2.5,1l2.4,1.2l2.3,1.3
	l2.2,1.5l2.1,1.6l2,1.8l1.9,1.9l1.8,1.9l1.7,2l1.7,2l1.6,2.1l1.6,2.1l1.5,2l1.5,2l1.6,1.9l1.6,1.9l1.6,1.8l1.7,1.8l1.7,1.8l1.7,1.8
	l1.7,1.8l1.7,1.9l1.6,1.9l1.6,2l1.5,2.1l1.3,2.2l1.2,2.3l1,2.3l0.8,2.4l0.6,2.5l0.4,2.5l0.2,2.6l0,2.6l-0.1,2.6l-0.2,2.5l-0.2,2.5
	l-0.2,2.5l-0.1,2.4l0,2.4l0.1,2.4l0.1,2.4l0.2,2.4l0.3,2.4l0.3,2.5l0.3,2.5l0.2,2.5l0.1,2.6l0,2.6l-0.1,2.6l-0.3,2.5l-0.5,2.5
	l-0.7,2.5l-0.9,2.4l-1.1,2.3l-1.3,2.2l-1.5,2.1l-1.6,2l-1.7,1.9l-0.4,0.4"/>
<path class="st0" d="M258.3,334.8l-1.5,1.3l-1.7,1.6l-1.7,1.6l-1.8,1.6l-1.8,1.6l-1.8,1.5l-1.9,1.5l-2,1.4l-2,1.3l-2.1,1.2l-2.2,1.1
	l-2.2,0.9l-2.3,0.8l-2.3,0.8l-2.3,0.7l-2.3,0.7l-2.3,0.6l-2.4,0.6l-2.4,0.6l-2.4,0.5l-2.4,0.5l-1.2,0.2"/>
<path class="st0" d="M189.1,347.6l-1.9-0.3L185,347l-2.3-0.2l-2.4-0.1l-2.5,0l-2.5,0l-2.6,0l-2.7,0l-2.7-0.1l-2.7-0.2l-2.7-0.3
	l-2.7-0.5l-2.6-0.7L154,344l-2.4-1.2l-2.3-1.4l-2.1-1.6l-1.9-1.8l-1.8-2l-1.6-2.1l-1.5-2.2l-1.3-2.3l-1.3-2.3l-1.1-2.4l-1-2.4
	L135,320l-0.6-2.6l-0.5-2.6l-0.2-1.9"/>
<path class="st0" d="M131.5,275.1l-0.1-0.8l-0.1-2.3l-0.1-2.3l0-2.3l0-2.3l0.1-2.3l0.1-2.3l0.1-2.3l0.2-2.4l0.2-2.4l0.3-2.4l0.4-2.4
	l0.4-2.4l0.5-2.4l0.6-2.4l0.7-2.4l0.8-2.4l0.9-2.3l1-2.3l1.1-2.3l1.2-2.2l1.3-2.2l1.4-2.1l1.4-2.1l1.5-2l1.6-2l1.7-1.9l1.7-1.9
	l1.8-1.8l1.9-1.7l2-1.6l2-1.5l2.1-1.4l2.2-1.3l2.2-1.2l2.3-1.1l2.3-1l2.4-1l2.4-0.9l2.4-0.8l2.4-0.8l2.4-0.7l2.4-0.7l2.4-0.6
	l2.4-0.6l2.4-0.6l2.5-0.6l2.5-0.5l2.5-0.5l2.5-0.4l2.5-0.4l2.5-0.3l2.5-0.3l2.6-0.2l2.6-0.2l2.6-0.1l2.6,0l2.6,0.1l2.6,0.3l2.6,0.4
	l2.5,0.6l2.5,0.8l2.4,0.9l2.4,1.1l2.3,1.3l2.2,1.4l2.1,1.5l2.1,1.6l2,1.7l1.9,1.7l1.9,1.8l1.8,1.8l1.8,1.8l1.7,1.8l1.6,1.9l1.6,1.9
	l1.6,1.9l1.5,1.9l1.5,1.9l1.5,1.9l1.5,1.9l1.5,1.9l1.5,1.9l1.4,1.9l1.4,1.9l1.4,2l1.3,2l1.2,2l1.1,2.1l1,2.1l0.9,2.2l0.8,2.2
	l0.7,2.3l0.5,2.3l0.4,2.3l0.3,2.4l0.2,2.4l0.1,2.4l0,2.3l0,2.3l0,2.3l0,2.3l0.1,2.3l0.2,2.3l0.2,2.3l0.3,2.3l0.4,2.3l0.4,2.4
	l0.4,2.4l0.4,2.4l0.3,2.5l0.3,2.5l0.1,2.5l0,2.5l-0.2,2.5l-0.4,2.5l-0.6,2.4l-0.8,2.4l-1,2.3l-1.1,2.2l-1.3,2.1l-1.4,2.1l-1.5,2
	l-1.6,1.9l-1,1.2"/>
<path class="st0" d="M252.4,336.9l-0.7,0.3l-2,1.1l-2,1.1l-2,1.1l-2,1.1l-2,1.1l-2,1.1l-2,1.1l-2,1l-2,1l-2.1,1l-2.1,0.9l-2.1,0.9
	l-1.9,0.8"/>
<path class="st0" d="M178.3,344l-1.7-0.1l-2.4-0.2l-2.4-0.2l-2.5-0.3l-2.5-0.3l-2.5-0.4l-2.5-0.6l-2.5-0.7l-2.4-0.9l-2.3-1l-2.2-1.2
	l-2.1-1.4l-2-1.6l-1.8-1.7l-1.7-1.8l-1.6-1.9l-1.5-2l-1.4-2.1l-1.4-2.1l-1.3-2.1l-1.2-2.2l-1.1-2.2l-1-2.3l-0.9-2.3l-0.8-2.3
	l-0.7-2.4l-0.6-2.4l-0.5-2.4l-0.4-2.4l-0.3-2.4l-0.2-2.4l-0.1-2.4l0-0.8"/>
<path class="st0" d="M131.3,276.3l0.3-2l0.4-2.2l0.5-2.2l0.6-2.2l0.7-2.2l0.8-2.1l0.8-2.1l0.8-2.1l0.9-2l0.8-2l0.8-2l0.8-2l0.7-2
	l0.6-2.1l0.6-2.1l0.5-2.2l0.5-2.2l0.5-2.3l0.6-2.3l0.6-2.3l0.7-2.3l0.8-2.3l0.9-2.2l1-2.2l1.2-2.1l1.3-2.1l1.4-2l1.5-2l1.6-1.9
	l1.7-1.8l1.8-1.6l2-1.5l2.1-1.3l2.2-1.2l2.2-1l2.3-0.9l2.3-0.8l2.3-0.7l2.4-0.6l2.4-0.5l2.3-0.5l2.3-0.5l2.3-0.5l2.3-0.5l2.3-0.6
	l2.3-0.6l2.3-0.7l2.3-0.7l2.3-0.7l2.3-0.7l2.4-0.7l2.4-0.6l2.4-0.5l2.5-0.4l2.5-0.2l2.5-0.1l2.5,0.1l2.5,0.3l2.4,0.5l2.4,0.7
	l2.3,0.9l2.3,1.1l2.2,1.2l2.1,1.4l2,1.5l1.9,1.6l1.9,1.6l1.8,1.6l1.8,1.6l1.8,1.6l1.8,1.5l1.8,1.5l1.8,1.5l1.7,1.5l1.7,1.5l1.6,1.6
	l1.6,1.6l1.6,1.6l1.4,1.6"/>
<path class="st0" d="M280.4,287.8l0.2,2.2l0.2,2.3l0.1,2.4l0.1,2.4l0,2.4l-0.1,2.4l-0.2,2.4l-0.3,2.4l-0.5,2.4l-0.6,2.4l-0.8,2.3
	l-0.9,2.3l-1,2.3l-1.1,2.2l-1.3,2.1l-1.4,2l-1.6,1.9l-1.8,1.7l-2,1.5l-2.1,1.4l-2.2,1.2l-2.3,1.1l-2.3,1l-2.3,0.9l-2.3,0.8l-2.3,0.8
	l-2.2,0.8l-2.2,0.8l-2.1,0.8l-2.1,0.9l-2,1l-2,1l-1.9,1.1l-1.9,1.2l-1.9,1.2l-2,1.2l-2,1.2l-2,1.2l-2.1,1.2l-2.1,1.3l-2.1,1.3
	l-2.2,1.3l-2.2,1.3l-2.3,1.2l-2.4,1.1l-2.4,1l-2.5,0.8"/>
<path class="st0" d="M207,350.7l-2.2-0.5l-0.7-0.1"/>
<path class="st0" d="M183.6,345.7l-0.5-0.1l-2.1-0.7l-2.1-0.7l-2.1-0.7l-2.1-0.8l-2.1-0.8l-2.1-0.9l-2-1l-2-1l-2-1.1l-1.9-1.2
	l-1.9-1.2l-1.9-1.3l-1.8-1.4l-1.8-1.5l-1.7-1.5l-1.6-1.6l-1.6-1.7l-1.5-1.7l-1.4-1.8l-1.4-1.8l-1.4-1.8l-1.4-1.8l-1.4-1.8l-1.4-1.8
	l-1.4-1.9l-1.4-1.9l-1.3-1.9l-1.3-2l-1.2-2.1l-1.1-2.1l-1-2.2l-0.8-2.2l-0.6-2.3l-0.5-2.3l-0.3-2.4l-0.1-2.4l0.1-2.4l0.2-2.4
	l0.3-2.4l0.5-2.3l0.5-2.3l0.6-2.3l0.7-2.2l0.8-2.2l0.9-2.1l1-2.1l1.1-2l1.2-2l1.3-1.9l1.3-1.8l1.3-1.8l1.2-1.8l1.1-1.8l1-1.8
	l0.9-1.8l0.7-1.9l0.6-1.9l0.5-2l0.5-2.1l0.5-2.1l0.5-2.2l0.5-2.2l0.6-2.2l0.7-2.2l0.8-2.2l1-2.1l1.1-2.1l1.2-2l1.3-2l1.4-1.9
	l1.6-1.7l1.7-1.6l1.8-1.4l2-1.2l2.1-1l2.2-0.9l2.2-0.7l2.3-0.6l2.3-0.5l2.3-0.4l2.3-0.4l2.2-0.3l2.2-0.4l2.2-0.4l2.1-0.5l2.1-0.6
	l2.1-0.6l2.1-0.7l2.1-0.8l2.1-0.8l2.2-0.8l2.2-0.8l2.3-0.7l2.3-0.6l2.3-0.5l2.4-0.4l2.4-0.2l2.4,0l2.4,0.2l2.3,0.4l2.3,0.6l2.2,0.8
	l2.2,1l2.1,1.1l2,1.2l2,1.3l0.1,0.1"/>
<path class="st0" d="M275.2,299.4l-0.1,0.6l-0.2,2.2l-0.3,2.3l-0.3,2.3l-0.4,2.3l-0.5,2.3l-0.6,2.3l-0.6,2.3l-0.8,2.2l-0.9,2.2
	l-1.1,2.1l-1.3,1.9l-1.5,1.8l-1.7,1.7l-1.8,1.5l-1.9,1.4l-2,1.2l-2.1,1.1l-2.1,1l-2.2,0.9l-2.1,0.9l-2.1,0.9l-2.1,0.9l-2,0.9l-2,1
	l-1.9,1l-1.9,1.1l-1.9,1.2l-1.9,1.3l-1.9,1.3l-1.9,1.3l-1.9,1.3l-2,1.3l-2,1.3l-2.1,1.3l-2.1,1.3l-2.2,1.2l-2.3,1.1l-2.3,1l-2.4,0.8
	l-2.4,0.6l-2.5,0.4"/>
<path class="st0" d="M207,350.4l-2.2-0.2l-2.2-0.3l-2.2-0.3l-2.2-0.3l-2.2-0.3l-2.2-0.4l-2.2-0.4l-2.2-0.5l-2.1-0.6l-2.1-0.7
	l-2.1-0.8l-2-0.9l-2-1l-1.9-1.1l-1.9-1.2l-1.8-1.3l-1.7-1.3l-1.7-1.4l-1.6-1.4l-1.6-1.5l-1.5-1.5l-1.5-1.5l-1.5-1.5l-1.4-1.5
	l-1.4-1.5l-1.4-1.5l-1.4-1.6l-1.4-1.6l-1.3-1.6l-1.3-1.6l-1.3-1.6l-1.3-1.6l-1.3-1.6l-1.3-1.6l-1.4-1.6l-1.5-1.6l-1.5-1.6l-1.5-1.7
	l-1.5-1.7l-1.4-1.8l-1.4-1.8l-1.2-1.9l-1.1-2l-0.9-2.1l-0.8-2.1l-0.6-2.2l-0.4-2.2l-0.2-2.3l0-2.3l0.2-2.3l0.3-2.3l0.5-2.2l0.6-2.2
	l0.5-1.7"/>
<path class="st0" d="M144.7,255.2L144.7,255.2l1.2-1.7l1.1-1.7l0.9-1.7l0.8-1.8l0.7-1.8l0.6-1.9l0.5-2l0.5-2l0.5-2.1l0.5-2.1
	l0.6-2.1l0.7-2.1l0.8-2.1l0.9-2l1-2l1.1-2l1.2-1.9l1.3-1.8l1.5-1.7l1.6-1.5l1.8-1.4l1.9-1.2l2-1l2.1-0.9l2.1-0.7l2.2-0.6l2.2-0.5
	l2.2-0.4l2.2-0.4l2.1-0.3l2.1-0.4l2.1-0.4l2-0.5l2-0.6l2-0.6l2-0.7l2-0.8l2-0.8l2.1-0.8l2.1-0.8l2.2-0.7l2.2-0.7l2.3-0.6l2.3-0.5
	l2.3-0.3l2.3-0.2l2.3,0l2.3,0.1l2.3,0.3l2.3,0.5l2.2,0.7l2.2,0.8l2.1,1l2.1,1.1l2,1.2l1.9,1.2l1.9,1.3l1.9,1.3l1.8,1.3l1.8,1.3
	l1.8,1.3l1.8,1.3l1.8,1.3l1.8,1.4l1.7,1.4l1.7,1.5l1.6,1.5l1.6,1.6l1.5,1.6l1.5,1.7l1.4,1.7l1.4,1.8l1.3,1.8l1.3,1.9l1.2,1.9
	l1.1,1.9l1.1,2l1,2l1,2l0.9,2l0.9,2.1l0.8,2.1l0.7,2.1l0.7,2.1l0.6,2.1l0.6,2.2l0.5,2.2l0.4,2.2l0.3,2.2l0.1,2.2l-0.1,1.9"/>
<path class="st0" d="M268.3,308.1l-0.1,0.4l-0.5,2.1l-0.6,2.1l-0.7,2.1l-0.8,2l-1,1.9l-1.1,1.9l-1.3,1.8l-1.4,1.6l-1.5,1.5l-1.6,1.4
	l-1.7,1.3l-1.8,1.2l-1.8,1.1l-1.9,1.1l-1.9,1l-1.9,1l-1.9,1l-1.8,1l-1.8,1.1l-1.8,1.1l-1.8,1.2l-1.8,1.2l-1.8,1.2l-1.8,1.3l-1.8,1.2
	l-1.9,1.2l-1.9,1.2l-2,1.2l-2,1.1l-2.1,1.1l-2.1,1l-2.2,0.9l-2.2,0.7l-2.3,0.5l-2.3,0.3l-2.3,0.1"/>
<path class="st0" d="M207,346.5l-2.1-0.2l-2.1-0.2l-2.1-0.3l-2.1-0.3l-2.1-0.3l-2.1-0.3l-2.1-0.4l-2-0.5l-2-0.6l-2-0.7l-1.9-0.9
	l-1.9-1l-1.8-1.1l-1.7-1.2l-1.7-1.3l-1.6-1.4l-1.5-1.5l-1.4-1.5l-1.4-1.5l-1.3-1.6l-1.3-1.6l-1.2-1.6l-1.2-1.6l-0.1-0.1"/>
<path class="st0" d="M151.8,307.3l-1.3-1.3l-1.6-1.4l-1.6-1.4l-1.7-1.4l-1.7-1.5l-1.7-1.6l-1.6-1.7l-1.5-1.7l-1.4-1.8l-1.2-1.9l-1-2
	l-0.8-2.1l-0.6-2.1l-0.4-2.2l-0.2-2.2l0-2.2l0.2-2.2l0.3-2.2l0.5-2.2l0.5-2.1l0.7-2.1l0.8-2.1l1-2l1.2-1.9l1.3-1.8l1.5-1.7l1.5-1.7
	l1.5-1.6l1.5-1.5l1.5-1.5l1.4-1.5l1.3-1.5l1.2-1.5l1-1.6l0.9-1.6l0.8-1.7l0.8-1.7l0.7-1.8l0.7-1.8l0.5-1.4"/>
<path class="st0" d="M164,223.3l0.4-0.4l1.4-1.5l1.6-1.4l1.7-1.2l1.8-1.1l1.8-0.9l1.9-0.8l1.9-0.7l2-0.6l2-0.6l2-0.5l2-0.5l1.9-0.5
	l1.9-0.5l1.9-0.6l1.9-0.6l1.9-0.7l1.9-0.8l1.9-0.8l2-0.8l2-0.8l2.1-0.8l2.1-0.7l2.1-0.6l2.2-0.5l2.2-0.4l2.2-0.3l2.2-0.1l2.2,0
	l2.2,0.2l2.2,0.3l2.2,0.5l2.1,0.6l2.1,0.7l2.1,0.9l2,0.9l2,1l1.9,1l1.9,1.1l1.9,1.1l1.9,1.1l1.9,1.1l1.9,1.1l1.9,1.1l1.9,1.1
	l1.9,1.2l1.9,1.2l1.8,1.3l1.7,1.4l1.6,1.5l1.5,1.6l1.5,1.7l1.4,1.8l1.3,1.8l1.2,1.9l1.1,1.9l1,2l1,2l0.9,2l0.9,2l0.8,2l0.8,2l0.8,2
	l0.8,2l0.8,2l0.8,2l0.8,2.1l0.8,2.1l0.7,2.1l0.6,2.1l0.5,2.2l0.4,2.2l0.3,2.2l0.1,2.2l0,2.2l-0.2,2.2l-0.4,2.2l-0.1,0.4"/>
<path class="st0" d="M266.2,310.6l-0.6,1.2l-1,1.8l-1.1,1.8l-1.1,1.7l-1.2,1.7l-1.3,1.6l-1.3,1.6l-1.4,1.5l-1.5,1.5l-1.5,1.4
	l-1.6,1.4l-1.6,1.3l-1.7,1.2l-1.7,1.2l-1.7,1.2l-1.7,1.1l-1.8,1.1l-1.8,1.1l-1.8,1l-1.8,1l-1.8,1l-1.9,0.9l-1.9,0.9l-1.9,0.8
	l-1.9,0.8l-2,0.7l-2,0.6l-2,0.6l-2,0.5l-2.1,0.4l-2.1,0.3l-2.1,0.2l-2.1,0l-2.1-0.1l-2.1-0.2"/>
<path class="st0" d="M207,341.4l-2-0.2l-1.9-0.2l-1.9-0.3l-1.9-0.3l-1.9-0.3l-1.9-0.3l-1.9-0.4l-1.9-0.5l-1.9-0.5l-1.8-0.6l-1.8-0.7
	l-1.8-0.8l-1.7-0.9l-0.6-0.3"/>
<path class="st0" d="M148.9,302.2l-1.1-1.2l-1.4-1.5l-1.4-1.6l-1.3-1.6l-1.3-1.7l-1.2-1.8l-1.1-1.8l-1-1.9l-0.8-2l-0.7-2l-0.5-2.1
	l-0.4-2.1l-0.2-2.1l-0.1-2.1l0.1-2.1l0.2-2.1l0.3-2.1l0.4-2.1l0.6-2l0.8-2l1-1.9l1.2-1.8l1.3-1.8l1.5-1.7l1.6-1.6l1.6-1.5l1.6-1.4
	l1.5-1.4l1.5-1.4l1.4-1.4l1.3-1.4l1.2-1.4l0.5-0.8"/>
<path class="st0" d="M175.5,218.8l0.4-0.2l1.8-0.7l1.9-0.6l1.9-0.6l1.9-0.5l1.9-0.5l1.9-0.5l1.8-0.5l1.8-0.6l1.8-0.6l1.8-0.7
	l1.8-0.8l1.9-0.8l1.9-0.8l1.9-0.8l2-0.8l2-0.7l2-0.5l2.1-0.4l2.1-0.2l2.1,0l2.1,0.2l2.1,0.4l2,0.5l2,0.7l1.9,0.8l1.9,0.9l1.8,1
	l1.8,1l1.8,1l1.8,1l1.8,1l1.8,0.9l1.8,0.9l1.8,0.8l1.9,0.8l1.9,0.8l2,0.8l2,0.8l2,0.8l1.9,1l1.8,1.1l1.7,1.2l1.6,1.4l1.5,1.5
	l1.3,1.6l1.2,1.8l1.1,1.8l0.9,1.9l0.8,2l0.7,2l0.7,2l0.6,2l0.6,2l0.6,1.9l0.6,1.9l0.7,1.9l0.8,1.9l0.8,1.8l0.9,1.8l0.9,1.8l1,1.9
	l1,1.9l0.9,1.9l0.9,2l0.9,2l0.8,2l0.8,2.1l0.7,2.1l0.6,2.2l0.5,2.2l0.3,2.2l0.1,2.2l-0.1,2.2l-0.3,2.2l-0.5,2.2l-0.7,2.1l-0.9,2.1
	l-1,2l-1.2,1.9l-1.3,1.9l-1.3,1.8l-1.4,1.8l-1.4,1.7l-1.4,1.7l-1.4,1.6l-1.4,1.6l-1.4,1.6l-1.4,1.5l-1.4,1.5l-1.4,1.5l-1.4,1.5
	l-1.4,1.5l-1.3,1.5l-1.3,1.5l-1.3,1.5l-1.4,1.5l-1.4,1.5l-1.4,1.5l-1.5,1.4l-1.5,1.4l-1.6,1.3l-1.7,1.2l-1.7,1.1l-1.8,1l-1.9,0.9
	l-1.9,0.8l-2,0.6l-2,0.5l-2,0.4l-2,0.3l-2,0.2l-2,0.1l-2,0l-2-0.1l-2-0.2l-2-0.3l-2-0.3l-1.9-0.3l-1.9-0.3l-1.9-0.3l-1.9-0.3"/>
<path class="st0" d="M207,339.6l-1.7-0.1"/>
<path class="st0" d="M155.2,312.7l-0.3-0.4l-1.1-1.6l-1-1.6l-1-1.6l-1-1.7l-0.9-1.7l-0.9-1.7l-0.8-1.7l-0.8-1.7l-0.8-1.8l-0.7-1.8
	l-0.6-1.8l-0.6-1.8l-0.5-1.9l-0.5-1.9l-0.4-1.9l-0.3-1.9l-0.3-1.9l-0.2-1.9l-0.1-1.9l-0.1-1.9l0-1.9l0.1-1.9l0.1-1.9l0.3-1.9
	l0.4-1.9l0.6-1.9l0.7-1.8l0.8-1.8l1-1.7l1.1-1.7l1.1-1.6l1.1-1.6l1.1-1.5l1.1-1.5l1-1.5l1-1.5l0.9-1.5l0.8-1.5"/>
<path class="st0" d="M178.4,218.6l1.7-0.3l1.9-0.3l1.9-0.3l1.9-0.3l1.9-0.3l1.8-0.3l1.8-0.4l1.8-0.5l1.8-0.6l1.8-0.7l1.8-0.8
	l1.8-0.8l1.8-0.8l1.9-0.8l1.9-0.6l2-0.5l2-0.3l2-0.1l2,0.1l2,0.3l1.9,0.5l1.9,0.7l1.8,0.9l1.8,1l0.3,0.2"/>
<path class="st0" d="M240.4,223.2l1.3,0.5l1.9,0.6l1.9,0.6l1.9,0.7l1.9,0.8l1.8,0.9l1.7,1.1l1.6,1.3l1.4,1.4l1.2,1.6l1.1,1.7
	l0.9,1.8l0.8,1.9l0.7,1.9l0.6,1.9l0.5,1.9l0.5,1.9l0.5,1.9l0.5,1.8l0.6,1.8l0.6,1.8l0.7,1.7l0.8,1.7l0.9,1.7l1,1.7l1,1.7l1,1.7
	l1,1.8l1,1.8l1,1.9l1,1.9l1,2l0.9,2l0.9,2.1l0.7,2.1l0.5,2.2l0.3,2.2l0.1,2.2l-0.2,2.2l-0.4,2.1l-0.7,2.1l-0.9,2l-1.1,1.9l-1.3,1.8
	l-1.4,1.7l-1.5,1.7l-1.5,1.6l-1.5,1.5l-1.5,1.5l-1.5,1.4l-1.5,1.4l-1.5,1.4l-1.5,1.3l-1.4,1.3l-1.4,1.3l-1.3,1.4l-1.2,1.4l-1.2,1.5
	l-1.1,1.5l-1.1,1.6l-1.1,1.6l-1.1,1.6l-1.2,1.6l-1.2,1.6l-1.3,1.5l-1.4,1.5l-1.5,1.3l-1.6,1.2l-1.7,1.1l-1.8,0.9l-1.9,0.7l-1.9,0.5
	l-2,0.4l-2,0.2l-2,0.1l-2,0l-2-0.1l-2-0.2l-2-0.3l-1.9-0.4l-1.9-0.5l-1.9-0.5l-1.8-0.5l-1.8-0.4l-1.7-0.3l-1.7-0.2"/>
<path class="st0" d="M207,339.4l-1.9,0.2l-1.9,0.1l-1.9,0l-1.9-0.1l-1.9-0.2l-1.9-0.3l-1.9-0.3l-1.9-0.4l-1.9-0.5l-1.9-0.5l-1.8-0.6
	l-1.8-0.6l-1.8-0.7l-1.8-0.8l-1.7-0.8l-1.7-0.9l-1.7-1l-1.6-1l-1.6-1.1l-1.6-1.1l-1.5-1.2l-1.5-1.2l-1.4-1.3l-1.4-1.3l-1.4-1.3
	l-1.3-1.4l-1.3-1.4l-1.3-1.4l-1.2-1.4l-1.2-1.5l-1.2-1.5l-1.1-1.6l-1-1.6L153,309l-0.8-1.7l-0.7-1.8l-0.6-1.8l-0.5-1.8L150,300
	l-0.3-1.9l-0.2-1.9l-0.1-1.9l-0.1-1.9l0-1.9l0-1.8l0-1.8l0-1.8l0-1.8l0-1.8l0-1.7l0-1.7l0-1.7l0-1.7l0.1-1.7l0.1-1.7l0.2-1.7
	l0.3-1.7l0.4-1.7l0.4-1.7l0.5-1.7l0.5-1.6l0.5-1.6l0.5-1.6l0.5-1.7l0.4-1.7l0.4-1.7l0.4-1.7l0.3-1.8l0.3-1.8l0.3-1.9l0.3-1.9
	l0.1-0.8"/>
<path class="st0" d="M173.9,219.1L173.9,219.1l2.1-0.3l2.1-0.2l2.1-0.1l2.1,0l2,0.1l2,0l1.9,0l1.9-0.1l1.8-0.2l1.8-0.3l1.7-0.4
	l1.7-0.6l1.7-0.7l1.7-0.8l1.8-0.8l1.8-0.8l1.9-0.6l1.9-0.5l1.9-0.3l1.9-0.2l1.9,0l1.9,0.2l1.9,0.4l1.2,0.4"/>
<path class="st0" d="M245.2,226.6l1.1,0.4l1.8,0.8l1.7,1l1.6,1.1l1.4,1.3l1.3,1.4l1.1,1.6l1,1.7l0.8,1.8l0.7,1.8l0.6,1.9l0.5,1.9
	l0.4,1.9l0.4,1.9l0.4,1.8l0.4,1.8l0.5,1.7l0.5,1.7l0.6,1.7l0.7,1.6l0.8,1.6l0.9,1.6l0.9,1.6l0.9,1.7l0.9,1.7l0.9,1.7l0.9,1.8
	l0.8,1.8l0.8,1.9l0.7,1.9l0.6,1.9l0.4,2l0.3,2l0,2l-0.2,2l-0.4,1.9l-0.6,1.9l-0.9,1.8l-1.1,1.7l-1.2,1.7l-1.3,1.6l-1.4,1.5L264,298
	l-1.5,1.4l-1.4,1.3l-1.4,1.3l-1.4,1.3l-1.3,1.2l-1.4,1.2l-1.3,1.2l-1.3,1.2l-1.2,1.2l-1.1,1.3l-1,1.4l-0.9,1.4l-0.9,1.5l-0.8,1.6
	l-0.8,1.6l-0.8,1.7l-0.9,1.7l-0.9,1.7l-1,1.6l-1.1,1.6l-1.3,1.4l-1.4,1.3l-1.5,1.1l-1.6,1l-1.7,0.8l-1.8,0.6l-1.9,0.4l-1.9,0.2
	l-1.9,0.1l-1.9,0l-1.9-0.1l-1.9-0.2l-1.9-0.3l-1.8-0.4l-1.8-0.5l-1.8-0.5l-1.7-0.5l-1.7-0.4l-1.7-0.3l-1.6-0.2"/>
<path class="st0" d="M207,336.5l-1.8,0.3l-1.8,0.2l-1.9,0.1l-1.9,0.1l-1.9,0l-1.9,0l-1.9-0.1l-1.9-0.2l-1.9-0.3l-1.9-0.4l-1.8-0.5
	l-1.8-0.6l-1.8-0.7l-1.7-0.8l-1.7-0.9l-1.6-1l-1.5-1.1l-1.5-1.2l-1.4-1.3l-1.3-1.4l-1.3-1.4l-1.2-1.4l-1.2-1.4l-1.1-1.4l-1.1-1.4
	l-1.1-1.4l-1.1-1.4l-1.1-1.4l-1.1-1.4l-1.1-1.4l-1.1-1.4l-1-1.5l-0.9-1.5l-0.8-1.6l-0.7-1.6l-0.6-1.7l-0.5-1.7l-0.4-1.7l-0.2-1.8
	l-0.1-1.8l-0.1-1.8l0-1.8l0.1-1.8l0.1-1.7l0.2-1.7l0-0.4"/>
<path class="st0" d="M156.8,262.8l0-0.3l0.1-1.6l0-1.7l0-1.7l-0.1-1.8l-0.1-1.8l-0.2-1.9l-0.2-2l-0.1-2l-0.1-2.1l0-2.1l0.1-2.1
	l0.2-2.1l0.4-2.1l0.5-2l0.7-2l0.8-1.9l0.9-1.9l1-1.9l1.1-1.8l1.3-1.6l1.4-1.5l1.6-1.2l1.8-1l1.9-0.8l2.1-0.5l2.1-0.3l2.2-0.1
	l2.2,0.1l2.2,0.2l2.2,0.3l2.1,0.3l2,0.3l2,0.2l1.9,0.1l1.8,0l1.7-0.2l1.7-0.3l1.7-0.5l1.6-0.6l1.7-0.7l1.7-0.8l1.7-0.8l1.8-0.7
	l1.8-0.7l1.9-0.6l1.9-0.5l1.9-0.4l1.9-0.3l1.9-0.1l1.9,0l1.9,0.2l0.3,0"/>
<path class="st0" d="M236,220.1l0.9,0.6l1.6,1.1l1.5,1.1l1.5,1.1l1.5,1.1l1.5,1.1l1.5,1.1l1.5,1.2l1.4,1.3l1.3,1.4l1.2,1.5l1.1,1.6
	l1,1.6l0.8,1.7l0.7,1.8l0.6,1.8l0.5,1.8l0.5,1.8l0.4,1.8l0.3,1.8l0.3,1.8l0.3,1.8l0.3,1.7l0.3,1.5"/>
<path class="st0" d="M259.8,260.4l0.3,1.3l0.4,1.6l0.4,1.6l0.4,1.6l0.3,1.6l0.3,1.6l0.3,1.6l0.2,1.7l0.2,1.7l0.1,1.7l0,1.7l-0.1,1.7
	l-0.2,1.7l-0.3,1.7l-0.4,1.6l-0.5,1.6l-0.6,1.6l-0.7,1.5l-0.8,1.5l-0.8,1.4l-0.9,1.4l-0.9,1.4L256,296"/>
<path class="st0" d="M240.9,317.4l-0.7,1.2l-1,1.4l-1,1.4l-1.1,1.3l-1.2,1.2l-1.3,1.1l-1.4,0.9l-1.5,0.8l-1.6,0.6l-1.6,0.5l-1.7,0.4
	l-1.7,0.3l-1.7,0.2l-1.7,0.1l-1.7,0l-1.7-0.1l-1.7-0.2l-1.7-0.3l-1.6-0.4l-0.1,0"/>
<path class="st0" d="M207,331.3l-1.7,0.1l-1.7,0.1l-1.7,0.2l-1.7,0.2l-1.7,0.2l-1.8,0.2l-1.8,0.1l-1.8,0.1l-1.8,0l-1.8-0.1l-1.8-0.2
	l-1.8-0.4l-1.7-0.5l-1.7-0.7l-1.6-0.8l-1.5-1l-1.4-1.1l-1.3-1.3l-1.2-1.4l-1.1-1.4l-1.1-1.5l-1-1.5l-1-1.5l-0.9-1.5l-0.9-1.5
	l-0.9-1.4l-1-1.4l-1-1.3l-1-1.3l-1-1.3l-1-1.3l-0.9-1.3l-0.9-1.4l-0.8-1.4l-0.8-1.4l-0.7-1.5l-0.6-1.5l-0.6-1.5l-0.2-0.5"/>
<path class="st0" d="M157.9,261l0.3-1.3l0.3-1.5l0.3-1.6l0.2-1.6l0.2-1.6l0.2-1.7l0.2-1.7l0.2-1.8l0.2-1.8l0.2-1.9l0.3-1.9l0.4-1.9
	l0.5-1.8l0.6-1.8l0.7-1.8l0.8-1.8l0.9-1.7l1-1.7l1.1-1.6l1.3-1.4l1.5-1.2l1.6-1l1.7-0.8l1.8-0.6l1.9-0.4l2-0.2l2-0.1l2,0.1l2,0.1
	l1.9,0.2l1.9,0.2l1.8,0.1l1.7,0l1.7-0.1l1.6-0.2l1.6-0.4l1.6-0.5l1.6-0.7l1.6-0.7l1.6-0.8l1.7-0.8l1.7-0.8l1.7-0.8l1.8-0.8l1.8-0.8
	l1.9-0.7l1.9-0.7l2-0.6l2-0.4l2-0.2l2,0l2,0.2l1.9,0.5l1.8,0.7l1.7,0.9l1.7,1.1l1.6,1.2l1.5,1.3l1.4,1.4l1.3,1.5l1.3,1.5l1.2,1.5
	l1.2,1.5l1.2,1.5l1.1,1.5l1.1,1.5l1,1.5l1,1.5l1,1.5l1,1.5l0.9,1.5l0.9,1.4l0.9,1.4l0.9,1.5l0.9,1.5l0.8,1.5l0.8,1.5l0.7,1.5
	l0.7,1.6l0.6,1.6l0.2,0.6"/>
<path class="st0" d="M256.7,276.7l-0.2,1.1l-0.2,1.5l-0.2,1.4"/>
<path class="st0" d="M207,327.5l-1.5,0l-1.6,0.1l-1.6,0.2l-1.6,0.2l-1.6,0.3l-1.7,0.3l-1.7,0.2L194,329l-1.7,0.1l-1.7,0l-1.7-0.1
	l-1.7-0.2l-1.7-0.3l-1.7-0.5l-1.6-0.6l-1.5-0.8l-1.5-0.9l-1.4-1l-1.3-1.1l-1.2-1.2l-1.1-1.3l-1.1-1.4l-1-1.4l-1-1.4l-1-1.4l-1-1.3
	l-1-1.3l-1-1.3l-1-1.3l-1-1.3l-1-1.3l-0.9-1.3l-0.9-1.3l-0.9-1.4l-0.8-1.4l-0.8-1.4l-0.7-1.4l-0.7-1.5l-0.6-1.5l-0.6-1.5l-0.6-1.5
	l-0.5-1.5l-0.5-1.5l-0.4-1.6l-0.4-1.6l-0.3-1.6l-0.3-1.6l-0.2-1.6l-0.2-1.6l-0.1-1.6l-0.1-1.6l0-1.6l0-1.6l0.1-1.6l0.1-1.6l0.2-1.6
	l0.3-1.6l0.5-1.5l0.6-1.5l0.7-1.5l0.8-1.4l0.9-1.4l0.9-1.3l0.9-1.3l0.9-1.3l0.9-1.3l0.8-1.3l0.8-1.3l0.7-1.3l0.6-1.4l0.6-1.4
	l0.5-1.4l0.5-1.5l0.5-1.5l0.5-1.6l0.5-1.6l0.6-1.6l0.6-1.6l0.7-1.6l0.8-1.5l0.9-1.4l1.1-1.3l1.2-1.2l1.3-1l1.4-0.9l1.5-0.7l1.6-0.5
	l1.7-0.4l1.7-0.3l1.7-0.2l1.7-0.1l1.7-0.1l1.6-0.1l1.6-0.2l1.5-0.2l1.5-0.3l1.5-0.4l1.5-0.5l1.5-0.6l1.5-0.7l1.5-0.8l1.5-0.8
	l1.6-0.7l1.6-0.7l1.7-0.8l1.7-0.8l1.8-0.8l1.8-0.7l1.8-0.6l1.9-0.5l1.9-0.3l1.9-0.1l1.8,0.1l1.8,0.4l1.7,0.6l1.6,0.9l1.5,1.1
	l1.4,1.3l1.3,1.4l1.2,1.5l1.1,1.6l1.1,1.6l1,1.6l1,1.5l1,1.5l0.9,1.5l0.9,1.5l0.9,1.4l0.9,1.4l0.9,1.3l1,1.2l1,1.1l1.1,1.1l1.2,1
	l1.3,1l1.3,1l1.3,1l1.3,1l1.3,1.1l1.3,1.2l1.2,1.2l1.1,1.3l0.9,1.4l0.7,1.5l0.6,1.6l0.4,1.6l0.2,1.7l0,1.7l-0.1,1.7l-0.3,1.7
	l-0.3,1.7l-0.4,1.7l-0.4,1.6l-0.4,1.6l-0.4,1.6l-0.4,1.5l-0.3,1.5l-0.3,1.5l-0.2,1.5l-0.1,1.5l-0.1,1.5l0,1.5l0.1,1.5l0.1,1.6
	l0.1,1.6l0.1,1.6l0,1.6l-0.1,1.6l-0.2,1.6l-0.3,1.6l-0.4,1.6l-0.6,1.5l-0.7,1.5l-0.8,1.4l-0.8,1.4l-0.9,1.4l-0.9,1.3l-0.9,1.3
	l-1,1.3l-1,1.2l-1.1,1.2l-1.1,1.2l-1.1,1.1l-1.2,1.1l-1.2,1.1l-1.2,1l-1.3,1l-1.3,1l-1.3,0.9l-1.3,0.9l-1.4,0.8l-1.4,0.8l-1.4,0.8
	l-1.4,0.7l-1.5,0.7l-1.5,0.6l-1.5,0.6l-1.5,0.5l-1.5,0.5l-1.6,0.4l-1.6,0.3l-1.6,0.1l-1.6,0l-1.6-0.1l-1.6-0.2l-1.6-0.3l-1.6-0.3
	l-1.5-0.3l-1.5-0.3"/>
</svg>
