<?xml version="1.0" encoding="utf-8"?>
<!-- Generator: Adobe Illustrator 23.0.6, SVG Export Plug-In . SVG Version: 6.00 Build 0)  -->
<svg version="1.1" id="Layer_1" xmlns="http://www.w3.org/2000/svg" xmlns:xlink="http://www.w3.org/1999/xlink" x="0px" y="0px"
	 viewBox="0 0 208.7 219.4" style="enable-background:new 0 0 208.7 219.4;" xml:space="preserve">
<style type="text/css">
	.st0{fill:none;stroke:#FFFFFF;stroke-miterlimit:10;stroke-opacity:0.6;}
</style>
<title>Asset 2</title>
<g>
	<g id="Layer_1-2">
		<path class="st0" d="M133.3,109.7v1.1v0.2v0.2v0.2v0.2v0.2v0.2v0.2v0.2v0.2v0.2v0.2v0.2v0.2l0.1,0.2v0.2l0.1,0.2v0.2l0.1,0.2
			l0.1,0.2l0.1,0.2l0.1,0.2l0.1,0.2l0.1,0.2l0.1,0.2l0.1,0.2l0.1,0.2l0.1,0.2l0.1,0.2l0.1,0.2l0.1,0.2l0.1,0.2l0.1,0.2l0.1,0.2
			l0.1,0.3l0.1,0.3l0.2,0.3l0.2,0.3l0.2,0.3l0.2,0.3l0.2,0.3l0.2,0.3l0.2,0.3l0.2,0.3l0.3,0.4l0.3,0.4l0.3,0.4l0.3,0.4l0.4,0.4
			l0.4,0.5l0.4,0.5l0.5,0.6l0.6,0.6l0.6,0.7l0.7,0.7l0.8,0.8l0.9,0.9l1.1,1l1.3,1.2l1.7,1.5l2.1,1.8l2.8,2.3l4,3.3l6.6,5.1l14,10.6
			l25,19L176,155l-14.4-10l-6.9-4.6l-4.3-2.8l-3.1-2l-2.4-1.4L143,133l-1.6-0.9l-1.3-0.7l-1.2-0.6l-1-0.5l-0.9-0.4l-0.8-0.4
			l-0.7-0.4l-0.7-0.3l-0.6-0.3l-0.6-0.2l-0.5-0.2l-0.5-0.2l-0.5-0.2l-0.4-0.2l-0.4-0.1l-0.4-0.1l-0.4-0.1l-0.4-0.1l-0.4-0.1
			l-0.3-0.1l-0.3-0.1l-0.3-0.1l-0.3-0.1l-0.3-0.1h-0.3h-0.3h-0.3h-0.3h-0.3h-0.2h-0.2h-0.2h-0.2h-0.2h-0.2h-1.3H124h-0.2h-0.2h-0.2
			h-0.2h-0.2H123h-0.2h-0.2h-0.2h-0.2h-0.2H122h-0.2h-0.2h-0.2h-0.2l-0.2,0.1h-0.2h-0.2l-0.2,0.1h-0.2h-0.2h-0.2l-0.2,0.1H120
			l-0.1,0.1l-0.2,0.1l-0.2,0.1l-0.2,0.1l-0.1,0.1l-0.2,0.1l-0.2,0.1l-0.2,0.1l-0.2,0.1l-0.2,0.1l-0.1,0.1l-0.2,0.1l-0.2,0.1
			l-0.2,0.1l-0.2,0.1l-0.2,0.1l-0.2,0.1l-0.2,0.1l-0.2,0.1l-0.2,0.1l-0.2,0.1l-0.2,0.1l-0.2,0.1l-0.2,0.1l-0.2,0.1l-0.2,0.1
			l-0.2,0.1l-0.2,0.1l-0.2,0.2l-0.2,0.1l-0.2,0.2L115,130l-0.2,0.2l-0.2,0.2l-0.2,0.2l-0.2,0.2l-0.2,0.2l-0.2,0.2l-0.2,0.2l-0.2,0.3
			l-0.2,0.3l-0.2,0.3l-0.2,0.3l-0.3,0.3l-0.3,0.3l-0.3,0.4l-0.3,0.4l-0.3,0.4l-0.3,0.5l-0.3,0.5l-0.3,0.5l-0.3,0.6l-0.4,0.6
			l-0.4,0.7l-0.4,0.8l-0.5,0.9l-0.5,1l-0.6,1.2l-0.6,1.4l-0.8,1.6l-0.9,2l-1.1,2.6l-1.4,3.4l-1.8,4.9l-2.9,8.4l-5.8,16.6l-10.3,29.7
			l9.1-30.1l5.1-16.8l2.3-8l1.4-5l0.9-3.6l0.7-2.7l0.5-2.2l0.4-1.8l0.3-1.5l0.2-1.3l0.2-1.1l0.2-1l0.1-0.9l0.1-0.8l0.1-0.7l0.1-0.7
			v-0.6v-0.6v-0.6v-0.5v-2.1v-0.4V129v-0.3v-0.3V128v-0.3v-0.3v-0.3v-0.3v-0.3l-0.1-0.2v-0.2v-0.2l-0.1-0.2v-0.2l-0.1-0.2l-0.1-0.2
			l-0.1-0.2l-0.1-0.2l-0.1-0.2l-0.1-0.2l-0.1-0.2l-0.1-0.2l-0.1-0.2l-0.1-0.2l-0.1-0.2l-0.1-0.2l-0.1-0.2l-0.1-0.2l-0.1-0.2
			l-0.1-0.2l-0.1-0.2l-0.1-0.2l-0.1-0.2l-0.1-0.1l-0.1-0.2l-0.1-0.1l-0.1-0.1l-0.1-0.1l-0.1-0.1l-0.1-0.1L101,121l-0.1-0.1l-0.1-0.1
			l-0.1-0.1l-0.1-0.1l-0.1-0.1l-0.1-0.1l-0.1-0.1l-0.1-0.1l-0.1-0.1l-0.1-0.1l-0.1-0.1l-0.1-0.1l-0.1-0.1l-0.1-0.1l-0.1-0.1
			l-0.1-0.1l-0.1-0.1l-0.1-0.1l-0.1-0.1l-0.1-0.1l-0.1-0.1l-0.1-0.1l-0.1-0.1l-0.1-0.1l-0.1-0.1l-0.1-0.1l-0.1-0.1l-0.2-0.1
			l-0.2-0.1l-0.2-0.1l-0.2-0.1l-0.2-0.1l-0.2-0.1l-0.2-0.1l-0.2-0.1l-0.2-0.1l-0.2-0.1l-0.2-0.1l-0.2-0.1l-0.2-0.1l-0.2-0.1
			l-0.2-0.1l-0.2-0.1l-0.2-0.1l-0.3-0.1l-0.3-0.1l-0.3-0.1l-0.3-0.1l-0.3-0.1l-0.3-0.1l-0.3-0.1l-0.3-0.1l-0.4-0.1l-0.4-0.1
			l-0.4-0.1l-0.4-0.1l-0.5-0.1l-0.5-0.1l-0.5-0.1l-0.6-0.2l-0.6-0.1l-0.7-0.2l-0.7-0.2l-0.8-0.2l-0.9-0.2l-1-0.2l-1.1-0.2l-1.3-0.2
			l-1.5-0.2l-1.8-0.2l-2.2-0.2l-2.8-0.2l-3.7-0.2l-5.2-0.3l-8.3-0.3l-17.5-0.4l-31.4-0.7l31.4-0.7l17.5-0.4l8.3-0.3l5.2-0.3l3.7-0.2
			l2.8-0.2l2.2-0.2l1.8-0.2l1.5-0.2l1.3-0.2l1.1-0.2l1-0.2l0.9-0.2l0.8-0.2l0.7-0.2l0.7-0.2l0.6-0.2l0.6-0.1l0.5-0.2l0.5-0.1
			l0.5-0.1l0.4-0.1l0.4-0.1l0.4-0.1l0.4-0.1l0.3-0.1l0.3-0.1l0.3-0.1l0.3-0.1l0.3-0.1l0.3-0.1l0.3-0.1l0.3-0.1l0.2-0.1l0.2-0.1
			l0.2-0.1l0.2-0.1l0.2-0.1l0.2-0.1l0.2-0.1l0.2-0.1l0.2-0.1l0.2-0.1l0.2-0.1l0.2-0.1l0.2-0.1l0.2-0.1l0.2-0.1l0.2-0.1l0.2-0.1
			l0.1-0.1l0.1-0.1l0.1-0.1l0.1-0.1l0.1-0.1l0.1-0.1l0.1-0.1l0.1-0.1l0.1-0.1l0.1-0.1l0.1-0.1l0.1-0.1l0.1-0.1l0.1-0.1l0.1-0.1
			l0.1-0.1l0.1-0.1l0.1-0.1l0.1-0.1l0.1-0.1l0.1-0.1l0.1-0.1l0.1-0.1l0.1-0.1l0.1-0.1l0.1-0.1l0.1-0.1l0.1-0.1l0.1-0.1l0.1-0.1
			l0.1-0.1l0.1-0.1l0.1-0.2l0.1-0.1l0.1-0.2l0.1-0.2l0.1-0.2l0.1-0.2l0.1-0.2l0.1-0.2l0.1-0.2l0.1-0.2l0.1-0.2l0.1-0.2l0.1-0.2
			l0.1-0.2l0.1-0.2l0.1-0.2l0.1-0.2l0.1-0.2l0.1-0.2l0.1-0.2l0.1-0.2l0.1-0.2v-0.2l0.1-0.2v-0.2v-0.2l0.1-0.3v-0.3v-0.3V92v-0.3
			v-0.3v-0.3v-0.3v-0.3v-0.3v-0.4v-2.1v-0.5v-0.5V86v-0.6l-0.1-0.7l0.3-0.7l-0.1-0.8l-0.1-0.9l-0.2-1l-0.2-1.1l-0.2-1.3l-0.3-1.5
			l-0.4-1.8l-0.5-2.2l-0.7-2.7l-0.9-3.5l-1.4-5l-2.3-8L91,37.4L81.9,7.3L92.3,37L98,53.5l2.9,7.8l1.8,4.8l1.4,3.4l1.1,2.6l0.9,2
			l0.8,1.7l0.6,1.4l0.6,1.2l0.5,1l0.5,0.9l0.4,0.8l0.4,0.7l0.4,0.6l0.3,0.6l0.3,0.5l0.3,0.5l0.3,0.4l0.3,0.4l0.3,0.4l0.3,0.4
			l0.3,0.3l0.3,0.3l0.2,0.3l0.2,0.3l0.2,0.3l0.2,0.3l0.2,0.2l0.2,0.2l0.2,0.2l0.2,0.2l0.2,0.2l0.2,0.2L115,89l0.2,0.2l0.2,0.2
			l0.2,0.2l0.2,0.2l0.2,0.2l0.2,0.1l0.2,0.1l0.2,0.1l0.2,0.1l0.2,0.1l0.2,0.1l0.2,0.1l0.2,0.1l0.2,0.1l0.2,0.1l0.2,0.1l0.2,0.1
			l0.2,0.1l0.2,0.1l0.2,0.1l0.2,0.1l0.1,0.1l0.2,0.1l0.2,0.1l0.2,0.1l0.2,0.1l0.2,0.1l0.1,0.1l0.2,0.1l0.2,0.1l0.2,0.1l0.1,0.1
			l0.2,0.1l0.2,0.1l0.2,0.1h0.2h0.2h0.2h0.2h0.2h0.2h0.2h0.2h0.2h0.2h0.2h0.2h0.2h0.2h0.2h0.2h0.2h0.2h0.2h0.2h0.2h0.2h2.2h0.2h0.2
			h0.2h0.2h0.2h0.3h0.3h0.3h0.3l0.3-0.1l0.3-0.1l0.3-0.1l0.3-0.1l0.3-0.1l0.3-0.1l0.4-0.1l0.4-0.1l0.4-0.1l0.4-0.1l0.4-0.1l0.4-0.2
			l0.5-0.2l0.5-0.2l0.5-0.2l0.6-0.2l0.6-0.3l0.7-0.3l0.7-0.3l0.8-0.4l0.9-0.4l1-0.5l1.2-0.6l1.3-0.7l1.6-0.9l1.9-1.1l2.4-1.4l3.1-2
			l4.4-2.4l6.9-4.7l14.4-10l25.8-17.9l-25,19l-14,10.6l-6.6,5.1l-4,3.3l-2.8,2.3l-2.1,1.8l-1.7,1.5l-1.3,1.2l-1.1,1l-0.9,0.9L142,94
			l-0.7,0.7l-0.6,0.7l-0.6,0.6l-0.5,0.6l-0.4,0.5l-0.4,0.5l-0.4,0.4l-0.3,0.4l-0.3,0.4l-0.3,0.4l-0.3,0.4l-0.2,0.3l-0.2,0.3
			l-0.2,0.3l-0.2,0.3l-0.2,0.3l-0.2,0.3l-0.2,0.3l-0.2,0.3l-0.1,0.3l-0.1,0.3l-0.1,0.3l-0.1,0.2l-0.1,0.2l-0.1,0.2l-0.1,0.2
			l-0.1,0.2l-0.1,0.2l-0.1,0.2l-0.1,0.2l-0.1,0.2l-0.1,0.2l-0.1,0.2l-0.1,0.2l-0.1,0.2l-0.1,0.2l-0.1,0.2v0.2l-0.1,0.2v0.2l-0.1,0.2
			v0.2v0.2v0.2v0.2v0.2v0.2v0.2v0.2v0.2v0.2v0.2v0.2v0.2v1.1"/>
		<path class="st0" d="M133.4,109.7v1.1v0.2v0.2v0.2v0.2v0.2v0.2v0.2v0.2v0.2v0.2v0.2v0.2v0.2v0.2v0.2l0.1,0.2v0.2l0.1,0.2l0.1,0.2
			l0.1,0.2l0.1,0.2l0.1,0.2l0.1,0.2l0.1,0.2l0.1,0.2l0.1,0.2l0.1,0.2l0.1,0.2l0.1,0.2l0.1,0.2l0.1,0.2l0.1,0.2l0.1,0.2l0.1,0.3
			l0.1,0.3l0.1,0.3l0.2,0.3l0.2,0.3l0.2,0.3l0.2,0.3l0.2,0.3l0.2,0.3l0.3,0.3l0.3,0.4l0.3,0.4l0.3,0.4l0.3,0.4l0.4,0.4l0.4,0.5
			l0.5,0.5l0.5,0.6l0.6,0.6l0.6,0.7l0.7,0.7l0.8,0.8l1,0.9l1.1,1.1l1.4,1.2l1.7,1.5l2.1,1.8l2.8,2.4l4.1,3.3l6.6,5.2l14.1,10.7
			l25.6,19.1l-25.9-18l-14.6-10.1l-7-4.7l-4.4-2.9l-3.1-2l-2.4-1.5l-1.9-1.1l-1.6-0.9l-1.4-0.7l-1.2-0.6l-1-0.5l-0.9-0.5l-0.8-0.4
			l-0.8-0.4l-0.7-0.3l-0.6-0.3l-0.6-0.2l-0.6-0.2l-0.5-0.2l-0.5-0.2l-0.4-0.2l-0.4-0.1l-0.4-0.1l-0.4-0.1l-0.4-0.1l-0.4-0.1l-0.3,0
			l-0.3-0.1l-0.3-0.1l-0.3-0.1l-0.3-0.1l-0.3-0.1h-0.3h-0.3h-0.3h-0.3h-0.3H127h-0.2h-0.2h-0.2h-2.4h-0.2h-0.2h-0.2h-0.2H123h-0.2
			h-0.2h-0.2h-0.2h-0.2h-0.2h-0.2h-0.2h-0.2h-0.2h-0.2h-0.2H121l-0.2,0.1h-0.2h-0.2l-0.2,0.1h-0.2l-0.2,0.1l-0.2,0.1l-0.2,0.1
			l-0.2,0.1l-0.2,0.1l-0.2,0.1l-0.2,0.1l-0.1,0.1l-0.2,0.1l-0.2,0.1l-0.2,0.1l-0.2,0.1l-0.2,0.1l-0.2,0.1l-0.2,0.1l-0.2,0.1
			l-0.2,0.1l-0.2,0.1l-0.2,0.1l-0.2,0.1l-0.2,0.1l-0.2,0.1l-0.2,0.1l-0.2,0.1l-0.2,0.1l-0.2,0.1l-0.2,0.1l-0.2,0.1l-0.2,0.1
			l-0.2,0.2l-0.2,0.2l-0.2,0.2l-0.2,0.2l-0.2,0.2l-0.2,0.2l-0.2,0.2l-0.2,0.2l-0.2,0.2l-0.2,0.2l-0.2,0.2l-0.2,0.3l-0.2,0.3
			l-0.2,0.3l-0.2,0.3l-0.2,0.3l-0.3,0.4l-0.3,0.4l-0.3,0.4l-0.3,0.4l-0.3,0.5l-0.3,0.5l-0.3,0.5l-0.3,0.6l-0.4,0.6l-0.4,0.7
			l-0.4,0.8l-0.5,0.9l-0.5,1l-0.6,1.2l-0.7,1.4l-0.8,1.7l-0.9,2l-1.1,3.2l-1.4,3.4l-1.9,4.9l-2.9,7.9L92,183.2L81.7,213l9.1-30.2
			l5.1-17l2.3-8.1l1.4-5.1l0.9-3.6l0.7-2.7l0.5-2.2l0.4-1.8l0.3-1.5l0.2-1.3l0.2-1.1l0.2-1l0.1-0.9l0.1-0.8l0.1-0.8l0.1-0.7v-0.6
			V133v-0.6V132v-0.5v-1.7v-0.4v-0.4v-0.3v-0.3v-0.3v-0.3v-0.3v-0.3V127v-0.3v-0.3v-0.2v-0.2v-0.2l-0.1-0.2l-0.1-0.2l-0.1-0.2
			L103,125l-0.1-0.2l-0.1-0.2l-0.1-0.2l-0.1-0.2l-0.1-0.2l-0.1-0.2l-0.1-0.2l-0.1-0.2l-0.1-0.2l-0.1-0.2L102,123l-0.1-0.2l-0.1-0.2
			l-0.1-0.2l-0.1-0.2l-0.1-0.2l-0.1-0.2l-0.1-0.2l-0.1-0.1l-0.1-0.1l-0.1-0.1l-0.1-0.1l-0.1-0.1l-0.1-0.1l-0.1-0.1l-0.1-0.1
			l-0.1-0.1l-0.1-0.1l-0.1-0.1l-0.1-0.1l-0.1-0.1l-0.1-0.1l-0.1-0.1l-0.1-0.1l-0.1-0.1l-0.1-0.1l-0.1-0.1l-0.1-0.1l-0.1-0.1
			l-0.1-0.1l-0.1-0.1l-0.1-0.1l-0.1-0.1l-0.1-0.1l-0.1-0.1l-0.1-0.1l-0.1-0.1l-0.1-0.1l-0.1-0.1l-0.1-0.1l-0.1-0.1l-0.2-0.1
			l-0.2-0.1l-0.2-0.1l-0.2-0.1l-0.2-0.1l-0.2-0.1l-0.2-0.1l-0.2-0.1l-0.2-0.1l-0.2-0.1l-0.2-0.1l-0.2-0.1l-0.2-0.1l-0.2-0.1
			l-0.2-0.1l-0.3-0.1l-0.2-0.1l-0.3-0.1l-0.3-0.1l-0.3-0.1l-0.3-0.1l-0.3-0.1l-0.3-0.1l-0.3-0.1l-0.3-0.1l-0.4-0.1l-0.4-0.1
			l-0.4-0.1l-0.4-0.1l-0.5-0.1l-0.5-0.1l-0.5-0.1l-0.6-0.2l-0.6-0.2l-0.7-0.2l-0.7-0.2l-0.8-0.2l-0.9-0.2l-1-0.2l-1.2-0.2l-1.3-0.2
			l-1.5-0.2l-1.8-0.2l-2.2-0.2l-2.8-0.2l-3.7-0.2l-5.2-0.3l-8.4-0.3l-17.7-0.4l-31.5-0.7l31.5-0.7l17.7-0.4l8.4-0.3l5.2-0.3l3.7-0.2
			l2.8-0.2l2.2-0.2l1.8-0.2l1.5-0.2l1.3-0.2l1.2-0.2l1-0.2l0.9-0.2l0.8-0.2l0.7-0.2l0.7-0.2l0.6-0.2l0.6-0.1l0.5-0.2l0.5-0.1
			l0.5-0.1l0.4-0.1l0.4-0.1l0.4-0.1l0.4-0.1l0.3-0.1l0.3-0.1l0.3-0.1l0.3-0.1L94,104l0.3-0.1l0.3-0.1l0.3-0.1l0.2-0.1l0.2-0.1
			l0.2-0.1l0.2-0.1l0.2-0.1l0.2-0.1l0.2-0.1l0.2-0.1l0.2-0.1l0.2-0.1l0.2-0.1l0.2-0.1l0.2-0.1l0.2-0.1l0.2-0.1l0.2-0.1l0.2-0.1
			l0.1-0.1l0.1-0.1l0.1-0.1l0.1-0.1l0.1-0.1l0.1-0.1l0.1-0.1l0.1-0.1l0.1-0.1l0.1-0.1l0.1-0.1l0.1-0.1l0.1-0.1l0.1-0.1l0.1-0.1
			l0.1-0.1l0.1-0.1l0.1-0.1l0.1-0.1l0.1-0.1l0.1-0.1l0.1-0.1l0.1-0.1l0.1-0.1l0.1-0.1l0.1-0.1l0.1-0.1l0.1-0.1l0.1-0.1l0.1-0.1
			l0.1-0.1l0.1-0.2l0.1-0.1l0.1-0.1l0.1-0.2l0.1-0.2l0.1-0.2l0.1-0.2l0.1-0.2l0.1-0.2l0.1-0.2l0.1-0.2l0.1-0.2l0.1-0.2l0.1-0.2
			l0.1-0.2l0.1-0.2l0.1-0.2l0.1-0.2l0.1-0.2l0.1-0.2l0.1-0.2l0.1-0.2l0.1-0.2l0.1-0.2v-0.2v-0.2v-0.2v-0.3v-0.3v-0.3v-0.3v-0.3v-0.3
			V91v-0.3v-0.3V90v-0.4V88v-0.5V87v-0.6v-0.6v-0.6l-0.1-0.7l-0.1-0.8L103,83l-0.1-0.9l-0.2-1l-0.2-1.1l-0.2-1.3l-0.3-1.5l-0.4-1.8
			l-0.5-2.2l-0.7-2.7l-0.9-3.6l-1.4-5.1l-2.3-8.2l-5.1-17L81.7,6.5L92,36.2L97.9,53l2.9,7.9l1.9,4.9l1.4,3.4l1.1,2.6l0.9,2l0.8,1.7
			l0.7,1.4l0.6,1.2l0.5,1l0.5,0.9l0.4,0.8l0.4,0.7l0.4,0.7l0.3,0.6l0.3,0.5l0.3,0.5l0.3,0.5l0.3,0.4l0.3,0.4l0.3,0.4l0.3,0.3
			l0.2,0.3l0.2,0.3l0.2,0.3l0.2,0.3l0.2,0.3l0.2,0.2l0.2,0.2l0.2,0.2l0.2,0.2l0.2,0.2l0.2,0.2l0.2,0.2l0.2,0.2l0.2,0.2l0.2,0.2
			l0.2,0.2l0.2,0.2l0.2,0.1l0.2,0.1l0.2,0.1l0.2,0.1l0.2,0.1l0.2,0.1l0.2,0.1l0.2,0.1l0.2,0.1l0.2,0.1l0.2,0.1l0.2,0.1L118,91
			l0.2,0.1l0.2,0.1l0.2,0.1l0.2,0.1l0.2,0.1l0.2,0.1l0.2,0.1l0.1,0.1l0.2,0.1l0.2,0.1l0.2,0.1l0.2,0.1L120,92l0.2,0.1h0.2l0.2,0.1
			h0.2h0.2h0.2h0.2l0.2,0.1h0.2h0.2h0.2h0.2h0.2h0.2h0.2h0.2h0.2h0.2h0.2h0.2h0.2h0.2h0.2h0.2h0.2h0.2h2h0.2h0.2h0.2h0.2h0.2h0.3
			h0.3h0.3h0.3h0.3h0.3l0.3-0.1l0.3-0.1l0.3-0.1l0.3-0.1l0.3-0.1l0.4-0.1l0.4-0.1l0.4-0.1l0.4-0.1l0.4-0.2l0.4-0.2l0.5-0.2l0.5-0.2
			l0.6-0.2l0.6-0.3l0.6-0.3l0.7-0.3l0.8-0.3l0.8-0.4l0.9-0.5l1-0.5l1.2-0.6l1.4-0.8l1.6-0.9l1.9-0.6l2.4-1.5l3.1-2l4.4-2.9l7-4.7
			l14.5-10.1l25.9-18L177.9,65l-14.1,10.7l-6.6,5.2l-4.1,3.3l-2.8,2.4l-2.1,1.8l-1.7,1.5l-1.4,1.2l-1.1,1l-1,0.9l-0.8,0.8l-0.7,0.7
			l-0.6,0.7l-0.6,0.6l-0.5,0.6l-0.5,0.5l-0.4,0.5l-0.4,0.4l-0.3,0.4l-0.3,0.4l-0.3,0.4l-0.3,0.4l-0.3,0.3l-0.2,0.3l-0.2,0.3
			l-0.2,0.3l-0.2,0.3l-0.2,0.3l-0.2,0.3l-0.1,0.3l-0.1,0.3l-0.1,0.3l-0.1,0.3l-0.1,0.2l-0.1,0.2l-0.1,0.2l-0.1,0.2l-0.1,0.2
			l-0.1,0.2l-0.1,0.2l-0.1,0.2l-0.1,0.2l-0.1,0.2l-0.1,0.2l-0.1,0.2l-0.1,0.2l-0.1,0.2l-0.1,0.2v0.2l-0.1,0.2v0.2v0.2v0.2v0.2v0.2
			v0.2v0.2v0.2v0.2v0.2v0.2v0.2v0.2v0.2v0.2v1.1"/>
		<path class="st0" d="M133.5,109.7v1.1v0.2v0.2v0.2v0.2v0.2v0.2v0.2v0.2v0.2v0.2v0.2v0.2v0.2l0.1,0.2v0.2l0.1,0.2l0.1,0.2l0.1,0.2
			l0.1,0.2l0.1,0.2l0.1,0.2l0.1,0.2l0.1,0.2l0.1,0.2l0.1,0.2l0.1,0.2l0.1,0.2l0.1,0.2l0.1,0.2l0.1,0.2l0.1,0.2l0.1,0.2l0.1,0.2
			l0.1,0.3l0.1,0.3l0.2,0.3l0.2,0.3l0.2,0.3l0.2,0.3l0.2,0.3l0.2,0.3l0.2,0.3l0.3,0.3l0.3,0.4l0.3,0.4l0.3,0.4l0.4,0.4l0.4,0.4
			l0.4,0.5l0.5,0.5l0.5,0.6l0.6,0.6l0.6,0.7l0.7,0.7l0.8,0.8l1,0.9l1.1,1.1l1.4,1.2l1.7,1.5l2.1,1.8l2.9,2.4l4.1,3.3l6.7,5.3
			l14.3,10.8l25.6,19.1l-26-18L163,145.8l-7-4.8l-4.4-2.9l-3.2-2l-2.4-1.5l-2-1.1l-1.6-0.9l-1.4-0.8l-1.2-0.6l-1-0.5l-0.9-0.5
			l-0.8-0.4l-0.8-0.4l-0.7-0.3l-0.6-0.3l-0.6-0.2l-0.6-0.2l-0.5-0.2l-0.5-0.2l-0.5-0.2l-0.4-0.1l-0.4-0.1l-0.4-0.1l-0.4-0.1
			l-0.4-0.1l-0.4-0.1l-0.3-0.1l-0.3-0.1l-0.3-0.1l-0.3-0.1l-0.3-0.1l-0.3-0.1H128h-0.3h-0.3h-0.3H127h-0.2h-0.2h-0.2H124h-0.2h-0.2
			h-0.2h-0.2h-0.2H123h-0.2h-0.2h-0.2h-0.2h-0.2H122h-0.2h-0.2h-0.2h-0.2h-0.2h-0.2h-0.2h-0.2l-0.2,0.1h-0.2l-0.2,0.1l-0.2,0.1
			L120,127l-0.2,0.1l-0.2,0.1l-0.2,0.1l-0.2,0.1l-0.2,0.1l-0.2,0.1l-0.2,0.1l-0.2,0.1l-0.2,0.1l-0.2,0.1l-0.2,0.1l-0.2,0.1l-0.2,0.1
			l-0.2,0.1l-0.2,0.1l-0.2,0.1l-0.2,0.1l-0.2,0.1l-0.2,0.1l-0.2,0.1l-0.2,0.1l-0.2,0.1l-0.2,0.1l-0.2,0.1l-0.2,0.1l-0.2,0.1
			l-0.2,0.1l-0.2,0.2l-0.2,0.2l-0.2,0.2l-0.2,0.2l-0.2,0.2l-0.2,0.2l-0.2,0.2l-0.2,0.2l-0.2,0.2l-0.2,0.2l-0.2,0.2l-0.2,0.3
			l-0.2,0.3l-0.2,0.3l-0.2,0.3l-0.2,0.3l-0.3,0.4l-0.3,0.4l-0.3,0.4l-0.3,0.4l-0.3,0.5l-0.3,0.5l-0.3,0.6l-0.4,0.6l-0.4,0.7
			l-0.4,0.7l-0.4,0.8l-0.5,0.9l-0.5,1l-0.6,1.2l-0.7,1.4l-0.8,1.7l-0.9,2.1l-1.1,2.6l-1.4,4l-1.9,5l-2.9,8l-5.9,16.9l-10.4,29.8
			l9.1-30.3l5.2-17.2l2.3-8.2l1.4-5.1l0.9-3.6l0.7-2.8l0.5-2.2l0.4-1.8l0.3-1.5l0.2-1.3l0.2-1.2l0.2-1l0.1-0.9l0.1-0.8l0.1-0.8
			l0.1-0.7v-0.6v-0.6v-0.6v-0.5V130v-0.4v-0.4v-0.3v-0.3v-0.3V128v-0.3v-0.3v-0.3v-0.3v-0.3l-0.1-0.3v-0.2V126l-0.1-0.2v-0.2
			l-0.1-0.2l-0.1-0.2l-0.1-0.2l-0.1-0.2l-0.1-0.2l-0.1-0.2l-0.1-0.2l-0.1-0.2l-0.1-0.2l-0.1-0.2l-0.1-0.2l-0.1-0.2l-0.1-0.2
			l-0.1-0.2l-0.1-0.2l-0.1-0.2l-0.1-0.2l-0.1-0.2l-0.1-0.2l-0.1-0.2l-0.1-0.1l-0.1-0.1l-0.1-0.2l-0.1-0.1l-0.1-0.1l-0.1-0.1
			l-0.1-0.1l-0.1-0.1l-0.1-0.1l-0.1-0.1l-0.1-0.1l-0.1-0.1l-0.1-0.1l-0.1-0.1L100,120l-0.1-0.1l-0.1-0.1l-0.1-0.1l-0.1-0.1l-0.1-0.1
			l-0.1-0.1l-0.1-0.1l-0.1-0.1l-0.1-0.1l-0.1-0.1l-0.1-0.1l-0.1-0.1l-0.1-0.1l-0.1-0.1l-0.1-0.1l-0.1-0.1L98,118l-0.2-0.1l-0.1-0.1
			l-0.2-0.1l-0.2-0.1l-0.2-0.1l-0.2-0.1l-0.2-0.1l-0.2-0.1l-0.2-0.1l-0.2-0.1l-0.2-0.1l-0.2-0.1l-0.2-0.1l-0.2-0.1l-0.2-0.1
			l-0.2-0.1l-0.2-0.1l-0.3-0.1l-0.3-0.1l-0.3-0.1l-0.3-0.1l-0.3-0.1l-0.3-0.1l-0.3-0.1l-0.3-0.1l-0.3-0.1l-0.4-0.1l-0.4-0.1
			l-0.4-0.1l-0.4-0.1l-0.5-0.1l-0.5-0.1l-0.5-0.1l-0.6-0.2l-0.6-0.2l-0.7-0.2l-0.7-0.2l-0.8-0.2l-0.9-0.2l-1-0.2l-1.2-0.2l-1.3-0.2
			l-1.6-0.2l-1.9-0.2l-2.2-0.2l-2.8-0.2l-3.7-0.2l-5.3-0.3l-8.5-0.3l-17.9-0.4l-31.6-0.7l31.6-0.7l17.9-0.4l8.5-0.3l5.3-0.3l3.7-0.2
			l2.8-0.2l2.2-0.2l1.8-0.2l1.6-0.2l1.3-0.2l1.2-0.2l1-0.2l0.9-0.2l0.8-0.2l0.7-0.2l0.7-0.2l0.6-0.2l0.6-0.1l0.5-0.2l0.5-0.1
			l0.5-0.1l0.4-0.1l0.4-0.1l0.4-0.1l0.4-0.1l0.3-0.1l0.3-0.1l0.3-0.1l0.3-0.1l0.3-0.1l0.3-0.1l0.3-0.1l0.3-0.1l0.3-0.1l0.2-0.1
			l0.2-0.1l0.2-0.1l0.2-0.1l0.2-0.1l0.2-0.1l0.2-0.1l0.2-0.1l0.2-0.1l0.2-0.1l0.2-0.1l0.2-0.1l0.2-0.1l0.2-0.1l0.2-0.1l0.1-0.1
			l0.2-0.1l0.1-0.1l0.1-0.1l0.1-0.1l0.1-0.1l0.1-0.1l0.1-0.1l0.1-0.1l0.1-0.1l0.1-0.1l0.1-0.1l0.1-0.1l0.1-0.1l0.1-0.1l0.1-0.1
			l0.1-0.1l0.1-0.1l0.1-0.1l0.1-0.1l0.1-0.1l0.1-0.1l0.1-0.1l0.1-0.1l0.1-0.1l0.1-0.1l0.1-0.1l0.1-0.1l0.1-0.1L101,98l0.1-0.1
			l0.1-0.1l0.1-0.2l0.1-0.1l0.1-0.2l0.1-0.2l0.1-0.2l0.1-0.2l0.1-0.2l0.1-0.2l0.1-0.2l0.1-0.2L102,96l0.1-0.2l0.1-0.2l0.1-0.2
			l0.1-0.2l0.1-0.2l0.1-0.2l0.1-0.2l0.1-0.2l0.1-0.2l0.1-0.2l0.1-0.2v-0.2l0.1-0.2v-0.2V93l0.1-0.2v-0.3v-0.3V92v-0.3v-0.3v-0.3
			v-0.3v-0.3v-0.3v-0.4v-0.4v-2.1v-0.5v-0.6v-0.6V85l-0.1-0.7l-0.1-0.8l-0.1-0.8l-0.1-0.9l-0.2-1l-0.2-1.2l-0.2-1.3l-0.3-1.5V75
			l-0.5-2.2l-0.7-2.8l-0.9-3.6l-1.4-5.1l-2.3-8.2L90.5,36L81.4,5.7l10.4,29.9l5.9,16.9l2.9,8l1.9,5l1.4,3.5l1.1,2.6l0.9,2.1l0.8,1.7
			l0.7,1.4l0.6,1.2l0.5,1l0.5,0.9l0.4,0.8l0.4,0.7l0.4,0.7l0.4,0.6l0.3,0.5l0.3,0.5l0.3,0.5l0.3,0.4L112,85l0.3,0.4l0.3,0.3l0.2,0.3
			l0.2,0.3l0.2,0.3l0.2,0.3l0.2,0.3l0.2,0.3l0.2,0.2l0.2,0.2l0.2,0.2l0.2,0.2l0.2,0.2l0.2,0.2l0.2,0.2l0.2,0.2l0.2,0.2l0.2,0.2
			l0.2,0.2l0.2,0.2l0.2,0.1l0.2,0.1l0.2,0.1l0.2,0.1l0.2,0.1l0.2,0.1l0.2,0.1l0.2,0.1l0.2,0.1l0.2,0.1l0.2,0.1L118,91l0.2,0.1
			l0.2,0.1l0.2,0.1l0.2,0.1l0.2,0.1l0.2,0.1l0.2,0.1l0.2,0.1l0.2,0.1l0.2,0.1l0.2,0.1l0.2,0.1L120,92l0.2,0.1l0.2,0.1h0.2l0.2,0.1
			h0.2h0.2h0.2h0.2h0.2h0.2h0.2h0.2h0.2h0.2h0.2h0.2h0.2h0.2h0.2h0.2h0.2h0.2h0.2h0.2h0.2h0.2h0.2h2h0.2h0.2h0.2h0.2h0.3h0.3h0.3
			h0.3h0.3h0.3l0.3-0.1l0.3-0.1l0.3-0.1l0.3-0.1l0.4-0.1l0.4-0.1l0.4-0.1l0.4-0.1l0.4-0.1l0.4-0.2l0.5-0.2l0.5-0.2l0.5-0.2l0.6-0.2
			l0.6-0.3l0.6-0.3l0.7-0.3l0.8-0.4l0.8-0.4l0.9-0.5l1-0.5l1.2-0.6l1.4-0.8L144,86l2-1.2l2.4-1.5l3.2-2l4.4-2.9l7-4.8l14.7-10.2
			l26-18l-25.2,19.1l-14.3,10.8l-6.7,5.2l-4.1,3.4l-2.9,2.4l-2.1,1.8l-1.7,1.5l-1.4,1.2l-1.1,1.1l-1,0.9l-0.8,0.8l-0.7,0.7l-0.6,0.7
			l-0.6,0.6l-0.5,0.6l-0.5,0.5l-0.4,0.5l-0.4,0.5l-0.4,0.4l-0.3,0.4l-0.3,0.4l-0.3,0.4l-0.3,0.3L137,100l-0.2,0.3l-0.2,0.3l-0.2,0.3
			l-0.2,0.3l-0.2,0.3l-0.2,0.3l-0.1,0.3l-0.1,0.3l-0.1,0.3l-0.1,0.2l-0.1,0.2l-0.1,0.2l-0.1,0.2l-0.1,0.2l-0.1,0.2l-0.1,0.2
			l-0.1,0.2l-0.1,0.2l-0.1,0.2l-0.1,0.2l-0.1,0.2l-0.1,0.2l-0.1,0.2l-0.1,0.2l-0.1,0.2l-0.1,0.2v0.2l-0.1,0.2v0.2v0.2v0.2v0.2v0.2
			v0.2v0.2v0.2v0.2v0.2v0.2v0.2v0.2v1.1"/>
		<path class="st0" d="M133.7,109.7v1v0.2v0.1v0.2v0.2v0.2v0.2v0.2v0.2v0.2v0.2v0.2v0.2v0.2v0.2v0.2v0.2l0.1,0.2v0.2l0.1,0.2
			l0.1,0.2l0.1,0.2l0.1,0.2l0.1,0.2l0.1,0.2l0.1,0.2l0.1,0.2l0.1,0.2l0.1,0.2l0.1,0.2l0.1,0.2l0.1,0.2l0.1,0.2l0.1,0.3l0.1,0.3
			l0.1,0.3l0.1,0.3l0.2,0.3l0.2,0.3l0.2,0.3l0.2,0.3l0.2,0.3l0.2,0.3l0.2,0.3l0.3,0.3l0.3,0.4l0.3,0.4l0.3,0.4l0.4,0.4l0.4,0.5
			l0.4,0.5l0.5,0.5l0.5,0.6l0.6,0.6l0.6,0.7l0.7,0.7l0.8,0.8l1,0.9l1.1,1.1l2,1.3l1.7,1.5l2.2,1.9l2.9,2.4l4.2,3.4l6.8,5.3l14.4,11
			l25.2,19.2l-26-18.1l-14.9-10.4l-7.1-4.8l-4.5-2.9l-3.2-2l-2.4-1.5l-2-1.2l-1.6-0.9l-1.4-0.8l-1.2-0.6l-1-0.5l-0.9-0.5l-0.8-0.4
			l-0.8-0.4l-0.7-0.3l-0.6-0.3l-0.6-0.2l-0.6-0.2l-0.5-0.2l-0.5-0.2l-0.5-0.2l-0.4-0.2l-0.4-0.1l-0.4-0.1l-0.4-0.1l-0.4-0.1
			l-0.3-0.1l-0.3-0.1l-0.3-0.1l-0.3-0.1l-0.3-0.1l-0.3-0.1h-0.3h-0.3h-0.3h-0.3h-0.2h-0.2h-0.2h-0.2h-2.5H124h-0.2h-0.2h-0.2h-0.2
			h-0.2H123h-0.2h-0.2h-0.2h-0.2h-0.2H122h-0.2h-0.2h-0.2h-0.2h-0.2h-0.2h-0.2h-0.2l-0.2,0.1l-0.2,0.1h-0.2l-0.2,0.1l-0.2,0.1
			l-0.2,0.1l-0.2,0.1l-0.2,0.1l-0.2,0.1l-0.2,0.1l-0.2,0.1l-0.2,0.1l-0.2,0.1l-0.2,0.1l-0.2,0.1l-0.2,0.1l-0.2,0.1l-0.2,0.1
			l-0.2,0.1l-0.2,0.1l-0.2,0.1l-0.2,0.1l-0.2,0.1l-0.2,0.1l-0.2,0.1l-0.2,0.1l-0.2,0.1l-0.2,0.1l-0.2,0.1l-0.2,0.1l-0.2,0.1
			l-0.2,0.1l-0.2,0.2l-0.2,0.2l-0.2,0.2l-0.2,0.2l-0.2,0.2l-0.2,0.2l-0.2,0.2l-0.2,0.2l-0.2,0.2l-0.2,0.2l-0.2,0.3l-0.2,0.3
			l-0.2,0.3l-0.2,0.3l-0.2,0.3l-0.2,0.3l-0.3,0.4l-0.3,0.4l-0.3,0.4l-0.3,0.4l-0.3,0.5l-0.3,0.5l-0.3,0.6l-0.4,0.6l-0.4,0.7
			l-0.4,0.7l-0.4,0.8l-0.5,0.9l-0.5,1.1l-0.6,1.2l-0.7,1.4l-0.8,1.7l-0.9,2.1l-1.1,2.6l-1.4,3.5l-1.9,5l-2.9,8.1l-6,17.1l-10.4,30.3
			l9.1-30.3l5.3-17.4l2.4-8.3l1.4-5.2l0.9-3.6l0.7-2.8l0.5-2.2l0.4-1.8l0.3-1.6l0.2-1.3l0.2-1.2l0.2-1l0.1-0.9l0.1-0.8l0.1-0.8
			l0.1-0.7l0.1-0.6v-0.6v-0.6v-0.5v-2.2v-0.4v-0.4v-0.3v-0.3v-0.3v-0.3v-0.3v-0.3v-0.3V127v-0.3v-0.2v-0.2v-0.2v-0.2l-0.1-0.2v-0.2
			l-0.1-0.2l-0.1-0.2l-0.1-0.2l-0.1-0.2l-0.1-0.2l-0.1-0.2l-0.1-0.2l-0.1-0.2l-0.1-0.2l-0.1-0.2l-0.1-0.2l-0.1-0.2l-0.1-0.2
			l-0.1-0.2l-0.1-0.2l-0.1-0.2l-0.1-0.2l-0.1-0.2l-0.1-0.1l-0.1-0.2l-0.1-0.1l-0.1-0.2l-0.1-0.1l-0.1-0.1l-0.1-0.1l-0.1-0.1
			l-0.1-0.1l-0.1-0.1l-0.1-0.1l-0.1-0.1l-0.1-0.1l-0.1-0.1l-0.1-0.1l-0.1-0.1l-0.1-0.1l-0.1-0.1l-0.1-0.1l-0.1-0.1l-0.1-0.1
			l-0.1-0.1l-0.1-0.1l-0.1-0.1l-0.1-0.1l-0.1-0.1l-0.1-0.1l-0.1-0.1l-0.1-0.1l-0.1-0.1l-0.1-0.1l-0.1-0.1l-0.1-0.1l-0.1-0.1
			l-0.2-0.1l-0.2-0.1l-0.2-0.1l-0.2-0.1l-0.2-0.1l-0.2-0.1l-0.2-0.1l-0.2-0.1l-0.2-0.1l-0.2-0.1l-0.2-0.1l-0.2-0.1l-0.2-0.1
			l-0.2-0.1l-0.2-0.1l-0.2-0.1l-0.3-0.1l-0.3-0.1l-0.3-0.1l-0.3-0.1l-0.3-0.1l-0.3-0.1l-0.3-0.1L93,115l-0.3-0.1l-0.4-0.1l-0.4-0.1
			l-0.4-0.1l-0.4-0.1l-0.5-0.1l-0.5-0.2l-0.5-0.1l-0.6-0.2l-0.6-0.2l-0.7-0.2l-0.8-0.2l-0.8-0.2l-0.9-0.2l-1-0.2l-1.2-0.2l-1.3-0.2
			l-1.6-0.2l-1.9-0.2l-2.3-0.2l-2.8-0.2l-3.8-0.2l-5.3-0.3l-8.6-0.3l-18.1-0.4L5,109.7l31.7-0.7l18.1-0.4l8.6-0.3l5.3-0.3l3.8-0.2
			l2.8-0.2l2.3-0.2l1.9-0.2l1.6-0.2l1.3-0.2l1.2-0.2l1-0.2l0.9-0.2l0.8-0.2l0.8-0.2l0.7-0.2l0.6-0.2l0.6-0.2l0.5-0.1l0.5-0.1
			l0.5-0.1L91,105l0.4-0.1l0.4-0.1l0.4-0.1l0.3-0.1l0.3-0.1l0.3-0.1l0.3-0.1l0.3-0.1l0.3-0.1l0.3-0.1l0.3-0.1l0.3-0.1l0.2-0.1
			l0.2-0.1l0.2-0.1l0.2-0.1l0.2-0.1l0.2-0.1l0.2-0.1l0.2-0.1l0.2-0.1l0.2-0.1l0.2-0.1l0.2-0.1l0.2-0.1l0.2-0.1l0.2-0.1l0.2-0.1
			l0.1-0.1l0.1-0.1l0.1-0.1l0.1-0.1l0.1-0.1l0.1-0.1l0.1-0.1l0.1-0.1l0.1-0.1l0.1-0.1l0.1-0.1l0.1-0.1l0.1-0.1l0.1-0.1l0.1-0.1
			l0.1-0.1l0.1-0.1l0.1-0.1l0.1-0.1l0.1-0.1l0.1-0.1l0.1-0.1l0.1-0.1l0.1-0.1l0.1-0.1l0.1-0.1l0.1-0.1l0.1-0.1l0.1-0.1l0.1-0.1
			l0.1-0.1l0.1-0.2l0.1-0.1l0.1-0.2l0.1-0.2l0.1-0.2l0.1-0.2l0.1-0.2l0.1-0.2l0.1-0.2l0.1-0.2l0.1-0.2l0.1-0.2l0.1-0.2l0.1-0.2
			l0.1-0.2l0.1-0.2l0.1-0.2l0.1-0.2l0.1-0.2l0.1-0.2l0.1-0.2v-0.2l0.1-0.2v-0.2v-0.2v-0.2v-0.2v-0.3v-0.3v-0.3v-0.3v-0.3V91v-0.3
			v-0.3v-0.3v-0.4v-0.4v-2.2v-0.5v-0.6v-0.6l-0.1-0.7l-0.1-0.7l-0.1-0.8l-0.1-0.8l-0.1-0.9l-0.2-1l-0.2-1.2l-0.2-1.3l-0.3-1.6
			l-0.4-1.8l-0.5-2.2l-0.7-2.8l-0.9-3.7l-1.4-5.2l-2.4-8.3l-4.8-17.4L81.2,4.9l10.4,29.9l6,17.1l2.9,8.1l1.9,5l1.4,3.5l1.1,2.7
			l0.9,2.1l0.8,1.7l0.7,1.4l0.6,1.2l0.5,1l0.5,0.9l0.4,0.8l0.4,0.7l0.4,0.7l0.4,0.6l0.3,0.6l0.3,0.5l0.3,0.5l0.3,0.4l0.3,0.4
			l0.3,0.4l0.3,0.3l0.2,0.3l0.2,0.3l0.2,0.3l0.2,0.3l0.2,0.3l0.2,0.3l0.2,0.2l0.2,0.2l0.2,0.2l0.2,0.2l0.2,0.2l0.2,0.2l0.2,0.2
			l0.2,0.2l0.2,0.2l0.2,0.2l0.2,0.2l0.2,0.2l0.2,0.1l0.2,0.1l0.2,0.1l0.2,0.1l0.2,0.1l0.2,0.1l0.2,0.1l0.2,0.1l0.2,0.1l0.2,0.1
			l0.2,0.1l0.2,0.1l0.2,0.1l0.2,0.1l0.2,0.1l0.2,0.1l0.2,0.1l0.2,0.1l0.2,0.1l0.2,0.1l0.2,0.1l0.2,0.1l0.2,0.1l0.2,0.1l0.2,0.1
			l0.2,0.1l0.2,0.1h0.2l0.2,0.1h0.2l0.2,0.1h0.2h0.2h0.2l0.2,0.1h0.2h0.2h0.2h0.2h0.2h0.2h0.2h0.2h0.2h0.2h0.2h0.2h0.2h0.2h0.2h2.2
			h0.2h0.2h0.2h0.2h0.2h0.2h0.3h0.3h0.3h0.3l0.3-0.1l0.3-0.1l0.3-0.1l0.3-0.1l0.3-0.1l0.3-0.1l0.4-0.1l0.4-0.1l0.4-0.1l0.4-0.1
			l0.4-0.2l0.5-0.2l0.5-0.2L134,91l0.6-0.2l0.6-0.3l0.6-0.3l0.7-0.3l0.8-0.3l0.8-0.4l0.9-0.5l1-0.5l1.2-0.6l1.4-0.8l1.6-0.9l2-1.2
			l2.4-1.5l3.2-2l4.5-2.9l7.1-4.8L178.4,63l26-18.1l-25.2,19.2l-14.4,11l-6.8,5.3l-4.2,3.4l-2.9,2.4l-2.2,1.8l-1.7,1.5l-1.4,1.3
			l-1.1,1.1l-1,0.9l-0.8,0.8l-0.7,0.8l-0.6,0.7l-0.6,0.6l-0.5,0.6l-0.5,0.5l-0.4,0.5l-0.4,0.5l-0.4,0.4l-0.3,0.4l-0.3,0.4l-0.3,0.4
			l-0.3,0.3l-0.2,0.3l-0.2,0.3l-0.2,0.3l-0.2,0.3l-0.2,0.3l-0.2,0.3l-0.2,0.3l-0.1,0.3l-0.1,0.3l-0.1,0.3l-0.1,0.2l-0.1,0.2
			l-0.1,0.2l-0.1,0.2l-0.1,0.2l-0.1,0.2l-0.1,0.2l-0.1,0.2l-0.1,0.2l-0.1,0.2l-0.1,0.2l-0.1,0.2l-0.1,0.2l-0.1,0.2l-0.1,0.2v0.2
			l-0.1,0.2v0.2v0.2v0.2v0.2v0.2v0.2v0.2v0.2v0.2v0.2v0.2v0.2v0.2v0.2v0.2v0.2v1"/>
		<path class="st0" d="M133.8,109.7v1v0.2v0.1v0.2v0.2v0.2v0.2v0.2v0.2v0.2v0.2v0.2v0.2v0.2v0.2l0.1,0.2v0.2l0.1,0.2v0.2l0.1,0.2
			l0.1,0.2l0.1,0.2l0.1,0.2l0.1,0.2l0.1,0.2l0.1,0.2l0.1,0.2l0.1,0.2l0.1,0.2l0.1,0.2l0.1,0.2l0.1,0.2l0.1,0.2l0.1,0.3l0.1,0.3
			l0.1,0.3l0.1,0.3l0.2,0.3l0.2,0.3l0.2,0.3l0.2,0.3l0.2,0.3l0.2,0.3l0.2,0.3l0.3,0.4l0.3,0.4l0.3,0.4l0.3,0.4l0.4,0.4l0.4,0.5
			l0.4,0.5l0.5,0.5l0.5,0.6l0.6,0.6l0.6,0.7l0.7,0.8l0.9,0.8l1,1l1.2,1.1l1.4,1.3l1.7,1.5l2.2,1.9l2.9,2.4l4.2,3.4l6.9,5.4
			l14.6,11.1l25.8,19.2L179,156.9l-15-10.5l-7.2-4.9l-4.5-3l-3.2-2.1l-2.6-1.5l-2-1.2l-1.6-0.9l-1.4-0.8l-1.2-0.6l-1-0.5l-0.9-0.5
			l-0.9-0.4l-0.8-0.4l-0.7-0.3l-0.6-0.3l-0.6-0.3l-0.6-0.2l-0.5-0.2l-0.5-0.2l-0.5-0.2l-0.4-0.2l-0.4-0.1l-0.4-0.1l-0.4-0.1
			l-0.4-0.1l-0.4-0.1l-0.3-0.1l-0.3-0.1l-0.3-0.1l-0.3-0.1l-0.3-0.1h-0.3h-0.3h-0.3h-0.3h-0.3h-0.2h-0.2h-0.2h-0.2h-2.2h-0.2h-0.2
			h-0.2h-0.2h-0.2h-0.2H123h-0.2h-0.2h-0.2h-0.2h-0.2H122h-0.2h-0.2h-0.2h-0.2l-0.2,0.1h-0.2h-0.2h-0.2h-0.2l-0.2,0.1l-0.2,0.1
			l-0.2,0.1l-0.2,0.1l-0.2,0.1l-0.2,0.1l-0.2,0.1l-0.2,0.1l-0.2,0.1l-0.2,0.1l-0.2,0.1l-0.2,0.1l-0.2,0.1l-0.2,0.1l-0.2,0.1
			l-0.2,0.1l-0.2,0.1l-0.2,0.1l-0.2,0.1l-0.2,0.1l-0.2,0.1l-0.2,0.1l-0.2,0.1l-0.2,0.1l-0.2,0.1l-0.2,0.1l-0.2,0.1l-0.2,0.1
			l-0.2,0.1l-0.2,0.1l-0.2,0.1l-0.2,0.2l-0.2,0.2l-0.2,0.2l-0.2,0.2l-0.2,0.2l-0.2,0.2l-0.2,0.2l-0.2,0.2l-0.2,0.2l-0.2,0.2
			l-0.2,0.3l-0.2,0.3l-0.2,0.3l-0.2,0.3l-0.2,0.3l-0.3,0.3l-0.3,0.4l-0.3,0.4l-0.3,0.4l-0.3,0.4l-0.3,0.5l-0.3,0.5l-0.3,0.6
			l-0.4,0.6l-0.4,0.7l-0.4,0.8l-0.4,0.8l-0.5,0.9l-0.5,1.1l-0.6,1.2l-0.7,1.4l-0.8,1.7l-0.9,2.1l-1.1,2.7l-1.4,3.6l-1.9,5.1l-3,8.2
			l-6,17.3l-10.5,30l9.2-30.4l5.3-17.6l2.4-8l1.4-5.2l0.9-3.7l0.7-2.8l0.5-2.2l0.4-1.9l0.3-1.6l0.2-1.3l0.2-1.2l0.2-1l0.1-0.9
			l0.1-0.8l0.1-0.8l0.1-0.7v-0.6v-0.6V133v-0.5V132v-2.1v-0.4v-0.3v-0.3v-0.3v-0.3V128v-0.3v-0.3v-0.3v-0.3v-0.3v-0.2v-0.2l-0.1-0.2
			v-0.2l-0.1-0.2v-0.2l-0.1-0.2l-0.1-0.2l-0.1-0.2l-0.1-0.2l-0.1-0.2l-0.1-0.2l-0.1-0.2l-0.1-0.2l-0.1-0.2l-0.1-0.2l-0.1-0.2
			l-0.1-0.2L102,123l-0.1-0.2l-0.1-0.2l-0.1-0.2l-0.1-0.2l-0.1-0.1l-0.1-0.2l-0.1-0.2l-0.1-0.1l-0.1-0.1l-0.1-0.1l-0.1-0.1l-0.1-0.1
			l-0.1-0.1l-0.1-0.1l-0.1-0.1l-0.1-0.1l-0.1-0.1l-0.1-0.1l-0.1-0.1l-0.1-0.1l-0.1-0.1l-0.1-0.1l-0.1-0.1l-0.1-0.1l-0.1-0.1
			l-0.1-0.1l-0.1-0.1l-0.1-0.1l-0.6-0.2l-0.1-0.1l-0.1-0.1l-0.1-0.1l-0.1-0.1l-0.1-0.1l-0.1-0.1l-0.1-0.1l-0.1-0.1l-0.2-0.1
			l-0.2-0.1l-0.2-0.1l-0.2-0.1l-0.2-0.1l-0.2-0.1l-0.2-0.1l-0.2-0.1l-0.2-0.1l-0.2-0.1l-0.2-0.1l-0.2-0.1l-0.2-0.1l-0.2-0.1
			l-0.2-0.1l-0.2-0.1l-0.2-0.1l-0.3-0.1l-0.3-0.1l-0.3-0.1l-0.3-0.1l-0.3-0.1l-0.3-0.1l-0.3-0.1l-0.3-0.1l-0.3-0.1l-0.4-0.1
			l-0.4-0.1l-0.4-0.1l-0.4-0.1l-0.5-0.1l-0.5-0.2l-0.5-0.1l-0.6-0.2l-0.6-0.2l-0.7-0.2l-0.8-0.2l-0.8-0.2l-0.9-0.2l-1-0.2l-1.2-0.2
			l-1.4-0.2l-1.6-0.2l-1.9-0.2l-2.3-0.2l-2.9-0.2l-3.8-0.3l-5.4-0.3l-8.7-0.3L36,110.4l-31.8-0.7L36,109l18.3-0.4l8.7-0.3l5.4-0.3
			l3.8-0.2l2.9-0.2l2.3-0.2l1.9-0.2l1.6-0.2l1.4-0.2l1.2-0.2l1-0.2l0.9-0.2l0.8-0.2l0.8-0.2l0.7-0.2l0.6-0.2l0.6-0.2l0.5-0.1
			l0.5-0.1l0.5-0.2l0.4-0.1l0.4-0.1l0.4-0.1l0.4-0.1l0.3-0.1l0.3-0.1l0.3-0.1l0.3-0.1l0.3-0.1l0.3-0.1l0.3-0.1l0.3-0.1l0.3-0.1
			l0.2-0.1l0.2-0.1l0.2-0.1l0.2-0.1l0.2-0.1l0.2-0.1l0.2-0.1l0.2-0.1l0.2-0.1l0.2-0.1l0.2-0.1L97,102l0.2-0.1l0.2-0.1l0.2-0.1
			l0.2-0.1l0.2-0.1l0.1-0.1l0.1-0.1l0.1-0.1l0.1-0.1l0.1-0.1l0.1-0.1l0.1-0.1l0.1-0.1l0.1-0.1l0.1-0.1l0.1-0.1l0.1-0.1l0.1-0.1
			l0.1-0.1l0.1-0.1l0.1-0.1l0.1-0.1l0.1-0.1l0.1-0.1l0.1-0.1l0.1-0.1l0.1-0.1l0.1-0.1l0.1-0.1l0.1-0.1l0.1-0.1l0.1-0.1l0.1-0.1
			l0.1-0.1l0.1-0.1l0.1-0.2l0.1-0.1l0.1-0.2l0.1-0.2l0.1-0.2l0.1-0.2l0.1-0.2l0.1-0.2l0.1-0.2l0.1-0.2l0.1-0.2l0.1-0.2l0.1-0.2
			l0.1-0.2l0.1-0.2l0.1-0.2l0.1-0.2l0.1-0.2l0.1-0.2l0.1-0.2V94l0.1-0.2v-0.2l0.1-0.2v-0.2v-0.2v-0.3v-0.3v-0.3v-0.3v-0.3v-0.3v-0.3
			v-0.3v-0.3v-0.3v-0.4v-2.1V87v-0.5v-0.6v-0.6v-0.7l-0.1-0.7l-0.1-0.8l-0.1-0.8l-0.1-0.9l-0.2-1l-0.2-1.2l0.2-1.4l-0.3-1.6
			l-0.4-1.8l-0.5-2.2l-0.7-2.8l-0.9-3.7l-1.4-5.2l-2.4-8.4l-5.3-17.6L80.9,4.1l10.5,30l6,17.3l3,8.2l1.9,5.1l1.4,3.5l1.1,2.7
			l0.9,2.1l0.8,1.7l0.7,1.4l0.6,1.2l0.5,1.1l0.5,0.9l0.4,0.8l0.4,0.8l0.4,0.7l0.4,0.6l0.3,0.6l0.3,0.5l0.3,0.5l0.3,0.4l0.3,0.4
			l0.3,0.4l0.3,0.3l0.3,0.3l0.2,0.3l0.2,0.3l0.2,0.3l0.2,0.3l0.2,0.3l0.2,0.2l0.2,0.2l0.2,0.2l0.2,0.2l0.2,0.2l0.2,0.2l0.2,0.2
			l0.2,0.2l0.2,0.2l0.2,0.2l0.2,0.2l0.2,0.2l0.2,0.1l0.2,0.1l0.2,0.1l0.2,0.1l0.2,0.1l0.2,0.1l0.2,0.1l0.2,0.1l0.2,0.1l0.2,0.1
			l0.2,0.1l0.2,0.1l0.2,0.1l0.2,0.1l0.2,0.1l0.2,0.1l0.2,0.1l0.2,0.1l0.2,0.1l0.2,0.1l0.2,0.1l0.2,0.1l0.2,0.1l0.2,0.1l0.2,0.1
			l0.2,0.1l0.2,0.1l0.2,0.1h0.2l0.2,0.1h0.2l0.2,0.1h0.2h0.2h0.2h0.2h0.2h0.2h0.2h0.2h0.2h0.2h0.2h0.2h0.2h0.2h0.2h0.2h0.2h0.2h0.2
			h2.2h0.2h0.2h0.2h0.2h0.3h0.3h0.3h0.3h0.3h0.3l0.3-0.1l0.3-0.1l0.3-0.1l0.3-0.1l0.4-0.1l0.4-0.1l0.4-0.1l0.4-0.1l0.4-0.1l0.4-0.2
			l0.5-0.2l0.5-0.2l0.5-0.2l0.6-0.2l0.6-0.3l0.6-0.3l0.7-0.3l0.8-0.4l0.9-0.4l0.9-0.5l1.1-0.6l1.2-0.7l1.4-0.8l1.6-0.9l2-1.2
			l2.5-1.5l3.2-2l4.5-3l7.2-4.6l15-10.5L205,44.4l-25.2,19.3l-14.6,11.1l-6.9,5.4l-4.2,3.4l-2.9,2.5l-2.2,1.9l-1.7,1.5l-1.4,1.3
			l-1.2,1.1l-1,0.9l-0.9,0.8l-0.7,0.8l-0.6,0.7l-0.6,0.6l-0.5,0.6l-0.5,0.5l-0.4,0.5l-0.4,0.5l-0.4,0.4l-0.3,0.4l-0.3,0.4l-0.3,0.4
			l-0.3,0.4l-0.2,0.3l-0.2,0.3l-0.2,0.3l-0.2,0.3l-0.2,0.3l-0.2,0.3l-0.2,0.3L136,102l-0.1,0.3l-0.1,0.3l-0.1,0.2l-0.1,0.2l-0.1,0.2
			l-0.1,0.2l-0.1,0.2l-0.1,0.2l-0.1,0.2l-0.1,0.2l-0.1,0.2l-0.1,0.2l-0.1,0.2l-0.1,0.2l-0.1,0.2l-0.1,0.2l-0.1,0.2v0.2l-0.1,0.2v0.2
			l-0.1,0.2v0.2v0.2v0.2v0.2v0.2v0.2v0.2v0.2v0.2v0.2v0.2v0.2v0.2v0.2v1"/>
		<path class="st0" d="M133.9,109.7v1v0.2v0.1v0.2v0.2v0.2v0.2v0.2v0.2v0.2v0.2v0.2v0.2v0.2v0.2v0.2v0.2l0.1,0.2l0.1,0.2l0.1,0.2
			l0.1,0.2l0.1,0.2l0.1,0.2l0.1,0.2l0.1,0.2l0.1,0.2l0.1,0.2l0.1,0.2l0.1,0.2l0.1,0.2l0.1,0.2l0.1,0.2l0.1,0.2l0.1,0.3l0.1,0.3
			l0.1,0.3l0.1,0.3l0.2,0.3l0.2,0.3l0.2,0.3l0.2,0.3l0.2,0.3l0.2,0.3l0.2,0.3l0.3,0.4l0.3,0.4l0.3,0.4l0.3,0.4l0.4,0.4l0.4,0.5
			l0.4,0.5l0.5,0.5l0.5,0.6l0.6,0.6l0.7,0.7l0.8,0.8l0.9,0.8l1,1l1.2,1.1l1.4,1.3l1.7,1.5l2.2,1.9l3,2.5l4.3,3.4l6.9,5.4l14.8,11.2
			l25.3,19.3l-26.2-18.1l-15.2-10.6l-6.8-4.9l-4.6-3l-3.3-2.1l-2.5-1.5l-2-1.2l-1.6-1l-1.4-0.8l-1.2-0.6l-1.1-0.6l-0.9-0.5l-0.9-0.4
			l-0.8-0.4l-0.7-0.3l-0.6-0.3l-0.6-0.3l-0.6-0.2l-0.5-0.2l-0.5-0.2l-0.5-0.2l-0.4-0.1l-0.4-0.1l-0.4-0.1l-0.4-0.1l-0.4-0.1
			l-0.4-0.1l-0.3-0.1l-0.3-0.1l-0.3-0.1l-0.3-0.1h-0.3l-0.3-0.1h-0.3H128h-0.3h-0.3h-0.2H127h-0.2h-0.2h-0.2h-1.8h-0.2h-0.2h-0.2
			h-0.2h-0.2h-0.2h-0.2H123h-0.2h-0.2h-0.2h-0.2h-0.2h-0.2h-0.2h-0.2h-0.2h-0.2h-0.2h-0.2h-0.2h-0.2h-0.2l-0.2,0.1l-0.2,0.1
			l-0.2,0.1l-0.2,0.1l-0.2,0.1l-0.2,0.1l-0.2,0.1l-0.2,0.1l-0.2,0.1l-0.2,0.1l-0.2,0.1l-0.2,0.1l-0.2,0.1l-0.2,0.1l-0.2,0.1
			l-0.2,0.1l-0.2,0.1l-0.2,0.1l-0.2,0.1l-0.2,0.1l-0.2,0.1l-0.2,0.1l-0.2,0.1l-0.2,0.1l-0.2,0.1l-0.2,0.1l-0.2,0.1l-0.2,0.1
			l-0.2,0.1l-0.2,0.1l-0.2,0.1l-0.2,0.2l-0.2,0.2l-0.2,0.2l-0.2,0.2l-0.2,0.2l-0.2,0.2l-0.2,0.2l-0.2,0.2l-0.2,0.2l-0.2,0.2
			l-0.2,0.3l-0.2,0.3l-0.2,0.3l-0.2,0.3l-0.2,0.3l-0.3,0.3l-0.3,0.4l-0.3,0.4l-0.3,0.4l-0.3,0.4l-0.3,0.5l-0.3,0.5l-0.3,0.6L110,138
			l-0.4,0.7l-0.4,0.8l-0.4,0.8l-0.5,1l-0.5,1.1l-0.6,1.2l-0.7,1.5l-0.8,1.7l-0.9,2.1l-1.1,2.7l-1.4,3.6l-1.9,5.1l-3,8.3l-6.1,17.5
			l-10.5,30.1l9.2-30.5l5.4-17.8l2.4-8.4l1.3-5.3l1-3.7l0.7-2.8l0.5-2.3l0.4-1.9l0.3-1.6l0.2-1.4l0.2-1.2l0.2-1.1l0.1-0.9l0.1-0.9
			l0.1-0.8l0.1-0.7v-0.7v-0.6v-0.6v-0.5v-2.2V130v-0.4v-0.3V129v-0.3v-0.3v-0.3v-0.3v-0.3v-0.3V127l-0.1-0.3v-0.2v-0.2V126l-0.1-0.2
			v-0.2l-0.1-0.2l-0.1-0.2l-0.1-0.2l-0.1-0.2l-0.1-0.2l-0.1-0.2l-0.1-0.2l-0.1-0.2l-0.1-0.2l-0.1-0.2l-0.1-0.2l-0.1-0.2l-0.1-0.2
			l-0.1-0.2l-0.1-0.2l-0.1-0.2l-0.1-0.2l-0.1-0.2l-0.1-0.2l-0.1-0.2l-0.1-0.2l-0.1-0.1l-0.1-0.1l-0.1-0.1l-0.1-0.1l-0.1-0.1
			l-0.1-0.1l-0.1-0.1l-0.1-0.1l-0.1-0.1l-0.1-0.1l-0.1-0.1l-0.1-0.1l-0.1-0.1l-0.1-0.1l-0.1-0.1l-0.1-0.1l-0.1-0.1l-0.1-0.1
			l-0.1-0.1l-0.1-0.1l-0.1-0.1l-0.1-0.1l-0.1-0.1l-0.1-0.1l-0.1-0.1l-0.1-0.1l-0.1-0.1l-0.1-0.1l-0.1-0.1l-0.1-0.1l-0.2-0.1
			l-0.2-0.1l-0.2-0.1l-0.2-0.1l-0.2-0.1l-0.2-0.1l-0.2-0.1l-0.2-0.1l-0.2-0.1l-0.2-0.1l-0.2-0.1l-0.2-0.1l-0.2-0.1l-0.2-0.1
			l-0.2-0.1l-0.2-0.1l-0.2-0.1l-0.3-0.1l-0.3-0.1l-0.3-0.1l-0.3-0.1l-0.3-0.1l-0.3-0.1l-0.3-0.1l-0.3-0.1l-0.4-0.1l-0.4-0.1
			l-0.4-0.1l-0.4-0.1l-0.4-0.1l-0.5-0.1l-0.5-0.1l-0.6-0.2l-0.6-0.2l-0.6-0.2l-0.7-0.2l-0.8-0.2l-0.8-0.2l-0.9-0.2l-1.1-0.2
			l-1.2-0.2l-1.4-0.2l-1.6-0.2l-1.9-0.2l-2.3-0.2l-2.9-0.2l-4.2-0.2l-5.5-0.3l-8.8-0.3l-18.5-0.4l-31.8-0.7l31.8-0.7l18.5-0.4
			l8.8-0.3l5.5-0.3l3.8-0.3l2.9-0.2l2.3-0.2l1.9-0.2l1.6-0.2l1.4-0.2l1.2-0.2l1.1-0.2l0.9-0.2l0.8-0.2l0.8-0.2l0.7-0.2l0.6-0.2
			l0.6-0.2l0.6-0.1l0.5-0.2l0.5-0.1l0.4-0.1l0.4-0.1l0.4-0.1l0.4-0.1l0.4-0.1l0.3-0.1l0.3-0.1l0.3-0.1l0.3-0.1l0.3-0.1l0.3-0.1
			l0.3-0.1l0.3-0.1l0.2-0.1l0.2-0.1l0.2-0.1l0.2-0.1l0.2-0.1l0.2-0.1l0.2-0.1l0.2-0.1l0.2-0.1l0.2-0.1l0.2-0.1l0.2-0.1l0.2-0.1
			l0.2-0.1l0.2-0.1l0.2-0.1l0.2-0.1l0.1-0.1l0.1-0.1l0.1-0.1l0.1-0.1l0.1-0.1l0.1-0.1l0.1-0.1l0.1-0.1l0.1-0.1l0.1-0.1l0.1-0.1
			l0.1-0.1l0.1-0.1l0.1-0.1l0.1-0.1l0.1-0.1l0.1-0.1l0.1-0.1l0.1-0.1l0.1-0.1l0.1-0.1l0.1-0.1l0.1-0.1l0.1-0.1l0.1-0.1l0.1-0.1
			l0.1-0.1l0.1-0.1l0.1-0.2l0.1-0.1l0.1-0.2l0.1-0.1l0.1-0.2l0.1-0.2l0.1-0.2l0.1-0.2l0.1-0.2l0.1-0.2l0.1-0.2l0.1-0.2l0.1-0.2
			l0.1-0.2l0.1-0.2l0.1-0.2l0.1-0.2l0.1-0.2l0.1-0.2l0.1-0.2l0.1-0.2l0.1-0.2l0.1-0.2v-0.2l0.1-0.2v-0.2V93v-0.2l0.1-0.3v-0.3V92
			v-0.3v-0.3v-0.3v-0.3v-0.3v-0.3v-0.3v-0.4v-0.4v-2.2v-0.5v-0.6v-0.6v-0.7l-0.1-0.7l-0.1-0.8l-0.1-0.9l-0.1-0.9l-0.2-1.1l-0.2-1.2
			l-0.2-1.4l0.1-1.6l-0.4-1.9l-0.5-2.3L100,69l-1-3.7L97.6,60l-2.4-8.5l-5.4-17.7L80.6,3.3l10.5,30.1l6.1,17.5l3,8.3l1.9,5.1
			l1.4,3.6l1.1,2.7l0.9,2.1l0.8,1.7l0.7,1.4l0.6,1.3l0.5,1.1l0.5,0.9l0.4,0.8l0.4,0.8l0.4,0.7l0.4,0.6l0.3,0.6l0.3,0.5l0.3,0.5
			l0.3,0.4l0.3,0.4l0.3,0.4l0.3,0.4l0.3,0.3l0.2,0.3l0.2,0.3l0.2,0.3l0.2,0.3l0.2,0.3l0.2,0.2l0.2,0.2l0.2,0.2l0.2,0.2l0.2,0.2
			l0.2,0.2l0.2,0.2l0.2,0.2l0.2,0.2l0.2,0.2l0.2,0.2l0.2,0.1l0.2,0.2l0.2,0.1l0.2,0.1l0.2,0.1l0.2,0.1l0.2,0.1l0.2,0.1l0.2,0.1
			l0.2,0.1l0.2,0.1l0.2,0.1l0.2,0.1l0.2,0.1l0.2,0.1l0.2,0.1l0.2,0.1l0.2,0.1l0.2,0.1l0.2,0.1l0.2,0.1l0.2,0.1l0.2,0.1l0.2,0.1
			l0.2,0.1l0.2,0.1l0.2,0.1l0.2,0.1l0.2,0.1l0.2,0.1l0.2,0.1h0.2h0.2h0.2h0.2h0.2h0.2h0.2h0.2h0.2h0.2h0.2h0.2h0.2h0.2h0.2h0.2h0.2
			h0.2h0.2h0.2h0.2h2.2h0.2h0.2h0.2h0.2h0.3h0.3h0.3h0.3l0.3-0.1h0.3l0.3-0.1l0.3-0.1l0.3-0.1l0.3-0.1l0.4-0.1l0.4-0.1l0.4-0.1
			l0.4-0.1l0.4-0.1l0.4-0.2l0.5-0.2l0.5-0.2l0.5-0.2l0.6-0.2l0.6-0.3l0.6-0.3l0.7-0.3l0.8-0.4l0.9-0.4l0.9-0.5l1.1-0.6l1.2-0.7
			l1.4-0.8l1.6-0.9l2-1.2l2.5-1.5l3.3-2.1l4.6-3l7.3-4.9l15.2-10.6L205.7,44l-25.3,19.2l-14.8,11.2l-6.9,5.4l-4.3,3.4l-3,2.5
			l-2.2,1.9l-1.7,1.5l-1.4,1.3l-1.2,1.1l-1,1l-0.9,0.8l-0.8,0.8l-0.7,0.7l-0.6,0.6l-0.5,0.6l-0.5,0.5l-0.4,0.5l-0.4,0.5l-0.4,0.4
			l-0.3,0.4l-0.3,0.4l-0.3,0.4l-0.3,0.4l-0.2,0.3l-0.2,0.3l-0.2,0.3l-0.2,0.3l-0.2,0.3l-0.2,0.3l-0.2,0.3l-0.1,0.3l-0.1,0.3
			l-0.1,0.3l-0.1,0.2l-0.1,0.2l-0.1,0.2l-0.1,0.2l-0.1,0.2l-0.1,0.2l-0.1,0.2l-0.1,0.2l-0.1,0.2l-0.1,0.2l-0.1,0.2l-0.1,0.2
			l-0.1,0.2l-0.1,0.2l-0.1,0.2l-0.1,0.2l-0.1,0.2v0.2v0.2v0.2v0.2v0.2v0.2v0.2v0.2v0.2v0.2v0.2v0.2v0.2v0.2v0.2v0.2v1"/>
		<path class="st0" d="M134,109.7v0.8v0.2v0.3v0.2v0.2v0.2v0.2v0.2v0.2v0.2v0.2v0.2v0.2v0.2v0.2l0.1,0.2v0.2l0.1,0.2l0.1,0.2v0.2
			l0.1,0.2l0.1,0.2l0.1,0.2l0.1,0.2l0.1,0.2l0.1,0.2l0.1,0.2l0.1,0.2l0.1,0.2l0.1,0.2l0.1,0.2l0.1,0.2l0.1,0.2l0.1,0.3l0.1,0.3
			l0.1,0.3l0.2,0.3l0.2,0.3l0.2,0.3l0.2,0.3l0.2,0.3l0.2,0.3l0.2,0.3l0.2,0.3l0.3,0.4l0.3,0.4l0.3,0.4l0.3,0.4l0.4,0.4l0.4,0.5
			l0.4,0.5l0.5,0.5l0.5,0.6l0.6,0.6l0.7,0.7l0.8,0.8l0.9,0.9l1,1l1.2,1.1l1.4,1.3l1.8,1.5l2.2,1.9l3,2.5l4.3,3.5l7,5.5l15.5,11.3
			l25.4,19.3l-26.2-18.2l-15.4-10.7l-7.4-5l-4.6-3l-3.3-2.1l-2.5-1.6l-2-1.2l-1.7-1l-1.4-0.8l-1.2-0.7l-1.1-0.6l-1-0.5l-0.9-0.4
			L137,130l-0.7-0.3l-0.7-0.3l-0.6-0.3l-0.6-0.2l-0.5-0.2l-0.5-0.2l-0.5-0.2l-0.4-0.2l-0.4-0.1l-0.4-0.1l-0.4-0.1l-0.4-0.1l-0.4-0.1
			l-0.3-0.1l-0.3-0.1l-0.3-0.1l-0.3-0.1h-0.3h-0.3h-0.3h-0.3h-0.3h-0.3h-0.2h-0.2h-0.2h-0.2h-2.4H124h-0.2h-0.2h-0.2h-0.2h-0.2H123
			h-0.2h-0.2h-0.2h-0.2h-0.2H122h-0.2l-0.2,0.1h-0.2h-0.2h-0.2h-0.2l-0.2,0.1h-0.2l-0.2,0.1h-0.2l-0.2,0.1l-0.2,0.1l-0.2,0.1
			l-0.2,0.1l-0.2,0.1l-0.2,0.1l-0.2,0.1l-0.2,0.1l-0.2,0.1l-0.2,0.1l-0.2,0.1l-0.2,0.1l-0.2,0.1l-0.2,0.1l-0.2,0.1l-0.2,0.1
			l-0.2,0.1l-0.2,0.1l-0.2,0.1l-0.2,0.1l-0.2,0.1l-0.2,0.1l-0.2,0.1l-0.2,0.1l-0.2,0.1l-0.2,0.1l-0.2,0.1l-0.2,0.1l-0.2,0.2
			l-0.2,0.2l-0.2,0.2l-0.2,0.2l-0.2,0.2l-0.2,0.2l-0.2,0.2l-0.2,0.2l-0.2,0.2l-0.2,0.2l-0.2,0.2l-0.2,0.3l-0.2,0.3l-0.2,0.3
			l-0.2,0.3l-0.3,0.3l-0.3,0.3l-0.3,0.4l-0.3,0.4l-0.3,0.4l-0.3,0.4l-0.3,0.5l-0.3,0.5l-0.3,0.6l-0.4,0.6l-0.4,0.7l-0.4,0.8
			l-0.4,0.9l-0.5,1l-0.5,1.1l-0.6,1.3l-0.7,1.5l-0.8,1.8l-0.9,2.1l-1.1,2.7l-1.4,3.6l-2,5.2l-3,8.4l-6.2,18l-10.5,30.1l9.2-30.6
			l5.4-18l2.4-8.5l1.4-5.3l1-3.8l0.7-2.9l0.5-2.3l0.4-1.9l0.3-1.6l0.3-1.4l0.2-1.2l0.2-1.1l0.1-1l0.1-0.9l0.1-0.8l0.1-0.7l0.1-0.7
			v-0.6v-0.6v-0.5v-2.6v-0.4v-0.4V129v-0.3v-0.3v-0.3v-0.3v-0.3v-0.3V127v-0.3v-0.2v-0.2l-0.1-0.2v-0.2l-0.1-0.2v-0.2l-0.1-0.2
			l-0.1-0.2l-0.1-0.2l-0.1-0.2l-0.1-0.2l-0.1-0.2l-0.1-0.2l-0.1-0.2l-0.1-0.2l-0.1-0.2l-0.1-0.2l-0.1-0.2l-0.1-0.2l-0.1-0.2
			l-0.1-0.2l-0.1-0.2l-0.1-0.2l-0.1-0.2l-0.1-0.2l-0.1-0.2l-0.1-0.1l-0.1-0.2l-0.1-0.1l-0.1-0.1l-0.1-0.1l-0.1-0.1l-0.1-0.1
			l-0.1-0.1l-0.1-0.1l-0.1-0.1l-0.1-0.1l-0.1-0.1l-0.1-0.1L100,120l-0.1-0.1l-0.1-0.1l-0.1-0.1l-0.1-0.1l-0.1-0.1l-0.1-0.1l-0.1-0.1
			l-0.1-0.1l-0.1-0.1l-0.1-0.1l-0.1-0.1l-0.1-0.1l-0.1-0.1l-0.1-0.1l-0.1-0.1l-0.1-0.1l-0.2-0.1l-0.2-0.1l-0.2-0.1l-0.2-0.1
			l-0.2-0.1l-0.2-0.1l-0.2-0.1l-0.2-0.1l-0.2-0.1l-0.2-0.1l-0.2-0.1l-0.2-0.1l-0.2-0.1l-0.2-0.1l-0.2-0.1l-0.2-0.1l-0.3-0.1
			l-0.3-0.1l-0.3-0.1l-0.3-0.1l-0.3-0.1l-0.3-0.1l-0.3-0.1l-0.3-0.1l-0.3-0.1l-0.4-0.1l-0.4-0.1l-0.4-0.1l-0.4-0.1l-1,0l-0.5-0.1
			l-0.5-0.1l-0.6-0.2l-0.6-0.2l-0.6-0.2l-0.7-0.2l-0.8-0.2l-0.8-0.2l-1-0.2l-1.1-0.2l-1.2-0.2l-1.4-0.2l-1.6-0.2l-1.9-0.2l-2.3-0.2
			l-2.9-0.2l-3.9-0.3l-5.5-0.3l-8.9-0.3l-18.8-0.4l-31.9-0.7l31.9-0.7l18.8-0.4l8.9-0.3l5.5-0.3l3.9-0.2l2.9-0.2l2.3-0.2l1.9-0.2
			l1.6-0.2l1.4-0.2l1.2-0.2l1.1-0.2l0.9-0.2l0.8-0.2l0.8-0.2l0.7-0.2l0.6-0.2l0.6-0.2l0.6-0.1l0.5-0.2L90,105l0.5-0.1l0.4-0.1
			l0.4-0.1l0.4-0.1l0.4-0.1l0.3-0.1l0.3-0.1L93,104l0.3-0.1l0.3-0.1l0.3-0.1l0.3-0.1l0.3-0.1l0.3-0.1l0.2-0.1L95,103l0.2-0.1
			l0.2-0.1l0.2-0.1l0.2-0.1l0.2-0.1l0.2-0.1l0.2-0.1l0.2-0.1l0.2-0.1l0.2-0.1l0.2-0.1l0.2-0.1l0.2-0.1l0.2-0.1l0.1-0.1l0.1-0.1
			l0.1-0.1l0.1-0.1l0.1-0.1l0.1-0.1l0.1-0.1l0.1-0.1l0.1-0.1l0.1-0.1l0.1-0.1l0.1-0.1l0.1-0.1l0.1-0.1l0.1-0.1l0.1-0.1l0.1-0.1
			l0.1-0.1l0.1-0.1l0.1-0.1l0.1-0.1l0.1-0.1l0.1-0.1l0.1-0.1l0.1-0.1l0.1-0.1l0.1-0.1l0.1-0.1l0.1-0.1l0.1-0.2l0.1-0.2l0.1-0.1
			L101,97l0.1-0.2l0.1-0.2l0.1-0.2l0.1-0.2l0.1-0.2l0.1-0.2l0.1-0.2l0.1-0.2l0.1-0.2l0.1-0.2l0.1-0.2l0.1-0.2l0.1-0.2l0.1-0.2
			l0.1-0.2l0.1-0.2l0.1-0.2v-0.2l0.1-0.2v-0.2l0.1-0.2v-0.2v-0.3v-0.3v-0.3v-0.3v-0.3v-0.3V91v-0.3v-0.3V90v-0.3v-0.4v-2.7v-0.5
			v-0.6v-0.6l-0.1-0.7l-0.1-0.7l-0.1-0.8l-0.1-0.9l-0.1-1l-0.2-1.1l-0.2-1.2l-0.3-1.4l-0.3-1.6l-0.4-1.9l-0.5-2.3l-0.7-2.9l-1-3.8
			l-0.9-5.3L95,51l-5.4-18L80.4,2.5l10.5,30.1l6.2,17.7l3,8.4l2,5.2l1.4,3.6l1.1,2.7l0.9,2.2l0.8,1.8l0.7,1.5l0.6,1.3l0.5,1.1l0.5,1
			l0.4,0.8l0.4,0.8l0.4,0.7l0.4,0.6l0.3,0.6L111,83l0.3,0.5l0.3,0.4l0.3,0.4l0.3,0.4l0.3,0.4l0.3,0.3l0.3,0.3l0.2,0.3l0.2,0.3
			l0.2,0.3l0.2,0.3L114,87l0.2,0.2l0.2,0.2l0.2,0.2l0.2,0.2L115,88l0.2,0.2l0.2,0.2l0.2,0.2l0.2,0.2l0.2,0.2l0.2,0.2l0.2,0.1
			l0.2,0.1l0.2,0.1l0.2,0.1l0.2,0.1l0.2,0.1l0.2,0.1l0.2,0.1l0.2,0.1l0.2,0.1l0.2,0.1l0.2,0.1l0.2,0.1l0.2,0.1l0.2,0.1l0.2,0.1
			l0.2,0.1L119,91l0.2,0.1l0.2,0.1l0.2,0.1l0.2,0.1l0.2,0.1l0.2,0.1l0.2,0.1l0.2,0.1l0.2,0.1l0.2,0.1h0.2l0.2,0.1h0.2h0.2h0.2h0.2
			h0.2h0.2h0.2h0.2h0.2h0.2h0.2h0.2h0.2h0.2h0.2h0.2h0.2h0.2h0.2h0.2h0.2h2h0.2h0.2h0.2h0.2h0.2h0.3h0.3h0.3h0.3h0.3l0.3-0.1
			l0.3-0.1l0.3-0.1l0.3-0.1l0.3-0.1l0.4-0.1l0.4-0.1l0.4-0.1l0.4-0.1l0.4-0.1l0.4-0.2l0.5-0.2l0.5-0.2l0.5-0.2l0.6-0.2l0.6-0.3
			l0.7-0.3l0.7-0.3l0.8-0.4l0.9-0.4l1-0.5l1.1-0.6l1.2-0.7l1.4-0.8l1.7-1l2-1.2l2.5-1.5l3.3-2.1l4.6-3l7.4-5l15.4-10.7L206.4,43
			L181,62.8l-14.9,11.3l-7,5.5l-4.3,3.5l-3,2.5l-2.2,1.9l-1.8,1.5l-1.4,1.3l-1.2,1.1l-1,1l-0.9,0.8l-0.8,0.8l-0.7,0.7l-0.6,0.6
			l-0.5,0.6l-0.5,0.5l-0.4,0.5l-0.4,0.5l-0.4,0.4l-0.3,0.4l-0.3,0.4l-0.3,0.4l-0.3,0.4l-0.2,0.3l-0.2,0.3l-0.2,0.3l-0.2,0.3
			l-0.2,0.3l-0.2,0.3l-0.2,0.3l-0.2,0.3l-0.1,0.3l-0.1,0.3l-0.1,0.3l-0.1,0.2l-0.1,0.2l-0.1,0.2l-0.1,0.2l-0.1,0.2l-0.1,0.2
			l-0.1,0.2l-0.1,0.2l-0.1,0.2l-0.1,0.2l-0.1,0.2l-0.1,0.2l-0.1,0.2v0.2l-0.1,0.2l-0.1,0.2v0.2l-0.1,0.2v0.2v0.2v0.2v0.2v0.2v0.2
			v0.2v0.2v0.2v0.2v0.2v0.2v0.3v0.2v0.8"/>
		<path class="st0" d="M134.1,109.7v1.3v0.2v0.2v0.2v0.2v0.2v0.2v0.2v0.2v0.2v0.2v0.2v0.2v0.2v0.2l0.1,0.2l0.1,0.2l0.1,0.2l0.1,0.2
			l0.1,0.2l0.1,0.2l0.1,0.2l0.1,0.2l0.1,0.2l0.1,0.2l0.1,0.2l0.1,0.2l0.1,0.2l0.1,0.2l0.1,0.2l0.1,0.3l0.1,0.2l0.1,0.3l0.1,0.3
			l0.1,0.3l0.2,0.3l0.2,0.3l0.2,0.3l0.2,0.3l0.2,0.3l0.2,0.3l0.3,0.3l0.3,0.4l0.3,0.4l0.3,0.4l0.3,0.4l0.4,0.4l0.4,0.5l0.4,0.5
			l0.5,0.6l0.5,0.6l0.6,0.6l0.7,0.7l0.8,0.8l0.9,0.9l1,1l1.2,1.1l1.4,1.3l1.8,1.6l2.8,1.9l3,2.5l4.4,3.5l7.1,5.5l15.1,11.5
			l25.4,19.4l-26.3-18.2l-15.6-10.8l-7.4-5l-4.7-3.1l-3.3-2.1l-2.5-1.6l-2-1.2l-1.7-1l-1.4-0.8l-1.2-0.7l-1.1-0.6l-1-0.5l-0.9-0.4
			l-0.8-0.4l-0.7-0.3l-0.7-0.3l-0.6-0.3l-0.6-0.2l-0.5-0.2l-0.5-0.2l-0.5-0.2l-0.4-0.2l-0.4-0.1l-0.4-0.1l-0.4-0.1l-0.4-0.1
			l-0.4-0.1l-0.3-0.1l-0.3-0.1l-0.3-0.1l-0.3-0.1H129l-0.3-0.1h-0.3l-0.3-0.1h-0.3h-0.3h-0.3h-0.2h-0.2h-0.2h-2.4H124h-0.2h-0.2
			h-0.2h-0.2h-0.2H123h-0.2h-0.2h-0.2h-0.2h-0.2H122h-0.2h-0.2h-0.2h-0.2l-0.2,0.1H121h-0.2l-0.2,0.1h-0.2l-0.2,0.1l-0.2,0.1
			l-0.2,0.1l-0.2,0.1l-0.2,0.1l-0.2,0.1l-0.2,0.1l-0.2,0.1l-0.2,0.1l-0.2,0.1l-0.2,0.1l-0.2,0.1l-0.2,0.1l-0.2,0.1l-0.2,0.1
			l-0.2,0.1l-0.2,0.1l-0.2,0.1l-0.2,0.1l-0.2,0.1l-0.2,0.1l-0.2,0.1l-0.2,0.1l-0.2,0.1l-0.2,0.1l-0.2,0.1l-0.2,0.1l-0.2,0.1
			l-0.2,0.1l-0.2,0.2l-0.2,0.2l-0.2,0.2l-0.2,0.2l-0.2,0.2l-0.2,0.2l-0.2,0.2l-0.2,0.2l-0.2,0.2l-0.2,0.2l-0.2,0.3l-0.2,0.3
			l-0.2,0.3l-0.2,0.3l-0.2,0.3l-0.3,0.3l-0.3,0.3l-0.3,0.4l-0.3,0.4l-0.3,0.4l-0.3,0.4l-0.3,0.5l-0.3,0.5l-0.3,0.6l-0.4,0.6
			l-0.4,0.7l-0.4,0.8l-0.4,0.9l-0.5,1l-0.6,1.1l-0.6,1.3l-0.7,1.5l-0.8,1.8l-0.9,2.2l-1.1,2.8l-1.4,4.1l-2,5.2l-3.1,8.4l-6.2,17.9
			l-10.6,30.2l9.2-30.6l5.5-18.2l2.5-8.6l1.5-5.4l1-3.8l0.7-2.9l0.5-2.3l0.4-1.9l0.3-1.6l0.3-1.4l0.2-1.2l0.2-1.1l0.1-1l0.1-0.9
			l0.1-0.8l0.1-0.7l0.1-0.7V134v-0.6v-0.5v-0.5v-1.8v-0.4v-0.4v-0.4v-0.3v-0.3v-0.3v-0.3V128v-0.3v-0.3v-0.3l-0.1-0.3v-0.2v-0.2
			v-0.2l-0.1-0.2v-0.2l-0.1-0.2l-0.1-0.2l-0.1-0.2L102,125l-0.1-0.2l-0.1-0.2l-0.1-0.2l-0.1-0.2l-0.1-0.2l-0.1-0.2l-0.1-0.2
			l-0.1-0.2l-0.1-0.2l-0.1-0.2l-0.1-0.2l-0.1-0.2l-0.1-0.2l-0.1-0.2l-0.1-0.2l-0.1-0.2l-0.1-0.2l-0.1-0.1l-0.1-0.2l-0.1-0.1
			l-0.1-0.1l-0.1-0.1l-0.1-0.1l-0.1-0.1L100,121l-0.1-0.1l-0.1-0.1l-0.1-0.1l-0.1-0.1l-0.1-0.1l-0.1-0.1l-0.1-0.1l-0.1-0.1l-0.1-0.1
			l-0.1-0.1l-0.1-0.1l-0.1-0.1l-0.1-0.1l-0.1-0.1l-0.1-0.1l-0.1-0.1l-0.1-0.1l-0.1-0.1l-0.1-0.1l-0.1-0.1l-0.1-0.1l-0.2-0.1
			l-0.2-0.1l-0.2-0.1l-0.2-0.1l-0.2-0.1l-0.2-0.1l-0.2-0.1l-0.2-0.1l-0.2-0.1l-0.2-0.1l-0.2-0.1l-0.2-0.1l-0.2-0.1l-0.2-0.1
			l-0.2-0.1l-0.2-0.1l-0.2-0.1l-0.3-0.1l-0.3-0.1l-0.3-0.1l-0.3-0.1l-0.3-0.1l-0.3-0.1l-0.3-0.1l-0.3-0.1l-0.3-0.1l-0.4-0.1
			l-0.4-0.1l-0.4-0.1l-0.4-0.1l-0.4-0.1l-0.5-0.2l-0.5-0.1l-0.6-0.2l-0.6-0.2l-0.7-0.2l-0.7-0.2l-0.8-0.2l-0.9-0.2l-1-0.2l-1.1-0.2
			l-1.2-0.2l-1.3-0.2l-1.6-0.2l-1.9-0.2l-2.4-0.2l-3-0.2l-3.9-0.3l-5.6-0.3l-9-0.3l-19-0.4l-32-0.7l32-0.7l19-0.4l9-0.3l5.6-0.3
			l3.9-0.3l3-0.2l2.4-0.2l1.9-0.2L80,107l1.4-0.2l1.2-0.2l1.1-0.2l1-0.2l0.9-0.2l0.8-0.2l0.7-0.2l0.7-0.2l0.6-0.2l0.6-0.2l0.5-0.1
			l0.5-0.1l0.4-0.2l0.4-0.1l0.4-0.1l0.4-0.1l0.4-0.1l0.3-0.1l0.3-0.1l0.3-0.1l0.3-0.1l0.3-0.1l0.3-0.1l0.3-0.1l0.3-0.1l0.3-0.1
			l0.2-0.1l0.2-0.1l0.2-0.1l0.2-0.1l0.2-0.1l0.2-0.1l0.2-0.1l0.2-0.1l0.2-0.1l0.2-0.1l0.2-0.1l0.2-0.1l0.2-0.1l0.2-0.1l0.2-0.1
			l0.2-0.1l0.2-0.1l0.1-0.1l0.1-0.1l0.1-0.1l0.1-0.1l0.1-0.1l0.1-0.1l0.1-0.1l0.1-0.1l0.1-0.1l0.1-0.1l0.1-0.1l0.1-0.1l0.1-0.1
			l0.1-0.1l0.1-0.1l0.1-0.1l0.1-0.1l0.1-0.1l0.1-0.1l0.1-0.1l0.1-0.1l0.1-0.1l0.1-0.1l0.1-0.1l0.1-0.1l0.1-0.2l0.1-0.1l0.1-0.1
			l0.1-0.2l0.1-0.2l0.1-0.2l0.1-0.2l0.1-0.2l0.1-0.2l0.1-0.2l0.1-0.2l0.1-0.2l0.1-0.2l0.1-0.2l0.1-0.2l0.1-0.2l0.1-0.2l0.1-0.2
			l0.1-0.2l0.1-0.2l0.1-0.2l0.1-0.2l0.1-0.2l0.1-0.2l0.1-0.2v-0.2l0.1-0.2V93v-0.2v-0.2l0.1-0.3V92v-0.3v-0.3v-0.3v-0.3v-0.3v-0.3
			v-0.3v-0.3v-0.4v-0.4V87v-0.5v-0.5v-0.6v-0.6l-0.1-0.7l-0.1-0.7l-0.1-0.8l-0.1-0.9l-0.1-1l-0.2-1.1l-0.2-1.2l-0.3-1.4l-0.3-1.6
			l-0.4-1.9l-0.5-2.3l-0.7-2.9l-1-3.8l-1.5-5.4l-2.5-8.6l-5.5-18.2L80.1,1.7l10.6,30.2l6.2,17.9l3.1,8.5l2,5.2l1.4,3.7l1.1,2.8
			l0.9,2.2l0.8,1.8l0.7,1.5l0.6,1.3l0.6,1.1l0.5,1l0.4,0.9l0.4,0.8l0.4,0.7l0.4,0.6l0.3,0.6l0.3,0.5l0.3,0.5l0.3,0.4l0.3,0.4
			l0.3,0.4l0.3,0.4l0.3,0.3l0.3,0.3l0.2,0.3l0.2,0.3l0.2,0.3l0.2,0.3l0.2,0.3l0.2,0.2l0.2,0.2l0.2,0.2l0.2,0.2l0.2,0.2l0.2,0.2
			l0.2,0.2l0.2,0.2l0.2,0.2l0.2,0.2l0.2,0.2l0.2,0.2l0.2,0.1l0.2,0.1l0.2,0.1l0.2,0.1l0.2,0.1l0.2,0.1l0.2,0.1l0.2,0.1l0.2,0.1
			l0.2,0.1l0.2,0.1l0.2,0.1l0.2,0.1l0.2,0.1l0.2,0.1l0.2,0.1l0.2,0.1l0.2,0.1l0.2,0.1l0.2,0.1l0.2,0.1l0.2,0.1l0.2,0.1l0.2,0.1
			l0.2,0.1l0.2,0.1l0.2,0.1l0.2,0.1h0.2h0.2h0.2h0.2l0.2,0.1h0.2h0.2h0.2h0.2h0.2h0.2h0.2h0.2h0.2h0.2h0.2h0.2h0.2h0.2h0.2h0.2h0.2
			h0.2h2.1h0.2h0.2h0.2h0.3h0.3h0.3h0.3h0.3l0.3-0.1l0.3-0.1l0.3-0.1l0.3-0.1l0.3-0.1l0.3-0.1l0.4-0.1l0.4-0.1l0.4-0.1l0.4-0.1
			l0.4-0.1L133,91l0.5-0.2l0.5-0.2l0.5-0.2l0.6-0.2l0.6-0.3l0.7-0.3l0.7-0.3l0.8-0.4l0.9-0.4l1-0.5l1.1-0.6l1.2-0.7l1.4-0.8l1.7-1
			l2-1.2l2.5-1.6l3.3-2.1l4.7-3.1l7.4-5l15.6-10.9L207.1,43l-25.5,19.3l-15.1,11.5l-7.1,5.5l-4.4,3.5l-3,2.5l-2.3,1.9l-1.8,1.6
			l-1.4,1.3l-1.2,1.1l-1,1l-0.9,0.9l-0.8,0.8l-0.7,0.7l-0.6,0.6l-0.5,0.6l-0.5,0.6l-0.4,0.5l-0.4,0.5l-0.4,0.4l-0.3,0.4l-0.3,0.4
			l-0.3,0.4l-0.3,0.4l-0.3,0.3l-0.2,0.3l-0.2,0.3l-0.2,0.3L137,101l-0.2,0.3l-0.2,0.3l-0.1,0.3l-0.1,0.3l-0.1,0.3l-0.1,0.3l-0.1,0.2
			l-0.1,0.2l-0.1,0.2l-0.1,0.2l-0.1,0.2l-0.1,0.2l-0.1,0.2l-0.1,0.2l-0.1,0.2l-0.1,0.2L135,105l-0.1,0.2l-0.1,0.2l-0.1,0.2l-0.1,0.2
			l-0.1,0.2v0.2v0.2v0.2v0.2v0.2v0.2v0.2v0.2v0.2v0.2v0.2v0.2v0.2v0.2v1.3"/>
		<path class="st0" d="M134.3,109.7v1.2v0.2v0.2v0.2v0.2v0.2v0.2v0.2v0.2v0.2v0.2v0.2l0.1,0.2v0.2l0.1,0.2v0.2l0.1,0.2l0.1,0.2
			l0.1,0.2l0.1,0.2l0.1,0.2l0.1,0.2l0.1,0.2l0.1,0.2l0.1,0.2l0.1,0.2l0.1,0.2l0.1,0.2l0.1,0.2l0.1,0.2l0.1,0.2l0.1,0.2l0.1,0.3
			l0.1,0.3l0.1,0.3l0.2,0.3l0.2,0.3l0.2,0.3l0.2,0.3l0.2,0.3l0.2,0.3l0.2,0.3l0.3,0.3l0.3,0.4l0.3,0.4l0.3,0.4l0.3,0.4l0.4,0.4
			l0.4,0.5l0.4,0.5l0.5,0.6l0.5,0.6l0.6,0.7l0.7,0.7l0.8,0.8l0.9,0.9l1,1l1.2,1.1l1.5,1.3l1.8,1.6l2.3,1.9l3.1,2.5l4.4,3.5l7.7,5.6
			l15.3,11.6l25.4,19.4l-26.3-18.3l-15.7-11l-7.5-5.1l-4.7-3.1l-3.4-2.1l-2.6-1.6l-2-1.2l-1.7-1l-1.4-0.8l-1.2-0.7l-1.1-0.6l-1-0.5
			l-0.9-0.4l-0.8-0.4l-0.7-0.3l-0.7-0.3l-0.6-0.3l-0.6-0.2l-0.6-0.2l-0.5-0.2l-0.5-0.2l-0.5-0.2l-0.4-0.1l-0.4-0.1l-0.4-0.1
			l-0.4-0.1l-0.4-0.1l-0.3-0.1l-0.3-0.1l-0.3-0.1l-0.3-0.1l-0.3-0.1h-0.3h-0.3h-0.3H128h-0.3h-0.3h-0.2H127h-0.2h-0.2h-2h-0.2h-0.2
			H124h-0.2h-0.2h-0.2h-0.2h-0.2h-0.2h-0.2h-0.2h-0.2h-0.2h-0.2h-0.2h-0.2h-0.2h-0.2l-0.2,0.1h-0.2l-0.2,0.1h-0.2l-0.2,0.1l-0.2,0.1
			l-0.2,0.1l-0.2,0.1l-0.2,0.1l-0.2,0.1l-0.2,0.1l-0.2,0.1l-0.2,0.1l-0.2,0.1l-0.2,0.1l-0.2,0.1l-0.2,0.1l-0.2,0.1l-0.2,0.1
			l-0.2,0.1l-0.2,0.1l-0.2,0.1l-0.2,0.1l-0.2,0.1l-0.2,0.1l-0.2,0.1l-0.2,0.1L117,130l-0.2,0.1l-0.2,0.1l-0.2,0.1l-0.2,0.1l-0.2,0.1
			l-0.2,0.1l-0.2,0.2l-0.2,0.2l-0.2,0.2l-0.2,0.2l-0.2,0.2l-0.2,0.2l-0.2,0.2l-0.2,0.2l-0.2,0.2l-0.2,0.2l-0.2,0.3l-0.2,0.3
			l-0.2,0.3l-0.2,0.3l-0.3,0.3l-0.2,0.3l-0.3,0.3l-0.3,0.4l-0.3,0.4l-0.3,0.4l-0.3,0.4l-0.3,0.5l-0.3,0.5l-0.4,0.6l-0.4,0.6
			l-0.4,0.7l-0.4,0.8l-0.5,0.9l-0.5,1l-0.6,1.1l-0.6,1.3l-0.7,1.5l-0.8,1.8l-1,2.2l-1.1,2.8l-1.5,3.7l-2,5.3l-3.1,8.5l-6.3,18.1
			l-10.5,30.2l9.2-30.7l5.6-18.4l2.5-8.7l1.5-5.4l1-3.9l0.7-2.9l0.5-2.3l0.4-1.9l0.3-1.6l0.3-1.4l0.2-1.2l0.2-1.1l0.1-1l0.1-0.9
			l0.1-0.8l0.1-0.7l0.1-0.7v-0.6v-0.6v-0.6v-2.7V130v-0.4v-0.3V129v-0.3v-0.3v-0.3v-0.3v-0.3v-0.3l-0.1-0.3v-0.3v-0.2l-0.1-0.2v-0.2
			l-0.1-0.2l-0.1-0.2v-0.2l-0.1-0.2l-0.1-0.2l-0.1-0.2l-0.1-0.2l-0.1-0.2l-0.1-0.2l-0.1-0.2l-0.1-0.2l-0.1-0.2l-0.1-0.2l-0.1-0.2
			l-0.1-0.2l-0.1-0.2L101,123l-0.1-0.2l-0.1-0.2l-0.1-0.2l-0.1-0.2l-0.1-0.2l-0.1-0.2l-0.1-0.1l-0.1-0.2l-0.1-0.1l-0.1-0.1l-0.1-0.1
			l-0.1-0.1l-0.1-0.1l-0.1-0.1l-0.1-0.1l-0.1-0.1l-0.1-0.1l-0.1-0.1l-0.1-0.1l-0.1-0.1l-0.1-0.1l-0.1-0.1l-0.1-0.1l-0.1-0.1
			l-0.1-0.1l-0.1-0.1l-0.1-0.1l-0.1-0.1l-0.1-0.1l-0.1-0.1l-0.1-0.1l-0.1-0.1l-0.1-0.1l-0.2-0.1l-0.1-0.1l-0.2-0.1L97,118l-0.2-0.1
			l-0.2-0.1l-0.2-0.1l-0.2-0.1l-0.2-0.1l-0.2-0.1l-0.2-0.1l-0.2-0.1l-0.2-0.1l-0.2-0.1l-0.2-0.1l-0.2-0.1l-0.2-0.1l-0.2-0.1
			l-0.3-0.1l-0.3-0.1l-0.3-0.1l-0.3-0.1l-0.3-0.1l-0.3-0.1l-0.3-0.1l-0.3-0.1l-0.3-0.1l-0.3-0.2l-0.4-0.1l-0.4-0.1l-0.4-0.1
			l-0.5-0.1l-0.5-0.1l-0.5-0.2L88,114l-0.6-0.2l-0.7-0.2l-0.7-0.2l-0.8-0.2l-0.9-0.2l-1-0.2l-1.1-0.2l-1.2-0.2l-1.4-0.2l-1.6-0.2
			l-2-0.2l-2.4-0.2l-3-0.2l-4-0.3l-5.6-0.3l-9.1-0.3l-19.2-0.4l-32-0.7l32-0.7l19.2-0.4l9.1-0.3l5.6-0.3l4-0.3l3-0.2l2.4-0.2l2-0.2
			l1.6-0.2l1.4-0.2l1.2-0.2l1.1-0.2l1-0.2l0.9-0.2l0.8-0.2l0.7-0.2l0.7-0.2l0.6-0.2l0.6-0.2l0.5-0.1l0.5-0.2l0.5-0.1l0.4-0.1
			l0.4-0.1l0.4-0.1l0.4-0.1l0.3-0.1l0.3-0.1l0.3-0.1l0.3-0.1l0.3-0.1l0.3-0.1l0.3-0.1l0.3-0.1l0.3-0.1l0.2-0.1l0.2-0.1l0.2-0.1
			l0.2-0.1l0.2-0.1l0.2-0.1l0.2-0.1l0.2-0.1l0.2-0.1l0.2-0.1l0.2-0.1l0.2-0.1l0.2-0.1l0.2-0.1l0.2-0.1l0.2-0.1l0.1-0.1l0.2-0.1
			l0.1-0.1l0.1-0.1l0.1-0.1l0.1-0.1l0.1-0.1l0.1-0.1l0.1-0.1l0.1-0.1l0.1-0.1l0.1-0.1l0.1-0.1l0.1-0.1l0.1-0.1l0.1-0.1l0.1-0.1
			l0.1-0.1l0.1-0.1l0.1-0.1l0.1-0.1l0.1-0.1l0.1-0.1l0.1-0.1l0.1-0.1l0.1-0.1l0.1-0.1l0.1-0.1l0.1-0.2l0.1-0.2l0.1-0.2l0.1-0.2
			l0.1-0.2l0.1-0.2l0.1-0.2l0.1-0.2l0.1-0.2l0.1-0.2l0.1-0.2l0.1-0.2l0.1-0.2l0.1-0.2l0.1-0.2l0.1-0.2l0.1-0.2l0.1-0.2l0.1-0.2
			l0.1-0.2L102,94v-0.2l0.1-0.2l0.1-0.2v-0.2l0.1-0.2v-0.2v-0.3l0.1-0.3v-0.3v-0.3v-0.3V91v-0.3v-0.3v-0.3v-0.3v-0.3V89v-2.7v-0.5
			v-0.6v-0.6l-0.1-0.7l-0.1-0.7l-0.1-0.8l-0.1-0.9l-0.1-1l-0.2-1.1l-0.2-1.2l-0.3-1.4l-0.3-1.6l-0.4-1.9l-0.1-2.3l-0.7-3l-1-3.8
			l-1.5-5.5L94.7,50l-5.6-18.4L79.9,1l10.6,30.2l6.3,18.1l3.1,8.5l2,5.3l1.5,3.7l1.1,2.8l1,2.2l0.8,1.8l0.7,1.5l0.6,1.3l0.6,1.1
			l0.5,1l0.5,0.9l0.4,0.8l0.4,0.7l0.4,0.6l0.4,0.6l0.3,0.5l0.3,0.5l0.3,0.5l0.3,0.4l0.3,0.4l0.3,0.4l0.3,0.3l0.2,0.3l0.3,0.3
			l0.2,0.3l0.2,0.3l0.2,0.3l0.2,0.2l0.2,0.2l0.2,0.2l0.2,0.2l0.2,0.2l0.2,0.2l0.2,0.2l0.2,0.2l0.2,0.2l0.2,0.2l0.2,0.2l0.2,0.2
			l0.2,0.1l0.2,0.1l0.2,0.1l0.2,0.1l0.2,0.1l0.2,0.1l0.2,0.1l0.2,0.1l0.2,0.1l0.2,0.1l0.2,0.1l0.2,0.1l0.2,0.1l0.2,0.1l0.2,0.1
			l0.2,0.1l0.2,0.1l0.2,0.1l0.2,0.1l0.2,0.1l0.2,0.1l0.2,0.1l0.2,0.1l0.2,0.1l0.2,0.1l0.2,0.1l0.2,0.1l0.2,0.1h0.2l0.2,0.1h0.2h0.2
			h0.2l0.2,0.1h0.2h0.2h0.2h0.2h0.2h0.2h0.2h0.2h0.2h0.2h0.2h0.2h0.2h0.2h0.2h0.2h2.5h0.2h0.2h0.2h0.3h0.3h0.3h0.3h0.3h0.3l0.3-0.1
			l0.3-0.1l0.3-0.1l0.3-0.1l0.3-0.1l0.4-0.1l0.4-0.1l0.4-0.1l0.4-0.1l0.4-0.1l0.5-0.2l0.5-0.2l0.5-0.2l0.6-0.2l0.6-0.2l0.6-0.3
			l0.7-0.3l0.7-0.3l0.8-0.4L139,88l1-0.5l1.1-0.6l1.2-0.7l1.4-0.8l1.7-1l2-1.2L150,82l3.4-2.1l4.7-3.1l7.5-5.1l15.7-11l26.4-18.2
			l-25.5,19.4L167,73.5l-7.2,5.6l-4.4,3.5l-3.1,2.5l-2.3,2l-1.8,1.6l-1.5,1.3l-1.2,1.1l-1,1l-0.9,0.9l-0.8,0.8l-0.7,0.7l-0.6,0.6
			l-0.5,0.6l-0.5,0.6l-0.4,0.5l-0.4,0.5l-0.4,0.4l-0.3,0.4l-0.3,0.4l-0.3,0.4l-0.3,0.4l-0.3,0.4l-0.2,0.3l-0.2,0.3l-0.2,0.3
			l-0.2,0.3l-0.2,0.3l-0.2,0.3l-0.2,0.3l-0.1,0.3l-0.1,0.3l-0.1,0.3l-0.1,0.3l-0.1,0.2l-0.1,0.2l-0.1,0.2l-0.1,0.2l-0.1,0.2
			l-0.1,0.2l-0.1,0.2l-0.1,0.2l-0.1,0.2l-0.1,0.2l-0.1,0.2l-0.1,0.2l-0.1,0.2l-0.1,0.2l-0.1,0.2v0.2l-0.1,0.2v0.2l-0.1,0.2v0.2v0.2
			v0.2v0.2v0.2v0.2v0.2v0.2v0.2v0.2v0.2v1.2"/>
		<path class="st0" d="M134.4,109.7v1.2v0.2v0.2v0.2v0.2v0.2v0.2v0.2v0.2v0.2v0.2v0.2v0.2v0.2v0.2v0.2l0.1,0.2l0.1,0.2l0.1,0.2
			l0.1,0.2l0.1,0.2l0.1,0.2l0.1,0.2l0.1,0.2l0.1,0.2l0.1,0.2l0.1,0.2l0.1,0.2l0.1,0.2l0.1,0.2l0.1,0.2l0.1,0.3l0.1,0.3l0.1,0.3
			l0.1,0.3l0.2,0.3l0.2,0.3l0.2,0.3l0.2,0.3l0.2,0.3l0.2,0.3l0.2,0.3l0.3,0.3l0.3,0.4l0.3,0.4l0.3,0.4l0.4,0.4l0.4,0.5l0.4,0.5
			l0.4,0.5l0.5,0.6l0.6,0.6l0.6,0.7l0.7,0.7l0.8,0.8l0.9,0.9l1,1l1.2,1.1l1.5,1.3l1.8,1.6l2.3,2l3.1,2.6l4.4,3.6l7.2,5.6l16,11.7
			l25.5,19.4L182,159.2l-15.9-11.1l-7.6-5.1l-4.8-3.1l-3.4-2.1l-2.6-1.6l-2.1-1.2l-1.7-1l-1.5-0.8l-1.3-0.7l-1.1-0.6l-1-0.5
			l-0.9-0.4l-0.8-0.4l-0.7-0.3l-0.7-0.3l-0.6-0.3l-0.6-0.2l-0.6-0.2l-0.5-0.2l-0.5-0.2l-0.5-0.2l-0.4-0.1l-0.4-0.1l-0.4-0.1
			l-0.4-0.1l-0.4-0.1l-0.4-0.1l-0.3-0.1l-0.3-0.1l-0.3-0.1l-0.3-0.1l-0.3-0.1h-0.3h-0.3h-0.3h-0.3h-0.3h-0.3h-0.2h-0.2h-0.2h-0.2
			h-1.8h-0.2h-0.2H124h-0.2h-0.2h-0.2h-0.2h-0.2h-0.2h-0.2h-0.2h-0.2h-0.2h-0.2h-0.2h-0.2h-0.2h-0.2h-0.2h-0.2H121l-0.2,0.1
			l-0.2,0.1l-0.2,0.1l-0.2,0.1l-0.2,0.1l-0.2,0.1l-0.2,0.1l-0.2,0.1l-0.2,0.1l-0.2,0.1l-0.2,0.1l-0.2,0.1l-0.2,0.1l-0.2,0.1
			l-0.2,0.1l-0.2,0.1l-0.2,0.1l-0.2,0.1L118,129l-0.2,0.1l-0.2,0.1l-0.2,0.1l-0.2,0.1l-0.2,0.1l-0.2,0.1l-0.2,0.1l-0.2,0.1l-0.2,0.1
			l-0.2,0.1l-0.2,0.1L116,131l-0.2,0.2l-0.2,0.2l-0.2,0.2l-0.2,0.2l-0.2,0.2l-0.2,0.2l-0.2,0.2l-0.2,0.2l-0.2,0.2l-0.2,0.2l-0.2,0.3
			l-0.2,0.3l-0.2,0.3l-0.2,0.3l-0.2,0.3l-0.3,0.3l-0.3,0.3l-0.3,0.4l-0.3,0.4l-0.3,0.4l-0.3,0.5l-0.3,0.5l-0.3,0.5l-0.3,0.6
			l-0.4,0.6l-0.4,0.7l-0.4,0.8l-0.5,0.9l-0.5,1l-0.6,1.1l-0.6,1.3l-0.7,1.5l-0.8,1.8l-1,2.2l-1.2,2.8l-1.5,3.7l-2,5.3l-3.1,8.6
			L90.2,189l-10.6,30.3l9.2-30.8l5.6-18.6l2.5-8.9l1.5-5.5l1-3.9l0.7-2.9l0.5-2.4l0.4-1.9l0.3-1.6l0.3-1.4l0.2-1.2l0.2-1.1l0.1-1
			l0.1-0.9l0.1-0.8l0.1-0.7l0.1-0.7v-0.6v-0.6v-0.6V131v-0.4v-0.4v-0.4v-0.4v-0.3v-0.3v-0.3v-0.3V128v-0.3v-0.3v-0.3l-0.1-0.3v-0.2
			v-0.2l-0.1-0.2V126l-0.1-0.2l-0.1-0.2l-0.1-0.2l-0.1-0.2l-0.1-0.2l-0.1-0.2l-0.1-0.2l-0.1-0.2l-0.1-0.2l-0.1-0.2l-0.1-0.2
			l-0.1-0.2l-0.1-0.2l-0.1-0.2l-0.1-0.2l-0.1-0.2l-0.1-0.2l-0.1-0.2l-0.1-0.2l-0.1-0.2l-0.1-0.2l-0.1-0.2l-0.1-0.1l-0.1-0.2
			l-0.1-0.1l-0.1-0.1l-0.1-0.1l-0.1-0.1l-0.1-0.1l-0.1-0.1l-0.1-0.1l-0.1-0.1l-0.1-0.1l-0.1-0.1l-0.1-0.1l-0.1-0.1l-0.1-0.1
			l-0.1-0.1l-0.1-0.1l-0.1-0.1l-0.1-0.1l-0.1-0.1l-0.1-0.1l-0.1-0.1l-0.1-0.1l-0.1-0.1l-0.1-0.1l-0.1-0.1l-0.1-0.1l-0.1-0.1
			l-0.2-0.1l-0.2-0.1l-0.2-0.1l-0.2-0.1l-0.2-0.1l-0.2-0.1l-0.2-0.1l-0.2-0.1l-0.2-0.1l-0.2-0.1l-0.2-0.1l-0.2-0.1l-0.2-0.1
			l-0.2-0.1l-0.2-0.1l-0.2-0.1l-0.2-0.1l-0.3-0.1l-0.3-0.1l-0.3-0.1l-0.3-0.1l-0.3-0.1l-0.3-0.1l-0.3-0.1l-0.3-0.1l-0.3-0.1
			l-0.4-0.1l-0.4-0.1l-0.4-0.1l-0.4-0.1l-0.5-0.2l-0.5-0.1l-0.5-0.2l-0.6-0.2l-0.6-0.2l-0.7-0.2l-0.7-0.2l-0.8-0.2l-0.9-0.2l-1-0.2
			l-1.1-0.2l-1.2-0.2l-1.4-0.2l-1.7-0.2l-2-0.2l-2.4-0.2l-3-0.2l-4-0.3l-5.7-0.3l-9.2-0.3l-19.4-0.4L0,109.7l32.1-0.7l19.4-0.4
			l9.2-0.3l5.7-0.3l4-0.3l3-0.2l2.4-0.2l2-0.2l1.7-0.2l1.4-0.2l1.2-0.2l1.1-0.2l1-0.2l0.9-0.2l0.8-0.2l0.7-0.2l0.7-0.2l0.6-0.2
			l0.6-0.2l0.5-0.1l0.5-0.2l0.5-0.1l0.4-0.1l0.4-0.1l0.4-0.1l0.4-0.1l0.3-0.1l0.3-0.1l0.3-0.1l0.3-0.1l0.3-0.1l0.3-0.1l0.3-0.1
			l0.3-0.1l0.3-0.1l0.2-0.1l0.2-0.1l0.2-0.1l0.2-0.1l0.2-0.1l0.2-0.1l0.2-0.1l0.2-0.1L96,102l0.2-0.1l0.2-0.1l0.2-0.1l0.2-0.1
			l0.2-0.1l0.2-0.1l0.2-0.1l0.2-0.1l0.1-0.1l0.1-0.1l0.1-0.1l0.1-0.1l0.1-0.1l0.1-0.1l0.1-0.1l0.1-0.1l0.1-0.1l0.1-0.1l0.1-0.1
			l0.1-0.1l0.1-0.1l0.1-0.1l0.1-0.1l0.1-0.1l0.1-0.1l0.1-0.1l0.1-0.1l0.1-0.1l0.1-0.1l0.1-0.1l0.1-0.1l0.1-0.1l0.1-0.1l0.1-0.2
			l0.1-0.1l0.1-0.2l0.1-0.2l0.1-0.2l0.1-0.2l0.1-0.2l0.1-0.2l0.1-0.2l0.1-0.2l0.1-0.2l0.1-0.2l0.1-0.2l0.1-0.2l0.1-0.2l0.1-0.2
			l0.1-0.2l0.1-0.2l0.1-0.2l0.1-0.2l0.1-0.2l0.1-0.2l0.1-0.2l0.1-0.2l0.1-0.2v-0.2l0.1-0.2v-0.2v-0.2l0.1-0.3V92v-0.3v-0.3v-0.3
			v-0.3v-0.3v-0.3V90v-0.3v-0.4v-0.4v-0.4v-2.3v-0.6V85v-0.6l-0.1-0.7L102,83l-0.1-0.8l-0.1-0.9l-0.1-1l0.3-1.1l-0.3-1.2l-0.3-1.4
			l-0.3-1.6l-0.4-2l-0.5-2.4l-0.7-3l-1-3.9L97,58.3l-2.5-8.8l-5.6-18.6L79.6,0.2l10.6,30.3l6.4,18.3l3.1,8.6l2,5.3l1.5,3.7l1.2,2.8
			l1,2.2l0.8,1.8l0.7,1.5l0.6,1.3l0.6,1.1l0.5,1l0.5,0.9l0.4,0.8l0.4,0.7l0.4,0.6l0.3,0.6l0.3,0.5l0.3,0.5l0.3,0.4l0.3,0.4l0.3,0.4
			l0.3,0.4l0.3,0.3l0.3,0.3l0.2,0.3l0.2,0.3l0.2,0.3l0.2,0.3l0.2,0.3l0.2,0.2l0.2,0.2l0.2,0.2l0.2,0.2l0.2,0.2l0.2,0.2l0.2,0.2
			l0.2,0.2l0.2,0.2l0.2,0.2l0.2,0.2l0.2,0.2l0.2,0.1l0.2,0.1l0.2,0.1l0.2,0.1l0.2,0.1l0.2,0.1l0.2,0.1l0.2,0.1l0.2,0.1L118,90
			l0.2,0.1l0.2,0.1l0.2,0.1l0.2,0.1l0.2,0.1l0.2,0.1l0.2,0.1l0.2,0.1l0.2,0.1l0.2,0.1l0.2,0.1l0.2,0.1l0.2,0.1l0.2,0.1l0.2,0.1
			l0.2,0.1l0.2,0.1l0.2,0.1h0.2l0.2,0.1h0.2h0.2h0.2h0.2h0.2h0.2h0.2h0.2h0.2h0.2h0.2h0.2h0.2h0.2h0.2h0.2h0.2h0.2h0.2h2.3h0.2h0.2
			h0.2h0.3h0.3h0.3h0.3h0.3h0.3l0.3-0.1l0.3-0.1l0.3-0.1l0.3-0.1l0.3-0.1l0.4-0.1l0.4-0.1l0.4-0.1l0.4-0.1l0.4-0.1l0.4-0.1l0.5-0.2
			l0.5-0.2l0.5-0.2l0.6-0.2l0.6-0.2l0.6-0.3l0.7-0.3l0.7-0.3l0.8-0.4l0.9-0.4l1-0.5l1.1-0.6l1.3-0.7l1.5-0.8l1.7-1l2.1-1.2l2.6-1.6
			l3.4-2.2l4.8-3.1l7.6-5.1L182,60.3L208.4,42l-25.5,19.5l-15.5,11.7l-7.2,5.7l-4.4,3.6l-3.1,2.6l-2.3,2l-1.8,1.6l-1.5,1.3l-1.2,1.2
			l-1,1l-0.9,0.9l-0.8,0.8l-0.7,0.7l-0.6,0.7l-0.6,0.6l-0.5,0.6l-0.4,0.5l-0.4,0.5l-0.4,0.4l-0.4,0.4l-0.3,0.4l-0.3,0.4l-0.3,0.4
			l-0.3,0.4l-0.2,0.3l-0.2,0.3l-0.2,0.3l-0.2,0.3l-0.2,0.3l-0.2,0.3l-0.2,0.3l-0.1,0.3l-0.1,0.3l-0.1,0.3l-0.1,0.3L136,103l-0.1,0.2
			l-0.1,0.2l-0.1,0.2l-0.1,0.2l-0.1,0.2l-0.1,0.2l-0.1,0.2l-0.1,0.2l-0.1,0.2l-0.1,0.2l-0.1,0.2l-0.1,0.2l-0.1,0.2l-0.1,0.2v0.2v0.2
			v0.2v0.2v0.2v0.2v0.2v0.2v0.2v0.2v0.2v0.2v0.2v0.2v0.2v1.2"/>
	</g>
</g>
</svg>
