<?xml version="1.0" encoding="utf-8"?>
<!-- Generator: Adobe Illustrator 23.0.6, SVG Export Plug-In . SVG Version: 6.00 Build 0)  -->
<svg version="1.1" id="Layer_1" xmlns="http://www.w3.org/2000/svg" xmlns:xlink="http://www.w3.org/1999/xlink" x="0px" y="0px"
	 viewBox="0 0 161.6 87.8" style="enable-background:new 0 0 161.6 87.8;" xml:space="preserve">
<style type="text/css">
	.st0{fill:#FFFFFF;}
</style>
<title>Asset 129</title>
<g>
	<g id="_Layer_">
		<path class="st0" d="M157.8,43.6c1.6-5.4,2.8-10.8,3.6-16.4c0.1-1.3,0.2-2.5,0.3-3.7l-82.1-5.1l-48.4,67L0,87.8L31.8,87L81,29.8
			L157.8,43.6z"/>
		
			<rect x="133.2" y="4.2" transform="matrix(6.226794e-02 -0.9981 0.9981 6.226794e-02 124.38 146.2927)" class="st0" width="13.6" height="5.6"/>
		
			<rect x="138.4" y="10.9" transform="matrix(6.226794e-02 -0.9981 0.9981 6.226794e-02 124.3367 156.0143)" class="st0" width="13.6" height="1.9"/>
		<polygon class="st0" points="77.9,14.7 135.6,18.6 136.2,5 74.7,1.6 66.3,19 66.8,26.6 43.7,65.1 		"/>
	</g>
</g>
</svg>
