<?xml version="1.0" encoding="utf-8"?>
<!-- Generator: Adobe Illustrator 23.0.6, SVG Export Plug-In . SVG Version: 6.00 Build 0)  -->
<svg version="1.1" id="Layer_1" xmlns="http://www.w3.org/2000/svg" xmlns:xlink="http://www.w3.org/1999/xlink" x="0px" y="0px"
	 viewBox="0 0 377 377" style="enable-background:new 0 0 377 377;" xml:space="preserve">
<style type="text/css">
	.st0{stroke:#FFFFFF;stroke-linecap:square;}
</style>
<g id="two-4894" transform="matrix(1 0 0 1 0 0)">
	<path id="two-4906" class="st0" d="M0,0h314.2"/>
	<path id="two-4907" class="st0" d="M314.2,188.5V0"/>
	<path id="two-4908" class="st0" d="M0,188.5h125.7"/>
	<path id="two-4909" class="st0" d="M125.7,251.3v-62.8"/>
	<path id="two-4910" class="st0" d="M0,251.3h62.8"/>
	<path id="two-4911" class="st0" d="M62.8,314.2v-62.8"/>
	<path id="two-4912" class="st0" d="M0,314.2h125.7"/>
	<path id="two-4913" class="st0" d="M125.7,377v-62.8"/>
	<path id="two-4914" class="st0" d="M62.8,251.3h188.5"/>
	<path id="two-4915" class="st0" d="M251.3,314.2v-62.8"/>
	<path id="two-4916" class="st0" d="M125.7,188.5h188.5"/>
	<path id="two-4917" class="st0" d="M314.2,251.3v-62.8"/>
	<path id="two-4918" class="st0" d="M125.7,314.2h125.7"/>
	<path id="two-4919" class="st0" d="M251.3,377v-62.8"/>
	<path id="two-4920" class="st0" d="M251.3,251.3H377"/>
	<path id="two-4921" class="st0" d="M377,314.2v-62.8"/>
	<path id="two-4922" class="st0" d="M251.3,314.2H377"/>
	<path id="two-4923" class="st0" d="M377,377v-62.8"/>
	<path id="two-4924" class="st0" d="M314.2,0H377"/>
	<path id="two-4925" class="st0" d="M377,188.5V0"/>
	<path id="two-4926" class="st0" d="M314.2,188.5H377"/>
	<path id="two-4927" class="st0" d="M377,251.3v-62.8"/>
</g>
</svg>
