<?xml version="1.0" encoding="utf-8"?>
<!-- Generator: Adobe Illustrator 23.0.6, SVG Export Plug-In . SVG Version: 6.00 Build 0)  -->
<svg version="1.1" id="Layer_1" xmlns="http://www.w3.org/2000/svg" xmlns:xlink="http://www.w3.org/1999/xlink" x="0px" y="0px"
	 viewBox="0 0 138.9 78.7" style="enable-background:new 0 0 138.9 78.7;" xml:space="preserve">
<style type="text/css">
	.st0{fill:#FFFFFF;}
</style>
<title>Asset 130</title>
<g>
	<g id="_Layer_">
		<path class="st0" d="M0,75.9l1,2.9l36-13l4.5-9.7l11-4l39.6,8.2L48.6,48.7L20.6,58.8l-0.4,2.9l-2.9-8l1.9,2.1l28.2-10.2L124,67.2
			l5.3-9.5L114,12L78,25.1l3.5,15.1L91,43l9.3,12.4L90.2,44.7L44.5,31.3l-17,6.1c1.4,3.7,7.3,7,7.3,7c-5.8-1.3-12-9.2-12-9.2L9.6,40
			C16.3,61.8,0,75.9,0,75.9z"/>
		<polygon class="st0" points="118.1,0 113.1,4.9 130.1,56.1 138.9,40.4 		"/>
	</g>
</g>
</svg>
