<?xml version="1.0" encoding="utf-8"?>
<!-- Generator: Adobe Illustrator 23.0.6, SVG Export Plug-In . SVG Version: 6.00 Build 0)  -->
<svg version="1.1" id="Layer_1" xmlns="http://www.w3.org/2000/svg" xmlns:xlink="http://www.w3.org/1999/xlink" x="0px" y="0px"
	 viewBox="0 0 196 85.8" style="enable-background:new 0 0 196 85.8;" xml:space="preserve">
<style type="text/css">
	.st0{fill:#FFFFFF;}
</style>
<title>Asset 132</title>
<g>
	<g id="_Layer_">
		<path class="st0" d="M4.5,78.9c-0.4-1.2-1.7-1.9-2.9-1.5c-1.2,0.4-1.9,1.7-1.5,2.9s1.7,1.9,2.9,1.5c0.8-0.3,1.4-0.9,1.6-1.7
			l26.9-1.4l8,7.2l18.9-1l46.8-30.2l48.5-2.7L166,37.1l-17.3,30.2l4.6-0.3L196,2.4l-50.6,2.7L57.5,74.2l51.2-50.1L104.8,0l-1,0.6
			c-1.3,0.8-2.5,1.5-3.8,2.2l-0.7,0.7c-3,6-6.1,12.1-9.6,17.9l2.2,13.5L51.2,76.4L4.5,78.9z"/>
	</g>
</g>
</svg>
