<?xml version="1.0" encoding="utf-8"?>
<!-- Generator: Adobe Illustrator 23.0.6, SVG Export Plug-In . SVG Version: 6.00 Build 0)  -->
<svg version="1.1" id="Layer_1" xmlns="http://www.w3.org/2000/svg" xmlns:xlink="http://www.w3.org/1999/xlink" x="0px" y="0px"
	 viewBox="0 0 147.1 91.7" style="enable-background:new 0 0 147.1 91.7;" xml:space="preserve">
<style type="text/css">
	.st0{fill:#FFFFFF;}
</style>
<title>Asset 133</title>
<g>
	<g id="_Layer_">
		<path class="st0" d="M12.7,53.5H13l49.7-26c0.1-0.1,0.2-0.2,0.2-0.4l-0.3,0.1l0.3-0.1L54,0.4l-0.2-0.2h-0.3L0.3,24
			c-0.1,0.1-0.2,0.2-0.2,0.4l0,0l12.3,28.9L12.7,53.5z M53.6,0.9L62.1,27L13,52.7L0.9,24.4L53.6,0.9z"/>
		<path class="st0" d="M79.5,91.4c0.1,0.1,0.2,0.3,0.3,0.3c0.1,0,0.3,0,0.4-0.1l66.7-47.9c0.2-0.1,0.2-0.3,0.2-0.5l-0.5,0.1l0.5-0.1
			l-8.4-42c0-0.1-0.1-0.3-0.3-0.3c-0.1-0.1-0.3-0.1-0.4,0L63.7,43.1c-0.2,0.1-0.3,0.3-0.2,0.6L79.5,91.4L79.5,91.4z M137.9,2.1
			l8.2,41.1L80.2,90.5L64.5,43.7L137.9,2.1z"/>
		<path class="st0" d="M12.4,53.3c0,0.1,0.1,0.2,0.2,0.2l67.1,38.1c0.2,0.1,0.4,0.1,0.5,0c0.1-0.1,0.2-0.3,0.1-0.5l-0.4,0.2l0.4-0.2
			l-16-47.7c0-0.1-0.2-0.3-0.3-0.3L0.6,23.8c-0.2,0-0.4,0-0.5,0.2C0,24.1,0,24.3,0,24.5l0,0L12.4,53.3z M63.5,43.9l15.5,46.3
			L13.2,52.8L1.3,25L63.5,43.9z"/>
		<path class="st0" d="M62.1,27.3c0.1,0.2,0.2,0.3,0.4,0.3l84.1,16.3c0.2,0,0.3,0,0.4-0.1c0.1-0.1,0.2-0.3,0.1-0.4l-8.4-42
			c0-0.2-0.2-0.4-0.5-0.4L53.8,0c-0.2,0-0.3,0.1-0.4,0.2c-0.1,0.1-0.1,0.3-0.1,0.4L62.1,27.3L62.1,27.3z M137.8,1.8l8.2,40.9
			L62.9,26.7L54.4,1L137.8,1.8z"/>
	</g>
</g>
</svg>
