<?xml version="1.0" encoding="utf-8"?>
<!-- Generator: Adobe Illustrator 23.0.6, SVG Export Plug-In . SVG Version: 6.00 Build 0)  -->
<svg version="1.1" id="Layer_1" xmlns="http://www.w3.org/2000/svg" xmlns:xlink="http://www.w3.org/1999/xlink" x="0px" y="0px"
	 viewBox="0 0 209.1 146.8" style="enable-background:new 0 0 209.1 146.8;" xml:space="preserve">
<style type="text/css">
	.st0{fill-rule:evenodd;clip-rule:evenodd;fill:#FFFFFF;}
</style>
<title>Asset 142</title>
<g>
	<g id="_Layer_">
		<polygon class="st0" points="117.7,77.2 136,85.6 144.1,67.4 		"/>
		<path class="st0" d="M116,77.2l20.4,9.3l9.1-20.3L116,77.2z M136,85.6l-18.2-8.3l26.4-9.8L136,85.6z"/>
		<path class="st0" d="M121.3,0l-8.9,19.6l-0.6,8.3l-33.5,73.3l-49.6,18.5l-0.1,0.1l-0.1,0.1l-8.7,19.1L0,146.2l0.2,0.6l23-8.6
			l0.2-0.4l-0.2,0.4l3.5-1.3l0.2-0.4l-0.2,0.4l3.5-1.3l0.2-0.4l-0.2,0.4l3.5-1.3L34,134l-0.2,0.4l3.5-1.4l0.2-0.4l-0.2,0.4l3.5-1.3
			l0.2-0.4l-0.2,0.4l3.5-1.3l0.2-0.4l-0.2,0.4l0.4-0.2l0.7-1.4h-0.1l6.8-14.8l25.1-9.4h0.1l0.1-0.1L85.5,87l0.1,0.2l26.3-9.8v0.1
			l55.4,25.3l0,0l4.4,6.2l1.2,0.6l-4.4-6.3l2.6,1.2l4.4,6.3l1.2,0.6l-4.4-6.3l2.4,1.1l4.4,6.3l1.2,0.6l-4.4-6.3l2.2,1l4.5,6.3
			l1.2,0.6l-4.4-6.3l2.7,1.2l4,5.6l0.1,0.1h0.1l21.4,9.9l0.3-0.6l-21.5-9.8L183,110l25.9,11.8l0.1-0.3l-97.1-44.3l97.1,44.4l0.1-0.3
			l-96.6-44.1l71.1-26.5l-0.2-0.6L85.8,86.4l38.8-84.9L121.3,0z M23.2,137.6l-2.6,0.9l7-15.4l2.6-1L23.2,137.6z M26.7,136.3l-2.6,1
			l7-15.4l2.6-1L26.7,136.3z M30.2,135l-2.6,1l7-15.4l2.7-1L30.2,135z M33.8,133.7l-2.6,1l7-15.4l2.7-1L33.8,133.7z M37.3,132.4
			l-2.7,1l7-15.4l2.6-1L37.3,132.4z M40.8,131l-2.7,1l7-15.4l2.7-1L40.8,131z M44.3,129.7l-2.7,1l7-15.4l2.6-1L44.3,129.7z"/>
		<polygon class="st0" points="88.7,83.8 108.8,76.3 94.9,69.9 		"/>
	</g>
</g>
</svg>
