<?xml version="1.0" encoding="utf-8"?>
<!-- Generator: Adobe Illustrator 23.0.6, SVG Export Plug-In . SVG Version: 6.00 Build 0)  -->
<svg version="1.1" id="Layer_1" xmlns="http://www.w3.org/2000/svg" xmlns:xlink="http://www.w3.org/1999/xlink" x="0px" y="0px"
	 viewBox="0 0 220.6 72.9" style="enable-background:new 0 0 220.6 72.9;" xml:space="preserve">
<style type="text/css">
	.st0{fill-rule:evenodd;clip-rule:evenodd;fill:#FFFFFF;}
</style>
<title>Asset 144</title>
<g>
	<g id="_Layer_">
		<polygon class="st0" points="51.5,29.6 117.4,4.9 56.4,21 		"/>
		<polygon class="st0" points="34.3,60 92,44.6 81,42.4 		"/>
		<polygon class="st0" points="117.3,3.9 117,2.7 55.4,19.1 55.2,19.1 55.1,19.4 30.4,61.9 0,69.9 0.3,71.1 31.1,63 31.2,62.9 
			55.2,56.7 55.1,57 113.8,72.9 114.2,71.7 56.9,56.2 91.9,47 156.7,64.6 156.9,64.6 157.1,64.6 220.6,47.7 220.3,46.5 156.9,63.3 
			94.3,46.4 203.3,17.8 203,16.6 125.4,37 136.8,17.4 197.8,1.2 197.5,0 136.2,16.3 135.9,16.3 135.8,16.5 123.8,37.2 124,37.3 
			32,61.5 56,20.2 		"/>
		<polygon class="st0" points="132.4,26.6 198.4,2 137.4,18 		"/>
		<polygon class="st0" points="60.5,56.2 114.5,70.8 74.6,52.6 		"/>
		<polygon class="st0" points="98,46.5 157.2,62.2 171.3,58.4 		"/>
	</g>
</g>
</svg>
