<?xml version="1.0" encoding="utf-8"?>
<!-- Generator: Adobe Illustrator 23.0.6, SVG Export Plug-In . SVG Version: 6.00 Build 0)  -->
<svg version="1.1" id="Layer_1" xmlns="http://www.w3.org/2000/svg" xmlns:xlink="http://www.w3.org/1999/xlink" x="0px" y="0px"
	 viewBox="0 0 168.5 75.3" style="enable-background:new 0 0 168.5 75.3;" xml:space="preserve">
<style type="text/css">
	.st0{fill:#FFFFFF;}
</style>
<title>Asset 153</title>
<g>
	<g id="_Layer_">
		<path class="st0" d="M73.1,57.6H0v2.8h89.6c1.4,0.2,2.7-0.9,2.8-2.3c0.1-0.5,0-1-0.2-1.4L72.3,2.3c-0.7-2-1.2-1.9-0.9,0.2
			l5.3,51.2c0.2,1.9-1.1,3.7-3,3.9C73.4,57.6,73.3,57.7,73.1,57.6z"/>
		<path class="st0" d="M93.5,62.6H0v2.8h110.7c2.2,0,3-1.5,1.9-3.4L76.4,1.8C75.3,0,75,0.1,75.7,2.2l20.4,56.8
			c0.6,1.3,0.1,2.8-1.2,3.5C94.5,62.6,94,62.7,93.5,62.6z"/>
		<path class="st0" d="M115.5,67.6H0v2.8h137c2.2,0,2.8-1.3,1.4-3l-57.7-66c-1.5-1.6-1.7-1.4-0.6,0.5l37.3,62.4
			C118.5,66,117.6,67.6,115.5,67.6z"/>
		<path class="st0" d="M143,72.5H0v2.8h166.5c2.2,0,2.6-1.2,1-2.6L84.8,1c-1.6-1.4-1.8-1.3-0.4,0.4l60,68.2
			C145.8,71.2,145.2,72.5,143,72.5z"/>
	</g>
</g>
</svg>
