<?xml version="1.0" encoding="utf-8"?>
<!-- Generator: Adobe Illustrator 23.0.6, SVG Export Plug-In . SVG Version: 6.00 Build 0)  -->
<svg version="1.1" id="Layer_1" xmlns="http://www.w3.org/2000/svg" xmlns:xlink="http://www.w3.org/1999/xlink" x="0px" y="0px"
	 viewBox="0 0 220.9 151.1" style="enable-background:new 0 0 220.9 151.1;" xml:space="preserve">
<style type="text/css">
	.st0{fill:#FFFFFF;}
</style>
<title>Asset 143</title>
<g>
	<g id="_Layer_">
		<polygon class="st0" points="159.3,38.8 86.4,116.7 82.6,117.9 51.3,151.1 55.9,150.1 160,38.7 		"/>
		<polygon class="st0" points="80.5,22.5 49.5,55.6 47.9,56.1 34.6,70.2 36.6,69.8 80.8,22.5 		"/>
		<polygon class="st0" points="107.1,95.5 103,124.3 102.3,125.2 100.5,137.4 101.4,136.5 107.3,95.4 		"/>
		<polygon class="st0" points="44.2,31 18.5,17.2 17.9,16.3 7,10.4 7.6,11.6 44.2,31.2 		"/>
		<polygon class="st0" points="118.8,80.5 157.5,39.1 91.8,53.3 91.9,54.1 152.8,41 118.1,77.4 		"/>
		<polygon class="st0" points="220.9,20 220.1,19.6 110.6,43.1 106.8,49 176.7,34 180,28.8 		"/>
		<polygon class="st0" points="118.3,26.3 118,24.8 91.8,10.6 88.3,11.3 138.2,37.8 139.4,37.8 		"/>
		
			<rect x="88.6" y="53.5" transform="matrix(0.9775 -0.2108 0.2108 0.9775 -9.4237 20.0509)" class="st0" width="1.4" height="1.4"/>
		<rect x="86.6" y="54" transform="matrix(0.9777 -0.2101 0.2101 0.9777 -9.5373 19.5589)" class="st0" width="1.4" height="1.4"/>
		
			<rect x="84.6" y="54.4" transform="matrix(0.9779 -0.2089 0.2089 0.9779 -9.6229 19.0448)" class="st0" width="1.4" height="1.4"/>
		<rect x="4.1" y="39.2" transform="matrix(0.9777 -0.21 0.21 0.9777 -8.2789 1.9022)" class="st0" width="1.4" height="1.4"/>
		<rect x="2.1" y="39.7" transform="matrix(0.977 -0.213 0.213 0.977 -8.5392 1.5138)" class="st0" width="1.4" height="1.4"/>
		<rect x="0.1" y="40.1" transform="matrix(0.9772 -0.2125 0.2125 0.9772 -8.6538 1.1071)" class="st0" width="1.4" height="1.4"/>
		<polygon class="st0" points="133.4,38.7 136.9,38.1 92.7,15 72.3,19.4 68.1,26 6.9,39.2 7.7,39.6 97.6,20.2 		"/>
		<polygon class="st0" points="82.6,12.4 80.6,12.8 59,0 58.1,0.2 86.7,17.3 90.3,17.2 		"/>
		<polygon class="st0" points="189.5,23.9 161.6,29.9 158,27.6 133.3,32.9 138.9,35.7 190.6,24.6 		"/>
		
			<rect x="143.7" y="35.1" transform="matrix(0.5411 -0.8409 0.8409 0.5411 35.9724 138.5144)" class="st0" width="2.4" height="2.4"/>
		
			<rect x="140.6" y="33.1" transform="matrix(0.5411 -0.8409 0.8409 0.5411 36.2176 134.9784)" class="st0" width="2.4" height="2.4"/>
		
			<rect x="137.6" y="31.2" transform="matrix(0.5395 -0.842 0.842 0.5395 36.6594 131.7168)" class="st0" width="2.4" height="2.4"/>
	</g>
</g>
</svg>
