<?xml version="1.0" encoding="utf-8"?>
<!-- Generator: Adobe Illustrator 23.0.6, SVG Export Plug-In . SVG Version: 6.00 Build 0)  -->
<svg version="1.1" id="Layer_1" xmlns="http://www.w3.org/2000/svg" xmlns:xlink="http://www.w3.org/1999/xlink" x="0px" y="0px"
	 viewBox="0 0 79 141.6" style="enable-background:new 0 0 79 141.6;" xml:space="preserve">
<style type="text/css">
	.st0{fill:#FFFFFF;}
</style>
<title>Asset 155</title>
<g>
	<g id="_Layer_">
		<path class="st0" d="M51.9,47.5C51.9,31.8,79,23.7,79,23.7V0C41.8,15.8,41.7,35.1,41.6,47.5l0.2,94.1l5.1-5.5l-0.1-45.2l5.2-6.2
			L51.9,47.5z"/>
		<path class="st0" d="M62.5,85.1V54.3c0.8-6.5,8.4-11.8,16.3-13.8v-13c0,0-22.3,7.6-22.3,19.2v38.4l-5.2,5.8v42.8l4.7-4.2V92
			L62.5,85.1z"/>
		<path class="st0" d="M70.9,86.1V55.9c0-2.5,3.1-5.9,8.1-6.9v-5c0,0-11.7,3.3-11.7,12v30l-6.7,6.7V127l3.3-3V93.2L70.9,86.1z"/>
		<path class="st0" d="M37.2,141.6l0.2-94.1C37.2,35.1,37.2,15.8,0,0v23.8c0,0,27,8.1,27,23.8v37.1l5.2,6.2l-0.1,45.2L37.2,141.6z"
			/>
		<path class="st0" d="M0.2,27.5v13c7.9,1.9,15.5,7.2,16.3,13.8v30.9L23,92v37.5l4.6,4.1V90.8l-5.2-5.8V46.7
			C22.4,35.1,0.2,27.5,0.2,27.5z"/>
		<path class="st0" d="M0,44v5c5,0.9,8.1,4.4,8.1,6.8V86l7.1,7.2V124l3.3,3V92.7L11.7,86V56C11.7,47.3,0,44,0,44z"/>
	</g>
</g>
</svg>
