<?xml version="1.0" encoding="utf-8"?>
<!-- Generator: Adobe Illustrator 23.0.6, SVG Export Plug-In . SVG Version: 6.00 Build 0)  -->
<svg version="1.1" id="Layer_1" xmlns="http://www.w3.org/2000/svg" xmlns:xlink="http://www.w3.org/1999/xlink" x="0px" y="0px"
	 viewBox="0 0 88 138" style="enable-background:new 0 0 88 138;" xml:space="preserve">
<style type="text/css">
	.st0{fill:#FFFFFF;}
</style>
<title>Asset 156</title>
<g>
	<g id="_Layer_">
		<path class="st0" d="M37.8,105.6c1.9,0.8,4,1.3,6.2,1.2c2.1,0,4.2-0.4,6.2-1.2c2.1-0.9,3.8-2.5,4.9-4.4c1.1-1.9,1.6-4,1.7-6.1
			c0.1-2.3-0.2-4.6-0.8-6.9c-1.2-4.8-3.7-10.5-7.5-17.1L44,63.1L39.5,71c-3.8,6.6-6.3,12.4-7.5,17.1c-0.6,2.2-0.9,4.5-0.8,6.8
			c0,2.2,0.6,4.3,1.7,6.2C34,103.1,35.8,104.7,37.8,105.6z M44,73.6c11.2,19.6,9,28,0,28S32.8,93.2,44,73.6L44,73.6z"/>
		<path class="st0" d="M33.5,115c3.3,1.5,6.9,2.2,10.5,2.2c3.6,0,7.2-0.7,10.5-2.2c4-1.8,7.4-4.9,9.6-8.7c3.3-5.7,4-12.7,2-20.8
			c-1.4-5.7-4.2-12.2-8.5-19.8L44,42L30.5,65.8c-4.3,7.6-7.1,14-8.5,19.8c-2,8.1-1.3,15,2,20.8C26.2,110.2,29.5,113.2,33.5,115z
			 M27,86.9c1.3-5.3,3.9-11.3,8-18.4l9-15.9l9,15.9c4.1,7.1,6.7,13.2,8,18.4c1.7,6.7,1.2,12.4-1.4,16.9c-1.7,2.9-4.2,5.2-7.3,6.6
			c-2.6,1.2-5.5,1.7-8.3,1.7c-2.9,0-5.7-0.5-8.3-1.7c-3-1.4-5.6-3.7-7.3-6.6C25.8,99.2,25.3,93.6,27,86.9z"/>
		<path class="st0" d="M29.2,124.5c4.7,2.1,9.7,3.2,14.8,3.1c5.1,0,10.2-1,14.8-3.1c6-2.7,11-7.2,14.3-12.9
			c2.8-4.8,4.3-10.2,4.5-15.8c0.1-4.3-0.3-8.6-1.4-12.7c-1.7-6.7-4.8-14-9.6-22.4L44,21L21.4,60.7c-4.8,8.4-7.9,15.7-9.6,22.4
			c-1.1,4.2-1.5,8.4-1.4,12.7c0.2,5.5,1.7,11,4.5,15.8C18.2,117.3,23.2,121.8,29.2,124.5z M16.9,84.4c1.5-6.2,4.5-13.1,9-21.1
			L44,31.5l18.1,31.7c4.5,8,7.5,14.9,9,21.1c1,3.7,1.4,7.5,1.3,11.3c-0.1,4.7-1.4,9.3-3.8,13.4c-2.8,4.7-6.9,8.5-11.9,10.8
			c-4,1.8-8.3,2.7-12.7,2.6c-4.4,0-8.7-0.9-12.7-2.6c-5-2.3-9.2-6-11.9-10.8c-2.3-4.1-3.6-8.7-3.8-13.4C15.5,91.8,15.9,88,16.9,84.4
			z"/>
		<path class="st0" d="M5.9,116.8c4.4,7.6,11,13.6,18.9,17.2c6,2.7,12.5,4.1,19.1,4c6.6,0.1,13.2-1.3,19.2-4
			c7.9-3.6,14.6-9.6,18.9-17.1c2-3.4,3.4-7,4.4-10.8c0.8-3.2,1.3-6.5,1.5-9.8c0.2-5.3-0.4-10.5-1.7-15.7c-1.9-7.6-5.4-15.8-10.6-25
			L44,0L12.4,55.6C7.1,64.8,3.6,73,1.8,80.6C0.4,85.7-0.2,91,0,96.2c0.1,3.3,0.6,6.6,1.5,9.8C2.5,109.8,4,113.5,5.9,116.8z
			 M6.8,81.8c1.8-7.2,5.1-14.9,10.1-23.7L44,10.5l27.1,47.6c5,8.8,8.3,16.6,10.1,23.7c1.2,4.6,1.7,9.4,1.6,14.2
			c-0.2,6.4-2,12.6-5.2,18.2c-3.8,6.6-9.7,11.8-16.6,15c-5.3,2.4-11.1,3.6-17,3.6c-5.9,0-11.7-1.2-17-3.6c-7-3.2-12.8-8.4-16.6-15
			c-3.2-5.5-5-11.8-5.2-18.2C5.1,91.2,5.6,86.5,6.8,81.8L6.8,81.8z"/>
	</g>
</g>
</svg>
