<?xml version="1.0" encoding="utf-8"?>
<!-- Generator: Adobe Illustrator 23.0.6, SVG Export Plug-In . SVG Version: 6.00 Build 0)  -->
<svg version="1.1" id="Layer_1" xmlns="http://www.w3.org/2000/svg" xmlns:xlink="http://www.w3.org/1999/xlink" x="0px" y="0px"
	 viewBox="0 0 260.8 66.4" style="enable-background:new 0 0 260.8 66.4;" xml:space="preserve">
<style type="text/css">
	.st0{fill:#FFFFFF;}
</style>
<title>Asset 157</title>
<g>
	<g id="_Layer_">
		<path class="st0" d="M33.2,25.7c2,0,3.9,0.8,5.3,2.2c1.4,1.4,2.2,3.3,2.2,5.3v4.5l25.7-0.1v-4.5C66.3,14.8,51.4,0,33.1,0
			S-0.1,14.9,0,33.3c0,18.3,14.9,33.2,33.3,33.1l0,0l227.5-0.8L235,40h-7.9L33.2,40.7c-4.1,0.3-7.7-2.8-8-7c-0.3-4.1,2.8-7.7,7-8
			C32.5,25.7,32.8,25.7,33.2,25.7L33.2,25.7z"/>
	</g>
</g>
</svg>
