<?xml version="1.0" encoding="utf-8"?>
<!-- Generator: Adobe Illustrator 23.0.6, SVG Export Plug-In . SVG Version: 6.00 Build 0)  -->
<svg version="1.1" id="Layer_1" xmlns="http://www.w3.org/2000/svg" xmlns:xlink="http://www.w3.org/1999/xlink" x="0px" y="0px"
	 viewBox="0 0 102.7 70.4" style="enable-background:new 0 0 102.7 70.4;" xml:space="preserve">
<style type="text/css">
	.st0{fill:#FFFFFF;}
</style>
<title>Asset 158</title>
<g>
	<g id="_Layer_">
		<path class="st0" d="M35.2,43.3c0.9,0.1,1.7,0.6,2.2,1.4l3.9,7.5c0.5,0.8,1.2,1.4,2.1,1.7l57.9,16.5c0.6,0.2,1.2-0.1,1.4-0.6
			c0.1-0.1,0.1-0.3,0.1-0.4V44.5c0-0.8-0.6-1.5-1.5-1.6l-57.6-3.7c-1-0.1-1.9-0.3-2.8-0.7L38,37.4c-0.9-0.3-1.9-0.5-2.8-0.6
			L1.5,36.4c-0.8-0.1-1.4,0.5-1.5,1.3c0,0,0,0,0,0v2.5c0.1,0.8,0.7,1.4,1.5,1.4L35.2,43.3z"/>
		<path class="st0" d="M1.5,30.7l33.7-1.3c0.9-0.1,1.8-0.5,2.4-1.2l3.9-5.1c0.6-0.7,1.4-1.2,2.3-1.5l57.5-12
			c0.8-0.2,1.4-0.9,1.4-1.8V1.1c0-0.6-0.4-1.1-1-1.1c-0.2,0-0.3,0-0.4,0.1L43.8,16.5c-0.9,0.3-1.7,0.9-2.2,1.7l-4.3,7.6
			c-0.5,0.8-1.3,1.3-2.2,1.4L1.5,28.9C0.7,29,0,29.2,0,29.4v0.9C0,30.6,0.7,30.7,1.5,30.7z"/>
		<path class="st0" d="M35.2,34.2c1,0,1.9-0.2,2.9-0.5l2.8-0.9c0.9-0.3,1.9-0.4,2.9-0.5l57.5-2.8c0.8-0.1,1.5-0.7,1.5-1.5v-6.7
			c0-0.7-0.5-1.3-1.2-1.3c-0.1,0-0.2,0-0.2,0l-57.5,7.2c-0.9,0.2-1.8,0.5-2.6,1.1l-3.3,2.6c-0.8,0.6-1.7,0.9-2.6,1L1.5,32.7
			c-0.8,0-1.5,0.2-1.5,0.5V34c0,0.3,0.7,0.4,1.5,0.4L35.2,34.2z"/>
	</g>
</g>
</svg>
