<?xml version="1.0" encoding="utf-8"?>
<!-- Generator: Adobe Illustrator 23.0.6, SVG Export Plug-In . SVG Version: 6.00 Build 0)  -->
<svg version="1.1" id="Layer_1" xmlns="http://www.w3.org/2000/svg" xmlns:xlink="http://www.w3.org/1999/xlink" x="0px" y="0px"
	 viewBox="0 0 85 82.5" style="enable-background:new 0 0 85 82.5;" xml:space="preserve">
<style type="text/css">
	.st0{fill:#FFFFFF;}
</style>
<title>Asset 136</title>
<g>
	<g id="_Layer_">
		<path class="st0" d="M1.7,82.4L1.7,82.4l39.9-1.9l0.2-0.1l0-0.2l-4.2-24.5c0-0.1-0.1-0.2-0.2-0.2l0,0L0.3,55.2l-0.2,0.1l-0.1,0.2
			l1.4,26.7C1.5,82.3,1.6,82.4,1.7,82.4z M0.6,55.7l36.7,0.3L41.4,80L2,81.9L0.6,55.7z"/>
		<path class="st0" d="M21.1,39.4l63.5,2.7l0,0c0.1,0,0.2,0,0.3-0.1c0-0.1,0-0.2,0-0.3L73.5,7.3c0-0.1-0.1-0.2-0.3-0.2v0.3V7.1
			L16.4,0c-0.1,0-0.2,0-0.3,0.1C16,0.2,16,0.3,16,0.4l4.9,38.8C20.9,39.3,21,39.4,21.1,39.4z M16.7,0.7l56.2,7l11.3,33.8l-62.7-2.7
			L16.7,0.7z"/>
		<path class="st0" d="M41.5,80.6h0.1l0.2-0.1l43-38.4C85,42,85,41.8,85,41.7L73.5,7.3C73.4,7.1,73.2,7,73,7.1
			c-0.1,0-0.1,0.1-0.2,0.1L37.2,55.5l-0.1,0.3l4.2,24.5C41.3,80.4,41.4,80.5,41.5,80.6z M37.8,55.8L73,8.1l11.2,33.6L41.9,79.6
			L37.8,55.8z"/>
		<path class="st0" d="M1.7,82.5L1.7,82.5c0.2,0,0.3-0.1,0.4-0.2l19.4-43v-0.2h-0.3h0.3L16.6,0.3c0-0.2-0.1-0.3-0.3-0.3
			C16.2,0,16,0.1,16,0.2L0,55.4v0.1l1.4,26.7C1.4,82.3,1.5,82.4,1.7,82.5z M0.7,55.5L16.2,2l4.6,37.1L2,80.8L0.7,55.5z"/>
	</g>
</g>
</svg>
