<?xml version="1.0" encoding="utf-8"?>
<!-- Generator: Adobe Illustrator 23.0.6, SVG Export Plug-In . SVG Version: 6.00 Build 0)  -->
<svg version="1.1" id="Layer_1" xmlns="http://www.w3.org/2000/svg" xmlns:xlink="http://www.w3.org/1999/xlink" x="0px" y="0px"
	 viewBox="0 0 423.2 45.6" style="enable-background:new 0 0 423.2 45.6;" xml:space="preserve">
<style type="text/css">
	.st0{fill:#FFFFFF;}
</style>
<title>Asset 159</title>
<g>
	<g id="_Layer_">
		<polygon class="st0" points="384.5,28.9 4.3,28.9 0,30.4 152.7,30.4 151.2,31.7 193.4,31.7 194.3,30.9 230.8,30.9 228.2,33.1 
			269.5,33.1 272.3,30.8 307.8,30.8 302.8,35.8 345.3,35.8 350.8,30.4 384.5,30.4 384.5,30.6 384.5,38.7 4.9,38.7 0.6,40.2 
			191.4,40.2 189.9,41.6 232,41.6 233,40.7 269.5,40.7 266.9,42.9 308.2,42.9 311,40.6 346.4,40.6 341.4,45.6 384,45.6 389.4,40.2 
			423.2,40.2 423.2,0 384.5,0 4.3,0 0,1.5 152.7,1.5 151.2,2.9 193.4,2.9 194.3,2 230.8,2 228.2,4.2 269.5,4.2 272.3,1.9 307.8,1.9 
			302.8,7 345.3,7 350.8,1.5 384.5,1.5 384.5,1.8 384.5,9.6 4.3,9.6 0,11.1 152.7,11.1 151.2,12.5 193.4,12.5 194.3,11.6 
			230.8,11.6 228.2,13.8 269.5,13.8 272.3,11.5 307.8,11.5 302.8,16.6 345.3,16.6 350.8,11.1 384.5,11.1 384.5,11.4 384.5,19.2 
			4.3,19.2 0,20.8 152.7,20.8 151.2,22.1 193.4,22.1 194.3,21.3 230.8,21.3 228.2,23.5 269.5,23.5 272.3,21.1 307.8,21.1 
			302.8,26.2 345.3,26.2 350.8,20.8 384.5,20.8 384.5,21 		"/>
	</g>
</g>
</svg>
