<?xml version="1.0" encoding="utf-8"?>
<!-- Generator: Adobe Illustrator 23.0.6, SVG Export Plug-In . SVG Version: 6.00 Build 0)  -->
<svg version="1.1" id="Layer_1" xmlns="http://www.w3.org/2000/svg" xmlns:xlink="http://www.w3.org/1999/xlink" x="0px" y="0px"
	 viewBox="0 0 96.3 140.9" style="enable-background:new 0 0 96.3 140.9;" xml:space="preserve">
<style type="text/css">
	.st0{fill:#FFFFFF;}
</style>
<title>Asset 160</title>
<g>
	<g id="_Layer_">
		<path class="st0" d="M1,14.3l-1,96l0,0c0.1,16.9,13.7,30.5,30.6,30.6h35.1c16.9-0.1,30.5-13.7,30.6-30.6V0h-4.1v110.3l0,0
			c-0.1,14.6-11.9,26.5-26.5,26.5H30.6C16,136.8,4.1,124.9,4.1,110.3l0.4-96L1,14.3z"/>
		<path class="st0" d="M24.5,45.3v65c0,3.4,2.8,6.1,6.1,6.1h35.1c3.4,0,6.1-2.7,6.1-6.1V51.8h-4.1v58.5c0,1.1-0.9,2-2,2H30.6
			c-1.1,0-2-0.9-2-2v-65L24.5,45.3z"/>
		<polygon class="st0" points="32.7,69.8 32.7,108.2 63.7,108.2 63.7,26.7 59.6,26.7 59.6,104.2 36.7,104.2 36.7,69.8 		"/>
		<path class="st0" d="M65.7,124.6c7.9,0,14.3-6.4,14.3-14.3V13.5h-4.1v96.8c0,5.6-4.6,10.2-10.2,10.2H30.6
			c-5.6,0-10.2-4.6-10.2-10.2V70.8h-4.1v39.5c0,7.9,6.4,14.3,14.3,14.3L65.7,124.6z"/>
		<path class="st0" d="M8.2,27.5v82.8c0,12.4,10.1,22.4,22.4,22.4h35.1c12.4,0,22.4-10.1,22.5-22.4l0,0V20.8h-4.1v89.5l0,0
			c0,10.1-8.2,18.3-18.4,18.4H30.6c-10.1,0-18.3-8.2-18.4-18.4V27.5H8.2z"/>
	</g>
</g>
</svg>
