<?xml version="1.0" encoding="utf-8"?>
<!-- Generator: Adobe Illustrator 23.0.6, SVG Export Plug-In . SVG Version: 6.00 Build 0)  -->
<svg version="1.1" id="Layer_1" xmlns="http://www.w3.org/2000/svg" xmlns:xlink="http://www.w3.org/1999/xlink" x="0px" y="0px"
	 viewBox="0 0 1256 977" style="enable-background:new 0 0 1256 977;" xml:space="preserve">
<style type="text/css">
	.st0{fill:#FFFFFF;}
</style>
<g>
	<g>
		<path class="st0" d="M603,487l-62.3,62.3V487H603z"/>
		<path class="st0" d="M850,449L667,632h-68.6l183-183H850z"/>
		<path class="st0" d="M851.3,401l23.7,23.7l-23.7,23.7l-23.7-23.7L851.3,401z"/>
		<path class="st0" d="M881,565v14.2L866.8,565H881z"/>
		<path class="st0" d="M778.7,638L941,800.3H681.2L518.9,638H778.7z"/>
		<path class="st0" d="M626,751v32.7L593.3,751H626z"/>
		<path class="st0" d="M565.9,717l44.1,44.1v110.2l-44.1-44.1V717z"/>
		<path class="st0" d="M617,487l62.3,62.3V487H617z"/>
		<path class="st0" d="M370,449l183,183h68.6l-183-183H370z"/>
		<path class="st0" d="M368.7,401L345,424.7l23.7,23.7l23.7-23.7L368.7,401z"/>
		<path class="st0" d="M339,565v14.2l14.2-14.2H339z"/>
		<path class="st0" d="M441.3,638L279,800.3h259.8L701.1,638H441.3z"/>
		<path class="st0" d="M594,751v32.7l32.7-32.7H594z"/>
		<path class="st0" d="M654.1,717L610,761.1v110.2l44.1-44.1V717z"/>
	</g>
</g>
</svg>
