<?xml version="1.0" encoding="utf-8"?>
<!-- Generator: Adobe Illustrator 23.0.6, SVG Export Plug-In . SVG Version: 6.00 Build 0)  -->
<svg version="1.1" id="Layer_1" xmlns="http://www.w3.org/2000/svg" xmlns:xlink="http://www.w3.org/1999/xlink" x="0px" y="0px"
	 viewBox="0 0 414 552" style="enable-background:new 0 0 414 552;" xml:space="preserve">
<style type="text/css">
	.st0{fill:none;stroke:#FFFFFF;}
</style>
<path class="st0" d="M5,166.2l22.6,0"/>
<path class="st0" d="M27.6,165.9l27.6-0.2"/>
<path class="st0" d="M55.2,166.2l27.6-0.6"/>
<path class="st0" d="M82.8,167l27.6,0.4"/>
<path class="st0" d="M110.4,164.6l27.6,2.7"/>
<path class="st0" d="M138,165.1l27.6-1.6"/>
<path class="st0" d="M165.6,161.2l27.6,8.4"/>
<path class="st0" d="M193.2,168.3l27.6,3.1"/>
<path class="st0" d="M220.8,166.2l27.6-7.4"/>
<path class="st0" d="M248.4,162.7l17.4,6.5"/>
<path class="st0" d="M276,172.7l27.6-9.8"/>
<path class="st0" d="M303.6,163.9l27.6,0"/>
<path class="st0" d="M331.2,167l27.6-0.5"/>
<path class="st0" d="M358.8,166.9l27.6-1.7"/>
<path class="st0" d="M386.4,167.6l22.6-0.7"/>
<path class="st0" d="M5,175.2l22.6,0"/>
<path class="st0" d="M27.6,175.2l27.6-0.8"/>
<path class="st0" d="M55.2,175l27.6,0.2"/>
<path class="st0" d="M82.8,176l27.6-2.4"/>
<path class="st0" d="M110.4,173.6l27.6-0.4"/>
<path class="st0" d="M138,178.3l27.6-1.8"/>
<path class="st0" d="M165.6,178.3l27.6-4.1"/>
<path class="st0" d="M193.2,173l27.6,8.6"/>
<path class="st0" d="M220.8,173.2l27.6,3.2"/>
<path class="st0" d="M248.4,165.3L276,172"/>
<path class="st0" d="M276,176.8l27.6,3.2"/>
<path class="st0" d="M303.6,171.1l27.6,6.8"/>
<path class="st0" d="M331.2,174.9l27.6,1.9"/>
<path class="st0" d="M358.8,173.4l27.6,2.7"/>
<path class="st0" d="M386.4,175.6l22.6-0.8"/>
<path class="st0" d="M5,183.8l22.6-0.2"/>
<path class="st0" d="M27.6,183.9l27.6-0.2"/>
<path class="st0" d="M55.2,184.1l27.6-0.5"/>
<path class="st0" d="M82.8,183.9l27.6,1.2"/>
<path class="st0" d="M110.4,185l27.6-3.9"/>
<path class="st0" d="M138,182.2l27.6-0.1"/>
<path class="st0" d="M165.6,183.7l27.6,5.7"/>
<path class="st0" d="M193.2,180.7l27.6,5.4"/>
<path class="st0" d="M220.8,176.2l27.6,11.1"/>
<path class="st0" d="M248.4,189l27.6-11.5"/>
<path class="st0" d="M276,177.9l27.6,9.5"/>
<path class="st0" d="M303.6,185.8l27.6-2.7"/>
<path class="st0" d="M331.2,187l27.6-1.3"/>
<path class="st0" d="M358.8,183.7l27.6,1"/>
<path class="st0" d="M386.4,183.9l22.6,0.2"/>
<path class="st0" d="M5,192.8l22.6-0.2"/>
<path class="st0" d="M27.6,192.6l27.6,0"/>
<path class="st0" d="M55.2,193.2l27.6-0.8"/>
<path class="st0" d="M82.8,192.3l27.6,0.9"/>
<path class="st0" d="M110.4,192.6L138,196"/>
<path class="st0" d="M138,192.5l27.6-2.1"/>
<path class="st0" d="M165.6,196.6l27.6-5.1"/>
<path class="st0" d="M193.2,187.9l27.6,15.8"/>
<path class="st0" d="M220.8,194.8l27.6,7"/>
<path class="st0" d="M248.4,194.7l27.6-7"/>
<path class="st0" d="M276,186.7l27.6,2.5"/>
<path class="st0" d="M303.6,193.7l27.6-3.8"/>
<path class="st0" d="M331.2,191.7l27.6,0.1"/>
<path class="st0" d="M358.8,192.4l27.6-0.4"/>
<path class="st0" d="M386.4,191.7l22.6,0.5"/>
<path class="st0" d="M5,201.9l22.6-0.1"/>
<path class="st0" d="M27.6,201.9l27.6,0.3"/>
<path class="st0" d="M55.2,202.1l27.6,0.4"/>
<path class="st0" d="M82.8,200.8l27.6,1.1"/>
<path class="st0" d="M110.4,200.6l27.6,2.2"/>
<path class="st0" d="M138,200.8l27.6,5.2"/>
<path class="st0" d="M165.6,202.7l27.6-6.9"/>
<path class="st0" d="M193.2,200.5l27.6,4"/>
<path class="st0" d="M234.4,203l14,0.4"/>
<path class="st0" d="M265,207.4l11-0.4"/>
<path class="st0" d="M276,203.4l27.6-6"/>
<path class="st0" d="M303.6,200.2l27.6,4.4"/>
<path class="st0" d="M331.2,201.4l27.6,0.3"/>
<path class="st0" d="M358.8,199.9l27.6,1.2"/>
<path class="st0" d="M386.4,202.4l22.6-1.1"/>
<path class="st0" d="M5,210.5l22.6-0.2"/>
<path class="st0" d="M27.6,211l27.6,0.4"/>
<path class="st0" d="M55.2,211.5l27.6-1"/>
<path class="st0" d="M82.8,210.9l27.6,2.1"/>
<path class="st0" d="M110.4,208.6l27.6,4"/>
<path class="st0" d="M138,213.8l27.6-6.5"/>
<path class="st0" d="M171.8,216.8l20.4,2.4"/>
<path class="st0" d="M193.2,210.6l13.7,4.3"/>
<path class="st0" d="M220.8,199.3l27.6,8.2"/>
<path class="st0" d="M248.4,202.9l27.6,8.1"/>
<path class="st0" d="M276,212.6l27.6-2.5"/>
<path class="st0" d="M303.6,212.4l27.6-3.3"/>
<path class="st0" d="M331.2,210.6l27.6-0.6"/>
<path class="st0" d="M358.8,209.6l27.6,1.6"/>
<path class="st0" d="M386.4,210.3l22.6,0.3"/>
<path class="st0" d="M5,219.5l22.6,0.3"/>
<path class="st0" d="M27.6,219.6l27.6-0.2"/>
<path class="st0" d="M55.2,219.3l27.6,0.8"/>
<path class="st0" d="M82.8,218.6l27.6,0.3"/>
<path class="st0" d="M110.4,221.7l27.6-5"/>
<path class="st0" d="M138,218.9l27.6-0.3"/>
<path class="st0" d="M165.6,214.4l18.8,7.8"/>
<path class="st0" d="M193.2,225.2l27.6-19.8"/>
<path class="st0" d="M220.8,207.1l27.6,21"/>
<path class="st0" d="M248.4,229.5l27.6-10.1"/>
<path class="st0" d="M276,223l27.6-6.6"/>
<path class="st0" d="M303.6,220.5l27.6-1"/>
<path class="st0" d="M331.2,220.6l27.6-2.3"/>
<path class="st0" d="M358.8,220.5l27.6-1"/>
<path class="st0" d="M386.4,218.6l22.6,0.6"/>
<path class="st0" d="M5,228.3l22.6-0.3"/>
<path class="st0" d="M27.6,228.1l27.6,0.9"/>
<path class="st0" d="M55.2,228.4l27.6,1.4"/>
<path class="st0" d="M82.8,229.8l27.6-0.1"/>
<path class="st0" d="M110.4,226.8l27.6,3.6"/>
<path class="st0" d="M138,226.6l27.6,4"/>
<path class="st0" d="M165.6,230.6l27.6-11.8"/>
<path class="st0" d="M220.8,224.4l24.5,11.1"/>
<path class="st0" d="M276,225.8l27.6,1.2"/>
<path class="st0" d="M303.6,228.7l27.6-1.5"/>
<path class="st0" d="M331.2,227.2l27.6,0.1"/>
<path class="st0" d="M358.8,229.9l27.6-2.1"/>
<path class="st0" d="M386.4,228.3l22.6,0.4"/>
<path class="st0" d="M5,237.4l22.6-0.2"/>
<path class="st0" d="M27.6,237.7l27.6,0.1"/>
<path class="st0" d="M55.2,236.7l27.6,1.9"/>
<path class="st0" d="M82.8,236.6l27.6-0.2"/>
<path class="st0" d="M110.4,236.1l27.6,1.8"/>
<path class="st0" d="M138,234.4l27.6,0.1"/>
<path class="st0" d="M165.6,232.6l27.6,14.8"/>
<path class="st0" d="M193.2,236.9l27.6-12.5"/>
<path class="st0" d="M220.8,235.2l27.6,0.5"/>
<path class="st0" d="M248.4,232l27.6-1.1"/>
<path class="st0" d="M276,235.3l27.6-1.3"/>
<path class="st0" d="M303.6,236.9l27.6-1.2"/>
<path class="st0" d="M331.2,238.1l27.6-2.2"/>
<path class="st0" d="M358.8,236.7l27.6-0.1"/>
<path class="st0" d="M386.4,237.5l22.6,0"/>
<path class="st0" d="M5,246.1l22.6-0.2"/>
<path class="st0" d="M27.6,246.6l27.6-1.2"/>
<path class="st0" d="M55.2,245.5l27.6,0.9"/>
<path class="st0" d="M82.8,247.8l27.6-2.3"/>
<path class="st0" d="M110.4,245.3l27.6,5.3"/>
<path class="st0" d="M138,245.1l26.4,4.2"/>
<path class="st0" d="M165.6,240.4l23.1,10.3"/>
<path class="st0" d="M193.2,247.5l16.7,6.3"/>
<path class="st0" d="M220.8,242.4l27.6,9.7"/>
<path class="st0" d="M259.2,251.8l16.8-4.5"/>
<path class="st0" d="M276.3,251.8l27.3-6.1"/>
<path class="st0" d="M303.6,246.5l27.6-2.1"/>
<path class="st0" d="M331.2,245.1l27.6,1.9"/>
<path class="st0" d="M358.8,247.2l27.6-0.5"/>
<path class="st0" d="M386.4,246.7l22.6-0.3"/>
<path class="st0" d="M5,255.1l22.6-0.3"/>
<path class="st0" d="M27.6,255.3l27.6-0.7"/>
<path class="st0" d="M55.2,255.1l27.6-0.7"/>
<path class="st0" d="M82.8,254.2l27.6,1.8"/>
<path class="st0" d="M110.4,257l27.6-6.2"/>
<path class="st0" d="M138,258.3l27.6-9.4"/>
<path class="st0" d="M165.6,261.3l27.6-12.4"/>
<path class="st0" d="M196.2,261.7l24.6-13.4"/>
<path class="st0" d="M220.8,251.1l27.6,10"/>
<path class="st0" d="M248.4,249.9l27.6,5.7"/>
<path class="st0" d="M276,251.8l27.6,2.1"/>
<path class="st0" d="M303.6,257.3l27.6-4.5"/>
<path class="st0" d="M331.2,254.3l27.6-0.3"/>
<path class="st0" d="M358.8,254.3l27.6,0.4"/>
<path class="st0" d="M386.4,255.2L409,255"/>
<path class="st0" d="M5,264.2l22.6,0.3"/>
<path class="st0" d="M27.6,264.3l27.6-0.7"/>
<path class="st0" d="M55.2,263.6l27.6,0.6"/>
<path class="st0" d="M82.8,265.7l27.6,0.4"/>
<path class="st0" d="M110.4,263.6l27.6-2.1"/>
<path class="st0" d="M138,268.7l27.6,0.8"/>
<path class="st0" d="M165.6,269.3l27.6-1.4"/>
<path class="st0" d="M193.2,260.8l21.1,7"/>
<path class="st0" d="M220.8,259.9l19.8,6.4"/>
<path class="st0" d="M248.4,263.5l27.6-0.4"/>
<path class="st0" d="M276,265.1l27.6-4.5"/>
<path class="st0" d="M303.6,266.8l27.6-3.7"/>
<path class="st0" d="M331.2,266.1l27.6-2"/>
<path class="st0" d="M358.8,264.3l27.6-0.7"/>
<path class="st0" d="M386.4,264.7l22.6-0.4"/>
<path class="st0" d="M5,273.2l22.6,0"/>
<path class="st0" d="M27.6,273l27.6,0"/>
<path class="st0" d="M55.2,273.7l27.6,0.9"/>
<path class="st0" d="M82.8,272.9l27.6-0.2"/>
<path class="st0" d="M110.4,271.4l27.6,5.3"/>
<path class="st0" d="M138,272.8l27.6,2.5"/>
<path class="st0" d="M165.6,270.6l27.6,6.9"/>
<path class="st0" d="M195.8,279.7l25-15.6"/>
<path class="st0" d="M220.8,269l27.6-3.4"/>
<path class="st0" d="M248.4,264.6l27.6,9.6"/>
<path class="st0" d="M276,272.8l27.6-0.8"/>
<path class="st0" d="M303.6,270.7l27.6,1.1"/>
<path class="st0" d="M331.2,273.4l27.6,0.3"/>
<path class="st0" d="M358.8,273.2l27.6-0.9"/>
<path class="st0" d="M386.4,273.4L409,273"/>
<path class="st0" d="M5,282l22.6,0.1"/>
<path class="st0" d="M27.6,281.4l27.6-0.3"/>
<path class="st0" d="M55.2,281.6l27.6,0.1"/>
<path class="st0" d="M82.8,283.4l27.6-0.6"/>
<path class="st0" d="M110.4,282l27.6-1.5"/>
<path class="st0" d="M138,278.1l27.6,1.5"/>
<path class="st0" d="M165.6,285.8l27.6-6.3"/>
<path class="st0" d="M220.8,283.2l27.6-9.3"/>
<path class="st0" d="M248.4,273.3l27.6,3.8"/>
<path class="st0" d="M276,277.5l27.6,3.8"/>
<path class="st0" d="M303.6,280.8l27.6,3.3"/>
<path class="st0" d="M331.2,282.5l27.6-0.5"/>
<path class="st0" d="M358.8,281.5l27.6,0.2"/>
<path class="st0" d="M386.4,281.5l22.6,0.4"/>
<path class="st0" d="M5,290.8l22.6-0.4"/>
<path class="st0" d="M27.6,290.4l27.6,0.5"/>
<path class="st0" d="M55.2,290.1l27.6,1"/>
<path class="st0" d="M82.8,289.9l27.6,0.4"/>
<path class="st0" d="M110.4,290.9l27.6,3.7"/>
<path class="st0" d="M138,295.6l27.6-3.1"/>
<path class="st0" d="M165.6,288.4l27.6,5.3"/>
<path class="st0" d="M193.2,279.9l27.6-0.5"/>
<path class="st0" d="M220.8,288l27.6-3.3"/>
<path class="st0" d="M248.4,286l27.6,4.9"/>
<path class="st0" d="M276,290.6l27.6,3"/>
<path class="st0" d="M303.6,293.4l27.6-2.3"/>
<path class="st0" d="M331.2,291.9l27.6-1.6"/>
<path class="st0" d="M358.8,291.3l27.6-0.2"/>
<path class="st0" d="M386.4,291.1l22.6-0.4"/>
<path class="st0" d="M5,299.5l22.6,0.2"/>
<path class="st0" d="M27.6,299.3l27.6,1.2"/>
<path class="st0" d="M55.2,299l27.6,0"/>
<path class="st0" d="M82.8,301.1l27.6-2.7"/>
<path class="st0" d="M110.4,301l27.6,0.4"/>
<path class="st0" d="M138,298l27.6-3.4"/>
<path class="st0" d="M172.7,302.3l20.5-5.7"/>
<path class="st0" d="M193.2,296.8l27.6-6.8"/>
<path class="st0" d="M220.8,308.5l27.6-9.2"/>
<path class="st0" d="M248.4,303.1l27.6,1"/>
<path class="st0" d="M276,297.2l27.6-0.1"/>
<path class="st0" d="M303.6,303.1l27.6-5.5"/>
<path class="st0" d="M331.2,299.3l27.6,1.5"/>
<path class="st0" d="M358.8,300.4l27.6-1.3"/>
<path class="st0" d="M386.4,300l22.6-0.3"/>
<path class="st0" d="M5,308.5l22.6,0.5"/>
<path class="st0" d="M27.6,308.6l27.6,0.3"/>
<path class="st0" d="M55.2,308.3l27.6,1"/>
<path class="st0" d="M82.8,307.8l27.6,2.8"/>
<path class="st0" d="M110.4,307.2l27.6,1.4"/>
<path class="st0" d="M138,309.7l27.6-7"/>
<path class="st0" d="M165.6,301.9l27.6,2.4"/>
<path class="st0" d="M193.2,299.5l27.6,3.8"/>
<path class="st0" d="M220.8,313.8l27.6-10.3"/>
<path class="st0" d="M248.4,303.4l27.6,5.1"/>
<path class="st0" d="M276,307.5l27.6-1.4"/>
<path class="st0" d="M303.6,309.1l27.6-0.3"/>
<path class="st0" d="M331.2,307.1l27.6,0.5"/>
<path class="st0" d="M358.8,309.5l27.6-0.2"/>
<path class="st0" d="M386.4,309.2l22.6-0.7"/>
<path class="st0" d="M5,317.4l22.6,0.1"/>
<path class="st0" d="M27.6,318l27.6-0.8"/>
<path class="st0" d="M55.2,317.8l27.6-1.2"/>
<path class="st0" d="M82.8,315.9l27.6,1.6"/>
<path class="st0" d="M110.4,320.1l27.6,2"/>
<path class="st0" d="M138,313.2l27.1,7"/>
<path class="st0" d="M165.6,315.8l27.6,7.6"/>
<path class="st0" d="M193.2,315.6l27.6-8.1"/>
<path class="st0" d="M222.7,321.2l25.7-5"/>
<path class="st0" d="M248.4,315.1L276,320"/>
<path class="st0" d="M276,312.7l27.6,5.5"/>
<path class="st0" d="M303.6,319.4l27.6-3.4"/>
<path class="st0" d="M331.2,315.8l27.6,1.1"/>
<path class="st0" d="M358.8,317.1l27.6,0.9"/>
<path class="st0" d="M386.4,317.1l22.6,0.1"/>
<path class="st0" d="M5,326.3l22.6-0.2"/>
<path class="st0" d="M27.6,326.8l27.6,0.5"/>
<path class="st0" d="M55.2,326.8l27.6-1.8"/>
<path class="st0" d="M82.8,328.3l27.6-1.7"/>
<path class="st0" d="M110.4,323.7l27.6,3.2"/>
<path class="st0" d="M138,327.3l27.6-7.2"/>
<path class="st0" d="M165.6,319.6l27.6,13.1"/>
<path class="st0" d="M193.2,334.5l27.6-20.3"/>
<path class="st0" d="M220.8,321.4l27.6-0.8"/>
<path class="st0" d="M248.4,327.2l27.6,3.5"/>
<path class="st0" d="M276,326.8l27.6-2.4"/>
<path class="st0" d="M303.6,325.3l27.6,1"/>
<path class="st0" d="M331.2,325.5l27.6,1.7"/>
<path class="st0" d="M358.8,327.5l27.6-1.1"/>
<path class="st0" d="M386.4,326.4l22.6,0.2"/>
<path class="st0" d="M5,335.3l22.6,0.4"/>
<path class="st0" d="M27.6,335.6l27.6-1.1"/>
<path class="st0" d="M55.2,334.7l27.6-0.8"/>
<path class="st0" d="M82.8,336.4l27.6,1.2"/>
<path class="st0" d="M110.4,332.8l27.6-1.1"/>
<path class="st0" d="M138,337.5l27.6,4"/>
<path class="st0" d="M165.6,336.6l13.1,4.1"/>
<path class="st0" d="M193.2,337.1l27.6,3.7"/>
<path class="st0" d="M220.8,342l27.6-6.2"/>
<path class="st0" d="M248.4,328.1l27.6,10.8"/>
<path class="st0" d="M276,338.8l27.6-6"/>
<path class="st0" d="M303.6,335.8l27.6,0"/>
<path class="st0" d="M331.2,334.2l27.6,1.3"/>
<path class="st0" d="M358.8,335.1l27.6-0.4"/>
<path class="st0" d="M386.4,335.5l22.6-0.3"/>
<path class="st0" d="M5,344.2l22.6,0.4"/>
<path class="st0" d="M27.6,344.1l27.6-0.6"/>
<path class="st0" d="M55.2,344.9l27.6-0.7"/>
<path class="st0" d="M82.8,343.3l27.6,4.1"/>
<path class="st0" d="M110.4,342.9l27.6-2.7"/>
<path class="st0" d="M138,348l27.6-3.6"/>
<path class="st0" d="M165.6,345l27.6-8.1"/>
<path class="st0" d="M193.2,348.3l24.6-2.7"/>
<path class="st0" d="M220.8,349.8l27.6-2"/>
<path class="st0" d="M248.4,347.1l27.6-2.1"/>
<path class="st0" d="M276,344.5l27.6,2.3"/>
<path class="st0" d="M303.6,346.5l27.6-0.9"/>
<path class="st0" d="M331.2,344.6l27.6-1.4"/>
<path class="st0" d="M358.8,345.1l27.6-0.3"/>
<path class="st0" d="M386.4,343.9l22.6,0.2"/>
<path class="st0" d="M5,353.3l22.6-0.4"/>
<path class="st0" d="M27.6,352.6l27.6,0.2"/>
<path class="st0" d="M55.2,353.3l27.6-1.6"/>
<path class="st0" d="M82.8,351.9l27.6,2.6"/>
<path class="st0" d="M110.4,353.7l27.6,0.2"/>
<path class="st0" d="M138,356.1l27.6-1.2"/>
<path class="st0" d="M165.6,354.3l27.6-3.4"/>
<path class="st0" d="M193.2,362.9l27.6-18.9"/>
<path class="st0" d="M236.9,356.1l11.5-3.5"/>
<path class="st0" d="M248.4,350.4l27.6,3.5"/>
<path class="st0" d="M276,357.2l27.6-4.5"/>
<path class="st0" d="M303.6,354.7l27.6-2.2"/>
<path class="st0" d="M331.2,351.9l27.6,0.8"/>
<path class="st0" d="M358.8,353.5l27.6-0.3"/>
<path class="st0" d="M386.4,352.8L409,353"/>
<path class="st0" d="M5,362l22.6-0.3"/>
<path class="st0" d="M27.6,362.1l27.6,0"/>
<path class="st0" d="M55.2,362.1l27.6,1.5"/>
<path class="st0" d="M82.8,362.5l27.6-0.8"/>
<path class="st0" d="M110.4,361.2L138,367"/>
<path class="st0" d="M138,359.4l27.6,8.1"/>
<path class="st0" d="M171.2,367.7l21,5.3"/>
<path class="st0" d="M202.9,369.7l16.4,1.3"/>
<path class="st0" d="M220.8,357.4l27.6-1.3"/>
<path class="st0" d="M248.4,361.8l27.6,3.1"/>
<path class="st0" d="M276,360l27.6,4.2"/>
<path class="st0" d="M303.6,365.2l27.6-3.7"/>
<path class="st0" d="M331.2,362.7l27.6-1.5"/>
<path class="st0" d="M358.8,362.5l27.6-0.3"/>
<path class="st0" d="M386.4,361.5l22.6,0.3"/>
<path class="st0" d="M5,370.9l22.6,0.1"/>
<path class="st0" d="M27.6,371.3l27.6-1.3"/>
<path class="st0" d="M55.2,371.1l27.6-1.4"/>
<path class="st0" d="M82.8,372l27.6-1.4"/>
<path class="st0" d="M110.4,371.6l27.6,2.1"/>
<path class="st0" d="M138,368.4l27.6,9.4"/>
<path class="st0" d="M165.6,365.7l22,9.2"/>
<path class="st0" d="M193.2,364l18.1,11.2"/>
<path class="st0" d="M220.8,369.4l27.6,6.5"/>
<path class="st0" d="M248.4,373.3l27.6,0.2"/>
<path class="st0" d="M276,374.7l27.6-4.7"/>
<path class="st0" d="M303.6,373.8l27.6-1.7"/>
<path class="st0" d="M331.2,370.8l27.6,0.4"/>
<path class="st0" d="M358.8,370.2l27.6,1.3"/>
<path class="st0" d="M386.4,371.4l22.6-0.5"/>
<path class="st0" d="M5,379.8l22.6-0.3"/>
<path class="st0" d="M27.6,379.8l27.6-0.4"/>
<path class="st0" d="M55.2,380.4l27.6,0.7"/>
<path class="st0" d="M82.8,380.4l27.6-2.7"/>
<path class="st0" d="M110.4,380.8L138,375"/>
<path class="st0" d="M138,382.9l27.6-0.5"/>
<path class="st0" d="M165.6,386.2l27.6-13.5"/>
<path class="st0" d="M193.2,387l27.6-16.7"/>
<path class="st0" d="M229.3,382.7l19.1-2.3"/>
<path class="st0" d="M248.4,373.5l27.6,9.2"/>
<path class="st0" d="M276,381l27.6,0.7"/>
<path class="st0" d="M303.6,377.1l27.6,4"/>
<path class="st0" d="M331.2,378.1l27.6,1.2"/>
<path class="st0" d="M358.8,379.6l27.6,0.4"/>
<path class="st0" d="M386.4,379.7L409,380"/>
<path class="st0" d="M5,388.6l22.6-0.2"/>
<path class="st0" d="M27.6,388.9l27.6-0.6"/>
<path class="st0" d="M55.2,388.5l27.6,1.9"/>
<path class="st0" d="M82.8,390.4l27.6-2.2"/>
<path class="st0" d="M110.4,388.9l27.6-3.6"/>
<path class="st0" d="M138,384.9l27.6,4.4"/>
<path class="st0" d="M165.6,393.6l27.6-1.7"/>
<path class="st0" d="M220.8,379.9l27.6,11.2"/>
<path class="st0" d="M248.4,385.4l27.6,2.9"/>
<path class="st0" d="M276,387l27.6-1.3"/>
<path class="st0" d="M303.6,388.1l27.6,1.4"/>
<path class="st0" d="M331.2,387.8l27.6,1.8"/>
<path class="st0" d="M358.8,389l27.6,0.3"/>
<path class="st0" d="M386.4,389.3l22.6-0.6"/>
<path class="st0" d="M5,397.4l22.6,0.1"/>
<path class="st0" d="M27.6,397.9l27.6,0"/>
<path class="st0" d="M55.2,398l27.6-0.2"/>
<path class="st0" d="M82.8,398.8l27.6-1.4"/>
<path class="st0" d="M110.4,398.6L138,401"/>
<path class="st0" d="M138,396.4l27.6,6.7"/>
<path class="st0" d="M194.4,395.9l26.4-10.6"/>
<path class="st0" d="M220.8,393.9l27.6,0.5"/>
<path class="st0" d="M249.1,405l26.9-9.2"/>
<path class="st0" d="M276,393.7l27.6,2.4"/>
<path class="st0" d="M303.6,400l27.6-0.7"/>
<path class="st0" d="M331.2,398.7l27.6-0.5"/>
<path class="st0" d="M358.8,398.4l27.6-1"/>
<path class="st0" d="M386.4,397.3l22.6,0.3"/>
<path class="st0" d="M5,406.4l22.6,0.5"/>
<path class="st0" d="M27.6,406.5l27.6-0.6"/>
<path class="st0" d="M55.2,406.4l27.6,0.8"/>
<path class="st0" d="M82.8,408.4l27.6-1.1"/>
<path class="st0" d="M110.4,405.1L138,411"/>
<path class="st0" d="M138,405.4l27.6,9.2"/>
<path class="st0" d="M165.6,399.2l27.6,4.9"/>
<path class="st0" d="M193.2,395.7l27.6,7"/>
<path class="st0" d="M220.8,400.5l27.6-0.5"/>
<path class="st0" d="M248.4,404.9l27.6,6.3"/>
<path class="st0" d="M276,407.9l27.6-1.7"/>
<path class="st0" d="M303.6,408.8l27.6-1.9"/>
<path class="st0" d="M331.2,406.2l27.6-0.1"/>
<path class="st0" d="M358.8,406.2l27.6,0.9"/>
<path class="st0" d="M386.4,406.1l22.6,0.6"/>
<path class="st0" d="M5,415.6l22.6,0.2"/>
<path class="st0" d="M27.6,416l27.6,0.1"/>
<path class="st0" d="M55.2,416.3l27.6-0.2"/>
<path class="st0" d="M82.8,416.5l27.6-3.7"/>
<path class="st0" d="M110.4,415.2l27.6,2.1"/>
<path class="st0" d="M138,418.4l27.6,0.6"/>
<path class="st0" d="M165.6,410.7l15.7,6.3"/>
<path class="st0" d="M193.2,421.3l27.6-14.5"/>
<path class="st0" d="M220.8,421.4l27.6-13.3"/>
<path class="st0" d="M248.4,408.6l27.6,3.1"/>
<path class="st0" d="M276,413.4l27.6,1.9"/>
<path class="st0" d="M303.6,418.2l27.6-2.3"/>
<path class="st0" d="M331.2,413.6l27.6,2"/>
<path class="st0" d="M358.8,414.6l27.6,1.4"/>
<path class="st0" d="M386.4,415.2l22.6,0.3"/>
<path class="st0" d="M5,424.4l22.6,0.3"/>
<path class="st0" d="M27.6,423.8l27.6,0.4"/>
<path class="st0" d="M55.2,423.6l27.6-1"/>
<path class="st0" d="M82.8,423.9l27.6-1.5"/>
<path class="st0" d="M110.4,424.8l27.6-5.3"/>
<path class="st0" d="M138,428.5l27.6-8.1"/>
<path class="st0" d="M165.6,421.5l27.6-6.6"/>
<path class="st0" d="M193.2,427.7l27.6,7.7"/>
<path class="st0" d="M227.2,432.6l21.2-10.5"/>
<path class="st0" d="M249.3,427.8l26.7-8"/>
<path class="st0" d="M276,422.1l27.6,0"/>
<path class="st0" d="M303.6,421.1l27.6,3"/>
<path class="st0" d="M331.2,423.9l27.6-0.1"/>
<path class="st0" d="M358.8,423.9l27.6,0.7"/>
<path class="st0" d="M386.4,424.8l22.6-0.3"/>
<path class="st0" d="M5,433.2l22.6,0.1"/>
<path class="st0" d="M27.6,433.8l27.6-0.4"/>
<path class="st0" d="M55.2,434l27.6-1.6"/>
<path class="st0" d="M82.8,431.6l27.6,3.8"/>
<path class="st0" d="M110.4,430.8l27.6-0.4"/>
<path class="st0" d="M138,436.3l27.6-9.1"/>
<path class="st0" d="M165.6,425.6l26.2,14.1"/>
<path class="st0" d="M193.2,436.6l23.6,0.9"/>
<path class="st0" d="M236.3,435.4l12.1-1.8"/>
<path class="st0" d="M248.4,427.8l27.6,1.7"/>
<path class="st0" d="M276,435.7l27.6-0.5"/>
<path class="st0" d="M303.6,432l27.6,0.4"/>
<path class="st0" d="M331.2,434.9l27.6-0.5"/>
<path class="st0" d="M358.8,433.5l27.6-0.4"/>
<path class="st0" d="M386.4,433.4l22.6-0.2"/>
<path class="st0" d="M5,442l22.6,0"/>
<path class="st0" d="M27.6,442l27.6-0.7"/>
<path class="st0" d="M55.2,441.6l27.6,1.4"/>
<path class="st0" d="M82.8,442.2l27.6-1.3"/>
<path class="st0" d="M110.4,440.4l27.6-1.8"/>
<path class="st0" d="M138,445.4l27.6-6.3"/>
<path class="st0" d="M165.6,445.6l27.6-6.1"/>
<path class="st0" d="M193.2,445l27.6-8.3"/>
<path class="st0" d="M220.8,431.1l27.6,9.4"/>
<path class="st0" d="M248.4,435.7l27.6,6.6"/>
<path class="st0" d="M276,445l27.6-4.8"/>
<path class="st0" d="M303.6,440.8l27.6,2.3"/>
<path class="st0" d="M331.2,444.1l27.6-1.5"/>
<path class="st0" d="M358.8,441.9l27.6,0.6"/>
<path class="st0" d="M386.4,442.1l22.6,0.1"/>
<path class="st0" d="M5,451l22.6,0.4"/>
<path class="st0" d="M27.6,450.6l27.6-0.3"/>
<path class="st0" d="M55.2,450.9l27.6-0.6"/>
<path class="st0" d="M82.8,452.6l27.6-2.6"/>
<path class="st0" d="M110.4,451l27.6,3"/>
<path class="st0" d="M138,447.2l27.6,0.3"/>
<path class="st0" d="M165.6,450.3l27.6-2.8"/>
<path class="st0" d="M193.2,452.1l27.6,6.9"/>
<path class="st0" d="M220.8,460.9l27.6-16.4"/>
<path class="st0" d="M248.4,448.4l27.6,1"/>
<path class="st0" d="M276,452.7l27.6,0.9"/>
<path class="st0" d="M303.6,450.6l27.6-0.9"/>
<path class="st0" d="M331.2,452.6l27.6-0.6"/>
<path class="st0" d="M358.8,450.8l27.6,0"/>
<path class="st0" d="M386.4,451.2l22.6-0.1"/>
<path class="st0" d="M5,459.9l22.6,0.2"/>
<path class="st0" d="M27.6,460.5l27.6-0.2"/>
<path class="st0" d="M55.2,460.7l27.6-1.4"/>
<path class="st0" d="M82.8,460.3l27.6,2.8"/>
<path class="st0" d="M110.4,462.4l27.6-1.9"/>
<path class="st0" d="M138,458.3l27.6-0.6"/>
<path class="st0" d="M165.6,467.6l27.6-7"/>
<path class="st0" d="M193.2,458.3l27.6,7.6"/>
<path class="st0" d="M220.8,461.8l27.6-1.7"/>
<path class="st0" d="M248.4,467.8l27.6-6.2"/>
<path class="st0" d="M276,459.2l27.6-1.3"/>
<path class="st0" d="M303.6,461.8l27.6-1.1"/>
<path class="st0" d="M331.2,459.3l27.6,1"/>
<path class="st0" d="M358.8,460.4l27.6-0.9"/>
<path class="st0" d="M386.4,459.6l22.6,0.6"/>
</svg>
