<?xml version="1.0" encoding="utf-8"?>
<!-- Generator: Adobe Illustrator 23.0.6, SVG Export Plug-In . SVG Version: 6.00 Build 0)  -->
<svg version="1.1" id="Layer_1" xmlns="http://www.w3.org/2000/svg" xmlns:xlink="http://www.w3.org/1999/xlink" x="0px" y="0px"
	 viewBox="0 0 414 552" style="enable-background:new 0 0 414 552;" xml:space="preserve">
<style type="text/css">
	.st0{fill:none;stroke:#FFFFFF;}
</style>
<path class="st0" d="M5,166.6l3,0l4,0l4,0l4-0.1l4-0.1l4-0.1l4-0.1l4-0.1l4-0.2l4-0.2l4-0.2l4-0.2l4-0.2l4-0.2l4-0.2l4-0.1l4-0.1
	l4-0.1l4,0l4,0l4,0l4,0l4,0l4,0l4,0l4-0.1l4-0.1l4-0.1l4-0.1l4-0.1l4,0l4,0.1l4,0.2l4,0.3l4,0.4l4,0.4l4,0.5l4,0.6l4,0.7l4,0.8
	l4,0.8l0.9,0.2"/>
<path class="st0" d="M229.6,164.6l1.3-0.6l4-1.6l4-1.2l4-0.7l4-0.4l4,0l4,0.5l4,0.8l4,1.1l4,1.2l4,1.3l4,1.3l4,1.2l4,1.2l4,1.1l4,1
	l4,0.9l4,0.9l4,0.9l4,0.8l4,0.6l4,0.4l4,0.2l4-0.1l4-0.3l4-0.5l4-0.7l4-0.8l4-0.9l4-0.9l4-0.9l4-0.8l4-0.7l4-0.6l4-0.5l4-0.4l4-0.3
	l4-0.3l4-0.2l4-0.2l4-0.1l4,0l4,0l4,0l4,0l3,0"/>
<path class="st0" d="M5,175.3l3,0l4,0l4,0l4,0l4,0l4,0l4,0l4,0l4,0l4,0.1l4,0.1l4,0.1l4,0.1l4,0.1l4,0.2l4,0.2l4,0.2l4,0.2l4,0.2
	l4,0.3l4,0.3l4,0.3l4,0.3l4,0.3l4,0.3l4,0.3l4,0.3l4,0.3l4,0.3l4,0.2l4,0l4-0.1l4-0.3l4-0.6l4-0.8l4-1l4-1.3l4-1.5l4-1.6l4-1.8
	l4-1.9l4-1.9l4-1.9l4-1.8l4-1.6l4-1.4l4-1.2l4-0.9l4-0.7l4-0.5l4,0l4,0.7l4,0.7l4,0.9l4,1.5l4,1.8l4,2l4,2.1l4,2l4,1.9l4,1.7l4,1.5
	l4,1.3l4,1.1l4,0.8l4,0.6l4,0.4l4,0.2l4,0l4-0.1l4-0.1l4-0.1l4-0.1l4-0.2l4-0.3l4-0.4l4-0.4l4-0.5l4-0.5l4-0.5l4-0.5l4-0.5l4-0.4
	l4-0.4l4-0.3l4-0.2l4-0.1l4-0.1l4,0l4,0l4,0.1l4,0.1l4,0.1l4,0.1l4,0.1l4,0.1l4,0.1l4,0.1l4,0.1l4,0.1l4,0.1l3,0.1"/>
<path class="st0" d="M5,184.3l3,0l4,0l4,0l4,0l4-0.1l4-0.1l4-0.1l4-0.2l4-0.2l4-0.3l4-0.3l4-0.4l4-0.4l4-0.4l4-0.4l4-0.4l4-0.3
	l4-0.3l4-0.2l4-0.1l4,0l4,0.1l4,0.2l4,0.2l4,0.3l4,0.3l4,0.4l4,0.4l4,0.6l4,0.7l4,0.9l4,1.1l4,1.3l4,1.5l4,1.6l4,1.7l4,1.8l4,1.8
	l4,1.7l1.8,0.7"/>
<path class="st0" d="M247.5,193.5l3.3-1.3l4-1.3l4-1.1l4-0.9l4-0.7l4-0.5l4-0.4l4-0.3l4-0.2l4-0.2l4-0.2l4-0.2l4-0.2l4-0.2l4-0.3
	l4-0.3l4-0.3l4-0.3l4-0.3l4-0.3l4-0.2l4-0.2l4-0.2l4-0.1l4-0.1l4-0.1l4,0l4,0l4,0l4,0l4,0l4,0.1l4,0l4,0l4,0l4,0l4,0l4,0l4,0l4,0
	l3,0"/>
<path class="st0" d="M5,193.1l3,0l4,0l4-0.1l4-0.1l4-0.1l4-0.1l4-0.2l4-0.2l4-0.3l4-0.3l4-0.4l4-0.4l4-0.4l4-0.4l4-0.4l4-0.3l4-0.2
	l4-0.1l4,0l4,0.2l4,0.3l4,0.4l4,0.5l4,0.6l4,0.6l4,0.7l4,0.7l4,0.8l4,0.9l4,1l4,1.1l4,1.1l4,1.1l4,1l4,0.8l4,0.6l4,0.3l3.4,0"/>
<path class="st0" d="M248.3,193.8l2.5,0l4-0.1l4-0.1l4,0l4,0l4,0l4,0l4,0l4,0l4,0l4,0l4,0l4,0l4-0.1l4-0.1l4-0.1l4-0.1l4-0.1l4-0.1
	l4-0.1l4-0.1l4,0l4,0l4,0l4,0l4,0l4,0l4,0l4,0l4,0l4,0l4,0l4,0l4,0l4,0l4,0l4,0l4,0l4,0l4,0l3,0"/>
<path class="st0" d="M5,201.4l3-0.1l4-0.1l4-0.1l4-0.1l4-0.1l4-0.1l4-0.2l4-0.2l4-0.2l4-0.3l4-0.3l4-0.3l4-0.3l4-0.3l4-0.3l4-0.2
	l4-0.1l4-0.1l4,0.1l4,0.2l4,0.3l4,0.4l4,0.5l4,0.6l4,0.6l4,0.7l4,0.8l4,0.9l4,0.9l4,0.9l4,0.8l4,0.6l4,0.3l4,0l4-0.4l4-0.9l4-1.4
	l4-2l4-2.5l4-3l4-3.4l4-3.7l4-3.7l4-3.6l4-3.3l4-2.8l4-2.1l4-1.1l4-0.1l4,0.7l4,0.7l4,0.8l4,1.5l4,1.9l4,2.2l4,2.3l4,2.4l4,2.3
	l4,2.2l4,2.1l4,1.9l4,1.6l4,1.3l4,1.1l4,0.9l4,0.7l4,0.5l4,0.4l4,0.2l4,0.1l4,0.1l4,0.1l4,0.1l4,0.1l4,0.1l4,0.1l4,0.2l4,0.2l4,0.2
	l4,0.2l4,0.2l4,0.2l4,0.2l4,0.2l4,0.2l4,0.2l4,0.1l4,0.1l4,0.1l4,0l4,0l4,0l4,0l4,0l4,0l4-0.1l4-0.1l4-0.1l4-0.1l4-0.1l4-0.1l3-0.1"
	/>
<path class="st0" d="M5,210.7l3,0l4,0l4,0.1l4,0.1l4,0.1l4,0.1l4,0.1l4,0.1l4,0.1l4,0l4,0l4-0.1l4-0.2l4-0.2l4-0.3l4-0.3l4-0.4
	l4-0.4l4-0.3l4-0.3l4-0.2l4-0.1l4,0.1l4,0.3l4,0.5l4,0.6l4,0.8l4,0.9l4,1.1l4,1.3l4,1.4l4,1.6l4,1.6l4,1.7l4,1.6l4,1.5l4,1.3l0.1,0"
	/>
<path class="st0" d="M233.5,211.1l1.4-0.7l4-1.9l4-1.7l4-1.4l4-1.2l4-0.9l4-0.6l4-0.3l4-0.1l4,0.1l4,0.2l4,0.4l4,0.4l4,0.4l4,0.4
	l4,0.4l4,0.3l4,0.3l4,0.3l4,0.3l4,0.3l4,0.3l4,0.3l4,0.3l4,0.4l4,0.4l4,0.4l4,0.4l4,0.4l4,0.4l4,0.3l4,0.3l4,0.3l4,0.2l4,0.2l4,0.1
	l4,0.1l4,0.1l4,0.1l4,0.1l4,0.1l4,0.1l4,0l4,0l3,0"/>
<path class="st0" d="M5,219.6l3-0.1l4-0.1l4-0.1l4-0.2l4-0.2l4-0.2l4-0.3l4-0.3l4-0.4l4-0.4l4-0.4l4-0.5l4-0.5l4-0.4l4-0.4l4-0.3
	l4-0.1l4,0l4,0.2l4,0.3l4,0.4l4,0.6l4,0.6l4,0.7l4,0.7l4,0.8l4,0.8l4,1l4,1.2l4,1.5l4,1.8l4,2l4,2.2l2.7,1.5"/>
<path class="st0" d="M188.3,226.8l2.7-2l4-3l4-3l4-2.8l4-2.4l4-1.9l4-1.4l4-0.8l4-0.2l4,0.3l4,0.8l4,1.1l4,1.3l4,1.5l4,1.6l4,1.6
	l4,1.5l4,1.3l4,1.1l4,0.8l4,0.5l4,0.2l4,0l4-0.1l4-0.2l4-0.2l4-0.1l4-0.1l4,0l4,0l4,0.1l4,0.1l4,0l4,0l4-0.1l4-0.1l4-0.2l4-0.2
	l4-0.2l4-0.3l4-0.3l4-0.3l4-0.3l4-0.3l4-0.2l4-0.2l4-0.2l4-0.2l4-0.1l4-0.1l4-0.1l4-0.1l4-0.1l4-0.1l4,0l3,0"/>
<path class="st0" d="M5,228.2l3,0l4,0.1l4,0.1l4,0.1l4,0.2l4,0.2l4,0.2l4,0.2l4,0.1l4,0.1l4,0l4,0l4-0.1l4-0.2l4-0.3l4-0.3l4-0.4
	l4-0.4l4-0.4l4-0.4l4-0.3l4-0.1l4,0l4,0.2l4,0.4l4,0.7l4,0.8l4,1l4,1.2l4,1.5l4,1.8l2.5,1.3"/>
<path class="st0" d="M194.5,230.9l0.6-0.4l4-2.8l4-2.5l4-2l4-1.3l4-0.6l4,0.1l4,0.6l4,1.1l4,1.4l4,1.5l4,1.5l4,1.4l4,1.2l4,1l4,0.7
	l4,0.4l4,0.1l4-0.2l4-0.5l4-0.7l4-0.8l4-0.8l4-0.8l4-0.7l4-0.7l4-0.7l4-0.6l4-0.5l4-0.4l4-0.3l4-0.2l4,0l4,0.1l4,0.2l4,0.3l4,0.4
	l4,0.5l4,0.5l4,0.5l4,0.4l4,0.4l4,0.3l4,0.3l4,0.2l4,0.2l4,0.1l4,0.1l4,0.1l4,0l4,0l4,0l4-0.1l4-0.1l3-0.1"/>
<path class="st0" d="M5,237.5l3,0l4,0l4,0l4,0l4,0l4,0l4,0l4-0.1l4-0.1l4-0.2l4-0.2l4-0.3l4-0.4l4-0.4l4-0.4l4-0.4l4-0.4l4-0.4
	l4-0.3l4-0.2l4-0.1l4,0.1l4,0.2l4,0.4l4,0.5l4,0.7l4,0.8l4,0.9l4,0.9l3.8,0.7"/>
<path class="st0" d="M170.7,227.3l0.4-0.2l4-1.2l4-0.7l4,0.1l4,0.9l4,2l4,3.1l4,3.1l4,2.9l4,2.8l4,2.8l4,2.6l4,2.4l4,2.2l4,1.7
	l4,1.1l4,0.5l4-0.1l4-0.7l4-1.1l4-1.5l4-1.7l4-1.8l4-1.9l4-1.8l4-1.6l4-1.4l4-1.1l4-0.9l4-0.8l4-0.6l4-0.5l4-0.3l4-0.1l4,0l4,0.1
	l4,0.2l4,0.3l4,0.3l4,0.3l4,0.3l4,0.2l4,0.2l4,0.1l4,0.1l4,0l4,0l4-0.1l4-0.1l4-0.1l4-0.1l4-0.1l4-0.1l4-0.1l4-0.1l4-0.1l4-0.1
	l4-0.1l4,0l4,0l3,0"/>
<path class="st0" d="M5,246.5l3,0l4,0l4-0.1l4-0.1l4-0.1l4-0.2l4-0.2l4-0.2l4-0.2l4-0.1l4-0.1l4,0l4,0l4,0.1l4,0.1l4,0.2l4,0.2
	l4,0.2l4,0.2l4,0.1l4,0.1l4-0.1l4-0.2l4-0.4l4-0.6l4-0.8l4-1l4-1.2l4-1.4l4-1.7l4-1.9l4-2.1l4-2.2l4-2.2l4-2.1l4-1.8l4-1.4l4-0.8
	l4-0.2l4,0.6l4,1.2l4,1.8l4,2.4l4,2.9l4,3.3l3.6,3.1"/>
<path class="st0" d="M243,257.5l3.8-1l4-1.1l4-1.2l4-1.1l4-1l4-0.9l4-0.7l4-0.6l4-0.4l4-0.3l4-0.2l4-0.2l4-0.2l4-0.2l4-0.1l4-0.1
	l4-0.1l4-0.1l4-0.1l4-0.1l4-0.1l4-0.1l4-0.1l4-0.1l4-0.1l4-0.1l4-0.1l4-0.1l4-0.1l4-0.1l4-0.1l4-0.1l4-0.1l4,0l4,0l4,0l4,0l4,0l4,0
	l4,0l4,0l3,0"/>
<path class="st0" d="M5,255l3-0.1l4-0.1l4-0.2l4-0.2l4-0.2l4-0.3l4-0.3l4-0.3l4-0.2l4-0.2l4-0.1l4,0l4,0.1l4,0.2l4,0.4l4,0.5l4,0.7
	l4,0.8l4,0.9l1.6,0.4"/>
<path class="st0" d="M148.8,257l2.4-1.2l4-2.2l4-2.4l4-2.5l4-2.4l4-2.3l4-2l4-1.6l4-1l4-0.2l4,0.5l4,0.5l4,0.9l4,1.1l4,1.3l4,1.6
	l4,1.8l4,2l4,2l4,1.9l4,1.7l4,1.4l4,1.1l4,0.7l4,0.4l4,0.1l4-0.2l4-0.3l4-0.5l4-0.6l4-0.6l4-0.6l4-0.6l4-0.5l4-0.5l4-0.4l4-0.4
	l4-0.3l4-0.3l4-0.2l4-0.1l4,0l4,0.1l4,0.2l4,0.3l4,0.3l4,0.4l4,0.4l4,0.4l4,0.4l4,0.3l4,0.3l4,0.3l4,0.2l4,0.2l4,0.1l4,0.1l4,0.1
	l4,0l4,0l4,0l4,0l4,0l4-0.1l4-0.1l3-0.1"/>
<path class="st0" d="M5,265.4l3,0.1l4,0.1l4,0.1l4,0l4,0l4,0l4-0.1l4-0.2l4-0.3l4-0.4l4-0.5l4-0.7l4-0.8l4-0.9l4-0.9l4-1l4-1l4-0.9
	l4-0.9l4-0.8l4-0.6l4-0.5l4-0.4l4-0.3l4-0.2l4-0.1l4-0.1l4,0l4,0l4,0.1l4,0.2l4,0.2l4,0.3l4,0.4l4,0.5l4,0.7l4,0.8l4,0.9l2.9,0.8"/>
<path class="st0" d="M209.1,278.7l1.9,0.6l1,0.3"/>
<path class="st0" d="M290.5,266.9L290.5,266.9l4-0.8l4-0.7l4-0.6l4-0.6l4-0.5l4-0.4l4-0.3l4-0.3l4-0.2l4-0.1l4-0.1l4,0l4,0l4,0
	l4,0.1l4,0.1l4,0.1l4,0.1l4,0.1l4,0.1l4,0.1l4,0.1l4,0.1l4,0.1l4,0.1l4,0.1l4,0.1l4,0.1l4,0.1l3,0.1"/>
<path class="st0" d="M5,272.9l3-0.1l4-0.2l4-0.2l4-0.2l4-0.2l4-0.3l4-0.3l4-0.3l4-0.4l4-0.4l4-0.3l4-0.3l4-0.2l4-0.1l4,0l4,0.1
	l4,0.2l4,0.3l4,0.4l4,0.5l4,0.6l4,0.6l4,0.5l4,0.4l4,0.3l4,0.2l4,0.1l4,0.1l4,0l4-0.2l4-0.5l4-0.8l4-1.1l4-1.3l4-1.5l4-1.7l1-0.5"/>
<path class="st0" d="M193,269.5l2,1.5l4,2.7l4,2.4l4,1.9l4,1.4l4,0.8l4,0.3l4-0.3l4-0.7l4-1.2l4-1.5l4-1.7l4-1.8l4-1.7l4-1.7l4-1.5
	l4-1.2l4-0.9l4-0.6l4-0.3l4,0l4,0.2l4,0.4l4,0.4l4,0.4l4,0.5l4,0.6l4,0.7l4,0.7l4,0.8l4,0.8l4,0.8l4,0.7l4,0.6l4,0.5l4,0.4l4,0.3
	l4,0.2l4,0.1l4,0l4,0l4-0.1l4-0.1l4-0.2l4-0.2l4-0.2l4-0.1l4-0.1l4-0.1l4-0.1l4-0.1l4-0.1l4-0.1l4-0.1l3-0.1"/>
<path class="st0" d="M5,282.7l3,0l4,0l4-0.1l4-0.1l4-0.1l4-0.1l4-0.1l4-0.1l4-0.1l4,0l4,0.1l4,0.2l4,0.3l4,0.4l4,0.5l4,0.6l4,0.7
	l4,0.7l4,0.8l4,0.7l4,0.6l4,0.5l4,0.3l4,0.1l4-0.1l4-0.4l4-0.6l4-0.7l4-1.1l4-1.5l4-2l4-2.4l4-2.9l4-3.2l4-3.4l4-3.4l4-3.2l4-2.9
	l4-2.4l4-1.7l4-0.9l4,0l4,1l4,2l4,2.7l4,3l4,3.3l4,3.2l4,3l4,2.7l4,2.3l4,1.8l4,1.4l4,0.9l4,0.5l4,0.3l4,0l4-0.1l4-0.2l4-0.2l4-0.2
	l4-0.1l4,0l4,0.1l4,0.2l4,0.2l4,0.3l4,0.4l4,0.4l4,0.4l4,0.3l4,0.3l4,0.2l4,0l4-0.1l4-0.2l4-0.3l4-0.4l4-0.5l4-0.5l4-0.5l4-0.5
	l4-0.5l4-0.4l4-0.3l4-0.3l4-0.2l4-0.1l4-0.1l4,0l4,0l4,0.1l4,0.1l4,0.1l4,0.1l4,0.1l4,0.1l4,0.1l4,0.1l4,0.1l4,0.1l3,0"/>
<path class="st0" d="M5,290.8l3-0.1l4-0.2l4-0.2l4-0.2l4-0.2l4-0.3l4-0.3l4-0.3l4-0.2l4-0.2l4-0.1l4,0l4,0.1l4,0.2l4,0.4l4,0.5
	l4,0.6l4,0.6l4,0.6l4,0.6l4,0.5l4,0.4l4,0.2l4,0l4-0.3l4-0.5l4-0.7l4-0.9l4-1.1l4-1.4l4-1.6l4-1.8l4-2l4-2l4-1.9l4-1.6l4-1.2l4-0.6
	l4,0.1l4,0.9l4,1.7l4,2.5l4,3.2l4,3.8l2.9,2.9"/>
<path class="st0" d="M231.8,299.9l3.1-1.4l4-1.8l4-1.7l4-1.5l4-1.3l4-1l4-0.7l4-0.4l4-0.1l4,0.1l4,0.3l4,0.4l4,0.5l4,0.5l4,0.4
	l4,0.3l4,0.3l4,0.2l4,0.1l4,0.1l4,0l4-0.1l4-0.1l4-0.2l4-0.2l4-0.2l4-0.2l4-0.2l4-0.2l4-0.2l4-0.1l4-0.1l4-0.1l4-0.1l4,0l4,0l4,0
	l4,0l4,0l4-0.1l4-0.1l4-0.1l4-0.1l4-0.1l3,0"/>
<path class="st0" d="M5,300.2l3,0l4-0.1l4-0.1l4-0.1l4-0.2l4-0.2l4-0.3l4-0.3l4-0.4l4-0.5l4-0.6l4-0.6l4-0.7l4-0.7l4-0.6l4-0.5
	l4-0.4l4-0.3l4-0.1l4,0.1l4,0.2l4,0.4l4,0.5l4,0.6l4,0.6l4,0.7l4,0.8l4,0.8l4,0.9l4,0.8l4,0.6l4,0.4l4,0.1l4-0.2l4-0.6l4-0.9l4-1.2
	l4-1.4l4-1.5l4-1.5l4-1.4l4-1.1l4-0.7l4,0l4,1.1l4,2.1l4,2.5l4,2.6l4,2.4l4,2.2l2.8,1.3"/>
<path class="st0" d="M247.7,303.3l3.1-0.9l4-1.1l4-0.9l4-0.8l4-0.6l4-0.4l4-0.2l4-0.1l4,0l4,0.1l4,0.1l4,0l4,0l4-0.1l4-0.1l4-0.1
	l4-0.1l4-0.1l4,0l4,0l4,0.1l4,0.1l4,0.1l4,0.1l4,0.2l4,0.2l4,0.2l4,0.1l4,0.1l4,0.1l4,0.1l4,0.1l4,0.1l4,0.1l4,0l4,0l4,0l4,0l4,0
	l4,0l3,0"/>
<path class="st0" d="M5,309l3,0l4,0l4-0.1l4-0.1l4-0.2l4-0.2l4-0.2l4-0.2l4-0.1l4-0.1l4,0l4,0l4,0.1l4,0.2l4,0.3l4,0.4l4,0.4l4,0.5
	l4,0.4l4,0.4l4,0.3l4,0.1l4-0.1l4-0.3l4-0.6l4-0.8l4-1l4-1.1l4-1.1l4-1l4-0.8l4-0.5l4-0.1l4,0.3l4,0.7l4,1.1l4,1.5l4,1.8l4,2l4,2
	l4,1.8l4,1.5l4,1l4,0.2l4-0.8l4-1.6l4-2.2l4-2.5l4-2.5l4-2.2l4-1.9l4-1.6l4-1.2l4-0.8l4-0.5l4-0.1l3.4,0.2"/>
<path class="st0" d="M249.3,303.9l1.5,0.4l4,1l4,0.9l4,0.8l4,0.6l4,0.5l4,0.3l4,0.2l4,0.1l4,0l4,0l4,0.1l4,0.1l4,0.2l4,0.2l4,0.2
	l4,0.2l4,0.1l4,0.1l4,0.1l4,0l4,0l4-0.1l4-0.1l4-0.1l4-0.1l4-0.1l4-0.1l4-0.1l4-0.1l4-0.1l4-0.1l4-0.1l4,0l4,0l4,0l4,0l4,0l4,0l4,0
	l3,0"/>
<path class="st0" d="M5,317.4l3,0l4,0.1l4,0.1l4,0.2l4,0.2l4,0.2l4,0.3l4,0.3l4,0.3l4,0.3l4,0.3l4,0.2l4,0.2l4,0.1l4,0l4-0.2l4-0.3
	l4-0.4l4-0.5l4-0.6l4-0.6l4-0.6l4-0.6l4-0.5l4-0.4l4-0.2l4-0.2l4-0.1l4,0l4,0.2l4,0.5l4,0.7l4,1l4,1.2l4,1.4l4,1.5l4,1.4l4,1.3l4,1
	l4,0.6l4,0.1l4-0.5l4-1.2l2.4-1.2"/>
<path class="st0" d="M181.8,320.6l1.3-0.8l4-2.6l4-2.5l4-2.3l4-2l4-1.9l4-1.8l4-1.7l4-1.6l4-1.4l4-1.1l4-0.7l4-0.3l4,0.2l4,0.6l4,1
	l4,1.3l4,1.5l4,1.7l4,1.7l4,1.7l4,1.6l4,1.4l4,1.2l4,1l4,0.8l4,0.7l4,0.6l4,0.5l4,0.4l4,0.4l4,0.3l4,0.2l4,0.1l4,0.1l4,0l4,0l4-0.1
	l4-0.1l4-0.1l4-0.1l4-0.1l4-0.1l4-0.1l4-0.1l4-0.1l4,0l4,0l4,0l4,0l4,0l4,0l4,0l4,0l4,0l4,0l4,0l3,0"/>
<path class="st0" d="M5,326.8l3,0l4,0l4,0l4,0.1l4,0.1l4,0.1l4,0l4,0l4,0l4-0.1l4-0.2l4-0.2l4-0.3l4-0.3l4-0.3l4-0.3l4-0.3l4-0.3
	l4-0.2l4-0.1l4,0.1l4,0.2l4,0.4l4,0.6l4,0.7l4,0.9l4,1l4,1.2l4,1.3l4,1.4l2.6,0.9"/>
<path class="st0" d="M150.5,337.3l0.7-0.1l4-0.9l4-1.5l4-2l4-2.4l4-2.8l4-2.9l4-2.9l4-1.9l4-1.1l4-0.5l4,0l4,0.3l4,0.3l4,0.3l4,0.2
	l4,0.2l4,0.2l4,0.2l4,0.3l4,0.3l4,0.3l4,0.3l4,0.3l4,0.4l4,0.4l4,0.4l4,0.3l4,0.3l4,0.3l4,0.3l4,0.3l4,0.2l4,0.2l4,0.2l4,0.2l4,0.1
	l4,0.1l4,0.1l4,0.1l4,0.1l4,0l4,0l4,0l4,0l4,0l4,0l4,0l4,0l4,0l4,0l4,0l4,0l4,0l4,0.1l4,0l4,0l4,0l4,0l4,0l4,0l4,0l4,0l4,0l4,0l3,0"
	/>
<path class="st0" d="M5,334.4l3-0.1l4-0.1l4-0.1l4-0.1l4-0.2l4-0.2l4-0.1l4-0.1l4-0.1l4,0l4,0.1l4,0.1l4,0.2l4,0.3l4,0.3l4,0.4
	l4,0.4l4,0.4l4,0.4l4,0.3l4,0.2l4,0.1l4,0l4-0.2l4-0.3l4-0.4l4-0.5l4-0.6l4-0.6l4-0.5l4-0.4l4-0.2l4,0.1l4,0.5l4,0.9l4,1.4l4,1.9
	l4,2.4l4,2.8l4,3.2l1.5,1.3"/>
<path class="st0" d="M248.4,337.3l2.4-0.7l4-0.9l4-0.7l4-0.5l4-0.3l4-0.2l4-0.1l4,0l4,0.1l4,0.1l4,0.1l4,0.1l4,0.2l4,0.2l4,0.3
	l4,0.3l4,0.3l4,0.2l4,0.2l4,0.1l4,0.1l4,0l4,0l4,0l4-0.1l4-0.1l4-0.1l4-0.1l4-0.1l4-0.1l4-0.1l4-0.1l4-0.1l4-0.1l4,0l4,0l4,0l4,0
	l4,0l4,0l3,0"/>
<path class="st0" d="M5,344.6l3,0.1l4,0.1l4,0.1l4,0.2l4,0.2l4,0.2l4,0.2l4,0.2l4,0.2l4,0.2l4,0.2l4,0.1l4,0.1l4,0l4-0.1l4-0.1
	l4-0.2l4-0.3l4-0.3l4-0.4l4-0.4l4-0.3l4-0.3l4-0.2l4-0.1l4,0l4,0.1l4,0.2l4,0.3l4,0.4l4,0.6l4,0.8l4,0.9l4,1.1l4,1.2l4,1.2l4,1.2
	l2.8,0.8"/>
<path class="st0" d="M295.9,349.2l2.7-0.2l4-0.3l4-0.4l4-0.4l4-0.4l4-0.5l4-0.5l4-0.5l4-0.4l4-0.4l4-0.4l4-0.3l4-0.3l4-0.2l4-0.2
	l4-0.1l4-0.1l4,0l4,0l4,0l4,0l4,0l4,0l4,0l4,0l4,0l4,0l4,0l3,0"/>
<path class="st0" d="M5,352.5l3-0.1l4,0l4,0l4,0l4,0l4,0.1l4,0l4,0l4,0l4,0l4-0.1l4-0.2l4-0.2l4-0.3l4-0.4l4-0.4l4-0.5l4-0.5l4-0.5
	l4-0.5l4-0.4l4-0.3l4-0.2l4-0.1l4,0.1l4,0.2l4,0.4l4,0.5l4,0.6l4,0.7l4,0.8l4,0.9l4,0.8l4,0.7l4,0.4l4,0l4-0.4l4-1l4-1.7l4-2.4
	l4-3.1l4-3.7l4-4.2l4-4l4-2.4l4-1.5l4-0.9l4-0.4l4-0.1l4,0l4,0.1l4,0.1l4,0.2l4,0.4l4,0.5l4,0.7l4,0.9l4,1.1l4,1.3l4,1.4l4,1.5
	l4,1.5l4,1.5l4,1.5l4,1.4l4,1.2l4,1.1l4,1l4,0.8l4,0.7l4,0.6l4,0.6l4,0.5l4,0.5l4,0.5l4,0.5l4,0.5l4,0.4l4,0.4l4,0.3l4,0.3l4,0.2
	l4,0.2l4,0.1l4,0.1l4,0.1l4,0l4,0l4,0l4,0l4,0l4,0l4,0l4,0l4,0l4,0l4,0l4,0l4,0l4,0l4,0l3,0"/>
<path class="st0" d="M5,362.6l3,0.1l4,0.1l4,0.1l4,0.1l4,0.1l4,0.1l4,0.1l4,0.2l4,0.2l4,0.2l4,0.2l4,0.3l4,0.3l4,0.3l4,0.3l4,0.3
	l4,0.4l4,0.4l4,0.4l4,0.4l4,0.4l4,0.4l2,0.2"/>
<path class="st0" d="M184.9,369.8l2.2-0.1l4-0.2l4-0.1l4-0.1l4,0l4,0.1l4,0.3l4,0.5l4,0.5l4,0.5l4,0.5l4,0.3l4,0.1l4-0.1l4-0.3
	l4-0.5l4-0.7l4-0.8l4-0.9l4-0.9l4-0.9l4-0.9l4-0.8l4-0.8l4-0.7l4-0.6l4-0.5l4-0.4l4-0.4l4-0.3l4-0.2l4-0.1l4-0.1l4,0l4,0l4,0.1
	l4,0.1l4,0.1l4,0.1l4,0.1l4,0.1l4,0.1l4,0l4,0l4,0l4,0l4,0l4,0l4,0l4,0l4,0l4,0l4,0l4,0l4,0l4,0l3,0"/>
<path class="st0" d="M5,370.3l3,0.1l4,0.1l4,0.1l4,0.1l4,0.2l4,0.2l4,0.2l4,0.2l4,0.2l4,0.2l4,0.2l4,0.1l4,0.1l4,0l4-0.1l4-0.2
	l4-0.3l4-0.5l4-0.6l4-0.7l4-0.7l4-0.7l4-0.7l4-0.6l4-0.5l4-0.4l4-0.3l4-0.4l4-0.5l4-0.6l4-0.8l4-1l4-1.1l4-1.1l4-1.1l4-1l4-0.7
	l4-0.4l4,0l4,0.5l4,1.1l4,1.7l4,2.2l4,2.7l4,2.9l4,2.8l4,2.6l4,2.3l4,2l4,1.7l4,1.5l0.5,0.1"/>
<path class="st0" d="M228,383.8l2.8-0.4l4-0.8l4-1l4-1.1l4-1.2l4-1.2l4-1.2l4-1.1l4-0.9l4-0.8l4-0.6l4-0.4l4-0.3l4-0.2l4-0.1l4-0.1
	l4-0.1l4-0.1l4-0.1l4-0.1l4-0.1l4-0.1l4-0.1l4-0.1l4-0.1l4-0.1l4-0.1l4-0.1l4,0l4,0l4,0l4,0l4,0l4,0l4,0l4,0l4,0l4,0l4,0l4,0l4,0
	l4,0l4,0l4,0l4,0l3,0"/>
<path class="st0" d="M5,380l3,0l4,0l4,0l4,0l4,0l4,0l4,0l4,0l4,0l4,0l4,0l4,0l4,0l4,0l4,0l4,0l4,0.1l4,0.1l4,0.1l4,0.1l4,0.1l4,0.1
	l4,0.1l4,0.1l4,0.1l4,0.1l4,0.1l4,0l4-0.1l4-0.3l4-0.6l4-0.9l4-1.2l4-1.4l4-1.6l4-1.7l4-1.7l4-1.6l4-1.3l4-0.9l4-0.4l4,0.2l4,0.9
	l4,1.8l4,2.5l4,2.8l4,2.8l4,2.6l4,2.3l1.7,0.8"/>
<path class="st0" d="M243.6,387.4l3.2-0.9l4-1.1l4-1.1l4-1l4-0.8l4-0.7l4-0.5l4-0.4l4-0.2l4-0.1l4-0.1l4,0l4,0l4,0.1l4,0.1l4,0.1
	l4,0.1l4,0.1l4,0.1l4,0.1l4,0l4,0l4-0.1l4-0.1l4-0.1l4-0.1l4-0.1l4-0.1l4-0.1l4-0.1l4-0.1l4-0.1l4-0.1l4-0.1l4-0.1l4-0.1l4,0l4,0
	l4,0l4,0l4,0l3,0"/>
<path class="st0" d="M5,389.2l3,0l4-0.1l4-0.1l4-0.1l4-0.2l4-0.2l4-0.2l4-0.2l4-0.1l4-0.1l4,0l4,0l4,0.1l4,0.2l4,0.3l4,0.4l4,0.4
	l4,0.5l4,0.5l4,0.4l4,0.3l4,0.1l4-0.1l4-0.3l4-0.6l4-0.8l4-1l4-1.1l4-1.1l4-1l4-0.8l4-0.6l4-0.2l4,0.1l4,0.5l4,0.9l4,1.3l4,1.5
	l4,1.7l4,1.7l2.8,1.1"/>
<path class="st0" d="M184.5,393.3l2.6-1.2l4-2.3l4-2.4l4-2.3l4-1.9l4-1.4l4-0.7l4-0.1l4,0.4l4,0.9l4,1.2l2.4,0.8"/>
<path class="st0" d="M260.4,392.1l2.4,0.1l4-0.2l4-0.4l4-0.5l4-0.6l4-0.6l4-0.6l4-0.5l4-0.5l4-0.5l4-0.4l4-0.4l4-0.3l4-0.2l4-0.1
	l4,0l4,0.1l4,0.1l4,0.2l4,0.2l4,0.3l4,0.3l4,0.2l4,0.2l4,0.2l4,0.2l4,0.1l4,0.1l4,0.1l4,0.1l4,0l4,0l4,0l4,0l4,0l4,0l4,0l3,0"/>
<path class="st0" d="M5,398.1l3,0l4,0l4,0l4,0l4,0.1l4,0.1l4,0.1l4,0.1l4,0.1l4,0.2l4,0.2l4,0.2l4,0.2l4,0.2l4,0.2l4,0.1l4,0l4-0.1
	l4-0.2l4-0.3l4-0.5l4-0.6l4-0.8l4-0.9l4-1l4-1.1l4-1.3l4-1.4l4-1.4l4-1.3l4-1.1l4-0.8l4-0.4l4,0l4,0.4l4,0.9l4,1.2l4,1.5l4,1.7
	l1.4,0.6"/>
<path class="st0" d="M188.4,395.4l2.7-1.2l4-2.1l4-2l4-1.8l4-1.5l4-1.2l4-0.9l4-0.6l4-0.2l4,0.1l4,0.4l4,0.7l4,0.9l4,1.1l4,1.2
	l4,1.2l4,1.2l4,1.1l4,0.9l4,0.8l4,0.6l4,0.5l4,0.3l4,0.2l4,0.2l4,0.2l4,0.1l4,0.1l4,0.1l4,0l4,0.1l4,0.1l4,0.1l4,0.1l4,0.1l4,0.2
	l4,0.2l4,0.2l4,0.2l4,0.2l4,0.2l4,0.2l4,0.1l4,0.1l4,0.1l4,0.1l4,0l4,0l4,0l4,0l4,0l4,0l4,0l4,0l4,0l3,0"/>
<path class="st0" d="M5,406.8l3,0.1l4,0.1l4,0.1l4,0.1l4,0l4,0.1l4,0.1l4,0.1l4,0.1l4,0.2l4,0.2l4,0.3l4,0.3l4,0.3l4,0.4l4,0.4
	l4,0.5l2,0.2"/>
<path class="st0" d="M210.7,406l0.3-0.1l4-0.9l4-0.3l4,0.1l4,0.5l4,0.7l4,0.9l4,0.9l4,0.9l4,0.8l4,0.6l4,0.4l4,0.2l4,0l4-0.2l4-0.4
	l4-0.5l4-0.6l4-0.6l4-0.6l4-0.5l4-0.4l4-0.3l4-0.3l4-0.2l4-0.1l4-0.1l4,0l4,0l4,0l4,0l4,0l4,0l4,0l4,0l4,0l4,0l4,0l4,0l4,0l4,0l4,0
	l4,0l4,0l4,0l4,0.1l4,0.1l4,0.1l4,0.1l4,0.1l3,0"/>
<path class="st0" d="M5,414.5l3-0.1l4-0.2l4-0.2l4-0.2l4-0.2l4-0.2l4-0.2l4-0.2l4-0.2l4-0.2l4-0.3l4-0.3l4-0.3l4-0.3l4-0.3l4-0.4
	l4-0.4l4-0.4l4-0.4l4-0.5l4-0.5l4-0.5l4-0.6l4-0.6l4-0.7l4-0.7l4-0.7l4-0.8l4-0.8l4-0.9l4-1l4-1l4-1.1l4-1.1l4-1.1l4-1l4-1l4-0.9
	l4-0.8l4-0.6l4-0.5l4-0.4l4-0.2l4-0.1l4,0.8l4,2.2l4,2.2l4,2l4,1.8l4,1.7l4,1.8l4,1.9l4,2.1l4,2.1l4,2.1l4,2l4,1.8l4,1.6l4,1.3l4,1
	l4,0.7l4,0.5l2.2,0.1"/>
<path class="st0" d="M288.9,418.5l1.7-0.2l4-0.3l4-0.2l4-0.1l4-0.1l4,0l4,0l4,0l4,0l4,0l4-0.1l4-0.1l4-0.1l4-0.1l4-0.2l4-0.2l4-0.2
	l4-0.2l4-0.2l4-0.2l4-0.1l4-0.1l4-0.1l4-0.1l4-0.1l4-0.1l4-0.1l4,0l4,0l4,0l3,0"/>
<path class="st0" d="M5,424.4l3,0l4,0l4,0l4,0l4,0l4,0l4,0l4,0l4,0.1l4,0.1l4,0.1l4,0.1l4,0.2l4,0.2l4,0.2l4,0.2l4,0.2l4,0.1l4,0.1
	l4,0.1l4,0l4-0.1l4-0.1l4-0.2l4-0.3l4-0.3l4-0.4l4-0.5l4-0.5l4-0.6l4-0.5l4-0.5l4-0.3l4-0.1l4,0.2l4,0.6l4,1.1l2.6,1.1"/>
<path class="st0" d="M238.3,430.9l0.5-0.4l4-2.9l4-2.7l4-2.3l4-2l4-1.5l4-1.1l4-0.7l4-0.3l4,0l4,0.3l4,0.4l4,0.5l4,0.5l4,0.5l4,0.6
	l4,0.7l4,0.7l4,0.7l4,0.7l4,0.6l4,0.5l4,0.4l4,0.3l4,0.3l4,0.2l4,0.1l4,0l4,0l4-0.1l4-0.1l4-0.1l4-0.1l4-0.1l4-0.1l4-0.1l4-0.1
	l4-0.1l4,0l4,0l4,0l4,0l4,0l3,0"/>
<path class="st0" d="M5,433.8l3,0.1l4,0.1l4,0.1l4,0.1l4,0.1l4,0.2l4,0.2l4,0.2l4,0.3l4,0.4l4,0.5l4,0.5l4,0.6l4,0.6l4,0.7l4,0.7
	l4,0.7l4,0.6l4,0.6l4,0.5l3.9,0.4"/>
<path class="st0" d="M132,438.5l3.4-1.5l4-2.1l4-2.4l4-2.7l4-2.9l4-3l4-3.1l4-3l4-2.8l4-2.5l4-2.1l4-1.5l4-0.7l4,0.1l4,0.4l4,0.6
	l4,0.9l4,1.1l4,1.4l4,1.8l4,2.1l4,2.3l4,2.5l4,2.6l4,2.5l4,2.4l4,2.2l4,1.9l4,1.6l4,1.3l4,1l4,0.7l4,0.4l4,0.1l4-0.1l4-0.3l4-0.4
	l4-0.4l4-0.4l4-0.4l4-0.3l4-0.3l4-0.2l4-0.2l4-0.1l4-0.1l4-0.1l4-0.1l4-0.1l4-0.1l4-0.1l4-0.1l4-0.1l4-0.1l4-0.1l4-0.1l4-0.1l4-0.1
	l4-0.1l4-0.1l4-0.1l4-0.1l4-0.1l4-0.1l4-0.1l4-0.1l4-0.1l4,0l4,0l3,0"/>
<path class="st0" d="M5,441.8l3,0l4,0.1l4,0.1l4,0.1l4,0.2l4,0.2l4,0.2l4,0.2l4,0.3l4,0.3l4,0.2l4,0.2l4,0.1l4,0.1l4,0l4-0.1l4-0.2
	l4-0.3l4-0.5l4-0.5l4-0.6l4-0.6l4-0.6l4-0.5l4-0.4l4-0.3l4-0.3l4-0.3l4-0.3l4-0.2l4,0l4,0.2l4,0.4l4,0.6l4,0.8l4,1.1l4,1.3l4,1.5
	l4,1.7l4,1.8l4,1.9l4,1.9l4,1.8l4,1.5l4,1.2l4,0.5l2.3-0.2"/>
<path class="st0" d="M251.1,451.4l3.7-0.9l4-1l4-1.1l4-1.1l4-1l4-1l4-0.9l4-0.8l4-0.7l4-0.6l4-0.6l4-0.6l4-0.5l4-0.5l4-0.4l4-0.3
	l4-0.2l4-0.1l4,0l4,0.1l4,0.2l4,0.2l4,0.3l4,0.3l4,0.3l4,0.3l4,0.2l4,0.2l4,0.2l4,0.1l4,0.1l4,0.1l4,0.1l4,0.1l4,0l4,0l4,0l4,0l4,0
	l3,0"/>
<path class="st0" d="M5,450.6l3,0.1l4,0.1l4,0.1l4,0.1l4,0.2l4,0.2l4,0.2l4,0.3l4,0.4l4,0.4l4,0.5l4,0.5l4,0.5l4,0.4l4,0.4l4,0.2
	l4,0.1l4-0.1l4-0.2l4-0.4l4-0.6l4-0.7l4-0.8l4-0.9l4-0.9l4-1l4-1l4-1.1l4-1.1l4-1l4-0.8l4-0.5l4-0.2l4,0.3l4,0.7l4,1.1l4,1.5l4,1.8
	l4,2l4,2.1l4,2l4,1.8l4,1.3l4,0.7l4-0.2l4-1.2l4-2.5l4-2.8l4-2.7l4-2.3l4-1.8l4-1.1l4-0.5l4,0l4,0.5l4,0.8l4,1l4,1.1l4,1.1l4,1.1
	l4,0.9l4,0.7l4,0.5l4,0.3l4,0.1l4-0.2l4-0.3l4-0.5l4-0.6l4-0.6l4-0.5l4-0.4l4-0.3l4-0.2l4,0l4,0.1l4,0.2l4,0.3l4,0.3l4,0.3l4,0.3
	l4,0.3l4,0.2l4,0.2l4,0.1l4,0.1l4,0l4,0l4,0l4-0.1l4-0.1l4-0.1l4-0.1l4-0.1l4,0l4,0l4,0l4,0l4,0l4,0l4,0l3,0"/>
<path class="st0" d="M5,459.5l3,0.1l4,0.1l4,0.1l4,0.1l4,0.1l4,0.2l4,0.2l4,0.2l4,0.3l4,0.3l4,0.3l4,0.2l4,0.2l4,0.2l4,0.1l4,0
	l4-0.1l4-0.2l4-0.2l4-0.3l4-0.3l4-0.3l4-0.3l4-0.2l4-0.1l4-0.1l4,0h4h4h4h4h4h4h4h4h4h4h4h4h4h4h4h4h4h4h4h4h4l4,0l4,0.1l4,0.3
	l4,0.6l4,0.9l4,1.1l4,1.2l4,1.1l4,1l4,0.8l4,0.5l4,0.2l4-0.1l4-0.4l4-0.6l4-0.8l4-0.9l4-0.9l4-1l4-0.9l4-0.9l4-0.8l4-0.7l4-0.6
	l4-0.6l4-0.5l4-0.5l4-0.4l4-0.3l4-0.2l4-0.1l4,0l4,0.1l4,0.2l4,0.3l4,0.3l4,0.4l4,0.4l4,0.3l4,0.3l4,0.3l4,0.2l4,0.2l4,0.1l4,0.1
	l4,0.1l4,0.1l4,0l4,0l4,0l4,0l4,0l4,0l3,0"/>
</svg>
