<?xml version="1.0" encoding="utf-8"?>
<!-- Generator: Adobe Illustrator 23.0.6, SVG Export Plug-In . SVG Version: 6.00 Build 0)  -->
<svg version="1.1" id="Layer_1" xmlns="http://www.w3.org/2000/svg" xmlns:xlink="http://www.w3.org/1999/xlink" x="0px" y="0px"
	 viewBox="0 0 414 552" style="enable-background:new 0 0 414 552;" xml:space="preserve">
<style type="text/css">
	.st0{fill:none;stroke:#FFFFFF;}
</style>
<path class="st0" d="M136.6,141.5l158.7,78.1l23.5,156.2L207,453.8L95.2,375.7l23.5-156.2l158.7-78.1"/>
<path class="st0" d="M136.6,142.8L293,219.5L316.5,373L207,449.8L97.5,373L121,219.5l156.4-76.7"/>
<path class="st0" d="M136.6,144.1l154.1,75.4l23.5,150.8L207,445.7L99.9,370.3l23.5-150.8l154.1-75.4"/>
<path class="st0" d="M136.6,145.4l151.7,74.1l23.5,148.1L207,441.6l-104.8-74.1l23.5-148.1l151.7-74.1"/>
<path class="st0" d="M136.6,146.7L286,219.4l23.5,145.4L207,437.6l-102.5-72.7L128,219.4l149.4-72.7"/>
<path class="st0" d="M136.6,148l147.1,71.4l23.5,142.8L207,433.5l-100.2-71.4l23.5-142.8L277.4,148"/>
<path class="st0" d="M136.6,149.3l144.8,70l23.5,140.1l-97.8,70l-97.8-70l23.5-140.1l144.8-70"/>
<path class="st0" d="M136.6,150.6l142.4,68.7l23.5,137.4L207,425.3l-95.5-68.7l23.5-137.4l142.4-68.7"/>
<path class="st0" d="M136.6,151.9l140.1,67.3l23.5,134.7L207,421.3l-93.2-67.3l23.5-134.7l140.1-67.3"/>
<path class="st0" d="M136.6,153.2l137.8,66l23.5,132l-90.9,66l-90.9-66l23.5-132l137.8-66"/>
<path class="st0" d="M136.6,154.5l135.5,64.7l23.5,129.3L207,413.1l-88.5-64.7l23.5-129.3l135.5-64.7"/>
<path class="st0" d="M136.6,155.8l133.1,63.3l23.5,126.6L207,409.1l-86.2-63.3l23.5-126.6l133.1-63.3"/>
<path class="st0" d="M136.6,157.1l130.8,62L290.9,343L207,405l-83.9-62l23.5-124l130.8-62"/>
<path class="st0" d="M136.6,158.4L265.1,219l23.5,121.3L207,400.9l-81.6-60.6L148.9,219l128.5-60.6"/>
<path class="st0" d="M136.6,159.7L262.8,219l23.5,118.6L207,396.9l-79.2-59.3L151.2,219l126.2-59.3"/>
<path class="st0" d="M136.6,161l123.8,57.9l23.5,115.9L207,392.8l-76.9-57.9l23.5-115.9L277.4,161"/>
<path class="st0" d="M136.6,162.3l121.5,56.6l23.5,113.2L207,388.7l-74.6-56.6l23.5-113.2l121.5-56.6"/>
<path class="st0" d="M136.6,163.6l119.2,55.3l23.5,110.5L207,384.6l-72.3-55.3l23.5-110.5l119.2-55.3"/>
<path class="st0" d="M136.6,164.9l116.8,53.9l23.5,107.8L207,380.6l-69.9-53.9l23.5-107.8l116.8-53.9"/>
<path class="st0" d="M136.6,166.2l114.5,52.6l23.5,105.2L207,376.5l-67.6-52.6l23.5-105.1l114.5-52.6"/>
<path class="st0" d="M136.6,167.5l112.2,51.2l23.5,102.5L207,372.4l-65.3-51.2l23.5-102.5l112.2-51.2"/>
<path class="st0" d="M136.6,168.8l109.9,49.9l23.5,99.8L207,368.4l-62.9-49.9l23.5-99.8l109.9-49.9"/>
<path class="st0" d="M136.6,170.1l107.5,48.5l23.5,97.1L207,364.3l-60.6-48.6l23.5-97.1l107.5-48.5"/>
<path class="st0" d="M136.6,171.4l105.2,47.2l23.5,94.4L207,360.2L148.7,313l23.5-94.4l105.2-47.2"/>
<path class="st0" d="M136.6,172.7l102.9,45.9l23.5,91.7l-56,45.9l-56-45.9l23.5-91.7l102.9-45.9"/>
</svg>
