<?xml version="1.0" encoding="utf-8"?>
<!-- Generator: Adobe Illustrator 23.0.6, SVG Export Plug-In . SVG Version: 6.00 Build 0)  -->
<svg version="1.1" id="Layer_1" xmlns="http://www.w3.org/2000/svg" xmlns:xlink="http://www.w3.org/1999/xlink" x="0px" y="0px"
	 viewBox="0 0 414 552" style="enable-background:new 0 0 414 552;" xml:space="preserve">
<style type="text/css">
	.st0{fill:none;stroke:#FFFFFF;}
</style>
<path class="st0" d="M5,166.2l202-2.5"/>
<path class="st0" d="M207,164.8l202,5.6"/>
<path class="st0" d="M5,175l202,2.6"/>
<path class="st0" d="M207,175.5l202-1.9"/>
<path class="st0" d="M5,184.1l202-1.1"/>
<path class="st0" d="M207,182.1l202-2.6"/>
<path class="st0" d="M5,192.7l202-2.2"/>
<path class="st0" d="M207,195.1l202-1.5"/>
<path class="st0" d="M5,201.8l202-2.1"/>
<path class="st0" d="M207,201.8l202,3.1"/>
<path class="st0" d="M5,210.6l202,3.2"/>
<path class="st0" d="M207,208.9l202,5.9"/>
<path class="st0" d="M5,219.7l202,0.3"/>
<path class="st0" d="M207,215.5l202,5.9"/>
<path class="st0" d="M5,228.6l202-0.4"/>
<path class="st0" d="M207,227.7l202-2.6"/>
<path class="st0" d="M5,237.5l202,2.4"/>
<path class="st0" d="M207,240.4l202-1.8"/>
<path class="st0" d="M5,246.5l202,3.1"/>
<path class="st0" d="M207,247.9l202,2.6"/>
<path class="st0" d="M5,255l202-4.8"/>
<path class="st0" d="M207,254.9l202,0.2"/>
<path class="st0" d="M5,263.9l202-3.4"/>
<path class="st0" d="M207,265.9l202-5.9"/>
<path class="st0" d="M5,273l202,4.1"/>
<path class="st0" d="M207,271.6l202-2.8"/>
<path class="st0" d="M5,281.7l202-3.8"/>
<path class="st0" d="M207,281.1l202,2"/>
<path class="st0" d="M5,290.7l202,3.9"/>
<path class="st0" d="M207,295l202-6.9"/>
<path class="st0" d="M5,299.6l202,3.6"/>
<path class="st0" d="M207,298.4l202,4.7"/>
<path class="st0" d="M5,308.5l202-1.2"/>
<path class="st0" d="M207,306.1l202-0.4"/>
<path class="st0" d="M5,317.5l202,5"/>
<path class="st0" d="M207,322.9l202-7.2"/>
<path class="st0" d="M5,326.5l202,0.2"/>
<path class="st0" d="M207,330.4l202-6.3"/>
<path class="st0" d="M5,335.3l197.7,1.3"/>
<path class="st0" d="M212.8,336.8l196.2-4.2"/>
<path class="st0" d="M5,344.2l202-5.7"/>
<path class="st0" d="M207,339.5l202,2"/>
<path class="st0" d="M5,353.4l202,0.3"/>
<path class="st0" d="M207,350.8l202,0.2"/>
<path class="st0" d="M5,362.2l202,4.7"/>
<path class="st0" d="M207,366.6l202-2.2"/>
<path class="st0" d="M5,371.1l202,5.5"/>
<path class="st0" d="M207,374.9l202-3.8"/>
<path class="st0" d="M5,380l202-2.5"/>
<path class="st0" d="M207,376.6l202,3.4"/>
<path class="st0" d="M5,388.6l202-3.3"/>
<path class="st0" d="M207,386.9l202,0.8"/>
<path class="st0" d="M5,397.6l202-1.2"/>
<path class="st0" d="M207,399.1l202-2"/>
<path class="st0" d="M5,407l202,5.4"/>
<path class="st0" d="M207,408.1l202-4.8"/>
<path class="st0" d="M5,415.5l202-0.8"/>
<path class="st0" d="M207,413.3l202,2.2"/>
<path class="st0" d="M5,424.5l202,3.6"/>
<path class="st0" d="M207,426.1l202-4.6"/>
<path class="st0" d="M5,433.4l202,4.2"/>
<path class="st0" d="M207,429.2l202,3.2"/>
<path class="st0" d="M5,442.3l202-4.4"/>
<path class="st0" d="M207,444.6l202-5.3"/>
<path class="st0" d="M5,451.2l202-5.6"/>
<path class="st0" d="M207,447.2l202,2.7"/>
<path class="st0" d="M5,460l202,3"/>
<path class="st0" d="M207,455.3l202,3"/>
</svg>
