<?xml version="1.0" encoding="utf-8"?>
<!-- Generator: Adobe Illustrator 23.0.6, SVG Export Plug-In . SVG Version: 6.00 Build 0)  -->
<svg version="1.1" id="Layer_1" xmlns="http://www.w3.org/2000/svg" xmlns:xlink="http://www.w3.org/1999/xlink" x="0px" y="0px"
	 viewBox="0 0 414 552" style="enable-background:new 0 0 414 552;" xml:space="preserve">
<style type="text/css">
	.st0{fill:none;stroke:#FFFFFF;stroke-width:0.5;}
</style>
<path class="st0" d="M5,78.9l98.5,1.9L207,76.3l103.5,5.3l98.5-2"/>
<path class="st0" d="M5,91.7l98.5,0.7L207,91.3l103.5-1.6l98.5,0.7"/>
<path class="st0" d="M5,104.1l98.5-1.1l103.5,1.7l103.5-2l98.5,1.3"/>
<path class="st0" d="M5,116.5l98.5,0.7l103.5-0.2l103.5-0.5l98.5,0.1"/>
<path class="st0" d="M5,129.2l98.5,0.3l103.5-0.3l103.5,0l98.5,0.4"/>
<path class="st0" d="M5,142l98.5,0.2l103.5-0.4l103.5,0.4l98.5-0.2"/>
<path class="st0" d="M5,154.7l98.5,0.1l103.5-0.1l103.5,0.1l98.5-0.2"/>
<path class="st0" d="M5,167.5l98.5,0.1l103.5,0l103.5,0.1l98.5-0.1"/>
<path class="st0" d="M5,180.2l98.5,0l103.5,0l103.5,0l98.5,0"/>
<path class="st0" d="M5,192.9l98.5,0l103.5,0l103.5,0l98.5,0"/>
<path class="st0" d="M5,205.6l98.5,0l103.5,0l103.5,0l98.5,0"/>
<path class="st0" d="M5,218.4l98.5,0l103.5,0l103.5,0l98.5,0"/>
<path class="st0" d="M5,231.1l98.5,0l103.5,0l103.5,0l98.5,0"/>
<path class="st0" d="M5,243.8l98.5,0l103.5,0l103.5,0l98.5,0"/>
<path class="st0" d="M5,256.5l98.5,0l103.5,0l103.5,0l98.5,0"/>
<path class="st0" d="M5,269.2l98.5,0l103.5,0l103.5,0l98.5,0"/>
<path class="st0" d="M5,281.9l98.5,0l103.5,0l103.5,0l98.5,0"/>
<path class="st0" d="M5,294.7l98.5,0l103.5,0l103.5,0l98.5,0"/>
<path class="st0" d="M5,307.4l98.5,0l103.5,0l103.5,0H409"/>
<path class="st0" d="M5,320.1l98.5,0l103.5,0h103.5l98.5,0"/>
<path class="st0" d="M5,332.8h98.5H207h103.5H409"/>
<path class="st0" d="M5,345.5h98.5H207h103.5H409"/>
<path class="st0" d="M5,358.3h98.5H207h103.5H409"/>
<path class="st0" d="M5,371h98.5H207h103.5H409"/>
<path class="st0" d="M5,383.7h98.5H207h103.5H409"/>
<path class="st0" d="M5,396.4h98.5H207h103.5H409"/>
<path class="st0" d="M5,409.1h98.5H207h103.5H409"/>
<path class="st0" d="M5,421.8h98.5H207h103.5H409"/>
<path class="st0" d="M5,434.6h98.5H207h103.5H409"/>
<path class="st0" d="M5,447.3h98.5H207h103.5H409"/>
<path class="st0" d="M5,460h98.5H207h103.5H409"/>
</svg>
