<?xml version="1.0" encoding="utf-8"?>
<!-- Generator: Adobe Illustrator 23.0.6, SVG Export Plug-In . SVG Version: 6.00 Build 0)  -->
<svg version="1.1" id="Layer_1" xmlns="http://www.w3.org/2000/svg" xmlns:xlink="http://www.w3.org/1999/xlink" x="0px" y="0px"
	 viewBox="0 0 414 552" style="enable-background:new 0 0 414 552;" xml:space="preserve">
<style type="text/css">
	.st0{fill:none;stroke:#FFFFFF;}
</style>
<path class="st0" d="M78.7,188.8l37.4-10.2l56.7-16.4l68.6,0l56.7,16.4l37.4,10.2"/>
<path class="st0" d="M78.7,191.4l39.1-8.9l56-14.4l66.5,0l56,14.4l39.1,8.9"/>
<path class="st0" d="M78.7,193.9l40.8-7.6l55.3-12.4l64.3,0l55.3,12.3l40.8,7.6"/>
<path class="st0" d="M78.7,196.5l42.6-6.4l54.7-10.3l62.2,0l54.7,10.3l42.6,6.4"/>
<path class="st0" d="M78.7,199l44.3-5.1l54-8.3l60,0l54,8.3l44.3,5.1"/>
<path class="st0" d="M78.7,201.6l46-3.8l53.4-6.3l57.9,0l53.4,6.2l46,3.9"/>
<path class="st0" d="M78.7,204.1l47.8-2.6l52.7-4.2l55.7,0l52.7,4.2l47.8,2.6"/>
<path class="st0" d="M78.7,206.7l49.5-1.3l52-2.2l53.6,0l52,2.1l49.5,1.3"/>
<path class="st0" d="M78.7,209.2l51.2-0.1l51.4-0.1l51.5,0l51.4,0.1l51.2,0.1"/>
<path class="st0" d="M78.7,211.8l53,1.1l50.7,2l49.3,0l50.7-1.9l53-1.2"/>
<path class="st0" d="M78.7,214.3l54.7,2.5l50,4l47.2,0l50.1-4l54.7-2.5"/>
<path class="st0" d="M78.7,216.9l56.3,3.5l49.5,6.1l45,0.1l49.4-6l56.4-3.7"/>
<path class="st0" d="M78.7,219.4l58.2,5.1l48.7,8.1l42.8-0.1l48.7-8.1l58.2-5"/>
<path class="st0" d="M78.7,222l59.9,6.3l48,9.8l40.8,0.2l48.1-10l59.9-6.2"/>
<path class="st0" d="M78.7,224.6l61.8,7.7l47.3,12.2l38.5-0.3l47.4-12.2l61.7-7.5"/>
<path class="st0" d="M78.7,227l63.1,8.3l46.9,14.1l36.6,0.5l46.7-14.1l63.4-8.8"/>
<path class="st0" d="M78.7,229.7l65.2,10.2l46,16.3l34.2-0.2l46.1-16.2l65.1-10"/>
<path class="st0" d="M78.7,232.2l66.9,11.3l45.3,18l32.2,0.3l45.4-18.3l66.9-11.3"/>
<path class="st0" d="M78.7,234.9l68.6,12.5l44.7,20.1l30,0.2l44.8-20.3l68.6-12.5"/>
<path class="st0" d="M78.7,237.3l70.1,13.4l44.2,22.6l27.9,0l44.1-22.2l70.3-13.8"/>
<path class="st0" d="M78.7,239.9l72.6,16.2l43.1,24.2l25.5-0.9l43.4-24.4l72.1-15.1"/>
<path class="st0" d="M78.7,242.5l73.9,16.3l42.8,26.6l23.5-0.4l42.7-26.3l73.8-16.3"/>
<path class="st0" d="M78.7,245.1l76.2,18.8l41.3,26.2l21.6,1l42.1-28.6l75.5-17.6"/>
<path class="st0" d="M78.7,247.4l76.9,18.3l42,32.4l19.1-1.1l41.4-30.5l77.3-18.8"/>
<path class="st0" d="M78.7,250.2l77.7,17.1l42,34.7l17.2,0.9l40.8-32.7l79-20.1"/>
<path class="st0" d="M78.7,252.5l81.5,23.3l39,31.4l15.3,1.1l40.1-34.3l80.7-21.4"/>
<path class="st0" d="M78.7,255.3l83.1,23.7l39.1,36.7l12.6-1.1l39.5-36.8l82.5-22.6"/>
<path class="st0" d="M78.7,258.1l84,23.1l39.2,40.5l10.5-2l38.7-38.2l84.2-23.9"/>
<path class="st0" d="M78.7,260.5l82.6,17.5l41.1,45.8l8.9,2.6l38.2-41l85.9-25.1"/>
<path class="st0" d="M78.7,262.6l90.3,32.3l35,37.9l6.2-0.6l37.5-43l87.7-26.4"/>
<path class="st0" d="M78.7,265.4l89.4,27.6l36.8,44.8h4.3l36.8-44.8l89.4-27.7"/>
</svg>
