<?xml version="1.0" encoding="utf-8"?>
<!-- Generator: Adobe Illustrator 23.0.6, SVG Export Plug-In . SVG Version: 6.00 Build 0)  -->
<svg version="1.1" id="Layer_1" xmlns="http://www.w3.org/2000/svg" xmlns:xlink="http://www.w3.org/1999/xlink" x="0px" y="0px"
	 viewBox="0 0 800 800" style="enable-background:new 0 0 800 800;" xml:space="preserve">
<style type="text/css">
	.st0{fill:none;stroke:#FFFFFF;stroke-width:1.1339;}
</style>
<g>
	<desc>
		pwidth:800;pheight:800;pcolor:;seed:10};sf:i+i*7;rf:10*sin(i/2);xf:400;yf:400;qt:37;sd:14;rn:0.8;minrd:20;maxrd:50;mina:0;maxa:360;cv:curveCardinalClosed;rd:false
		</desc>
	<path class="st0" d="M408.7,418c0.5-0.3,6.6-5.1,7-5.5c0.4-0.5,3.7-7.5,3.9-8s0.1-8.3,0-8.9s-3.5-7.6-3.9-8c-0.4-0.5-6.4-5.3-7-5.5
		c-0.5-0.3-8.1-2-8.7-2s-8.2,1.7-8.7,2c-0.5,0.3-6.6,5.1-7,5.5c-0.4,0.5-3.7,7.5-3.9,8s-0.1,8.3,0,8.9s3.5,7.6,3.9,8
		c0.4,0.5,6.4,5.3,7,5.5c0.5,0.3,8.1,2,8.7,2S408.2,418.3,408.7,418"/>
	<path class="st0" d="M414.2,424.1c0.7-0.4,8.6-7.9,9.1-8.5c0.5-0.7,4.3-10.8,4.5-11.6c0.1-0.8-0.8-11.6-1-12.4
		c-0.2-0.8-5.8-10.2-6.3-10.7c-0.6-0.6-9.6-6.6-10.4-6.9c-0.8-0.3-11.5-1.8-12.3-1.8s-11.2,3.4-11.9,3.8c-0.7,0.4-8.6,7.9-9.1,8.5
		c-0.5,0.7-4.3,10.8-4.5,11.6c-0.1,0.8,0.8,11.6,1,12.4c0.2,0.8,5.8,10.2,6.3,10.7c0.6,0.6,9.6,6.6,10.4,6.9
		c0.8,0.3,11.5,1.8,12.3,1.8S413.5,424.5,414.2,424.1"/>
	<path class="st0" d="M420.2,429.8c0.9-0.6,10.4-10.8,10.9-11.7c0.5-0.9,4.7-14.3,4.8-15.3c0.1-1-2-14.9-2.3-15.9
		c-0.4-1-8.2-12.5-9-13.3c-0.8-0.7-12.9-7.7-13.9-8c-1-0.3-14.9-1.4-16-1.2c-1,0.1-14.1,5.2-14.9,5.8c-0.9,0.6-10.4,10.8-10.9,11.7
		c-0.5,0.9-4.7,14.3-4.8,15.3c-0.1,1,2,14.9,2.3,15.9c0.4,1,8.2,12.5,9,13.3c0.8,0.7,12.9,7.7,13.9,8c1,0.3,14.9,1.4,16,1.2
		C406.3,435.5,419.3,430.4,420.2,429.8"/>
	<path class="st0" d="M425.7,435.7c1-0.8,12.3-13.6,13-14.7c0.6-1.1,5.3-17.6,5.3-18.9c0.1-1.3-2.9-18.1-3.4-19.3
		c-0.5-1.2-10.5-15.1-11.4-15.9c-1-0.8-16-9-17.2-9.4c-1.2-0.4-18.3-1.2-19.6-1c-1.3,0.2-17,6.8-18.1,7.6c-1,0.8-12.3,13.6-13,14.7
		c-0.6,1.1-5.3,17.6-5.3,18.9c-0.1,1.3,2.9,18.1,3.4,19.3c0.5,1.2,10.5,15.1,11.4,15.9c1,0.8,16,9,17.2,9.4c1.2,0.4,18.3,1.2,19.6,1
		C408.9,443.1,424.6,436.5,425.7,435.7"/>
	<path class="st0" d="M429.7,442.7c1.2-0.9,14.9-15.8,15.6-17.1c0.7-1.3,6.5-20.7,6.6-22.2c0.1-1.5-3.1-21.5-3.7-22.9
		c-0.6-1.4-12.1-18-13.2-19c-1.1-1-18.7-11-20.1-11.4c-1.4-0.4-21.6-1.8-23.1-1.5c-1.5,0.2-20.2,7.8-21.5,8.6
		c-1.2,0.9-14.9,15.8-15.6,17.1c-0.7,1.3-6.5,20.7-6.6,22.2c-0.1,1.5,3.1,21.5,3.7,22.9c0.6,1.4,12.1,18,13.2,19
		c1.1,1,18.7,11,20.1,11.4c1.4,0.4,21.6,1.8,23.1,1.5C409.7,451.1,428.5,443.5,429.7,442.7"/>
	<path class="st0" d="M431.5,451c1.5-0.9,18.1-17.3,19-18.7c0.9-1.5,8.8-23.4,9-25.1c0.2-1.7-2.2-24.9-2.8-26.6
		c-0.6-1.6-12.8-21.5-14-22.7c-1.2-1.2-20.9-13.8-22.5-14.4c-1.6-0.6-24.8-3.4-26.5-3.2c-1.7,0.2-23.8,7.7-25.3,8.6
		c-1.5,0.9-18.1,17.3-19,18.7c-0.9,1.5-8.8,23.4-9,25.1c-0.2,1.7,2.2,24.9,2.8,26.6c0.6,1.6,12.8,21.5,14,22.7
		c1.2,1.2,20.9,13.8,22.5,14.4c1.6,0.6,24.8,3.4,26.5,3.2C408,459.5,430,452,431.5,451"/>
	<path class="st0" d="M431,460.5c1.8-0.9,22-17.9,23.2-19.4c1.2-1.6,12.1-25.7,12.5-27.6c0.4-1.9-0.3-28.3-0.8-30.3
		c-0.5-1.9-12.5-25.4-13.8-26.9c-1.3-1.5-22.3-17.5-24.1-18.3c-1.8-0.8-27.7-6.1-29.7-6c-2,0.1-27.6,6.6-29.3,7.5
		c-1.8,0.9-22,17.9-23.2,19.4c-1.2,1.6-12.1,25.7-12.5,27.6c-0.4,1.9,0.3,28.3,0.8,30.3c0.5,1.9,12.5,25.4,13.8,26.9
		c1.3,1.5,22.3,17.5,24.1,18.3c1.8,0.8,27.7,6.1,29.7,6C403.6,467.9,429.3,461.4,431,460.5"/>
	<path class="st0" d="M428.7,470.4c2-0.8,26.2-17.8,27.7-19.4s15.9-27.4,16.5-29.5c0.6-2.1,2.4-31.6,2.1-33.8
		c-0.4-2.2-11.5-29.5-12.8-31.3c-1.3-1.8-23.2-21.6-25.1-22.7c-1.9-1.1-30.3-9.4-32.5-9.5c-2.2-0.1-31.3,4.7-33.4,5.5
		c-2,0.8-26.2,17.8-27.7,19.4s-15.9,27.4-16.5,29.5c-0.6,2.1-2.4,31.6-2.1,33.8c0.4,2.2,11.5,29.5,12.8,31.3
		c1.3,1.8,23.2,21.6,25.1,22.7c1.9,1.1,30.3,9.4,32.5,9.5C397.5,476,426.7,471.2,428.7,470.4"/>
	<path class="st0" d="M426.2,479.8c2.3-0.8,30.3-17.6,32-19.3c1.8-1.7,19.7-29,20.5-31.3c0.9-2.3,5.1-34.6,4.9-37
		c-0.2-2.4-10.4-33.4-11.6-35.5c-1.3-2.1-23.9-25.6-25.9-27c-2-1.3-32.6-12.7-35-13c-2.4-0.3-34.9,2.7-37.2,3.4
		c-2.3,0.8-30.3,17.6-32,19.3c-1.8,1.7-19.7,29-20.5,31.3c-0.9,2.3-5.1,34.6-4.9,37c0.2,2.4,10.4,33.4,11.6,35.5
		c1.3,2.1,23.9,25.6,25.9,27c2,1.3,32.6,12.7,35,13C391.4,483.6,423.9,480.6,426.2,479.8"/>
	<path class="st0" d="M425.3,488.5c2.6-0.7,33.9-17.9,35.9-19.7c2-1.8,22.7-30.9,23.8-33.3c1-2.4,7.1-37.7,6.9-40.4
		c-0.1-2.6-10-37-11.3-39.4c-1.3-2.3-25-29-27.2-30.6c-2.2-1.5-35.2-15.3-37.8-15.8c-2.6-0.5-38.3,1.5-40.9,2.2
		c-2.6,0.7-33.9,17.9-35.9,19.7c-2,1.8-22.7,30.9-23.8,33.3c-1,2.4-7.1,37.7-6.9,40.4c0.1,2.6,10,37,11.3,39.4
		c1.3,2.3,25,29,27.2,30.6c2.2,1.5,35.2,15.3,37.8,15.8C387,491.1,422.7,489.2,425.3,488.5"/>
	<path class="st0" d="M427.8,496.1c2.8-0.8,36.8-19.6,38.9-21.6c2.2-1.9,24.6-33.6,25.7-36.3c1.1-2.7,7.6-41,7.4-43.9
		c-0.2-2.9-11-40.2-12.4-42.8c-1.4-2.5-27.3-31.5-29.7-33.2c-2.4-1.7-38.3-16.5-41.1-17c-2.9-0.5-41.6,1.7-44.4,2.5
		c-2.8,0.8-36.8,19.6-38.9,21.6c-2.2,1.9-24.6,33.6-25.7,36.3c-1.1,2.7-7.6,41-7.4,43.9c0.2,2.9,11,40.2,12.4,42.8
		c1.4,2.5,27.3,31.5,29.7,33.2c2.4,1.7,38.3,16.5,41.1,17C386.2,499.1,425,496.9,427.8,496.1"/>
	<path class="st0" d="M434.5,502.3c3-1,38.7-22.9,41-25.1c2.2-2.2,25-37.5,26-40.4c1.1-2.9,6.2-44.6,5.9-47.7
		c-0.3-3.1-13.8-42.9-15.4-45.5c-1.6-2.7-31-32.7-33.6-34.4c-2.6-1.7-42.1-16-45.2-16.4c-3.1-0.4-44.9,3.9-47.8,4.9
		c-3,1-38.7,22.9-41,25.1c-2.2,2.2-25,37.5-26,40.4c-1.1,2.9-6.2,44.6-5.9,47.7c0.3,3.1,13.8,42.9,15.4,45.5
		c1.6,2.7,31,32.7,33.6,34.4c2.6,1.7,42.1,16,45.2,16.4C389.8,507.6,431.6,503.3,434.5,502.3"/>
	<path class="st0" d="M445.2,506.8c3.1-1.3,39.7-27.7,41.9-30.2s23.7-42.1,24.6-45.4c0.9-3.2,3.1-48.3,2.5-51.6
		c-0.6-3.3-18.1-44.8-20.1-47.6c-2-2.7-35.8-32.5-38.7-34.1c-2.9-1.6-46.4-13.8-49.7-13.9c-3.4-0.2-47.7,7.7-50.8,9
		s-39.7,27.7-41.9,30.2s-23.7,42.1-24.6,45.4c-0.9,3.2-3.1,48.3-2.5,51.6c0.6,3.3,18.1,44.8,20.1,47.6c2,2.7,35.8,32.5,38.7,34.1
		c2.9,1.6,46.4,13.8,49.7,13.9C397.7,516,442.1,508.1,445.2,506.8"/>
	<path class="st0" d="M458,509.6c3.2-1.7,39.7-33.1,41.8-36c2.1-2.9,21.4-47.1,22.1-50.6c0.7-3.5-1.1-51.7-2.1-55.1
		c-0.9-3.5-23.5-46.1-25.8-48.8s-41.1-31.3-44.4-32.8c-3.3-1.4-50.6-10.4-54.2-10.3c-3.6,0.1-50.1,12.6-53.3,14.3
		c-3.2,1.7-39.7,33.1-41.8,36c-2.1,2.9-21.4,47.1-22.1,50.6c-0.7,3.5,1.1,51.7,2.1,55.1c0.9,3.5,23.4,46.1,25.8,48.8
		s41.1,31.3,44.4,32.8c3.3,1.4,50.6,10.4,54.2,10.3C408.2,523.8,454.8,511.3,458,509.6"/>
	<path class="st0" d="M470.5,511.6c3.2-2,39.4-38.4,41.4-41.6c2-3.2,18.8-51.7,19.3-55.5c0.4-3.8-5.5-54.8-6.7-58.4
		c-1.3-3.6-28.7-47-31.4-49.7c-2.7-2.7-46.2-29.9-49.8-31.1c-3.6-1.3-54.6-6.9-58.4-6.4c-3.8,0.4-52.2,17.5-55.4,19.5
		c-3.2,2-39.4,38.4-41.4,41.6c-2,3.2-18.9,51.7-19.3,55.5c-0.4,3.8,5.5,54.8,6.7,58.4c1.3,3.6,28.7,47,31.4,49.7
		c2.7,2.7,46.2,29.9,49.8,31.1c3.6,1.3,54.6,6.9,58.4,6.4C418.9,530.7,467.3,513.6,470.5,511.6"/>
	<path class="st0" d="M480.5,514.5c3.3-2.3,39.8-42.7,41.7-46.3c2-3.5,17.3-55.8,17.5-59.8c0.3-4-8.6-57.7-10.1-61.5
		c-1.5-3.8-32.8-48.3-35.8-51c-3-2.7-50.5-29.3-54.4-30.4c-3.9-1.1-58.2-4.4-62.2-3.8c-4,0.7-54.4,21.3-57.7,23.6
		c-3.3,2.3-39.8,42.7-41.7,46.3c-2,3.5-17.3,55.8-17.5,59.8c-0.3,4,8.6,57.7,10.1,61.5s32.8,48.3,35.8,51c3,2.7,50.5,29.3,54.4,30.4
		c3.9,1.1,58.2,4.4,62.2,3.8C426.8,537.5,477.2,516.9,480.5,514.5"/>
	<path class="st0" d="M486.2,520.3c3.5-2.5,41.6-45.6,43.7-49.3c2.1-3.8,17.7-59.1,18-63.4c0.2-4.3-9.7-60.9-11.3-64.9
		c-1.7-3.9-35.1-50.7-38.3-53.6c-3.2-2.8-53.7-30.4-57.8-31.6c-4.1-1.2-61.6-4.1-65.8-3.4c-4.2,0.7-57.3,23-60.7,25.5
		c-3.5,2.5-41.6,45.5-43.7,49.3c-2,3.8-17.7,59.1-17.9,63.4c-0.2,4.3,9.7,60.9,11.3,64.9c1.7,3.9,35.1,50.7,38.3,53.6
		c3.2,2.8,53.7,30.4,57.8,31.6c4.1,1.2,61.6,4.1,65.8,3.4C429.6,545.1,482.7,522.8,486.2,520.3"/>
	<path class="st0" d="M486.5,529.8c3.8-2.5,45.5-46.5,47.7-50.4c2.3-3.9,20.8-61.6,21.2-66.1c0.4-4.5-8-64.5-9.7-68.8
		c-1.6-4.2-35.2-54.7-38.5-57.8c-3.3-3.1-55.5-34-59.8-35.3c-4.3-1.4-64.7-6.5-69.2-5.9c-4.5,0.6-61.1,22.2-64.9,24.7
		c-3.8,2.5-45.5,46.5-47.7,50.4c-2.3,3.9-20.8,61.6-21.1,66.1c-0.4,4.5,8,64.5,9.7,68.8c1.6,4.2,35.2,54.7,38.5,57.8
		c3.3,3.1,55.5,34,59.8,35.3c4.3,1.4,64.7,6.5,69.2,5.9C426.1,553.9,482.8,532.3,486.5,529.8"/>
	<path class="st0" d="M481.6,542.3c4.1-2.4,51-45.6,53.6-49.5c2.7-3.9,26.1-63.2,26.9-67.9c0.7-4.7-3.9-68.3-5.3-72.8
		c-1.4-4.5-33.1-59.8-36.3-63.3c-3.2-3.5-55.8-39.5-60.2-41.3s-67.4-11.4-72.1-11.1c-4.7,0.3-65.7,19-69.8,21.3
		c-4.1,2.4-51,45.6-53.6,49.5c-2.7,3.9-26.1,63.2-26.9,67.9s3.9,68.3,5.3,72.8c1.4,4.5,33.1,59.8,36.3,63.3
		c3.2,3.5,55.8,39.5,60.2,41.3s67.4,11.4,72.1,11.1C416.5,563.2,477.5,544.6,481.6,542.3"/>
	<path class="st0" d="M472.6,555.9c4.5-2.1,57.3-43.1,60.5-46.9c3.2-3.8,32.9-63.7,34.1-68.5c1.2-4.8,2-71.7,1-76.5
		c-1-4.9-29.3-65.5-32.3-69.4s-54.8-46.3-59.2-48.5c-4.4-2.2-69.4-17.9-74.4-18c-5-0.1-70.3,14-74.9,16.1
		c-4.5,2.1-57.3,43.1-60.5,46.9c-3.1,3.8-32.9,63.7-34.1,68.5s-2.1,71.7-1,76.5c1,4.9,29.3,65.5,32.3,69.4
		c3,3.9,54.8,46.3,59.2,48.5c4.4,2.2,69.4,18,74.4,18C402.7,572,468.1,558,472.6,555.9"/>
	<path class="st0" d="M462.4,568.8c4.9-1.8,63.5-40,67.1-43.8c3.6-3.7,39.8-63.6,41.4-68.5c1.6-4.9,8.3-74.6,7.6-79.8
		c-0.7-5.2-24.9-70.8-27.8-75.1c-2.8-4.4-53.2-53-57.6-55.7c-4.4-2.7-70.9-24.7-76-25.2c-5.2-0.5-74.6,8.5-79.4,10.3
		c-4.9,1.8-63.5,40-67.1,43.8c-3.6,3.7-39.8,63.6-41.4,68.5c-1.6,4.9-8.3,74.6-7.6,79.8c0.7,5.2,24.9,70.8,27.8,75.1
		c2.9,4.4,53.2,53,57.6,55.7c4.4,2.7,70.9,24.7,76,25.2C388.1,579.7,457.5,570.7,462.4,568.8"/>
	<path class="st0" d="M454.7,579.9c5.2-1.6,68.6-37.9,72.6-41.5c4-3.7,45.4-63.9,47.4-69c2-5,13.2-77.3,12.8-82.7
		c-0.4-5.4-21.7-75.3-24.4-80c-2.7-4.7-52.2-58.5-56.7-61.6c-4.5-3.1-72.4-30.1-77.8-30.9c-5.4-0.8-78.3,4.3-83.5,5.9
		c-5.2,1.6-68.6,37.9-72.6,41.5c-4,3.7-45.4,63.9-47.4,69c-2,5-13.2,77.3-12.8,82.7c0.4,5.4,21.6,75.3,24.4,80
		c2.7,4.7,52.2,58.5,56.7,61.5c4.5,3.1,72.4,30.1,77.8,30.9C376.6,586.6,449.5,581.5,454.7,579.9"/>
	<path class="st0" d="M453.1,588.7c5.5-1.5,72.4-38,76.6-41.7s48.7-65.6,50.9-70.8c2.2-5.2,15.4-80.2,15.2-85.9
		c-0.3-5.7-20.9-79-23.6-84c-2.7-5-53.1-62.1-57.7-65.4c-4.6-3.3-74.8-32.9-80.4-33.9c-5.6-1-81.7,2.8-87.1,4.4
		c-5.5,1.5-72.4,38-76.6,41.7c-4.3,3.8-48.7,65.6-50.9,70.8c-2.2,5.2-15.4,80.2-15.1,85.9c0.3,5.7,20.9,79,23.6,84
		c2.7,5,53.1,62.1,57.7,65.4c4.6,3.3,74.8,32.9,80.4,33.9C371.5,594,447.6,590.2,453.1,588.7"/>
	<path class="st0" d="M459.5,595.1c5.6-1.7,74.4-41.2,78.8-45.1c4.3-4,49.2-69.4,51.4-74.8c2.2-5.5,14.2-83.9,13.8-89.7
		c-0.4-5.9-23.5-81.7-26.5-86.8c-2.9-5.1-56.7-63.4-61.5-66.8c-4.9-3.3-78.6-32.6-84.4-33.4c-5.8-0.9-84.9,4.8-90.6,6.5
		c-5.6,1.7-74.4,41.2-78.8,45.1c-4.3,4-49.2,69.4-51.4,74.8c-2.2,5.5-14.2,83.9-13.8,89.7c0.4,5.9,23.6,81.7,26.5,86.8
		c2.9,5.1,56.7,63.4,61.5,66.8c4.9,3.3,78.6,32.5,84.4,33.4C374.8,602.5,453.9,596.8,459.5,595.1"/>
	<path class="st0" d="M473.7,598.8c5.8-2.1,74.7-47.3,78.9-51.7c4.3-4.4,46.8-75,48.7-80.8c1.9-5.8,9.6-87.9,8.8-93.9
		c-0.8-6.1-29.5-83.3-32.8-88.5s-62.7-62.3-67.9-65.5c-5.3-3.2-83.5-28.9-89.6-29.5c-6.1-0.6-87.8,10.2-93.5,12.3
		c-5.8,2.1-74.7,47.3-78.9,51.7c-4.3,4.4-46.8,75-48.7,80.8c-1.9,5.8-9.6,87.9-8.8,93.9c0.8,6.1,29.4,83.3,32.8,88.5
		c3.4,5.1,62.7,62.3,67.9,65.5c5.3,3.2,83.5,28.9,89.6,29.5C386.3,611.6,468,600.9,473.7,598.8"/>
	<path class="st0" d="M493.1,599.3c5.8-2.7,73.2-55.2,77.3-60.1c4-4.9,42-81.5,43.5-87.7c1.5-6.2,2.5-91.7,1.1-97.9
		c-1.3-6.2-37.5-83.7-41.5-88.7c-3.9-5-70.1-59.1-75.8-61.9c-5.7-2.8-88.8-22.8-95.2-22.9c-6.4-0.1-89.9,18-95.7,20.7
		c-5.8,2.7-73.2,55.2-77.3,60.2c-4,4.9-42,81.5-43.5,87.7c-1.5,6.2-2.5,91.7-1.1,97.9c1.3,6.2,37.5,83.7,41.5,88.7
		c3.9,5,70.1,59.1,75.8,61.9c5.7,2.8,88.8,22.8,95.2,22.9C403.8,620.1,487.4,602,493.1,599.3"/>
	<path class="st0" d="M513.7,597.6c5.7-3.3,70.8-63.5,74.5-68.9c3.7-5.4,36.2-87.9,37.2-94.4c1-6.5-5.5-94.9-7.4-101.2
		c-1.9-6.3-46.1-83.1-50.6-87.9c-4.5-4.8-77.6-54.9-83.8-57.3c-6.1-2.4-93.7-15.8-100.3-15.3c-6.6,0.5-91.3,26.5-97,29.8
		c-5.7,3.3-70.8,63.5-74.5,68.9c-3.7,5.4-36.2,87.9-37.2,94.4c-1,6.5,5.5,94.9,7.4,101.2c1.9,6.3,46.1,83.1,50.6,88
		c4.5,4.8,77.6,54.9,83.8,57.3c6.1,2.4,93.7,15.8,100.3,15.3C423.3,626.9,508,600.9,513.7,597.6"/>
	<path class="st0" d="M531.1,596.2c5.7-3.8,68.7-70.4,72.2-76.3c3.5-5.9,31.3-93.3,31.9-100.1c0.6-6.8-12.3-97.6-14.7-104
		c-2.4-6.4-53.4-82.6-58.4-87.3c-5-4.7-84-51.3-90.5-53.4c-6.5-2.1-97.9-9.8-104.7-8.8c-6.8,0.9-92.5,33.7-98.1,37.5
		c-5.7,3.8-68.7,70.4-72.2,76.3c-3.5,5.9-31.3,93.3-31.9,100.1c-0.6,6.8,12.3,97.6,14.7,104c2.4,6.4,53.4,82.6,58.4,87.3
		c5,4.7,84,51.3,90.5,53.4c6.5,2.1,97.9,9.8,104.7,8.8C439.8,632.7,525.5,600,531.1,596.2"/>
	<path class="st0" d="M542.1,598.3c5.7-4.1,68.6-75.1,72-81.3c3.4-6.2,29.2-97.4,29.6-104.5c0.4-7-16-100.5-18.7-107
		c-2.7-6.5-58-83.6-63.3-88.3c-5.3-4.7-88.5-50.2-95.3-52.1S365,158.4,358,159.6c-6.9,1.2-94.4,37.9-100.1,42
		c-5.7,4.1-68.6,75.1-72,81.3c-3.4,6.2-29.2,97.4-29.6,104.5c-0.4,7,15.9,100.5,18.7,107c2.7,6.5,58,83.6,63.3,88.3
		c5.3,4.7,88.5,50.2,95.3,52.1c6.8,1.9,101.5,6.8,108.5,5.6C448.9,639.2,536.4,602.5,542.1,598.3"/>
	<path class="st0" d="M544.8,606.3c6-4.2,71.6-76.9,75.2-83.2c3.6-6.4,31.2-100.3,31.6-107.6c0.4-7.3-15.5-103.9-18.2-110.7
		c-2.8-6.8-59-86.9-64.4-91.8c-5.4-4.9-90.9-52.7-97.9-54.8c-7-2.1-104.7-8.1-111.9-6.9c-7.2,1.2-97.9,38.2-103.8,42.4
		c-6,4.2-71.6,76.9-75.2,83.2c-3.6,6.4-31.2,100.3-31.6,107.6c-0.4,7.3,15.5,103.9,18.2,110.7c2.8,6.8,59,86.9,64.4,91.8
		c5.4,4.9,90.9,52.7,97.9,54.8c7,2.1,104.7,8.1,111.9,6.9C448.1,647.5,538.8,610.5,544.8,606.3"/>
	<path class="st0" d="M538.6,620c6.4-4,77.7-75.5,81.7-81.9c4-6.4,37.2-101.8,38.1-109.3c0.8-7.5-10.6-107.9-13.1-115
		c-2.5-7.1-56.4-92.6-61.7-97.9c-5.3-5.3-90.9-59-98.1-61.4c-7.1-2.5-107.5-13.7-115-12.8c-7.5,0.9-102.8,34.4-109.2,38.4
		c-6.4,4-77.7,75.6-81.7,81.9c-4,6.4-37.2,101.8-38.1,109.3c-0.8,7.5,10.6,107.9,13.1,115c2.5,7.1,56.4,92.6,61.7,97.9
		c5.3,5.3,90.9,59,98.1,61.4c7.1,2.5,107.5,13.7,115,12.8C436.9,657.5,532.3,624,538.6,620"/>
	<path class="st0" d="M524.9,637.1c6.9-3.6,85.9-71.4,90.5-77.7c4.6-6.2,46.4-101.6,47.9-109.3c1.5-7.6-2.3-111.7-4.3-119.2
		c-2-7.5-50.5-99.6-55.6-105.5c-5-5.9-88.8-67.8-95.9-71c-7.1-3.1-109.4-22.6-117.2-22.3c-7.7,0.3-108.4,27.1-115.2,30.7
		c-6.9,3.6-85.9,71.4-90.5,77.7c-4.6,6.2-46.4,101.6-47.8,109.3c-1.5,7.6,2.3,111.7,4.3,119.2c2,7.5,50.5,99.6,55.6,105.5
		c5,5.9,88.8,67.8,95.9,71c7.1,3.1,109.4,22.6,117.2,22.3C417.4,667.5,518,640.7,524.9,637.1"/>
	<path class="st0" d="M507.1,654.4c7.4-3.1,94.5-65.7,99.8-71.7c5.3-6,56.6-100.2,58.8-107.9c2.2-7.7,7.6-114.8,6.2-122.7
		c-1.4-7.9-43-106.7-47.7-113.2c-4.7-6.5-85.1-77.5-92.1-81.3c-7-3.8-110.3-32.9-118.2-33.3c-8-0.4-113.6,18.2-121,21.3
		c-7.4,3.1-94.5,65.7-99.8,71.7c-5.3,6-56.6,100.2-58.8,107.8c-2.2,7.7-7.5,114.8-6.2,122.7c1.4,7.9,43,106.7,47.7,113.2
		c4.7,6.5,85.1,77.5,92.1,81.3c7,3.8,110.3,32.9,118.2,33.3C394.1,676,499.8,657.5,507.1,654.4"/>
	<path class="st0" d="M490.6,669.2c7.8-2.6,101.9-60.2,107.8-66c5.9-5.7,65.7-98.5,68.5-106.2c2.8-7.7,16.5-117.3,15.7-125.4
		c-0.8-8.2-36-112.8-40.3-119.8c-4.3-7-81.4-86-88.3-90.4c-6.9-4.5-110.6-42.2-118.8-43.2c-8.1-1-118,10-125.8,12.6
		c-7.8,2.6-101.9,60.2-107.8,65.9s-65.7,98.5-68.5,106.2c-2.8,7.7-16.5,117.3-15.7,125.4c0.8,8.2,36,112.8,40.3,119.8
		c4.3,7,81.4,86,88.3,90.4c6.9,4.5,110.6,42.2,118.8,43.2S482.8,671.8,490.6,669.2"/>
	<path class="st0" d="M481,680.5c8.1-2.3,107.4-57.3,113.7-62.9c6.3-5.6,71.9-98.2,75.2-106c3.2-7.8,22.2-119.7,21.7-128.1
		c-0.5-8.4-32-117.5-36-124.9c-4.1-7.4-79.8-92-86.6-96.9c-6.9-4.9-111.8-48.3-120.1-49.7c-8.3-1.4-121.6,5-129.8,7.3
		c-8.1,2.4-107.4,57.3-113.7,62.9c-6.3,5.6-71.9,98.2-75.2,106c-3.2,7.8-22.2,119.7-21.7,128.1c0.5,8.4,31.9,117.5,36,124.9
		c4.1,7.4,79.8,92,86.6,96.9c6.9,4.9,111.8,48.3,120.1,49.7C359.6,689.3,472.9,682.9,481,680.5"/>
	<path class="st0" d="M482.5,688.4c8.3-2.4,110.5-58.6,117-64.3c6.5-5.8,74.1-100.7,77.5-108.7c3.3-8,23.1-122.9,22.6-131.6
		c-0.5-8.7-32.5-120.8-36.7-128.4c-4.2-7.6-81.7-94.7-88.8-99.7c-7.1-5-114.7-49.9-123.3-51.3c-8.6-1.5-125,4.8-133.3,7.2
		c-8.3,2.4-110.5,58.6-117,64.4c-6.5,5.8-74.1,100.7-77.5,108.7c-3.3,8-23.1,122.9-22.6,131.6c0.5,8.7,32.5,120.8,36.7,128.4
		c4.2,7.6,81.7,94.7,88.8,99.7c7.1,5,114.7,49.9,123.3,51.3C357.7,697.1,474.1,690.8,482.5,688.4"/>
	<path class="st0" d="M496.2,692.6c8.5-2.8,111-64.5,117.4-70.7c6.4-6.2,72-106.3,75.1-114.7c3.1-8.4,18.8-127,17.9-135.9
		c-0.8-8.9-38.2-122.6-42.8-130.2c-4.6-7.6-87.6-93.9-95.1-98.7c-7.5-4.9-119.7-46.5-128.5-47.7c-8.8-1.2-128,10-136.5,12.8
		c-8.5,2.8-111,64.5-117.4,70.7c-6.4,6.2-72,106.3-75.1,114.7c-3.1,8.4-18.8,127-17.9,135.9c0.8,8.9,38.2,122.6,42.8,130.2
		c4.6,7.6,87.6,93.9,95.1,98.7c7.4,4.9,119.7,46.5,128.5,47.7C368.6,706.5,487.8,695.4,496.2,692.6"/>
</g>
</svg>
