<?xml version="1.0" encoding="utf-8"?>
<!-- Generator: Adobe Illustrator 23.0.6, SVG Export Plug-In . SVG Version: 6.00 Build 0)  -->
<svg version="1.1" id="Layer_1" xmlns="http://www.w3.org/2000/svg" xmlns:xlink="http://www.w3.org/1999/xlink" x="0px" y="0px"
	 viewBox="0 0 1256 977" style="enable-background:new 0 0 1256 977;" xml:space="preserve">
<style type="text/css">
	.st0{fill:#FFFFFF;}
</style>
<g>
	<g>
		<path class="st0" d="M602.1,491L552,541.1h100.3L602.1,491z"/>
		<path class="st0" d="M569,428v55.3l55.3-55.3H569z"/>
		<path class="st0" d="M429.2,216L384,261.2h72.3l45.2-45.2L429.2,216L429.2,216z"/>
		<path class="st0" d="M343.9,224L283,284.9l60.9,60.9l60.9-60.9L343.9,224z"/>
		<path class="st0" d="M299,476l9.6,14.4h28.8l-9.6-14.4H299z"/>
		<path class="st0" d="M494.3,561L460,595.3v85.8l34.3-34.3V561z"/>
		<path class="st0" d="M535,640h39.7L535,679.7V640z"/>
		<path class="st0" d="M575,762v10.8l10.8-10.8H575z"/>
		<path class="st0" d="M687.3,816l-5.3,5.3v13.3l5.3-5.3V816z"/>
		<path class="st0" d="M617.9,491l50.1,50.1H567.7L617.9,491z"/>
		<path class="st0" d="M602.1,415L552,364.9h100.3L602.1,415z"/>
		<path class="st0" d="M617.9,415l50.1-50.1H567.7L617.9,415z"/>
		<path class="st0" d="M651,428v55.3L595.7,428H651z"/>
		<path class="st0" d="M569,478v-55.3l55.3,55.3H569z"/>
		<path class="st0" d="M651,478v-55.3L595.7,478H651z"/>
		<path class="st0" d="M790.8,216l45.2,45.2h-72.3L718.6,216H790.8z"/>
		<path class="st0" d="M429.2,690L384,644.8h72.3l45.2,45.2H429.2z"/>
		<path class="st0" d="M790.8,690l45.2-45.2h-72.3L718.6,690H790.8z"/>
		<path class="st0" d="M876.1,224l60.9,60.9l-60.9,60.9l-60.9-60.9L876.1,224z"/>
		<path class="st0" d="M343.9,682L283,621.1l60.9-60.9l60.9,60.9L343.9,682z"/>
		<path class="st0" d="M876.1,682l60.9-60.9l-60.9-60.9l-60.9,60.9L876.1,682z"/>
		<path class="st0" d="M921,476l-9.6,14.4h-28.8l9.6-14.4H921z"/>
		<path class="st0" d="M299,430l9.6-14.4h28.8l-9.6,14.4H299z"/>
		<path class="st0" d="M921,430l-9.6-14.4h-28.8l9.6,14.4H921z"/>
		<path class="st0" d="M725.7,561l34.3,34.3v85.8l-34.3-34.3V561z"/>
		<path class="st0" d="M494.3,345L460,310.7v-85.8l34.3,34.3V345z"/>
		<path class="st0" d="M725.7,345l34.3-34.3v-85.8l-34.3,34.3V345z"/>
		<path class="st0" d="M685,640h-39.7l39.7,39.7V640z"/>
		<path class="st0" d="M535,266h39.7L535,226.3V266z"/>
		<path class="st0" d="M685,266h-39.7l39.7-39.7V266z"/>
		<path class="st0" d="M645,762v10.8L634.2,762H645z"/>
		<path class="st0" d="M575,144v-10.8l10.8,10.8H575z"/>
		<path class="st0" d="M645,144v-10.8L634.2,144H645z"/>
		<path class="st0" d="M532.7,816l5.3,5.3v13.3l-5.3-5.3V816z"/>
		<path class="st0" d="M687.3,90l-5.3-5.3V71.4l5.3,5.3V90z"/>
		<path class="st0" d="M532.7,90l5.3-5.3V71.4l-5.3,5.3V90z"/>
	</g>
</g>
</svg>
