<?xml version="1.0" encoding="utf-8"?>
<!-- Generator: Adobe Illustrator 23.0.6, SVG Export Plug-In . SVG Version: 6.00 Build 0)  -->
<svg version="1.1" id="Layer_1" xmlns="http://www.w3.org/2000/svg" xmlns:xlink="http://www.w3.org/1999/xlink" x="0px" y="0px"
	 viewBox="0 0 414 552" style="enable-background:new 0 0 414 552;" xml:space="preserve">
<style type="text/css">
	.st0{fill:none;stroke:#FFFFFF;stroke-width:2.6334;}
</style>
<path class="st0" d="M9,547l-4-3.6"/>
<path class="st0" d="M5,9.2L9.7,5"/>
<path class="st0" d="M10.2,5.1L10.3,5"/>
<path class="st0" d="M403.4,5l0.4,0.2"/>
<path class="st0" d="M409,5L409,5"/>
<path class="st0" d="M409,542.8l-3.6,4.2"/>
<path class="st0" d="M26.4,547l-11.5-6.6"/>
<path class="st0" d="M14.9,540.4L5,531.5"/>
<path class="st0" d="M5,19.7l9.6-8.6"/>
<path class="st0" d="M14.5,11l10.6-6"/>
<path class="st0" d="M386.5,5l12.5,6.8"/>
<path class="st0" d="M399.1,11.6L409,21"/>
<path class="st0" d="M409,526.2l-12.4,10.7"/>
<path class="st0" d="M399.2,540.6l-9.7,6.4"/>
<path class="st0" d="M44,547l-23.9-13.8"/>
<path class="st0" d="M20.2,533.2L5,519.5"/>
<path class="st0" d="M5,32.9l15.5-13.6"/>
<path class="st0" d="M20.1,18.8L44.4,5"/>
<path class="st0" d="M373.5,5l22.1,11.4"/>
<path class="st0" d="M393.5,19.3l15.5,16"/>
<path class="st0" d="M409,520.5L393.7,533"/>
<path class="st0" d="M397.9,538.8l-19.6,8.2"/>
<path class="st0" d="M61.8,547l-36.4-21"/>
<path class="st0" d="M25.4,526L5,507.7"/>
<path class="st0" d="M5,44.3l20.5-18.1"/>
<path class="st0" d="M25.8,26.6L62,5"/>
<path class="st0" d="M352.2,5l36.2,21.3"/>
<path class="st0" d="M388,26.9l21,17.2"/>
<path class="st0" d="M409,515.2L390.8,529"/>
<path class="st0" d="M389.2,526.8L351.6,547"/>
<path class="st0" d="M79.4,547l-48.8-28.2"/>
<path class="st0" d="M30.6,518.8L5,495.8"/>
<path class="st0" d="M5,56.6l25.7-23.3"/>
<path class="st0" d="M30.3,32.8L79.7,5"/>
<path class="st0" d="M339.2,5l43.7,28.9"/>
<path class="st0" d="M383.8,32.6L409,54.1"/>
<path class="st0" d="M409,496l-24.2,24.7"/>
<path class="st0" d="M384.3,520l-57.2,25.7"/>
<path class="st0" d="M103.8,547l-15.3-5"/>
<path class="st0" d="M88.6,542l-52.7-30.5"/>
<path class="st0" d="M35.9,511.6L5,483.8"/>
<path class="st0" d="M5,68.3l31.1-27.4"/>
<path class="st0" d="M36.1,40.8L88.3,9.5"/>
<path class="st0" d="M88.3,9.4L103.2,5"/>
<path class="st0" d="M313.9,5l12,3.9"/>
<path class="st0" d="M324.2,12.7l53.1,28.9"/>
<path class="st0" d="M378.5,40L409,68.9"/>
<path class="st0" d="M409,490.6l-30.2,21.9"/>
<path class="st0" d="M381.5,516.2l-55.5,27.2"/>
<path class="st0" d="M325.4,541.9l-13.2,5.1"/>
<path class="st0" d="M132.5,547l-40.3-13.1"/>
<path class="st0" d="M92.2,533.9l-51.1-29.5"/>
<path class="st0" d="M41.1,504.4L5,471.9"/>
<path class="st0" d="M5,80.2L41.4,48"/>
<path class="st0" d="M40.9,47.4l51.2-29.5"/>
<path class="st0" d="M91.8,17.3L135,5"/>
<path class="st0" d="M288.3,5l34.6,10.7"/>
<path class="st0" d="M320.7,20.5l54,24.7"/>
<path class="st0" d="M373.4,46.9L409,80.3"/>
<path class="st0" d="M409,465l-37.3,37.7"/>
<path class="st0" d="M369.2,499.3L323,536.6"/>
<path class="st0" d="M323.7,538.1l-47.6,8.9"/>
<path class="st0" d="M184.2,547l-34-3.6"/>
<path class="st0" d="M150.2,543.4l-54.4-17.7"/>
<path class="st0" d="M95.8,525.8l-49.5-28.6"/>
<path class="st0" d="M46.3,497.2L5,460"/>
<path class="st0" d="M5,92.4l41.3-37.6"/>
<path class="st0" d="M46.1,54.6l49.7-28.2"/>
<path class="st0" d="M95.9,26.5l54.3-17.8"/>
<path class="st0" d="M150.2,8.9L187.9,5"/>
<path class="st0" d="M241.9,5l22.3,1.7"/>
<path class="st0" d="M264.2,7.1L319.2,24"/>
<path class="st0" d="M317.7,27.5l48.8,29.1"/>
<path class="st0" d="M366.9,56L409,89"/>
<path class="st0" d="M406.7,455.9l-40.4,39.4"/>
<path class="st0" d="M368.1,497.7l-49.8,28.1"/>
<path class="st0" d="M317.8,524.9l-54.9,13.9"/>
<path class="st0" d="M263.8,543.3l-36.7,3.7"/>
<path class="st0" d="M207,540.5l-55-5.8"/>
<path class="st0" d="M152,534.7l-52.6-17.1"/>
<path class="st0" d="M99.4,517.6L51.5,490"/>
<path class="st0" d="M51.5,490l-41.1-37"/>
<path class="st0" d="M10.4,453L5,445.5"/>
<path class="st0" d="M5,106.8l5.6-7.6"/>
<path class="st0" d="M10.5,99.1l41.2-36.8"/>
<path class="st0" d="M51.7,62.2l48.1-27.1"/>
<path class="st0" d="M99.6,34.8l52.3-18"/>
<path class="st0" d="M152.2,18.2l54.8-7.1"/>
<path class="st0" d="M207,10.1l55.4,5.1"/>
<path class="st0" d="M262.1,16.5l51.6,19.6"/>
<path class="st0" d="M314.7,34.2L362,62.6"/>
<path class="st0" d="M362.7,61.7l37.7,40.2"/>
<path class="st0" d="M402.9,99.6l6.1,8.8"/>
<path class="st0" d="M409,452.5l-2.3,3.4"/>
<path class="st0" d="M385.6,470.6l-21.5,21.6"/>
<path class="st0" d="M364.9,493.4l-49.9,25.3"/>
<path class="st0" d="M314,516.4L261.8,534"/>
<path class="st0" d="M262.1,535.4l-55.1,6.8"/>
<path class="st0" d="M207,531.6l-53.1-5.6"/>
<path class="st0" d="M153.9,526L103,509.5"/>
<path class="st0" d="M103,509.5l-46.3-26.7"/>
<path class="st0" d="M56.8,482.8L17,447"/>
<path class="st0" d="M17,447L5,430.4"/>
<path class="st0" d="M5,121l11.7-16.3"/>
<path class="st0" d="M17.4,105.2l39.6-35.8"/>
<path class="st0" d="M56.6,69l46.2-27"/>
<path class="st0" d="M103.2,42.9L154,26.7"/>
<path class="st0" d="M153.8,25.6l53.2-3.9"/>
<path class="st0" d="M207,21.6l52.8,6.2"/>
<path class="st0" d="M260.6,23.8l51.3,16.6"/>
<path class="st0" d="M310,44.7l48.6,22.7"/>
<path class="st0" d="M357.6,68.7l37.5,37.9"/>
<path class="st0" d="M394.3,107.3l14.7,15.8"/>
<path class="st0" d="M409,428.9l-12.7,9.7"/>
<path class="st0" d="M403.8,453.2L361.8,489"/>
<path class="st0" d="M355.1,479.9l-43.6,30.9"/>
<path class="st0" d="M312.4,512.7l-51.3,17.8"/>
<path class="st0" d="M259.1,521.2l-52.1,7.7"/>
<path class="st0" d="M207,522.7l-51.3-5.4"/>
<path class="st0" d="M155.7,517.3l-49-15.9"/>
<path class="st0" d="M106.7,501.4L62,475.6"/>
<path class="st0" d="M62,475.6L23.7,441"/>
<path class="st0" d="M23.7,441.1L5,415.4"/>
<path class="st0" d="M5,136.8l19.1-25.5"/>
<path class="st0" d="M23.5,110.8L61.7,76"/>
<path class="st0" d="M62,76.4l44.9-25.3"/>
<path class="st0" d="M106.7,50.8l48.8-17.1"/>
<path class="st0" d="M155.9,35.5l51.1-4.9"/>
<path class="st0" d="M207,29.5l51,6.4"/>
<path class="st0" d="M257.9,36.4l48.5,16.3"/>
<path class="st0" d="M306.6,52.2l43,27.4"/>
<path class="st0" d="M353.6,74.3l40.2,33.5"/>
<path class="st0" d="M394,107.7l15,24.6"/>
<path class="st0" d="M409,416.1l-16.1,27.3"/>
<path class="st0" d="M396.4,446.6l-44.6,23.7"/>
<path class="st0" d="M347.9,469.9l-39,35"/>
<path class="st0" d="M306,498.4l-47.1,21.7"/>
<path class="st0" d="M258.8,519.9l-51.8-0.1"/>
<path class="st0" d="M207,513.8l-49.4-5.2"/>
<path class="st0" d="M157.6,508.6l-47.3-15.4"/>
<path class="st0" d="M110.3,493.2l-43.1-24.8"/>
<path class="st0" d="M67.2,468.4l-36.9-33.3"/>
<path class="st0" d="M30.3,435.1L5,400.4"/>
<path class="st0" d="M5,151.8l24.9-35.2"/>
<path class="st0" d="M30,116.7l37-33.4"/>
<path class="st0" d="M67.6,84.1l42.8-25"/>
<path class="st0" d="M110.6,59.6l46.7-17.2"/>
<path class="st0" d="M157.7,43.8l49.3-7"/>
<path class="st0" d="M207,36.4l49.1,8.5"/>
<path class="st0" d="M256.2,44.4l46.4,16.8"/>
<path class="st0" d="M304.1,58l40.8,28.3"/>
<path class="st0" d="M348.8,80.8l34.2,36.7"/>
<path class="st0" d="M385.9,115l23.1,33.2"/>
<path class="st0" d="M408.6,159.6l0.4,0.5"/>
<path class="st0" d="M409,385.4l-2.1,2"/>
<path class="st0" d="M407.4,391.7l-26.9,40.5"/>
<path class="st0" d="M381,436.9l-31.4,35.4"/>
<path class="st0" d="M344.8,465.6l-42.3,24.7"/>
<path class="st0" d="M303,491.7l-47.3,13.7"/>
<path class="st0" d="M255.7,505.1L207,517.4"/>
<path class="st0" d="M207,504.9l-47.6-5"/>
<path class="st0" d="M159.4,499.9l-45.5-14.8"/>
<path class="st0" d="M113.9,485.1l-41.4-24"/>
<path class="st0" d="M72.5,461.2l-35.6-32"/>
<path class="st0" d="M36.9,429.1L8.8,390.5"/>
<path class="st0" d="M8.8,390.4L5,381.8"/>
<path class="st0" d="M5,169.9l3.7-8.4"/>
<path class="st0" d="M8.5,161.4l28.4-38.6"/>
<path class="st0" d="M37.2,123.1l34.9-32.8"/>
<path class="st0" d="M72.1,90.3L113.9,67"/>
<path class="st0" d="M114,67.2l45.4-14.8"/>
<path class="st0" d="M159.3,51.7l47.7-5.4"/>
<path class="st0" d="M207,49.1l47.3,4.6"/>
<path class="st0" d="M255.1,49.8l45.6,15.8"/>
<path class="st0" d="M300.4,66.2l40.3,25.7"/>
<path class="st0" d="M341.2,91.2L377,123"/>
<path class="st0" d="M379.6,120.6l29.4,35.9"/>
<path class="st0" d="M404.3,162.1l4.7,8.3"/>
<path class="st0" d="M407.1,391.5l-35.6,32.6"/>
<path class="st0" d="M383.3,434.8l-39.3,29.9"/>
<path class="st0" d="M340.9,460.2L300,485"/>
<path class="st0" d="M300.2,485.3l-45.9,13.4"/>
<path class="st0" d="M254.9,501.3l-47.9,0.3"/>
<path class="st0" d="M207,496l-45.7-4.8"/>
<path class="st0" d="M161.3,491.2l-43.7-14.2"/>
<path class="st0" d="M117.5,477l-39.8-23"/>
<path class="st0" d="M77.7,454l-34.1-30.8"/>
<path class="st0" d="M43.6,423.2l-27-37.2"/>
<path class="st0" d="M16.4,386L5,360.3"/>
<path class="st0" d="M5,192.4l11.6-26.3"/>
<path class="st0" d="M16.4,166l26.7-37.5"/>
<path class="st0" d="M43.9,129.1l33.5-31.6"/>
<path class="st0" d="M77.7,98.1l39.4-23.8"/>
<path class="st0" d="M117.9,75.8L161,59.7"/>
<path class="st0" d="M161.1,60.2l45.9-3.1"/>
<path class="st0" d="M207,55.8l45.7,5"/>
<path class="st0" d="M252.3,63l43.2,14.3"/>
<path class="st0" d="M296.6,74.8l38.6,24.7"/>
<path class="st0" d="M338,95.6l34.9,30.9"/>
<path class="st0" d="M367.3,131.6l32.1,33.2"/>
<path class="st0" d="M395.7,167.1l13.3,34"/>
<path class="st0" d="M408.7,210.5l0.3,0.7"/>
<path class="st0" d="M409,370.1l-3,20.8"/>
<path class="st0" d="M405,390.3l-35,27.5"/>
<path class="st0" d="M367.9,420.9l-34.1,29.7"/>
<path class="st0" d="M337.3,455.3l-40.5,22.4"/>
<path class="st0" d="M297.2,478.6l-45.1,9.7"/>
<path class="st0" d="M253.7,495.6l-46.7,2.9"/>
<path class="st0" d="M207,487.1l-43.9-4.6"/>
<path class="st0" d="M163.1,482.4l-42-13.6"/>
<path class="st0" d="M121.1,468.8l-38.2-22.1"/>
<path class="st0" d="M82.9,446.7l-32.8-29.5"/>
<path class="st0" d="M50.2,417.2l-26-35.7"/>
<path class="st0" d="M24.2,381.5L6.3,341.2"/>
<path class="st0" d="M6.2,341.2L5,335.6"/>
<path class="st0" d="M5,215.6l1-4.9"/>
<path class="st0" d="M6.2,210.8l18.3-40.1"/>
<path class="st0" d="M24.5,170.7l26-35.6"/>
<path class="st0" d="M50.1,134.7l33.4-28.8"/>
<path class="st0" d="M83.1,105.5l38.3-21.8"/>
<path class="st0" d="M121.3,83.4l42.1-12.8"/>
<path class="st0" d="M163.4,71l43.6-4.5"/>
<path class="st0" d="M207,66.4l43.3,5.8"/>
<path class="st0" d="M250.7,70.3l41.6,14.1"/>
<path class="st0" d="M293.1,82.5l37.3,23.6"/>
<path class="st0" d="M330.9,105.5l35.1,27.4"/>
<path class="st0" d="M365.8,133l19.4,40.1"/>
<path class="st0" d="M386.9,172.1l18.2,39.5"/>
<path class="st0" d="M407.3,210.9l1.7,4.4"/>
<path class="st0" d="M409,348.7l-9.8,11.9"/>
<path class="st0" d="M381.8,380.8l-13.4,40.6"/>
<path class="st0" d="M366.3,419.4L330,445.3"/>
<path class="st0" d="M335,452.1l-40.1,21.3"/>
<path class="st0" d="M292.6,468.3l-41.2,16.8"/>
<path class="st0" d="M250.8,482.3l-43.8,5.7"/>
<path class="st0" d="M207,478.2l-42-4.4"/>
<path class="st0" d="M165,473.8l-40.2-13.1"/>
<path class="st0" d="M124.8,460.7l-36.6-21.2"/>
<path class="st0" d="M88.2,439.6l-31.4-28.2"/>
<path class="st0" d="M56.8,411.2l-24.9-34.1"/>
<path class="st0" d="M31.9,377.1l-17.1-38.7"/>
<path class="st0" d="M14.6,338.5l-8.8-41.4"/>
<path class="st0" d="M5.9,297.1l-0.2-42.3"/>
<path class="st0" d="M6.2,254.9l8.7-41.3"/>
<path class="st0" d="M15,213.6l16.9-38.7"/>
<path class="st0" d="M31.8,174.9l25-34.1"/>
<path class="st0" d="M56.6,140.6l31.9-27.7"/>
<path class="st0" d="M88.2,112.5L125,91.7"/>
<path class="st0" d="M125.1,92l39.7-14.4"/>
<path class="st0" d="M165.1,78.7l41.9-5.2"/>
<path class="st0" d="M207,71.7l42.1,6.2"/>
<path class="st0" d="M249.2,77.4l40.9,12"/>
<path class="st0" d="M289.9,89.9l37.3,20.7"/>
<path class="st0" d="M323.8,115.2l33.6,25.3"/>
<path class="st0" d="M355.1,142.6l28.7,31.3"/>
<path class="st0" d="M380.6,175.8l24.5,35.9"/>
<path class="st0" d="M400.6,213.1l0.7,33.1"/>
<path class="st0" d="M406.7,255l2.3,24.2"/>
<path class="st0" d="M409,299.2l-8.1,39.9"/>
<path class="st0" d="M406.8,340.9l-18.1,40"/>
<path class="st0" d="M384.2,378.3l-32.9,27.6"/>
<path class="st0" d="M355.1,409.3l-25.4,35.5"/>
<path class="st0" d="M325.3,438.8l-36.2,21.6"/>
<path class="st0" d="M287,455.6l-38.5,15.4"/>
<path class="st0" d="M249.6,476.4l-42.6-1.8"/>
<path class="st0" d="M207,469.3l-40.2-4.2"/>
<path class="st0" d="M166.8,465l-38.4-12.5"/>
<path class="st0" d="M128.4,452.5l-35-20.2"/>
<path class="st0" d="M93.4,432.4l-30-27"/>
<path class="st0" d="M63.4,405.3l-23.8-32.6"/>
<path class="st0" d="M39.7,372.6l-16.5-36.9"/>
<path class="st0" d="M23.2,335.7L15,296.2"/>
<path class="st0" d="M14.6,296.2l0-40.4"/>
<path class="st0" d="M14.9,255.8l8-39.6"/>
<path class="st0" d="M22.9,216.2l16.6-36.9"/>
<path class="st0" d="M39.8,179.5l23.7-32.6"/>
<path class="st0" d="M63.4,146.7L93.7,120"/>
<path class="st0" d="M93.7,120l35.1-19.7"/>
<path class="st0" d="M127.9,98.4l39.1-10.3"/>
<path class="st0" d="M166.9,87.3l40.1-5.7"/>
<path class="st0" d="M207,84.7l40.5,0.7"/>
<path class="st0" d="M247.3,86.6l38.1,13.3"/>
<path class="st0" d="M285.1,100.5l36.6,17.6"/>
<path class="st0" d="M318.7,122.3l30.6,25.6"/>
<path class="st0" d="M354.3,143.4l15.4,38.7"/>
<path class="st0" d="M373.2,180l16.1,36.7"/>
<path class="st0" d="M383.7,218.6l23.3,36.4"/>
<path class="st0" d="M405.6,255.1L387.3,295"/>
<path class="st0" d="M388.7,295.1l10.9,43.5"/>
<path class="st0" d="M401.2,339.1l-27,33.4"/>
<path class="st0" d="M378.8,375.2l-32.6,26.1"/>
<path class="st0" d="M352,406.5l-31.4,25.7"/>
<path class="st0" d="M322.1,434.5L284,448.8"/>
<path class="st0" d="M286.9,455.4l-39.8,9.3"/>
<path class="st0" d="M246.3,460.9l-39.3,6.7"/>
<path class="st0" d="M207,460.3l-38.3-4"/>
<path class="st0" d="M168.7,456.3l-36.6-12"/>
<path class="st0" d="M132,444.4l-33.4-19.2"/>
<path class="st0" d="M98.6,425.2L70,399.3"/>
<path class="st0" d="M70,399.3l-22.8-31.1"/>
<path class="st0" d="M47.4,368.2L31.6,333"/>
<path class="st0" d="M31.8,332.9l-8.3-37.6"/>
<path class="st0" d="M23.6,295.3l-0.2-38.6"/>
<path class="st0" d="M23.7,256.7l7.7-37.8"/>
<path class="st0" d="M31.3,218.9l16-35.1"/>
<path class="st0" d="M46.9,183.6l23.2-30.8"/>
<path class="st0" d="M70,152.6l29.1-25.1"/>
<path class="st0" d="M98.9,127.2l32.8-20.3"/>
<path class="st0" d="M131.7,106.8l36.8-12"/>
<path class="st0" d="M168.5,94.9l38.5-3.5"/>
<path class="st0" d="M207,91.4l38,5.8"/>
<path class="st0" d="M245.8,93.4l37,12.3"/>
<path class="st0" d="M280.7,110.5l36.8,13.4"/>
<path class="st0" d="M313.9,128.8l28.3,25.4"/>
<path class="st0" d="M341.8,154.6l25.6,28.8"/>
<path class="st0" d="M364.4,190.4l14.1,29.8"/>
<path class="st0" d="M381.2,226.8l20.5,28.7"/>
<path class="st0" d="M386.4,266.9l-8.9,27"/>
<path class="st0" d="M388.2,295l-7,34.5"/>
<path class="st0" d="M376.1,330.9l-15.1,28.4"/>
<path class="st0" d="M363.9,366.6L339.1,395"/>
<path class="st0" d="M343.2,398.7l-30.6,22.8"/>
<path class="st0" d="M316.4,426.6l-36.6,13"/>
<path class="st0" d="M281,442.3l-36.5,10.5"/>
<path class="st0" d="M245.5,456.9l-38.5,4.7"/>
<path class="st0" d="M207,451.5l-36.5-3.8"/>
<path class="st0" d="M170.5,447.6l-34.9-11.4"/>
<path class="st0" d="M135.6,436.3l-31.8-18.3"/>
<path class="st0" d="M103.8,418l-27.3-24.5"/>
<path class="st0" d="M76.6,393.4l-21.5-29.7"/>
<path class="st0" d="M54.9,363.8L40,330.3"/>
<path class="st0" d="M40,330.3l-7.6-35.9"/>
<path class="st0" d="M32.6,294.3l-0.2-36.7"/>
<path class="st0" d="M32.6,257.7l7.3-36"/>
<path class="st0" d="M40.2,221.8l15-33.5"/>
<path class="st0" d="M55,188.2l22.2-29.1"/>
<path class="st0" d="M76.2,158.2l28-23.7"/>
<path class="st0" d="M103.3,133.3l32.3-17.5"/>
<path class="st0" d="M135.5,115.5l35.2-10.1"/>
<path class="st0" d="M170.2,103.1l36.8-2.9"/>
<path class="st0" d="M207,100.8l36,6"/>
<path class="st0" d="M243.7,103.5l33.6,14.6"/>
<path class="st0" d="M278.2,116l30.4,20.1"/>
<path class="st0" d="M308.2,136.7l30.5,20.7"/>
<path class="st0" d="M340.3,156l10,27.7"/>
<path class="st0" d="M363.6,185.6l1.7,32.9"/>
<path class="st0" d="M381.9,219.2l-6.2,34.4"/>
<path class="st0" d="M391.2,256.6l-17.1,36.9"/>
<path class="st0" d="M377.1,293.9l4.1,38.7"/>
<path class="st0" d="M367.2,328.1l-7.8,35.9"/>
<path class="st0" d="M354.1,361l-18.8,30.6"/>
<path class="st0" d="M340.6,396.3l-34.2,16.6"/>
<path class="st0" d="M308.8,416.1l-32.1,16.5"/>
<path class="st0" d="M277.1,433.4L243,445.2"/>
<path class="st0" d="M243.5,447.8l-36.5,1.8"/>
<path class="st0" d="M207,442.6l-34.6-3.6"/>
<path class="st0" d="M172.4,438.9l-33.1-10.8"/>
<path class="st0" d="M139.3,428.1l-30.2-17.4"/>
<path class="st0" d="M109.1,410.8l-25.9-23.3"/>
<path class="st0" d="M83.2,387.4l-20.4-28.2"/>
<path class="st0" d="M62.9,359.2l-14.2-31.8"/>
<path class="st0" d="M48.5,327.5l-7.1-34.1"/>
<path class="st0" d="M41.2,293.4l0-34.9"/>
<path class="st0" d="M41.3,258.6l7.7-33.9"/>
<path class="st0" d="M49.1,224.7L63.3,193"/>
<path class="st0" d="M63.2,193l20.1-28.3"/>
<path class="st0" d="M83.4,164.7l24.9-24.5"/>
<path class="st0" d="M108.9,141l30.3-17.3"/>
<path class="st0" d="M139.5,124.3l33-10.7"/>
<path class="st0" d="M172.6,114.3l34.4-4.9"/>
<path class="st0" d="M207,107.7l34.8,4.6"/>
<path class="st0" d="M241.6,113.2l33.2,10.5"/>
<path class="st0" d="M275.9,121.2l31.9,16.1"/>
<path class="st0" d="M304.6,141.6l25.5,23.5"/>
<path class="st0" d="M327.9,167.1l28.8,22.4"/>
<path class="st0" d="M350.9,192.9l17.3,30.7"/>
<path class="st0" d="M362.4,225.5l14.9,32.6"/>
<path class="st0" d="M381.6,257.7l-17.8,34.8"/>
<path class="st0" d="M368.7,293l-12.8,31.4"/>
<path class="st0" d="M354.6,324l-1.6,36.3"/>
<path class="st0" d="M350.9,359.1L329.1,386"/>
<path class="st0" d="M321.1,391l-18.2,17"/>
<path class="st0" d="M305.5,411.6l-29.7,18.9"/>
<path class="st0" d="M275,428.8l-34.2,6.3"/>
<path class="st0" d="M242.1,441.1l-35.1,0.3"/>
<path class="st0" d="M207,433.6l-32.8-3.4"/>
<path class="st0" d="M174.2,430.2L142.9,420"/>
<path class="st0" d="M142.9,420l-28.5-16.5"/>
<path class="st0" d="M114.3,403.6l-24.4-22.1"/>
<path class="st0" d="M89.8,381.5l-19.4-26.7"/>
<path class="st0" d="M70.5,354.8l-13.3-30.1"/>
<path class="st0" d="M56.9,324.8l-6.6-32.3"/>
<path class="st0" d="M50.3,292.5l0.2-32.9"/>
<path class="st0" d="M49.9,259.5l7.2-32.2"/>
<path class="st0" d="M56.9,227.2L70,196.9"/>
<path class="st0" d="M70.8,197.3L90.4,171"/>
<path class="st0" d="M89.1,169.9l26-20.4"/>
<path class="st0" d="M114.5,148.7l27.8-18.1"/>
<path class="st0" d="M142.5,131.1l32.1-7.4"/>
<path class="st0" d="M174,120.8l33-2.3"/>
<path class="st0" d="M207,117.3l32.3,6.9"/>
<path class="st0" d="M239.2,124.7l32,7.3"/>
<path class="st0" d="M269.8,135l30.4,12.8"/>
<path class="st0" d="M297.9,150.9l25.3,20.5"/>
<path class="st0" d="M324.3,170.4l25,23.5"/>
<path class="st0" d="M350.8,193l8.2,33.6"/>
<path class="st0" d="M353.8,228.3l12.9,30.9"/>
<path class="st0" d="M352.8,263.6l-0.5,27.7"/>
<path class="st0" d="M361,292.2l-11.7,30"/>
<path class="st0" d="M350.9,322.8l-7.2,32.2"/>
<path class="st0" d="M343.3,354.7l-14.6,30.9"/>
<path class="st0" d="M328.4,385.3l-28.2,18.9"/>
<path class="st0" d="M301.6,406.2l-31.3,12.1"/>
<path class="st0" d="M272,422l-31.9,9.8"/>
<path class="st0" d="M240.2,432l-33.2,0"/>
<path class="st0" d="M207,424.7l-30.9-3.2"/>
<path class="st0" d="M176.1,421.5l-29.6-9.7"/>
<path class="st0" d="M146.5,411.9l-26.9-15.6"/>
<path class="st0" d="M119.6,396.3l-23.2-20.7"/>
<path class="st0" d="M96.4,375.6l-18.3-25.1"/>
<path class="st0" d="M78.3,350.3L65.5,322"/>
<path class="st0" d="M65.6,321.9l-6.7-30.4"/>
<path class="st0" d="M59.1,291.5l0.3-31"/>
<path class="st0" d="M58.9,260.4l6.7-30.4"/>
<path class="st0" d="M65.7,230.1l12.2-28.6"/>
<path class="st0" d="M78.8,202l17.5-25.7"/>
<path class="st0" d="M96,176.1l24.1-19.6"/>
<path class="st0" d="M120.2,156.6l26.6-15.7"/>
<path class="st0" d="M146.8,140.8l28.9-11.9"/>
<path class="st0" d="M176.4,131.9l30.6-2.3"/>
<path class="st0" d="M207,129.3l31.5-1.3"/>
<path class="st0" d="M237.9,130.6L268,139"/>
<path class="st0" d="M267,141.3l28.7,12.6"/>
<path class="st0" d="M293,157.7l28.2,15.6"/>
<path class="st0" d="M315,178.8l20.8,22.8"/>
<path class="st0" d="M337.5,200.7l2.9,32"/>
<path class="st0" d="M339.4,233l8.9,21.1"/>
<path class="st0" d="M346.8,271.5L350,291"/>
<path class="st0" d="M359.7,292l-17.2,28"/>
<path class="st0" d="M342.3,320l-6.7,30.3"/>
<path class="st0" d="M334.2,349.4l-20.9,22.3"/>
<path class="st0" d="M318.4,376.3l-23.7,20.4"/>
<path class="st0" d="M291.7,392.6l-25.9,15.5"/>
<path class="st0" d="M268.9,415l-30.2,10.2"/>
<path class="st0" d="M238.7,425.1l-31.7-2.2"/>
<path class="st0" d="M207,415.8l-29.1-3"/>
<path class="st0" d="M177.9,412.8l-27.8-9.1"/>
<path class="st0" d="M150.1,403.7l-25.3-14.6"/>
<path class="st0" d="M124.8,389.2L103,369.6"/>
<path class="st0" d="M103.2,369.5L86,345.8"/>
<path class="st0" d="M85.8,346l-12-26.7"/>
<path class="st0" d="M74,319.2l-6.4-28.6"/>
<path class="st0" d="M67.9,290.6l-0.2-29.3"/>
<path class="st0" d="M67.7,261.4l6.3-28.6"/>
<path class="st0" d="M74.6,233l10.8-27.2"/>
<path class="st0" d="M85.4,205.8l18.3-22.8"/>
<path class="st0" d="M103,182.3l21.6-19.7"/>
<path class="st0" d="M125.3,163.6l24.7-15.6"/>
<path class="st0" d="M150.3,148.5l28.2-7.1"/>
<path class="st0" d="M177.8,138.5l29.2,0.1"/>
<path class="st0" d="M207,137.1l28.7,4"/>
<path class="st0" d="M236.6,136.6l28.9,8"/>
<path class="st0" d="M264.6,146.6l21.9,20"/>
<path class="st0" d="M292.7,158.1l18.5,24.1"/>
<path class="st0" d="M306.1,186.8l22.8,18.9"/>
<path class="st0" d="M329.5,205.3l1.8,27.7"/>
<path class="st0" d="M332.5,237.4l20.7,23.3"/>
<path class="st0" d="M355.2,260.4l-17.9,23.8"/>
<path class="st0" d="M340.9,319.5l-6.9,29.8"/>
<path class="st0" d="M328.5,346.2l-19.2,19.1"/>
<path class="st0" d="M309.1,367.9L289,388.8"/>
<path class="st0" d="M287.6,386.9l-22.4,19.7"/>
<path class="st0" d="M265.7,407.7l-29.6,5"/>
<path class="st0" d="M236,412.7l-29,5.7"/>
<path class="st0" d="M207,406.9l-27.2-2.9"/>
<path class="st0" d="M179.8,404l-26-8.4"/>
<path class="st0" d="M153.7,395.6l-23.7-13.8"/>
<path class="st0" d="M130.1,381.9l-20.4-18.2"/>
<path class="st0" d="M109.7,363.6l-16.1-22.1"/>
<path class="st0" d="M93.5,341.5l-11.1-25"/>
<path class="st0" d="M82.4,316.5l-5.6-26.8"/>
<path class="st0" d="M76.5,289.7l0.7-27.4"/>
<path class="st0" d="M76.4,262.3l6.2-26.7"/>
<path class="st0" d="M82.7,235.6l10.8-25.1"/>
<path class="st0" d="M93,210.2l16.8-21.7"/>
<path class="st0" d="M109.3,188l21.1-17.4"/>
<path class="st0" d="M130.7,170.9l23.4-13.8"/>
<path class="st0" d="M153.5,155.8l26.2-8.2"/>
<path class="st0" d="M180.1,149.5l26.9-3"/>
<path class="st0" d="M207,146.1l27.8-0.6"/>
<path class="st0" d="M233.9,149.3l24.7,10.6"/>
<path class="st0" d="M261.5,153.6l22.4,16.6"/>
<path class="st0" d="M282,172.8l27.8,10.7"/>
<path class="st0" d="M301.9,190.6l6.9,11.9"/>
<path class="st0" d="M326.4,207.1l5.4,28.4"/>
<path class="st0" d="M332.6,235.2l-0.4,6.7"/>
<path class="st0" d="M342.1,261.8l-3.5,28"/>
<path class="st0" d="M343.2,290.3l-7.3,27.6"/>
<path class="st0" d="M335.1,317.6l-13.5,24.5"/>
<path class="st0" d="M320.7,341.7l-12.5,25.5"/>
<path class="st0" d="M307.8,366.8L286.2,385"/>
<path class="st0" d="M284.6,382.8l-26,9.1"/>
<path class="st0" d="M261.6,398.6l-26.7,8.4"/>
<path class="st0" d="M233.8,402.2l-26.8,4"/>
<path class="st0" d="M207,398l-25.4-2.7"/>
<path class="st0" d="M181.6,395.4l-24.2-8"/>
<path class="st0" d="M157.4,387.5l-22-12.8"/>
<path class="st0" d="M135.2,374.8l-18.9-17.1"/>
<path class="st0" d="M116.3,357.7l-15.1-20.6"/>
<path class="st0" d="M101.4,337l-10.7-23.2"/>
<path class="st0" d="M91.2,313.6l-5.8-24.9"/>
<path class="st0" d="M85.9,288.7l-0.8-25.5"/>
<path class="st0" d="M85.7,263.3l4.8-25.1"/>
<path class="st0" d="M90.7,238.2l10.2-23.5"/>
<path class="st0" d="M100.7,214.6l15.9-20"/>
<path class="st0" d="M115.5,193.6l19.2-17.1"/>
<path class="st0" d="M135.4,177.4l21.8-13.2"/>
<path class="st0" d="M158,165.9l23.1-11.7"/>
<path class="st0" d="M181.2,154.5l25.8,1.4"/>
<path class="st0" d="M207,153.6l24.9,5.1"/>
<path class="st0" d="M232.4,156.5l24.3,7.8"/>
<path class="st0" d="M256.8,164.2l25.2,8.6"/>
<path class="st0" d="M279.6,176.1l17.4,18.8"/>
<path class="st0" d="M296.1,195.8l24.4,14.7"/>
<path class="st0" d="M311.6,219.5l18.6,16.4"/>
<path class="st0" d="M329.2,236.3l11.1,25.7"/>
<path class="st0" d="M336.3,262.4l1.2,27.3"/>
<path class="st0" d="M321.2,297.5l-5.4,13.9"/>
<path class="st0" d="M322.7,313.6l-6.1,25.7"/>
<path class="st0" d="M309.8,335.3l-8.8,25.3"/>
<path class="st0" d="M302.6,362.1l-24.7,11.5"/>
<path class="st0" d="M279.8,376.2l-24.6,8.1"/>
<path class="st0" d="M257.3,389l-24.7,7.4"/>
<path class="st0" d="M231.7,392.1l-24.7,4.2"/>
<path class="st0" d="M207,389.1l-23.5-2.5"/>
<path class="st0" d="M183.5,386.7l-22.5-7.4"/>
<path class="st0" d="M161,379.3l-20.5-11.7"/>
<path class="st0" d="M140.4,367.6L123,351.7"/>
<path class="st0" d="M122.9,351.7l-13.7-19.2"/>
<path class="st0" d="M109.2,332.5L99.4,311"/>
<path class="st0" d="M99.2,311l-4.8-23.2"/>
<path class="st0" d="M94.2,287.9l0.2-23.7"/>
<path class="st0" d="M95,264.2l4.2-23.3"/>
<path class="st0" d="M99.8,241.2l9.4-21.7"/>
<path class="st0" d="M109.4,219.6l14.6-18.4"/>
<path class="st0" d="M123.2,200.5l17-16.6"/>
<path class="st0" d="M141,185.2l19.2-14.2"/>
<path class="st0" d="M160.8,172.1l22.2-9.4"/>
<path class="st0" d="M182.9,162.4l24.1,1.9"/>
<path class="st0" d="M207,163.3l22.8,5.3"/>
<path class="st0" d="M230.5,165.5l21.7,9.1"/>
<path class="st0" d="M254.3,169.8l22,10.9"/>
<path class="st0" d="M274.6,183l12,21.4"/>
<path class="st0" d="M293,198.6l2.7,13.7"/>
<path class="st0" d="M310.3,216.4l7.8,23.5"/>
<path class="st0" d="M323.2,238.2l-4.8,14.4"/>
<path class="st0" d="M326.7,263.4l-16.5,23.4"/>
<path class="st0" d="M324,288.3l-8.8,22.9"/>
<path class="st0" d="M308.4,316.7l0.5,18.1"/>
<path class="st0" d="M306.5,333.5l-12.6,20.8"/>
<path class="st0" d="M285.6,351.2l-10,19.1"/>
<path class="st0" d="M270.7,363.6l-18.5,13.7"/>
<path class="st0" d="M252.7,378.6l-22,8.8"/>
<path class="st0" d="M230.3,385.6l-23.3,5.2"/>
<path class="st0" d="M207,380.2l-21.7-2.2"/>
<path class="st0" d="M185.3,377.9l-20.7-6.8"/>
<path class="st0" d="M164.6,371.2l-18.9-10.8"/>
<path class="st0" d="M145.7,360.4l-16.1-14.7"/>
<path class="st0" d="M129.6,345.7l-13.1-17.4"/>
<path class="st0" d="M116.8,328.1l-9.3-19.8"/>
<path class="st0" d="M108.2,308.1l-4.8-21.2"/>
<path class="st0" d="M103.8,286.8l-0.3-21.7"/>
<path class="st0" d="M103.7,265.1l4.9-21.1"/>
<path class="st0" d="M108.1,243.9l7.7-20.5"/>
<path class="st0" d="M116.5,223.7l13.2-17.4"/>
<path class="st0" d="M128.8,205.5l16.8-14.1"/>
<path class="st0" d="M146,192l19.1-10.2"/>
<path class="st0" d="M165,181.6l19.8-10.2"/>
<path class="st0" d="M185.9,176.7l21.1-7.4"/>
<path class="st0" d="M207,175.3l21.4,0.2"/>
<path class="st0" d="M229.1,171.8l21,7.4"/>
<path class="st0" d="M250.2,178.9l18.5,12.1"/>
<path class="st0" d="M270.8,188.1l13.1,18.6"/>
<path class="st0" d="M286.5,204.5l17,15.9"/>
<path class="st0" d="M295.5,225.6l18.6,15.6"/>
<path class="st0" d="M314.8,241l5.8,23.1"/>
<path class="st0" d="M309.5,265.2l-9.4,20.6"/>
<path class="st0" d="M307.5,286.6l-4.9,20.5"/>
<path class="st0" d="M314.4,310.9l-19.7,15.8"/>
<path class="st0" d="M292.1,325.1l-10,18.5"/>
<path class="st0" d="M287.9,348.8l-17.1,15"/>
<path class="st0" d="M269.9,362.5L250.2,373"/>
<path class="st0" d="M250.5,373.7l-22.1,2.8"/>
<path class="st0" d="M228.2,375.8l-21.2,3.7"/>
<path class="st0" d="M207,371.3l-19.8-2"/>
<path class="st0" d="M187.2,369.2l-19-6.1"/>
<path class="st0" d="M168.3,363l-17.2-10"/>
<path class="st0" d="M151,353.1l-14.7-13.4"/>
<path class="st0" d="M136.2,339.8l-11.4-16.3"/>
<path class="st0" d="M124.3,323.8l-7.7-18.4"/>
<path class="st0" d="M116.5,305.4l-3.8-19.5"/>
<path class="st0" d="M112.1,286l-0.5-20"/>
<path class="st0" d="M111.4,266l5.2-19.3"/>
<path class="st0" d="M115.9,246.4l9.6-17.5"/>
<path class="st0" d="M125,228.6l12.1-15.6"/>
<path class="st0" d="M137.4,213.4l13.7-14.2"/>
<path class="st0" d="M151.3,199.4l17.5-9"/>
<path class="st0" d="M168.7,189.9l18.2-8.7"/>
<path class="st0" d="M186.7,180.6l20.3-1.1"/>
<path class="st0" d="M207,178.9l20.4,1"/>
<path class="st0" d="M227.8,178l19.4,7.6"/>
<path class="st0" d="M247.7,184.5l16.8,12.3"/>
<path class="st0" d="M265.3,195.7l5.7,17.1"/>
<path class="st0" d="M277.2,212.8l15.9,13.5"/>
<path class="st0" d="M295.2,225.1l8.3,19.6"/>
<path class="st0" d="M289.7,249.1l20.6,16"/>
<path class="st0" d="M308,265.4l-11.1,16"/>
<path class="st0" d="M306.8,286.5l-16.6,16.6"/>
<path class="st0" d="M290.8,303.2l-5.8,17.8"/>
<path class="st0" d="M287.1,322.2l-9.4,17.4"/>
<path class="st0" d="M281.6,343.2L263.7,354"/>
<path class="st0" d="M260.3,349.3L246,363.7"/>
<path class="st0" d="M244.4,360.1l-17.1,11.8"/>
<path class="st0" d="M226.5,367.9l-19.5,4.1"/>
<path class="st0" d="M207,362.4l-18-1.9"/>
<path class="st0" d="M189,360.5l-17.1-5.6"/>
<path class="st0" d="M171.9,354.9l-15.7-8.9"/>
<path class="st0" d="M156.2,345.9l-13.4-12.1"/>
<path class="st0" d="M142.9,333.7l-10.5-14.6"/>
<path class="st0" d="M132,319.3l-7-16.7"/>
<path class="st0" d="M124.6,302.8l-3.4-17.7"/>
<path class="st0" d="M120.9,285l0.5-18"/>
<path class="st0" d="M121.8,267l3.2-17.7"/>
<path class="st0" d="M125.6,249.6l6.5-16.8"/>
<path class="st0" d="M131.5,232.4l12.1-13.5"/>
<path class="st0" d="M143.4,218.7l12.2-13.5"/>
<path class="st0" d="M154.9,204.3l16.5-8.3"/>
<path class="st0" d="M172.2,197.8l16.5-7.8"/>
<path class="st0" d="M189.2,192.2l17.8-1.8"/>
<path class="st0" d="M207,190.8l18,0.7"/>
<path class="st0" d="M226,186.5l16.5,9.6"/>
<path class="st0" d="M244.1,192.8l11.6,16.2"/>
<path class="st0" d="M258.3,211.6l17.7,2.2"/>
<path class="st0" d="M265.7,223.2l3.6,3.8"/>
<path class="st0" d="M287.8,229.3l-8.8,23.3"/>
<path class="st0" d="M279.8,254.6l21.2,11.5"/>
<path class="st0" d="M296.5,266.6l0.6,18.9"/>
<path class="st0" d="M298.4,285.6l-8.9,17.2"/>
<path class="st0" d="M283.7,300.9l-6.2,15.8"/>
<path class="st0" d="M284.5,320.7L273.6,336"/>
<path class="st0" d="M269.6,332.3l-13,12"/>
<path class="st0" d="M260.1,349.1l-16.4,9.2"/>
<path class="st0" d="M242.4,355.4l-17.6,4.2"/>
<path class="st0" d="M225.1,361.2l-18.1,0.3"/>
<path class="st0" d="M207,353.5l-16.1-1.7"/>
<path class="st0" d="M190.9,351.9l-15.4-5"/>
<path class="st0" d="M175.4,346.9l-14-8.2"/>
<path class="st0" d="M161.4,338.7L149.2,328"/>
<path class="st0" d="M149.3,328l-9.4-13.2"/>
<path class="st0" d="M140,314.7l-6.6-14.8"/>
<path class="st0" d="M132.9,300.1l-3-16"/>
<path class="st0" d="M130,284.1l-0.5-16.2"/>
<path class="st0" d="M129.8,267.9l3.5-15.8"/>
<path class="st0" d="M132.3,251.7l7.2-14.7"/>
<path class="st0" d="M140.1,237.4l10.2-12.4"/>
<path class="st0" d="M148.6,223.4l12.3-10.9"/>
<path class="st0" d="M162,214l13.2-9.5"/>
<path class="st0" d="M175.1,204.3l16.5-0.9"/>
<path class="st0" d="M191.4,202.7l15.6-7.9"/>
<path class="st0" d="M207,201l16.8-3.9"/>
<path class="st0" d="M222.1,205l14.2,5.2"/>
<path class="st0" d="M238,206.3l12.4,9.9"/>
<path class="st0" d="M256.7,207.6l5.2,18.9"/>
<path class="st0" d="M264.3,224.4l15.3,9.6"/>
<path class="st0" d="M266.7,241.6l8.4,12.3"/>
<path class="st0" d="M279.5,252.5l0.9,15.8"/>
<path class="st0" d="M285.1,267.8l5.3,17"/>
<path class="st0" d="M291.9,284.9l-17.4,13"/>
<path class="st0" d="M278.2,299.1l-5.9,14.6"/>
<path class="st0" d="M275.8,315.7l-8.3,14.7"/>
<path class="st0" d="M264,327.3l-13.3,8.9"/>
<path class="st0" d="M254.5,341.3l-14.8,8"/>
<path class="st0" d="M238.1,345.9l-15.3,4.5"/>
<path class="st0" d="M223.2,352.2l-16.2,1.3"/>
</svg>
