<?xml version="1.0" encoding="utf-8"?>
<!-- Generator: Adobe Illustrator 23.0.6, SVG Export Plug-In . SVG Version: 6.00 Build 0)  -->
<svg version="1.1" id="Layer_1" xmlns="http://www.w3.org/2000/svg" xmlns:xlink="http://www.w3.org/1999/xlink" x="0px" y="0px"
	 viewBox="0 0 174.7 201.7" style="enable-background:new 0 0 174.7 201.7;" xml:space="preserve">
<style type="text/css">
	.st0{fill:none;stroke:#FFFFFF;stroke-miterlimit:10;stroke-opacity:0.6;}
</style>
<title>Asset 4</title>
<g>
	<g id="Layer_1-2">
		<path class="st0" d="M159.8,100.9v0.9l-7.9,0.7l-13,0.5l-8.1,0.4l-5.7,0.4l-4.4,0.3l-3.5,0.3l-2.8,0.3l-2.4,0.3l-2.1,0.3l-1.8,0.3
			l-1.6,0.3l-1.4,0.3l-1.3,0.2l-1.2,0.3l-1.1,0.2l-1,0.2l-0.9,0.2l-0.8,0.2l-0.8,0.2l-0.8,0.2l-0.7,0.2l-0.7,0.2l-0.6,0.2l-0.6,0.2
			L94,109l-0.5,0.2l-0.5,0.2l-0.5,0.2l-0.5,0.2l-0.5,0.2l-0.4,0.2l-0.4,0.2l-0.4,0.2l-0.4,0.2l-0.4,0.2l-0.4,0.2l-0.4,0.2l-0.3,0.2
			l-0.3,0.2l-0.3,0.2l-0.3,0.2l-0.3,0.2l-0.3,0.2l-0.3,0.2l-0.3,0.2l-0.3,0.2l-0.3,0.2l-0.3,0.2L85,113l-0.3,0.2l-0.3,0.1l-0.3,0.2
			l-0.3,0.2l-0.3,0.1l-0.3,0.1l-0.2,0.2l-0.2,0.1l-0.2,0.1l-0.2,0.1l-0.2,0.1l-0.2,0.1l-0.2,0.1l-0.2,0.1l-0.2,0.1l-0.2,0.1
			l-0.2,0.1l-0.2,0.1l-0.2,0.1l-0.2,0.1l-0.2,0.1l-0.2,0.1l-0.2,0.1l-0.2,0.1l-0.2,0.1l-0.2,0.1l-0.2,0.1l-0.2,0.1l-0.2,0.1
			l-0.2,0.1l-0.2,0.1l-0.2,0.1l-0.2,0.1l-0.2,0.1l-0.2,0.1l-0.2,0.1l-0.2,0.1l-0.2,0.1l-0.2,0.1l-0.2,0.1l-0.2,0.1l-0.2,0.1
			l-0.2,0.1l-0.2,0.1l-0.2,0.1l-0.2,0.1l-0.2,0.1l-0.2,0.1l-0.2,0.1l-0.2,0.1l-0.2,0.1l-0.2,0.1l-0.2,0.1l-0.2,0.1l-0.2,0.1
			l-0.2,0.1l-0.2,0.1l-0.2,0.1l-0.2,0.1l-0.2,0.1l-0.2,0.1l-0.2,0.1l-0.2,0.1l-0.2,0.1l-0.2,0.1l-0.2,0.1l-0.2,0.1l-0.2,0.1
			l-0.2,0.1l-0.2,0.1l-0.2,0.1l-0.2,0.1l-0.2,0.1l-0.2,0.1L70,122l-0.2,0.1l-0.2,0.1l-0.2,0.1l-0.2,0.1l-0.2,0.1l-0.2,0.1l-0.2,0.1
			l-0.2,0.1l-0.2,0.1l-0.2,0.1l-0.2,0.1l-0.2,0.1l-0.2,0.1l-0.2,0.1l-0.2,0.1l-0.2,0.1l-0.2,0.1l-0.2,0.1l-0.2,0.1l-0.2,0.1
			l-0.2,0.1l-0.2,0.1l-0.2,0.1l-0.2,0.1l-0.2,0.1l-0.2,0.1l-0.2,0.1l-0.2,0.1l-0.2,0.1l-0.2,0.1l-0.2,0.1l-0.2,0.1l-0.2,0.1
			l-0.2,0.1l-0.2,0.1l-0.2,0.1l-0.2,0.1l-0.2,0.1l-0.2,0.1l-0.2,0.1l-0.2,0.1l-0.2,0.1l-0.2,0.1l-0.2,0.1l-0.2,0.1l-0.2,0.1
			l-0.2,0.1l-0.2,0.1l-0.2,0.1l-0.2,0.1l-0.2,0.1l-0.2,0.1l-0.2,0.1l-0.2,0.1L59,128l-0.2,0.1l-0.2,0.1l-0.3,0.1l-0.2,0.1l-0.3,0.1
			l-0.3,0.1l-0.3,0.1l-0.3,0.1l-0.3,0.2l-0.3,0.2l-0.3,0.2l-0.3,0.2l-0.3,0.2l-0.3,0.2l-0.3,0.2l-0.3,0.2l-0.3,0.2l-0.3,0.2
			l-0.3,0.2l-0.3,0.2l-0.3,0.2l-0.3,0.2l-0.3,0.2l-0.3,0.2l-0.3,0.2l-0.3,0.3l-0.4,0.3l-0.4,0.3l-0.4,0.3l-0.4,0.3l-0.4,0.3
			l-0.4,0.3l-0.4,0.4l-0.4,0.4l-0.5,0.4l-0.5,0.4l-0.5,0.4l-0.5,0.5l-0.5,0.5l-0.6,0.5l-0.6,0.6l-0.6,0.6l-0.7,0.7l-0.7,0.7
			l-0.7,0.8l-0.8,0.9l-0.9,1l-0.9,1.1l-1,1.3l-1.1,1.4l-1.3,1.6l-1.5,1.9L33,153l-2,2.8l-2.5,3.6l-3.2,4.8l-4.4,6.8L14,182.1
			l-4.6,6.5l-0.8-0.4l-0.8-0.4l3.3-7.3l6.1-11.5l3.7-7.3l2.5-5.2l1.9-3.9l1.4-3.2l1.2-2.6l0.9-2.2l0.8-1.9l0.7-1.7l0.6-1.5l0.5-1.4
			l0.4-1.2l0.4-1.1l0.3-1.1l0.3-1l0.3-0.9l0.2-0.9l0.2-0.8l0.2-0.8l0.2-0.7l0.2-0.7l0.1-0.6l0.1-0.6l0.1-0.6l0.1-0.6l0.1-0.6
			l0.1-0.5l0.1-0.5l0.1-0.5L35,124l0.1-0.5l0-0.4v-0.4v-0.4v-0.4v-0.4v-0.4v-0.4v-0.4v-0.4v-0.4v-0.3v-0.3V82.8v-0.3v-0.3v-0.4v-0.4
			V81v-0.4v-0.4v-0.4v-0.4V79v-0.4l0-0.4L35,77.7v-0.5l-0.1-0.5l-0.1-0.5l-0.1-0.5l-0.1-0.5l-0.1-0.6L34.4,74l-0.1-0.6l-0.1-0.6
			L34,72.1l-0.2-0.7l-0.2-0.8l-0.2-0.8L33.2,69l-0.3-0.9l-0.3-1l-0.3-1L31.9,65l-0.4-1.2L31,62.3l-0.6-1.5l-0.7-1.7L29,57.2L28,55
			l-1.2-2.6l-1.4-3.2l-1.9-4L21,40.1l-3.7-7.3l-6.1-11.5L7.9,14l0.8-0.4l0.8-0.4l4.6,6.5l6.9,11.1l4.4,6.8l3.2,4.8L31,46l2,2.8
			l1.7,2.3l1.5,1.8l1.3,1.6l1.1,1.4l1,1.2l0.9,1.1l0.9,1l0.8,0.9l0.7,0.8l0.7,0.7l0.7,0.7l0.6,0.6l0.6,0.6l0.6,0.5l0.5,0.5l0.5,0.5
			l0.5,0.4l0.5,0.4l0.5,0.4l0.4,0.4l0.4,0.3l0.4,0.3l0.4,0.3l0.4,0.3l0.4,0.3l0.4,0.3l0.4,0.3l0.3,0.3l0.3,0.2l0.3,0.2L53,70
			l0.3,0.2l0.3,0.2l0.3,0.2l0.3,0.2l0.3,0.2l0.3,0.2l0.3,0.2l0.3,0.2l0.3,0.2L56,72l0.3,0.2l0.3,0.2l0.3,0.2l0.3,0.2l0.3,0.2
			l0.3,0.2l0.3,0.1l0.3,0.1l0.2,0.1l0.3,0.1l0.2,0.1l0.2,0.1l0.2,0.1l0.2,0.1l0.2,0.1l0.2,0.1l0.2,0.1l0.2,0.1l0.2,0.1l0.2,0.1
			l0.2,0.1l0.2,0.1l0.2,0.1l0.2,0.1l0.2,0.1l0.2,0.1l0.2,0.1l0.2,0.1l0.2,0.1l0.2,0.1l0.2,0.1l0.2,0.1l0.2,0.1l0.2,0.1l0.2,0.1
			l0.2,0.1l0.2,0.1l0.2,0.1l0.2,0.1L65,77l0.2,0.1l0.2,0.1l0.2,0.1l0.2,0.1l0.2,0.1l0.2,0.1l0.2,0.1l0.2,0.1l0.2,0.1l0.2,0.1
			l0.2,0.1l0.2,0.1l0.2,0.1l0.2,0.1l0.2,0.1l0.2,0.1l0.2,0.1l0.2,0.1l0.2,0.1l0.2,0.1l0.2,0.1l0.2,0.1l0.2,0.1l0.2,0.1l0.2,0.1
			l0.2,0.1l0.2,0.1l0.2,0.1l0.2,0.1l0.2,0.1l0.2,0.1l0.2,0.1l0.2,0.1l0.2,0.1l0.2,0.1l0.2,0.1l0.2,0.1l0.2,0.1l0.2,0.1l0.2,0.1
			l0.2,0.1l0.2,0.1l0.2,0.1l0.2,0.1l0.2,0.1l0.2,0.1l0.2,0.1l0.2,0.1l0.2,0l0.2,0.1l0.2,0.1l0.2,0.1l0.2,0.1l0.2,0.1l0.2,0.1
			l0.2,0.1l0.2,0.1l0.2,0.1l0.2,0.1l0.2,0.1l0.2,0.1l0.2,0.1l0.2,0.1l0.2,0.1l0.2,0.1l0.2,0.1l0.2,0.1l0.2,0.1l0.2,0.1l0.2,0.1
			l0.2,0.1l0.2,0.1l0.2,0.1l0.2,0.1l0.2,0.1l0.2,0.1l0.2,0.1l0.2,0.1l0.2,0.1l0.2,0.1l0.2,0.1l0.2,0.1l0.2,0.1l0.2,0.1l0.2,0.1
			l0.2,0.1l0.2,0.1l0.2,0.1l0.2,0.1l0.2,0.1l0.2,0.1l0.2,0.1l0.2,0.1l0.2,0.1l0.2,0.1l0.2,0.1l0.3,0.2l0.3,0.1l0.3,0.2l0.3,0.1
			l0.3,0.2l0.3,0.2l0.3,0.2l0.3,0.2l0.3,0.2l0.3,0.2l0.3,0.2l0.3,0.2l0.3,0.2l0.3,0.2l0.3,0.2l0.3,0.2l0.3,0.2l0.3,0.2l0.4,0.2
			l0.4,0.2l0.4,0.2l0.4,0.2l0.4,0.2l0.4,0.2l0.4,0.2L92,92l0.5,0.2l0.5,0.2l0.5,0.2l0.5,0.2l0.6,0.2l0.6,0.2l0.6,0.2l0.7,0.2
			l0.7,0.2l0.8,0.2l0.8,0.2l0.8,0.2l0.9,0.2l1,0.2l1.1,0.2l1.2,0.2l1.3,0.3l1.4,0.3l1.6,0.3l1.8,0.3l2.1,0.3l2.4,0.3l2.8,0.3
			l3.5,0.3l4.4,0.3l5.7,0.4l8.1,0.4l13,0.5l7.9,0.7V100.9"/>
		<path class="st0" d="M161,100.9v0.9l-7.6,0.8l-13.3,0.5l-8.3,0.4l-5.9,0.4l-4.4,0.3l-3.5,0.3l-2.9,0.3l-2.4,0.3l-2.1,0.3l-1.8,0.3
			l-1.6,0.3l-1.4,0.3l-1.3,0.3l-1.2,0.2l-1.1,0.2l-1,0.2l-0.9,0.2l-0.9,0.2l-0.8,0.2l-0.8,0.2l-0.7,0.2l-0.7,0.2l-0.6,0.2l-0.6,0.2
			l-0.6,0.2l-0.6,0.2l-0.5,0.2l-0.5,0.2l-0.5,0.2l-0.5,0.2l-0.4,0.2l-0.4,0.2l-0.4,0.2l-0.4,0.2l-0.4,0.2l-0.4,0.2l-0.4,0.2
			l-0.3,0.2l-0.3,0.2l-0.3,0.2l-0.3,0.2l-0.3,0.2l-0.3,0.2l-0.3,0.2l-0.3,0.2l-0.3,0.2l-0.3,0.2l-0.3,0.2l-0.3,0.2l-0.3,0.2
			l-0.3,0.2l-0.3,0.1l-0.3,0.2l-0.3,0.2l-0.3,0.1l-0.3,0.2l-0.2,0.1l-0.2,0.1l-0.2,0.1l-0.2,0.1l-0.2,0.1l-0.2,0.1l-0.2,0.1
			l-0.2,0.1l-0.2,0.1l-0.2,0.1l-0.2,0.1l-0.2,0.1l-0.2,0.1l-0.2,0.1l-0.2,0.1l-0.2,0.1l-0.2,0.1l-0.2,0.1l-0.2,0.1l-0.2,0.1
			l-0.2,0.1l-0.2,0.1l-0.2,0.1l-0.2,0.1l-0.2,0.1l-0.2,0.1l-0.2,0.1l-0.2,0.1l-0.2,0.1l-0.2,0.1l-0.2,0.1l-0.2,0.1l-0.2,0.1
			l-0.2,0.1l-0.2,0.1l-0.2,0.1l-0.2,0.1l-0.2,0.1l-0.2,0.1l-0.2,0.1l-0.2,0.1l-0.2,0.1l-0.2,0.1l-0.2,0.1l-0.2,0.1l-0.2,0.1L74,120
			l-0.2,0.1l-0.2,0.1l-0.2,0.1l-0.2,0.1l-0.2,0.1l-0.2,0.1l-0.2,0.1l-0.2,0.1l-0.2,0.1l-0.2,0.1l-0.2,0.1l-0.2,0.1l-0.2,0.1
			l-0.2,0.1l-0.2,0.1l-0.2,0.1l-0.2,0.1l-0.2,0.1l-0.2,0.1l-0.2,0.1l-0.2,0.1l-0.2,0.1l-0.2,0.1l-0.2,0.1l-0.2,0.1l-0.2,0.1
			l-0.2,0.1l-0.2,0.1l-0.2,0.1l-0.2,0.1l-0.2,0.1l-0.2,0.1l-0.2,0.1l-0.2,0.1l-0.2,0.1l-0.2,0.1l-0.2,0.1L67,124l-0.2,0.1l-0.2,0.1
			l-0.2,0.1l-0.2,0.1l-0.2,0.1l-0.2,0.1l-0.2,0.1l-0.2,0.1l-0.2,0.1l-0.2,0.1l-0.2,0.1l-0.2,0.1l-0.2,0.1l-0.2,0.1l-0.2,0.1
			l-0.2,0.1l-0.2,0.1l-0.2,0.1l-0.2,0.1l-0.2,0.1l-0.2,0.1l-0.2,0.1l-0.2,0.1l-0.2,0.1l-0.2,0.1l-0.2,0.1l-0.2,0.1l-0.2,0.1
			l-0.2,0.1l-0.2,0.1l-0.2,0.1l-0.2,0.1l-0.2,0.1l-0.2,0.1l-0.2,0.1l-0.2,0.1l-0.2,0.1l-0.2,0.1l-0.3,0.1l-0.2,0.1l-0.2,0.1
			l-0.3,0.1l-0.3,0.1l-0.3,0.1l-0.3,0.1l-0.3,0.2l-0.3,0.2l-0.3,0.2l-0.3,0.2l-0.3,0.2l-0.3,0.2l-0.3,0.2l-0.3,0.2l-0.3,0.2
			l-0.3,0.2l-0.3,0.2l-0.3,0.2l-0.3,0.2l-0.3,0.2l-0.3,0.2l-0.3,0.2l-0.3,0.2l-0.3,0.3l-0.3,0.3l-0.4,0.3l-0.4,0.3l-0.4,0.3
			l-0.4,0.3l-0.4,0.3l-0.4,0.3l-0.4,0.4l-0.5,0.4l-0.5,0.4l-0.5,0.4l-0.5,0.4l-0.5,0.5l-0.5,0.5l-0.6,0.6l-0.6,0.6l-0.6,0.6
			l-0.7,0.7l-0.7,0.8L42,142l-0.8,0.9l-0.9,1l-1,1.1l-1,1.3l-1.2,1.4l-1.3,1.7l-1.5,2l-1.7,2.4l-2,2.9l-2.5,3.7l-3.3,4.9l-4.5,7
			l-7.1,11.3l-4.4,6.2L8,189.2l-0.8-0.4l3.1-6.9l6.3-11.8l3.8-7.4l2.6-5.3l1.9-4l1.5-3.2l1.2-2.7l1-2.3l0.8-2l0.7-1.7l0.6-1.5
			l0.5-1.4l0.4-1.3l0.4-1.2l0.3-1.1l0.3-1l0.3-0.9l0.2-0.9l0.2-0.8l0.2-0.8l0.2-0.7l0.2-0.7l0.1-0.7l0.1-0.6l0.1-0.6l0.1-0.6
			l0.1-0.6l0.1-0.5l0.1-0.5l0.1-0.5l0.1-0.5l0.1-0.5l0-0.4v-0.4v-0.4v-0.4v-0.4v-0.4v-0.4v-0.4v-0.4v-0.4v-0.3v-0.3v-0.3V82.9v-0.3
			v-0.3v-0.4v-0.3v-0.4v-0.4v-0.4L35,80v-0.4v-0.4v-0.4v-0.4l0-0.4l-0.1-0.5l-0.1-0.5l-0.1-0.5l-0.1-0.5l-0.1-0.5l-0.1-0.6l-0.1-0.6
			l-0.1-0.6L34,73.1l-0.1-0.7l-0.2-0.7L33.5,71l-0.2-0.8l-0.2-0.8l-0.2-0.9l-0.3-0.9l-0.3-1l-0.3-1.1l-0.4-1.2l-0.4-1.3l-0.5-1.4
			L30,60.2l-0.7-1.7l-0.8-2l-1-2.3l-1.2-2.7l-1.5-3.2l-1.9-4l-2.6-5.3l-3.8-7.4l-6.2-11.8L7.3,13L8,12.6l0.8-0.4l4.4,6.2l7.1,11.3
			l4.5,7l3.3,4.9l2.5,3.7l2,2.9l1.7,2.3l1.5,2l1.4,1.6l1.2,1.5l1,1.3l1,1.1l0.9,1l0.8,0.9l0.8,0.8l0.7,0.8l0.7,0.7l0.6,0.6l0.6,0.6
			l0.6,0.5l0.5,0.5l0.5,0.5l0.5,0.4l0.5,0.4l0.5,0.4l0.5,0.4l0.4,0.4l0.4,0.3l0.4,0.3l0.4,0.3l0.4,0.3l0.4,0.3l0.4,0.3l0.3,0.3
			l0.3,0.3l0.3,0.2l0.3,0.2l0.3,0.2l0.3,0.2l0.3,0.2l0.3,0.2l0.3,0.2l0.3,0.2l0.3,0.2l0.3,0.2l0.3,0.2l0.3,0.2l0.3,0.2l0.3,0.2
			l0.3,0.2l0.3,0.2l0.3,0.2l0.3,0.2l0.3,0.2l0.3,0.1l0.3,0.1l0.2,0.1l0.2,0.1l0.3,0.1l0.2,0.1l0.2,0.1l0.2,0.1L60,74l0.2,0.1
			l0.2,0.1l0.2,0.1l0.2,0.1l0.2,0.1l0.2,0.1l0.2,0.1l0.2,0.1l0.2,0l0.2,0.1l0.2,0.1l0.2,0.1l0.2,0.1l0.2,0.1l0.2,0.1l0.2,0.1
			l0.2,0.1l0.2,0.1l0.2,0.1l0.2,0.1l0.2,0.1l0.2,0.1l0.2,0.1l0.2,0.1l0.2,0.1l0.2,0.1l0.2,0.1l0.2,0.1l0.2,0.1l0.2,0.1l0.2,0.1
			l0.2,0.1l0.2,0.1l0.2,0.1l0.2,0.1l0.2,0.1l0.2,0.1l0.2,0.1l0.2,0.1l0.2,0.1l0.2,0.1l0.2,0.1l0.2,0.1l0.2,0.1l0.2,0.1l0.2,0.1
			l0.2,0.1l0.2,0.1l0.2,0.1l0.2,0.1l0.2,0.1l0.2,0.1l0.2,0.1l0.2,0.1l0.2,0.1l0.2,0.1l0.2,0.1l0.2,0.1l0.2,0.1l0.2,0.1l0.2,0.1
			l0.2,0.1l0.2,0.1l0.2,0.1l0.2,0.1l0.2,0.1l0.2,0.1l0.2,0.1l0.2,0.1l0.2,0.1l0.2,0.1l0.2,0.1l0.2,0.1l0.2,0.1l0.2,0.1l0.2,0.1
			l0.2,0.1l0.2,0.1l0.2,0.1l0.2,0.1l0.2,0.1l0.2,0.1L76,83l0.2,0.1l0.2,0.1l0.2,0.1l0.2,0.1l0.2,0.1l0.2,0.1l0.2,0.1l0.2,0.1
			l0.2,0.1l0.2,0.1l0.2,0.1l0.2,0.1l0.2,0.1l0.2,0.1l0.2,0.1l0.2,0.1l0.2,0.1l0.2,0.1l0.2,0.1l0.2,0.1l0.2,0.1l0.2,0.1l0.2,0.1
			l0.2,0.1l0.2,0.1l0.2,0.1l0.2,0.1l0.2,0.1l0.2,0.1l0.2,0.1l0.2,0.1l0.2,0.1l0.2,0.1l0.2,0.1l0.2,0.1l0.2,0.1l0.3,0.2l0.3,0.1
			l0.3,0.2l0.3,0.1l0.3,0.2l0.3,0.2l0.3,0.2l0.3,0.2l0.3,0.2l0.3,0.2l0.3,0.2l0.3,0.2l0.3,0.2l0.3,0.2l0.3,0.2L88,90l0.3,0.2
			l0.3,0.2l0.3,0.2l0.4,0.2l0.4,0.2l0.4,0.2l0.4,0.2l0.4,0.2l0.4,0.2l0.4,0.2l0.5,0.2l0.5,0.2l0.5,0.2l0.5,0.2l0.6,0.2l0.6,0.2
			l0.6,0.2l0.6,0.2l0.7,0.2l0.7,0.2l0.8,0.2l0.8,0.2l0.9,0.2l0.9,0.2l1,0.2l1.1,0.2l1.2,0.2l1.3,0.3l1.4,0.3l1.6,0.3l1.8,0.3
			l2.1,0.3l2.4,0.3l2.9,0.3l3.5,0.3l4.4,0.3l5.9,0.4l8.3,0.4l13.3,0.5l7.6,0.8V100.9"/>
		<path class="st0" d="M162.2,100.9v0.9l-7.1,0.8l-13.6,0.5l-8.5,0.4l-6,0.4l-4.5,0.3l-3.6,0.3l-3,0.3l-2.5,0.3l-2.2,0.3l-1.9,0.3
			l-1.7,0.3l-1.5,0.3l-1.3,0.3l-1.2,0.2l-1.1,0.2l-1,0.2l-0.9,0.2l-0.9,0.2l-0.8,0.2l-0.8,0.2l-0.7,0.2l-0.7,0.2l-0.7,0.2l-0.6,0.2
			l-0.6,0.2l-0.6,0.2l-0.5,0.2l-0.5,0.2l-0.5,0.2l-0.5,0.2l-0.4,0.2l-0.4,0.2l-0.4,0.2l-0.4,0.2l-0.4,0.2l-0.4,0.2l-0.4,0.2
			l-0.4,0.2l-0.3,0.2l-0.3,0.2L88,112l-0.3,0.2l-0.3,0.2l-0.3,0.2l-0.3,0.2l-0.3,0.2l-0.3,0.2l-0.3,0.2l-0.3,0.2l-0.3,0.2l-0.3,0.2
			l-0.3,0.2l-0.3,0.2l-0.3,0.1l-0.3,0.2l-0.3,0.2l-0.3,0.1l-0.2,0.1l-0.2,0.1l-0.2,0.1l-0.2,0.1l-0.2,0.1l-0.2,0.1l-0.2,0.1
			l-0.2,0.1l-0.2,0.1l-0.2,0.1L81,116l-0.2,0.1l-0.2,0.1l-0.2,0.1l-0.2,0.1l-0.2,0.1l-0.2,0.1l-0.2,0.1l-0.2,0.1l-0.2,0.1l-0.2,0.1
			l-0.2,0.1l-0.2,0.1l-0.2,0.1l-0.2,0.1l-0.2,0.1l-0.2,0.1l-0.2,0.1l-0.2,0.1l-0.2,0.1l-0.2,0.1l-0.2,0.1l-0.2,0.1l-0.2,0.1
			l-0.2,0.1l-0.2,0.1l-0.2,0.1l-0.2,0.1l-0.2,0.1l-0.2,0.1l-0.2,0.1l-0.2,0.1l-0.2,0.1l-0.2,0.1l-0.2,0.1l-0.2,0.1l-0.2,0.1
			l-0.2,0.1l-0.2,0.1l-0.2,0.1l-0.2,0.1l-0.2,0.1l-0.2,0.1l-0.2,0.1l-0.2,0.1l-0.2,0.1l-0.2,0.1l-0.2,0.1l-0.2,0.1l-0.2,0.1
			l-0.2,0.1l-0.2,0.1l-0.2,0.1l-0.2,0.1l-0.2,0.1l-0.2,0.1l-0.2,0.1l-0.2,0.1l-0.2,0.1l-0.2,0.1l-0.2,0.1l-0.2,0.1l-0.2,0.1
			l-0.2,0.1l-0.2,0.1l-0.2,0.1l-0.2,0.1l-0.2,0.1l-0.2,0.1l-0.2,0.1l-0.2,0.1l-0.2,0.1l-0.2,0.1l-0.2,0.1l-0.2,0.1l-0.2,0.1
			l-0.2,0.1l-0.2,0.1l-0.2,0.1l-0.2,0.1l-0.2,0.1l-0.2,0.1l-0.2,0.1l-0.2,0.1l-0.2,0.1l-0.2,0.1l-0.2,0.1l-0.2,0.1l-0.2,0.1
			l-0.2,0.1l-0.2,0.1l-0.2,0.1l-0.2,0.1l-0.2,0.1l-0.2,0.1l-0.2,0.1l-0.2,0.1l-0.2,0.1L62,127l-0.2,0.1l-0.2,0.1l-0.2,0.1l-0.2,0.1
			l-0.2,0.1l-0.2,0.1l-0.2,0.1l-0.2,0.1l-0.2,0.1l-0.2,0.1l-0.2,0.1l-0.2,0.1l-0.3,0.1l-0.2,0.1l-0.2,0.1l-0.3,0.1l-0.3,0.1
			l-0.3,0.1l-0.3,0.1l-0.3,0.2l-0.3,0.1l-0.3,0.2l-0.3,0.2l-0.3,0.2l-0.3,0.2l-0.3,0.2l-0.3,0.2l-0.3,0.2l-0.3,0.2l-0.3,0.2
			l-0.3,0.2l-0.3,0.2l-0.3,0.2l-0.3,0.2l-0.3,0.2l-0.3,0.2l-0.3,0.2l-0.3,0.3l-0.4,0.3l-0.4,0.3l-0.4,0.3l-0.4,0.3l-0.4,0.3
			l-0.4,0.3l-0.4,0.4l-0.4,0.4l-0.5,0.4l-0.5,0.4l-0.5,0.4l-0.5,0.4l-0.5,0.5l-0.5,0.5l-0.6,0.6l-0.6,0.6l-0.6,0.6l-0.7,0.7
			l-0.7,0.8l-0.8,0.8l-0.8,0.9l-0.9,1l-1,1.1l-1.1,1.3l-1.2,1.5l-1.3,1.7l-1.5,2l-1.8,2.4l-2.1,3l-2.6,3.8l-3.3,5l-4.6,7.1
			l-7.2,11.5l-4.2,5.8l-0.8-0.4l-0.8-0.4l2.9-6.6l6.4-12l3.9-7.6l2.6-5.4l2-4.1l1.5-3.3l1.2-2.7l1-2.3l0.8-2l0.7-1.8l0.6-1.6
			l0.5-1.4l0.4-1.3l0.4-1.2l0.3-1.1l0.3-1l0.3-0.9l0.3-0.9L33,132l0.2-0.8l0.2-0.7l0.2-0.7l0.1-0.7l0.1-0.6l0.1-0.6l0.1-0.6l0.1-0.6
			l0.1-0.5l0.1-0.5l0.1-0.5l0.1-0.5l0.1-0.5l0.1-0.5l0-0.4v-0.4v-0.4v-0.4v-0.4v-0.4v-0.4v-0.4v-0.4v-0.4v-0.3V119v-0.3V83v-0.3
			v-0.3V82v-0.4v-0.4v-0.4v-0.4v-0.4v-0.4v-0.4v-0.4v-0.4l0-0.4l-0.1-0.4l-0.1-0.5l-0.1-0.5l-0.1-0.5l-0.1-0.5l-0.1-0.5L34,74.5
			l-0.1-0.6l-0.1-0.6l-0.1-0.6L33.5,72l-0.2-0.7l-0.2-0.7L33,69.8L32.8,69l-0.3-0.9l-0.3-0.9l-0.3-1l-0.3-1.1l-0.4-1.2l-0.4-1.3
			l-0.5-1.4l-0.6-1.6l-0.7-1.8l-0.8-2l-1-2.3l-1.2-2.7l-1.5-3.3l-2-4.1l-2.6-5.4l-3.9-7.6l-6.4-12L6.7,12l0.8-0.4l0.8-0.5l4.2,5.8
			l7.2,11.5l4.6,7.1l3.3,5l2.6,3.7l2.1,3l1.7,2.4l1.5,2l1.3,1.7l1.2,1.5l1.1,1.3l1,1.2l0.9,1l0.8,0.9l0.8,0.8l0.7,0.8l0.7,0.7
			l0.6,0.7l0.6,0.6l0.6,0.6l0.5,0.5l0.5,0.5l0.5,0.5l0.5,0.4l0.5,0.4l0.5,0.4l0.4,0.4l0.4,0.3l0.4,0.3l0.4,0.3l0.4,0.3l0.4,0.3
			l0.4,0.3l0.4,0.3l0.3,0.3l0.3,0.2l0.3,0.2l0.3,0.2l0.3,0.2l0.3,0.2l0.3,0.2l0.3,0.2l0.3,0.2l0.3,0.2l0.3,0.2l0.3,0.2l0.3,0.2
			l0.3,0.2l0.3,0.2l0.3,0.2L57,72l0.3,0.2l0.3,0.2l0.3,0.2l0.3,0.1l0.3,0.2l0.3,0.1l0.2,0.1l0.2,0.1l0.3,0.1l0.2,0.1l0.2,0.1
			l0.2,0.1l0.2,0.1l0.2,0.1l0.2,0.1l0.2,0.1l0.2,0.1l0.2,0.1l0.2,0.1l0.2,0.1l0.2,0.1l0.2,0.1l0.2,0.1l0.2,0.1l0.2,0.1l0.2,0.1
			l0.2,0.1l0.2,0.1l0.2,0.1l0.2,0.1l0.2,0.1l0.2,0.1l0.2,0.1l0.2,0.1l0.2,0.1l0.2,0.1l0.2,0.1l0.2,0.1l0.2,0.1l0.2,0.1l0.2,0.1
			l0.2,0.1l0.2,0.1l0.2,0.1l0.2,0.1l0.2,0.1l0.2,0.1l0.2,0.1l0.2,0.1l0.2,0.1L68,78l0.2,0.1l0.2,0.1l0.2,0.1l0.2,0.1l0.2,0.1
			l0.2,0.1l0.2,0.1l0.2,0.1l0.2,0.1l0.2,0.1l0.2,0.1l0.2,0.1l0.2,0.1l0.2,0.1l0.2,0.1l0.2,0.1l0.2,0.1l0.2,0.1l0.2,0.1l0.2,0.1
			l0.2,0.1l0.2,0.1l0.2,0.1l0.2,0.1l0.2,0.1l0.2,0.1l0.2,0.1l0.2,0.1l0.2,0.1l0.2,0.1l0.2,0.1l0.2,0.1l0.2,0.1l0.2,0.1l0.2,0.1
			l0.2,0.1l0.2,0.1l0.2,0.1l0.2,0.1l0.2,0.1l0.2,0.1l0.2,0.1l0.2,0.1l0.2,0.1l0.2,0.1l0.2,0.1l0.2,0.1l0.2,0.1l0.2,0.1l0.2,0.1
			l0.2,0.1l0.2,0.1l0.2,0.1l0.2,0.1l0.2,0.1l0.2,0.1l0.2,0.1l0.2,0.1l0.2,0.1l0.2,0.1l0.2,0.1l0.2,0.1l0.2,0.1l0.2,0.1l0.2,0.1
			l0.2,0.1l0.2,0.1l0.2,0.1l0.2,0.1l0.2,0.1l0.2,0.1l0.2,0.1l0.2,0.1l0.2,0.1l0.2,0.1l0.2,0.1L83,87l0.2,0.2l0.2,0.1l0.3,0.1
			l0.3,0.2l0.3,0.1l0.3,0.2l0.3,0.2l0.3,0.2l0.3,0.2l0.3,0.2l0.3,0.2l0.3,0.2l0.3,0.2l0.3,0.2l0.3,0.2l0.3,0.2l0.3,0.2l0.3,0.2
			l0.3,0.2l0.3,0.2l0.3,0.2l0.4,0.2l0.4,0.2l0.4,0.2l0.4,0.2l0.4,0.2l0.4,0.2l0.4,0.2l0.4,0.2l0.5,0.2l0.5,0.2l0.5,0.2l0.5,0.2
			l0.6,0.2l0.6,0.2l0.6,0.2l0.7,0.2l0.7,0.2l0.7,0.2l0.8,0.2l0.8,0.2l0.9,0.2l0.9,0.2l1,0.2l1.1,0.3l1.2,0.2l1.3,0.3l1.5,0.3
			l1.7,0.3l1.9,0.3l2.2,0.3l2.5,0.3l3,0.3l3.6,0.3l4.5,0.4l6,0.4l8.5,0.4l13.6,0.5l7.1,0.8L162.2,100.9"/>
		<path class="st0" d="M163.4,100.9v0.9l-6.7,0.8l-13.9,0.5l-8.6,0.4l-6.1,0.4l-4.6,0.4l-3.7,0.3l-3,0.3l-2.5,0.3l-2.2,0.3l-1.9,0.3
			l-1.7,0.3l-1.5,0.3l-1.4,0.3l-1.2,0.3l-1.1,0.3l-1,0.2l-1,0.2l-0.9,0.2l-0.8,0.2l-0.8,0.2l-0.7,0.2l-0.7,0.2l-0.7,0.2L96,109
			l-0.6,0.2l-0.6,0.2l-0.6,0.2l-0.5,0.2l-0.5,0.2l-0.5,0.2l-0.5,0.2l-0.4,0.2l-0.4,0.2L91,111l-0.4,0.2l-0.4,0.2l-0.4,0.2l-0.4,0.2
			l-0.3,0.2l-0.3,0.2l-0.3,0.2l-0.3,0.2l-0.3,0.2l-0.3,0.2l-0.3,0.2l-0.3,0.2l-0.3,0.2l-0.3,0.2l-0.3,0.2l-0.3,0.2l-0.3,0.2
			l-0.3,0.2l-0.3,0.2l-0.3,0.2l-0.3,0.2l-0.3,0.2l-0.3,0.1l-0.3,0.2l-0.3,0.1l-0.2,0.1l-0.2,0.1l-0.2,0.1l-0.2,0.1l-0.2,0.1
			l-0.2,0.1l-0.2,0.1l-0.2,0.1l-0.2,0.1l-0.2,0.1l-0.2,0.1l-0.2,0.1l-0.2,0.1l-0.2,0.1L80,117l-0.2,0.1l-0.2,0.1l-0.2,0.1l-0.2,0.1
			l-0.2,0.1l-0.2,0.1l-0.2,0.1l-0.2,0.1l-0.2,0.1l-0.2,0.1l-0.2,0.1l-0.2,0.1l-0.2,0.1l-0.2,0.1l-0.2,0.1l-0.2,0.1l-0.2,0.1
			l-0.2,0.1l-0.2,0.1l-0.2,0.1l-0.2,0.1l-0.2,0.1l-0.2,0.1l-0.2,0.1L75,120l-0.2,0.1l-0.2,0.1l-0.2,0.1l-0.2,0.1l-0.2,0.1l-0.2,0.1
			l-0.2,0.1l-0.2,0.1l-0.2,0.1l-0.2,0.1l-0.2,0.1l-0.2,0.1l-0.2,0.1l-0.2,0.1l-0.2,0.1l-0.2,0.1l-0.2,0.1l-0.2,0.1l-0.2,0.1
			l-0.2,0.1l-0.2,0.1l-0.2,0.1l-0.2,0.1l-0.2,0.1l-0.2,0.1l-0.2,0.1L70,123l-0.2,0.1l-0.2,0.1l-0.2,0.1l-0.2,0.1l-0.2,0.1l-0.2,0.1
			l-0.2,0.1l-0.2,0.1l-0.2,0.1l-0.2,0.1l-0.2,0.1l-0.2,0.1l-0.2,0.1l-0.2,0.1l-0.2,0.1l-0.2,0.1l-0.2,0.1l-0.2,0.1l-0.2,0.1
			l-0.2,0.1l-0.2,0.1l-0.2,0.1l-0.2,0.1l-0.2,0.1l-0.2,0.1l-0.2,0.1l-0.2,0.1l-0.2,0.1l-0.2,0.1l-0.2,0.1l-0.2,0.1l-0.2,0.1
			l-0.2,0.1l-0.2,0.1l-0.2,0.1l-0.2,0.1l-0.2,0.1l-0.2,0.1l-0.2,0.1l-0.2,0.1l-0.2,0.1l-0.2,0.1l-0.2,0.1l-0.2,0.1l-0.2,0.1
			l-0.2,0.1l-0.2,0.1l-0.2,0.1l-0.2,0.1l-0.2,0.1l-0.2,0.1l-0.2,0.1L59,129l-0.2,0.1l-0.3,0.1l-0.3,0.1l-0.3,0.1l-0.3,0.1l-0.3,0.2
			l-0.3,0.1l-0.3,0.2l-0.3,0.2l-0.3,0.2l-0.3,0.2l-0.3,0.2l-0.3,0.2l-0.3,0.2l-0.3,0.2l-0.3,0.2l-0.3,0.2L54,132l-0.3,0.2l-0.3,0.2
			l-0.3,0.2l-0.3,0.2l-0.3,0.2l-0.3,0.3l-0.4,0.3l-0.4,0.3l-0.4,0.3l-0.4,0.3l-0.4,0.3l-0.4,0.3l-0.4,0.3l-0.4,0.4l-0.4,0.4
			l-0.5,0.4l-0.5,0.4l-0.5,0.4l-0.5,0.5l-0.5,0.5l-0.5,0.5l-0.6,0.6l-0.6,0.6l-0.7,0.7l-0.7,0.7l-0.7,0.8l-0.8,0.9l-0.8,0.9
			l-0.9,1.1l-1,1.2l-1.1,1.3l-1.2,1.5l-1.3,1.8l-1.5,2.1l-1.8,2.4l-2.1,3l-2.6,3.8l-3.4,5.1l-4.7,7.3l-7.4,11.8l-4,5.4l-0.8-0.5
			l-0.8-0.4l2.7-6.2l6.5-12.3l4-7.7l2.7-5.5l2-4.2l1.5-3.4l1.2-2.8l1-2.4l0.8-2l0.7-1.8l0.6-1.6l0.5-1.4l0.5-1.3l0.4-1.2l0.4-1.1
			l0.3-1l0.3-1l0.3-0.9l0.2-0.8l0.2-0.8l0.2-0.8l0.2-0.7l0.2-0.7l0.1-0.6l0.1-0.6l0.1-0.6l0.1-0.6l0.1-0.5l0.1-0.5l0.1-0.5l0.1-0.5
			l0.1-0.5l0.1-0.5l0-0.4v-0.4v-0.4v-0.4v-0.4v-0.4v-0.4v-0.4v-0.4V120v-0.4v-0.3v-0.3v-36v-0.3v-0.3v-0.4v-0.4v-0.4v-0.4v-0.4V80
			v-0.4v-0.4v-0.4v-0.4l0-0.4l-0.1-0.5l-0.1-0.5l-0.1-0.5L34,75.8l-0.1-0.5l-0.1-0.5l-0.1-0.6l-0.1-0.6L33.5,73l-0.1-0.6l-0.2-0.7
			L33,71l-0.2-0.8l-0.2-0.8l-0.2-0.8l-0.3-0.9l-0.3-1l-0.3-1l-0.4-1.1l-0.4-1.2l-0.5-1.3l-0.5-1.4l-0.6-1.6l-0.7-1.8l-0.8-2l-1-2.3
			l-1.2-2.8l-1.5-3.4l-2-4.2l-2.7-5.5l-4-7.7L8.7,17.2L6.1,11l0.8-0.4L7.6,10l4,5.4L19,27.2l4.7,7.3l3.4,5.1l2.6,3.8l2.1,3l1.8,2.5
			l1.5,2l1.3,1.7l1.2,1.5l1.1,1.3l1,1.2l0.9,1l0.8,0.9l0.8,0.9l0.7,0.8l0.7,0.7l0.7,0.7l0.6,0.6l0.6,0.6l0.5,0.5l0.5,0.5l0.5,0.5
			l0.5,0.4l0.5,0.4l0.5,0.4L49,66l0.4,0.3l0.4,0.3l0.4,0.3l0.4,0.3l0.4,0.3l0.4,0.3l0.4,0.3l0.4,0.3l0.3,0.3l0.3,0.2l0.3,0.2
			l0.3,0.2l0.3,0.2l0.3,0.2l0.3,0.2l0.3,0.2l0.3,0.2l0.3,0.2l0.3,0.2l0.3,0.2l0.3,0.2l0.3,0.2l0.3,0.2l0.3,0.2l0.3,0.2l0.3,0.2
			l0.3,0.2l0.3,0.2l0.3,0.1l0.3,0.2l0.3,0.1l0.2,0.1l0.3,0.1l0.2,0.1l0.2,0.1l0.2,0.1l0.2,0.1l0.2,0.1l0.2,0.1l0.2,0.1l0.2,0.1
			l0.2,0.1l0.2,0.1l0.2,0.1l0.2,0.1l0.2,0.1l0.2,0.1l0.2,0.1l0.2,0.1l0.2,0.1l0.2,0.1l0.2,0.1l0.2,0.1l0.2,0.1l0.2,0.1l0.2,0.1
			l0.2,0.1l0.2,0.1l0.2,0.1l0.2,0.1l0.2,0.1l0.2,0.1l0.2,0.1l0.2,0.1l0.2,0.1l0.2,0.1l0.2,0.1l0.2,0.1l0.2,0.1l0.2,0.1l0.2,0.1
			l0.2,0.1l0.2,0.1l0.2,0.1l0.2,0.1l0.2,0.1l0.2,0.1l0.2,0.1l0.2,0.1l0.2,0.1l0.2,0.1l0.2,0.1l0.2,0.1l0.2,0.1l0.2,0.1l0.2,0.1
			l0.2,0.1l0.2,0.1l0.2,0.1l0.2,0.1l0.2,0.1l0.2,0.1l0.2,0.1l0.2,0.1l0.2,0.1l0.2,0.1l0.2,0.1l0.2,0.1l0.2,0.1l0.2,0.1l0.2,0.1
			l0.2,0.1l0.2,0.1l0.2,0.1l0.2,0.1l0.2,0.1l0.2,0.1l0.2,0.1l0.2,0.1l0.2,0.1l0.2,0.1l0.2,0.1l0.2,0.1l0.2,0.1l0.2,0.1l0.2,0.1
			l0.2,0.1l0.2,0.1l0.2,0.1l0.2,0.1l0.2,0.1l0.2,0.1l0.2,0.1l0.2,0.1l0.2,0.1l0.2,0.1l0.2,0.1l0.2,0.1l0.2,0.1l0.2,0.1l0.2,0.1
			l0.2,0.1l0.2,0.1l0.2,0.1l0.2,0.1l0.2,0.1l0.2,0.1l0.2,0.1l0.2,0.1l0.2,0.1l0.2,0.1l0.2,0.1l0.2,0.1l0.2,0.1l0.2,0.1l0.2,0.1
			l0.2,0.1l0.2,0.1l0.2,0.1l0.2,0.1l0.2,0.1l0.2,0.1l0.3,0.1l0.3,0.2l0.3,0.1l0.3,0.2l0.3,0.2l0.3,0.2l0.3,0.1l0.3,0.2l0.3,0.2
			l0.3,0.2l0.3,0.2l0.3,0.2l0.3,0.2l0.3,0.2l0.3,0.2l0.3,0.2l0.3,0.2l0.3,0.2l0.3,0.2l0.3,0.2l0.3,0.2l0.4,0.2l0.4,0.2l0.4,0.2
			l0.4,0.2l0.4,0.2l0.4,0.2l0.4,0.2l0.5,0.2l0.5,0.2l0.5,0.2l0.5,0.2l0.6,0.2l0.6,0.2l0.6,0.2l0.6,0.2l0.7,0.2l0.7,0.2l0.7,0.2
			l0.8,0.2l0.8,0.2l0.9,0.2l1,0.2l1,0.2l1.1,0.3l1.2,0.3l1.4,0.3l1.5,0.3l1.7,0.3l1.9,0.3l2.2,0.3l2.5,0.3l3,0.3l3.7,0.3l4.6,0.4
			l6.1,0.4l8.6,0.4l13.9,0.5l6.7,0.8L163.4,100.9"/>
		<path class="st0" d="M164.6,100.9v0.9l-6.3,0.8l-14.2,0.5l-8.8,0.4l-6.2,0.4l-4.7,0.4l-3.7,0.3l-3.1,0.3l-2.6,0.3l-2.2,0.3
			l-1.9,0.3l-1.7,0.3l-1.5,0.3l-1.4,0.3l-1.3,0.3l-1.2,0.3l-1.1,0.2l-1,0.2l-0.9,0.2l-0.8,0.2l-0.8,0.2l-0.8,0.2l-0.7,0.2L97,109
			l-0.6,0.2l-0.6,0.2l-0.6,0.2l-0.6,0.2l-0.5,0.2l-0.5,0.2l-0.5,0.2l-0.5,0.2l-0.4,0.2l-0.4,0.2l-0.4,0.2l-0.4,0.2l-0.4,0.2
			l-0.4,0.2l-0.4,0.2l-0.4,0.2l-0.4,0.2l-0.3,0.2l-0.3,0.2l-0.3,0.2l-0.3,0.2l-0.3,0.2l-0.3,0.2l-0.3,0.2l-0.3,0.2l-0.3,0.2
			l-0.3,0.2l-0.3,0.2l-0.3,0.2l-0.3,0.2l-0.3,0.2l-0.3,0.2l-0.3,0.2l-0.3,0.1l-0.3,0.2l-0.3,0.1l-0.2,0.2l-0.2,0.1l-0.2,0.1
			l-0.2,0.1l-0.2,0.1l-0.2,0.1l-0.2,0.1l-0.2,0.1l-0.2,0.1l-0.2,0.1l-0.2,0.1l-0.2,0.1l-0.2,0.1l-0.2,0.1l-0.2,0.1l-0.2,0.1
			l-0.2,0.1l-0.2,0.1l-0.2,0.1l-0.2,0.1l-0.2,0.1l-0.2,0.1l-0.2,0.1l-0.2,0.1l-0.2,0.1l-0.2,0.1l-0.2,0.1l-0.2,0.1l-0.2,0.1
			l-0.2,0.1l-0.2,0.1l-0.2,0.1l-0.2,0.1l-0.2,0.1l-0.2,0.1l-0.2,0.1l-0.2,0.1l-0.2,0.1l-0.2,0.1l-0.2,0.1l-0.2,0.1l-0.2,0.1
			l-0.2,0.1l-0.2,0.1l-0.2,0.1l-0.2,0.1l-0.2,0.1l-0.2,0.1l-0.2,0.1l-0.2,0.1l-0.2,0.1l-0.2,0.1l-0.2,0.1l-0.2,0.1l-0.2,0.1
			l-0.2,0.1l-0.2,0.1l-0.2,0.1l-0.2,0.1l-0.2,0.1l-0.2,0.1l-0.2,0.1l-0.2,0.1l-0.2,0.1l-0.2,0.1l-0.2,0.1l-0.2,0.1l-0.2,0.1
			l-0.2,0.1l-0.2,0.1l-0.2,0.1l-0.2,0.1l-0.2,0.1l-0.2,0.1l-0.2,0.1l-0.2,0.1l-0.2,0.1l-0.2,0.1l-0.2,0.1l-0.2,0.1l-0.2,0.1
			l-0.2,0.1l-0.2,0.1l-0.2,0.1l-0.2,0.1l-0.2,0.1l-0.2,0.1l-0.2,0.1l-0.2,0.1l-0.2,0.1l-0.2,0.1l-0.2,0.1L65,126l-0.2,0.1l-0.2,0.1
			l-0.2,0.1l-0.2,0.1l-0.2,0.1l-0.2,0.1l-0.2,0.1l-0.2,0.1l-0.2,0.1l-0.2,0.1l-0.2,0.1l-0.2,0.1l-0.2,0.1l-0.2,0.1l-0.2,0.1
			l-0.2,0.1l-0.2,0.1l-0.2,0.1l-0.2,0.1l-0.2,0.1l-0.2,0.1l-0.2,0.1l-0.2,0.1l-0.2,0.1l-0.2,0.1l-0.3,0.1l-0.2,0.1l-0.3,0.1
			l-0.3,0.1l-0.3,0.1l-0.3,0.1l-0.3,0.1l-0.3,0.2l-0.3,0.2l-0.3,0.2l-0.3,0.2l-0.3,0.2l-0.3,0.2l-0.3,0.2l-0.3,0.2l-0.3,0.2
			l-0.3,0.2l-0.3,0.2l-0.3,0.2l-0.3,0.2l-0.3,0.2l-0.3,0.2L53,133l-0.3,0.2l-0.3,0.2l-0.3,0.3l-0.4,0.3l-0.4,0.3l-0.4,0.3l-0.4,0.3
			l-0.4,0.3l-0.4,0.3l-0.4,0.4l-0.4,0.4l-0.5,0.4L48,137l-0.5,0.4l-0.5,0.4l-0.5,0.5l-0.5,0.5l-0.6,0.5l-0.6,0.6l-0.6,0.6l-0.7,0.7
			l-0.7,0.7l-0.7,0.8l-0.8,0.9l-0.8,1l-0.9,1.1l-1,1.2l-1.1,1.4l-1.2,1.5l-1.4,1.8l-1.6,2.1l-1.8,2.5l-2.2,3.1l-2.7,3.9l-3.5,5.2
			l-4.8,7.4l-7.5,12l-3.8,5l-0.8-0.5l-0.8-0.5l2.4-5.8l6.7-12.5l4-7.9l2.8-5.6l2-4.3l1.7-3.4l1.3-2.8l1-2.4l0.9-2.1l0.7-1.8l0.6-1.6
			l0.5-1.5l0.5-1.3l0.4-1.2l0.4-1.1l0.3-1l0.3-1l0.3-0.9l0.2-0.9l0.2-0.8l0.2-0.8l0.2-0.7l0.2-0.7l0.1-0.7l0.1-0.6l0.1-0.6l0.1-0.6
			l0.1-0.6l0.1-0.5l0.1-0.5l0.1-0.5l0.1-0.5l0.1-0.5l0.1-0.4v-0.4v-0.4v-0.4v-0.4v-0.4v-0.4v-0.4v-0.4v-0.4v-0.4v-0.4v-0.3v-0.3V83
			v-0.3v-0.4v-0.4v-0.4v-0.4v-0.4v-0.4v-0.4v-0.4v-0.4v-0.4v-0.4L34,78v-0.5L33.9,77l-0.1-0.5L33.8,76l-0.1-0.5L33.6,75l-0.1-0.6
			l-0.1-0.6l-0.1-0.6l-0.1-0.6L33,72l-0.2-0.7l-0.2-0.7l-0.2-0.8L32.3,69l-0.2-0.8l-0.3-0.9l-0.3-1l-0.3-1l-0.4-1.1l-0.4-1.2
			L30,61.6l-0.5-1.5l-0.6-1.6l-0.7-1.8l-0.9-2.1l-1-2.4L25,49.4L23.4,46l-2-4.3l-2.8-5.6l-4-7.9L7.9,15.7L5.4,9.9l0.8-0.5L7,9l3.8,5
			l7.5,12l4.8,7.4l3.5,5.2l2.7,3.9l2.2,3.1l1.8,2.5l1.6,2.1l1.4,1.8l1.2,1.5l1.1,1.3l1,1.2l0.9,1.1l0.8,1l0.8,0.9l0.7,0.8l0.7,0.7
			l0.7,0.7l0.6,0.6l0.6,0.6l0.6,0.5l0.5,0.5l0.5,0.5l0.5,0.5l0.5,0.4l0.5,0.4l0.5,0.4l0.4,0.4l0.4,0.3l0.4,0.3l0.4,0.3l0.4,0.3
			l0.4,0.3l0.4,0.3L52,68l0.3,0.3l0.3,0.2l0.3,0.2l0.3,0.2l0.3,0.2l0.3,0.2l0.3,0.2l0.3,0.2L55,70l0.3,0.2l0.3,0.2l0.3,0.2l0.3,0.2
			l0.3,0.2l0.3,0.2l0.3,0.2l0.3,0.2l0.3,0.2l0.3,0.2l0.3,0.2l0.3,0.2l0.3,0.1l0.3,0.2l0.3,0.1l0.2,0.1l0.3,0.1l0.2,0.1L60,73
			l0.2,0.1l0.2,0.1l0.2,0.1l0.2,0.1l0.2,0.1l0.2,0.1l0.2,0.1l0.2,0.1l0.2,0.1l0.2,0.1l0.2,0.1l0.2,0.1l0.2,0.1l0.2,0.1l0.2,0.1
			l0.2,0.1l0.2,0.1l0.2,0.1l0.2,0.1l0.2,0.1l0.2,0.1l0.2,0.1l0.2,0.1l0.2,0.1l0.2,0.1l0.2,0.1l0.2,0.1l0.2,0.1l0.2,0.1l0.2,0.1
			l0.2,0.1l0.2,0.1l0.2,0.1l0.2,0.1l0.2,0.1l0.2,0.1l0.2,0.1l0.2,0.1l0.2,0.1l0.2,0.1l0.2,0.1l0.2,0.1l0.2,0.1l0.2,0.1l0.2,0.1
			l0.2,0.1l0.2,0.1l0.2,0.1l0.2,0.1l0.2,0.1l0.2,0.1l0.2,0.1l0.2,0.1l0.2,0.1l0.2,0.1l0.2,0.1l0.2,0.1l0.2,0.1l0.2,0.1l0.2,0.1
			l0.2,0.1l0.2,0.1l0.2,0.1l0.2,0.1l0.2,0.1l0.2,0.1l0.2,0.1l0.2,0.1l0.2,0.1l0.2,0.1l0.2,0.1l0.2,0.1l0.2,0.1l0.2,0.1l0.2,0.1
			l0.2,0.1l0.2,0.1l0.2,0.1l0.2,0.1L76,82l0.2,0.1l0.2,0.1l0.2,0.1l0.2,0.1l0.2,0.1l0.2,0.1l0.2,0.1l0.2,0.1l0.2,0.1l0.2,0.1
			l0.2,0.1l0.2,0.1l0.2,0.1l0.2,0.1l0.2,0.1l0.2,0.1l0.2,0.1l0.2,0.1l0.2,0.1l0.2,0.1l0.2,0.1l0.2,0.1l0.2,0.1l0.2,0.1l0.2,0.1
			l0.2,0.1l0.2,0.1l0.2,0.1l0.2,0.1l0.2,0.1l0.2,0.1l0.2,0.1l0.2,0.1l0.2,0.1l0.2,0.1l0.2,0.2l0.3,0.1l0.3,0.1l0.3,0.2l0.3,0.2
			l0.3,0.2l0.3,0.2l0.3,0.2l0.3,0.2L86,88l0.3,0.2l0.3,0.2l0.3,0.2l0.3,0.2l0.3,0.2l0.3,0.2l0.3,0.2l0.3,0.2l0.3,0.2l0.3,0.2
			l0.4,0.2l0.4,0.2l0.4,0.2l0.4,0.2l0.4,0.2l0.4,0.2l0.4,0.2l0.4,0.2l0.4,0.2l0.5,0.2l0.5,0.2l0.5,0.2l0.5,0.2l0.6,0.2l0.6,0.2
			l0.6,0.2l0.6,0.2l0.7,0.2l0.7,0.2l0.8,0.2l0.8,0.2l0.8,0.2l0.9,0.2l1,0.2l1.1,0.2l1.2,0.3l1.3,0.3l1.4,0.3l1.5,0.3l1.7,0.3
			l1.9,0.3l2.2,0.3l2.6,0.3l3.1,0.3l3.7,0.3l4.7,0.4l6.2,0.4l8.8,0.4l14.2,0.5l6.3,0.8L164.6,100.9"/>
		<path class="st0" d="M165.8,100.9v0.9l-5.8,0.8l-14.5,0.5l-9,0.4l-6.4,0.4l-4.8,0.4l-3.8,0.3l-3.1,0.3l-2.6,0.3l-2.3,0.3l-2,0.3
			l-1.8,0.3l-1.6,0.3l-1.4,0.3l-1.3,0.3l-1.2,0.3l-1.1,0.2l-1,0.2l-0.9,0.2l-0.9,0.2l-0.8,0.2l-0.8,0.2l-0.7,0.2l-0.7,0.2l-0.7,0.2
			l-0.6,0.2l-0.6,0.2l-0.6,0.2l-0.5,0.2l-0.5,0.2l-0.5,0.2l-0.5,0.2l-0.5,0.2l-0.4,0.2l-0.4,0.2l-0.4,0.2l-0.4,0.2l-0.4,0.2
			l-0.4,0.2l-0.4,0.2l-0.4,0.2l-0.3,0.2l-0.3,0.2l-0.3,0.2l-0.3,0.2l-0.3,0.2l-0.3,0.2l-0.3,0.2l-0.3,0.2l-0.3,0.2l-0.3,0.2L86,114
			l-0.3,0.2l-0.3,0.2l-0.3,0.2l-0.3,0.2l-0.3,0.2l-0.3,0.2l-0.3,0.1l-0.3,0.2l-0.3,0.1l-0.2,0.2l-0.2,0.1l-0.2,0.1l-0.2,0.1
			l-0.2,0.1l-0.2,0.1l-0.2,0.1l-0.2,0.1l-0.2,0.1l-0.2,0.1l-0.2,0.1l-0.2,0.1l-0.2,0.1l-0.2,0.1l-0.2,0.1l-0.2,0.1l-0.2,0.1
			l-0.2,0.1l-0.2,0.1l-0.2,0.1l-0.2,0.1l-0.2,0.1l-0.2,0.1l-0.2,0.1l-0.2,0.1l-0.2,0.1l-0.2,0.1l-0.2,0.1l-0.2,0.1l-0.2,0.1
			l-0.2,0.1l-0.2,0.1l-0.2,0.1l-0.2,0.1l-0.2,0.1L76,120l-0.2,0.1l-0.2,0.1l-0.2,0.1l-0.2,0.1l-0.2,0.1l-0.2,0.1l-0.2,0.1l-0.2,0.1
			l-0.2,0.1l-0.2,0.1l-0.2,0.1l-0.2,0.1l-0.2,0.1l-0.2,0.1l-0.2,0.1l-0.2,0.1l-0.2,0.1l-0.2,0.1l-0.2,0.1l-0.2,0.1l-0.2,0.1
			l-0.2,0.1l-0.2,0.1l-0.2,0.1l-0.2,0.1L71,123l-0.2,0.1l-0.2,0.1l-0.2,0.1l-0.2,0.1l-0.2,0.1l-0.2,0.1l-0.2,0.1l-0.2,0.1l-0.2,0.1
			l-0.2,0.1l-0.2,0.1l-0.2,0.1l-0.2,0.1l-0.2,0.1l-0.2,0.1l-0.2,0.1l-0.2,0.1l-0.2,0.1l-0.2,0.1l-0.2,0.1l-0.2,0.1l-0.2,0.1
			l-0.2,0.1l-0.2,0.1l-0.2,0.1l-0.2,0.1l-0.2,0.1l-0.2,0.1l-0.2,0.1l-0.2,0.1l-0.2,0.1l-0.2,0.1l-0.2,0.1l-0.2,0.1l-0.2,0.1
			l-0.2,0.1l-0.2,0.1l-0.2,0.1l-0.2,0.1l-0.2,0.1l-0.2,0.1l-0.2,0.1l-0.2,0.1l-0.2,0.1l-0.2,0.1l-0.2,0.1l-0.2,0.1l-0.2,0.1
			l-0.2,0.1l-0.2,0.1l-0.2,0.1l-0.2,0.1L60,129l-0.3,0.1l-0.2,0.1l-0.3,0.1l-0.3,0.1l-0.3,0.1l-0.3,0.1l-0.3,0.1l-0.3,0.1l-0.3,0.2
			l-0.3,0.1l-0.3,0.2l-0.3,0.2l-0.3,0.2l-0.3,0.2l-0.3,0.2l-0.3,0.2l-0.3,0.2l-0.3,0.2l-0.3,0.2l-0.3,0.2l-0.3,0.2l-0.3,0.2
			l-0.3,0.2l-0.3,0.2l-0.3,0.2l-0.3,0.2l-0.3,0.3l-0.4,0.3l-0.4,0.3l-0.4,0.3l-0.4,0.3l-0.4,0.3l-0.4,0.3l-0.4,0.3l-0.4,0.4
			l-0.4,0.4l-0.5,0.4l-0.5,0.4l-0.5,0.4l-0.5,0.5l-0.5,0.5l-0.5,0.5l-0.6,0.6l-0.6,0.6l-0.6,0.6l-0.7,0.7l-0.7,0.7l-0.8,0.8
			l-0.8,0.9l-0.9,1l-0.9,1.1l-1,1.2l-1.1,1.4l-1.2,1.6l-1.4,1.8l-1.6,2.1l-1.9,2.6l-2.2,3.1l-2.7,4l-3.5,5.3l-4.9,7.6l-7.7,12.3
			l-3.6,4.6l-0.8-0.5l-0.8-0.5l2.2-5.4l6.8-12.8l4.1-8l2.8-5.7l2.1-4.4l1.6-3.5l1.3-2.9l1-2.4l0.9-2.1l0.7-1.9l0.6-1.6l0.5-1.5
			l0.5-1.4l0.4-1.2l0.4-1.1l0.3-1.1l0.3-1l0.3-0.9l0.2-0.9l0.2-0.8l0.2-0.8l0.2-0.7l0.2-0.7l0.1-0.7l0.1-0.6l0.1-0.6l0.1-0.6
			l0.1-0.6l0.1-0.5l0.1-0.5l0.1-0.5l0.1-0.5l0.1-0.5l0.1-0.5l0-0.4v-0.4v-0.4v-0.4v-0.4v-0.4v-0.4v-0.4v-0.4V120v-0.4v-0.3V119V82.8
			v-0.3v-0.4v-0.3v-0.4L34,81v-0.4v-0.4v-0.4v-0.4V79v-0.4v-0.4l0-0.4l-0.1-0.5l-0.1-0.5l-0.1-0.5l-0.1-0.5l-0.1-0.5l-0.1-0.5
			l-0.1-0.6l-0.1-0.6L33,72.9l-0.1-0.6l-0.1-0.7l-0.2-0.7l-0.2-0.7l-0.2-0.8L32,68.6l-0.2-0.9l-0.3-0.9l-0.3-1l-0.3-1.1l-0.4-1.1
			l-0.4-1.2l-0.5-1.3L29,59.6l-0.6-1.7l-0.7-1.9L26.8,54l-1-2.4l-1.3-2.9l-1.6-3.5l-2.1-4.3l-2.8-5.7l-4.1-8L7,14.3L4.8,8.9l0.8-0.5
			L6.4,8l3.6,4.6l7.7,12.3l4.9,7.6l3.5,5.3l2.7,4l2.2,3.1l1.8,2.5l1.6,2.1l1.4,1.8l1.2,1.6l1.1,1.4l1,1.2l0.9,1.1l0.9,1l0.8,0.9
			l0.8,0.8l0.7,0.8l0.7,0.7l0.6,0.6l0.6,0.6l0.6,0.5l0.5,0.5l0.5,0.5l0.5,0.5l0.5,0.4l0.5,0.4l0.5,0.4l0.4,0.4l0.4,0.3l0.4,0.3
			l0.4,0.3l0.4,0.3l0.4,0.3l0.4,0.3l0.4,0.3l0.4,0.3l0.3,0.3l0.3,0.3l0.3,0.2l0.3,0.2l0.3,0.2l0.3,0.2l0.3,0.2l0.3,0.2l0.3,0.2
			l0.3,0.2l0.3,0.2l0.3,0.2l0.3,0.2l0.3,0.2l0.3,0.2l0.3,0.2l0.3,0.2l0.3,0.2l0.3,0.2l0.3,0.2l0.3,0.2l0.3,0.2l0.3,0.1l0.3,0.1
			l0.3,0.1l0.2,0.1l0.3,0.1l0.2,0.1l0.2,0.1l0.2,0.1l0.2,0.1l0.2,0.1l0.2,0.1l0.2,0.1l0.2,0.1l0.2,0.1l0.2,0.1l0.2,0.1l0.2,0.1
			l0.2,0.1l0.2,0.1l0.2,0.1l0.2,0.1l0.2,0.1l0.2,0.1l0.2,0.1l0.2,0.1l0.2,0.1l0.2,0.1l0.2,0.1l0.2,0.1l0.2,0.1l0.2,0.1l0.2,0.1
			l0.2,0.1l0.2,0.1l0.2,0.1l0.2,0.1l0.2,0.1l0.2,0.1l0.2,0.1l0.2,0.1l0.2,0.1l0.2,0.1l0.2,0.1l0.2,0.1l0.2,0.1l0.2,0.1l0.2,0.1
			l0.2,0.1l0.2,0.1l0.2,0.1l0.2,0.1l0.2,0.1l0.2,0.1l0.2,0.1l0.2,0.1l0.2,0.1l0.2,0.1l0.2,0.1l0.2,0.1l0.2,0.1l0.2,0.1l0.2,0.1
			l0.2,0.1l0.2,0.1l0.2,0.1l0.2,0.1l0.2,0.1l0.2,0.1l0.2,0.1l0.2,0.1l0.2,0.1l0.2,0.1l0.2,0.1l0.2,0.1l0.2,0.1l0.2,0.1l0.2,0.1
			l0.2,0.1l0.2,0.1l0.2,0.1l0.2,0.1l0.2,0.1l0.2,0.1l0.2,0.1l0.2,0.1l0.2,0.1l0.2,0.1l0.2,0.1l0.2,0.1l0.2,0.1l0.2,0.1l0.2,0.1
			l0.2,0.1l0.2,0.1l0.2,0.1l0.2,0.1l0.2,0.1l0.2,0.1l0.2,0.1l0.2,0.1l0.2,0.1l0.2,0.1l0.2,0.1l0.2,0.1l0.2,0.1l0.2,0.1l0.2,0.1
			l0.2,0.1L81,85l0.2,0.1l0.2,0.1l0.2,0.1l0.2,0.1l0.2,0.1l0.2,0.1l0.2,0.1l0.2,0.1l0.2,0.1l0.2,0.1l0.2,0.2l0.3,0.1l0.3,0.2
			l0.3,0.1l0.3,0.2l0.3,0.2l0.3,0.2l0.3,0.2l0.3,0.2l0.3,0.2l0.3,0.2l0.3,0.2l0.3,0.2l0.3,0.2l0.3,0.2l0.3,0.2l0.3,0.2l0.3,0.2
			l0.3,0.2l0.3,0.2l0.3,0.2l0.4,0.2l0.4,0.2l0.4,0.2l0.4,0.2l0.4,0.2l0.4,0.2l0.4,0.2l0.4,0.2l0.5,0.2l0.5,0.2l0.5,0.2l0.5,0.2
			l0.5,0.2l0.6,0.2l0.6,0.2l0.6,0.2l0.7,0.2l0.7,0.2l0.7,0.2l0.8,0.2l0.8,0.2l0.9,0.2l0.9,0.2l1,0.2l1.1,0.2l1.2,0.3l1.3,0.3
			l1.4,0.3l1.6,0.3l1.8,0.3l2,0.3l2.3,0.3l2.6,0.3l3.1,0.3l3.8,0.3l4.8,0.4l6.4,0.4l9,0.4l14.5,0.5l5.8,0.8v0.9"/>
		<path class="st0" d="M167,100.9v0.9l-5.4,0.8l-14.8,0.5l-9.2,0.4l-6.5,0.4l-4.9,0.4l-3.9,0.3l-3.2,0.3l-2.7,0.3l-2.3,0.3l-2,0.3
			l-1.8,0.3l-1.6,0.3l-1.4,0.3l-1.3,0.3l-1.2,0.3l-1.1,0.3l-1,0.2l-0.9,0.2l-0.9,0.2l-0.8,0.2l-0.8,0.2l-0.7,0.2l-0.7,0.2l-0.7,0.2
			l-0.6,0.2l-0.6,0.2l-0.6,0.2l-0.5,0.2l-0.5,0.2l-0.5,0.2l-0.5,0.2l-0.5,0.2l-0.4,0.2l-0.4,0.2l-0.4,0.2l-0.4,0.2l-0.4,0.2
			l-0.4,0.2l-0.4,0.2l-0.4,0.2l-0.4,0.2l-0.3,0.2l-0.3,0.2l-0.3,0.2l-0.3,0.2l-0.3,0.2l-0.3,0.2l-0.3,0.2l-0.3,0.2l-0.3,0.2
			l-0.3,0.2l-0.3,0.2l-0.3,0.2l-0.3,0.2l-0.3,0.2l-0.3,0.2l-0.3,0.2l-0.3,0.2l-0.3,0.2l-0.3,0.1l-0.3,0.2l-0.2,0.1l-0.2,0.1
			l-0.2,0.1l-0.2,0.2l-0.2,0.1l-0.2,0.1l-0.2,0.1l-0.2,0.1l-0.2,0.1l-0.2,0.1l-0.2,0.1l-0.2,0.1l-0.2,0.1l-0.2,0.1l-0.2,0.1
			l-0.2,0.1l-0.2,0.1l-0.2,0.1l-0.2,0.1l-0.2,0.1l-0.2,0.1l-0.2,0.1l-0.2,0.1l-0.2,0.1l-0.2,0.1l-0.2,0.1l-0.2,0.1l-0.2,0.1
			l-0.2,0.1l-0.2,0.1l-0.2,0.1l-0.2,0.1l-0.2,0.1l-0.2,0.1l-0.2,0.1l-0.2,0.1l-0.2,0.1l-0.2,0.1l-0.2,0.1l-0.2,0.1l-0.2,0.1
			l-0.2,0.1l-0.2,0.1l-0.2,0.1l-0.2,0.1l-0.2,0.1l-0.2,0.1l-0.2,0.1l-0.2,0.1l-0.2,0.1l-0.2,0.1l-0.2,0.1l-0.2,0.1l-0.2,0.1
			l-0.2,0.1l-0.2,0.1l-0.2,0.1l-0.2,0.1l-0.2,0.1l-0.2,0.1l-0.2,0.1l-0.2,0.1l-0.2,0.1l-0.2,0.1l-0.2,0.1l-0.2,0.1l-0.2,0.1
			l-0.2,0.1l-0.2,0.1l-0.2,0.1l-0.2,0.1l-0.2,0.1l-0.2,0.1l-0.2,0.1l-0.2,0.1l-0.2,0.1l-0.2,0.1l-0.2,0.1l-0.2,0.1l-0.2,0.1
			l-0.2,0.1l-0.2,0.1l-0.2,0.1l-0.2,0.1l-0.2,0.1l-0.2,0.1L66,126l-0.2,0.1l-0.2,0.1l-0.2,0.1l-0.2,0.1l-0.2,0.1l-0.2,0.1l-0.2,0.1
			l-0.2,0.1l-0.2,0.1l-0.2,0.1l-0.2,0.1l-0.2,0.1l-0.2,0.1l-0.2,0.1l-0.2,0.1l-0.2,0.1l-0.2,0.1l-0.2,0.1l-0.2,0.1l-0.2,0.1
			l-0.2,0.1l-0.2,0.1l-0.2,0.1l-0.2,0.1l-0.2,0.1l-0.2,0.1l-0.2,0.1l-0.3,0.1l-0.2,0.1l-0.3,0.1l-0.3,0.1l-0.3,0.1l-0.3,0.1
			l-0.3,0.1l-0.3,0.1l-0.3,0.2l-0.3,0.2l-0.3,0.2l-0.3,0.2l-0.3,0.2l-0.3,0.2l-0.3,0.2l-0.3,0.2l-0.3,0.2l-0.3,0.2l-0.3,0.2
			l-0.3,0.2l-0.3,0.2l-0.3,0.2l-0.3,0.2l-0.3,0.2l-0.3,0.2l-0.3,0.2l-0.3,0.3l-0.4,0.3l-0.4,0.3l-0.4,0.3l-0.4,0.3l-0.4,0.3
			l-0.4,0.3l-0.4,0.3l-0.4,0.4l-0.5,0.4l-0.5,0.4l-0.5,0.4l-0.5,0.4l-0.5,0.5l-0.5,0.5l-0.6,0.5l-0.6,0.6l-0.6,0.6l-0.6,0.6
			l-0.7,0.7l-0.7,0.8l-0.8,0.8l-0.8,0.9l-0.9,1l-1,1.1l-1,1.2l-1.1,1.4l-1.3,1.6l-1.4,1.9l-1.6,2.2l-1.9,2.6l-2.3,3.2l-2.8,4
			l-3.6,5.4l-5,7.7l-7.8,12.5l-3.4,4.2L5,194.4l-0.8-0.5l1.9-5l6.9-13l4.2-8.2l2.9-5.8l2.1-4.4l1.7-3.6l1.3-2.9l1.1-2.5l0.9-2.1
			l0.8-1.9l0.6-1.7l0.6-1.5l0.5-1.4l0.4-1.3l0.4-1.1l0.3-1.1l0.3-1l0.3-0.9l0.2-0.9l0.2-0.8l0.2-0.8l0.2-0.8l0.2-0.7l0.1-0.7
			l0.1-0.6l0.1-0.6l0.1-0.6l0.1-0.6l0.1-0.6l0.1-0.5l0.1-0.5l0.1-0.5l0.1-0.5l0-0.5l0.1-0.5l0-0.4V123v-0.4v-0.4v-0.4v-0.4V121v-0.4
			v-0.4v-0.4v-0.4v-0.3V82.6v-0.3v-0.4v-0.4v-0.4v-0.4v-0.4V80v-0.4v-0.4v-0.4v-0.4l0-0.4l-0.1-0.5L33.4,77l-0.1-0.5L33.2,76
			l-0.1-0.5L33.1,75L33,74.4l-0.1-0.6l-0.1-0.6l-0.1-0.6L32.5,72l-0.1-0.7l-0.2-0.7L32,69.8L31.8,69l-0.2-0.8l-0.2-0.9l-0.3-0.9
			l-0.3-1l-0.3-1.1l-0.4-1.2l-0.4-1.3l-0.5-1.4L28.6,59L28,57.3l-0.8-1.9l-0.9-2.2l-1.1-2.5L24,47.9l-1.6-3.5l-2.1-4.4l-2.9-5.8
			l-4.2-8.2l-6.9-13L4.2,7.8L5,7.4l0.8-0.5l3.4,4.2L17,23.6l5,7.7l3.6,5.4l2.8,4.1l2.3,3.2l1.9,2.6l1.6,2.2l1.4,1.8l1.3,1.6l1.2,1.4
			l1,1.2l1,1.1l0.9,1l0.8,0.9l0.8,0.8l0.7,0.8l0.7,0.7l0.6,0.7l0.6,0.6l0.6,0.6l0.6,0.5l0.5,0.5l0.5,0.5l0.5,0.4l0.5,0.4l0.5,0.4
			l0.5,0.4l0.4,0.4l0.4,0.3l0.4,0.3l0.4,0.3l0.4,0.3l0.4,0.3l0.4,0.3l0.4,0.3l0.3,0.3L53,68l0.3,0.2l0.3,0.2l0.3,0.2l0.3,0.2
			l0.3,0.2l0.3,0.2l0.3,0.2l0.3,0.2l0.3,0.2l0.3,0.2l0.3,0.2l0.3,0.2l0.3,0.2l0.3,0.2l0.3,0.2l0.3,0.2l0.3,0.2l0.3,0.2l0.3,0.2
			l0.3,0.2l0.3,0.2l0.3,0.1l0.3,0.1l0.2,0.2l0.3,0.1l0.2,0.1l0.2,0.1l0.2,0.1L61,73l0.2,0.1l0.2,0.1l0.2,0.1l0.2,0.1l0.2,0.1
			l0.2,0.1l0.2,0.1l0.2,0.1l0.2,0.1l0.2,0.1l0.2,0.1l0.2,0.1l0.2,0.1l0.2,0.1l0.2,0.1l0.2,0.1l0.2,0.1l0.2,0.1l0.2,0.1l0.2,0.1
			l0.2,0.1l0.2,0.1l0.2,0.1l0.2,0.1l0.2,0.1l0.2,0.1l0.2,0.1l0.2,0.1l0.2,0.1l0.2,0.1l0.2,0.1l0.2,0.1l0.2,0.1l0.2,0.1l0.2,0.1
			l0.2,0.1l0.2,0.1l0.2,0.1l0.2,0.1l0.2,0.1l0.2,0.1l0.2,0.1l0.2,0.1l0.2,0.1l0.2,0.1l0.2,0.1l0.2,0.1l0.2,0.1l0.2,0.1l0.2,0.1
			l0.2,0.1l0.2,0.1l0.2,0.1l0.2,0.1l0.2,0.1l0.2,0.1l0.2,0.1l0.2,0.1l0.2,0.1l0.2,0.1l0.2,0.1l0.2,0.1l0.2,0.1l0.2,0.1l0.2,0.1
			l0.2,0.1l0.2,0.1l0.2,0.1l0.2,0.1l0.2,0.1l0.2,0.1l0.2,0.1l0.2,0.1l0.2,0.1l0.2,0.1l0.2,0.1l0.2,0.1l0.2,0.1l0.2,0.1l0.2,0.1
			l0.2,0.1l0.2,0.1l0.2,0.1l0.2,0.1l0.2,0.1l0.2,0.1l0.2,0.1l0.2,0.1l0.2,0.1l0.2,0.1l0.2,0.1l0.2,0.1l0.2,0.1l0.2,0.1l0.2,0.1
			l0.2,0.1l0.2,0.1l0.2,0.1l0.2,0.1l0.2,0.1l0.2,0.1l0.2,0.1l0.2,0.1l0.2,0.1l0.2,0.1l0.2,0.1l0.2,0.1l0.2,0.2l0.2,0.1l0.2,0.1
			l0.3,0.2l0.3,0.1l0.3,0.2l0.3,0.2l0.3,0.2l0.3,0.2l0.3,0.2l0.3,0.2l0.3,0.2l0.3,0.2l0.3,0.2l0.3,0.2l0.3,0.2l0.3,0.2l0.3,0.2
			l0.3,0.2l0.3,0.2l0.3,0.2l0.3,0.2l0.3,0.2l0.4,0.2l0.4,0.2l0.4,0.2l0.4,0.2l0.4,0.2l0.4,0.2l0.4,0.2l0.4,0.2l0.4,0.2l0.5,0.2
			l0.5,0.2l0.5,0.2l0.5,0.2l0.5,0.2l0.6,0.2l0.6,0.2l0.6,0.2l0.7,0.2l0.7,0.2l0.7,0.2l0.8,0.2l0.8,0.2l0.9,0.2l0.9,0.2l1,0.2
			l1.1,0.3l1.2,0.3l1.3,0.3l1.4,0.3l1.6,0.3l1.8,0.3l2,0.3l2.3,0.3l2.7,0.3l3.2,0.3l3.9,0.3l4.9,0.4l6.5,0.4l9.2,0.4l14.8,0.5
			l5.4,0.8L167,100.9"/>
		<path class="st0" d="M168.2,100.9v0.9l-4.9,0.9l-15,0.5l-9.4,0.4l-6.6,0.4l-5,0.4l-4,0.3l-3.3,0.3l-2.7,0.3l-2.3,0.3l-2,0.3
			l-1.8,0.3l-1.6,0.3l-1.5,0.3l-1.3,0.3l-1.2,0.3l-1.1,0.2l-1,0.3l-1,0.2l-0.9,0.2l-0.8,0.2l-0.8,0.2l-0.8,0.2l-0.7,0.2l-0.7,0.2
			l-0.6,0.2l-0.6,0.2l-0.6,0.2l-0.6,0.2l-0.5,0.2l-0.5,0.2l-0.5,0.2l-0.5,0.2l-0.4,0.2l-0.4,0.2l-0.4,0.2l-0.4,0.2l-0.4,0.2
			l-0.4,0.2l-0.4,0.2l-0.4,0.2l-0.4,0.2l-0.3,0.2l-0.3,0.2l-0.3,0.2l-0.3,0.2l-0.3,0.2l-0.3,0.2l-0.3,0.2l-0.3,0.2l-0.3,0.2
			l-0.3,0.2l-0.3,0.2l-0.3,0.2l-0.3,0.2l-0.3,0.2l-0.3,0.2l-0.3,0.2l-0.3,0.1l-0.3,0.2l-0.3,0.2l-0.3,0.2l-0.3,0.1l-0.2,0.1
			l-0.3,0.2l-0.2,0.1l-0.2,0.1l-0.2,0.1l-0.2,0.1L82,117l-0.2,0.1l-0.2,0.1l-0.2,0.1l-0.2,0.1l-0.2,0.1l-0.2,0.1l-0.2,0.1l-0.2,0.1
			l-0.2,0.1l-0.2,0.1l-0.2,0.1l-0.2,0.1l-0.2,0.1l-0.2,0.1l-0.2,0.1l-0.2,0.1l-0.2,0.1l-0.2,0.1l-0.2,0.1l-0.2,0.1l-0.2,0.1
			l-0.2,0.1l-0.2,0.1l-0.2,0.1l-0.2,0.1l-0.2,0.1l-0.2,0.1l-0.2,0.1l-0.2,0.1l-0.2,0.1l-0.2,0.1l-0.2,0.1l-0.2,0.1l-0.2,0.1
			l-0.2,0.1l-0.2,0.1l-0.2,0.1l-0.2,0.1l-0.2,0.1l-0.2,0.1l-0.2,0.1l-0.2,0.1l-0.2,0.1l-0.2,0.1l-0.2,0.1l-0.2,0.1l-0.2,0.1
			l-0.2,0.1L72,123l-0.2,0.1l-0.2,0.1l-0.2,0.1l-0.2,0.1l-0.2,0.1l-0.2,0.1l-0.2,0.1l-0.2,0.1l-0.2,0.1l-0.2,0.1l-0.2,0.1l-0.2,0.1
			l-0.2,0.1l-0.2,0.1l-0.2,0.1l-0.2,0.1l-0.2,0.1l-0.2,0.1l-0.2,0.1l-0.2,0.1l-0.2,0.1l-0.2,0.1l-0.2,0.1l-0.2,0.1l-0.2,0.1
			l-0.2,0.1l-0.2,0.1l-0.2,0.1l-0.2,0.1l-0.2,0.1l-0.2,0.1l-0.2,0.1l-0.2,0.1l-0.2,0.1l-0.2,0.1l-0.2,0.1l-0.2,0.1l-0.2,0.1
			l-0.2,0.1l-0.2,0.1l-0.2,0.1l-0.2,0.1l-0.2,0.1L63,128l-0.2,0.1l-0.2,0.1l-0.2,0.1l-0.2,0.1l-0.2,0.1l-0.2,0.1l-0.2,0.1l-0.2,0.1
			l-0.2,0.1l-0.2,0.1l-0.2,0.1l-0.3,0.1l-0.2,0.1l-0.3,0.1l-0.3,0.1l-0.3,0.1l-0.3,0.1l-0.3,0.1l-0.3,0.2l-0.3,0.1l-0.3,0.2
			l-0.3,0.2l-0.3,0.2l-0.3,0.2l-0.3,0.2l-0.3,0.2l-0.3,0.2L56,132l-0.3,0.2l-0.3,0.2l-0.3,0.2l-0.3,0.2l-0.3,0.2l-0.3,0.2l-0.3,0.2
			l-0.3,0.2l-0.3,0.2l-0.3,0.2l-0.3,0.3l-0.4,0.3l-0.4,0.3l-0.4,0.3l-0.4,0.3l-0.4,0.3l-0.4,0.3l-0.4,0.3l-0.4,0.3l-0.4,0.4
			l-0.5,0.4l-0.5,0.4l-0.5,0.4l-0.5,0.4l-0.5,0.5l-0.5,0.5l-0.6,0.5l-0.6,0.6l-0.6,0.6l-0.7,0.7l-0.7,0.7l-0.7,0.8l-0.8,0.8
			l-0.8,0.9l-0.9,1l-1,1.1l-1,1.3l-1.2,1.4l-1.3,1.6l-1.4,1.9l-1.6,2.2l-1.9,2.6l-2.2,3.2l-2.8,4.1l-3.7,5.5l-5.1,7.9l-8,12.8
			l-3.2,3.8l-0.8-0.5l-0.8-0.5l1.7-4.6l7.1-13.3l4.3-8.4l3-5.9l2.2-4.5l1.7-3.6l1.3-3l1.1-2.5l0.9-2.2l0.8-1.9l0.7-1.7l0.6-1.5
			l0.5-1.4l0.4-1.3l0.4-1.2l0.3-1.1l0.3-1l0.3-0.9l0.3-0.9l0.2-0.8l0.2-0.8l0.2-0.8l0.2-0.7l0.2-0.7l0.1-0.7l0.1-0.6l0.1-0.6
			l0.1-0.6l0.1-0.6l0.1-0.5l0.1-0.5l0.1-0.5l0.1-0.5l0.1-0.5v-0.5v-0.4l0-0.4v-0.4v-0.4V122v-0.4v-0.4v-0.4v-0.4v-0.4v-0.4v-0.3v-37
			V82v-0.4v-0.4v-0.4v-0.4v-0.4v-0.4v-0.4v-0.4v-0.4l0-0.4v-0.4v-0.5l-0.1-0.5L33,76.2l-0.1-0.5l-0.1-0.5l-0.1-0.5l-0.1-0.6
			l-0.1-0.6l-0.1-0.6l-0.1-0.6l-0.1-0.7L32,70.9l-0.2-0.7l-0.2-0.8l-0.2-0.8l-0.2-0.8L31,66.9l-0.3-1l-0.3-1l-0.3-1.1l-0.4-1.2
			l-0.4-1.3L28.8,60l-0.6-1.5l-0.7-1.7l-0.8-1.9l-0.9-2.2l-1.1-2.5l-1.3-3l-1.7-3.6L19.6,39l-3-5.9l-4.3-8.4L5.3,11.5L3.6,6.8
			l0.8-0.5l0.8-0.5l3.2,3.8l8,12.8l5.1,7.9l3.7,5.5L28,40l2.3,3.3l1.9,2.7l1.6,2.2l1.4,1.9l1.3,1.6l1.1,1.4l1,1.3l1,1.1l0.9,1
			l0.8,0.9l0.8,0.8l0.7,0.8l0.7,0.7l0.7,0.7l0.6,0.6l0.6,0.6L46,62l0.5,0.5L47,63l0.5,0.4l0.5,0.4l0.5,0.4l0.5,0.4l0.4,0.4l0.4,0.3
			l0.4,0.3l0.4,0.3l0.4,0.3l0.4,0.3l0.4,0.3l0.4,0.3l0.4,0.3l0.3,0.3l0.3,0.3l0.3,0.2l0.3,0.2l0.3,0.2l0.3,0.2l0.3,0.2l0.3,0.2
			l0.3,0.2l0.3,0.2l0.3,0.2l0.3,0.2l0.3,0.2l0.3,0.2l0.3,0.2l0.3,0.2l0.3,0.2L58,71l0.3,0.2l0.3,0.2l0.3,0.2l0.3,0.2l0.3,0.2
			l0.3,0.1l0.3,0.2l0.3,0.1l0.2,0.1l0.3,0.1l0.2,0.1l0.2,0.1l0.2,0.1l0.2,0.1l0.2,0.1l0.2,0.1l0.2,0.1l0.2,0.1l0.2,0.1l0.2,0.1
			l0.2,0.1l0.2,0.1l0.2,0.1l0.2,0.1l0.2,0.1l0.2,0.1l0.2,0.1l0.2,0.1l0.2,0.1l0.2,0.1l0.2,0.1l0.2,0.1l0.2,0.1l0.2,0.1l0.2,0.1
			l0.2,0.1l0.2,0.1l0.2,0.1l0.2,0.1l0.2,0.1l0.2,0.1l0.2,0.1l0.2,0.1l0.2,0.1l0.2,0.1l0.2,0.1l0.2,0.1l0.2,0.1l0.2,0.1l0.2,0.1
			l0.2,0.1l0.2,0.1l0.2,0.1l0.2,0.1l0.2,0.1l0.2,0.1l0.2,0.1l0.2,0.1l0.2,0.1l0.2,0.1l0.2,0.1l0.2,0.1l0.2,0.1l0.2,0.1l0.2,0.1
			l0.2,0.1l0.2,0.1l0.2,0.1l0.2,0.1l0.2,0.1l0.2,0.1l0.2,0.1l0.2,0.1l0.2,0.1L74,80l0.2,0.1l0.2,0.1l0.2,0.1l0.2,0.1l0.2,0.1
			l0.2,0.1l0.2,0.1l0.2,0.1l0.2,0.1l0.2,0.1l0.2,0.1l0.2,0.1l0.2,0.1l0.2,0.1l0.2,0.1l0.2,0.1l0.2,0.1l0.2,0.1l0.2,0.1l0.2,0.1
			l0.2,0.1l0.2,0.1l0.2,0.1l0.2,0.1L79,83l0.2,0.1l0.2,0.1l0.2,0.1l0.2,0.1l0.2,0.1l0.2,0.1l0.2,0.1l0.2,0.1l0.2,0.1l0.2,0.1
			l0.2,0.1l0.2,0.1l0.2,0.1l0.2,0.1l0.2,0.1l0.2,0.1l0.2,0.1l0.2,0.1l0.2,0.1l0.3,0.1l0.2,0.2l0.3,0.1l0.3,0.2l0.3,0.2l0.3,0.1
			l0.3,0.2l0.3,0.2l0.3,0.2l0.3,0.2l0.3,0.2l0.3,0.2l0.3,0.2l0.3,0.2l0.3,0.2l0.3,0.2l0.3,0.2l0.3,0.2l0.3,0.2l0.3,0.2l0.3,0.2
			l0.3,0.2l0.3,0.2l0.4,0.2l0.4,0.2l0.4,0.2l0.4,0.2l0.4,0.2l0.4,0.2l0.4,0.2l0.4,0.2l0.4,0.2l0.5,0.2l0.5,0.2l0.5,0.2l0.5,0.2
			l0.6,0.2l0.6,0.2l0.6,0.2l0.6,0.2l0.7,0.2l0.7,0.2l0.8,0.2l0.8,0.2l0.8,0.2l0.9,0.2l1,0.2l1,0.3l1.1,0.2l1.2,0.3l1.3,0.3l1.5,0.3
			l1.6,0.3l1.8,0.3l2,0.3l2.3,0.3l2.7,0.3l3.3,0.3l4,0.3l5,0.4l6.6,0.4l9.4,0.4l15,0.5l4.9,0.9v1"/>
		<path class="st0" d="M169.4,100.9v1l-4.4,0.9l-15.3,0.5l-9.6,0.5l-6.7,0.4l-5.1,0.4l-4,0.4l-3.3,0.3l-2.8,0.3l-2.4,0.3l-2.1,0.3
			l-1.8,0.3l-1.7,0.3l-1.5,0.3l-1.3,0.3l-1.2,0.3l-1.1,0.3l-1,0.3l-1,0.2l-0.9,0.2l-0.8,0.2l-0.8,0.2l-0.8,0.2l-0.7,0.2l-0.7,0.2
			l-0.6,0.2L97,110l-0.6,0.2l-0.6,0.2l-0.5,0.2l-0.5,0.2l-0.5,0.2l-0.5,0.2l-0.5,0.2l-0.4,0.2l-0.4,0.2l-0.4,0.2l-0.4,0.2l-0.4,0.2
			l-0.4,0.2l-0.4,0.2l-0.4,0.2l-0.3,0.2l-0.3,0.2l-0.3,0.2l-0.3,0.2l-0.3,0.2l-0.3,0.2l-0.3,0.2l-0.3,0.2l-0.3,0.2l-0.3,0.2
			l-0.3,0.2l-0.3,0.2l-0.3,0.2l-0.3,0.2l-0.3,0.2l-0.3,0.2l-0.3,0.2l-0.3,0.2l-0.3,0.2l-0.3,0.2l-0.3,0.1l-0.2,0.2l-0.3,0.1
			l-0.2,0.2l-0.2,0.1l-0.2,0.1l-0.2,0.1l-0.2,0.1l-0.2,0.1l-0.2,0.1l-0.2,0.1l-0.2,0.1l-0.2,0.1l-0.2,0.1l-0.2,0.1l-0.2,0.1
			l-0.2,0.1l-0.2,0.1l-0.2,0.1l-0.2,0.1l-0.2,0.1l-0.2,0.1l-0.2,0.1l-0.2,0.1l-0.2,0.1l-0.2,0.1l-0.2,0.1l-0.2,0.1l-0.2,0.1
			l-0.2,0.1l-0.2,0.1l-0.2,0.1l-0.2,0.1l-0.2,0.1l-0.2,0.1l-0.2,0.1l-0.2,0.1l-0.2,0.1l-0.2,0.1l-0.2,0.1l-0.2,0.1l-0.2,0.1
			l-0.2,0.1l-0.2,0.1l-0.2,0.1l-0.2,0.1l-0.2,0.1l-0.2,0.1l-0.2,0.1l-0.2,0.1l-0.2,0.1l-0.2,0.1l-0.2,0.1l-0.2,0.1l-0.2,0.1
			l-0.2,0.1l-0.2,0.1l-0.2,0.1l-0.2,0.1l-0.2,0.1l-0.2,0.1l-0.2,0.1l-0.2,0.1l-0.2,0.1l-0.2,0.1l-0.2,0.1l-0.2,0.1l-0.2,0.1
			l-0.2,0.1l-0.2,0.1l-0.2,0.1l-0.2,0.1L69,125l-0.2,0.1l-0.2,0.1l-0.2,0.1l-0.2,0.1l-0.2,0.1l-0.2,0.1l-0.2,0.1l-0.2,0.1l-0.2,0.1
			l-0.2,0.1l-0.2,0.1l-0.2,0.1l-0.2,0.1l-0.2,0.1l-0.2,0.1l-0.2,0.1l-0.2,0.1l-0.2,0.1l-0.2,0.1l-0.2,0.1l-0.2,0.1l-0.2,0.1
			l-0.2,0.1l-0.2,0.1l-0.2,0.1l-0.2,0.1l-0.2,0.1l-0.2,0.1l-0.2,0.1l-0.2,0.1l-0.2,0.1l-0.2,0.1l-0.2,0.1l-0.2,0.1l-0.2,0.1
			l-0.2,0.1l-0.2,0.1l-0.2,0.1l-0.3,0.1l-0.2,0.1l-0.3,0.1l-0.3,0.1l-0.3,0.1l-0.3,0.1l-0.3,0.1l-0.3,0.1l-0.3,0.2l-0.3,0.1
			l-0.3,0.2l-0.3,0.2l-0.3,0.2l-0.3,0.2l-0.3,0.2l-0.3,0.2l-0.3,0.2l-0.3,0.2l-0.3,0.2l-0.3,0.2l-0.3,0.2l-0.3,0.2l-0.3,0.2
			l-0.3,0.2l-0.3,0.2l-0.3,0.2l-0.3,0.2l-0.3,0.2l-0.4,0.3l-0.4,0.3l-0.4,0.3l-0.4,0.3l-0.4,0.3l-0.4,0.3l-0.4,0.3l-0.4,0.3
			l-0.4,0.4l-0.4,0.4l-0.5,0.4l-0.5,0.4l-0.5,0.4l-0.5,0.4l-0.5,0.5l-0.5,0.5l-0.6,0.6l-0.6,0.6l-0.6,0.6l-0.7,0.7l-0.7,0.7
			l-0.7,0.8l-0.8,0.9l-0.8,0.9l-0.9,1l-1,1.1l-1.1,1.3l-1.2,1.4l-1.3,1.7l-1.5,1.9l-1.7,2.3l-2,2.7l-2.3,3.3l-2.9,4.2l-3.7,5.6
			l-5.2,8.1l-8.1,13l-3,3.4l-0.8-0.5L3,196l1.4-4.2l7.2-13.5l4.4-8.6l3-6l2.2-4.6l1.7-3.7l1.4-3l1.1-2.6l0.9-2.2l0.8-1.9l0.7-1.7
			l0.6-1.6l0.5-1.4l0.4-1.3l0.4-1.2l0.4-1.1l0.3-1l0.3-1l0.3-0.9l0.2-0.9l0.2-0.8l0.2-0.8l0.2-0.7l0.1-0.7l0.1-0.7l0.1-0.6l0.1-0.6
			l0.1-0.6l0.1-0.6l0.1-0.5l0.1-0.5l0.1-0.5l0.1-0.5l0.1-0.5l0-0.5l0.1-0.5v-0.4l0-0.4v-0.4v-0.4v-0.4v-0.4v-0.4v-0.4v-0.4V120v-0.4
			v-0.7v-0.3V83.2v-0.3v-0.7v-0.4v-0.4v-0.4v-0.4v-0.4v-0.4v-0.4v-0.4v-0.4l0-0.4v-0.4l-0.1-0.5l0-0.5l-0.1-0.5l-0.1-0.5l-0.1-0.5
			l-0.1-0.5l-0.1-0.5l-0.1-0.6l-0.1-0.6l-0.1-0.6L32,71.9l-0.1-0.7l-0.1-0.7l-0.2-0.7L31.4,69l-0.2-0.8l-0.2-0.8l-0.3-0.9l-0.3-1
			l-0.3-1l-0.4-1.1l-0.4-1.2l-0.4-1.3l-0.5-1.4l-0.6-1.6l-0.7-1.7l-0.8-2L25.4,52l-1.1-2.6l-1.4-3l-1.7-3.7L19,38.1l-3-6l-4.4-8.5
			L4.4,10L3,5.8l0.8-0.5l0.8-0.5l3,3.3l8.1,13l5.2,8.1l3.7,5.6l2.9,4.2l2.3,3.3l2,2.7l1.7,2.3l1.5,1.9l1.3,1.7l1.2,1.5l1.1,1.3
			l1,1.2l0.9,1l0.8,0.9l0.8,0.9l0.7,0.8l0.7,0.7l0.7,0.7l0.6,0.6l0.6,0.6l0.6,0.5l0.5,0.5l0.5,0.5l0.5,0.5l0.5,0.4l0.5,0.4l0.5,0.4
			l0.4,0.4l0.4,0.3l0.4,0.3l0.4,0.3l0.4,0.3l0.4,0.3l0.4,0.3l0.4,0.3l0.4,0.3l0.4,0.3l0.3,0.2l0.3,0.2l0.3,0.2l0.3,0.2l0.3,0.2
			l0.3,0.2l0.3,0.2l0.3,0.2l0.3,0.2l0.3,0.2l0.3,0.2l0.3,0.2l0.3,0.2l0.3,0.2l0.3,0.2l0.3,0.2l0.3,0.2l0.3,0.2l0.3,0.2l0.3,0.2
			l0.3,0.2l0.3,0.2l0.3,0.1l0.3,0.2l0.3,0.1l0.3,0.1l0.2,0.1l0.3,0.1l0.2,0.1l0.2,0.1l0.2,0.1l0.2,0.1l0.2,0.1l0.2,0.1l0.2,0.1
			l0.2,0.1l0.2,0.1l0.2,0.1l0.2,0.1l0.2,0.1l0.2,0.1L64,74l0.2,0.1l0.2,0.1l0.2,0.1l0.2,0.1l0.2,0.1l0.2,0.1l0.2,0.1l0.2,0.1
			l0.2,0.1l0.2,0.1l0.2,0.1l0.2,0.1l0.2,0.1l0.2,0.1l0.2,0.1l0.2,0.1l0.2,0.1l0.2,0.1l0.2,0.1l0.2,0.1l0.2,0.1l0.2,0.1l0.2,0.1
			l0.2,0.1l0.2,0.1l0.2,0.1l0.2,0.1l0.2,0.1l0.2,0.1l0.2,0.1l0.2,0.1l0.2,0.1l0.2,0.1l0.2,0.1l0.2,0.1l0.2,0.1l0.2,0.1l0.2,0.1
			l0.2,0.1l0.2,0.1l0.2,0.1l0.2,0.1l0.2,0.1l0.2,0.1l0.2,0.1l0.2,0.1l0.2,0.1l0.2,0.1l0.2,0.1l0.2,0.1l0.2,0.1l0.2,0.1l0.2,0.1
			l0.2,0.1l0.2,0.1l0.2,0.1l0.2,0.1l0.2,0.1l0.2,0.1l0.2,0.1l0.2,0.1l0.2,0.1l0.2,0.1l0.2,0.1l0.2,0.1l0.2,0.1l0.2,0.1l0.2,0.1
			l0.2,0.1l0.2,0.1l0.2,0.1l0.2,0.1l0.2,0.1l0.2,0.1l0.2,0.1l0.2,0.1l0.2,0.1l0.2,0.1l0.2,0.1l0.2,0.1l0.2,0.1l0.2,0.1l0.2,0.1
			l0.2,0.1l0.2,0.1l0.2,0.1l0.2,0.1l0.2,0.1l0.2,0.1l0.2,0.1l0.2,0.1l0.2,0.1l0.2,0.1l0.2,0.2l0.3,0.1l0.2,0.2l0.3,0.1l0.3,0.2
			l0.3,0.2l0.3,0.2l0.3,0.2l0.3,0.2l0.3,0.2l0.3,0.2l0.3,0.2l0.3,0.2l0.3,0.2l0.3,0.2l0.3,0.2l0.3,0.2l0.3,0.2l0.3,0.2l0.3,0.2
			l0.3,0.2l0.3,0.2l0.3,0.2l0.3,0.2l0.4,0.2l0.4,0.2l0.4,0.2l0.4,0.2l0.4,0.2l0.4,0.2l0.4,0.2l0.4,0.2l0.5,0.2l0.5,0.2l0.5,0.2
			l0.5,0.2l0.5,0.2l0.6,0.2l0.6,0.2l0.6,0.2l0.6,0.2l0.7,0.2l0.7,0.2l0.8,0.2l0.8,0.2l0.8,0.2l0.9,0.2l1,0.2l1,0.3l1.1,0.3l1.2,0.3
			l1.3,0.3l1.5,0.3l1.7,0.3l1.8,0.3l2.1,0.3l2.4,0.3l2.8,0.3l3.3,0.3l4,0.4l5.1,0.4l6.7,0.4l9.6,0.5L165,99l4.4,0.9V100.9"/>
		<path class="st0" d="M170.6,100.9v1l-3.9,0.9l-15.6,0.5l-9.8,0.5l-6.9,0.4l-5.2,0.4l-4.1,0.4l-3.4,0.3l-2.8,0.3l-2.4,0.3l-2.1,0.3
			l-1.9,0.3l-1.7,0.3l-1.5,0.3l-1.4,0.3l-1.3,0.3l-1.2,0.3l-1.1,0.3l-1,0.2l-0.9,0.2l-0.9,0.2l-0.8,0.2l-0.8,0.2l-0.7,0.2l-0.7,0.2
			l-0.7,0.2l-0.6,0.2l-0.6,0.2l-0.6,0.2l-0.6,0.2l-0.5,0.2l-0.5,0.2l-0.5,0.2l-0.5,0.2l-0.5,0.2l-0.4,0.2l-0.4,0.2l-0.4,0.2
			l-0.4,0.2l-0.4,0.2l-0.4,0.2l-0.4,0.2l-0.4,0.2l-0.3,0.2l-0.3,0.2l-0.3,0.2l-0.3,0.2l-0.3,0.2l-0.3,0.2l-0.3,0.2l-0.3,0.2
			l-0.3,0.2l-0.3,0.2l-0.3,0.2l-0.3,0.2l-0.3,0.2l-0.3,0.2l-0.3,0.2l-0.3,0.2l-0.3,0.2l-0.3,0.2l-0.3,0.2l-0.3,0.1l-0.3,0.2
			l-0.3,0.2l-0.3,0.1l-0.2,0.1l-0.2,0.2l-0.2,0.1l-0.2,0.1l-0.2,0.1l-0.2,0.1l-0.2,0.1l-0.2,0.1l-0.2,0.1l-0.2,0.1l-0.2,0.1
			l-0.2,0.1l-0.2,0.1l-0.2,0.1l-0.2,0.1l-0.2,0.1l-0.2,0.1l-0.2,0.1l-0.2,0.1l-0.2,0.1l-0.2,0.1l-0.2,0.1l-0.2,0.1l-0.2,0.1
			l-0.2,0.1l-0.2,0.1l-0.2,0.1l-0.2,0.1l-0.2,0.1l-0.2,0.1l-0.2,0.1l-0.2,0.1l-0.2,0.1l-0.2,0.1l-0.2,0.1l-0.2,0.1l-0.2,0.1
			l-0.2,0.1l-0.2,0.1l-0.2,0.1l-0.2,0.1l-0.2,0.1l-0.2,0.1l-0.2,0.1l-0.2,0.1l-0.2,0.1l-0.2,0.1l-0.2,0.1l-0.2,0.1l-0.2,0.1
			l-0.2,0.1l-0.2,0.1l-0.2,0.1l-0.2,0.1l-0.2,0.1l-0.2,0.1l-0.2,0.1l-0.2,0.1l-0.2,0.1l-0.2,0.1l-0.2,0.1l-0.2,0.1l-0.2,0.1
			l-0.2,0.1l-0.2,0.1l-0.2,0.1l-0.2,0.1l-0.2,0.1l-0.2,0.1l-0.2,0.1l-0.2,0.1l-0.2,0.1l-0.2,0.1l-0.2,0.1l-0.2,0.1l-0.2,0.1
			l-0.2,0.1l-0.2,0.1l-0.2,0.1l-0.2,0.1l-0.2,0.1l-0.2,0.1l-0.2,0.1L66,127l-0.2,0.1l-0.2,0.1l-0.2,0.1l-0.2,0.1l-0.2,0.1l-0.2,0.1
			l-0.2,0.1l-0.2,0.1L64,128l-0.2,0.1l-0.2,0.1l-0.2,0.1l-0.2,0.1l-0.2,0.1l-0.2,0.1l-0.2,0.1l-0.2,0.1l-0.2,0.1l-0.2,0.1l-0.2,0.1
			l-0.2,0.1l-0.2,0.1l-0.3,0.1l-0.2,0.1l-0.3,0.1l-0.3,0.1l-0.3,0.1l-0.3,0.1l-0.3,0.1l-0.3,0.1l-0.3,0.1l-0.3,0.2l-0.3,0.2
			l-0.3,0.2l-0.3,0.2l-0.3,0.2l-0.3,0.2l-0.3,0.2l-0.3,0.2l-0.3,0.2l-0.3,0.2l-0.3,0.2l-0.3,0.2l-0.3,0.2l-0.3,0.2l-0.3,0.2
			l-0.3,0.2l-0.3,0.2l-0.3,0.2l-0.3,0.3l-0.3,0.3l-0.4,0.3l-0.4,0.3l-0.4,0.3l-0.4,0.3l-0.4,0.3l-0.4,0.3l-0.4,0.3l-0.4,0.3
			l-0.4,0.4l-0.5,0.4l-0.5,0.4l-0.5,0.4l-0.5,0.4l-0.5,0.5l-0.5,0.5l-0.5,0.5l-0.6,0.6l-0.6,0.6l-0.6,0.6l-0.7,0.7l-0.7,0.7
			l-0.8,0.8l-0.8,0.9l-0.8,1l-0.9,1.1l-1,1.2l-1,1.2l-1.2,1.5l-1.3,1.7l-1.5,2l-1.7,2.3l-2,2.8l-2.4,3.4l-2.9,4.3l-3.8,5.7l-5.3,8.2
			l-8.2,13.2L4.1,198l-0.8-0.5L2.4,197l1.2-3.8l7.3-13.8l4.5-8.7l3.1-6.1l2.3-4.7l1.7-3.7l1.4-3.1l1.2-2.6l0.9-2.3l0.8-2l0.7-1.8
			l0.6-1.6l0.5-1.4L29,140l0.4-1.2l0.4-1.1l0.3-1l0.3-1l0.3-0.9l0.2-0.9l0.2-0.8l0.2-0.8l0.2-0.7l0.1-0.7l0.1-0.7l0.1-0.6l0.1-0.6
			l0.1-0.6l0.1-0.6l0.1-0.6l0.1-0.5l0.1-0.5l0.1-0.5l0.1-0.5l0.1-0.5l0.1-0.5v-0.4v-0.4v-0.4v-0.4v-0.4v-0.4v-0.4v-0.4v-0.4v-0.4
			v-0.4v-0.4V82.3L33,82v-0.4v-0.4v-0.4v-0.4v-0.4v-0.4v-0.4v-0.4v-0.4V78v-0.4l-0.1-0.5l-0.1-0.5l-0.1-0.5l-0.1-0.5l-0.1-0.5
			l-0.1-0.5L32.1,74L32,73.4l-0.1-0.6l-0.1-0.6l-0.1-0.7l-0.1-0.7l-0.1-0.7l-0.2-0.7L31,68.7l-0.2-0.8L30.6,67l-0.3-0.9l-0.3-1
			l-0.3-1l-0.4-1.1L29,61.7l-0.5-1.3L28,58.9l-0.6-1.6l-0.7-1.8l-0.8-2L25,51.3l-1.1-2.6l-1.4-3.1l-1.7-3.7l-2.3-4.7L15.4,31
			l-4.5-8.7L3.5,8.6L2.4,4.7l0.8-0.5l0.8-0.5l2.7,2.9l8.3,13.2l5.3,8.2l3.8,5.7l2.9,4.3l2.4,3.4l2,2.8l1.7,2.3l1.5,2l1.3,1.7
			l1.2,1.5l1.1,1.3l1,1.2l0.9,1.1l0.8,1l0.8,0.9l0.8,0.8l0.7,0.7l0.7,0.7l0.6,0.6l0.6,0.6l0.6,0.6l0.5,0.5l0.5,0.5l0.5,0.5l0.5,0.4
			l0.5,0.4l0.5,0.4l0.5,0.4l0.4,0.3l0.4,0.3l0.4,0.3l0.4,0.3l0.4,0.3l0.4,0.3l0.4,0.3l0.4,0.3l0.4,0.3l0.3,0.3l0.3,0.2l0.3,0.2
			l0.3,0.2l0.3,0.2l0.3,0.2l0.3,0.2l0.3,0.2l0.3,0.2l0.3,0.2l0.3,0.2l0.3,0.2l0.3,0.2l0.3,0.2l0.3,0.2l0.3,0.2l0.3,0.2l0.3,0.2
			l0.3,0.2l0.3,0.2l0.3,0.2l0.3,0.2l0.3,0.2l0.3,0.2l0.3,0.1l0.3,0.1l0.3,0.1l0.2,0.1l0.3,0.1l0.2,0.1l0.2,0.1l0.2,0.1l0.2,0.1
			l0.2,0.1l0.2,0.1l0.2,0.1l0.2,0.1l0.2,0.1l0.2,0.1l0.2,0.1l0.2,0.1l0.2,0.1l0.2,0.1l0.2,0.1l0.2,0.1l0.2,0.1l0.2,0.1l0.2,0.1
			l0.2,0.1l0.2,0.1l0.2,0.1l0.2,0.1l0.2,0.1l0.2,0.1l0.2,0.1l0.2,0.1l0.2,0.1l0.2,0.1l0.2,0.1l0.2,0.1l0.2,0.1l0.2,0.1l0.2,0.1
			l0.2,0.1l0.2,0.1l0.2,0.1l0.2,0.1l0.2,0.1l0.2,0.1l0.2,0.1l0.2,0.1l0.2,0.1l0.2,0.1l0.2,0.1l0.2,0.1l0.2,0.1l0.2,0.1l0.2,0.1
			l0.2,0.1l0.2,0.1l0.2,0.1l0.2,0.1l0.2,0.1l0.2,0.1l0.2,0.1l0.2,0.1l0.2,0.1l0.2,0.1l0.2,0.1l0.2,0.1l0.2,0.1l0.2,0.1l0.2,0.1
			l0.2,0.1l0.2,0.1l0.2,0.1l0.2,0.1l0.2,0.1l0.2,0.1l0.2,0.1l0.2,0.1l0.2,0.1l0.2,0.1l0.2,0.1l0.2,0.1l0.2,0.1l0.2,0.1l0.2,0.1
			l0.2,0.1l0.2,0.1l0.2,0.1l0.2,0.1l0.2,0.1l0.2,0.1l0.2,0.1l0.2,0.1l0.2,0.1l0.2,0.1l0.2,0.1L80,83l0.2,0.1l0.2,0.1l0.2,0.1
			l0.2,0.1l0.2,0.1l0.2,0.1l0.2,0.1l0.2,0.1l0.2,0.1l0.2,0.1l0.2,0.1l0.2,0.1l0.2,0.1l0.2,0.1l0.2,0.2l0.3,0.1l0.3,0.2l0.3,0.1
			l0.3,0.2l0.3,0.2l0.3,0.2l0.3,0.2l0.3,0.2l0.3,0.2l0.3,0.2l0.3,0.2l0.3,0.2l0.3,0.2l0.3,0.2l0.3,0.2l0.3,0.2l0.3,0.2l0.3,0.2
			l0.3,0.2l0.3,0.2l0.3,0.2l0.3,0.2l0.3,0.2l0.4,0.2l0.4,0.2l0.4,0.2l0.4,0.2l0.4,0.2l0.4,0.2l0.4,0.2l0.4,0.2l0.5,0.2l0.5,0.2
			l0.5,0.2l0.5,0.2l0.5,0.2l0.6,0.2l0.6,0.2l0.6,0.2l0.6,0.2l0.7,0.2l0.7,0.2l0.7,0.2l0.8,0.2l0.8,0.2l0.9,0.2l0.9,0.2l1,0.2
			l1.1,0.3l1.2,0.3l1.3,0.3l1.4,0.3l1.5,0.3l1.7,0.3l1.9,0.3l2.1,0.3l2.4,0.3l2.8,0.3l3.4,0.3l4.1,0.4l5.2,0.4l6.9,0.4l9.8,0.5
			l15.6,0.5l3.9,0.9L170.6,100.9"/>
		<path class="st0" d="M171.8,100.9v1l-3.4,0.9l-15.9,0.5l-10,0.5l-7,0.4l-5.3,0.4l-4.2,0.4l-3.4,0.3l-2.9,0.3l-2.5,0.3l-2.2,0.3
			l-1.9,0.3l-1.7,0.3l-1.5,0.3l-1.4,0.3l-1.3,0.3l-1.2,0.3l-1.1,0.3l-1,0.2l-0.9,0.2l-0.9,0.2l-0.8,0.2l-0.8,0.2l-0.7,0.2l-0.7,0.2
			l-0.7,0.2l-0.6,0.2l-0.6,0.2l-0.6,0.2l-0.6,0.2l-0.5,0.2l-0.5,0.2l-0.5,0.2l-0.5,0.2l-0.5,0.2l-0.4,0.2l-0.4,0.2l-0.4,0.2
			l-0.4,0.2l-0.4,0.2l-0.4,0.2l-0.4,0.2l-0.4,0.2l-0.4,0.2l-0.3,0.2l-0.3,0.2l-0.3,0.2l-0.3,0.2l-0.3,0.2l-0.3,0.2l-0.3,0.2
			l-0.3,0.2l-0.3,0.2l-0.3,0.2l-0.3,0.2l-0.3,0.2l-0.3,0.2l-0.3,0.2l-0.3,0.2l-0.3,0.2l-0.3,0.2l-0.3,0.2l-0.3,0.2l-0.3,0.2
			l-0.3,0.1l-0.3,0.2l-0.3,0.1l-0.2,0.2l-0.2,0.1l-0.2,0.1l-0.2,0.1l-0.2,0.1l-0.2,0.1l-0.2,0.1l-0.2,0.1l-0.2,0.1l-0.2,0.1
			l-0.2,0.1l-0.2,0.1l-0.2,0.1l-0.2,0.1l-0.2,0.1l-0.2,0.1l-0.2,0.1l-0.2,0.1l-0.2,0.1l-0.2,0.1l-0.2,0.1l-0.2,0.1l-0.2,0.1
			l-0.2,0.1l-0.2,0.1l-0.2,0.1l-0.2,0.1l-0.2,0.1l-0.2,0.1l-0.2,0.1l-0.2,0.1l-0.2,0.1l-0.2,0.1l-0.2,0.1l-0.2,0.1l-0.2,0.1
			l-0.2,0.1l-0.2,0.1l-0.2,0.1l-0.2,0.1l-0.2,0.1l-0.2,0.1l-0.2,0.1l-0.2,0.1l-0.2,0.1l-0.2,0.1l-0.2,0.1l-0.2,0.1l-0.2,0.1
			l-0.2,0.1l-0.2,0.1l-0.2,0.1l-0.2,0.1l-0.2,0.1l-0.2,0.1l-0.2,0.1l-0.2,0.1l-0.2,0.1l-0.2,0.1l-0.2,0.1l-0.2,0.1l-0.2,0.1
			l-0.2,0.1L70,125l-0.2,0.1l-0.2,0.1l-0.2,0.1l-0.2,0.1l-0.2,0.1l-0.2,0.1l-0.2,0.1l-0.2,0.1l-0.2,0.1l-0.2,0.1l-0.2,0.1l-0.2,0.1
			l-0.2,0.1l-0.2,0.1l-0.2,0.1l-0.2,0.1l-0.2,0.1l-0.2,0.1l-0.2,0.1l-0.2,0.1l-0.2,0.1l-0.2,0.1l-0.2,0.1l-0.2,0.1l-0.2,0.1
			l-0.2,0.1l-0.2,0.1l-0.2,0.1l-0.2,0.1l-0.2,0.1l-0.2,0.1l-0.2,0.1l-0.2,0.1l-0.2,0.1l-0.2,0.1l-0.2,0.1l-0.2,0.1l-0.2,0.1
			l-0.2,0.1l-0.3,0.1l-0.2,0.1l-0.3,0.1l-0.3,0.1l-0.3,0.1l-0.3,0.1l-0.3,0.1l-0.3,0.1l-0.3,0.1l-0.3,0.2l-0.3,0.1l-0.3,0.2
			l-0.3,0.2l-0.3,0.2l-0.3,0.2l-0.3,0.2l-0.3,0.2l-0.3,0.2l-0.3,0.2l-0.3,0.2l-0.3,0.2l-0.3,0.2l-0.3,0.2l-0.3,0.2l-0.3,0.2
			l-0.3,0.2l-0.3,0.2l-0.3,0.2l-0.3,0.2L53,135l-0.4,0.3l-0.4,0.3l-0.4,0.3l-0.4,0.3l-0.4,0.3l-0.4,0.3l-0.4,0.3l-0.4,0.3l-0.4,0.4
			l-0.4,0.4l-0.5,0.4l-0.5,0.4l-0.5,0.4l-0.5,0.4l-0.5,0.5l-0.5,0.5l-0.6,0.5l-0.6,0.6l-0.6,0.6l-0.7,0.6l-0.7,0.7l-0.7,0.8
			l-0.8,0.8l-0.8,0.9l-0.9,1l-0.9,1.1l-1,1.2l-1.1,1.3l-1.2,1.5l-1.3,1.7l-1.5,2l-1.8,2.3l-2,2.8l-2.4,3.4l-3,4.4l-3.9,5.8l-5.4,8.4
			L6,196.5L3.5,199l-0.8-0.5L1.8,198l0.9-3.4l7.5-14l4.6-8.9l3.1-6.3l2.3-4.8l1.8-3.8l1.4-3.1l1.2-2.7l1-2.3l0.8-2L27,145l0.6-1.6
			l0.5-1.5l0.5-1.3l0.4-1.2l0.4-1.1l0.3-1.1l0.3-1l0.3-0.9l0.2-0.9l0.2-0.8l0.2-0.8l0.2-0.8l0.2-0.7l0.1-0.7l0.1-0.6l0.1-0.6
			l0.1-0.6l0.1-0.6l0.1-0.6l0-0.5l0.1-0.5l0.1-0.5l0.1-0.5l0.1-0.5l0.1-0.5v-0.4v-0.4v-0.4v-0.4v-0.4v-0.4v-0.4v-0.4v-0.4v-0.4V120
			v-0.4v-0.3V82.5v-0.4v-0.4v-0.4V81v-0.4v-0.4v-0.4v-0.4V79v-0.4v-0.4v-0.4v-0.4l-0.1-0.5l-0.1-0.5l-0.1-0.5l-0.1-0.5L32,74.8
			l-0.1-0.6l-0.1-0.6l-0.1-0.6l-0.1-0.6l-0.1-0.6l-0.1-0.7l-0.1-0.7L31,69.8L30.8,69l-0.2-0.8l-0.2-0.8l-0.2-0.9L30,65.6l-0.3-1
			l-0.3-1.1L29,62.4l-0.4-1.2l-0.5-1.3l-0.5-1.5L27,56.7l-0.7-1.8l-0.8-2l-1-2.3L23.3,48l-1.4-3.1L20.1,41l-2.3-4.8L14.7,30
			l-4.6-8.9l-7.5-14L1.8,3.7l0.9-0.5l0.8-0.5L6,5.2l8.4,13.4l5.4,8.4l3.9,5.8l3,4.4l2.4,3.5l2,2.8l1.7,2.3l1.5,2l1.3,1.7l1.2,1.5
			l1.1,1.3l1,1.2l0.9,1.1l0.9,1l0.8,0.9l0.8,0.8l0.7,0.8l0.7,0.7l0.7,0.7L45,60l0.6,0.6l0.6,0.5l0.5,0.5l0.5,0.5l0.5,0.4l0.5,0.4
			l0.5,0.4l0.5,0.4l0.4,0.4l0.4,0.3l0.4,0.3l0.4,0.3l0.4,0.3l0.4,0.3l0.4,0.3l0.4,0.3l0.4,0.3l0.4,0.3l0.3,0.3l0.3,0.2l0.3,0.2
			l0.3,0.2l0.3,0.2l0.3,0.2l0.3,0.2l0.3,0.2l0.3,0.2l0.3,0.2l0.3,0.2l0.3,0.2l0.3,0.2l0.3,0.2l0.3,0.2l0.3,0.2l0.3,0.2l0.3,0.2
			l0.3,0.2l0.3,0.2l0.3,0.2l0.3,0.2l0.3,0.2l0.3,0.1l0.3,0.2l0.3,0.1l0.3,0.1l0.3,0.1l0.2,0.1l0.3,0.1l0.2,0.1l0.2,0.1l0.2,0.1
			l0.2,0.1l0.2,0.1l0.2,0.1l0.2,0.1l0.2,0.1l0.2,0.1l0.2,0.1l0.2,0.1l0.2,0.1l0.2,0.1l0.2,0.1L65,74l0.2,0.1l0.2,0.1l0.2,0.1
			l0.2,0.1l0.2,0.1l0.2,0.1l0.2,0.1l0.2,0.1l0.2,0.1l0.2,0.1l0.2,0.1l0.2,0.1l0.2,0.1l0.2,0.1l0.2,0.1l0.2,0.1l0.2,0.1l0.2,0.1
			l0.2,0.1l0.2,0.1l0.2,0.1l0.2,0.1l0.2,0.1l0.2,0.1l0.2,0.1l0.2,0.1l0.2,0.1l0.2,0.1l0.2,0.1l0.2,0.1l0.2,0.1l0.2,0.1l0.2,0.1
			l0.2,0.1l0.2,0.1l0.2,0.1l0.2,0.1l0.2,0.1l0.2,0.1l0.2,0.1l0.2,0.1l0.2,0.1l0.2,0.1l0.2,0l0.2,0.1l0.2,0.1l0.2,0.1l0.2,0.1
			l0.2,0.1l0.2,0.1l0.2,0.1l0.2,0.1l0.2,0.1l0.2,0.1l0.2,0.1l0.2,0.1l0.2,0.1l0.2,0.1l0.2,0.1l0.2,0.1l0.2,0.1l0.2,0.1l0.2,0.1
			l0.2,0.1l0.2,0.1l0.2,0.1l0.2,0.1l0.2,0.1l0.2,0.1l0.2,0.1l0.2,0.1l0.2,0.1l0.2,0.1l0.2,0.1l0.2,0.1l0.2,0.1l0.2,0.1l0.2,0.1
			l0.2,0.1l0.2,0.1l0.2,0.1l0.2,0.1l0.2,0.1l0.2,0.1l0.2,0.1l0.2,0.1l0.2,0.1l0.2,0.2l0.3,0.1l0.3,0.2l0.3,0.1l0.3,0.2l0.3,0.2
			l0.3,0.2l0.3,0.2l0.3,0.2l0.3,0.2l0.3,0.2l0.3,0.2l0.3,0.2l0.3,0.2l0.3,0.2l0.3,0.2l0.3,0.2l0.3,0.2l0.3,0.2l0.3,0.2l0.3,0.2
			l0.3,0.2l0.3,0.2l0.3,0.2l0.4,0.2l0.4,0.2l0.4,0.2l0.4,0.2l0.4,0.2l0.4,0.2l0.4,0.2l0.4,0.2l0.4,0.2l0.5,0.2l0.5,0.2l0.5,0.2
			l0.5,0.2l0.5,0.2l0.6,0.2l0.6,0.2l0.6,0.2l0.6,0.2l0.7,0.2l0.7,0.2l0.7,0.2l0.8,0.2l0.8,0.2l0.9,0.2l0.9,0.2l1,0.2l1.1,0.3
			l1.2,0.3l1.3,0.3l1.4,0.3l1.5,0.3l1.7,0.3l1.9,0.3l2.2,0.3l2.5,0.3l2.9,0.3l3.4,0.3l4.2,0.4l5.3,0.4l7,0.4l10,0.5l15.9,0.5
			l3.4,0.9L171.8,100.9"/>
		<path class="st0" d="M173,100.9v1l-2.9,1l-16.1,0.6l-10.1,0.5l-7.1,0.4l-5.4,0.4l-4.3,0.4l-3.5,0.3l-2.9,0.3l-2.5,0.3l-2.2,0.3
			l-1.9,0.3l-1.7,0.3l-1.6,0.3l-1.4,0.3l-1.3,0.3l-1.2,0.3l-1.1,0.3l-1,0.2l-1,0.2l-0.9,0.2l-0.8,0.2l-0.8,0.2l-0.8,0.2l-0.7,0.2
			l-0.7,0.2l-0.7,0.2l-0.6,0.2l-0.6,0.2l-0.6,0.2l-0.5,0.2l-0.5,0.2l-0.5,0.2l-0.5,0.2L94,112l-0.5,0.2l-0.4,0.2l-0.4,0.2l-0.4,0.2
			l-0.4,0.2l-0.4,0.2l-0.4,0.2l-0.4,0.2l-0.4,0.2l-0.3,0.2l-0.3,0.2l-0.3,0.2l-0.3,0.2l-0.3,0.2l-0.3,0.2l-0.3,0.2l-0.3,0.2
			l-0.3,0.2l-0.3,0.2l-0.3,0.2l-0.3,0.2l-0.3,0.2l-0.3,0.2l-0.3,0.2l-0.3,0.2l-0.3,0.2l-0.3,0.2l-0.3,0.2l-0.3,0.2l-0.3,0.2
			l-0.3,0.2l-0.3,0.1l-0.3,0.2l-0.2,0.1l-0.2,0.1l-0.2,0.2l-0.2,0.1l-0.2,0.1l-0.2,0.1l-0.2,0.1l-0.2,0.1l-0.2,0.1l-0.2,0.1
			l-0.2,0.1l-0.2,0.1l-0.2,0.1l-0.2,0.1l-0.2,0.1l-0.2,0.1l-0.2,0.1l-0.2,0.1l-0.2,0.1l-0.2,0.1l-0.2,0.1l-0.2,0.1l-0.2,0.1
			l-0.2,0.1l-0.2,0.1l-0.2,0.1l-0.2,0.1l-0.2,0.1l-0.2,0.1l-0.2,0.1l-0.2,0.1l-0.2,0.1l-0.2,0.1l-0.2,0.1l-0.2,0.1l-0.2,0.1
			l-0.2,0.1l-0.2,0.1l-0.2,0.1l-0.2,0.1l-0.2,0.1l-0.2,0.1l-0.2,0.1l-0.2,0.1l-0.2,0.1l-0.2,0.1l-0.2,0.1l-0.2,0.1l-0.2,0.1
			l-0.2,0.1l-0.2,0.1l-0.2,0.1l-0.2,0.1l-0.2,0.1l-0.2,0.1l-0.2,0.1l-0.2,0.1l-0.2,0.1l-0.2,0.1l-0.2,0.1l-0.2,0.1l-0.2,0.1
			l-0.2,0.1l-0.2,0.1l-0.2,0.1l-0.2,0.1l-0.2,0.1l-0.2,0.1l-0.2,0.1l-0.2,0.1l-0.2,0.1l-0.2,0.1l-0.2,0.1l-0.2,0.1l-0.2,0.1
			l-0.2,0.1l-0.2,0.1L67,127l-0.2,0.1l-0.2,0.1l-0.2,0.1l-0.2,0.1l-0.2,0.1l-0.2,0.1l-0.2,0.1l-0.2,0.1l-0.2,0.1l-0.2,0.1l-0.2,0.1
			l-0.2,0.1l-0.2,0.1l-0.2,0.1l-0.2,0.1l-0.2,0.1l-0.2,0.1l-0.2,0.1l-0.2,0.1l-0.2,0.1l-0.2,0.1l-0.2,0.1l-0.2,0.1l-0.3,0.1
			l-0.2,0.1l-0.3,0.1l-0.3,0.1l-0.3,0.1l-0.3,0.1l-0.3,0.1l-0.3,0.1l-0.3,0.1l-0.3,0.1l-0.3,0.2l-0.3,0.2l-0.3,0.2l-0.3,0.2
			l-0.3,0.2l-0.3,0.2l-0.3,0.2l-0.3,0.2l-0.3,0.2l-0.3,0.2l-0.3,0.2l-0.3,0.2l-0.3,0.2l-0.3,0.2L55,134l-0.3,0.2l-0.3,0.2l-0.3,0.2
			l-0.3,0.2l-0.3,0.2l-0.3,0.3l-0.4,0.3l-0.4,0.3l-0.4,0.3l-0.4,0.3l-0.4,0.3l-0.4,0.3l-0.4,0.3l-0.4,0.3l-0.4,0.4l-0.4,0.4
			l-0.5,0.4l-0.5,0.4l-0.5,0.4l-0.5,0.4l-0.5,0.5l-0.5,0.5l-0.6,0.5l-0.6,0.6l-0.6,0.6l-0.7,0.6l-0.7,0.7l-0.7,0.8l-0.8,0.8
			l-0.8,0.9l-0.9,1l-1,1.1l-1,1.2l-1.1,1.4l-1.2,1.5l-1.3,1.7l-1.5,2l-1.8,2.4l-2.1,2.9l-2.5,3.5l-3,4.5l-3.9,6l-5.5,8.6L5.2,198
			l-2.3,2.1L2,199.6l-0.9-0.5l0.6-3l7.6-14.2l4.7-9l3.2-6.4l2.3-4.9l1.8-3.9l1.5-3.2l1.2-2.7l1-2.3l0.8-2.1l0.7-1.8l0.6-1.6l0.5-1.5
			l0.5-1.4l0.4-1.3l0.4-1.2l0.3-1.1l0.3-1l0.3-0.9l0.3-0.9l0.2-0.9l0.2-0.8l0.2-0.8l0.2-0.7l0.1-0.7l0.1-0.7l0.1-0.6l0.1-0.6
			l0.1-0.6l0.1-0.6l0.1-0.6l0.1-0.5l0.1-0.5l0.1-0.5l0.1-0.5l0.1-0.5l0-0.5v-0.4v-0.4V123v-0.4v-0.4v-0.4v-0.4V121v-0.4v-0.4v-0.4
			v-0.4v-0.3V82.6v-0.3v-0.4v-0.4v-0.4v-0.4v-0.4V80v-0.4v-0.4v-0.4v-0.4v-0.4v-0.4L32,77v-0.5L31.9,76l-0.1-0.5L31.8,75l-0.1-0.5
			l-0.1-0.6l-0.1-0.6l-0.1-0.6l-0.1-0.6l-0.1-0.6L31,70.8l-0.1-0.7l-0.2-0.7l-0.2-0.8l-0.2-0.8L30.1,67l-0.3-0.9l-0.3-0.9l-0.3-1
			L29,63.1l-0.4-1.2l-0.4-1.3l-0.5-1.4l-0.5-1.5l-0.6-1.7l-0.7-1.8L25,52.3l-1-2.3l-1.2-2.7L21.4,44l-1.8-3.9l-2.3-4.9L14,28.9
			l-4.7-9L1.8,5.7l-0.6-3L2,2.2l0.9-0.5l2.3,2.1l8.5,13.7l5.5,8.6l3.9,6l3,4.5l2.5,3.5l2.1,2.9l1.8,2.4l1.5,2l1.4,1.8l1.2,1.5
			l1.1,1.4l1,1.2l1,1.1l0.9,1l0.8,0.9l0.8,0.8l0.7,0.8l0.7,0.7l0.7,0.7l0.6,0.6l0.6,0.6l0.6,0.5l0.5,0.5l0.5,0.5l0.5,0.5l0.5,0.4
			l0.5,0.4l0.5,0.4l0.4,0.4l0.4,0.4l0.4,0.3l0.4,0.3L51,65l0.4,0.3l0.4,0.3l0.4,0.3l0.4,0.3l0.4,0.3l0.3,0.3l0.3,0.2l0.3,0.2
			l0.3,0.2l0.3,0.2l0.3,0.2l0.3,0.2l0.3,0.2l0.3,0.2l0.3,0.2l0.3,0.2l0.3,0.2l0.3,0.2l0.3,0.2l0.3,0.2l0.3,0.2l0.3,0.2l0.3,0.2
			l0.3,0.2l0.3,0.2l0.3,0.2l0.3,0.2l0.3,0.2l0.3,0.2l0.3,0.2l0.3,0.1l0.3,0.1l0.3,0.2l0.3,0.1l0.2,0.1l0.3,0.1L62,72l0.2,0.1
			l0.2,0.1l0.2,0.1l0.2,0.1l0.2,0.1l0.2,0.1l0.2,0.1l0.2,0.1l0.2,0.1l0.2,0.1l0.2,0.1l0.2,0.1l0.2,0.1l0.2,0.1l0.2,0.1l0.2,0.1
			l0.2,0.1l0.2,0.1l0.2,0.1l0.2,0.1l0.2,0.1l0.2,0.1l0.2,0.1l0.2,0.1l0.2,0.1l0.2,0.1l0.2,0.1l0.2,0.1l0.2,0.1l0.2,0.1l0.2,0.1
			l0.2,0.1l0.2,0.1l0.2,0.1l0.2,0.1l0.2,0.1l0.2,0.1l0.2,0.1l0.2,0.1l0.2,0.1l0.2,0.1l0.2,0.1l0.2,0.1l0.2,0.1l0.2,0.1l0.2,0.1
			l0.2,0.1l0.2,0.1l0.2,0.1l0.2,0.1l0.2,0.1l0.2,0.1l0.2,0.1l0.2,0.1l0.2,0.1l0.2,0.1l0.2,0.1l0.2,0.1l0.2,0.1l0.2,0.1l0.2,0.1
			l0.2,0.1l0.2,0.1l0.2,0.1l0.2,0.1l0.2,0.1l0.2,0.1l0.2,0.1l0.2,0.1l0.2,0.1l0.2,0.1l0.2,0.1l0.2,0.1l0.2,0.1l0.2,0.1l0.2,0.1
			l0.2,0.1l0.2,0.1l0.2,0.1l0.2,0.1l0.2,0.1l0.2,0.1l0.2,0.1l0.2,0.1l0.2,0.1l0.2,0.1l0.2,0.1l0.2,0.1l0.2,0.1l0.2,0.1l0.2,0.1
			l0.2,0.1l0.2,0.1l0.2,0.1l0.2,0.1l0.2,0.1l0.2,0.1l0.2,0.1l0.2,0.2l0.2,0.1l0.3,0.2l0.3,0.1l0.3,0.2l0.3,0.2l0.3,0.2l0.3,0.2
			l0.3,0.2l0.3,0.2l0.3,0.2l0.3,0.2l0.3,0.2l0.3,0.2l0.3,0.2l0.3,0.2l0.3,0.2l0.3,0.2l0.3,0.2l0.3,0.2l0.3,0.2l0.3,0.2l0.3,0.2
			l0.3,0.2l0.3,0.2l0.3,0.2l0.4,0.2l0.4,0.2l0.4,0.2l0.4,0.2l0.4,0.2l0.4,0.2l0.4,0.2l0.4,0.2l0.5,0.2l0.5,0.2l0.5,0.2l0.5,0.2
			l0.5,0.2l0.5,0.2l0.6,0.2l0.6,0.2l0.6,0.2l0.7,0.2l0.7,0.2l0.7,0.2l0.8,0.2l0.8,0.2l0.8,0.2l0.9,0.2l1,0.2l1,0.2l1.1,0.3L108,94
			l1.3,0.3l1.4,0.3l1.6,0.3l1.7,0.3l1.9,0.3l2.2,0.3l2.5,0.3l2.9,0.3l3.5,0.3l4.3,0.4l5.4,0.4l7.1,0.4l10.1,0.5l16.1,0.6l2.9,0.9
			L173,100.9"/>
		<path class="st0" d="M174.2,100.9v1l-2.5,1l-16.3,0.6l-10.3,0.5l-7.3,0.4l-5.5,0.4l-4.3,0.4l-3.6,0.4l-3,0.3l-2.6,0.3l-2.2,0.3
			l-2,0.3l-1.8,0.3l-1.6,0.3l-1.4,0.3l-1.3,0.3l-1.2,0.3l-1.1,0.3l-1,0.3l-1,0.2l-0.9,0.2l-0.8,0.2l-0.8,0.2l-0.8,0.2l-0.7,0.2
			l-0.7,0.2l-0.7,0.2l-0.6,0.2l-0.6,0.2l-0.6,0.2l-0.6,0.2l-0.5,0.2l-0.5,0.2l-0.5,0.2l-0.5,0.2l-0.5,0.2l-0.4,0.2l-0.4,0.2
			l-0.4,0.2l-0.4,0.2l-0.4,0.2l-0.4,0.2l-0.4,0.2l-0.4,0.2l-0.4,0.2l-0.3,0.2l-0.3,0.2l-0.3,0.2l-0.3,0.2l-0.3,0.2l-0.3,0.2
			l-0.3,0.2l-0.3,0.2l-0.3,0.2l-0.3,0.2l-0.3,0.2l-0.3,0.2l-0.3,0.2l-0.3,0.2l-0.3,0.2l-0.3,0.2l-0.3,0.2l-0.3,0.2l-0.3,0.2
			l-0.3,0.2l-0.3,0.1l-0.3,0.2l-0.3,0.2l-0.3,0.1l-0.3,0.2L83,118l-0.2,0.1l-0.2,0.2l-0.2,0.1l-0.2,0.1l-0.2,0.1l-0.2,0.1l-0.2,0.1
			l-0.2,0.1l-0.2,0.1l-0.2,0.1l-0.2,0.1l-0.2,0.1l-0.2,0.1l-0.2,0.1l-0.2,0.1l-0.2,0.1l-0.2,0.1l-0.2,0.1l-0.2,0.1l-0.2,0.1
			l-0.2,0.1l-0.2,0.1l-0.2,0.1l-0.2,0.1l-0.2,0.1l-0.2,0.1l-0.2,0.1l-0.2,0.1l-0.2,0.1l-0.2,0.1l-0.2,0.1l-0.2,0.1l-0.2,0.1
			l-0.2,0.1l-0.2,0.1l-0.2,0.1l-0.2,0.1l-0.2,0.1l-0.2,0.1l-0.2,0.1l-0.2,0.1l-0.2,0.1l-0.2,0.1l-0.2,0.1l-0.2,0.1l-0.2,0.1
			l-0.2,0.1l-0.2,0.1l-0.2,0.1l-0.2,0.1l-0.2,0.1l-0.2,0.1l-0.2,0.1l-0.2,0.1l-0.2,0.1l-0.2,0.1l-0.2,0.1l-0.2,0.1l-0.2,0.1
			l-0.2,0.1l-0.2,0.1l-0.2,0.1l-0.2,0.1l-0.2,0.1l-0.2,0.1l-0.2,0.1l-0.2,0.1l-0.2,0.1l-0.2,0.1l-0.2,0.1l-0.2,0.1l-0.2,0.1
			l-0.2,0.1l-0.2,0.1l-0.2,0.1l-0.2,0.1l-0.2,0.1l-0.2,0.1l-0.2,0.1l-0.2,0.1l-0.2,0.1l-0.2,0.1l-0.2,0.1l-0.2,0.1l-0.2,0.1
			l-0.2,0.1l-0.2,0.1l-0.2,0.1L64,129l-0.2,0.1l-0.2,0.1l-0.2,0.1l-0.2,0.1l-0.2,0.1l-0.2,0.1l-0.2,0.1l-0.2,0.1l-0.3,0.1l-0.2,0.1
			l-0.3,0.1l-0.3,0.1l-0.3,0.1l-0.3,0.1l-0.3,0.1l-0.3,0.1l-0.3,0.1l-0.3,0.2l-0.3,0.1l-0.3,0.2l-0.3,0.2l-0.3,0.2l-0.3,0.2
			l-0.3,0.2l-0.3,0.2l-0.3,0.2l-0.3,0.2l-0.3,0.2l-0.3,0.2l-0.3,0.2l-0.3,0.2l-0.3,0.2l-0.3,0.2l-0.3,0.2l-0.3,0.2l-0.3,0.2
			l-0.3,0.2l-0.3,0.2l-0.3,0.3l-0.4,0.3l-0.4,0.3l-0.4,0.3l-0.4,0.3l-0.4,0.3l-0.4,0.3l-0.4,0.3l-0.4,0.3l-0.4,0.4l-0.4,0.4
			l-0.5,0.4l-0.5,0.4l-0.5,0.4l-0.5,0.4l-0.5,0.5l-0.5,0.5l-0.5,0.5l-0.6,0.6l-0.6,0.6l-0.6,0.6l-0.7,0.7l-0.7,0.7l-0.7,0.8
			l-0.8,0.8l-0.8,0.9l-0.9,1l-1,1.1l-1,1.2l-1.2,1.4l-1.3,1.6l-1.4,1.8l-1.6,2.1l-1.8,2.4l-2.1,2.9l-2.5,3.6l-3.1,4.6l-4,6.1
			l-5.6,8.7l-8.6,13.8l-2.1,1.6l-0.9-0.5l-0.9-0.5l0.4-2.6l7.7-14.4l4.8-9.2l3.2-6.5l2.4-4.9l1.9-3.9l1.5-3.3l1.2-2.8l1-2.4l0.9-2.1
			l0.7-1.9l0.6-1.7l0.6-1.5l0.5-1.4l0.4-1.3l0.4-1.2l0.3-1.1l0.3-1l0.3-1l0.3-0.9l0.2-0.9l0.2-0.8l0.2-0.8l0.2-0.7l0.1-0.7l0.1-0.7
			L31,130l0.1-0.6l0.1-0.6l0.1-0.6l0.1-0.6l0.1-0.5l0.1-0.5l0.1-0.5l0.1-0.5l0.1-0.5l0.1-0.5l0-0.5v-0.4v-0.4v-0.4v-0.4V122v-0.4
			v-0.4v-0.4v-0.4v-0.4v-0.4V119v-0.3V83.1v-0.3v-0.7v-0.4v-0.4V81v-0.4v-0.4v-0.4v-0.4L32,79v-0.4v-0.4v-0.4l0-0.5l-0.1-0.5
			l-0.1-0.5l-0.1-0.5l-0.1-0.5l-0.1-0.5l-0.1-0.5l-0.1-0.6l-0.1-0.6l-0.1-0.6L31,71.8l-0.1-0.7l-0.1-0.7l-0.1-0.7l-0.2-0.7l-0.2-0.8
			L30,67.5l-0.2-0.9l-0.3-0.9l-0.3-1l-0.3-1l-0.3-1.1l-0.4-1.2l-0.4-1.3l-0.5-1.4l-0.5-1.5l-0.6-1.7l-0.7-1.9l-0.9-2.1l-1-2.4
			l-1.2-2.8l-1.5-3.3L19,39.3l-2.4-5l-3.3-6.5l-4.8-9.2L0.9,4.2L0.6,1.6l0.9-0.5l0.9-0.5l2.1,1.7L13,16.1l5.6,8.7l4,6.1l3.1,4.5
			l2.5,3.6l2.1,2.9l1.8,2.4l1.6,2.1l1.4,1.8l1.3,1.6l1.1,1.4l1,1.2l1,1.1l0.9,1l0.8,0.9l0.8,0.8l0.7,0.8l0.7,0.7l0.7,0.7l0.6,0.6
			l0.6,0.6l0.6,0.5l0.5,0.5l0.5,0.5l0.5,0.5l0.5,0.4l0.5,0.4l0.5,0.4l0.5,0.4l0.4,0.4l0.4,0.3l0.4,0.3l0.4,0.3l0.4,0.3l0.4,0.3
			l0.4,0.3l0.4,0.3l0.4,0.3l0.4,0.3l0.3,0.3l0.3,0.2l0.3,0.2l0.3,0.2l0.3,0.2l0.3,0.2l0.3,0.2l0.3,0.2l0.3,0.2l0.3,0.2l0.3,0.2
			l0.3,0.2l0.3,0.2l0.3,0.2l0.3,0.2l0.3,0.2l0.3,0.2l0.3,0.2L59,70l0.3,0.2l0.3,0.2l0.3,0.2l0.3,0.2l0.3,0.2l0.3,0.1l0.3,0.2
			l0.3,0.1l0.3,0.1l0.3,0.1l0.2,0.1l0.3,0.1l0.2,0.1l0.2,0.1l0.2,0.1l0.2,0.1l0.2,0.1l0.2,0.1l0.2,0.1l0.2,0.1l0.2,0.1l0.2,0.1
			l0.2,0.1l0.2,0.1l0.2,0.1l0.2,0.1l0.2,0.1l0.2,0.1l0.2,0.1l0.2,0.1l0.2,0.1l0.2,0.1l0.2,0.1l0.2,0.1l0.2,0.1l0.2,0.1l0.2,0.1
			l0.2,0.1l0.2,0.1l0.2,0.1l0.2,0.1l0.2,0.1l0.2,0.1l0.2,0.1l0.2,0.1l0.2,0.1l0.2,0.1l0.2,0.1l0.2,0.1l0.2,0.1l0.2,0.1l0.2,0.1
			l0.2,0.1l0.2,0.1l0.2,0.1l0.2,0.1l0.2,0.1l0.2,0.1l0.2,0.1l0.2,0.1l0.2,0.1l0.2,0.1l0.2,0.1l0.2,0.1l0.2,0.1l0.2,0.1l0.2,0.1
			l0.2,0.1l0.2,0.1l0.2,0.1l0.2,0.1l0.2,0.1l0.2,0.1l0.2,0.1l0.2,0.1l0.2,0.1l0.2,0.1l0.2,0.1l0.2,0.1l0.2,0.1l0.2,0.1l0.2,0.1
			l0.2,0.1l0.2,0.1l0.2,0.1l0.2,0.1l0.2,0.1l0.2,0.1l0.2,0.1l0.2,0.1l0.2,0.1l0.2,0.1l0.2,0.1l0.2,0.1l0.2,0.1L80,82l0.2,0.1
			l0.2,0.1l0.2,0.1l0.2,0.1l0.2,0.1l0.2,0.1l0.2,0.1l0.2,0.1l0.2,0.1l0.2,0.1l0.2,0.1l0.2,0.2l0.2,0.1l0.2,0.1l0.3,0.2l0.3,0.1
			l0.3,0.2l0.3,0.2l0.3,0.1l0.3,0.2L85,85l0.3,0.2l0.3,0.2l0.3,0.2l0.3,0.2l0.3,0.2l0.3,0.2l0.3,0.2l0.3,0.2l0.3,0.2l0.3,0.2
			l0.3,0.2l0.3,0.2l0.3,0.2l0.3,0.2l0.3,0.2l0.3,0.2l0.3,0.2l0.3,0.2l0.4,0.2l0.4,0.2l0.4,0.2l0.4,0.2l0.4,0.2l0.4,0.2l0.4,0.2
			l0.4,0.2l0.4,0.2l0.5,0.2l0.5,0.2l0.5,0.2l0.5,0.2l0.5,0.2l0.6,0.2l0.6,0.2l0.6,0.2l0.6,0.2l0.7,0.2l0.7,0.2l0.7,0.2l0.8,0.2
			l0.8,0.2l0.8,0.2l0.9,0.2l1,0.2l1,0.3l1.1,0.3l1.2,0.3l1.3,0.3l1.4,0.3l1.6,0.3l1.8,0.3l2,0.3l2.2,0.3l2.6,0.3l3,0.3l3.6,0.4
			l4.3,0.4l5.5,0.4l7.3,0.4l10.3,0.5l16.3,0.6l2.5,1L174.2,100.9"/>
	</g>
</g>
</svg>
