<?xml version="1.0" encoding="utf-8"?>
<!-- Generator: Adobe Illustrator 23.0.6, SVG Export Plug-In . SVG Version: 6.00 Build 0)  -->
<svg version="1.1" id="Layer_1" xmlns="http://www.w3.org/2000/svg" xmlns:xlink="http://www.w3.org/1999/xlink" x="0px" y="0px"
	 viewBox="0 0 640 480" style="enable-background:new 0 0 640 480;" xml:space="preserve">
<style type="text/css">
	.st0{fill:none;stroke:#FFFFFF;}
</style>
<desc  style="-webkit-tap-highlight-color: rgba(0, 0, 0, 0);">Created with Raphaël 2.0.1</desc>
<path class="st0" d="M197,266l152,147l206-173L134,123l78,309l-4-209l373,4l-22,115l-44-171l5-124L116,272l406-20l35,96L456,160
	l-78-55l-220,36l283-9l2-99L111,276L474,78L283,38L135,425l14,46l188-183L550,34L107,408L256,15l52,359L84,340l27-44l-11,118
	l217-241l-15,280L270,18L47,76l212,179l111-110l-82,190l-71-8l392-147L30,359l184-29L165,60l70,48L104,318l483-41l-63-129l-25,296
	l110-246L404,19l98,397l80-162L65,421l299-163l33-140l196,8L412,29L13,265l34,197l173-309l160,26l-19,173l5-103l158,49l-272-69
	l78-168L27,376L63,73l87,163L437,70L199,323l113-52L132,138l317,208L386,99L142,67l52,304L14,187l366,269l123-84L294,223l19,140
	L205,128l-91,185L17,180l607,31L488,8l-90-3l219,376l-506-2l14-174l453,232L377,196l-33,91l-35,152l289-107L236,196l-107,89l426,174
	l-8-117l-55,21L149,34l195,281L36,104l369,129l183,112L345,454L165,105l33,103l252,224l68-192L148,35L88,320L49,50l231,51L76,342
	l362-232l11,62L58,307l391,93L129,30l190,402l29,23l241-247L22,72l569,284l-32,68L66,251l335,146L13,419l518-202l44-112L326,28
	l208,415l-14-191L209,441L633,24L317,268L256,12l113,60L229,197l340,27L276,121l170,135L267,426L617,14L99,142l167-5l201,60l-35,146
	l-71-233l33,7l-68,329l-55-190l-169-43l61,237l70-11L46,148l10-7l264,166L544,94L103,16l442,450l-364-18l426-188l-434-23L47,191
	l46-92l110,276L81,61l180,319L236,12l40,335l170-113l91,25L191,113l416,96L340,343l-107-66l-49,127l229,59L150,130l363-28L257,219
	l135,221L352,53L83,22l197,362l-32-162L105,403l138-1l192-272l11,185L82,258L121,8l149,119l117,129l238,159L338,235l295,171L136,224
	l140,70l63-167l-38-23l-30,330l55-296l-77,269L33,37l58,186l518-22L13,7l408,301l-126,6L278,20l-4,161l46,83L484,94l-14,338l-154,39
	l-28-363l173,364L404,84L278,369l4,9l339-134L384,92L254,197l16,243l31-68l298,55l-205-65L340,82l127,313l161,78l-491-72l472-127
	l-368,76l-51-83L32,417l488-166l-375,91L9,103l480,107l95,138L275,183l66,7l-193,43l216-61l74-125L76,254l135,76l46-3L9,73l185,16
	L31,164l98,275l217-254L13,78l373,360L272,143l341,215l-145-29L125,167l-19-91l402,321L51,45l485,145l-38,11l-374,90l265-87l136-71
	l-58-51l50,98l71,102l-91-106l-55,165l-107,25l183-177L218,8l416,99L405,292L120,396l419,40L301,178l298-1L375,463L35,35l445,372
	L251,228l338,66L56,185L576,81L85,344L375,90l-4,245l111,125l82-335l-328,85L396,26l124,445L234,221L197,266z"/>
</svg>
