<?xml version="1.0" encoding="utf-8"?>
<!-- Generator: Adobe Illustrator 23.0.6, SVG Export Plug-In . SVG Version: 6.00 Build 0)  -->
<svg version="1.1" id="Layer_1" xmlns="http://www.w3.org/2000/svg" xmlns:xlink="http://www.w3.org/1999/xlink" x="0px" y="0px"
	 viewBox="0 0 643.6 568.2" style="enable-background:new 0 0 643.6 568.2;" xml:space="preserve">
<style type="text/css">
	.st0{fill:#FFFFFF;}
</style>
<g id="Layer_2_00000100376726681966539180000012473666376945980039_">
	<g id="Layer_1-2">
		<path class="st0" d="M643.6,566.4h-91c-25.8,0-57.1,5-82.3-1.9c-67.6-18.7-98.4-110.4-170.3-118.9c-48.1-5.7-100.4,0-148.9,0
			c-76.3,0-81,107.8-151.1,120.8v-24.6C70.1,528.8,74.8,421,151.1,421c48.5,0,100.8-5.7,148.9,0c71.9,8.5,102.8,100.2,170.3,118.9
			c25.2,7,56.5,1.9,82.3,1.9h91V566.4z"/>
		<path class="st0" d="M643.6,512.4h-91c-25.8,0-57.1,5-82.3-1.9c-67.6-18.7-98.4-110.4-170.3-118.9c-48.1-5.7-100.4,0-148.9,0
			c-76.3,0-81,107.8-151.1,120.8v-24.6C70.1,474.8,74.8,367,151.1,367c48.5,0,100.8-5.7,148.9,0c71.9,8.5,102.8,100.2,170.3,118.9
			c25.2,7,56.5,1.9,82.3,1.9h91V512.4z"/>
		<path class="st0" d="M643.6,458.4h-91c-25.8,0-57.1,5-82.3-1.9c-67.6-18.7-98.4-110.4-170.3-118.9c-48.1-5.7-100.4,0-148.9,0
			c-76.3,0-81,107.8-151.1,120.8v-24.6C70.1,420.8,74.8,313,151.1,313c48.5,0,100.8-5.7,148.9,0c71.9,8.5,102.8,100.2,170.3,118.9
			c25.2,7,56.5,1.9,82.3,1.9h91V458.4z"/>
		<path class="st0" d="M643.6,404.4h-91c-25.8,0-57.1,5-82.3-1.9c-67.6-18.7-98.4-110.4-170.3-118.9c-48.1-5.7-100.4,0-148.9,0
			c-76.3,0-81,107.8-151.1,120.8v-24.6C70.1,366.8,74.8,259,151.1,259c48.5,0,100.8-5.7,148.9,0c71.9,8.5,102.8,100.2,170.3,118.9
			c25.2,7,56.5,1.9,82.3,1.9h91V404.4z"/>
		<path class="st0" d="M643.6,350.4h-91c-25.8,0-57.1,5-82.3-1.9c-67.6-18.7-98.4-110.4-170.3-118.9c-48.1-5.7-100.4,0-148.9,0
			c-76.3,0-81,107.8-151.1,120.8v-24.6C70.1,312.8,74.8,205,151.1,205c48.5,0,100.8-5.7,148.9,0c71.9,8.6,102.8,100.2,170.3,118.9
			c25.2,7,56.5,1.9,82.3,1.9h91V350.4z"/>
		<path class="st0" d="M643.6,296.4h-91c-25.8,0-57.1,5-82.3-1.9c-67.6-18.7-98.4-110.4-170.3-118.9c-48.1-5.7-100.4,0-148.9,0
			c-76.3,0-81,107.8-151.1,120.8v-24.6c68.9-14.4,76-120.2,151.2-120.2c48.4,0,100.8-5.8,148.9,0c71.7,8.7,102.9,99.7,170.2,118.6
			c25.3,7.1,56.5,2.3,82.3,2c30.3-0.4,60.7-0.8,91-0.4V296.4z"/>
		<path class="st0" d="M643.6,242.4c-30.4-0.8-60.5,1.1-90.7,3.1c-25.8,1.7-56.8,6.8-82.2-0.4c-66.6-18.9-98.5-107.7-169.4-116.4
			c-48-5.9-100.4,0-148.9,0c-72.4,0-86,98.5-152.4,113.7v-24.6c64.8-14.1,84.2-104,154.2-104c48.4,0,100.8-5.8,148.9,0
			c70.1,8.5,102.3,94.8,168.2,113.2c25.6,7.1,56.3,1,82-2.2c30.2-3.8,59.9-7.6,90.4-7L643.6,242.4z"/>
		<path class="st0" d="M643.6,188.4c-30.8,0.1-59.9,6.6-89.8,13.1c-25.3,5.5-55.7,13.4-81.6,6.5c-64.9-17.3-97.6-100.3-166.4-108.2
			c-48.2-5.5-100.3,0-148.8,0c-67.1,0-93.8,77.3-157,88.6v-24.6c61.8-8.3,95.1-73.7,159.6-73.7c48.6,0,100.5-5.3,148.8,0
			c67.6,7.3,100.7,87.3,164.7,103.4c26.3,6.6,56.2-3.3,81.1-10.8c29.7-9,58.1-17.9,89.3-18.9L643.6,188.4z"/>
		<path class="st0" d="M643.6,134.4c-31.9,2.3-59.5,14.3-88.7,26.3c-24.3,10-53.7,22.4-80.6,16.2c-62.8-14.6-96.4-90.8-162.5-97.4
			c-48.5-4.8-100,0-148.9,0c-61.6,0-103,50.5-163,54.9v-24.6C31.4,109,58.1,97.6,86.7,86c26.8-10.9,50.4-15.7,79.1-15.7
			c48.9,0,100.2-4.5,148.8,0c64.9,6,98.8,79.1,160.7,92.4c27.5,5.9,56.4-8.7,80.2-20.6c28.8-14.4,55.6-29,88.2-32.3v24.6H643.6z"/>
		<path class="st0" d="M643.6,80.4c-33.3,4.4-59.3,21.8-87.6,38.9c-23.2,14-51.3,31-79.7,25.3c-60.7-12.1-95.2-81.6-158.7-87.1
			c-48.8-4.2-99.8,0-148.8,0c-27.9,0-53,2-80.4,8.9C59,73.8,30.7,81,0,80.4V55.8C57.1,58,113.6,44.3,170.9,44.3
			c49.1,0,100-4,148.8,0c62.5,5.1,97.5,72,157.4,83.4c29,5.6,56.6-13,79.4-28.4c27.8-18.9,53.2-38.4,87.2-43.4L643.6,80.4z"/>
		<path class="st0" d="M643.6,26.4c-59.1,8.6-104,89.5-166,77.8C418.5,93.1,383,28.8,321.4,23.8c-48.9-4-99.8,0-148.8,0
			c-57.4,0-115.1,4.5-172.5,2.6V1.8h173c49,0,100-4.1,148.8,0C383,7,419.1,69.7,477.8,81.2C541.5,93.7,583,9.2,643.7,1.8L643.6,26.4
			L643.6,26.4z"/>
	</g>
</g>
</svg>
