<?xml version="1.0" encoding="utf-8"?>
<!-- Generator: Adobe Illustrator 23.0.6, SVG Export Plug-In . SVG Version: 6.00 Build 0)  -->
<svg version="1.1" id="Layer_1" xmlns="http://www.w3.org/2000/svg" xmlns:xlink="http://www.w3.org/1999/xlink" x="0px" y="0px"
	 viewBox="0 0 640 480" style="enable-background:new 0 0 640 480;" xml:space="preserve">
<style type="text/css">
	.st0{fill:none;stroke:#FFFFFF;}
</style>
<desc  style="-webkit-tap-highlight-color: rgba(0, 0, 0, 0);">Created with Raphaël 2.0.1</desc>
<path class="st0" d="M421,39h129L273,446L78,165l329,67l180-90l-15,171l-74-153l-129-3L255,19l119,76l-67,31l-24,23L119,19l457,213
	l-191-51l145,39l7,217l5-240L16,61l588,113L153,90l-17,126l18,56L8,293l511-131l-26-44L228,440l-14-105l-34-33l433,45L276,114
	l95,118L6,6l617,158l-54,233l-162-29L275,262l12-57l269-9L207,20l250,87l-196,83l-1,126L95,74l404,45l-30,41l-212-37l28,327L256,56
	l94,286l209-177L448,418l-48-286l56,205L315,53l101,237l176,162l-177-69L127,187l406-41l36,216L321,228l209,42L249,442l-86-97l333-6
	l107-153l-237,37L129,35l453,384L258,42l295,372L490,63l30,166l-401-84l201,203l-34,55l-101-26l-77-8l267,88L85,117l-2-17L34,467
	l317-84l-51-277l196,199L112,416l414-221L287,76l303,164L273,375l126-267l-87,61l153,270l-358-61l332,61L43,374l11,15l416,4L156,26
	l91,405l125-219L342,6L207,145l354,109L76,276L13,62l275-31l322-13l-86,203L394,39L198,232l163,218L208,301l93-124l67-63L168,314
	l261,78L49,49l21,406l25-121L75,221l-65-78L408,10l146,76L230,460l267-147L278,100l-98-74l236,313L288,222l4,171l298-214L273,459
	L48,278L207,89L25,188l548,45l-265,64l-22-119l338,86L372,113l-49,18L239,9L18,330l474,113L301,236L12,378l237-143L296,6L24,262
	l175-156l435,164l-63,2l47-177l-75-71L193,407l-16-249l147,159l35-188L231,385l258-246L114,23l92,45l-90,227l431,175L350,220
	L220,437l9-283L71,24l110,329l454-233L378,46L28,222l376,243l-169-12L201,78L18,233l576-64L429,43l70,243L30,346l468-40L455,32
	L595,8L159,328l392-11L254,208L526,49L118,411l308-119L192,23l54,226L55,189l264-69l122-93L208,452l-85-240l162,201l332-240l-390-19
	l110,77l-310,7l500-17l35,150l-264-90L27,351L351,90L112,406l286-127l213,24l-84,43L98,243L19,353l66-94L185,66l168,250l-150-3
	L40,247l403,155L75,79l277,16L177,201l180-26l5-79L214,229L28,405l109-145L491,97L385,28l180,100L263,468l173-45l89,6l-82-101
	l-90,60L223,44l337,83l-207,12l16,247l212,87L126,81l206,370L109,252l444,61L284,41l119,433l-200-60L340,37L185,438l-5-199l247-90
	L71,280l219,124L402,73L69,354l317-18l-259,52l48-135L294,93L11,34l483,383l-144-45L599,10L109,320l372,36l106-171L155,409l360-50
	l-72-194L254,315l22-234l-57,288l177,29l182-202l9,27l-74,156l-170-6L69,385L230,34L7,197l389,104L559,62L248,413l341,19L293,154
	l-19,131l359,17L11,455l248-344l302,13L209,454l313-126L414,470l34-272L234,466L493,51L126,289l-22,181l255-165L421,39z"/>
</svg>
