<?xml version="1.0" encoding="utf-8"?>
<!-- Generator: Adobe Illustrator 23.0.6, SVG Export Plug-In . SVG Version: 6.00 Build 0)  -->
<svg version="1.1" id="Layer_1" xmlns="http://www.w3.org/2000/svg" xmlns:xlink="http://www.w3.org/1999/xlink" x="0px" y="0px"
	 viewBox="0 0 640 480" style="enable-background:new 0 0 640 480;" xml:space="preserve">
<style type="text/css">
	.st0{opacity:0.5;fill:none;stroke:#FFFFFF;enable-background:new    ;}
</style>
<desc  style="-webkit-tap-highlight-color: rgba(0, 0, 0, 0);">Created with Raphaël 2.0.1</desc>
<ellipse class="st0" cx="320" cy="240" rx="129" ry="181.9"/>
<ellipse transform="matrix(0.1951 -0.9808 0.9808 0.1951 22.1763 507.0353)" class="st0" cx="320" cy="240" rx="169.2" ry="120"/>
<ellipse transform="matrix(0.3827 -0.9239 0.9239 0.3827 -24.1991 443.8036)" class="st0" cx="320" cy="240" rx="179.1" ry="127"/>
<ellipse transform="matrix(0.5556 -0.8315 0.8315 0.5556 -57.349 372.7401)" class="st0" cx="320" cy="240" rx="183.3" ry="130"/>
<ellipse transform="matrix(0.7071 -0.7071 0.7071 0.7071 -75.9772 296.567)" class="st0" cx="320" cy="240" rx="181.9" ry="129"/>
<ellipse transform="matrix(0.8315 -0.5556 0.5556 0.8315 -79.4163 218.237)" class="st0" cx="320" cy="240" rx="174.8" ry="124"/>
<ellipse transform="matrix(0.9239 -0.3827 0.3827 0.9239 -67.4902 140.7315)" class="st0" cx="320" cy="240" rx="183.3" ry="130"/>
<ellipse transform="matrix(0.9808 -0.1951 0.1951 0.9808 -40.6755 67.0429)" class="st0" cx="320" cy="240" rx="173.4" ry="123"/>
<ellipse class="st0" cx="320" cy="240" rx="174.8" ry="124"/>
<ellipse transform="matrix(0.1951 -0.9808 0.9808 0.1951 22.1732 507.0231)" class="st0" cx="320" cy="240" rx="121" ry="170.6"/>
<ellipse transform="matrix(0.3827 -0.9239 0.9239 0.3827 -24.2 443.787)" class="st0" cx="320" cy="240" rx="121" ry="170.6"/>
<ellipse transform="matrix(0.5556 -0.8315 0.8315 0.5556 -57.3458 372.7177)" class="st0" cx="320" cy="240" rx="128" ry="180.5"/>
<ellipse transform="matrix(0.7071 -0.7071 0.7071 0.7071 -75.9783 296.5711)" class="st0" cx="320" cy="240" rx="128" ry="180.5"/>
<ellipse transform="matrix(0.8315 -0.5556 0.5556 0.8315 -79.4114 218.2239)" class="st0" cx="320" cy="240" rx="123" ry="173.4"/>
<ellipse transform="matrix(0.9239 -0.3827 0.3827 0.9239 -67.4872 140.7265)" class="st0" cx="320" cy="240" rx="128" ry="180.5"/>
<ellipse transform="matrix(0.9808 -0.1951 0.1951 0.9808 -40.6742 67.0415)" class="st0" cx="320" cy="240" rx="128" ry="180.5"/>
<ellipse class="st0" cx="320" cy="240" rx="120" ry="169.2"/>
<ellipse transform="matrix(0.1951 -0.9808 0.9808 0.1951 22.1854 507.02)" class="st0" cx="320" cy="240" rx="177.7" ry="126"/>
<ellipse transform="matrix(0.3827 -0.9239 0.9239 0.3827 -24.1835 443.7862)" class="st0" cx="320" cy="240" rx="180.5" ry="128"/>
<ellipse transform="matrix(0.5556 -0.8315 0.8315 0.5556 -57.3234 372.7208)" class="st0" cx="320" cy="240" rx="180.5" ry="128"/>
<ellipse transform="matrix(0.7071 -0.7071 0.7071 0.7071 -75.9823 296.57)" class="st0" cx="320" cy="240" rx="173.4" ry="123"/>
<ellipse transform="matrix(0.8315 -0.5556 0.5556 0.8315 -79.3983 218.2288)" class="st0" cx="320" cy="240" rx="174.8" ry="124"/>
<ellipse transform="matrix(0.9239 -0.3827 0.3827 0.9239 -67.4822 140.7296)" class="st0" cx="320" cy="240" rx="177.7" ry="126"/>
<ellipse transform="matrix(0.9808 -0.1951 0.1951 0.9808 -40.6727 67.0428)" class="st0" cx="320" cy="240" rx="176.3" ry="125"/>
<ellipse class="st0" cx="320" cy="240" rx="180.5" ry="128"/>
<ellipse transform="matrix(0.1951 -0.9808 0.9808 0.1951 22.1885 507.0322)" class="st0" cx="320" cy="240" rx="125" ry="176.3"/>
<ellipse transform="matrix(0.3827 -0.9239 0.9239 0.3827 -24.1826 443.8027)" class="st0" cx="320" cy="240" rx="122" ry="172"/>
<ellipse transform="matrix(0.5556 -0.8315 0.8315 0.5556 -57.3266 372.7433)" class="st0" cx="320" cy="240" rx="122" ry="172"/>
<ellipse transform="matrix(0.7071 -0.7071 0.7071 0.7071 -75.9813 296.566)" class="st0" cx="320" cy="240" rx="126" ry="177.7"/>
<ellipse transform="matrix(0.8315 -0.5556 0.5556 0.8315 -79.4032 218.2419)" class="st0" cx="320" cy="240" rx="127" ry="179.1"/>
<ellipse transform="matrix(0.9239 -0.3827 0.3827 0.9239 -67.4853 140.7345)" class="st0" cx="320" cy="240" rx="126" ry="177.7"/>
<ellipse transform="matrix(0.9808 -0.1951 0.1951 0.9808 -40.6741 67.0442)" class="st0" cx="320" cy="240" rx="128" ry="180.5"/>
</svg>
