<?xml version="1.0" encoding="utf-8"?>
<!-- Generator: Adobe Illustrator 23.0.6, SVG Export Plug-In . SVG Version: 6.00 Build 0)  -->
<svg version="1.1" id="Layer_1" xmlns="http://www.w3.org/2000/svg" xmlns:xlink="http://www.w3.org/1999/xlink" x="0px" y="0px"
	 viewBox="0 0 448 512" style="enable-background:new 0 0 448 512;" xml:space="preserve">
<style type="text/css">
	.st0{fill:#FFFFFF;}
</style>
<path class="st0" d="M432,416H16c-8.8,0-16,7.2-16,16v32c0,8.8,7.2,16,16,16h416c8.8,0,16-7.2,16-16v-32
	C448,423.2,440.8,416,432,416z M432,288H16c-8.8,0-16,7.2-16,16v32c0,8.8,7.2,16,16,16h416c8.8,0,16-7.2,16-16v-32
	C448,295.2,440.8,288,432,288z M432,160H16c-8.8,0-16,7.2-16,16v32c0,8.8,7.2,16,16,16h416c8.8,0,16-7.2,16-16v-32
	C448,167.2,440.8,160,432,160z M432,32H16C7.2,32,0,39.2,0,48v32c0,8.8,7.2,16,16,16h416c8.8,0,16-7.2,16-16V48
	C448,39.2,440.8,32,432,32z"/>
</svg>
