<?xml version="1.0" encoding="utf-8"?>
<!-- Generator: Adobe Illustrator 23.0.6, SVG Export Plug-In . SVG Version: 6.00 Build 0)  -->
<svg version="1.1" id="Layer_1" xmlns="http://www.w3.org/2000/svg" xmlns:xlink="http://www.w3.org/1999/xlink" x="0px" y="0px"
	 viewBox="0 0 512 512" style="enable-background:new 0 0 512 512;" xml:space="preserve">
<style type="text/css">
	.st0{fill:#FFFFFF;}
</style>
<path class="st0" d="M328,256c0,39.8-32.2,72-72,72s-72-32.2-72-72s32.2-72,72-72S328,216.2,328,256z M432,184
	c-39.8,0-72,32.2-72,72s32.2,72,72,72s72-32.2,72-72S471.8,184,432,184z M80,184c-39.8,0-72,32.2-72,72s32.2,72,72,72s72-32.2,72-72
	S119.8,184,80,184z"/>
</svg>
