<?xml version="1.0" encoding="utf-8"?>
<!-- Generator: Adobe Illustrator 23.0.6, SVG Export Plug-In . SVG Version: 6.00 Build 0)  -->
<svg version="1.1" id="Layer_1" xmlns="http://www.w3.org/2000/svg" xmlns:xlink="http://www.w3.org/1999/xlink" x="0px" y="0px"
	 viewBox="0 0 448 512" style="enable-background:new 0 0 448 512;" xml:space="preserve">
<style type="text/css">
	.st0{fill:#FFFFFF;}
</style>
<path class="st0" d="M0,180V56c0-13.3,10.7-24,24-24h124c6.6,0,12,5.4,12,12v40c0,6.6-5.4,12-12,12H64v84c0,6.6-5.4,12-12,12H12
	C5.4,192,0,186.6,0,180z M288,44v40c0,6.6,5.4,12,12,12h84v84c0,6.6,5.4,12,12,12h40c6.6,0,12-5.4,12-12V56c0-13.3-10.7-24-24-24
	H300C293.4,32,288,37.4,288,44z M436,320h-40c-6.6,0-12,5.4-12,12v84h-84c-6.6,0-12,5.4-12,12v40c0,6.6,5.4,12,12,12h124
	c13.3,0,24-10.7,24-24V332C448,325.4,442.6,320,436,320z M160,468v-40c0-6.6-5.4-12-12-12H64v-84c0-6.6-5.4-12-12-12H12
	c-6.6,0-12,5.4-12,12v124c0,13.3,10.7,24,24,24h124C154.6,480,160,474.6,160,468z"/>
</svg>
