<?xml version="1.0" encoding="utf-8"?>
<!-- Generator: Adobe Illustrator 23.0.6, SVG Export Plug-In . SVG Version: 6.00 Build 0)  -->
<svg version="1.1" id="Layer_1" xmlns="http://www.w3.org/2000/svg" xmlns:xlink="http://www.w3.org/1999/xlink" x="0px" y="0px"
	 viewBox="0 0 512 512" style="enable-background:new 0 0 512 512;" xml:space="preserve">
<style type="text/css">
	.st0{fill:#FFFFFF;}
</style>
<path class="st0" d="M50.8,333.3c-12,12-18.8,28.3-18.8,45.3V424L0,480l32,32l56-32h45.5c17,0,33.3-6.7,45.3-18.7l126.6-126.6
	l-128-128L50.8,333.3z M483.9,28.1c-37.5-37.5-98.3-37.5-135.8,0L271,105.2l-13.1-13.1c-9.4-9.4-24.6-9.3-33.9,0l-41,41
	c-9.4,9.4-9.4,24.6,0,33.9L345,329c9.4,9.4,24.6,9.3,33.9,0l41-41c9.4-9.4,9.4-24.6,0-33.9L406.8,241l77.1-77.1
	C521.4,126.4,521.4,65.6,483.9,28.1z"/>
</svg>
