<?xml version="1.0" encoding="utf-8"?>
<!-- Generator: Adobe Illustrator 23.0.6, SVG Export Plug-In . SVG Version: 6.00 Build 0)  -->
<svg version="1.1" id="Layer_1" xmlns="http://www.w3.org/2000/svg" xmlns:xlink="http://www.w3.org/1999/xlink" x="0px" y="0px"
	 viewBox="0 0 512 512" style="enable-background:new 0 0 512 512;" xml:space="preserve">
<style type="text/css">
	.st0{fill:#FFFFFF;}
</style>
<path class="st0" d="M512,76v360c0,6.6-5.4,12-12,12h-40c-6.6,0-12-5.4-12-12V284.1L276.5,440.6c-20.6,17.2-52.5,2.8-52.5-24.6
	V284.1L52.5,440.6C31.9,457.8,0,443.4,0,416V96c0-27.4,31.9-41.7,52.5-24.6L224,226.8V96c0-27.4,31.9-41.7,52.5-24.6L448,226.8V76
	c0-6.6,5.4-12,12-12h40C506.6,64,512,69.4,512,76z"/>
</svg>
