<?xml version="1.0" encoding="utf-8"?>
<!-- Generator: Adobe Illustrator 23.0.6, SVG Export Plug-In . SVG Version: 6.00 Build 0)  -->
<svg version="1.1" id="Layer_1" xmlns="http://www.w3.org/2000/svg" xmlns:xlink="http://www.w3.org/1999/xlink" x="0px" y="0px"
	 viewBox="0 0 352 512" style="enable-background:new 0 0 352 512;" xml:space="preserve">
<style type="text/css">
	.st0{fill:#FFFFFF;}
</style>
<path class="st0" d="M336,192h-16c-8.8,0-16,7.2-16,16v48c0,74.8-64.5,134.8-140.8,127.4C96.7,376.9,48,317.1,48,250.3V208
	c0-8.8-7.2-16-16-16H16c-8.8,0-16,7.2-16,16v40.2c0,89.6,64,169.6,152,181.7V464H96c-8.8,0-16,7.2-16,16v16c0,8.8,7.2,16,16,16h160
	c8.8,0,16-7.2,16-16v-16c0-8.8-7.2-16-16-16h-56v-33.8c85.7-11.8,152-85.3,152-174.2v-48C352,199.2,344.8,192,336,192z M176,352
	c53,0,96-43,96-96h-85.3c-5.9,0-10.7-3.6-10.7-8v-16c0-4.4,4.8-8,10.7-8H272v-32h-85.3c-5.9,0-10.7-3.6-10.7-8v-16
	c0-4.4,4.8-8,10.7-8H272v-32h-85.3c-5.9,0-10.7-3.6-10.7-8v-16c0-4.4,4.8-8,10.7-8H272c0-53-43-96-96-96S80,43,80,96v160
	C80,309,123,352,176,352z"/>
</svg>
