<?xml version="1.0" encoding="utf-8"?>
<!-- Generator: Adobe Illustrator 23.0.6, SVG Export Plug-In . SVG Version: 6.00 Build 0)  -->
<svg version="1.1" id="Layer_1" xmlns="http://www.w3.org/2000/svg" xmlns:xlink="http://www.w3.org/1999/xlink" x="0px" y="0px"
	 viewBox="0 0 640 512" style="enable-background:new 0 0 640 512;" xml:space="preserve">
<style type="text/css">
	.st0{fill:#FFFFFF;}
</style>
<path class="st0" d="M633.8,458.1L476,336.1c12.6-24,20-51.1,20-80.1v-48c0-8.8-7.2-16-16-16h-16c-8.8,0-16,7.2-16,16v48
	c0,17.9-4,34.8-10.7,50.2l-26.5-20.5c3.1-9.4,5.3-19.2,5.3-29.7V96c0-53-43-96-96-96s-96,43-96,96v45.4L45.5,3.4
	c-7-5.4-17-4.2-22.5,2.8L3.4,31.4c-5.4,7-4.2,17,2.8,22.5l588.4,454.7c7,5.4,17,4.2,22.5-2.8l19.6-25.3
	C642,473.6,640.8,463.5,633.8,458.1z M400,464h-56v-33.8c11.7-1.6,22.9-4.5,33.7-8.3l-50.1-38.7c-6.7,0.4-13.4,0.9-20.4,0.2
	c-55.9-5.5-98.7-48.6-111.2-101.9l-52-40.2v6.9c0,89.6,64,169.6,152,181.7V464h-56c-8.8,0-16,7.2-16,16v16c0,8.8,7.2,16,16,16h160
	c8.8,0,16-7.2,16-16v-16C416,471.2,408.8,464,400,464z"/>
</svg>
