<?xml version="1.0" encoding="utf-8"?>
<!-- Generator: Adobe Illustrator 23.0.6, SVG Export Plug-In . SVG Version: 6.00 Build 0)  -->
<svg version="1.1" id="Layer_1" xmlns="http://www.w3.org/2000/svg" xmlns:xlink="http://www.w3.org/1999/xlink" x="0px" y="0px"
	 viewBox="0 0 512 512" style="enable-background:new 0 0 512 512;" xml:space="preserve">
<style type="text/css">
	.st0{fill:#FFFFFF;}
</style>
<path class="st0" d="M470.4,1.5L150.4,96c-13.3,4.2-22.4,16.5-22.4,30.5v261.4c-10.5-2.5-21.2-3.9-32-3.9c-53,0-96,28.7-96,64
	s43,64,96,64s96-28.7,96-64V214.3l256-75v184.6c-10.5-2.6-21.2-3.9-32-3.9c-53,0-96,28.7-96,64s43,64,96,64s96-28.6,96-64V32
	c0-17.7-14.4-32-32-32C476.7,0,473.5,0.5,470.4,1.5z"/>
</svg>
