<?xml version="1.0" encoding="utf-8"?>
<!-- Generator: Adobe Illustrator 23.0.6, SVG Export Plug-In . SVG Version: 6.00 Build 0)  -->
<svg version="1.1" id="Layer_1" xmlns="http://www.w3.org/2000/svg" xmlns:xlink="http://www.w3.org/1999/xlink" x="0px" y="0px"
	 viewBox="0 0 512 512" style="enable-background:new 0 0 512 512;" xml:space="preserve">
<style type="text/css">
	.st0{fill:#FFFFFF;}
</style>
<path class="st0" d="M0,436V76c0-6.6,5.4-12,12-12h40c6.6,0,12,5.4,12,12v151.9L235.5,71.4C256.1,54.3,288,68.6,288,96v131.9
	L459.5,71.4C480.1,54.3,512,68.6,512,96v320c0,27.4-31.9,41.7-52.5,24.6L288,285.3V416c0,27.4-31.9,41.7-52.5,24.6L64,285.3V436
	c0,6.6-5.4,12-12,12H12C5.4,448,0,442.6,0,436z"/>
</svg>
