<?xml version="1.0" encoding="utf-8"?>
<!-- Generator: Adobe Illustrator 23.0.6, SVG Export Plug-In . SVG Version: 6.00 Build 0)  -->
<svg version="1.1" id="Layer_1" xmlns="http://www.w3.org/2000/svg" xmlns:xlink="http://www.w3.org/1999/xlink" x="0px" y="0px"
	 viewBox="0 0 640 512" style="enable-background:new 0 0 640 512;" xml:space="preserve">
<style type="text/css">
	.st0{fill:#FFFFFF;}
</style>
<path class="st0" d="M471.1,96C405,96,353.3,137.3,320,174.6C286.7,137.3,235,96,168.9,96C75.8,96,0,167.8,0,256s75.8,160,168.9,160
	c66.1,0,117.8-41.3,151.1-78.6c33.3,37.3,85,78.6,151.1,78.6c93.1,0,168.9-71.8,168.9-160S564.2,96,471.1,96z M168.9,320
	c-40.2,0-72.9-28.7-72.9-64s32.7-64,72.9-64c38.2,0,73.4,36.1,94,64C242.5,283.6,207,320,168.9,320z M471.1,320
	c-38.2,0-73.4-36.1-94-64c20.4-27.6,55.9-64,94-64c40.2,0,72.9,28.7,72.9,64S511.3,320,471.1,320z"/>
</svg>
