<?xml version="1.0" encoding="utf-8"?>
<!-- Generator: Adobe Illustrator 23.0.6, SVG Export Plug-In . SVG Version: 6.00 Build 0)  -->
<svg version="1.1" id="Layer_1" xmlns="http://www.w3.org/2000/svg" xmlns:xlink="http://www.w3.org/1999/xlink" x="0px" y="0px"
	 viewBox="0 0 448 512" style="enable-background:new 0 0 448 512;" xml:space="preserve">
<style type="text/css">
	.st0{fill:#FFFFFF;}
</style>
<path class="st0" d="M55,214.2l301.4,119.9c18.4,6,38.7-2.5,45.4-19.1l12.1-30.1c6.7-16.6-2.8-35-21.2-41l-175.4-68.1l175.6-68.1
	c18.3-6,27.7-24.3,21.1-40.8l-12-29.9c-6.6-16.5-26.9-25.1-45.1-19.1L55,137.9c-13.8,4.5-23,16.6-23,30.2v16
	C32,197.6,41.2,209.7,55,214.2L55,214.2z M424,400H24c-13.3,0-24,10.7-24,24v48c0,13.3,10.8,24,24,24h400c13.3,0,24-10.8,24-24v-48
	C448,410.7,437.3,400,424,400z"/>
</svg>
