<?xml version="1.0" encoding="utf-8"?>
<!-- Generator: Adobe Illustrator 23.0.6, SVG Export Plug-In . SVG Version: 6.00 Build 0)  -->
<svg version="1.1" id="Layer_1" xmlns="http://www.w3.org/2000/svg" xmlns:xlink="http://www.w3.org/1999/xlink" x="0px" y="0px"
	 viewBox="0 0 448 512" style="enable-background:new 0 0 448 512;" xml:space="preserve">
<style type="text/css">
	.st0{fill:#FFFFFF;}
</style>
<path class="st0" d="M416,208c17.7,0,32-14.3,32-32v-32c0-17.7-14.3-32-32-32h-23.9L444,45.2c5.4-7,4-17.1-3-22.4L415.6,3.3
	c-7-5.4-17.1-4-22.4,3L311.1,112H32c-17.7,0-32,14.3-32,32v32c0,17.7,14.3,32,32,32h204.6L162,304H32c-17.7,0-32,14.3-32,32v32
	c0,17.7,14.3,32,32,32h55.5l-51.9,66.8c-5.4,7-4,17,3,22.4L64,508.7c7,5.4,17.1,4,22.4-3L168.5,400H416c17.7,0,32-14.3,32-32v-32
	c0-17.7-14.3-32-32-32H243.1l74.5-96H416z"/>
</svg>
