<?xml version="1.0" encoding="utf-8"?>
<!-- Generator: Adobe Illustrator 23.0.6, SVG Export Plug-In . SVG Version: 6.00 Build 0)  -->
<svg version="1.1" id="Layer_1" xmlns="http://www.w3.org/2000/svg" xmlns:xlink="http://www.w3.org/1999/xlink" x="0px" y="0px"
	 viewBox="0 0 448 512" style="enable-background:new 0 0 448 512;" xml:space="preserve">
<style type="text/css">
	.st0{fill:#FFFFFF;}
</style>
<path class="st0" d="M100.7,363.3c10,10,27.3,2.9,27.3-11.3V160c0-14.3-17.3-21.3-27.3-11.3l-96,96c-6.2,6.2-6.2,16.4,0,22.6
	L100.7,363.3z M432,416H16c-8.8,0-16,7.2-16,16v32c0,8.8,7.2,16,16,16h416c8.8,0,16-7.2,16-16v-32C448,423.2,440.8,416,432,416z
	 M435.2,288H204.8c-7.1,0-12.8,5.7-12.8,12.8c0,0,0,0,0,0v38.3c0,7.1,5.7,12.8,12.8,12.8c0,0,0,0,0,0h230.3
	c7.1,0,12.8-5.7,12.8-12.8c0,0,0,0,0,0v-38.3C448,293.7,442.3,288,435.2,288C435.2,288,435.2,288,435.2,288z M435.2,160H204.8
	c-7.1,0-12.8,5.7-12.8,12.8c0,0,0,0,0,0v38.3c0,7.1,5.7,12.8,12.8,12.8c0,0,0,0,0,0h230.3c7.1,0,12.8-5.7,12.8-12.8c0,0,0,0,0,0
	v-38.3C448,165.7,442.3,160,435.2,160C435.2,160,435.2,160,435.2,160z M432,32H16C7.2,32,0,39.2,0,48v32c0,8.8,7.2,16,16,16h416
	c8.8,0,16-7.2,16-16V48C448,39.2,440.8,32,432,32z"/>
</svg>
