<?xml version="1.0" encoding="utf-8"?>
<!-- Generator: Adobe Illustrator 23.0.6, SVG Export Plug-In . SVG Version: 6.00 Build 0)  -->
<svg version="1.1" id="Layer_1" xmlns="http://www.w3.org/2000/svg" xmlns:xlink="http://www.w3.org/1999/xlink" x="0px" y="0px"
	 viewBox="0 0 448 512" style="enable-background:new 0 0 448 512;" xml:space="preserve">
<style type="text/css">
	.st0{fill:#FFFFFF;}
</style>
<path class="st0" d="M352,320c-22.6,0-43.4,7.8-59.8,20.9l-102.5-64.1c3-13.7,3-28,0-41.7l102.5-64.1c16.4,13.1,37.2,20.9,59.8,20.9
	c53,0,96-43,96-96S405,0,352,0s-96,43-96,96c0,7.2,0.8,14.1,2.3,20.8l-102.5,64.1C139.4,167.8,118.6,160,96,160c-53,0-96,43-96,96
	s43,96,96,96c22.6,0,43.4-7.8,59.8-20.9l102.5,64.1C256.8,402,256,409,256,416c0,53,43,96,96,96s96-43,96-96S405,320,352,320z"/>
</svg>
