<?xml version="1.0" encoding="utf-8"?>
<!-- Generator: Adobe Illustrator 23.0.6, SVG Export Plug-In . SVG Version: 6.00 Build 0)  -->
<svg version="1.1" id="Layer_1" xmlns="http://www.w3.org/2000/svg" xmlns:xlink="http://www.w3.org/1999/xlink" x="0px" y="0px"
	 viewBox="0 0 448 512" style="enable-background:new 0 0 448 512;" xml:space="preserve">
<style type="text/css">
	.st0{fill:#FFFFFF;}
</style>
<path class="st0" d="M448,80v352c0,26.5-21.5,48-48,48H48c-26.5,0-48-21.5-48-48V80c0-26.5,21.5-48,48-48h352
	C426.5,32,448,53.5,448,80z M304,296c-14.6,0-27.8,5.6-37.8,14.7l-68-40.8c2.3-9.1,2.3-18.7,0-27.8l68-40.8
	c10,9.1,23.2,14.7,37.8,14.7c30.9,0,56-25.1,56-56s-25.1-56-56-56s-56,25.1-56,56c0,4.8,0.6,9.5,1.7,13.9l-68,40.8
	c-10-9.1-23.2-14.7-37.8-14.7c-30.9,0-56,25.1-56,56s25.1,56,56,56c14.6,0,27.8-5.6,37.8-14.7l68,40.8c-1.2,4.5-1.7,9.2-1.7,13.9
	c0,30.9,25.1,56,56,56s56-25.1,56-56C360,321.1,334.9,296,304,296z"/>
</svg>
