<?xml version="1.0" encoding="utf-8"?>
<!-- Generator: Adobe Illustrator 23.0.6, SVG Export Plug-In . SVG Version: 6.00 Build 0)  -->
<svg version="1.1" id="Layer_1" xmlns="http://www.w3.org/2000/svg" xmlns:xlink="http://www.w3.org/1999/xlink" x="0px" y="0px"
	 viewBox="0 0 448 512" style="enable-background:new 0 0 448 512;" xml:space="preserve">
<style type="text/css">
	.st0{fill:#FFFFFF;}
</style>
<path class="st0" d="M32,64h32v160c0,88.2,71.8,160,160,160s160-71.8,160-160V64h32c8.8,0,16-7.2,16-16V16c0-8.8-7.2-16-16-16H272
	c-8.8,0-16,7.2-16,16v32c0,8.8,7.2,16,16,16h32v160c0,44.2-35.8,80-80,80s-80-35.8-80-80V64h32c8.8,0,16-7.2,16-16V16
	c0-8.8-7.2-16-16-16H32c-8.8,0-16,7.2-16,16v32C16,56.8,23.2,64,32,64z M432,448H16c-8.8,0-16,7.2-16,16v32c0,8.8,7.2,16,16,16h416
	c8.8,0,16-7.2,16-16v-32C448,455.2,440.8,448,432,448z"/>
</svg>
