<?xml version="1.0" encoding="utf-8"?>
<!-- Generator: Adobe Illustrator 23.0.6, SVG Export Plug-In . SVG Version: 6.00 Build 0)  -->
<svg version="1.1" id="Layer_1" xmlns="http://www.w3.org/2000/svg" xmlns:xlink="http://www.w3.org/1999/xlink" x="0px" y="0px"
	 viewBox="0 0 384 512" style="enable-background:new 0 0 384 512;" xml:space="preserve">
<style type="text/css">
	.st0{fill:#FFFFFF;}
</style>
<path class="st0" d="M336,64h-80c0-35.3-28.7-64-64-64s-64,28.7-64,64H48C21.5,64,0,85.5,0,112v352c0,26.5,21.5,48,48,48h288
	c26.5,0,48-21.5,48-48V112C384,85.5,362.5,64,336,64z M96,424c-13.3,0-24-10.7-24-24s10.7-24,24-24s24,10.7,24,24S109.3,424,96,424z
	 M96,328c-13.3,0-24-10.7-24-24s10.7-24,24-24s24,10.7,24,24S109.3,328,96,328z M96,232c-13.3,0-24-10.7-24-24s10.7-24,24-24
	s24,10.7,24,24S109.3,232,96,232z M192,40c13.3,0,24,10.7,24,24s-10.7,24-24,24s-24-10.7-24-24S178.7,40,192,40z M320,408
	c0,4.4-3.6,8-8,8H168c-4.4,0-8-3.6-8-8v-16c0-4.4,3.6-8,8-8h144c4.4,0,8,3.6,8,8V408z M320,312c0,4.4-3.6,8-8,8H168
	c-4.4,0-8-3.6-8-8v-16c0-4.4,3.6-8,8-8h144c4.4,0,8,3.6,8,8V312z M320,216c0,4.4-3.6,8-8,8H168c-4.4,0-8-3.6-8-8v-16
	c0-4.4,3.6-8,8-8h144c4.4,0,8,3.6,8,8V216z"/>
</svg>
