<?xml version="1.0" encoding="utf-8"?>
<!-- Generator: Adobe Illustrator 23.0.6, SVG Export Plug-In . SVG Version: 6.00 Build 0)  -->
<svg version="1.1" id="Layer_1" xmlns="http://www.w3.org/2000/svg" xmlns:xlink="http://www.w3.org/1999/xlink" x="0px" y="0px"
	 viewBox="0 0 640 512" style="enable-background:new 0 0 640 512;" xml:space="preserve">
<style type="text/css">
	.st0{fill:#FFFFFF;}
</style>
<path class="st0" d="M633.8,458.1L543.2,388c0.2-1.4,0.8-2.7,0.8-4.1c0-7.5-2.6-15.3-8.6-21.7c-19.3-20.8-55.5-52-55.5-154.3
	c0-77.7-54.5-139.9-127.9-155.2V32c0-17.7-14.3-32-32-32s-32,14.3-32,32v20.8c-40.3,8.4-74.7,31.1-97.6,62.6l-145-112
	c-7-5.4-17-4.2-22.5,2.8L3.4,31.4c-5.4,7-4.2,17,2.8,22.5l588.3,454.7c7,5.4,17,4.2,22.5-2.8l19.6-25.3
	C642,473.6,640.8,463.5,633.8,458.1z M157.2,251.5c-8.6,68-36.4,93.3-52.6,110.7c-6,6.5-8.7,14.2-8.6,21.7c0.1,16.4,13,32,32.1,32
	H370L157.2,251.5z M320,512c35.3,0,64-28.6,64-64H256C256,483.4,284.7,512,320,512z"/>
</svg>
