<?xml version="1.0" encoding="utf-8"?>
<!-- Generator: Adobe Illustrator 23.0.6, SVG Export Plug-In . SVG Version: 6.00 Build 0)  -->
<svg version="1.1" id="Layer_1" xmlns="http://www.w3.org/2000/svg" xmlns:xlink="http://www.w3.org/1999/xlink" x="0px" y="0px"
	 viewBox="0 0 512 512" style="enable-background:new 0 0 512 512;" xml:space="preserve">
<style type="text/css">
	.st0{fill:#FFFFFF;}
</style>
<path class="st0" d="M504,256c0,137-111,248-248,248S8,393,8,256S119,8,256,8S504,119,504,256z M212,140v116h-70.9
	c-10.7,0-16.1,13-8.5,20.5l114.9,114.3c4.7,4.7,12.2,4.7,16.9,0l114.9-114.3c7.6-7.6,2.2-20.5-8.5-20.5H300V140c0-6.6-5.4-12-12-12
	h-64C217.4,128,212,133.4,212,140z"/>
</svg>
