<?xml version="1.0" encoding="utf-8"?>
<!-- Generator: Adobe Illustrator 23.0.6, SVG Export Plug-In . SVG Version: 6.00 Build 0)  -->
<svg version="1.1" id="Layer_1" xmlns="http://www.w3.org/2000/svg" xmlns:xlink="http://www.w3.org/1999/xlink" x="0px" y="0px"
	 viewBox="0 0 448 512" style="enable-background:new 0 0 448 512;" xml:space="preserve">
<style type="text/css">
	.st0{fill:#FFFFFF;}
</style>
<path class="st0" d="M223.7,239l136-136c9.4-9.4,24.6-9.4,33.9,0l22.6,22.6c9.4,9.4,9.4,24.6,0,33.9L319.9,256l96.4,96.4
	c9.4,9.4,9.4,24.6,0,33.9L393.7,409c-9.4,9.4-24.6,9.4-33.9,0l-136-136C214.3,263.6,214.3,248.4,223.7,239L223.7,239z M31.7,273
	l136,136c9.4,9.4,24.6,9.4,33.9,0l22.6-22.6c9.4-9.4,9.4-24.6,0-33.9L127.9,256l96.4-96.4c9.4-9.4,9.4-24.6,0-33.9L201.7,103
	c-9.4-9.4-24.6-9.4-33.9,0l-136,136C22.3,248.4,22.3,263.6,31.7,273z"/>
</svg>
