<?xml version="1.0" encoding="utf-8"?>
<!-- Generator: Adobe Illustrator 23.0.6, SVG Export Plug-In . SVG Version: 6.00 Build 0)  -->
<svg version="1.1" id="Layer_1" xmlns="http://www.w3.org/2000/svg" xmlns:xlink="http://www.w3.org/1999/xlink" x="0px" y="0px"
	 viewBox="0 0 87.5 54.2" style="enable-background:new 0 0 87.5 54.2;" xml:space="preserve">
<style type="text/css">
	.st0{fill:#FFFFFF;}
</style>
<g>
	<path class="st0" d="M74.7,12.9C47.1-14.7,0,4.9,0,43.8h26.8c0-21,31.9-20.9,31.9,0h28.9C87.6,32.2,83,21,74.7,12.9z M84.2,40.8
		h-2.6c-6.4-45.5-67-47.5-74.2,0H4.2C9.7-10,78.3-8.6,84.2,40.8L84.2,40.8L84.2,40.8C84.2,40.9,84.2,40.9,84.2,40.8z"/>
	<path class="st0" d="M36.2,36c-4.2,4.2-4.2,10.9,0,15.1s10.9,4.2,15.1,0s4.2-10.9,0-15.1S40.4,31.8,36.2,36z M49.3,49.1
		c-3,3-8,3-11,0s-3-8,0-11s8-3,11,0S52.3,46,49.3,49.1z"/>
	<path class="st0" d="M43.8,38.7c-1.3,0-2.5,0.5-3.4,1.4c-1.9,1.9-1.9,5,0,6.8c1.9,1.9,5,1.9,6.8,0s1.9-5,0-6.8
		C46.3,39.2,45,38.7,43.8,38.7z"/>
</g>
</svg>
