<?xml version="1.0" encoding="utf-8"?>
<!-- Generator: Adobe Illustrator 23.0.6, SVG Export Plug-In . SVG Version: 6.00 Build 0)  -->
<svg version="1.1" id="Layer_1" xmlns="http://www.w3.org/2000/svg" xmlns:xlink="http://www.w3.org/1999/xlink" x="0px" y="0px"
	 viewBox="0 0 114 114" style="enable-background:new 0 0 114 114;" xml:space="preserve">
<style type="text/css">
	.st0{fill:#FFFFFF;}
</style>
<g id="Layer_2_00000158722661923316798640000017793733992850385043_">
	<g id="_Layer_">
		<path class="st0" d="M111.9,72.3c5.8-20.9-0.7-43.2-16.8-57.7V6l-8.5,2.3c-21.2-12.9-48.3-10.6-67,5.6l11.9,13.3
			c16.5-14,41.2-12.1,55.2,4.3c6.1,7.1,9.4,16.1,9.4,25.5c0,3.5-0.4,6.9-1.3,10.2L111.9,72.3z"/>
		<path class="st0" d="M94.3,68.9c-2.2,6.9-6.3,13-11.7,17.7l11.5,13.7c2.6-2.2,5-4.7,7.2-7.4l8.9-0.6l-2.9-8.3
			c1.7-3.2,3.1-6.5,4.2-10L94.3,68.9z"/>
		<path class="st0" d="M90.1,111.5l1-8.9c0.5-0.4,1.1-0.8,1.6-1.3L81.2,87.8c-2.5,2-5.3,3.7-8.2,5l7.2,16.3l1.7-0.8L90.1,111.5z"/>
		<path class="st0" d="M30.2,28.4L18.3,15.1C-3.9,35.6-6.2,70,13.1,93.3l-1.1,8.8l8.7-1.3c16.2,13.4,38.4,16.8,57.9,8.9l-7.2-16.3
			c-20.1,7.9-42.9-2-50.7-22.2C14.8,56.4,18.6,39.4,30.2,28.4L30.2,28.4z"/>
	</g>
</g>
</svg>
