<?xml version="1.0" encoding="utf-8"?>
<!-- Generator: Adobe Illustrator 23.0.6, SVG Export Plug-In . SVG Version: 6.00 Build 0)  -->
<svg version="1.1" id="Layer_1" xmlns="http://www.w3.org/2000/svg" xmlns:xlink="http://www.w3.org/1999/xlink" x="0px" y="0px"
	 viewBox="0 0 111.6 111.6" style="enable-background:new 0 0 111.6 111.6;" xml:space="preserve">
<style type="text/css">
	.st0{fill:#FFFFFF;}
</style>
<title>Asset 113</title>
<g>
	<g id="_Layer_">
		<path class="st0" d="M70.8,55.8c0-8.3-6.7-15-15-15s-15,6.7-15,15s6.7,15,15,15S70.8,64.1,70.8,55.8L70.8,55.8z"/>
		<path class="st0" d="M65.2,55.8c0-5.2-4.2-9.4-9.4-9.4c-5.2,0-9.4,4.2-9.4,9.4c0,5.2,4.2,9.4,9.4,9.4S65.2,61,65.2,55.8L65.2,55.8
			z"/>
		<rect x="53" y="0" class="st0" width="5.6" height="14.1"/>
		
			<rect x="18.5" y="14.3" transform="matrix(0.7074 -0.7069 0.7069 0.7074 -8.8246 21.2989)" class="st0" width="5.6" height="14.1"/>
		<rect y="53" class="st0" width="14.1" height="5.6"/>
		
			<rect x="14.3" y="87.4" transform="matrix(0.7071 -0.7071 0.7071 0.7071 -57.5734 41.5084)" class="st0" width="14.1" height="5.6"/>
		<rect x="53" y="97.5" class="st0" width="5.6" height="14.1"/>
		<rect x="87.4" y="83.2" transform="matrix(0.707 -0.7072 0.7072 0.707 -37.3768 90.275)" class="st0" width="5.6" height="14.1"/>
		<rect x="97.5" y="53" class="st0" width="14.1" height="5.6"/>
		<rect x="83.2" y="18.5" transform="matrix(0.707 -0.7072 0.7072 0.707 11.3738 70.0686)" class="st0" width="14.1" height="5.6"/>
		<rect x="39.2" y="0.7" transform="matrix(0.966 -0.2587 0.2587 0.966 0.2756 11.0258)" class="st0" width="5.6" height="7.5"/>
		<rect x="26.4" y="6" transform="matrix(0.8662 -0.4997 0.4997 0.8662 -0.9729 15.9098)" class="st0" width="5.6" height="7.5"/>
		<rect x="7" y="25.5" transform="matrix(0.4997 -0.8662 0.8662 0.4997 -20.4198 23.0829)" class="st0" width="5.6" height="7.5"/>
		
			<rect x="1.8" y="38.3" transform="matrix(0.2589 -0.9659 0.9659 0.2589 -37.1937 35.6574)" class="st0" width="5.7" height="7.5"/>
		<rect x="0.7" y="66.7" transform="matrix(0.966 -0.2585 0.2585 0.966 -17.822 3.519)" class="st0" width="7.5" height="5.6"/>
		<rect x="6" y="79.5" transform="matrix(0.866 -0.5 0.5 0.866 -39.8627 15.9175)" class="st0" width="7.5" height="5.6"/>
		<rect x="25.5" y="99" transform="matrix(0.5 -0.866 0.866 0.5 -73.5325 76.1875)" class="st0" width="7.5" height="5.6"/>
		
			<rect x="38.3" y="104.3" transform="matrix(0.2588 -0.9659 0.9659 0.2588 -72.2866 119.975)" class="st0" width="7.5" height="5.6"/>
		
			<rect x="66.7" y="103.3" transform="matrix(0.9659 -0.259 0.259 0.9659 -25.3626 21.6593)" class="st0" width="5.6" height="7.5"/>
		<rect x="79.5" y="98" transform="matrix(0.8663 -0.4995 0.4995 0.8663 -39.8424 54.7436)" class="st0" width="5.6" height="7.5"/>
		<rect x="99" y="78.6" transform="matrix(0.4998 -0.8661 0.8661 0.4998 -20.4141 129.338)" class="st0" width="5.6" height="7.5"/>
		
			<rect x="104.3" y="65.8" transform="matrix(0.2588 -0.9659 0.9659 0.2588 12.2191 154.9839)" class="st0" width="5.6" height="7.5"/>
		<rect x="103.3" y="39.2" transform="matrix(0.966 -0.2587 0.2587 0.966 -7.2272 29.1283)" class="st0" width="7.5" height="5.6"/>
		<rect x="98" y="26.4" transform="matrix(0.866 -0.5 0.5 0.866 -0.9638 54.8061)" class="st0" width="7.5" height="5.6"/>
		<rect x="78.6" y="7" transform="matrix(0.5002 -0.8659 0.8659 0.5002 32.6892 76.1811)" class="st0" width="7.5" height="5.6"/>
		<rect x="65.9" y="1.4" transform="matrix(0.2589 -0.9659 0.9659 0.2589 47.5578 70.3576)" class="st0" width="7.5" height="5.7"/>
	</g>
</g>
</svg>
