<?xml version="1.0" encoding="utf-8"?>
<!-- Generator: Adobe Illustrator 23.0.6, SVG Export Plug-In . SVG Version: 6.00 Build 0)  -->
<svg version="1.1" id="Layer_1" xmlns="http://www.w3.org/2000/svg" xmlns:xlink="http://www.w3.org/1999/xlink" x="0px" y="0px"
	 viewBox="0 0 111.7 111.7" style="enable-background:new 0 0 111.7 111.7;" xml:space="preserve">
<style type="text/css">
	.st0{fill:#FFFFFF;}
</style>
<g id="Layer_2_00000060752637938968612740000007485878719971123112_">
	<g id="_Layer_">
		<path class="st0" d="M81.9,55.8c0-14.4-11.6-26-26-26s-26,11.6-26,26s11.6,26,26,26l0,0C70.2,81.8,81.9,70.2,81.9,55.8z"/>
		<path class="st0" d="M60.4,4.6c0-2.5-2.1-4.6-4.6-4.6s-4.6,2.1-4.6,4.6s2.1,4.6,4.6,4.6l0,0C58.4,9.2,60.4,7.2,60.4,4.6z"/>
		<path class="st0" d="M32.5,15.5c2.2-1.3,3-4.1,1.7-6.3s-4.1-3-6.3-1.7s-3,4.1-1.7,6.3l0,0C27.5,16,30.3,16.7,32.5,15.5L32.5,15.5z
			"/>
		<path class="st0" d="M15.5,32.5c1.3-2.2,0.5-5-1.7-6.3s-5-0.5-6.3,1.7s-0.5,5,1.7,6.3l0,0C11.4,35.5,14.2,34.7,15.5,32.5z"/>
		<path class="st0" d="M9.2,55.8c0-2.5-2.1-4.6-4.6-4.6S0,53.3,0,55.8s2.1,4.6,4.6,4.6l0,0C7.2,60.4,9.2,58.4,9.2,55.8z"/>
		<path class="st0" d="M13.8,85.4c2.2-1.3,3-4.1,1.7-6.3s-4.1-3-6.3-1.7s-3,4.1-1.7,6.3C8.8,86,11.6,86.7,13.8,85.4L13.8,85.4z"/>
		<path class="st0" d="M34.2,102.5c1.3-2.2,0.5-5-1.7-6.3s-5-0.5-6.3,1.7s-0.5,5,1.7,6.3l0,0C30.1,105.5,32.9,104.7,34.2,102.5
			L34.2,102.5z"/>
		<circle class="st0" cx="55.8" cy="107.1" r="4.6"/>
		<path class="st0" d="M83.8,104.2c2.2-1.3,3-4.1,1.7-6.3c-1.3-2.2-4.1-3-6.3-1.7c-2.2,1.3-3,4.1-1.7,6.3l0,0
			C78.7,104.7,81.5,105.5,83.8,104.2z"/>
		<path class="st0" d="M104.2,83.7c1.3-2.2,0.5-5-1.7-6.3s-5-0.5-6.3,1.7s-0.5,5,1.7,6.3C100.1,86.7,102.9,86,104.2,83.7
			C104.2,83.8,104.2,83.8,104.2,83.7z"/>
		<path class="st0" d="M111.7,55.8c0-2.5-2.1-4.6-4.6-4.6s-4.6,2.1-4.6,4.6s2.1,4.6,4.6,4.6l0,0C109.6,60.4,111.7,58.4,111.7,55.8
			L111.7,55.8z"/>
		<path class="st0" d="M102.5,34.2c2.2-1.3,3-4.1,1.7-6.3s-4.1-3-6.3-1.7c-2.2,1.3-3,4.1-1.7,6.3l0,0
			C97.5,34.7,100.3,35.5,102.5,34.2L102.5,34.2z"/>
		<path class="st0" d="M85.4,13.8c1.3-2.2,0.5-5-1.7-6.3s-5-0.5-6.3,1.7s-0.5,5,1.7,6.3l0,0C81.3,16.7,84.2,16,85.4,13.8L85.4,13.8z
			"/>
		<path class="st0" d="M43.8,10.8c2.5-0.7,3.9-3.2,3.3-5.7c-0.7-2.5-3.2-3.9-5.7-3.3c-2.5,0.7-3.9,3.2-3.3,5.7l0,0
			C38.8,10,41.3,11.5,43.8,10.8L43.8,10.8z"/>
		<path class="st0" d="M22.9,22.9c1.8-1.8,1.8-4.7,0-6.5c-1.8-1.8-4.7-1.8-6.5,0s-1.8,4.7,0,6.5S21.1,24.7,22.9,22.9L22.9,22.9z"/>
		<path class="st0" d="M10.8,43.8c0.7-2.5-0.8-5-3.2-5.7c-2.5-0.7-5,0.8-5.7,3.2s0.8,5,3.2,5.7l0,0C7.6,47.7,10.1,46.2,10.8,43.8z"
			/>
		<path class="st0" d="M7.6,73.5c2.5-0.7,3.9-3.2,3.3-5.7S7.6,64,5.2,64.6c-2.5,0.7-3.9,3.2-3.3,5.7l0,0C2.6,72.7,5.1,74.2,7.6,73.5
			C7.5,73.5,7.5,73.5,7.6,73.5z"/>
		<path class="st0" d="M22.9,95.3c1.8-1.8,1.8-4.7,0-6.5s-4.7-1.8-6.5,0s-1.8,4.7,0,6.5C18.2,97.1,21.1,97.1,22.9,95.3L22.9,95.3z"
			/>
		<path class="st0" d="M47,106.5c0.7-2.5-0.8-5-3.3-5.6s-5,0.8-5.6,3.3c-0.7,2.5,0.8,5,3.3,5.6C43.8,110.4,46.3,109,47,106.5
			L47,106.5z"/>
		<path class="st0" d="M70.3,109.8c2.5-0.7,3.9-3.2,3.3-5.6c-0.7-2.5-3.2-3.9-5.6-3.3c-2.5,0.7-3.9,3.2-3.3,5.6
			C65.3,109,67.8,110.4,70.3,109.8L70.3,109.8z"/>
		<path class="st0" d="M95.3,95.3c1.8-1.8,1.8-4.7,0-6.5s-4.7-1.8-6.5,0s-1.8,4.7,0,6.5C90.6,97.1,93.5,97.1,95.3,95.3L95.3,95.3z"
			/>
		<path class="st0" d="M109.8,70.3c0.7-2.5-0.8-5-3.2-5.7c-2.5-0.7-5,0.8-5.7,3.2c-0.7,2.5,0.8,5,3.2,5.7l0,0
			C106.6,74.2,109.1,72.7,109.8,70.3z"/>
		<path class="st0" d="M106.5,47c2.5-0.7,3.9-3.2,3.3-5.6s-3.2-3.9-5.6-3.3c-2.5,0.7-3.9,3.2-3.3,5.6l0,0
			C101.5,46.2,104.1,47.7,106.5,47z"/>
		<path class="st0" d="M95.3,22.9c1.8-1.8,1.8-4.7,0-6.5c-1.8-1.8-4.7-1.8-6.5,0s-1.8,4.7,0,6.5C90.6,24.7,93.5,24.7,95.3,22.9
			L95.3,22.9z"/>
		<path class="st0" d="M73.5,7.5c0.7-2.5-0.8-5-3.2-5.7c-2.5-0.7-5,0.8-5.7,3.2c-0.7,2.5,0.8,5,3.2,5.7l0,0
			C70.4,11.5,72.9,10,73.5,7.5z"/>
	</g>
</g>
</svg>
