<?xml version="1.0" encoding="utf-8"?>
<!-- Generator: Adobe Illustrator 23.0.6, SVG Export Plug-In . SVG Version: 6.00 Build 0)  -->
<svg version="1.1" id="Layer_1" xmlns="http://www.w3.org/2000/svg" xmlns:xlink="http://www.w3.org/1999/xlink" x="0px" y="0px"
	 viewBox="0 0 110.6 110.6" style="enable-background:new 0 0 110.6 110.6;" xml:space="preserve">
<style type="text/css">
	.st0{fill:#FFFFFF;}
</style>
<g id="Layer_2_00000018207939714075361450000013568200036411311233_">
	<g id="_Layer_">
		<rect x="49" y="0.3" transform="matrix(0.9914 -0.131 0.131 0.9914 -1.527 6.6844)" class="st0" width="2.1" height="29.3"/>
		<rect x="54.3" y="0" class="st0" width="2.1" height="14.7"/>
		<rect x="41.9" y="1.6" transform="matrix(0.966 -0.2585 0.2585 0.966 -0.8508 11.4041)" class="st0" width="2.1" height="14.7"/>
		
			<rect x="30.3" y="6.4" transform="matrix(0.8654 -0.5011 0.5011 0.8654 -2.6628 17.5548)" class="st0" width="2.1" height="14.7"/>
		<rect x="20.4" y="14" transform="matrix(0.7071 -0.7071 0.7071 0.7071 -8.8311 21.4481)" class="st0" width="2.1" height="14.7"/>
		
			<rect x="12.7" y="24" transform="matrix(0.5003 -0.8659 0.8659 0.5003 -20.2523 27.5974)" class="st0" width="2.1" height="14.7"/>
		<rect x="8" y="35.6" transform="matrix(0.2587 -0.966 0.966 0.2587 -34.7903 40.5318)" class="st0" width="2.1" height="14.7"/>
		<rect y="54.3" class="st0" width="14.6" height="2.1"/>
		<rect x="1.6" y="66.7" transform="matrix(0.9659 -0.259 0.259 0.9659 -17.2421 4.6309)" class="st0" width="14.7" height="2.1"/>
		<rect x="6.4" y="78.3" transform="matrix(0.866 -0.5 0.5 0.866 -37.8292 17.5182)" class="st0" width="14.7" height="2.1"/>
		<rect x="14.1" y="88.2" transform="matrix(0.707 -0.7072 0.7072 0.707 -56.808 41.2925)" class="st0" width="14.7" height="2.1"/>
		<rect x="24" y="95.8" transform="matrix(0.5 -0.866 0.866 0.5 -68.2091 75.5333)" class="st0" width="14.7" height="2.1"/>
		
			<rect x="35.5" y="100.6" transform="matrix(0.2588 -0.9659 0.9659 0.2588 -66.3718 116.7419)" class="st0" width="14.7" height="2.1"/>
		<rect x="54.3" y="96" class="st0" width="2.1" height="14.7"/>
		
			<rect x="66.7" y="94.3" transform="matrix(0.9658 -0.2593 0.2593 0.9658 -24.0414 21.0428)" class="st0" width="2.1" height="14.7"/>
		
			<rect x="78.3" y="89.5" transform="matrix(0.8662 -0.4997 0.4997 0.8662 -37.7727 52.5983)" class="st0" width="2.1" height="14.7"/>
		<polygon class="st0" points="84.8,83.3 83.3,84.8 93.7,95.2 95.2,93.7 		"/>
		
			<rect x="95.9" y="72" transform="matrix(0.5008 -0.8656 0.8656 0.5008 -20.299 123.4957)" class="st0" width="2.1" height="14.7"/>
		
			<rect x="100.6" y="60.4" transform="matrix(0.2581 -0.9661 0.9661 0.2581 9.957 148.5079)" class="st0" width="2.1" height="14.7"/>
		<rect x="96" y="54.3" class="st0" width="14.7" height="2.1"/>
		
			<rect x="94.3" y="41.9" transform="matrix(0.9659 -0.2588 0.2588 0.9659 -7.6531 27.7743)" class="st0" width="14.7" height="2.1"/>
		
			<rect x="89.6" y="30.3" transform="matrix(0.8661 -0.4998 0.4998 0.8661 -2.6754 52.6489)" class="st0" width="14.7" height="2.1"/>
		
			<rect x="81.9" y="20.4" transform="matrix(0.7071 -0.7071 0.7071 0.7071 10.9976 69.4199)" class="st0" width="14.7" height="2.1"/>
		<rect x="72" y="12.7" transform="matrix(0.5 -0.866 0.866 0.5 27.7789 75.558)" class="st0" width="14.7" height="2.1"/>
		<rect x="60.4" y="7.9" transform="matrix(0.2587 -0.966 0.966 0.2587 41.5624 72.069)" class="st0" width="14.7" height="2.1"/>
		
			<rect x="38.7" y="3.1" transform="matrix(0.9239 -0.3827 0.3827 0.9239 -3.7677 16.5643)" class="st0" width="2.1" height="29.3"/>
		
			<rect x="29.5" y="8.4" transform="matrix(0.7934 -0.6088 0.6088 0.7934 -7.7244 23.3665)" class="st0" width="2.1" height="29.3"/>
		
			<rect x="22" y="15.9" transform="matrix(0.6086 -0.7935 0.7935 0.6086 -15.2302 30.2444)" class="st0" width="2.1" height="29.3"/>
		
			<rect x="16.7" y="25.1" transform="matrix(0.3825 -0.9239 0.9239 0.3825 -25.7766 40.9409)" class="st0" width="2.1" height="29.3"/>
		
			<rect x="14" y="35.3" transform="matrix(0.1305 -0.9914 0.9914 0.1305 -36.4654 58.3496)" class="st0" width="2.1" height="29.3"/>
		<rect x="0.4" y="59.6" transform="matrix(0.9914 -0.1305 0.1305 0.9914 -7.7855 2.4827)" class="st0" width="29.3" height="2.1"/>
		
			<rect x="2.9" y="69.6" transform="matrix(0.9243 -0.3818 0.3818 0.9243 -25.6467 12.0327)" class="st0" width="29.2" height="2.1"/>
		<rect x="8.4" y="79" transform="matrix(0.7934 -0.6088 0.6088 0.7934 -43.9753 30.5722)" class="st0" width="29.3" height="2.1"/>
		
			<rect x="15.9" y="86.5" transform="matrix(0.6088 -0.7934 0.7934 0.6088 -57.5243 58.4984)" class="st0" width="29.3" height="2.1"/>
		
			<rect x="25.2" y="91.9" transform="matrix(0.3827 -0.9239 0.9239 0.3827 -61.2627 94.1406)" class="st0" width="29.3" height="2.1"/>
		
			<rect x="35.4" y="94.6" transform="matrix(0.1305 -0.9914 0.9914 0.1305 -51.3845 132.7912)" class="st0" width="29.3" height="2.1"/>
		<rect x="59.6" y="81" transform="matrix(0.9915 -0.13 0.13 0.9915 -11.9194 8.6965)" class="st0" width="2.1" height="29.3"/>
		
			<rect x="69.8" y="78.2" transform="matrix(0.9241 -0.3822 0.3822 0.9241 -30.115 34.1237)" class="st0" width="2.1" height="29.3"/>
		
			<rect x="79" y="72.9" transform="matrix(0.7939 -0.6081 0.6081 0.7939 -36.7456 66.7245)" class="st0" width="2.1" height="29.3"/>
		
			<rect x="86.5" y="65.4" transform="matrix(0.6096 -0.7927 0.7927 0.6096 -29.2921 100.6691)" class="st0" width="2.1" height="29.3"/>
		
			<rect x="91.8" y="56.2" transform="matrix(0.3822 -0.9241 0.9241 0.3822 -8.0459 129.5746)" class="st0" width="2.1" height="29.3"/>
		
			<rect x="94.6" y="46" transform="matrix(0.1319 -0.9913 0.9913 0.1319 22.9539 147.4318)" class="st0" width="2.1" height="29.3"/>
		<rect x="81" y="49" transform="matrix(0.9914 -0.1305 0.1305 0.9914 -5.7134 12.9109)" class="st0" width="29.3" height="2.1"/>
		
			<rect x="78.2" y="38.7" transform="matrix(0.9239 -0.3827 0.3827 0.9239 -8.1495 38.5608)" class="st0" width="29.3" height="2.1"/>
		
			<rect x="72.9" y="29.5" transform="matrix(0.7934 -0.6088 0.6088 0.7934 -0.5177 59.6134)" class="st0" width="29.3" height="2.1"/>
		<rect x="65.4" y="22" transform="matrix(0.6088 -0.7934 0.7934 0.6088 13.0233 72.5336)" class="st0" width="29.3" height="2.1"/>
		
			<rect x="56.2" y="16.7" transform="matrix(0.3827 -0.9239 0.9239 0.3827 27.3264 76.438)" class="st0" width="29.3" height="2.1"/>
		<rect x="46" y="13.9" transform="matrix(0.1305 -0.9914 0.9914 0.1305 37.8962 73.1841)" class="st0" width="29.3" height="2.1"/>
	</g>
</g>
</svg>
