<?xml version="1.0" encoding="utf-8"?>
<!-- Generator: Adobe Illustrator 23.0.6, SVG Export Plug-In . SVG Version: 6.00 Build 0)  -->
<svg version="1.1" id="Layer_1" xmlns="http://www.w3.org/2000/svg" xmlns:xlink="http://www.w3.org/1999/xlink" x="0px" y="0px"
	 viewBox="0 0 115 116.6" style="enable-background:new 0 0 115 116.6;" xml:space="preserve">
<style type="text/css">
	.st0{fill:#FFFFFF;}
</style>
<g id="Layer_2_00000022533246446413374540000016509647587853766034_">
	<g id="_Layer_">
		<path class="st0" d="M0,68.3l10-1.7c0.1,0.5,0.2,0.9,0.3,1.4L5,69v0.2l5.3-1.1c0.1,0.5,0.2,1,0.3,1.4l-5.2,1.3V71l5.2-1.3
			c0.1,0.5,0.3,1,0.4,1.4l-5.1,1.5L6,72.8l5.2-1.5c0.1,0.5,0.3,0.9,0.4,1.4l-5.1,1.6l0.1,0.2l5.1-1.6c0.1,0.4,0.3,0.9,0.4,1.3l0,0
			v0.1L4.7,77l0.1,0.2l7.5-2.7c0.2,0.5,0.3,0.9,0.5,1.4l-5,2l0.1,0.2l5-2c0.2,0.5,0.4,0.9,0.6,1.4l-4.9,2.2L8.5,80l4.9-2.2
			c0.2,0.4,0.4,0.9,0.6,1.3l-4.8,2.3l0.1,0.2l4.8-2.3c0.2,0.4,0.4,0.9,0.7,1.3l-4.7,2.5l0.1,0.2l4.7-2.5c0.2,0.4,0.4,0.8,0.6,1.2
			l-8.8,5l0.1,0.2l8.8-5c0.1,0.2,0.3,0.5,0.4,0.7l0.3,0.5l-4.6,2.8l0.1,0.2l4.6-2.8c0.3,0.4,0.5,0.8,0.8,1.2l-4.5,3l0.1,0.2l4.5-3
			c0.3,0.4,0.5,0.8,0.8,1.2l-4.4,3.1l0.1,0.2l4.4-3.1c0.3,0.4,0.6,0.8,0.9,1.2L15,91l0.1,0.2l4.2-3.3l0.9,1.1l-6.1,5.1l0.1,0.2
			l6.1-5.1c0.3,0.4,0.6,0.8,1,1.1l-4,3.6l0.1,0.2l4-3.6l0.1,0.1c0.3,0.3,0.6,0.7,0.9,1l-3.9,3.7l0.1,0.2l3.9-3.7
			c0.3,0.3,0.7,0.7,1,1L20,96.6l0.2,0.2l3.7-3.8c0.4,0.3,0.7,0.7,1.1,1l-3.6,4l0.2,0.2l3.6-4c0.3,0.3,0.7,0.6,1,0.9l-6.5,7.7
			l0.2,0.1l6.5-7.7c0.4,0.3,0.7,0.6,1.1,0.9l-3.3,4.2l0.2,0.1l3.3-4.2c0.4,0.3,0.8,0.6,1.2,0.9l-3.2,4.3l0.2,0.1l3.3-4.3
			c0.4,0.3,0.8,0.6,1.2,0.9l-3,4.4l0.2,0.1l3-4.4c0.4,0.3,0.8,0.6,1.2,0.8l-2.9,4.5l0.2,0.1l2.9-4.5c0.4,0.3,0.8,0.5,1.3,0.8l-4,6.8
			l0.2,0.1l4-6.8c0.4,0.3,0.9,0.5,1.3,0.7l-2.6,4.7l0.2,0.1l2.5-4.7c0.4,0.2,0.9,0.5,1.3,0.7l-2.4,4.8l0.2,0.1l2.4-4.8
			c0.2,0.1,0.4,0.2,0.6,0.3l0.8,0.4l-2.2,4.9l0.2,0.1l2.2-4.9l1.4,0.6l-2,5l0.2,0.1l2-5l1.3,0.5l-3.6,9.4l0.2,0.1l3.5-9.4l1,0.3
			l-1.7,5.1l0.2,0.1l1.7-5.1l1.4,0.4l-1.5,5.1l0.2,0.1l1.5-5.2l1.4,0.4l-1.3,5.2l0.2,0.1l1.3-5.2l1.4,0.3l-1.2,5.2H46l1.2-5.2
			c0.5,0.1,1,0.2,1.5,0.3l-1.4,7.8h0.2l1.4-7.8c0.5,0.1,1,0.2,1.5,0.2l-0.8,5.3h0.2l0.8-5.3l1.5,0.2l-0.6,5.3h0.2l0.6-5.3
			c0.5,0.1,1,0.1,1.5,0.1l-0.4,5.3h0.2l0.4-5.3l1.1,0.1h0.4l-0.2,5.3h0.2l0.2-5.3H57l-0.1,10.1h0.2l0.1-10.1h1.4l0.1,5.4h0.2
			l-0.1-5.4c0.5,0,1,0,1.5-0.1l0.3,5.3h0.2l-0.3-5.4l1.5-0.1l0.5,5.3h0.2l-0.5-5.3l1.5-0.2l0.7,5.3h0.2l-0.7-5.3l0.6-0.1l0.9-0.1
			l1.3,7.8h0.2l-1.3-7.8c0.5-0.1,1-0.2,1.4-0.3l1.1,5.3h0.2l-1.1-5.3c0.5-0.1,1-0.2,1.4-0.3l1.3,5.2l0.2-0.1l-1.3-5.2l1.4-0.4
			l1.4,5.2l0.2-0.1l-1.4-5.2l1.4-0.4l1.6,5.1l0.2-0.1l-1.6-5.1c0.4-0.1,0.8-0.3,1.3-0.4l3.4,9.5l0.2-0.1l-3.4-9.5l1.3-0.5l2,5
			l0.2-0.1l-2-5c0.5-0.2,0.9-0.4,1.4-0.6l2.1,4.9l0.2-0.1l-2.1-4.9l1.3-0.6l2.3,4.8l0.2-0.1l-2.3-4.8c0.4-0.2,0.9-0.4,1.3-0.7
			l2.5,4.8l0.2-0.1l-2.5-4.7l1.3-0.7l3.9,6.9l0.2-0.1l-3.9-6.9l0.9-0.5l0.4-0.2l2.8,4.6l0.2-0.1L82.6,99c0.4-0.3,0.8-0.5,1.2-0.8
			l3,4.5l0.2-0.1l-3-4.5l1.2-0.8l3.1,4.4l0.2-0.1l-3.1-4.4l1.2-0.9l3.2,4.2l0.2-0.1l-3-3.9l1-0.8l6.4,7.8l0.2-0.1l-6.4-7.8
			c0.4-0.3,0.7-0.6,1.1-0.9l3.5,4l0.2-0.1l-3.6-4l0.4-0.3l0.7-0.7l3.7,3.9l0.2-0.2l-3.7-3.9c0.3-0.3,0.7-0.7,1-1l3.9,3.7l0.2-0.2
			L92,92.1c0.3-0.3,0.7-0.7,1-1.1l4,3.6l0.1-0.2l-4-3.6l1-1.1l6,5.2l0.1-0.2l-6-5.2c0.3-0.4,0.6-0.8,0.9-1.1l4.2,3.3l0.1-0.2
			l-4.2-3.3l0.9-1.2l4.3,3.2l0.1-0.2l-4.3-3.2c0.3-0.4,0.6-0.8,0.9-1.2l4.4,3l0.1-0.2l-4.4-3l0.8-1.2l4.5,2.9l0.1-0.2L98.1,84
			c0.2-0.4,0.5-0.8,0.7-1.1l8.7,5.1l0.1-0.2l-8.6-5c0.2-0.4,0.5-0.8,0.7-1.2l4.7,2.6l0.1-0.2l-4.7-2.6c0.2-0.4,0.5-0.9,0.7-1.3
			l4.8,2.4l0.1-0.2l-4.8-2.4L101,79l0.2-0.5l4.9,2.2l0.1-0.2l-4.9-2.2c0.2-0.4,0.4-0.9,0.6-1.3l5,2.1l0.1-0.2l-5-2.1
			c0.2-0.4,0.4-0.9,0.6-1.4l7.4,2.8l0-0.2l-7.4-2.8c0.2-0.5,0.3-0.9,0.5-1.4l5.1,1.7l0.1-0.2l-5.1-1.7c0.2-0.5,0.3-0.9,0.4-1.4
			l5.2,1.5l0.1-0.2l-5.1-1.5c0.1-0.5,0.3-1,0.4-1.4l5.2,1.4l0.1-0.2l-5.2-1.3c0.1-0.5,0.2-1,0.3-1.4l5.2,1.2l0.1-0.2l-5.2-1.2
			c0.1-0.4,0.2-0.9,0.3-1.3l9.9,1.9v-0.2l-9.9-1.9c0.1-0.5,0.2-0.9,0.2-1.4l5.3,0.8v-0.2l-5.3-0.8c0.1-0.5,0.1-1,0.2-1.5l5.3,0.6
			v-0.2l-5.3-0.6l0.2-1.5l5.3,0.5v-0.2l-5.3-0.5c0-0.5,0.1-0.9,0.1-1.4v-0.1L111,61v-0.2l-5.4-0.3c0-0.5,0-1,0-1.5l7.9,0.1v-0.2
			l-7.9-0.1c0-0.5,0-1,0-1.5l5.4-0.1V57l-5.4,0.1c0-0.5,0-1-0.1-1.5l5.3-0.3v-0.2l-5.3,0.3c0-0.5-0.1-1-0.1-1.5l5.3-0.5v-0.2
			l-5.3,0.5c0-0.5-0.1-1-0.2-1.5l5.3-0.7v-0.2l-5.3,0.7l-0.1-0.7c0-0.2-0.1-0.4-0.1-0.6l10-1.6v-0.2l-10,1.6
			c-0.1-0.5-0.2-0.9-0.3-1.4l5.3-1v-0.2l-5.3,1c-0.1-0.5-0.2-1-0.3-1.5l5.2-1.2V46l-5.2,1.2c-0.1-0.5-0.2-1-0.4-1.4l5.2-1.4
			l-0.1-0.2l-5.3,1.4c-0.1-0.5-0.3-1-0.4-1.4l5.1-1.6l-0.1-0.2l-5.1,1.6c-0.1-0.5-0.3-0.9-0.5-1.4l7.5-2.6l-0.1-0.2l-7.5,2.6
			l-0.1-0.2l-0.4-1.2l5-1.9l-0.1-0.2l-5,1.9c-0.2-0.5-0.4-0.9-0.6-1.4l4.9-2.1l-0.1-0.2l-4.9,2.1c-0.2-0.5-0.4-0.9-0.6-1.3l4.8-2.3
			l-0.1-0.2l-4.9,2.3c-0.2-0.5-0.4-0.9-0.7-1.3l4.8-2.5l-0.1-0.2l-4.8,2.5c-0.2-0.4-0.4-0.8-0.6-1.2l8.8-4.9l-0.1-0.2l-8.8,4.9
			l-0.6-1.1l-0.1-0.1l4.6-2.8l-0.1-0.2l-4.6,2.8c-0.3-0.4-0.5-0.8-0.8-1.3l4.5-2.9l-0.1-0.1L97.4,32L97,30.6l4.4-3.1l-0.1-0.2
			l-4.4,3.1c-0.3-0.4-0.6-0.8-0.9-1.2l4.3-3.3l-0.1-0.2L95.9,29c-0.3-0.4-0.6-0.8-0.9-1.2l6.1-5l-0.1-0.2l-6.1,5
			c-0.3-0.4-0.6-0.8-1-1.1l4-3.5l-0.2-0.2l-4,3.5L93.3,26c-0.2-0.2-0.4-0.4-0.6-0.6l3.9-3.7l-0.2-0.2l-3.9,3.7c-0.3-0.4-0.7-0.7-1-1
			l3.8-3.8l-0.2-0.2L91.4,24l-1.1-1l3.7-4l-0.2-0.1l-3.6,3.9c-0.3-0.3-0.7-0.6-1-0.9l6.6-7.6l-0.2-0.1L89,21.8l-1.1-0.9l3.4-4.2
			l-0.2-0.1l-3.4,4.2l-1.2-0.9l3.2-4.3l-0.2-0.1l-3.2,4.3l-1.2-0.9l3.1-4.4L88,14.4l-3,4.3l-1.2-0.8l2.9-4.5l-0.2-0.1l-2.9,4.5
			c-0.4-0.3-0.8-0.5-1.3-0.8l4.1-6.8l-0.2-0.1l-4.1,6.8c-0.4-0.3-0.8-0.5-1.3-0.7l2.6-4.7l-0.2-0.1L80.7,16
			c-0.4-0.2-0.9-0.5-1.3-0.7l2.4-4.8l-0.2-0.1l-2.4,4.8c-0.3-0.2-0.6-0.3-1-0.5l-0.4-0.2l2.3-4.9l-0.2-0.1l-2.3,4.9
			c-0.4-0.2-0.9-0.4-1.3-0.6L78.4,9l-0.2-0.1l-2.1,4.9l-1.2-0.5l3.6-9.4l-0.2-0.1l-3.6,9.4l-1.3-0.5l1.8-5.1L75,7.5l-1.8,5.1
			c-0.5-0.2-0.9-0.3-1.4-0.5L73.4,7l-0.3,0l-1.6,5.1l-1.4-0.4l1.4-5.2l-0.2-0.1l-1.4,5.2l-1.4-0.4L69.7,6h-0.2l-1.2,5.2L66.8,11
			l1.5-7.8H68L66.5,11c-0.5-0.1-1-0.2-1.5-0.3l0.8-5.3h-0.2l-0.8,5.3l-1.5-0.2L64,5.2h-0.2l-0.7,5.3l-1.5-0.2L62.2,5L62,4.9
			l-0.5,5.4c-0.5-0.1-1-0.1-1.5-0.1l0.3-5.4h-0.2l-0.3,5.4h-1.3L58.7,0h-0.2l-0.2,10.1h-1.4l-0.1-5.4h-0.2l0.1,5.4l-1.5,0.1
			l-0.3-5.4h-0.2l0.3,5.4c-0.5,0-1,0-1.5,0.1L53,4.9h-0.2l0.5,5.4l-1.5,0.1l-0.7-5.3h-0.2l0.7,5.3l-1,0.1l-0.4,0.1l-1.3-7.8h-0.2
			l1.2,7.8c-0.5,0.1-1,0.2-1.5,0.3l-1-5.3h-0.2l1,5.3c-0.5,0.1-1,0.2-1.4,0.3L45.6,6h-0.2l1.2,5.2c-0.5,0.1-1,0.2-1.4,0.4l-1.4-5.2
			l-0.2,0.1l1.4,5.2l-1.4,0.4L41.9,7l-0.2,0.1l1.6,5.1l-1.4,0.5l-3.3-9.5l-0.2,0.1l3.3,9.5l-0.3,0.1V13l0,0v-0.1L41.1,13l-3.5-9.5
			l-0.2,0.1l3.5,9.5c-0.4,0.2-0.9,0.3-1.3,0.5l-2-5l-0.2,0.1l2,5c-0.5,0.2-0.9,0.4-1.4,0.6l-2.2-4.9l-0.2,0.1l2.2,4.9
			c-0.5,0.2-0.9,0.4-1.3,0.6l-2.3-4.8L34,10.3l2.4,4.8c-0.5,0.2-0.9,0.4-1.3,0.7L32.4,11l-0.2,0.1l2.5,4.7l-1.3,0.7l-4-6.9l-0.2,0.1
			l4,6.9l-0.5,0.3c-0.3,0.1-0.5,0.3-0.8,0.5l-2.8-4.5L28.9,13l2.8,4.5c-0.4,0.3-0.8,0.5-1.2,0.8l-3-4.4L27.4,14l3,4.4l-1.2,0.9
			L26,14.9L25.8,15l3.2,4.3l-1.2,0.9L24.5,16l-0.2,0.1l3.3,4.2c-0.4,0.3-0.7,0.5-1,0.8l-6.5-7.7L20,13.7l6.5,7.7
			c-0.4,0.3-0.7,0.6-1.1,0.9l-3.6-4l-0.2,0.1l3.6,4l0,0l-1,1l-3.7-3.9l-0.2,0.1l3.7,3.9c-0.4,0.4-0.7,0.7-1,1L19,21l-0.1,0.2
			l3.9,3.7c-0.3,0.4-0.7,0.7-1,1.1l-4-3.6l-0.1,0.2l4,3.6c-0.3,0.4-0.6,0.7-1,1.1l-6.1-5.1l-0.1,0.2l6.1,5.1
			c-0.3,0.4-0.6,0.8-0.9,1.1l-4.2-3.3l-0.1,0.2l4.2,3.3c-0.3,0.4-0.6,0.8-0.9,1.2l-4.4-3.1L14,27l4.3,3.1c-0.3,0.4-0.6,0.8-0.8,1.2
			l-4.5-3l-0.1,0.2l4.4,3l-0.8,1.2L12,29.9V30l4.5,2.8L15.8,34l-8.7-5L7,29.2l8.7,5.1c-0.2,0.4-0.5,0.8-0.7,1.2L10.3,33l-0.1,0.2
			l4.7,2.5c-0.2,0.4-0.5,0.9-0.7,1.3l-4.8-2.4l-0.1,0.2l4.8,2.4c-0.1,0.2-0.1,0.3-0.2,0.5l-0.4,0.9l-4.9-2.2l-0.1,0.2l4.9,2.2
			c-0.2,0.5-0.4,0.9-0.6,1.4l-5-2l-0.1,0.2l5,2c-0.2,0.5-0.4,0.9-0.5,1.4l-7.4-2.7l-0.1,0.2l7.4,2.7c-0.2,0.5-0.3,0.9-0.5,1.4
			l-5.1-1.7l-0.1,0.2l5.1,1.7c-0.1,0.5-0.3,0.9-0.4,1.4L6,43.4v0.2l5.1,1.5c-0.1,0.5-0.3,1-0.4,1.4l-5.2-1.3v0.2l5.2,1.3
			c-0.1,0.5-0.2,1-0.3,1.4L5.1,47v0.2l5.3,1.1c-0.1,0.4-0.2,0.9-0.3,1.3l-10-1.8V48l9.9,1.8c-0.1,0.5-0.2,0.9-0.2,1.4l-5.3-0.8v0.2
			l5.3,0.8c-0.1,0.5-0.1,1-0.2,1.5l-5.3-0.6v0.2l5.3,0.6c-0.1,0.5-0.1,1-0.1,1.5L4,54.3v0.2l5.3,0.4l-0.1,1c0,0.2,0,0.3,0,0.5
			l-5.4-0.2v0.2l5.4,0.2c0,0.5,0,1,0,1.5L1.3,58v0.2h7.9c0,0.5,0,1,0,1.5l-5.4,0.2v0.2L9.3,60c0,0.5,0,1,0.1,1.5L4,61.8V62l5.4-0.4
			c0,0.5,0.1,1,0.1,1.5l-5.3,0.5v0.2l5.3-0.5c0.1,0.5,0.1,1,0.2,1.5l-5.3,0.8v0.2L9.7,65v0.2c0.1,0.4,0.1,0.7,0.2,1.1L0,68.1V68.3z
			 M12.4,74.4l8.9-3.2c1.3,3.8,3.2,7.3,5.6,10.4l-7.4,5.7C16.4,83.5,14,79.1,12.4,74.4z M38.3,59.6v0.2c0,0.2,0,0.4,0,0.6v0.2
			c0,0.4,0.1,0.7,0.2,1.1c0,0.1,0,0.2,0,0.3l0.1,0.4l0.1,0.4c0,0.1,0.1,0.3,0.1,0.4s0.1,0.3,0.1,0.5L39,64c0.1,0.3,0.2,0.5,0.2,0.8
			L38.5,65c-0.7-1.9-1-4-1.1-6h0.7l0,0C38.2,59.1,38.2,59.3,38.3,59.6z M80.9,57.6h-0.7c-0.1-2.3-0.5-4.6-1.2-6.8l0.7-0.2
			C80.4,52.8,80.9,55.2,80.9,57.6L80.9,57.6z M79.8,50.5l0.7-0.2c0.8,2.4,1.3,4.8,1.4,7.3h-0.7C81,55.1,80.6,52.8,79.8,50.5
			L79.8,50.5z M80.1,57.6h-0.7c-0.1-2.2-0.5-4.4-1.2-6.5l0.7-0.2C79.6,53,80,55.3,80.1,57.6L80.1,57.6z M79.2,57.6h-0.7
			c-0.1-2.1-0.5-4.3-1.2-6.3l0.7-0.2C78.7,53.2,79.1,55.4,79.2,57.6L79.2,57.6z M78.3,57.6h-0.7c-0.1-2-0.5-4.1-1.1-6l0.7-0.2
			C77.9,53.4,78.3,55.5,78.3,57.6L78.3,57.6z M77.4,57.6h-0.7c-0.1-1.9-0.4-3.8-1.1-5.6l0.7-0.2C77,53.7,77.4,55.7,77.4,57.6
			L77.4,57.6z M64.8,78.7L64.6,78c2-0.7,3.9-1.7,5.6-3l0.4,0.6C68.9,76.9,66.9,78,64.8,78.7z M70.8,75.7l0.4,0.6
			c-1.8,1.4-3.8,2.5-6,3.3L65,78.9C67,78.2,69,77.1,70.8,75.7L70.8,75.7z M43.1,39.8l0.4,0.5c-1.8,1.4-3.4,3.1-4.8,5l-0.6-0.4
			C39.6,43,41.2,41.2,43.1,39.8z M38,44.8l-0.5-0.4c1.4-2.1,3.1-3.9,5.1-5.4l0.4,0.5C41,41.1,39.4,42.9,38,44.8z M43.6,40.4L44,41
			c-1.8,1.4-3.3,3-4.6,4.8l-0.6-0.4C40.2,43.6,41.8,41.9,43.6,40.4L43.6,40.4z M44.1,41.1l0.4,0.5c-1.7,1.3-3.2,2.9-4.4,4.6L39.6,46
			C40.9,44.2,42.4,42.5,44.1,41.1L44.1,41.1z M44.7,41.8l0.4,0.6c-1.6,1.3-3,2.8-4.2,4.5l-0.6-0.4C41.6,44.7,43,43.1,44.7,41.8
			L44.7,41.8z M45.2,42.5l0.4,0.5c-1.5,1.2-2.9,2.6-4,4.3l-0.5-0.4C42.2,45.3,43.6,43.8,45.2,42.5L45.2,42.5z M63.7,75.4l-0.2-0.6
			c1.7-0.6,3.3-1.5,4.7-2.5l0.4,0.5C67,73.9,65.4,74.8,63.7,75.4z M68.7,72.9l0.4,0.5c-1.5,1.2-3.3,2.1-5.1,2.8l-0.2-0.7
			C65.5,75,67.1,74.1,68.7,72.9L68.7,72.9z M72.5,62.6l-0.7-0.2c0.4-1.4,0.6-2.9,0.5-4.5H73C73.1,59.6,72.9,61.1,72.5,62.6
			L72.5,62.6z M73.3,58H74c0,1.7-0.2,3.3-0.7,4.9l-0.7-0.2C73.1,61.2,73.3,59.6,73.3,58z M71.7,62.4L71,62.2
			c0.4-1.4,0.6-2.8,0.5-4.2h0.7C72.3,59.5,72.1,61,71.7,62.4z M58,79.1c-2.1,0-4.2-0.2-6.3-0.8l0.2-0.7c2,0.6,4,0.8,6.1,0.8l0,0
			V79.1z M51.5,79.1l0.2-0.6c2.1,0.6,4.2,0.9,6.3,0.8V80C55.8,80.1,53.5,79.8,51.5,79.1L51.5,79.1z M58,80.1v0.7
			c-2.3,0-4.6-0.3-6.8-0.9l0.2-0.7C53.5,79.9,55.8,80.2,58,80.1L58,80.1z M51.9,77.5l0.2-0.7l0.6,0.2h0.1l0.8,0.2h0.2l0.6,0.1h0.3
			l0.6,0.1h0.3l0.8,0.1h0.2h0.6h0.6V78C55.9,78.2,53.9,78,51.9,77.5z M57.5,77.4h-0.3c-0.3,0-0.5,0-0.8,0h-0.2h-0.6h-0.3l-0.6-0.1
			h-0.3L53.8,77h-0.2c-0.3,0-0.5-0.1-0.8-0.2l-0.3-0.1l-0.4-0.1l0.2-0.7c1.8,0.5,3.7,0.8,5.5,0.7v0.7L57.5,77.4z M55.8,59
			c0.1,0.1,0.1,0.2,0.2,0.3l-0.6,0.4c-0.1-0.2-0.2-0.4-0.3-0.5L55.8,59z M55,59.1c-0.1-0.2-0.1-0.4-0.1-0.6h0.7c0,0.1,0,0.3,0.1,0.4
			L55,59.1z M57.3,57.5L57.3,57.5l0.1,0.2L57.3,57.5z M57.4,58.9v0.2h-0.1L57.4,58.9z M57.4,59.3V60c-0.1,0-0.2,0-0.3,0L57.4,59.3
			L57.4,59.3z M60,57.3c-0.1-0.2-0.2-0.4-0.3-0.6l0.5-0.4c0.2,0.2,0.3,0.5,0.4,0.8L60,57.3z M60.7,57.2c0.1,0.3,0.1,0.6,0.2,0.9
			h-0.7c0-0.2-0.1-0.4-0.1-0.7L60.7,57.2z M56.6,58.7L56.6,58.7l-0.5,0.5C56,59.1,56,59,55.9,58.9L56.6,58.7z M55.9,58.8
			c0-0.1,0-0.2-0.1-0.3h0.7v0.1L55.9,58.8z M59.2,57.6c0-0.1-0.1-0.2-0.2-0.3l0.6-0.4c0.1,0.2,0.2,0.3,0.3,0.5L59.2,57.6z
			 M59.9,57.5c0.1,0.2,0.1,0.4,0.1,0.6h-0.7c0-0.1,0-0.3-0.1-0.4L59.9,57.5z M56.8,60.9C57,61,57.2,61,57.5,61v0.7
			c-0.3,0-0.6,0-0.9-0.1L56.8,60.9z M56.7,60.7c-0.2-0.1-0.4-0.2-0.6-0.3l0.4-0.6c0.1,0.1,0.2,0.1,0.4,0.2L56.7,60.7z M58.3,57.9
			L58.3,57.9l0.5-0.5c0.1,0.1,0.1,0.2,0.2,0.3L58.3,57.9z M59.1,57.8c0,0.1,0.1,0.2,0.1,0.3h-0.7V58L59.1,57.8z M58.3,56.8l-0.4,0.6
			h-0.1l0.2-0.7C58.1,56.7,58.2,56.8,58.3,56.8L58.3,56.8z M58.1,56.5l0.2-0.7c0.2,0.1,0.4,0.1,0.6,0.3l-0.4,0.6
			C58.3,56.6,58.2,56.6,58.1,56.5L58.1,56.5z M57.8,57.5l-0.1,0.2L57.8,57.5L57.8,57.5z M57.8,58.9L57.8,58.9l-0.1-0.2L57.8,58.9z
			 M57.8,57.8l0.1-0.2l0,0L57.8,57.8z M58.1,57.8L58.1,57.8L58,58L58.1,57.8z M58,58.7L58,58.7l-0.1-0.2L58,58.7z M58,58.5l0.2,0.1
			v0.1L58,58.5z M58.1,58.4h0.2v0.1L58.1,58.4z M58.1,58.2l0.2-0.1v0.1H58.1z M58.2,57.6L58.2,57.6L58.2,57.6l0.3-0.7
			c0.1,0.1,0.2,0.2,0.3,0.2L58.2,57.6z M58.6,56.8l0.4-0.6c0.2,0.1,0.3,0.3,0.5,0.4L59,57C58.8,57,58.7,56.9,58.6,56.8L58.6,56.8z
			 M58.9,56c-0.2-0.1-0.4-0.2-0.6-0.3l0.2-0.7c0.3,0.1,0.6,0.2,0.8,0.4L58.9,56z M58.4,54.8c-0.3-0.1-0.6-0.1-0.9-0.1V54
			c0.4,0,0.8,0,1.2,0.2L58.4,54.8z M57.5,54.8c0.3,0,0.6,0,0.9,0.1l-0.2,0.7c-0.2-0.1-0.4-0.1-0.7-0.1V54.8z M58.1,55.8l-0.2,0.7
			c-0.1,0-0.3,0-0.4,0v-0.7C57.7,55.8,57.9,55.8,58.1,55.8L58.1,55.8z M57.9,56.7l-0.2,0.7h-0.1v-0.7C57.7,56.6,57.8,56.7,57.9,56.7
			L57.9,56.7z M57.6,57.5l-0.1,0.2L57.6,57.5L57.6,57.5z M57.6,59.1L57.6,59.1l-0.1-0.2L57.6,59.1z M57.7,59.2l0.2,0.7
			c-0.1,0-0.2,0.1-0.3,0.1v-0.5L57.7,59.2L57.7,59.2z M57.9,59.2L57.9,59.2l0.5,0.5c-0.1,0.1-0.2,0.1-0.3,0.2L57.9,59.2z M58.5,59.9
			l0.4,0.6c-0.2,0.1-0.4,0.2-0.5,0.3L58.2,60C58.3,60,58.4,59.9,58.5,59.9L58.5,59.9z M58.1,59.1L58.1,59.1l0.7,0.3
			c-0.1,0.1-0.2,0.2-0.2,0.3L58.1,59.1z M58.3,58.8L58.3,58.8l0.8,0.1c0,0.1-0.1,0.2-0.2,0.3L58.3,58.8z M58.4,58.5L58.4,58.5
			l0.7-0.1c0,0.1,0,0.2,0,0.3L58.4,58.5z M59,56.2l0.4-0.6c0.2,0.2,0.5,0.4,0.7,0.6l-0.5,0.4C59.4,56.4,59.3,56.3,59,56.2L59,56.2z
			 M59.4,55.3c-0.3-0.2-0.6-0.3-0.8-0.4l0.2-0.7c0.4,0.1,0.7,0.3,1,0.5L59.4,55.3z M58.7,54c-0.4-0.1-0.8-0.2-1.2-0.2v-0.7
			c0.5,0,1,0.1,1.4,0.2L58.7,54z M57.5,60.8c-0.2,0-0.4,0-0.6-0.1l0.2-0.7c0.1,0,0.3,0,0.4,0L57.5,60.8z M56.9,59.8
			c-0.1,0-0.2-0.1-0.3-0.2L57,59h0.1L56.9,59.8z M57,58.8L57,58.8L57,58.8L57,58.8z M56.8,58.7L56.8,58.7l0.2-0.1L56.8,58.7z
			 M56.9,57.7L56.9,57.7l0.1,0.2L56.9,57.7z M57,58h-0.2v-0.1L57,58z M56.9,58.2h-0.2v-0.1L56.9,58.2z M56.9,58.4l-0.2,0.1v-0.1
			H56.9z M56.8,58.9L56.8,58.9l-0.3,0.7l-0.2-0.2L56.8,58.9z M56.4,59.7L56,60.3c-0.2-0.1-0.3-0.3-0.5-0.4l0.6-0.4
			C56.2,59.6,56.2,59.7,56.4,59.7L56.4,59.7z M56,60.5c0.2,0.1,0.4,0.2,0.6,0.3l-0.2,0.7c-0.3-0.1-0.6-0.2-0.8-0.4L56,60.5z
			 M56.5,61.7c0.3,0.1,0.6,0.1,0.9,0.1v0.7c-0.4,0-0.8-0.1-1.2-0.2L56.5,61.7z M57.5,62.7v0.7c-0.5,0-1-0.1-1.4-0.2l0.2-0.7
			C56.7,62.7,57.1,62.8,57.5,62.7L57.5,62.7z M57.5,63.6v0.6c-0.6,0-1.1-0.1-1.7-0.2l0.2-0.6C56.5,63.5,57,63.6,57.5,63.6L57.5,63.6
			z M57.5,64.4v0.7c-0.7,0-1.4-0.1-2-0.3l0.2-0.7C56.3,64.4,56.9,64.5,57.5,64.4L57.5,64.4z M57.5,65.3V66c-0.8,0-1.5-0.1-2.2-0.3
			l0.2-0.7C56.2,65.2,56.9,65.3,57.5,65.3L57.5,65.3z M57.5,66.2v0.7c-0.8,0-1.7-0.1-2.5-0.3l0.2-0.7C56,66.1,56.8,66.2,57.5,66.2
			L57.5,66.2z M57.5,60.1L57.5,60.1c0.1,0,0.3,0,0.4-0.1l0.2,0.7c-0.2,0.1-0.4,0.1-0.6,0.1L57.5,60.1z M58.2,60.8l0.2,0.7
			c-0.3,0.1-0.6,0.1-0.9,0.2V61C57.8,61,58.1,61,58.2,60.8L58.2,60.8z M58.5,61.6l0.2,0.7c-0.4,0.1-0.8,0.2-1.1,0.2V62v-0.2
			C57.9,61.8,58.3,61.8,58.5,61.6L58.5,61.6z M58.4,60.8c0.2-0.1,0.4-0.2,0.6-0.3l0.4,0.6c-0.2,0.2-0.5,0.3-0.8,0.4L58.4,60.8z
			 M58.6,59.6c0.1-0.1,0.2-0.2,0.3-0.3l0.6,0.4c-0.1,0.2-0.3,0.3-0.4,0.4L58.6,59.6z M59,59.2c0.1-0.1,0.1-0.2,0.2-0.4l0.7,0.2
			c-0.1,0.2-0.2,0.4-0.3,0.6L59,59.2z M59.2,58.7c0-0.1,0-0.3,0-0.4h0.7c0,0.2,0,0.4-0.1,0.6L59.2,58.7z M59.5,55.3l0.4-0.6
			c0.3,0.2,0.6,0.5,0.8,0.8l0,0L60.2,56C60,55.7,59.8,55.6,59.5,55.3L59.5,55.3z M59.9,54.5c-0.3-0.2-0.7-0.4-1.1-0.5l0.2-0.7
			c0.5,0.1,0.9,0.4,1.3,0.6L59.9,54.5z M58.9,53.1c-0.5-0.1-1-0.2-1.5-0.2v-0.6c0.6,0,1.1,0.1,1.7,0.2L58.9,53.1z M57.2,59L57.2,59
			l0.1-0.2L57.2,59z M57.1,57.6L57.1,57.6l0.1,0.2L57.1,57.6z M57,57.5l-0.4-0.6c0.1-0.1,0.2-0.1,0.3-0.2L57,57.5L57,57.5z
			 M56.9,57.6L56.9,57.6l-0.7-0.3l0.2-0.3L56.9,57.6z M56.7,57.8L56.7,57.8L56,57.7c0-0.1,0.1-0.2,0.2-0.3L56.7,57.8z M56.6,58.1
			L56.6,58.1l-0.7,0.1c0-0.1,0-0.2,0-0.3L56.6,58.1z M55.9,60.5L55.5,61c-0.2-0.2-0.5-0.4-0.7-0.6l0.5-0.4
			C55.5,60.2,55.7,60.4,55.9,60.5L55.9,60.5z M55.6,61.3c0.3,0.2,0.5,0.3,0.8,0.4l-0.2,0.7c-0.4-0.1-0.7-0.3-1-0.5L55.6,61.3z
			 M56.2,62.6L56,63.2c-0.5-0.1-0.9-0.4-1.3-0.6L55,62C55.3,62.2,55.7,62.4,56.2,62.6L56.2,62.6z M55.9,63.4L55.7,64
			c-0.5-0.2-1.1-0.4-1.5-0.7l0.4-0.5C55,63,55.4,63.2,55.9,63.4L55.9,63.4z M55.7,64.2l-0.2,0.7c-0.6-0.2-1.3-0.5-1.8-0.9l0.4-0.6
			C54.5,63.8,55.1,64,55.7,64.2L55.7,64.2z M55.4,65l-0.2,0.7c-0.7-0.2-1.4-0.6-2-1l0.4-0.6C54.2,64.5,54.8,64.8,55.4,65L55.4,65z
			 M55.2,65.9L55,66.6c-0.8-0.2-1.6-0.6-2.3-1.1l0.4-0.6C53.7,65.3,54.4,65.6,55.2,65.9L55.2,65.9z M55.1,66.8
			c0.8,0.2,1.7,0.3,2.6,0.3v0.7h-0.6h-0.3h-0.4h-0.3l-0.4-0.1l-0.3-0.1l-0.4,0h-0.1L55.1,66.8z M55,67.6l0.4,0.1l0.3,0.1l0.4,0.1
			h0.3h0.4h0.3h0.5v0.7c-1,0-2-0.1-3-0.4l0.2-0.7L55,67.6z M57.7,68.8v0.7c-1.1,0-2.2-0.1-3.3-0.4l0.2-0.7
			C55.6,68.7,56.6,68.9,57.7,68.8L57.7,68.8z M57.7,69.7v0.7c-1.2,0-2.4-0.1-3.6-0.4l0.2-0.7C55.4,69.6,56.6,69.8,57.7,69.7
			L57.7,69.7z M57.7,63.2v-0.5c0.4,0,0.8-0.1,1.2-0.2l0.2,0.7c-0.5,0.2-0.9,0.2-1.4,0.3V63.2z M58.8,61.7c0.3-0.1,0.6-0.3,0.8-0.5
			l0.4,0.5c-0.3,0.2-0.6,0.4-1,0.6L58.8,61.7z M59.2,60.4c0.2-0.1,0.3-0.3,0.5-0.5l0.6,0.4c-0.2,0.2-0.4,0.5-0.6,0.7L59.2,60.4z
			 M59.8,59.8c0.1-0.2,0.2-0.4,0.3-0.6l0.7,0.2c-0.1,0.3-0.2,0.6-0.4,0.8L59.8,59.8z M60.1,59c0.1-0.2,0.1-0.4,0.1-0.7h0.7
			c0,0.3,0,0.6-0.1,0.9L60.1,59z M60.9,57c-0.1-0.3-0.3-0.6-0.5-0.8l0.6-0.4c0.2,0.3,0.4,0.6,0.6,1L60.9,57z M61,55.5
			c-0.3-0.3-0.6-0.6-0.9-0.8l0.4-0.6c0.4,0.3,0.7,0.6,1,1L61,55.5L61,55.5z M60.5,53.8c-0.4-0.3-0.9-0.5-1.3-0.6l0.2-0.6
			c0.5,0.2,1.1,0.4,1.5,0.7L60.5,53.8z M59.2,52.4c-0.6-0.2-1.1-0.2-1.7-0.2v-0.7c0.7,0,1.3,0.1,2,0.3L59.2,52.4z M57.4,51.3v-0.7
			c0.8,0,1.5,0.1,2.2,0.3l-0.2,0.7C58.8,51.3,58.1,51.2,57.4,51.3L57.4,51.3z M57.4,57.3L57.4,57.3L57,56.7c0.1,0,0.2-0.1,0.3-0.1
			L57.4,57.3z M57,56.5l-0.2-0.7c0.2-0.1,0.4-0.1,0.6-0.1v0.7C57.2,56.5,57.1,56.5,57,56.5z M56.8,56.6c-0.1,0-0.2,0.1-0.3,0.2
			L56,56.2c0.2-0.1,0.3-0.2,0.5-0.3L56.8,56.6z M56.3,56.9c-0.1,0.1-0.2,0.2-0.3,0.3l-0.6-0.4c0.1-0.2,0.3-0.3,0.4-0.4L56.3,56.9z
			 M56,57.3c-0.1,0.1-0.1,0.2-0.2,0.4l-0.7-0.2c0.1-0.2,0.1-0.4,0.3-0.6L56,57.3z M55.7,57.9c0,0.1,0,0.3,0,0.4H55
			c0-0.2,0-0.4,0.1-0.6L55.7,57.9z M55,59.3c0.1,0.2,0.2,0.4,0.3,0.6l-0.6,0.4c-0.2-0.2-0.3-0.5-0.4-0.8L55,59.3z M55.4,61.2
			L55,61.8c-0.3-0.2-0.6-0.5-0.8-0.8l0.6-0.4C54.9,60.8,55.1,61,55.4,61.2L55.4,61.2z M54.9,61.9l-0.4,0.6c-0.4-0.3-0.7-0.6-1-1
			l0.6-0.4C54.3,61.4,54.6,61.7,54.9,61.9L54.9,61.9z M54.4,62.7L54,63.2c-0.5-0.3-0.9-0.7-1.3-1.2l0.5-0.4
			C53.6,62,54,62.4,54.4,62.7L54.4,62.7z M54,63.3l-0.4,0.6c-0.5-0.4-1-0.8-1.4-1.4l0.6-0.4C53,62.6,53.5,63,54,63.3L54,63.3z
			 M53.5,64l-0.4,0.6c-0.6-0.4-1.2-0.9-1.6-1.5l0.6-0.4C52.4,63.2,52.9,63.7,53.5,64L53.5,64z M53,64.8l-0.4,0.6
			c-0.7-0.5-1.3-1.1-1.8-1.8l0.6-0.4C51.8,63.8,52.3,64.3,53,64.8L53,64.8z M52.6,65.6c0.7,0.5,1.5,0.9,2.3,1.1l-0.2,0.6l-0.3-0.1
			l-0.2-0.1L53.9,67h-0.2l-0.5-0.3L53,66.6l-0.3-0.2l-0.2-0.1l-0.2-0.2L52.6,65.6z M52.4,66.5l0.2,0.2l0.3,0.2l0.2,0.1l0.5,0.3
			l0.2,0.1l0.3,0.1l0.2,0.1l0.3,0.1l-0.2,0.7c-1-0.3-1.9-0.7-2.8-1.3l0.4-0.6L52.4,66.5z M54.4,68.4l-0.2,0.7
			c-1.1-0.3-2.1-0.8-3-1.4l0.4-0.6C52.5,67.6,53.4,68.1,54.4,68.4L54.4,68.4z M54.2,69.2L54,69.9c-1.2-0.4-2.3-0.9-3.3-1.6l0.4-0.6
			C52.1,68.4,53.1,68.9,54.2,69.2L54.2,69.2z M53.9,70.1l-0.2,0.7c-1.2-0.4-2.4-0.9-3.5-1.7l0.4-0.6C51.6,69.2,52.7,69.7,53.9,70.1
			L53.9,70.1z M54.1,70.1c1.2,0.3,2.4,0.5,3.6,0.5v0.1v0.7c-1.3,0-2.6-0.1-3.9-0.5L54.1,70.1z M57.7,63.6c0.5,0,1-0.1,1.5-0.3
			l0.2,0.6c-0.5,0.2-1.1,0.3-1.7,0.3V63.6z M59.1,62.5c0.4-0.1,0.7-0.3,1.1-0.6l0.4,0.5c-0.4,0.3-0.8,0.5-1.3,0.7L59.1,62.5z
			 M59.8,61.1c0.2-0.2,0.5-0.4,0.7-0.7l0.6,0.4c-0.2,0.3-0.5,0.6-0.8,0.8L59.8,61.1z M60.5,60.2c0.2-0.3,0.3-0.6,0.4-0.8l0.7,0.2
			c-0.1,0.4-0.3,0.7-0.5,1L60.5,60.2z M61,59.2c0.1-0.3,0.1-0.6,0.1-0.9h0.7c0,0.4,0,0.8-0.2,1.2L61,59.2z M61.1,58.1
			c0-0.3-0.1-0.6-0.2-0.9l0.7-0.2c0.1,0.4,0.2,0.7,0.2,1.1L61.1,58.1z M61.1,55.7l0.2-0.1l0.4-0.3c0.3,0.4,0.5,0.8,0.7,1.3l-0.7,0.2
			C61.5,56.3,61.3,56,61.1,55.7L61.1,55.7z M60.6,54l0.4-0.5c0.5,0.3,0.9,0.7,1.2,1.2h-0.1L61.7,55C61.4,54.6,61,54.2,60.6,54
			L60.6,54z M60.9,53.2c-0.5-0.3-1-0.6-1.6-0.8l0.2-0.7c0.6,0.2,1.2,0.5,1.8,0.8L60.9,53.2z M59.6,51.6l0.2-0.7c0.7,0.2,1.4,0.6,2,1
			l-0.4,0.6C60.8,52.1,60.2,51.8,59.6,51.6L59.6,51.6z M59.7,50.7c-0.7-0.2-1.5-0.3-2.3-0.3v-0.7c0.8,0,1.7,0.1,2.5,0.3L59.7,50.7z
			 M57.4,49.5v-0.7h0.1c0.1,0,0.3,0,0.4,0h0.3h0.4h0.3c0.1,0,0.2,0,0.3,0.1c0.1,0,0.3,0.1,0.4,0.1l0.4,0h0.2L60,49.6
			C59.1,49.5,58.2,49.4,57.4,49.5L57.4,49.5z M60,49l-0.3-0.1l-0.4-0.1l-0.4-0.1h-0.3h-0.4h-0.9V48c1,0,2,0.1,3,0.4l-0.2,0.7L60,49z
			 M57.3,54.9v0.7c-0.2,0-0.4,0.1-0.7,0.1L56.4,55C56.7,55,57,54.9,57.3,54.9L57.3,54.9z M56.5,55.8c-0.2,0.1-0.4,0.2-0.6,0.3
			l-0.4-0.5c0.2-0.2,0.5-0.3,0.8-0.4L56.5,55.8z M55.8,56.2c-0.2,0.1-0.3,0.3-0.5,0.5l-0.6-0.4c0.2-0.2,0.4-0.5,0.6-0.7L55.8,56.2z
			 M55.2,56.9c-0.1,0.2-0.2,0.4-0.3,0.6l-0.7-0.2c0.1-0.3,0.2-0.5,0.4-0.8L55.2,56.9z M54.9,57.7c-0.1,0.2-0.1,0.4-0.1,0.7h-0.7
			c0-0.3,0-0.6,0.1-0.9L54.9,57.7z M54.8,58.5c0,0.2,0.1,0.4,0.1,0.7l-0.7,0.2c-0.1-0.3-0.2-0.6-0.2-0.9H54.8z M54.1,59.6
			c0.1,0.3,0.3,0.6,0.5,0.8L54,60.9c-0.2-0.3-0.4-0.6-0.6-1L54.1,59.6z M53.4,59.7c-0.1-0.4-0.2-0.8-0.2-1.1h0.7
			c0,0.3,0.1,0.6,0.2,0.9L53.4,59.7z M53.9,61l-0.5,0.4c-0.3-0.4-0.5-0.8-0.7-1.3l0.7-0.2C53.5,60.3,53.6,60.7,53.9,61L53.9,61z
			 M53.2,61.5l-0.5,0.4c-0.3-0.5-0.6-1-0.8-1.5l0.6-0.2C52.7,60.7,52.9,61.1,53.2,61.5L53.2,61.5z M52.6,62L52,62.5
			c-0.4-0.5-0.8-1.1-1-1.8l0.7-0.2C51.9,61,52.2,61.5,52.6,62L52.6,62z M51.9,62.6L51.3,63c-0.5-0.6-0.8-1.3-1.1-2l0.7-0.2
			C51.1,61.4,51.4,62,51.9,62.6L51.9,62.6z M51.2,63.1l-0.6,0.4c-0.5-0.7-0.9-1.4-1.2-2.2L50,61C50.3,61.7,50.7,62.4,51.2,63.1
			L51.2,63.1z M52.4,65.6L52,66.1L51.9,66l-0.4-0.3l-0.1-0.1c-0.1-0.1-0.3-0.2-0.4-0.3l-0.1-0.1c-0.1-0.1-0.3-0.3-0.4-0.4v-0.1
			c-0.1-0.1-0.2-0.3-0.4-0.4L50,64.2l0.5-0.4C51.1,64.4,51.7,65,52.4,65.6L52.4,65.6z M50.3,64.8L50.3,64.8c0.1,0.2,0.3,0.3,0.4,0.4
			l0.1,0.1c0.1,0.1,0.3,0.3,0.4,0.4l0.1,0.1c0.1,0.1,0.3,0.2,0.4,0.3l0.1,0.1l-0.4,0.6c-0.8-0.6-1.6-1.3-2.2-2.1l0.6-0.4v0.1
			C50,64.5,50.2,64.6,50.3,64.8L50.3,64.8z M51.5,67l-0.4,0.6c-0.9-0.6-1.7-1.4-2.4-2.3l0.5-0.4C49.8,65.6,50.6,66.4,51.5,67
			L51.5,67z M51,67.7l-0.4,0.6c-1-0.7-1.9-1.5-2.6-2.5l0.6-0.4C49.2,66.3,50,67,51,67.7L51,67.7z M50.5,68.4L50.1,69
			c-1.1-0.7-2-1.7-2.8-2.7l0.6-0.4C48.6,66.9,49.4,67.7,50.5,68.4L50.5,68.4z M50,69.1l-0.4,0.6c-1.1-0.8-2.1-1.8-3-2.9l0.5-0.4
			C47.9,67.5,48.9,68.4,50,69.1L50,69.1z M50.1,69.2c1.1,0.7,2.3,1.3,3.6,1.7l-0.2,0.7c-1.3-0.4-2.6-1-3.8-1.8L50.1,69.2z M53.8,71
			c1.3,0.4,2.6,0.5,3.9,0.5v0.2v0.5c-1.4,0-2.8-0.2-4.1-0.6L53.8,71z M57.7,64.5c0.6,0,1.2-0.1,1.7-0.3l0.2,0.7
			c-0.6,0.2-1.3,0.3-2,0.4L57.7,64.5z M59.4,63.3c0.5-0.2,0.9-0.4,1.3-0.7l0.4,0.5c-0.5,0.3-1,0.6-1.5,0.8L59.4,63.3z M60.3,61.8
			c0.3-0.3,0.6-0.6,0.8-0.9l0.6,0.4c-0.3,0.4-0.6,0.7-1,1L60.3,61.8z M61.2,60.8c0.2-0.3,0.4-0.7,0.5-1.1l0.7,0.2
			c-0.1,0.5-0.4,0.9-0.6,1.3L61.2,60.8z M61.8,59.5c0.1-0.4,0.2-0.8,0.2-1.2h0.7c0,0.5-0.1,1-0.2,1.4L61.8,59.5z M62,58.1
			c0-0.4-0.1-0.8-0.2-1.2l0.7-0.2c0.2,0.5,0.2,0.9,0.3,1.4H62z M61.8,55.1l0.5-0.4c0.3,0.5,0.6,1,0.8,1.5l-0.6,0.2
			C62.3,55.9,62.1,55.5,61.8,55.1L61.8,55.1z M61,53.3l0.4-0.6c0.5,0.4,1,0.8,1.5,1.3l-0.4,0.3l-0.2,0.1C61.9,54,61.5,53.6,61,53.3z
			 M61.5,52.5l0.4-0.6c0.6,0.4,1.2,1,1.6,1.5L63,53.9C62.6,53.4,62.1,52.9,61.5,52.5L61.5,52.5z M61.8,51.7c-0.6-0.4-1.3-0.8-2.1-1
			L60,50c0.8,0.2,1.6,0.6,2.3,1.1L61.8,51.7z M60,49.8l0.2-0.6l0.5,0.2l0,0l0.4,0.2l0,0c0.3,0.1,0.5,0.2,0.8,0.4l0,0
			c0.3,0.2,0.5,0.3,0.8,0.5L62.4,51C61.7,50.5,60.9,50.1,60,49.8L60,49.8z M62,49.8L62,49.8c-0.3-0.1-0.5-0.3-0.8-0.4l0,0l-0.4-0.2
			l0,0c-0.2,0-0.3-0.1-0.4-0.2l0.2-0.7c1,0.3,1.9,0.7,2.8,1.3L63,50.2C62.6,50.1,62.3,49.9,62,49.8L62,49.8z M60.5,48.2l0.2-0.7
			c1.1,0.3,2.1,0.8,3,1.4l-0.4,0.6C62.5,49,61.5,48.5,60.5,48.2L60.5,48.2z M60.4,48.2c-1-0.3-2.1-0.4-3.1-0.4V47
			c1.1,0,2.2,0.1,3.3,0.4L60.4,48.2z M57.3,54.7c-0.3,0-0.6,0.1-0.9,0.2l-0.2-0.7c0.4-0.1,0.8-0.2,1.2-0.2L57.3,54.7L57.3,54.7z
			 M56.2,54.9c-0.3,0.1-0.6,0.3-0.8,0.5L55,54.8c0.3-0.2,0.6-0.4,1-0.6L56.2,54.9z M55.2,55.5c-0.2,0.2-0.5,0.4-0.6,0.7L54,55.8
			c0.2-0.3,0.5-0.6,0.8-0.8L55.2,55.5z M54.4,56.4c-0.2,0.3-0.3,0.6-0.4,0.8L53.4,57c0.1-0.4,0.3-0.7,0.5-1L54.4,56.4z M54,57.4
			c-0.1,0.3-0.1,0.6-0.1,0.9h-0.7c0-0.4,0-0.8,0.2-1.2L54,57.4z M53.2,59.7l-0.7,0.2c-0.2-0.5-0.2-0.9-0.3-1.4H53
			C53,58.9,53.1,59.3,53.2,59.7L53.2,59.7z M52.4,60l-0.6,0.2c-0.2-0.5-0.3-1.1-0.3-1.7h0.7C52.1,59,52.2,59.5,52.4,60L52.4,60z
			 M51.6,60.3l-0.7,0.2c-0.2-0.6-0.3-1.3-0.4-1.9h0.7C51.3,59.1,51.4,59.7,51.6,60.3L51.6,60.3z M50.8,60.5l-0.7,0.2
			c-0.2-0.7-0.4-1.5-0.4-2.2h0.7C50.4,59.3,50.6,59.9,50.8,60.5L50.8,60.5z M49.9,60.8L49.2,61c-0.3-0.8-0.4-1.6-0.5-2.5h0.7
			C49.6,59.4,49.7,60.1,49.9,60.8L49.9,60.8z M50.4,63.6L49.8,64l-0.1-0.1l-0.2-0.3l-0.1-0.2L49.2,63l-0.1-0.2
			c-0.1-0.2-0.2-0.3-0.3-0.5l-0.1-0.2c-0.1-0.2-0.1-0.3-0.2-0.5v-0.1l0.7-0.2C49.5,62.2,49.9,62.9,50.4,63.6L50.4,63.6z M48.6,62.2
			l0.1,0.2c0.1,0.2,0.2,0.4,0.3,0.5l0,0.1l0.2,0.4l0.1,0.2c0.1,0.1,0.2,0.3,0.3,0.4l0.1,0.1l-0.6,0.4c-0.6-0.8-1.1-1.7-1.5-2.7
			l0.7-0.2v0.1C48.5,61.9,48.5,62,48.6,62.2L48.6,62.2z M49,64.6L48.5,65c-0.7-0.9-1.2-1.9-1.6-2.9l0.7-0.2
			C47.9,62.9,48.4,63.8,49,64.6L49,64.6z M48.3,65.2l-0.6,0.4c-0.7-1-1.3-2-1.7-3.2l0.7-0.2C47.1,63.3,47.7,64.3,48.3,65.2
			L48.3,65.2z M47.6,65.7l-0.5,0.4c-0.8-1-1.4-2.2-1.9-3.4l0.7-0.2C46.3,63.6,46.9,64.7,47.6,65.7L47.6,65.7z M46.9,66.2l-0.6,0.4
			c-0.8-1.1-1.5-2.3-2-3.7l0.7-0.2C45.5,64,46.2,65.2,46.9,66.2L46.9,66.2z M46.2,66.8l-0.6,0.4c-0.9-1.2-1.6-2.5-2.1-3.9l0.7-0.2
			C44.7,64.4,45.4,65.7,46.2,66.8L46.2,66.8z M49,70.6l-0.4,0.6c-1.3-0.9-2.5-2-3.4-3.2l0.5-0.4C46.7,68.7,47.8,69.7,49,70.6z
			 M45.9,67.4l0.6-0.4c0.9,1.1,1.9,2.1,3.1,2.9l-0.4,0.6C47.9,69.6,46.8,68.5,45.9,67.4L45.9,67.4z M49.6,69.9
			c1.2,0.8,2.5,1.4,3.8,1.8l-0.2,0.7c-1.4-0.4-2.8-1.1-4-1.9L49.6,69.9z M53.6,71.8c1.4,0.4,2.8,0.6,4.2,0.6V73
			c-1.5,0-3-0.2-4.4-0.6L53.6,71.8z M57.8,65.9v-0.6c0.7,0,1.4-0.1,2-0.4l0.2,0.7C59.3,65.8,58.5,66,57.8,65.9L57.8,65.9z
			 M59.7,64.1c0.6-0.2,1.1-0.5,1.5-0.8l0.4,0.6c-0.5,0.4-1.1,0.7-1.7,0.9L59.7,64.1z M60.9,62.5c0.4-0.3,0.7-0.7,1-1.1l0.5,0.4
			c-0.3,0.5-0.7,0.9-1.2,1.2L60.9,62.5z M62,61.2c0.3-0.4,0.5-0.9,0.7-1.3l0.6,0.2c-0.2,0.5-0.4,1.1-0.7,1.5L62,61.2z M62.7,59.7
			c0.1-0.5,0.2-1,0.2-1.5h0.7c0,0.6-0.1,1.1-0.2,1.7L62.7,59.7z M62.9,58.1c0-0.5-0.1-1-0.3-1.5l0.6-0.2c0.2,0.5,0.3,1.1,0.3,1.7
			H62.9z M62.5,54.6l0.2-0.1l0.4-0.3c0.4,0.5,0.7,1.1,0.9,1.7l-0.7,0.2C63.1,55.6,62.8,55.1,62.5,54.6L62.5,54.6z M63.2,54.1
			l0.5-0.4c0.5,0.6,0.8,1.3,1.1,2l-0.7,0.2C63.9,55.2,63.5,54.6,63.2,54.1L63.2,54.1z M62,51.8l0.4-0.6c0.7,0.5,1.3,1.1,1.8,1.8
			h-0.1l-0.5,0.4C63.2,52.8,62.6,52.3,62,51.8z M62.5,51.1l0.4-0.5l0.2,0.1l0.1,0.1c0.2,0.1,0.4,0.3,0.5,0.4l0.1,0.1
			c0.1,0.1,0.2,0.2,0.3,0.3l0.1,0.1c0.2,0.2,0.3,0.3,0.5,0.5l0.1,0.1l0.1,0.2l-0.5,0.4C63.9,52.2,63.2,51.6,62.5,51.1L62.5,51.1z
			 M64.8,52.1c-0.1-0.2-0.3-0.3-0.4-0.5l-0.1-0.1L64,51.1L63.8,51l-0.5-0.4l-0.1-0.1L63,50.4l0.4-0.6c0.8,0.6,1.6,1.3,2.2,2.1
			L65,52.3v-0.1L64.8,52.1z M63.5,49.7l0.4-0.6c0.9,0.6,1.7,1.4,2.4,2.3l-0.2,0.2l-0.3,0.3C65.1,51,64.4,50.3,63.5,49.7L63.5,49.7z
			 M64,49l0.4-0.6c1,0.7,1.9,1.5,2.6,2.5L66.9,51l-0.4,0.3C65.8,50.4,64.9,49.6,64,49L64,49z M63.8,48.9c-0.9-0.6-2-1.1-3.1-1.5
			l0.2-0.7c1.2,0.4,2.3,0.9,3.3,1.5L63.8,48.9z M60.6,47.3c-1.1-0.3-2.2-0.5-3.4-0.5v-0.7c1.2,0,2.4,0.1,3.6,0.5L60.6,47.3z
			 M57.2,53.9c-0.4,0-0.8,0.1-1.2,0.2l-0.2-0.7c0.5-0.2,0.9-0.2,1.4-0.3V53.9z M55.9,54.2c-0.4,0.1-0.7,0.3-1.1,0.6l-0.4-0.6
			c0.4-0.3,0.8-0.5,1.3-0.7L55.9,54.2z M54.6,54.8c-0.3,0.3-0.6,0.6-0.8,0.9l-0.6-0.4c0.3-0.4,0.6-0.7,1-1L54.6,54.8z M53.7,55.8
			c-0.2,0.3-0.4,0.7-0.5,1.1l-0.7-0.2c0.1-0.5,0.4-0.9,0.6-1.3L53.7,55.8z M53.1,57.1C53,57.5,53,57.9,53,58.3h-0.7
			c0-0.5,0.1-1,0.2-1.4L53.1,57.1z M52.1,58.4h-0.7c0-0.6,0.1-1.1,0.2-1.7l0.6,0.2C52.2,57.4,52.1,57.9,52.1,58.4L52.1,58.4z
			 M51.3,58.4h-0.7c0-0.7,0.1-1.4,0.3-2l0.7,0.2C51.4,57.2,51.3,57.8,51.3,58.4L51.3,58.4z M50.4,58.4h-0.7c0-0.7,0.1-1.5,0.3-2.2
			l0.7,0.2C50.5,57,50.4,57.7,50.4,58.4L50.4,58.4z M49.6,58.4h-0.7c0-0.8,0.1-1.7,0.3-2.5l0.7,0.2C49.6,56.8,49.5,57.6,49.6,58.4
			L49.6,58.4z M49.2,61.1l-0.7,0.2v-0.1c-0.1-0.2-0.1-0.4-0.2-0.5v-0.1c0-0.2-0.1-0.4-0.1-0.6l0,0c0-0.2-0.1-0.4-0.1-0.6v-0.1
			c0-0.2,0-0.4,0-0.6h0.7C48.8,59.5,48.9,60.4,49.2,61.1L49.2,61.1z M48.2,60.6L48.2,60.6c0,0.3,0.1,0.5,0.2,0.7v0.1l-0.7,0.2
			c-0.3-1-0.5-2-0.6-3h0.7c0,0.2,0,0.4,0,0.6v0.1c0,0.2,0,0.4,0.1,0.6V60C48,60.3,48,60.5,48.2,60.6L48.2,60.6z M47.6,61.6l-0.7,0.2
			c-0.4-1.1-0.6-2.2-0.6-3.3H47C47,59.7,47.2,60.7,47.6,61.6L47.6,61.6z M46.7,61.9L46,62.1c-0.4-1.1-0.6-2.3-0.7-3.5H46
			C46.1,59.8,46.3,60.9,46.7,61.9L46.7,61.9z M45.9,62.2l-0.7,0.2c-0.4-1.2-0.7-2.5-0.7-3.8h0.7C45.3,59.9,45.5,61.1,45.9,62.2
			L45.9,62.2z M45.1,62.5l-0.7,0.2c-0.5-1.3-0.7-2.7-0.8-4.1h0.7C44.4,60,44.6,61.4,45.1,62.5L45.1,62.5z M44.3,62.8L43.6,63
			c-0.5-1.4-0.8-2.9-0.8-4.4h0.7C43.5,60.1,43.7,61.6,44.3,62.8L44.3,62.8z M45.6,67.2l-0.5,0.4c-1-1.3-1.7-2.6-2.3-4.1l0.7-0.2
			C44,64.7,44.7,66.1,45.6,67.2L45.6,67.2z M48.5,71.2l-0.4,0.6c-1.4-0.9-2.6-2.1-3.6-3.4L45,68C46,69.3,47.1,70.4,48.5,71.2
			L48.5,71.2z M48.2,72.1c1.4,0.9,2.9,1.7,4.5,2.2L52.5,75c-1.7-0.5-3.3-1.3-4.7-2.3L48.2,72.1z M48.3,71.9l0.4-0.6
			c1.3,0.9,2.8,1.6,4.3,2.1l-0.2,0.7C51.2,73.6,49.6,72.9,48.3,71.9L48.3,71.9z M48.8,71.2l0.4-0.6c1.3,0.8,2.6,1.5,4.1,1.9L53,73.2
			C51.5,72.8,50,72.1,48.8,71.2L48.8,71.2z M53.4,72.6c1.4,0.4,3,0.6,4.5,0.6v0.3v0.3c-1.6,0-3.2-0.2-4.7-0.6L53.4,72.6z M57.8,66.9
			v-0.7c0.7,0,1.5-0.2,2.2-0.4l0.2,0.7C59.4,66.7,58.6,66.9,57.8,66.9L57.8,66.9z M60,64.9c0.6-0.2,1.2-0.6,1.8-1l0.4,0.6
			c-0.6,0.5-1.3,0.8-2,1.1L60,64.9z M61.4,63.1c0.5-0.4,0.9-0.8,1.2-1.3l0.6,0.4c-0.4,0.5-0.8,1-1.3,1.4L61.4,63.1z M62.7,61.7
			c0.3-0.5,0.6-1,0.8-1.6l0.7,0.2c-0.2,0.6-0.5,1.2-0.8,1.8L62.7,61.7z M63.4,60c0.2-0.6,0.2-1.1,0.2-1.7h0.7c0,0.7-0.1,1.3-0.3,2
			L63.4,60z M63.7,58c0-0.6-0.1-1.2-0.3-1.7L64,56c0.2,0.6,0.3,1.3,0.4,2H63.7z M64.2,56l0.7-0.2c0.2,0.7,0.4,1.5,0.4,2.2h-0.7
			C64.5,57.3,64.4,56.6,64.2,56z M63.8,53.5l0.6-0.4c0.5,0.7,0.9,1.4,1.2,2.2l-0.7,0.2C64.6,54.8,64.3,54.1,63.8,53.5L63.8,53.5z
			 M64.5,53l0.5-0.4c0.2,0.3,0.4,0.5,0.6,0.8l0,0c0.2,0.4,0.5,0.8,0.6,1.2v0.1l0.1,0.3l-0.7,0.2C65.4,54.4,65,53.7,64.5,53L64.5,53z
			 M65.8,53.3L65.8,53.3c-0.2-0.3-0.4-0.6-0.6-0.8l0.6-0.4c0.6,0.8,1.1,1.7,1.5,2.7L66.6,55l-0.1-0.3v-0.1
			C66.2,54.1,66,53.7,65.8,53.3L65.8,53.3z M65.9,51.9l0.6-0.4c0.7,0.9,1.2,1.9,1.6,2.9l-0.7,0.2C67,53.7,66.5,52.8,65.9,51.9
			L65.9,51.9z M66.6,51.4l0.3-0.3l0.2-0.2c0.7,1,1.3,2,1.7,3.2l-0.7,0.2C67.8,53.3,67.3,52.3,66.6,51.4L66.6,51.4z M67.3,50.8
			l0.4-0.3l0.2-0.1c0.8,1,1.4,2.2,1.9,3.4L69,54.1C68.6,52.9,68,51.9,67.3,50.8L67.3,50.8z M67.6,50.3l-0.5,0.4
			c-0.8-1-1.7-1.8-2.7-2.5l0.4-0.6C65.9,48.3,66.8,49.2,67.6,50.3L67.6,50.3z M64.4,48.1c-1-0.7-2.2-1.2-3.4-1.6l0.2-0.7
			c1.2,0.4,2.4,0.9,3.5,1.7L64.4,48.1z M60.9,46.4c-1.2-0.3-2.4-0.5-3.6-0.5v-0.7c1.3,0,2.6,0.1,3.9,0.5L60.9,46.4z M57.2,53
			c-0.5,0-1,0.1-1.5,0.3l-0.2-0.6c0.5-0.2,1.1-0.3,1.7-0.3V53z M55.6,53.3c-0.5,0.2-0.9,0.4-1.3,0.7l-0.4-0.5c0.5-0.3,1-0.6,1.5-0.8
			L55.6,53.3z M54.2,54.2c-0.4,0.3-0.7,0.7-1,1.1l-0.5-0.4c0.3-0.5,0.7-0.9,1.2-1.2L54.2,54.2z M53,55.4c-0.3,0.4-0.5,0.9-0.6,1.3
			l-0.6-0.2c0.2-0.5,0.4-1,0.8-1.5L53,55.4z M51.6,56.5l-0.7-0.2c0.2-0.6,0.5-1.2,0.8-1.8l0.6,0.4C52,55.4,51.8,55.9,51.6,56.5
			L51.6,56.5z M50.7,56.2L50,56c0.2-0.7,0.6-1.4,1-2l0.6,0.4C51.3,55,51,55.6,50.7,56.2L50.7,56.2z M49.9,56l-0.7-0.2
			c0.2-0.8,0.6-1.6,1.1-2.3l0.6,0.4C50.5,54.6,50.1,55.3,49.9,56z M49,55.7l-0.6-0.2c0.1-0.2,0.2-0.4,0.2-0.7l0,0
			c0.3-0.7,0.6-1.3,1-1.8l0.5,0.4C49.6,54.1,49.3,54.9,49,55.7z M49,55.9c-0.2,0.8-0.3,1.7-0.3,2.6H48c0-0.9,0.1-1.9,0.4-2.8
			L49,55.9z M47.8,58.5h-0.7c0-1,0.1-2,0.4-3l0.7,0.2C47.9,56.6,47.8,57.5,47.8,58.5z M46.9,58.5h-0.7c0-1.1,0.1-2.2,0.4-3.3
			l0.7,0.2C47,56.4,46.9,57.4,46.9,58.5L46.9,58.5z M46,58.5h-0.7c0-1.2,0.1-2.3,0.5-3.5l0.7,0.2C46.2,56.3,46,57.4,46,58.5L46,58.5
			z M45.2,58.5h-0.7c0-1.3,0.2-2.5,0.5-3.8l0.7,0.2C45.3,56.1,45.2,57.3,45.2,58.5L45.2,58.5z M44.3,58.5h-0.7
			c0-1.4,0.2-2.8,0.5-4.1l0.7,0.2C44.4,55.9,44.3,57.2,44.3,58.5L44.3,58.5z M43.4,58.5h-0.7c0-1.5,0.2-3,0.6-4.4l0.7,0.2
			C43.6,55.7,43.4,57.2,43.4,58.5L43.4,58.5z M42.5,58.5h-0.7c0-1.5,0.2-3,0.6-4.5l0.7,0.2c-0.4,1.4-0.6,2.9-0.6,4.4V58.5z
			 M42.5,58.7c0.1,1.5,0.3,3,0.8,4.4l-0.7,0.2c-0.5-1.5-0.8-3.1-0.9-4.6L42.5,58.7z M44.9,67.7l-0.5,0.4c-1-1.3-1.8-2.7-2.3-4.2
			l0.7-0.2c0.5,1.5,1.3,2.9,2.2,4.2L44.9,67.7z M48,72l-0.4,0.6c-1.5-1-2.8-2.2-3.8-3.6l0.5-0.4C45.4,69.9,46.6,71.1,48,72z
			 M47.7,72.8c1.5,1,3.1,1.8,4.8,2.3l-0.2,0.6c-1.8-0.5-3.5-1.3-5-2.4L47.7,72.8z M57.9,76.5c-1.8,0-3.7-0.2-5.5-0.7l0.2-0.6
			c1.7,0.5,3.5,0.7,5.3,0.7V76.5L57.9,76.5z M52.6,75l0.2-0.7c1.6,0.5,3.3,0.7,5,0.7v0.7C56.1,75.7,54.3,75.5,52.6,75z M52.9,74.2
			l0.2-0.7c1.5,0.4,3.1,0.7,4.7,0.6v0.7C56.1,74.8,54.5,74.6,52.9,74.2L52.9,74.2z M57.8,67.8v-0.7c0.9,0,1.7-0.2,2.5-0.5l0.2,0.7
			l-0.2,0.1L60,67.5l-0.3,0.1l-0.3,0.1l-0.6,0.1h-0.2l-0.4,0.1H58L57.8,67.8z M60.2,65.7c0.7-0.3,1.4-0.6,2-1.1l0.4,0.6
			c-0.7,0.5-1.4,0.9-2.2,1.2L60.2,65.7z M61.8,63.8c0.5-0.4,1-0.9,1.4-1.5l0.6,0.4c-0.4,0.6-1,1.2-1.5,1.6L61.8,63.8z M63.3,62.2
			c0.4-0.6,0.7-1.2,0.9-1.8l0.7,0.2c-0.2,0.7-0.6,1.4-1,2L63.3,62.2z M64.3,60.2c0.2-0.7,0.3-1.3,0.3-2h0.7c0,0.8-0.1,1.5-0.3,2.2
			L64.3,60.2z M65,55.7l0.7-0.2c0.3,0.8,0.4,1.6,0.5,2.5h-0.7C65.4,57.2,65.2,56.5,65,55.7z M65.8,55.4l0.7-0.2
			C66.8,56.1,67,57,67,58h-0.7C66.3,57.1,66.1,56.3,65.8,55.4L65.8,55.4z M66.7,55.2l0.7-0.2c0.3,1,0.5,2,0.6,3h-0.7
			C67.1,57,67,56,66.7,55.2L66.7,55.2z M67.5,54.9l0.7-0.2c0.4,1.1,0.6,2.2,0.6,3.3h-0.7C68,56.9,67.8,55.8,67.5,54.9L67.5,54.9z
			 M68.3,54.6l0.7-0.2c0.4,1.1,0.6,2.3,0.7,3.5H69C68.9,56.8,68.7,55.6,68.3,54.6L68.3,54.6z M69.1,54.3l0.7-0.2
			c0.4,1.2,0.7,2.5,0.7,3.8h-0.7C69.8,56.6,69.5,55.4,69.1,54.3L69.1,54.3z M70,54l0.7-0.2c0.5,1.3,0.7,2.7,0.8,4.1h-0.7
			C70.6,56.5,70.4,55.2,70,54L70,54z M69.9,53.8c-0.5-1.2-1.1-2.4-1.9-3.5l0.4-0.3l0.2-0.1c0.9,1.1,1.5,2.3,2,3.7L69.9,53.8z
			 M68.4,49.8l-0.5,0.4c-0.8-1-1.8-1.9-2.9-2.7l0.4-0.6C66.5,47.7,67.5,48.7,68.4,49.8L68.4,49.8z M64.9,47.3
			c-1.1-0.7-2.3-1.3-3.6-1.7l0.2-0.7c1.3,0.4,2.6,1,3.8,1.8L64.9,47.3z M61.2,45.6c-1.3-0.4-2.6-0.5-3.9-0.5v-0.7
			c1.4,0,2.8,0.2,4.1,0.5L61.2,45.6z M57.3,52.1c-0.6,0-1.2,0.1-1.7,0.3l-0.2-0.7c0.6-0.2,1.3-0.3,1.9-0.4V52.1z M55.4,52.5
			c-0.6,0.2-1.1,0.5-1.5,0.8l-0.4-0.6c0.5-0.4,1.1-0.7,1.7-0.9L55.4,52.5z M53.7,53.4c-0.5,0.4-0.9,0.8-1.2,1.3l-0.6-0.4
			c0.4-0.5,0.8-1,1.3-1.4L53.7,53.4z M51.8,54.2l-0.6-0.4c0.4-0.6,1-1.2,1.5-1.6l0.4,0.6C52.6,53.2,52.1,53.7,51.8,54.2L51.8,54.2z
			 M51,53.7l-0.6-0.4c0.5-0.7,1.1-1.3,1.8-1.8l0.4,0.6C52,52.5,51.4,53.1,51,53.7L51,53.7z M50.3,53.2l-0.5-0.4
			c0.5-0.8,1.2-1.4,1.9-2l0.4,0.5C51.4,51.9,50.8,52.5,50.3,53.2L50.3,53.2z M49.6,52.7L49,52.3c0.6-0.8,1.3-1.6,2.1-2.2l0.4,0.5
			C50.8,51.3,50.1,52,49.6,52.7L49.6,52.7z M49.5,52.9c-0.4,0.6-0.7,1.2-1,1.9l0,0c-0.1,0.2-0.2,0.4-0.2,0.7l-0.7-0.2
			c0.3-1,0.7-1.9,1.3-2.8L49.5,52.9z M47.4,55.2L46.7,55c0.3-1.1,0.8-2.1,1.4-3l0.6,0.4C48.2,53.3,47.7,54.2,47.4,55.2L47.4,55.2z
			 M46.5,55l-0.7-0.2c0.4-1.2,0.9-2.3,1.6-3.3l0.6,0.4C47.4,52.9,46.9,53.9,46.5,55z M45.7,54.7L45,54.5c0.4-1.3,1-2.5,1.7-3.5
			l0.6,0.4C46.6,52.4,46.1,53.5,45.7,54.7L45.7,54.7z M44.9,54.5l-0.7-0.2c0.4-1.3,1-2.6,1.8-3.8l0.6,0.4
			C45.8,52,45.3,53.2,44.9,54.5L44.9,54.5z M44,54.2L43.3,54c0.4-1.4,1.1-2.8,1.9-4l0.6,0.4C45,51.6,44.4,52.9,44,54.2z M43.2,54
			l-0.7-0.2c0.4-1.5,1.1-2.9,2-4.3l0.6,0.4C44.3,51.2,43.6,52.6,43.2,54z M42.3,53.7l-0.7-0.2c0.5-1.6,1.2-3.2,2.1-4.5l0.6,0.4
			C43.5,50.7,42.8,52.2,42.3,53.7L42.3,53.7z M42.3,53.9c-0.4,1.5-0.7,3.1-0.6,4.7H41c0-1.7,0.2-3.3,0.7-4.9L42.3,53.9z M41.7,58.8
			c0.1,1.6,0.3,3.2,0.9,4.7l-0.7,0.2c-0.6-1.6-0.9-3.2-0.9-4.9H41.7z M44.2,68.4l-0.5,0.4c-1.1-1.4-1.9-3-2.5-4.6l0.7-0.2
			C42.4,65.6,43.2,67.1,44.2,68.4L44.2,68.4z M47.5,72.7l-0.4,0.5c-1.5-1-2.9-2.3-4-3.8l0.5-0.4C44.7,70.5,46,71.7,47.5,72.7
			L47.5,72.7z M47.1,73.5c1.5,1,3.2,1.9,5,2.4l-0.2,0.7h-0.1h-0.1c-0.3-0.1-0.5-0.2-0.7-0.3h-0.2L50.1,76H50
			c-0.5-0.2-1.1-0.5-1.6-0.8l-0.1-0.1l-0.6-0.3l-0.2-0.1L47,74.4l-0.1-0.1l-0.1-0.1L47.1,73.5z M47.5,74.8L47.5,74.8
			c0.5,0.3,1.1,0.6,1.7,0.9s1.2,0.5,1.8,0.7l0,0l1,0.3l-0.2,0.7c-1.9-0.6-3.8-1.5-5.5-2.6l0.4-0.6L47.5,74.8z M51.7,77.6l-0.2,0.7
			c-2-0.6-4-1.5-5.7-2.7l0.4-0.6C47.9,76.1,49.7,77,51.7,77.6L51.7,77.6z M48.4,77.3c1,0.5,2,0.9,3,1.2l-0.2,0.6
			c-2.1-0.6-4.2-1.6-6-2.8l0.4-0.6C46.5,76.3,47.5,76.8,48.4,77.3L48.4,77.3z M51.2,79.3L51,80c-2.2-0.7-4.3-1.7-6.2-3l0.4-0.6
			C47,77.6,49,78.6,51.2,79.3L51.2,79.3z M50.9,80.1l-0.2,0.7c-2.3-0.7-4.5-1.7-6.5-3.1l0.4-0.6C46.6,78.4,48.7,79.4,50.9,80.1
			L50.9,80.1z M51.1,80.2c2.2,0.7,4.6,1,6.9,0.9v0.1v0.6c-2.4,0.1-4.8-0.3-7.1-0.9L51.1,80.2z M58,75c1.7-0.1,3.4-0.4,5-0.9l0.2,0.7
			c-1.7,0.6-3.4,0.9-5.2,1V75L58,75z M58,74.8v-0.7c1.6,0,3.2-0.3,4.7-0.9l0.2,0.7C61.3,74.5,59.7,74.8,58,74.8L58,74.8z M58,73.9
			v-0.6v-0.1c1.5,0,3-0.3,4.4-0.8l0.2,0.7C61.2,73.6,59.6,73.9,58,73.9L58,73.9z M58,73.1v-0.6v-0.1c1.4,0,2.8-0.3,4.2-0.8l0.2,0.7
			C61,72.7,59.5,73,58,73.1L58,73.1z M58,72.2v-0.7c1.3,0,2.6-0.3,3.9-0.7l0.2,0.7C60.8,71.9,59.4,72.1,58,72.2L58,72.2z M58,71.3
			v-0.7c1.2,0,2.4-0.3,3.6-0.7l0.2,0.7C60.6,71,59.3,71.3,58,71.3L58,71.3z M58,70.4v-0.6v-0.1c1.1,0,2.3-0.3,3.3-0.6l0.2,0.7
			c-1.2,0.4-2.4,0.6-3.7,0.6H58z M58,69.6v-0.7c1.1,0,2.1-0.2,3.1-0.6l0.2,0.7c-1.1,0.4-2.3,0.6-3.5,0.6H58z M58,68.7L58,68.7V68
			c0.1,0,0.3,0,0.4,0h0.2H59h0.2l0.5-0.1l0.3-0.1l0.3-0.1l0.3-0.1l0.2-0.1l0.2,0.7c-1,0.3-2.1,0.5-3.2,0.4L58,68.7z M60.7,66.6
			c0.8-0.3,1.6-0.7,2.3-1.2l0.4,0.5c-0.7,0.6-1.6,1-2.5,1.3L60.7,66.6z M62.5,64.6c0.6-0.5,1.1-1.1,1.5-1.7l0.6,0.4
			c-0.5,0.7-1.1,1.3-1.8,1.8L62.5,64.6z M64.2,62.8c0.4-0.6,0.8-1.3,1-2.1l0.7,0.2c-0.2,0.8-0.6,1.6-1.1,2.3L64.2,62.8z M65.2,60.5
			c0.2-0.7,0.3-1.5,0.3-2.3h0.7c0,0.8-0.1,1.7-0.3,2.5L65.2,60.5z M66.4,58.2h0.7c0,0.9-0.1,1.9-0.4,2.8L66,60.7
			C66.2,59.9,66.3,59,66.4,58.2L66.4,58.2z M67.3,58.2H68c0,1-0.1,2-0.4,3L66.9,61c0.2-0.9,0.3-1.9,0.3-2.9L67.3,58.2z M68.1,58.2
			h0.7c0,1.1-0.1,2.2-0.4,3.3l-0.7-0.2c0.3-1.1,0.3-2.1,0.3-3.2L68.1,58.2z M69,58.2h0.7c0,1.2-0.1,2.4-0.5,3.6l-0.7-0.2
			c0.3-1.1,0.4-2.3,0.3-3.5L69,58.2z M69.9,58.2h0.7c0,1.2-0.2,2.5-0.6,3.7l-0.7-0.2c0.3-1.2,0.5-2.4,0.4-3.6L69.9,58.2z M70.8,58.2
			h0.7c0,1.4-0.2,2.8-0.6,4.1l-0.7-0.2c0.3-1.4,0.5-2.8,0.4-4.2L70.8,58.2z M71.6,58c-0.1-1.4-0.3-2.8-0.8-4.1l0.7-0.2
			c0.5,1.4,0.8,2.9,0.8,4.4L71.6,58z M70.8,53.7c-0.5-1.3-1.1-2.6-2-3.7l0.5-0.4h0.1c0.9,1.2,1.6,2.5,2.1,3.9L70.8,53.7z M69,49.3
			l-0.5,0.3c-0.9-1.1-1.9-2.1-3.1-2.9l0.4-0.6c1.2,0.8,2.3,1.9,3.2,3V49.3z M65.3,46.7c-1.2-0.8-2.5-1.4-3.8-1.8l0.2-0.7
			c1.4,0.4,2.8,1.1,4,1.9L65.3,46.7z M61.3,44.8c-1.4-0.4-2.8-0.6-4.2-0.5v-0.7c1.5,0,3,0.2,4.4,0.6L61.3,44.8z M57.2,51.2
			c-0.7,0-1.4,0.2-2,0.4L55,51c0.7-0.2,1.5-0.4,2.2-0.4V51.2z M55,51.7c-0.6,0.2-1.2,0.6-1.8,1l-0.4-0.5c0.6-0.5,1.3-0.8,2-1.1
			L55,51.7z M52.7,52l-0.4-0.6c0.7-0.5,1.4-0.9,2.2-1.2l0.2,0.7C54,51.2,53.3,51.5,52.7,52z M52.2,51.3l-0.4-0.5
			c0.7-0.6,1.6-1,2.5-1.3l0.2,0.7C53.6,50.4,52.9,50.8,52.2,51.3L52.2,51.3z M51.7,50.6L51.2,50c0.8-0.6,1.7-1.1,2.7-1.5l0.2,0.7
			C53.2,49.5,52.4,50,51.7,50.6L51.7,50.6z M51.1,49.9l-0.4-0.5c0.9-0.7,1.9-1.2,2.9-1.6l0.2,0.7C52.9,48.8,52,49.3,51.1,49.9
			L51.1,49.9z M51,50c-0.8,0.6-1.5,1.4-2.1,2.3l-0.6-0.4c0.6-0.9,1.4-1.7,2.3-2.4L51,50z M48.1,51.8l-0.6-0.4c0.7-1,1.5-1.9,2.4-2.6
			l0.4,0.5C49.5,50,48.8,50.8,48.1,51.8L48.1,51.8z M47.4,51.3l-0.6-0.4c0.7-1.1,1.6-2,2.7-2.8l0.4,0.6C49,49.4,48.1,50.3,47.4,51.3
			L47.4,51.3z M46.7,50.8l-0.6-0.4c0.8-1.1,1.8-2.2,2.9-3l0.4,0.5C48.3,48.7,47.4,49.7,46.7,50.8L46.7,50.8z M46,50.3l-0.6-0.4
			c0.8-1.2,1.8-2.3,3-3.2l0.4,0.6C47.7,48.1,46.7,49.1,46,50.3L46,50.3z M45.2,49.8l-0.6-0.4c0.9-1.3,2-2.4,3.2-3.4l0.4,0.5
			C47.1,47.5,46.1,48.6,45.2,49.8L45.2,49.8z M44.5,49.3l-0.6-0.4c1-1.4,2.1-2.6,3.4-3.6l0.4,0.6C46.5,46.8,45.4,48,44.5,49.3
			L44.5,49.3z M43.8,48.8l-0.6-0.4c1-1.4,2.2-2.7,3.6-3.8l0.4,0.5C45.9,46.2,44.7,47.4,43.8,48.8L43.8,48.8z M43.7,48.9
			c-0.9,1.4-1.7,2.9-2.2,4.5l-0.7-0.2c0.5-1.7,1.3-3.3,2.3-4.7L43.7,48.9z M40.7,53.2L40.1,53c0.5-1.8,1.3-3.5,2.4-5l0.5,0.4
			C42,49.9,41.2,51.5,40.7,53.2L40.7,53.2z M40.8,53.5l0.7,0.2c-0.5,1.6-0.7,3.3-0.7,5h-0.7C40.1,56.9,40.3,55.2,40.8,53.5
			L40.8,53.5z M40.8,58.8c0,1.7,0.4,3.4,0.9,5L41,64c-0.6-1.7-0.9-3.4-1-5.2H40.8z M43.5,68.9L43,69.3c-1.1-1.5-2-3.1-2.6-4.8
			l0.6-0.2C41.6,65.9,42.4,67.5,43.5,68.9L43.5,68.9z M47,73.4L46.6,74l-0.3-0.2L46,73.6l-0.6-0.5l-0.3-0.2l-0.4-0.3l-0.3-0.3
			L44.2,72l-0.3-0.3l-0.3-0.3l-0.4-0.5l-0.3-0.4l-0.3-0.4L42.4,70l0.5-0.4C44.1,71,45.5,72.3,47,73.4z M42.7,70.6l0.2,0.3
			c0.2,0.2,0.4,0.4,0.6,0.6l0.3,0.3c0.1,0.1,0.2,0.2,0.3,0.3l0.3,0.3c0.1,0.1,0.2,0.2,0.3,0.3L45,73l0.3,0.2l0.6,0.5l0.2,0.1
			l0.4,0.3l-0.4,0.6c-1.7-1.2-3.2-2.6-4.4-4.2l0.5-0.4l0.1,0.1L42.7,70.6z M46,74.8l-0.4,0.6c-1.8-1.2-3.3-2.7-4.6-4.3l0.6-0.4
			C42.8,72.3,44.3,73.7,46,74.8z M45.5,75.6l-0.4,0.6c-1.8-1.3-3.4-2.8-4.8-4.5l0.5-0.4C42.2,72.9,43.7,74.4,45.5,75.6L45.5,75.6z
			 M45,76.3l-0.4,0.6c-1.9-1.3-3.6-2.9-5-4.7l0.6-0.4C41.5,73.5,43.2,75,45,76.3L45,76.3z M44.5,77l-0.4,0.6c-2-1.4-3.7-3-5.2-4.9
			l0.5-0.4C40.9,74.1,42.6,75.7,44.5,77L44.5,77z M44,77.8l-0.4,0.6c-2.1-1.4-3.9-3.1-5.4-5.1l0.5-0.4C40.2,74.7,42,76.4,44,77.8
			L44,77.8z M44.2,77.9c1,0.7,2,1.3,3.1,1.8s2.2,1,3.4,1.3l-0.2,0.7c-2.4-0.7-4.6-1.8-6.7-3.2L44.2,77.9z M50.9,81
			c2.3,0.7,4.7,1,7.1,1v0.7c-2.5,0-5-0.3-7.4-1L50.9,81z M58,75.8c1.8-0.1,3.5-0.4,5.2-1l0.2,0.6c-1.7,0.6-3.6,0.9-5.4,1l0,0V75.8z
			 M63.3,74.7L63.2,74c1.6-0.6,3.1-1.4,4.4-2.4l0.4,0.6C66.6,73.2,65,74.1,63.3,74.7L63.3,74.7z M63.1,73.8l-0.2-0.7
			c1.5-0.5,2.9-1.3,4.2-2.3l0.4,0.6C66.1,72.5,64.6,73.3,63.1,73.8L63.1,73.8z M62.8,73l-0.2-0.7c1.4-0.5,2.8-1.2,4-2.1l0.4,0.6
			C65.7,71.7,64.3,72.5,62.8,73L62.8,73z M62.5,72.2l-0.2-0.7c1.3-0.5,2.6-1.1,3.7-2l0.4,0.6C65.2,71,63.9,71.7,62.5,72.2L62.5,72.2
			z M62.2,71.3L62,70.7c1.2-0.4,2.4-1.1,3.5-1.9l0.4,0.6C64.8,70.2,63.5,70.9,62.2,71.3L62.2,71.3z M61.9,70.5l-0.2-0.7
			c1.2-0.4,2.2-1,3.2-1.8l0.4,0.6C64.3,69.5,63.1,70.1,61.9,70.5L61.9,70.5z M61.6,69.7L61.4,69c1.1-0.4,2.1-0.9,3-1.6l0.4,0.6
			C63.8,68.7,62.8,69.3,61.6,69.7L61.6,69.7z M61.3,68.9l-0.2-0.7c1-0.4,1.9-0.9,2.7-1.5l0.4,0.6C63.4,68,62.4,68.5,61.3,68.9
			L61.3,68.9z M61,68l-0.2-0.7c0.9-0.3,1.8-0.8,2.5-1.4l0.4,0.6C62.9,67.2,62,67.7,61,68z M62.9,65.2c0.7-0.5,1.3-1.2,1.8-1.9
			l0.5,0.4c-0.5,0.8-1.2,1.4-1.9,2L62.9,65.2z M64.8,63.2c0.5-0.7,0.9-1.5,1.1-2.3l0.6,0.2c-0.3,0.9-0.7,1.7-1.2,2.5L64.8,63.2z
			 M66.7,61.1l0.7,0.2c-0.3,1-0.7,1.9-1.3,2.8l-0.6-0.4C66,62.9,66.4,62,66.7,61.1L66.7,61.1z M67.5,61.4l0.7,0.2
			c-0.3,1.1-0.8,2.1-1.4,3l-0.6-0.4C66.8,63.3,67.3,62.4,67.5,61.4L67.5,61.4z M68.4,61.6l0.7,0.2c-0.4,1.2-0.9,2.3-1.6,3.3
			l-0.6-0.4C67.6,63.8,68.1,62.7,68.4,61.6L68.4,61.6z M69.2,61.9l0.7,0.2c-0.4,1.2-0.9,2.4-1.7,3.5l-0.6-0.4
			C68.3,64.2,68.9,63.1,69.2,61.9L69.2,61.9z M70,62.1l0.7,0.2c-0.4,1.3-1,2.6-1.7,3.7l-0.6-0.4C69.2,64.6,69.7,63.4,70,62.1
			L70,62.1z M70.9,62.4l0.7,0.2c-0.4,1.4-1.1,2.8-1.9,4l-0.6-0.4C69.9,65,70.5,63.7,70.9,62.4L70.9,62.4z M71.7,62.6l0.7,0.2
			c-0.4,1.5-1.1,2.9-2,4.3l-0.6-0.4C70.7,65.4,71.3,64.1,71.7,62.6L71.7,62.6z M72.6,62.9l0.7,0.2c-0.5,1.6-1.2,3.1-2.1,4.5
			l-0.6-0.4C71.4,65.9,72.1,64.4,72.6,62.9L72.6,62.9z M73.4,63.1l0.7,0.2c-0.5,1.7-1.3,3.3-2.3,4.7l-0.6-0.4
			C72.2,66.3,72.9,64.7,73.4,63.1L73.4,63.1z M74.2,63.4l0.6,0.2c-0.5,1.8-1.3,3.5-2.4,5L72,68.2C73,66.7,73.8,65.1,74.2,63.4
			L74.2,63.4z M74.1,63.1l-0.7-0.2c0.5-1.6,0.7-3.3,0.7-5h0.7C74.9,59.7,74.6,61.5,74.1,63.1L74.1,63.1z M74.8,57.7h-0.7
			c-0.1-1.7-0.4-3.4-0.9-5l0.7-0.2C74.4,54.2,74.8,56,74.8,57.7L74.8,57.7z M74,52.5l0.6-0.2c0.6,1.7,0.9,3.6,1,5.4H75
			C74.9,56,74.6,54.2,74,52.5L74,52.5z M74,57.8h-0.7c-0.1-1.6-0.3-3.2-0.9-4.7l0.7-0.2C73.6,54.4,73.9,56.1,74,57.8z M73.1,57.8
			h-0.7c0-1.5-0.3-3-0.8-4.4l0.7-0.2C72.8,54.6,73.1,56.2,73.1,57.8L73.1,57.8z M71.5,53.2c-0.5-1.4-1.2-2.7-2.2-4l0.5-0.4l0,0
			c1,1.3,1.7,2.7,2.3,4.2L71.5,53.2z M69.8,48.7l-0.5,0.4c-0.9-1.2-2-2.2-3.3-3.1l0.4-0.6C67.7,46.3,68.8,47.4,69.8,48.7L69.8,48.7z
			 M65.9,45.9c-1.3-0.8-2.6-1.5-4.1-1.9l0.2-0.7c1.5,0.5,2.9,1.1,4.3,2L65.9,45.9z M61.6,43.9c-1.4-0.4-3-0.6-4.5-0.6v-0.7
			c1.6,0,3.2,0.2,4.7,0.6L61.6,43.9z M57.2,49.6v0.7c-0.8,0-1.5,0.2-2.3,0.4L54.7,50C55.5,49.8,56.3,49.7,57.2,49.6L57.2,49.6z
			 M54.6,50l-0.2-0.7h0.1l0.4-0.1l0.2-0.1c0.2-0.1,0.4-0.1,0.6-0.1H56h0.3h0.3h0.3h0.3v0.7C56.3,49.7,55.4,49.8,54.6,50z M56.8,48.7
			h-0.3h-0.3h-0.3h-0.3c-0.2,0-0.4,0.1-0.5,0.1l-0.2,0.1L54.4,49h-0.1l-0.2-0.7c1-0.3,2-0.5,3-0.6v0.7L56.8,48.7z M54,48.3l-0.2-0.7
			c1.1-0.4,2.2-0.6,3.3-0.6v0.7C56,47.8,55,48,54,48.3z M53.7,47.5l-0.2-0.7c1.1-0.4,2.3-0.6,3.5-0.7v0.7
			C55.9,46.9,54.8,47.1,53.7,47.5L53.7,47.5z M53.5,47.6c-1.1,0.4-2.1,0.9-3,1.6l-0.4-0.5c1-0.7,2-1.3,3.2-1.7L53.5,47.6z M50,48.5
			l-0.4-0.6c1-0.8,2.2-1.4,3.4-1.9l0.2,0.7C52.1,47.2,51,47.8,50,48.5L50,48.5z M49.5,47.8l-0.4-0.5c1.1-0.9,2.3-1.5,3.7-2L53,46
			C51.7,46.4,50.6,47,49.5,47.8L49.5,47.8z M49,47.1l-0.4-0.6c1.2-0.9,2.5-1.6,3.9-2.1l0.2,0.7C51.4,45.6,50.1,46.2,49,47.1z
			 M48.5,46.4L48,45.9c1.3-1,2.7-1.7,4.1-2.3l0.2,0.7C51,44.8,49.6,45.5,48.5,46.4L48.5,46.4z M47.9,45.7l-0.4-0.6
			c1.3-1,2.8-1.8,4.4-2.4l0.2,0.7C50.6,44,49.2,44.7,47.9,45.7L47.9,45.7z M47.4,45L47,44.5c1.4-1.1,2.9-1.9,4.6-2.5l0.2,0.7
			C50.2,43.2,48.7,44,47.4,45L47.4,45z M46.9,44.3l-0.4-0.5c1.5-1.1,3.1-2,4.8-2.6l0.2,0.6C49.9,42.4,48.3,43.2,46.9,44.3L46.9,44.3
			z M46.7,44.4c-1.4,1.1-2.6,2.4-3.7,3.9l-0.5-0.4c1-1.5,2.3-2.9,3.8-4L46.7,44.4z M42.4,47.8l-0.6-0.4c1.1-1.6,2.5-3,4-4.2l0.4,0.6
			C44.8,44.9,43.4,46.3,42.4,47.8L42.4,47.8z M41.7,47.6l0.6,0.4c-1,1.5-1.8,3.2-2.4,5l-0.7-0.2c0.1-0.2,0.1-0.4,0.2-0.7l0,0
			c0.1-0.2,0.2-0.4,0.2-0.7l0,0C40.2,50.1,40.9,48.8,41.7,47.6L41.7,47.6z M40,53.2l0.6,0.2c-0.5,1.7-0.7,3.5-0.7,5.3h-0.7
			C39.2,56.8,39.5,55,40,53.2z M39.9,58.9c0.1,1.8,0.4,3.5,1,5.2l-0.6,0.2c-0.6-1.7-0.9-3.6-1-5.4L39.9,58.9z M42.8,69.4l-0.5,0.4
			v-0.1l-0.2-0.2c-0.1-0.2-0.2-0.3-0.3-0.5l-0.2-0.3l-0.3-0.5L41.2,68l-0.4-0.7l-0.1-0.2c-0.1-0.2-0.2-0.4-0.3-0.6l-0.1-0.3
			c-0.2,0-0.3-0.2-0.3-0.4l-0.1-0.2c-0.1-0.3-0.2-0.5-0.3-0.8l0.7-0.2C40.8,66.3,41.7,67.9,42.8,69.4z M39.6,65.6l0.1,0.2l0.3,0.6
			c0,0.1,0.1,0.2,0.1,0.3s0.2,0.3,0.3,0.5l0.2,0.3c0.1,0.2,0.2,0.4,0.3,0.6s0.1,0.2,0.2,0.4l0.3,0.4l0.2,0.3l0.3,0.3l0.2,0.3
			l0.1,0.1l-0.5,0.4c-1.2-1.6-2.2-3.4-2.9-5.3l0.7-0.2C39.5,65.1,39.5,65.3,39.6,65.6z M41.4,70.5l-0.5,0.4c-1.3-1.7-2.3-3.6-3-5.6
			l0.7-0.2C39.2,67.1,40.2,68.9,41.4,70.5z M40.7,71l-0.5,0.4c-1.4-1.8-2.4-3.7-3.2-5.8l0.7-0.2C38.4,67.4,39.4,69.3,40.7,71
			L40.7,71z M40.1,71.6L39.5,72c-1.4-1.8-2.5-3.9-3.3-6.1l0.7-0.2C37.6,67.8,38.7,69.8,40.1,71.6z M39.4,72.1l-0.6,0.4
			c-1.5-1.9-2.6-4-3.4-6.3L36,66C36.8,68.2,38,70.2,39.4,72.1z M38.7,72.6L38.2,73c-1.5-2-2.7-4.2-3.5-6.5l0.7-0.2
			C36,68.6,37.2,70.7,38.7,72.6z M38,73.2l-0.5,0.4c-1.6-2.1-2.8-4.3-3.7-6.8l0.7-0.2C35.3,69,36.5,71.2,38,73.2L38,73.2z
			 M38.1,73.3c1.5,2,3.4,3.7,5.5,5.1L43.1,79c-2.1-1.5-4-3.2-5.6-5.3L38.1,73.3z M43.7,78.6c2.1,1.4,4.4,2.5,6.8,3.2l-0.2,0.7
			c-2.5-0.7-4.9-1.9-7-3.3L43.7,78.6z M50.6,81.8c2.4,0.7,4.9,1.1,7.4,1v0.7c-2.6,0.1-5.2-0.3-7.6-1L50.6,81.8z M58,76.7
			c1.9,0,3.7-0.4,5.5-1l0.2,0.7c-0.6,0.2-1.2,0.4-1.7,0.5h-0.1c-0.9,0.2-1.8,0.4-2.7,0.4h-0.1l-0.8,0.1h-0.2v-0.2L58,76.7z
			 M58.2,77.5h0.3l0.7-0.1h0.2c0.6-0.1,1.2-0.1,1.8-0.3h0.1c0.3,0,0.5-0.1,0.8-0.2h0.1c0.6-0.2,1.2-0.3,1.7-0.5l0.2,0.7
			c-1.9,0.7-4,1.1-6,1.1v-0.7H58.2z M64.1,77.3l0.2,0.7c-2,0.7-4.1,1.1-6.2,1.2v-0.7C60.2,78.4,62.2,78,64.1,77.3z M64.4,78.1
			l0.2,0.7c-2.1,0.7-4.3,1.1-6.5,1.2v-0.7C60.3,79.2,62.4,78.8,64.4,78.1z M64.5,77.9l-0.2-0.7c1.9-0.7,3.7-1.7,5.4-2.9l0.4,0.6
			C68.4,76.2,66.5,77.2,64.5,77.9z M64.2,77.1L64,76.4c1.8-0.7,3.6-1.6,5.1-2.8l0.4,0.6C67.9,75.4,66.2,76.4,64.2,77.1z M63.4,65.9
			L63.4,65.9c0.8-0.6,1.4-1.3,2-2.1l7.8,5.3c-1.1,1.6-2.5,3-4,4.2L63.4,65.9z M72.7,68.6c1-1.5,1.9-3.2,2.4-5l0.7,0.2
			c-0.6,1.8-1.4,3.6-2.5,5.2L72.7,68.6z M74.3,63.2c0.5-1.7,0.7-3.5,0.7-5.3h0.3h1.2c0,1.9-0.2,3.9-0.8,5.8L74.3,63.2z M76.5,57.7
			h-0.7c0-1.9-0.4-3.7-1-5.5l0.7-0.2C76.1,53.8,76.5,55.8,76.5,57.7L76.5,57.7z M72.6,52.8L72.6,52.8l-0.3,0.1
			C71.8,51.4,71,50,70,48.7l0.2-0.2l2.4-1.8c1.2,1.5,2.1,3.3,2.8,5.1L72.6,52.8z M70.2,48.4L70.2,48.4l-0.3,0.2
			c-1-1.3-2.1-2.4-3.5-3.3l0.2-0.4l0,0l1.6-2.3c1.6,1.1,3,2.5,4.2,4L70.2,48.4z M66.3,45.2c-1.3-0.9-2.8-1.6-4.3-2v-0.1l0,0l0.9-3
			c1.9,0.6,3.6,1.4,5.2,2.5L66.3,45.2z M61.9,43.1c-1.5-0.4-3.1-0.7-4.7-0.6v-0.3l0,0l-0.2-3c1.9,0,3.9,0.2,5.8,0.8L61.9,43.1z
			 M57,46c-1.2,0-2.4,0.3-3.6,0.7L53.2,46c1.2-0.4,2.5-0.7,3.8-0.7V46z M53.1,45.8l-0.2-0.7c1.3-0.5,2.7-0.7,4.1-0.8V45
			C55.7,45.2,54.4,45.4,53.1,45.8z M52.9,45l-0.2-0.7c1.4-0.5,2.9-0.7,4.4-0.8v0.7C55.6,44.3,54.2,44.5,52.9,45z M52.6,44.2
			l-0.2-0.7c1.5-0.5,3.1-0.8,4.7-0.9v0.7C55.5,43.4,54,43.7,52.6,44.2L52.6,44.2z M52.3,43.3l-0.1-0.2l0,0l-1-2.9
			c1.8-0.6,3.8-1,5.7-1.1l0.1,3.3C55.4,42.5,53.8,42.8,52.3,43.3L52.3,43.3z M51.3,41c-1.8,0.6-3.4,1.5-4.9,2.7L46,43.1
			c1.5-1.2,3.2-2.1,5-2.7L51.3,41z M45.8,43l-0.4-0.5c1.6-1.2,3.4-2.2,5.3-2.9l0.2,0.7C49.1,40.9,47.4,41.8,45.8,43z M45.3,42.3
			l-0.4-0.6c1.7-1.3,3.6-2.3,5.6-3l0.2,0.7C48.7,40.1,46.9,41.1,45.3,42.3L45.3,42.3z M44.7,41.6L44.3,41c1.8-1.3,3.7-2.4,5.8-3.2
			l0.2,0.7C48.3,39.2,46.4,40.3,44.7,41.6L44.7,41.6z M44.2,40.9l-0.4-0.6c1.8-1.4,3.8-2.5,6-3.3l0.2,0.7
			C47.9,38.5,46,39.6,44.2,40.9L44.2,40.9z M43.7,40.2l-0.4-0.5c1.9-1.5,4-2.6,6.3-3.4l0.2,0.7C47.6,37.7,45.5,38.8,43.7,40.2
			L43.7,40.2z M43.1,39.5L42.7,39c2-1.5,4.2-2.7,6.5-3.5l0.2,0.7C47.2,36.9,45.1,38.1,43.1,39.5L43.1,39.5z M42.6,38.8l-0.4-0.6
			c2.1-1.6,4.4-2.8,6.8-3.7l0.2,0.7C46.9,36.1,44.6,37.3,42.6,38.8L42.6,38.8z M42.5,38.9c-2,1.5-3.7,3.4-5.1,5.5L36.7,44
			c1.5-2.1,3.3-4,5.3-5.6L42.5,38.9z M37.2,44.5c-1.4,2.1-2.5,4.3-3.2,6.7L33.3,51c0.7-2.5,1.9-4.9,3.3-7L37.2,44.5z M37.4,44.6
			L38,45c-0.7,1-1.3,2-1.8,3.1s-0.9,2.2-1.3,3.4l-0.6-0.2C34.9,49,36,46.7,37.4,44.6L37.4,44.6z M38.1,45.1l0.6,0.4
			c-1.3,1.9-2.3,4-3,6.3L35,51.6C35.7,49.3,36.7,47.1,38.1,45.1L38.1,45.1z M38.8,45.6l0.6,0.4c-1.3,1.8-2.2,3.9-2.9,6l-0.7-0.2
			C36.5,49.6,37.5,47.5,38.8,45.6L38.8,45.6z M39.5,46.1l0.5,0.4c-0.6,0.9-1.1,1.8-1.6,2.8s-0.8,2-1.2,3l-0.6-0.2
			C37.3,50,38.3,47.9,39.5,46.1L39.5,46.1z M40.2,46.6l0.6,0.4c-1.2,1.7-2,3.6-2.6,5.5l-0.7-0.2C38.1,50.3,39.1,48.4,40.2,46.6
			L40.2,46.6z M41,47.1l0.6,0.4c-0.1,0.2-0.2,0.4-0.3,0.5l-0.1,0.1l-0.3,0.5l-0.1,0.2c-0.1,0.2-0.2,0.3-0.3,0.5l-0.2,0.3
			c-0.1,0.1-0.1,0.3-0.2,0.4s-0.1,0.2-0.2,0.4s-0.1,0.2-0.2,0.4l-0.2,0.5l-0.1,0.3L39.3,52l-0.1,0.3c-0.1,0.2-0.1,0.3-0.2,0.5
			l-0.6-0.2C39,50.6,39.8,48.8,41,47.1L41,47.1z M39.2,53l0.7,0.2c-0.5,1.8-0.8,3.7-0.7,5.5h-0.7C38.4,56.8,38.6,54.9,39.2,53z
			 M39.1,58.9c0.1,1.9,0.4,3.7,1,5.5l-0.7,0.2c-0.1-0.3-0.2-0.5-0.3-0.8L39,63.5V63l-0.1-0.4c0-0.2-0.1-0.3-0.1-0.5
			s-0.1-0.2-0.1-0.4s-0.1-0.5-0.1-0.7l-0.1-0.5c0-0.1,0-0.3,0-0.4s0-0.3,0-0.5s0-0.2,0-0.3v-0.5L39.1,58.9z M38.5,65l-0.7,0.2
			c-0.7-2-1.1-4.1-1.2-6.2h0.7C37.4,61,37.8,63.1,38.5,65z M37.6,65.3L37,65.5c-0.7-2.1-1.1-4.3-1.2-6.5h0.7
			C36.5,61.1,36.9,63.2,37.6,65.3L37.6,65.3z M36.8,65.6l-0.7,0.2c-0.8-2.2-1.2-4.5-1.3-6.8h0.7C35.7,61.2,36.1,63.4,36.8,65.6
			L36.8,65.6z M36,65.9l-0.7,0.2C34.5,63.8,34,61.4,34,59h0.7C34.8,61.3,35.2,63.6,36,65.9L36,65.9z M35.2,66.2l-0.7,0.2
			c-0.8-2.4-1.3-4.8-1.4-7.3h0.7C33.9,61.5,34.4,63.9,35.2,66.2L35.2,66.2z M34.3,66.5l-0.7,0.2c-0.9-2.4-1.3-5-1.4-7.6H33
			C33.1,61.6,33.5,64.1,34.3,66.5L34.3,66.5z M34,67.9l0.2,0.3c0.1,0.2,0.2,0.5,0.3,0.7l0.2,0.4c0.1,0.2,0.2,0.4,0.3,0.7
			s0.1,0.3,0.2,0.4c0.2,0.3,0.3,0.6,0.5,0.9l0.3,0.5c0.1,0.2,0.2,0.3,0.3,0.4c0.1,0.2,0.2,0.4,0.4,0.5c0.1,0.1,0.2,0.2,0.2,0.3
			l0.4,0.6l0,0l-2.6,2c-1.8-2.3-3.2-4.9-4.2-7.7l3.1-1.1C33.7,67.2,33.8,67.6,34,67.9z M37.4,73.8L37.4,73.8
			c1.6,2.1,3.5,3.9,5.6,5.3l-1.9,2.7c-2.4-1.7-4.6-3.7-6.4-6L37.4,73.8z M43.2,79.3L43.2,79.3c2.1,1.5,4.5,2.6,7,3.3l-0.9,3.2
			c-2.8-0.9-5.5-2.1-8-3.8L43.2,79.3z M50.4,82.7L50.4,82.7c1.2,0.4,2.4,0.6,3.7,0.8h0.2c0.3,0,0.5,0.1,0.8,0.1h0.2
			c0.8,0.1,1.6,0.1,2.4,0.1h0.4l0.1,3.4c-3,0.1-5.9-0.3-8.7-1.2L50.4,82.7z M58.2,80.2c2.2-0.1,4.4-0.5,6.5-1.2l0.2,0.7
			c-2.2,0.8-4.5,1.2-6.8,1.3L58.2,80.2z M65,79.8l0.2,0.7c-2.3,0.8-4.6,1.2-7,1.3V81C60.6,81,62.8,80.5,65,79.8L65,79.8z M65.3,80.6
			l0.2,0.7c-2.4,0.8-4.8,1.3-7.3,1.4V82C60.7,81.9,63,81.4,65.3,80.6L65.3,80.6z M65.6,81.4l0.2,0.7c-2.4,0.9-5,1.3-7.6,1.4V83v-0.2
			C60.8,82.7,63.2,82.3,65.6,81.4L65.6,81.4z M58.4,83.7h0.3l0.9-0.1h0.3c2-0.2,4.1-0.6,6-1.3l1.1,3.1c-2.8,1-5.7,1.5-8.7,1.6
			l-0.1-3.3L58.4,83.7z M65.4,80.3L65.4,80.3l-0.2-0.6c2.2-0.8,4.2-1.9,6.1-3.3l3.6,4.7c-2.3,1.8-5,3.2-7.7,4.2L65.4,80.3z
			 M69.3,73.5c1.5-1.2,2.9-2.6,4-4.3l7.8,5.3C79.4,77,77.3,79.2,75,81L69.3,73.5z M73.7,69.3l-0.2-0.1c0.5-0.8,1-1.7,1.5-2.6
			c0.4-0.9,0.7-1.8,1-2.7l0.4,0.1l0,0l8.7,2.5c-0.8,2.8-2.1,5.5-3.8,7.9L73.7,69.3z M76,63.7c0.5-1.9,0.8-3.8,0.8-5.8l9.4-0.3
			c0.1,3-0.4,5.9-1.2,8.7L76,63.7z M82,57.5c-0.1-2.5-0.5-5-1.4-7.4l0.3-0.1l0,0l3.7-1.3c1,2.8,1.5,5.7,1.6,8.7L82,57.5z M75.6,51.8
			c-0.7-1.8-1.6-3.6-2.8-5.1l7.5-5.8c1.8,2.3,3.2,5,4.2,7.7L75.6,51.8z M72.7,46.5c-1.2-1.5-2.6-2.9-4.2-4l5.3-7.8
			c2.4,1.7,4.6,3.7,6.4,6L72.7,46.5z M68.3,42.4c-0.8-0.6-1.7-1-2.5-1.5c-0.9-0.4-1.8-0.8-2.8-1.1l2.7-9c2.8,0.8,5.5,2.1,7.9,3.8
			L68.3,42.4z M62.9,39.8C61,39.2,59,39,57,39l-0.3-9.5c3-0.1,5.9,0.3,8.7,1.2L62.9,39.8z M56.9,39c-2,0.1-3.9,0.4-5.8,1.1L48,31.2
			c2.8-1,5.7-1.5,8.7-1.6L56.9,39z M48.9,34.4L48.9,34.4L48.9,34.4c-2.5,0.9-4.8,2.1-6.8,3.7l-2-2.6c2.3-1.8,5-3.2,7.7-4.2
			L48.9,34.4z M41.9,38.2L41.9,38.2c-2.1,1.6-3.9,3.5-5.3,5.6L33.8,42c1.7-2.4,3.7-4.6,6-6.4L41.9,38.2z M36.5,44L36.5,44
			c-1.5,2.2-2.6,4.5-3.3,7L30,50c0.9-2.8,2.1-5.5,3.8-8L36.5,44z M38.7,52.8L38.7,52.8l0.3,0.1c-0.5,1.9-0.8,3.8-0.8,5.8l0,0
			L28.8,59c-0.1-3,0.3-5.9,1.1-8.7L38.7,52.8z M32.1,59.1L32.1,59.1c0,1.5,0.2,3,0.5,4.5l0.1,0.4l0.2,0.6c0,0.2,0.1,0.4,0.2,0.6
			s0.1,0.3,0.1,0.5c0.1,0.3,0.2,0.7,0.3,1l-3.1,1.1c-1-2.8-1.5-5.7-1.6-8.7L32.1,59.1z M34.5,75.8L27,81.5
			c-2.4-3.1-4.3-6.6-5.7-10.4l8.9-3.2C31.3,70.8,32.7,73.5,34.5,75.8L34.5,75.8z M34.6,76c1.8,2.4,4,4.4,6.4,6.1l-5.3,7.8
			c-3.3-2.2-6.2-5-8.6-8.1L34.6,76z M41.2,82.1c2.5,1.7,5.2,3,8,3.8l-2.7,9c-3.8-1.1-7.4-2.8-10.7-5.1L41.2,82.1z M49.4,86
			c2.9,0.8,5.8,1.2,8.8,1.2l0.3,9.4c-4,0.1-7.9-0.4-11.7-1.6L49.4,86z M58.4,87.2c3-0.1,5.9-0.6,8.7-1.6l3.2,8.9
			c-3.7,1.3-7.7,2.1-11.6,2.2L58.4,87.2z M67.3,85.5c2.8-1,5.4-2.4,7.8-4.2l5.7,7.5c-3.1,2.4-6.6,4.3-10.4,5.6L67.3,85.5z
			 M75.2,81.1c2.3-1.8,4.4-4,6.1-6.4L89,80c-2.2,3.3-5,6.2-8.1,8.6L75.2,81.1z M81.4,74.5c1.7-2.5,3-5.2,3.8-8l9,2.7
			c-1.1,3.8-2.8,7.4-5.1,10.7L81.4,74.5z M85.2,66.4c0.8-2.9,1.2-5.8,1.2-8.8l9.4-0.3c0.1,4-0.4,7.9-1.6,11.7L85.2,66.4z M86.4,57.4
			c-0.1-3-0.6-5.9-1.6-8.7l8.9-3.2c1.3,3.7,2,7.7,2.2,11.6L86.4,57.4z M84.7,48.5c-1-2.8-2.4-5.4-4.2-7.8l7.4-5.7
			c2.4,3.1,4.3,6.7,5.7,10.4L84.7,48.5z M80.4,40.6c-1.8-2.3-4-4.4-6.4-6.1l5.3-7.8c3.3,2.2,6.2,5,8.6,8.1L80.4,40.6z M73.8,34.4
			c-2.5-1.7-5.2-3-8-3.8l2.7-9c3.8,1.1,7.4,2.9,10.7,5.1L73.8,34.4z M65.6,30.5c-2.9-0.8-5.8-1.2-8.8-1.2L56.5,20
			c4-0.1,7.9,0.4,11.7,1.5L65.6,30.5z M56.6,29.4c-3,0.1-5.9,0.6-8.7,1.6l-3.2-8.9c3.7-1.3,7.7-2,11.6-2.1L56.6,29.4z M47.7,31.1
			c-2.8,1-5.4,2.4-7.8,4.2l-5.7-7.5c3.1-2.4,6.6-4.3,10.4-5.6L47.7,31.1z M39.8,35.4c-2.4,1.8-4.4,4-6.1,6.4L26,36.6
			c2.2-3.3,4.9-6.1,8.1-8.6L39.8,35.4z M33.6,42c-1.7,2.5-3,5.2-3.8,8l-9-2.7c1.1-3.8,2.8-7.4,5.1-10.7L33.6,42z M29.8,50.2
			C29,53.1,28.6,56,28.6,59l-9.4,0.3c-0.1-4,0.4-7.9,1.5-11.7L29.8,50.2z M28.6,59.2c0.1,3,0.6,5.9,1.6,8.7L21.4,71
			c-1.3-3.7-2.1-7.7-2.2-11.6L28.6,59.2z M30.3,97.8c-4.1-2.8-7.7-6.3-10.8-10.2l7.4-5.7c2.4,3.2,5.3,5.9,8.6,8.2L30.3,97.8z
			 M43.8,104.2c-4.8-1.4-9.3-3.6-13.4-6.4l5.3-7.7c1.6,1.1,3.4,2.1,5.2,3s3.6,1.6,5.5,2.1L43.8,104.2z M44,104.2l2.7-9
			c3.8,1.1,7.8,1.6,11.8,1.5l0.3,9.4C53.7,106.3,48.8,105.6,44,104.2L44,104.2z M58.9,106.2l-0.3-9.4c4-0.1,7.9-0.9,11.7-2.2
			l3.2,8.9C68.7,105.1,63.8,106,58.9,106.2L58.9,106.2z M73.6,103.4l-3.2-8.9c3.7-1.3,7.3-3.2,10.4-5.7l5.7,7.4
			C82.6,99.3,78.3,101.7,73.6,103.4L73.6,103.4z M86.7,96.2L81,88.8c3.2-2.4,5.9-5.3,8.2-8.6l7.7,5.3C94.1,89.5,90.6,93.2,86.7,96.2
			L86.7,96.2z M97,85.3L89.3,80c1.1-1.6,2.1-3.4,3-5.2c0.9-1.8,1.6-3.6,2.1-5.6l9,2.7C102,76.7,99.8,81.2,97,85.3z M103.4,71.8
			l-9-2.7c1.1-3.8,1.7-7.8,1.6-11.8l9.4-0.3C105.5,62.1,104.8,67,103.4,71.8L103.4,71.8z M105.4,56.9L96,57.2
			c-0.1-4-0.9-7.9-2.2-11.7l8.9-3.2C104.3,47,105.2,52,105.4,56.9L105.4,56.9z M102.6,42.2l-8.9,3.2c-1.3-3.7-3.2-7.3-5.7-10.4
			l7.4-5.7C98.5,33.1,100.9,37.5,102.6,42.2L102.6,42.2z M95.4,29L88,34.7c-2.4-3.2-5.3-5.9-8.6-8.2l5.3-7.7
			C88.7,21.7,92.4,25.1,95.4,29z M84.5,18.8l-5.3,7.7c-3.3-2.2-6.9-4-10.7-5.1l2.7-9C75.9,13.8,80.4,16,84.5,18.8z M71,12.4l-2.7,9
			c-3.8-1.1-7.8-1.6-11.8-1.5l-0.3-9.4C61.3,10.3,66.2,11,71,12.4z M56.1,10.4l0.3,9.4c-4,0.1-7.9,0.9-11.7,2.2l-3.2-8.9
			C46.2,11.5,51.1,10.6,56.1,10.4z M41.4,13.2l3.2,8.9c-3.8,1.3-7.3,3.2-10.4,5.6l-5.7-7.4C32.3,17.3,36.7,14.9,41.4,13.2z
			 M28.2,20.4l5.7,7.4c-3.2,2.4-5.9,5.3-8.2,8.6L18,31.1C20.9,27.1,24.3,23.4,28.2,20.4z M18,31.3l7.7,5.3c-1.1,1.6-2.1,3.4-3,5.2
			s-1.6,3.7-2.1,5.6l-9-2.7C13,39.9,15.2,35.4,18,31.3z M11.5,44.8l9,2.7c-1.1,3.8-1.6,7.8-1.5,11.8l-9.4,0.3
			C9.5,54.5,10.1,49.6,11.5,44.8z M9.6,59.7l9.4-0.3c0.1,4,0.9,7.9,2.2,11.7l-8.9,3.2C10.7,69.6,9.7,64.6,9.6,59.7z"/>
	</g>
</g>
</svg>
