<?xml version="1.0" encoding="utf-8"?>
<!-- Generator: Adobe Illustrator 23.0.6, SVG Export Plug-In . SVG Version: 6.00 Build 0)  -->
<svg version="1.1" id="Layer_1" xmlns="http://www.w3.org/2000/svg" xmlns:xlink="http://www.w3.org/1999/xlink" x="0px" y="0px"
	 viewBox="0 0 111.4 111.4" style="enable-background:new 0 0 111.4 111.4;" xml:space="preserve">
<style type="text/css">
	.st0{fill:#FFFFFF;}
</style>
<title>Asset 119</title>
<g>
	<g id="_Layer_">
		<path class="st0" d="M36.2,101.9c25.5,10.8,55-1.2,65.8-26.7s-1.2-55-26.7-65.8c-6.2-2.6-12.8-4-19.5-4C28,5.5,5.5,28,5.5,55.7
			C5.5,75.9,17.6,94.1,36.2,101.9z M8.2,55.7c0-26.2,21.3-47.5,47.5-47.4c19.1,0,36.3,11.4,43.7,29c9.8,24.3-2,52-26.3,61.8
			c-23.7,9.6-50.8-1.4-61.2-24.8C9.5,68.3,8.2,62.1,8.2,55.7z"/>
		<path class="st0" d="M38.3,96.9c22.7,9.6,49-1,58.6-23.8s-1-49-23.8-58.6c-11.1-4.7-23.7-4.7-34.8,0C15.5,24.1,4.9,50.4,14.5,73.1
			c2.2,5.3,5.5,10.1,9.6,14.2C28.2,91.4,33,94.6,38.3,96.9z M13.7,55.7c0-23.2,18.9-42,42.1-41.9c11.1,0,21.7,4.4,29.6,12.2
			c16.5,16.3,16.6,42.9,0.3,59.4S42.8,102,26.3,85.7c-3.9-3.9-7.1-8.6-9.2-13.7C14.9,66.8,13.7,61.3,13.7,55.7z"/>
		<path class="st0" d="M40.4,91.8C60.4,100.3,83.4,91,91.8,71S91,28.1,71.1,19.6s-42.9,0.8-51.4,20.8c-6.2,14.7-2.9,31.7,8.3,43
			C31.6,87,35.8,89.9,40.4,91.8z M19.2,55.7c0-20.1,16.3-36.5,36.5-36.5s36.5,16.3,36.5,36.5c0,20.1-16.3,36.5-36.5,36.5
			c-14.6,0-27.9-8.8-33.6-22.3C20.2,65.4,19.2,60.6,19.2,55.7z"/>
		<path class="st0" d="M42.6,86.8c8.4,3.5,17.9,3.5,26.3,0c8.1-3.4,14.5-9.9,17.9-17.9C94,51.7,86,31.9,68.8,24.6
			s-36.9,0.8-44.2,17.9C17.4,59.7,25.4,79.5,42.6,86.8z M24.7,55.7c0-17.1,13.9-30.9,30.9-30.9c17.1,0,30.9,13.9,30.9,30.9
			S72.7,86.7,55.6,86.6c-12.4,0-23.6-7.4-28.5-18.9C25.6,63.9,24.7,59.8,24.7,55.7z"/>
		<path class="st0" d="M83.9,55.7c0-15.6-12.6-28.2-28.2-28.2S27.5,40.1,27.5,55.7s12.6,28.2,28.2,28.2
			C71.3,83.9,83.9,71.3,83.9,55.7z M30.2,55.7c0-14.1,11.4-25.5,25.5-25.5s25.5,11.4,25.5,25.5S69.8,81.2,55.7,81.2
			C41.6,81.2,30.2,69.8,30.2,55.7z"/>
		<path class="st0" d="M78.4,55.7C78.4,43.1,68.3,33,55.7,33S33,43.1,33,55.7s10.2,22.7,22.7,22.7l0,0
			C68.2,78.4,78.4,68.2,78.4,55.7z M35.7,55.7c0-11,9-20,20-20s20,9,20,20s-9,20-20,20h0C44.7,75.7,35.7,66.7,35.7,55.7z"/>
		<path class="st0" d="M72.9,55.7c0-9.5-7.7-17.2-17.2-17.2s-17.2,7.7-17.2,17.2c0,9.5,7.7,17.2,17.2,17.3c0,0,0,0,0,0
			C65.2,72.9,72.9,65.2,72.9,55.7z M41.2,55.7c0-8,6.5-14.5,14.5-14.5s14.5,6.5,14.5,14.5s-6.5,14.5-14.5,14.5c0,0,0,0,0,0
			C47.7,70.2,41.2,63.7,41.2,55.7z"/>
		<path class="st0" d="M67.4,55.7c0-6.5-5.3-11.7-11.7-11.7S44,49.2,44,55.7s5.3,11.7,11.7,11.7C62.2,67.4,67.4,62.2,67.4,55.7z
			 M46.7,55.7c0-5,4-9,9-9s9,4,9,9c0,5-4,9-9,9h0C50.7,64.7,46.7,60.7,46.7,55.7C46.7,55.7,46.7,55.7,46.7,55.7z"/>
		<path class="st0" d="M34,107c28.3,12,61-1.2,73-29.5c8.9-20.9,4.1-45.1-11.9-61.2c-21.7-21.8-57-21.8-78.7,0c0,0,0,0,0,0
			c-21.8,21.7-21.8,57,0,78.7c0,0,0,0,0,0C21.4,100.2,27.4,104.2,34,107z M2.8,55.7C2.9,26.4,26.7,2.8,56,2.9
			C77.1,3,96.2,15.7,104.5,35.1c11.4,26.9-1.2,58-28.2,69.4c-13.2,5.6-28.1,5.6-41.2,0C15.5,96.2,2.7,77,2.8,55.7z"/>
	</g>
</g>
</svg>
