<?xml version="1.0" encoding="utf-8"?>
<!-- Generator: Adobe Illustrator 23.0.6, SVG Export Plug-In . SVG Version: 6.00 Build 0)  -->
<svg version="1.1" id="Layer_1" xmlns="http://www.w3.org/2000/svg" xmlns:xlink="http://www.w3.org/1999/xlink" x="0px" y="0px"
	 viewBox="0 0 125.5 116.3" style="enable-background:new 0 0 125.5 116.3;" xml:space="preserve">
<style type="text/css">
	.st0{fill:#FFFFFF;}
</style>
<title>Asset 122</title>
<g>
	<g id="_Layer_">
		<path class="st0" d="M40.5,81.2c-1.6-1.9-3-4-4-6.3L36.3,75c1.1,2.3,2.4,4.4,4.1,6.3L40.5,81.2z"/>
		<path class="st0" d="M49.5,84.3c0.9,0.5,1.9,1,2.9,1.4l0-0.1C51.5,85.2,50.5,84.8,49.5,84.3L49.5,84.3z"/>
		<path class="st0" d="M39.1,45.1c0.6-0.7,1.2-1.3,1.8-2l-1.3-1.3c-1.2,1.2-2.2,2.4-3.2,3.7l1.5,1.1C38.2,46.1,38.6,45.6,39.1,45.1z
			"/>
		<path class="st0" d="M48.9,33c-16.9,6.8-25,26-18.2,42.9c1.3,3.1,3,6,5.1,8.6l0,0c0.4,0.5,0.8,1,1.3,1.4l0.7-0.6
			c-12-13-11.2-33.2,1.8-45.2c0.2-0.1,0.3-0.3,0.5-0.4l-0.4-0.5c2.8-2.5,5.9-4.4,9.4-5.8L48.9,33z"/>
		<path class="st0" d="M44.2,42.2L44.1,42c-8.6,6.9-12.3,18.3-9.3,28.9H35c-2.4-8.7-0.4-18.1,5.4-25C41.5,44.5,42.8,43.3,44.2,42.2z
			"/>
		<path class="st0" d="M67.4,86.5c-3.9,1-7.9,1.1-11.8,0.1v0.1c3.9,1,8,0.9,11.9-0.1h0.2v-0.1H67.4z"/>
		<path class="st0" d="M76.7,67.2c0.1-0.6,0.2-1.3,0.3-1.9h-0.1c-0.1,0.6-0.2,1.3-0.3,1.9L76.7,67.2z"/>
		<path class="st0" d="M30.5,66.4c0.3,3.8,1.4,7.6,3.1,11.1l1.7-0.8c-4.5-9.1-3.9-19.8,1.4-28.3l-1.6-1C31.5,53,29.9,59.7,30.5,66.4
			z"/>
		<path class="st0" d="M77.9,61.1l1.3-0.2c-0.1-0.7-0.2-1.3-0.4-2c-0.5-1.9-1.4-3.8-2.5-5.5L75.5,54c1.1,1.6,1.9,3.3,2.4,5.2
			c0,0.1,0.1,0.3,0.1,0.4l-0.3,0.1C77.7,60.1,77.8,60.6,77.9,61.1z"/>
		<path class="st0" d="M62,43.5c-0.7,0-1.4,0-2.1,0L60,44c0.7,0,1.3,0,2,0V43.5z"/>
		<path class="st0" d="M54.7,46.6l0.4,0.9c3.7-1.4,7.9-1.5,11.7-0.3l0.3-0.8c0.4,0.1,0.7,0.3,1.1,0.4l0.1-0.2
			c-3.7-1.5-7.7-1.8-11.6-0.8C56,46.2,55.3,46.4,54.7,46.6z"/>
		<path class="st0" d="M48,43.7L48,43.7c-1.1,0.6-2.1,1.4-3,2.3l0.1,0.1C46,45.2,47,44.4,48,43.7z"/>
		<path class="st0" d="M55.1,40.5c2.8-0.8,5.8-1,8.7-0.7v0.5c2.3,0.2,4.6,0.8,6.8,1.8l0.2-0.5c0.8,0.4,1.7,0.8,2.5,1.2
			c0.8,0.4,1.5,0.9,2.2,1.5l-0.3,0.4c6.6,4.9,10.2,12.9,9.3,21H85c-0.5,4.5-2.2,8.8-5,12.4l0.1,0.1c8.2-10.4,6.4-25.4-3.9-33.6
			c-5.9-4.7-13.8-6.3-21.1-4.3c-0.9,0.2-1.7,0.5-2.5,0.8v0.1C53.4,41,54.3,40.8,55.1,40.5z"/>
		<path class="st0" d="M87.1,56.6c-3.8-14.2-18.5-22.7-32.7-18.9c-9.5,2.6-16.9,10.2-19.1,19.8l0.5,0.1c0.6-2.5,1.5-5,2.8-7.2
			c7.2-12.5,23.3-16.8,35.8-9.6S91.2,64.1,84,76.6c-7.2,12.5-23.3,16.8-35.8,9.6c-1.9-1.1-3.6-2.4-5.1-3.9l-0.3,0.3
			c10.6,10.3,27.5,10,37.8-0.6C87,75.4,89.5,65.7,87.1,56.6z"/>
		<path class="st0" d="M95.8,86.3c-1.7,2.6-3.7,5.1-6,7.2l-0.6-0.7c-10.4,9.8-25.1,13.5-38.9,9.6l-0.3,0.9
			c-5.6-1.6-10.9-4.4-15.4-8.2c-1.5-1.3-3-2.7-4.3-4.2l-0.1,0.1c15.3,17.2,41.6,18.7,58.7,3.4c9.8-8.7,14.9-21.5,13.8-34.5
			c-0.1-1.5-0.4-3-0.7-4.5h-0.2c0.3,1.5,0.5,3,0.7,4.5c0.4,5.1-0.1,10.2-1.5,15.1l-0.9-0.3c-1.1,3.9-2.9,7.6-5.1,11L95.8,86.3z"/>
		<path class="st0" d="M96.1,65.8l-0.5-8.6c-0.5-3-1.5-5.9-2.8-8.7L92,48.9c1.7,3.7,2.8,7.6,3.2,11.7c0.1,1.8,0.1,3.5,0,5.3
			L96.1,65.8L96.1,65.8z"/>
		<path class="st0" d="M92.1,52.8l0.3-0.1c-2.3-6.7-6.8-12.5-12.7-16.5l-0.2,0.3c0.9,0.7,1.9,1.3,2.8,2.1
			C86.8,42.4,90.2,47.3,92.1,52.8z"/>
		<path class="st0" d="M99.4,46.8c-0.9-2-1.9-3.9-3.1-5.7l-0.2,0.1c1.2,1.8,2.2,3.7,3.1,5.7L99.4,46.8z"/>
		<path class="st0" d="M53.6,90v-0.2c-1.1-0.3-2.2-0.7-3.2-1.2l-0.1,0.2C51.4,89.3,52.5,89.7,53.6,90z"/>
		<path class="st0" d="M29.4,37.1L29.3,37c-1.2,1.4-2.3,3-3.3,4.6l0.1,0.1C27.1,40.1,28.2,38.6,29.4,37.1z"/>
		<path class="st0" d="M8.1,27.4C4.6,32.6,1.9,38.2,0,44.1l0.3,0.1c1.9-5.9,4.6-11.5,8.1-16.6L8.1,27.4z"/>
		<path class="st0" d="M85,77.5l-0.2-0.1c-0.8,1.3-1.6,2.5-2.6,3.7c-3.8,4.5-8.8,7.6-14.5,9v0.2C75,88.6,81.2,83.9,85,77.5z"/>
		<path class="st0" d="M94.5,70.7l0.8,0.2c0.3-1.2,0.4-2.3,0.6-3.5l-0.8-0.1C95,68.4,94.8,69.5,94.5,70.7z"/>
		<path class="st0" d="M80.7,92.4l-0.5-0.7c-3.7,2.5-7.9,4.2-12.3,5.1l0.2,0.8C72.6,96.7,76.9,94.9,80.7,92.4z"/>
		<path class="st0" d="M75.9,74.6c-5.6,7.4-15.8,9.5-23.8,4.8c-0.8-0.4-1.5-0.9-2.2-1.5l-0.2,0.3c-1.7-1.3-3.1-2.9-4.2-4.7l-0.2,0.1
			c5.6,8.9,17.3,11.5,26.1,6c1.6-1,3.1-2.3,4.3-3.7l0,0c0.2-0.3,0.5-0.6,0.7-0.8L75.9,74.6z"/>
		<path class="st0" d="M77.4,92.3L77.3,92c-3.5,1.9-7.3,3.2-11.2,3.8v0.3C70.1,95.6,73.9,94.2,77.4,92.3z"/>
		<path class="st0" d="M63.8,93.2l-0.7,0.1v-0.6c-0.9,0.1-1.8,0.1-2.6,0L60.4,95c1.2,0,2.4,0,3.6-0.1c3.5-0.3,6.9-1.2,10.1-2.6
			l-0.7-1.6C70.4,92.1,67.1,92.9,63.8,93.2z"/>
		<path class="st0" d="M23.4,46.8l-0.2-0.1c-2.8,6.4-4,13.4-3.4,20.4v0.3h0.2v-0.3C19.4,60.1,20.6,53.2,23.4,46.8z"/>
		<path class="st0" d="M90.1,79.5l-0.3-0.2c-1,1.8-2.2,3.6-3.6,5.2c-0.4,0.4-0.8,0.9-1.2,1.3l0.2,0.2C87.2,84.1,88.8,81.9,90.1,79.5
			z"/>
		<path class="st0" d="M92.7,60.8c-0.1-1.1-0.3-2.3-0.5-3.4l-1.7,0.3c0.2,1.1,0.4,2.1,0.5,3.2c0.5,5.8-0.8,11.7-3.6,16.8l1.3,0.7
			c-0.3,0.6-0.7,1.2-1,1.7l0.2,0.2C91.6,74.6,93.3,67.7,92.7,60.8z"/>
		<path class="st0" d="M88.2,69.4c1.7-7.6,0-15.6-4.5-21.9l-0.2,0.1c2.9,4,4.6,8.7,5,13.5c0.2,2.7,0.1,5.5-0.5,8.2L88.2,69.4z"/>
		<path class="st0" d="M38.5,70.7c0.7,2.2,1.7,4.3,3,6.2l0.1-0.1C40.2,74.9,39.2,72.8,38.5,70.7L38.5,70.7z"/>
		<path class="st0" d="M83.8,45.4l1.4-1.2c-1.9-2.3-4.1-4.4-6.6-6.1l-1,1.5c0.8,0.6,1.6,1.2,2.4,1.8C81.4,42.7,82.6,44,83.8,45.4z"
			/>
		<path class="st0" d="M67.7,87.6C81,84,88.8,70.4,85.3,57.1S68.1,36,54.8,39.5S33.7,56.7,37.3,70c0,0,0,0,0,0
			C40.8,83.3,54.5,91.1,67.7,87.6z M39.8,51.2c6.8-11.8,22-15.9,33.8-9.1s15.9,22,9.1,33.8c-6.8,11.8-22,15.9-33.8,9.1
			c-5.7-3.3-9.8-8.7-11.5-15C35.6,63.6,36.5,56.9,39.8,51.2z"/>
		<path class="st0" d="M53.7,37.1c-1.4,0.4-2.8,0.9-4.2,1.6l0.1,0.2c1.3-0.6,2.7-1.2,4.2-1.6L53.7,37.1z"/>
		<path class="st0" d="M44.6,25.6c3.7-1.6,7.5-2.7,11.5-3.2v-0.2c-4,0.5-7.9,1.6-11.6,3.2L44.6,25.6z"/>
		<path class="st0" d="M47.6,12.6C19.5,20.1,2.8,49,10.3,77.2s36.5,44.9,64.6,37.3c28.1-7.5,44.9-36.5,37.3-64.6c0,0,0,0,0,0
			C104.7,21.8,75.8,5.1,47.6,12.6z M87.6,18c25.2,14.6,33.8,46.8,19.2,72s-46.8,33.8-72,19.2s-33.8-46.8-19.2-72
			c7-12.1,18.5-20.9,32-24.5C61.1,9.1,75.5,11,87.6,18z"/>
		<path class="st0" d="M71,0v0.3c3.3,0.5,6.6,1.3,9.8,2.3l0.1-0.3C77.6,1.3,74.3,0.5,71,0z"/>
		<path class="st0" d="M79.2,42.8l0.1-0.1c-2.2-1.9-4.6-3.4-7.3-4.5l-0.1,0.2c2.5,1.1,4.8,2.5,6.9,4.3L79.2,42.8z"/>
		<path class="st0" d="M107.7,105.4l1.3,1.2c1.4-1.5,2.7-3.2,3.9-4.8C134,73.2,128,33,99.5,11.9c-1.9-1.4-3.9-2.7-5.9-3.9l-0.2,0.3
			c8.9,5.1,16.4,12.3,21.9,21l-1.2,0.8c3.4,5.3,5.9,11.1,7.6,17.2l1.4-0.4c0.6,2.4,1.1,4.8,1.5,7.2c0.4,2.4,0.6,4.8,0.7,7.2h-1.4
			c0.5,14.2-3.8,28.1-12.2,39.5C110.4,102.4,109.1,103.9,107.7,105.4z"/>
		<path class="st0" d="M23.4,66.8c1.8,20.9,20.2,36.4,41.2,34.6c20.9-1.8,36.4-20.2,34.6-41.2c-0.7-7.7-3.7-15-8.6-21l-0.3,0.2
			c0.7,0.8,1.3,1.7,2,2.6l-1.4,1c7.8,11.2,8.5,25.8,2,37.8l1.5,0.8c-2.2,4.1-5.2,7.7-8.7,10.6l-1.1-1.3c-5.7,4.8-12.7,7.8-20.1,8.4
			l-0.8,0.1l-0.1-0.7c-19.4,1.2-36.1-13.6-37.3-33c-0.4-6.6,1.1-13.2,4.3-19l-0.6-0.4c1.1-2.1,2.5-4.1,4-5.9
			c3.1-3.7,6.9-6.7,11.1-8.9L44.1,30c7.6-3.8,16.2-5,24.5-3.4l0.1-0.3C48.1,22.2,28.1,35.6,24,56.2C23.3,59.7,23.1,63.3,23.4,66.8
			L23.4,66.8z"/>
		<path class="st0" d="M66.9,84.7c11.7-3.1,18.6-15.1,15.5-26.8S67.3,39.3,55.6,42.4c-4.3,1.2-8.2,3.6-11.1,7l0.2,0.1
			c0.4-0.5,0.8-0.9,1.3-1.4l0.7,0.7c5.5-5.6,13.8-7.5,21.2-5l0.3-1c1.4,0.5,2.7,1.1,3.9,1.8c1.1,0.6,2.1,1.3,3,2.1l-0.6,0.8
			c3.3,2.7,5.7,6.4,6.8,10.6l0.1,0.5L81,58.7c2.7,10.9-4,21.8-14.8,24.5c-3.7,0.9-7.7,0.8-11.3-0.5l-0.1,0.4
			c-3.9-1.3-7.4-3.8-9.9-7.1L44,76.6c-2.9-3.9-4.5-8.7-4.4-13.5h-0.2c-0.2,12.1,9.4,22.1,21.4,22.3C62.9,85.4,65,85.2,66.9,84.7z"/>
		<path class="st0" d="M47.8,55.5L47.8,55.5c-0.9,1.4-1.5,2.9-1.9,4.5h0.1c0.3-1.5,0.9-3,1.7-4.3L47.8,55.5z"/>
		<path class="st0" d="M55.1,79l-0.4,1c5.7,2.3,12.3,1.5,17.3-2.2L71.3,77C66.6,80.4,60.5,81.2,55.1,79z"/>
		<path class="st0" d="M73.5,73.6L73.5,73.6c-1,1-2.1,2-3.2,2.8l0.1,0.1C71.5,75.7,72.6,74.7,73.5,73.6z"/>
		<path class="st0" d="M51.2,78c0.8,0.5,1.6,1,2.4,1.4l0.5-0.9c-0.3-0.2-0.7-0.3-1-0.5s-0.9-0.5-1.3-0.8L51.2,78z"/>
		<path class="st0" d="M65.3,78.7c-5.1,1.4-10.5,0.1-14.4-3.4l-0.1,0.1C54.8,78.9,60.3,80.2,65.3,78.7c1-0.1,1.9-0.5,2.8-0.9v-0.1
			C67.2,78.2,66.3,78.5,65.3,78.7z"/>
		<path class="st0" d="M44,55.8l0.2,0.1c0.3-0.6,0.6-1.2,0.9-1.8c1.7-2.9,4.1-5.3,7.1-7L52,47C48.5,49,45.6,52.1,44,55.8z"/>
		<path class="st0" d="M48.5,72.6c-0.5-0.7-0.9-1.4-1.3-2.2h-0.1C47.4,71.2,47.9,72,48.5,72.6L48.5,72.6z"/>
		<path class="st0" d="M48,51.9c-1.1,1.3-2.1,2.8-2.8,4.4l1,0.4c0.2-0.5,0.5-1,0.8-1.5c0.5-0.9,1.1-1.8,1.8-2.6L48,51.9z"/>
		<path class="st0" d="M66.8,48.7L66.8,48.7c0.8,0.4,1.6,0.8,2.4,1.2c2.9,1.7,5.2,4.2,6.6,7.3h0.1C74.1,53.3,70.9,50.2,66.8,48.7z"
			/>
		<path class="st0" d="M67.4,45.8c1.1,0.4,2.3,0.9,3.3,1.5l0.9,0.5l0.1-0.2c-1.3-0.9-2.7-1.6-4.2-2.1L67.4,45.8z"/>
		<path class="st0" d="M59.1,43.6l-4.8,1.1c-1.7,0.6-3.2,1.4-4.7,2.5l0.3,0.4c1.9-1.4,4-2.4,6.3-3c1-0.3,2-0.5,3-0.6L59.1,43.6
			L59.1,43.6z"/>
		<path class="st0" d="M79.9,56.2c-1-2.5-2.4-4.7-4.2-6.6L75.3,50c1.8,1.9,3.2,4.1,4.1,6.5L79.9,56.2z"/>
		<path class="st0" d="M57.2,48.2C54.5,49,52,50.4,50,52.5l0.1,0.1c3.1-3.2,7.4-4.9,11.8-4.7v-0.1C60.3,47.7,58.7,47.8,57.2,48.2z"
			/>
		<path class="st0" d="M75.9,51.5l-0.1,0.1c1.5,1.8,2.6,3.8,3.3,6l0.2-0.1C78.5,55.4,77.4,53.3,75.9,51.5z"/>
	</g>
</g>
</svg>
