<?xml version="1.0" encoding="utf-8"?>
<!-- Generator: Adobe Illustrator 23.0.6, SVG Export Plug-In . SVG Version: 6.00 Build 0)  -->
<svg version="1.1" id="Layer_1" xmlns="http://www.w3.org/2000/svg" xmlns:xlink="http://www.w3.org/1999/xlink" x="0px" y="0px"
	 viewBox="0 0 113.8 113.8" style="enable-background:new 0 0 113.8 113.8;" xml:space="preserve">
<style type="text/css">
	.st0{fill:#FFFFFF;}
</style>
<title>Asset 124</title>
<g>
	<g id="_Layer_">
		<polygon class="st0" points="66.9,91 67.7,91.8 74.9,84.5 73.4,84.5 		"/>
		<polygon class="st0" points="64.2,88.8 58.1,94.8 59.7,94.8 59.7,94.8 64.9,89.6 		"/>
		<polygon class="st0" points="94.3,84.5 94.6,84.7 94.7,84.5 		"/>
		<polygon class="st0" points="65.4,90.1 60.6,94.8 62.2,94.8 62.2,94.8 66.1,90.9 		"/>
		<polygon class="st0" points="61.7,86.3 53.2,94.8 54.8,94.8 54.7,94.8 62.5,87.1 		"/>
		<polygon class="st0" points="77.4,84.5 75.9,84.5 68.1,92.2 68.9,93 		"/>
		<path class="st0" d="M68,94l0.6-0.6l-0.8-0.8l-2.3,2.3H66C66.7,94.6,67.3,94.3,68,94z"/>
		<polygon class="st0" points="63,87.5 55.7,94.8 57.2,94.8 57.2,94.8 63.7,88.3 		"/>
		<polygon class="st0" points="82.8,94.8 84.4,94.8 84.4,94.8 92,87.2 91,86.7 		"/>
		<path class="st0" d="M17.6,51.9h11.2L21,43.8C19.5,46.3,18.4,49.1,17.6,51.9z"/>
		<polygon class="st0" points="85.3,94.8 86.9,94.8 86.9,94.8 93.6,88.1 92.6,87.6 		"/>
		<path class="st0" d="M20.5,92.9l-1.9,1.9h1.6l1.1-1.1L20.5,92.9z"/>
		<path class="st0" d="M16.3,61.5c0,8.1,2.7,16,7.8,22.4h16l-4.3-16.6h-9.6V55.7h6.3l-2.6-2.7H17.3C16.6,55.8,16.3,58.7,16.3,61.5z"
			/>
		<path class="st0" d="M19.3,91.7l-3.2,3.2h1.6l2.4-2.4C19.8,92.2,19.5,91.9,19.3,91.7z"/>
		<path class="st0" d="M18.1,90.3l-4.5,4.5h1.6l3.7-3.7C18.6,90.9,18.4,90.6,18.1,90.3z"/>
		<polygon class="st0" points="66.6,91.3 63.1,94.8 64.6,94.8 64.6,94.8 67.3,92.1 		"/>
		<path class="st0" d="M36.7,94l1.1,0.5l4-4l-0.3-1.2L36.7,94z"/>
		<polygon class="st0" points="39.9,94.8 39.9,94.8 42.3,92.4 42,91.2 38.4,94.8 38.7,94.8 		"/>
		<polygon class="st0" points="43.4,94.7 43.5,94.8 44.9,94.8 44.8,94.8 55.2,84.5 53.6,84.5 		"/>
		<polygon class="st0" points="42.9,92.8 43.2,94 52.7,84.5 51.2,84.5 		"/>
		<polygon class="st0" points="42.5,93.2 40.8,94.8 42.4,94.8 42.4,94.8 42.8,94.4 		"/>
		<polygon class="st0" points="42.4,90.8 42.7,92 50.2,84.5 48.7,84.5 		"/>
		<path class="st0" d="M43,95.3h-3.3c1.2,0.4,2.3,0.8,3.5,1.1L43,95.3z"/>
		<polygon class="st0" points="58.6,84.5 48.2,94.8 49.8,94.8 49.8,94.8 60.1,84.6 60,84.5 		"/>
		<polygon class="st0" points="62.1,85.9 62.8,86.7 65.1,84.5 63.5,84.5 		"/>
		<polygon class="st0" points="63.3,87.2 64.1,88 67.5,84.5 66,84.5 		"/>
		<polygon class="st0" points="64.5,88.5 65.3,89.2 70,84.5 68.5,84.5 		"/>
		<polygon class="st0" points="65.7,89.7 66.5,90.5 72.5,84.5 70.9,84.5 		"/>
		<polygon class="st0" points="45.8,94.8 47.3,94.8 47.3,94.8 57.6,84.5 56.1,84.5 		"/>
		<polygon class="st0" points="60.9,84.7 61.6,85.5 62.6,84.5 61,84.5 		"/>
		<polygon class="st0" points="50.7,94.8 52.3,94.8 52.3,94.8 61.3,85.8 60.5,85 		"/>
		<path class="st0" d="M27.9,35l1.5,5.7c0.2,0,0.3,0,0.5,0h0.1c2.5,0,3.8,1.4,3.9,4.2l0,0c0,2.2-0.8,3.5-2.3,4l0.8,3H38
			c1.9-2.8,4.6-5,7.7-6.3l-6-15.7l-3-0.8C33.5,30.6,30.5,32.6,27.9,35z M37.6,43.5v5.6h-1.5v-5.6c0-0.4-0.1-0.8-0.5-1
			c-0.3-0.2-0.7-0.4-1.1-0.3v-1.5c0.4,0,0.7,0.1,1.1,0.2c0.7,0.2,1.3,0.8,1.7,1.4C37.5,42.7,37.6,43.1,37.6,43.5L37.6,43.5z"/>
		<path class="st0" d="M85,9.4h-3.4c4.1,2.3,8,5.1,11.4,8.3l4.4,1.9C93.7,15.7,89.6,12.2,85,9.4z"/>
		<path class="st0" d="M94.1,18.7c1.2,1.2,2.3,2.4,3.4,3.6l1.3-1.1c-0.2-0.2-0.4-0.4-0.6-0.6L94.1,18.7z"/>
		<path class="st0" d="M63.4,20.6l9.4,3.8C69.8,22.8,66.7,21.5,63.4,20.6z"/>
		<path class="st0" d="M59,9.6l-6.6,0.1v4.2l7.5,3.5c8,1.4,15.5,4.9,21.7,10.3l5.7,2.7l-0.2,0.5l-3.7-1.5c3.5,3.4,6.5,7.4,8.8,11.8
			l9.5,3.1C95.2,25.5,78.7,12.1,59,9.6z"/>
		<path class="st0" d="M52.3,1.7c1.1,0,2.2,0,3.3,0.1l-3.3-1.4V1.7z"/>
		<path class="st0" d="M57.1,2c4.9,0.4,9.8,1.3,14.4,2.9l7.1,1C70.5,2,61.7,0,52.7,0L57.1,2z"/>
		<path class="st0" d="M73.8,5.7c2.4,0.9,4.7,2,7,3.2h3.5c-1.4-0.8-2.8-1.6-4.2-2.3L73.8,5.7z"/>
		<path class="st0" d="M37.4,28.7l2.1,0.6L39,28C38.5,28.2,37.9,28.4,37.4,28.7z"/>
		<path class="st0" d="M53.7,16.7c1.5,0,3,0.2,4.4,0.4l-5.8-2.7v1.8L53.7,16.7z"/>
		<path class="st0" d="M30.7,13.8l3.6,1.6l-1-2.7C32.4,13.1,31.6,13.5,30.7,13.8z"/>
		<path class="st0" d="M23.4,17.9l2,7.5l0.4,0.1c3.2-2.3,6.6-4.2,10.3-5.7l-1.4-3.7l-4.4-2C27.8,15.2,25.6,16.5,23.4,17.9z"/>
		<path class="st0" d="M92.5,41.8c0.4,0.8,0.8,1.6,1.1,2.4l8.9,2.5c-0.2-0.6-0.4-1.2-0.6-1.8L92.5,41.8z"/>
		<path class="st0" d="M104.4,55.8c-0.3-2.9-0.9-5.8-1.7-8.6l-8.8-2.4c1.5,3.7,2.5,7.7,2.9,11.7L104.4,55.8z"/>
		<path class="st0" d="M87.9,40.3c0.5,0.9,1,1.8,1.5,2.8l1.1,0.3c-0.4-0.9-0.9-1.8-1.4-2.7L87.9,40.3z"/>
		<path class="st0" d="M94.4,56.6c-0.5-4.4-1.7-8.7-3.5-12.7l-1.1-0.3c2,4.1,3.2,8.6,3.8,13.1L94.4,56.6z"/>
		<path class="st0" d="M29.4,51.9h2.3L31,49c-0.3,0.1-0.7,0.1-1.1,0.1h-0.1c-2.6,0-3.8-1.4-3.8-4.2l0,0c0-2.4,1-3.8,2.8-4.1
			l-1.4-5.3c-2.4,2.3-4.5,5-6.2,7.9L29.4,51.9z"/>
		<path class="st0" d="M28.3,26.7c-0.8,0.5-1.5,1-2.2,1.6l0.2,0.9c1-0.8,2-1.5,3-2.2L28.3,26.7z"/>
		<polygon class="st0" points="87.8,94.8 89.4,94.8 89.3,94.8 95.2,89 94.2,88.5 		"/>
		<path class="st0" d="M28,42.8c-0.4,0.6-0.5,1.4-0.5,2.1V45c0,1.7,0.6,2.6,2,2.6h0.9c0.1,0,0.2,0,0.3,0l-1.5-5.4
			C28.7,42.2,28.3,42.4,28,42.8z"/>
		<path class="st0" d="M40,63.7c0.9,5,4.7,8.9,9.6,10L40,63.7z"/>
		<path class="st0" d="M11.1,44.1c1-2.4,2.2-4.7,3.6-6.8l-2.4-2.5L11.1,44.1z"/>
		<path class="st0" d="M32.3,45v-0.1c0.1-0.7-0.1-1.5-0.5-2.1c-0.4-0.5-0.9-0.7-1.5-0.7h-0.6l1.4,5.3C31.9,47.2,32.3,46.4,32.3,45z"
			/>
		<path class="st0" d="M36.5,68.3l4.1,15.6h18.8l-5-5.3c-0.7,0.1-1.3,0.1-2,0.1C45.5,78.7,39.2,74.6,36.5,68.3z"/>
		<path class="st0" d="M52.3,44.3L52.3,44.3c8.5,0,15.7,6.1,17.1,14.5l18.8-1.6c-0.7-5.6-2.6-10.9-5.7-15.6l-30.1-8.3L52.3,44.3z"/>
		<path class="st0" d="M16.4,83.9h1c-8.6-13.4-8.8-30.6-0.4-44.1l-0.6-0.7C7.9,52.8,7.9,70.2,16.4,83.9z"/>
		<path class="st0" d="M52.3,20L52.3,20c14.3,0,27.6,7.4,35.2,19.5l1.3,0.4c-3.3-5.6-7.9-10.4-13.3-13.9l-15.2-6.1
			c-2.6-0.5-5.3-0.7-7.9-0.7l0,0L52.3,20z"/>
		<path class="st0" d="M67.7,33.1l10.8,3.5c-6.7-7.1-16.1-11.2-25.9-11.2l0.5,0.4l5.4,2.7h1.1v0.6L67.7,33.1z"/>
		<path class="st0" d="M52.3,32.8L82,41c-0.9-1.3-1.8-2.4-2.8-3.6l-11.7-3.8l-7.9-4v3.5h-5v-4.6h2.8l-4.6-2.3l-0.4-0.3L52.3,32.8z"
			/>
		<polygon class="st0" points="41.9,88.8 42.2,90.1 47.8,84.5 46.2,84.5 		"/>
		<path class="st0" d="M39.8,61.5c0,0.4,0,0.9,0.1,1.3l10.6,11c6.8,1.1,13.1-3.6,14.2-10.3c0-0.2,0.1-0.4,0.1-0.5L111.9,76l0.5-1.3
			v-0.1c0.9-4.3,1.4-8.7,1.4-13.1h-1.7c0,4.2-0.4,8.3-1.3,12.4l-46-12.7c-0.1-6.9-5.8-12.4-12.7-12.3C45.2,48.9,39.7,54.6,39.8,61.5
			L39.8,61.5L39.8,61.5z"/>
		<path class="st0" d="M6,55.3l1.4,13.4l0.4-2.9c-0.1-1.4-0.2-2.9-0.2-4.3v-0.1L6,55.3z"/>
		<path class="st0" d="M16.6,88.5L16,87.6L10.5,93c0.2,0.3,0.4,0.6,0.7,0.9L16.6,88.5z"/>
		<path class="st0" d="M12.7,94.8L12.7,94.8l5-5c-0.2-0.3-0.5-0.6-0.7-0.9l-5.4,5.4l0.4,0.5H12.7z"/>
		<path class="st0" d="M15.6,87l-0.6-0.9l-5.4,5.5l0.6,0.9L15.6,87z"/>
		<path class="st0" d="M14.6,85.5c-0.2-0.3-0.4-0.6-0.6-0.9l-5.5,5.5c0.2,0.3,0.4,0.6,0.6,0.9L14.6,85.5z"/>
		<path class="st0" d="M13.1,84.5h-1.6l-4,4c0.2,0.3,0.4,0.6,0.6,1L13.1,84.5z"/>
		<path class="st0" d="M92.3,95.3H81.7c-1.9,1.7-4,3.2-6.2,4.5l5.3,5.6C85.1,102.6,88.9,99.2,92.3,95.3z"/>
		<path class="st0" d="M52.3,113.8c4.4,0,8.8-0.6,13-1.7l0.2-0.2h0.5c5-1.4,9.8-3.5,14.3-6.3l-5.3-5.6c-8.6,5.1-18.7,7.1-28.7,5.8
			l2,7.8C49.7,113.8,51,113.8,52.3,113.8z"/>
		<path class="st0" d="M47.8,113.6l-2-7.8c-8.5-1.2-16.4-4.9-22.8-10.5H12.4C21.3,105.8,34.1,112.4,47.8,113.6z"/>
		<path class="st0" d="M96.4,89.7l-0.6-0.3l-5.5,5.5h1.6l3.4-3.4C95.7,90.8,96,90.3,96.4,89.7z"/>
		<polygon class="st0" points="30.6,53.1 32.6,55.2 32,53.1 		"/>
		<path class="st0" d="M33.3,55.7h2.9c0.3-0.9,0.7-1.8,1.2-2.7h-4.8L33.3,55.7z"/>
		<path class="st0" d="M16.7,38.6l0.6,0.7c1.6-2.6,3.5-4.9,5.6-7.1c0.9-0.9,1.9-1.8,2.9-2.6l-0.2-0.9C22.2,31.5,19.2,34.9,16.7,38.6
			z"/>
		<path class="st0" d="M5.8,85.4c0.2,0.3,0.3,0.7,0.5,1l1.9-1.9H6.7L5.8,85.4L5.8,85.4z"/>
		<path class="st0" d="M7.7,70.8l0.2,1.8l2.7,5c-1.2-3.1-2.1-6.4-2.6-9.7L7.7,70.8z"/>
		<path class="st0" d="M10.7,84.5H9.1L6.6,87c0.2,0.3,0.4,0.7,0.6,1L10.7,84.5z"/>
		<polygon class="st0" points="13.4,83.9 7.4,72.8 6,83.9 		"/>
		<path class="st0" d="M8.3,33.2L4.7,43.5l0.9,8.4l2,7.7c0.2-4.7,1.1-9.3,2.8-13.7l1.5-11.7l-2.5-2.6C9,32.2,8.6,32.7,8.3,33.2z"/>
		<polygon class="st0" points="3.9,45.6 4.7,48.6 4.3,44.5 		"/>
		<path class="st0" d="M4.5,42.3l2.5-7c-1,1.7-1.9,3.5-2.7,5.3L4.5,42.3z"/>
		<path class="st0" d="M55,78.5l5.2,5.4h20.4c0.5-0.7,1-1.3,1.5-2.1l-16.7-9.2C62.8,75.8,59.1,77.9,55,78.5z"/>
		<path class="st0" d="M3.3,43.2l0.4,1.5l0.5-1.3L4,41.5C3.7,42.1,3.5,42.6,3.3,43.2z"/>
		<polygon class="st0" points="5.4,84.5 5.3,84.5 5.4,84.6 		"/>
		<polygon class="st0" points="95.7,84.5 95.2,85 96.2,85.6 97.2,84.5 		"/>
		<path class="st0" d="M0.6,53.4l2.8-7.8L3,44C1.9,47,1.1,50.2,0.6,53.4z"/>
		<path class="st0" d="M0,61.5c0,7.7,1.7,15.4,5,22.4h0.4l1.7-13.1L5.1,52l-1.5-5.6l-3.3,9.3C0.1,57.6,0,59.6,0,61.5z"/>
		<path class="st0" d="M102.7,75.7l-7.3-2.1c-0.9,3.3-2.2,6.5-3.9,9.4l1.5,0.8h6.5C100.9,81.2,101.9,78.5,102.7,75.7z"/>
		<path class="st0" d="M98.9,85.3c0.1-0.2,0.2-0.5,0.4-0.8h-1.2l-1.4,1.4l1,0.6L98.9,85.3z"/>
		<path class="st0" d="M28.8,26.3l1.1,0.3c2.3-1.5,4.7-2.7,7.2-3.7l-0.3-0.8C34,23.2,31.3,24.6,28.8,26.3z"/>
		<path class="st0" d="M16.9,23l7.9,2.2l-1.8-7C20.8,19.6,18.8,21.2,16.9,23z"/>
		<path class="st0" d="M9.6,31.2l2.3,2.4l0.6-4.3h-0.1l-0.7-0.9C11,29.4,10.3,30.3,9.6,31.2z"/>
		<path class="st0" d="M12.6,28.7l0.2-1.4L12.1,28L12.6,28.7z"/>
		<path class="st0" d="M13.3,26.6l-1,7.5l2.7,2.7c2.7-4.1,6.1-7.7,10-10.8l-0.1-0.3l-8.5-2.3C15.4,24.5,14.3,25.5,13.3,26.6z"/>
		<path class="st0" d="M78.3,84.5L69.9,93c1.6-0.9,3.2-1.9,4.6-3.1l5.4-5.4L78.3,84.5z"/>
		<path class="st0" d="M37.9,84.5h-1.5l-5.7,5.7l0.9,0.7L37.9,84.5z"/>
		<path class="st0" d="M21.2,88.8c-0.2-0.3-0.5-0.6-0.7-0.8l-0.6,0.6c0.2,0.3,0.5,0.6,0.7,0.8L21.2,88.8z"/>
		<path class="st0" d="M67.4,69.7l16.5,9.1c1.3-2.4,2.4-5,3.1-7.7L69,65.9C68.6,67.2,68.1,68.5,67.4,69.7z"/>
		<path class="st0" d="M18.8,87.2c0.2,0.3,0.5,0.6,0.7,0.9l0.6-0.6c-0.2-0.3-0.5-0.6-0.7-0.9L18.8,87.2z"/>
		<path class="st0" d="M32.9,84.5h-1.5L27.9,88c0.3,0.3,0.5,0.5,0.8,0.7L32.9,84.5z"/>
		<path class="st0" d="M17.3,85.3l0.6-0.6l-0.1-0.1h-1C17,84.8,17.2,85,17.3,85.3z"/>
		<path class="st0" d="M22.4,90.1c-0.3-0.3-0.5-0.5-0.8-0.8L21,89.9c0.2,0.3,0.5,0.5,0.8,0.8L22.4,90.1z"/>
		<path class="st0" d="M25,85l0.5-0.5h-0.9C24.8,84.7,24.9,84.8,25,85z"/>
		<path class="st0" d="M36.1,93.7l5.2-5.2L41,87.3l-5.9,5.9L36.1,93.7z"/>
		<path class="st0" d="M33.5,92.2c0.3,0.2,0.7,0.4,1,0.6l6.3-6.3l-0.3-1.2L33.5,92.2z"/>
		<polygon class="st0" points="40.9,84.9 41.2,86.1 42.8,84.5 41.3,84.5 		"/>
		<path class="st0" d="M28,84.5h-1.6l-1,1c0.2,0.3,0.5,0.5,0.7,0.8L28,84.5z"/>
		<path class="st0" d="M19,86.1c-0.2-0.3-0.4-0.6-0.6-0.9l-0.6,0.6c0.2,0.3,0.4,0.6,0.6,0.9L19,86.1z"/>
		<path class="st0" d="M38.8,84.5L32,91.3c0.3,0.2,0.6,0.4,0.9,0.6l7.3-7.3v-0.1L38.8,84.5z"/>
		<path class="st0" d="M30.4,84.5h-1.5l-2.3,2.3l0.8,0.8L30.4,84.5z"/>
		<path class="st0" d="M35.4,84.5h-1.5l-4.6,4.6c0.3,0.2,0.6,0.5,0.9,0.7L35.4,84.5z"/>
		<polygon class="st0" points="41.4,86.9 41.7,88.1 45.3,84.5 43.7,84.5 		"/>
		<path class="st0" d="M77.7,95.3h-1.4c-1,0.7-2.1,1.4-3.2,2.1l0.6,0.6C75.1,97.2,76.4,96.3,77.7,95.3z"/>
		<polygon class="st0" points="76.9,94.8 77,94.8 77,94.8 77.2,94.7 		"/>
		<path class="st0" d="M86.8,85.9l-8.9,8.9h0.4C81.6,92.3,84.4,89.3,86.8,85.9z"/>
		<path class="st0" d="M86.8,84.5c-0.4,0.7-0.9,1.3-1.3,1.9l1.8-1.8L87,84.5H86.8z"/>
		<path class="st0" d="M90.4,86.4L89.8,86c-0.9,1.3-1.8,2.5-2.8,3.7L90.4,86.4z"/>
		<path class="st0" d="M21.7,94.2L21,94.8h1.5L21.7,94.2z"/>
		<path class="st0" d="M92.2,72.6c-0.9,3.1-2.1,6-3.6,8.8l0.8,0.4c1.6-2.8,2.8-5.9,3.7-9L92.2,72.6z"/>
		<path class="st0" d="M24.9,92.5l-0.8-0.7l-0.6,0.6c0.3,0.3,0.5,0.5,0.8,0.7L24.9,92.5z"/>
		<path class="st0" d="M23.6,91.3L23,90.8l-0.2-0.2l-0.6,0.6L23,92L23.6,91.3z"/>
		<path class="st0" d="M26.2,93.7L25.4,93l-0.6,0.6l0.8,0.7L26.2,93.7z"/>
		<path class="st0" d="M44.9,102.2c-5.9-1.1-11.5-3.5-16.5-6.9h-1.5c5.3,4,11.6,6.7,18.2,7.9L44.9,102.2z"/>
		<path class="st0" d="M64.9,95.3H43.6l0.3,1.2C50.9,98.2,58.2,97.8,64.9,95.3L64.9,95.3z"/>
		<path class="st0" d="M52.3,103.8c7.3,0,14.5-1.9,20.9-5.5l-0.6-0.6c-6.2,3.5-13.2,5.3-20.3,5.3c-2.3,0-4.6-0.2-6.9-0.6l0.2,0.9
			C47.9,103.6,50.1,103.8,52.3,103.8z"/>
		<path class="st0" d="M27.5,94.8L27.5,94.8L27.5,94.8c-0.2-0.3-0.5-0.5-0.8-0.8l-0.6,0.6l0.2,0.2L27.5,94.8z"/>
	</g>
</g>
</svg>
