<?xml version="1.0" encoding="utf-8"?>
<!-- Generator: Adobe Illustrator 23.0.6, SVG Export Plug-In . SVG Version: 6.00 Build 0)  -->
<svg version="1.1" id="Layer_1" xmlns="http://www.w3.org/2000/svg" xmlns:xlink="http://www.w3.org/1999/xlink" x="0px" y="0px"
	 viewBox="0 0 108.4 107.6" style="enable-background:new 0 0 108.4 107.6;" xml:space="preserve">
<style type="text/css">
	.st0{fill:#FFFFFF;}
	.st1{fill:#B5E0A5;}
</style>
<title>Asset 111</title>
<g>
	<g id="_Layer_">
		<path class="st0" d="M86.6,66.3c1.9-5.2,2.5-10.8,1.8-16.3h-0.2c0.7,5.5,0.1,11.1-1.8,16.3L86.6,66.3z"/>
		<polygon class="st0" points="108.3,47.8 88.1,50.3 88.2,50.5 108.4,48 		"/>
		<polygon class="st0" points="99.3,51.1 88.3,52 88.3,52.1 99.3,51.3 		"/>
		
			<rect x="88.4" y="53.5" transform="matrix(0.9996 -2.670036e-02 2.670036e-02 0.9996 -1.3963 2.526)" class="st0" width="11" height="0.2"/>
		<polygon class="st0" points="88.4,55.3 88.4,55.4 99.4,55.7 99.4,55.5 		"/>
		<polygon class="st0" points="88.3,56.9 88.3,57.1 99.3,57.9 99.3,57.7 		"/>
		<polygon class="st0" points="88.2,58.6 88.2,58.8 104.1,60.7 104.1,60.5 		"/>
		<polygon class="st0" points="87.9,60.2 87.9,60.4 98.8,62.2 98.8,62.1 		"/>
		<rect x="92.9" y="57.6" transform="matrix(0.2185 -0.9758 0.9758 0.2185 11.078 140.0645)" class="st0" width="0.1" height="11"/>
		<polygon class="st0" points="87.2,63.5 87.2,63.6 97.8,66.5 97.8,66.4 		"/>
		<polygon class="st0" points="86.8,65.1 86.7,65.2 97.2,68.6 97.2,68.5 		"/>
		<path class="st0" d="M86.6,66.3l-0.2-0.1c-1.9,5.2-5,9.9-9.1,13.6l0.2,0.2C81.5,76.3,84.7,71.6,86.6,66.3z"/>
		<polygon class="st0" points="86.3,66.5 86.2,66.7 105.2,73.9 105.3,73.7 		"/>
		
			<rect x="90.8" y="64.6" transform="matrix(0.3987 -0.9171 0.9171 0.3987 -9.6105 125.4948)" class="st0" width="0.1" height="11"/>
		
			<rect x="89.7" y="66.6" transform="matrix(0.4445 -0.8958 0.8958 0.4445 -14.7012 120.5127)" class="st0" width="0.1" height="11"/>
		<polygon class="st0" points="84.2,71.1 84.1,71.2 93.7,76.5 93.8,76.4 		"/>
		<rect x="87.9" y="70" transform="matrix(0.5265 -0.8502 0.8502 0.5265 -22.5321 110.5033)" class="st0" width="0.2" height="11"/>
		<polygon class="st0" points="82.4,73.9 82.3,74 95.5,83.2 95.7,83 		"/>
		<rect x="85.7" y="73.1" transform="matrix(0.6065 -0.7951 0.7951 0.6065 -28.7825 99.128)" class="st0" width="0.1" height="11"/>
		
			<rect x="84.5" y="74.7" transform="matrix(0.6443 -0.7648 0.7648 0.6443 -31.2199 93.1845)" class="st0" width="0.2" height="11"/>
		<polygon class="st0" points="79.3,77.8 79.2,77.9 87.3,85.4 87.3,85.3 		"/>
		<polygon class="st0" points="78.1,79 78,79.1 85.7,86.9 85.8,86.9 		"/>
		<path class="st0" d="M77.2,79.9c-4.1,3.7-9,6.4-14.4,7.8l0.1,0.2c5.4-1.4,10.4-4.1,14.5-7.8L77.2,79.9z"/>
		<polygon class="st0" points="77,80.1 76.8,80.2 90.4,95.4 90.6,95.3 		"/>
		<polygon class="st0" points="75.7,81.2 75.6,81.3 82.5,89.8 82.6,89.7 		"/>
		<polygon class="st0" points="74.4,82.2 74.3,82.3 80.8,91.1 80.9,91.1 		"/>
		<polygon class="st0" points="73,83.1 72.9,83.2 79,92.4 79.1,92.3 		"/>
		<polygon class="st0" points="71.6,84 71.5,84.1 77.1,93.5 77.2,93.5 		"/>
		<polygon class="st0" points="70.2,84.8 70,84.9 77.5,99.1 77.7,99 		"/>
		<polygon class="st0" points="68.7,85.6 68.6,85.6 73.2,95.6 73.3,95.5 		"/>
		<polygon class="st0" points="67.2,86.2 67.1,86.3 71.2,96.4 71.3,96.4 		"/>
		
			<rect x="67.3" y="86.5" transform="matrix(0.9432 -0.3322 0.3322 0.9432 -26.7348 27.6074)" class="st0" width="0.1" height="11"/>
		<polygon class="st0" points="64.1,87.3 63.9,87.4 67.1,97.9 67.2,97.9 		"/>
		<path class="st0" d="M62.8,87.7c-5.4,1.4-11,1.5-16.4,0.2l-0.1,0.2c2.5,0.6,5.2,0.9,7.8,0.9c2.9,0,5.9-0.4,8.7-1.1L62.8,87.7z"/>
		<polygon class="st0" points="62.6,87.7 62.3,87.8 67.2,107.5 67.4,107.5 		"/>
		<polygon class="st0" points="60.9,88.1 60.8,88.1 62.9,98.9 63,98.9 		"/>
		<polygon class="st0" points="59.3,88.4 59.1,88.4 60.7,99.3 60.9,99.3 		"/>
		
			<rect x="58" y="88.6" transform="matrix(0.9951 -9.914608e-02 9.914608e-02 0.9951 -9.0409 6.2215)" class="st0" width="0.2" height="11"/>
		<polygon class="st0" points="55.9,88.7 55.8,88.7 56.3,99.7 56.5,99.7 		"/>
		<polygon class="st0" points="54.3,88.8 54.1,88.8 54.2,104.8 54.3,104.8 		"/>
		<polygon class="st0" points="52.5,88.7 52,99.7 52.1,99.7 52.6,88.7 		"/>
		<polygon class="st0" points="50.8,88.6 49.8,99.6 49.9,99.6 51,88.6 		"/>
		<polygon class="st0" points="49.2,88.4 47.6,99.3 47.8,99.3 49.3,88.4 		"/>
		<polygon class="st0" points="47.5,88.1 45.5,98.9 45.6,98.9 47.7,88.2 		"/>
		<path class="st0" d="M31.8,80.5l-0.1,0.2c4.2,3.6,9.3,6.2,14.7,7.5l0.1-0.2C41.1,86.6,36,84.1,31.8,80.5z"/>
		<polygon class="st0" points="46,87.8 41.1,107.5 41.3,107.6 46.2,87.8 		"/>
		<rect x="37.4" y="92.6" transform="matrix(0.2849 -0.9586 0.9586 0.2849 -58.1153 107.36)" class="st0" width="11" height="0.1"/>
		<polygon class="st0" points="42.8,86.8 39.2,97.2 39.3,97.2 43,86.9 		"/>
		<polygon class="st0" points="41.3,86.2 37.1,96.4 37.3,96.5 41.4,86.3 		"/>
		<polygon class="st0" points="39.8,85.6 35.1,95.5 35.3,95.6 39.9,85.6 		"/>
		<polygon class="st0" points="38.3,84.8 30.8,99.1 31,99.1 38.4,84.9 		"/>
		<polygon class="st0" points="36.8,84 31.2,93.5 31.4,93.6 36.9,84.1 		"/>
		<polygon class="st0" points="35.4,83.1 29.4,92.3 29.5,92.4 35.5,83.2 		"/>
		<polygon class="st0" points="34,82.2 27.6,91.1 27.7,91.2 34.2,82.3 		"/>
		<polygon class="st0" points="32.7,81.2 25.8,89.8 26,89.8 32.8,81.3 		"/>
		<path class="st0" d="M31.8,80.5c-4.2-3.6-7.5-8.2-9.5-13.3l-0.2,0.1c2,5.2,5.3,9.8,9.6,13.4L31.8,80.5z"/>
		<polygon class="st0" points="31.5,80.1 18,95.4 18.2,95.5 31.6,80.3 		"/>
		<rect x="21" y="82.9" transform="matrix(0.697 -0.717 0.717 0.697 -51.4982 44.149)" class="st0" width="11" height="0.1"/>
		<polygon class="st0" points="29.1,77.8 21.1,85.3 21.2,85.4 29.2,77.9 		"/>
		
			<rect x="18.4" y="80.1" transform="matrix(0.7631 -0.6463 0.6463 0.7631 -46.1792 34.4272)" class="st0" width="11" height="0.2"/>
		<polygon class="st0" points="27,75.3 18.3,82 18.4,82.1 27.1,75.4 		"/>
		
			<rect x="11.4" y="78.5" transform="matrix(0.8221 -0.5693 0.5693 0.8221 -41.275 25.0444)" class="st0" width="16.1" height="0.2"/>
		<polygon class="st0" points="25.1,72.6 15.8,78.4 15.9,78.5 25.2,72.7 		"/>
		<polygon class="st0" points="24.3,71.1 14.7,76.5 14.7,76.6 24.3,71.3 		"/>
		<polygon class="st0" points="23.5,69.7 13.6,74.5 13.7,74.7 23.6,69.8 		"/>
		
			<rect x="12.3" y="70.4" transform="matrix(0.9169 -0.3991 0.3991 0.9169 -26.6288 12.9529)" class="st0" width="11" height="0.2"/>
		<path class="st0" d="M19.9,50.8c-0.6,5.6,0.2,11.2,2.2,16.4l0.2-0.1c-2-5.2-2.8-10.7-2.2-16.3L19.9,50.8z"/>
		<polygon class="st0" points="22.2,66.6 3.2,73.9 3.3,74.1 22.3,66.9 		"/>
		<polygon class="st0" points="21.7,65.1 11.2,68.5 11.3,68.7 21.7,65.3 		"/>
		<polygon class="st0" points="21.2,63.5 10.6,66.4 10.6,66.6 21.2,63.7 		"/>
		<rect x="10" y="63.1" transform="matrix(0.9764 -0.2161 0.2161 0.9764 -13.2879 4.8323)" class="st0" width="11" height="0.1"/>
		<polygon class="st0" points="20.5,60.3 9.6,62.1 9.7,62.3 20.5,60.4 		"/>
		<polygon class="st0" points="20.2,58.6 4.3,60.6 4.3,60.8 20.3,58.8 		"/>
		<polygon class="st0" points="20.1,57 9.1,57.8 9.1,57.9 20.1,57.1 		"/>
		<polygon class="st0" points="9,55.6 9,55.7 20,55.5 20,55.3 		"/>
		<polygon class="st0" points="9,53.4 9,53.5 20,53.8 20,53.7 		"/>
		<polygon class="st0" points="9.1,51.2 9.1,51.4 20.1,52.1 20.1,52 		"/>
		<path class="st0" d="M25.6,35.4c-3.1,4.6-5,9.9-5.6,15.5h0.2c0.6-5.5,2.5-10.8,5.6-15.3L25.6,35.4z"/>
		<polygon class="st0" points="0,48 0,48.2 20.2,50.6 20.2,50.4 		"/>
		<polygon class="st0" points="9.6,46.9 9.6,47.1 20.5,48.9 20.5,48.8 		"/>
		<polygon class="st0" points="10.1,44.8 10,44.9 20.8,47.3 20.8,47.1 		"/>
		<polygon class="st0" points="10.6,42.7 10.5,42.8 21.1,45.7 21.2,45.5 		"/>
		<polygon class="st0" points="11.2,40.6 11.2,40.7 21.6,44.1 21.7,44 		"/>
		
			<rect x="14.6" y="31.6" transform="matrix(0.354 -0.9353 0.9353 0.354 -27.5657 39.3282)" class="st0" width="0.2" height="16.1"/>
		<polygon class="st0" points="12.8,36.5 12.7,36.6 22.8,41 22.9,40.9 		"/>
		<polygon class="st0" points="13.7,34.5 13.6,34.6 23.5,39.5 23.5,39.3 		"/>
		
			<rect x="19.4" y="29.8" transform="matrix(0.4873 -0.8733 0.8733 0.4873 -20.8129 35.1093)" class="st0" width="0.1" height="11"/>
		<rect x="20.4" y="28.1" transform="matrix(0.5299 -0.848 0.848 0.5299 -18.8909 33.1558)" class="st0" width="0.1" height="11"/>
		<path class="st0" d="M37.9,24.5l-0.1-0.2c-4.9,2.7-9.1,6.5-12.2,11.1l0.2,0.1C28.9,30.9,33,27.1,37.9,24.5z"/>
		<polygon class="st0" points="9.3,23.5 9.2,23.7 25.9,35.3 26.1,35.1 		"/>
		<polygon class="st0" points="18.3,27.1 18.2,27.2 26.9,33.9 27,33.8 		"/>
		<polygon class="st0" points="19.7,25.4 19.6,25.5 28,32.6 28.1,32.5 		"/>
		<rect x="25" y="22.1" transform="matrix(0.6791 -0.7341 0.7341 0.6791 -12.1723 27.2651)" class="st0" width="0.1" height="11"/>
		<polygon class="st0" points="22.6,22.2 22.5,22.3 30.2,30.1 30.3,30 		"/>
		<polygon class="st0" points="20.9,16.9 20.8,17 31.4,29 31.6,28.9 		"/>
		<polygon class="st0" points="25.9,19.3 25.8,19.4 32.7,27.9 32.8,27.8 		"/>
		<polygon class="st0" points="27.7,18 27.5,18 34,26.9 34.1,26.8 		"/>
		<rect x="32.4" y="15.8" transform="matrix(0.8332 -0.553 0.553 0.8332 -6.3913 21.4905)" class="st0" width="0.2" height="11"/>
		<polygon class="st0" points="31.3,15.6 31.2,15.6 36.8,25.1 36.9,25 		"/>
		<path class="st0" d="M53.8,20.1c-5.6,0.1-11.1,1.5-16,4.2l0.1,0.2c4.9-2.6,10.3-4.1,15.9-4.1L53.8,20.1z"/>
		<polygon class="st0" points="28.9,6.2 28.6,6.3 38.1,24.3 38.3,24.2 		"/>
		<polygon class="st0" points="35.2,13.6 35,13.6 39.7,23.6 39.8,23.5 		"/>
		<polygon class="st0" points="37.2,12.7 37,12.7 41.2,22.9 41.3,22.9 		"/>
		<polygon class="st0" points="39.2,11.9 39.1,12 42.7,22.3 42.9,22.3 		"/>
		<polygon class="st0" points="41.3,11.2 41.2,11.3 44.3,21.8 44.4,21.8 		"/>
		<polygon class="st0" points="42.2,5.7 42,5.8 45.9,21.4 46.1,21.3 		"/>
		<polygon class="st0" points="45.6,10.2 45.4,10.2 47.5,21 47.7,21 		"/>
		<polygon class="st0" points="47.7,9.8 47.6,9.9 49.2,20.7 49.3,20.7 		"/>
		<polygon class="st0" points="49.9,9.6 49.8,9.6 50.8,20.5 51,20.5 		"/>
		<polygon class="st0" points="52.1,9.4 51.9,9.4 52.5,20.4 52.6,20.4 		"/>
		<path class="st0" d="M69.8,23.8c-5-2.5-10.4-3.8-16-3.7v0.2c5.5-0.1,11,1.2,15.9,3.7L69.8,23.8z"/>
		<polygon class="st0" points="54.2,0 54,0 54,20.3 54.3,20.3 		"/>
		<polygon class="st0" points="56.2,9.4 55.7,20.4 55.9,20.4 56.4,9.4 		"/>
		<polygon class="st0" points="58.4,9.6 57.4,20.5 57.5,20.5 58.6,9.6 		"/>
		<rect x="54.4" y="15.2" transform="matrix(0.1428 -0.9898 0.9898 0.1428 36.2417 72.362)" class="st0" width="11" height="0.1"/>
		<polygon class="st0" points="62.8,10.2 60.7,21 60.8,21 62.9,10.2 		"/>
		<polygon class="st0" points="66.1,5.7 62.3,21.3 62.5,21.3 66.3,5.7 		"/>
		<polygon class="st0" points="67,11.2 63.9,21.7 64,21.8 67.2,11.3 		"/>
		<polygon class="st0" points="69.1,11.9 65.5,22.2 65.6,22.3 69.3,11.9 		"/>
		<polygon class="st0" points="71.2,12.7 67,22.8 67.2,22.9 71.3,12.7 		"/>
		<polygon class="st0" points="73.2,13.5 68.5,23.5 68.7,23.6 73.3,13.6 		"/>
		<path class="st0" d="M82.3,34.6c-3.2-4.6-7.5-8.3-12.5-10.8L69.7,24c4.9,2.5,9.2,6.2,12.4,10.7L82.3,34.6z"/>
		<polygon class="st0" points="79.4,6.2 69.9,24.2 70.1,24.3 79.6,6.3 		"/>
		<polygon class="st0" points="77,15.5 71.4,25 71.6,25.1 77.1,15.6 		"/>
		<rect x="70.4" y="21.2" transform="matrix(0.5474 -0.8369 0.8369 0.5474 16.5123 73.1793)" class="st0" width="11" height="0.1"/>
		<rect x="72" y="22.3" transform="matrix(0.5869 -0.8096 0.8096 0.5869 13.8624 71.9988)" class="st0" width="11" height="0.1"/>
		<polygon class="st0" points="82.4,19.2 75.5,27.8 75.7,27.9 82.5,19.3 		"/>
		
			<rect x="74.2" y="22.8" transform="matrix(0.6624 -0.7492 0.7492 0.6624 10.5738 69.3149)" class="st0" width="16.1" height="0.2"/>
		<rect x="76.4" y="26.1" transform="matrix(0.6975 -0.7165 0.7165 0.6975 6.0512 66.5975)" class="st0" width="11" height="0.1"/>
		<polygon class="st0" points="87.2,23.7 79.2,31.2 79.3,31.3 87.3,23.8 		"/>
		<polygon class="st0" points="88.7,25.3 80.3,32.4 80.4,32.6 88.8,25.5 		"/>
		<polygon class="st0" points="90.1,27.1 81.3,33.7 81.4,33.8 90.2,27.2 		"/>
		<path class="st0" d="M82.3,34.6l-0.2,0.1c3.2,4.5,5.3,9.8,6,15.2h0.2C87.6,44.4,85.5,39.2,82.3,34.6z"/>
		<polygon class="st0" points="99,23.4 82.3,35 82.4,35.2 99.1,23.6 		"/>
		<rect x="82.4" y="33.5" transform="matrix(0.8482 -0.5296 0.5296 0.8482 -4.438 51.653)" class="st0" width="11" height="0.1"/>
		<polygon class="st0" points="93.6,32.5 84.1,37.8 84.1,38 93.7,32.6 		"/>
		<polygon class="st0" points="94.7,34.4 84.8,39.3 84.9,39.4 94.7,34.5 		"/>
		<polygon class="st0" points="95.6,36.4 85.5,40.8 85.6,40.9 95.7,36.5 		"/>
		<polygon class="st0" points="101.2,36.6 86.1,42.3 86.2,42.5 101.2,36.8 		"/>
		<polygon class="st0" points="97.2,40.5 86.7,43.9 86.8,44 97.2,40.6 		"/>
		<polygon class="st0" points="97.8,42.6 87.2,45.5 87.2,45.6 97.8,42.7 		"/>
		<polygon class="st0" points="98.3,44.7 87.6,47.1 87.6,47.2 98.3,44.9 		"/>
		<polygon class="st0" points="98.7,46.9 87.9,48.7 87.9,48.9 98.8,47 		"/>
		<path class="st1" d="M83.9,53.8c0-16.4-13.3-29.7-29.7-29.7S24.4,37.4,24.5,53.8c0,16.4,13.3,29.7,29.7,29.7
			C70.6,83.5,83.9,70.2,83.9,53.8z M24.8,53.8c0-16.2,13.1-29.4,29.4-29.4s29.4,13.1,29.4,29.3S70.4,83.1,54.2,83.1c0,0,0,0,0,0
			C38,83.1,24.9,70,24.8,53.8z"/>
	</g>
</g>
</svg>
