<?xml version="1.0" encoding="utf-8"?>
<!-- Generator: Adobe Illustrator 23.0.6, SVG Export Plug-In . SVG Version: 6.00 Build 0)  -->
<svg version="1.1" id="Layer_1" xmlns="http://www.w3.org/2000/svg" xmlns:xlink="http://www.w3.org/1999/xlink" x="0px" y="0px"
	 viewBox="0 0 106.9 106.9" style="enable-background:new 0 0 106.9 106.9;" xml:space="preserve">
<style type="text/css">
	.st0{fill:#FFFFFF;}
</style>
<g id="Layer_2_00000067220082050787560410000000915149246650029702_">
	<g id="_Layer_">
		<path class="st0" d="M53.5,74c-6.2,0-12-2.8-15.9-7.6L12,87.2c18.6,22.9,52.3,26.3,75.2,7.7s26.3-52.3,7.7-75.2
			C84.8,7.2,69.5,0,53.5,0H53v32.9h0.4c11.4,0,20.6,9.2,20.6,20.6S64.8,74,53.5,74L53.5,74z"/>
		<path class="st0" d="M53,37v-3.1C42.2,34.1,33.6,43,33.9,53.8c0.1,4.4,1.6,8.6,4.4,12l2.4-2C35,56.8,36,46.4,43,40.7
			C45.9,38.4,49.4,37.1,53,37z"/>
	</g>
</g>
</svg>
