<?xml version="1.0" encoding="utf-8"?>
<!-- Generator: Adobe Illustrator 23.0.6, SVG Export Plug-In . SVG Version: 6.00 Build 0)  -->
<svg version="1.1" id="Layer_1" xmlns="http://www.w3.org/2000/svg" xmlns:xlink="http://www.w3.org/1999/xlink" x="0px" y="0px"
	 viewBox="0 0 120.2 140" style="enable-background:new 0 0 120.2 140;" xml:space="preserve">
<style type="text/css">
	.st0{fill:#FFFFFF;}
</style>
<g id="Layer_2_00000059273164642289118660000011394275546740829627_">
	<g id="_Layer_">
		<rect x="42.4" y="51" class="st0" width="0.3" height="89"/>
		<rect x="6.3" y="59.5" class="st0" width="0.3" height="80.5"/>
		<rect x="92.2" y="78.9" class="st0" width="0.3" height="61"/>
		<path class="st0" d="M44.7,88.2c21.7,9.2,46.8-0.9,56-22.6s-0.9-46.8-22.6-56s-46.8,0.9-56,22.6c-6.8,16-3.2,34.6,9.1,46.9
			C35,83,39.6,86.1,44.7,88.2z M18.8,49c0-23.4,19-42.5,42.5-42.5s42.4,19,42.4,42.5s-19,42.5-42.4,42.5l0,0
			C37.8,91.4,18.8,72.4,18.8,49z"/>
		<path class="st0" d="M103.9,49c0-23.6-19.1-42.7-42.7-42.7C37.7,6.3,18.6,25.4,18.6,49s19.1,42.7,42.7,42.7l0,0
			C84.8,91.6,103.9,72.6,103.9,49z M18.9,49c0-23.4,18.9-42.3,42.3-42.3s42.3,18.9,42.3,42.3S84.6,91.3,61.2,91.3
			C37.9,91.3,19,72.4,18.9,49L18.9,49z"/>
		<path class="st0" d="M26.6,62.7l-0.1,0.2l0.7,0.3l0.1-0.2L26.6,62.7z"/>
		<path class="st0" d="M28.1,63.2L28,63.4l0.8,0.3l0.1-0.2L28.1,63.2z"/>
		<path class="st0" d="M32.5,64.7l-0.1,0.2l0.8,0.2l0.1-0.2L32.5,64.7z"/>
		<path class="st0" d="M34,65.2v0.2l0.8,0.2l0.1-0.2L34,65.2z"/>
		<path class="st0" d="M25.1,62.1L25,62.3l0.7,0.3l0.1-0.2L25.1,62.1z"/>
		<path class="st0" d="M31.1,64.2L31,64.4l0.7,0.3l0.1-0.2L31.1,64.2z"/>
		<path class="st0" d="M29.6,63.7l-0.1,0.2l0.7,0.3l0.1-0.2L29.6,63.7z"/>
		<path class="st0" d="M18.9,36.9h-0.8v0.2h0.8V36.9z"/>
		<path class="st0" d="M17.8,59.4l0.7,0.3l0.1-0.2l-0.7-0.3L17.8,59.4z"/>
		<path class="st0" d="M23.7,61.6l-0.1,0.2l0.7,0.3l0.1-0.2L23.7,61.6z"/>
		<path class="st0" d="M19.2,60l0.7,0.3l0.1-0.2l-0.7-0.3L19.2,60z"/>
		<path class="st0" d="M22.2,61l-0.1,0.2l0.7,0.3l0.1-0.2L22.2,61z"/>
		<path class="st0" d="M20.8,60.4l-0.1,0.2l0.7,0.3l0.1-0.2C21.2,60.6,21,60.5,20.8,60.4z"/>
		<polygon class="st0" points="19.8,36.9 19.7,36.9 19.7,37.1 19.9,37.1 		"/>
		<path class="st0" d="M35.5,65.6l-0.1,0.2l0.8,0.2l0.1-0.2L35.5,65.6z"/>
		
			<rect x="50.9" y="69.5" transform="matrix(0.2202 -0.9755 0.9755 0.2202 -28.363 104.2669)" class="st0" width="0.2" height="0.8"/>
		<path class="st0" d="M49.2,69.3v0.2l0.8,0.2v-0.2L49.2,69.3z"/>
		<path class="st0" d="M17.3,37l-0.8,0.1v0.2l0.8-0.1V37z"/>
		<polygon class="st0" points="46.1,68.5 46.1,68.7 46.8,68.9 46.9,68.7 		"/>
		<polygon class="st0" points="52.2,70 52.2,70.2 53,70.3 53,70.1 		"/>
		<path class="st0" d="M53.8,70.3v0.2l0.8,0.2v-0.2L53.8,70.3z"/>
		<polygon class="st0" points="47.7,68.9 47.6,69.1 48.4,69.3 48.4,69.1 		"/>
		<polygon class="st0" points="40.1,66.9 40,67.1 40.8,67.4 40.8,67.1 		"/>
		<polygon class="st0" points="38.5,66.5 38.5,66.7 39.3,66.9 39.3,66.7 		"/>
		<rect x="44.9" y="68" transform="matrix(0.2463 -0.9692 0.9692 0.2463 -32.394 95.1756)" class="st0" width="0.2" height="0.8"/>
		<polygon class="st0" points="37,66.1 37,66.3 37.7,66.5 37.8,66.3 		"/>
		<rect x="41.9" y="67.2" transform="matrix(0.259 -0.9659 0.9659 0.259 -34.2029 90.6177)" class="st0" width="0.2" height="0.8"/>
		<polygon class="st0" points="43.1,67.7 43,68 43.8,68.2 43.8,67.9 		"/>
		<path class="st0" d="M3.6,51l0.2-0.2l-0.6-0.5L3,50.5L3.6,51z"/>
		<polygon class="st0" points="55.3,70.6 55.3,70.8 56,71 56.1,70.8 		"/>
		<path class="st0" d="M16.4,58.7l0.7,0.3l0.1-0.2l-0.7-0.3L16.4,58.7z"/>
		<path class="st0" d="M4.8,52L5,51.8l-0.6-0.5l-0.2,0.2L4.8,52z"/>
		<path class="st0" d="M5.1,39.7L5,39.5c-0.3,0.1-0.5,0.2-0.7,0.3L4.4,40C4.6,39.9,4.8,39.8,5.1,39.7z"/>
		<path class="st0" d="M5.5,52.5L6.1,53l0.1-0.2c-0.2-0.2-0.4-0.3-0.6-0.5L5.5,52.5z"/>
		<path class="st0" d="M0.3,44.1c0-0.2,0.1-0.4,0.2-0.6l-0.2-0.1c-0.1,0.2-0.1,0.4-0.2,0.6v0.1H0.3L0.3,44.1z"/>
		<path class="st0" d="M0.3,46.6c0.1,0.2,0.2,0.5,0.3,0.7l0.2-0.1c-0.1-0.2-0.2-0.5-0.3-0.7L0.3,46.6z"/>
		<path class="st0" d="M2.5,49.9l0.2-0.2c-0.2-0.2-0.4-0.4-0.5-0.6L2,49.3L2.5,49.9z"/>
		<path class="st0" d="M1.6,41.5l0.2,0.2c0.2-0.2,0.4-0.3,0.6-0.5L2.2,41C2,41.2,1.8,41.3,1.6,41.5z"/>
		<path class="st0" d="M1,48c0.1,0.2,0.3,0.4,0.4,0.7l0.2-0.1c-0.2-0.2-0.3-0.4-0.4-0.6L1,48z"/>
		<path class="st0" d="M0.1,45.8h0.2c-0.1-0.3-0.1-0.6-0.1-0.8H0C0,45.3,0,45.6,0.1,45.8z"/>
		<path class="st0" d="M0.6,42.7l0.2,0.1c0.1-0.2,0.3-0.4,0.4-0.6L1,42C0.9,42.3,0.7,42.5,0.6,42.7z"/>
		<path class="st0" d="M6.5,38.9l-0.7,0.3l0.1,0.2l0.7-0.3L6.5,38.9z"/>
		<path class="st0" d="M2.9,40.6L3,40.8c0.2-0.1,0.4-0.3,0.7-0.4l-0.1-0.2C3.3,40.3,3.1,40.4,2.9,40.6z"/>
		<path class="st0" d="M13.4,37.4v0.2l0.8-0.1v-0.2L13.4,37.4z"/>
		<path class="st0" d="M14.2,57.7l0.1-0.2l-0.7-0.3l-0.1,0.2L14.2,57.7z"/>
		<path class="st0" d="M11.8,37.7v0.2l0.8-0.1v-0.2L11.8,37.7z"/>
		<path class="st0" d="M12.8,57l0.1-0.2l-0.7-0.4l-0.1,0.2L12.8,57z"/>
		<path class="st0" d="M15.7,37.2L15,37.3v0.2l0.8-0.1v-0.2H15.7z"/>
		<path class="st0" d="M15.6,58.4l0.1-0.2L15,57.8L14.9,58L15.6,58.4z"/>
		<path class="st0" d="M8.8,38.3l0.1,0.2c0.3-0.1,0.5-0.1,0.8-0.2l-0.1-0.2L8.8,38.3z"/>
		<path class="st0" d="M8.1,54.3c0.2,0.2,0.4,0.3,0.7,0.4l0.1-0.2l-0.7-0.4L8.1,54.3z"/>
		<path class="st0" d="M11.4,56.3l0.1-0.2l-0.7-0.4l-0.1,0.2L11.4,56.3z"/>
		<path class="st0" d="M10.1,55.5l0.1-0.2l-0.7-0.4l-0.1,0.2L10.1,55.5z"/>
		<path class="st0" d="M7.2,38.7l0.1,0.2l0.8-0.2L8,38.5L7.2,38.7z"/>
		<path class="st0" d="M6.7,53.4l0.7,0.4l0.1-0.2c-0.2-0.1-0.4-0.3-0.7-0.4L6.7,53.4z"/>
		<path class="st0" d="M10.3,38l0.1,0.2l0.8-0.2v-0.2L10.3,38z"/>
		<path class="st0" d="M115.9,60.6l-0.2,0.2l0.6,0.5l0.2-0.2L115.9,60.6z"/>
		<path class="st0" d="M108.3,74.4l0.8-0.1v-0.2l-0.8,0.1V74.4z"/>
		<path class="st0" d="M109.3,56.4l0.7,0.4l0.1-0.2l-0.7-0.4L109.3,56.4z"/>
		<path class="st0" d="M101.2,75h-0.8v0.2h0.8V75z"/>
		<path class="st0" d="M111.4,73.8l0.8-0.2l-0.1-0.2l-0.8,0.2L111.4,73.8z"/>
		<path class="st0" d="M112.8,58.3l-0.7-0.4l-0.1,0.2l0.7,0.4L112.8,58.3z"/>
		<path class="st0" d="M109.8,74.2l0.8-0.2v-0.2l-0.8,0.2V74.2z"/>
		<path class="st0" d="M106.7,74.7l0.8-0.1v-0.2l-0.8,0.1V74.7z"/>
		<path class="st0" d="M106.5,55l0.7,0.4l0.1-0.2L106.5,55L106.5,55z"/>
		<path class="st0" d="M110.6,57.2l0.7,0.4l0.1-0.2c-0.2-0.1-0.4-0.3-0.7-0.4L110.6,57.2z"/>
		<path class="st0" d="M102.8,74.9L102,75v0.2l0.8-0.1V74.9z"/>
		<path class="st0" d="M104.5,53.7l-0.7-0.3l-0.1,0.2l0.7,0.3L104.5,53.7z"/>
		<path class="st0" d="M103.6,75l0.8-0.1v-0.2l-0.8,0.1V75z"/>
		<path class="st0" d="M105.1,54.3l0.7,0.3l0.1-0.2l-0.7-0.3L105.1,54.3z"/>
		<path class="st0" d="M105.2,74.9l0.8-0.1v-0.2l-0.8,0.1V74.9z"/>
		<path class="st0" d="M107.9,55.7l0.7,0.4l0.1-0.2l-0.7-0.4L107.9,55.7z"/>
		<path class="st0" d="M119.5,69.4c0.1-0.2,0.3-0.5,0.3-0.7l-0.2-0.1c-0.1,0.2-0.2,0.5-0.3,0.7L119.5,69.4z"/>
		<path class="st0" d="M118.9,64.2c0.1,0.2,0.3,0.5,0.4,0.7l0.2-0.1c-0.1-0.2-0.3-0.4-0.4-0.7L118.9,64.2z"/>
		<path class="st0" d="M112.9,73.4l0.8-0.2l-0.1-0.2l-0.8,0.2L112.9,73.4z"/>
		<path class="st0" d="M119.6,65.6c0.1,0.2,0.2,0.5,0.2,0.7h0.2c-0.1-0.3-0.1-0.5-0.2-0.8L119.6,65.6z"/>
		<path class="st0" d="M118,63c0.2,0.2,0.3,0.4,0.5,0.6l0.2-0.1c-0.2-0.2-0.3-0.4-0.5-0.6L118,63z"/>
		<path class="st0" d="M118.4,70.4l0.2,0.2c0.2-0.2,0.4-0.4,0.6-0.6l-0.2-0.2C118.7,70.1,118.5,70.3,118.4,70.4z"/>
		<path class="st0" d="M120.1,67.9c0-0.2,0.1-0.4,0.1-0.7v-0.1H120v0.1C120,67.4,120,67.6,120.1,67.9L120.1,67.9z"/>
		<path class="st0" d="M115.3,60.1l-0.6-0.5l-0.2,0.2l0.6,0.5L115.3,60.1z"/>
		<path class="st0" d="M114.4,72.9c0.3-0.1,0.5-0.2,0.7-0.3l-0.1-0.2c-0.2,0.1-0.5,0.2-0.7,0.3L114.4,72.9z"/>
		<path class="st0" d="M114.1,59.2l-0.6-0.5l-0.1,0.2l0.6,0.5L114.1,59.2z"/>
		<path class="st0" d="M116.9,61.9l0.6,0.5l0.2-0.2c-0.2-0.2-0.4-0.4-0.6-0.6L116.9,61.9z"/>
		<path class="st0" d="M117.2,71.6c0.2-0.2,0.5-0.3,0.7-0.4l-0.1-0.2c-0.2,0.2-0.4,0.3-0.6,0.4V71.6z"/>
		
			<rect x="57.1" y="70.7" transform="matrix(0.2028 -0.9792 0.9792 0.2028 -24.0545 112.7078)" class="st0" width="0.2" height="0.8"/>
		<path class="st0" d="M115.8,72.3c0.3-0.1,0.5-0.2,0.7-0.3l-0.1-0.2l-0.7,0.3L115.8,72.3z"/>
		<path class="st0" d="M70.8,73.3v0.2l0.8,0.1v-0.2L70.8,73.3z"/>
		<path class="st0" d="M72.3,73.5v0.2l0.8,0.1v-0.2L72.3,73.5z"/>
		<path class="st0" d="M99.7,75h-0.8v0.2h0.8V75z"/>
		<path class="st0" d="M73.9,73.7v0.2l0.8,0.1v-0.2L73.9,73.7z"/>
		<path class="st0" d="M67.7,72.8V73l0.8,0.1V73L67.7,72.8z"/>
		<path class="st0" d="M77,74.1v0.2c0.3,0,0.5,0.1,0.8,0.1v-0.2L77,74.1z"/>
		<polygon class="st0" points="75.4,73.9 75.4,74.1 76.2,74.2 76.2,74 		"/>
		<path class="st0" d="M59.9,71.5v0.2l0.8,0.1v-0.2L59.9,71.5z"/>
		<polygon class="st0" points="61.5,71.8 61.4,72 62.2,72.2 62.2,71.9 		"/>
		
			<rect x="58.6" y="71.1" transform="matrix(0.1881 -0.9822 0.9822 0.1881 -22.5184 115.7053)" class="st0" width="0.2" height="0.8"/>
		<polygon class="st0" points="63,72.1 63,72.3 63.7,72.4 63.8,72.2 		"/>
		<polygon class="st0" points="64.6,72.3 64.5,72.6 65.3,72.7 65.3,72.5 		"/>
		<path class="st0" d="M66.1,72.6v0.2l0.8,0.1v-0.2L66.1,72.6z"/>
		<path class="st0" d="M69.2,73.1v0.2l0.8,0.1v-0.2L69.2,73.1z"/>
		<path class="st0" d="M95,75.1h-0.8v0.2H95V75.1z"/>
		<path class="st0" d="M92.6,75.1v0.2h0.8v-0.2H92.6z"/>
		<path class="st0" d="M91.1,75.1v0.2h0.8v-0.2H91.1z"/>
		<path class="st0" d="M89.5,75v0.2h0.8V75H89.5z"/>
		<path class="st0" d="M95.8,75.1v0.2h0.8v-0.2H95.8z"/>
		<path class="st0" d="M98.1,75.1h-0.8v0.2h0.8V75.1z"/>
		<path class="st0" d="M81.7,74.5v0.2l0.8,0.1v-0.2L81.7,74.5z"/>
		<path class="st0" d="M83.2,74.7v0.2L84,75v-0.2L83.2,74.7z"/>
		<path class="st0" d="M87.9,75v0.2h0.8V75H87.9z"/>
		<path class="st0" d="M80.1,74.4v0.2l0.8,0.1v-0.2L80.1,74.4z"/>
		<polygon class="st0" points="78.6,74.2 78.5,74.5 79.3,74.5 79.3,74.3 		"/>
		<path class="st0" d="M84.8,74.8V75h0.8v-0.2H84.8z"/>
		<polygon class="st0" points="86.4,74.9 86.3,75.1 87.1,75.1 87.1,74.9 		"/>
		<path class="st0" d="M65,6.5c0-2.1-1.7-3.7-3.7-3.7c-2.1,0-3.7,1.7-3.7,3.7s1.7,3.7,3.7,3.7l0,0C63.3,10.2,65,8.6,65,6.5z
			 M57.9,6.5c0-1.9,1.5-3.4,3.4-3.4s3.4,1.5,3.4,3.4s-1.5,3.4-3.4,3.4l0,0C59.4,9.9,57.9,8.4,57.9,6.5L57.9,6.5L57.9,6.5z"/>
		<path class="st0" d="M65,91.5c0-2.1-1.7-3.7-3.7-3.7c-2.1,0-3.7,1.7-3.7,3.7c0,2.1,1.7,3.7,3.7,3.7l0,0C63.3,95.2,65,93.6,65,91.5
			z M57.9,91.5c0-1.9,1.5-3.4,3.4-3.4s3.4,1.5,3.4,3.4s-1.5,3.4-3.4,3.4l0,0C59.4,94.9,57.9,93.4,57.9,91.5L57.9,91.5L57.9,91.5z"/>
		<path class="st0" d="M95.8,81.9c2-2.1,1.9-5.4-0.2-7.3c-1-0.9-2.3-1.4-3.6-1.4c-2.9,0-5.2,2.3-5.2,5.2v0.1c0.1,2.9,2.5,5.1,5.3,5
			C93.5,83.4,94.8,82.9,95.8,81.9L95.8,81.9z M87.2,78.4c-0.1-2.7,2-4.9,4.7-4.9c1.3,0,2.5,0.4,3.5,1.3c1.9,1.8,2,4.9,0.2,6.8
			s-4.9,2-6.8,0.2C87.8,80.9,87.2,79.7,87.2,78.4z"/>
		<path class="st0" d="M94.6,80.7c1.4-1.4,1.3-3.7-0.1-5c-1.4-1.4-3.7-1.3-5,0.1s-1.3,3.7,0.1,5l0,0C91,82.2,93.2,82.2,94.6,80.7z"
			/>
		<path class="st0" d="M33.2,22.3c1.4-1.5,1.4-3.8-0.1-5.3l0,0c-0.7-0.7-1.6-1-2.6-1c-2.1,0-3.7,1.7-3.7,3.7c0,2.1,1.7,3.7,3.7,3.7
			C31.5,23.5,32.5,23,33.2,22.3L33.2,22.3z M27.1,19.8c-0.1-1.9,1.4-3.4,3.3-3.5c0.9,0,1.8,0.3,2.4,0.9c0.7,0.6,1,1.5,1.1,2.4
			c0,0.9-0.3,1.7-0.9,2.4c-1.3,1.3-3.4,1.4-4.8,0.1C27.5,21.5,27.1,20.6,27.1,19.8L27.1,19.8z"/>
		<path class="st0" d="M99.7,34.7c1.6,0,3-1,3.5-2.5c0.3-0.9,0.3-2-0.1-2.9c-0.9-1.9-3.1-2.7-5-1.8s-2.7,3.1-1.8,5
			C96.9,33.8,98.3,34.7,99.7,34.7z M98.3,27.9c0.4-0.2,0.9-0.3,1.4-0.3c1.3,0,2.5,0.8,3.1,1.9c0.8,1.7,0.1,3.7-1.6,4.5
			c-1.7,0.7-3.7-0.1-4.4-1.9C96.1,30.5,96.8,28.7,98.3,27.9z"/>
		<path class="st0" d="M22.8,70.8c0.5,0,1.1-0.1,1.6-0.4c1.9-0.9,2.7-3.1,1.8-5c-0.6-1.3-1.9-2.1-3.4-2.1c-0.5,0-1.1,0.1-1.6,0.4
			c-1.9,0.9-2.7,3.1-1.8,5C20,70,21.3,70.8,22.8,70.8z M21.4,64c0.4-0.2,0.9-0.3,1.4-0.3c1.9,0,3.4,1.5,3.4,3.4
			c0,1.3-0.8,2.5-1.9,3.1c-0.5,0.2-0.9,0.3-1.4,0.3c-1.9,0-3.4-1.5-3.4-3.4C19.4,65.7,20.2,64.6,21.4,64z"/>
		<path class="st0" d="M43,82.2c8.6-8.8,8.4-22.8-0.4-31.4s-22.8-8.4-31.4,0.4S2.9,74,11.6,82.6c4.1,4.1,9.7,6.3,15.5,6.3
			C33.1,88.9,38.8,86.5,43,82.2z M11.6,51.5c8.4-8.6,22.2-8.8,30.9-0.3s8.8,22.2,0.3,30.9c-8.4,8.6-22.2,8.8-30.9,0.3
			C3.3,74,3,60.3,11.4,51.7C11.4,51.6,11.5,51.5,11.6,51.5z"/>
		<path class="st0" d="M13.2,83.8c0.4-0.4,0.6-0.9,0.6-1.4c0-1.1-0.9-2-2-2c-0.5,0-1.1,0.2-1.4,0.6c-0.8,0.8-0.8,2,0,2.8
			c0.4,0.4,0.9,0.6,1.4,0.6S12.9,84.2,13.2,83.8z M10.6,81.3c0.3-0.3,0.7-0.5,1.2-0.5c0.4,0,0.9,0.2,1.2,0.5s0.5,0.7,0.5,1.2
			c0,0.4-0.2,0.9-0.5,1.2c-0.6,0.6-1.7,0.7-2.3,0l0,0C10,83,10,81.9,10.6,81.3z"/>
		<path class="st0" d="M45.2,53.6c1.5-1.5,1.4-3.9,0-5.3c-1.5-1.5-3.9-1.4-5.3,0c-1.5,1.5-1.4,3.9,0,5.3c0.7,0.7,1.7,1.1,2.6,1.1
			C43.6,54.8,44.5,54.3,45.2,53.6z M40.1,48.6c1.3-1.3,3.5-1.3,4.8,0s1.3,3.5,0,4.8s-3.5,1.3-4.8,0l0,0
			C38.8,52.1,38.8,49.9,40.1,48.6L40.1,48.6z"/>
		<path class="st0" d="M43.9,52.3c0.7-0.7,0.7-1.9,0-2.6c-0.7-0.7-1.9-0.7-2.6,0c-0.7,0.7-0.7,1.9,0,2.6l0,0
			C42,53,43.1,53,43.9,52.3z"/>
		<path class="st0" d="M26.5,46.7c1.1,0,2-0.9,2-2s-0.9-2-2-2h-0.1c-1.1,0-2,0.9-2,2S25.3,46.8,26.5,46.7L26.5,46.7z M24.7,44.7
			c0-0.4,0.1-0.9,0.5-1.2c0.3-0.3,0.7-0.5,1.1-0.5h0.1c0.9,0,1.6,0.7,1.7,1.6c0,0.9-0.7,1.7-1.6,1.7h-0.1
			C25.5,46.4,24.8,45.7,24.7,44.7L24.7,44.7z"/>
		<path class="st0" d="M28,90.7c1.1,0,2-0.9,2-2s-0.9-2-2-2h-0.1c-1.1,0-2,0.9-2,2C25.9,89.8,26.8,90.7,28,90.7L28,90.7z M26.3,88.7
			c0-0.9,0.7-1.7,1.6-1.7l0,0H28c0.9,0,1.6,0.7,1.7,1.6c0,0.9-0.7,1.7-1.6,1.7c0,0,0,0-0.1,0l0,0C27.1,90.4,26.3,89.7,26.3,88.7
			C26.3,88.8,26.3,88.8,26.3,88.7L26.3,88.7z"/>
		<path class="st0" d="M6.4,62.6c1.3,0,2.5-0.8,3-2.1c0.3-0.8,0.2-1.6-0.1-2.4c-0.4-0.7-1-1.3-1.8-1.6c-0.3-0.1-0.7-0.2-1-0.2
			c-1.7,0-3.1,1.4-3.1,3.2c0,1.3,0.9,2.5,2.1,2.9C5.7,62.5,6.1,62.6,6.4,62.6z M3.8,58.6c0.5-1.4,2.1-2.2,3.5-1.7
			C8.7,57.4,9.5,59,9,60.4c-0.4,1.1-1.4,1.9-2.6,1.9c-0.3,0-0.6-0.1-0.9-0.2C4,61.6,3.3,60,3.8,58.6L3.8,58.6z"/>
		<path class="st0" d="M8.1,60.1c0.3-1-0.2-2-1.1-2.3S5,58,4.7,58.9c-0.3,1,0.2,2,1.1,2.3l0,0C6.7,61.5,7.8,61,8.1,60.1z"/>
		<path class="st0" d="M47.3,75.8c0.2,0.1,0.4,0.1,0.7,0.1c1.1,0,2-0.8,2.1-1.9c0-0.9-0.5-1.7-1.4-2c-0.2-0.1-0.4-0.1-0.7-0.1
			c-1.1,0-2,0.8-2.1,1.9C45.8,74.8,46.4,75.6,47.3,75.8z M46.4,73.4c0.2-0.7,0.9-1.1,1.6-1.1c0.9,0.1,1.6,0.9,1.5,1.8
			c-0.1,0.8-0.7,1.5-1.5,1.5c-0.2,0-0.4,0-0.5-0.1C46.5,75.2,46.1,74.3,46.4,73.4L46.4,73.4z"/>
		<path class="st0" d="M42.6,55.1l0.7-0.3l0,0L42.6,55.1z"/>
		<path class="st0" d="M42.7,28.5L42.7,28.5c0.1-0.2,0.2-0.5,0.3-0.7l0,0C42.9,28,42.8,28.2,42.7,28.5z"/>
		<path class="st0" d="M43.1,51.4L43.1,51.4c0-0.2-0.1-0.5-0.2-0.7l0,0L43.1,51.4z"/>
		<path class="st0" d="M40.6,40c0,0.3,0,0.5,0,0.8l0,0V40L40.6,40z"/>
		<path class="st0" d="M40.7,37.6L40.7,37.6c0-0.3,0-0.5,0.1-0.8l0,0L40.7,37.6z"/>
		<path class="st0" d="M40.6,39.2L40.6,39.2c0-0.3,0-0.5,0-0.8l0,0C40.6,38.7,40.6,39,40.6,39.2z"/>
		<path class="st0" d="M42.4,110.6c0.3-0.1,0.5-0.2,0.8-0.2l0,0L42.4,110.6z"/>
		<path class="st0" d="M42.3,49.2c0.1,0.3,0.2,0.5,0.3,0.7l0,0C42.5,49.7,42.5,49.4,42.3,49.2L42.3,49.2z"/>
		<path class="st0" d="M42.2,30L42.2,30l0.2-0.7l0,0C42.3,29.5,42.3,29.7,42.2,30z"/>
		<path class="st0" d="M44.1,54.5l0.7-0.3l0,0L44.1,54.5L44.1,54.5z"/>
		<path class="st0" d="M43.3,27L43.3,27c0.1-0.2,0.2-0.5,0.3-0.7l0,0L43.3,27z"/>
		<path class="st0" d="M44.9,23.5l-0.4,0.7l0,0C44.6,23.9,44.8,23.7,44.9,23.5L44.9,23.5z"/>
		<path class="st0" d="M43.7,52.8L43.7,52.8c-0.1-0.2-0.2-0.5-0.3-0.7l0,0L43.7,52.8z"/>
		<path class="st0" d="M40.7,41.5c0,0.3,0,0.5,0.1,0.8l0,0C40.8,42.1,40.8,41.8,40.7,41.5L40.7,41.5z"/>
		<path class="st0" d="M40.5,56c-0.3,0.1-0.5,0.2-0.7,0.3l0,0L40.5,56L40.5,56z"/>
		<path class="st0" d="M41.4,33L41.4,33l0.2-0.8l0,0C41.5,32.5,41.4,32.7,41.4,33z"/>
		<path class="st0" d="M41.7,46.9L41.7,46.9c0-0.3-0.1-0.5-0.1-0.8l0,0C41.5,46.4,41.6,46.7,41.7,46.9z"/>
		<path class="st0" d="M39,56.6l-0.7,0.3l0,0L39,56.6L39,56.6z"/>
		<path class="st0" d="M37.8,111.7l0.8-0.2l0,0L37.8,111.7z"/>
		<path class="st0" d="M41.2,55.7c0.2-0.1,0.5-0.2,0.7-0.3l0,0L41.2,55.7L41.2,55.7z"/>
		<path class="st0" d="M37.6,57.3l-0.7,0.3l0,0L37.6,57.3L37.6,57.3z"/>
		<path class="st0" d="M40.8,36.1L40.8,36.1c0-0.3,0.1-0.5,0.1-0.8h-0.1C40.9,35.5,40.8,35.8,40.8,36.1z"/>
		<path class="st0" d="M41,34.5L41,34.5l0.2-0.8l0,0L41,34.5z"/>
		<path class="st0" d="M40.9,43.1c0,0.3,0.1,0.5,0.1,0.8h0.1C41,43.6,41,43.3,40.9,43.1L40.9,43.1z"/>
		<path class="st0" d="M41.7,31.5L41.7,31.5c0.1-0.3,0.2-0.5,0.3-0.8l0,0C41.9,31,41.8,31.2,41.7,31.5z"/>
		<path class="st0" d="M41.1,44.6c0,0.3,0.1,0.5,0.2,0.8l0,0C41.3,45.2,41.2,44.9,41.1,44.6L41.1,44.6z"/>
		<path class="st0" d="M42.1,48.4L42.1,48.4c-0.1-0.3-0.2-0.5-0.2-0.8l0,0C41.9,48,42,48.2,42.1,48.4z"/>
		<path class="st0" d="M40.9,111l0.8-0.2l0,0L40.9,111L40.9,111z"/>
		<path class="st0" d="M39.3,111.4l0.8-0.2l0,0L39.3,111.4z"/>
		<path class="st0" d="M46.8,109l0.7-0.3l0,0L46.8,109L46.8,109z"/>
		<path class="st0" d="M52,13.2l-0.5,0.6l0,0C51.6,13.6,51.8,13.4,52,13.2L52,13.2z"/>
		<path class="st0" d="M51.9,68L51.9,68l-0.4-0.7l0,0C51.7,67.5,51.8,67.8,51.9,68z"/>
		<path class="st0" d="M51,106.9l0.7-0.4l0,0C51.4,106.7,51.2,106.8,51,106.9L51,106.9z"/>
		<path class="st0" d="M48.5,52.8l0.7-0.3l0,0L48.5,52.8L48.5,52.8z"/>
		<path class="st0" d="M49,16.8l-0.5,0.6l0,0C48.7,17.3,48.9,17,49,16.8L49,16.8z"/>
		<path class="st0" d="M51.4,51.7l0.7-0.3l0,0L51.4,51.7L51.4,51.7z"/>
		<path class="st0" d="M50,64.6L50,64.6l0.4,0.7l0,0L50,64.6z"/>
		<polygon class="st0" points="50.7,66 51.1,66.7 51.2,66.6 50.8,66 		"/>
		<path class="st0" d="M49.5,16.2L49.5,16.2l0.5-0.6l0,0L49.5,16.2z"/>
		<path class="st0" d="M49.6,107.6L49.6,107.6l0.7-0.4l0,0L49.6,107.6z"/>
		<path class="st0" d="M49.9,52.2l0.7-0.3l0,0L49.9,52.2L49.9,52.2z"/>
		<path class="st0" d="M50.5,15L50.5,15l0.5-0.6l0,0L50.5,15z"/>
		<path class="st0" d="M49.1,63.3c0.1,0.2,0.3,0.5,0.4,0.7l0,0L49.1,63.3z"/>
		<path class="st0" d="M44.7,55c0.1,0.2,0.2,0.5,0.3,0.7l0,0C44.9,55.5,44.8,55.2,44.7,55z"/>
		<path class="st0" d="M45.5,53.9l0.7-0.3l0,0L45.5,53.9L45.5,53.9z"/>
		<path class="st0" d="M46.4,20.7c-0.1,0.2-0.3,0.4-0.4,0.7l0,0L46.4,20.7z"/>
		<path class="st0" d="M43.9,25.6L43.9,25.6c0.1-0.3,0.2-0.5,0.3-0.7l0,0C44.1,25.1,44,25.3,43.9,25.6z"/>
		<path class="st0" d="M46.1,57.8c0.1,0.2,0.2,0.5,0.4,0.7l0,0L46.1,57.8L46.1,57.8z"/>
		<path class="st0" d="M47.2,59.9L47.2,59.9c-0.1-0.2-0.3-0.5-0.4-0.7l0,0C46.9,59.4,47.1,59.6,47.2,59.9z"/>
		<path class="st0" d="M44,53.6c0.1,0.2,0.2,0.5,0.3,0.7l0,0C44.2,54,44.1,53.8,44,53.6z"/>
		<path class="st0" d="M47,53.3l0.7-0.3l0,0L47,53.3L47,53.3z"/>
		<path class="st0" d="M47.6,60.6l0.4,0.7l0,0L47.6,60.6L47.6,60.6z"/>
		<path class="st0" d="M45.4,56.4L45.4,56.4c0.1,0.2,0.2,0.5,0.3,0.7l0,0C45.6,56.8,45.5,56.6,45.4,56.4z"/>
		<path class="st0" d="M46.8,20.1L46.8,20.1l0.4-0.7l0,0L46.8,20.1z"/>
		<path class="st0" d="M48.1,18.1l-0.5,0.6l0,0C47.8,18.5,48,18.3,48.1,18.1L48.1,18.1z"/>
		<path class="st0" d="M45.3,22.8L45.3,22.8l0.4-0.7l0,0C45.5,22.3,45.4,22.5,45.3,22.8z"/>
		<path class="st0" d="M43.9,110.1l0.7-0.3l0,0L43.9,110.1L43.9,110.1z"/>
		<path class="st0" d="M13,80.3c-0.1,0.2-0.2,0.5-0.4,0.7h0.1C12.8,80.8,12.9,80.6,13,80.3L13,80.3z"/>
		<path class="st0" d="M12.5,106.9c0.2,0.2,0.4,0.4,0.6,0.6l0,0L12.5,106.9L12.5,106.9z"/>
		<path class="st0" d="M13.6,108c0.2,0.2,0.4,0.3,0.6,0.5l0,0C14.1,108.3,13.8,108.2,13.6,108L13.6,108z"/>
		<path class="st0" d="M11.5,105.7c0.1,0.2,0.3,0.4,0.5,0.6l0,0C11.8,106.1,11.7,105.9,11.5,105.7z"/>
		<path class="st0" d="M14.5,77.6c-0.1,0.2-0.3,0.5-0.4,0.7l0,0C14.3,78,14.4,77.8,14.5,77.6L14.5,77.6z"/>
		<path class="st0" d="M11.4,83.9L11.4,83.9c0.1-0.2,0.2-0.5,0.4-0.7l0,0C11.6,83.4,11.5,83.7,11.4,83.9z"/>
		<path class="st0" d="M12.4,81.8L12.4,81.8c-0.1,0.2-0.2,0.5-0.3,0.7h0.1L12.4,81.8z"/>
		<path class="st0" d="M13.4,79.6L13.4,79.6c0.1-0.2,0.2-0.4,0.4-0.7h-0.1C13.6,79.2,13.5,79.4,13.4,79.6z"/>
		<path class="st0" d="M17.7,110.4L17.7,110.4h0.1l0.7,0.3l0,0l-0.7-0.3H17.7z"/>
		<path class="st0" d="M16.2,109.7l0.7,0.4l0,0L16.2,109.7L16.2,109.7z"/>
		<path class="st0" d="M11.1,84.6l-0.3,0.7l0,0C10.9,85.1,11,84.9,11.1,84.6L11.1,84.6z"/>
		<path class="st0" d="M17,73.6l-0.5,0.6l0,0L17,73.6L17,73.6z"/>
		<path class="st0" d="M15.4,76.3L15.4,76.3c-0.1,0.2-0.3,0.4-0.4,0.7l0,0C15.1,76.7,15.2,76.5,15.4,76.3z"/>
		<path class="st0" d="M15.6,109.4L15.6,109.4l-0.7-0.4l0,0L15.6,109.4z"/>
		<path class="st0" d="M16.2,74.9c-0.1,0.2-0.3,0.4-0.4,0.7l0,0C15.9,75.3,16,75.1,16.2,74.9z"/>
		<path class="st0" d="M10.7,104.4c0.1,0.2,0.3,0.4,0.4,0.7l0,0C10.9,104.8,10.8,104.6,10.7,104.4L10.7,104.4z"/>
		<path class="st0" d="M8.7,96.1L8.7,96.1c0-0.3,0-0.5,0-0.8l0,0C8.7,95.6,8.7,95.8,8.7,96.1z"/>
		<path class="st0" d="M8.9,93L8.9,93C9,92.7,9,92.5,9.1,92.2H9C9,92.4,9,92.7,8.9,93z"/>
		<path class="st0" d="M8.8,94.5L8.8,94.5l0.1-0.8H8.8C8.8,94,8.8,94.3,8.8,94.5z"/>
		<path class="st0" d="M9.3,90.6c-0.1,0.3-0.1,0.5-0.1,0.8h0.1C9.2,91.2,9.3,90.9,9.3,90.6L9.3,90.6z"/>
		<path class="st0" d="M9.1,100c0,0.3,0.1,0.5,0.2,0.8l0,0C9.2,100.5,9.1,100.3,9.1,100L9.1,100z"/>
		<path class="st0" d="M8.8,98.4c0,0.3,0.1,0.5,0.1,0.8H9C9,98.9,8.9,98.7,8.8,98.4L8.8,98.4z"/>
		<path class="st0" d="M10.6,86.1L10.6,86.1l-0.3,0.7l0,0C10.5,86.6,10.6,86.4,10.6,86.1z"/>
		<path class="st0" d="M10,103c0.1,0.2,0.2,0.5,0.3,0.7l0,0C10.2,103.5,10.1,103.2,10,103L10,103z"/>
		<path class="st0" d="M9.9,88.4L9.9,88.4c0.1-0.3,0.1-0.5,0.2-0.8H10C10,87.9,10,88.1,9.9,88.4z"/>
		<path class="st0" d="M8.7,96.9c0,0.3,0,0.5,0,0.8h0.1C8.8,97.4,8.8,97.1,8.7,96.9L8.7,96.9z"/>
		<path class="st0" d="M9.4,101.5c0.1,0.3,0.2,0.5,0.3,0.7l0,0C9.6,102,9.5,101.8,9.4,101.5L9.4,101.5z"/>
		<path class="st0" d="M9.7,89.1c-0.1,0.3-0.1,0.5-0.2,0.8l0,0C9.6,89.6,9.6,89.4,9.7,89.1L9.7,89.1z"/>
		<path class="st0" d="M31.4,60.5L31.4,60.5l0.7-0.4l0,0L31.4,60.5z"/>
		<path class="st0" d="M30,61.3L30,61.3l0.7-0.4l0,0L30,61.3z"/>
		<path class="st0" d="M36.3,112l0.8-0.1l0,0L36.3,112z"/>
		<path class="st0" d="M26.9,112.5l0.8,0.1v-0.1C27.4,112.4,27.1,112.4,26.9,112.5L26.9,112.5z"/>
		<path class="st0" d="M29.3,61.7l-0.6,0.4l0,0L29.3,61.7L29.3,61.7z"/>
		<path class="st0" d="M28.5,112.5h0.8v-0.1L28.5,112.5L28.5,112.5z"/>
		<path class="st0" d="M28,62.6L27.4,63l0,0L28,62.6L28,62.6z"/>
		<path class="st0" d="M30,112.5h0.8v-0.1L30,112.5L30,112.5z"/>
		<path class="st0" d="M35.5,112.1L35.5,112.1l-0.8,0.1l0,0L35.5,112.1z"/>
		<path class="st0" d="M36.2,57.9l-0.7,0.3l0,0L36.2,57.9L36.2,57.9z"/>
		<path class="st0" d="M34.1,59L34.1,59l0.7-0.4l0,0L34.1,59z"/>
		<path class="st0" d="M32.4,112.4L32.4,112.4h-0.8l0,0H32.4z"/>
		<path class="st0" d="M32.7,59.7L32.7,59.7l0.7-0.4l0,0L32.7,59.7z"/>
		<path class="st0" d="M33.9,112.3L33.9,112.3h-0.8l0,0H33.9z"/>
		<path class="st0" d="M23.7,66L23.7,66l0.6-0.5l0,0L23.7,66z"/>
		<path class="st0" d="M20.7,111.5l0.8,0.2v-0.1L20.7,111.5L20.7,111.5z"/>
		<path class="st0" d="M19.9,69.9l-0.5,0.6l0,0L19.9,69.9L19.9,69.9z"/>
		<path class="st0" d="M22,67.6L22,67.6l-0.5,0.6l0,0L22,67.6z"/>
		<path class="st0" d="M19.2,111c0.2,0.1,0.5,0.2,0.8,0.2l0,0L19.2,111L19.2,111z"/>
		<path class="st0" d="M17.5,73L17.5,73l0.5-0.6l0,0C17.8,72.6,17.6,72.8,17.5,73z"/>
		<path class="st0" d="M20.4,69.3L20.4,69.3c0.2-0.2,0.3-0.4,0.5-0.6l0,0C20.8,68.9,20.6,69.1,20.4,69.3z"/>
		<path class="st0" d="M26.1,112.4L26.1,112.4l-0.8-0.1l0,0L26.1,112.4z"/>
		<path class="st0" d="M24.9,64.9L24.9,64.9l0.6-0.5l0,0L24.9,64.9z"/>
		<path class="st0" d="M26.8,63.5L26.1,64l0,0L26.8,63.5z"/>
		<path class="st0" d="M24.5,112.2L24.5,112.2l-0.8-0.1l0,0L24.5,112.2z"/>
		<path class="st0" d="M22.2,111.8c0.3,0.1,0.5,0.1,0.8,0.2l0,0L22.2,111.8z"/>
		<path class="st0" d="M23.2,66.5L23.2,66.5L23,66.7L22.7,67l0,0l0.3-0.3L23.2,66.5z"/>
		<path class="st0" d="M18.9,71.1l-0.5,0.6l0,0L18.9,71.1L18.9,71.1z"/>
		<path class="st0" d="M45.3,109.6l0.7-0.3l0,0L45.3,109.6L45.3,109.6z"/>
		<path class="st0" d="M85.4,39.6l0.7-0.3l0,0L85.4,39.6L85.4,39.6z"/>
		<path class="st0" d="M86.4,0.8L87.2,1l0,0L86.4,0.8L86.4,0.8z"/>
		<path class="st0" d="M84.9,0.5l0.8,0.1l0,0L84.9,0.5L84.9,0.5z"/>
		<path class="st0" d="M83.9,40.2l0.7-0.3l0,0L83.9,40.2L83.9,40.2z"/>
		<path class="st0" d="M82.4,40.8l0.7-0.3l0,0L82.4,40.8z"/>
		<path class="st0" d="M86.8,39l0.7-0.3l0,0L86.8,39L86.8,39z"/>
		<path class="st0" d="M83.3,0.3l0.8,0.1V0.3H83.3L83.3,0.3z"/>
		<path class="st0" d="M91,37l0.7-0.4l0,0L91,37L91,37z"/>
		<path class="st0" d="M90.9,2.1l0.7,0.3l0,0L90.9,2.1L90.9,2.1z"/>
		<path class="st0" d="M81.8,0.1l0.8,0.1l0,0L81.8,0.1L81.8,0.1z"/>
		<path class="st0" d="M89.7,37.7l0.7-0.4l0,0L89.7,37.7L89.7,37.7z"/>
		<path class="st0" d="M88.2,38.4l0.7-0.3l0,0L88.2,38.4L88.2,38.4z"/>
		<path class="st0" d="M92.4,36.2l0.7-0.4l0,0L92.4,36.2L92.4,36.2z"/>
		<path class="st0" d="M89.5,1.6l0.7,0.2v0L89.5,1.6L89.5,1.6z"/>
		<path class="st0" d="M88,1.2c0.3,0.1,0.5,0.1,0.8,0.2l0,0L88,1.2L88,1.2z"/>
		<path class="st0" d="M74.8,0.4L74,0.5v0.1L74.8,0.4L74.8,0.4z"/>
		<path class="st0" d="M73.6,44l0.7-0.3l0,0L73.6,44z"/>
		<path class="st0" d="M75.1,43.4l0.7-0.3l0,0L75.1,43.4L75.1,43.4z"/>
		<path class="st0" d="M76.3,0.2l-0.8,0.1l0,0L76.3,0.2L76.3,0.2z"/>
		<path class="st0" d="M73.2,0.6l-0.8,0.2l0,0L73.2,0.6L73.2,0.6z"/>
		<polygon class="st0" points="72.1,44.5 72.8,44.2 72.8,44.2 72.1,44.4 		"/>
		<path class="st0" d="M81,41.3l0.7-0.3l0,0L81,41.3L81,41.3z"/>
		<path class="st0" d="M80.2,41.5l-0.7,0.3l0,0L80.2,41.5L80.2,41.5z"/>
		<path class="st0" d="M80.2,0.1H81V0L80.2,0.1L80.2,0.1z"/>
		<path class="st0" d="M76.6,42.9l0.7-0.3l0,0L76.6,42.9L76.6,42.9z"/>
		<path class="st0" d="M79.4,0h-0.8l0,0H79.4z"/>
		<path class="st0" d="M77.9,0l-0.8,0.1l0,0L77.9,0L77.9,0z"/>
		<path class="st0" d="M78,42.4l0.7-0.3l0,0L78,42.4z"/>
		<path class="st0" d="M105,20.9c0-0.3,0.1-0.5,0.1-0.8l0,0C105.1,20.4,105.1,20.7,105,20.9z"/>
		<path class="st0" d="M103.4,11.1L103.4,11.1c0.1,0.2,0.3,0.5,0.4,0.7h0.1C103.6,11.6,103.5,11.3,103.4,11.1z"/>
		<path class="st0" d="M103.4,25.3L103.4,25.3l0.4-0.7h-0.1C103.6,24.8,103.5,25.1,103.4,25.3z"/>
		<path class="st0" d="M104.1,23.9c0.1-0.2,0.2-0.5,0.3-0.7l0,0C104.3,23.4,104.2,23.7,104.1,23.9L104.1,23.9z"/>
		<path class="st0" d="M101.7,28l0.5-0.6l0,0L101.7,28L101.7,28z"/>
		<path class="st0" d="M102.6,26.7L103,26l0,0C102.9,26.2,102.7,26.4,102.6,26.7L102.6,26.7z"/>
		<path class="st0" d="M104.4,13.2c-0.1-0.2-0.2-0.5-0.3-0.7l0,0C104.2,12.7,104.3,13,104.4,13.2z"/>
		<path class="st0" d="M102.5,9.8c0.2,0.2,0.3,0.4,0.4,0.6l0,0C102.8,10.3,102.6,10.1,102.5,9.8L102.5,9.8z"/>
		<path class="st0" d="M105.3,17.8V17h-0.1C105.3,17.3,105.3,17.5,105.3,17.8L105.3,17.8z"/>
		<path class="st0" d="M104.6,22.4c0.1-0.3,0.2-0.5,0.2-0.8l0,0C104.8,21.9,104.7,22.2,104.6,22.4z"/>
		<path class="st0" d="M101.5,8.6c0.2,0.2,0.3,0.4,0.5,0.6l0,0L101.5,8.6L101.5,8.6z"/>
		<path class="st0" d="M105.2,16.2c0-0.3-0.1-0.5-0.1-0.8l0,0C105.1,15.7,105.2,16,105.2,16.2L105.2,16.2z"/>
		<path class="st0" d="M105.3,19.4c0-0.3,0-0.5,0-0.8l0,0C105.3,18.8,105.3,19.1,105.3,19.4L105.3,19.4z"/>
		<path class="st0" d="M71.7,1l-0.8,0.2l0,0L71.7,1L71.7,1z"/>
		<path class="st0" d="M104.9,14.7c-0.1-0.3-0.1-0.5-0.2-0.8h-0.1C104.7,14.2,104.8,14.5,104.9,14.7L104.9,14.7z"/>
		<path class="st0" d="M93.7,35.4l0.7-0.4l0,0L93.7,35.4L93.7,35.4z"/>
		<path class="st0" d="M97.3,5.1l-0.7-0.4l0,0L97.3,5.1L97.3,5.1z"/>
		<path class="st0" d="M100.8,29.2c0.2-0.2,0.3-0.4,0.5-0.6l0,0C101.1,28.8,100.9,29,100.8,29.2z"/>
		<path class="st0" d="M95,34.5l0.6-0.5l0,0L95,34.5z"/>
		<path class="st0" d="M96,4.3l-0.7-0.4l0,0C95.5,4.1,95.8,4.2,96,4.3L96,4.3z"/>
		<path class="st0" d="M94.6,3.6l-0.7-0.3l0,0L94.6,3.6L94.6,3.6z"/>
		<path class="st0" d="M93.1,2.9l-0.7-0.3l0,0L93.1,2.9L93.1,2.9z"/>
		<path class="st0" d="M96.3,33.5c0.2-0.2,0.4-0.3,0.6-0.5l0,0C96.7,33.2,96.5,33.4,96.3,33.5z"/>
		<path class="st0" d="M98.6,31.5L98.6,31.5l0.6-0.5l0,0L98.6,31.5z"/>
		<path class="st0" d="M99.7,30.4l0.5-0.6l0,0L99.7,30.4z"/>
		<path class="st0" d="M100.4,7.5c0.2,0.2,0.4,0.4,0.6,0.5l0,0L100.4,7.5z"/>
		<path class="st0" d="M97.5,32.6c0.2-0.2,0.4-0.3,0.6-0.5l0,0L97.5,32.6z"/>
		<path class="st0" d="M98.6,6L98,5.5l0,0L98.6,6L98.6,6z"/>
		<path class="st0" d="M99.2,6.5c0.2,0.2,0.4,0.3,0.6,0.5l0,0C99.6,6.8,99.4,6.7,99.2,6.5z"/>
		<path class="st0" d="M53.7,11.5L53.7,11.5l0.6-0.5l0,0L53.7,11.5z"/>
		<path class="st0" d="M58,78.9c-0.1-0.2-0.2-0.4-0.3-0.7l0,0L58,78.9z"/>
		<path class="st0" d="M58,49.3l-0.7,0.3l0,0L58,49.3z"/>
		<path class="st0" d="M57.2,102.1l0.5-0.6l0,0L57.2,102.1z"/>
		<path class="st0" d="M53.6,105.2c0.2-0.2,0.4-0.3,0.6-0.5l0,0C54.1,104.9,53.9,105.1,53.6,105.2z"/>
		<path class="st0" d="M48.3,61.9l0.4,0.7l0,0L48.3,61.9z"/>
		<path class="st0" d="M54.3,50.6l0.7-0.3l0,0L54.3,50.6z"/>
		<path class="st0" d="M53.9,71.4l0.4,0.7l0,0L53.9,71.4L53.9,71.4z"/>
		<path class="st0" d="M61.6,90c0,0.3,0,0.5,0.1,0.8l0,0C61.7,90.6,61.7,90.3,61.6,90L61.6,90z"/>
		<path class="st0" d="M63,4.5l-0.7,0.4l0,0L63,4.5L63,4.5z"/>
		<path class="st0" d="M61.7,92.4L61.7,92.4c0-0.3,0-0.5,0-0.8l0,0C61.7,91.9,61.7,92.1,61.7,92.4z"/>
		<path class="st0" d="M54.8,10.5L54.8,10.5l0.6-0.5l0,0L54.8,10.5z"/>
		<path class="st0" d="M56.9,76.9c0.1,0.2,0.2,0.5,0.3,0.7l0,0C57.1,77.3,57,77.1,56.9,76.9L56.9,76.9z"/>
		<path class="st0" d="M61.7,48l0.7-0.3l0,0L61.7,48z"/>
		<path class="st0" d="M61.5,89.3c0-0.3-0.1-0.5-0.1-0.8l0,0C61.4,88.8,61.5,89,61.5,89.3z"/>
		<path class="st0" d="M57.2,8.4L57.2,8.4L57.8,8l0,0C57.6,8.1,57.4,8.2,57.2,8.4z"/>
		<path class="st0" d="M53.5,70.7L53.5,70.7L53.2,70l0,0L53.5,70.7z"/>
		<path class="st0" d="M52.6,12.7L52.6,12.7l0.5-0.6l0,0L52.6,12.7z"/>
		<path class="st0" d="M52.3,68.7c0.1,0.2,0.3,0.4,0.4,0.7l0,0L52.3,68.7L52.3,68.7z"/>
		<path class="st0" d="M52.3,106.1c0.2-0.1,0.4-0.3,0.7-0.4l0,0L52.3,106.1z"/>
		<polygon class="st0" points="53.6,50.8 52.8,51.1 52.9,51.1 53.6,50.9 		"/>
		<path class="st0" d="M70.6,45l0.8-0.3l0,0L70.6,45L70.6,45z"/>
		<path class="st0" d="M56,9.4L56,9.4l0.6-0.5l0,0C56.4,9.1,56.2,9.2,56,9.4z"/>
		<path class="st0" d="M55.4,74.1c0.1,0.2,0.3,0.5,0.4,0.7l0,0L55.4,74.1L55.4,74.1z"/>
		<path class="st0" d="M55.8,50.1l0.5-0.2l0.2-0.1l0,0l-0.2,0.1L55.8,50.1L55.8,50.1z"/>
		<path class="st0" d="M54.9,104.3l0.6-0.5l0,0L54.9,104.3z"/>
		<path class="st0" d="M56.1,103.2l0.6-0.5l0,0L56.1,103.2z"/>
		<path class="st0" d="M54.7,72.7L54.7,72.7c0.1,0.2,0.3,0.4,0.4,0.7l0,0L54.7,72.7z"/>
		<path class="st0" d="M56.2,75.4L56.2,75.4c0.1,0.2,0.3,0.5,0.4,0.7l0,0L56.2,75.4z"/>
		<path class="st0" d="M48.2,108.4l0.7-0.3l0,0L48.2,108.4z"/>
		<path class="st0" d="M58.4,7.4L58.4,7.4L59.1,7l0,0L58.4,7.4z"/>
		<polygon class="st0" points="64.7,47 65.4,46.8 65.4,46.7 		"/>
		<path class="st0" d="M63.2,47.5l0.7-0.3l0,0L63.2,47.5z"/>
		<path class="st0" d="M64.4,3.7l-0.7,0.4l0,0L64.4,3.7z"/>
		<path class="st0" d="M58.2,101l0.5-0.6l0,0L58.2,101z"/>
		<path class="st0" d="M58.3,79.7c0.1,0.2,0.2,0.5,0.3,0.7l0,0C58.5,80.1,58.4,79.9,58.3,79.7z"/>
		<path class="st0" d="M65.8,3.1l-0.7,0.3l0,0L65.8,3.1z"/>
		<polygon class="st0" points="69.1,45.5 69.9,45.2 69.9,45.2 		"/>
		<path class="st0" d="M68.7,1.9L68,2.2l0,0L68.7,1.9L68.7,1.9z"/>
		<path class="st0" d="M70.2,1.4l-0.7,0.2l0,0L70.2,1.4L70.2,1.4z"/>
		<path class="st0" d="M67.7,46l0.7-0.3l0,0L67.7,46z"/>
		<path class="st0" d="M66.2,46.5l0.8-0.3l0,0L66.2,46.5L66.2,46.5z"/>
		<path class="st0" d="M67.3,2.4l-0.7,0.3l0,0L67.3,2.4z"/>
		<path class="st0" d="M59.7,6.5L59.7,6.5l0.7-0.4l0,0L59.7,6.5z"/>
		<path class="st0" d="M60.6,85.5L60.6,85.5c0,0.2,0.1,0.5,0.2,0.8l0,0L60.6,85.5z"/>
		<path class="st0" d="M61.2,87.7L61.2,87.7C61.1,87.5,61,87.2,61,87l0,0C61.1,87.2,61.1,87.5,61.2,87.7z"/>
		<path class="st0" d="M60.9,96.2L60.9,96.2c-0.1,0.3-0.2,0.5-0.3,0.7l0,0C60.7,96.7,60.8,96.5,60.9,96.2z"/>
		<polygon class="st0" points="60.2,48.5 60.3,48.6 61,48.3 61,48.2 		"/>
		<path class="st0" d="M61,5.7L61,5.7l0.7-0.4l0,0C61.4,5.4,61.2,5.5,61,5.7z"/>
		<path class="st0" d="M61.6,93.2L61.6,93.2c0,0.3-0.1,0.5-0.2,0.8l0,0C61.6,93.7,61.6,93.4,61.6,93.2z"/>
		<path class="st0" d="M60.1,84L60.1,84c0,0.3,0.1,0.5,0.2,0.7l0,0C60.3,84.5,60.2,84.3,60.1,84z"/>
		<path class="st0" d="M59.5,82.5l0.3,0.7l0,0C59.7,83,59.6,82.8,59.5,82.5z"/>
		<path class="st0" d="M59.6,99L59.6,99l-0.4,0.7l0,0C59.3,99.5,59.4,99.3,59.6,99z"/>
		<polygon class="st0" points="58.8,49 58.8,49.1 59.5,48.8 59.5,48.8 		"/>
		<path class="st0" d="M59,81.1L59,81.1l0.3,0.7l0,0L59,81.1z"/>
		<path class="st0" d="M61.1,95.5L61.1,95.5c0.1-0.3,0.1-0.5,0.2-0.8h-0.1C61.3,95,61.2,95.2,61.1,95.5z"/>
		<path class="st0" d="M59.9,98.3L59.9,98.3c0.1-0.2,0.3-0.5,0.4-0.7l0,0L59.9,98.3z"/>
		<path class="st0" d="M8.1,139.8c-0.1,0-0.3-0.1-0.3-0.2l0,0H7.6c0,0.2,0.2,0.4,0.4,0.4l0,0c0.2,0,0.5-0.2,0.5-0.4c0,0,0,0,0-0.1
			c0-0.2-0.1-0.4-0.4-0.5c0,0,0,0-0.1,0c-0.1,0-0.2,0-0.3,0.1l0,0l0.1-0.4h0.6v-0.1H7.8l-0.1,0.7h0.1c0.1-0.1,0.1-0.1,0.2-0.1
			c0.2,0,0.3,0.1,0.3,0.3l0,0C8.3,139.7,8.2,139.8,8.1,139.8z"/>
		<path class="st0" d="M9.5,138.6l-0.6,0.9v0.2h0.6v0.4h0.2v-0.3h0.2v-0.1H9.6v-0.9L9.5,138.6z M9.5,139.5H9l0.4-0.7l0,0L9.5,139.5z
			"/>
		<path class="st0" d="M10.1,139.6c0,0.3,0.2,0.4,0.5,0.4c0.2,0,0.4-0.1,0.4-0.4l0,0c0-0.2-0.1-0.3-0.2-0.4c0.1,0,0.2-0.2,0.2-0.3
			c0-0.2-0.1-0.4-0.4-0.4c-0.2,0-0.4,0.1-0.4,0.3l0,0c0,0.1,0.1,0.2,0.2,0.3C10.2,139.3,10.1,139.4,10.1,139.6z M10.4,138.9
			c0-0.1,0.1-0.2,0.2-0.2l0,0c0.1,0,0.2,0.1,0.2,0.2l0,0c0,0.1-0.1,0.2-0.2,0.2l0,0C10.5,139.2,10.4,139.1,10.4,138.9L10.4,138.9z
			 M10.6,139.3c0.1,0,0.3,0.1,0.3,0.2c0,0.1-0.1,0.3-0.2,0.3h-0.1c-0.1,0-0.3-0.1-0.3-0.2l0,0C10.3,139.4,10.4,139.3,10.6,139.3
			L10.6,139.3L10.6,139.3z"/>
		<path class="st0" d="M12.3,139.3c0-0.3,0-0.7-0.5-0.7s-0.4,0.4-0.4,0.7s0,0.7,0.4,0.7S12.3,139.6,12.3,139.3z M11.6,139.3
			c0-0.2,0-0.6,0.3-0.6s0.3,0.3,0.3,0.6s0,0.6-0.3,0.6S11.6,139.5,11.6,139.3z"/>
		<path class="st0" d="M13.1,139.8c-0.1,0-0.3-0.1-0.3-0.3h-0.2c0,0.2,0.2,0.4,0.4,0.4l0,0c0.2,0,0.5-0.2,0.5-0.4l0,0
			c0-0.2-0.1-0.4-0.4-0.5c0,0,0,0-0.1,0s-0.2,0-0.3,0.1l0,0l0.1-0.4h0.6v-0.1h-0.7l-0.1,0.7h0.1c0.1-0.1,0.2-0.1,0.3-0.1
			c0.2,0,0.3,0.1,0.3,0.3l0,0C13.4,139.7,13.3,139.8,13.1,139.8C13.2,139.8,13.1,139.8,13.1,139.8z"/>
		<path class="st0" d="M14.3,139.4c-0.2,0.1-0.4,0.3-0.4,0.6h0.9v-0.1h-0.7c0-0.2,0.2-0.3,0.4-0.4c0.2-0.1,0.3-0.3,0.3-0.5
			s-0.2-0.4-0.4-0.4l0,0c-0.2,0-0.4,0.2-0.4,0.4c0,0,0,0,0,0.1h0.2c0-0.2,0.1-0.3,0.3-0.3c0.1,0,0.2,0.1,0.3,0.2l0,0
			C14.6,139.2,14.5,139.3,14.3,139.4z"/>
		<path class="st0" d="M15.5,139.4c-0.2,0-0.3,0.1-0.3,0.3s0.1,0.3,0.3,0.3c0.1,0,0.3,0,0.4-0.1c0,0.1,0,0.1,0.1,0.1h0.1v-0.1l0,0
			l-0.1-0.1v-0.5c0-0.2-0.2-0.3-0.4-0.3s-0.4,0.1-0.4,0.3h0.2c0-0.1,0.1-0.2,0.3-0.2s0.2,0,0.2,0.2S15.7,139.4,15.5,139.4z
			 M15.9,139.6c0,0.1-0.1,0.2-0.3,0.2s-0.2,0-0.2-0.1s0.1-0.2,0.2-0.2c0.1,0,0.2,0,0.3-0.1V139.6z"/>
		<path class="st0" d="M16.8,139.4c-0.2,0-0.3,0.1-0.3,0.3s0.1,0.3,0.3,0.3c0.1,0,0.3,0,0.4-0.1c0,0.1,0,0.1,0.1,0.1h0.1v-0.1l0,0
			v-0.1v-0.5c0-0.2-0.2-0.3-0.4-0.3s-0.4,0.1-0.4,0.3h0.2c0-0.1,0.1-0.2,0.3-0.2s0.2,0,0.2,0.2S16.9,139.4,16.8,139.4z M17.1,139.6
			c0,0.1-0.1,0.2-0.3,0.2s-0.2,0-0.2-0.1s0.1-0.2,0.2-0.2s0.2,0,0.3-0.1V139.6z"/>
		<path class="st0" d="M18,139.4c-0.2,0-0.3,0.1-0.3,0.3s0.1,0.3,0.3,0.3c0.1,0,0.3,0,0.4-0.1c0,0.1,0.1,0.1,0.1,0.1h0.1v-0.1l0,0
			v-0.1v-0.5c0-0.2-0.2-0.3-0.4-0.3s-0.4,0.1-0.4,0.3H18c0-0.1,0.1-0.2,0.2-0.2s0.2,0,0.2,0.2S18.2,139.4,18,139.4z M18.3,139.6
			c0,0.1-0.2,0.2-0.3,0.2c-0.1,0-0.2,0-0.2-0.1s0.1-0.2,0.2-0.2s0.2,0,0.3-0.1V139.6z"/>
		<path class="st0" d="M19.3,138.7L19.3,138.7l0.1-0.1h-0.1c-0.2,0-0.3,0.1-0.3,0.2v0.2h-0.2v0.1H19v0.9h0.2v-0.9h0.2V139h-0.2v-0.1
			L19.3,138.7z"/>
		<path class="st0" d="M44.9,139.8c-0.1,0-0.2-0.1-0.2-0.2l0,0h-0.2c0,0.2,0.2,0.4,0.4,0.4l0,0c0.3,0,0.5-0.3,0.5-0.7
			s-0.2-0.7-0.5-0.7c-0.2,0-0.4,0.2-0.5,0.4l0,0c0,0.2,0.1,0.4,0.4,0.5c0,0,0,0,0.1,0s0.3-0.1,0.3-0.2l0,0
			C45.2,139.7,45.1,139.8,44.9,139.8z M44.9,139.3c-0.2,0-0.3-0.1-0.3-0.3l0,0c0-0.2,0.1-0.3,0.3-0.3s0.3,0.1,0.3,0.3l0,0
			C45.2,139.2,45.1,139.3,44.9,139.3C44.9,139.3,44.9,139.4,44.9,139.3L44.9,139.3z"/>
		<path class="st0" d="M46.6,139.3c0-0.3,0-0.7-0.5-0.7s-0.5,0.4-0.5,0.7s0,0.7,0.5,0.7S46.6,139.6,46.6,139.3z M45.9,139.3
			c0-0.2,0-0.6,0.3-0.6s0.3,0.3,0.3,0.6s0,0.6-0.3,0.6S45.9,139.5,45.9,139.3z"/>
		<path class="st0" d="M47.4,139.8c-0.1,0-0.3-0.1-0.3-0.2H47c0,0.3,0.2,0.3,0.4,0.3s0.4-0.1,0.4-0.3s-0.2-0.3-0.3-0.3
			s-0.3,0-0.3-0.2s0.1-0.1,0.2-0.1s0.2,0,0.2,0.2h0.2c0-0.2-0.2-0.3-0.4-0.3S47,139,47,139.2s0.2,0.2,0.3,0.3s0.3,0.1,0.3,0.2
			S47.5,139.8,47.4,139.8z"/>
		<path class="st0" d="M48.5,139.4c-0.2,0-0.3,0.1-0.3,0.3s0.1,0.3,0.3,0.3c0.1,0,0.3,0,0.3-0.1c0,0.1,0,0.1,0,0.2h0.1H49V140l0,0
			v-0.1v-0.5c0-0.2-0.2-0.3-0.4-0.3s-0.4,0.1-0.4,0.3L48.5,139.4c0-0.2,0.1-0.3,0.2-0.3s0.2,0,0.2,0.2S48.7,139.4,48.5,139.4z
			 M48.8,139.6c0,0.1-0.1,0.2-0.3,0.2s-0.2,0-0.2-0.1s0.1-0.2,0.2-0.2c0.1,0,0.2,0,0.3-0.1V139.6z"/>
		<path class="st0" d="M49.9,138.7c0.1,0,0.2,0.1,0.2,0.2l0,0h0.2c0-0.2-0.2-0.4-0.4-0.4l0,0c-0.4,0-0.5,0.4-0.5,0.7
			s0.1,0.7,0.5,0.7c0.2,0,0.4-0.2,0.5-0.4c0,0,0,0,0-0.1c0-0.2-0.1-0.4-0.4-0.4c0,0,0,0-0.1,0s-0.3,0.1-0.3,0.2l0,0
			C49.5,139,49.6,138.7,49.9,138.7z M49.9,139.2c0.2,0,0.3,0.1,0.3,0.3s-0.1,0.3-0.3,0.3s-0.3-0.1-0.3-0.3l0,0
			C49.6,139.4,49.7,139.2,49.9,139.2C49.8,139.2,49.8,139.2,49.9,139.2L49.9,139.2z"/>
		<path class="st0" d="M51.1,139.8c-0.2,0-0.3-0.1-0.3-0.3l0,0h-0.2C50.6,139.7,50.7,139.9,51.1,139.8L51.1,139.8
			c0.2,0.1,0.4,0,0.5-0.3l0,0c0-0.2-0.1-0.3-0.3-0.3l0,0c0.1,0,0.2-0.2,0.2-0.3c0-0.3-0.2-0.4-0.4-0.4s-0.4,0.2-0.4,0.4
			c0,0,0,0,0,0.1h0.2c0-0.2,0.1-0.3,0.3-0.3s0.3,0.1,0.3,0.2c0,0.1-0.1,0.2-0.2,0.2l0,0H51v0.1h0.1c0.2,0,0.3,0.1,0.3,0.3
			C51.4,139.7,51.2,139.9,51.1,139.8L51.1,139.8z"/>
		<path class="st0" d="M52.3,139.8c-0.2,0-0.3-0.1-0.3-0.3l0,0h-0.2C51.9,139.8,52.1,140,52.3,139.8c0.3,0.1,0.4-0.1,0.5-0.3
			c0-0.2-0.1-0.3-0.2-0.3l0,0c0.1,0,0.2-0.2,0.2-0.3c0-0.3-0.2-0.4-0.4-0.4s-0.4,0.2-0.4,0.4h0.2c0-0.1,0.1-0.3,0.2-0.3l0,0
			c0.1,0,0.2,0.1,0.2,0.2l0,0c0,0.1-0.1,0.2-0.2,0.2l0,0h-0.1v0.1h0.1c0.1,0,0.3,0.1,0.3,0.2l0,0C52.6,139.7,52.5,139.8,52.3,139.8
			C52.4,139.8,52.3,139.8,52.3,139.8z"/>
		<path class="st0" d="M53.6,139.8c-0.2,0-0.3-0.1-0.3-0.3l0,0h-0.2C53.1,139.7,53.2,139.9,53.6,139.8L53.6,139.8
			c0.2,0.1,0.4,0,0.5-0.3l0,0c0-0.2-0.1-0.3-0.3-0.3l0,0c0.1,0,0.2-0.1,0.2-0.2c0-0.3-0.2-0.4-0.4-0.4s-0.4,0.2-0.4,0.4
			c0,0,0,0,0,0.1h0.2c0-0.1,0.1-0.3,0.2-0.3l0,0c0.1,0,0.3,0.1,0.3,0.2c0,0.1-0.1,0.2-0.3,0.2l0,0h-0.1v0.1h0.1
			c0.1,0,0.3,0.1,0.3,0.2l0,0C53.9,139.8,53.7,139.9,53.6,139.8z"/>
		<path class="st0" d="M94.4,139.4c-0.2,0-0.3,0.1-0.3,0.3s0.2,0.3,0.3,0.3c0.1,0,0.3,0,0.3-0.1c0,0.1,0.1,0.1,0.1,0.1H95v-0.1l0,0
			v-0.1v-0.5c0-0.2-0.2-0.3-0.4-0.3s-0.4,0.1-0.4,0.3h0.2c0-0.1,0.1-0.2,0.2-0.2s0.2,0,0.2,0.2S94.6,139.4,94.4,139.4z M94.8,139.6
			c0,0.1-0.1,0.2-0.3,0.2s-0.2,0-0.2-0.1s0.1-0.2,0.2-0.2s0.2,0,0.3-0.1V139.6z"/>
		<path class="st0" d="M95.7,139.4c-0.2,0-0.3,0.1-0.3,0.3s0.2,0.3,0.3,0.3c0.1,0,0.3,0,0.3-0.1c0,0.1,0.1,0.1,0.1,0.1h0.1v-0.1l0,0
			v-0.1v-0.5c0-0.2-0.2-0.3-0.4-0.3s-0.4,0.1-0.4,0.3h0.2c0-0.1,0.1-0.2,0.2-0.2s0.2,0,0.2,0.2S95.8,139.4,95.7,139.4z M96,139.6
			c0,0.1-0.1,0.2-0.3,0.2s-0.2,0-0.2-0.1s0.1-0.2,0.2-0.2s0.2,0,0.3-0.1V139.6z"/>
		<path class="st0" d="M97,139.1c0.1,0,0.2,0.1,0.3,0.2h0.2c0-0.2-0.2-0.4-0.4-0.3l0,0c-0.3,0-0.5,0.2-0.5,0.5
			c0,0.2,0.1,0.5,0.4,0.5h0.1c0.2,0,0.4-0.2,0.4-0.4l0,0h-0.2c0,0.1-0.1,0.3-0.3,0.3c-0.2,0-0.3-0.2-0.3-0.4S96.8,139.1,97,139.1z"
			/>
		<path class="st0" d="M98.4,140v-1.4h-0.1c0,0.2-0.2,0.3-0.4,0.3v0.1h0.4L98.4,140L98.4,140L98.4,140z"/>
		<path class="st0" d="M100,139.3c0-0.3,0-0.7-0.5-0.7s-0.4,0.4-0.4,0.7s0,0.7,0.4,0.7S100,139.6,100,139.3z M99.3,139.3
			c0-0.2,0-0.6,0.3-0.6s0.3,0.3,0.3,0.6s0,0.6-0.3,0.6S99.2,139.5,99.3,139.3L99.3,139.3z"/>
		<path class="st0" d="M100.7,139.4c-0.2,0.1-0.4,0.3-0.4,0.6h0.9v-0.1h-0.7c0-0.2,0.2-0.3,0.4-0.4c0.2-0.1,0.3-0.3,0.3-0.5
			s-0.2-0.4-0.4-0.4l0,0c-0.2,0-0.4,0.2-0.4,0.4v0.1h0.2c0-0.2,0.1-0.3,0.2-0.3l0,0c0.1,0,0.2,0.1,0.3,0.2l0,0
			C101,139.2,100.9,139.3,100.7,139.4z"/>
		<path class="st0" d="M102.2,140v-1.4H102c0,0.2-0.2,0.3-0.4,0.3v0.1h0.4v1L102.2,140L102.2,140z"/>
	</g>
</g>
</svg>
