<?xml version="1.0" encoding="utf-8"?>
<!-- Generator: Adobe Illustrator 23.0.6, SVG Export Plug-In . SVG Version: 6.00 Build 0)  -->
<svg version="1.1" id="Layer_1" xmlns="http://www.w3.org/2000/svg" xmlns:xlink="http://www.w3.org/1999/xlink" x="0px" y="0px"
	 viewBox="0 0 105.7 105" style="enable-background:new 0 0 105.7 105;" xml:space="preserve">
<style type="text/css">
	.st0{fill:#FFFFFF;}
</style>
<title>Asset 141</title>
<g>
	<g id="_Layer_">
		<path class="st0" d="M53.2,46.6c1.3,0,1.8-1.6,1.8-1.6V13.2c0,0,0-1.5,0-2.7C54.9,8,47.1,1,47.1,1v17.5l0.7,0.6
			c0.7,0.6,3.7,1.6,3.7,5.4V45C51.4,45,51.8,46.6,53.2,46.6z"/>
		<path class="st0" d="M47.5,1h-0.4l-0.3,0.3l0.3,0.3L47.5,2V1z"/>
		<path class="st0" d="M54.6,44.9L54.6,44.9L54.6,44.9L55,45L54.6,44.9L54.6,44.9z"/>
		<path class="st0" d="M47.4,18.2l-0.3,0.3h0.4v-0.2L47.4,18.2z"/>
		<path class="st0" d="M51,45.1L51,45.1l0.4-0.1l0.4-0.1l0,0V24.5c0-1.6-0.6-3.1-1.8-4.1c-0.4-0.4-0.8-0.7-1.3-1
			c-0.3-0.2-0.5-0.3-0.8-0.5l-0.5-0.5v0.2H47l0.3-0.3l0.1,0.1V2l-0.4-0.4l-0.3-0.3L47.1,1h0.4v1c0.9,0.8,2.5,2.4,3.9,4
			c0.8,0.9,1.5,1.8,2.2,2.7c0.3,0.4,0.5,0.7,0.7,1.1c0.1,0.2,0.2,0.5,0.2,0.8c0,0.4,0,0.8,0,1.2c0,0.8,0,1.5,0,1.5l0,0V45l0,0l0,0
			H55h-0.4l0,0c-0.1,0.2-0.2,0.5-0.4,0.7c-0.4,0.5-1.2,0.7-1.7,0.3c-0.1-0.1-0.2-0.2-0.3-0.3c-0.1-0.1-0.2-0.3-0.2-0.4L51.9,45l0,0
			h-0.4L51,45.1c0.1,0.3,0.3,0.6,0.5,0.9c0.6,1,1.9,1.2,2.9,0.6c0.3-0.2,0.5-0.4,0.6-0.6c0.2-0.3,0.4-0.6,0.5-0.9v-0.1V13.2H55h0.4
			l0,0c0,0,0-0.7,0-1.5c0-0.4,0-0.8,0-1.2c-0.1-0.5-0.2-0.9-0.4-1.3c-1.3-2-2.8-3.8-4.5-5.5c-1.7-1.8-3.2-3.1-3.2-3.1L46.6,0v18.7
			l0.1,0.1l0.7,0.6c0.3,0.2,0.6,0.5,0.9,0.6c0.7,0.4,1.3,0.9,1.8,1.5c0.6,0.8,1,1.9,0.9,2.9L51,45.1L51,45.1z"/>
		<path class="st0" d="M51.9,44.9L51.9,44.9L51.4,45h0.4L51.9,44.9L51.9,44.9z"/>
		<polygon class="st0" points="55,13.2 55.5,13.2 55.5,13.2 		"/>
		<path class="st0" d="M31.7,34.1l14.5,14.5c0.7,0.5,1.7,0.4,2.3-0.2c0.9-0.9,0.2-2.3,0.2-2.3L26.3,23.6c0,0-1.1-1.1-1.9-1.9
			C22.5,20,12,20.5,12,20.5l12.4,12.4h0.9C26.2,32.9,29.1,31.4,31.7,34.1z"/>
		<path class="st0" d="M24.4,32.5v0.4l0.3-0.3l-0.1-0.1H24.4z"/>
		<polygon class="st0" points="26.3,23.6 26.6,23.3 26.6,23.3 		"/>
		<path class="st0" d="M12.3,20.2L12,20.5l0,0.5h1L12.3,20.2z"/>
		<path class="st0" d="M46.5,48.2L46.5,48.2l-0.2,0.4L46.5,48.2L46.5,48.2L46.5,48.2z"/>
		<path class="st0" d="M48.5,46.4l0.3-0.3l-0.4,0.2l0,0l0,0L48.5,46.4z"/>
		<path class="st0" d="M25.3,33.4c0.4,0,0.8-0.1,1.2-0.2c0.5-0.1,1.1-0.2,1.6-0.2c1.3,0,2.5,0.5,3.3,1.4l8.3,8.3l6.2,6.2l0,0L46,49
			l0.2-0.4l0.2-0.4l0,0l0,0L32,33.8c-1-1.1-2.5-1.7-4-1.7c-0.6,0-1.2,0.1-1.8,0.2c-0.3,0.1-0.7,0.2-1,0.2h-0.7l0.1,0.1l-0.3,0.3
			v-0.4h0.2L13,20.9h-1v-0.4l0.3-0.3l0.7,0.7h0.1c0.7,0,1.6,0,2.7,0c1.7,0,3.3,0.1,5,0.2c0.7,0.1,1.4,0.2,2.1,0.4
			c0.4,0.1,0.8,0.3,1.2,0.5c0.4,0.4,0.9,0.9,1.3,1.2s0.6,0.6,0.6,0.6l0,0l22.5,22.5l0,0l0,0l0.4-0.2l-0.3,0.3l-0.1-0.1
			c0.1,0.3,0.2,0.6,0.2,0.9c0,0.7-0.5,1.2-1.2,1.2c0,0,0,0,0,0c-0.2,0-0.5-0.1-0.7-0.1l-0.2-0.1l0,0l0,0l-0.3,0.3L46,49
			c0.4,0.2,0.9,0.4,1.4,0.4c1.1,0,2-0.8,2.1-1.9c0-0.1,0-0.1,0-0.2c0-0.5-0.1-1-0.3-1.4v-0.1L26.6,23.3l-0.3,0.3l0.3-0.3l0,0
			c0,0-1.1-1.1-1.9-1.9c-0.4-0.4-1-0.6-1.5-0.7c-2.4-0.5-4.9-0.7-7.3-0.6c-2.2,0-3.8,0.1-3.9,0.1h-1l13.2,13.3H25.3z"/>
		<path class="st0" d="M48.9,59.1c0.5-0.7,0.4-1.7-0.2-2.3c-0.9-0.9-2.3-0.2-2.3-0.2L23.8,79c0,0-1.1,1.1-1.9,1.9
			c-1.7,1.8-1.1,12.4-1.1,12.4l12.4-12.4V80c0-0.9-1.5-3.8,1.2-6.4S48.9,59.1,48.9,59.1z"/>
		<path class="st0" d="M21.2,92.3L20.5,93l0.3,0.3h0.4C21.2,93.3,21.2,92.9,21.2,92.3z"/>
		<path class="st0" d="M32.8,80.7v0.2h0.4l-0.3-0.3L32.8,80.7z"/>
		<polygon class="st0" points="23.5,78.7 23.8,79 23.5,78.7 		"/>
		<path class="st0" d="M46.6,56.9L46.6,56.9l-0.3-0.4L46.6,56.9L46.6,56.9L46.6,56.9z"/>
		<path class="st0" d="M21.6,80.6c-0.4,0.4-0.6,1-0.7,1.5c-0.5,2.4-0.7,4.9-0.6,7.3c0,2.2,0.1,3.9,0.1,3.9l0,1l13.2-13.2V80
			c0-0.4-0.1-0.8-0.2-1.2c-0.1-0.5-0.2-1-0.2-1.6c0-1.3,0.5-2.5,1.4-3.3c2.8-2.8,14.5-14.5,14.5-14.5l0,0l0,0l-0.4-0.2l-0.4-0.2l0,0
			l0,0c-0.2,0.2-0.8,0.8-1.8,1.8C43.2,64.1,36.1,71.2,34,73.3c-1.1,1-1.7,2.5-1.7,4c0,0.6,0.1,1.2,0.3,1.7c0.1,0.3,0.2,0.7,0.2,1
			v0.7l0.1-0.1l0.3,0.3h-0.4v-0.2L21.2,92.3c0,0.6,0,1,0,1h-0.4L20.5,93l0.7-0.7v-0.1c0-0.7,0-1.6,0-2.7c0-1.7,0.1-3.3,0.2-5
			c0.1-0.7,0.2-1.4,0.4-2.1c0.1-0.4,0.3-0.8,0.5-1.2c0.4-0.4,0.9-0.9,1.2-1.2s0.6-0.6,0.6-0.6l0,0l22.4-22.5h0l-0.2-0.4l0.3,0.3v0.1
			c0.3-0.1,0.6-0.2,0.9-0.2c0.3,0,0.6,0.1,0.8,0.3c0.2,0.2,0.4,0.5,0.4,0.9c0,0.2,0,0.5-0.1,0.7l-0.1,0.2l0,0h0l0.3,0.3l0.4,0.2
			c0.2-0.4,0.4-0.9,0.4-1.4c0-0.6-0.3-1.1-0.7-1.5c-0.4-0.4-0.9-0.6-1.5-0.6c-0.5,0-1,0.1-1.4,0.3h-0.1L23.5,78.7l0,0l0.3,0.3
			l-0.3-0.3C23.5,78.7,22.4,79.8,21.6,80.6z"/>
		<path class="st0" d="M48.5,58.8L48.5,58.8L48.5,58.8l0.4,0.2L48.5,58.8L48.5,58.8z"/>
		<path class="st0" d="M53.7,58.4C52.4,58.4,52,60,52,60v31.8c0,0,0,1.5,0,2.7c0.1,2.5,8,9.6,8,9.6V86.5l-0.7-0.7
			c-0.7-0.7-3.7-1.6-3.7-5.4V60C55.6,60,55.1,58.4,53.7,58.4z"/>
		<path class="st0" d="M52.4,60.1L52.4,60.1L52,60L52.4,60.1L52.4,60.1C52.4,60.1,52.4,60.1,52.4,60.1z"/>
		<path class="st0" d="M59.9,103.4l-0.4-0.4v1h0.4l0.3-0.3L59.9,103.4z"/>
		<path class="st0" d="M59.9,86.5h-0.4v0.2l0.1,0.1L59.9,86.5z"/>
		<path class="st0" d="M56,62.6v-2.8L55.6,60l-0.4,0.1l0,0l0,0l0,0v20.4c-0.1,1.6,0.6,3.1,1.8,4.2c0.4,0.4,0.8,0.7,1.3,1
			c0.3,0.2,0.5,0.3,0.8,0.5l0,0l0.5,0.5v-0.2H60l-0.3,0.3l-0.1-0.1v16.4l0.4,0.4l0.3,0.3l-0.3,0.3h-0.4v-1c-0.9-0.8-2.5-2.3-3.9-3.9
			c-0.8-0.9-1.5-1.8-2.2-2.7c-0.3-0.4-0.5-0.8-0.7-1.2c-0.1-0.2-0.2-0.5-0.2-0.8c0-0.4,0-0.8,0-1.2c0-0.8,0-1.5,0-1.5l0,0V60.1l0,0
			l0,0L52,60h0.4v0.1c0.1-0.2,0.2-0.5,0.4-0.7c0.4-0.5,1.1-0.7,1.7-0.3c0.1,0.1,0.2,0.2,0.3,0.3c0.1,0.1,0.2,0.3,0.3,0.4l0,0.1V60
			h0.4l0.4-0.1c-0.1-0.3-0.3-0.6-0.4-0.9c-0.4-0.6-1-1-1.8-1c-0.7,0-1.3,0.4-1.7,1c-0.2,0.3-0.4,0.6-0.5,0.9V60v31.8l0,0
			c0,0,0,0.7,0,1.5c0,0.4,0,0.8,0,1.2c0,0.5,0.2,0.9,0.4,1.3c1.2,2,2.7,3.8,4.5,5.5c1.7,1.7,3.2,3.1,3.2,3.1l0.7,0.7V86.3l-0.1-0.1
			l-0.7-0.7l0,0c-0.3-0.2-0.6-0.5-0.9-0.6c-0.7-0.4-1.3-0.9-1.8-1.5c-0.6-0.8-0.9-1.9-0.9-2.9L56,62.6L56,62.6z"/>
		<polygon class="st0" points="51.5,91.8 52,91.8 51.5,91.8 		"/>
		<path class="st0" d="M55.1,60.1l0.4-0.1h-0.4L55.1,60.1L55.1,60.1L55.1,60.1L55.1,60.1z"/>
		<path class="st0" d="M82.3,83.7c1.8,1.7,12.4,1.2,12.4,1.2L82.3,72.4h-0.9c-0.9,0-3.8,1.5-6.4-1.1L60.4,56.7
			c-0.7-0.5-1.7-0.4-2.3,0.2c-0.9,0.9-0.2,2.3-0.2,2.3l22.5,22.5C80.4,81.8,81.4,82.9,82.3,83.7z"/>
		<polygon class="st0" points="80.1,82.1 80.1,82.1 80.4,81.8 		"/>
		<path class="st0" d="M94.6,84.4h-1l0.7,0.7l0.3-0.3V84.4z"/>
		<path class="st0" d="M82.3,72.4L82,72.7l0.1,0.1h0.2V72.4z"/>
		<path class="st0" d="M58.2,59L58.2,59l-0.4,0.3L58.2,59L58.2,59L58.2,59z"/>
		<path class="st0" d="M60.2,57.1l0.2-0.4L60.2,57.1L60.2,57.1L60.2,57.1L60.2,57.1z"/>
		<path class="st0" d="M80.1,82.1l0.3-0.3L80.1,82.1L80.1,82.1c0,0,1.1,1.1,1.9,1.9c0.4,0.4,1,0.6,1.5,0.7c2.4,0.5,4.9,0.7,7.3,0.6
			c2.2,0,3.9-0.1,3.9-0.1h1L82.4,72h-1.1c-0.4,0-0.8,0.1-1.2,0.2c-0.5,0.1-1.1,0.2-1.6,0.2c-1.3,0-2.5-0.5-3.3-1.4
			c-2.8-2.8-14.5-14.5-14.5-14.5l0,0h0l-0.2,0.4l-0.2,0.4l0,0l1.8,1.7c3.4,3.4,10.6,10.6,12.6,12.6c1,1.1,2.5,1.7,3.9,1.7
			c0.6,0,1.2-0.1,1.8-0.2c0.3-0.1,0.7-0.2,1-0.2h0.7L82,72.7l0.3-0.3v0.4h-0.2l11.5,11.6h1v0.4l-0.3,0.3l-0.7-0.7h-0.1
			c-0.7,0-1.7,0-2.7,0c-1.7,0-3.3-0.1-5-0.2c-0.7-0.1-1.4-0.2-2.1-0.4c-0.4-0.1-0.8-0.3-1.2-0.5c-0.4-0.4-0.9-0.8-1.3-1.2
			s-0.6-0.7-0.6-0.7l0,0L58.2,59l0,0l0,0l-0.4,0.2l0.3-0.3l0.1,0C58.1,58.7,58,58.3,58,58c0-0.6,0.5-1.2,1.1-1.2c0,0,0.1,0,0.1,0
			c0.2,0,0.5,0,0.7,0.1l0.2,0.1l0,0v0l0.3-0.3l0.2-0.4c-0.4-0.2-0.9-0.3-1.4-0.3c-1.1,0-2,0.8-2.1,1.9c0,0.1,0,0.1,0,0.2
			c0,0.5,0.1,0.9,0.3,1.4v0.1L80.1,82.1z"/>
		<path class="st0" d="M92.4,54.4c0,0,1.5,0,2.7,0c2.5-0.1,9.6-8,9.6-8H87.2L86.5,47c-0.7,0.7-1.6,3.7-5.4,3.7H60.6
			c0,0-1.5,0.4-1.5,1.8s1.5,1.8,1.5,1.8L92.4,54.4z"/>
		<path class="st0" d="M60.7,53.9L60.7,53.9l-0.1,0.4L60.7,53.9L60.7,53.9L60.7,53.9z"/>
		<path class="st0" d="M104.4,46.1c0,0-0.1,0.1-0.3,0.3l-0.4,0.4h1v-0.4L104.4,46.1z"/>
		<path class="st0" d="M87.2,46.4v0.4h0.2l0.1-0.1L87.2,46.4z"/>
		<path class="st0" d="M60.7,51.2L60.7,51.2l-0.1-0.4v0.4L60.7,51.2L60.7,51.2z"/>
		<polygon class="st0" points="92.4,54.8 92.4,54.8 92.4,54.4 		"/>
		<path class="st0" d="M60.5,54.8L60.5,54.8h31.9l0,0l0,0c0,0,0.7,0,1.5,0h1.2c0.5,0,0.9-0.2,1.3-0.4c2-1.3,3.8-2.8,5.5-4.5
			c1.7-1.7,3.1-3.2,3.1-3.2l0.7-0.7H87l-0.1,0.1l-0.7,0.7c-0.2,0.3-0.5,0.6-0.6,0.9c-0.4,0.7-0.9,1.3-1.5,1.8
			c-0.8,0.6-1.9,1-2.9,0.9H60.5l0.1,0.4l0.1,0.4h20.4c1.6,0,3.1-0.6,4.2-1.8c0.4-0.4,0.7-0.8,1-1.3c0.2-0.3,0.3-0.5,0.5-0.8l0.5-0.5
			h-0.2v-0.4l0.3,0.3l-0.1,0.1h16.4l0.4-0.4c0.2-0.2,0.3-0.3,0.3-0.3l0.3,0.3v0.4h-1c-0.8,0.9-2.3,2.5-3.9,3.9
			c-0.9,0.8-1.8,1.6-2.7,2.3c-0.4,0.3-0.7,0.5-1.2,0.7c-0.2,0.1-0.5,0.2-0.8,0.3H60.8l-0.1,0.4v-0.4h0.1c-0.2-0.1-0.5-0.2-0.7-0.4
			c-0.5-0.4-0.7-1.1-0.3-1.7c0.1-0.1,0.2-0.2,0.3-0.3c0.1-0.1,0.3-0.2,0.5-0.2l0.1,0h-0.1v-0.5l-0.1-0.4c-0.3,0.1-0.6,0.2-0.9,0.4
			c-1,0.6-1.2,1.9-0.6,2.9c0.2,0.2,0.4,0.5,0.6,0.6C59.9,54.5,60.2,54.7,60.5,54.8z"/>
		<path class="st0" d="M57.7,45.9c-0.4,0.7-0.4,1.7,0.2,2.4c0.7,0.5,1.6,0.6,2.3,0.2l22.5-22.5c0,0,1.1-1.1,1.9-1.9
			c1.7-1.8,1.2-12.4,1.2-12.4L73.4,24v1c0,0.9,1.5,3.8-1.2,6.4L57.7,45.9z"/>
		<path class="st0" d="M60,48.1L60,48.1L60,48.1l0.3,0.4L60,48.1L60,48.1z"/>
		<path class="st0" d="M85.8,11.6h-0.4c0,0,0,0.4,0,1l0.7-0.7L85.8,11.6z"/>
		<path class="st0" d="M73.8,24h-0.4l0.3,0.3l0.1-0.1V24z"/>
		<path class="st0" d="M58.1,46.1L58.1,46.1l-0.4-0.2L58.1,46.1L58.1,46.1L58.1,46.1z"/>
		<path class="st0" d="M57.4,45.6L57.4,45.6L57.4,45.6l0.4,0.2l0.4,0.2l0,0l0,0l1.8-1.8l12.6-12.5c1.1-1,1.7-2.5,1.7-4
			c0-0.6-0.1-1.2-0.2-1.8c-0.1-0.3-0.2-0.7-0.2-1v-0.7l-0.1,0.1l-0.3-0.3h0.4v0.2l11.6-11.6c0-0.6,0-1,0-1h0.4l0.3,0.3l-0.7,0.7
			c0,0,0,0.1,0,0.1c0,0.7,0,1.6,0,2.7c0,1.7-0.1,3.3-0.2,5c-0.1,0.7-0.2,1.4-0.4,2.1c-0.1,0.4-0.3,0.8-0.5,1.2
			c-0.4,0.4-0.8,0.9-1.2,1.3l-0.7,0.6l0,0L60,48.1l0,0l0,0l0.2,0.4l-0.3-0.3l0,0c-0.3,0.1-0.6,0.2-0.9,0.2c-0.3,0-0.6-0.1-0.8-0.3
			c-0.2-0.2-0.4-0.5-0.4-0.9c0-0.2,0-0.5,0.1-0.7l0.1-0.2l0,0l0,0l-0.3-0.3L57.4,45.6c-0.3,0.5-0.4,1-0.4,1.5c0,0.6,0.2,1.1,0.6,1.5
			c0.4,0.4,0.9,0.6,1.5,0.6c0.5,0,1-0.1,1.4-0.3l0,0l22.6-22.6l0,0l-0.3-0.3l0.3,0.3c0,0,1.1-1.1,1.9-1.9c0.4-0.4,0.6-1,0.7-1.5
			c0.5-2.4,0.7-4.9,0.6-7.3c0-2.1-0.1-3.8-0.1-3.8l-0.1-1L73,23.9V25c0,0.4,0.1,0.8,0.2,1.2c0.1,0.5,0.2,1.1,0.2,1.6
			c0,1.3-0.5,2.5-1.4,3.3L57.4,45.6z"/>
		<polygon class="st0" points="82.7,25.9 83,26.2 83.1,26.2 		"/>
		<path class="st0" d="M24.5,54.9H45c0,0,1.5-0.4,1.5-1.8S45,51.3,45,51.3H13.2c0,0-1.5,0-2.7,0c-2.5,0.1-9.6,8-9.6,8h17.5l0.6-0.7
			C19.8,58,20.8,54.9,24.5,54.9z"/>
		<path class="st0" d="M2,58.8H1v0.4l0.3,0.3l0.3-0.3L2,58.8z"/>
		<path class="st0" d="M18.3,58.8L18.2,59l0.3,0.3v-0.4L18.3,58.8z"/>
		<polygon class="st0" points="13.2,51.3 13.2,50.9 13.2,50.9 		"/>
		<path class="st0" d="M45,51.7v-0.4l-0.1,0.4l0,0l0,0L45,51.7z"/>
		<path class="st0" d="M45,54.4L45,54.4l0.1,0.4v-0.4L45,54.4z"/>
		<path class="st0" d="M19.5,58.9c0.2-0.3,0.5-0.6,0.6-0.9c0.4-0.7,0.9-1.3,1.5-1.8c0.8-0.6,1.9-1,2.9-0.9h20.6L45,54.9l-0.1-0.4
			H24.5c-1.6,0-3.1,0.6-4.2,1.8c-0.4,0.4-0.7,0.8-1,1.3c-0.2,0.3-0.3,0.5-0.5,0.8l-0.5,0.5h0.2v0.4L18.2,59l0.1-0.1H2l-0.4,0.4
			l-0.3,0.3L1,59.2v-0.4h1c0.8-0.9,2.3-2.5,4-3.9c0.9-0.8,1.8-1.5,2.7-2.2C9,52.4,9.4,52.2,9.8,52c0.2-0.1,0.5-0.2,0.8-0.3h1.2
			c0.8,0,1.5,0,1.5,0H45l0,0l0,0v-0.5v0.4l0,0c0.2,0.1,0.5,0.2,0.7,0.4c0.5,0.4,0.7,1.1,0.3,1.7c-0.1,0.1-0.2,0.2-0.3,0.3
			c-0.1,0.1-0.3,0.2-0.4,0.3H45h0v0.4l0.1,0.4c0.3-0.1,0.6-0.2,0.9-0.4c1-0.6,1.2-1.9,0.6-2.9c-0.2-0.2-0.4-0.5-0.6-0.6
			c-0.3-0.2-0.6-0.4-0.9-0.5h-0.1H13.2v0.4v-0.4l0,0c0,0-0.7,0-1.5,0h-1.2c-0.5,0-0.9,0.2-1.3,0.4c-2,1.2-3.8,2.7-5.5,4.5
			C2,57.4,0.6,59,0.6,59L0,59.7h18.7l0.1-0.1L19.5,58.9z"/>
	</g>
</g>
</svg>
