<?xml version="1.0" encoding="utf-8"?>
<!-- Generator: Adobe Illustrator 23.0.6, SVG Export Plug-In . SVG Version: 6.00 Build 0)  -->
<svg version="1.1" id="Layer_1" xmlns="http://www.w3.org/2000/svg" xmlns:xlink="http://www.w3.org/1999/xlink" x="0px" y="0px"
	 viewBox="0 0 38.8 38.8" style="enable-background:new 0 0 38.8 38.8;" xml:space="preserve">
<style type="text/css">
	.st0{fill:#FFFFFF;}
</style>
<title>Asset 69</title>
<g>
	<g id="_Layer_">
		<path class="st0" d="M0,19.4c0,10.7,8.7,19.4,19.4,19.4s19.4-8.7,19.4-19.4S30.1,0,19.4,0c0,0,0,0,0,0C8.7,0,0,8.7,0,19.4z
			 M35.6,19.4c0,8.9-7.3,16.2-16.2,16.2S3.2,28.3,3.2,19.4c0-8.9,7.2-16.2,16.2-16.2C28.3,3.2,35.6,10.4,35.6,19.4
			C35.6,19.4,35.6,19.4,35.6,19.4z"/>
		<path class="st0" d="M5.8,19.4c0,7.5,6.1,13.6,13.6,13.6S33,26.9,33,19.4S26.9,5.8,19.4,5.8l0,0C11.9,5.8,5.8,11.9,5.8,19.4z
			 M30.8,19.4c0,6.3-5.1,11.4-11.4,11.3C13.1,30.7,8,25.6,8,19.3C8,13.1,13.1,8,19.4,8C25.7,8,30.8,13.1,30.8,19.4
			C30.8,19.4,30.8,19.4,30.8,19.4L30.8,19.4z"/>
	</g>
</g>
</svg>
