<?xml version="1.0" encoding="utf-8"?>
<!-- Generator: Adobe Illustrator 23.0.6, SVG Export Plug-In . SVG Version: 6.00 Build 0)  -->
<svg version="1.1" id="Layer_1" xmlns="http://www.w3.org/2000/svg" xmlns:xlink="http://www.w3.org/1999/xlink" x="0px" y="0px"
	 viewBox="0 0 47.7 47.7" style="enable-background:new 0 0 47.7 47.7;" xml:space="preserve">
<style type="text/css">
	.st0{fill:#FFFFFF;}
</style>
<g>
	<path class="st0" d="M40.7,7c-4.4-4.6-10.5-7.1-16.9-7C17.5-0.1,11.4,2.4,7,7c-4.6,4.4-7.1,10.5-7,16.9c-0.1,6.4,2.4,12.5,7,16.9
		c4.4,4.6,10.5,7.1,16.9,7c6.4,0.1,12.5-2.4,16.9-7c4.6-4.4,7.1-10.5,7-16.9C47.8,17.5,45.3,11.4,40.7,7z M36.1,36.1
		c-3.2,3.3-7.7,5.2-12.3,5.1c-4.6,0.1-9.1-1.8-12.3-5.1c-3.3-3.2-5.2-7.7-5.1-12.3c-0.1-4.6,1.8-9.1,5.1-12.3
		c3.2-3.3,7.7-5.2,12.3-5.1c4.6-0.1,9.1,1.8,12.3,5.1c3.3,3.2,5.2,7.7,5.1,12.3C41.3,28.5,39.5,32.9,36.1,36.1z"/>
	<path class="st0" d="M23.9,13L23.9,13c-3-0.1-5.7,1.1-7.8,3.2c-2.1,2-3.2,4.8-3.2,7.7c0,6,4.8,10.8,10.8,10.8c0,0,0,0,0.1,0
		c2.9,0,5.7-1.1,7.7-3.2c2.1-2,3.2-4.8,3.2-7.7C34.7,17.9,29.9,13,23.9,13z"/>
</g>
</svg>
