<?xml version="1.0" encoding="utf-8"?>
<!-- Generator: Adobe Illustrator 23.0.6, SVG Export Plug-In . SVG Version: 6.00 Build 0)  -->
<svg version="1.1" id="Layer_1" xmlns="http://www.w3.org/2000/svg" xmlns:xlink="http://www.w3.org/1999/xlink" x="0px" y="0px"
	 viewBox="0 0 247.3 336.3" style="enable-background:new 0 0 247.3 336.3;" xml:space="preserve">
<style type="text/css">
	.st0{fill:none;stroke:#FFFFFF;stroke-linecap:round;stroke-linejoin:bevel;}
</style>
<g>
	<g id="Layer_1-2">
		<path class="st0" d="M127.4,335.8l28.1-98.4C156,239.3,128.5,335,127.4,335.8"/>
		<path class="st0" d="M232.1,208.2c-0.2-0.2-0.3-0.5-0.1-0.7c0,0,0,0,0,0l0.6-0.8c0.2-0.3,0.6-0.4,1-0.4l1.9,0.3
			c0.2,0,0.4,0.1,0.5,0.2l0.5,0.4c0.2,0.2,0.2,0.5,0.1,0.8l-1.6,1.9c-0.2,0.2-0.5,0.2-0.8,0.1L232.1,208.2z"/>
		<path class="st0" d="M183.4,322.4c3.8-40.3,7.7-80.5,11.5-120.6l4.1,2.7c-3.8,40.3-7.7,80.5-11.5,120.6L183.4,322.4z"/>
		<path class="st0" d="M65.3,227.6c-1.9,8.2-3,16.5-3.2,24.9c-10.7,9.2-17.8,19.2-20.4,28.9C41.5,262.4,50.2,243.3,65.3,227.6"/>
		<path class="st0" d="M71.1,214.9c-4.9,2.8-9.8,5.4-14.7,7.7c-4.9-5.2-9.9-11-14.9-17.2c5.3-2.9,10.6-5.9,16-9.2
			C61.9,202.6,66.5,208.9,71.1,214.9"/>
		<path class="st0" d="M169.9,159.4l7.3-3.5L185,172l-7.3,3.5L169.9,159.4z"/>
		<path class="st0" d="M198.4,136.3c2.9,1.1,5.2,3.2,6.5,5.9c-1.1-0.7-2.2-1.2-3.4-1.7C200.9,138.9,199.9,137.4,198.4,136.3"/>
		<path class="st0" d="M223.1,132.3c9.7-59.9-30.9-116.3-90.8-126.1S15.9,37.1,6.2,97C-3.5,156.9,37.1,213.3,97,223.1
			C156.9,232.8,213.3,192.1,223.1,132.3 M2,96.3C12.1,34.1,70.8-8.1,133,2s104.4,68.8,94.3,131c-10.1,62.2-68.8,104.4-131,94.3
			C34.1,217.1-8.1,158.5,2,96.3"/>
		<path class="st0" d="M113.2,87.9c-1,0.2-2-0.3-2.3-1.3c-0.4-0.6-0.2-1.4,0.5-1.8c0.2-0.1,0.3-0.2,0.5-0.2c1-0.2,2,0.3,2.3,1.3
			c0.3,0.6,0.1,1.5-0.5,1.8C113.5,87.8,113.3,87.8,113.2,87.9"/>
		<path class="st0" d="M221.9,75.8c0.4,0.9,0.2,3.5-0.6,7.7c-0.9-0.2-1.9-0.3-2.9-0.4c-0.8-0.6-1.5-1.2-2.3-1.7
			c4.3-6.3,5.5-5.9,5.5-5.9C221.8,75.5,221.9,75.6,221.9,75.8"/>
		<path class="st0" d="M233.2,69c-1.1,3.3-1.7,6.8-1.6,10.4c-2.2-4.7-3.3-9.8-3.2-14.9C229.9,66.1,231.5,67.6,233.2,69"/>
		<path class="st0" d="M235.2,43l-1.1-2.1c1.3-0.6,2.4-1.4,3.5-2.3c-1.6,0.5-3.4,0.6-5.1,0.2l0.4-2.3c1.1,0.2,2.1,0.2,3.2,0.1
			c-1.3-0.6-2.8-2-4.4-5.3l2.1-1.1c0.6,1.3,1.3,2.4,2.3,3.5c-0.5-1.6-0.6-3.4-0.2-5.1l2.3,0.4c-0.2,1.1-0.2,2.1-0.1,3.2
			c0.6-1.3,2-2.8,5.3-4.4l1.1,2.1c-1.3,0.6-2.4,1.3-3.5,2.3c1.6-0.5,3.4-0.6,5.1-0.2l-0.4,2.3c-1.1-0.2-2.1-0.2-3.2-0.1
			c1.3,0.6,2.8,2,4.4,5.3l-2.1,1.1c-0.6-1.3-1.3-2.4-2.3-3.5c0.5,1.6,0.6,3.4,0.2,5.1l-2.3-0.4c0.2-1.1,0.2-2.1,0.1-3.2
			c-0.1,0.3-0.3,0.6-0.5,0.8C238.7,41,237,42.2,235.2,43"/>
	</g>
</g>
</svg>
