<?xml version="1.0" encoding="utf-8"?>
<!-- Generator: Adobe Illustrator 23.0.6, SVG Export Plug-In . SVG Version: 6.00 Build 0)  -->
<svg version="1.1" id="Layer_1" xmlns="http://www.w3.org/2000/svg" xmlns:xlink="http://www.w3.org/1999/xlink" x="0px" y="0px"
	 viewBox="0 0 134.8 116.2" style="enable-background:new 0 0 134.8 116.2;" xml:space="preserve">
<style type="text/css">
	.st0{fill:#FFFFFF;}
</style>
<title>Asset 125</title>
<g>
	<g id="_Layer_">
		<path class="st0" d="M80.5,84.3c0.5,0.5,1.2,0.8,2,0.8c0.7,0,1.5-0.3,2-0.8c4.5-4.5,6.9-10.6,6.9-17c0-3.2-0.6-6.3-1.9-9.2
			c-3.8-8.8-12.4-14.6-22-14.7h-0.5c-9.6,0.1-18.2,5.9-22,14.8c-1.2,2.9-1.9,6.1-1.9,9.2c0,6.4,2.5,12.5,6.9,17c1.2,1,3,0.8,4-0.4
			c0.9-1.1,0.8-2.6,0-3.7c-3.4-3.5-5.3-8.1-5.2-12.9c0-2.4,0.5-4.8,1.4-7v-0.1c2.9-6.7,9.5-11.1,16.8-11.2h0.5
			c7.3,0.1,13.8,4.5,16.7,11.2v0.1c0.9,2.2,1.4,4.6,1.4,7c0,4.9-1.8,9.5-5.2,13C79.4,81.4,79.5,83.2,80.5,84.3z"/>
		<path class="st0" d="M107.8,114.6c2.1,2.1,5.6,2.1,7.7,0c0,0,0,0,0,0c12.5-12.7,19.4-29.8,19.3-47.6c0-8.9-1.8-17.6-5.3-25.8
			c-5-12.1-13.6-22.5-24.6-29.8C94.1,4.1,81.2,0.1,68.1,0h-1.3c-13.2,0.1-26,4.1-36.9,11.5c-11,7.3-19.5,17.7-24.6,29.8
			C1.8,49.5,0,58.2,0,67.1c-0.1,17.8,6.9,34.9,19.3,47.6c2.1,2.1,5.6,2.1,7.7,0s2.1-5.6,0-7.7C16.6,96.6,10.9,81.8,10.9,67.1
			c0-7.4,1.4-14.7,4.4-21.5l0.1-0.1c4.2-10.2,11.4-18.8,20.6-24.9c9.1-6.2,19.8-9.6,30.9-9.7h1.3c11,0.1,21.8,3.5,30.9,9.7
			c9.2,6.1,16.3,14.7,20.6,24.9l0.1,0.1c2.9,6.8,4.4,14.1,4.4,21.5c0,14.7-5.8,29.5-16.1,39.8C105.6,109,105.6,112.5,107.8,114.6
			C107.7,114.6,107.8,114.6,107.8,114.6z"/>
		<path class="st0" d="M97.9,100.1c0.4,0.4,0.9,0.6,1.4,0.6c0.5,0,1-0.2,1.4-0.6c8.6-8.8,13.4-20.7,13.4-33c0-6.1-1.2-12.2-3.7-17.9
			c-7.3-17.2-24-28.4-42.6-28.6h-0.9c-18.6,0.2-35.4,11.5-42.7,28.7C21.9,55,20.6,61,20.7,67.2c0,12.3,4.8,24.2,13.4,33
			c0.8,0.8,2,0.8,2.8,0c0,0,0,0,0,0c0.8-0.8,0.8-2,0-2.8c0,0,0,0,0,0C29,89.3,24.6,78.4,24.7,67.2c0-5.6,1.1-11.1,3.3-16.3l0,0
			c6.2-15.4,22.3-26.2,38.9-26.2h0.9c16.6,0,32.7,10.8,38.9,26.2l0,0c2.2,5.1,3.3,10.7,3.3,16.3c0.1,11.3-4.3,22.1-12.2,30.1
			C97.1,98.1,97.1,99.4,97.9,100.1C97.9,100.1,97.9,100.1,97.9,100.1z"/>
		<path class="st0" d="M88.3,95.1c2,2,5.3,2,7.3,0c7.3-7.4,11.4-17.5,11.4-27.9c0-5.2-1-10.4-3.1-15.1C97.8,37.5,83.6,28,67.8,27.8
			H67C51.2,28,37.1,37.5,30.9,52c-2,4.8-3.1,9.9-3.1,15.2c-0.1,10.5,4,20.5,11.4,28c2.1,1.9,5.4,1.8,7.3-0.3c1.8-2,1.8-5,0-7
			c-5.4-5.5-8.4-12.9-8.3-20.6c0-3.8,0.7-7.6,2.2-11.1l0-0.1C45,45.3,55.4,38.3,67,38.1h0.7c11.6,0.2,22.1,7.2,26.6,17.8v0.1
			c1.5,3.5,2.3,7.3,2.3,11.1c0,7.7-3,15.1-8.3,20.6C86.3,89.8,86.3,93.1,88.3,95.1C88.3,95.1,88.3,95.1,88.3,95.1z"/>
		<polygon class="st0" points="62.9,64.9 62.9,64.9 62.9,64.9 		"/>
		<path class="st0" d="M71.9,64.9L71.9,64.9L71.9,64.9z"/>
		<path class="st0" d="M71.8,70c-1.8,2.6-1.1,6.2,1.5,8c0,0,0,0,0,0c0.9,0.7,2.1,1,3.2,1c1.9,0,3.7-0.9,4.7-2.5
			c1.8-2.7,2.7-5.8,2.7-9c0-2.8-0.7-5.5-2-8l0,0c-2.9-5.3-8.5-8.6-14.5-8.6h-0.1c-6,0.1-11.6,3.4-14.5,8.6l0,0c-1.3,2.5-2,5.2-2,8
			c0,3.2,0.9,6.3,2.7,9c1.8,2.6,5.4,3.3,8,1.5c2.6-1.8,3.3-5.4,1.5-8l0,0l0,0c-0.5-0.7-0.7-1.6-0.7-2.5c0-0.9,0.2-1.7,0.6-2.5l0,0
			c1.4-2.5,4.5-3.4,7-2c0.9,0.5,1.6,1.2,2,2l0,0l0,0l0,0c0.4,0.8,0.6,1.7,0.6,2.6C72.6,68.4,72.3,69.3,71.8,70z"/>
		<path class="st0" d="M70.5,67.6c0-1.7-1.4-3.1-3.1-3.1s-3.1,1.4-3.1,3.1c0,1.7,1.4,3.1,3.1,3.1c0,0,0,0,0,0
			C69.1,70.7,70.5,69.3,70.5,67.6z"/>
	</g>
</g>
</svg>
