<?xml version="1.0" encoding="utf-8"?>
<!-- Generator: Adobe Illustrator 23.0.6, SVG Export Plug-In . SVG Version: 6.00 Build 0)  -->
<svg version="1.1" id="Layer_1" xmlns="http://www.w3.org/2000/svg" xmlns:xlink="http://www.w3.org/1999/xlink" x="0px" y="0px"
	 viewBox="0 0 123.6 114.1" style="enable-background:new 0 0 123.6 114.1;" xml:space="preserve">
<style type="text/css">
	.st0{fill:#FFFFFF;}
</style>
<title>Asset 121</title>
<g>
	<g id="_Layer_">
		<path class="st0" d="M61.9,32.4L61.9,32.4z"/>
		<path class="st0" d="M58.6,32.7l-0.2-0.9L58.6,32.7z"/>
		<path class="st0" d="M55.3,33.5L55,32.6L55.3,33.5z"/>
		<path class="st0" d="M52.3,35l-0.5-0.8L52.3,35z"/>
		<path class="st0" d="M49.5,36.9l-0.6-0.7L49.5,36.9z"/>
		<path class="st0" d="M47.1,39.3l-0.7-0.6L47.1,39.3z"/>
		<path class="st0" d="M45.2,42l-0.8-0.5L45.2,42z"/>
		<path class="st0" d="M43.8,45.1l-0.9-0.3L43.8,45.1z"/>
		<path class="st0" d="M42.9,48.3L42,48.2L42.9,48.3z"/>
		<path class="st0" d="M42.6,51.7L42.6,51.7z"/>
		<path class="st0" d="M42.9,55.1L42,55.2L42.9,55.1z"/>
		<path class="st0" d="M43.8,58.3l-0.9,0.3L43.8,58.3z"/>
		<path class="st0" d="M45.2,61.4l-0.8,0.5L45.2,61.4z"/>
		<path class="st0" d="M47.1,64.1l-0.7,0.6L47.1,64.1z"/>
		<path class="st0" d="M49.5,66.5l-0.6,0.7L49.5,66.5z"/>
		<path class="st0" d="M52.3,68.4l-0.5,0.8L52.3,68.4z"/>
		<path class="st0" d="M55.3,69.9L55,70.8L55.3,69.9z"/>
		<path class="st0" d="M58.6,70.7l-0.2,0.9L58.6,70.7z"/>
		<path class="st0" d="M61.9,71L61.9,71z"/>
		<path class="st0" d="M65.3,70.7l0.2,0.9L65.3,70.7z"/>
		<path class="st0" d="M68.5,69.9l0.3,0.9L68.5,69.9z"/>
		<path class="st0" d="M71.6,68.4l0.5,0.8L71.6,68.4z"/>
		<path class="st0" d="M74.3,66.5l0.6,0.7L74.3,66.5z"/>
		<path class="st0" d="M76.7,64.1l0.7,0.6L76.7,64.1z"/>
		<path class="st0" d="M78.7,61.4l0.8,0.5L78.7,61.4z"/>
		<path class="st0" d="M80.1,58.3l0.9,0.3L80.1,58.3z"/>
		<path class="st0" d="M81,55.1l0.9,0.2L81,55.1z"/>
		<path class="st0" d="M81.3,51.7L81.3,51.7z"/>
		<path class="st0" d="M81,48.3l0.9-0.2L81,48.3z"/>
		<path class="st0" d="M80.1,45.1l0.9-0.3L80.1,45.1z"/>
		<path class="st0" d="M78.7,42l0.8-0.5L78.7,42z"/>
		<path class="st0" d="M76.7,39.3l0.7-0.6L76.7,39.3z"/>
		<path class="st0" d="M74.3,36.9l0.6-0.7L74.3,36.9z"/>
		<path class="st0" d="M71.6,35l0.5-0.8L71.6,35z"/>
		<path class="st0" d="M68.5,33.5l0.3-0.9L68.5,33.5z"/>
		<path class="st0" d="M65.3,32.7l0.2-0.9L65.3,32.7z"/>
		<path class="st0" d="M59.4,37.8L59,35.3L59.4,37.8z"/>
		<path class="st0" d="M58.2,38.1l-0.7-2.5L58.2,38.1z"/>
		<path class="st0" d="M57.1,38.4L56.2,36L57.1,38.4z"/>
		<path class="st0" d="M55.9,38.9l-1.1-2.3L55.9,38.9z"/>
		<path class="st0" d="M54.8,39.5l-1.3-2.2L54.8,39.5z"/>
		<path class="st0" d="M53.8,40.1L52.3,38L53.8,40.1z"/>
		<path class="st0" d="M52.8,40.9l-1.7-2L52.8,40.9z"/>
		<path class="st0" d="M51.9,41.7l-1.8-1.8L51.9,41.7z"/>
		<path class="st0" d="M51.1,42.6l-2-1.7L51.1,42.6z"/>
		<path class="st0" d="M50.3,43.6l-2.1-1.5L50.3,43.6z"/>
		<path class="st0" d="M49.7,44.6l-2.2-1.3L49.7,44.6z"/>
		<path class="st0" d="M49.1,45.7l-2.3-1.1L49.1,45.7z"/>
		<path class="st0" d="M48.6,46.8L46.2,46L48.6,46.8z"/>
		<path class="st0" d="M48.3,48l-2.5-0.7L48.3,48z"/>
		<path class="st0" d="M48,49.2l-2.5-0.5L48,49.2z"/>
		<path class="st0" d="M47.8,50.4l-2.5-0.2L47.8,50.4z"/>
		<path class="st0" d="M47.8,51.7L47.8,51.7z"/>
		<path class="st0" d="M47.8,52.9l-2.5,0.2L47.8,52.9z"/>
		<path class="st0" d="M48,54.1l-2.5,0.4L48,54.1z"/>
		<path class="st0" d="M48.3,55.3L45.8,56L48.3,55.3z"/>
		<path class="st0" d="M48.6,56.5l-2.4,0.9L48.6,56.5z"/>
		<path class="st0" d="M49.1,57.6l-2.3,1.1L49.1,57.6z"/>
		<path class="st0" d="M49.7,58.7L47.5,60L49.7,58.7z"/>
		<path class="st0" d="M50.3,59.7l-2.1,1.5L50.3,59.7z"/>
		<path class="st0" d="M51.1,60.7l-2,1.6L51.1,60.7z"/>
		<path class="st0" d="M51.9,61.6l-1.8,1.8L51.9,61.6z"/>
		<path class="st0" d="M52.8,62.4l-1.6,2L52.8,62.4z"/>
		<path class="st0" d="M53.8,63.2l-1.5,2.1L53.8,63.2z"/>
		<path class="st0" d="M54.8,63.9l-1.3,2.2L54.8,63.9z"/>
		<path class="st0" d="M55.9,64.4l-1.1,2.3L55.9,64.4z"/>
		<path class="st0" d="M57,64.9l-0.9,2.4L57,64.9z"/>
		<path class="st0" d="M58.2,65.3l-0.7,2.5L58.2,65.3z"/>
		<path class="st0" d="M59.4,65.5L59,68L59.4,65.5z"/>
		<path class="st0" d="M60.6,65.7l-0.2,2.5L60.6,65.7z"/>
		<path class="st0" d="M34.4,51.4c0,0.1,0,0.2,0,0.3c0,3.9,0.8,7.7,2.4,11.2l5.1-2.3c-1.3-2.8-2-5.9-2-9v-0.2L34.4,51.4z"/>
		<path class="st0" d="M86.9,37.2l-5.1,2.9c0.9,1.5,1.6,3.1,2.1,4.7l5.6-1.8C88.9,41,88,39.1,86.9,37.2z"/>
		<path class="st0" d="M74,74.4c-5.6,2.9-12.1,3.7-18.3,2.2l-0.5,2c6.7,1.6,13.7,0.8,19.8-2.3L74,74.4z"/>
		<path class="st0" d="M85.4,34.8c-1.8-2.4-4-4.6-6.4-6.4l-1.7,2.3c2.2,1.6,4.2,3.6,5.8,5.8L85.4,34.8z"/>
		<path class="st0" d="M91.1,43.2l5.4-1.5c-5.8-19.1-25.9-29.9-45-24.1c-5.1,1.5-9.7,4.2-13.7,7.7l3.8,4.1
			c12.5-11.3,31.8-10.2,43.1,2.3C87.6,35,89.8,38.9,91.1,43.2z"/>
		<path class="st0" d="M27.4,42.8c-5,18.9,6.3,38.2,25.2,43.2c1.4,0.4,2.8,0.6,4.2,0.8l0.4-2.8C41.1,81.7,29.1,68,29,51.7
			c0-2.8,0.4-5.5,1.1-8.2L27.4,42.8z"/>
		<path class="st0" d="M32,32.1C31.4,33,30.8,34,30.3,35l3.1,1.6c0.5-0.9,1-1.7,1.5-2.5L32,32.1z"/>
		<path class="st0" d="M26,65.8l-3.3,1.3c1.4,3.5,3.3,6.8,5.6,9.8l2.8-2.1C29,72.1,27.3,69,26,65.8z"/>
		<path class="st0" d="M123.6,63.8L98.9,59c-2.6,12.5-11.3,22.8-23.3,27.4l9.3,23.3C104.8,102,119.4,84.6,123.6,63.8z"/>
		<path class="st0" d="M70.9,87.9c-1.4,0.4-2.9,0.6-4.4,0.8l3.3,24.9c2.5-0.3,4.9-0.8,7.3-1.4L70.9,87.9z"/>
		<path class="st0" d="M48.9,86.7l-8.5,23.7c6.8,2.5,13.9,3.7,21.1,3.8V89C57.2,89,52.9,88.2,48.9,86.7z"/>
		<path class="st0" d="M92.5,0L81.8,18c1.1,0.6,2.1,1.3,3.1,2L97.3,3.1C95.7,2,94.1,1,92.5,0z"/>
		<path class="st0" d="M19.2,24.5c-5.3,8.1-8.1,17.6-8.1,27.2c0,2.1,0.1,4.3,0.4,6.4l1.4-0.2c-1.5-11.4,1.1-23,7.5-32.7L19.2,24.5z"
			/>
		<path class="st0" d="M15.6,55.6l-1.1,0.1c0.4,4.8,1.6,9.5,3.4,14l1-0.4C17.1,64.9,16,60.3,15.6,55.6z"/>
		<path class="st0" d="M19.4,30.7c-1.2,2.4-2.2,4.9-3,7.5l2.4,0.7c0.7-2.5,1.7-4.8,2.9-7.1L19.4,30.7z"/>
		<path class="st0" d="M11.2,35.5c-0.6,1.9-1.1,3.8-1.5,5.7l1.4,0.3c0.4-1.9,0.9-3.7,1.5-5.6L11.2,35.5z"/>
		<path class="st0" d="M10.5,53.6L0,54c0.1,3,0.4,6,1,9l10.3-1.9C10.8,58.6,10.6,56.1,10.5,53.6z"/>
		<path class="st0" d="M13.4,68.7l-9.9,3.5c2.9,8,7.4,15.3,13.2,21.5l7.7-7.1C19.5,81.4,15.8,75.4,13.4,68.7z"/>
		<path class="st0" d="M11.9,63.8L1.7,66.2c0.2,1,0.5,2,0.8,2.9l10.1-3C12.3,65.4,12.1,64.6,11.9,63.8z"/>
	</g>
</g>
</svg>
