<?xml version="1.0" encoding="utf-8"?>
<!-- Generator: Adobe Illustrator 23.0.6, SVG Export Plug-In . SVG Version: 6.00 Build 0)  -->
<svg version="1.1" id="sw-js-blob-svg" xmlns="http://www.w3.org/2000/svg" xmlns:xlink="http://www.w3.org/1999/xlink" x="0px"
	 y="0px" viewBox="0 0 100 100" style="enable-background:new 0 0 100 100;" xml:space="preserve">
<style type="text/css">
	.st0{fill:url(#SVGID_1_);}
</style>
<linearGradient id="SVGID_1_" gradientUnits="userSpaceOnUse" x1="-243.41" y1="465.3271" x2="-242.41" y2="466.3271" gradientTransform="matrix(69.4169 0 0 -81.882 16912.2539 38193.9883)">
	<stop  offset="0" style="stop-color:#FFFFFF"/>
	<stop  offset="1" style="stop-color:#FFFFFF"/>
</linearGradient>
<path class="st0" d="M71.1,22.2c5.6,7.3,9,14.6,10.6,22.4c1.6,7.8,1.4,16.1-1.6,24.3c-2.9,8.2-8.7,16.3-16.4,19.2
	c-7.7,3-17.4,0.8-24.9-3.6c-7.5-4.3-12.8-11-17.5-18.3c-4.7-7.4-8.8-15.5-7.9-23c1-7.5,6.9-14.5,13.9-21.5
	c6.9-7.1,14.8-14.2,22.6-14.1C57.8,7.6,65.5,14.9,71.1,22.2z"/>
</svg>
