<?xml version="1.0" encoding="utf-8"?>
<!-- Generator: Adobe Illustrator 23.0.6, SVG Export Plug-In . SVG Version: 6.00 Build 0)  -->
<svg version="1.1" id="Layer_1" xmlns="http://www.w3.org/2000/svg" xmlns:xlink="http://www.w3.org/1999/xlink" x="0px" y="0px"
	 viewBox="0 0 96.8 82.3" style="enable-background:new 0 0 96.8 82.3;" xml:space="preserve">
<style type="text/css">
	.st0{fill:#D9D9D8;}
</style>
<title>Asset 137</title>
<g>
	<g id="_Layer_">
		<polygon class="st0" points="24.3,74.1 24.2,74.2 24.2,76 24.2,76.1 26.4,77.1 26.5,77.1 26.5,77 24.3,75.9 24.4,74.2 		"/>
		<polygon class="st0" points="66.8,0.2 78.3,3.7 78.4,3.6 78.4,3.5 66.8,0 66.7,0 57.5,10 57.5,10.1 57.6,10.1 		"/>
		<polygon class="st0" points="78.2,6.1 78.2,6 78.4,3.6 78.4,3.5 78.3,3.6 78,6 68.4,17 68.4,17.1 68.5,17.1 		"/>
		<polygon class="st0" points="69.3,13.9 69.2,13.8 57.5,9.9 57.4,10 57.5,10.1 69.2,14 		"/>
		<polygon class="st0" points="78.4,3.7 78.4,3.6 78.3,3.6 69.1,13.8 69.2,14 69.3,14 		"/>
		<polygon class="st0" points="31,30 31,29.7 30.9,29.6 30.8,29.7 30.9,30 30.9,30.1 43,34.8 43.1,34.7 43.1,34.6 43.1,34.6 		"/>
		<polygon class="st0" points="31,29.6 30.9,29.5 30.9,29.6 30.8,29.7 30.9,29.8 31,29.7 		"/>
		<polygon class="st0" points="31,29.7 31,29.6 25.7,27.6 25.6,27.6 25.6,27.7 30.9,29.8 		"/>
		<polygon class="st0" points="31.2,29 30.9,29.5 30.9,29.6 31,29.6 31.4,29.1 31.4,29.1 31.5,28.9 31.4,28.8 31.3,28.9 31.3,28.9 
					"/>
		<polygon class="st0" points="26.8,27 26.7,27 25.6,27.6 25.6,27.7 25.7,27.7 26.8,27.2 31.4,29 31.5,28.9 31.4,28.8 31.4,28.8 		
			"/>
		<polygon class="st0" points="33.6,25.9 33.5,25.8 33.4,25.8 31.3,28.9 31.3,29 31.5,29 		"/>
		<polygon class="st0" points="25.7,27.7 25.7,27.6 25.6,27.6 23.5,30 23.5,30.1 23.6,30.1 		"/>
		<polygon class="st0" points="43.4,34.4 43.6,34.4 43.6,34.4 44.3,33.9 46.5,34.7 46.6,34.7 46.5,34.6 44.4,33.7 44.3,33.7 
			43.5,34.2 43.3,34.3 43.3,34.3 43.2,34.4 43.3,34.5 43.4,34.5 		"/>
		<polygon class="st0" points="43.3,34.5 43.3,34.4 43.2,34.4 43,34.7 43,34.8 43.1,34.8 		"/>
		<polygon class="st0" points="43.2,34.3 43.1,34.2 43,34.2 43,34.7 43,34.8 43.1,34.7 		"/>
		<polygon class="st0" points="49.2,36.7 49.2,36.6 43.3,34.3 43.2,34.4 43.3,34.5 49.1,36.7 		"/>
		<polygon class="st0" points="50.3,32 50.2,31.9 46.5,34.6 46.4,34.7 46.5,34.7 50.3,32.1 		"/>
		<polygon class="st0" points="45.7,30.5 45.7,30.3 45.6,30.4 43,34.2 43,34.3 43.2,34.3 		"/>
		<polygon class="st0" points="39.1,46.3 39,46.3 37.1,47.3 37.1,47.4 37.2,47.5 39,46.4 		"/>
		<polygon class="st0" points="47.1,39.1 47,39.1 39,46.3 38.9,46.4 39,46.4 47.1,39.2 		"/>
		<polygon class="st0" points="49.2,36.7 49.2,36.6 49.1,36.6 47,39.1 47,39.2 47.1,39.2 		"/>
		<polygon class="st0" points="37.7,53.9 38,49.5 38.9,49 38.9,49 46.9,41.7 49.9,40 50,39.9 50.3,36.1 50.2,36 50.1,36.1 
			49.8,39.9 46.8,41.6 46.8,41.6 38.8,48.9 37.9,49.4 37.8,49.5 37.6,53.9 33,56.6 33,56.7 33.1,56.8 37.7,54 		"/>
		<polygon class="st0" points="32.9,60.4 33,60.4 33,60.4 33.1,57 33.1,57 33.1,56.7 33,56.6 33,56.7 33,57 32.8,60.4 		"/>
		<polygon class="st0" points="40.9,60 40.8,59.9 40.8,60 40.5,63.8 40.6,63.8 40.7,63.8 		"/>
		<polygon class="st0" points="32.1,77.8 32.2,77.8 32.8,65.6 32.8,65.6 32.8,65.2 32.7,65.1 31.1,64.4 31.1,64.4 31,64.5 
			30.3,78.9 30.4,78.9 30.5,78.9 31.2,64.6 32.6,65.2 32.7,65.6 32,77.7 		"/>
		<polygon class="st0" points="40.7,63.8 40.7,63.7 40.5,63.7 38.2,67 38.3,67.1 38.4,67.1 		"/>
		<polygon class="st0" points="40.9,60 40.9,59.9 33.1,56.6 33,56.7 33,56.8 40.8,60.1 		"/>
		<polygon class="st0" points="40.7,63.8 40.6,63.7 32.9,60.3 32.8,60.3 32.8,60.4 40.6,63.8 		"/>
		<polygon class="st0" points="19.8,49.8 19.7,49.8 19.7,49.8 19.5,56.5 19.5,56.6 19.6,56.5 		"/>
		<polygon class="st0" points="24.4,51.8 24.5,51.9 29.1,49.2 29.2,49.2 29.1,49.1 24.5,47.2 24.4,47.2 24.4,47.3 28.9,49.2 
			24.4,51.7 		"/>
		<polygon class="st0" points="24.5,47.2 24.5,47.2 24.4,47.2 24.1,53.8 24.2,53.9 24.3,53.8 		"/>
		<polygon class="st0" points="24.5,54 24.4,53.9 24.2,53.8 24.1,53.8 24.1,53.9 24.4,54 		"/>
		<polygon class="st0" points="24.5,51.7 24.4,51.8 24.3,53.7 24.3,53.7 24.3,53.9 24.4,54 24.5,53.9 24.5,53.7 24.5,51.8 		"/>
		<polygon class="st0" points="27.9,53.3 27.9,53.2 24.5,51.7 24.4,51.8 24.4,51.9 27.8,53.3 		"/>
		<polygon class="st0" points="27.8,65.8 27.8,65.9 27.8,65.8 		"/>
		<polygon class="st0" points="27.6,65.9 27.4,66.1 27.3,66.1 27.2,66.2 27.3,66.3 27.5,66.2 27.5,66.2 27.7,66.1 27.9,66 27.9,66 
			28.6,65.5 28.6,65.4 28.5,65.4 27.8,65.8 27.8,65.8 27.8,65.8 27.8,65.9 27.8,65.8 27.6,65.9 		"/>
		<polygon class="st0" points="27.4,66.2 27.3,66.1 26.9,66 26.8,66 26.9,66.1 27.3,66.3 		"/>
		<polygon class="st0" points="28.6,65.5 28.6,65.5 28.6,65.4 28.6,65.3 28.5,65.4 28.5,65.5 28,75.9 28.1,76 28.2,75.9 		"/>
		<polygon class="st0" points="29.4,65 29.6,64.9 30.6,64.3 30.6,64.2 30.7,63.7 30.6,63.6 30.5,63.7 30.5,64.2 29.5,64.8 
			29.5,64.8 29.3,64.9 28.5,65.4 28.5,65.5 28.6,65.5 29.4,65 		"/>
		<polygon class="st0" points="24.7,65.1 24.6,65 23.1,64.2 23,64.3 23,64.4 24.6,65.1 		"/>
		<polygon class="st0" points="22.8,64.2 22.8,64.2 22.8,64.2 		"/>
		<polygon class="st0" points="21.4,63.6 21.5,63.5 21.5,63.5 		"/>
		<polygon class="st0" points="21.4,63.7 21.4,63.7 22.8,64.3 22.8,64.3 23,64.4 23.1,64.4 23.1,64.2 22.8,64.2 22.8,64.2 
			22.8,64.2 22.8,64.2 21.5,63.5 21.5,63.5 21.4,63.6 21.5,63.5 20.8,63.2 20.6,63.2 20.7,63.3 20.7,63.3 		"/>
		<polygon class="st0" points="27,66.1 26.9,66 24.6,65 24.5,65 24.6,65.1 26.9,66.1 		"/>
		<polygon class="st0" points="17,61.6 17,61.5 16.9,61.5 16.8,61.5 16.8,61.6 16.6,70.7 16.6,70.8 16.7,70.7 		"/>
		<polygon class="st0" points="15.4,60.9 15.4,60.9 15.4,60.8 15.3,60.8 15.3,60.8 15.3,60.9 15,71.7 15.1,71.8 15.1,71.7 		"/>
		<polygon class="st0" points="17,61.6 16.9,61.5 15.4,60.8 15.3,60.8 15.3,60.9 16.9,61.6 		"/>
		<polygon class="st0" points="19.2,62.6 19.2,62.6 19.1,62.5 19.1,62.5 19.1,62.6 19,62.6 18.8,73.5 18.8,73.6 18.9,73.5 		"/>
		<polygon class="st0" points="20.5,72.4 20.8,63.3 20.8,63.3 20.7,63.2 20.6,63.3 20.6,63.3 20.4,72.4 20.4,72.5 20.5,72.4 		"/>
		<polygon class="st0" points="19.2,62.6 19.2,62.5 16.9,61.5 16.8,61.5 16.9,61.6 19.1,62.6 		"/>
		<polygon class="st0" points="20.8,63.3 20.7,63.2 19.2,62.5 19.1,62.5 19.1,62.6 20.7,63.3 		"/>
		<polygon class="st0" points="24.2,58.6 24.3,58.6 24.5,53.9 24.4,53.9 24.3,53.9 24.1,58.4 19.6,56.4 19.5,56.5 19.5,56.6 
			24.2,58.6 		"/>
		<polygon class="st0" points="27.9,53.3 27.9,53.2 27.8,53.3 27.2,66.2 27.3,66.3 27.4,66.2 		"/>
		<polygon class="st0" points="24.2,53.8 24.1,53.8 19.5,56.4 19.5,56.5 19.6,56.6 24.2,53.9 		"/>
		<polygon class="st0" points="24.5,47.2 24.4,47.2 19.7,49.8 19.7,49.9 19.8,49.9 24.5,47.3 		"/>
		<polygon class="st0" points="32.9,60.4 32.9,60.3 32.8,60.3 30.5,63.6 30.5,63.7 30.6,63.7 		"/>
		<polygon class="st0" points="37.8,47.5 37.7,47.4 37.1,47.8 37.1,47.9 37.2,47.9 37.8,47.6 		"/>
		<polygon class="st0" points="38.4,67.1 38.3,67 30.6,63.6 30.5,63.6 30.5,63.7 38.3,67.1 		"/>
		<polygon class="st0" points="37.2,47.8 37.1,47.8 27.8,53.2 27.8,53.3 27.9,53.3 37.2,47.9 		"/>
		<polygon class="st0" points="37.3,47.4 37.2,47.3 37.1,47.4 37.1,47.9 37.1,47.9 37.2,47.9 		"/>
		<polygon class="st0" points="47.1,39.2 47.1,39.1 23.6,30 23.5,30 23.5,30.1 47,39.2 		"/>
		<polygon class="st0" points="45.7,30.4 45.7,30.3 33.5,25.8 33.4,25.8 33.5,25.9 45.6,30.5 		"/>
		<polygon class="st0" points="43.2,34.3 43.1,34.2 31,29.5 30.9,29.5 30.9,29.6 43.1,34.3 		"/>
		<polygon class="st0" points="82.1,54.8 82.1,54.7 78.6,53.3 78.5,53.4 78.5,53.5 82,54.8 		"/>
		<polygon class="st0" points="82.1,54.8 82.2,54.7 82.7,50.6 82.6,50.5 82.6,50.5 78.5,53.3 78.5,53.4 78.6,53.5 82.5,50.7 
			82,54.7 		"/>
		<polygon class="st0" points="20.4,72.4 20.4,72.4 20.3,74.2 20.3,74.2 22.6,75.3 22.7,75.3 22.7,75.2 20.4,74.1 20.5,72.4 		"/>
		<polygon class="st0" points="16.6,70.7 16.6,70.7 16.5,72.4 16.5,72.5 18.8,73.5 18.9,73.5 18.9,73.4 16.7,72.4 16.7,70.7 		"/>
		<polygon class="st0" points="16.7,70.7 16.6,70.7 15,71.7 15,71.8 15.1,71.8 16.7,70.8 		"/>
		<polygon class="st0" points="20.5,72.4 20.4,72.4 18.8,73.4 18.8,73.5 18.9,73.5 20.5,72.5 		"/>
		<polygon class="st0" points="63.5,22.8 68.5,17.1 68.5,17 68.4,17 63.3,22.7 50.2,31.9 50.2,32 50.3,32.1 63.4,22.8 		"/>
		<polygon class="st0" points="28.1,75.9 28,75.9 28,75.9 28,77.8 28,77.9 30.4,78.9 30.5,78.9 30.4,78.8 28.1,77.7 28.2,75.9 		"/>
		<polygon class="st0" points="28.2,75.9 28.1,75.9 26.4,77 26.4,77.1 26.5,77.1 28.2,76 		"/>
		<polygon class="st0" points="24.3,74.2 24.2,74.1 22.6,75.2 22.6,75.3 22.7,75.3 24.3,74.3 		"/>
		<polygon class="st0" points="32.1,77.7 32,77.7 31.9,79.7 32,79.7 37.4,82.2 37.5,82.2 37.5,82.1 32.1,79.6 32.2,77.8 		"/>
		<polygon class="st0" points="32.2,77.7 32.1,77.7 30.4,78.8 30.3,78.9 30.5,78.9 32.2,77.8 		"/>
		<polygon class="st0" points="78.6,53.4 78.5,53.3 37.4,82.1 37.4,82.2 37.5,82.2 78.6,53.5 		"/>
		<polygon class="st0" points="50.3,36.1 50.2,36 46.5,34.6 46.4,34.6 46.5,34.7 50.2,36.1 		"/>
		<polygon class="st0" points="27,66.1 26.9,66 26.8,66.1 26.4,77 26.5,77.1 26.5,77 		"/>
		<polygon class="st0" points="24.7,65 24.6,64.9 24.5,65 24.2,74.2 24.3,74.3 24.4,74.2 		"/>
		<polygon class="st0" points="23.1,64.3 23,64.2 23,64.3 22.6,75.2 22.7,75.3 22.7,75.2 		"/>
		<polygon class="st0" points="38.4,67.1 38.3,67 38.2,67.1 37.4,82.2 37.4,82.3 37.5,82.2 		"/>
		<polygon class="st0" points="50.3,36 50.2,36 49.1,36.6 49.1,36.7 49.2,36.7 50.2,36.1 		"/>
		<polygon class="st0" points="64.9,37.5 87.9,23.7 87.9,23.6 87.8,23.5 64.9,37.4 50.3,31.9 50.2,32 50.2,32.1 64.9,37.5 		"/>
		<polygon class="st0" points="15.4,36.7 15.2,36.7 13.3,37.6 13.3,37.7 13.4,37.8 15.3,36.8 		"/>
		<polygon class="st0" points="13.5,38.1 13.4,37.7 13.4,37.6 13.3,37.7 13.3,38.1 13.4,38.1 		"/>
		<polygon class="st0" points="13.5,38.1 13.4,38 13.3,38.1 13.3,38.1 13.4,38.2 13.5,38.1 		"/>
		<polygon class="st0" points="3.8,44.2 3.8,44.1 2.4,43.5 2.3,43.5 2.4,43.6 3.7,44.2 		"/>
		<polygon class="st0" points="3.8,42.9 3.7,43 3.6,43.4 3.6,43.4 3.7,44.2 3.8,44.3 3.8,44.2 3.8,43.4 3.8,43 		"/>
		<polygon class="st0" points="3.8,44.4 3.8,44.2 3.8,44.1 3.7,44.2 3.7,44.2 3.7,44.4 3.7,44.4 3.6,47.7 3.7,47.8 3.8,47.7 		"/>
		<polygon class="st0" points="7.3,44.5 7.2,44.4 3.8,42.9 3.7,43 3.7,43.1 7.2,44.5 		"/>
		<polygon class="st0" points="13.5,38 13.4,38 2.4,43.5 2.3,43.6 2.5,43.6 13.4,38.1 		"/>
		<polygon class="st0" points="13.4,38.1 13.3,38.1 3.7,42.9 3.7,43 3.8,43.1 13.4,38.2 		"/>
		<polygon class="st0" points="12,42 11.9,42 7.2,44.4 7.1,44.5 7.2,44.5 12,42.1 		"/>
		<polygon class="st0" points="2.5,47.2 2.4,47.1 2.3,47.1 0,50.1 0,50.3 0.2,50.2 		"/>
		<polygon class="st0" points="3.7,47.6 3.6,47.7 3.6,48.1 3.6,48.1 3.6,51.8 3.7,51.8 3.8,51.8 3.8,48.1 3.8,47.7 		"/>
		<polygon class="st0" points="3.7,51.7 3.6,51.8 3.6,52.1 3.6,52.1 3.6,52.2 3.6,55.6 3.7,55.7 4.7,56.2 5.1,56.3 5.2,56.3 
			5.1,56.2 4.8,56 4.8,56 3.8,55.6 3.8,52.2 3.8,52.1 3.8,52.1 3.8,51.8 		"/>
		<polygon class="st0" points="3.8,51.8 3.8,51.7 0.1,50.1 0,50.2 0.1,50.3 3.7,51.8 		"/>
		<polygon class="st0" points="3.8,47.8 3.8,47.7 2.4,47.1 2.3,47.1 2.4,47.2 3.7,47.8 		"/>
		<polygon class="st0" points="11.6,53.1 11.6,53 11.7,48.6 11.6,48.6 11.6,48.6 11.5,52.9 7.2,51 7.1,51 7.1,51.1 11.5,53.1 		"/>
		<polygon class="st0" points="11.7,48.6 11.6,48.6 7.1,51 7.1,51.1 7.2,51.1 11.7,48.7 		"/>
		<polygon class="st0" points="11.9,46.2 11.8,46.2 11.6,46.3 11.6,46.4 11.7,46.4 11.9,46.3 		"/>
		<polygon class="st0" points="11.7,46.4 11.6,46.3 11.6,46.4 11.6,48.6 11.6,48.7 11.7,48.6 		"/>
		<polygon class="st0" points="8.9,58 8.9,57.9 6.6,56.9 6.5,56.9 6.6,57 8.8,58 		"/>
		<polygon class="st0" points="11.6,59.2 11.6,59.3 11.6,59.3 12,59.5 12.1,59.4 12.1,59.3 11.7,59.2 11.7,59.1 11.6,59.1 
			10.5,58.6 10.4,58.6 10.4,58.7 10.4,58.7 		"/>
		<polygon class="st0" points="14.1,60.4 14.4,60.5 15.3,60.9 15.4,60.9 15.4,60.8 14.5,60.4 14.5,60.4 14.2,60.3 13.6,60 13.5,60 
			13.5,60.2 14.1,60.4 		"/>
		<polygon class="st0" points="12.9,59.8 12.9,59.7 12.9,59.7 		"/>
		<polygon class="st0" points="12.9,59.9 13.5,60.2 13.6,60.1 13.6,60 12.9,59.7 12.9,59.7 12.9,59.8 12.9,59.7 12.1,59.3 
			11.9,59.4 12,59.5 12.9,59.9 		"/>
		<polygon class="st0" points="6.6,65.8 6.6,65.8 6.7,56.9 6.6,56.8 6.5,56.9 6.4,65.8 6.4,66.1 6.5,66.2 6.6,66.1 		"/>
		<polygon class="st0" points="10.5,58.7 10.5,58.6 8.9,57.9 8.8,57.9 8.8,58 10.4,58.7 		"/>
		<polygon class="st0" points="0.1,50.1 0,50.2 0,64.7 0.1,64.8 5,67.1 5.1,67 5.1,66.9 0.2,64.6 0.2,50.2 		"/>
		<polygon class="st0" points="5.2,56.3 5.1,56.2 5,56.3 4.9,67 5,67.1 5.1,67 		"/>
		<polygon class="st0" points="5.4,56.5 5.5,56.5 6.6,57 6.7,57 6.6,56.9 5.5,56.4 5.5,56.4 5.4,56.4 5.1,56.2 5,56.2 5.1,56.4 
			5.4,56.5 		"/>
		<polygon class="st0" points="6.6,66.1 6.5,66.1 5,66.9 4.9,67 5.1,67.1 6.5,66.2 		"/>
		<polygon class="st0" points="2.5,43.6 2.4,43.5 2.3,43.6 2.3,47.2 2.4,47.2 2.5,47.2 		"/>
		<polygon class="st0" points="7.3,44.5 7.2,44.4 7.1,44.5 7.1,51 7.1,51.1 7.2,51 		"/>
		<polygon class="st0" points="12,42 11.9,42 11.9,42 11.8,46.3 11.9,46.3 12,46.3 		"/>
		<polygon class="st0" points="13.4,69.1 13.3,69.2 13.3,70.9 13.3,70.9 15,71.8 15.1,71.8 15.1,71.7 13.4,70.8 13.5,69.2 		"/>
		<polygon class="st0" points="11.8,70.3 11.9,70.2 11.9,70.1 10.3,69.4 10.3,67.8 10.2,67.7 10.2,67.8 10.2,69.4 10.2,69.5 		"/>
		<polygon class="st0" points="8.7,68.8 8.8,68.8 8.8,68.7 6.6,67.6 6.6,66.1 6.5,66 6.4,66.1 6.4,67.7 6.5,67.8 		"/>
		<polygon class="st0" points="10.3,67.8 10.2,67.8 8.7,68.7 8.7,68.8 8.8,68.8 10.3,67.9 		"/>
		<polygon class="st0" points="13.4,69.2 13.3,69.2 11.8,70.1 11.8,70.2 11.9,70.3 13.4,69.3 		"/>
		<polygon class="st0" points="13.6,60 13.5,60.1 13.3,68.9 13.3,68.9 13.3,69.2 13.4,69.3 13.5,69.2 13.5,69.2 13.4,68.9 
			13.6,60.1 		"/>
		<polygon class="st0" points="12.1,59.4 12,59.3 11.9,59.4 11.8,70.2 11.9,70.3 11.9,70.2 		"/>
		<polygon class="st0" points="8.9,57.9 8.9,57.9 8.8,57.9 8.7,68.7 8.8,68.8 8.8,68.7 		"/>
		<polygon class="st0" points="10.5,58.6 10.4,58.6 10.4,58.6 10.2,67.8 10.2,67.9 10.3,67.8 		"/>
		<polygon class="st0" points="57.6,10 57.5,10 33.5,25.8 33.4,25.9 33.5,25.9 57.5,10.1 		"/>
		<polygon class="st0" points="23.6,30 23.5,30 15.2,36.7 15.2,36.8 15.3,36.8 23.6,30.1 		"/>
		<polygon class="st0" points="37.2,47.9 37.2,47.8 13.4,38.1 13.3,38.1 13.4,38.2 37.1,47.9 		"/>
		<polygon class="st0" points="11.8,46.3 11.9,46.3 16.4,44 16.5,43.9 16.4,43.8 12,42 11.9,42 11.9,42.1 16.2,43.9 11.8,46.2 		"/>
		<polygon class="st0" points="19.8,49.9 19.8,49.8 11.7,46.3 11.6,46.3 11.6,46.4 19.7,49.9 		"/>
		<polygon class="st0" points="37.2,47.4 37.2,47.3 13.4,37.6 13.3,37.7 13.3,37.8 37.1,47.5 		"/>
		<polygon class="st0" points="39.1,46.4 39,46.3 15.3,36.7 15.2,36.7 15.3,36.8 39,46.4 		"/>
		<polygon class="st0" points="69.3,13.9 69.2,13.8 45.6,30.3 45.6,30.5 45.7,30.5 69.3,14 		"/>
		<polygon class="st0" points="96,28.7 96,28.8 94.1,42.5 94,42.7 94,42.7 93.5,46.5 93.4,46.5 93.4,46.5 82,54.7 82,54.8 
			82.1,54.8 93.5,46.6 93.6,46.6 93.7,46.5 94.2,42.7 94.2,42.5 94.3,42.5 96.1,28.9 96.1,28.9 96,28.9 96.1,28.8 96,28.8 96,28.7 
					"/>
		<polygon class="st0" points="96.1,28.8 96.1,28.8 96.1,28.8 		"/>
		<polygon class="st0" points="96.1,28.8 96.1,28.7 96.1,28.7 96,28.7 96,28.8 96.1,28.8 96.1,28.8 		"/>
		<polygon class="st0" points="96.2,28.8 96.2,28.8 96.2,28.1 96.8,24.8 96.7,24.7 96.6,24.8 96.1,28.1 96.1,28.1 96,28.7 
			96.1,28.7 96.1,28.7 96.1,28.8 96.1,28.8 96.1,28.9 		"/>
		<polygon class="st0" points="96.1,28.8 96.1,28.8 96.1,28.8 96,28.9 96.1,28.9 96.1,28.9 		"/>
		<polygon class="st0" points="96.6,24.9 96.7,24.8 96.7,24.7 89.8,22.4 89.7,22.4 87.8,23.5 87.8,23.6 87.9,23.7 89.7,22.6 		"/>
		<polygon class="st0" points="87.9,23.6 87.9,23.5 68.4,17 68.3,17 68.4,17.1 87.8,23.7 		"/>
		<polygon class="st0" points="96.7,24.8 96.6,24.7 40.8,60 40.8,60.1 40.9,60.1 96.7,24.9 		"/>
	</g>
</g>
</svg>
