<?xml version="1.0" encoding="utf-8"?>
<!-- Generator: Adobe Illustrator 23.0.6, SVG Export Plug-In . SVG Version: 6.00 Build 0)  -->
<svg version="1.1" id="sw-js-blob-svg" xmlns="http://www.w3.org/2000/svg" xmlns:xlink="http://www.w3.org/1999/xlink" x="0px"
	 y="0px" viewBox="0 0 100 100" style="enable-background:new 0 0 100 100;" xml:space="preserve">
<style type="text/css">
	.st0{fill:url(#SVGID_1_);}
</style>
<linearGradient id="SVGID_1_" gradientUnits="userSpaceOnUse" x1="-243.0276" y1="464.811" x2="-242.0276" y2="465.811" gradientTransform="matrix(62.6922 0 0 -73.5198 15253.7588 34263.3828)">
	<stop  offset="0" style="stop-color:#FFFFFF"/>
	<stop  offset="1" style="stop-color:#FFFFFF"/>
</linearGradient>
<path class="st0" d="M70.3,24.1c4.9,5.7,6.9,13.3,7.7,20.6c0.9,7.3,0.6,14.5-1.6,22.8c-2.1,8.3-6.1,17.8-12.6,20.1
	c-6.6,2.3-15.7-2.5-22.8-7.5c-7.1-4.9-12.1-10-16.9-16.1c-4.7-6.2-9.1-13.6-8.2-20.3c0.9-6.7,7-12.7,13.5-18.2
	C36,20,43,15.1,50.4,14.7C57.7,14.3,65.5,18.3,70.3,24.1z"/>
</svg>
