<?xml version="1.0" encoding="utf-8"?>
<!-- Generator: Adobe Illustrator 23.0.6, SVG Export Plug-In . SVG Version: 6.00 Build 0)  -->
<svg version="1.1" id="Layer_1" xmlns="http://www.w3.org/2000/svg" xmlns:xlink="http://www.w3.org/1999/xlink" x="0px" y="0px"
	 viewBox="0 0 288 512" style="enable-background:new 0 0 288 512;" xml:space="preserve">
<style type="text/css">
	.st0{fill:#FFFFFF;}
</style>
<path class="st0" d="M112,316.9v156.7l22,33c4.8,7.1,15.2,7.1,20,0l22-33V316.9c-10.4,1.9-21.1,3.1-32,3.1S122.4,318.9,112,316.9z
	 M144,0C64.5,0,0,64.5,0,144s64.5,144,144,144s144-64.5,144-144S223.5,0,144,0z M144,76c-37.5,0-68,30.5-68,68c0,6.6-5.4,12-12,12
	s-12-5.4-12-12c0-50.7,41.3-92,92-92c6.6,0,12,5.4,12,12S150.6,76,144,76z"/>
</svg>
