<?xml version="1.0" encoding="utf-8"?>
<!-- Generator: Adobe Illustrator 23.0.6, SVG Export Plug-In . SVG Version: 6.00 Build 0)  -->
<svg version="1.1" id="Layer_1" xmlns="http://www.w3.org/2000/svg" xmlns:xlink="http://www.w3.org/1999/xlink" x="0px" y="0px"
	 viewBox="0 0 512 512" style="enable-background:new 0 0 512 512;" xml:space="preserve">
<style type="text/css">
	.st0{fill:#FFFFFF;}
</style>
<path class="st0" d="M416,128V32c0-17.7-14.3-32-32-32H32C14.3,0,0,14.3,0,32v96c0,17.7,14.3,32,32,32h352
	C401.7,160,416,145.7,416,128z M448,64v128c0,17.7-14.3,32-32,32H256c-35.4,0-64,28.6-64,64v32c-17.7,0-32,14.3-32,32v128
	c0,17.7,14.3,32,32,32h64c17.7,0,32-14.3,32-32V352c0-17.7-14.3-32-32-32v-32h160c53,0,96-43,96-96v-64C512,92.6,483.4,64,448,64z"
	/>
</svg>
