<?xml version="1.0" encoding="utf-8"?>
<!-- Generator: Adobe Illustrator 23.0.6, SVG Export Plug-In . SVG Version: 6.00 Build 0)  -->
<svg version="1.1" id="Layer_1" xmlns="http://www.w3.org/2000/svg" xmlns:xlink="http://www.w3.org/1999/xlink" x="0px" y="0px"
	 viewBox="0 0 512 512" style="enable-background:new 0 0 512 512;" xml:space="preserve">
<style type="text/css">
	.st0{fill:#FFFFFF;}
</style>
<path class="st0" d="M104,224H24c-13.3,0-24,10.7-24,24v240c0,13.3,10.7,24,24,24h80c13.3,0,24-10.7,24-24V248
	C128,234.7,117.3,224,104,224z M64,472c-13.3,0-24-10.7-24-24s10.7-24,24-24s24,10.7,24,24S77.3,472,64,472z M384,81.5
	c0,42.4-26,66.2-33.3,94.5h101.7c33.4,0,59.4,27.7,59.6,58.1c0.1,17.9-7.5,37.2-19.4,49.2l-0.1,0.1c9.8,23.3,8.2,56-9.3,79.5
	c8.7,25.9-0.1,57.7-16.4,74.8c4.3,17.6,2.2,32.6-6.1,44.6c-20.4,29.3-71,29.7-113.8,29.7l-2.8,0c-48.3,0-87.8-17.6-119.6-31.7
	c-16-7.1-36.8-15.9-52.7-16.2c-6.5-0.1-11.8-5.5-11.8-12V238.3c0-3.2,1.3-6.3,3.6-8.5c39.6-39.1,56.6-80.6,89.1-113.1
	c14.8-14.8,20.2-37.2,25.4-58.9C282.5,39.3,291.8,0,312,0C336,0,384,8,384,81.5z"/>
</svg>
