<?xml version="1.0" encoding="utf-8"?>
<!-- Generator: Adobe Illustrator 23.0.6, SVG Export Plug-In . SVG Version: 6.00 Build 0)  -->
<svg version="1.1" id="Layer_1" xmlns="http://www.w3.org/2000/svg" xmlns:xlink="http://www.w3.org/1999/xlink" x="0px" y="0px"
	 viewBox="0 0 512 512" style="enable-background:new 0 0 512 512;" xml:space="preserve">
<style type="text/css">
	.st0{fill:#FFFFFF;}
</style>
<path class="st0" d="M212.3,224.3H12c-6.6,0-12-5.4-12-12V12C0,5.4,5.4,0,12,0h48c6.6,0,12,5.4,12,12v78.1
	C117.8,39.3,184.3,7.5,258.2,8c136.9,1,246.4,111.6,246.2,248.5C504,393.3,393.1,504,256.3,504c-64.1,0-122.5-24.3-166.5-64.2
	c-5.1-4.6-5.3-12.6-0.5-17.4l34-34c4.5-4.5,11.7-4.7,16.4-0.5c31,27.5,71.9,44.1,116.6,44.1c97.3,0,176-78.7,176-176
	c0-97.3-78.7-176-176-176c-58.5,0-110.3,28.5-142.3,72.3h98.3c6.6,0,12,5.4,12,12v48C224.3,219,219,224.3,212.3,224.3L212.3,224.3z"
	/>
</svg>
