<?xml version="1.0" encoding="utf-8"?>
<!-- Generator: Adobe Illustrator 23.0.6, SVG Export Plug-In . SVG Version: 6.00 Build 0)  -->
<svg version="1.1" id="Layer_1" xmlns="http://www.w3.org/2000/svg" xmlns:xlink="http://www.w3.org/1999/xlink" x="0px" y="0px"
	 viewBox="0 0 94.1 46.7" style="enable-background:new 0 0 94.1 46.7;" xml:space="preserve">
<style type="text/css">
	.st0{fill-rule:evenodd;clip-rule:evenodd;fill:#FFFFFF;}
</style>
<title>Asset 102</title>
<g>
	<g id="_Layer_">
		<path class="st0" d="M58.1,7.6c-3.6,0.9-7.6,2.4-9.1,3.4L29.2,24.8C20.9,30.6,11.2,37.3,0,45.1c1.2,0.5,2.3,1,3.5,1.6
			c7.3-1.9,14.6-3.8,22.2-5.7c7.6-1.9,15.4-3.8,23.3-5.7c4.9-2.1,9.7-4.1,14.3-6.1c7.1-6.8,13.1-12.6,18.4-17.6
			C86.3,7.3,90.4,3.4,94.1,0c-1.8,0.1-3.6,0.1-5.3,0.2L73.3,4L58.1,7.6z"/>
	</g>
</g>
</svg>
