<?xml version="1.0" encoding="utf-8"?>
<!-- Generator: Adobe Illustrator 23.0.6, SVG Export Plug-In . SVG Version: 6.00 Build 0)  -->
<svg version="1.1" id="Layer_1" xmlns="http://www.w3.org/2000/svg" xmlns:xlink="http://www.w3.org/1999/xlink" x="0px" y="0px"
	 viewBox="0 0 95.8 65.6" style="enable-background:new 0 0 95.8 65.6;" xml:space="preserve">
<style type="text/css">
	.st0{fill:#FFFFFF;}
</style>
<title>Asset 86</title>
<g>
	<g id="_Layer_">
		<path class="st0" d="M50.9,61.2l10.6,3.9c2.3,0.9,5,0.2,6.5-1.7l26.4-34.7c0,0,4.3-6.5-2.6-9.9c-0.7-0.3-1.4-0.6-2.1-0.9l-5.8-2.2
			c-0.2-0.1-0.5-0.1-0.8,0c-1,0.5-1.9,1.2-2.6,2.1v0.1l0,0v-0.1l-0.4,0.5v-0.1L45,5.4c-0.7-0.2-1.5-0.3-2.3-0.2l-1.5,0.3
			c-0.6,0.2-1.2,0.2-1.8,0l-2.3-0.9c-0.6-0.2-1.1-0.7-1.5-1.2l-0.5-0.8c-0.2-0.6-0.7-1-1.3-1.2l-2.3-0.9c0,0-4.5-1.6-7.5,1l-0.9,0.9
			l-0.1,1.2L4.3,26.7c-0.6,0.1-1.2,0.5-1.5,0.9l-1.2,1.5c0,0-2.1,2.4-1.5,5c0.1,1.2,0.8,2.4,1.8,3c0,0,0.3,0.2,0.8,0.5l3.2,1.2
			c0.8,0.2,1.7,0.2,2.5,0l0.7-0.1l6.4,2.4l0.3,0.6c0.3,0.5,0.7,1,1.2,1.3l34.8,12.8l-0.3,0.5C49.1,60.4,50.9,61.2,50.9,61.2z"/>
	</g>
</g>
</svg>
