<?xml version="1.0" encoding="utf-8"?>
<!-- Generator: Adobe Illustrator 23.0.6, SVG Export Plug-In . SVG Version: 6.00 Build 0)  -->
<svg version="1.1" id="Layer_1" xmlns="http://www.w3.org/2000/svg" xmlns:xlink="http://www.w3.org/1999/xlink" x="0px" y="0px"
	 viewBox="0 0 29.5 56.5" style="enable-background:new 0 0 29.5 56.5;" xml:space="preserve">
<style type="text/css">
	.st0{fill-rule:evenodd;clip-rule:evenodd;fill:#FFFFFF;}
	.st1{fill:#FFFFFF;}
</style>
<title>Asset 64</title>
<g>
	<g id="_Layer_">
		<path class="st0" d="M25.6,12.6c-2.7-3.2-6.7-5.1-10.8-5c-4.2-0.1-8.1,1.8-10.8,5c-0.9,1.1-1.7,2.3-2.3,3.6
			c-0.5,1.3-0.9,2.6-1.1,3.9c-0.3,1.6-0.4,3.2-0.5,4.8C0,27.2,0,29.6,0,32c0,3,0,6,0.2,9c0.1,1.9,0.5,3.8,1.1,5.7
			c0.6,1.8,1.5,3.4,2.7,4.8c2.6,3.2,6.6,5.1,10.8,5c4.2,0.1,8.2-1.8,10.8-5c1.2-1.4,2.1-3.1,2.7-4.8c0.6-1.8,0.9-3.7,1-5.7
			c0.2-3,0.2-6,0.2-9s0-6-0.2-9c-0.1-1.9-0.4-3.8-1-5.6C27.7,15.6,26.8,14,25.6,12.6z M24.6,32c0,2.6,0,5.2-0.2,7.8
			c-0.1,1.6-0.3,3.3-0.8,4.8c-0.4,1.2-1,2.4-1.8,3.3c-1.7,2.2-4.3,3.4-7.1,3.4c-1.4,0-2.7-0.3-3.9-0.9C9.6,49.9,8.6,49,7.7,48
			c-0.6-0.7-1.1-1.5-1.4-2.4c-0.4-0.9-0.6-1.9-0.8-2.9c-0.2-1.4-0.4-2.8-0.4-4.2C5,36.3,5,34.1,5,32c-0.1-3.5,0.1-7.1,0.5-10.5
			c0.3-1.9,1-3.8,2.2-5.4c0.9-1,1.9-1.9,3.2-2.4c1.2-0.6,2.6-0.9,3.9-0.9c1.4,0,2.7,0.3,3.9,0.9c1.2,0.6,2.3,1.4,3.1,2.4
			c1.2,1.6,2,3.4,2.2,5.4C24.5,24.9,24.7,28.5,24.6,32z"/>
		<rect x="13.1" y="0" class="st1" width="3.3" height="5.6"/>
		<rect x="17.3" y="1.9" transform="matrix(0.2587 -0.966 0.966 0.2587 11.4486 22.1201)" class="st1" width="5.6" height="3.3"/>
		<rect x="7.8" y="0.8" transform="matrix(0.9659 -0.259 0.259 0.9659 -0.612 2.5619)" class="st1" width="3.3" height="5.6"/>
	</g>
</g>
</svg>
