<?xml version="1.0" encoding="utf-8"?>
<!-- Generator: Adobe Illustrator 26.0.1, SVG Export Plug-In . SVG Version: 6.00 Build 0)  -->
<svg version="1.1" id="Layer_1" xmlns="http://www.w3.org/2000/svg" xmlns:xlink="http://www.w3.org/1999/xlink" x="0px" y="0px"
	 viewBox="0 0 377 377" style="enable-background:new 0 0 377 377;" xml:space="preserve">
<style type="text/css">
	.st0{fill:none;}
	.st1{fill:#FFFFFF;}
	.st2{fill:#B9B28F;}
	.st3{fill:#8A8A8A;}
	.st4{fill:#5E5377;}
</style>
<path class="st0" d="z"/>
<g>
	<path class="st1" d="M0,0h188.5v188.5H0V0z"/>
	<path class="st2" d="M0,94.2C0,42.2,42.2,0,94.3,0s94.3,42.2,94.3,94.3s-42.2,94.3-94.3,94.3V94.2H0z"/>
	<path class="st3" d="M0,94.2c52.1,0,94.3,42.2,94.3,94.3H0V94.2z"/>
</g>
<g>
	<path class="st1" d="M0,0h188.5v188.5H0V0z"/>
	<path class="st3" d="M0,94.2C0,42.2,42.2,0,94.3,0H0V94.2z"/>
	<path class="st4" d="M94.3,188.5C42.2,188.5,0,146.3,0,94.2v94.3H94.3z"/>
	<path d="M94.3,94.2C94.3,42.2,136.4,0,188.5,0H94.3V94.2z"/>
	<path class="st4" d="M94.3,188.5c0-52.1,42.2-94.3,94.3-94.3H94.3V188.5z"/>
</g>
<g>
	<path class="st1" d="M0,0h188.5v188.5H0V0z"/>
	<path class="st3" d="M0,0h188.5v94.3l-94.3,94.3L0,94.2V0z"/>
	<path class="st1" d="M62.8,125.7h62.8v62.8H62.8V125.7z"/>
</g>
<g>
	<path class="st1" d="M0,0h188.5v188.5H0V0z"/>
	<path class="st4" d="M188.5,188.5C84.4,188.5,0,104.1,0,0h188.5V188.5z"/>
	<path d="M188.5,188.5C84.4,188.5,0,104.1,0,0h188.5V188.5z"/>
</g>
<g id="two-13390" transform="matrix(1 0 0 1 0 0)">
</g>
<path class="st0" d="z"/>
</svg>
