<?xml version="1.0" encoding="utf-8"?>
<!-- Generator: Adobe Illustrator 23.0.6, SVG Export Plug-In . SVG Version: 6.00 Build 0)  -->
<svg version="1.1" id="sw-js-blob-svg" xmlns="http://www.w3.org/2000/svg" xmlns:xlink="http://www.w3.org/1999/xlink" x="0px"
	 y="0px" viewBox="0 0 100 100" style="enable-background:new 0 0 100 100;" xml:space="preserve">
<style type="text/css">
	.st0{fill:url(#SVGID_1_);}
</style>
<linearGradient id="SVGID_1_" gradientUnits="userSpaceOnUse" x1="-243.3882" y1="465.3243" x2="-242.3882" y2="466.3243" gradientTransform="matrix(68.1041 0 0 -80.996 16588.5078 37774.6484)">
	<stop  offset="0" style="stop-color:#FFFFFF"/>
	<stop  offset="1" style="stop-color:#FFFFFF"/>
</linearGradient>
<path class="st0" d="M69.4,20.8c5.5,6.4,9.4,12.5,11.3,19c1.8,6.6,1.6,13.6-0.8,19.5c-2.5,5.9-7.2,10.7-12.5,15.3
	c-5.4,4.6-11.4,9-18.7,10.9c-7.4,1.8-16.1,1.1-22.9-3c-6.8-4.2-11.7-11.7-12-19.2c-0.2-7.5,4.1-14.9,6-23.8c2-8.8,1.6-19.2,6.2-25.8
	S40.3,4.1,48.7,6C57,7.8,64,14.5,69.4,20.8z"/>
</svg>
