<?xml version="1.0" encoding="utf-8"?>
<!-- Generator: Adobe Illustrator 23.0.6, SVG Export Plug-In . SVG Version: 6.00 Build 0)  -->
<svg version="1.1" id="Layer_1" xmlns="http://www.w3.org/2000/svg" xmlns:xlink="http://www.w3.org/1999/xlink" x="0px" y="0px"
	 viewBox="0 0 320 512" style="enable-background:new 0 0 320 512;" xml:space="preserve">
<style type="text/css">
	.st0{fill:#FFFFFF;}
</style>
<path class="st0" d="M177,255.7l136,136c9.4,9.4,9.4,24.6,0,33.9l-22.6,22.6c-9.4,9.4-24.6,9.4-33.9,0L160,351.9l-96.4,96.4
	c-9.4,9.4-24.6,9.4-33.9,0L7,425.7c-9.4-9.4-9.4-24.6,0-33.9l136-136C152.4,246.3,167.6,246.3,177,255.7L177,255.7z M143,63.7
	L7,199.7c-9.4,9.4-9.4,24.6,0,33.9l22.6,22.6c9.4,9.4,24.6,9.4,33.9,0l96.4-96.4l96.4,96.4c9.4,9.4,24.6,9.4,33.9,0l22.6-22.6
	c9.4-9.4,9.4-24.6,0-33.9l-136-136C167.6,54.3,152.4,54.3,143,63.7L143,63.7z"/>
</svg>
