<?xml version="1.0" encoding="utf-8"?>
<!-- Generator: Adobe Illustrator 23.0.6, SVG Export Plug-In . SVG Version: 6.00 Build 0)  -->
<svg version="1.1" id="Layer_1" xmlns="http://www.w3.org/2000/svg" xmlns:xlink="http://www.w3.org/1999/xlink" x="0px" y="0px"
	 viewBox="0 0 127.1 61.9" style="enable-background:new 0 0 127.1 61.9;" xml:space="preserve">
<style type="text/css">
	.st0{fill-rule:evenodd;clip-rule:evenodd;fill:#FFFFFF;}
</style>
<title>Asset 87</title>
<g>
	<g id="_Layer_">
		<path class="st0" d="M58.7,18.3c-0.2,0.6-0.7,1-1.3,1.2c-12,4.6-24,9.2-35.9,13.8c-6.9,2.7-13.8,5.3-20.7,8
			C0.4,41.4,0,41.5,0,42.2c0.4,4.7,0.7,9.5,1,14.2c0,0.5,0.1,0.7,0.6,0.8c2,0.3,3.9,0.6,5.9,0.9c6.6,1,13.2,2,19.8,2.9
			c0.6,0.1,1.1,0.4,1.3,1l97.6-37.1l0.8-0.5L65.8,0l-0.3,0.6C63.2,6.5,60.9,12.4,58.7,18.3z"/>
	</g>
</g>
</svg>
