<?xml version="1.0" encoding="utf-8"?>
<!-- Generator: Adobe Illustrator 23.0.6, SVG Export Plug-In . SVG Version: 6.00 Build 0)  -->
<svg version="1.1" id="Layer_1" xmlns="http://www.w3.org/2000/svg" xmlns:xlink="http://www.w3.org/1999/xlink" x="0px" y="0px"
	 viewBox="0 0 64.8 67.6" style="enable-background:new 0 0 64.8 67.6;" xml:space="preserve">
<style type="text/css">
	.st0{fill-rule:evenodd;clip-rule:evenodd;fill:#FFFFFF;}
</style>
<title>Asset 103</title>
<g>
	<g id="_Layer_">
		<path class="st0" d="M59,4L31.6,28.4L18.6,40c-0.9,1-1.8,2-2.6,2.9l-2.8,3.9c-1,1.3-1.9,2.7-2.9,4.1c0,0.3-0.1,0.7-0.1,1
			c2.9-2.1,6.4-4.7,10.9-8c5.8-4.2,13.8-9.9,25.3-17.9c3.2-3,6.4-6,9.6-9.1c1.6-3,3.1-5.8,4.6-8.6s2.8-5.3,4.1-7.7
			C65.5-1,63,0.5,59,4z"/>
		<path class="st0" d="M9.3,53.3c-0.8,1-1.7,1.9-2.4,2.8c-1,1.5-2,3-3.1,4.6s-2.1,3.2-3.2,4.9l-0.6,2l7.8-2.1l19.8-5.3
			c3.4-0.9,7.7-4.5,9.5-7.8c2.4-4.5,4.6-8.7,6.8-12.8c2.1-3.8,4.1-7.6,6-11.1c-1.7,0-3.3,0.2-5,0.4c-11.4,7.6-19.3,13-25,17
			C15.5,48.8,12.1,51.3,9.3,53.3z"/>
	</g>
</g>
</svg>
