<?xml version="1.0" encoding="utf-8"?>
<!-- Generator: Adobe Illustrator 23.0.6, SVG Export Plug-In . SVG Version: 6.00 Build 0)  -->
<svg version="1.1" id="Layer_1" xmlns="http://www.w3.org/2000/svg" xmlns:xlink="http://www.w3.org/1999/xlink" x="0px" y="0px"
	 viewBox="0 0 202.1 46.7" style="enable-background:new 0 0 202.1 46.7;" xml:space="preserve">
<style type="text/css">
	.st0{fill-rule:evenodd;clip-rule:evenodd;fill:#FFFFFF;}
</style>
<title>Asset 92</title>
<g>
	<g id="_Layer_">
		<path class="st0" d="M187.8,0.1L173,0.3l-14.5,0.2l-14.6,0.1l-14.5,0.2l-14.8,0.1c-4.9,0-9.8,0-14.6,0.2C96.6,1,93.3,1.2,90,1.5
			c-3.4,0.4-6.8,1.1-10.3,1.6L56.5,6.8C46.5,8.4,36.4,10,26.3,11.7c-7.8,1.2-15.7,2.5-23.5,3.7c-0.9,0.1-1.8,0.4-2.7,0.5
			c0.1,5,0.2,9.9,0.3,15l1.7-0.2c14.4-2,28.8-4,43.1-6c5-0.8,9.8-1.7,14.8-2.5s9.7-1.6,14.6-2.3c0.5-0.1,1,0,1.4,0.3
			c4.6,3.4,9.2,6.8,13.7,10.3c0.5,0.4,0.8,0.9,0.9,1.4c0.9,4,1.7,8,2.5,11.9c0.2,1,0.4,1.9,0.7,2.9c2.6-0.6,5.2-1.1,7.7-1.7
			c5.2-1.2,10.5-2.3,15.7-3.5s10.4-2.3,15.6-3.4c5.5-1.2,10.9-2.4,16.4-3.6c2.2-0.3,4.2-1.1,6.1-2.2c13.7-9.5,27.4-18.8,41.1-28.3
			l5.6-3.9L202,0h-1.7L187.8,0.1z"/>
	</g>
</g>
</svg>
