<?xml version="1.0" encoding="utf-8"?>
<!-- Generator: Adobe Illustrator 23.0.6, SVG Export Plug-In . SVG Version: 6.00 Build 0)  -->
<svg version="1.1" id="Layer_1" xmlns="http://www.w3.org/2000/svg" xmlns:xlink="http://www.w3.org/1999/xlink" x="0px" y="0px"
	 viewBox="0 0 399.2 444.4" style="enable-background:new 0 0 399.2 444.4;" xml:space="preserve">
<style type="text/css">
	.st0{fill:none;stroke:#FFFFFF;stroke-miterlimit:10;stroke-opacity:0.6;}
</style>
<title>Asset 1</title>
<g>
	<g id="Layer_1-2">
		<path class="st0" d="M395.8,222.2v5.9v1.5v1.5v1.5v1.5v1.5v1.5l0,1.5v1.5l-0.1,1.5l-0.1,1.5l-0.1,1.5l-0.1,1.5l-0.1,1.5l-0.1,1.5
			l-0.1,1.5l-0.1,1.5l-0.1,1.5l-0.1,1.5l-0.1,1.5l-0.1,1.5l-0.1,1.5l-0.1,1.5l-0.1,1.5l-0.1,1.5l-0.1,1.5l-0.1,1.5l-0.1,1.5
			l-0.1,1.5l-0.1,1.5l-0.1,1.6l-0.1,1.6l-0.1,1.6l-0.1,1.6l-0.1,1.6l-0.1,1.6l-0.1,1.6l-0.2,1.6l-0.2,1.6l-0.5,1.6l-0.2,1.6
			l-0.2,1.6l-0.2,1.6l-0.2,1.6l-0.2,1.6l-0.2,1.7l-0.2,1.7l-0.2,1.7l-0.2,1.7l-0.2,1.7l-0.2,1.7l-0.2,1.7l-0.2,1.7l-0.2,1.7
			l-0.2,1.8l-0.2,1.8l-0.2,1.8l-0.2,1.8l-0.2,1.8l-0.2,1.8l-0.2,1.9l-0.2,1.9l-0.2,1.9l-0.2,1.9l-0.2,1.9l-0.2,2l-0.2,2l-0.2,2
			l-0.2,2l-0.1,2l-0.1,2.1l-0.1,2.1l-0.1,2.1l-0.1,2.2l-0.1,2.2l-0.1,2.2l-0.1,2.3l-0.1,2.3l-0.1,2.4l-0.1,2.4l0,2.5v2.5l0,2.5
			l-0.1,2.6l-0.1,2.6l-0.3,2.5l-0.5,2.3l-0.8,2l-1.1,1.7l-1.4,1.4l-1.5,1.2l-1.6,1.1l-1.7,1.1l-1.7,1l-1.7,1l-1.7,1l-1.7,1l-1.7,1
			l-1.7,1l-1.7,1l-1.7,1l-1.7,1l-1.7,1l-1.7,1l-1.7,1l-1.7,1l-1.7,1l-1.7,1l-1.7,1l-1.7,1l-1.7,1l-1.7,1l-1.7,1l-1.7,1l-1.7,1
			l-1.7,1l-1.7,1l-1.7,1l-1.7,1l-1.7,1l-1.7,1l-1.7,1l-1.7,1l-1.7,1l-1.7,1l-1.7,1l-1.7,1l-1.7,1l-1.7,1l-1.7,1l-1.7,1l-1.7,1
			l-1.7,1l-1.7,1l-1.7,1l-1.7,1l-1.7,1l-1.7,1l-1.7,1l-1.8,1l-1.8,1l-1.8,0.9l-1.8,0.9l-1.9,0.7l-1.9,0.5l-2,0.1l-2.1-0.3l-2.2-0.8
			l-2.3-1l-2.3-1.9l-2.3-1.2l-2.3-1.2l-2.2-1.2l-2.2-1.2l-2.1-1.2l-2.1-1.1l-2.1-1.1l-2-1.1l-2-1l-2-1l-1.9-1l-1.9-1l-1.9-0.9
			l-1.9-0.9l-1.9-0.9l-1.8-0.9l-1.8-0.9l-1.8-0.8l-1.8-0.8l-1.8-0.8l-1.7-0.8l-1.7-0.8l-1.7-0.8l-1.7-0.8l-1.7-0.8l-1.7-0.8
			l-1.6-0.7l-1.6-0.7l-1.6-0.7l-1.6-0.7l-1.6-0.7l-1.6-0.7l-1.6-0.7l-1.6-0.7l-1.6-0.7l-1.6-0.7l-1.5-0.7l-1.5-0.7l-1.5-0.7
			l-1.5-0.7l-1.5-0.7l-1.5-0.7l-1.5-0.7l-1.5-0.7l-1.5-0.7l-1.5-0.7l-1.5-0.7l-1.5-0.7l-1.4-0.7l-1.4-0.7l-1.4-0.7l-1.4-0.7
			l-1.4-0.7l-1.4-0.7l-1.4-0.7l-1.4-0.7l-1.4-0.7l-1.4-0.7l-1.4-0.7l-1.4-0.7l-1.4-0.7l-1.4-0.7l-1.4-0.7l-1.4-0.7l-1.4-0.7
			l-1.4-0.7l-1.4-0.7l-1.4-0.7l-1.3-0.7l-1.3-0.7l-1.3-0.7l-1.3-0.7l-1.3-0.7l-1.3-0.7l-1.3-0.7l-1.3-0.7l-1.3-0.7l-1.3-0.7
			l-1.3-0.7l-1.3-0.7l-1.3-0.7l-1.3-0.7l-1.3-0.7l-1.3-0.7l-1.3-0.7l-1.3-0.7l-1.3-0.7l-1.3-0.7l-1.3-0.8l-1.3-0.8l-1.3-0.8
			l-1.2-0.8l-1.3-0.8l-1.3-0.8l-1.3-0.8l-1.3-0.8l-1.3-0.8l-1.3-0.8l-1.3-0.8l-1.3-0.8l-1.3-0.8l-1.3-0.8l-1.3-0.8l-1.3-0.8
			l-1.3-0.8l-1.3-0.8L115,354l-1.3-0.8l-1.3-0.8l-1.3-0.8l-1.3-0.9l-1.3-0.9l-1.3-0.9l-1.3-0.9l-1.3-0.9l-1.3-0.9l-1.3-0.9l-1.3-0.9
			l-1.3-0.9l-1.3-0.9l-1.3-0.9l-1.3-0.9l-1.3-0.9l-1.3-0.9l-1.3-0.9l-1.3-0.9l-1.3-0.9l-1.3-0.9l-1.3-0.9l-1.3-1l-1.3-1l-1.3-1
			l-1.3-1l-1.3-1l-1.3-1l-1.3-1l-1.3-1l-1.4-1l-1.4-1l-1.4-1l-1.4-1l-1.4-1l-1.4-1l-1.4-1l-1.4-1l-1.4-1l-1.5-1.1l-1.5-1.1l-1.5-1.1
			l-1.5-1.1l-1.5-1.1l-1.5-1.1l-1.6-1.1l-1.5-1.1l-1.6-1.1l-1.6-1.1l-1.6-1.1l-1.7-1.2l-1.7-1.1l-1.7-1.2l-1.7-1.1l-1.8-1.2
			l-1.8-1.2l-1.8-1.2l-1.8-1.2l-1.9-1.2l-1.9-1.2l-2-1.2l-2-1.3l-2-1.3l-2.1-1.3l-2.1-1.3l-2.2-1.3l-2.2-1.3l-2.1-1.4l-2-1.5
			l-1.8-1.5L7,278.7l-0.9-1.8L5.5,275l-0.3-2l-0.2-2L5,269l-0.1-2v-2v-2v-2v-2v-2v-2v-2v-2v-2v-2v-1.9v-1.9v-2v-1.9v-1.9v-1.9v-27
			v-1.9v-1.9v-1.9v-1.9v-2v-1.9v-1.9v-2v-2v-2v-2v-2v-2v-2v-2v-2l0.1-2l0.1-2l0.2-2l0.3-2l0.5-1.9l0.9-1.8l1.4-0.9l1.8-1.6l2-1.4
			l2.1-1.4l2.2-1.3l2.2-1.3l2.1-1.3l2.1-1.3l2.1-1.3l2-1.3l2-1.2l1.9-1.2l1.9-1.2l1.8-1.2l1.8-1.2l1.8-1.2l1.8-1.2l1.7-1.2l1.7-1.2
			L45,140l1.7-1.1l1.6-1.1l1.6-1.1l1.6-1.1l1.5-1.2l1.5-1.1l1.5-1.1l1.6-1.1l1.5-1l1.5-1.1l1.5-1.1l1.5-1l1.4-1l1.4-1l1.4-1l1.4-1
			l1.4-1l1.4-1l1.4-1l1.4-1l1.4-1l1.3-1l1.3-1l1.3-1l1.3-1l1.3-1l1.3-1l1.3-1l1.3-1l1.3-0.9l1.3-0.9l1.3-0.9l1.3-0.9l1.3-0.9
			l1.3-0.9l1.3-0.9l1.3-0.9l1.3-0.9l1.3-0.9l1.3-0.9l1.3-0.9l1.3-0.9l1.3-0.9l1.3-0.9l1.3-0.8l1.3-0.9l1.3-0.8l1.3-0.8l1.3-0.8
			l1.3-0.8l1.3-0.8l1.3-0.8l1.3-0.8l1.3-0.8l1.3-0.8l1.3-0.8l1.3-0.8l1.3-0.8l1.3-0.8l1.3-0.8l1.3-0.8l1.3-0.8l1.3-0.8l1.3-0.8
			l1.3-0.8l1.3-0.8l1.3-0.8l1.3-0.8l1.3-0.8l1.3-0.8l1.3-0.8l1.3-0.7l1.3-0.7l1.3-0.7l1.3-0.7l1.3-0.7l1.3-0.7l1.3-0.7l1.3-0.7
			l1.3-0.7l1.3-0.7l1.3-0.7l1.3-0.7l1.3-0.7l1.3-0.7L160,64l1.3-0.7l1.3-0.7l1.3-0.7l1.3-0.7l1.4-0.7l1.4-0.7l1.4-0.7l1.4-0.7
			l1.4-0.7l1.4-0.7l1.4-0.7l1.4-0.7l1.4-0.7l1.4-0.7l1.4-0.7l1.4-0.7l1.4-0.7l1.4-0.7l1.4-0.7l1.4-0.7l1.4-0.7l1.4-0.7l1.4-0.7
			l1.4-0.7l1.5-0.7l1.5-0.7l1.5-0.7l1.5-0.7l1.5-0.7l1.5-0.7l1.5-0.7l1.5-0.7l1.5-0.7l1.5-0.7l1.5-0.7l1.5-0.7l1.6-0.7l1.6-0.7
			l1.6-0.7l1.6-0.7l1.6-0.7l1.6-0.7l1.6-0.7l1.6-0.7l1.6-0.7l1.6-0.7l1.7-0.8l1.7-0.8l1.7-0.8l1.7-0.8l1.7-0.8l1.7-0.8l1.8-0.8
			l1.8-0.8l1.8-0.8l1.8-0.9l1.8-0.9l1.9-0.9l1.9-0.9l1.9-0.9l1.9-1l1.9-1l2-1l2-1l2-1.1l2.1-1.1L266,14l2.1-1.1l2.2-1.2l2.2-1.2
			l2.2-1.2L277,8l2.3-1.2l2.3-1l2.2-0.8l2.1-0.3l2,0.1l1.9,0.5l1.9,0.7l1.8,0.8l1.8,0.9l1.8,0.9l1.8,0.9l1.7,1l1.7,1l1.7,1l1.7,0.9
			l1.7,1l1.7,0.9l1.7,1l1.7,1l1.7,1l1.7,1l1.7,1l1.7,1l1.7,1l1.7,1l1.7,1L326,25l1.7,1l1.7,1l1.7,1l1.7,1l1.7,1l1.7,1l1.7,1l1.7,1
			l1.7,1l1.7,1l1.7,1l1.7,1l1.7,1l1.7,1l1.7,1l1.7,1l1.7,1l1.7,1l1.7,1l1.7,1l1.7,1l1.7,1l1.7,1l1.7,1l1.7,1l1.7,1l1.7,1l1.7,1
			l1.7,1l1.7,1l1.7,1.1l1.6,1.1l1.5,1.2l1.4,1.4l1.1,1.7l0.8,2l0.5,2.3l0.3,2.5l0.1,2.6l0.1,2.6l0,2.5v2.5l0,2.5l0.1,2.4l0.1,2.4
			l0.1,2.3l0.1,2.3l0.1,2.2l0.1,2.2l0.1,2.2l0.1,2.1l0.1,2.1l0.1,2.1l0.1,2l0.2,2l0.2,2l0.2,2l0.2,2l0.2,1.9l0.2,1.9l0.2,1.9
			l0.2,1.9l0.2,1.8l0.2,1.8l0.2,1.8l0.2,1.8l0.2,1.8l0.2,1.8l0.2,1.8l0.2,1.8l0.2,1.7l0.2,1.7l0.2,1.7l0.2,1.7l0.2,1.7l0.2,1.7
			l0.2,1.7l0.2,1.7l0.2,1.6l0.2,1.6l0.2,1.6l0.2,1.6l0.2,1.6l0.2,1.6l0.2,1.6l0.2,1.6l0.1,1.6l0.1,1.6l0.1,1.6l0.1,1.6l0.1,1.6
			l0.1,1.6l0.1,1.6l0.1,1.6l0.1,1.5l0.1,1.6l0.1,1.5l0.1,1.5l0.1,1.5l0.1,1.5l0.1,1.5l0.1,1.5l0.1,1.5l0.1,1.5l0.1,1.5l0.1,1.5
			l0.1,1.5l0.1,1.5l0.1,1.5l0.1,1.5l0.1,1.5l0.1,1.5l0.1,1.5l0.1,1.5v1.5l0,1.5v1.5v1.5v1.5v1.5v1.5v1.5v6"/>
		<path class="st0" d="M396.3,222.2v4.5v1.5v1.5v1.5v1.5v1.5v1.5v1.5v1.5v1.5l0,1.5l-0.1,1.5l-0.1,1.5l-0.1,1.5l-0.1,1.5l-0.1,1.5
			l-0.1,1.5l-0.1,1.5l-0.1,1.5l-0.1,1.5l-0.1,1.5l-0.1,1.5l-0.1,1.5l-0.1,1.5l-0.1,1.5l-0.1,1.5l-0.1,1.5l-0.1,1.5l-0.1,1.5
			l-0.1,1.6l-0.1,1.6l-0.1,1.6l-0.1,1.6l-0.1,1.6l-0.1,1.6l-0.1,1.6l-0.1,1.6l-0.1,1.6l-0.2,1.6l-0.2,1.6l-0.2,1.6l-0.2,1.6
			l-0.2,1.6l-0.2,1.6l-0.2,1.6l-0.2,1.6l-0.2,1.7l-0.2,1.7l-0.2,1.7l-0.5,1.7l-0.2,1.7l-0.2,1.7l-0.2,1.7l-0.2,1.7l-0.2,1.8
			l-0.2,1.8l-0.2,1.8l-0.2,1.8l-0.2,1.8l-0.2,1.8l-0.2,1.8l-0.2,1.9l-0.2,1.9l-0.2,1.9l-0.2,1.9l-0.2,1.9l-0.2,2l-0.2,2l-0.2,2
			l-0.2,2l-0.2,2.1l-0.1,2.1l-0.1,2.1l-0.1,2.1l-0.1,2.2l-0.1,2.2l-0.1,2.3l-0.1,2.3l-0.1,2.3l-0.1,2.4l-0.1,2.4l0,2.5v2.5v2.5
			l-0.1,2.6l-0.1,2.6l-0.3,2.5l-0.5,2.3l-0.8,2l-1.1,1.7l-1.4,1.4l-1.6,1.2l-1.6,1.1l-1.7,1.1l-1.7,1l-1.7,1l-1.7,1l-1.7,1l-1.7,1
			l-1.7,1l-1.7,1l-1.7,1l-1.7,1l-1.7,1l-1.7,1l-1.7,1l-1.7,1l-1.7,1l-1.7,1l-1.7,1l-1.7,1l-1.7,1l-1.7,1l-1.7,1l-1.7,1l-1.7,1
			l-1.7,1l-1.7,1l-1.7,1l-1.7,1l-1.7,1l-1.7,1l-1.7,1l-1.7,1l-1.7,1L323,422l-1.7,1l-1.7,1l-1.7,1l-1.7,1l-1.7,1l-1.7,1l-1.7,1
			l-1.7,1l-1.7,1l-1.7,1l-1.7,1l-1.7,1l-1.7,1l-1.8,1l-1.8,1l-1.8,0.9l-1.8,0.9l-1.8,0.9l-1.8,0.7l-1.9,0.5l-2,0.1l-2.1-0.3
			l-2.2-0.7l-2.3-1l-2.3-1.2l-2.3-1.8l-2.2-1.2l-2.2-1.2l-2.2-1.2l-2.1-1.1L264,430l-2-1.1l-2-1.1l-2-1l-2-1l-2-1l-1.9-1l-1.9-0.9
			l-1.9-0.9l-1.9-0.9l-1.8-0.9l-1.8-0.9l-1.8-0.8l-1.8-0.8l-1.8-0.8l-1.8-0.8l-1.7-0.8l-1.7-0.8l-1.7-0.8l-1.7-0.8l-1.7-0.8
			l-1.7-0.8l-1.6-0.7l-1.6-0.7l-1.6-0.7l-1.6-0.7l-1.6-0.7l-1.6-0.7l-1.6-0.7l-1.6-0.7l-1.6-0.7l-1.6-0.7l-1.5-0.7l-1.5-0.7
			l-1.5-0.7l-1.5-0.7L202,401l-1.5-0.7l-1.5-0.7l-1.5-0.7l-1.5-0.7l-1.5-0.7l-1.5-0.7l-1.4-0.7l-1.4-0.7l-1.4-0.7l-1.4-0.7l-1.4-0.7
			l-1.4-0.7l-1.4-0.7l-1.4-0.7l-1.4-0.7l-1.4-0.7l-1.4-0.7l-1.4-0.7l-1.4-0.7l-1.4-0.7L172,387l-1.4-0.7l-1.4-0.7l-1.4-0.7l-1.4-0.7
			l-1.4-0.7l-1.4-0.7l-1.3-0.7l-1.3-0.7l-1.3-0.7l-1.3-0.7l-1.3-0.7l-1.3-0.7l-1.3-0.7l-1.3-0.7l-1.3-0.7l-1.3-0.7l-1.3-0.7
			l-1.3-0.7l-1.3-0.7l-1.3-0.7l-1.3-0.7l-1.3-0.7l-1.3-0.7l-1.3-0.7l-1.3-0.8l-1.3-0.8l-1.3-0.8L135,367l-1.3-0.8l-1.3-0.8l-1.3-0.8
			l-1.3-0.8l-1.3-0.8l-1.3-0.8l-1.3-0.8l-1.3-0.8l-1.3-0.8l-1.3-0.8l-1.3-0.8l-1.3-0.8l-1.3-0.8l-1.3-0.8l-1.3-0.8l-1.3-0.8
			l-1.3-0.8l-1.3-0.8l-1.3-0.8l-1.3-0.9l-1.3-0.9l-1.3-0.8l-1.3-0.9l-1.3-0.9l-1.3-0.9l-1.3-0.9l-1.3-0.9l-1.3-0.9l-1.3-0.9
			l-1.3-0.9l-1.3-0.9l-1.3-0.9l-1.3-0.9l-1.3-0.9l-1.3-0.9l-1.3-0.9l-1.3-0.9l-1.3-0.9l-1.3-1l-1.3-0.9l-1.3-1l-1.3-1l-1.3-1l-1.3-1
			l-1.3-1l-1.4-1l-1.4-1l-1.4-1l-1.4-1l-1.4-1l-1.4-1l-1.4-1l-1.4-1l-1.4-1l-1.5-1.1l-1.5-1.1l-1.5-1.1l-1.5-1.1l-1.5-1.1l-1.5-1.1
			l-1.5-1.1l-1.5-1.1l-1.6-1.1l-1.6-1.1l-1.6-1.1l-1.6-1.1l-1.7-1.1l-1.7-1.2l-1.7-1.2l-1.7-1.2l-1.8-1.2l-1.8-1.2l-1.8-1.2
			l-1.9-1.2l-1.9-1.2l-2-1.2l-2-1.2l-2-1.3l-2.1-1.3l-2.1-1.2l-2.2-1.3l-2.2-1.3l-2.2-1.4l-2.2-1.4l-2-1.5l-1.7-1.6l-1.3-1.7
			l-0.9-1.8l-0.5-1.9l-0.3-2l-0.2-2l-0.1-2l-0.1-2v-2v-2v-2v-2v-2v-2v-2v-2v-2v-2v-1.9v-1.9v-2v-1.9v-1.9v-1.9v-26.8v-2v-1.9v-1.9
			v-1.9v-2v-1.9v-2v-2v-2v-2v-2v-2v-2v-2v-2v-2l0.1-2l0.1-2l0.2-2l0.3-2l0.5-1.9l0.9-1.8l1.3-1.7l1.7-1.6l2-1.5l2.1-1.4l2.2-1.3
			l2.2-1.3l2.2-1.3l2.1-1.3l2.1-1.3l2-1.3l2-1.2l1.9-1.2l1.9-0.8l1.9-1.3l1.8-1.2l1.8-1.2l1.8-1.2l1.7-1.2l1.7-1.2l1.7-1.1l1.7-1.1
			l1.6-1.1l1.6-1.1l1.6-1.1l1.6-1.1l1.5-1.1l1.5-1.1l1.5-1.1l1.5-1.1l1.5-1.1l1.5-1.1l1.4-1.1l1.4-1.1l1.4-1l1.4-1l1.4-1l1.4-1
			l1.4-1l1.4-1l1.4-1l1.4-1l1.4-1l1.3-1l1.3-1l1.3-1l1.3-1l1.3-1l1.3-1l1.3-1l1.3-0.9l1.3-0.9l1.3-0.9l1.3-0.9l1.3-0.9l1.3-0.9
			l1.3-0.9l1.3-0.9l1.3-0.9l1.3-0.9l1.3-0.9l1.3-0.9l1.3-0.9l1.3-0.9l1.3-0.9L107,95l1.3-0.9l1.3-0.8l1.3-0.8l1.3-0.8l1.3-0.8
			l1.3-0.8l1.3-0.8l1.3-0.8l1.3-0.8l1.3-0.8L121,86l1.3-0.8l1.3-0.8l1.3-0.8l1.3-0.8l1.3-0.8l1.3-0.8l1.3-0.8l1.3-0.8l1.3-0.8
			l1.3-0.8l1.3-0.8l1.3-0.8l1.3-0.8l1.3-0.8l1.3-0.8l1.3-0.7l1.3-0.7l1.3-0.7l1.3-0.7l1.3-0.7L148,70l1.3-0.7l1.3-0.7l1.3-0.7
			l1.3-0.7l1.3-0.7l1.3-0.7l1.3-0.7l1.3-0.7l1.3-0.7l1.3-0.7l1.3-0.7l1.3-0.7l1.4-0.7l1.4-0.7l1.4-0.7l1.4-0.7l1.3-0.8l1.4-0.7
			l1.4-0.7l1.4-0.7l1.4-0.7l1.4-0.7l1.4-0.7l1.4-0.7l1.4-0.7l1.4-0.7l1.4-0.7l1.4-0.7l1.4-0.7l1.4-0.7l1.4-0.7l1.4-0.7l1.4-0.7
			l1.5-0.7L196,46l1.5-0.7l1.5-0.7l1.5-0.7l1.5-0.7l1.5-0.7L205,42l1.5-0.7l1.5-0.7l1.5-0.7l1.6-0.7l1.6-0.7l1.6-0.7l1.6-0.7
			l1.6-0.7l1.6-0.7l1.6-0.7l1.6-0.7l1.6-0.7l1.6-0.7l1.7-0.7l1.7-0.8l1.7-0.8l1.7-0.8l1.7-0.8l1.7-0.8l1.8-0.8l1.8-0.8l1.8-0.8
			l1.8-0.9l1.8-0.9l1.8-0.9l1.9-0.9l1.9-0.9l1.9-0.9l1.9-1l2-1l2-1l2-1l2-1.1l2.1-1.1l2.1-1.1l2.1-1.2l2.2-1.2l2.2-1.2l2.2-1.2
			l2.3-1.2l2.3-1.2l2.3-1l2.2-0.7L286,4l2,0.1l1.9,0.5l1.8,0.7l1.8,0.9l1.8,0.9l1.8,1l1.8,0.9l1.8,1l1.7,1l1.7,1l1.7,1l1.7,0.9
			l1.7,1l1.7,1l1.7,1l1.7,1l1.7,1l1.7,1l1.7,1l1.7,1l1.7,1l1.7,1l1.7,1l1.7,1l1.7,1l1.7,1l1.7,1l1.7,1l1.7,1l1.7,1l1.7,1l1.7,1
			l1.7,1l1.7,1l1.7,1l1.7,1l1.7,1l1.7,1l1.7,1l1.7,1l1.7,1l1.7,1l1.7,1l1.7,1l1.7,1l1.7,1l1.7,1l1.7,1l1.7,0l1.7,1l1.7,1l1.7,1
			l1.7,1.1l1.7,1.1l1.6,1.1l1.6,1.2l1.4,1.4l1.1,1.7l0.8,2l0.5,2.3l0.3,2.5l0.1,2.6l0.1,2.6v2.6v2.5l0,2.5l0.1,2.4l0.1,2.4l0.1,2.3
			l0.1,2.3l0.1,2.3l0.1,2.2l0.1,2.2l0.1,2.1l0.1,2.1l0.1,2.1l0.2,2.1l0.2,2l0.2,2l0.2,2l0.2,2l0.2,1.9l0.2,1.9l0.2,1.9l0.2,1.9
			l0.2,1.8l0.2,1.8l0.2,1.8l0.2,1.8l0.2,1.8l0.2,1.8l0.2,1.8l0.2,1.8l0.2,1.7l0.2,1.7l0.2,1.7l0.2,1.7l0.2,1.7l0.2,1.7l0.2,1.7
			l0.2,1.7l0.2,1.6l0.2,1.6l0.2,1.6l0.2,1.6l0.2,1.6l0.2,1.6l0.2,1.6l0.2,1.6l0.1,1.6l0.1,1.6l0.1,1.6l0.1,1.6l0.1,1.6l0.1,1.6
			l0.1,1.6l0.1,1.6l0.1,1.6l0.1,1.6l0.1,1.5l0.1,1.5l0.1,1.5l0.1,1.5l0.1,1.5l0.1,1.5l0.1,1.5l0.1,1.5l0.1,1.5l0.1,1.5l0.1,1.5
			l0.1,1.5l0.1,1.5l0.1,1.5l0.1,1.5l0.1,1.5l0.1,1.5l0,1.5v1.5v1.5v1.5v1.5v1.5v1.5v1.5v1.5v1.5v4.5"/>
		<path class="st0" d="M396.8,222.2v3v1.5v1.5v1.5v1.5v1.5v1.5v1.5v1.5v1.5l0,1.5l-0.1,1.5v1.5l-0.1,1.5l-0.1,1.5l-0.1,1.5l-0.1,1.5
			l-0.1,1.5l-0.1,1.5l-0.1,1.5l-0.1,1.5l-0.1,1.5l-0.1,1.5l-0.1,1.5l-0.1,1.5l-0.1,1.5l-0.1,1.5L395,266l-0.1,1.5l-0.1,1.5l-0.1,1.6
			l-0.1,1.6l-0.1,1.6l-0.1,1.6l-0.1,1.6l-0.1,1.6l-0.1,1.6l-0.1,1.6l-0.1,1.6l-0.2,1.6l-0.2,1.6l-0.2,1.6l-0.2,1.6l-0.2,1.6
			l-0.2,1.6l-0.2,1.6l-0.2,1.7L392,298l-0.2,1.7l-0.2,1.7l-0.2,1.7l-0.2,1.7l-0.2,1.7l-0.2,1.7l-0.2,1.8l-0.2,1.8l-0.2,1.8l-0.2,1.8
			l-0.2,1.8l-0.2,1.8l-0.2,1.8l-0.2,1.9l-0.2,1.9l-0.2,1.9l-0.2,1.9l-0.2,1.9l-0.2,1.9l-0.2,2l-0.2,2l-0.2,2l-0.2,2l-0.1,2.1
			l-0.1,2.1l-0.1,2.1l-0.1,2.1l-0.1,2.2l-0.1,2.2l-0.1,2.3l-0.1,2.3l-0.1,2.3l-0.1,2.4l-0.1,2.4v2.5v2.5l0,2.6l-0.1,2.6l-0.1,2.6
			l-0.3,2.5l-0.5,2.3l-0.8,2l-1.1,1.7l-1.4,1.4l-1.6,1.2l-1.7,1.2l-1.7,1.1l-1.7,1l-1.7,1l-1.7,1l-1.7,1l-1.7,1l-1.7,1l-1.7,1
			l-1.7,1L362,400l-1.7,1l-1.7,1l-1.7,1l-1.7,1l-1.7,1l-1.7,1l-1.7,1l-1.7,1l-1.7,1l-1.7,1l-1.7,1l-1.7,1l-1.7,1l-1.7,1l-1.7,1
			l-1.7,1l-1.7,1l-1.7,1l-1.7,1l-1.7,1l-1.7,1l-1.7,1l-1.7,1l-1.7,1l-1.7,1l-1.7,1l-1.7,1l-1.7,1l-1.7,1l-1.7,1l-1.7,1l-1.7,1
			l-1.7,1l-1.7,1l-1.7,1l-1.8,1l-1.8,1l-1.8,1l-1.8,1l-1.8,0.9l-1.8,0.9l-1.9,0.7l-1.9,0.5l-2,0.1l-2.1-0.3l-2.2-0.7l-2.3-1
			l-2.3-1.2l-2.4-2.3l-2.2-1.2l-2.2-1.2l-2.1-1.2l-2.1-1.2l-2.1-1.1l-2.1-1.1l-2-1.1l-2-1l-2-1l-2-1l-1.9-1l-1.9-0.9l-1.9-0.9
			l-1.9-0.9l-1.8-0.9l-1.8-0.9l-1.8-0.9l-1.8-0.8l-1.8-0.8l-1.8-0.8l-1.7-0.8l-1.7-0.8l-1.7-0.8l-1.7-0.8l-1.7-0.8l-1.7-0.8
			l-1.6-0.7l-1.6-0.7l-1.6-0.7l-1.6-0.7l-1.6-0.7l-1.6-0.7l-1.6-0.7l-1.6-0.7l-1.6-0.7l-1.6-0.7l-1.6-0.7l-1.5-0.7l-1.5-0.7
			l-1.5-0.7l-1.5-0.7l-1.5-0.7l-1.5-0.7l-1.5-0.7l-1.5-0.7l-1.5-0.7l-1.5-0.7l-1.4-0.7l-1.4-0.7l-1.4-0.7l-1.4-0.7l-1.4-0.7
			l-1.4-0.7l-1.4-0.7l-1.4-0.7l-1.4-0.7l-1.4-0.7l-1.4-0.7l-1.4-0.7l-1.4-0.7l-1.4-0.7l-1.4-0.7l-1.4-0.7l-1.4-0.7l-1.4-0.7
			l-1.4-0.7l-1.4-0.7l-1.4-0.7l-1.4-0.7L161,382l-1.3-0.7l-1.3-0.7l-1.3-0.7l-1.3-0.7l-1.3-0.7l-1.3-0.7l-1.3-0.7l-1.3-0.7l-1.3-0.7
			l-1.3-0.7l-1.3-0.7l-1.3-0.7l-1.3-0.7l-1.3-0.7l-1.3-0.7l-1.3-0.8l-1.3-0.8l-1.3-0.8l-1.3-0.8l-1.3-0.8l-1.3-0.8l-1.3-0.8
			l-1.3-0.8l-1.3-0.8l-1.3-0.8l-1.3-0.8l-1.3-0.8l-1.3-0.8l-1.3-0.8l-1.3-0.8l-1.3-0.8l-1.3-0.8l-1.3-0.8l-1.3-0.8l-1.3-0.8
			l-1.3-0.8l-1.3-0.8l-1.3-0.8l-1.3-0.8l-1.3-0.9l-1.3-0.9l-1.3-0.9l-1.3-0.9l-1.3-0.9l-1.3-0.9l-1.3-0.9l-1.3-0.9l-1.3-0.9
			l-1.3-0.9l-1.3-0.9l-1.3-0.9l-1.3-0.9l-1.3-0.9l-1.3-0.9l-1.3-0.9l-1.3-0.9l-1.3-0.9l-1.3-0.9l-1.3-1l-1.3-1l-1.3-1l-1.3-1l-1.3-1
			l-1.4-1l-1.3-1l-1.4-1l-1.4-1l-1.4-1l-1.4-1l-1.4-1l-1.4-1l-1.4-1l-1.4-1l-1.5-1l-1.5-1l-1.5-1.1l-1.5-1.1l-1.5-1.1l-1.5-1.1
			l-1.5-1.1l-1.5-1.1l-1.5-1.1l-1.6-1.1l-1.6-1.1l-1.6-1.1l-1.6-1.1l-1.7-1.1l-1.7-1.2l-1.7-1.2l-1.7-1.2l-1.7-1.2l-1.8-1.2
			l-1.8-1.2l-1.9-1.2l-1.9-1.2l-1.9-1.2l-2-1.3l-2-1.3l-2.1-1.3l-2.1-1.3l-2.2-1.3l-2.3-1.3l-2.2-1.4l-2.2-1.4l-2-1.5l-1.7-1.6
			l-1.3-1.7l-0.9-1.8l-0.5-1.9l-0.3-2l-0.2-2l-0.1-2l-0.1-2l0-2v-2v-2v-2v-2v-2v-2v-2v-2v-2v-2v-2v-2v-1.9v-2v-1.9v-27.2v-2v-1.9v-2
			v-2v-2v-2v-2v-2v-2v-2v-2v-2v-2v-2v-2l0-2l0.1-2l0.1-2l0.2-2l0.3-2l0.5-1.9l0.9-1.8l1.3-1.7l1.7-1.6l2-1.5l2.2-1.4l2.2-0.6
			l2.2-1.3l2.2-1.3l2.2-1.2l2.1-1.3l2-1.3l2-1.3l1.9-1.2l1.9-1.2l1.9-1.2l1.8-1.2l1.8-1.2l1.8-1.2l1.7-1.2l1.7-1.2l1.7-1.1l1.7-1.1
			l1.6-1.1l1.6-1.2l1.6-1.1l1.6-1.1l1.5-1.1l1.5-1.1l1.5-1.1l1.5-1.1l1.5-1.1l1.5-1.1l1.5-1.1l1.5-1l1.4-1l1.4-1l1.4-1l1.4-1l1.4-1
			l1.4-1l1.4-1l1.4-1l1.4-1l1.3-1l1.4-1l1.3-1l1.3-1l1.3-1l1.3-1l1.3-1l1.3-0.9l1.3-0.9l1.3-0.9l1.3-0.9l1.3-0.9l1.3-0.9l1.3-0.9
			l1.3-0.9l1.3-0.9L99,100l1.3-0.9l1.3-0.9l1.3-0.9l1.3-0.9l1.3-0.9l1.3-0.9l1.3-0.8l1.3-0.9l1.3-0.8l1.3-0.8l1.2-0.8l1.3-0.8
			l1.3-0.8l1.3-0.8l1.3-0.8l1.3-0.8l1.3-0.8l1.3-0.8l1.3-0.8l1.3-0.8l1.3-0.8l1.3-0.8l1.3-0.8l1.3-0.8l1.3-0.8l1.3-0.8l1.3-0.8
			l1.3-0.8l1.3-0.8l1.3-0.8l1.3-0.8l1.3-0.8l1.3-0.7l1.3-0.8l1.3-0.7l1.3-0.7l1.3-0.7l1.3-0.7l1.3-0.7l1.3-0.7l1.3-0.7l1.3-0.7
			l1.3-0.7l1.3-0.7l1.3-0.7l1.3-0.7l1.3-0.7l1.3-0.7l1.3-0.7l1.4-0.7l1.4-0.7l1.4-0.7l1.4-0.7l1.4-0.7l1.4-0.7l1.4-0.7l1.4-0.7
			l1.4-0.7l1.4-0.7l1.4-0.7l1.4-0.7l1.4-0.7l1.4-0.7l1.4-0.7l1.4-0.7l1.4-0.7l1.4-0.7l1.4-0.7l1.4-0.7l1.4-0.7l1.4-0.7l1.5-0.7
			l1.6-0.7l1.5-0.7l1.5-0.7l1.5-0.7l1.5-0.7l1.5-0.7l1.5-0.7l1.5-0.7l1.5-0.7l1.6-0.7l1.6-0.7l1.6-0.7l1.6-0.7l1.6-0.7l1.6-0.7
			l1.6-0.7l1.6-0.7l1.6-0.7l1.6-0.7l1.6-0.7l1.7-0.8l1.7-0.8l1.7-0.8l1.7-0.8l1.7-0.8l1.7-0.8l1.8-0.8l1.8-0.8l1.8-0.8l1.8-0.9
			l1.8-0.9l1.8-0.9l1.9-0.9l1.9-0.9l1.9-0.9l1.9-1l2-1l2-1l2-1l2-1.1l2.1-1.1l2.1-1.1l2.1-1.2l2.2-1.2l2.2-1.2l2.2-1.3l2.3-1.2
			l2.3-1.2l2.3-1l2.2-0.7l2.1-0.3l2,0.2l1.9,0.5l1.9,0.8l1.8,0.9l1.8,0.9l1.8,1l1.8,1l1.8,1l1.8,1l1.7,1l1.7,1l1.7,1l1.7,1l1.7,1
			l1.7,1l1.7,1l1.7,1l1.7,1l1.7,1l1.7,1l1.7,1l1.7,1l1.7,1l1.7,1l1.7,1l1.7,1l1.7,1l1.7,1l1.7,1l1.7,1l1.7,1l1.7,1l1.7,1l1.7,1
			l1.7,1l1.7,1l1.7,1l1.7,1l1.7,1l1.7,1l1.7,1l1.7,1l1.7,1l1.7,1l1.7,1l1.7,1l1.7,1l1.7,1l1.7,1l1.7,1l1.7,1l1.7,1l1.7,1.1l1.8,0.2
			l1.7,1.1l1.6,1.2l1.4,1.4l1.1,1.7l0.8,2l0.5,2.3l0.3,2.5l0.1,2.6l0.1,2.6l0,2.6v2.5v2.5l0.1,2.4l0.1,2.4l0.1,2.3l0.1,2.3l0.1,2.3
			l0.1,2.2l0.1,2.2l0.1,2.2l0.1,2.1l0.1,2.1l0.1,2.1l0.2,2l0.2,2l0.2,2l0.2,2l0.2,1.9l0.2,1.9l0.2,1.9l0.2,1.9l0.2,1.9l0.2,1.8
			l0.2,1.8l0.2,1.8l0.2,1.8l0.2,1.8l0.2,1.8l0.2,1.8l0.2,1.8l0.2,1.7l0.2,1.7l0.2,1.7l0.2,1.7l0.2,1.7l0.2,1.7l0.2,1.7l0.2,1.7
			l0.2,1.6l0.2,1.6l0.2,1.6l0.2,1.6l0.2,1.6l0.2,1.6l0.2,1.6l0.1,1.6l0.1,1.6l0.1,1.6l0.1,1.6l0.1,1.6l0.1,1.6l0.1,1.6l0.1,1.6
			l0.1,1.6l0.1,1.6l0.1,1.6l0.1,1.5l0.1,1.5l0.1,1.5l0.1,1.5l0.1,1.5l0.1,1.5l0.1,1.5l0.1,1.5l0.1,1.5l0.1,1.5l0.1,1.5l0.1,1.5
			l0.1,1.5l0.1,1.5l0.1,1.5v1.5l0.1,1.5l0,1.5v1.5v1.5v1.5v1.5v1.5v1.5v1.5v1.5v1.5v3"/>
		<path class="st0" d="M397.3,222.2v6v1.5v1.5v1.5v1.5v1.5v1.5l0,1.5l0,1.5l0,1.5l-0.1,1.5l-0.1,1.5l-0.1,1.5l-0.1,1.5l-0.1,1.5
			l-0.1,1.5l-0.1,1.5l-0.1,1.5l-0.1,1.5l-0.1,1.5l-0.1,1.5l-0.1,1.5l-0.1,1.5l-0.1,1.5l-0.1,1.5l-0.1,1.5l-0.1,1.6l-0.1,1.6
			l-0.1,1.6l-0.1,1.6l-0.1,1.6l-0.1,1.6l-0.1,1.6l-0.1,1.6l-0.1,1.6l-0.1,1.6l-0.1,1.6l-0.1,1.6l-0.2,1.6l-0.2,1.6l-0.2,1.6
			l-0.2,1.6l-0.4,1.6l-0.2,1.7l-0.2,1.7l-0.2,1.7l-0.2,1.7l-0.2,1.7l-0.2,1.7l-0.2,1.7l-0.2,1.7l-0.2,1.7l-0.2,1.8l-0.2,1.8
			l-0.2,1.8l-0.2,1.8l-0.2,1.8l-0.2,1.8l-0.2,1.8l-0.2,1.9l-0.2,1.9l-0.2,1.9l-0.2,1.9l-0.2,1.9l-0.2,2l-0.2,2l-0.2,2l-0.2,2l-0.2,2
			l-0.1,2.1l-0.1,2.1l-0.1,2.1l-0.1,2.2l-0.1,2.2l-0.1,2.2l-0.1,2.3l-0.1,2.3l-0.1,2.4l-0.1,2.4l-0.1,2.5v2.5v2.5l0,2.6l-0.1,2.6
			l-0.1,2.6l-0.3,2.5l-0.5,2.3l-0.8,2l-1.1,1.7l-1.4,1.4l-1.6,1.1l-1.7,1.1l-1.7,1.1l-1.7,1.1l-1.7,1l-1.7,1l-1.7,1l-1.7,1l-1.7,1
			l-1.7,1l-1.7,1l-1.7,1l-1.7,1l-1.7,1l-1.7,1l-1.7,1l-1.7,1l-1.7,1l-1.7,1l-1.7,1l-1.7,1l-1.7,1l-1.7,1l-1.7,1l-1.7,1l-1.7,1
			l-1.7,1l-1.7,1l-1.7,1l-1.7,1l-1.7,1l-1.7,1l-1.7,1l-1.7,1l-1.7,1l-1.7,1l-1.7,1l-1.7,1l-1.7,1L315,428l-1.7,1l-1.7,1l-1.7,1
			l-1.7,1l-1.7,1l-1.7,1l-1.7,1l-1.8,1l-1.8,1l-1.8,1l-1.8,1l-1.8,0.9l-1.8,0.9l-1.9,0.8l-1.9,0.5l-2,0.2l-2.1-0.3l-2.2-0.7l-2.3-1
			l-2.3-1.2l-2.3-1.2l-2.2-1.7l-2.2-1.2l-2.2-1.2l-2.1-1.2l-2.1-1.1l-2.1-1.1l-2-1.1l-2-1l-2-1l-2-1l-1.9-1l-1.9-1l-1.9-0.9
			l-1.9-0.9l-1.9-0.9l-1.8-0.9l-1.8-0.9l-1.8-0.8l-1.8-0.8l-1.8-0.8l-1.7-0.8l-1.7-0.8l-1.7-0.8l-1.7-0.8l-1.7-0.8l-1.7-0.8
			l-1.7-0.8l-1.6-0.7l-1.6-0.7l-1.6-0.7l-1.6-0.7l-1.6-0.7l-1.6-0.7l-1.6-0.7l-1.6-0.7l-1.6-0.7l-1.6-0.7l-1.5-0.7l-1.5-0.7
			l-1.5-0.7l-1.5-0.7l-1.5-0.7l-1.5-0.7l-1.5-0.7l-1.5-0.7l-1.5-0.7l-1.5-0.7l-1.5-0.7l-1.4-0.7l-1.4-0.7l-1.4-0.7l-1.4-0.7
			l-1.4-0.7l-1.4-0.7l-1.4-0.7l-1.4-0.7l-1.4-0.7l-1.4-0.7l-1.4-0.7l-1.4-0.7l-1.4-0.7l-1.4-0.7l-1.4-0.7l-1.4-0.7l-1.4-0.7
			l-1.4-0.7l-1.4-0.7l-1.4-0.7l-1.4-0.7l-1.4-0.7l-1.3-0.7l-1.3-0.7l-1.3-0.7l-1.3-0.7l-1.3-0.7l-1.3-0.7l-1.3-0.7l-1.3-0.7
			l-1.3-0.7l-1.3-0.7l-1.3-0.7l-1.3-0.7l-1.3-0.7l-1.3-0.7l-1.3-0.7l-1.3-0.8l-1.3-0.8l-1.3-0.8l-1.3-0.8l-1.3-0.8l-1.3-0.8
			l-1.3-0.8l-1.3-0.8l-1.3-0.8l-1.3-0.8l-1.3-0.8l-1.3-0.8l-1.3-0.8l-1.3-0.8l-1.3-0.8l-1.3-0.8l-1.3-0.8l-1.3-0.8l-1.3-0.8
			l-1.3-0.8l-1.3-0.8l-1.3-0.8l-1.3-0.8l-1.3-0.9l-1.3-0.9l-1.3-0.9l-1.3-0.9l-1.3-0.9l-1.3-0.9l-1.3-0.9l-1.3-0.9l-1.3-0.9
			l-1.3-0.9l-1.3-0.9L96,343l-1.3-0.9l-1.3-0.9l-1.3-0.9l-1.3-0.9l-1.3-0.9l-1.3-0.9l-1.3-0.9l-1.3-0.9l-1.3-1l-1.3-1l-1.3-1l-1.3-1
			l-1.3-1l-1.4-1l-1.4-1l-1.4-1l-1.4-1l-1.4-1l-1.4-1l-1.4-1l-1.4-1l-1.4-1l-1.4-1l-1.4-1l-1.5-1l-1.5-1.1l-1.5-1.1l-1.5-1.1
			l-1.5-1.1l-1.5-1.1L53,312l-1.6-1.1l-1.6-1.1l-1.6-1.1l-1.6-1.1l-1.6-1.1l-1.7-1.1l-1.7-1.2l-1.7-1.2l-1.7-1.2l-1.8-1.2l-1.8-1.2
			l-1.8-1.2l-1.9-1.2l-1.9-1.2l-2-1.2l-2-1.3l-2-1.3l-2.1-1.3l-2.1-1.3l-2.2-1.3l-2.2-1.3l-2.2-1.4L9.9,284l-2-1.5L6.2,281l-1.3-1.7
			L4,277.4l-0.5-1.9l-0.3-2l-0.2-2l-0.1-2l-0.1-2v-2v-2v-2v-2v-2v-2v-2v-2v-2v-2v-2v-2v-2v-2v-2v-30.9v-2v-2v-2v-2v-2v-2v-2v-2v-2
			v-2v-2v-2v-2v-2v-2l0.1-2l0.1-2l0.2-2l0.3-2L4,167l0.9-1.8l1.3-1.7l1.7-1.6l2-1.5l2.2-1.4l2.2-1.4l2.2-1.3l2.2-1.3l2.1-1.3
			l2.1-1.3l2-1.3l2-1.3l2-1.2l1.9-1.2l1.9-1.2l1.8-1.2l1.8-1.2l1.8-1.2l1.7-1.2l1.7-1.2l1.7-1.2L45,138l1.7-1.1l1.6-1.1l1.6-1.1
			l1.6-1.1l1.5-1.1l1.5-1.1l1.5-1.1l1.5-1.1l1.5-1.1l1.5-1l1.4-1.1l1.5-1.1l1.4-1l1.4-1l1.4-1l1.4-1l1.4-1l1.4-1l1.4-1l1.4-1l1.4-1
			l1.4-1l1.4-1l1.3-1l1.3-1l1.3-1l1.3-1l1.3-1l1.3-1l1.3-0.9l1.3-0.9l1.3-0.9l1.3-0.9l1.3-0.9l1.3-0.9l1.3-0.9l1.3-0.9l1.3-0.9
			l1.3-0.9l1.3-0.9l1.3-0.9l1.3-0.9l1.3-0.9l1.3-0.9l1.3-0.9l1.3-0.9l1.3-0.8l1.3-0.8l1.3-0.8l1.3-0.8l1.3-0.8l1.3-0.8l1.3-0.8
			l1.3-0.7l1.3-0.8l1.3-0.8l1.3-0.8l1.3-0.8l1.3-0.8l1.3-0.8l1.3-0.8l1.3-0.8l1.3-0.8l1.3-0.8l1.3-0.8l1.3-0.8l1.3-0.8l1.3-0.8
			l1.3-0.8l1.3-0.8l1.3-0.8l1.3-0.7l1.3-0.7l1.3-0.7l1.3-0.7l1.3-0.7l1.3-0.7l1.3-0.7l1.3-0.7l1.3-0.7l1.3-0.7l1.3-0.7l1.3-0.7
			l1.3-0.7l1.3-0.7l1.3-0.7l1.4-0.7l1.4-0.7l1.4-0.7l1.4-0.7l1.4-0.7l1.4-0.7l1.4-0.7l1.4-0.7l1.4-0.7l1.4-0.7l1.4-0.7l1.4-0.7
			l1.4-0.7l1.4-0.7l1.4-0.7l1.4-0.7l1.4-0.7l1.4-0.7l1.4-0.7l1.4-0.7l1.4-0.7l1.4-0.7l1.5-0.7l1.5-0.7l1.5-0.7l1.5-0.7l1.5-0.7
			l1.5-0.7l1.5-0.7l1.5-0.7l1.5-0.7l1.5-0.7l1.5-0.7l1.6-0.7l1.6-0.7l1.6-0.7l1.6-0.7l1.6-0.7l1.6-0.7l1.6-0.7l1.6-0.7l1.6-0.7
			l1.6-0.7l1.7-0.7l1.7-0.8l1.7-0.8l1.7-0.8l1.7-0.8l1.7-0.8l1.7-0.8l1.8-0.8l1.8-0.8l1.8-0.8l1.8-0.9l1.8-0.9l1.9-0.9l1.9-0.9
			l1.9-0.9l1.9-1l1.9-1l2-1l2-1l2-1l2-1.1l2.1-1.2l2.1-1.1l2.1-1.2l2.2-1.2l2.3-1.2l2.2-1.3l2.3-1.2l2.3-1.2l2.3-1l2.2-0.7l2.1-0.3
			l2,0.2l1.9,0.5l1.9,0.8l1.8,0.9l1.8,0.9l1.8,1l1.8,1l1.8,1l1.8,1l1.7,1l1.7,1l1.7,1l1.7,1l1.7,1l1.7,1l1.7,1l1.7,1l1.7,1l1.7,1
			l1.7,1l1.7,1l1.7,1l1.7,1l1.7,1l1.7,1l1.7,1l1.7,1l1.7,1l1.7,1l1.7,1l1.7,1l1.7,1l1.7,1l1.7,1l1.7,1l1.7,1l1.7,1l1.7,1l1.7,1
			l1.7,1l1.7,1l1.7,1l1.7,1l1.7,1l1.7,1l1.7,1l1.7,1l1.7,1l1.7,1l1.7,1l1.7,1l1.7,0.2l1.7,1.1l1.7,1.1l1.7,1.1l1.6,1.2l1.5,1.4
			l1.1,1.7l0.8,2l0.5,2.3l0.3,2.5L387,69l0.1,2.6l0,2.6v2.5v2.5l0.1,2.4l0.1,2.4l0.1,2.3l0.1,2.3l0.1,2.3l0.1,2.2l0.1,2.2l0.1,2.2
			l0.1,2.1l0.1,2.1l0.1,2.1l0.2,2l0.2,2l0.2,2l0.2,2l0.2,2l0.2,1.9l0.2,1.9l0.2,1.9l0.2,1.9l0.2,1.9l0.2,1.8l0.2,1.8l0.2,1.8
			l0.2,1.8l0.2,1.8l0.2,1.8l0.2,1.8l0.2,1.7l0.2,1.7l0.3,1.7l0.2,1.7l0.2,1.7l0.2,1.7l0.2,1.7l0.2,1.7l0.2,1.7l0.2,1.6l0.2,1.6
			l0.2,1.6l0.2,1.6l0.2,1.6l0.1,1.6l0.1,1.6l0.1,1.6l0.1,1.6l0.1,1.6l0.1,1.6l0.1,1.6l0.1,1.6l0.1,1.6l0.1,1.6l0.1,1.6l0.1,1.6
			l0.1,1.6l0.1,1.6l0.1,1.5l0.1,1.5l0.1,1.6l0.1,1.5l0.1,1.5l0.1,1.5l0.1,1.5l0.1,1.5l0.1,1.5l0.1,1.5l0.1,1.5l0.1,1.5l0.1,1.5
			l0.1,1.5l0,1.5l0,1.5l0,1.5v1.5v1.5v1.5v1.5v1.5v1.5v6"/>
		<path class="st0" d="M397.7,222.2v4.5v1.5v1.5v1.5v1.5v1.5v1.5v1.5v1.5l0,1.5l0,1.5l-0.1,1.5l-0.1,1.5l-0.1,1.5l-0.1,1.5l-0.1,1.5
			l-0.3,1.5l-0.1,1.5l-0.1,1.5l-0.1,1.5l-0.1,1.5l-0.1,1.5l-0.1,1.5l-0.1,1.5l-0.1,1.5l-0.1,1.5l-0.1,1.5l-0.1,1.6l-0.1,1.6
			l-0.1,1.6l-0.1,1.6l-0.1,1.6l-0.1,1.6l-0.1,1.6l-0.1,1.6l-0.1,1.6l-0.1,1.6l-0.1,1.6l-0.2,1.6l-0.2,1.6l-0.2,1.6l-0.2,1.6
			l-0.2,1.6l-0.2,1.6l-0.2,1.7l-0.2,1.7l-0.2,1.7l-0.2,1.7l-0.2,1.7l-0.2,1.7l-0.2,1.7l-0.2,1.7l-0.2,1.8l-0.2,1.8l-0.2,1.8
			l-0.2,1.8l-0.2,1.8l-0.2,1.8l-0.2,1.8l-0.2,1.8l-0.2,1.9l-0.2,1.9l-0.2,1.9l-0.2,1.9l-0.2,1.9l-0.2,2l-0.2,2l-0.2,2l-0.2,2
			l-0.1,2.1l-0.1,2.1l-0.1,2.1l-0.1,2.1l-0.1,2.2l-0.1,2.2l-0.1,2.2l-0.1,2.3l-0.1,2.3l-0.1,2.4l-0.1,2.4l-0.1,2.5v2.5v2.5v2.6
			l-0.1,2.6l-0.1,2.6l-0.3,2.5l-0.5,2.3l-0.8,2l-1.2,1.7l-1.4,1.4l-1.6,1.2l-1.7,1.1l-1.7,1.1l-1.7,1.1l-1.7,1l-1.9,1l-1.7,1l-1.7,1
			l-1.7,1l-1.7,1l-1.7,1l-1.7,1l-1.7,1l-1.7,1l-1.7,1l-1.7,1l-1.7,1l-1.7,1l-1.7,1l-1.7,1l-1.7,1l-1.7,1l-1.7,1l-1.7,1l-1.7,1
			l-1.7,1l-1.7,1l-1.7,1l-1.7,1l-1.7,1l-1.7,1l-1.7,1l-1.7,1l-1.7,1l-1.7,1l-1.7,1l-1.7,1l-1.7,1l-1.7,1l-1.7,1l-1.7,1l-1.7,1
			l-1.7,1l-1.7,1l-1.7,1l-1.7,1l-1.8,1l-1.8,1l-1.8,1l-1.8,1l-1.8,1l-1.8,0.9l-1.8,0.9l-1.9,0.8l-1.9,0.5l-2,0.2l-2.1-0.3l-2.2-0.7
			l-2.3-1l-2.3-1.2l-2.3-1.2l-2.3-1.3l-2.2-1.2l-2.2-1.2l-2.1-1.2l-2.1-1.1l-2.1-1.8l-2.1-1.1l-2-1l-2-1l-2-1l-1.9-1l-1.9-1
			l-1.9-0.9l-1.9-0.9l-1.9-0.9l-1.8-0.9l-1.8-0.9l-1.8-0.9l-1.8-0.8l-1.8-0.8l-1.8-0.8l-1.7-0.8l-1.7-0.8l-1.7-0.8l-1.7-0.8
			l-1.7-0.8l-1.7-0.8l-1.6-0.7l-1.6-0.7l-1.6-0.7l-1.6-0.7l-1.6-0.7l-1.6-0.7l-1.6-0.7l-1.6-0.7l-1.6-0.7l-1.6-0.7l-1.5-0.7
			l-1.5-0.7l-1.5-0.7l-1.5-0.7l-1.5-0.7l-1.5-0.7l-1.5-0.7l-1.5-0.7l-1.5-0.7l-1.5-0.7l-1.5-0.7l-1.5-0.7l-1.4-0.7l-1.4-0.7
			l-1.4-0.7l-1.4-0.7l-1.4-0.7l-1.4-0.7l-1.4-0.7l-1.4-0.7l-1.4-0.7l-1.4-0.7l-1.4-0.7l-1.4-0.7l-1.4-0.7l-1.4-0.7l-1.4-0.7
			l-1.4-0.7l-1.4-0.7l-1.4-0.7l-1.4-0.7l-1.4-0.7l-1.4-0.7l-1.4-0.7l-1.3-0.7l-1.3-0.7l-1.3-0.7l-1.3-0.7l-1.3-0.7l-1.3-0.7
			l-1.3-0.7l-1.3-0.7l-1.3-0.7L146,375l-1.3-0.7l-1.3-0.7l-1.3-0.7l-1.3-0.7l-1.3-0.8l-1.3-0.8l-1.3-0.8l-1.3-0.8l-1.3-0.8l-1.3-0.8
			l-1.3-0.8l-1.3-0.8l-1.3-0.8l-1.3-0.8l-1.3-0.8l-1.3-0.8l-1.3-0.8l-1.3-0.8l-1.3-0.8l-1.3-0.8l-1.3-0.8l-1.3-0.8l-1.3-0.8
			l-1.3-0.8l-1.3-0.8l-1.3-0.8l-1.3-0.8l-1.3-0.9l-1.3-0.9l-1.3-0.9l-1.3-0.8l-1.3-0.9l-1.3-0.9l-1.3-0.9l-1.3-0.9l-1.3-0.9
			l-1.3-0.9l-1.3-0.9l-1.3-0.9l-1.3-0.9l-1.3-0.9l-1.3-0.9l-1.3-0.9l-1.3-0.9l-1.3-0.9l-1.3-0.9l-1.3-1l-1.3-1l-1.3-1l-1.3-1l-1.3-1
			l-1.3-1l-1.4-1l-1.4-1l-1.4-1l-1.4-1l-1.4-1l-1.4-1l-1.4-1l-1.4-1l-1.4-1l-1.4-1l-1.4-1l-1.5-1.1l-1.5-1.1l-1.5-1.1l-1.5-1.1
			l-1.5-1.1l-1.5-1.1l-1.6-1.1l-1.6-1.1l-1.6-1.1l-1.6-1.1l-1.6-1.1l-1.7-1.1l-1.7-1.2l-1.7-1.2l-1.7-1.2l-1.7-1.2l-1.8-1.2
			l-1.8-1.2l-1.8-1.2l-1.9-1.2l-1.9-1.2l-2-1.2l-2-1.3l-2-1.3l-2.1-1.3l-2.2-1.3l-2.2-1.3l-2.2-1.3l-2.2-1.4l-2.2-1.4l-2-1.5
			l-1.7-1.6l-1.3-1.7l-0.8-1.9l-0.5-1.9l-0.3-2l-0.1-2l-0.1-2l-0.1-2v-2v-2v-2v-2v-2v-2v-2v-2v-2v-2v-2v-2v-2v-2v-2v-2v-2v-23.2
			v-1.9v-2v-2v-2v-2v-2v-2v-2v-2v-2v-2v-2v-2v-2v-2v-2v-2l0.1-2l0.1-2l0.1-2l0.3-2l0.5-1.9l0.8-1.6l1.3-1.7l1.7-1.6l2-1.5l2.2-1.4
			l2.2-1.4l2.2-1.3l2.2-1.4l2.1-1.3l2.1-1.3l2-1.3l2-1.3l2-1.2l1.9-1.2l1.9-1.2l1.8-1.2l1.8-1.2l1.8-1.2l1.8-1.2l1.7-1.2l1.7-1.2
			l1.7-1.1l1.7-1.1l1.6-1.1l1.6-1.1l1.6-1.1l1.6-1.1L54,131l1.5-1.1l1.5-1.1l1.5-1.1l1.5-1.1l1.5-1.1l1.5-1l1.4-1l1.4-1l1.4-1l1.4-1
			l1.4-1l1.4-1l1.4-1l1.4-1l1.4-1l1.4-1l1.4-1l1.3-1l1.3-1l1.3-1l1.3-1l1.3-1l1.3-0.9l1.3-1l1.3-0.9l1.3-0.9l1.3-0.9l1.3-0.9
			l1.3-0.9l1.3-0.9l1.3-0.9l1.3-0.9l1.3-0.9l1.3-0.9l1.3-0.9l1.3-0.9l1.3-0.9L106,94l1.3-0.9l1.3-0.9l1.3-0.8l1.3-0.8l1.3-0.8
			l1.3-0.8l1.3-0.8l1.3-0.8l1.3-0.8l1.3-0.8l1.3-0.8l1.3-0.8l1.3-0.8l1.3-0.8l1.3-0.8l1.3-0.8l1.3-0.8l1.3-0.8l1.3-0.8l1.3-0.8
			l1.3-0.8l1.3-0.8l1.3-0.8l1.3-0.8l1.3-0.8l1.3-0.8l1.3-0.8l1.3-0.8l1.3-0.7l1.3-0.7l1.3-0.7l1.3-0.7l1.3-0.7l1.3-0.7l1.3-0.7
			l1.3-0.7l1.3-0.7l1.3-0.7l1.3-0.7l1.3-0.7l1.3-0.7l1.4-0.7l1.4-0.7l1.4-0.7l1.4-0.7l1.4-0.7l1.4-0.7l1.4-0.7l1.4-0.7l1.4-0.7
			l1.4-0.7l1.4-0.7l1.4-0.7l1.4-0.7l1.4-0.7l1.4-0.7l1.4-0.7l1.4-0.7l1.4-0.7l1.4-0.7l1.4-0.7l1.4-0.7l1.4-0.7l1.5-0.7l1.5-0.7
			l1.5-0.7l1.5-0.7l1.5-0.7l1.5-0.7l1.5-0.7l1.5-0.7l1.5-0.7l1.5-0.7l1.5-0.7l1.5-0.7l1.6-0.7l1.6-0.7l1.6-0.7l1.6-0.7l1.6-0.7
			l1.6-0.7l1.6-0.7l1.6-0.7l1.6-0.7l1.6-0.7l1.7-0.8l1.7-0.8l1.7-0.8l1.7-0.8l1.7-0.8l1.7-0.8l1.8-0.8l1.8-0.8l1.8-0.8l1.8-0.8
			l1.8-0.9l1.8-0.9l1.9-0.9l1.9-0.9l1.9-0.9l1.9-1l1.9-1l2-1l2-1l2-1.1l2.1-1.1l2.1-1.1l2.1-1.1l2.2-1.1l2.2-1.2l2.2-1.2l2.3-1.3
			l2.3-1.3l2.3-1.1l2.3-1l2.2-0.7l2.1-0.3l2,0.2l1.9,0.5l1.9,0.8l1.8,0.9l1.8,0.9l1.8,1l1.8,1l1.8,1l1.8,1l1.8,1l1.7,1l1.7,1l1.7,1
			l1.7,1l1.7,1l1.7,1l1.7,1l1.7,1l1.7,1l1.7,1l1.7,1l1.7,1l1.7,1l1.7,1l1.7,1l1.7,1l1.7,1l1.7,1l1.7,1l1.7,1l1.7,1l1.7,1l1.7,1
			l1.7,1l1.7,1l1.7,1l1.7,1l1.7,1l1.7,1l1.7,1l1.7,1l1.7,1l1.7,1l1.7,1l1.7,1l1.7,1l1.7,1l1.7,1l1.7,1l1.7,1l1.7,1l1.7,1l1.7,1.1
			l1.7,1.1l1.7,1.1l1.6,1.2l1.4,1.4l1.2,1.7l0.8,2l0.5,2.3l0.3,2.5l0.1,2.6l0.1,2.6v2.6v2.6v2.5l0.1,2.4l0.1,2.4l0.1,2.4l0.1,2.3
			l0.1,2.3l0.1,2.2l0.1,2.2l0.1,2.2l0.1,2.2l0.1,2.1l0.1,2.1l0.1,2l0.2,2l0.2,2l0.2,2l0.2,2l0.2,1.9l0.2,1.9l0.2,1.9l0.2,1.9
			l0.2,1.9l0.2,1.8l0.2,1.8l0.2,1.8l0.2,1.8l0.2,1.8l0.2,1.8l0.2,1.8l0.2,1.7l0.2,1.7l0.2,1.7l0.2,1.7l0.2,1.7l0.2,1.7l0.2,1.7
			l0.2,1.7l0.2,1.7l0.2,1.6l0.2,1.6l0.2,1.6l0.2,1.6l0.2,1.6l0.2,1.6l0.1,1.6l0.1,1.6l0.1,1.6l0.1,1.6l0.1,1.6l0.1,1.6l0.1,1.6
			l0.1,1.6l0.1,1.6l0.1,1.6l0.1,1.6l0.1,1.6l0.1,1.6l0.1,1.5l0.1,1.6l0.1,1.5l0.1,1.5l0.1,1.5l0.1,1.5l0.1,1.5l0.1,1.5l0.1,1.5
			l0.1,1.5l0.1,1.5l0.1,1.5l0.1,1.5l0.1,1.5l0,1.5l0,1.5v1.5v1.5v1.5v1.5v1.5v1.5v1.5v1.5v4.5"/>
		<path class="st0" d="M398.2,222.2v4.5v1.5v1.5v1.5v1.5v1.5v1.5v1.5v1.5l0,1.5l0,1.5l-0.1,1.5l-0.1,1.5l-0.1,1.5l-0.1,1.5l-0.1,1.5
			l-0.1,1.5l-0.1,1.5l-0.3,1.5l-0.1,1.5l-0.1,1.5l-0.1,1.5l-0.1,1.5l-0.1,1.5l-0.1,1.5l-0.1,1.6l-0.1,1.6l-0.1,1.6l-0.1,1.6
			l-0.1,1.6l-0.1,1.6l-0.1,1.6l-0.1,1.6l-0.1,1.6l-0.1,1.6l-0.1,1.6l-0.1,1.6l-0.1,1.6l-0.1,1.6l-0.2,1.6l-0.2,1.6l-0.2,1.6
			l-0.2,1.7l-0.2,1.6l-0.2,1.7l-0.2,1.7l-0.2,1.7l-0.2,1.7l-0.2,1.7l-0.2,1.7l-0.2,1.7l-0.2,1.7l-0.2,1.8l-0.2,1.8l-0.2,1.8
			l-0.2,1.8l-0.2,1.8l-0.2,1.8l-0.2,1.8l-0.2,1.9l-0.2,1.9l-0.2,1.9l-0.2,1.9l-0.2,1.9l-0.2,2l-0.2,2l-0.2,2l-0.2,2l-0.2,2l-0.1,2.1
			l-0.1,2.1l-0.1,2.1l-0.1,2.1l-0.1,2.2l-0.1,2.2l-0.1,2.3l-0.1,2.3l-0.1,2.3l-0.1,2.4l-0.1,2.4l0,2.5v2.5v2.6v2.6l-0.1,2.6
			l-0.1,2.6l-0.3,2.5l-0.5,2.3l-0.9,2l-1.2,1.6l-1.5,1.4L382,390l-1.7,1.1l-1.7,1.1l-1.7,1.1l-1.7,1l-1.7,1l-1.7,1l-1.7,1l-1.7,1
			l-1.7,1l-1.7,1l-1.7,1l-1.7,1l-1.7,1l-1.7,1l-1.7,1l-1.7,1l-1.7,1l-1.7,1l-1.7,1l-1.7,1l-1.7,1l-1.7,1l-1.7,1l-1.7,1l-1.7,1
			l-1.7,1l-1.7,1l-1.7,1l-1.7,1l-1.7,1l-1.7,1l-1.7,1l-1.7,1l-1.7,1l-1.7,1l-1.7,1l-1.7,1l-1.7,1l-1.7,1l-1.7,1l-1.7,1l-1.7,1
			l-1.7,1l-1.7,1l-1.8,1l-1.8,1l-1.8,1l-1.8,1l-1.8,1l-1.8,1l-1.8,0.9l-1.8,0.9l-1.9,0.8l-1.9,0.6l-2,0.2l-2.1-0.2l-2.2-0.7l-2.3-1
			l-2.3-1.2l-2.3-1.3l-2.3-1.3l-2.3-1.8l-2.2-1.2l-2.2-1.2l-2.1-1.1l-2.1-1.1l-2.1-1.1l-2-1.1l-2-1l-2-1l-2-1l-1.9-1l-1.9-0.9
			l-1.9-0.9l-1.9-0.9l-1.8-0.9l-1.8-0.9l-1.8-0.9l-1.8-0.8l-1.8-0.8l-1.8-0.8l-1.7-0.8l-1.7-0.8l-1.7-0.8l-1.7-0.8l-1.7-0.8
			l-1.7-0.8l-1.6-0.7l-1.6-0.7l-1.6-0.7l-1.6-0.7l-1.6-0.7l-1.6-0.7l-1.6-0.7l-1.6-0.7l-1.6-0.7l-1.6-0.7l-1.6-0.7l-1.5-0.7
			l-1.5-0.7l-1.5-0.7l-1.5-0.7l-1.5-0.7l-1.5-0.7l-1.5-0.7l-1.5-0.7l-1.5-0.7l-1.5-0.7l-1.5-0.7l-1.5-0.7l-1.4-0.7l-1.4-0.7L184,395
			l-1.4-0.7l-1.4-0.7l-1.4-0.7l-1.4-0.7l-1.4-0.7l-1.4-0.7l-1.4-0.7l-1.4-0.7l-1.4-0.7l-1.4-0.7l-1.4-0.7l-1.4-0.7l-1.4-0.7
			l-1.4-0.7l-1.4-0.7l-1.4-0.7l-1.4-0.7l-1.4-0.7l-1.4-0.7l-1.3-0.7l-1.3-0.7l-1.3-0.7l-1.3-0.7l-1.3-0.7l-1.3-0.7l-1.3-0.7
			l-1.3-0.7l-1.3-0.7l-1.3-0.7l-1.3-0.7l-1.3-0.7l-1.3-0.8l-1.3-0.8l-1.3-0.8l-1.3-0.8l-1.3-0.8l-1.3-0.8l-1.3-0.8l-1.3-0.8
			l-1.3-0.8l-1.3-0.8l-1.3-0.8l-1.3-0.8l-1.3-0.8l-1.3-0.8l-1.3-0.8l-1.3-0.8l-1.3-0.8l-1.3-0.8l-1.3-0.8l-1.3-0.8l-1.3-0.8
			l-1.3-0.8l-1.3-0.8l-1.3-0.9l-1.3-0.9l-1.3-0.9l-1.3-0.9l-1.3-0.9l-1.3-0.9l-1.3-0.9l-1.3-0.9l-1.3-0.9l-1.3-0.9l-1.3-0.9
			l-1.3-0.9l-1.3-0.9l-1.3-0.9l-1.3-0.9l-1.3-0.9L90,340l-1.3-0.9l-1.3-0.9l-1.3-1l-1.3-1l-1.3-1l-1.3-1l-1.3-1l-1.3-1l-1.4-1
			l-1.4-1l-1.4-1l-1.4-1l-1.4-1l-1.4-1l-1.4-1l-1.4-1l-1.4-1l-1.4-1l-1.4-1l-1.5-1.1l-1.5-1.1l-1.5-1.1l-1.5-1l-1.5-1.1l-1.5-1.1
			l-1.5-1.1l-1.5-1.1l-1.6-1.1l-1.6-1.1l-1.6-1.1l-1.6-1.1l-1.7-1.1l-1.7-1.1l-1.7-1.2l-1.7-1.2l-1.8-1.2l-1.8-1.2l-1.8-1.2
			l-1.9-1.2l-1.9-1.2l-1.9-1.2l-2-1.3l-2-1.3l-2.1-1.3l-2.1-1.3l-2.1-1.3l-2.2-1.3l-2.2-1.3l-2.2-1.4l-2.2-1.4l-2-1.5l-1.7-1.6
			l-1.3-1.7l-0.8-1.9l-0.5-1.9l-0.3-2l-0.1-2l-0.1-2l-0.1-2v-2v-2v-2v-2v-2v-2v-2v-2v-2v-2v-2v-2v-2v-2v-2v-2v-27.3v-2v-2v-2v-2v-2
			v-2v-2v-2v-2v-2v-2v-2v-2v-2v-2v-2l0.1-2l0.1-2l0.1-2l0.3-2l0.5-2l0.8-1.9l1.3-1.7l1.7-1.6l2-1.5l2.2-1.4l2.2-1.4l2.2-1.3l2.2-1.3
			l2.1-1.3l2.1-1.1l2.1-1.3l2-1.3l2-1.2l1.9-1.2l1.9-1.2l1.9-1.2l1.8-1.2l1.8-1.2l1.8-1.2l1.7-1.2l1.7-1.2l1.7-1.2l1.7-1.1l1.6-1.1
			l1.6-1.1l1.6-1.1l1.6-1.1l1.5-1.1l1.5-1.1l1.5-1.1l1.5-1.1l1.5-1.1l1.5-1.1l1.5-1.1l1.5-1l1.4-1l1.4-1l1.4-1l1.4-1l1.4-1l1.4-1
			l1.4-1l1.4-1l1.4-1L78,113l1.4-1l1.3-1l1.3-1l1.3-1l1.3-1l1.3-1l1.3-0.9l1.3-0.9l1.3-0.9l1.3-0.9l1.3-0.9l1.3-0.9l1.3-0.9l1.3-0.9
			l1.3-0.9l1.3-0.9l1.3-0.9l1.3-0.9l1.3-0.9l1.3-0.9l1.3-0.9l1.3-0.9l1.3-0.9l1.3-0.9l1.3-0.8l1.3-0.8l1.3-0.8l1.3-0.8l1.3-0.8
			l1.3-0.8l1.3-0.8l1.3-0.8l1.3-0.8l1.3-0.8l1.3-0.8l1.3-0.8l1.3-0.8l1.3-0.8l1.3-0.8l1.3-0.8l1.3-0.8l1.3-0.8l1.3-0.8l1.3-0.8
			l1.3-0.8l1.3-0.8l1.3-0.8l1.3-0.8l1.3-0.7l1.3-0.8l1.3-0.7l1.3-0.7l1.3-0.7l1.3-0.7l1.3-0.7L151,66l1.3-0.7l1.3-0.7l1.3-0.7
			l1.3-0.7l1.3-0.7l1.4-0.7l1.4-0.7l1.4-0.7l1.4-0.7l1.4-0.7l1.4-0.7l1.4-0.7l1.4-0.7l1.4-0.7l1.4-0.7l1.4-0.7l1.4-0.7l1.4-0.7
			l1.4-0.7l1.4-0.7l1.4-0.7l1.4-0.7l1.4-0.7l1.4-0.7l1.4-0.7l1.4-0.7l1.4-0.7l1.5-0.7l1.5-0.7l1.5-0.7l1.5-0.7l1.5-0.7l1.5-0.7
			l1.5-0.7l1.5-0.7l1.5-0.7l1.5-0.7l1.5-0.7l1.5-0.7l1.6-0.7l1.6-0.7L211,37l1.6-0.7l1.6-0.7l1.6-0.7l1.6-0.7l1.6-0.7l1.6-0.7
			l1.6-0.7l1.6-0.7l1.7-0.8l1.7-0.8l1.7-0.8l1.7-0.8l1.7-0.8l1.7-0.8l1.8-0.8l1.8-0.8l1.8-0.8l1.8-0.8l1.8-0.9l1.8-0.9l1.9-0.9
			l1.9-0.9l1.9-0.9l1.9-1l2-1l2-1l2-1l2-1.1l2.1-1.1l2.1-1.1l2.1-1.1l2.2-1.2l2.1-1.2l2.2-1.3l2.3-1.3l2.3-1.3l2.3-1.2l2.3-1
			l2.2-0.7l2.1-0.3l2,0.2l1.9,0.6l1.9,0.8l1.8,0.9l1.8,0.9l1.8,1l1.8,1l1.8,1l1.8,1l1.8,1l1.8,1l1.7,1l1.7,1l1.7,1l1.7,1l1.7,1
			l1.7,1l1.7,1l1.7,1l1.7,1l1.7,1l1.7,1l1.7,1l1.7,1l1.7,1l1.7,1l1.7,1l1.7,1l1.7,1l1.7,1l1.7,1l1.7,1l1.7,1l1.7,1l1.7,1l1.7,1
			l1.7,1l1.7,1l1.7,1l1.7,1l1.7,1l1.7,1l1.7,1l1.7,1l1.7,1l1.7,1l1.7,1l1.7,1l1.7,1l1.7,1l1.7,1l1.7,1l1.7,1.1l1.7,1.1l1.7,0.6
			l1.6,1.2l1.5,1.4l1.2,1.7l0.9,2l0.5,2.3l0.3,2.5l0.1,2.6l0.1,2.6v2.6v2.6v2.5l0,2.5l0.1,2.4l0.1,2.4l0.1,2.3l0.1,2.3l0.1,2.3
			l0.1,2.2l0.1,2.2L389,99l0.1,2.1l0.1,2.1l0.1,2.1l0.2,2l0.2,2l0.2,2l0.2,2l0.2,1.9l0.2,1.9l0.2,1.9l0.2,1.9l0.2,1.9l0.2,1.8
			l0.2,1.8l0.2,1.8l0.2,1.8l0.2,1.8l0.2,1.8l0.2,1.8l0.2,1.8l0.2,1.7l0.2,1.7l0.2,1.7l0.2,1.7l0.2,1.7l0.2,1.7l0.2,1.7l0.2,1.7
			l0.2,1.7l0.2,1.6l0.2,1.6l0.2,1.6l0.2,1.6l0.1,1.6l0.1,1.6l0.1,1.6l0.1,1.6l0.1,1.6l0.1,1.6l0.1,1.6l0.1,1.6l0.1,1.6l0.1,1.6
			l0.1,1.6l0.1,1.6l0.1,1.6l0.1,1.6l0.1,1.6l0.1,1.6l0.1,1.6l0.1,1.5l0.1,1.5l0.1,1.5l0.1,1.5l0.1,1.5l0.1,1.5l0.1,1.5l0.1,1.5
			l0.1,1.5l0.1,1.5l0.1,1.5l0,1.5l0,1.5v1.5v1.5v1.5v1.5v1.5v1.5v1.5v1.5v4.5"/>
		<path class="st0" d="M398.7,222.2v4.5v1.5v1.5v1.5v1.5v1.5v1.5v1.5v1.5v1.5l0,1.5l-0.1,1.5l-0.1,1.5l-0.1,1.5l-0.1,1.5l-0.1,1.5
			l-0.1,1.5l-0.1,1.5l-0.1,1.5l-0.1,1.5l-0.1,1.6l-0.1,1.5l-0.1,1.5l-0.1,1.6l-0.1,1.5l-0.1,1.6l-0.1,1.6l-0.1,1.6l-0.1,1.6
			l-0.1,1.6l-0.1,1.6l-0.1,1.6l-0.5,1.6l-0.1,1.6l-0.1,1.6l-0.1,1.6l-0.1,1.6l-0.1,1.6l-0.2,1.6l-0.2,1.6L395,289l-0.2,1.6l-0.2,1.7
			l-0.2,1.7l-0.2,1.7l-0.2,1.7L394,299l-0.2,1.7l-0.2,1.7l-0.2,1.7l-0.2,1.7l-0.2,1.7l-0.2,1.8l-0.2,1.8l-0.2,1.8l-0.2,1.8l-0.2,1.8
			l-0.2,1.8l-0.2,1.8l-0.2,1.9l-0.2,1.9l-0.2,1.9l-0.2,1.9l-0.2,1.9l-0.2,2l-0.2,2l-0.2,2l-0.2,2l-0.2,2l-0.1,2.1l-0.1,2.1l-0.1,2.1
			l-0.1,2.2l-0.1,2.2l-0.1,2.2l-0.1,2.3l-0.1,2.3l-0.1,2.3l-0.1,2.4l-0.1,2.4l0,2.5v2.5v2.6v2.6l-0.1,2.6l-0.1,2.6l-0.3,2.5
			l-0.5,2.3l-0.9,2l-1.2,1.6l-1.5,1.4l-1.6,1.2l-1.7,1.1l-1.7,1.1l-1.7,1.1l-1.7,1.1l-1.7,1l-1.7,1l-1.7,1l-1.7,1l-1.7,1l-1.7,1
			l-1.7,1l-1.7,1l-1.7,1l-1.7,1l-1.7,1l-1.7,1l-1.7,1l-1.7,1l-1.7,1l-1.7,1l-1.7,1l-1.7,1l-1.7,1l-1.7,1l-1.7,1l-1.7,1l-1.7,1
			l-1.7,1l-1.7,1l-1.7,1l-1.7,1l-1.7,1l-1.7,1l-1.7,1l-1.7,1l-1.7,1l-1.7,1l-1.7,1l-1.7,1l-1.7,1l-1.7,1l-1.7,1l-1.7,1l-1.8,1
			l-1.8,1l-1.8,1l-1.8,1l-1.8,1l-1.8,1l-1.8,1l-1.8,0.9l-1.8,0.9l-1.9,0.8l-1.9,0.6l-2,0.2l-2.1-0.2l-2.2-0.7l-2.3-1l-2.5-1.6
			l-2.3-1.3l-2.3-1.3l-2.2-1.3l-2.2-1.2l-2.2-1.2l-2.1-1.2l-2.1-1.1l-2.1-1.1l-2-1.1l-2-1l-2-1l-2-1l-1.9-1l-1.9-0.9l-1.9-0.9
			l-1.9-0.9l-1.8-0.9l-1.8-0.9l-1.8-0.9l-1.8-0.8l-1.8-0.8l-1.8-0.8l-1.7-0.8l-1.7-0.8l-1.7-0.8l-1.7-0.8l-1.7-0.8l-1.7-0.8
			l-1.7-0.7l-1.6-0.7l-1.6-0.7l-1.6-0.7l-1.6-0.7l-1.6-0.7l-1.6-0.7l-1.6-0.7l-1.6-0.7l-1.6-0.7l-1.6-0.7l-1.5-0.7l-1.5-0.7
			l-1.5-0.7l-1.5-0.7l-1.5-0.7l-1.5-0.7l-1.5-0.7l-1.5-0.7l-1.5-0.7l-1.5-0.7l-1.5-0.7l-1.5-0.7l-1.5-0.7l-1.4-0.7l-1.4-0.7
			l-1.4-0.7l-1.4-0.7l-1.4-0.7l-1.4-0.7l-1.4-0.7l-1.4-0.7l-1.4-0.7l-1.4-0.7l-1.4-0.7l-1.4-0.7l-1.4-0.7l-1.4-0.7l-1.4-0.7
			l-1.4-0.7l-1.4-0.7l-1.4-0.7l-1.4-0.7l-1.4-0.7l-1.4-0.7l-1.3-0.7l-1.4-0.7l-1.3-0.7l-1.3-0.7l-1.3-0.7l-1.3-0.7l-1.3-0.7
			l-1.3-0.7l-1.3-0.7l-1.3-0.7l-1.3-0.8l-1.3-0.7l-1.3-0.8l-1.3-0.8l-1.3-0.8l-1.3-0.8L135,370l-1.3-0.8l-1.3-0.8l-1.3-0.8l-1.3-0.8
			l-1.3-0.8l-1.3-0.8l-1.3-0.8l-1.3-0.8l-1.3-0.8l-1.3-0.8l-1.3-0.8l-1.3-0.8l-1.3-0.8l-1.3-0.8l-1.3-0.8l-1.3-0.8l-1.3-0.8
			l-1.3-0.8l-1.3-0.9l-1.3-0.9l-1.3-0.9l-1.3-0.9l-1.3-0.9l-1.3-0.9l-1.3-0.9l-1.3-0.9l-1.3-0.9l-1.3-0.9l-1.3-0.9l-1.3-0.9l-1.3-1
			l-1.3-0.9l-1.3-0.9l-1.3-0.9l-1.3-0.9l-1.3-0.9l-1.3-0.9l-1.3-1l-1.3-1l-1.3-1l-1.3-1l-1.4-1l-1.3-1l-1.4-1l-1.4-1l-1.4-1l-1.4-1
			l-1.4-1l-1.4-1l-1.4-1l-1.4-1l-1.4-1l-1.4-1l-1.5-1l-1.5-1l-1.5-1.1l-1.5-1.1l-1.5-1.1l-1.5-1.1l-1.5-1.1l-1.5-1.1l-1.6-1.1
			l-1.6-1.1l-1.6-1.1l-1.6-1.1l-1.6-1.1l-1.7-1.1l-1.7-1.2l-1.7-1.2l-1.7-1.2l-1.8-1.2l-1.8-1.2l-1.8-1.2l-1.9-1.2l-1.9-1.2
			l-1.9-1.2l-2-1.3l-2-1.3l-2.1-1.3l-2.1-1.3l-2.2-1.3l-2.2-1.3l-2.2-1.3l-2.2-1.4l-2.2-1.4l-2-1.5l-1.7-1.6l-1.3-1.7L2,277.9
			L1.5,276l-0.3-2l-0.1-2L1,270L1,268l-0.1-2v-2v-2v-2v-2v-2v-2v-2v-2v-2v-2v-2v-2v-2v-2v-2v-2v-23.6v-2v-2v-2v-2v-2v-2v-2v-2v-2v-2
			v-2v-2v-2v-2v-2v-2l0.1-2l0.1-2l0.1-2l0.1-2l0.3-2l0.5-1.9l0.8-1.9l1.3-1.7l1.7-1.6l2-1.5l2.2-1.4l2.2-1.3l2.2-1.3l2.2-1.3
			l2.2-1.3l2.1-1.3l2.1-1.3l2-1.3l2-1.2l1.9-1.2l1.9-1.2l1.9-1.2l1.8-1.2l1.8-1.2l1.8-1.2l1.7-1.2l1.7-1.2l1.7-1.2l1.7-1.1l1.6-1.1
			l1.6-1.1l1.6-1.1l1.6-1.1l1.6-1.1l1.5-1.1l1.5-1.1l1.5-1.1l1.5-1.1l1.5-1.1l1.5-1l1.5-1l1.4-1.1l1.4-1l1.4-1l1.4-1l1.4-1l1.4-1
			l1.4-1l1.4-1l1.4-1l1.4-1l1.4-1l1.3-1l1.4-1l1.3-1l1.3-1l1.3-0.9l1.4-1l1.3-0.9l1.3-0.9l1.3-0.9l1.3-0.9l1.3-0.9l1.3-0.9l1.3-0.9
			l1.3-0.9l1.3-0.9l1.3-0.9l1.3-0.9l1.3-0.9l1.3-0.9l1.3-0.9l1.3-0.9l1.3-0.9l1.3-0.8l1.3-0.9l1.3-0.8l1.3-0.8l1.3-0.8l1.3-0.8
			l1.3-0.8l1.3-0.8l1.3-0.8l1.3-0.8l1.3-0.8l1.3-0.8l1.3-0.8l1.3-0.8l1.3-0.8l1.3-0.8l1.3-0.8l1.3-0.8l1.3-0.8l1.3-0.8l1.3-0.8
			l1.3-0.8l1.3-0.8l1.3-0.8l1.3-0.8l1.3-0.8l1.3-0.8l1.3-0.7l1.3-0.7l1.3-0.7l1.3-0.7l1.3-0.7l1.3-0.7l1.3-0.7l1.3-0.7l1.3-0.7
			l1.4-0.7l1.3-0.7l1.4-0.7l1.4-0.7l1.4-0.7l1.4-0.7l1.4-0.7l1.4-0.7l1.4-0.7l1.4-0.7l1.4-0.7l1.4-0.7l1.4-0.7l1.4-0.7l1.4-0.7
			l1.4-0.7l1.4-0.7l1.4-0.7l1.4-0.7l1.4-0.7l1.4-0.7l1.4-0.7l1.4-0.7l1.5-0.7l1.5-0.7l1.5-0.7l1.5-0.7l1.5-0.7l1.5-0.7l1.5-0.7
			l1.5-0.7l1.5-0.7l1.5-0.7l1.5-0.7l1.5-0.7l1.5-0.7l1.6-0.7l1.6-0.7l1.6-0.7l1.6-0.7l1.6-0.7l1.6-0.7l1.6-0.7l1.6-0.7l1.6-0.7
			l1.6-0.7l1.7-0.7l1.7-0.8l1.7-0.8l1.7-0.8l1.7-0.8l1.7-0.8l1.7-0.8l1.8-0.8l1.8-0.8l1.8-0.8l1.8-0.9l1.8-0.9l1.9-0.9l1.9-0.9
			l1.9-0.9l1.9-0.9l1.9-1l2-1l2-1l2-1l2-1.1l2.1-1.1l2.1-1.1l2.1-1.2l2.2-1.2l2.2-1.2l2.2-1.3l2.3-1.3l2.3-1.3l2.3-1.2l2.3-1
			l2.2-0.7l2.2-0.2l2,0.2l1.9,0.6l1.9,0.8l1.8,0.9l1.8,1l1.8,1l1.8,1l1.8,1l1.8,1l1.8,1l1.8,1l1.8,1l1.7,1l1.7,1l1.7,1l1.7,1l1.7,1
			l1.7,1l1.7,1l1.7,1l1.7,1l1.7,1l1.7,1l1.7,1l1.7,1l1.7,1l1.7,1l1.7,1l1.7,1l1.7,1l1.7,1l1.7,1l1.7,1l1.7,1l1.7,1l1.7,1l1.7,1
			l1.7,1l1.7,1l1.7,1l1.7,1l1.7,1l1.7,1l1.7,1l1.7,1l1.7,1l1.7,1l1.7,1l1.7,1l1.7,1l1.7,1l1.7,1l1.7,1.1l1.7,1.1l1.7,1.1l1.6,1.2
			l1.5,1.4l1.2,1.6l0.9,2l0.5,2.3l0.3,2.5l0.1,2.6l0.1,2.6v2.6v2.6v2.5l0,2.5l0.1,2.4L389,85l0.1,2.3l0.1,2.3l0.1,2.3l0.1,2.2
			l0.1,2.2l0.1,2.2l0.1,2.1l0.1,2.1l0.1,2.1l0.2,2l0.2,2l0.2,2l0.2,2l0.2,2l0.2,1.9l0.2,1.9l0.2,1.9l0.2,1.9l0.2,1.9l0.2,1.8
			l0.2,1.8l0.2,1.8l0.2,1.8l0.2,1.8l0.2,1.8l0.2,1.8l0.2,1.7l0.2,1.7l0.2,1.7l0.2,1.7l0.2,1.7l0.2,1.7l0.2,1.7l0.2,1.7l0.2,1.7
			l0.2,1.7l0.2,1.6l0.2,1.6l0.2,1.6l0.2,1.6l0.1,1.6l0.1,1.6l0.1,1.6l0.1,1.6l0.1,1.6l0.1,1.6l0.1,1.6l0.1,1.6l0.1,1.6l0.1,1.6
			l0.1,1.6l0.1,1.6l0.1,1.6l0.1,1.6l0.1,1.6l0.1,1.6l0.1,1.6l0.1,1.5l0.1,1.5l0.1,1.5l0.1,1.5l0.1,1.5l0.1,1.5l0.1,1.5l0.1,1.5
			l0.1,1.5l0.1,1.5l0,1.5v1.5v1.5v1.5v1.5v1.5v1.5v1.5v1.5v1.5v4.5"/>
	</g>
</g>
</svg>
