<?xml version="1.0" encoding="utf-8"?>
<!-- Generator: Adobe Illustrator 23.0.6, SVG Export Plug-In . SVG Version: 6.00 Build 0)  -->
<svg version="1.1" id="Layer_1" xmlns="http://www.w3.org/2000/svg" xmlns:xlink="http://www.w3.org/1999/xlink" x="0px" y="0px"
	 viewBox="0 0 1074.8 726.7" style="enable-background:new 0 0 1074.8 726.7;" xml:space="preserve">
<style type="text/css">
	.st0{fill:#FFFFFF;}
</style>
<title>Asset 107</title>
<g>
	<g id="_Layer_">
		<path class="st0" d="M70.7,7.1l-64.9,65L70.7,7.1z"/>
		
			<rect x="-7.7" y="32.1" transform="matrix(0.7071 -0.7071 0.7071 0.7071 -16.7997 38.6065)" class="st0" width="91.8" height="14.9"/>
		<path class="st0" d="M7.5,67v87.6C7.7,125.3,7.7,95.5,7.5,67z"/>
		<path class="st0" d="M14.9,154.6c0.1-14.6,0.2-29.4,0.2-44.1s-0.1-29.3-0.2-43.6L0,67.1l0,0c0.1,14.2,0.2,28.8,0.2,43.4
			s-0.1,29.4-0.2,44L14.9,154.6z"/>
		<path class="st0" d="M66,9L66,9z"/>
		<rect x="66" y="1.5" class="st0" width="78.1" height="14.9"/>
		<path class="st0" d="M1069.2,70.7l-65-64.9L1069.2,70.7z"/>
		
			<rect x="1029.3" y="-7.7" transform="matrix(0.7071 -0.7071 0.7071 0.7071 276.6099 744.2902)" class="st0" width="14.9" height="91.8"/>
		<path class="st0" d="M1009.3,7.5h-87.5C951,7.7,980.8,7.7,1009.3,7.5z"/>
		<path class="st0" d="M965.8,0.2c-14.7,0-29.4-0.1-44-0.2l-0.1,14.9c14.6,0.1,29.4,0.2,44.1,0.2s29.3-0.1,43.6-0.2L1009.2,0l0,0
			C995,0.1,980.5,0.2,965.8,0.2z"/>
		<path class="st0" d="M1067.3,66L1067.3,66z"/>
		<rect x="1059.8" y="66" class="st0" width="14.9" height="78.1"/>
		<path class="st0" d="M1004.1,719.6l64.9-65L1004.1,719.6z"/>
		
			<rect x="990.6" y="679.6" transform="matrix(0.7071 -0.7071 0.7071 0.7071 -182.2379 934.2065)" class="st0" width="91.8" height="14.9"/>
		<path class="st0" d="M1067.3,572.1c-0.3,29.2-0.3,59,0,87.5V572.1z"/>
		<path class="st0" d="M1059.8,572.1c-0.1,14.6-0.2,29.4-0.2,44.1s0.1,29.3,0.2,43.6l14.9-0.1l0,0c-0.1-14.2-0.2-28.8-0.2-43.4
			s0.1-29.4,0.2-44L1059.8,572.1z"/>
		<path class="st0" d="M1008.8,717.7L1008.8,717.7z"/>
		<rect x="930.7" y="710.2" class="st0" width="78.1" height="14.9"/>
		<path class="st0" d="M5.6,656l64.9,65L5.6,656z"/>
		
			<rect x="30.6" y="642.6" transform="matrix(0.7071 -0.7071 0.7071 0.7071 -475.6769 228.5658)" class="st0" width="14.9" height="91.8"/>
		<path class="st0" d="M153,719.2c-29.2-0.3-59-0.3-87.5,0H153z"/>
		<path class="st0" d="M65.5,726.7c14.2-0.1,28.8-0.2,43.4-0.2s29.4,0.1,44,0.2l0.1-14.9c-14.6-0.1-29.4-0.2-44.1-0.2
			s-29.3,0.1-43.6,0.2L65.5,726.7z"/>
		<path class="st0" d="M7.5,660.7L7.5,660.7z"/>
		<rect y="582.6" class="st0" width="14.9" height="78.1"/>
	</g>
</g>
</svg>
