<?xml version="1.0" encoding="utf-8"?>
<!-- Generator: Adobe Illustrator 26.0.1, SVG Export Plug-In . SVG Version: 6.00 Build 0)  -->
<svg version="1.1" id="Layer_1" xmlns="http://www.w3.org/2000/svg" xmlns:xlink="http://www.w3.org/1999/xlink" x="0px" y="0px"
	 viewBox="0 0 80 80" style="enable-background:new 0 0 80 80;" xml:space="preserve">
<style type="text/css">
	.st0{fill-rule:evenodd;clip-rule:evenodd;fill:#FFFFFF;}
</style>
<path class="st0" d="M0,0h40v40H0V0z M40,40h40v40H40V40z M40,0h2l-2,2V0z M40,4l4-4h2l-6,6V4z M40,8l8-8h2L40,10V8z M40,12L52,0h2
	L40,14V12z M40,16L56,0h2L40,18V16z M40,20L60,0h2L40,22V20z M40,24L64,0h2L40,26V24z M40,28L68,0h2L40,30V28z M40,32L72,0h2L40,34
	V32z M40,36L76,0h2L40,38V36z M40,40L80,0v2L42,40H40z M44,40L80,4v2L46,40H44z M48,40L80,8v2L50,40H48z M52,40l28-28v2L54,40H52z
	 M56,40l24-24v2L58,40H56z M60,40l20-20v2L62,40H60z M64,40l16-16v2L66,40H64z M68,40l12-12v2L70,40H68z M72,40l8-8v2l-6,6H72z
	 M76,40l4-4v2l-2,2H76z"/>
</svg>
