<?xml version="1.0" encoding="utf-8"?>
<!-- Generator: Adobe Illustrator 23.0.6, SVG Export Plug-In . SVG Version: 6.00 Build 0)  -->
<svg version="1.1" id="Layer_1" xmlns="http://www.w3.org/2000/svg" xmlns:xlink="http://www.w3.org/1999/xlink" x="0px" y="0px"
	 viewBox="0 0 96.3 59.5" style="enable-background:new 0 0 96.3 59.5;" xml:space="preserve">
<style type="text/css">
	.st0{fill-rule:evenodd;clip-rule:evenodd;fill:#FFFFFF;}
</style>
<title>Asset 2</title>
<g>
	<g id="_Layer_">
		<path class="st0" d="M75.2,30.3c5.2-10.1,10.1-19.8,15-29.5L89.4,0L49.4,25.8l-49.2,1c-0.1,0.4-0.2,0.7-0.3,1
			c11.8,5.1,24.3,8.5,36.2,13.8c-1.3,6.1-2.5,11.7-3.8,18c1.7-0.8,2.5-1,3.3-1.5c7.1-3.9,14.1-7.9,21.2-11.7c1.7-1,3.6-1.7,5.6-1.9
			c8.6-0.5,17.2-0.8,25.8-1.2l7.8-0.4l0.2-1.3L75.2,30.3z M48.9,37.1c3.7-4.5,7.8-4.4,12.3-3.3C61,39.2,55,40.9,48.9,37.1z"/>
	</g>
</g>
</svg>
