<?xml version="1.0" encoding="utf-8"?>
<!-- Generator: Adobe Illustrator 23.0.6, SVG Export Plug-In . SVG Version: 6.00 Build 0)  -->
<svg version="1.1" id="Layer_1" xmlns="http://www.w3.org/2000/svg" xmlns:xlink="http://www.w3.org/1999/xlink" x="0px" y="0px"
	 viewBox="0 0 76.1 86.8" style="enable-background:new 0 0 76.1 86.8;" xml:space="preserve">
<style type="text/css">
	.st0{fill:#FFFFFF;}
</style>
<title>Asset 3</title>
<g>
	<g id="_Layer_">
		<path class="st0" d="M39,0L0.9,20.9L0,64.3l37.1,22.5l38.1-20.9l0.9-43.4L39,0z M52.9,54.3c-1.9,3.7-6.2,5.7-9.5,6.7l-0.2-0.1
			l0.1-0.2c1.2-0.6,2-1.7,2.3-3c0.1-1.6-0.4-3.2-1.6-4.4c-1.1-1.2-0.8-3.3-0.7-4.2c-3,1.9-1.6,5.2-1.6,5.4l-0.1,0.2h-0.2
			c-1.1-1-1.6-2.6-1.3-4.1c2-5.5-1.4-7.8-2.7-8.5c2.7,5.3-3.2,9.6-3.2,9.7h-0.2L34,51.5c0.5-2.3-1.5-3.6-2.4-4
			c0.4,0.8,0.7,2.7-1.2,6.4c-2,4.3,0.7,6.4,3.3,7.4l0.1,0.2l-0.2,0.1c-1.3-0.2-2.6-0.5-3.9-0.9c-5-1.6-8.1-4.1-9.1-7.3
			c-1.2-3.8,1-8,3.2-10.4c2.5-2.8,1.1-8.8,1.1-8.8l0.1-0.2h0.2c2.9,1.3,4.8,4.2,4.9,7.4c0,1.3-0.1,2.5-0.5,3.7
			c1.8-2,2.4-4.7,1.8-7.2c-2.7-7.1-0.7-11.8,1.4-14.4c1.4-1.8,3.3-3.1,5.3-4h0.2v0.2c-5.7,9.8,3.6,18.1,5.6,19.7
			c-0.9-6.1,6.4-8.8,6.4-8.8l0.2,0.1v0.2c0,0-3.4,3.3,1.8,13.5C54.1,48.2,54.3,51.5,52.9,54.3z"/>
	</g>
</g>
</svg>
