<?xml version="1.0" encoding="utf-8"?>
<!-- Generator: Adobe Illustrator 23.0.6, SVG Export Plug-In . SVG Version: 6.00 Build 0)  -->
<svg version="1.1" id="Layer_1" xmlns="http://www.w3.org/2000/svg" xmlns:xlink="http://www.w3.org/1999/xlink" x="0px" y="0px"
	 viewBox="0 0 142.2 221.3" style="enable-background:new 0 0 142.2 221.3;" xml:space="preserve">
<style type="text/css">
	.st0{fill-rule:evenodd;clip-rule:evenodd;fill:#FFFFFF;}
</style>
<title>Asset 7</title>
<g>
	<g id="_Layer_">
		<path class="st0" d="M142.2,128.2c0.1-0.5-0.3-0.7-0.6-0.8c-0.8-7.8-1.7-16.2-2.3-23.8c0.2-0.1,0.2-0.4,0.5-0.4
			c0-0.4,0-0.8-0.4-0.7c0.4-0.3,0.9-0.4,1.3-0.3c0-0.2-0.1-0.2-0.1-0.4c-9.7-6.3-19.5-12.5-28.9-19.2l0,0v-0.3
			c0.2-0.5,0.2-1.1,0-1.7v-4.1l1.5-1.8c0-10.3-2.3-12.9-2.3-12.9l-1.2-10.6l0.6-1.2c0-8.2-4.6-12.5-4.6-12.5c-2.8-2.3-5.5-4.7-9.3-6
			c-0.3-7.3-0.1-16.8,0-25c0-0.3,0.3-0.3,0.3-0.5V2.1c-0.6-0.8-0.8-2-1.8-2.1c-1.3-0.1-1.9,1.4-2.9,1.8v0.4
			c-2.7,2.2-5.5,4.2-8.3,6.3c-1.8,0.3-3.2,2-4.8,2.6c-0.8,0.3-1.3,0.9-2,1.2c-0.6,1.9-0.8,3.8-0.6,5.8c0,0.2,0.2,0.4,0.4,0.4v4.8
			c-0.7,0.4,0,2.1-1,2.2v2c-9.2-0.9-17.8,1.4-25.5,3.6c-6.9,2-13.5,4.9-18.1,9.4c-0.2,0.5-0.6,1-1.1,1.1c-0.3,0.7-0.7,1.4-1.1,2
			c-0.3,0-0.2-0.4-0.5-0.4c-0.1,0.4,0.1,0.6,0.1,0.9c-0.9,1.5-1.4,3.2-1.5,5c0,1.4-1.2,3.4,0.1,4.8c0,3.2,0.6,5.8,0.4,9
			c-0.1,1.2,0.5,2,0.6,3s-0.7,2.5,0.2,3.5c0.1,4.4,0.4,8.4,0.8,11.6c-0.2,0.6-0.3,1.1-0.3,1.7c0,1,0.6,1.7,0.6,2.9
			c0,0.3-0.2,0.7-0.2,1c-0.1,1.5,0.6,2.6,0.3,3.9C20.5,93,11.1,95,1,97c-0.1,0.5,0.2,0.6,0.5,0.7C1,97.9,0.5,98,0,98
			c0.1,0.5,0.6,0.7,1,0.9c0.1,0.3-0.2,0.3-0.1,0.6s0.2,0.5,0.5,0.5c0.7,7.8,1.4,15.7,2,23.8c-0.3,0-0.3,0.2-0.4,0.3s0.1,0.3,0.1,0.4
			c0.7,1,1.8,0.8,2.8,1.3c2.6,1.3,5.5,3,8.2,4.4c2.4,1.3,4.9,2.5,7.2,3.6c1.2,0.6,2.5,1.2,3.5,1.8c0,0.7,0,1.3,0.2,2
			c0.6,0,1.3-0.1,1.9-0.2c0.2-0.1,0.2-0.4,0.2-0.7c2,1.2,4.3,2.1,6.2,3.3c-0.6,19.3-0.2,36.6-1,54.6c0,1.2,0.2,3-0.2,3.9
			c0.3,0.1,0.3,1.2,0,1.3c0,0.1,0.2,0.1,0.2,0.2c-0.3,2.1,0,4.6-0.4,6.6c0.5,4.9-0.3,11-0.1,14.4h6.4c1-1.2,1.6-2.9,2.6-4.2
			c0.2,0.9-0.1,1.8,0.2,2.3c-0.2-0.1-0.4,0.2-0.2,0.2c0-0.1,0.2-0.1,0.2,0c-0.3,0.3,0.1,0.8,0,1.7h2.6c-0.2-0.3,0-0.4,0.2-0.6
			c-0.1,0-0.3,0-0.3-0.1c-0.2-1.9,0.1-4.7-0.1-6.7c-0.2-0.9,0.1-1.9,0.7-2.6c1.5-2.7,3.1-5.3,4.9-7.9c0.5,3.2,1.8,6.8,2.1,9.6
			c0-0.2,0.2,0,0.2,0.1c0.5,2.9,1.3,5.6,1.9,8.2H61c-0.2-12.6-0.7-23.6-0.9-37.1c3.4-5.5,6.5-11.2,10.1-16.6
			c9.2,10.6,18.4,21,27.6,31.6c0.4,5.7,1.1,9.8,1.5,14.6c-0.1,0-0.2-0.4-0.3-0.1c0.1,0.2,0.3,0.2,0.4,0.3c0,1.3,0.3,3.1,0.2,3.7
			c0-0.1,0-0.1,0.1-0.1c0.1,0,0.1,0,0.1,0.1c-0.4,0.8,0.5,1.9,0,2.6c0.2,0.2,0.3,0.5,0.3,0.8h6.5c-0.1-3.9-0.7-8.7-0.6-12.6
			c0.4,0.6,1.2,1.1,1.3,1.7c0-0.1,0.2-0.1,0.2,0c1.9,2.4,4.2,4.6,6,7.2c0.7,0.2,0.8,1,1.5,1.7c0.5,0.6,1.6,1.3,0.9,1.4
			c0.6,0,0.6,0.5,0.9,0.6h4.2c0-0.5-0.3-0.6-0.4-0.9c-0.5,0-0.8-1.1-1.4-1.3c-0.1-0.4,0.2,0.1,0.2-0.2c-0.1-0.1-0.3-0.1-0.5-0.1
			c0.1-0.5-1.4-1.3-1.5-2c-3.2-3.4-6.8-7.6-9.9-11.1c-0.6-0.6-1.1-1.2-1.5-1.9c-0.2-0.8,0.5-2.8,0.7-4.1c2.1-15.1,4.6-30.9,7-46.3
			c1.6,10.5,3,21.9,4.6,32c0.7,4.6,1.5,9.3,2,12.9c0.2,1,0.3,1.9,0.4,2.9l-0.2,0.4l0.3,0.3c0.2,1.1,0.4,2.1,0.5,3.2
			c0.1,0.7-0.2,1.3,0.2,1.3c0.2,2.3,0.5,4.7,1,7c0.2,0.4-0.3,0.2-0.2,0.5c0.5-0.1,0.3,0.4,0,0.5c0.7,0,0,0.3,0,0.5
			c0.3,0,0.2-0.2,0.4,0c0.1,0.5,0.1,0.9,0,1.4c0,0.1,0.3,0.5,0.3,0.6l-0.2,0.2c0,0.2,0.2,0.3,0.3,0.5s-0.2,0.4-0.2,0.5l0.3,0.1
			c0.2,0.4,0.1,0.8-0.2,1.1c0.2,0,0.4,0,0.4,0.2c-0.2,0.2-0.3-0.2-0.3,0.2c0.5-0.1,0.4,1,0.4,1.5h3.4c-4.3-28.5-8.8-58.3-12.7-86.9
			c1.2-0.2,2.4-0.4,3.5-0.7c1.3,0.7,2.3,1.6,3.6,2.2c0.3-0.8-0.1-1.9,0-2.8c6.7-1.4,13.4-2.7,20.3-3.8c0.2-0.1,0.2-0.5,0.2-0.8
			C142.1,128.5,142.1,128.3,142.2,128.2z M36.5,135c0.7,0.3,1.4,0.7,2.1,1.1c-0.5,1-0.3,2.7-0.5,4c-0.9-0.9-0.2-3.3-1.7-3.5
			C36.5,135.8,36.4,135.6,36.5,135z M5.8,122.4c-0.8-7-1.3-14.2-1.8-21c6.3,3.3,12.6,6.6,18.9,9.9c0.3,1.9,0.3,4,0.5,6
			c-2.6,1-5.9,1.3-8.9,1.9c-0.2,0.3,0,1-0.1,1.5C11.3,121.3,9.1,121.9,5.8,122.4z M9.1,125c2.4-0.6,5.2-1.4,7.4-1.7
			c0.4-0.1,1,0.6,1.6,0.9c2.1,1,4.1,2.2,6.1,3.4c0.3,1.8,0.2,4,0.5,5.5C19.3,130.6,14.2,127.8,9.1,125z M5.2,99.4
			c8.4-1.7,16.8-3.6,25.4-5.4c0.6,1,0.4,2.3,0.5,3.4c0.1,1.9,0.5,4.3,0.5,6.4c-0.1,0.7-0.2,1.5-0.2,2.2c0.1,0.5,0.5,1.1,0.6,1.6
			c0.2,1.2-0.5,2.1-0.2,3.4c0.3,0.8,0.4,1.7,0.4,2.6C23,109.1,13.9,104.4,5.2,99.4z M25.3,112.6c2.4,1.2,4.8,2.4,7.1,3.6
			c-1.8,0.8-4.4,0.8-6.8,0.9C25.5,115.6,25.2,114.3,25.3,112.6z M33.3,137.7c-2.2-1-4.3-2.1-6.4-3.2c-0.3-1.7-0.2-3.6-0.5-5.4
			c2.5,1.2,4.6,2.6,6.9,3.9V137.7z M40.7,210.6c-0.3,0.8-0.8,1.5-1.3,2.1c-0.5,0.8-1,1.5-1.4,2c-0.8,1.2-1.6,2.3-2.6,3.3
			c0.2,0.3,0,0.4-0.2,0.6c-0.1-1.9,0.1-6.5,0.1-8.7c0.4-20,0.8-39.9,0.9-59.2c0.6,3.5,2.2,7.5,2.8,11.4c0.2,2.1,0.3,4.2,0.2,6.3
			c0.5,11.9,1,24.5,1.2,36.2C40.4,206.5,41,208.9,40.7,210.6z M79,18.6c0-0.1,0.4-0.3,0.4-0.5c0.2-1.1-0.2-2.4-0.1-3.5
			c0.7-0.2,1.2-0.6,1.6-1.2c1.7-0.4,3.1-1.4,4.1-2.8c2.8-1.9,5.5-3.9,8.2-6h0.2c-0.1,0.7,0,1.3,0.3,1.9c0,11-0.1,15.2-0.1,24
			c-4.4-1.1-8.9-1.8-13.4-2.1c-0.1-0.8,0.2-1.6,0-2.4c-0.1-0.5-0.6-0.7-0.7-1.1s0-0.9-0.1-1.3C79,21.9,78.9,20.2,79,18.6z
			 M50.3,142.7c-1.1,0.4-2.2,0.7-3.3,0.7c-0.2-0.8-0.2-1.9-0.3-2.7C47.9,141.3,49.1,142,50.3,142.7z M41.2,137.7
			c0.8,0.3,1.6,0.7,2.3,1.2c0.2,1.3,0.2,2.8,0.4,4.1c-1-0.3-2-0.8-2.9-1.4C41.4,140.7,41.2,139,41.2,137.7L41.2,137.7z M46.9,199.6
			c-0.1,0.1-0.3,0.1-0.4,0.3c-0.2,0.3-0.2,0.8-0.4,1.2c-0.6,1.1-1.4,2.5-2,3.7c0.1,0.3-0.3,0.1-0.5,0.2c0,0.2,0.5-0.1,0.3,0.3
			c-0.2,0.3-0.5,0.6-0.6,0.9c-0.4,0.2-0.2-0.8-0.2-1.4c-0.1-3.8-0.2-8.1-0.4-11.9c-0.3-5.8-0.5-11.3-0.6-17.8c1.5,6,3.3,13,4.8,19.7
			c0.3,0.9,0.6,1.9,0.7,2.8C47.5,198.4,47.2,199,46.9,199.6L46.9,199.6z M42.4,158.8c-0.4-1.5-0.8-3-1.1-4.6
			c-0.4-3.4,0.1-6.9-0.3-10.1c1,0.5,2.3,0.6,2.5,1.8c0.3,0,0-0.6,0.4-0.5c0.3,0.4,0.8,0.5,1.1,0.8c3.4-0.5,6.5-1.3,10-1.6
			c0.2,5.6,0.4,10.8,0.5,16.5c0,3.1,0.4,6.3,0.2,8.7c-0.2,1.7-0.9,3.5-1.2,5.4c-0.6,3.6-1.7,7.2-2.6,10.8c-0.2,0.9-0.5,1.8-0.7,2.6
			s-0.8,2.2-0.9,2.8C47.6,180.7,45,169.7,42.4,158.8L42.4,158.8z M50.9,193.9c-0.3-1.8,0.5-3.5,1-5.1c1.4-5.1,2.7-10.4,3.7-15.6
			c0.4,3.2,0.3,7.9,0.4,11.9C54.2,188.1,52.6,190.7,50.9,193.9L50.9,193.9z M54.7,209.1c0-0.2-0.2-0.2-0.3-0.2
			c0-0.2,0.1-0.3,0.1-0.4c-0.6-0.9-0.7-2.7-1.1-4.3c-0.3-1.2-1-2.6-0.7-3.4c-0.5-0.8-0.8-1.6-0.8-2.5c0.1-0.8,1.5-2.7,2-3.5
			c0.8-1.3,1.5-2.4,2-3.4h0.3c0.1,6.3,0.3,11.6,0.3,17.6c-0.2,0.1-0.1-0.2-0.3-0.2c-0.1,0.4,0.3,0.3,0.4,0.4
			c-0.2,2.2,0.4,3.9-0.1,6.9c0.1,0.1,0.2,0.1,0.2,0.3h-0.3c0.4,0.1,0.3,0.7,0.2,0.9c-0.5-0.8-1.2-4.3-1.6-6.1
			C54.9,210.4,54.3,209.1,54.7,209.1L54.7,209.1z M56.9,217.8c-0.2-0.1-0.4-0.3-0.3-0.5c0.1,0,0.2,0,0.2-0.1c0.2,0,0,0.3-0.1,0.3
			C56.7,217.6,56.9,217.6,56.9,217.8L56.9,217.8z M59.1,143.9c1.3-0.3,2.6-0.4,3.3,0.5c-0.5,2.6-0.9,5.2-1.6,7.6
			c-0.7-0.3-0.9-1.1-1.5-1.5C59.1,148.3,59.2,146,59.1,143.9L59.1,143.9z M59.4,155.2c0.2,0.2,0.3,0.5,0.5,0.6
			c-0.2,0.6-0.2,1.3-0.5,1.6C59.5,156.7,59.3,156,59.4,155.2L59.4,155.2z M60.1,178.3c-0.6-4.8-0.2-10.8-0.5-16.6
			c0-1.7,0.3-3.5,0.8-5.1c2.7,2.6,4.9,5.6,7.5,8.4C65.4,169.7,62.6,173.8,60.1,178.3L60.1,178.3z M69.7,162.3
			c-2.9-3-5.5-6.3-8.3-9.4c0.5-2.7,1.2-5.3,1.6-8.2c0.7,0.3,1.3,0.6,1.9,1c0.4-0.5-0.1-1.5,0.1-2.4c0.4,0,0.3,0.5,0.8,0.4
			c0.3-0.2,0.4-0.6,0.7-0.8c5.1-1.3,10.9-1.9,16.4-2.8C78.6,147.5,74.1,154.8,69.7,162.3L69.7,162.3z M95,191.3
			c-1.9-2.2-4-4.6-5.9-6.9c-2.7-2.9-5.4-5.9-7.9-9.1c-3.1-3.1-6.2-7.1-9.4-10.5c5-8.6,10.2-16.9,15.3-25.4c1.1-0.2,2.6-0.4,3.7-0.6
			c0.4,1.4,0.6,2.8,0.7,4.2c1.1,9.9,2,17.9,3,27c0.9,7.9,1.5,15.2,2.5,23.2C96.3,193,95.6,192.1,95,191.3z M95.1,138
			c0.5,0.1,1.1,0,1.6-0.1c0.7,8.9,1.2,20,1.6,28.6C97.1,157,95.9,147.4,95.1,138L95.1,138z M122.1,93.6c3.5,2.1,6.9,4.6,10.4,6.8
			c1.2,0.6,2.3,1.4,3.3,2.3c-4,0.8-8.3,1.6-12.6,2.5c-0.6-3.8-0.8-7.6-1.2-11.7L122.1,93.6z M120.7,113.3c-2.1-1.1-4.2-2.5-6.1-3.9
			c2-0.3,3.8-0.8,5.7-1C120.3,110.1,120.6,111.5,120.7,113.3L120.7,113.3z M109.7,89.2c0-0.1,0-0.3,0-0.4l0,0v-2.6l0.2-0.6
			c0.5,0.4,1.1,0.8,1.7,1.1c0,0.1-0.3,0.1-0.4,0.1c0.1,0.2,0.6,0,0.8,0.1c2.2,1.6,4.6,2.9,6.7,4.7c0.3,5,1,9.6,1.3,14.3
			c-2.1,0.5-3.8,0.8-6,1.2c0-0.3-0.2-0.6-0.5-0.8V106h0.1l-0.1-0.2v-1.1c0.1,0.2,0.1,0.3,0.2,0.5c0.4-0.8,0.4-1.8-0.2-2.6v-6.5
			c0-1-2.7-3.3-3.5-4l0.1-0.2c-0.1,0-0.2-0.1-0.3-0.2L109.7,89.2z M113.7,114.2c-0.3-0.1-0.1-0.8,0.2-0.5c0,0.1-0.1,0.1-0.2,0.1
			C113.9,113.9,113.7,113.9,113.7,114.2L113.7,114.2z M111,113.4c-0.5,0-0.6-0.2-0.9-0.3C110.3,112.9,110.9,113.1,111,113.4
			L111,113.4z M111.2,140.1c-1.2,7.6-2.3,15.6-3.3,21.9c-1.3,7.6-2.2,14.9-3.3,21.6c-1.2-15.9-1.8-29.9-2.5-46.9
			c3-0.6,5.9-1.3,9.1-1.6c0.1,1.5,0.3,2.9,0.6,4.3C111.7,139.8,111.3,139.8,111.2,140.1L111.2,140.1z M111.5,113.5
			c0.3,0.1,0.6,0.3,0.8,0.5C112.2,114,111.6,113.8,111.5,113.5L111.5,113.5z M113.4,114.6c0.7,0.3,0.6,0.7,0.9,1.2
			C114,115.4,113.3,115,113.4,114.6L113.4,114.6z M128.9,129.1c-0.3-0.1-0.3-0.6-0.6-0.7c-4.5-3-9-5.9-13.3-9.1
			c0.4-1,0.4-2.8-0.4-3.3c0-0.2,0.3-0.2,0.2-0.5c-0.5-0.6-0.7-1.3-0.5-2c7.1,4.4,14.5,9.5,21.8,14.1
			C133.7,128.3,131.3,128.8,128.9,129.1L128.9,129.1z M124,115.8c-0.2-2.8-0.6-5.4-0.7-8.1c4.5-0.9,9.3-2,13.7-2.6
			c0.6,6.8,1.3,13.7,1.9,20.3C133.8,122.4,129,119,124,115.8z"/>
	</g>
</g>
</svg>
