<?xml version="1.0" encoding="utf-8"?>
<!-- Generator: Adobe Illustrator 23.0.6, SVG Export Plug-In . SVG Version: 6.00 Build 0)  -->
<svg version="1.1" id="Layer_1" xmlns="http://www.w3.org/2000/svg" xmlns:xlink="http://www.w3.org/1999/xlink" x="0px" y="0px"
	 viewBox="0 0 512 512" style="enable-background:new 0 0 512 512;" xml:space="preserve">
<style type="text/css">
	.st0{fill:#FFFFFF;}
</style>
<path class="st0" d="M442-7H26C-0.5-7-22,14.5-22,41v352c0,26.5,21.5,48,48,48h416c26.5,0,48-21.5,48-48V41C490,14.5,468.5-7,442-7z
	 M358.4,283.5c4.8,4.8,4.8,12.6,0,17.4l-40.5,40.5c-4.8,4.8-12.6,4.8-17.4,0L234,274.3l-66.5,67.1c-4.8,4.8-12.6,4.8-17.4,0
	l-40.5-40.5c-4.8-4.8-4.8-12.6,0-17.4l67.1-66.5l-67.1-66.5c-4.8-4.8-4.8-12.6,0-17.4l40.5-40.5c4.8-4.8,12.6-4.8,17.4,0l66.5,67.1
	l66.5-67.1c4.8-4.8,12.6-4.8,17.4,0l40.5,40.5c4.8,4.8,4.8,12.6,0,17.4L291.3,217L358.4,283.5z"/>
</svg>
