<?xml version="1.0" encoding="utf-8"?>
<!-- Generator: Adobe Illustrator 23.0.6, SVG Export Plug-In . SVG Version: 6.00 Build 0)  -->
<svg version="1.1" id="Layer_1" xmlns="http://www.w3.org/2000/svg" xmlns:xlink="http://www.w3.org/1999/xlink" x="0px" y="0px"
	 viewBox="0 0 95.7 363.1" style="enable-background:new 0 0 95.7 363.1;" xml:space="preserve">
<style type="text/css">
	.st0{fill:#FFFFFF;}
</style>
<title>Asset 11</title>
<g>
	<g id="_Layer_">
		<path class="st0" d="M94.7,3.9c-0.5-0.7-1.1-1.5-1.6-2.1c-1.3-1.7-2.9-2.1-5.3-1.5c-4.7,1.1-8.8,3.8-12.9,6c-1.9,1-3.6,2.3-4.9,4
			c-0.3,0.4-0.5,0.9-0.6,1.4c0,0.7-0.5,1.3-1.2,1.5c-6.2,2.7-12.5,5.4-18.7,8.1c-5.6,2.5-11.3,4.9-16.9,7.7
			c-9.3,4.5-15.5,12-19.1,21.7c-1.5,4.2-1.9,8.5-2.1,12.8c0,0.8-0.2,1.2-1,1.3c-0.7,0.1-1.4,0.3-1.2,1.3c0.1,0.2-0.3,0.5-0.4,0.7
			c0.1,0.3,0.2,0.7,0.3,1c0,1.5-0.1,3-0.2,4.5c-0.1,0.3-0.2,0.6-0.4,0.9c0.2,0.3,0.3,0.7,0.3,1c-0.2,5-0.4,10-0.6,15
			c0,0.3-0.1,0.5-0.2,0.8H7.9c0,0.2,0,0.3-0.1,0.5c0.1,0.2,0.1,0.4,0.2,0.6c0.1,0.3,0.1,0.6,0.1,0.9c-0.2,4.8-0.4,9.7-0.6,14.5
			c-0.4,9.4-0.8,18.8-1.2,28.2c-0.3,6.4-0.5,12.7-0.7,19.1c-0.3,7.2-0.6,14.3-0.9,21.5c-0.2,6.2-0.5,12.3-0.7,18.5L3,214.8
			c-0.3,6.3-0.5,12.5-0.8,18.8c-0.3,6.6-0.5,13.2-0.8,19.8c-0.3,6.9-0.5,13.8-0.8,20.8C0.5,280.8,0.3,287.4,0,294v69.1h9v-18.3
			c-0.8-3.9-0.3-7.6-0.2-11.4c0-3.1,0.4-6.2,0.1-9.2c-0.5-6.2-0.1-12.5,0-18.7c0.1-5.6,0.2-11.2,0.3-16.9c0.1-5.7,0.3-11.5,0.4-17.2
			c0.1-5.2,0.2-10.3,0.4-15.4c0.3-12.1,0.6-24.1,0.9-36.2c0.2-9.8,0.4-19.7,0.6-29.5c0.3-12.9,0.7-25.8,1-38.7
			c0.5-17.1,0.9-34.3,1.4-51.4c0.1-1.7,0-3.5,0-5.1l0.3-0.1c0-1.2,0-2.4,0-3.6l0,0l0-0.3c0.1-1.4,0.2-2.8,0.3-4.3c0-0.3,0-0.5,0-0.7
			c0.1-3.5,0-7,0.2-10.5c0.1-1.1,0-2.1,0-3.2s0-2.2,0.1-3.3c0.1-0.3,0.1-0.5,0.3-0.8c-0.1-0.5-0.1-1-0.1-1.4c0.3-1.2,0.2-1.4-1-1.8
			c-0.6-0.2-0.8-0.5-0.7-1c0.1-3,0.5-6,1-9c2-8.8,7.2-16.6,14.6-21.7c3.3-2.1,6.7-3.9,10.4-5.4c7.7-3.4,15.4-6.7,23.1-10.1
			c2.6-1.1,5.2-2.2,7.9-3.4c0.8,1.5,1.9,1.2,3.3,0.7c2.1-0.7,4.2-1.1,6.3-1.7c0.8-0.2,1.5-0.4,2.3-0.7c0.6,0.6,1.1,1.8,2.4,1.4
			c0.9-0.3,1.9-0.2,2.7-0.9c0.2,0.1,0.5,0.1,0.7,0.1c2.6-0.7,4.7-2.3,6.7-3.8c0.7-0.5,1.1-1.3,0.9-2.1c-0.1-0.2-0.1-0.4,0-0.6
			C96.2,5.8,95.3,4.8,94.7,3.9z"/>
	</g>
</g>
</svg>
