<?xml version="1.0" encoding="utf-8"?>
<!-- Generator: Adobe Illustrator 23.0.6, SVG Export Plug-In . SVG Version: 6.00 Build 0)  -->
<svg version="1.1" id="Layer_1" xmlns="http://www.w3.org/2000/svg" xmlns:xlink="http://www.w3.org/1999/xlink" x="0px" y="0px"
	 viewBox="0 0 105.9 83.5" style="enable-background:new 0 0 105.9 83.5;" xml:space="preserve">
<style type="text/css">
	.st0{fill:#FFFFFF;}
</style>
<title>Asset 44</title>
<g>
	<g id="_Layer_">
		<polygon class="st0" points="10.8,29.7 26.5,26.8 15.7,19.3 0,22.2 		"/>
		<polygon class="st0" points="18.2,15.7 29,23.2 26.1,7.5 15.3,0 		"/>
		<path class="st0" d="M30.4,24.8L28.2,28c-3.5,5.1-2.3,12.2,2.9,15.7c0,0,0,0,0,0l15-21.7C40.9,18.5,33.9,19.7,30.4,24.8z"/>
		<path class="st0" d="M101.7,78.6l2.1-3.1c3.1-4.4,2.6-10.4-1.2-14.3L88,82.6C92.9,84.7,98.7,83.1,101.7,78.6z"/>
		
			<rect x="54" y="20.5" transform="matrix(0.5677 -0.8232 0.8232 0.5677 -14.2002 77.974)" class="st0" width="26.3" height="64.1"/>
	</g>
</g>
</svg>
