<?xml version="1.0" encoding="utf-8"?>
<!-- Generator: Adobe Illustrator 23.0.6, SVG Export Plug-In . SVG Version: 6.00 Build 0)  -->
<svg version="1.1" id="Layer_1" xmlns="http://www.w3.org/2000/svg" xmlns:xlink="http://www.w3.org/1999/xlink" x="0px" y="0px"
	 viewBox="0 0 90.7 76.5" style="enable-background:new 0 0 90.7 76.5;" xml:space="preserve">
<style type="text/css">
	.st0{fill:#FFFFFF;}
</style>
<g id="Layer_2_00000082362195093901101690000008767004575271826353_">
	<g id="_Layer_">
		<path class="st0" d="M74.3,30.1V18.7h-8.1L28.9,37.3c8.9-8.1,5.9-21.5,5.9-21.5h6.3V0.1H0v24.3c0,17,21.4,17.1,21.4,17.1L0,52.5
			v23.6l40.8,0.4c0,0-0.1-28.9,0.2-29.3S74.3,30.1,74.3,30.1z"/>
		<polygon class="st0" points="90.1,21.1 90.1,0 43.3,0 43.3,15.5 76.4,15.5 76.4,28.2 		"/>
		<polygon class="st0" points="90.1,41.4 90.1,25.5 43.3,49.5 43.3,76.4 90.7,76.4 90.7,61.3 84.1,61.3 84.1,44.1 		"/>
	</g>
</g>
</svg>
