<?xml version="1.0" encoding="utf-8"?>
<!-- Generator: Adobe Illustrator 23.0.6, SVG Export Plug-In . SVG Version: 6.00 Build 0)  -->
<svg version="1.1" id="Layer_1" xmlns="http://www.w3.org/2000/svg" xmlns:xlink="http://www.w3.org/1999/xlink" x="0px" y="0px"
	 viewBox="0 0 12 63" style="enable-background:new 0 0 12 63;" xml:space="preserve">
<style type="text/css">
	.st0{fill-rule:evenodd;clip-rule:evenodd;fill:#FFFFFF;}
</style>
<title>Asset 20</title>
<g>
	<g id="_Layer_">
		<path class="st0" d="M4.1,57.3L4.1,57.3L4.1,57.3z"/>
		<path class="st0" d="M0,57c0,0.7,0.1,1.3,0.1,1.9H12V14.8H0.1C0.1,15.6,0,16.3,0,17C0,30.3,0,43.7,0,57z"/>
		<path class="st0" d="M12,14.1V7.9H0.1v6.2H12z"/>
		<path class="st0" d="M12,63v-3.3H0.1V63H12z"/>
		<path class="st0" d="M1.9,7.3h8.6c-0.1-1-0.1-1.8-0.2-2.7H1.9V7.3z"/>
		<path class="st0" d="M9.2,3.9V0C7.1,0.9,5.1,1.7,3,2.5v1.4H9.2z"/>
		<path class="st0" d="M4.1,57.4L4.1,57.4L4.1,57.4z"/>
	</g>
</g>
</svg>
