<?xml version="1.0" encoding="utf-8"?>
<!-- Generator: Adobe Illustrator 23.0.6, SVG Export Plug-In . SVG Version: 6.00 Build 0)  -->
<svg version="1.1" id="Layer_1" xmlns="http://www.w3.org/2000/svg" xmlns:xlink="http://www.w3.org/1999/xlink" x="0px" y="0px"
	 viewBox="0 0 28 62.8" style="enable-background:new 0 0 28 62.8;" xml:space="preserve">
<style type="text/css">
	.st0{fill-rule:evenodd;clip-rule:evenodd;fill:#FFFFFF;}
</style>
<title>Asset 22</title>
<g>
	<g id="_Layer_">
		<path class="st0" d="M27.1,18.4V8.2L28,8.1V6.8l-1-0.2V4.1h-2.5c0,0.3-0.1,0.7-0.1,1.1l-1-0.8V0.2C22.6-0.1,4.8,0,4.2,0.2v4.3
			L3.6,4.8c0,0.6-0.1,1.2-0.2,1.7H3.3C3.2,5.7,3.1,4.9,3.1,4.1H0.6v2.4L0,6.7v1.4l0.6,0.2v10.1h9.6v9.5l-0.5,0.2v1.3l-0.5,0.2v5h9.2
			c0.1-0.3,0.4-0.6,0.4-0.8c0-1.4,0-2.7,0-4.1l-0.9-0.5v-1.2L17.5,28v-9.6H27.1z M3.3,7.3h0.2v1.2H3.3V7.3z M14.9,16.3V28h-2V16.3
			H3.1c0-2.4-0.1-4.7,0-6.9l0.6,0.8l0.4-0.3v4.4h19.4V9.8l1-0.2v6.7L14.9,16.3z"/>
		<path class="st0" d="M9.2,35.2v24h9.3c0.1-0.6,0.2-1.2,0.3-1.8c0-6.6,0-13.2,0-19.8c0-0.4-0.1-0.8-0.2-1.2l0.3-1.2
			C15.6,35.2,12.4,35.3,9.2,35.2z"/>
		<path class="st0" d="M8.3,60.4v2.4h11.1v-2.4l-0.7-0.6H8.9L8.3,60.4z"/>
	</g>
</g>
</svg>
