<?xml version="1.0" encoding="utf-8"?>
<!-- Generator: Adobe Illustrator 23.0.6, SVG Export Plug-In . SVG Version: 6.00 Build 0)  -->
<svg version="1.1" id="Layer_1" xmlns="http://www.w3.org/2000/svg" xmlns:xlink="http://www.w3.org/1999/xlink" x="0px" y="0px"
	 viewBox="0 0 80.4 79.1" style="enable-background:new 0 0 80.4 79.1;" xml:space="preserve">
<style type="text/css">
	.st0{fill:#FFFFFF;}
</style>
<g id="Layer_2_00000170258497188584578000000005473958764202363807_">
	<g id="_Layer_">
		<path class="st0" d="M4.3,63.2L6.4,64c7.6-4.1,11.7-16.2,15.4-23.8C15.6,43.8-6.3,53,4.3,63.2z"/>
		<path class="st0" d="M49.5,1.7C40,7.5,34.8,21.7,30,31.4c9.1-5.7,24.4-12.7,30.8-21.2C67,1.9,56.7-2.7,49.5,1.7z"/>
		<path class="st0" d="M31.4,35.4c11,2.9,28.3,10,39.4,6.7C84.7,38,83,21.3,68.9,21.3C59.5,21.3,39.7,31.4,31.4,35.4z"/>
		<path class="st0" d="M28.1,2.3c-10.5,6.1-4.1,19.2-1.8,28c2.9-6.9,10.6-21,8.6-28C32.2,1.1,30.7,0.8,28.1,2.3z"/>
		<path class="st0" d="M9.2,17.8C2.5,27.1,16.5,30,22.6,32.5c-1.1-3.4-4.4-16.9-8.5-17.9C12.2,14.7,10.3,16.3,9.2,17.8z"/>
		<path class="st0" d="M29.3,39.8C33.1,50.1,36.4,66,46,72.5s22.7-4.4,15.7-14.1C55.6,50,38.8,44,29.3,39.8z"/>
		<path class="st0" d="M1.5,43.8c4.5,1.2,15-5.2,19.3-7.4c-5.6-2-11.6-5.2-17.6-3.4C0.8,34.9-1.6,41.4,1.5,43.8z"/>
		<path class="st0" d="M23.9,79l3.5-1c7.7-5.7-0.5-28.2-2.2-36.3C22.2,49,5.8,78.6,23.9,79z"/>
	</g>
</g>
</svg>
