<?xml version="1.0" encoding="utf-8"?>
<!-- Generator: Adobe Illustrator 23.0.6, SVG Export Plug-In . SVG Version: 6.00 Build 0)  -->
<svg version="1.1" id="Layer_1" xmlns="http://www.w3.org/2000/svg" xmlns:xlink="http://www.w3.org/1999/xlink" x="0px" y="0px"
	 viewBox="0 0 37.7 67" style="enable-background:new 0 0 37.7 67;" xml:space="preserve">
<style type="text/css">
	.st0{fill:#FFFFFF;}
</style>
<title>Asset 26</title>
<g>
	<g id="_Layer_">
		<polygon class="st0" points="36.4,44.3 36.4,44.3 36.3,44.3 		"/>
		<polygon class="st0" points="36,61.4 36,61.4 36,61.4 		"/>
		<polygon class="st0" points="35.5,66.3 35.5,66.3 35.5,66.4 		"/>
		<polygon class="st0" points="36,61.9 36,61.9 36,61.9 		"/>
		<path class="st0" d="M36.4,44.3L36.4,44.3L36.4,44.3L36.4,44.3c-0.2-0.5-0.5-0.8-1-1c-1.6-0.5-3.3-0.8-5-1h-0.3h0.1
			c1.8,0.2,3.5,0.5,5.2,1c0.4,0.2,0.7,0.6,0.9,1H36.4c1.2,0.1,1.2,0.6,1.2,0.6l-1.7,16.5l0,0l0.1,0.5l0,0V62l-0.5,4.3l0,0l0,0
			c-0.6,0.8-6.4,0.5-8.6,0.3l-0.1,0.1l0,0.1c0.3,0,8,0.6,8.7-0.4l0,0l0.5-4.4v-0.2L36,61.4l0,0l0,0l0,0L37.7,45
			C37.7,45,37.8,44.4,36.4,44.3z"/>
		<path class="st0" d="M27,61.7L27,61.7l-0.1,0.1c0.9,0.1,3.1,0.4,5.1,0.5c3.8,0.2,3.9-0.2,4-0.3V62l0,0C35.7,62.7,29.4,62,27,61.7z
			"/>
		<path class="st0" d="M35,60.2L35,60.2L35,60.2z"/>
		<path class="st0" d="M36.3,44.3L36.3,44.3l-1.5,16l0,0c0.4,0.9,0.7,1.2,0.9,1.2c0.1,0,0.2,0,0.2,0v-0.1h-0.1h-0.1
			c-0.1-0.1-0.4-0.3-0.8-1.1l0,0l0,0L36.3,44.3L36.3,44.3z"/>
		<path class="st0" d="M34,60.1c0.3,0,0.6,0.1,0.9,0.2H35v-0.1c-0.1-0.2-0.8-0.2-1-0.2L34,60.1L34,60.1z"/>
		<path class="st0" d="M33.6,61.7L33.6,61.7L33.6,61.7z"/>
		<path class="st0" d="M34,42.9L34,42.9c-0.1,0.2-1.7,16.8-1.8,16.9c0.1,0.6,0.2,1.3,0.4,1.8c0.2,0.4,0.9,0.2,1,0.2l0,0
			c0.2-0.7,0.3-1.3,0.5-2c0.1-0.7,1.5-16.3,1.5-16.4l-0.1-0.1l-0.1,0.1c0,0.2-1.4,15.7-1.5,16.4c-0.1,0.7-0.2,1.3-0.4,2l0,0l0,0l0,0
			c-0.2,0-0.7,0.1-0.8-0.2c-0.2-0.6-0.3-1.2-0.4-1.8c0-0.1,1.7-16.7,1.7-16.9L34,42.9z"/>
		<path class="st0" d="M34.7,43L34.7,43c0,0-0.2,0.1-1.1,9.4c-0.5,4.6-0.9,9.2-0.9,9.2l0.1,0.1l0.1-0.1C33.4,55.3,34.6,43.4,34.7,43
			L34.7,43L34.7,43L34.7,43z"/>
		<polygon class="st0" points="28.8,59.5 28.9,59.6 32.2,60 32.3,60 32.2,59.9 28.9,59.5 		"/>
		<polygon class="st0" points="31,42.4 30.9,42.4 30.9,42.4 		"/>
		<polygon class="st0" points="29.6,42.3 29.5,42.3 29.5,42.3 		"/>
		<path class="st0" d="M29.7,42.2v0.1c0.4,0,0.8,0,1.3,0.1l0,0l0,0l0,0c0.2,0.5-1,8.8-1.6,12.9C29.2,56.7,29,57.8,29,58
			c-0.1,0.9-0.3,1.9-0.6,2.8c0,0.1-0.1,0.2-0.2,0.2c-0.3,0.2-0.9-0.1-0.9-0.1c-0.2-0.1,0-2.8,0.2-3.7c0-0.2,0.2-1.4,0.4-3.1
			c0.5-4,1.5-11.4,1.7-11.9l0,0l0,0l0,0h0.1V42.2l-0.2,0c-0.1,0-0.1,0-0.8,4.4c-0.3,2.4-0.8,5.4-1,7.6c-0.2,1.7-0.4,2.9-0.4,3.1
			s-0.5,3.6-0.1,3.8c0.3,0.2,0.7,0.2,1,0.1c0.1,0,0.2-0.1,0.3-0.3C28.8,60,29,59,29.1,58c0-0.3,0.2-1.3,0.4-2.8
			c0.3-2.3,0.8-5.5,1.1-8.1c0.6-4.8,0.5-4.8,0.4-4.8C30.6,42.2,30.1,42.2,29.7,42.2z"/>
		<path class="st0" d="M29.8,42.2c0,0,0,0-0.1,0.3l0,0l0,0c-0.1,0.7-0.4,2.7-1.3,9.1c-0.6,4.6-1.2,9.3-1.3,9.3l0.1,0.1l0.1,0
			c0.8-6.3,2.5-18.4,2.6-18.7l0,0L29.8,42.2z"/>
		<path class="st0" d="M28.2,61L28.2,61c0.1,0,0.8-4.8,1.4-9.4c1.2-9.4,1-9.4,0.9-9.4l0,0h-0.1l0,0.1l0,0
			C30.7,42.7,29.2,53.7,28.2,61L28.2,61z"/>
		<polygon class="st0" points="21.1,60 21.1,60 21.1,60 		"/>
		<polygon class="st0" points="20.5,64.5 20.5,64.4 20.5,64.5 		"/>
		<polygon class="st0" points="21.2,59.5 21.2,59.5 21.2,59.6 		"/>
		<polygon class="st0" points="25.1,43 25.1,43 25.1,43 		"/>
		<path class="st0" d="M21.1,60.1L21.1,60.1L21.1,60.1L21.1,60.1l0.2-0.4l0,0l2.4-16.3c0,0,0.1-0.5,1.4-0.3h0.1
			c0.3-0.4,0.7-0.7,1.1-0.8c1.1,0,2.1,0,3.2,0.1v-0.1c-1.1-0.1-2.2-0.1-3.2-0.1c-0.5,0.1-0.9,0.4-1.2,0.8l0,0H25l0,0
			c-1.4-0.2-1.5,0.4-1.5,0.4l-2.3,16.3l0,0l0,0l0,0L21,60.1l0,0v0.1l-0.6,4.3l0,0c0.3,0.8,3.7,1.6,6,2.1v-0.1
			c-2.5-0.5-5.7-1.3-5.9-2l0,0l0,0L21.1,60.1L21.1,60.1z"/>
		<path class="st0" d="M21,60.1L21,60.1c-0.1,0.2,0.1,0.7,3.7,1.4c0.8,0.2,1.6,0.3,2.4,0.4v-0.1C24.4,61.3,21.1,60.7,21,60.1
			L21,60.1z"/>
		<path class="st0" d="M22.5,58.6L22.5,58.6L22.5,58.6z"/>
		<path class="st0" d="M25.1,43l-2.6,15.6l0,0l0,0c-0.5,0.7-0.9,0.9-1,0.9c0,0-0.1,0-0.1,0h-0.1v0.1c0.1,0,0.2,0.1,0.2,0
			c0.2,0,0.6-0.2,1.1-1l0,0l2.6-15.8l0,0L25.1,43L25.1,43z"/>
		<path class="st0" d="M22.5,58.6L22.5,58.6L22.5,58.6c0.4,0.1,0.7,0.1,1,0.2l0.1,0l0-0.1C23.3,58.6,22.6,58.5,22.5,58.6z"/>
		<polygon class="st0" points="23.5,60.5 23.5,60.5 23.5,60.5 		"/>
		<path class="st0" d="M26.2,42.2L26.2,42.2h-0.1c0,0.2-2.5,15.4-2.6,16.1c-0.1,0.7-0.1,1.4-0.1,2.1v0.1c0,0,0.7,0.3,1,0
			c0.4-0.5,0.6-1.1,0.9-1.7c0-0.1,2.5-16,2.6-16.7h-0.1c-0.1,0.9-2.5,16.6-2.6,16.7c-0.2,0.6-0.5,1.1-0.8,1.6c-0.2,0.2-0.6,0-0.8,0
			l0,0v-0.1l0,0c0-0.7,0-1.3,0.1-2C23.7,57.7,26.2,42.4,26.2,42.2z"/>
		<path class="st0" d="M24.4,60.6L24.4,60.6c0.1-0.1,0.8-4.7,1.5-9.2c1.1-7.3,1.3-8.8,1.3-9.2H27C27,43.2,25.2,54.5,24.4,60.6
			L24.4,60.6z"/>
		<path class="st0" d="M27,42.1L27,42.1z"/>
		<polygon class="st0" points="25.2,59.1 27.1,59.4 27.1,59.3 25.2,59 25.2,59 		"/>
		<path class="st0" d="M27,66.8v-0.1c-0.2,0-0.4,0-0.6-0.1l0,0.1C26.6,66.8,26.8,66.8,27,66.8z"/>
		<path class="st0" d="M15.7,17.2L15.7,17.2l-2.8-3l0.3-5.6V8.5L13,8.4l-0.1-0.6l-0.1-0.1l-0.9-0.1L12,1.9V1.8L5.4,0H5.4v0.1
			L4.9,7.1c-0.2,0-0.5,0.1-0.7,0.1L4.1,7.3L4,7.7l0,0L3.9,7.8L4,7.9L3.8,8.1v0.1l-0.5,5.8l-2.8,2.6l0,0l0,0l0,0l-0.3,7.8l0,0
			c0.1,0.2,0.2,0.3,0.3,0.4C0.3,25,0.1,25.3,0,25.5l0,0l1.6,38.3l0,0c1.1,2.8,5.4,2.8,5.5,2.8c5-0.3,5.4-2.6,5.4-2.7s1.8-22.9,2-27
			S15,25.6,15,25.6v-0.1c0.2-0.1,0.3-0.2,0.5-0.4c0-0.1,0-0.2,0-0.3L15.7,17.2L15.7,17.2z M5.5,0.2l6.3,1.7l-0.2,5.6
			C9.5,7.1,7.3,7,5.1,7.1L5.5,0.2z M4.3,7.4c2.3-0.6,7.8,0.3,8.4,0.4l0.1,0.5C9.9,7.9,7.1,7.7,4.2,7.7L4.3,7.4z M3.9,8.2L4.1,8l0,0
			V7.9c2.9,0,5.8,0.2,8.7,0.6L13,8.7l-0.3,5.5c-0.7,0-6.3,0.1-9.4-0.3L3.9,8.2z M3.3,14.1c3.2,0.4,9,0.3,9.5,0.3l2.7,2.8
			c-0.3,0.2-1.8,0.8-7.5,0.4c-5.4-0.4-6.9-0.8-7.3-0.9L3.3,14.1z M14.3,36.9c-0.3,4.1-2,26.8-2.1,27c0,0-0.4,2.2-5.2,2.6
			c0,0-4.2,0-5.3-2.7L0.2,25.7c0.1-0.3,0.2-0.5,0.4-0.7c0.8,0.7,2.8,1.7,8,1.5c3.7-0.2,5.4-0.5,6.2-0.9
			C14.8,25.6,14.6,32.8,14.3,36.9L14.3,36.9z M15.2,24.8L15.2,24.8c0,0.1,0,0.2,0,0.2c-0.2,0.3-1.2,1-6.6,1.3
			c-6.9,0.3-8.1-1.7-8.2-1.9l0.3-7.6C1,16.9,1.4,17,1.7,17c0.9,0.2,2.8,0.4,6.3,0.7c5.4,0.4,7.1-0.1,7.6-0.4L15.2,24.8z"/>
		<path class="st0" d="M11.7,7.5l0.2-5.7L5.5,0.1L5,7.2C7.2,7.2,9.5,7.3,11.7,7.5z"/>
	</g>
</g>
</svg>
