<?xml version="1.0" encoding="utf-8"?>
<!-- Generator: Adobe Illustrator 23.0.6, SVG Export Plug-In . SVG Version: 6.00 Build 0)  -->
<svg version="1.1" id="Layer_1" xmlns="http://www.w3.org/2000/svg" xmlns:xlink="http://www.w3.org/1999/xlink" x="0px" y="0px"
	 viewBox="0 0 40 68.7" style="enable-background:new 0 0 40 68.7;" xml:space="preserve">
<style type="text/css">
	.st0{fill-rule:evenodd;clip-rule:evenodd;fill:#FFFFFF;}
</style>
<title>Asset 29</title>
<g>
	<g id="_Layer_">
		<path class="st0" d="M5.1,28.6c-1.8,0-1,2.8-1,4.2c0,0.1,0.4,0.1,1,0.1H35c0.4,0,0.8,0,0.8-0.1c0-1.4,1-4.3-0.8-4.3L5.1,28.6z"/>
		<path class="st0" d="M2.7,34.9v4.7c0,0.3,0.3,0.6,0.6,0.6c0.3,0.1,0.7-0.2,0.7-0.5c0,0,0,0,0,0v-4.7c0-0.4-0.3-0.7-0.6-0.7
			c0,0-0.1,0-0.1,0C2.9,34.2,2.7,34.5,2.7,34.9C2.7,34.9,2.7,34.9,2.7,34.9z"/>
		<path class="st0" d="M2.3,35v4.3c0,0.3,0.3,0.6,0.6,0.6c0.3,0,0.5-0.3,0.6-0.6V35c0-0.3-0.3-0.6-0.6-0.6C2.5,34.4,2.3,34.7,2.3,35
			z"/>
		<path class="st0" d="M1.6,35.9v2.4c0,0.3,0.3,0.4,0.6,0.4s0.6-0.1,0.6-0.4v-2.4c0-0.1-0.3-0.3-0.6-0.3S1.6,35.7,1.6,35.9z"/>
		<path class="st0" d="M36,34.9v4.7c0,0.3,0.3,0.6,0.6,0.6c0.3,0,0.5-0.2,0.6-0.5c0,0,0-0.1,0-0.1v-4.7c0-0.4-0.1-0.7-0.6-0.7
			C36.2,34.2,36,34.5,36,34.9C36,34.9,36,34.9,36,34.9z"/>
		<path class="st0" d="M36.6,35v4.3c0,0.3,0.2,0.6,0.5,0.6c0.3,0,0.6-0.2,0.6-0.5c0,0,0-0.1,0-0.2V35c0-0.3-0.2-0.6-0.5-0.6
			c-0.3,0-0.6,0.2-0.6,0.5C36.6,34.9,36.6,34.9,36.6,35z"/>
		<path class="st0" d="M37.3,35.9v2.4c0,0.3,0.3,0.4,0.6,0.4c0.2,0,0.4-0.1,0.4-0.3c0,0,0-0.1,0-0.1v-2.4c0-0.1-0.1-0.3-0.4-0.3
			S37.3,35.7,37.3,35.9z"/>
		<path class="st0" d="M38.7,39.7H40V20C40,9,31,0,20,0C9,0.1,0.1,9,0,20v19.7h1.3V20.1C1.3,9.8,9.7,1.4,20,1.4
			c10.3,0,18.7,8.4,18.7,18.7c0,0,0,0,0,0C38.7,20.1,38.7,39.7,38.7,39.7z"/>
		<path class="st0" d="M35.9,68.7V33.2H4.1v35.6H35.9z M5,34.2h30v33.6H5V34.2z"/>
	</g>
</g>
</svg>
