<?xml version="1.0" encoding="utf-8"?>
<!-- Generator: Adobe Illustrator 23.0.6, SVG Export Plug-In . SVG Version: 6.00 Build 0)  -->
<svg version="1.1" id="Layer_1" xmlns="http://www.w3.org/2000/svg" xmlns:xlink="http://www.w3.org/1999/xlink" x="0px" y="0px"
	 viewBox="0 0 34.2 65.9" style="enable-background:new 0 0 34.2 65.9;" xml:space="preserve">
<style type="text/css">
	.st0{fill:#FFFFFF;}
</style>
<title>Asset 35</title>
<g>
	<g id="_Layer_">
		<path class="st0" d="M32.5,3.8H1.7C1.3,3.8,0.9,3.8,0.5,4C0.2,4.1,0,4.3,0,4.5v59c0,0.2,0.2,0.4,0.5,0.6c0.4,0.1,0.8,0.2,1.2,0.2
			h30.8c0.4,0,0.8-0.1,1.2-0.2c0.3-0.2,0.5-0.3,0.5-0.5v-59c0-0.2-0.2-0.4-0.5-0.5C33.3,3.8,32.9,3.8,32.5,3.8z"/>
		<path class="st0" d="M29.8,1.6H4.4C4,1.6,3.6,1.7,3.2,1.8C2.9,2,2.8,2.2,2.8,2.4v0.7h28.7V2.4c0-0.2-0.2-0.4-0.5-0.5
			C30.6,1.7,30.2,1.6,29.8,1.6z"/>
		<path class="st0" d="M17.1,0h-3.3c-0.1,0-0.2,0-0.3,0.1l-0.1,0.1v0.7h7.4V0.2l-0.1-0.1C20.6,0,20.5,0,20.4,0H17.1z"/>
		<path class="st0" d="M3.2,65.6c0.4,0.2,0.8,0.2,1.2,0.2h25.4c0.4,0,0.8-0.1,1.2-0.2c0.3-0.1,0.5-0.3,0.5-0.6H2.8
			C2.8,65.3,2.9,65.5,3.2,65.6z"/>
	</g>
</g>
</svg>
