<?xml version="1.0" encoding="utf-8"?>
<!-- Generator: Adobe Illustrator 23.0.6, SVG Export Plug-In . SVG Version: 6.00 Build 0)  -->
<svg version="1.1" id="Layer_1" xmlns="http://www.w3.org/2000/svg" xmlns:xlink="http://www.w3.org/1999/xlink" x="0px" y="0px"
	 viewBox="0 0 19.4 64.1" style="enable-background:new 0 0 19.4 64.1;" xml:space="preserve">
<style type="text/css">
	.st0{fill:#FFFFFF;}
</style>
<title>Asset 37</title>
<g>
	<g id="_Layer_">
		<polygon class="st0" points="17.5,2.2 17.5,3.2 18.5,3.2 		"/>
		<polygon class="st0" points="18.5,62.1 17.5,62.1 17.5,63.1 		"/>
		<polygon class="st0" points="2,63.1 2,62.1 1,62.1 		"/>
		<polygon class="st0" points="1,3.2 2,3.2 2,2.2 		"/>
		<path class="st0" d="M0,1.2v62.9h19.4V1.2H0z M17.5,3.2v-1l1,1H17.5v59h1l-1,1v-1H2v1l-1-1h1v-59H1l1-1v1L17.5,3.2z"/>
		<polygon class="st0" points="16.4,53.1 3,61.1 16.4,61.1 		"/>
		<polygon class="st0" points="16.4,51.7 16.4,39.4 3,47 3,59.8 		"/>
		<polygon class="st0" points="16.4,37.5 16.4,25.3 3,32.9 3,45.7 		"/>
		<rect x="3.4" y="0" class="st0" width="12.6" height="2.2"/>
	</g>
</g>
</svg>
