<?xml version="1.0" encoding="utf-8"?>
<!-- Generator: Adobe Illustrator 23.0.6, SVG Export Plug-In . SVG Version: 6.00 Build 0)  -->
<svg version="1.1" id="Layer_1" xmlns="http://www.w3.org/2000/svg" xmlns:xlink="http://www.w3.org/1999/xlink" x="0px" y="0px"
	 viewBox="0 0 75.6 79.4" style="enable-background:new 0 0 75.6 79.4;" xml:space="preserve">
<style type="text/css">
	.st0{fill-rule:evenodd;clip-rule:evenodd;fill:#FFFFFF;}
</style>
<title>Asset 46</title>
<g>
	<g id="_Layer_">
		<path class="st0" d="M69,44.5c-0.2,0.2-0.2,0.4-0.3,0.7s-0.2,0.4-0.3,0.6c-0.2,0.4-0.4,0.8-0.5,1.2c2.4-4.9,4.8-10.1,7.2-15
			c0.3-0.6,0.9-1.8,0.3-2.4c-0.3-0.4-0.8-0.8-1.3-1.1c-2.6-2.4-5.1-4.6-7.7-6.9c-0.4-0.4-0.8-0.8-1.3-1.1c-0.5-0.1-1-0.2-1.5-0.1
			c0.2-1.5-0.7-2-1.5-2.7c-2.5-2.1-4.8-4.2-7.2-6.3c-0.4-0.4-0.8-0.7-1.2-1.1c-0.5-0.2-1.1-0.3-1.6-0.3c0-0.3,0-0.7,0-1
			C51.8,8.4,51.4,8,51,7.7c-0.4-0.4-0.9-0.7-1.3-1.1c-2.1-1.8-4.2-3.6-6.4-5.4c-0.4-0.3-0.9-1-1.3-1.1c-0.9-0.3-1.5,0.4-2.1,0.8
			c-1.3,0.8-2.6,1.6-3.7,2.3c-0.8,0.4-1.6,1-2.5,1.5s-2.3,1.2-2.6,2.4c-0.8,0-1.5,0.3-2.1,0.7c-2.7,1.7-5.3,3.3-8,4.9
			c-1.1,0.6-1.7,1-1.9,2.4s-0.3,3-0.5,4.4c0,0.5-0.1,1-0.2,1.4c-1.6-0.6-3.2-1.2-4.8-1.8c-0.5-0.2-1-0.4-1.6-0.6
			c-1.4-0.3-2.2,0.5-3,1c-2.2,1.4-4.3,2.6-6.6,4.1c-0.8,0.5-2.1,1-2.4,1.9c-0.1,1,0,2,0.5,2.8c0.8,2.8,1.8,5.5,2.7,8.2
			c0.3,0.9,0.4,1.4,1.2,1.7c-0.3-0.3-0.6-0.7-0.9-1.1c-0.8-2.5-1.6-5.4-2.5-8c-0.2-0.4-0.3-0.8-0.3-1.2c0.1-0.6,0.7-0.4,1.2-0.2
			c0.3,0.1,0.6,0.3,0.8,0.4C4,28.7,5,29.1,6.1,29.6c0.6,0.2,1.1,0.4,1.7,0.7c0.6,0.4,0.9,1.4,1.1,2.4c0.8,2.5,1.6,4.9,2.3,7.3
			c0.1,0.3,0.2,0.7,0.2,1c-0.2,0.5-0.7,0.3-1.1,0.1c-1.8-0.8-3.6-1.8-5.3-2.5c-0.8,0.6-0.4,2-0.1,2.9c0.8,2.5,1.7,5.2,2.5,7.7
			c0.3,0.9,0.3,1.5,1.2,1.8c0-0.2-0.3-0.4-0.4-0.6c-0.3-0.6-0.6-1.3-0.8-2c-0.5-1.5-0.9-2.8-1.4-4.3c-0.3-0.8-0.6-1.7-0.7-2.6
			c0.1-0.3,0.4-0.3,0.8-0.3c0.5,0.2,1.1,0.4,1.6,0.7c0.5,0.2,1,0.5,1.6,0.7c0.5,0.3,1,0.5,1.6,0.7c0.5,0.2,1,0.4,1.5,0.8
			c0.7,0.9,1.2,2,1.4,3.2c0.2,0.7,0.4,1.3,0.6,2c0.4,1.4,0.9,2.8,1.1,3.9c0.1,0.2,0.2,0.9-0.1,1s-0.7-0.1-0.8-0.2
			c-0.2-0.1-0.5-0.3-0.8-0.3c-1.6-0.9-3.5-1.5-5-2.5c-0.3,0.3-0.4,0.8-0.4,1.2c0.2,0.7,0.4,1.3,0.6,1.9c0.4,1.3,0.9,2.7,1.3,3.9
			c0.2,0.7,0.4,1.3,0.7,1.9c-0.4-1.7-1-3.4-1.5-5c-0.2-0.5-0.4-1.1-0.5-1.7C8.6,52.1,9.6,52.8,10,53c1,0.5,1.8,1,2.6,1.5
			c0.6,0.3,1.1,0.6,1.8,1c0.6,0.3,1.2,0.6,1.7,1.1c0.4,0.7,0.7,1.4,0.9,2.2c0.6,2,1.1,3.9,1.7,6c0,0.2,0.4,1.1,0,1.2
			s-0.8-0.3-1.1-0.5c-1.1-0.6-1.9-1.2-2.9-1.7c-1.3-0.8-2.8-1.4-3.5-2.7c0-0.1,0-0.3-0.1-0.4c0.2,1.7,1.6,2.2,2.9,3l5.2,3.1
			c0.6,0.3,1.4,1,1.9,0.3c-0.7-2.2-1.5-4.8-2.1-7.1c-0.1-0.3-0.2-0.7-0.3-1s-0.1-0.8,0.1-0.9s0.8,0.2,1.1,0.3c1,0.5,1.9,1,2.8,1.5
			c0.6,0.3,1.3,0.6,1.9,1c0.8,0.4,1.6,0.9,2.3,1.5c0.4,0.7,0.6,1.4,0.7,2.2l0.5,1.8c0.1,0.3,0.2,0.6,0.3,1c0.2,0.7,0.3,1.2,0.5,1.8
			c0.3,0.9,0.5,1.8,0.5,2.8c-0.4,0.4-1,0-1.4-0.3s-0.7-0.4-1-0.6c-2-1.3-4.3-2.2-5.8-3.8c0.1,0.9,0.7,1.1,1.4,1.5
			c2.3,1.3,4.5,2.6,6.7,3.9c0.4,0.3,0.7,0.5,1.1,0.6c0.4,0.1,0.9,0.1,1.3-0.2c0.2,0.9,0.8,1.2,1.6,1.6c2.3,1.3,4.6,2.7,6.9,4
			c0.4,0.3,0.8,0.5,1.2,0.7c1.1,0.3,1.7-0.4,2.2-0.9c2.5-2,4.8-3.8,7.2-5.7c0.4-0.3,0.8-0.6,1.2-1c0.3-0.3,0.4-0.8,0.3-1.2
			c-0.1-0.9-0.3-1.7-0.5-2.5c-0.1-0.4-0.2-0.8-0.3-1.3c-0.1-0.4-0.2-0.9-0.3-1.3c0-0.2,0.6-0.6,0.8-0.8c0.7-0.6,1.2-1,1.8-1.5
			c0.3-0.3,0.7-0.5,0.7-0.9c-0.2,0-0.2,0.3-0.3,0.4c-0.2,0.2-0.5,0.4-0.8,0.6c-0.8,0.6-1.6,1.3-2.4,1.8c-0.3-1-0.5-2.1-0.7-3.2
			c1.5-1.1,2.8-2.3,4.3-3.4c0.4-0.5,1-0.8,1.6-1c0.3,0.4-0.1,0.8-0.2,1.1c-0.5,1.1-1,2.2-1.4,3.4c0.6,0.4,1-0.3,1.4-0.6
			c-0.5,0-0.1-0.6,0-0.9c0.7-1.6,1.6-3.4,2.3-4.9c1.2-1.1,2.4-2.2,3.7-3.1c1-0.8,2-1.5,2.9-2.2c0.3-0.2,0.6-0.6,1.1-0.6
			c0,0.3-0.1,0.5-0.3,0.7c-0.8,1.7-1.6,3.3-2.3,5c-0.4,0.4-0.8,0.8-1.2,1.2c0.6-0.3,1.1-0.7,1.5-1.2c1.1-2.4,2.3-4.7,3.4-7.1
			c0.2-0.3,0.4-0.6,0.4-1c-0.6,0.8-1.4,1.5-2.2,2c-1.6,1.3-3.2,2.5-4.8,3.7c-0.3,0.3-0.7,0.5-1,0.7c-0.2-0.4,0.1-0.7,0.3-1
			c0.5-1,1-2,1.5-3c0.3-0.7,0.6-1.4,1-2c0.3-0.7,0.8-1.3,1.3-1.8c2-1.5,4-3,5.9-4.5c0.3-0.2,0.6-0.5,1-0.5c0,0.7-0.5,1.1-0.7,1.7
			C69.5,43.3,69.2,43.9,69,44.5z M64.2,20.8c0.9-0.1,1.3,0.6,1.9,1.1c2.4,2,4.7,4.1,7.2,6.2c0.4,0.3,1,0.7,0.9,1.3
			c-0.1,0.3-0.6,0.7-0.9,0.9c-1.7,1.4-3.4,2.6-5.1,4c-0.3,0.3-0.6,0.5-1,0.8c-0.5,0.4-1,1-1.9,0.7c-0.4-0.1-0.9-0.7-1.3-1
			c-2.4-2.2-4.7-4.2-7.1-6.4c-0.3-0.3-1-0.8-1.1-1.1s0.4-0.8,0.8-1.1c2.1-1.6,4.1-3.1,6.2-4.7C63.3,21.2,63.7,20.9,64.2,20.8z
			 M66.3,37c0,0.2-0.1,0.4-0.3,0.6c-0.8,0.5-1.7-1-0.6-1.2c0.3-0.1,0.7,0.1,0.8,0.4C66.3,36.9,66.3,36.9,66.3,37z M53.3,45.5
			c0.4-0.5,1.3-0.5,1.4,0.2C54.8,46.8,53.2,46.7,53.3,45.5L53.3,45.5z M54,47.8c-0.1,1-0.4,1.9-0.9,2.8c-0.2,0.4-0.4,0.9-0.6,1.3
			c-0.2,0.4-0.4,0.8-0.8,1c0.1-0.9,0.4-1.8,0.8-2.7c0.3-0.8,0.8-1.6,1.3-2.3L54,47.8L54,47.8z M53.5,43.8c-2-1.9-3.9-3.7-5.9-5.5
			c-0.8-0.7-1.6-1.4-2.3-2.3c-0.3-1,0.4-1.2,1-1.6c1.8-1.3,3.5-2.7,5.3-4c0.7-0.5,1.4-1.1,2.2-1.5c0.3,0,0.6,0,0.8,0
			c2.8,2.5,5.5,5,8.3,7.5c0.4,0.3,1,0.7,1,1.3s-0.6,0.8-1,1c-2.3,1.8-4.4,3.4-6.7,5.2c-0.3,0.3-0.8,0.7-1.2,0.7S53.9,44.2,53.5,43.8
			L53.5,43.8z M39.2,63.4c-0.6-2.7-1.2-5.2-1.9-7.8c-0.2-0.6-0.3-1.3-0.1-1.9c0.3-0.7,1.5-1.3,2.1-1.8c1.7-1.3,3.6-2.7,5.4-4.1
			c0.4-0.3,0.8-0.6,1.3-0.7c0.6-0.1,0.8,0.4,1,1.1c0.5,2.5,1.1,4.9,1.7,7.5c0.3,0.6,0.3,1.4,0,2c-0.3,0.4-0.6,0.7-1,0.9
			c-2.1,1.7-4.3,3.4-6.4,5.1c-0.3,0.3-0.8,0.7-1.3,0.6S39.3,63.9,39.2,63.4z M38.5,67.3c-0.3-0.1-0.4-0.5-0.2-0.7
			c0.1-0.1,0.2-0.2,0.4-0.3C39.7,66.1,39.3,67.7,38.5,67.3z M35.7,51.5c-0.5-0.1-0.5-0.6-0.7-1.1c-0.7-2.8-1.4-5.7-2.2-8.6
			c-0.3-0.7-0.3-1.5,0.1-2.2c0.3-0.3,0.7-0.6,1.1-0.9l7-4.7c0.5-0.4,1.5-1.4,2.3-0.7c0.4,0.8,0.6,1.6,0.7,2.5
			c0.5,2.3,0.9,4.4,1.4,6.6c0.2,0.6,0.3,1.3,0.1,1.9c-0.7,0.8-1.6,1.5-2.5,2c-2,1.4-3.9,2.9-5.9,4.4C36.7,51.1,36.2,51.6,35.7,51.5z
			 M35.8,53.9c-0.7,0-1-1.1-0.2-1.3C36.7,52.4,36.7,53.9,35.8,53.9z M24.8,48.3c-0.2,0.3-0.5,0.4-0.8,0.2s-0.4-0.5-0.2-0.8l0,0
			c0.1-0.2,0.3-0.2,0.5-0.3c-0.1-0.3-0.3-0.5-0.5-0.7c-0.2-0.6-0.4-1.2-0.5-1.8c-0.4-1.4-0.8-2.8-1.3-4.1c-0.2-1.1-0.7-2.2-1-3.4
			c-0.1-0.5-0.6-2,0.5-1.8c0.2,0,0.3,0.1,0.5,0.2c1.3,0.5,2.8,1.2,4.1,1.7c1.2,0.5,2.4,0.9,3.5,1.4c0.2,0.1,0.4,0.2,0.6,0.3
			c0.8,0.8,0.8,2.5,1.2,3.4c0.6,2.3,1.2,4.8,1.8,7c0.1,0.4,0.5,1.3,0.1,1.6c-0.9-0.1-1.7-0.4-2.5-0.9c-2-0.9-4-1.8-6-2.7
			C24.7,47.9,24.9,48.2,24.8,48.3z M30,27.9c0.8-0.7,1.9-1.1,3-0.9c0.4,0.1,0.7,0.3,1,0.4c2,0.9,4.2,1.8,6.2,2.7
			c0.4,0.2,0.8,0.4,0.8,0.7c0.2,0.8-0.7,0.8-1.1,1.3c-2.1,1.4-4.3,3-6.5,4.4c-0.7,0.6-1.4,1.1-2.3,1.4c-0.6,0.1-1.3-0.1-1.8-0.5
			l-6.5-3c-0.4-0.2-0.8-0.4-0.9-0.7s0.4-0.8,0.9-1.1C25.3,31,27.6,29.5,30,27.9z M29.8,23.4c0.2-0.5,1.2-0.3,1.3,0.1
			c0.1,0.7-0.3,1-0.9,0.9C29.8,24.2,29.6,23.8,29.8,23.4L29.8,23.4z M42.5,18.2c0.4,0.2,0.8,0.5,1.1,0.9c2.1,1.8,4.3,3.8,6.4,5.6
			c0.5,0.5,1.6,1,1.4,2.1c-0.1,0.4-0.5,0.6-0.9,0.9c-2.1,1.5-3.9,2.9-6.1,4.4c-0.2-0.2-0.3-0.4-0.4-0.6c-0.9-1.1-2.7-1.6-4.3-2.2
			s-2.8-1.1-4.2-1.6c-0.7-0.7-1.4-1.4-2.1-2.1c-0.3-0.3-0.7-0.6-0.5-1.2c0.1-0.4,0.6-0.6,1-0.9l6.5-4.4C41,18.6,41.5,18,42.5,18.2
			L42.5,18.2z M41.2,15.2c0.2-0.8,1.7-0.5,1.3,0.5c-0.2,0.4-0.6,0.6-1,0.4C41.2,16,41,15.6,41.2,15.2L41.2,15.2z M44.7,18.9
			L44.7,18.9L44.7,18.9c2,1.2,3.9,2.7,5.5,4.4c0.6,0.5,1.1,1.1,1.5,1.7c-1.4-0.8-2.6-1.7-3.8-2.8c-0.6-0.5-1.2-1-1.7-1.6
			C45.7,20.1,45.1,19.5,44.7,18.9L44.7,18.9z M32.4,39.5c-0.2,0.3-0.6,0.4-1,0.2c-0.2-0.1-0.4-0.4-0.3-0.7c0-0.3,0.3-0.6,0.6-0.6
			c0.4-0.1,0.7,0.1,0.8,0.5C32.5,39.1,32.5,39.3,32.4,39.5z M26.8,37c-0.3,0.1-0.7-0.2-1-0.4C26.1,36.6,26.5,36.8,26.8,37z
			 M48.1,40.5v-0.1l0,0c0.9,0.6,1.7,1.3,2.4,2.2c0.2,0.2,0.6,0.5,0.6,0.8C50,42.5,49,41.6,48.1,40.5z M52.8,25.9
			c0-0.1,0.3-0.3,0.6-0.4c1-0.2,1,1.2,0.3,1.3c-0.5,0-0.8-0.3-0.9-0.8C52.7,26,52.7,26,52.8,25.9z M59.2,31.7v-0.1l0,0
			c0.6,0.4,1.2,0.8,1.8,1.4c0.6,0.4,1.1,0.9,1.5,1.5c-0.6-0.3-1.2-0.8-1.7-1.3C60.2,32.7,59.7,32.2,59.2,31.7z M51.6,11.7
			c0.4-0.3,0.8-0.6,1.3-0.8c0.9-0.2,1.3,0.4,1.9,0.9c1.2,1.1,2.1,1.8,3.5,3c1.1,1,2.3,1.9,3.5,3c0.4,0.3,0.9,0.8,0.7,1.4
			c-0.1,0.3-0.7,0.6-1,0.9L55,24.6c-0.3,0.3-0.7,0.5-1.2,0.6c-0.5,0-1.1-0.5-1.4-0.8c-2.4-2.2-4.6-4.1-7.1-6.4c-0.3-0.3-1-0.8-1-1.3
			c0-0.4,0.5-0.5,0.9-0.8C47.5,14.5,49.5,13,51.6,11.7L51.6,11.7z M33.7,5.5C36,4,38.2,2.6,40.5,1.2c0.3-0.2,1-0.8,1.3-0.7
			S42.6,1,43,1.3c2.3,1.9,4.5,3.9,6.8,5.9c0.3,0.3,1,0.7,1,1.1S50.3,9,49.9,9.2s-0.8,0.5-1.1,0.7c-1.9,1.3-3.8,2.5-5.7,3.8
			c-0.4,0.3-0.8,0.7-1.5,0.6c-0.3-0.1-0.9-0.7-1.2-0.9c-2.3-2-4.4-3.9-6.8-6c-0.3-0.3-1-0.7-1-1.1S33.3,5.7,33.7,5.5z M22.3,12.9
			l6.8-4.5c0.6-0.4,1.1-0.9,2-0.6c1.6,1.3,2.9,2.4,4.4,3.8c1,0.9,2.1,1.9,3.2,2.9c0.3,0.3,0.9,0.6,0.9,1.1c0,0.5-0.5,0.8-0.9,1.1
			c-2.3,1.6-4.4,3.1-6.7,4.7c-0.5,0.4-1.1,1-1.9,0.7c-0.4-0.1-0.8-0.6-1.2-1c-2.3-2.1-4.4-4-6.7-6.1c-0.3-0.3-1-0.8-0.9-1.2
			S22,13.2,22.3,12.9z M25.9,19.9c-0.4-0.2-0.7-0.5-1-0.9C25.4,19.2,25.7,19.5,25.9,19.9z M19.9,22.8c0.7-0.3,1.5-0.3,2.3-0.2
			c1.2,0.5,2.5,1,3.7,1.5c0.6,0.3,1.3,0.5,1.9,0.8c0.3,0.3,1.6,0.3,1.6,1s-0.6,0.8-1,1c-2.7,1.8-5.6,3.9-8.3,5.6
			c-1.1,0.6-2.2,0-3.1-0.5c-1.4-0.6-3-1.3-4.3-2c-0.4-0.3-1.7-0.4-1.7-1.1c0-0.4,0.6-0.8,0.9-1c1.1-0.7,2.4-1.6,3.4-2.3
			C16.8,24.9,18.4,23.9,19.9,22.8z M20.3,34.8c-0.4,0.1-0.8-0.1-0.9-0.4c-0.1-0.4,0.1-0.8,0.4-0.9c0.1,0,0.3,0,0.4,0
			c0.4,0.2,0.5,0.6,0.4,1C20.6,34.6,20.4,34.8,20.3,34.8L20.3,34.8z M6.9,28c-1.4-0.6-2.9-1.3-4.3-1.8c-0.3-0.4-1.7-0.4-1.7-1
			c0-0.3,0.7-0.6,1-0.9c2.4-1.5,4.7-2.9,7-4.4c0.8-0.7,1.8-1,2.8-0.9c0.3,0.1,0.6,0.2,0.9,0.3c1.4,0.6,2.8,1.1,4.3,1.8
			c0.5,0.2,1.4,0.5,1.4,1s-0.6,0.7-1,1c-2.7,1.7-5.4,3.4-8.2,5.1C8.4,28.5,7.6,28.4,6.9,28z M10.1,30.3c-0.3,0.3-0.7,0.3-1,0
			c-0.2-0.1-0.2-0.4-0.2-0.6c0-0.3,0.3-0.5,0.6-0.6c0.4-0.1,0.7,0.2,0.8,0.6C10.2,29.9,10.2,30.1,10.1,30.3L10.1,30.3z M14,43.8
			c-0.2,0.2-0.6,0.3-0.8,0c-0.2-0.2-0.2-0.4-0.1-0.6C13.3,42.6,14.5,43.1,14,43.8z M13.5,42c-0.8-2.7-1.8-5.4-2.6-8.2
			c-0.2-0.5-0.3-1.1-0.4-1.7c0.2-0.1,0.2-0.3,0.5-0.2c0.7,0.2,1.3,0.4,1.9,0.8c1.5,0.7,3.1,1.3,4.7,2c0.6,0.2,1.1,0.6,1.5,1.1
			c0.7,2,1.5,4.8,2.2,7.1c0.2,0.8,0.6,1.7,0.7,2.4c0.1,0.3,0.1,0.9-0.2,1S21,46.1,20.8,46c-1-0.5-2-0.9-2.9-1.4
			C16.3,43.8,14.3,43.5,13.5,42z M17,56c0-0.2,0.2-0.4,0.4-0.4c0.1,0,0.2,0.1,0.3,0.1c0,0.1,0,0.3,0,0.4c-0.1,0.2-0.3,0.2-0.5,0.1
			C17.1,56.2,17,56.1,17,56L17,56z M25.8,59.6c-0.4,0.1-0.9-0.3-1.1-0.5c-0.3-0.2-0.7-0.4-1.1-0.5c-1.4-0.9-3.1-1.6-4.7-2.5
			c-0.8-0.5-1.4-1.3-1.6-2.2c-0.5-1.7-1-3.6-1.5-5.3c-0.2-0.7-0.5-1.4-0.6-2.1c-0.1-0.4-0.1-1,0.3-1c0.4,0,0.8,0.2,1.1,0.4l2.9,1.4
			l2.9,1.4c0.5,0.1,0.9,0.4,1.2,0.8c0.3,0.8,0.6,1.6,0.8,2.5c0.6,2.2,1,4.2,1.6,6.5C26,58.5,26.3,59.5,25.8,59.6L25.8,59.6z
			 M27,61.6c0-0.3,0.2-0.5,0.4-0.5c0.2,0,0.4,0.1,0.5,0.3c0.1,0.2,0,0.5-0.3,0.6c-0.2,0.1-0.5,0-0.6-0.3C27,61.7,27,61.6,27,61.6z
			 M28,60.6c-0.3-0.8-0.5-1.6-0.6-2.4c-0.5-2-1-4-1.5-6c-0.2-0.6-0.5-1.8,0.5-1.7c0.4,0.1,0.7,0.3,1.1,0.5c1.8,0.8,3.5,1.7,5.3,2.5
			c0.7,0.3,1.4,0.6,2.1,1c0.7,0.5,0.9,1.9,1.2,2.9c0.4,1.5,0.8,3.3,1.2,4.8c0.2,0.8,0.5,1.6,0.6,2.4c0.2,1.2-0.7,0.9-1.3,0.6
			c-1.2-0.6-2.2-1-3.4-1.6c-0.7-0.3-1.4-0.7-2.2-1.1C29.7,62,28.5,61.6,28,60.6L28,60.6z M39.8,77.7c-0.3,0.1-0.9-0.2-1.1-0.4
			c-1-0.6-2-1.3-3-1.8c-1.4-0.8-2.7-1.6-3.9-2.5c-0.5-0.9-0.9-1.9-1-2.9c-0.4-1.6-0.9-3.2-1.3-4.9c-0.2-0.6-0.5-1.6,0.5-1.4
			c0.4,0.1,0.7,0.3,1,0.5c1.7,0.9,3,1.7,4.8,2.6c0.6,0.3,1.2,0.7,1.8,1.1c0.4,0.7,0.7,1.5,0.8,2.3c0.5,2.1,1.2,4,1.7,6.2
			C40,76.9,40.1,77.5,39.8,77.7z M51.4,68.9c0.3,0.7,0.2,1.5-0.2,2.1c-0.3,0.3-0.7,0.6-1.1,0.9c-1.9,1.4-3.6,2.8-5.5,4.3L43.5,77
			c-0.3,0.3-0.8,0.7-1.3,0.6s-0.7-1.6-0.9-2.2c-0.5-2.2-1-4-1.5-6.2c-0.2-0.6-0.3-1.2-0.1-1.8c0.6-0.7,1.4-1.2,2.1-1.7
			c1.5-1.1,2.9-2.2,4.4-3.3c0.8-0.7,1.7-1.3,2.6-1.8c0.2,0,0.4,0,0.5,0c0.3,0.1,0.4,0.6,0.5,1C50.3,64.1,50.8,66.4,51.4,68.9z
			 M59.9,49.8c-0.7,1.7-1.5,3.3-2.3,5c-0.1,0.3-0.2,0.6-0.4,0.8c-0.3,0.3-0.6,0.5-0.9,0.7l-2.6,2.1c-1.2,1-2.3,1.9-3.4,2.7
			c-0.1-0.3-0.2-0.6-0.3-0.9c-0.1-0.2-0.1-0.4-0.2-0.6c0.1-0.3,0.2-0.7,0.3-1c0.3-0.7,0.5-1.3,0.8-2c0.1-0.3,0.2-0.7,0.4-1
			c0.6-0.7,1.3-1.2,2-1.7c0.7-0.5,1.5-1.2,2.1-1.7l3.1-2.5c0.5-0.4,0.8-0.8,1.5-1C60.3,49.3,60,49.6,59.9,49.8z M62.8,43.5
			c-0.3,0.6-0.5,1.2-0.8,1.8s-0.5,1.2-0.8,1.8c-0.3,0.4-0.7,0.7-1.1,1l-3.1,2.4c-1.1,0.8-2.1,1.6-3.1,2.5c-0.3,0.3-0.6,0.7-1.1,0.7
			c-0.2-0.1-0.1-0.5-0.1-0.6c0.1-0.3,0.2-0.6,0.3-0.9c0.3-0.8,0.8-1.7,1.1-2.5c0.2-0.5,0.4-1.1,0.7-1.7c0.2-0.6,0.5-1.1,0.8-1.5
			c0.3-0.3,0.6-0.6,1-0.8c2.1-1.6,4.2-3.3,6.3-4.9c0.4-0.3,0.8-0.8,1.4-0.8c0.2,0.3-0.2,0.6-0.3,0.9s-0.3,0.6-0.4,0.9
			C63.3,42.3,63.1,42.9,62.8,43.5z M70.1,40.3c-1.8,1.3-3.6,2.7-5.4,4.1c-0.3,0.2-0.6,0.6-1,0.5c-0.1-0.3,0.1-0.6,0.2-0.9
			c0.7-1.4,1.3-2.9,2-4.3c0.2-0.6,0.5-1.2,0.9-1.7c0.6-0.6,1.2-1.1,1.9-1.6c1.6-1.3,3.2-2.6,4.8-3.9c0.4-0.4,0.8-0.7,1.3-0.9h0.1
			c0,0.4-0.2,0.7-0.4,1c-0.7,1.6-1.6,3.2-2.3,4.8c-0.3,0.8-0.7,1.5-1.2,2.1C70.7,39.9,70.4,40.1,70.1,40.3z"/>
	</g>
</g>
</svg>
