<?xml version="1.0" encoding="utf-8"?>
<!-- Generator: Adobe Illustrator 23.0.6, SVG Export Plug-In . SVG Version: 6.00 Build 0)  -->
<svg version="1.1" id="Layer_1" xmlns="http://www.w3.org/2000/svg" xmlns:xlink="http://www.w3.org/1999/xlink" x="0px" y="0px"
	 viewBox="0 0 125 82.8" style="enable-background:new 0 0 125 82.8;" xml:space="preserve">
<style type="text/css">
	.st0{fill:#FFFFFF;}
</style>
<g>
	<path class="st0" d="M60.7,16.6L31.9,0L3,16.7l28.8,16.6L60.7,16.6z M19.9,18l6.4-3.7l-6.5-3.8l5.4-3.1l6.5,3.7l0.1-0.1H32l6.2-3.6
		l5.4,3.1l-6.4,3.8l6.5,3.8l-5.4,3.1l-6.5-3.8l-6.5,3.8L19.9,18z"/>
	<polygon class="st0" points="33.4,34.3 62.2,50.9 69.4,46.8 40.6,30.1 	"/>
	<polygon class="st0" points="76.4,42.7 91.2,34.2 62.3,17.6 47.6,26 	"/>
	<path class="st0" d="M92.6,68.5l29-16.7L92.8,35.1l-29,16.7L92.6,68.5z M81.9,42.1c0.5-0.4,1.1-0.9,1.7-1.2
		c0.3-0.2,4.7-2.4,5.1-2.5c0.8-0.2,1.7-0.2,2.5,0c0.4,0.1,0.8,0.2,1.1,0.4l3.5,2l8.1,4.7l8.3,4.8l3.5,2c0.3,0.2,0.5,0.4,0.7,0.6
		c0.2,0.2,0.2,0.5,0.3,0.7c0,0.3-0.1,0.5-0.2,0.7c-0.2,0.2-4.4,2.5-4.7,2.7c-0.7,0.4-1.4,0.7-2.1,1c-0.8,0.2-1.7,0.2-2.5,0
		c-0.4-0.1-0.8-0.2-1.1-0.4l-3.5-2l-8.3-4.8l-8.1-4.7l-3.5-2c-0.3-0.2-0.5-0.4-0.7-0.6c-0.2-0.2-0.2-0.5-0.3-0.7
		S81.7,42.3,81.9,42.1z M72.3,47.4c0.3-0.2,4.7-2.4,5.1-2.5c0.8-0.2,1.7-0.2,2.5,0c0.4,0.1,0.8,0.2,1.1,0.4l3.5,2l8.1,4.7l8.3,4.8
		l3.5,2c0.3,0.2,0.5,0.4,0.7,0.6c0.2,0.2,0.2,0.5,0.3,0.7c0,0.3-0.1,0.5-0.2,0.7c-0.2,0.2-4.4,2.5-4.7,2.7c-0.7,0.4-1.3,0.7-2.1,1
		c-0.8,0.2-1.7,0.2-2.5,0c-0.4-0.1-0.8-0.2-1.1-0.4l-3.5-2L83,57.3l-8.1-4.7l-3.5-2c-0.3-0.2-0.5-0.4-0.7-0.6
		c-0.2-0.2-0.2-0.5-0.3-0.7c0-0.3,0.1-0.5,0.2-0.7C71.2,48.2,71.7,47.8,72.3,47.4z"/>
	<path class="st0" d="M77,51c2.2,1.1,4.7,1.1,6.9,0c0.7-0.3,1.2-0.9,1.3-1.7c-0.1-0.7-0.6-1.4-1.3-1.7c-2.2-1.1-4.7-1.1-6.9,0
		c-0.7,0.3-1.2,0.9-1.3,1.7C75.9,50.1,76.4,50.7,77,51z"/>
	<path class="st0" d="M91.7,59.5c2.2,1.1,4.7,1.1,6.9,0c0.7-0.3,1.2-0.9,1.3-1.7c-0.1-0.8-0.6-1.4-1.3-1.7c-2.2-1.1-4.7-1.1-6.9,0
		c-0.7,0.3-1.2,0.9-1.3,1.7C90.5,58.5,91,59.2,91.7,59.5z"/>
	<path class="st0" d="M88.3,44.5c2.2,1.1,4.7,1.1,6.9,0c0.7-0.3,1.2-0.9,1.3-1.7c-0.1-0.7-0.6-1.4-1.3-1.7c-2.2-1.1-4.7-1.1-6.9,0
		c-0.7,0.3-1.2,0.9-1.3,1.7C87.1,43.6,87.6,44.3,88.3,44.5z"/>
	<path class="st0" d="M76.8,52.9l0.4,0.2l0.1,0.1l0.2,0.1l0.6,0.2h0.1l0.3,0.1h0.1h0.1H79h0.1h0.1h0.3h0.1h0.1H80h0.8h0.4h0.2
		c0.2,0,0.4,0,0.6-0.1h0.2l0.3-0.1h0.2l0.3-0.1l0,0h0.1l0.4-0.2l0.2-0.1l0.5-0.3h0.1l0.1-0.1l0.2-0.1l0.1-0.1l0.2-0.1l0.2-0.2V52
		l0.1-0.1l0.1-0.1l0.1-0.2l0.1-0.2v-0.1v-0.2V51v0v-0.1v-0.4l-0.1,0.2L84.9,51l-0.2,0.1l-0.1,0.1l-0.2,0.1l-0.2,0.1
		c-0.2,0.1-0.3,0.2-0.5,0.3l-0.1,0.1L83.2,52H83l-0.3,0.1h-0.2l-0.3,0.1H82l-0.6,0.1h-0.2h-0.3h-1h-0.3h-0.3h-0.2h-0.3h-0.2
		l-0.3-0.1h-0.2C78,52,77.8,52,77.6,51.9l-0.3-0.1l-0.1-0.1l-0.4-0.2c-0.9-0.4-1.5-1.2-1.5-2.2v1.3C75.3,51.6,75.9,52.5,76.8,52.9z"
		/>
	<polygon class="st0" points="85.5,50.3 85.6,50.1 85.7,50 85.7,49.8 85.4,49.7 85.4,50.5 85.4,50.5 	"/>
	<polygon class="st0" points="100.2,58.7 100.3,58.5 100.3,58.4 100.3,58.3 100.1,58.2 100.1,59 100.1,58.9 	"/>
	<path class="st0" d="M91.6,61.3l0.4,0.2l0.1,0.1l0.2,0.1l0.6,0.2H93l0.3,0.1h0.1h0.1h0.3H94l0,0h0.3h0.1h0.1h0.3h0.8h0.3h0.2
		c0.2,0,0.4,0,0.6-0.1h0.2l0.3-0.1h0.2l0.3-0.1h0.1h0.1l0.4-0.2l0.2-0.1c0.2-0.1,0.3-0.2,0.5-0.3h0.1L99,61l0.2-0.1l0.2-0.1l0.2-0.1
		l0.2-0.2l0.1-0.1l0.1-0.1l0.1-0.2l0.1-0.2v-0.1v-0.2v-0.1v-0.2V59l-0.1,0.2l-0.2,0.2l-0.2,0.1l-0.2,0.1l-0.2,0.1L99,59.9l-0.5,0.3
		l-0.2,0.1l-0.4,0.2h-0.2l-0.3,0.1l-0.2,0.1L97,60.5h-0.2c-0.2,0-0.4,0.1-0.6,0.1H96h-0.3h-0.8h-0.3h-0.3H94h-0.2h-0.3h-0.2L93,60.5
		l-0.2-0.1c-0.2-0.1-0.4-0.1-0.6-0.2l-0.3-0.1l0.1,0l-0.4-0.2c-0.9-0.4-1.5-1.2-1.5-2.2c0,0.4,0,0.9,0,1.3
		C90.1,60,90.7,60.9,91.6,61.3z"/>
	<path class="st0" d="M88,46.3c0.1,0.1,0.3,0.1,0.4,0.2h0.1l0.2,0.1l0.6,0.2h0.1l0.3,0.1h0.1H90h0.3h0.1h0.1h0.3H92h0.3h0.2
		c0.2,0,0.4,0,0.6-0.1h0.2l0.3-0.1l0.2-0.1l0.3-0.1h0.1h0.1l0.4-0.2l0.2-0.1c0.2-0.1,0.3-0.2,0.5-0.3h0.1l0.2-0.1l0.2-0.1h0.3
		l0.2-0.1l0.2-0.2l0.1-0.1l0.1-0.1l0.1-0.2l0.1-0.2V45v-0.2v-0.1v-0.2v-0.7v0.1l-0.2,0.2l-0.2,0.2l-0.2,0.1L96,44.7l-0.2,0.1
		l-0.2,0.1c-0.2,0.1-0.3,0.2-0.5,0.3l-0.2,0.1l-0.4,0.2h-0.2L94,45.6l-0.2,0.1l-0.3,0.1h-0.2c-0.2,0-0.4,0.1-0.6,0.1h-0.2h-0.3h-0.8
		h-0.3H91h-0.3h-0.2h-0.3H90l-0.3-0.1l-0.2-0.1l-0.6-0.2l-0.3-0.1h-0.1L88,45c-0.9-0.4-1.5-1.2-1.5-2.2v1.3
		C86.5,45.1,87.1,45.9,88,46.3z"/>
	<polygon class="st0" points="96.9,43.6 96.9,43.5 96.9,43.3 96.7,43.2 96.7,43.9 96.8,43.8 	"/>
	<path class="st0" d="M102.7,54.8c0.1,0.1,0.3,0.1,0.4,0.2l0.1,0.1l0.2,0.1l0.6,0.2h0.1l0.3,0.1h0.1h0.1h0.3h0.1h0.1h0.3h1.3h0.3
		h0.2l0.6-0.1h0.2l0.3-0.1l0.2-0.1l0.3-0.1h0.1h0.1c0.1,0,0.3-0.1,0.4-0.2l0.1-0.1c0.2-0.1,0.3-0.2,0.5-0.3h0.1l0.1-0.1l0.2-0.1
		l0.2-0.1l0.2-0.1l0.2-0.2l0.1-0.1l0.1-0.1l0.1-0.2l0.1-0.2v-0.1V53v-0.1v-0.2v-0.4l-0.1,0.1l-0.2,0.2l-0.1,0.1l-0.2,0.1l-0.2,0.1
		l-0.2,0.1c-0.2,0.1-0.3,0.2-0.5,0.3l-0.1,0.1c-0.1,0.1-0.3,0.1-0.4,0.2l-0.2,0.1l-0.3,0.1l-0.2,0.1l-0.3,0.1h-0.2
		c-0.2,0-0.4,0.1-0.6,0.1h-0.2H107h-1h-0.3h-0.3h-0.3H105h-0.3h-0.2l-0.3-0.1l-0.2,0l-0.6-0.2l-0.3-0.1H103l-0.4-0.2
		c-0.9-0.4-1.5-1.2-1.5-2.2c0,0.4,0,0.9,0,1.3C101.2,53.6,101.8,54.4,102.7,54.8z"/>
	<polygon class="st0" points="111.5,52.2 111.5,52.1 111.5,51.9 111.5,51.8 111.2,51.6 111.2,52.6 111.3,52.4 	"/>
	<path class="st0" d="M102.9,53c2.2,1.1,4.7,1.1,6.9,0c0.7-0.3,1.2-0.9,1.3-1.7c-0.1-0.8-0.6-1.4-1.3-1.7c-2.2-1.1-4.7-1.1-6.9,0
		c-0.7,0.3-1.2,0.9-1.3,1.7C101.7,52.1,102.2,52.7,102.9,53z"/>
	<polygon class="st0" points="46.6,27.2 43.9,28.8 55,35.1 57.6,33.6 	"/>
	<polygon class="st0" points="73.6,42.8 62.5,36.4 59.8,38 70.9,44.4 	"/>
	<polygon class="st0" points="93,72.2 0,18.5 0,29.2 93,82.8 125,64.4 125,53.7 	"/>
</g>
</svg>
