<?xml version="1.0" encoding="utf-8"?>
<!-- Generator: Adobe Illustrator 23.0.6, SVG Export Plug-In . SVG Version: 6.00 Build 0)  -->
<svg version="1.1" id="Layer_1" xmlns="http://www.w3.org/2000/svg" xmlns:xlink="http://www.w3.org/1999/xlink" x="0px" y="0px"
	 viewBox="0 0 80.5 80" style="enable-background:new 0 0 80.5 80;" xml:space="preserve">
<style type="text/css">
	.st0{fill:#FFFFFF;}
</style>
<title>Asset 49</title>
<g>
	<g id="_Layer_">
		<path class="st0" d="M34,39.4c3,0,5.5-2.4,5.5-5.5l0.3-28.1c0-3-2.4-5.5-5.4-5.5c0,0,0,0-0.1,0L6.2,0c-3,0-5.5,2.4-5.6,5.4
			S3.1,11,6.1,11l22.6,0.2l-0.2,22.6C28.5,36.9,30.9,39.4,34,39.4C34,39.4,34,39.4,34,39.4z"/>
		<path class="st0" d="M21.4,39.3c3,0,5.5-2.4,5.6-5.4c0,0,0,0,0,0l0.1-15.6c0-3-2.4-5.5-5.4-5.5c0,0,0,0,0,0L6.1,12.5
			c-3,0-5.5,2.4-5.6,5.4c0,3,2.4,5.5,5.5,5.5l10.1,0.1L16,33.7C16,36.7,18.4,39.2,21.4,39.3z"/>
		<path class="st0" d="M46.9,0.4c-3,0-5.5,2.4-5.5,5.4c0,0,0,0,0,0L41.1,34c0,3,2.4,5.5,5.5,5.5s5.5-2.4,5.5-5.5l0.2-22.6l22.6,0.2
			c3,0,5.5-2.4,5.6-5.5c0-3-2.4-5.5-5.5-5.5L46.9,0.4z"/>
		<path class="st0" d="M59.3,13c-3,0-5.5,2.4-5.5,5.4c0,0,0,0,0,0L53.6,34c0,3,2.4,5.5,5.4,5.6c3,0,5.5-2.4,5.6-5.4l0,0L64.7,24
			l10.1,0.1c3,0,5.5-2.4,5.6-5.5c0-3-2.4-5.5-5.5-5.5l0,0L59.3,13z"/>
		<path class="st0" d="M28.4,46.1l-0.2,22.6L5.6,68.5c-3,0-5.5,2.4-5.6,5.4s2.4,5.5,5.4,5.6l0,0l28.1,0.3c3,0,5.5-2.4,5.5-5.4
			c0,0,0,0,0,0l0.3-28.1c0-3-2.4-5.5-5.5-5.5S28.4,43.1,28.4,46.1L28.4,46.1L28.4,46.1z"/>
		<path class="st0" d="M15.9,46l-0.1,10.1L5.7,56c-3,0-5.5,2.4-5.6,5.4S2.5,67,5.6,67l15.6,0.2c3,0,5.5-2.4,5.5-5.4l0.1-15.6
			c0-3-2.4-5.5-5.5-5.5S15.9,43,15.9,46L15.9,46L15.9,46z"/>
		<path class="st0" d="M46.5,40.8c-3,0-5.5,2.4-5.5,5.4l-0.3,28.1c0,3,2.4,5.5,5.5,5.6c3,0,5.5-2.4,5.5-5.5L52,51.8L74.5,52
			c3,0,5.5-2.4,5.6-5.5c0-3-2.4-5.5-5.5-5.5L46.5,40.8z"/>
		<path class="st0" d="M58.9,53.3c-3,0-5.5,2.4-5.5,5.4l-0.2,15.6c0,3,2.4,5.5,5.4,5.5c0,0,0,0,0,0L74.3,80c3,0,5.5-2.4,5.6-5.4
			c0-3-2.4-5.5-5.5-5.6l0,0l-10.1,0l0.1-10.1C64.4,55.9,62,53.4,58.9,53.3C59,53.3,58.9,53.3,58.9,53.3z"/>
		<polygon class="st0" points="75.3,45.1 74.3,43.2 73.4,45.1 71.2,45.4 72.7,46.9 72.3,49.1 74.3,48.1 76.2,49.1 75.9,47 
			77.5,45.5 		"/>
	</g>
</g>
</svg>
