<?xml version="1.0" encoding="utf-8"?>
<!-- Generator: Adobe Illustrator 23.0.6, SVG Export Plug-In . SVG Version: 6.00 Build 0)  -->
<svg version="1.1" id="Layer_1" xmlns="http://www.w3.org/2000/svg" xmlns:xlink="http://www.w3.org/1999/xlink" x="0px" y="0px"
	 viewBox="0 0 36.6 41.4" style="enable-background:new 0 0 36.6 41.4;" xml:space="preserve">
<style type="text/css">
	.st0{fill:#FFFFFF;}
</style>
<title>Asset 76</title>
<g>
	<g id="_Layer_">
		<path class="st0" d="M5.3,5.4c-3.5,3.4-5.5,8.1-5.3,13c-0.1,1,0,1.9,0.2,2.9c0.6,3.8,2.4,7.4,5.2,10.1c0.4,0.4,0.9,0.8,1.3,1.3
			c1.5,1.4,3.1,2.7,4.9,3.9l7.1,5l5.9-4.4c2-1.5,3.8-3,5.4-4.4c0.5-0.5,0.9-0.9,1.3-1.3c2.8-2.7,4.6-6.2,5.2-10.1
			c0.1-0.9,0.2-1.9,0.2-2.9c0.1-4.9-1.8-9.6-5.3-13c-3.4-3.5-8.1-5.5-13-5.4C13.4-0.1,8.7,1.9,5.3,5.4z M33.1,18.4
			c0,0.8-0.1,1.5-0.1,2.3c-0.5,3.1-2,6-4.2,8.2c-0.4,0.3-0.8,0.7-1.1,1c-1.3,1.3-2.8,2.5-4.3,3.5L18.5,37l-5.7-4
			c-1.4-0.9-2.7-2-3.9-3.1c-0.4-0.3-0.7-0.7-1.1-1c-2.3-2.2-3.7-5.1-4.2-8.2c-0.1-0.8-0.2-1.5-0.2-2.3c-0.1-4,1.5-7.8,4.3-10.5
			c2.8-2.8,6.5-4.4,10.5-4.3C26.4,3.5,33,10,33.1,18.1C33.1,18.2,33.1,18.3,33.1,18.4z"/>
	</g>
</g>
</svg>
