<?xml version="1.0" encoding="utf-8"?>
<!-- Generator: Adobe Illustrator 23.0.6, SVG Export Plug-In . SVG Version: 6.00 Build 0)  -->
<svg version="1.1" id="Layer_1" xmlns="http://www.w3.org/2000/svg" xmlns:xlink="http://www.w3.org/1999/xlink" x="0px" y="0px"
	 viewBox="0 0 69.4 76.9" style="enable-background:new 0 0 69.4 76.9;" xml:space="preserve">
<style type="text/css">
	.st0{fill:#FFFFFF;}
</style>
<title>Asset 50</title>
<g>
	<g id="_Layer_">
		<rect x="25.5" y="0.1" class="st0" width="7.6" height="5.8"/>
		<path class="st0" d="M24.7,21.4c-10.1,0-18.4,8.2-18.4,18.3c0,0,0,0,0,0v14.9h45.9V39.7c0-10.1-8.2-18.4-18.3-18.4c0,0,0,0,0,0
			H24.7z"/>
		<path class="st0" d="M20.8,12.8h17c1.6,0,2.8,1.3,2.8,2.8v1.9c0,1.6-1.3,2.8-2.8,2.8h-17c-1.6,0-2.8-1.3-2.8-2.8v-1.9
			C17.9,14.1,19.2,12.8,20.8,12.8z"/>
		<path class="st0" d="M13.8,7C6.2,7,0,13.2,0,20.7v43.8c-0.1,1.3,0.9,2.5,2.3,2.6s2.5-0.9,2.6-2.3c0-0.1,0-0.2,0-0.3V20.7
			c0-4.9,4-8.9,8.9-8.9c0,0,0,0,0,0h19.1c1.3-0.1,2.4-1.2,2.3-2.6C35.1,8,34.1,7,32.9,6.9L13.8,7z"/>
		<path class="st0" d="M6.4,58.5c0,1.3,0.1,2.6,0.4,3.8l7-7H8.9L6.4,58V58.5z"/>
		<polygon class="st0" points="6.4,55.6 6.6,55.4 6.4,55.4 		"/>
		<path class="st0" d="M51.8,62.9L38.3,76.4C45,74.8,50.1,69.6,51.8,62.9z"/>
		<path class="st0" d="M52.3,58.5v-3.1h-0.2L30.6,76.9h3.3c0.5,0,1,0,1.6-0.1l16.7-16.7C52.3,59.6,52.3,59.1,52.3,58.5z"/>
		<path class="st0" d="M42.5,55.4h-4.8L17.6,75.5c1.2,0.5,2.5,0.9,3.7,1.1L42.5,55.4z"/>
		<path class="st0" d="M21,55.4h-4.9l-8.8,8.8c0.4,1.2,0.9,2.3,1.5,3.4L21,55.4z"/>
		<path class="st0" d="M35.4,55.4h-4.9L13.1,72.8c0.9,0.7,1.8,1.4,2.9,1.9L35.4,55.4z"/>
		<path class="st0" d="M28.2,76.9l21.5-21.5h-4.8L23.4,76.9c0.4,0,0.9,0,1.3,0L28.2,76.9z"/>
		<path class="st0" d="M28.2,55.4h-4.9L9.7,69c0.7,0.9,1.4,1.8,2.2,2.6L28.2,55.4z"/>
		<path class="st0" d="M69.3,15.8L57.2,27.8C63.5,27,68.5,22.1,69.3,15.8z"/>
		<path class="st0" d="M42.3,18.8l4-4c0-0.3,0-0.6,0-0.8c0-5,4.1-9.1,9.1-9.1c0.3,0,0.6,0,0.8,0l4-4c-1.3-0.5-2.6-0.8-4-0.9
			L41.4,14.8C41.5,16.2,41.8,17.6,42.3,18.8z"/>
		<path class="st0" d="M41.5,12.4L53.9,0.1C47.4,0.8,42.2,5.9,41.5,12.4z"/>
		<path class="st0" d="M68.6,9.3l-4.1,4.1c0,0.2,0,0.4,0,0.6c0,5-4.1,9.1-9.1,9.1h-0.6l-4.1,4.1c1.3,0.5,2.7,0.7,4,0.8l14.6-14.6
			C69.3,11.9,69.1,10.6,68.6,9.3z"/>
		<path class="st0" d="M52.8,22.7c-1.2-0.4-2.2-0.9-3.2-1.7l-3.5,3.5c0.9,0.8,1.8,1.5,2.9,2L52.8,22.7z"/>
		<path class="st0" d="M48.5,19.9c-0.8-0.9-1.4-2-1.7-3.1L43,20.5c0.5,1,1.2,2,2,2.9L48.5,19.9z"/>
		<path class="st0" d="M67.9,7.6c-0.5-1-1.2-2-2-2.9l-3.4,3.4c0.8,0.9,1.3,2,1.7,3.2L67.9,7.6z"/>
		<path class="st0" d="M58.2,5.3c1.1,0.4,2.2,0.9,3.1,1.7l3.5-3.5c-0.9-0.8-1.8-1.5-2.9-2L58.2,5.3z"/>
	</g>
</g>
</svg>
