<?xml version="1.0" encoding="utf-8"?>
<!-- Generator: Adobe Illustrator 23.0.6, SVG Export Plug-In . SVG Version: 6.00 Build 0)  -->
<svg version="1.1" id="Layer_1" xmlns="http://www.w3.org/2000/svg" xmlns:xlink="http://www.w3.org/1999/xlink" x="0px" y="0px"
	 viewBox="0 0 88 85.7" style="enable-background:new 0 0 88 85.7;" xml:space="preserve">
<style type="text/css">
	.st0{fill:#FFFFFF;}
</style>
<title>Asset 51</title>
<g>
	<g id="_Layer_">
		<path class="st0" d="M64.8,84.6C82.3,76,88,55.3,88,55.3c-9.8,12.2-25.6,11-25.6,11C100.6,46.4,73.4,0,73.4,0
			c-2,27.3-30.1,36.4-30.1,36.4c5-12.9-2.4-21.4-2.4-21.4c0,5.3-1.2,14.2-24.4,31.3C-0.7,59-0.7,75.8,0.4,83.8c0.3-4.1,1.3-8.2,3-12
			c6.2-12.7,22.8-14.6,26-14.9c3.2,0.2,6.4,0.8,9.4,1.8c0,0,8.3,2.3,11,4.2l0.9,0.7c0,0,6.9,3.8,8.8,7.7c2.1,4.5,3.2,9.5,3.1,14.5
			C63.4,85.3,64.1,84.9,64.8,84.6z"/>
	</g>
</g>
</svg>
