<?xml version="1.0" encoding="utf-8"?>
<!-- Generator: Adobe Illustrator 23.0.6, SVG Export Plug-In . SVG Version: 6.00 Build 0)  -->
<svg version="1.1" id="Layer_1" xmlns="http://www.w3.org/2000/svg" xmlns:xlink="http://www.w3.org/1999/xlink" x="0px" y="0px"
	 viewBox="0 0 60 58.3" style="enable-background:new 0 0 60 58.3;" xml:space="preserve">
<style type="text/css">
	.st0{fill-rule:evenodd;clip-rule:evenodd;fill:#FFFFFF;}
</style>
<title>Asset 56</title>
<g>
	<g id="_Layer_">
		<path class="st0" d="M27.8,41.7c-1.3,1.1-1.4,3.1-0.3,4.4c1.1,1.3,3.1,1.4,4.4,0.3c1.3-1.1,1.4-3.1,0.3-4.4c0,0,0,0,0,0
			C31,40.7,29,40.6,27.8,41.7z"/>
		<path class="st0" d="M40.2,17c-0.3-0.6-0.4-1.1-0.5-1.7H20.3c-0.2,1.7-1.2,3.2-2.6,4.2l9.4,19c1.7-0.8,3.7-0.8,5.5,0l9.7-19
			C41.4,18.9,40.7,18,40.2,17z"/>
		<path class="st0" d="M14.1,11.4c-1.7,0.1-3.1,1.5-3,3.2s1.5,3.1,3.2,3c1.7-0.1,3.1-1.5,3-3.2c0,0,0,0,0,0
			C17.3,12.7,15.8,11.3,14.1,11.4C14.1,11.4,14.1,11.4,14.1,11.4z"/>
		<path class="st0" d="M8.3,9.5c2.1-2.7,5.8-3.6,9-2.2l2.9-6.1C12.9-2,4.4,1.3,1.2,8.6c-2.1,4.7-1.5,10.2,1.6,14.3l5.3-4.1
			C6.1,16,6.2,12.2,8.3,9.5z"/>
		<path class="st0" d="M29.8,51.7c-3.4,0.1-6.5-2.2-7.5-5.5L15.8,48c2.2,7.6,10.2,12,17.9,9.7c4.9-1.4,8.7-5.4,9.9-10.3L37,46
			C36.2,49.3,33.2,51.7,29.8,51.7z"/>
		<path class="st0" d="M56.8,5.4c-4.1-5.1-11-6.8-17-4.2c1,2,0,0,2.8,6.1c3.8-1.7,8.3,0,10,3.8c1.1,2.5,0.8,5.4-0.8,7.6l5.3,4.1
			C61.1,17.6,60.9,10.5,56.8,5.4z"/>
		<path class="st0" d="M51.9,14.7c0.2-3.4-2.4-6.3-5.8-6.5c-3.4-0.2-6.3,2.4-6.5,5.8c0,0.1,0,0.2,0,0.3H20.3c-0.1-3.4-2.9-6.1-6.3-6
			S8,11.2,8,14.6c0.1,3.4,2.9,6.1,6.3,6c0.9,0,1.7-0.2,2.5-0.6l9.4,19c-0.2,0.1-0.3,0.3-0.5,0.4c-2.5,2.3-2.8,6.1-0.5,8.7
			s6.1,2.8,8.7,0.5s2.8-6.1,0.5-8.7c0,0,0,0,0,0c-0.3-0.3-0.6-0.6-1-0.9L43.2,20c0.8,0.4,1.6,0.6,2.5,0.6
			C49,20.7,51.8,18.1,51.9,14.7z M14.3,17.6c-1.7,0.1-3.1-1.3-3.2-3c-0.1-1.7,1.3-3.1,3-3.2c1.7-0.1,3.1,1.3,3.2,3c0,0,0,0,0,0
			C17.4,16.1,16,17.5,14.3,17.6z M31.9,46.4c-1.3,1.1-3.2,1-4.4-0.2s-1-3.2,0.2-4.4c1.3-1.1,3.2-1,4.4,0.2c0,0,0,0,0,0
			C33.3,43.3,33.2,45.2,31.9,46.4z M32.6,38.6c-1.7-0.8-3.7-0.8-5.5,0l-9.4-19c1.4-1,2.3-2.5,2.6-4.2h19.4c0.1,0.6,0.3,1.2,0.5,1.7
			c0.5,1,1.2,1.8,2.1,2.5L32.6,38.6z M42.7,14.4c0.1-1.7,1.5-3.1,3.2-3c1.7,0.1,3.1,1.5,3,3.2c-0.1,1.7-1.5,3.1-3.2,3c0,0,0,0,0,0
			C44,17.5,42.6,16.1,42.7,14.4z"/>
	</g>
</g>
</svg>
