<?xml version="1.0" encoding="utf-8"?>
<!-- Generator: Adobe Illustrator 23.0.6, SVG Export Plug-In . SVG Version: 6.00 Build 0)  -->
<svg version="1.1" id="Layer_1" xmlns="http://www.w3.org/2000/svg" xmlns:xlink="http://www.w3.org/1999/xlink" x="0px" y="0px"
	 viewBox="0 0 59.3 41.6" style="enable-background:new 0 0 59.3 41.6;" xml:space="preserve">
<style type="text/css">
	.st0{fill:#FFFFFF;}
</style>
<title>Asset 68</title>
<g>
	<g id="_Layer_">
		<path class="st0" d="M56.4,0.4C55.3,0,54.1-0.1,53,0.1c-0.5,0-1.1,0.1-1.6,0.3c-0.3,0-0.7,0.1-1,0.3c-1.1,0.3-2.1,0.8-3,1.5
			C45.9,3,44.7,4.3,44.1,6c-0.5,1.3-0.1,2.7,1,3.6c1.2,1,2.8,1.3,4.9,1.2c0.1,0,0.2-0.1,0.3-0.1c2-0.2,3.9-0.9,5.6-2
			c1.5-0.9,2.7-2.3,3.2-4c0.4-1.4-0.1-2.8-1.3-3.7C57.4,0.8,56.9,0.5,56.4,0.4z"/>
		<path class="st0" d="M35.1,1.9c-1.9,0.2-3.7,0.8-5.3,1.9c-1.5,0.8-2.6,2.2-3.2,3.8c-0.6,1.2-0.3,2.6,0.6,3.5
			c1.2,1,2.8,1.4,4.3,1.2c2-0.2,3.9-0.9,5.6-2c1.5-0.9,2.6-2.3,3.2-3.9c0.5-1.2,0.2-2.6-0.9-3.5C38.2,2,36.6,1.6,35.1,1.9z"/>
		<path class="st0" d="M50.3,13.7c-0.4,0-0.7,0-1.1,0.1c-2.1,0.1-4.1,0.8-5.8,2c-1.6,1-2.8,2.5-3.4,4.3c-0.5,1.4-0.1,3,1,4
			c1.4,1.2,3.3,1.7,5.1,1.5c1.5,0,2.9-0.4,4.2-0.9c0.6-0.4,1.3-0.7,1.9-1.1c1.6-1,2.9-2.6,3.5-4.5c0.5-1.5-0.1-3.1-1.3-4
			C53.2,14.2,51.8,13.7,50.3,13.7z"/>
		<path class="st0" d="M30.7,15c-2,0.1-3.9,0.8-5.5,2c-1.5,0.9-2.7,2.3-3.4,3.9c-0.6,1.3-0.3,2.9,0.6,3.9c1.2,1.1,2.8,1.7,4.4,1.5
			c2.1-0.1,4-0.8,5.7-2c1.6-1,2.8-2.5,3.5-4.2c0.5-1.4,0.1-2.9-0.9-3.9C34,15.2,32.4,14.7,30.7,15z"/>
		<path class="st0" d="M20.4,31c-1.7,1-2.9,2.5-3.6,4.3c-0.4,1-0.4,2-0.2,3c0.2,0.5,0.4,1,0.8,1.4c1.2,1.3,2.9,2,4.6,1.9
			c2.1,0,4.2-0.7,6-1.9c0.6-0.4,1.1-0.8,1.6-1.3c0.9-0.9,1.6-2,2.1-3.2c0.6-1.5,0.2-3.2-0.9-4.4c-1.3-1.2-3-1.8-4.7-1.6
			C24.1,29.2,22.1,29.9,20.4,31z"/>
		<path class="st0" d="M50.3,29.9c-1.4-1.1-3.2-1.6-5-1.5c-2.2,0.1-4.3,0.8-6.1,2c-1.7,1-3,2.6-3.6,4.6c-0.4,1.1-0.4,2.3,0.1,3.3
			c0.2,0.4,0.5,0.8,0.9,1.2c1.4,1.4,3.3,2.1,5.2,2c2.3,0,4.6-0.7,6.5-2c0.5-0.4,1-0.8,1.5-1.2c0.2-0.2,0.4-0.3,0.6-0.6
			c0.7-0.9,1.3-1.9,1.6-3c0.5-1.7-0.1-3.4-1.3-4.6C50.5,30.1,50.4,30,50.3,29.9z"/>
		<path class="st0" d="M19.4,3.5c-1.8,0.2-3.5,0.8-5,1.9C13,6.2,11.9,7.5,11.3,9c-0.6,1.1-0.5,2.4,0.3,3.4c1.1,1,2.5,1.4,3.9,1.2
			c1.8-0.2,3.6-0.8,5.1-1.9c1.5-0.9,2.6-2.2,3.2-3.8c0.6-1.1,0.3-2.5-0.6-3.3C22.2,3.6,20.8,3.2,19.4,3.5z"/>
		<path class="st0" d="M9.3,29.7c-1.9,0.1-3.8,0.7-5.3,1.8c-1.6,1-2.8,2.5-3.5,4.2c-0.7,1.3-0.6,2.9,0.2,4.2c1,1.3,2.5,1.9,4.1,1.8
			c2,0,3.9-0.7,5.6-1.8c0.6-0.4,1.2-0.9,1.7-1.4c0.9-0.8,1.6-1.9,2-3c0.6-1.4,0.4-3-0.5-4.2c-0.9-1-2.2-1.6-3.6-1.5
			C9.7,29.6,9.5,29.6,9.3,29.7z"/>
		<path class="st0" d="M9.8,17.7c-0.2,0.1-0.3,0.1-0.5,0.2c-1.5,0.9-2.6,2.3-3.3,3.9c-0.7,1.2-0.5,2.6,0.3,3.7
			c0.9,1,2.1,1.6,3.5,1.5h0.5c1.9-0.1,3.8-0.7,5.4-1.8c1.5-1,2.7-2.4,3.4-4c0.6-1.2,0.4-2.7-0.5-3.8c-1.1-1-2.6-1.5-4.1-1.3
			C12.8,16.2,11.2,16.8,9.8,17.7z"/>
	</g>
</g>
</svg>
