<?xml version="1.0" encoding="utf-8"?>
<!-- Generator: Adobe Illustrator 23.0.6, SVG Export Plug-In . SVG Version: 6.00 Build 0)  -->
<svg version="1.1" id="Layer_1" xmlns="http://www.w3.org/2000/svg" xmlns:xlink="http://www.w3.org/1999/xlink" x="0px" y="0px"
	 viewBox="0 0 41.8 41.7" style="enable-background:new 0 0 41.8 41.7;" xml:space="preserve">
<style type="text/css">
	.st0{fill:#FFFFFF;}
</style>
<title>Asset 70</title>
<g>
	<g id="_Layer_">
		<path class="st0" d="M22.9,0.1c-5.5-0.6-11,1.1-15.2,4.7C6.8,5.5,6,6.3,5.3,7.1c-2.9,3.3-4.7,7.4-5,11.8c-0.1,0.7-0.1,1.4-0.2,2.1
			C0,23.4,0,26,0.1,28.9l0.5,8.4l9.5,2.6c2.3,0.6,4.6,1.1,6.9,1.5c0.7,0.1,1.4,0.2,2,0.3c4.4,0.5,8.8-0.5,12.6-2.9
			c0.9-0.6,1.8-1.2,2.7-1.9c4.3-3.5,7-8.6,7.4-14.1c0.6-5.5-1.1-11-4.7-15.2C33.5,3.2,28.4,0.5,22.9,0.1z M37.7,22.4
			c-0.3,4.5-2.5,8.6-6,11.4c-0.7,0.6-1.4,1.1-2.1,1.5c-3,1.9-6.6,2.7-10.2,2.3c-0.5,0-1.1-0.1-1.7-0.2c-1.9-0.2-3.8-0.6-5.6-1.1
			l-7.7-2.1L4,27.4c-0.1-2.1-0.1-4.3,0-6.4c0.1-0.5,0.1-1.1,0.1-1.7c0.2-3.6,1.7-7,4.1-9.6c0.6-0.7,1.2-1.3,1.9-1.8
			C13.5,5,18,3.6,22.5,4.1c4.5,0.3,8.6,2.5,11.4,6C36.8,13.5,38.2,17.9,37.7,22.4z"/>
		<path class="st0" d="M22.2,6.7c-3.7-0.4-7.5,0.8-10.3,3.3c-0.5,0.5-1.1,1-1.6,1.5c-2,2.2-3.2,5.1-3.4,8.1c0,0.4-0.1,0.9-0.1,1.4
			c-0.1,1.6,0,3.4,0,5.3L7.1,32l6.4,1.7c1.5,0.5,3.1,0.8,4.7,1c0.5,0.1,0.9,0.2,1.4,0.2c3,0.3,6-0.4,8.5-2c0.6-0.4,1.3-0.8,1.8-1.3
			c2.9-2.3,4.8-5.8,5-9.6c0.4-3.7-0.8-7.5-3.2-10.3C29.4,8.9,26,7,22.2,6.7z M32.3,21.8c-0.2,3-1.7,5.8-4,7.8
			c-0.5,0.4-0.9,0.7-1.5,1c-2.1,1.3-4.5,1.8-6.9,1.6c-0.4,0-0.7-0.1-1.1-0.1c-1.2-0.2-2.5-0.5-3.8-0.8l-5.3-1.4l-0.2-4.6
			c-0.1-1.6-0.1-3,0-4.3c0-0.4,0.1-0.8,0.1-1.1c0.2-2.4,1.1-4.7,2.8-6.5c0.4-0.4,0.8-0.8,1.3-1.2c2.3-2,5.4-2.9,8.4-2.6
			c3,0.3,5.8,1.7,7.7,4.1C31.7,15.8,32.7,18.8,32.3,21.8z"/>
	</g>
</g>
</svg>
