<?xml version="1.0" encoding="utf-8"?>
<!-- Generator: Adobe Illustrator 23.0.6, SVG Export Plug-In . SVG Version: 6.00 Build 0)  -->
<svg version="1.1" id="Layer_1" xmlns="http://www.w3.org/2000/svg" xmlns:xlink="http://www.w3.org/1999/xlink" x="0px" y="0px"
	 viewBox="0 0 40.8 40.8" style="enable-background:new 0 0 40.8 40.8;" xml:space="preserve">
<style type="text/css">
	.st0{fill:#FFFFFF;}
</style>
<title>Asset 71</title>
<g>
	<g id="_Layer_">
		<path class="st0" d="M0.9,18.1c-1.2,1.2-1.2,3.2,0,4.4c1.2,1.2,3.2,1.2,4.4,0c1.2-1.2,1.2-3.2,0-4.4C4.1,16.9,2.1,16.9,0.9,18.1z"
			/>
		<path class="st0" d="M9.6,9.4c-1.2,1.2-1.2,3.2,0,4.4s3.2,1.2,4.4,0s1.2-3.2,0-4.4c0,0,0,0,0,0C12.8,8.2,10.8,8.2,9.6,9.4z"/>
		<path class="st0" d="M9.6,26.8c-1.2,1.2-1.2,3.2,0,4.4s3.2,1.2,4.4,0c1.2-1.2,1.2-3.2,0-4.4C12.8,25.6,10.8,25.6,9.6,26.8z"/>
		<path class="st0" d="M18.3,18.1c-1.2,1.2-1.2,3.2,0,4.4c1.2,1.2,3.2,1.2,4.4,0c1.2-1.2,1.2-3.2,0-4.4
			C21.4,16.9,19.5,16.9,18.3,18.1z"/>
		<path class="st0" d="M18.3,35.4c-1.2,1.2-1.2,3.2,0,4.4c1.2,1.2,3.2,1.2,4.4,0c1.2-1.2,1.2-3.2,0-4.4
			C21.4,34.2,19.5,34.2,18.3,35.4z"/>
		<path class="st0" d="M26.9,26.8c-1.2,1.2-1.2,3.2,0,4.4c1.2,1.2,3.2,1.2,4.4,0c1.2-1.2,1.2-3.2,0-4.4
			C30.1,25.6,28.1,25.5,26.9,26.8C26.9,26.8,26.9,26.8,26.9,26.8z"/>
		<path class="st0" d="M18.1,0.9c-1.2,1.2-1.2,3.2,0,4.4c1.2,1.2,3.2,1.2,4.4,0s1.2-3.2,0-4.4c0,0,0,0,0,0
			C21.3-0.3,19.3-0.3,18.1,0.9z"/>
		<path class="st0" d="M18.1,18.3c-1.2,1.2-1.2,3.2,0,4.4c1.2,1.2,3.2,1.2,4.4,0c1.2-1.2,1.2-3.2,0-4.4C21.3,17,19.3,17,18.1,18.3z"
			/>
		<path class="st0" d="M26.8,9.6c-1.2,1.2-1.2,3.2,0,4.4c1.2,1.2,3.2,1.2,4.4,0c1.2-1.2,1.2-3.2,0-4.4C30,8.4,28,8.4,26.8,9.6z"/>
		<path class="st0" d="M26.8,26.9c-1.2,1.2-1.2,3.2,0,4.4c1.2,1.2,3.2,1.2,4.4,0c1.2-1.2,1.2-3.2,0-4.4C30,25.7,28,25.7,26.8,26.9z"
			/>
		<path class="st0" d="M35.4,18.3c-1.2,1.2-1.2,3.2,0,4.4c1.2,1.2,3.2,1.2,4.4,0c1.2-1.2,1.2-3.2,0-4.4C38.6,17,36.7,17,35.4,18.3
			C35.5,18.2,35.4,18.3,35.4,18.3z"/>
	</g>
</g>
</svg>
