<?xml version="1.0" encoding="utf-8"?>
<!-- Generator: Adobe Illustrator 23.0.6, SVG Export Plug-In . SVG Version: 6.00 Build 0)  -->
<svg version="1.1" id="Layer_1" xmlns="http://www.w3.org/2000/svg" xmlns:xlink="http://www.w3.org/1999/xlink" x="0px" y="0px"
	 viewBox="0 0 35.5 40.1" style="enable-background:new 0 0 35.5 40.1;" xml:space="preserve">
<style type="text/css">
	.st0{fill:#FFFFFF;}
</style>
<title>Asset 75</title>
<g>
	<g id="_Layer_">
		<path class="st0" d="M5.2,5.2C1.8,8.5-0.1,13,0,17.7c0,0.9,0.1,1.9,0.2,2.8c0.5,3.7,2.3,7.2,5,9.8l1.3,1.3
			c1.5,1.3,3.1,2.6,4.7,3.7l6.9,4.8l5.8-4.3c1.9-1.5,3.6-2.9,5.2-4.2c0.5-0.4,0.9-0.9,1.3-1.3c2.7-2.6,4.5-6,5-9.8
			c0.2-0.9,0.2-1.9,0.2-2.8c0.1-4.7-1.8-9.3-5.2-12.6C27,1.8,22.5-0.1,17.8,0C13-0.1,8.5,1.8,5.2,5.2z"/>
	</g>
</g>
</svg>
