<svg xmlns="http://www.w3.org/2000/svg" viewBox="0 0 69.94 69.94"><defs><style>.cls-1{fill:#fff;}</style></defs><title>Asset 8</title><g id="Layer_2" data-name="Layer 2"><g id="Layer_1-2" data-name="Layer 1"><polygon class="cls-1" points="46.42 3.39 64.15 3.39 34.97 32.57 5.79 3.39 23.52 3.39 23.52 0 0 0 0 24.16 3.39 24.16 3.39 5.79 32.57 34.97 3.39 64.15 3.39 47.06 0 47.06 0 69.94 23.52 69.94 23.52 66.55 5.79 66.55 34.97 37.37 64.15 66.55 46.42 66.55 46.42 69.94 69.94 69.94 69.94 47.06 66.55 47.06 66.55 64.15 37.37 34.97 66.55 5.79 66.55 24.16 69.94 24.16 69.94 0 46.42 0 46.42 3.39"/></g></g></svg>