<?xml version="1.0" encoding="utf-8"?>
<!-- Generator: Adobe Illustrator 23.0.6, SVG Export Plug-In . SVG Version: 6.00 Build 0)  -->
<svg version="1.1" id="Layer_1" xmlns="http://www.w3.org/2000/svg" xmlns:xlink="http://www.w3.org/1999/xlink" x="0px" y="0px"
	 viewBox="0 0 181 70" style="enable-background:new 0 0 181 70;" xml:space="preserve">
<style type="text/css">
	.st0{fill-rule:evenodd;clip-rule:evenodd;fill:#FFFFFF;}
</style>
<title>Asset 91</title>
<g>
	<g id="_Layer_">
		<path class="st0" d="M167.3,4.1c-5.7,1.7-11.3,3.5-17,5.2l-16.8,5.1c-5.2,1.6-10.4,3.2-15.6,4.8l-17,5.2
			c-5.2,1.6-10.4,3.2-15.6,4.8c-5.7,1.7-11.3,3.5-17,5.3c-5.6,1.7-11.2,3.4-16.8,5.2c-6.3,2-12.7,4-19,5.9
			c-7.1,2.2-14.2,4.4-21.3,6.5c-3,0.9-6.1,1.8-9.1,2.7C1.4,55,0.7,55.3,0,55.6L0.1,56l30.3-5.5L40.9,70
			c32.9-16.3,65.6-32.5,98.3-48.7c13.9-6.9,27.8-14,41.7-21l0.1-0.1c0,0,0-0.1-0.1-0.2C176.4,1.3,171.9,2.7,167.3,4.1z"/>
	</g>
</g>
</svg>
