<?xml version="1.0" encoding="utf-8"?>
<!-- Generator: Adobe Illustrator 23.0.6, SVG Export Plug-In . SVG Version: 6.00 Build 0)  -->
<svg version="1.1" id="Layer_1" xmlns="http://www.w3.org/2000/svg" xmlns:xlink="http://www.w3.org/1999/xlink" x="0px" y="0px"
	 viewBox="0 0 69.7 78.7" style="enable-background:new 0 0 69.7 78.7;" xml:space="preserve">
<style type="text/css">
	.st0{fill:#FFFFFF;}
</style>
<title>Asset 138</title>
<g>
	<g id="_Layer_">
		<path class="st0" d="M13.1,40L13.1,40L13,43l1.5,3.4V40C14,40,13.5,40,13.1,40z"/>
		<path class="st0" d="M14.5,48.2h-1v8.6H13v1.6h0.1c0.5,0,0.9,0,1.4-0.1L14.5,48.2z"/>
		<path class="st0" d="M14.5,58.3c5-0.8,8.5-5.5,7.7-10.6c-0.6-4-3.7-7.1-7.7-7.7v6.3l0.8,1.8h-0.8V58.3z"/>
		<polygon class="st0" points="13,20.9 13,20.7 13,25.3 14.5,25.3 14.5,23.2 		"/>
		<polygon class="st0" points="15.5,24.9 14.5,23.2 14.5,25.3 15.2,25.3 15.8,25.3 		"/>
		<path class="st0" d="M13,43v-3c-5.1,0-9.2,4.1-9.2,9.2s4.1,9.2,9.2,9.2v-1.7h-0.6v-8.6h-1.8l2.3-5.3L13,43z"/>
		<polygon class="st0" points="13,20.7 12.8,20.4 12.5,20.9 10.3,24.9 10,25.3 10.5,25.3 13,25.3 		"/>
		<polygon class="st0" points="13.1,70.9 13,70.6 13,71.7 14.5,74.2 14.5,73.1 		"/>
		<polygon class="st0" points="51.3,55.4 51.3,56.2 53.9,54 53.5,53.6 		"/>
		<polygon class="st0" points="49.8,56.8 48.8,57.6 49.2,58.1 49.8,57.6 		"/>
		<polygon class="st0" points="49.8,56.8 49.8,57.6 51.3,56.2 51.3,55.4 		"/>
		<polygon class="st0" points="64.1,75.3 64.3,75.1 66.7,71 67,70.6 66.5,70.6 64.1,70.6 64.1,71.2 65.9,71.2 64.1,74.2 		"/>
		<polygon class="st0" points="64.1,70.6 61.8,70.6 61.3,70.6 61.5,71 63.8,75 64,75.5 64.1,75.3 64.1,74.2 64,74.3 62.3,71.2 
			64.1,71.2 		"/>
		<polygon class="st0" points="13,71.7 13,70.6 12.9,70.4 12.6,70.9 10.4,74.9 10.1,75.3 10.6,75.3 13,75.3 13,74.8 11.1,74.8 
			12.9,71.6 		"/>
		<rect x="13" y="74.8" class="st0" width="1.5" height="0.6"/>
		<polygon class="st0" points="51.3,53.3 51.3,54.1 53.9,51.9 53.5,51.5 		"/>
		<polygon class="st0" points="14.5,75.3 15.3,75.3 15.9,75.3 15.6,74.9 14.5,73.1 14.5,74.2 14.8,74.8 14.5,74.8 		"/>
		<polygon class="st0" points="49.8,54.7 48.8,55.5 49.2,55.9 49.8,55.4 		"/>
		<polygon class="st0" points="49.8,54.7 49.8,55.4 51.3,54.1 51.3,53.3 		"/>
		<polygon class="st0" points="49.8,52.6 48.8,53.4 49.2,53.8 49.8,53.3 		"/>
		<polygon class="st0" points="38.6,75.3 38.7,75.1 41.2,71 41.5,70.6 41,70.6 38.6,70.6 38.6,71.2 40.4,71.2 38.6,74.2 		"/>
		<path class="st0" d="M47.8,19.9c0.6-0.6,1.2-1,2-1.2V18c-0.9,0.3-1.7,0.7-2.4,1.4l0,0c-1,1-1.6,2.3-1.6,3.7h-7.2v0.6h7.2
			c0.1,1.4,0.7,2.7,1.6,3.7c0.7,0.7,1.5,1.2,2.4,1.4v-0.6c-0.8-0.2-1.4-0.7-2-1.2l0,0c-0.9-0.9-1.5-2.2-1.5-3.6l0,0
			C46.3,22.1,46.8,20.8,47.8,19.9z"/>
		<path class="st0" d="M49.8,53.3l1.6-1.3V28.5c-0.5,0-1.1-0.1-1.6-0.3v0.6c0.4,0.1,0.8,0.2,1.3,0.2l0,0v7.1c-0.4,0-0.9,0-1.3,0.1
			v0.6c0.4-0.1,0.9-0.1,1.3-0.1v14.8l-1.3,1.1V53.3z"/>
		<rect x="32.1" y="23.1" class="st0" width="6.5" height="0.6"/>
		<path class="st0" d="M13.2,29c0.4,0,0.9-0.1,1.3-0.2v-0.6c-0.5,0.2-1,0.2-1.5,0.3v8.2h0.1c0.5,0,0.9,0,1.4,0.1v-0.6
			c-0.4,0-0.9-0.1-1.3-0.1V29L13.2,29z"/>
		<path class="st0" d="M16.4,27c-0.6,0.6-1.2,1-2,1.2v0.6c0.9-0.3,1.7-0.8,2.4-1.4l0,0c1-1,1.6-2.3,1.6-3.7h13.6v-0.6H18.5
			c-0.1-1.4-0.6-2.7-1.6-3.7c-0.7-0.7-1.5-1.2-2.4-1.5v0.6c2.1,0.7,3.5,2.6,3.5,4.8l0,0C17.9,24.7,17.4,26,16.4,27z"/>
		<path class="st0" d="M51.4,62.3v-0.6l0,0c-0.5,0-1,0-1.6-0.1v0.6C50.3,62.2,50.8,62.3,51.4,62.3L51.4,62.3z"/>
		<polygon class="st0" points="30.8,8 32.1,6.7 32.1,4.5 30.8,3.2 29.7,4.3 31,5.6 29.7,6.9 		"/>
		<path class="st0" d="M51.4,61.7v0.6l0,0c5.7,0,10.8-3.7,12.5-9.2v14.3c-3,0.1-5.3,2.6-5.3,5.6l0,0c0,3.1,2.5,5.6,5.6,5.6V78
			c-2.8,0-5-2.2-5-5l0,0c0-2.8,2.2-5,5-5V46.3c-0.6-2.4-1.8-4.5-3.5-6.3c-2.4-2.4-5.6-3.8-9-3.8v-7.1l0,0c1.4-0.1,2.7-0.7,3.7-1.6
			l0,0c1.1-1.1,1.7-2.5,1.7-4l0,0c0-3-2.3-5.5-5.3-5.6l0,0V11c0-0.5-0.1-1-0.3-1.4v8.8l0,0c2.8,0,5,2.2,5,5l0,0c0,2.8-2.2,5-5,5l0,0
			V52l0.1-0.1h0.2v-0.2l2.3-1.9l-0.4-0.5L51.7,51V36.7c6.8,0.2,12.2,5.7,12.2,12.5l0,0v0.1C63.8,56.2,58.2,61.7,51.4,61.7z"/>
		<path class="st0" d="M64.1,78.1L64.1,78.1v0.6l0,0c1.5,0,2.9-0.6,4-1.6l0,0c1.1-1.1,1.6-2.5,1.6-4l0,0c0-3-2.3-5.5-5.3-5.6V49.2
			l0,0l0,0l0,0c0-1-0.1-2-0.3-2.9V68l0,0c2.8,0,5,2.2,5,5l0,0C69.1,75.8,66.9,78,64.1,78.1L64.1,78.1z"/>
		<polygon class="st0" points="38.6,70.6 36.2,70.6 35.7,70.6 36,71 38.2,75 38.5,75.5 38.6,75.3 38.6,74.2 38.5,74.3 36.7,71.2 
			38.6,71.2 		"/>
		<path class="st0" d="M38.6,78.1L38.6,78.1v0.6l0,0c1.5,0,2.9-0.6,4-1.6l0,0c1.1-1.1,1.7-2.5,1.7-4l0,0c0-3-2.4-5.5-5.3-5.6V53.1
			c1.5,4.9,5.8,8.5,10.9,9.1v-0.6c-6.2-0.8-10.8-6-10.9-12.2v-0.2l0,0v-0.1c0.1-6.2,4.7-11.5,10.9-12.3v-0.6
			c-5.5,0.7-10,4.8-11.2,10.2V68l0,0c2.8,0,5,2.2,5,5l0,0c0,1.3-0.5,2.6-1.5,3.6l0,0C41.2,77.5,39.9,78,38.6,78.1L38.6,78.1
			L38.6,78.1z"/>
		<path class="st0" d="M33.5,73c0-2.8,2.2-5,5-5V46.5c-0.2,0.9-0.3,1.7-0.3,2.6l0,0v0.1l0,0v18.2c-1.4,0.1-2.7,0.7-3.7,1.6l0,0
			c-1,1.1-1.6,2.5-1.6,3.9l0,0c0,3.1,2.5,5.6,5.6,5.6V78C35.8,78,33.6,75.8,33.5,73L33.5,73z"/>
		<path class="st0" d="M14.5,61.6v0.6c6.6-0.7,11.7-6.3,11.7-13l0,0c0-6.7-5-12.3-11.7-13v0.6c6.3,0.7,11.1,6.1,11.1,12.4l0,0
			C25.6,55.5,20.8,60.9,14.5,61.6L14.5,61.6z"/>
		<polygon class="st0" points="49.8,21 49,21 48.5,21 48.8,21.4 49.8,23.1 		"/>
		<polygon class="st0" points="51.3,21 49.8,21 49.8,23.1 51.2,25.5 51.3,25.7 		"/>
		<path class="st0" d="M51.1,17.8c-0.4,0-0.9,0.1-1.3,0.2v0.6c0.5-0.2,1-0.3,1.6-0.3l0,0V9.5c-0.4-0.9-0.9-1.6-1.6-2.3v0.8
			c0.8,0.8,1.2,1.8,1.3,2.9V17.8L51.1,17.8z"/>
		<path class="st0" d="M45.4,5.3h-6.9v0.6h6.9c1.5,0.1,2.9,0.7,3.9,1.7c0.2,0.1,0.3,0.3,0.4,0.4V7.2l0,0C48.6,6.1,47.1,5.4,45.4,5.3
			L45.4,5.3z"/>
		<polygon class="st0" points="33.4,3.2 32.1,4.5 32.1,4.5 32.1,6.7 32.1,6.7 33.4,8 34.5,6.9 33.2,5.6 34.5,4.3 		"/>
		<polygon class="st0" points="54,21.4 54.2,21 53.7,21 51.3,21 51.3,25.7 51.5,25.9 51.7,25.4 		"/>
		<path class="st0" d="M32.1,10.7L32.1,10.7v0.6l0,0c3,0,5.5-2.3,5.6-5.3h0.8V5.3h-0.8c-0.1-3-2.6-5.3-5.6-5.3l0,0v0.6l0,0
			c2.8,0,5,2.2,5,5l0,0C37.1,8.3,34.9,10.6,32.1,10.7L32.1,10.7z"/>
		<path class="st0" d="M13,78.1L13,78.1v0.6l0,0c0.5,0,1-0.1,1.5-0.2v-0.6C14,78,13.5,78.1,13,78.1z"/>
		<path class="st0" d="M12.6,36.1L12.6,36.1C5.6,36.4,0,42.2,0,49.2l0,0c0,7,5.6,12.7,12.6,13l0,0v5.2c-1.4,0.1-2.6,0.7-3.6,1.7l0,0
			c-1.1,1.1-1.6,2.5-1.6,4l0,0C7.4,74.5,8,76,9,77l0,0c1.1,1.1,2.5,1.6,4,1.6v-0.6c-2.8,0-5-2.2-5-5l0,0c0-1.3,0.5-2.6,1.5-3.6l0,0
			c0.9-0.9,2.2-1.5,3.5-1.5v-6.3c-6.9,0-12.4-5.6-12.4-12.5l0,0c0-6.9,5.6-12.4,12.4-12.5v-8.2h-0.1c-1.4,0-2.6-0.5-3.6-1.5l0,0
			c-0.9-0.9-1.5-2.2-1.5-3.6l0,0c0-2.8,2.2-5,5-5H13v-9c-0.2,0.5-0.4,1-0.4,1.6v6.8l0,0c-3,0.2-5.3,2.6-5.3,5.6l0,0
			c0,1.5,0.6,2.9,1.6,4l0,0c1,1,2.3,1.6,3.7,1.6l0,0V36.1z"/>
		<path class="st0" d="M13.1,61.7L13.1,61.7L13,68l0,0c0.5,0,1,0.1,1.5,0.2v-0.6c-0.4-0.1-0.9-0.2-1.3-0.2l0,0v-5.2
			c0.4,0,0.9,0,1.3-0.1v-0.6C14,61.7,13.6,61.7,13.1,61.7L13.1,61.7z"/>
		<path class="st0" d="M18,73c0,1.3-0.5,2.6-1.5,3.6l0,0c-0.6,0.6-1.3,1-2.1,1.3v0.6c1-0.2,1.8-0.7,2.5-1.4l0,0
			c1.1-1.1,1.7-2.5,1.6-4l0,0c0-2.5-1.7-4.8-4.1-5.4v0.6c0.8,0.2,1.5,0.7,2.1,1.3C17.5,70.4,18,71.7,18,73z"/>
		<path class="st0" d="M14.5,7.2c-0.6,0.6-1.1,1.3-1.5,2.1v9c0.5,0,1,0.1,1.5,0.3V18c-0.4-0.1-0.9-0.2-1.3-0.2l0,0V11
			c0.1-1.1,0.5-2.1,1.3-2.9V7.2z"/>
		<path class="st0" d="M18.8,5.3L18.8,5.3c-1.6,0.1-3.2,0.7-4.3,1.9l0,0v0.9c0.1-0.2,0.3-0.3,0.4-0.4c1-1,2.4-1.7,3.9-1.7h7.7
			c0.1,1.4,0.7,2.7,1.6,3.7l0,0c1.1,1.1,2.5,1.7,4,1.6v-0.6c-2.8,0-5-2.2-5-5l0,0c0-2.8,2.2-5,5-5l0,0V0l0,0c-3,0-5.5,2.3-5.6,5.3
			H18.8z"/>
	</g>
</g>
</svg>
