<?xml version="1.0" encoding="utf-8"?>
<!-- Generator: Adobe Illustrator 23.0.6, SVG Export Plug-In . SVG Version: 6.00 Build 0)  -->
<svg version="1.1" id="Layer_1" xmlns="http://www.w3.org/2000/svg" xmlns:xlink="http://www.w3.org/1999/xlink" x="0px" y="0px"
	 viewBox="0 0 520.3 228.6" style="enable-background:new 0 0 520.3 228.6;" xml:space="preserve">
<style type="text/css">
	.st0{fill:#FFFFFF;}
</style>
<title>Asset 8</title>
<g>
	<g id="_Layer_">
		<path class="st0" d="M41.4,31.5v111.8h-3.7v5.6h-5.5v6.6L0,176.2v52.4h459l5.9-1.4v-48.8l2.6-2.6v-4.2l51.1-1.4l1.8-1.3l-52.9,0.9
			v-4.4l-0.3-2.3l10.3-2.4v1h1.8l1.8-1.8l0.5-0.1l-1-13.2h3.6v14h1V145h-6.6l-2.3-2.8l-1-1l3.3-0.4l0.4-1.4l-10.4-0.1l-0.1-1.8
			l-2.2-0.6v3.4H464c-0.3,0.4-0.6,0.9-0.6,1.4c0,0.1-0.1,0.2-0.3,0.2l-46.8,0.9v-2.1h-1.1v2.1l-27.7,0.5l-4-0.8v-15.1h1.8v6.9l1-1.6
			v-7h3.3v-1.6h-2.2v-7.4h3.2v-1.5h-3.2v-10.8h-1.5v10.8h-2.4v-6l-1.9,1.9V91.4h-1v2.7h-1v-0.6c0-0.2-0.2-0.4-0.4-0.4
			s-0.4,0.2-0.4,0.4v0.6h-2.4v-5.8h2v-1.4h-2.4v-3.7h2.9v-2.4h-2.4L374.9,70l-1.4-27.6h4v-3.1H374v-5.9l1.4-1.3
			c0.5-0.5-2-1.9-6.5-1.9V40h-5.6v-6.5l-0.8-0.5v7h-1.4v-1.4l-0.6-0.6v2H360v-2l-0.6,1.7V40h-0.4v-6.1l-2.9,0.8V40h-1.7v-7.3
			l-0.6,1.7V40h-1.3v-8.9l-2.4-0.8V40h-0.5v-5l-0.1-0.2v-7.2l-0.6,1.7v4.8l-1.4-1.7l-2.2-2.5h-2.9l0.8,9.9l-7-12.6
			c-0.1-0.2-0.3-0.3-0.5-0.2c0,0,0,0,0,0c-0.2,0.1-0.2,0.3-0.1,0.5l6.3,11.3l-4.9-6l-0.6,0.5l4.6,6.6h-3.5v-2h-1.3v4.6h1.4
			c1.4,0,5.2,3.1,5.2,3.1v3.8h-1.1v16.8h-1.9l-1-1h-1.1v3.2h3.6v6h-1.2l-0.2-1.8c0-0.1-0.1-0.2-0.2-0.2c-0.1,0-0.2,0.1-0.2,0.2
			c0,0,0,0,0,0l0.2,1.8v3l0.4,0.4l0.4,3.4l0.1,0.2l2.1,0.8v2.6l-1.4,0.8v13h-3.3v2h2.9v1.4l-2.2,0.8v9.6h-4.5v2.3h4.1l0.3,2h-6.9
			v1.5l2.3,1.8h3.1l1.1,1.2h1.1V119h4.3l2.3,2.8v3.8h-2.3v5.2l-1.8,1.2V124l-1.5,2v7l-11.8,7.6L327,22.9h-4l1.2,120.3l-2.1,1.4
			l-7.5,0.1v-6.1h7.9v-2.9l-5.2-7.6h0.2v-10.7h3.3v-0.7h-3.3v-2.8h-1.1v2.8h-1.7v-10.9h3.5c0.4,0,0.8-0.3,0.8-0.7c0,0,0,0,0,0
			c0-0.4-0.3-0.8-0.8-0.8h-3.4v-0.2c0-0.5,0-0.9,0-1.3h2.7v-1l-2.8-0.7c-1.2-12.4-9.3-15.2-17.8-15.4l0.9-0.8
			c0.3-0.3,0.4-0.8,0.1-1.1c-0.1-0.2-0.3-0.3-0.6-0.3h-21.3v-5.8c0-0.2-0.2-0.4-0.4-0.4c-0.2,0-0.4,0.2-0.4,0.4l0,0v5.8h-2v-4.4
			c0-0.2-0.2-0.4-0.4-0.4s-0.4,0.2-0.4,0.4v4.4h-28V7.4c0.2,0.1,0.4,0.1,0.7,0.1V3.8c-4.3-0.8-8.8-0.8-13.1,0v3.7
			c0.2,0,0.4,0,0.7-0.1v76.2h-5.8c-0.3,0-0.6,0.2-0.7,0.5c-0.1,0.3,0,0.6,0.2,0.8l2,1.8c-4.7,2.1-7.5,7.8-7.9,12.1H213V4.4
			c0.2,0,0.5,0.1,0.7,0.1V0.6c-4.5-0.8-9.2-0.8-13.7,0v3.9c0.2,0,0.5-0.1,0.7-0.1V104h-2.9v-2.3h-1.7v2.3h-5.4v-2.1H189v2.1h-1.3
			V92.4l0.5,0.1v-2.7c-3.2-0.6-6.4-0.6-9.6,0v2.7l0.5-0.1v8.8h-3.6V99h-0.8v2.2h-30.4v-1.3c0-0.4-0.4-0.7-0.9-0.7
			c-0.4,0-0.6,0.3-0.7,0.7v1.3H131l2.1-3.2h-0.9l-2.2,3.2h-1v-3.1l0.5-0.3v-2.3l0.5-0.5l0.1-0.3V74.1c0-0.2-0.2-0.4-0.4-0.4l0,0
			c-0.2,0-0.4,0.2-0.4,0.4v4.8l-0.3-0.6l-1.2,0.7h-1.4V22.5c0-0.4-0.4-0.7-0.9-0.7c-0.4,0-0.6,0.3-0.7,0.7v11.9h-4.6v-5.7h-1v4.4
			H119v-8.3h-0.5v8.3h-1.7l-1.5-1.5v-6.7h1.6v-3h-1.6V10.3h-0.5v11.6H111v5.3l-3-0.7v-2h1.5v-2.1h-6.3v1.1l-0.5-0.5v-5.3h-0.5v4.8
			l-2.1-1.8c-0.1-0.2-0.4-0.2-0.5,0c-0.2,0.1-0.2,0.4,0,0.5l2.7,3.4v0.5l-3,7.4L97.4,34l-1.3-0.8v-2.8h-2.7L92.6,28l3.5-3.4h2.5
			v-2.5h-3.2l-8.1,5.6L78.3,22c-0.2-0.1-0.4-0.1-0.5,0.1c-0.1,0.2-0.1,0.4,0.1,0.5l0,0l8.8,5.6v3.7h2v2.5h-4.3
			c-0.4,0-0.8,0.3-0.8,0.8s0.3,0.8,0.8,0.8h2.7v2h1.3v11.8L89,51v7.1h-0.5v14.8c-0.4-0.3-2.2-1.4-2.2,0.4v4.8h-2.7v2.5h1.7v4.2
			c0.3-0.1,0.6-0.1,0.9-0.2L88,90l-1.5,0.6v7.7H81c0,0-5.5,0.3-8.5,1.8l-1.3-4.1l-0.6,0.2l1.3,4.2c-0.4,0.2-0.7,0.5-1,0.8l-2.7-8.4
			l-0.5,0.2l2.9,9c0,0.2-0.2,0.3-0.2,0.4v19.5l0.2,0.1H54.9v-3.2h-0.6v3.2h-8.9V31.5H41.4z M41.4,148.9h-2.2v-4.1h2.2L41.4,148.9z
			 M479.1,146.6h1l1,12.8l-2-2.1V146.6z M476.4,160.5l-9.3,2.1l-0.2-1.8L476.4,160.5z M470,158.1h-0.4l-0.3-1.5l0.7,0.4L470,158.1z
			 M469.6,149.2l0.3,6.8l-0.9-0.5l-0.7-3.2L469.6,149.2L469.6,149.2z M468.6,155.2l-1.1-0.7l0.6-1.6L468.6,155.2z M469.2,149.1
			l-1,2.6l-0.7-3.1L469.2,149.1z M466.7,148.3l0.4,0.1l0.9,3.9l-0.8,2.1l-0.5-0.3V148.3z M466.7,155l0.2,0.1l-0.2,0.5V155z
			 M466.7,156.7l0.5-1.4l1.6,1l0.4,1.8l-2.6,0.1V156.7z M396.5,159.7v-0.4l0.2,0.2L396.5,159.7z M396.5,158.3v-8.9l4.4-0.1l-1.9,7.6
			l-1.8,2L396.5,158.3z M414.5,159.5l-6.8,0.2l-0.7-6.9l1.1-1.2L414.5,159.5z M408.6,151l0.8-0.9l6.5,7.9v0.7l-0.6,0.7L408.6,151z
			 M406.9,151.8l-0.2-1.9l0.9,1.1L406.9,151.8z M407.3,159.7l-2.4,0.1l-1-3.5l2.8-3.1L407.3,159.7z M403.6,155.3l-0.5-1.9l3.3-3.7
			l0.2,2.3L403.6,155.3z M402.8,152.6l-1-3.4l4.1-0.1L402.8,152.6z M402.5,152.9l-3,3.3l1.7-7h0.1L402.5,152.9z M397.3,159.9
			L397.3,159.9L397.3,159.9L397.3,159.9z M398.3,159.7l-0.5-0.4l0.8-0.9L398.3,159.7z M398.6,159.9l0.5-2.1l3.6-4l0.5,1.9l-3.9,4.2
			L398.6,159.9z M403.5,156.6l0.9,3.2l-4,0.1L403.5,156.6z M400.7,163.3l7-0.2l0.8,7.8l-7.7,0.1L400.7,163.3z M404.1,174.8l-1.4-1.4
			l5.9-0.2l0.1,0.8L404.1,174.8z M408,163l42-1.5l0.9,8.6l-42.1,0.7L408,163z M435,157.7l-4.7-5.3l7,2.2L435,157.7z M435.1,158.9
			L435.1,158.9L435.1,158.9L435.1,158.9z M425,150.7l-7.1,8.4l-0.6-0.8l6.7-7.9L425,150.7z M424.2,150.1l0.2-0.3l0.5,0.5
			L424.2,150.1z M425.7,151.1l7.2,7.9l-14.1,0.4L425.7,151.1z M426.9,151.3l2,0.6l5.7,6.4l-0.5,0.6h-0.2L426.9,151.3z M438.1,154.8
			l1.4,0.4l-2.6,3.6h-0.7l-0.6-0.6L438.1,154.8z M440.3,155.4l9.1,2.8l0.2,0.3l-11.8,0.3L440.3,155.4z M440.5,155.1l3-4.2l5.4,6.8
			L440.5,155.1z M444.1,150.3l0.6-0.8l6.6,8.4l-0.3,0.6l-0.8-0.2L444.1,150.3z M452.4,161.3l2.1,0.4v5.8l0.5,2.4l-3.7,0.1l-0.9-8.6
			L452.4,161.3z M454.1,161.3h0.4v0.1L454.1,161.3z M454,158.4l1.4-3l0.8,3H454z M453.1,158.4h-0.3l-0.6-0.7l2.4-5l0.4,1.6
			L453.1,158.4z M454.6,151l-0.6-2.2l1.8-0.3L454.6,151z M453.5,148.5l0.9,3l-2.6,5.5l-6.7-8.5c-0.1-0.1-0.2-0.2-0.3-0.1
			c-0.1,0-0.2,0.1-0.3,0.2l-0.8,1.1l-1-1.3l13.3-0.3L453.5,148.5z M443.1,150.3l-3.3,4.6l-1.4-0.4l3.9-5.3L443.1,150.3z
			 M437.6,154.2l-7.8-2.4l-2.7-3c-0.1-0.1-0.2-0.1-0.3-0.1l14.9-0.3L437.6,154.2z M428.4,151.3l-2-0.6l-0.2-0.2l0.7-0.9L428.4,151.3
			z M426.6,148.8l-0.9,1.1l-0.9-1c-0.1-0.1-0.2-0.1-0.3-0.1c-0.1,0-0.2,0.1-0.3,0.1l-0.7,0.9l-3.2-1l6.6-0.1
			C426.7,148.7,426.6,148.7,426.6,148.8L426.6,148.8z M423.2,150.1l-6.4,7.5l-0.4-0.5l0.1-8.3l2.6-0.1L423.2,150.1z M416.8,158.9
			l0.4,0.5h-0.8l0,0L416.8,158.9z M410.3,173.7l-1.2,0.2l-0.1-0.8l13.6-0.4l1.3,11.5L410.3,173.7z M425.2,185.2l-2.4-12.4l28.3-0.8
			l3.8,36L425.2,185.2z M456.2,206.2l-1,1.9l-3.8-36.1l4-0.1l0.8,3.4L456.2,206.2z M459.7,158.3l-3,0.1l-1-3.5l2.4-5.1l2.3,1.4
			L459.7,158.3z M460.5,150.3l-2.4-1.4c-0.1,0-0.2,0-0.3,0c-0.1,0-0.2,0.1-0.2,0.2l-2.2,4.7l-0.4-1.6l1.8-3.8l0.7-0.1l3.2-0.1
			L460.5,150.3z M453,144.2h2.8c0.4,0.2,0.7,0.6,0.8,1c0.1,0.4,0.9,0.8,1.8,1l-6.5,0.1L453,144.2z M416.3,144.9l30.1-0.6l-3.3,2.1
			l-26.8,0.4V144.9z M416.1,148.9l-0.1,7.8l-6.2-7.5c-0.1-0.1-0.2-0.1-0.3-0.1c-0.1,0-0.2,0-0.3,0.1l-1,1.1l-1-1.3L416.1,148.9z
			 M415.1,144.9v2l-8.7,0.1l-0.2-2L415.1,144.9z M390.1,145.4l15.8-0.3l0.2,1.9l-16,0.3L390.1,145.4z M390,149.4l4.5-0.1v7.4l-5-3.7
			L390,149.4z M389.3,153.8l5.1,3.8v2.4h-0.2l-5.2-4L389.3,153.8z M388.9,156.8l4.1,3.2l-4.6,0.1L388.9,156.8z M383.5,116.7h2.4v7.4
			h-0.4v-2.6h-2L383.5,116.7z M383.5,124.4h0.5v1.8h-0.5V124.4z M379.3,107.4c0.1-0.1,0.2-0.2,0.2-0.3V95.8h1v15.7h-1.4l-0.9-3.7
			L379.3,107.4z M376.2,95.8h2.5v11l-0.8,0.3l-1.8-7.1V95.8z M372.7,118h2.5v3.6h-2.6L372.7,118z M372.7,124.4h2.5v1l-2.5,0.5V124.4
			z M372.7,129.3h2.8v3.8h-2.8L372.7,129.3z M364.1,112.4h-0.3V89.8h0.3V112.4z M364.1,88.9h-0.3v-2h0.3V88.9z M365.1,112.4H365
			V89.8h0.1L365.1,112.4z M365.1,88.9H365v-2h0.1L365.1,88.9z M365.1,83.3h-1.3v-0.5h1.3V83.3z M365.1,80h-1.3v-4h1.3V80z
			 M364.9,49.1h2.8v1.3h-1L364.9,49.1z M368.9,112.4h-0.7V89.8h0.7V112.4z M368.9,88.9h-0.7v-2h0.7V88.9z M368.9,83.3h-0.7v-0.5h0.7
			V83.3z M368.9,80h-0.7v-4h0.7V80z M368.9,61.3l-2.7-1.7h2.7V61.3z M363.3,42.4h5.6v3.2h-1.3v2.7h-3.8l-0.5-0.4L363.3,42.4z
			 M362.8,68.3h0.1l0.1,0.8h-0.2L362.8,68.3z M362.8,71.3h0.6l0.1,0.7h-0.8V71.3z M342.3,81.8l-1.8-0.7l-0.3-2.7l0.2,0.2v1.5h1.9
			L342.3,81.8z M347,62.7l-0.2-3h0.2V62.7z M351.2,112.4H350l-0.6-11h1.9L351.2,112.4z M351.2,85.4l-0.1,0.1h-2.4h-0.3l-0.1-0.9
			l0.9,0.3h0.1h1.9V85.4z M351.2,84.6h-1.9l-1-0.4l-0.2-2.8l3.1,2.5L351.2,84.6z M357.5,112.5h-1.6v-4.9l0.5-1.9v1.3l1.1,5.2
			L357.5,112.5z M356.3,88.9h-0.5v-2h0.5V88.9z M356.3,89.9v7.8l-0.5,1.8v-9.7L356.3,89.9z M356.3,100.9v1.5l-0.5,1.9v-1.5
			L356.3,100.9z M357.5,110.1l-0.7-3.2v-2.8l0.7-2.5L357.5,110.1z M357.5,98.3l-0.7,2.6v-1.6l0.7-2.6L357.5,98.3z M357.5,93.5
			l-0.7,2.7v-6.3h0.7L357.5,93.5z M357.5,88.9h-0.7v-2h0.8L357.5,88.9z M361.1,112.5h-0.7v-2.2c0-0.1-0.1-0.2-0.2-0.2l0,0
			c-0.1,0-0.2,0.1-0.2,0.2c0,0,0,0,0,0l0,0v2.2h-0.6v-6.9h1.8L361.1,112.5z M359.8,89.9l-0.3,1.2h-0.1V90l0-0.2L359.8,89.9z
			 M359.6,88.9l0.5-2h0.4l-0.5,2H359.6z M361.1,91.1h-0.8l0.3-1.2h0.4V91.1z M361.1,88.9L361.1,88.9l0.1-0.7L361.1,88.9z M361,42.5
			h1.4v4.9l-1.4-1.1V42.5z M358.6,59.7h0.9v5h-0.9V59.7z M358.6,66.5h0.9V67h-0.9V66.5z M358.6,68.4h0.9v0.8h-0.9V68.4z M358.6,71.3
			h0.9V72h-0.9V71.3z M358.6,76h2.5v4h-2.5V76z M358.6,82.9h1.8l-0.1,0.5h-6v-0.5h3.5v0.4h0.9L358.6,82.9z M354.3,80v-4h3.5v4H354.3
			z M355.3,53.3l0.7-0.5v4h-0.7V53.3z M355.3,57.9h0.7v1.2h-0.7L355.3,57.9z M355.3,59.7h2.5v5h-2.5V59.7z M355.3,66.5h2.5V67h-2.5
			V66.5z M355.3,68.4h2.5v0.8h-2.5V68.4z M355.3,71.3h2.5V72h-2.5V71.3z M352.3,42.4h1.5v1.7h-1.5V42.4z M351.6,56.1l2.9-2.1v2.9
			h-2.8L351.6,56.1z M351.6,57.9h2.8v1.2h-2.8V57.9z M351.6,59.7h2.8v5h-2.8V59.7z M351.6,66.5h2.8V67h-2.8V66.5z M351.6,68.4h2.8
			v0.8h-2.8V68.4z M351.6,71.3h2.8V72h-2.8V71.3z M351.2,80.9l-3.2-2.9l-0.1-2h1.5l1.9,1.5L351.2,80.9z M350,66.5V67h-2.1v-0.5
			L350,66.5z M347.9,64.7v-5h2.2v5H347.9z M350,68.4v0.8h-2.1v-0.8H350z M350,71.3V72h-2.1v-0.7L350,71.3z M349,57.9h1v1.2h-2.1
			v-0.3L349,57.9z M347,33.9l1.7,1.7V40H347V33.9z M346,42.5h2v1.2l-2-0.8V42.5z M346,43.6l2,0.8v1.5l-2,1.7V43.6z M328.3,152.3
			v-1.7l4.9-0.1L328.3,152.3z M339.8,137.6l2.7-2h0.9v4.3l-3.5,4.5l0,0L339.8,137.6z M335.2,141l3.5-2.6v5.9l-3.5,0.1V141z
			 M334.1,141.8v2.5l-3.5,0.1L334.1,141.8z M337.9,146.4l-1.7,1.8l-8,0.1v-1.8L337.9,146.4z M314.5,117.4h1.7v9.4l-1.7-2.5V117.4z
			 M314.5,127.2l5,6.3h-5V127.2z M324.3,151.5l0.1,7.4l-2.4-0.5l-1.6-3L324.3,151.5z M323.9,150.7l-3.9,4l-2.1-3.9L323.9,150.7z
			 M319.7,155l-5,5l3.1-8.5L319.7,155z M314.5,146.9l4.2-0.1l-2.8,1.8h-1.4L314.5,146.9z M314.5,150.9l3.1-0.1l-3.1,8.6V150.9z
			 M314.5,161.3l5.5-5.6l1.4,2.6l-2.7-0.6l-0.4,4.2l-3.9,0.1L314.5,161.3z M280.5,146.7h-4.6v-0.2h4.6V146.7z M280.5,148.2h-4.7
			v-1.4h4.6L280.5,148.2z M275.9,145.3v-4.6h4.6v4.6H275.9z M275.9,138.8V137h4.6v1.8L275.9,138.8z M280.5,120.4v5v10.6h-4.6v-15.6
			L280.5,120.4z M275.9,118.9v-13h4.6v13H275.9z M280.5,99.9v1.4l-1.9-0.1l1.9-1.6L280.5,99.9z M280.5,102.2v2.1h-4.6v-0.7l1.6-1.4
			H280.5z M275.9,150.8v-0.6h4.7v0.6H275.9z M275.8,85.2H295l-0.8,0.7c-1.7,0.1-3.3,0.5-4.8,1.2h-13.6L275.8,85.2z M275.8,87.8H288
			c-3.5,2.1-6.1,5.5-7.2,9.5l-4.5,3.8h-0.5L275.8,87.8z M273,85.2h2v1.9h-2L273,85.2z M273,87.8h2v8.3c-0.4-1.7-1.1-3.4-2-4.9
			L273,87.8z M246.5,160.8v-12.2h0.8V161L246.5,160.8z M247.3,115.5v6.1h-0.8v-4.5L247.3,115.5z M246.5,115.3v-2l0.5,1L246.5,115.3z
			 M247.3,122.3v4.2h-0.8v-4.2H247.3z M247.3,127.3v3.1h-0.8v-3.1H247.3z M247.3,131.1v6.7h-0.8v-6.7H247.3z M247.3,143.4v3h-0.8v-3
			H247.3z M247.3,147.2v0.6h-0.8v-0.6H247.3z M272.1,90.2c-0.7-0.9-1.5-1.7-2.4-2.3h2.4V90.2z M269.1,85.2h3.1v1.9h-3.1V85.2z
			 M244.1,85.2H268v1.7c-2.6-1.1-5.5-1.6-8.3-1.5c-2,0-4,0.6-5.7,1.7h-9.9L244.1,85.2z M244.1,87.9h8.9c-3.5,2.9-5.6,7.2-5.8,11.7
			v13.6l-0.8-1.6v-7.2c0-5.4-0.9-9.2-2.3-12L244.1,87.9z M232.3,85.2V86h-0.7c-0.6,0-1.3,0.1-1.9,0.3l-1.2-1L232.3,85.2z M220.1,159
			h-3.9v-3.8h3.9L220.1,159z M216.2,151.1v-2.5h3.9v2.5L216.2,151.1z M220.1,147.9h-3.9v-0.6h3.9V147.9z M216.2,146.4v-0.1l3.9-0.7
			v0.1L216.2,146.4z M216.2,145.5v-0.7h3.9l0,0L216.2,145.5z M220.1,144.1h-3.9v-0.6h3.9V144.1z M216.2,142.5v-1.4h3.9v1.4H216.2z
			 M216.2,139.3V125c0-0.2-0.1-0.4-0.3-0.6h0.5v3.8l1.1,0.4l-0.2-4.2h2.7v1.2v13.6L216.2,139.3z M214.7,123.5l-0.3-0.2l1.1-0.1l0,0
			l1,0.1v0.2H214.7z M217.4,123.3l2,0.2h-2V123.3z M216.1,107.1l4,6.4v2.7l-6.7-9.1L216.1,107.1z M213,110.3l7.1,8.5v3.2l-2.8-0.2
			l-0.1-2.6l-4.2-8L213,110.3z M213,116.3l3.4,3.6v1.8l-1.7-0.1l-1.8-3.9V116.3z M213,124.5h0.5l1.2,1v13.8H213V124.5z M213,141.2
			h1.7v1.4H213V141.2z M213,143.5h1.7v0.5H213V143.5z M213,144.8h1.7v1l-1.7,0.3V144.8z M213,147.8l1.7-0.3v0.4L213,147.8L213,147.8
			z M213,148.6h1.7v2.5H213V148.6z M213,155.1h1.7v3.9H213V155.1z M190.8,105.5h5.4v0.1c-1.8,0.4-3.6,0.9-5.4,1.6V105.5z
			 M187.8,105.5h1.2v2.5c-0.5,0.3-0.9,0.5-1.3,0.7L187.8,105.5z M146.7,136.2h-0.4v-13h1.9l0.1,0.1V143c0,0.1,0,0.2,0.1,0.3
			c0.1,0.1,0.2,0.1,0.3,0.1h2v0.6h-3.3v-7.1C147.5,136.5,147.2,136.2,146.7,136.2C146.7,136.1,146.7,136.1,146.7,136.2L146.7,136.2z
			 M147.1,119.3l1.2,0.9v1.1l-2-1.6v-0.4H147.1z M146.3,117.2v-2.1h2v2.1H146.3z M150.7,125.1v17.6h-1.6v-18.8L150.7,125.1z
			 M149.1,121.6v-0.9l1.3,0.9H149.1z M150.7,144.8v1.2h-3.3v-1.2H150.7z M147.4,148.3v-1.1h4.1v1.1H147.4z M150.7,123.2h0.7v0.6
			L150.7,123.2z M151.5,117.2h-2.4v-2.1h2.7C151.6,115.8,151.5,116.5,151.5,117.2L151.5,117.2z M157.4,106.9
			c-0.2,0.1-0.5,0.2-0.7,0.4H154v2.7l-0.1,0.1l-1.9-4.6h5.4V106.9z M171.4,109v2.7c-0.3-0.6-0.6-1.2-1-1.8v-2.7h-3
			c-2-1-4.2-1.4-6.4-1.3c-0.6,0-1.2,0.1-1.8,0.3v-0.7h15.7v4.8l-2.1-0.2c-0.2,0-0.3,0-0.5,0.1L171.4,109z M175.8,134.7l-2.7,0.4
			v-3.6h2.7V134.7z M175.8,130.1h-2.7V127h2.7V130.1z M175.8,125.5h-2.7V125h2.7V125.5z M175.8,123.5h-2.7V121h2.7V123.5z
			 M175.8,119.5H173c0-0.3,0-0.6-0.1-0.9l2.8-1.1L175.8,119.5z M179.2,134.2l-1.9,0.3v-2.9h1.9V134.2z M179.2,130.1h-1.9V127h1.9
			V130.1z M179.2,125.5h-1.9V125h1.9V125.5z M179.2,123.5h-1.9V121h1.9V123.5z M179.2,119.5h-1.9v-2.7l1.9-0.7V119.5z M175.6,101.8
			h3.6v2.2h-3.6V101.8z M175.6,105.6h3.6v5.2l-3.6-0.3V105.6z M175.6,112l3.6,0.3v2.2l-1.9,0.7V114c0-0.2-0.1-0.5-0.3-0.6l-1.4-1.1
			L175.6,112z M175.8,114.4v1.5l-2.9,1.2c0-0.4-0.1-0.7-0.2-1.1V112L175.8,114.4z M144.4,101.8h30.5v2.2h-15.7v-1.7h-1.7v1.7h-13
			L144.4,101.8z M144.4,105.6h6.3l2.3,5.3h-1.9v2.8h-2v-5.4c0-0.2-0.2-0.4-0.4-0.3c-0.2,0-0.3,0.2-0.3,0.3v5.4h-2v-4
			c0-0.2-0.2-0.4-0.4-0.4c-0.2,0-0.4,0.2-0.4,0.4c0,0,0,0,0,0v4h-1.1L144.4,105.6z M143.7,123.2h1.9v13h-1.9V123.2z M143.7,137.7
			L143.7,137.7z M134,108.8l-4.2-3.3h4.2V108.8z M142.9,113.3l-0.1-0.1v1.4h-3l-0.4-0.3l0.1-1.2l-4.6-3.6v-4.1h7.9L142.9,113.3z
			 M130.7,101.7h12.1v2.3h-13.6L130.7,101.7z M129.7,101.7l-0.7,1v-1H129.7z M129.3,79.6v10.6H129v-10v-0.1L129.3,79.6z M126.5,84.5
			l1-1.7v7.4h-1V84.5z M126.4,99.8l1.1-0.7v1.2h-1.1V99.8z M119.4,112.2l1.5-3.8l0.9,1.4C120.9,110.4,120.1,111.2,119.4,112.2
			L119.4,112.2z M122.4,109.3l-1.2-1.8l0.6-1.6l1.6,2.9C123.1,108.9,122.8,109.1,122.4,109.3L122.4,109.3z M120.3,36h4.6v38.5h-2.3
			V48.9l-2.3-11.6L120.3,36z M119.3,101.8h0.3l1.5,2.7l-0.7,1.7l-1.1-1.8L119.3,101.8z M119.3,105.8l0.8,1.2l-0.8,1.9V105.8z
			 M113.6,24.9h1.1V31l-1.1-1.1V24.9z M103,71.9l-2.3-2.2h2.2l0.1,0.4L103,71.9z M104,71.6l-0.2-1.7v-0.4h0.3L104,71.6z M105.8,72.2
			H105v-2.6h0.8L105.8,72.2z M109.1,124.8v-4.6l1.5-0.5v2.4h0.2L109.1,124.8z M110.6,118.9l-1.5,0.5V116h1.5V118.9z M106.3,62.4h2.7
			v2.3h1.3v4.7h-3.9L106.3,62.4z M106.3,69.7h3.9v1.5h-1.7v3.6H108v-2.6h-1.7L106.3,69.7z M102.7,24l0.4,0.4l-0.3-0.1l-0.1-0.1V24z
			 M102.7,27.5l0.5-1.4v8.3h-0.5V27.5z M102.7,60.1l0.2,2.3h3v7H105v-4.2h-1v4.1h-0.3v-1.8c0-0.2-0.2-0.4-0.4-0.4l-0.1,0.1l-1.2-7.2
			L102.7,60.1z M102.2,28.8v5.7h-2.3L102.2,28.8z M99.8,60.1h1.5l1.7,9.3h-2.4l-0.7-0.7L99.8,60.1z M98.6,34l-0.2,0.4h-0.3L98.6,34z
			 M96.9,60.1H99v8.4h-2.1V60.1z M96.1,34.2l0.4,0.3h-0.4V34.2z M47.1,150.3h-1.6v-1.7h1.6V150.3z M47.1,147.8h-1.6v-3.1h1.6V147.8z
			 M47.1,143.2h-1.6v-0.4h1.6V143.2z M47.1,142.1h-1.6v-0.8l1.6-1.7V142.1z M47.1,138.4L47.1,138.4l-1.6,1.7v-11l5.4,5.4L47.1,138.4
			L47.1,138.4z M56.3,150.3h-8.7v-1.7h4c0.1,0,0.2,0,0.3-0.1c0.1-0.1,0.1-0.2,0.1-0.3v-1.9h4.2L56.3,150.3z M56.3,145.5h-4.7
			c-0.1,0-0.2,0-0.3,0.1c-0.1,0.1-0.1,0.2-0.1,0.3v1.9h-3.6v-3.1h8.6L56.3,145.5z M56.3,143.2h-8.7v-0.4h8.6L56.3,143.2z M90,150.2
			h-6V149h5.8h0.1L90,150.2z M89.4,142.8v5.4H84v-9.8h4.1l1.3,1.3v1.6h-2.8v1.5H89.4z M84,136.9v-1.5h1l1.5,1.5H84z M80,127.3
			l-0.4-0.2h7.5v0.2H80z M90.8,138.9h-1.2l-0.4-0.4h1.3L90.8,138.9z M86.9,84.6c0.8,0,1.6,0.3,1.6,1.4v3.5L86.9,84.6z M88.2,135.4
			l1.1,1.5h-1.7l-1.5-1.5H88.2z M87.1,125.8v0.6h-8.9l-1.1-0.6H87.1z M78.5,129.6l3.3,4.2H67.2V132l1.7,0.2h7.8L78.5,129.6z
			 M61.2,122.9H72l0.7,0.6H61.2L61.2,122.9z M61.2,131.4l4,0.4v3.4H66c0.1,0.1,0.3,0.2,0.5,0.2h17v12.8H61.2L61.2,131.4z M61.2,149
			h22.3v1.3H61.2L61.2,149z M57.6,123.3h1.5v2.5l-1.5,1.6V123.3z M57.6,128.6l1.6-1.6v14.8l-1.5-1.5L57.6,128.6z M57.6,141.3
			l0.8,0.8h-0.8V141.3z M57.6,142.9h1.5v0.4h-1.5L57.6,142.9z M57.6,144.8h1.5v0.8h-1.5L57.6,144.8z M57.6,146.3h1.5v4h-1.5
			L57.6,146.3z M54.9,123.3h1.3v5.5l-1.3,1.4V123.3z M54.9,131.4l1.4-1.4v8.9l-1.3-1.4L54.9,131.4z M56.3,140v2.1h-8.6V139l3.8-3.9
			L56.3,140z M51.9,134.6l2.4-2.6v5L51.9,134.6z M45.7,123.3h8.6v7.6l-3,3.1l-5.9-5.9v-5C45.5,123.2,45.6,123.3,45.7,123.3
			L45.7,123.3z"/>
	</g>
</g>
</svg>
