<svg xmlns="http://www.w3.org/2000/svg" viewBox="0 0 105.83 58.7"><defs><style>.cls-1{fill:#fff;}</style></defs><title>Asset 11</title><g id="Layer_2" data-name="Layer 2"><g id="Layer_1-2" data-name="Layer 1"><path class="cls-1" d="M15.86,50.38c9.92,5.37,23.08,8.32,37.05,8.32S80,55.75,90,50.38a36.41,36.41,0,0,0,11.49-9.25,18.92,18.92,0,0,0,4.37-11.78,18.92,18.92,0,0,0-4.37-11.78A36.25,36.25,0,0,0,90,8.33C80,3,66.89,0,52.91,0s-27.13,3-37,8.33A36.25,36.25,0,0,0,4.37,17.57,18.92,18.92,0,0,0,0,29.35,18.92,18.92,0,0,0,4.37,41.13a36.41,36.41,0,0,0,11.49,9.25m72.61-2.76A58.27,58.27,0,0,1,80.6,51.1,40,40,0,0,1,75.93,42c7.93.79,14,1.83,17.48,2.5a43.11,43.11,0,0,1-4.94,3.11M99,39.2a25.31,25.31,0,0,1-2.5,2.73c-1.74-.38-5.7-1.18-11.46-2-2.77-.39-6.19-.81-10.13-1.18a37.31,37.31,0,0,1-1.24-7.93h29A16.45,16.45,0,0,1,99,39.2m0-19.7a16.62,16.62,0,0,1,3.6,8.18H73.67A36.76,36.76,0,0,1,74.85,20c4-.37,7.39-.79,10.18-1.18,5.76-.82,9.72-1.62,11.46-2A25.31,25.31,0,0,1,99,19.5M80.48,7.57a55.4,55.4,0,0,1,8,3.52,41.75,41.75,0,0,1,4.94,3.1c-3.5.68-9.59,1.72-17.56,2.51a42.57,42.57,0,0,1,1.64-3.94,39.14,39.14,0,0,1,3-5.19m-26-4.42a85.13,85.13,0,0,1,22.9,3.4,42.59,42.59,0,0,0-2.67,4.76A41.85,41.85,0,0,0,72.44,17c-5.34.45-11.38.77-18,.82Zm0,17.83c6.26-.05,12-.34,17.07-.74a40.1,40.1,0,0,0-1,7.44h-16Zm0,9.84h16a40.29,40.29,0,0,0,1.08,7.65c-5.07-.41-10.84-.7-17.12-.74Zm0,10c6.6,0,12.67.38,18,.83a43.68,43.68,0,0,0,2.21,5.51,42.68,42.68,0,0,0,2.78,4.92,84.64,84.64,0,0,1-23,3.43ZM17.35,47.62a43,43,0,0,1-4.93-3.11C15.9,43.83,22,42.8,29.9,42c-.51,1.41-1,2.66-1.56,3.73a37.82,37.82,0,0,1-3.11,5.36,58.41,58.41,0,0,1-7.88-3.48m34,7.93a84.72,84.72,0,0,1-23-3.43,41.08,41.08,0,0,0,2.79-4.92,44.39,44.39,0,0,0,2.2-5.51c5.36-.45,11.42-.78,18-.83Zm0-17.82c-6.28,0-12.05.33-17.12.74a39.52,39.52,0,0,0,1.07-7.65H51.35Zm0-10H35.3a40.12,40.12,0,0,0-1-7.44c5,.4,10.81.69,17.07.74Zm0-24.53V17.84c-6.58-.05-12.62-.37-18-.82a44.6,44.6,0,0,0-2.27-5.71,42.43,42.43,0,0,0-2.68-4.76,85.27,85.27,0,0,1,22.91-3.4m-34,7.94a55.89,55.89,0,0,1,8-3.52,37.89,37.89,0,0,1,3,5.19c.53,1.12,1.1,2.45,1.63,3.94-8-.79-14-1.83-17.55-2.51a41.6,41.6,0,0,1,4.93-3.1M6.84,19.5a25.31,25.31,0,0,1,2.5-2.73c1.74.38,5.7,1.18,11.45,2,2.8.39,6.23.81,10.19,1.18a37.42,37.42,0,0,1,1.18,7.73H3.24a16.53,16.53,0,0,1,3.6-8.18M32.16,30.82a36.81,36.81,0,0,1-1.24,7.93c-3.93.37-7.35.79-10.13,1.18-5.75.82-9.71,1.62-11.45,2a25.31,25.31,0,0,1-2.5-2.73,16.45,16.45,0,0,1-3.62-8.38Z"/></g></g></svg>