<?xml version="1.0" encoding="utf-8"?>
<!-- Generator: Adobe Illustrator 23.0.6, SVG Export Plug-In . SVG Version: 6.00 Build 0)  -->
<svg version="1.1" id="Layer_1" xmlns="http://www.w3.org/2000/svg" xmlns:xlink="http://www.w3.org/1999/xlink" x="0px" y="0px"
	 viewBox="0 0 17.7 69.5" style="enable-background:new 0 0 17.7 69.5;" xml:space="preserve">
<style type="text/css">
	.st0{fill:#FFFFFF;}
</style>
<title>Asset 27</title>
<g>
	<g id="_Layer_">
		<path class="st0" d="M5.2,0h10.3c1.2,0,2.2,1,2.2,2.2v31.7c0,1.2-1,2.2-2.2,2.2H5.2C4,36,3,35.1,3,33.9V2.2C3,1,4,0,5.2,0z"/>
		<path class="st0" d="M1.7,26.7c0,0-0.4,1.6-1.7,1.6c0,0-0.4,1.3,1.3,1.3c0,0,1.1,0.4,1.1-1.1V5.3c0,0,0.2-0.6,0.6-0.6V2.2
			C2.1,3,1.6,4.1,1.7,5.3V26.7z"/>
		<rect x="10.8" y="24.4" class="st0" width="1.4" height="45.2"/>
		<rect x="8.5" y="24.4" class="st0" width="1.4" height="45.2"/>
		<path class="st0" d="M13.1,24.4v45.2h0.5c1.2,0,2.2-1,2.2-2.2V26.5c0-1.2-1-2.2-2.2-2.2H13.1z"/>
		<path class="st0" d="M4.9,26.5v40.8c0,1.2,1,2.2,2.2,2.2h0.4V24.4H7.1C5.9,24.4,4.9,25.3,4.9,26.5z"/>
	</g>
</g>
</svg>
