<?xml version="1.0" encoding="utf-8"?>
<!-- Generator: Adobe Illustrator 23.0.6, SVG Export Plug-In . SVG Version: 6.00 Build 0)  -->
<svg version="1.1" id="Layer_1" xmlns="http://www.w3.org/2000/svg" xmlns:xlink="http://www.w3.org/1999/xlink" x="0px" y="0px"
	 viewBox="0 0 74.7 73.7" style="enable-background:new 0 0 74.7 73.7;" xml:space="preserve">
<style type="text/css">
	.st0{fill:#FFFFFF;}
</style>
<title>Asset 40</title>
<g>
	<g id="_Layer_">
		<path class="st0" d="M14.9,63c-0.1-0.1-0.1-0.2-0.2-0.3C14.8,62.7,14.9,62.9,14.9,63z"/>
		<path class="st0" d="M59.2,36.8c0,0,1.1,0.9,2.9-0.8c0,0,2.6,1.3,2.9,1.1c0.2-1.7,0.6-3.4,1.2-5.1c0.9-2.3,4-11.1,4-11.1
			S74,9.4,74,8.7s1.8-4.8-0.6-5.6c0,0-6.1-0.6-6.4-0.7s-5-0.5-7-0.6c-1.9-0.2-3.7-0.4-5.5-0.7c-0.5-0.1-2.8-0.1-3-0.1
			s-5-0.5-5.5-0.6c-4-0.4-8.1-0.4-12.2-0.1l-5.1,0.5c-1.7-0.1-3.3,0-5,0.3c0,0-3.6,0.1-4.7,0.1s-4.5,0.7-4.9,0.7c-1,0-2.1,0-3.1,0.2
			c-0.1,0.2,0,1.7,0,2.2s-0.1,3.9-0.2,4.2S9.5,9,10.2,9.9c0.5,0.5,0.7,1.1,0.6,1.8v3.6c0,0-8.2,3.4-9.9,7.3s-0.7,8,0.7,9.6
			c2.9,3.4,6,6.5,9.4,9.4c0,0-0.1,0.7-1.2,0.4S7,41.7,6.7,42.5c-0.2,1.7-0.3,3.5-0.3,5.2c0,0.7,0.5,10.3,0.5,10.3s0.2,7.8,0.1,8.6
			s-1.3,6,0.1,6.6c0,0,7.7,0.4,14.8,0.2c0,0,7.6,0.4,7.8,0.3s1-0.7,1-1s-0.5-10.9-0.5-10.9s4.9-3.3,5.9-4.2c1.1-0.8,2.3-1.5,3.5-2.1
			L39.4,55l1.2-1.2l1.2-0.3l0.3-0.7l0.6,0.3L44,52c0,0-0.8-4.8-0.8-6.6c0-0.9-0.1-1.9-0.3-2.8c-1-0.3-1.5-1.4-1.2-2.4
			c0-0.1,0.1-0.3,0.2-0.4c2.1,0.4,4.2,0.7,6.3,0.7c2-0.1,4.7-0.1,4.7-0.1s4.7-0.6,5-1s-0.2-2.4-0.2-2.4S58.9,37.2,59.2,36.8z
			 M6.7,71.8c0.6,0,1,0.4,1,1C7.7,72.8,6.5,73.3,6.7,71.8L6.7,71.8z M11.5,16.2c-0.2,1-1.4,1.2-1.4,1.2c-0.7,0.2-1.3,0.5-1.9,0.9
			C8.2,16.6,11.5,16.2,11.5,16.2z M6.5,32.9c0,0,1.9,0.2,3.6,3.2C10.1,36.2,8.3,35.8,6.5,32.9L6.5,32.9z M6.6,31.1
			c-4.8-5.6-1.9-8.4-1.7-8.8s4.4-3.2,4.4-3.2h0.9c0.4,0.4,0.3,3.1,0.3,3.1c-0.6,3.3,0.8,4.1,0.8,4.1c1,0.8,1.9,1.8,2.5,2.9
			c0.5,1.6,1.4,3.2,2.5,4.4c1.2,1.1,2,2.5,2.5,4c1.1,0.2,2.1,0.9,2.8,1.7c0.6,1,1.3,2,2.1,2.9c-0.5,0.8-2.2,0.5-2.2,0.5
			c-1.4-0.2-2.8-0.4-4.2-0.4c-0.8-1.1-1.6-2.2-2.5-3.2C11.8,36.8,9.1,34,6.6,31.1L6.6,31.1z M19,51.8c-0.7,0.2-1.4-0.3-1.6-1
			c0-0.1,0-0.2,0-0.3C17.4,50.5,19.3,50.6,19,51.8z M14,42c0,0,3,2.7,3.7,4.5C17.7,46.4,14.1,42.6,14,42L14,42z M10.6,44.8
			c0,0,0.2,0.8,0.3,0.9s0,0.7,0,0.7s-1.6,0.1-1.7-0.2S9.1,44.5,10.6,44.8L10.6,44.8z M9.6,70.1c0,0-0.6-1.3-0.3-1.5
			c0.4,0,0.7-0.2,1-0.5c0,0,0.7-0.4,0.8-0.1C11.2,68,12.1,70.5,9.6,70.1L9.6,70.1z M13.1,69c-0.2-0.7-0.5-1.6-0.2-1.5
			c0,0,1.6,1,1.6,1.4S13.3,69.8,13.1,69z M14.7,66.1c0.1-1,0.2-2.1,0.1-3.1c0-0.1-0.1-0.3-0.2-0.3c0.1,0.1,0.1,0.2,0.2,0.3
			c0.4,0.8,0.5,1.7,0.5,2.6c0,0-0.1,1.8,0.1,1.9C15.5,67.5,14.7,67.4,14.7,66.1L14.7,66.1z M17.7,55.9c-3.2-1-4-2.6-4.2-3.5
			s0.4-0.3,0.4-0.3l0.6,0.6c0.5,0.6,1,1.2,1.6,1.6C17.9,55.1,17.7,55.9,17.7,55.9z M16.1,53.1c0,0-0.5-0.3-0.6-0.2
			c-0.1-0.8,0.2-1.5,0.8-2.1c0,0,1.9,1.4,1.9,1.8c0,0-0.5,0.6-0.5,0.8C17.7,53.4,16.6,53.7,16.1,53.1z M17.8,65.2
			c1.1-1.2,2.3-2.2,3.5-3.3c0.4-0.2,3.4-2.8,3.4-2.8C22.9,62.2,17.8,65.2,17.8,65.2z M25.8,70.1c0,0-0.1-1.5,0.4-1.6
			c0,0,1.1-0.1,1.2,1.6C27.4,70.1,27,70.7,25.8,70.1L25.8,70.1z M27.2,42.1c0,0-0.6-2.3,1.5-2.7c-0.1,0.9-0.1,1.7,0,2.6
			C28.7,42.1,27.7,41.7,27.2,42.1L27.2,42.1z M35,54c0.8-0.9,2.7-0.2,2.7-0.2C37.1,54.4,35,54,35,54z M38.1,51.9
			c-1.4-0.2-2.8-0.2-4.2-0.1c0.5-0.5-0.3-5-0.3-5c-0.4-1.4-0.4-2.9,0-4.3l0.6-0.1c-0.5,0.8,0,3.8,0,3.8c0.6,1,0.4,4.8,0.4,4.8
			c0.1,0.4,2.6,0.3,2.6,0.3c1.2-0.1,2.5,0,3.7,0.3C40.5,51.9,38.1,51.9,38.1,51.9L38.1,51.9z M34.7,42v-2h0.5v2.1L34.7,42z
			 M37.2,17.2c0-1.5,0.3-3,0.8-4.5c0.2,0.2,0.5,0.2,0.7,0c0,0,0,0,0.1-0.1c0.3-0.4,0.5-0.2,0.5-0.2s0.1,0.4,0.3,0.4s0.4,0.1,0,0.8
			s-2.4,4.3-1.3,7.6c0,0-0.4,0.7-0.7,0.3s-0.3-0.6-0.6-0.4c0,0-0.4,0.3-0.4,0.2C36.8,20,37.1,18.6,37.2,17.2z M40.3,24.8
			c0,0.2-0.2,0.3-0.3,0.3s-0.7-1-0.7-1.4s0.5-0.3,0.5-0.3C39.5,23.8,40.3,24.6,40.3,24.8z M37.8,37.5c0.4,0.1,0.8,0.1,1.2,0
			c0.4,0.3-0.5,0.7-1.2,0.5S37.7,37.4,37.8,37.5z M36.6,32.5c0,0,1.8-0.4,2.1,0.1C38.7,32.5,36.3,32.8,36.6,32.5L36.6,32.5z
			 M37.1,39.7l0.3,1.2c0.4,1.5-1,1.2-1,1.2C36,39.6,37.1,39.7,37.1,39.7L37.1,39.7z M41.7,18c-0.1,0.4-0.2,0.8-0.2,1.2
			c0,0-1.2-0.7,0.2-2.9c0.2,0.3,0.4,0.5,0.7,0.7c0.2,0.1,0.4,0.6,0.4,0.8S41.9,17.2,41.7,18z M45.1,29c-1.2-0.3-0.5-1.7-0.5-1.7
			c-0.3-0.1-0.8,0-0.9,0.8s0.9,0.9,0.9,0.9c-0.2,0.5-1.3-0.1-1.3-0.1c-0.1-0.5,0-1,0.1-1.5c0.3-1,1-0.6,1-0.6
			c0.4,0.4,0.9,0.5,1.4,0.5C46.3,29.7,45.1,29,45.1,29z M45.8,19c-0.2,0-0.3,0.2-0.4,0.2c-0.5-0.1-0.8-0.4-1-0.9
			c-0.3-0.6,0.6-0.8,0.6-0.8C46.6,17.5,46,18.9,45.8,19L45.8,19z M50.5,19.9c0.7-0.3,1.4-0.3,2.1,0c0,0,1.4,0.6,1.6,0
			c-0.1,0.3-0.1,0.6,0.1,0.9C53.1,20.5,51.8,20.1,50.5,19.9L50.5,19.9z M40.1,2.3c-0.5,0-0.8,0.2-0.9,0.5s-1.4,10-2.5,13.4
			c-1.6,5.2-2.7,10.5-3.4,15.9c-0.3,3.7-1.3,3-1.5,3.1c-2.1-1.1-4.1-2.5-5.9-4c-0.3-0.4-0.8-0.6-1.3-0.7c-1.8,0-7.3-3.8-7.6-4.2
			s-1.3-0.1-1.3-0.1C14,25.9,13,23.9,13,23.9s0.1-2.3,0.1-3s0.6-7.7,0.7-8.3s0.5-7.5,0.6-9.4s1-1.4,1-1.4S32.2,1.1,32.8,1
			s8.6-0.4,9.2-0.4s22.9,2.2,24.6,2.4s5.7,0.4,6.7,1.2s-0.4,3.6-0.4,4.3s-4,13.8-4.4,14.3s-4,12.3-4.3,13.2s-0.7,0.4-0.7,0.4
			l-1.3-0.7c0.5-0.5,3.1-28.5,3.2-30s-0.5-1.1-1.7-1.3S40.7,2.3,40.1,2.3z"/>
		<polygon class="st0" points="19.5,22.7 24.7,18 25,14.9 21.1,6.4 20.8,9.5 23.8,16.1 19.7,19.9 		"/>
		<polygon class="st0" points="25.1,25.6 31.9,20.7 32.3,17.3 27.4,7.5 26.9,11 30.7,18.5 25.4,22.6 		"/>
		<polygon class="st0" points="15,20.3 19.2,15.8 19.4,13 16.1,5.5 15.9,8.3 18.4,14.1 15.1,17.8 		"/>
	</g>
</g>
</svg>
