<?xml version="1.0" encoding="utf-8"?>
<!-- Generator: Adobe Illustrator 23.0.6, SVG Export Plug-In . SVG Version: 6.00 Build 0)  -->
<svg version="1.1" id="Layer_1" xmlns="http://www.w3.org/2000/svg" xmlns:xlink="http://www.w3.org/1999/xlink" x="0px" y="0px"
	 viewBox="0 0 111.8 72" style="enable-background:new 0 0 111.8 72;" xml:space="preserve">
<style type="text/css">
	.st0{fill:#FFFFFF;}
</style>
<title>Asset 41</title>
<g>
	<g id="_Layer_">
		<path class="st0" d="M101.6,4.6c-0.2-0.6-0.7-2.1-2.1-2.3c-0.3,0-1.1-0.2-2.1-0.5c-3-0.7-8.5-2-12.9-1.9c-1.6,0-3.4,0-5.5,0
			c-6.9,0-12,0-13.5,0.7C64.5,0.8,56.2,2,51.8,4.8c-4.1,2.6-17.3,12.3-19,14.6c-3.1,1.5-8.1,4-8.8,4.1H24h-0.1
			c-1.5,0.8-14.4,7.1-16,9.5c-1,1.2-4.3,5.5-4.8,7.3c-2.5,1.2-3.7,4-3,6.6c0.9,4.7,1.8,6,1.9,6.1l2.2,3.3c0.5,0.6,2.9,3.7,4,4.3
			C9.1,61.2,22.5,71,33.7,71.8c10.6,0.8,16.9-2.4,17.9-2.9c0,0,13.8,5.1,17-10.2l0.2-0.6L69,58c0.5,0.1,1.1,0.1,1.5-0.1l0,0l0,0
			c10.8-7.4,27.2-18.4,29-19.3h0.1c1.1,0.3,2.3,0.4,3.5,0.2c3.6-0.3,5.5-5.2,5.8-9.6c1.1-0.9,1.8-2.1,2.3-3.5c0.3-1,1.1-4.1,0-5.3
			c0-1.1-0.3-5.6-1.3-7.4S102.8,5.7,101.6,4.6z M6.2,39.8v-0.2l0.1-0.2c0.1-0.2,0.3-0.4,0.4-0.6c0.5-0.5,0.9-1.1,1.2-1.7
			c0.5-0.8,0.7-1.7,0.5-2.6c0-0.1,0-0.2,0-0.3l0.3-0.4l0,0l0,0c0.9-1.5,9.9-6.3,15.4-9c1.1-0.3,5.8-2.6,8-3.7c0.7,0.6,1.6,1,2.5,1.3
			c0.5,0.4,7.6,2.3,15.4,4.2c2.3,0.6,4.1,1,4.4,1.1c1,0.3,13.1,2.4,14.4,2.6c-0.7,0.7-1.5,1.2-2.4,1.6c-6.1,3.4-23.5,15.3-24,15.7
			c-0.3,0-4.4,0-7.2,0.2s-7.4,3.5-7.8,3.8c-0.6-0.2-1.2-0.3-1.8-0.3l-1.7-0.2c0-0.1,0-0.3,0-0.4l-0.1-0.2v0c0,0,0-0.1-0.3-0.2
			c-0.2-0.1-0.4-0.2-0.6-0.3l-1.4-0.5L21,49.2c-1.5-0.6-3.7-1.5-5.3-2.3c-1.5-0.7-2.9-1.4-4.3-2.3l0,0c-0.4-0.1-0.8-0.3-1.2-0.5
			l-3.4-1.9c-0.3-0.2-0.6-0.4-0.9-0.6C6,41,6,40.4,6.2,39.8z M110.1,20.9l0.3,0.2c0.5,0.3,0.3,2.5-0.2,4.3c-0.3,0.9-0.8,1.8-1.6,2.5
			c0-0.1,0-0.3,0-0.4l0,0l0,0c0-0.6,0.2-5.4-1.8-4.4s-3.2,6.3-3.9,7.4v0.1c-0.6,1.1-1.1,2.3-1.6,3.5c-0.4,1.2,0.2,2.3-1.8,3.3
			c-0.7,0.3-4.4,2.5-29.3,19.5c-0.2,0.1-0.6,0.1-0.6,0.1l0,0c0.2-0.5,0.3-0.8,0.3-0.9c0-0.9,0-1.7-0.1-2.6c0.3-1.8-0.4-3.7-1.7-5
			c-0.6-0.5-1.3-0.9-2-1.1c-2.5-0.7-3.3-0.3-5.6,0.8l-0.4,0.2c-2.6,1.3-4.6,5.5-4.7,5.6c-1.8,2.3-2.6,8.1-2.7,8.3l0,0
			c0,1.3-0.1,2.7-0.5,4c-0.1,0.2-0.2,0.3-0.3,0.4h-0.1h-0.1v0.1l0,0.1c-0.2,0.3-0.3,0.7-0.4,1c-0.1,0-6.5,3.6-17.4,2.8
			S9.1,59.7,9,59.6H8.9H8.9c-0.6-0.3-2.5-2.5-3.7-3.9L5,55.3l1,0.8c0.4,0.9,3.4,2.8,5.4,4.1c0.7,0.5,1.3,0.8,1.4,1
			c0.5,0.5,7.7,4.1,9.1,4.7c0.5,0.2,0.9,0.3,1,0.1s0-0.4-0.1-0.5c-0.3-0.7-0.6-1.5-0.7-2.3c-0.1-1.1-0.3-1.1-0.3-1.1l0,0
			c-0.2-0.1-1.1-0.6-6.4-2.5C9.1,57.4,3,52.1,2.9,52l-0.1,0.1c-0.7-1.7-1.2-3.5-1.5-5.4c-0.7-3.7,1.7-5.1,2.4-5.4
			c0,0.8,0.1,1.6,0.3,2.4c0.3,0.9,0.8,1,1.1,0.7c0.4-0.8,0.6-1.7,0.7-2.6C5.9,41.9,6,41.9,6.1,42H6c-0.2,0.1-0.2,0.5-0.2,0.6L5.5,45
			c-0.1,0.8,0.1,1.5,0.5,2.2c1.6,2.7,6.2,4.7,6.7,5c2.5,0.9,5,1.7,7.6,2.4c0.8,0.1,1.5-0.7,3-2.3l0.1-0.1c0.2-0.2,0.4-0.5,0.5-0.8
			c1.2,0.1,2.4,0.3,3.5,0.5v0.1h0.1c0,0,0.5-0.3,1.2-0.8C27.4,52,26.4,53,25.4,54c-0.6,0.6,0.2,1.5,0.2,1.5c1.4,0.4,2.8,0.7,4.2,0.8
			c0,0,7.4,0.3,11.6,0.1c2.3,0,4.6-0.7,6.5-2c0,0,0.8,0,0.3-3.6C47.8,48.2,46,48,46,48c-1.2-0.1-2.3-0.2-3.4-0.2l0,0
			c0.2-0.1,17.9-12.2,24-15.7c0.4-0.3,2.6-1.5,2.6-2v-0.1h-0.1c-0.1,0-13.4-2.3-14.4-2.6c-0.3-0.1-2-0.5-4.4-1.1
			C45,25,35.3,22.5,35,22.1l0,0l0,0c-0.9-0.3-1.7-0.7-2.4-1.2l0.9-0.5l0.2-0.1l0.1-0.2c0.3-0.5,0.7-0.9,1.2-1.2
			c5.6-4.7,11.4-9.1,17.5-13.1c0.3-0.2,0.7-0.4,1-0.6C58,2.9,65.5,1.9,65.6,1.9h0.1h0.1c1.3-0.6,8.1-0.6,13.1-0.6c2,0,4,0,5.5,0
			c4.3-0.1,9.7,1.2,12.6,1.9c0.7,0.2,1.5,0.4,2.3,0.5c0.8,0.1,1.1,1.5,1.1,1.5v0.2l0.2,0.1c2,1.8,7.5,6.6,8.3,8.1s1.1,5.6,1.1,7.1
			L110.1,20.9z"/>
	</g>
</g>
</svg>
