<?xml version="1.0" encoding="utf-8"?>
<!-- Generator: Adobe Illustrator 23.0.6, SVG Export Plug-In . SVG Version: 6.00 Build 0)  -->
<svg version="1.1" id="Layer_1" xmlns="http://www.w3.org/2000/svg" xmlns:xlink="http://www.w3.org/1999/xlink" x="0px" y="0px"
	 viewBox="0 0 53.5 40.2" style="enable-background:new 0 0 53.5 40.2;" xml:space="preserve">
<style type="text/css">
	.st0{fill:#FFFFFF;}
</style>
<title>Asset 67</title>
<g>
	<g id="_Layer_">
		<path class="st0" d="M10.6,0.1c-0.2,0-0.4,0-0.6,0L0,0v10.6c0,0.2,0,0.4,0.1,0.6s0,0.4,0.1,0.6c0.4,1.9,1.3,3.6,2.7,4.9
			c1.5,1.6,3.5,2.5,5.7,2.8c0.4,0,0.8,0.1,1.2,0.1h9.9v-10c0-2.5-1.1-4.9-2.9-6.6C15,1.3,12.9,0.2,10.6,0.1z"/>
		<path class="st0" d="M38.6,7.7c-0.3,0-0.7,0-1,0L20.8,7.6l0.1,17.8c0,0.3,0,0.6,0.1,1s0.1,0.6,0.2,1c0.6,3.1,2.2,6,4.5,8.1
			c2.5,2.6,5.8,4.2,9.4,4.6c0.6,0.1,1.3,0.1,1.9,0.1h16.5V23.4c-0.1-4.2-1.8-8.1-4.8-11.1C46,9.6,42.4,7.9,38.6,7.7z M49.3,36H36.9
			l-1.5,0c-2.7-0.3-5.2-1.6-7.1-3.5c-1.7-1.7-2.9-3.8-3.3-6.2c-0.1-0.2-0.1-0.5-0.1-0.7c0-0.2-0.1-0.5-0.1-0.7V11.5h12.6h0.7
			c2.9,0.2,5.6,1.5,7.6,3.6c2.2,2.2,3.5,5.2,3.6,8.3L49.3,36z"/>
	</g>
</g>
</svg>
