<?xml version="1.0" encoding="utf-8"?>
<!-- Generator: Adobe Illustrator 23.0.6, SVG Export Plug-In . SVG Version: 6.00 Build 0)  -->
<svg version="1.1" id="Layer_1" xmlns="http://www.w3.org/2000/svg" xmlns:xlink="http://www.w3.org/1999/xlink" x="0px" y="0px"
	 viewBox="0 0 32.9 32.9" style="enable-background:new 0 0 32.9 32.9;" xml:space="preserve">
<style type="text/css">
	.st0{fill:#FFFFFF;}
</style>
<title>Asset 72</title>
<g>
	<g id="_Layer_">
		<path class="st0" d="M12.9,31.4c0.9,1,2.2,1.5,3.6,1.5c1.3,0,2.6-0.5,3.5-1.5c1-0.9,1.5-2.2,1.5-3.5v-6.3h6.3
			c1.3,0,2.6-0.5,3.6-1.5c1-0.9,1.5-2.2,1.5-3.6c0-1.3-0.5-2.6-1.5-3.6c-1-1-2.2-1.5-3.6-1.5h-6.3V5.1c0-1.4-0.5-2.7-1.5-3.6
			C19.1,0.5,17.8,0,16.5,0c-1.3,0-2.6,0.5-3.6,1.4c-1,1-1.5,2.3-1.5,3.6v6.4H5.1c-0.8,0-1.6,0.2-2.3,0.6c-0.5,0.2-0.9,0.5-1.2,0.9
			c-1,0.9-1.5,2.2-1.5,3.6c0,1.4,0.5,2.7,1.5,3.6c0.1,0.1,0.3,0.3,0.4,0.4c0.9,0.7,2,1.1,3.1,1.1h6.3v6.3
			C11.4,29.2,11.9,30.5,12.9,31.4z"/>
	</g>
</g>
</svg>
