<?xml version="1.0" encoding="utf-8"?>
<!-- Generator: Adobe Illustrator 23.0.6, SVG Export Plug-In . SVG Version: 6.00 Build 0)  -->
<svg version="1.1" id="Layer_1" xmlns="http://www.w3.org/2000/svg" xmlns:xlink="http://www.w3.org/1999/xlink" x="0px" y="0px"
	 viewBox="0 0 230 64.8" style="enable-background:new 0 0 230 64.8;" xml:space="preserve">
<style type="text/css">
	.st0{fill:#FFFFFF;}
</style>
<title>Asset 126</title>
<g>
	<g id="_Layer_">
		<path class="st0" d="M84.7,26.6c0.8,5.2,3.1,10,5.5,14.6c0.8-0.1,1.5-0.3,2.3-0.5l0.9-0.3c0.4,1.8,1.4,3.4,2.8,4.6
			c0.8,0.5,1.7,0.8,2.6,0.8c0.5,0,1.1-0.1,1.6-0.2c1.6-0.4,3.1-0.7,4.7-1.2c10.4-3.1-4.3-16-7.7-19.2c-0.4-0.3-0.7-0.7-1.1-1
			l-0.7,0.1L94,24.6L92.4,25l-0.7,0.2c0.4,0.4,0.8,0.7,1.1,1.1c-0.2,0.1-0.3,0.1-0.3,0.1c-0.3,3-0.3,6.1,0,9.1
			c-1.5-3.2-2.6-6.6-3.3-10.1C89.3,25.6,84.7,26.4,84.7,26.6z M100.7,34.3c2,2.5,5.7,7.5,2,10.1l-0.2,0.1c-0.6-0.1-1.2-0.3-1.7-0.7
			c-1.7-1.1-2.5-3.3-3-5.2c-0.7-2.8-1.1-5.7-1-8.6C98.1,31.4,99.5,32.8,100.7,34.3z"/>
		<path class="st0" d="M109.6,23.3c1.6,3,4.8,4.1,8,3.8c0.4,0,4.2-1,4.5-1.1l0,0c-0.7-2.6-2.3-4.9-4.5-6.4c-1.8-1.3-3.7-2.5-4.8-4.4
			c0.1-0.7,0.2-1.3,0.3-2c-0.7,0.2-1.5,0.4-2.3,0.5l-1.6,0.4l-0.7,0.2c-0.1,0.6-0.2,1.1-0.3,1.7c-0.1,0-0.1,0-0.2,0l0.1,0.2
			C108,18.6,108.5,21.1,109.6,23.3z M116.8,24.9c-1.1-0.6-2-1.5-2.7-2.6c-0.3-0.4-0.5-0.9-0.7-1.4C114.9,22,116.1,23.4,116.8,24.9z"
			/>
		<path class="st0" d="M148.9,10.2c1.6,2.9,4.8,4.1,8,3.8c0.4,0,4.1-1,4.5-1.1l0,0c-0.7-2.6-2.3-4.9-4.5-6.4
			c-1.8-1.3-3.6-2.5-4.8-4.4c0.1-0.7,0.2-1.3,0.3-2c-0.7,0.2-1.5,0.4-2.2,0.5l-1.6,0.4L148,1.1c-0.1,0.6-0.2,1.1-0.3,1.7h-0.2
			l0.1,0.3C147.3,5.5,147.8,8,148.9,10.2z M156.1,11.8c-1.1-0.6-2-1.5-2.6-2.6c-0.3-0.4-0.5-0.9-0.7-1.3
			C154.2,8.9,155.3,10.3,156.1,11.8z"/>
		<path class="st0" d="M163.4,15.2c-0.2-0.2-0.4-0.4-0.6-0.7l-0.7,0.1l-1.6,0.4l-1.6,0.4l-0.6,0.2c1.3,1.4,2.4,3,3.5,4.5
			c1.7,2.3,3.4,4.6,5,7c3,4.1,5.8,8.4,8.4,12.9c0.1,0.3,0.3,0.5,0.4,0.8c0.8-0.1,1.5-0.3,2.3-0.5c0.1,0,2.2-0.6,2.2-0.6
			c-0.8-1.7-1.8-3.3-2.9-4.9c-1.5-2.4-3.1-4.8-4.7-7.1C169.6,23.4,166.6,19.1,163.4,15.2z"/>
		<path class="st0" d="M136,38.5l1.9,1.8c0.8,0.7,1.6,1.5,2.3,2.2l0.3,1c0.2,0,0.4-0.1,0.7-0.1c1.9,1.7,3.7,3.4,5.7,4.9
			c3.2,2.4,6.6,4.3,10.3,5.8c3.8,1.5,7.7,2.6,11.7,3.2c3.9,0.7,7.8,1.2,11.8,1.5c8.2,0.4,16.4-0.8,24.2-3.5
			c3.7-1.3,7.3-3.1,10.5-5.3c2.9-1.9,5.5-4.2,7.7-6.9c3.9-4.8,6.7-11,6.7-17.3c0.1-2.9-0.8-5.8-2.5-8.2c-2.4-3-5.8-5.1-9.6-5.9
			c-1.8-0.4-3.6-0.4-5.5-0.1c-2.5,0.4-5,1-7.4,1.8c-3.6,1.3-7.1,3-10.3,5l-0.9,0.5c0-2.2,0-4.4,0-6.6c0.6,0.6,1.1,1.1,1.6,1.6
			l0.7-0.1l1.6-0.4l1.6-0.4l0.6-0.2c-1.8-1.6-3.4-3.4-4.8-5.4c-0.7-1.1-1.1-2.4-1.2-3.8c0-1,0-2.1-0.1-3.1l-1.3,0.3l-0.9,0.2
			c-0.8,0.1-1.5,0.3-2.2,0.6c-0.1,1,0,2,0.1,3c0,5.5-0.4,11.1-0.2,16.6l-0.3,0.1c0.7-0.4-2.5-0.1-3.4,0.8c-0.6,0.2-1.1,0.4-1.7,0.6
			c-0.8,0.3-1.6,0.8-2.3,1.3l0.1-0.5c0.2-1.9-0.2-3.8-1.3-5.4c-1.7-3-4.5-5.3-5.2-8.8c0,0.1-4.5,1-4.5,1.1c0.6,3.4,3.3,5.8,5.1,8.7
			c1,1.6,1.5,3.4,1.4,5.3c0,0.3-0.1,0.6-0.1,0.9c-2.1-3-3.8-6.3-5.1-9.7c-0.1-0.2-4.4,1.2-4.5,1.1c1.9,4.8,4.6,9.3,7.8,13.4
			l-0.1,0.3l0.3-0.1c3,4,6.2,7.8,9.1,11.8c0.8-0.1,1.5-0.3,2.3-0.5c0.8-0.2,1.6-0.4,2.3-0.5c-2.9-4-6.2-7.9-9.2-11.9
			c1.7-2,3.6-3.9,5.6-5.6c0,0.2,0.1,0.3,0.1,0.5c0.1,0.6,0.3,1.2,0.5,1.8c0.3,1.2,0.8,2.3,1.2,3.4c0.9,2.3,2,4.6,3,6.9
			c0.1,0.2,4.4-1.3,4.5-1.1c-1.9-4.5-4.2-8.8-4.9-13.6l0.9-0.2l0.9-0.2c0.8-0.1,1.5-0.3,2.2-0.6c3.5-1.9,6.8-4,10.4-5.8
			c1.4-0.7,2.8-1.3,4.2-1.9l0.6-0.1c0.9-0.1,1.9-0.1,2.8,0c4,0.4,7.6,2.3,10.4,5.2c2,2.2,3.1,5,3.3,7.9c0.5,6.2-2.3,12.6-5.9,17.5
			c-2,2.6-4.4,5-7.1,6.9c-3.2,2.4-6.8,4.3-10.5,5.7c-0.9,0.3-1.8,0.7-2.7,0.9l0,0H199c-1.9,0.4-3.8,0.6-5.8,0.8
			c-3.8,0.3-7.7,0.2-11.5-0.2c-7.9-0.8-16-2.3-23.2-5.9c-5.2-2.6-9.6-6.3-13.8-10.2c-0.6-1.8-1.2-3.6-1.8-5.4l1.9-1
			c3.2,2.8,6.9,5,10.9,6.5c0.2,0,0.4-0.1,0.7-0.2l1.6-0.4l1.6-0.4l0.7-0.2c1-2.9,2.3-8.2-1.9-9c-1.8-0.2-3.6-0.1-5.3,0.5l-0.5,0.1
			c-1.9-2-3.6-4.2-5.1-6.5c-0.7-1.1-1.4-2.2-2-3.3c2.2,1.5,4.4,3.1,6.6,4.7c0.2,1.1,0.5,2.3,0.6,3.4c0-0.1,4.5-0.9,4.5-1.1
			c-0.3-2.1-0.9-4.3-1.1-6.4c-0.1-0.5-0.1-0.9-0.1-1.4c1.7,2,3.3,4.1,4.8,6.2c2.7,3.7,5.2,7.5,7.3,11.5c0.8-0.1,1.5-0.3,2.3-0.5
			c0.1,0,2.2-0.6,2.2-0.6c-2.1-4-4.5-7.8-7.1-11.4c-2.7-3.7-5.6-7.3-8.7-10.6l-0.7,0.1l-1.6,0.4l-1.6,0.4l-0.7,0.2
			c-0.5,1.6-0.8,3.2-0.8,4.9c-3.1-2.1-6.2-4.3-9.2-6.5l-0.7,0.1L140,16l-1.4,0.4l-0.9,0.2c1.4,3.4,3.2,6.7,5.2,9.8
			c1.1,1.7,2.3,3.4,3.6,5l-1.1-1.1c-4.3-4.2-8.2-8.8-11.4-13.9c-0.8,0.1-1.5,0.3-2.3,0.5l-0.7,0.2l-1.5,0.4
			c3.1,5.4,5.7,11.1,7.9,16.9c-3.9-3.6-7.2-7.8-10-12.4c-0.3-0.6-0.6-1.1-0.9-1.7c-0.8,0.1-1.5,0.3-2.3,0.5l-0.9,0.2l-1.3,0.3
			c0.3,0.6,0.6,1.1,0.9,1.7c1.5,2.9,2.7,6,4.1,9c-1.1-1.6-2.3-3.2-3.6-4.6l-0.7,0.1l-1.6,0.4l-1.6,0.4l-0.7,0.2
			c0.8,0.9,1.6,1.9,2.3,2.8c-1.7-1.2-3.6-2.2-5.4-3.1c-3.4-1.7-6.8-3.1-10.3-4.6l-0.3-0.4c0,0-0.3,0-0.5,0.1c-1.2-0.5-2.4-1-3.6-1.5
			c0.3-0.3,0.6-0.5,0.9-0.8c1.4-1.3,2.1-3.2,1.7-5.1c-0.5-2-1.7-3.7-3.3-5c-1.8-1.6-3.9-2.9-6.2-3.8c-2.5-1.1-5.1-1.7-7.8-1.9
			c-1.2,0-2.5,0.2-3.6,0.5c0.3-0.1-0.6,0.1-1.6,0.3c-0.1-0.2-0.1-0.3-0.2-0.5s-4.5,1.2-4.5,1.1c0.1,0.3,0.2,0.6,0.3,0.8L77,7.5h0.1
			c0.3,0.6,0.6,1.2,0.9,1.7l-0.5,0.1l-1.9,0.5c-0.7,0.2-1.4,0.5-2,1c-1,0.9-1.5,2.1-1.5,3.4c-0.7-1-1.4-2.1-2-3.3
			c-0.4-1-0.9-2.1-1.3-3.1c-0.8,0.1-1.5,0.3-2.3,0.5l-1.8,0.5L64.3,9c0.4,1,0.8,2,1.3,3c1.1,2.8,2,5.6,2.8,8.5
			c-2.6-2.7-4-6.5-7.1-8.8l-0.7,0.1c-0.5,0.1-1.1,0.3-1.6,0.4l-1.6,0.4l-0.7,0.2c-0.5,1.6-0.6,3.4-0.4,5.1c0.1,1.9,0.7,3.8,1.5,5.5
			c0.6,1.5,2,2.5,3.6,2.7c0.3,0,0.6,0,0.9,0c-1.8,0.9-3.3,2.3-4.5,4C56.5,23.4,55,16.6,52,10.5c-1.5,0.3-3,0.7-4.5,1.1
			c0.4,4.3,0.5,8.7,0.1,13c-0.2,2.2-0.6,4.4-1.2,6.6c-1.3,0.3-2.6,0.7-3.9,1.1c-2.7-4.9-6.9-8.8-12-11.2c-3.1-1.5-6.5-2.2-9.9-2
			c-2.1,0.2-4.2,0.7-6.2,1.3c-1.8,0.4-3.6,1-5.3,1.7c-4.7,2-10.4,6.7-8.8,12.5c0.9,3.2,3.7,5.4,6.3,7.1c2.4,1.4,4.9,2.5,7.5,3.3
			c5.6,1.8,11.5,2.2,17.2,1.1c3.6-0.6,7.1-1.7,10.4-3.2c2.4-1.3,4.4-3.1,5.9-5.4c1.2-1.9,2.2-3.9,2.8-6.1c1,0.1,1.9,0.2,2.9,0.3
			c0.6,2.9,1.1,5.8,1.8,8.6l4.5-1.1c-0.2-0.7-0.3-1.4-0.5-2.1c0.5,0.4,1,0.8,1.6,1.1c1.2,0.7,2.6,1.2,4,1.5c0.6,0.1,1.1,0.1,1.7,0
			c1.6-0.3,3.2-0.7,4.7-1.2c2.8-0.9,1.3-4.2,0.5-6.1c-0.7-1.6-1.6-3.2-2.2-4.8c-0.1-0.2-4.4,1.3-4.5,1.1c1,2.5,2.5,4.8,3.2,7.5
			c0.2,0.7,0.2,1.5,0,2.2L68,38.1c-2.6-0.8-5.6-2.6-6.4-5.3c-1-3.3,2.4-6.1,4.8-7.6l0.2-0.1c0.2,0,0.2-0.1,0.2-0.1
			c0.9-0.2,1.7-0.6,2.4-1.1c0.1,0.5,0.3,1,0.4,1.5c0.9,2.7,1.9,5.4,3.2,8c1.2,2.5,1.9,5.3,2,8.1c0-0.1,2.1-0.5,2.3-0.5
			c0.8-0.1,1.5-0.3,2.2-0.6c-0.1-2.8-0.8-5.6-2-8.2c-0.2-0.5-0.5-1.1-0.7-1.6c0.4,0.1,0.8,0.3,1.2,0.4c3.2,1.4,4.3,5,5,8.1
			c0.4,1.7,0.7,3.4,1,5.1c-6.2-0.7-12.5-0.5-18.7,0.6c-4.2,0.7-8.3,1.7-12.3,2.9c-3.7,1.1-7.2,2.4-10.7,3.9c0.7-0.2,1.5-0.4,2.3-0.5
			c0.8-0.1,1.5-0.3,2.2-0.6c2.1-0.9,4.3-1.8,6.5-2.6c1.1-0.4,2.2-0.7,3.3-1.1l1.2-0.3l0.3-0.1c4.5-1,9-1.5,13.6-1.5
			c4.3-0.1,8.6,0.3,12.9,1.1c0.3,1.3,0.7,2.6,1.2,3.9c0.8-0.1,1.5-0.3,2.3-0.5c0.1,0,2.2-0.6,2.2-0.6c-0.2-0.5-0.4-1.1-0.6-1.6
			c2.9,0.8,5.8,1.8,8.7,2.8c12.6,4.4,24.6,10.3,37.1,14.8c0.2,0,0.4-0.1,0.7-0.2l1.6-0.4l1.6-0.4l0.3-0.1l0.4-0.1
			c-5-3.7-10.9-7.6-13.1-13.7c-0.1-0.2-4.4,1.2-4.5,1.1c1.2,3.1,3.2,5.9,5.8,8c-4.8-2-9.5-4-14.3-6c-8-3.3-16.3-6.6-24.9-8.2
			c-0.8-3.5-1.1-7.1-2.4-10.4c-0.7-2.1-2.2-3.8-4.1-4.7c-1.2-0.5-2.5-0.7-3.7-0.7c-0.4,0-0.8,0-1.1,0l-0.6,0.1
			c-0.5,0.1,0-0.2,0.2-0.3c0.3-0.2,0.6-0.4,1-0.5c1.5-0.3,3-0.7,4.5-1.2c0.3-0.1,0.5-0.2,0.7-0.3s0.3-0.1,0.1-0.3L83,26.4
			c-0.3-0.5-0.7-1-1-1.5s-0.8-1-1.2-1.5c1.1,0.4,2.2,0.7,3.3,1c2.8,0.7,5.8,0.8,8.6,0.4c0.4-0.1,0.8-0.2,1.2-0.3s3.1-0.7,3.5-0.9
			l0.4-0.1l3.3,1.4c3.4,5.4,6.1,11.3,9.7,16.5c-1,0.8-1.2,2.2-0.6,3.3c1.1,2,3.7,3.1,5.9,3.4c1.1,0.1,2.2,0,3.2-0.2
			c-0.4,0.1,0.1,0,1.3-0.3l0.9-0.2c1.9-0.3,3.7-1,5.2-2c0.7-0.6,1.3-1.2,1.8-2c0,0.1,0.1,0.2,0.1,0.3c0.8-0.1,1.5-0.3,2.3-0.5
			c0.1,0,1.7-0.5,2.1-0.6c0.6,0.7,1.2,1.4,1.8,2l0.7-0.2l1.6-0.4l1.6-0.4l0.6-0.2c-1.9-1.9-3.6-4.1-4.9-6.5l1.4,1.3l-0.3,0.2
			C135.8,38.5,135.9,38.5,136,38.5z M150.8,34.7l1.6-0.4l1.6-0.4l0.6-0.2c-0.6-0.5-1.1-1-1.6-1.5c0.8,0,1.5,0.2,2.1,0.6
			c2,1.1,2,3.6,1.5,5.9c-2.1-1.1-4.1-2.4-6-3.9L150.8,34.7z M144.2,34.3c-0.5,0.2-1,0.4-1.6,0.7c-0.4-1.1-0.8-2.1-1.2-3.2
			C142.3,32.7,143.2,33.5,144.2,34.3L144.2,34.3z M39,43c-1.1,0.8-2.3,1.4-3.5,1.9c-0.3,0.1-0.6,0.3-1,0.4l0,0
			c-5.8,0.8-11.7,0.2-17.2-1.8c-2.6-0.9-5.1-2.1-7.4-3.7c-2.7-1.8-5-4.4-5.3-7.6c-0.3-2.6,1.1-5.1,2.9-7c2.2-2.2,4.8-3.8,7.7-4.8
			c0.6-0.1,1.2-0.1,1.8-0.2c1.7-0.1,3.3,0.1,4.9,0.5c3.5,0.9,6.8,2.6,9.7,4.9c4.1,3.1,7.1,7.6,8.4,12.6c0,0,3.3-0.8,4.3-1
			C42.9,39.5,41.2,41.5,39,43z M44.3,36.8c-0.4-1.6-1-3.1-1.7-4.5c0.6-0.2,1.3-0.3,1.9-0.4s1.3-0.3,1.9-0.5
			C45.8,33.2,45.1,35,44.3,36.8L44.3,36.8z M51.4,30.2h-0.5c0.5-1.7,0.8-3.5,1.1-5.2v-0.2c0.4,1.8,0.8,3.6,1.2,5.4
			C52.6,30.2,52,30.2,51.4,30.2L51.4,30.2z M70.6,38.5c-0.1,0-0.3,0-0.4,0h-0.4C71.4,38,71.7,38.4,70.6,38.5L70.6,38.5z M69.2,23.7
			H69c-0.5,0.1-1.1,0.3-1.6,0.4c-0.8,0.1-1.5,0.3-2.2,0.6L65,24.7c-0.1,0-0.2-0.1-0.4-0.1c-1.3-0.8-2.3-2-2.8-3.4
			c-0.5-1.2-0.8-2.4-1-3.6c1,1.7,2.2,3.2,3.6,4.6l0.7-0.1l1.6-0.4l1.6-0.4l0.2-0.1C68.8,22,69.1,22.8,69.2,23.7L69.2,23.7z
			 M78.9,28.2L78,28.4c-0.7,0.2-1.3,0.3-2,0.5c-0.7-1.5-1.2-3.1-1.7-4.7c-0.2-0.8-0.5-1.6-0.7-2.5c0.9,0.9,1.8,1.7,2.7,2.7
			c1,1.1,1.9,2.3,2.6,3.5C78.9,28.1,78.9,28.1,78.9,28.2L78.9,28.2z M95.5,23.9L95.5,23.9c-0.8,0-1.6,0-2.5,0
			c-3.1-0.2-6.2-0.9-9-2.1c-2.5-0.9-4.7-2.5-6.3-4.7c-0.9-1.4-1.3-3.1-1.1-4.7c0.1-0.8,0.4-1.5,0.9-2.1c0.2-0.2,0.4-0.5,0.7-0.7
			c2.3,3.8,6.1,6.7,9.9,9c2.8,1.6,5.6,3.1,8.6,4.4C96.3,23.4,95.9,23.7,95.5,23.9L95.5,23.9z M98.8,20.8
			c-6.6-3.1-14.2-7.3-17.1-14.4c0.7,0,1.5,0.1,2.2,0.2c2.5,0.4,4.8,1.1,7.1,2.2c2.2,1,4.2,2.4,5.9,4.1c1.4,1.3,2.4,3.1,2.7,5
			C99.6,18.9,99.3,19.9,98.8,20.8L98.8,20.8z M121.4,47.1c-0.6,0-1.2-0.1-1.8-0.3c-1.5-0.3-2.8-1-3.9-2c-0.6-0.5-1-1.2-1.3-2l0,0
			c0.7-0.2,1.5-0.4,2.2-0.6c-0.5-0.6-0.9-1.3-1.4-1.9c0.6-0.5,1.3-0.8,2-1c-0.8,0.2-1.5,0.4-2.3,0.6c-2.6-3.8-4.7-7.9-7-11.9
			c4,1.7,7.9,3.9,11.4,6.5c2.1,1.6,4.5,3.7,5.2,6.4S123.5,45.8,121.4,47.1z"/>
		<path class="st0" d="M209.8,19.2c0.6,5.1,0.9,10.2,2.1,15.2l4.5-1.1c-1.2-5-1.5-10.1-2.1-15.2C214.3,18.2,209.7,19,209.8,19.2z"/>
		<path class="st0" d="M215.4,18.9c-0.1,4.7,0.5,9.5,1.8,14c0,0.1,4.5-1.2,4.5-1.1c-1.3-4.5-1.9-9.3-1.8-14c0,0.1-2.1,0.5-2.3,0.5
			C216.9,18.5,216.2,18.6,215.4,18.9z"/>
		<path class="st0" d="M37,20.4c0-0.1,4.5-0.9,4.5-1.1c-0.6-3.9-0.9-7.8-1.8-11.6l-4.5,1.1C36.1,12.6,36.4,16.5,37,20.4z"/>
	</g>
</g>
</svg>
