<?xml version="1.0" encoding="utf-8"?>
<!-- Generator: Adobe Illustrator 26.0.1, SVG Export Plug-In . SVG Version: 6.00 Build 0)  -->
<svg version="1.1" id="Layer_1" xmlns="http://www.w3.org/2000/svg" xmlns:xlink="http://www.w3.org/1999/xlink" x="0px" y="0px"
	 viewBox="0 0 243.2 166.6" style="enable-background:new 0 0 243.2 166.6;" xml:space="preserve">
<style type="text/css">
	.st0{fill:#FFFFFF;}
</style>
<g id="Layer_2_00000103967128411258070790000016128693366243048836_">
	<g id="_Layer_">
		<path class="st0" d="M139.6,58.6c-0.6-0.1-1.2-0.4-1.7-0.8c-0.4-0.4-1.1-0.5-1.6-0.2c-0.2,0.1-0.5,0.3-0.8,0.1
			c-0.2-0.2-0.4-0.2-0.6-0.1c0,0-0.1,0.1-0.1,0.1c-0.1,0.1-0.2,0.2-0.4,0.2c-0.6,0-0.7,0.4-0.8,0.8c-0.1,0.6-0.4,1.2-0.7,1.7
			c-0.4,0.5-0.6,1.1-0.7,1.8c-0.1,0.7-0.6,1.4-1.3,1.6c-0.6,0.2-1,0.8-1,1.4c0,0.2,0,0.3-0.1,0.5s-0.1,0.4-0.3,0.4s-0.3-0.2-0.3-0.4
			c-0.1-0.3-0.4-0.6-0.7-0.6c-0.4,0-0.7,0.3-0.7,0.6c-0.1,0.5-0.3,0.5-0.7,0.5c-0.6-0.1-1.2,0.3-1.4,0.9c-0.2,0.9-0.7,1.6-1.4,2.1
			c-0.2,0.1-0.3,0.3-0.5,0.5c-0.3,0.2-0.4,0.6-0.3,0.9c0.2,1,0.3,2.1,0.6,3.1c0.1,0.5,0.5,0.8,0.7,1.3c0,0.1,0.1,0.2,0.2,0.1
			c0.6-0.3,0.3,0.2,0.3,0.4s0,0.3,0,0.5c-0.1,0.5-0.2,0.6-0.7,0.6c-0.6,0-1.3-0.2-1.9-0.3c-0.1,0-0.2-0.1-0.3-0.2
			c-0.2-0.2-0.3-0.3,0-0.5c0.1,0,0.2-0.1,0.3-0.2c0.2-0.2,0.3-0.6,0.1-0.8c-0.1-0.2-0.3-0.4-0.5-0.3c-0.4,0-0.5-0.2-0.7-0.5
			c-0.2-0.5-0.4-0.9-0.7-1.4c-0.1-0.2-0.1-0.4-0.1-0.6c0.2-0.7-0.1-1.3-0.6-1.8c-0.4-0.3-0.5-0.8-0.4-1.3c0.2-0.5,0.2-1.1,0.2-1.6
			c0-0.3,0.1-0.6-0.1-0.9c-0.3-0.6-0.7-1.3-1.2-1.8c-0.4-0.4-0.8-0.9-1.1-1.5c-0.1-0.4-0.5-0.6-0.9-0.5c-0.2,0-0.3,0.2-0.4,0.3
			c-0.1,0.1-0.1,0.1-0.2,0.2c-0.1,0.2-0.4,0.3-0.6,0.2c0,0,0,0,0,0c-0.2-0.1-0.2-0.3-0.2-0.6c0-0.2,0-0.3,0-0.5
			c0-0.3-0.2-0.5-0.5-0.5s-0.4,0.3-0.5,0.6s0,0.4,0,0.7s-0.2,0.5-0.5,0.4c-0.5-0.1-1-0.4-1.4-0.8c-0.1-0.2-0.2-0.3-0.4-0.4
			c-0.4-0.3-1-0.2-1.3,0.2c-0.1,0.1-0.1,0.1-0.1,0.2c-0.1,0.7-0.7,1.3-1.5,1.4c-0.2,0-0.4,0.2-0.4,0.4c0,0.2-0.1,0.4-0.3,0.6
			c-0.6,0.5-0.9,1.3-0.7,2.1c0.1,0.3-0.1,0.5-0.3,0.6c-0.3,0.2-0.4,0-0.6-0.2c-0.6-0.7-1.6-0.5-2.3-0.8c-0.2-0.1-0.5,0.1-0.8,0.2
			s-0.7,0.4-1,0.5c-0.7,0.3-1.1,0.9-1.1,1.7c0.1,0.7-0.2,1.5,0.4,2.2c0,0.1,0.1,0.2,0.1,0.2c0.1,0.4,0.2,0.7,0.5,0.9
			c0.9,0.9,2.2,1.1,3.4,0.7c1-0.2,1.7-1,1.9-2c0.1-0.2,0.2-0.4,0.3-0.6c0.1-0.1,0.2-0.2,0.4-0.2c0,0,0.1,0,0.1,0.1
			c0.4,0.4,1,0.6,1.4,1c0.7,0.6,1.5,1,2.5,1.2c0.1,0,0.2,0,0.3,0.2s-0.1,0.2-0.2,0.2c-0.3,0.2-0.5,0.6-0.5,1c0,0.2,0,0.4-0.1,0.7
			c-0.2,0.5-0.2,1.1,0.2,1.6c0.1,0.2,0.3,0.4,0.1,0.5c-0.2,0.1-0.4,0.2-0.6,0.1l-0.4-0.2c-0.2-0.1-0.4,0-0.5,0.2c0,0,0,0,0,0
			c-0.2,0.6-0.8,1-1.1,1.5c-0.2,0.2-0.2,0.6-0.4,0.6s-0.3-0.4-0.5-0.7c-0.1-0.1-0.1-0.3-0.2-0.5c0-0.1,0-0.3-0.2-0.3
			c-0.6-0.2-0.6-0.8-0.8-1.3c-0.3-0.9-0.2-0.9-1.1-0.9c-0.4-0.1-0.9-0.1-1.4,0c-0.1,0-0.3,0-0.4-0.1c-0.4-0.2-0.9-0.1-1.2,0.3
			c-0.2,0.3-0.5,0.5-0.9,0.4c-0.3-0.1-0.7,0.2-0.7,0.5c0,0,0,0.1,0,0.1c0,0.3-0.2,0.4-0.4,0.4s-0.5,0.2-0.8,0.2s-0.4,0.2-0.4,0.4
			c0,0.7-0.5,1-1,1.4c-0.3,0.2-0.6,0.4-0.1,0.8c0.3,0.2,0.1,0.5,0,0.7c-0.2,0.5-0.1,1.1,0.1,1.6c0.3,0.4,0.5,0.9,0.5,1.4
			c0,0.3,0.1,0.6,0.3,0.9c0.3,0.3,0.4,0.8,0.3,1.2c-0.1,0.5,0.2,0.9,0.6,1.1c0.3,0,0.6,0.3,0.6,0.6c0.1,0.3,0.2,0.6,0.2,0.9
			c0,0.1,0,0.3-0.2,0.3s-0.2-0.1-0.3-0.1c-0.3-0.3-0.5-0.5-0.8-0.8c-0.1-0.1-0.4-0.1-0.5,0c0,0,0,0,0,0c-0.1,0.1-0.2,0.2-0.1,0.4
			c0,0,0.1,0.1,0.1,0.1c0.6,0.3,0.2,0.4-0.1,0.6c-0.5,0.3-0.6,0.7-0.1,1.1c0.3,0.4,0.8,0.6,1.3,0.7c0.5,0,0.7,0.3,0.8,0.7
			c0.1,0.3-0.1,0.7-0.3,0.8c-0.3,0.3-0.5,0.5-0.1,0.9c0.1,0.1,0.1,0.2,0,0.3c-0.2,0.2-0.6,0.2-0.8,0c-0.3-0.4-0.8-0.6-1.3-0.5
			c-0.5-0.1-0.6,0.1-0.5,0.6c0.2,0.8,0.1,1-0.7,1.1c-0.4,0.1-0.7,0.2-0.7,0.7c0.1,0.5,0,1-0.3,1.3c-0.4,0.3-0.5,0.9-0.2,1.3
			c0,0,0,0,0.1,0.1c0.4,0.5,0.1,1,0.1,1.6s-0.4,0.5-0.6,0.7s-0.5,0.4-0.4,0.8c0.1,0.3,0.4,0.5,0.7,0.4c1,0,2.1,0.3,3,0.8
			c0.5,0.2,0.5,0.3,0.2,0.8c-0.2,0.3-0.5,0.4-0.5,0.8c-0.2,1,0.4,2.1,1.5,2.3c0.6,0.1,1.3,0,1.8-0.5c0.4-0.4,0.6-1,0.5-1.5
			c-0.1-0.4-0.3-0.7-0.6-1c-0.2-0.3-0.2-0.5,0.2-0.6c0.6-0.3,1.2-0.6,1.7-1.1c0.6-0.4,1.1-1.1,1.3-1.8c0.1-0.7,0.4-1.3,0.2-2
			c-0.1-0.2,0-0.4,0.2-0.4c0,0,0.1,0,0.1,0c0.4,0,0.8-0.1,1.2,0.1c0.3,0.2,0.7,0.2,1,0.1c0.7-0.2,1.5,0,2,0.5
			c0.5,0.5,0.7,1.2,0.5,1.8c-0.3,0.9-0.3,1.9-0.2,2.8c0,0.5,0.2,0.7,0.8,0.7c0.3,0,0.4-0.1,0.4,0.3c-0.1,0.7,0,0.7,0.7,0.4h0.1
			c0.7-0.3,0.9-0.2,1.1,0.5c0.1,0.5,0.2,0.5,0.7,0.3s0.7-0.2,0.9,0.4s0.4,0.5,0.8,0.3c0.1-0.1,0.3-0.1,0.5,0c0.3,0.2,0.8,0.1,1-0.3
			c0,0,0-0.1,0-0.1c0.1-0.2,0.3-0.4,0.6-0.3c0.3,0.1,0.2,0.3,0.3,0.5c0.1,0.6,0.4,0.7,0.9,0.5s0.4-0.2,0.6,0.3
			c0.1,0.3,0.1,0.7,0.5,0.7c0.8,0,1.4,0.6,2.1,0.8c0.3,0.1,0.3,0.3,0.3,0.6c-0.2,0.7-0.3,1.4-0.4,2.1c0,0.2,0,0.5,0.3,0.5
			s0.3-0.2,0.4-0.3c0.2-0.5,0.4-1,0.5-1.5c0.1-0.6,0.4-0.8,1-0.6c0.2,0.1,0.5,0,0.7-0.1c0.4-0.3,0.6-0.1,0.8,0.2
			c0.5,0.6,0.7,1.4,0.7,2.2c0,0.5,0.2,0.9,0.5,1.2c0.2,0.2,0.5,0.3,0.7-0.1c0.2-0.3,0.4-0.5,0.6-0.6c0.2-0.1,0.3-0.4,0.2-0.6
			c0-0.1-0.1-0.2-0.2-0.2c-0.9-0.8-1.6-1.8-1.9-3c-0.1-0.3-0.1-0.6,0.2-0.7c0.5-0.4,1.1-0.7,1.8-0.9c0.5-0.1,0.8-0.3,0.9-0.8
			c0-0.2,0.1-0.3,0.2-0.5c0.2-0.8,0.8-1.6,0.6-2.5c-0.1-0.2,0.1-0.4,0.3-0.5c0,0,0,0,0,0c0.3-0.1,0.6-0.3,0.8-0.6
			c0.3-0.4,0.8-0.5,1.2-0.3c0.3,0.1,0.6,0.3,0.9,0.4c0.4,0.2,0.8,0.1,1-0.3c0,0,0-0.1,0.1-0.1c0.3-0.5,0.4-0.5,0.9-0.1
			c0.1,0.1,0.1,0.2,0.2,0.2c0.2,0.2,0.5,0.2,0.7,0c0.1-0.1,0.1-0.2,0.1-0.3c0-0.2,0-0.5-0.1-0.7c-0.5-0.4-0.5-1.1-0.1-1.6
			c0.1-0.1,0.1-0.3,0.1-0.5c-0.1-0.5,0.2-1,0.7-1.1c0.5-0.2,0.5-0.6,0.2-1.1c-0.1-0.1-0.2-0.2-0.3-0.3c-0.5-0.5-0.5-0.6,0.1-1
			c0.2-0.1,0.4-0.2,0.6-0.1c0.3,0.1,0.6,0.2,0.9,0.2c0.3,0,0.6,0,0.8-0.3c0.1-0.3,0-0.6-0.2-0.8l-0.4-0.3c-0.2-0.1-0.3-0.3-0.2-0.5
			c0.2-0.7,0.1-1.6,1.2-1.6c0.1,0,0.2-0.1,0.2-0.1c0.2-0.1,0.3-0.4,0.2-0.6c-0.1-0.2-0.3-0.4-0.5-0.4c-0.2,0-0.3,0.1-0.5,0.1
			s-0.5,0.5-0.7,0.1s0.4-0.2,0.5-0.3s0.4-0.4,0.3-0.7c-0.1-0.3-0.4-0.4-0.7-0.3c0,0,0,0,0,0c-0.2,0.1-0.4,0.2-0.6,0.3
			c-0.2,0.2-0.5,0.1-0.7-0.1c0,0,0,0,0-0.1c-0.2-0.3-0.4-0.6-0.2-0.9c0.1-0.3,0.1-0.6,0-0.9c-0.1-0.4-0.3-0.7-0.4-1.1
			s-0.5-0.8-0.4-1.2c0.1-0.7,0.3-1.4,0.6-2.1c0.3-0.5,0.4-0.9,1.1-0.9s1.1-0.5,1.2-1.1c0.1-0.5-0.1-1.1-0.5-1.5
			c-0.4-0.4-1-0.5-1.5-0.2l-0.4,0.2c-0.1,0.1-0.2,0.1-0.3,0c-0.1-0.1-0.1-0.3,0-0.3c0,0,0,0,0,0c0.2-0.2,0.4-0.3,0.5-0.5
			c0.3-0.4,0.3-1-0.1-1.4c-0.4-0.3-0.9-0.2-1.2,0.1c-0.4,0.3-0.6,1-0.3,1.5c0.1,0.2,0.2,0.3,0.3,0.4c0.2,0.4,0,0.6-0.4,0.6
			c-1.1,0-1.2-0.1-1.2-1.2v-0.2c0-0.4,0-0.7,0.4-0.8s0.4-0.4,0.4-0.8c0-0.6-0.2-1.3,0.3-1.9c0,0,0-0.2,0-0.2
			c-0.2-0.8,0.4-1.2,0.9-1.5c1-0.4,2-1.1,2.8-1.8c0.3-0.2,0.5-0.6,0.6-0.9c0-0.3,0.1-0.6,0.3-0.8c0.6-0.4,0.4-1,0.4-1.6
			c0-0.2-0.1-0.5-0.2-0.7c-0.1-0.7-0.1-0.9,0.6-1.3c0.4-0.2,0.7-0.4,0.3-0.9c-0.1-0.1-0.1-0.3-0.1-0.3c0.4-0.4,0.2-1,0.5-1.5
			c0.4-0.5,0.3-1.1-0.2-1.5c0,0-0.1,0-0.1-0.1c-0.2-0.2-0.3-0.5-0.2-0.7c0.1-0.2,0.2-0.4,0-0.5C140.7,59.2,140.3,58.7,139.6,58.6z
			 M122.5,77.1c0.8,0.1,1.5,0.3,2.2,0.5c0.1,0,0.2,0.1,0.2,0.2s-0.2,0.2-0.3,0.2c-0.2,0-0.4,0.1-0.6,0.1c-0.2,0.1-0.3,0.2-0.2,0.4
			c0,0.2,0.2,0.3,0.3,0.3c0,0,0,0,0,0c0.2,0,0.5-0.1,0.7-0.1c0.4-0.1,0.6,0,0.7,0.4s0.2,0.7,0.2,1s0.3,0.8,0.8,0.9
			c0.2,0,0.3,0.2,0.1,0.3c-0.6,0.4-0.8,1.1-1.3,1.7c-0.2,0.2-0.4,0.4-0.6,0.6c-0.3,0.2-0.5,0.1-0.6-0.2c-0.1-0.5,0-0.9,0.4-1.3
			c0.3-0.4,0.7-0.8,1-1.2c0.2-0.2,0.2-0.5,0-0.7c0,0-0.1-0.1-0.1-0.1c-0.2-0.2-0.5-0.3-0.8-0.5c-0.4-0.2-0.9-0.2-1.3,0.2
			c-0.4,0.3-0.5,0.8-0.3,1.2c0.2,0.3,0.2,0.8,0,1.1c0,0,0,0.1-0.1,0.1s-0.1-0.1-0.1-0.2c-0.4-1.1-1.4-1.8-2.6-1.9
			c-0.6-0.1-1.1,0.1-1.6,0.4c-0.6,0.5-1,1.2-1.3,2c-0.1,0.2,0,0.4,0.1,0.6c0.2,0.6,0.2,1.2-0.2,1.7c-0.2,0.3-0.3,0.7-0.3,1
			c0,0.4-0.2,0.4-0.5,0.2c-0.8-0.5-1.2-1.4-1.1-2.4c0-0.1,0-0.2,0-0.3c0.2-0.4-0.1-0.7-0.4-1c-0.7-0.5-0.9-1.6-0.4-2.3
			c0.1-0.2,0.2-0.4,0.3-0.6s0.3-0.3,0.5-0.1c0.2,0.2,0.5,0.3,0.8,0.2c0.1,0,0.2,0,0.2,0c0.6,0.6,1.1,0.1,1.5-0.2s1.1-0.3,1.6-0.7
			c0.2-0.1,0.4-0.2,0.5-0.4c0.1-0.3,0.4-0.5,0.7-0.6c0.5-0.1,0.9-0.4,1.1-0.7C122.2,77.1,122.4,77.1,122.5,77.1z"/>
		<path class="st0" d="M141.9,105.9c0.4,0.6,0.3,0.6-0.2,1s-0.9,1.3-1.4,1.9c0,0,0,0,0,0.1c-0.1,0.6-0.3,1.3-0.6,1.8
			c-0.2,0.2-0.1,0.5,0.1,0.7c0,0,0,0,0,0c0.2,0.2,0.3,0.4,0.1,0.6c-0.3,0.4-0.3,1,0.1,1.3c0.2,0.5,0.4,0.9,0.6,1.4
			c0.1,0.2,0.2,0.4,0.4,0.4c0.3,0.1,0.6,0.3,0.8,0.6c0.2,0.4,0.6,0.6,1,0.7c0.4,0,0.8,0.2,1.1,0.4c0.3,0.2,0.7,0.3,1.1,0.2
			c0.5-0.3,1.2-0.4,1.8-0.2c0.4,0.1,0.7,0,0.8-0.4c0.1-0.3,0.3-0.6,0.7-0.6c0.6-0.1,1.1-0.6,1.1-1.3c0-0.2,0.1-0.4,0.4-0.5
			c0.5-0.1,0.8-0.5,0.8-1c0-0.1,0.1-0.2,0.2-0.3c0.4-0.6,0.4-0.6,0-1.1c-0.2-0.2-0.2-0.4-0.3-0.7c0-0.4-0.1-0.7-0.4-1
			c-0.1-0.1-0.2-0.3-0.2-0.5c0-0.3-0.1-0.5-0.3-0.7c-0.2-0.2-0.4-0.4-0.6-0.6c-0.6-0.5-1.1-1.2-2-1.4c-0.3-0.1-0.6-0.3-0.8-0.5
			c-0.2-0.1-0.3-0.3-0.1-0.5c0.5-0.4,0.3-0.9,0.1-1.4s-0.7-1-0.9-1.6c0,0,0,0-0.1-0.1c-0.7-0.1-1.4-0.6-2.1-0.3
			c-1.3,0.2-2.1,1.5-1.8,2.7C141.5,105.3,141.7,105.6,141.9,105.9z"/>
		<path class="st0" d="M151.8,60.7c-0.6,0.6-1.5,0.8-1.9,1.6c0,0,0,0-0.1,0c-0.4,0.1-0.5,0.4-0.6,0.8c-0.1,0.6,0,1.3-0.3,1.8
			c-0.2,0.6-0.4,1.3-0.4,1.9c0,0.1,0,0.1,0,0.2c0.3,0.5,0.5,1.1,1,1.5c0.3,0.2,0.6,0.4,0.8,0.7c0.1,0.2,0.3,0.4,0.6,0.5
			c0.6,0.2,1.2,0.2,1.6,0.7c0.1,0.1,0.3,0,0.5,0c0.6,0,1.3-0.4,1.9-0.1c0.1,0,0.2,0,0.2-0.1c0.6-0.6,1.5-0.9,2.1-1.6
			c0.1-0.1,0.2-0.2,0.4-0.2c0.4,0,0.8,0.1,1.2,0.2c0.4,0.2,0.9,0.1,1.2-0.2c0.7-0.5,0.9-1.5,1.8-1.9c0,0,0.1-0.1,0.1-0.1
			c0.2-1.1,0.4-2.1-0.5-3c-0.5-0.6-1.3-0.9-2-0.7c-0.4,0.1-0.9,0.1-1.3-0.1c-0.3-0.1-0.5-0.1-0.4-0.4s-0.1-0.5-0.3-0.5
			c-0.4,0.1-0.8-0.2-0.9-0.5c-0.1-0.3-0.4-0.3-0.7-0.4c-0.3-0.1-0.6-0.2-0.8-0.3c-0.3-0.3-0.9-0.4-1.3-0.2c-0.2,0.1-0.4,0-0.6-0.1
			C152.5,60.2,152.1,60.3,151.8,60.7z"/>
		<path class="st0" d="M111.5,44c0.1-0.1,0.2-0.3,0.4-0.3c0.4-0.1,0.6-0.4,0.7-0.7c0.1-0.2,0.2-0.3,0.3-0.5c0.5-0.7,0.8-1.6,0.9-2.4
			c0-0.2-0.1-0.5-0.2-0.7c-0.2-0.3-0.3-0.6-0.1-0.9c0.2-0.6,0.2-0.6-0.3-0.9c-0.3-0.2-0.7-0.3-0.9-0.6c-0.3-0.7-0.9-0.9-1.5-1.1
			c-0.3-0.1-0.6-0.3-0.9-0.5c-0.4-0.3-0.9-0.4-1.4-0.2c-0.2,0.1-0.4,0.2-0.6,0.1c-0.5-0.3-0.8,0-1.1,0.3s-0.5,0.7-0.9,0.7
			c-0.5,0-1,0.4-1.1,0.9c-0.1,0.2-0.3,0.4-0.5,0.5c-0.6,0.5-0.9,1.4-0.7,2.2c0.4,1.2,0.6,2.5,0.7,3.7c0,0.2,0.1,0.4,0.2,0.5
			c0.8,1.3,2,1.7,3.5,1.9c0.3-0.1,0.8-0.2,1.2-0.2s0.7-0.2,0.7-0.7c0-0.3,0.3-0.6,0.6-0.6c0,0,0,0,0,0C111,44.5,111.3,44.3,111.5,44
			z"/>
		<path class="st0" d="M201.2,80.8c-0.5,0.3-1,0.6-1.6,0.7c-0.2,0.1-0.4,0.2-0.6,0.4c-0.4,0.7-1.2,1.3-1.1,2.3
			c0,0.2-0.1,0.4-0.2,0.5c-0.3,0.3-0.3,0.7-0.2,1.1c0.1,0.3,0.1,0.5,0.2,0.8c0.3,1.8,1.1,3.3,3.1,3.5c0.2,0,0.3,0.1,0.4,0.2
			c0.2,0.4,0.5,0.3,0.8,0.1c0.4-0.3,1-0.4,1.5-0.2c0.3,0.1,0.6,0,0.7-0.2c0.3-0.4,0.7-0.6,1.2-0.6c0.2,0,0.3-0.1,0.4-0.3
			c0.3-0.6,0.9-0.9,0.9-1.7c0-0.1,0.1-0.2,0.2-0.3c0.5-0.5,0.6-1.3,0.2-1.9c-0.1-0.2-0.1-0.4-0.1-0.6c0-0.2,0.1-0.4,0.1-0.5
			c-0.6-0.6-0.7-1.4-1.3-1.9c-0.2-0.3-0.6-0.4-0.7-0.7c-0.1-0.2-0.3-0.3-0.5-0.4c-0.9,0-1.8-0.8-2.7-0.4
			C201.8,80.7,201.5,80.6,201.2,80.8z"/>
		<path class="st0" d="M173.2,71c0-0.3-0.2-0.6-0.6-0.6c-0.5-0.1-0.9-0.3-1.2-0.7c-0.4-0.4-0.9,0.2-1.4-0.1c0,0-0.1,0-0.1,0
			c-0.9-0.1-1.8,0.1-2.6,0.5c-0.7,0.4-1.3,0.9-1.8,1.6c-0.2,0.3-0.4,0.5-0.3,0.8c0.1,0.4-0.1,0.8-0.5,1c-0.2,0.1-0.3,0.3-0.2,0.5
			c0,0,0,0,0,0c0.3,0.4,0.6,0.8,0.4,1.3c0,0,0.1,0.1,0.1,0.2c0.6,0.3,0.8,1,0.6,1.6c0,0.5,0.1,0.8,0.6,0.7c0.6-0.1,1.1,0.2,1.3,0.8
			c0.1,0.3,0.4,0.5,0.7,0.4c0,0,0,0,0.1,0c0.2-0.1,0.5-0.2,0.6-0.1c0.6,0.4,1.3,0.4,1.9-0.1c0.1,0,0.1,0,0.2,0
			c0.9,0,1.4-0.8,2.1-1.1c0.4-0.9,1.4-1.5,1.1-2.7c0-0.1,0-0.2,0.1-0.2c0.3-0.3,0.4-0.8,0.2-1.1c0-0.1,0-0.2,0-0.2
			c0.4-0.5,0.1-0.9-0.3-1.2C173.6,72,173.3,71.5,173.2,71z"/>
		<path class="st0" d="M87,71c0.2,0.3,0.4,0.6,0.4,1c0,0.2,0.1,0.4,0.2,0.5c0.6,0.7,1.3,1.3,2.1,1.8c0.1,0.1,0.3,0.1,0.5,0.1
			c0.2,0,0.4,0,0.6,0c1.5,0.2,3,0.1,4-1.2c0.1-0.1,0.3-0.3,0.4-0.4c0.6-0.5,1-1.2,1-2c0.2-1.3-0.2-2.7-1.1-3.7
			c-0.2-0.2-0.4-0.3-0.5-0.7S94.4,66,94.1,66s-0.6,0-0.8-0.2c-0.4-0.6-1-0.6-1.8-0.5c-0.5-0.1-1,0.1-1.4,0.4
			c-0.1,0.1-0.1,0.1-0.2,0.1c-0.5-0.1-1.1,0.2-1.3,0.7c0,0.1-0.2,0.1-0.3,0.1c-0.4,0-0.6,0.3-0.7,0.6c-0.1,0.3-0.2,0.5-0.4,0.7
			c-0.2,0.2-0.3,0.4-0.3,0.7c0.1,0.6,0,1.3-0.1,1.9C86.8,70.7,86.9,70.9,87,71z"/>
		<path class="st0" d="M120.4,34.7c-0.1-0.1-0.3-0.1-0.3,0.1s-0.2,0.3-0.4,0.3c-0.8,0.2-1.5,0.5-2.1,1c0,0-0.1,0-0.2,0.1
			c-0.1,0.1-0.2,0.2-0.3,0.3c-0.4,0.9-1.2,1.8-0.9,2.9c0,0,0,0.1,0,0.2c0,0.7,0.3,1.3,0.7,1.8c0.4,0.3,0.7,0.6,0.9,1
			c0.1,0.2,0.2,0.3,0.4,0.3c0.6,0.4,1.3,0.6,2,0.5c0.7,0.1,1.3-0.1,1.9-0.4c0.8-0.4,1.6-0.8,1.8-1.9c0-0.2,0.1-0.4,0.3-0.6
			c0.4-0.3,0.4-0.8,0.4-1.2c-0.1-0.8-0.4-1.6-0.8-2.3c-0.3-0.5-0.7-1.3-1.6-1.1c-0.2,0-0.3-0.1-0.4-0.2
			C121.4,35.1,120.8,35,120.4,34.7z"/>
		<path class="st0" d="M160.4,88.8c0.2,0.6,0.8,0.8,1.2,1.1c0.9,0.6,1.9,0.8,2.9,0.6c1.4-0.3,2.6-1.3,3.1-2.6
			c0.2-0.6,0.2-1.2,0.1-1.8c0.1-0.4,0-0.9-0.3-1.3c-0.1-0.1-0.2-0.3-0.3-0.5c-0.1-0.4-0.4-0.7-0.9-0.8c-0.4,0-0.7-0.3-0.9-0.7
			c-0.1-0.2-0.2-0.4-0.4-0.4c-0.5,0-1.1,0-1.6-0.2c-0.1,0-0.3,0.1-0.4,0.2c-0.1,0.1-0.3,0.2-0.4,0.2c-0.6-0.1-1.3,0.3-1.6,0.8
			c-0.1,0.2-0.3,0.3-0.5,0.4c-0.5,0.3-0.7,0.8-0.6,1.4c0,0.1,0,0.2,0,0.3c-0.2,0.6-0.2,1.3,0.1,1.9C160.2,88,160.3,88.4,160.4,88.8z
			"/>
		<path class="st0" d="M49.1,95.7l0.6,0.1c0.9,0.3,2,0.2,2.8-0.3c1.4-0.8,2.2-1.9,2.2-4.1c0.1-1-0.9-1.9-2-2.8
			c-0.8-0.4-1.6-0.7-2.5-0.7c-0.5-0.1-0.8,0-0.9,0.5c-0.1,0.9-0.7,1.7-1.5,1.9c-0.1,0-0.3,0.1-0.4,0.2c-0.6,0.4-1.3,0.8-0.9,1.8
			c0,0.1,0,0.2,0,0.2c-0.1,0.4,0.1,0.7,0.4,0.9c0.5,0.3,0.9,0.8,1,1.4C48.1,95.4,48.5,95.7,49.1,95.7z"/>
		<path class="st0" d="M154.1,75.5c0.1,0.3,0.2,0.6,0.4,0.9c0.2,0.3,0.4,0.6,0.6,0.8c0.2,0.3,0.5,0.6,0.9,0.7
			c0.8,0.2,1.6,0.7,2.4,0.3c0.1,0,0.2,0,0.2,0c1.2-0.1,1.7-1,2.5-1.7c0,0,0-0.1,0-0.1c0.2-0.7,0.4-1.4,0.4-2.2
			c0-1.2-0.6-2.2-1.6-2.9c-1.1-0.8-2.6-1-3.8-0.4C154.5,71.8,153.6,73.7,154.1,75.5z"/>
		<path class="st0" d="M179.4,28.4c-0.7,0.4-1.2,1-1.4,1.8c-0.4,0.6-0.5,1.4-0.3,2.1c0.2,0.9,0.7,1.8,1.4,2.4c1,0.9,2.5,1.1,3.7,0.6
			c1.9-0.7,2.3-1.8,2.4-3.7c-0.1-1.2-0.3-2.3-1.6-2.9c-0.1-0.1-0.2-0.1-0.2-0.2c-0.7-0.6-1.7-0.8-2.6-0.5
			C180.3,28,179.8,28.1,179.4,28.4z"/>
		<path class="st0" d="M137.4,121.9c-0.2,0.3-0.5,0.5-0.6,0.8s0.3,0.7,0.1,1.1c0,0,0,0.1,0,0.1c-0.3,0.6,0.3,1,0.5,1.4
			c0.3,0.7,0.9,1.2,1.6,1.5c0.5,0.2,1,0.6,1.6,0.2c0.4,0.2,0.9,0.1,1.3-0.3c0.1-0.1,0.2-0.1,0.4-0.1c0.4,0.1,0.9-0.1,1-0.6
			c0-0.1,0-0.1,0-0.2c0.1-0.4,0.4-0.7,0.9-0.5c0.2,0.1,0.5,0.1,0.7,0c0.7-0.1,1.2-0.6,1.1-1.3c0-0.7-0.5-1.5-1.2-1.4s-1-0.3-1.3-0.8
			c-0.1-0.2-0.2-0.4-0.4-0.5c-0.5-0.7-1.3-1.1-2.1-1.2c-0.8-0.1-1.7,0.1-2.4,0.6C138.1,121,137.7,121.4,137.4,121.9z"/>
		<path class="st0" d="M50.6,0.2c-0.5,0.1-1,0.4-1.3,0.8c-0.5,0.6-0.9,1.3-1.2,2c-0.2,0.3-0.2,0.7,0,1c0.3,0.3,0.4,0.8,0.3,1.2
			c0,0.7,0.6,1.3,1.3,1.5c0.4,0,0.7,0,0.9,0.4c0.1,0.3,0.5,0.5,0.8,0.3c0.2-0.1,0.4-0.1,0.6,0c0.3,0.1,0.7,0.1,1-0.1
			c0.2-0.1,0.4-0.2,0.6-0.3c0.8-0.2,1.4-0.8,1.7-1.6c0.6-1.4,0.4-3-0.6-4.2C54,0.6,53.2,0.1,52.4,0C51.7,0.1,51.2,0.1,50.6,0.2z"/>
		<path class="st0" d="M46.2,105.7c1.1-1.1,1.1-2.8,0.1-3.9c-0.3-0.3-0.6-0.5-0.9-0.6c-0.4-0.1-0.4-0.3-0.1-0.5
			c0.5-0.4,0.7-1,0.6-1.5c-0.1-1-1-1.7-2-1.5c-0.5,0.1-1,0.4-1.3,0.9c-0.4,0.7-0.3,1.5,0.2,2.1c0.4,0.5,0.4,0.5-0.1,0.9
			c-0.1,0.1-0.3,0.2-0.4,0.3c-0.8,0.7-1.1,1.9-0.6,2.9c0.4,1.1,1.4,1.8,2.6,1.8C45,106.5,45.7,106.2,46.2,105.7z"/>
		<path class="st0" d="M87.3,45.7c-0.5-0.2-1.1-0.1-1.4,0.4c-0.7,0.8-0.7,0.8-1.1-0.1c-0.5-0.9-1.3-1.4-2.3-1.5
			c-0.7,0.1-1.3,0.4-1.8,0.8c-0.4,0.4-0.7,0.9-0.7,1.5c0,0.8,0.2,1.6,0.8,2.2c0.9,0.9,2.4,0.9,3.4,0.1c0.4-0.4,0.7-0.9,0.8-1.4
			c0.2-0.5,0.4-0.6,0.8-0.2c0.2,0.2,0.3,0.3,0.5,0.4c0.2,0.1,0.4,0.2,0.6,0.2c0.6-0.1,1.1-0.5,1.2-1.1C88.2,46.5,87.9,46,87.3,45.7z
			"/>
		<path class="st0" d="M5.3,108.9c0.1-1.5-1.1-2.7-2.5-2.8c-0.1,0-0.1,0-0.2,0c-1.5,0-2.6,1.2-2.6,2.6c0.1,1.5,1.2,2.6,2.7,2.7
			C4.1,111.6,5.3,110.4,5.3,108.9C5.3,109,5.4,109,5.3,108.9z"/>
		<path class="st0" d="M105.6,52.1c-0.8,0.5-1.4,1-1.1,2.1c-0.2,0.5,0,1.1,0.3,1.4c0.4,0.4,0.6,0.9,1.2,1.1c1.3,0.6,2.9,0,3.5-1.3
			c0,0,0,0,0,0c0.5-1.2,0.1-2.7-1.1-3.3C107.5,51.5,106.4,51.5,105.6,52.1z"/>
		<path class="st0" d="M60,74.9c0.1-1.4-1-2.5-2.3-2.6c-0.4,0-0.8,0.1-1.2,0.2c-0.3,0.2-0.7,0.2-1.1,0.2c-0.6,0-1,0.5-0.7,1
			c0.2,0.4,0.4,0.9,0.4,1.4c0.2,1.3,1.4,2.3,2.8,2.1C59.1,77.2,60,76.1,60,74.9L60,74.9z"/>
		<path class="st0" d="M77.3,65.5c0-1.3-1.1-2.4-2.4-2.5c0,0-0.1,0-0.1,0c-1.2-0.1-2.3,0.8-2.4,2.1c0,0.1,0,0.3,0,0.4
			c0,1.3,1,2.4,2.3,2.6c1.4,0,2.6-1.1,2.6-2.5C77.3,65.6,77.3,65.6,77.3,65.5z"/>
		<path class="st0" d="M204.6,11.9c0,1.3,1.1,2.4,2.4,2.4c0,0,0,0,0.1,0c1.3,0,2.5-1,2.5-2.3c0,0,0-0.1,0-0.1
			c-0.1-1.4-1.3-2.5-2.7-2.4C205.6,9.5,204.7,10.6,204.6,11.9z"/>
		<path class="st0" d="M205.1,94.1c-0.1,1.2,0.8,2.3,2.1,2.4c0,0,0,0,0,0c1.4,0.1,2.6-0.8,2.7-2.2c0-0.1,0-0.1,0-0.2
			c-0.1-1.3-1.1-2.4-2.4-2.4C206.2,91.7,205.1,92.8,205.1,94.1C205.1,94.1,205.1,94.1,205.1,94.1z"/>
		<path class="st0" d="M78.8,75.2c1.3,0.1,2.5-0.9,2.6-2.2s-0.9-2.5-2.2-2.6c-0.1,0-0.2,0-0.3,0c-1.3,0-2.3,1-2.3,2.3
			c0,0,0,0.1,0,0.1C76.6,74,77.5,75.1,78.8,75.2z"/>
		<path class="st0" d="M188.1,116.5c0,1.3,0.9,2.3,2.2,2.4c0.1,0,0.2,0,0.2,0c1.3,0,2.4-1,2.4-2.3c0,0,0,0,0-0.1
			c0-1.3-1.1-2.4-2.4-2.3c0,0-0.1,0-0.1,0C189.2,114.2,188.1,115.2,188.1,116.5C188.1,116.5,188.1,116.5,188.1,116.5z"/>
		<path class="st0" d="M82.3,64.6c1.3,0,2.4-1,2.5-2.3c0-0.1,0-0.1,0-0.2c-0.1-1.2-1-2.2-2.2-2.3c-1.3-0.1-2.5,0.9-2.6,2.2
			c-0.1,1.3,0.9,2.5,2.2,2.6C82.1,64.6,82.2,64.6,82.3,64.6z"/>
		<path class="st0" d="M171.4,110.1c0.2,1.3,1.3,2.2,2.7,2.1c1.2-0.1,2-1.1,2.1-2.3c-0.1-1.3-1.1-2.3-2.3-2.4
			C172.3,107.6,171.4,108.4,171.4,110.1z"/>
		<path class="st0" d="M46.2,161.9c-1.3,0-2.3,1-2.4,2.2c0.1,1.3,1,2.3,2.2,2.5c1.3,0,2.4-1,2.4-2.3C48.5,163,47.5,161.9,46.2,161.9
			L46.2,161.9L46.2,161.9z"/>
		<path class="st0" d="M96.5,43.6c1.2-0.4,1.8-1.7,1.5-2.9c-0.3-1.2-1.5-2-2.7-1.7c0,0,0,0-0.1,0c-0.5,0.2-1,0.4-1.4,0.7
			c-0.1,0-0.2,0.1-0.2,0.3c0,0.4-0.1,0.8-0.2,1.2c-0.2,1.3,0.7,2.4,2,2.6c0.1,0,0.2,0,0.3,0C96,43.7,96.2,43.6,96.5,43.6z"/>
		<path class="st0" d="M63.5,40.1c0-0.7-0.3-1.3-0.8-1.7c-1-0.8-2.5-0.6-3.4,0.4c-0.3,0.4-0.5,0.8-0.5,1.3c-0.1,1.3,0.9,2.4,2.1,2.5
			c1.3,0.1,2.4-0.9,2.5-2.1C63.5,40.3,63.5,40.2,63.5,40.1L63.5,40.1z"/>
		<path class="st0" d="M183.2,77.9c0,1.2,0.9,2.2,2.1,2.2c0,0,0.1,0,0.1,0c1.3,0,2.3-1,2.4-2.2c0-1.2-1-2.3-2.2-2.3
			c-0.1,0-0.2,0-0.2,0c-1.2,0-2.1,1-2.1,2.2C183.2,77.8,183.2,77.9,183.2,77.9z"/>
		<path class="st0" d="M176.8,99.6c0,1.2,0.9,2.2,2.1,2.3c1.2,0.1,2.2-0.7,2.4-1.9c0-0.1,0-0.2,0-0.3c0.2-1.7-1.2-2.2-2.4-2.3
			C177.7,97.5,176.8,98.4,176.8,99.6z"/>
		<path class="st0" d="M137.6,11.8c-1.1,0.2-2,1.2-2,2.3c0,1.3,1.1,2.3,2.4,2.2c1.2-0.1,2.1-1,2.2-2.2c0-1.3-1-2.3-2.2-2.3
			C137.9,11.8,137.8,11.8,137.6,11.8z"/>
		<path class="st0" d="M149.7,105.8c0.1,1,0.6,1.8,1.5,2.3c0.2,0.1,0.4,0.1,0.6,0c1.1-0.4,1.8-1.3,2.1-2.4c0.2-1-0.4-2-1.4-2.2
			c-0.2-0.1-0.5-0.1-0.7,0C150.6,103.5,149.6,104.5,149.7,105.8C149.7,105.8,149.7,105.8,149.7,105.8z"/>
		<path class="st0" d="M201.1,163c-0.1,1.2,0.9,2.2,2,2.3c0,0,0,0,0,0c1.4-0.1,2.3-0.7,2.3-2.2c0-1.1-0.9-2-2-2.2
			C202.2,160.8,201.2,161.7,201.1,163C201.1,163,201.1,163,201.1,163z"/>
		<path class="st0" d="M238.9,57.5c0,1.4,0.9,2.1,2.2,2.1c1.1,0,2.1-1,2.1-2.1c0-1.2-1-2.1-2.1-2.1c-1.1-0.1-2.1,0.7-2.2,1.8
			C238.9,57.4,238.9,57.5,238.9,57.5z"/>
		<path class="st0" d="M146.3,142.8c0.1,1.1,1.2,2,2.3,1.8s2-1.2,1.8-2.3c0-0.1,0-0.2-0.1-0.3c-0.1-0.8-0.7-1.4-1.5-1.6
			c-0.6-0.2-1.3-0.1-1.8,0.2l0,0C146.5,141.2,146.1,142,146.3,142.8z"/>
		<path class="st0" d="M13.8,96.8c0-1.1-1-2-2.2-2c-1.1,0-2,1-2,2.2c0,0.1,0,0.2,0,0.3c0.2,1,1,1.7,2.1,1.7
			C12.9,98.9,13.8,98,13.8,96.8z"/>
		<path class="st0" d="M188.2,41.8c-0.1,1,0.7,1.9,1.8,2c0.1,0,0.2,0,0.2,0c1.1,0,2-0.9,2.1-2c-0.1-1.1-0.9-1.9-2-2
			C189.1,39.8,188.2,40.7,188.2,41.8C188.2,41.8,188.2,41.8,188.2,41.8z"/>
		<path class="st0" d="M52.4,83.2c0.1-1.1-0.7-2-1.8-2.1c-1.4,0-2,0.8-2,1.8c-0.1,1,0.6,1.9,1.7,2c0,0,0,0,0.1,0
			C51.4,85,52.2,84.2,52.4,83.2z"/>
		<path class="st0" d="M39.8,160.8c0,1,0.9,1.8,1.9,1.8c0.9,0,1.7-0.8,1.8-1.7c0-1.1-0.9-1.9-2-1.9C40.6,159,39.9,159.8,39.8,160.8z
			"/>
		<path class="st0" d="M139.8,84.8c0.2,0.3,0.4,0.5,0.5,0.8c0.2,0.4,0.6,0.5,0.9,0.4c0.1-0.1,0.2-0.2,0.3-0.3
			c0.3-0.4,0.6-0.8,0.9-1.2c0.4-0.5,0.5-1.1,0.2-1.7c-0.3-0.6-0.9-1-1.6-1c-0.4,0-0.8,0.1-1.1,0.4C139.3,82.9,139.2,84,139.8,84.8z"
			/>
		<path class="st0" d="M104.7,32.2c-0.1-1-1.1-1.8-2.1-1.7c-0.9,0.1-1.6,0.8-1.7,1.6c0.1,1.1,0.9,1.9,2,1.9
			C103.8,33.9,104.6,33.2,104.7,32.2z"/>
		<path class="st0" d="M156,50c0,1,0.7,1.8,1.7,1.9c1,0,1.8-0.9,1.8-1.9c0-1-0.8-1.8-1.8-1.8C156.8,48.2,156,49,156,50L156,50z"/>
		<path class="st0" d="M175.1,70.4c0.1,0.3,0.3,0.7,0.5,1c0.4,0.7,1.2,1,1.9,0.8c0.7-0.3,1.1-0.9,1.1-1.6c0.1-0.6-0.4-1.2-1-1.3
			c-0.4-0.1-0.8-0.2-1.3-0.3c-0.5-0.1-1.1,0.2-1.2,0.7C175,70,175,70.2,175.1,70.4z"/>
		<path class="st0" d="M150.1,115.5c0.1,0.9,0.9,1.6,1.8,1.5c0.8-0.1,1.4-0.7,1.5-1.5c0.1-0.8-0.6-1.6-1.4-1.6c-0.1,0-0.2,0-0.2,0
			c-0.8-0.1-1.6,0.6-1.6,1.4C150.1,115.3,150.1,115.4,150.1,115.5z"/>
		<path class="st0" d="M105.6,113.5c-0.1-0.9-0.8-1.6-1.7-1.6c-0.9,0-1.6,0.6-1.6,1.5c0,0.1,0,0.1,0,0.2c0,0.8,0.7,1.5,1.5,1.5
			c0,0,0.1,0,0.1,0C104.7,115,105.5,114.4,105.6,113.5z"/>
		<path class="st0" d="M157.4,94.7c-0.1-0.9-0.8-1.6-1.6-1.6c-0.8,0-1.4,0.6-1.5,1.4c0,0.1,0,0.1,0,0.2c0,0.8,0.7,1.5,1.5,1.5
			C156.6,96.1,157.2,95.5,157.4,94.7z"/>
		<path class="st0" d="M26.1,66.1c0-0.9-0.6-1.6-1.5-1.7c-0.8,0-1.5,0.7-1.6,1.5c0,0.9,0.7,1.5,1.6,1.5C25.4,67.5,26,66.9,26.1,66.1
			L26.1,66.1z"/>
		<path class="st0" d="M187.1,94.8c-0.9,0-1.4,0.6-1.4,1.7c0.1,0.8,0.8,1.3,1.6,1.3c0.8,0,1.5-0.6,1.6-1.4
			C188.7,95.5,188,94.8,187.1,94.8C187.1,94.8,187.1,94.8,187.1,94.8z"/>
		<path class="st0" d="M196.6,128.7c0,0.8,0.7,1.5,1.5,1.5s1.5-0.7,1.5-1.5c0-0.8-0.7-1.4-1.5-1.5
			C197.3,127.2,196.6,127.9,196.6,128.7z"/>
		<path class="st0" d="M149.7,82.9c0.3-0.6,0-1.4-0.6-1.7c-0.5-0.3-1.2-0.2-1.5,0.3c0,0-0.1,0.1-0.1,0.2c-0.1,0.3-0.5,0.5-0.8,0.5
			c-0.3,0-0.5,0.2-0.6,0.4c0,0,0,0.1,0,0.1c0,0.3,0.2,0.6,0.5,0.7c0.1,0,0.3,0,0.4,0c0.3-0.1,0.7,0,1,0.2
			C148.6,83.8,149.4,83.6,149.7,82.9C149.7,83,149.7,82.9,149.7,82.9z"/>
		<path class="st0" d="M142,77.6c-0.1,0.8,0.5,1.4,1.3,1.5c0.8,0.1,1.5-0.5,1.6-1.3c0.1-0.8-0.5-1.5-1.3-1.6
			C142.7,76.2,142.1,76.8,142,77.6z"/>
		<path class="st0" d="M103.8,147c-0.8,0.1-1.4,0.7-1.5,1.5c0,0.8,0.7,1.4,1.5,1.4c0.8-0.1,1.4-0.7,1.4-1.5
			C105.2,147.7,104.6,147,103.8,147z"/>
		<path class="st0" d="M140.7,129.1c-0.1-0.8-0.7-1.3-1.5-1.3c-0.6,0-1.2,0.5-1.3,1.2c-0.1,0.8,0.5,1.5,1.3,1.5c0,0,0.1,0,0.1,0
			C140.1,130.5,140.7,129.9,140.7,129.1C140.7,129.1,140.7,129.1,140.7,129.1z"/>
		<path class="st0" d="M226.3,43.2c0,0.7,0.5,1.4,1.3,1.4c0.7,0,1.3-0.6,1.4-1.4c-0.1-0.8-0.7-1.4-1.4-1.4
			C226.8,41.9,226.3,42.5,226.3,43.2z"/>
		<path class="st0" d="M65.6,147.5c-0.1-0.7-0.7-1.3-1.4-1.5c-0.7,0.1-1.3,0.7-1.3,1.4c0,0.7,0.6,1.3,1.4,1.3
			C65,148.8,65.5,148.2,65.6,147.5z"/>
		<path class="st0" d="M143.6,71.1c-0.8,0-1.4,0.6-1.4,1.3c0,0,0,0,0,0c0.1,0.7,0.7,1.3,1.4,1.3c0.7,0,1.3-0.6,1.4-1.3
			C144.9,71.7,144.3,71.1,143.6,71.1z"/>
		<path class="st0" d="M24.2,80.6c0.1-0.7-0.4-1.4-1.2-1.4c0,0-0.1,0-0.1,0c-0.7,0-1.3,0.6-1.4,1.3c0.1,0.7,0.7,1.3,1.4,1.3
			c0.6,0,1.2-0.4,1.2-1.1C24.2,80.7,24.2,80.7,24.2,80.6z"/>
		<path class="st0" d="M115.3,57.7c-0.1-0.7-0.6-1.2-1.3-1.2c-0.7,0-1.4,0.5-1.4,1.2s0.5,1.4,1.2,1.4l0,0
			C114.6,59.2,115.3,58.5,115.3,57.7z"/>
		<path class="st0" d="M139.7,3.1c0,0.7,0.5,1.3,1.2,1.3c0,0,0,0,0,0c0.7,0,1.3-0.5,1.4-1.2c0-0.7-0.6-1.3-1.3-1.3
			C140.3,1.8,139.7,2.4,139.7,3.1z"/>
		<path class="st0" d="M122.2,62.4c0.1,0.8,0.2,1.6,0.4,2.4c0,0.2,0.1,0.3,0.3,0.3c0.2,0,0.3-0.1,0.3-0.3c0.1-0.2,0.1-0.3,0.1-0.5
			c0-0.6,0.1-1.2,0.2-1.8c0.1-0.4,0-0.9-0.1-1.3c-0.1-0.3-0.2-0.5-0.5-0.5s-0.4,0.3-0.6,0.5C122.3,61.6,122.2,62,122.2,62.4z"/>
		<path class="st0" d="M147.6,91.5c0,0.7,0.5,1.2,1.1,1.3c0.6,0,1.2-0.4,1.3-1.1c0-0.1,0-0.1,0-0.2c0-0.6-0.5-1.1-1.1-1.2
			C148.2,90.3,147.7,90.8,147.6,91.5z"/>
		<path class="st0" d="M166.7,140.8c0.1,0.6,0.6,1.1,1.3,1.1c0.6,0,1.2-0.6,1.2-1.2c-0.1-0.7-0.7-1.1-1.3-1.2
			C167.1,139.6,166.7,140.1,166.7,140.8z"/>
		<path class="st0" d="M55.8,151.7c0,0.7,0.6,1.2,1.2,1.2c0.6,0,1.1-0.5,1.2-1.1c0-0.7-0.5-1.2-1.1-1.3c0,0,0,0-0.1,0
			c-0.6,0-1.2,0.4-1.2,1.1C55.8,151.6,55.8,151.6,55.8,151.7z"/>
		<path class="st0" d="M179.8,88.5c0.6,0,1.1-0.4,1.2-1.1c0,0,0-0.1,0-0.1c0-0.6-0.5-1.1-1-1.1c0,0-0.1,0-0.1,0
			c-0.6,0.1-1.1,0.6-1,1.2C178.8,88,179.2,88.4,179.8,88.5z"/>
		<path class="st0" d="M145.3,139.1c-0.2,0.6,0.1,1.2,0.7,1.5c0,0,0.1,0,0.1,0c0.3,0.1,0.7,0.1,1,0l0,0c0.1-0.2,0.2-0.4,0.3-0.6
			c0.2-0.6-0.1-1.2-0.6-1.4c0,0-0.1,0-0.1,0c-0.5-0.3-1.1-0.1-1.3,0.4C145.4,139,145.3,139.1,145.3,139.1z"/>
		<path class="st0" d="M193.7,132c0,0.6,0.5,1.1,1.1,1.2c0.6,0,1.1-0.6,1.1-1.2c0-0.6-0.6-1.1-1.2-1.1
			C194.1,130.9,193.7,131.4,193.7,132z"/>
		<path class="st0" d="M86,100.7c0.1-0.6-0.4-1.2-1-1.2c-0.6-0.1-1.2,0.4-1.2,1c0,0.1,0,0.1,0,0.2c0,0.6,0.4,1.1,1,1.1
			c0,0,0.1,0,0.1,0c0.5,0.1,1-0.4,1.1-0.9C86,100.8,86,100.7,86,100.7z"/>
		<path class="st0" d="M52.4,65.1c0.6,0,1.1-0.5,1.1-1.1s-0.5-1.1-1.1-1.1l0,0c-0.6,0-1.1,0.5-1.1,1.2C51.4,64.6,51.9,65,52.4,65.1z
			"/>
		<path class="st0" d="M83.4,84.4c-0.4-0.3-0.8-0.4-1.3-0.4c-0.3,0-0.6,0-0.9,0.1c-0.2,0.1-0.4,0.2-0.5,0.5c0,0.2,0.1,0.5,0.3,0.6
			c0.7,0.4,1.5,0.5,2.2,0.3C83.8,85.2,83.9,84.7,83.4,84.4z"/>
		<path class="st0" d="M31.5,122.8c0-0.5-0.3-1-0.9-1c0,0-0.1,0-0.1,0c-0.6,0-1.1,0.5-1.1,1c0,0.6,0.5,1.1,1,1.1c0,0,0,0,0,0
			c0.6,0,1-0.4,1-1C31.5,122.9,31.5,122.9,31.5,122.8z"/>
		<path class="st0" d="M73.9,137.5c0,0.5,0.5,1,1,1c0.6,0,1.1-0.4,1.2-1c0-0.6-0.4-1-1-1c-0.5-0.1-1.1,0.3-1.1,0.8
			C73.9,137.4,73.9,137.5,73.9,137.5z"/>
		<path class="st0" d="M45,12.8c-0.1-0.6-0.6-1-1.2-1c-0.6,0-1,0.4-1,1c0,0,0,0,0,0.1c0,0.6,0.4,1,1,1c0,0,0,0,0.1,0
			C44.5,13.9,45,13.4,45,12.8z"/>
		<path class="st0" d="M33.5,80.6c0,0.6,0.4,1,1,1c0,0,0,0,0.1,0c0.5-0.1,1-0.5,1-1.1c-0.1-0.6-0.5-1-1.1-1
			C33.9,79.5,33.4,80,33.5,80.6C33.4,80.5,33.4,80.6,33.5,80.6z"/>
		<path class="st0" d="M125.2,115.2c0-0.6-0.4-1-1-1c0,0,0,0-0.1,0c-0.6,0-1,0.5-0.9,1.1c0,0.6,0.5,1,1.1,0.9
			C124.8,116.1,125.2,115.7,125.2,115.2z"/>
		<path class="st0" d="M93,132.3c-0.6,0-1,0.4-1.1,0.9s0.4,1,0.9,1.1c0.5,0.1,1-0.3,1.1-0.9C94,132.9,93.6,132.4,93,132.3z"/>
		<path class="st0" d="M91.7,111c-0.5,0-1,0.4-1,0.9c0,0,0,0,0,0c0,0.5,0.4,1,0.9,1c0.5,0,1-0.4,1-0.9c0.1-0.5-0.3-0.9-0.7-0.9
			C91.9,111,91.8,111,91.7,111z"/>
		<path class="st0" d="M108.1,101.7c-0.6,0-1,0.4-1.1,1c0.1,0.5,0.6,0.8,1.1,0.8c0.5,0,1-0.4,1.1-0.9
			C109.3,102.1,108.8,101.7,108.1,101.7z"/>
		<path class="st0" d="M159.7,129.5c-0.5,0-0.9,0.4-1,0.9c0,0.5,0.4,1,0.9,1c0.5,0.2,1.1-0.1,1.2-0.7c0.2-0.5-0.1-1.1-0.7-1.2
			C160,129.5,159.8,129.5,159.7,129.5L159.7,129.5z"/>
		<path class="st0" d="M188.6,147c0,0.5,0.4,0.8,0.9,0.8c0.5,0,1-0.4,1-0.9c0-0.5-0.4-1-0.9-1C189,145.9,188.6,146.4,188.6,147z"/>
		<path class="st0" d="M41,48.1c0-0.5-0.4-0.9-0.9-1c-0.5,0-1,0.5-1,1c0,0.5,0.5,0.9,1,0.9c0,0,0,0,0,0C40.6,49,40.9,48.6,41,48.1z"
			/>
		<path class="st0" d="M131.4,112.5c-0.2-0.1-0.5-0.2-0.5,0.1c-0.1,0.5-0.3,0.9-0.5,1.3c-0.1,0.4,0,0.7,0.4,0.9
			c0.2,0.2,0.5,0.2,0.7,0c0.3-0.2,0.5-0.6,0.3-0.9c-0.1-0.2-0.1-0.4-0.1-0.7C131.7,113,131.7,112.7,131.4,112.5z"/>
		<path class="st0" d="M43.3,48.7c0-0.5-0.4-0.9-0.9-0.9c-0.5,0-0.9,0.4-0.9,0.9c0,0.5,0.4,0.9,0.9,0.9c0,0,0,0,0.1,0
			c0.5,0,0.8-0.3,0.9-0.8C43.3,48.8,43.3,48.7,43.3,48.7z"/>
		<path class="st0" d="M47,37.1c0-0.5-0.4-0.9-0.9-0.9c-0.5,0.1-0.8,0.5-0.8,0.9c0,0.5,0.4,0.9,0.9,0.9C46.6,38,46.9,37.6,47,37.1z"
			/>
		<path class="st0" d="M78,95.3c0.5,0,0.9-0.4,0.9-0.9c0-0.5-0.4-0.9-0.9-0.9c0,0,0,0,0,0c-0.4,0-0.8,0.3-0.9,0.8c0,0,0,0.1,0,0.1
			C77.1,94.9,77.5,95.3,78,95.3C78,95.3,78,95.3,78,95.3z"/>
		<path class="st0" d="M98.7,109.9c-0.6,0.1-1.1,0.5-1.3,1.1c0,0.3,0,0.5,0.4,0.6c0.6,0,1.2-0.3,1.5-0.8c0.1-0.3,0-0.6-0.3-0.8
			C98.9,109.9,98.8,109.9,98.7,109.9z"/>
		<path class="st0" d="M31.6,118.1c0-0.5-0.4-0.9-1-0.9c-0.4,0-0.6,0.2-0.6,0.8c0,0.4,0.3,0.8,0.7,0.9c0,0,0,0,0,0
			C31.1,118.9,31.5,118.6,31.6,118.1z"/>
		<path class="st0" d="M138.9,109.4c0.4,0,0.6-0.4,0.6-0.7c-0.1-0.5-0.5-1-1.1-1c-0.4,0-0.6,0.3-0.5,0.8
			C137.9,108.9,138.4,109.4,138.9,109.4z"/>
		<path class="st0" d="M83.3,118.9c-0.1-0.2-0.3-0.4-0.5-0.4c-0.3,0-0.5,0.1-0.5,0.4c0,0.3-0.2,0.6-0.5,0.7
			c-0.2,0.1-0.3,0.2-0.2,0.4c0,0,0,0.1,0,0.1c0.1,0.2,0.2,0.5,0.5,0.5c0.3,0,0.5-0.2,0.5-0.4c0-0.3,0.2-0.6,0.5-0.7
			C83.3,119.3,83.4,119.1,83.3,118.9z"/>
		<path class="st0" d="M62.6,112.5c0-0.4-0.3-0.8-0.7-0.8c0,0-0.1,0-0.1,0c-0.4,0-0.8,0.3-0.8,0.7c0,0,0,0.1,0,0.1
			c0,0.4,0.3,0.8,0.8,0.8C62.2,113.3,62.6,112.9,62.6,112.5L62.6,112.5z"/>
		<path class="st0" d="M54,60.1c-0.1-0.4-0.4-0.7-0.8-0.8c-0.5,0-0.8,0.4-0.8,0.8c0.1,0.4,0.4,0.7,0.8,0.8C53.6,61,54,60.6,54,60.1z
			"/>
		<path class="st0" d="M94.4,97.8c0.4,0.1,0.8,0,1.1-0.3c0.1-0.1,0.2-0.4,0.1-0.5c-0.2-0.3-0.6-0.5-1-0.5c-0.4-0.1-0.7,0.1-0.8,0.5
			c-0.1,0.4,0.1,0.7,0.5,0.8C94.3,97.8,94.4,97.8,94.4,97.8L94.4,97.8z"/>
		<path class="st0" d="M96.2,89.3c0,0.4,0.3,0.7,0.7,0.8c0.5,0,0.8-0.3,0.9-0.8c0-0.4-0.3-0.8-0.8-0.8
			C96.6,88.5,96.2,88.9,96.2,89.3C96.2,89.3,96.2,89.3,96.2,89.3z"/>
		<path class="st0" d="M118.7,151.4c0,0.4,0.4,0.8,0.8,0.8c0.4,0,0.7-0.3,0.7-0.7c0,0,0,0,0-0.1c0-0.4-0.4-0.8-0.8-0.8
			C119,150.6,118.7,151,118.7,151.4L118.7,151.4z"/>
		<path class="st0" d="M82.9,125.5c0.4,0,0.8-0.3,0.9-0.8c0-0.4-0.3-0.8-0.7-0.9c-0.4,0-0.8,0.3-0.9,0.7c0,0.1,0,0.1,0,0.2
			C82.2,125.1,82.5,125.5,82.9,125.5z"/>
		<path class="st0" d="M201.9,141.4c0,0.4,0.2,0.8,0.6,0.8c0,0,0,0,0.1,0c0.4,0,0.8-0.3,0.8-0.7c0-0.4-0.3-0.8-0.7-0.8
			C202.3,140.7,201.9,141,201.9,141.4z"/>
		<path class="st0" d="M175.4,118.7c0.4,0,0.8-0.3,0.8-0.7c0,0,0,0,0,0c0-0.4-0.3-0.8-0.7-0.8c0,0,0,0,0,0c-0.4,0-0.7,0.3-0.8,0.7
			c0,0,0,0,0,0.1C174.7,118.3,175,118.6,175.4,118.7C175.4,118.7,175.4,118.7,175.4,118.7z"/>
		<path class="st0" d="M122.7,113.2c0,0.4,0.3,0.7,0.7,0.7c0,0,0,0,0,0c0.4,0,0.7-0.3,0.8-0.7c0-0.4-0.2-0.7-0.6-0.8c0,0,0,0,0,0
			C123.1,112.4,122.7,112.7,122.7,113.2C122.7,113.1,122.7,113.2,122.7,113.2z"/>
		<path class="st0" d="M58.8,149.2c0-0.4-0.4-0.7-0.7-0.7c0,0,0,0,0,0c-0.4,0-0.7,0.2-0.7,0.6c0,0,0,0.1,0,0.1
			c-0.1,0.3,0.2,0.7,0.5,0.7c0,0,0.1,0,0.1,0C58.4,149.9,58.8,149.6,58.8,149.2C58.8,149.2,58.8,149.2,58.8,149.2z"/>
		<path class="st0" d="M179.3,146.6c0,0.4,0.3,0.7,0.6,0.7c0.4,0,0.8-0.3,0.8-0.8c0-0.4-0.3-0.7-0.7-0.7c0,0,0,0,0,0
			c-0.3,0-0.6,0.2-0.7,0.5C179.3,146.5,179.3,146.5,179.3,146.6z"/>
		<path class="st0" d="M98.8,87c0-0.4-0.3-0.7-0.7-0.7c0,0,0,0,0,0c-0.4,0-0.7,0.3-0.7,0.7c0,0,0,0,0,0c0,0.4,0.3,0.7,0.7,0.7
			c0,0,0,0,0,0C98.5,87.7,98.8,87.4,98.8,87z"/>
		<path class="st0" d="M117.7,49.4c0-0.4-0.3-0.8-0.7-0.9c-0.3,0-0.5,0.3-0.6,0.7s0.3,1,0.7,1S117.6,49.8,117.7,49.4z"/>
		<path class="st0" d="M124.6,111c-0.1-0.4-0.4-0.7-0.8-0.7c-0.3,0-0.6,0.4-0.6,0.8c0,0.4,0.3,0.7,0.6,0.7c0,0,0,0,0,0
			C124.3,111.8,124.6,111.4,124.6,111z"/>
		<path class="st0" d="M44.7,54.6c0-0.4-0.4-0.7-0.8-0.7c-0.4,0-0.7,0.4-0.7,0.8s0.4,0.7,0.8,0.7l0,0C44.4,55.2,44.7,54.9,44.7,54.6
			z"/>
		<path class="st0" d="M82.5,128.4c0-0.3-0.2-0.6-0.5-0.6c0,0-0.1,0-0.1,0c-0.4,0-0.7,0.3-0.7,0.6c0,0,0,0,0,0
			c0,0.4,0.4,0.8,0.8,0.8C82.3,129.1,82.5,128.7,82.5,128.4z"/>
		<path class="st0" d="M38,52.5c0-0.4-0.3-0.7-0.7-0.7c-0.4,0-0.7,0.3-0.7,0.7c0,0,0,0,0,0c0,0.4,0.3,0.7,0.6,0.7c0,0,0,0,0,0
			C37.6,53.2,38,52.9,38,52.5C38,52.5,38,52.5,38,52.5z"/>
		<path class="st0" d="M115.9,60.1c-0.3,0-0.3,0.2-0.3,0.5c0.1,0.6,0.5,1,1,1.1c0.2,0,0.3-0.1,0.4-0.3
			C117,60.8,116.5,60.2,115.9,60.1z"/>
		<path class="st0" d="M54.2,124.8c-0.1-0.4-0.4-0.6-0.8-0.6c-0.4,0-0.7,0.3-0.6,0.7c0,0.4,0.4,0.7,0.8,0.7
			C54,125.5,54.2,125.2,54.2,124.8z"/>
		<path class="st0" d="M119.2,143.6c-0.1-0.4-0.4-0.6-0.7-0.6c-0.4,0-0.7,0.3-0.7,0.6c0,0,0,0.1,0,0.1c0,0.3,0.3,0.6,0.6,0.6
			c0,0,0,0,0.1,0C118.8,144.3,119.1,144,119.2,143.6z"/>
		<path class="st0" d="M113.1,118c-0.4,0-0.8,0.3-0.8,0.7c0,0.4,0.2,0.7,0.6,0.8c0.4,0,0.7-0.3,0.7-0.7c0,0,0,0,0,0
			C113.6,118.4,113.4,118.1,113.1,118z"/>
		<path class="st0" d="M97.4,92.9c0.4,0,0.7-0.2,0.7-0.6c0-0.4-0.3-0.7-0.7-0.7c-0.4,0-0.7,0.4-0.7,0.7C96.8,92.7,97,92.9,97.4,92.9
			z"/>
		<path class="st0" d="M62.8,38.1c0.5,0,0.9-0.3,0.9-0.7c0-0.4-0.3-0.7-0.6-0.7c0,0,0,0,0,0c-0.4,0-0.7,0.3-0.6,0.7c0,0,0,0,0,0.1
			C62.4,37.7,62.3,38.1,62.8,38.1z"/>
		<path class="st0" d="M54.8,141c0-0.4-0.3-0.7-0.7-0.7s-0.7,0.3-0.7,0.7c0,0.4,0.3,0.7,0.6,0.7c0,0,0,0,0,0
			C54.4,141.7,54.7,141.4,54.8,141z"/>
		<path class="st0" d="M153.4,85.3c0,0.2,0.1,0.2,0.3,0.3c0.5,0.2,1.1,0,1.5-0.4c0.1-0.1,0.1-0.3,0-0.4c0,0-0.1-0.1-0.1-0.1
			c-0.1,0-0.2-0.1-0.4-0.1c-0.4,0-0.8,0.1-1.1,0.3C153.5,85,153.4,85.1,153.4,85.3z"/>
		<path class="st0" d="M137.5,114.6c0.3,0,0.5-0.3,0.5-0.6c-0.1-0.4-0.4-0.7-0.8-0.7c-0.3,0-0.5,0.2-0.5,0.5
			C136.8,114.2,137.1,114.5,137.5,114.6z"/>
		<path class="st0" d="M195,63.6c0,0.4,0.3,0.6,0.7,0.7c0.3,0,0.6-0.3,0.6-0.6c0,0,0,0,0,0c0-0.3-0.2-0.7-0.5-0.7
			c-0.3,0-0.7,0.2-0.7,0.5C195,63.5,195,63.5,195,63.6L195,63.6z"/>
		<path class="st0" d="M112.5,108.3c-0.4,0-0.7,0.3-0.7,0.7c0,0.3,0.2,0.5,0.5,0.5c0,0,0,0,0,0c0.3,0,0.6-0.3,0.6-0.6
			C113,108.6,112.8,108.3,112.5,108.3z"/>
		<path class="st0" d="M62.4,132.1c0-0.3-0.3-0.5-0.6-0.5c-0.3,0-0.6,0.3-0.5,0.6c0,0,0,0,0,0c0,0.3,0.2,0.5,0.5,0.5c0,0,0,0,0.1,0
			C62.2,132.7,62.4,132.4,62.4,132.1C62.4,132.1,62.4,132.1,62.4,132.1z"/>
		<path class="st0" d="M140.6,86.4c-0.3,0-0.6,0.2-0.7,0.5c0,0,0,0,0,0c0,0.3,0.2,0.5,0.5,0.5s0.8-0.3,0.8-0.6S141,86.4,140.6,86.4z
			"/>
		<path class="st0" d="M107.3,48.3c-0.3,0-0.6,0.3-0.6,0.6c0,0.3,0.3,0.6,0.6,0.6c0.3,0,0.6-0.3,0.6-0.6
			C107.9,48.6,107.6,48.3,107.3,48.3z"/>
		<path class="st0" d="M144.3,97.5c-0.3,0-0.5,0.1-0.6,0.4c0,0.4,0.3,0.7,0.7,0.7c0.3,0,0.5-0.1,0.6-0.4
			C145,97.8,144.7,97.5,144.3,97.5C144.4,97.5,144.3,97.5,144.3,97.5z"/>
		<path class="st0" d="M117.1,111.2c-0.2,0-0.3,0.2-0.4,0.4c-0.1,0.2-0.2,0.5-0.2,0.8c0,0.2,0,0.4,0.2,0.5s0.3-0.1,0.4-0.3
			c0.1-0.3,0.2-0.5,0.2-0.8C117.3,111.5,117.4,111.3,117.1,111.2z"/>
		<path class="st0" d="M151.4,131.2c0-0.2-0.1-0.4-0.3-0.5c-0.3-0.2-0.5-0.4-0.7-0.7c-0.1-0.1-0.2-0.2-0.4-0.3
			c-0.1-0.1-0.2,0-0.2,0.1c0.3,0.6,0.6,1.1,1.1,1.6C151.2,131.6,151.4,131.5,151.4,131.2z"/>
		<path class="st0" d="M149.4,94.7c0-0.2-0.1-0.3-0.3-0.4l-0.1-0.1c-0.3-0.1-0.6-0.3-0.9,0c-0.1,0.1-0.1,0.2-0.1,0.3
			c0.1,0.3,0.4,0.5,0.7,0.4h0.2C149.1,94.9,149.4,95,149.4,94.7z"/>
		<path class="st0" d="M41.1,35.6c0-0.3-0.3-0.5-0.5-0.5c-0.3,0-0.5,0.2-0.5,0.5c0,0,0,0,0,0c0,0.3,0.2,0.5,0.4,0.5c0,0,0,0,0.1,0
			C40.8,36.1,41.1,35.9,41.1,35.6C41.1,35.6,41.1,35.6,41.1,35.6z"/>
		<path class="st0" d="M89.2,54.2c0.3,0,0.4-0.2,0.4-0.5c0-0.3-0.2-0.6-0.6-0.7c-0.3,0-0.4,0.2-0.4,0.5S88.9,54.2,89.2,54.2z"/>
		<path class="st0" d="M65.3,106c0.1,0.3,0.3,0.3,0.5,0.2c0.5-0.2,1-0.4,1.5-0.7c0.1,0,0.1-0.1,0.1-0.2c0-0.1-0.1-0.1-0.2-0.1
			c-0.5,0.2-1.1,0.3-1.7,0.4C65.4,105.7,65.3,105.9,65.3,106z"/>
		<path class="st0" d="M130.3,108c0,0.1,0.1,0.1,0.1,0.2c0.4,0.4,0.8,0.9,1.1,1.4c0.1,0.1,0.2,0.2,0.3,0.2c0.2,0.1,0.3,0,0.3-0.2
			c0-0.1-0.1-0.3-0.2-0.3c-0.5-0.4-1-0.8-1.5-1.3C130.4,107.9,130.4,107.8,130.3,108z"/>
		<path class="st0" d="M74.3,101.7l1.3-0.6c0,0,0.1-0.1,0.1-0.1c0-0.1-0.1-0.1-0.2-0.1c0,0,0,0,0,0c-0.5,0.1-1,0.1-1.4,0.2
			c-0.2,0-0.3,0.2-0.3,0.3C73.9,101.7,74.1,101.7,74.3,101.7z"/>
		<path class="st0" d="M48.6,149.9c-0.3,0-0.4,0.2-0.4,0.5c0,0.3,0.2,0.5,0.5,0.5c0,0,0,0,0,0c0.3,0,0.4-0.2,0.4-0.5c0,0,0,0,0,0
			C49.2,150.1,49,149.9,48.6,149.9C48.7,149.9,48.7,149.9,48.6,149.9z"/>
		<path class="st0" d="M189.1,137.3c0,0.3,0.1,0.5,0.4,0.5c0,0,0,0,0,0c0.2,0.1,0.5-0.1,0.5-0.3c0,0,0-0.1,0-0.1
			c0-0.3-0.2-0.6-0.5-0.6C189.3,136.8,189.1,137,189.1,137.3C189.1,137.2,189.1,137.2,189.1,137.3z"/>
		<path class="st0" d="M25.4,138.5c0-0.3-0.1-0.4-0.4-0.5c-0.2,0-0.4,0.2-0.5,0.4c0,0,0,0,0,0.1c0,0.2,0.1,0.4,0.4,0.4c0,0,0,0,0,0
			c0.2,0,0.4-0.1,0.5-0.3C25.4,138.6,25.4,138.6,25.4,138.5z"/>
		<path class="st0" d="M115.4,106.9c-0.4,0-0.7,0.3-0.8,0.7c0,0.2,0.1,0.3,0.2,0.4c0.3,0.1,0.7-0.4,0.7-0.7
			C115.6,107,115.6,106.9,115.4,106.9z"/>
		<path class="st0" d="M142.5,95.2c-0.2,0-0.4,0.1-0.4,0.3c0,0,0,0,0,0c0,0.2,0.1,0.4,0.4,0.5c0,0,0,0,0.1,0c0.3,0,0.4-0.1,0.4-0.4
			C143,95.4,142.8,95.2,142.5,95.2C142.5,95.2,142.5,95.2,142.5,95.2z"/>
		<path class="st0" d="M136.1,117.5c-0.2,0-0.3,0.2-0.3,0.3s0.1,0.5,0.4,0.5s0.3-0.1,0.3-0.3S136.4,117.5,136.1,117.5z"/>
		<path class="st0" d="M123.8,149.2c0,0.2,0.2,0.4,0.4,0.4c0,0,0.1,0,0.1,0c0.2,0,0.3-0.1,0.3-0.3c0-0.2-0.2-0.4-0.4-0.4
			c0,0,0,0,0,0C123.9,148.8,123.8,149,123.8,149.2C123.8,149.2,123.8,149.2,123.8,149.2z"/>
		<path class="st0" d="M82.7,144.3c-0.2,0-0.3,0.2-0.3,0.4c0,0,0,0,0,0c0,0.2,0.1,0.3,0.3,0.4c0,0,0,0,0,0c0.2,0,0.4-0.1,0.4-0.3
			c0,0,0-0.1,0-0.1C83.1,144.4,82.9,144.3,82.7,144.3z"/>
		<path class="st0" d="M26.3,125.9c0-0.2-0.2-0.4-0.3-0.4c0,0,0,0,0,0c-0.2,0-0.3,0.1-0.4,0.3c0,0.2,0.1,0.3,0.3,0.3c0,0,0,0,0,0
			C26.1,126.2,26.3,126.1,26.3,125.9z"/>
		<path class="st0" d="M116.9,109.4c0.3,0,0.4-0.2,0.4-0.4s-0.1-0.3-0.2-0.3c-0.2,0-0.4,0.1-0.4,0.3c0,0,0,0,0,0.1
			C116.7,109.2,116.7,109.4,116.9,109.4z"/>
		<path class="st0" d="M116.8,107.8c0-0.2-0.2-0.2-0.3-0.2s-0.3,0.2-0.3,0.4c0,0.1,0.1,0.3,0.2,0.3c0,0,0.1,0,0.1,0
			C116.6,108.3,116.8,108.1,116.8,107.8C116.8,107.9,116.8,107.9,116.8,107.8z"/>
		<path class="st0" d="M41.7,63.2c0-0.1-0.1-0.2-0.1-0.2c-0.3,0-0.3,0.3-0.3,0.5c0,0.1,0,0.1,0,0.2c0,0,0,0.1,0.1,0.2
			c0.1,0,0.1,0,0.2,0C41.8,63.7,41.8,63.4,41.7,63.2z"/>
		<path class="st0" d="M109.6,103c0,0.2,0.2,0.3,0.3,0.3s0.3-0.1,0.3-0.3c0-0.2-0.2-0.3-0.4-0.2c0,0,0,0,0,0
			C109.7,102.7,109.5,102.9,109.6,103z"/>
		<path class="st0" d="M73.5,101.1c0-0.2-0.1-0.2-0.3-0.2s-0.4,0-0.5,0.3s0.2,0.2,0.3,0.2S73.4,101.3,73.5,101.1z"/>
		<path class="st0" d="M132.6,115.2c0,0.2,0.1,0.3,0.3,0.2c0.1,0,0.2-0.1,0.2-0.3c0-0.1,0-0.2-0.2-0.3c0,0,0,0-0.1,0
			C132.7,114.9,132.6,115,132.6,115.2z"/>
		<path class="st0" d="M186.2,100.2c0,0.1,0,0.2,0.1,0.2c0,0,0,0,0,0c0.1,0,0.3,0,0.3-0.1c0,0,0,0,0,0c0-0.1,0-0.2-0.1-0.3
			c0,0-0.1,0-0.1,0C186.4,100,186.3,100.1,186.2,100.2z"/>
		<path class="st0" d="M106.7,99.6c-0.2,0-0.2,0.1-0.2,0.3s0.1,0.3,0.3,0.2c0.1,0,0.2-0.1,0.2-0.2C106.9,99.7,106.8,99.6,106.7,99.6
			C106.7,99.6,106.7,99.6,106.7,99.6z"/>
		<path class="st0" d="M222.7,23.7C222.7,23.8,222.7,23.8,222.7,23.7c0.2,0,0.4-0.2,0.5-0.4c0,0,0.1-0.1,0.1-0.1c0,0,0-0.1-0.1-0.1
			c0,0-0.1,0-0.1,0C223,23.2,222.8,23.5,222.7,23.7z"/>
		<path class="st0" d="M169.8,142.9c0,0.1,0.1,0.2,0.2,0.2c0,0,0,0,0,0c0.1,0,0.2-0.1,0.2-0.2c0,0,0,0,0,0c0-0.1-0.1-0.2-0.2-0.2
			C169.9,142.7,169.8,142.8,169.8,142.9z"/>
		<path class="st0" d="M129.1,48c0,0.1,0,0.2,0.2,0.2c0.1,0,0.2,0,0.2-0.1c0,0,0,0,0,0c0-0.1,0-0.2-0.1-0.2c0,0,0,0-0.1,0
			C129.2,47.9,129.1,47.9,129.1,48z"/>
		<path class="st0" d="M147.5,103c0,0.1,0.1,0.2,0.2,0.1c0.1,0,0.2-0.1,0.1-0.2c0-0.1-0.1-0.2-0.2-0.2c0,0,0,0,0,0
			C147.5,102.8,147.5,102.9,147.5,103z"/>
		<path class="st0" d="M122.4,78.6c0,0.3,0.3,0.6,0.6,0.6c0.4-0.1,0.6-0.4,0.6-0.7c0-0.3-0.3-0.6-0.7-0.6
			C122.7,77.9,122.4,78.1,122.4,78.6C122.4,78.5,122.4,78.5,122.4,78.6z"/>
	</g>
</g>
</svg>
