<?xml version="1.0" encoding="utf-8"?>
<!-- Generator: Adobe Illustrator 23.0.6, SVG Export Plug-In . SVG Version: 6.00 Build 0)  -->
<svg version="1.1" id="sw-js-blob-svg" xmlns="http://www.w3.org/2000/svg" xmlns:xlink="http://www.w3.org/1999/xlink" x="0px"
	 y="0px" viewBox="0 0 100 100" style="enable-background:new 0 0 100 100;" xml:space="preserve">
<style type="text/css">
	.st0{fill:url(#SVGID_1_);}
</style>
<linearGradient id="SVGID_1_" gradientUnits="userSpaceOnUse" x1="-243.1741" y1="465.1089" x2="-242.1741" y2="466.1089" gradientTransform="matrix(64.3725 0 0 -77.4202 15673.791 36095.9258)">
	<stop  offset="0" style="stop-color:#FFFFFF"/>
	<stop  offset="1" style="stop-color:#FFFFFF"/>
</linearGradient>
<path class="st0" d="M72.2,22.4c5.8,6.1,9.4,13.8,11.4,22.1c2,8.4,2.4,17.5-0.8,25.8c-3.2,8.3-10,15.9-17.9,17.4
	C57,89.1,48.1,84.5,40.6,80c-7.4-4.6-13.3-9-16.4-14.9c-3.1-5.8-3.4-13.1-3.4-21.6c-0.1-8.5,0-18.3,4.9-24.6s14.6-9.1,23.5-8.2
	C58.1,11.6,66.3,16.2,72.2,22.4z"/>
</svg>
