<svg xmlns="http://www.w3.org/2000/svg" viewBox="0 0 69.94 69.94"><defs><style>.cls-1{fill:#fff;}</style></defs><title>Asset 7</title><g id="Layer_2" data-name="Layer 2"><g id="Layer_1-2" data-name="Layer 1"><path class="cls-1" d="M69.94,24.16V0H46.42V3.39H64.15L45.21,22.33H24.73L5.79,3.39H23.52V0H0V24.16H3.39V5.79L22.33,24.72V45.21L3.39,64.15V47.06H0V69.94H23.52V66.55H5.79L24.73,47.61H45.21L64.15,66.55H46.42v3.39H69.94V47.06H66.55V64.15L47.61,45.21V24.73L66.55,5.79V24.16ZM41.82,25.72,35,32.57l-6.85-6.85Zm-16.1,2.4L32.57,35l-6.85,6.85Zm2.4,16.1L35,37.37l6.85,6.85Zm16.1-2.4L37.37,35l6.85-6.85Z"/></g></g></svg>