<?xml version="1.0" encoding="utf-8"?>
<!-- Generator: Adobe Illustrator 23.0.6, SVG Export Plug-In . SVG Version: 6.00 Build 0)  -->
<svg version="1.1" id="Layer_1" xmlns="http://www.w3.org/2000/svg" xmlns:xlink="http://www.w3.org/1999/xlink" x="0px" y="0px"
	 viewBox="0 0 70.7 364.8" style="enable-background:new 0 0 70.7 364.8;" xml:space="preserve">
<style type="text/css">
	.st0{fill:#FFFFFF;}
</style>
<title>Asset 9</title>
<g>
	<g id="_Layer_">
		<path class="st0" d="M67.3,119.3c0.1-6.7,0.2-13.3,0.4-20c0.1-5.2,0.3-10.3,0.3-15.5c0.2-10.6,0.3-21.2,0.5-31.7
			c0.1-3.1,0.2-6.2,0.3-9.2l1.9-0.9l-1.8-0.9c-0.8-1.7,1.2-1.3,1.7-2.3c-1.5-0.4-2.9-0.7-4.3-1.2s-2.9-1.2-4.3-1.8V19.6L40.6,9.8
			c0.1-2.9,0.2-5.7,0.3-8.5c-2-1.6-4.2-1.6-6.6-0.8c1,0.7,1.5,1.9,1.4,3.1c-0.1,1.6-0.1,3.2-0.3,4.8c-0.1,0.4-0.3,0.8-0.7,1
			c-0.7,0.4-1.4,0.7-2.1,1c0-1.4-0.1-2.5,0-3.6c0.1-0.7-0.3-1.5-1-1.7c-2.3-1-4.8-1.1-7.2-0.3c0.8,0.4,1.2,1.2,1.2,2.1
			c0.1,1.3,0.1,2.5,0.2,3.8c0.1,1.7-0.1,3.2-2,3.9c-0.1,0-0.1,0.1-0.2,0.2l0,0l0,0l0,0l2.3-0.7c-0.1,0.4-0.1,0.7-0.2,1
			c-0.3,1.6-0.3,1.6-1.9,1.9c-0.5,0.1-1,0.3-1.5,0.4c0.1,0.5,0.2,1,0.3,1.5c0,0.8,0,1.7,0,2.5c0.3,1.3-0.2,2.7-1.3,3.5l0,0l1-0.3
			c0.1,1.2,0.1,2.3,0.2,3.7c1.1-1.3,0.2-2.7,1-3.8c0.8,0,1.5,0,1.6,1.2c0.1,0.4,0.3,0.8,0.5,1.2c0.6,0.7,0.5,1.7-0.2,2.2
			c0,0-0.1,0.1-0.1,0.1c-1.7,1.1-3.5,1.9-5.4,2.4c-0.1-1-0.3-1.7,0.6-2.3c0.4-0.4,0.6-0.8,0.6-1.4c0.1-1,0.1-1.9,0.1-2.9l0,0
			c0.1-2.3,0.2-4.5,0.2-6.7c-0.1-0.6-0.3-1.3-0.5-1.9l2.5-1.5l0,0l-2,0.4V9.9c-2.7-1.2-5.1-1.3-6.9-0.4c0.3,0.7,0.6,1.3,0.8,2.1
			c0.1,0.8,0.2,1.5,0.2,2.3c0.2,4.1,0.5,4.1-3.4,5.8c-2.3,1-4.5,2-6.6,3c0,1.8,0,3.5,0,5.2c0,2.2-0.1,4.3-0.1,6.5s-0.7,4.3-0.1,6.5
			c0.1,0.2-0.3,0.5-0.5,0.8h5.8c0.5-2.2,0.9-2.4,3.4-1.9c0.1,1.6,0.3,3.2,0.4,4.9c0,2.5-0.1,4.9-0.1,7.4c-0.1,4.7-0.1,9.5-0.3,14.2
			c-0.1,5.1-0.3,10.2-0.4,15.3c-0.1,4.6-0.2,9.1-0.4,13.7c-0.1,3.7-0.2,7.4-0.3,11.2c-0.1,4-0.1,8-0.3,12.1
			c-0.2,4.9-0.4,9.7-0.5,14.6c-0.3,8.8-0.5,17.5-0.8,26.3c-0.1,1.8-0.6,2.4-2.3,3l-2.7,0.9c0.3,0,0.5,0.1,0.8,0.1
			c0.3,0,0.6-0.1,0.8-0.1c-0.1,2.4,0.1,4.7-0.1,7.1s-0.2,4.6-0.2,6.9c0.1,0.8-0.4,1.6-1.3,1.7c0,0-0.1,0-0.1,0
			c-1.4,0.3-2.8,0.7-4.2,1.1c-0.5-2.4-0.6-5-0.1-7.4h2.1v4.6H5c0.6-1.4,0-3,0.5-4.6l2.1-0.2c-1.1-0.5-2.2-0.7-3.4-0.6
			c-0.6,0-1.1-0.4-1.8-0.7c0.1-1.8,0.2-3.5,0.3-5.4h2v4.9h0.4c0.5-1.5,0-3.2,0.3-4.9l2-0.3V165l-4.1-0.3c0-0.1,0-0.2,0-0.3
			c0.7-0.2,1.3-0.3,1.9-0.6c0.5-0.2,1-0.5,1.5-0.8l-4.7,1.2c-0.3,5.5-0.7,10.8-1,16c0,1-0.3,2.1,0.7,3.2c1.3,0,2.8,0,4.2,0
			c0.5,0,0.9-0.1,1.3-0.4c0.9-1,1.9-0.8,3-0.5c1.2,0.4,0.9,1.4,0.9,2.3c0,4.3-0.1,8.5-0.2,12.8c-0.1,6.9-0.3,13.8-0.5,20.6
			c-0.1,4.1-0.3,8.3-0.5,12.4C10,236,10,241.4,9.8,246.8c-0.3,9.2-0.7,18.5-1.1,27.7c-0.1,3.5-0.3,7-0.4,10.4
			c-0.1,4.5-0.1,8.9-0.2,13.3c-0.1,3.3-0.3,6.6-0.4,9.9c-1,0.5-2.2,0.7-3.3,0.5l-0.2,0v-2.3H1.6v0.1l-0.4,0.1l-0.1-0.2H0v0.8
			l0.8,0.2c0,0.8-0.3,1-0.8,1.1v15l3.5-0.4v-0.1c0.2-1.8,0.5-3.5,0.7-5.2c0,0,0.2,0,0.3,0c0.5,2.4,0.5,4.9,0.2,7.3l-1.3,0.1L0,325.4
			v5.1c0.5,0.6,0.5,1.5,0,2.1v32.1h67.1V322c-0.1,0-0.3,0-0.4,0c-1.4,0-1.5-0.2-1.5-1.6s0.2-3,0.2-4.5c0-0.6-0.1-1.3-0.3-1.9
			c-0.2-0.4-0.8-0.5-1.3-0.9c0.1-5.7,0.3-11.5,0.3-17.2c0-1.3,0-2.5,1.5-3.3l-1.7-1.6c0-4.9-0.1-9.8,0-14.6
			c0.1-6.7,0.4-13.5,0.6-20.2c0.2-6.2,0.2-12.4,0.4-18.6c0.2-8.3,0.5-16.6,0.7-24.9c0.2-8,0.3-16,0.4-24c0-0.9,0.1-1.8,0.1-2.7
			s0.4-1.3,1.3-1.4c0,0,0.1-0.2,0.1-0.4l-1.3-0.4v-1.9l1.4-0.6l-1.4-0.6c0.3-11,0.5-21.9,0.8-32.8c0.3-0.1,0.5-0.2,0.7-0.3
			c1.3-0.6,1.3-1,0.2-1.8c-0.7-0.4-1.1-1.3-1-2.1c0.1-1.7,0.2-3.5,0.2-5.2C67,132.2,67.2,125.8,67.3,119.3z M25.5,22.6
			c-0.1,1.1-0.3,1.2-1.9,1.1c-0.3-2-0.3-4.1,0.1-6.2c1.8,0.3,1.9,0.4,1.9,1.8C25.6,20.4,25.6,21.5,25.5,22.6z M4.2,182.3
			c-0.1-0.3-0.2-0.5-0.2-0.8c0-0.3,0-0.7,0.1-1l3.6-1l0.6,1.7L4.2,182.3z M4.3,309.5c0.2,0.1,0.3,0.2,0.4,0.3H4.2L2,309.6
			C2.7,309.3,3.5,309.3,4.3,309.5z M4.6,316.8h-4v-0.1l3.2-0.3l0,0c0.1-2,0.3-3.8,0.4-5.7h0.4C5.1,312.7,5.1,314.8,4.6,316.8z
			 M57.1,18.6c1.3,0.6,2.5,1,3.5,1.6c0.3,0.1,0.4,0.7,0.4,1.1c0,1.5,0,3.1,0,5l-2.2-1c1.3-2,0.6-3.3-1.7-3.6L57.1,18.6z M63.5,102.3
			c0.2-0.2-0.2-0.9-0.4-1.4c0.6-0.3,1.3-0.1,1.8,0.4v5.9c-1.8-0.5-1.8-0.5-1.8-1.8C63.2,104.3,62.8,103.3,63.5,102.3z M63.4,99.9
			c0-1.6-0.6-3.2,0.7-4.8L62,94.8v-1.6l3.2,1.2v6.1L63.4,99.9z M61.7,101.7V100C62.8,100.8,62.8,101,61.7,101.7z M62.1,106.1
			c-0.7-0.6-0.8-1.3-0.3-3.8C62.6,103.1,62.6,103.7,62.1,106.1z M62.5,99.4c-1.1-1-1.1-2.7,0-3.8c0.1-0.1,0.1-0.1,0.2-0.2
			C62.6,97,62.5,98.1,62.5,99.4z M60.8,91.8c-0.1,0.2-0.2,0.5-0.3,0.8c-0.3,2.4-0.5,2.5-3.2,2.2c0-0.5,0.1-1.1,0.3-1.6
			c2-3.3,4-6.7,6-10c0-0.1,0.2-0.1,0.5-0.4C63,85.9,62.3,89,60.8,91.8z M59,239.8v4.3C58.3,243.3,58.3,243.3,59,239.8L59,239.8z
			 M58.6,251.1c-0.6-0.6-0.6-2.2-0.1-4.9C59.1,247.8,59.1,249.5,58.6,251.1L58.6,251.1z M57,238.5h-3.1c0-0.6,0.2-1.2,0.4-1.8
			c2.1-3.6,4.3-7.2,6.5-10.8c0.1-0.1,0.3-0.2,0.7-0.4C60.1,230,58.5,234.2,57,238.5z M43.4,259c0.7-0.2,1,0.5,1.3,1
			c0.9,1.7,1.8,3.4,2.7,5.1c0.4,0.7,0.5,1.5,0.2,2.2c-0.7,1.9-1.3,3.9-1.9,5.8c-0.8,2.6-1.6,5.3-2.5,7.9c-0.2,0.5-0.4,0.9-0.7,1.4
			c-0.1-0.4-0.2-0.9-0.3-1.3c0.1-2.7,0.2-5.4,0.3-8.1c0.1-4.1,0.2-8.3,0.4-12.4C42.9,259.9,42.6,259.2,43.4,259z M39.8,139.3
			c0.9-0.5,2.1-0.3,2.8,0.4c-1,2.3-0.3,4.7-0.8,7.2l-2.5,0.1c0-1.7,0-3.2,0-4.7c0-0.4,0.1-0.7,0.1-1.1
			C39.3,140.5,38.9,139.6,39.8,139.3z M39.7,129.9v-4c0.2,0.1,0.3,0.1,0.3,0.1c1.1,2.5,1.9,5.1,2.6,7.7c0,0.2,0.2,0.6,0.2,0.7
			c-0.9,1.2-0.5,2.6-0.7,4.1h-2.6v-7.6l1.6-0.6L39.7,129.9z M39.9,113.5l2.6-0.2c0.8,2.8-1.1,4.5-2.4,6.5
			C39.3,117.6,40.1,115.6,39.9,113.5z M41.7,101.2l-1.4-2.6H42v2.5L41.7,101.2z M42,105.9c-0.1,0.6,0,1.1-0.2,1.2
			c-0.4,0.2-0.9,0.3-1.4,0.3c-0.1,0-0.4-0.4-0.4-0.5c0.2-0.3,0.5-0.5,0.8-0.8C41.2,106.1,41.6,106,42,105.9L42,105.9z M40.3,101.6
			c0.4,0.7,0.8,1.5,1.2,2.2c-1.4,0.6-1.5,0.6-1.6-0.7v-1.4L40.3,101.6z M42.6,112.1c-1.5,1.2-2,1.1-2.7,0H42.6z M40.9,121.3l1.2-2.2
			h0.3c0,0.6,0.1,1.3,0.1,2.2L40.9,121.3z M42.3,128.3c-1.2-1.9-1.3-4.1-2.1-6.1l2.1-0.4c0.1,0.3,0.2,0.5,0.2,0.8
			C42.5,124.5,42.4,126.4,42.3,128.3L42.3,128.3z M42.5,157.6c0.1-1.7,0.2-3.4,0.2-5c-0.1-1.6,0.1-3.2,0.6-4.8
			c0.1-0.2,0.2-0.5,0.1-0.7c-1.3-1.9-0.2-3.9-0.5-5.7c0.7-0.3,1.2-0.3,1.2,0.4c0,0.5,0,1.1,0,1.6c-0.1,4.2-0.2,8.4-0.4,12.6
			c0,0.9-0.1,1.8-0.2,2.6C42.6,158.7,42.5,158.2,42.5,157.6L42.5,157.6z M56.4,82.3c0,2.7,0,5.4,0,8c0,1.2,0.3,2.4-0.6,3.4
			c-0.2,0.2-0.2,0.4-0.4,0.6c-0.7,0.7-1.5,0.6-1.7-0.4c-0.5-1.8-0.9-3.6-1.3-5.4s-0.8-3.5-1.2-5.2c-0.1-0.5-0.3-1.1,0.5-1.2
			c-1.1-0.6-1.4-1.2-1.6-4.1h6.4V82l-3.1,0.2L56.4,82.3z M55.1,99.5c1.4,0.1,1.5,0.3,0.8,2.1C55,101.1,55.1,100.3,55.1,99.5z
			 M54.7,99c0.1-1.2,0.6-2.3,1.6-3v3H54.7z M54.1,102.5c0.3,1,0.9,2,0.5,3.3l-1.5-0.4v-3C53.5,102.4,54,102.3,54.1,102.5L54.1,102.5
			z M53.6,100.2l0.4,1.2C53,101.2,53,101.2,53.6,100.2L53.6,100.2z M50.6,77.7c-0.8,0-1.2-0.4-0.8-1.4h6.7c0,0.5,0,0.9-0.1,1.4
			C54.5,77.7,52.5,77.7,50.6,77.7L50.6,77.7z M50.6,58.6c0.3,0,0.6,0,1,0c0.6,0,1.2,0.1,1.9,0.2v5.9h-3.4
			C49.8,62.7,49.9,60.5,50.6,58.6L50.6,58.6z M51.2,52.6l-0.8,2.2C50,52.7,50,52.7,51.2,52.6L51.2,52.6z M53.5,57.9h-2.7
			c0.1-0.4,0.2-0.8,0.3-0.8c0.6-0.2,1.2-0.3,1.9-0.3C53.7,56.7,53.7,57.2,53.5,57.9L53.5,57.9z M51.5,56.2c0.2-1.3,0.6-2.5,1.3-3.6
			c0.1-0.1,0.4,0,0.8-0.1c0,0.9,0,1.6,0,2.4C53.6,56.5,53.4,56.7,51.5,56.2L51.5,56.2z M53.6,73.3h-3.8v-3.5c1.1,0,2.2,0.4,3.2,1
			C54,71.3,53.5,72.2,53.6,73.3L53.6,73.3z M51.6,73.8c0.7,0,1.8-0.5,2.1,1h-4C49.8,73.1,51,73.7,51.6,73.8L51.6,73.8z M56.4,57.9
			l-2,0.1c0-0.4,0-0.8-0.1-1.1C55.3,56.6,56.1,56.5,56.4,57.9L56.4,57.9z M54.5,54.2l1.2,2C54.3,56.2,54.3,56.2,54.5,54.2L54.5,54.2
			z M56.7,58.5v6.2h-2.3v-5.9L56.7,58.5z M56.4,73.3h-2.1v-1.7C56.3,71.7,56.5,71.8,56.4,73.3z M54.7,69.9c1.6-0.4,1.6-0.4,1.8,0.7
			C55.8,70.3,55.3,70.1,54.7,69.9z M54.6,75c-0.2-1.4-0.2-1.4,1.9-1.2C56.5,75.6,55.2,74.4,54.6,75z M54.4,69v-1.6l2.2-0.1V69H54.4z
			 M54.4,67v-1.9c0.8,0,1.6-0.4,2.2,0.3c0.1,0.2,0.2,0.8,0.1,0.8C56,66.5,55.3,66.7,54.4,67L54.4,67z M56.6,55
			c-0.4-0.8-0.9-1.6-1.4-2.5l1.7-0.1v2.5L56.6,55z M54.2,50.5l2.5-0.3c0.1,0.5,0.1,1,0.2,1.6C55,52.1,55,52.1,54.2,50.5L54.2,50.5z
			 M54.4,49.9v-1.7h2.4c0,0.4,0,0.8,0.1,1.3L54.4,49.9z M56.8,47.7h-2.3c0.1-1.3,0.6-2.5,1.3-3.6c0.1-0.2,0.6-0.2,1.1-0.2L56.8,47.7
			z M55.2,38.8c-0.2,0-0.5-0.2-0.7-0.4c0.2-0.3,0.3-0.5,0.6-0.9c0.2,0.3,0.5,0.6,0.6,0.9C55.8,38.4,55.4,38.8,55.2,38.8z M55.1,30.8
			c-0.8-1.4-0.2-2.7-0.4-4C55.9,27.4,55.9,28.2,55.1,30.8L55.1,30.8z M53.5,22.9c0.8-0.7,1.4-0.3,2.3-0.4c0,0.5,0,0.8,0.1,1.5
			L53.5,22.9z M53.5,26.5c-0.5-0.7-0.3-1.3-0.3-2.2C54,25.7,54,25.7,53.5,26.5L53.5,26.5z M53.4,26.5c1,1.3,0.6,2.3,0.5,3.5
			C52.7,29,53.3,27.9,53.4,26.5L53.4,26.5z M52.6,47.9L50.5,44h3C53.7,45.5,53.7,45.5,52.6,47.9L52.6,47.9z M51.9,49.6
			c-0.6-0.1-1.2-0.1-1.5-0.3s-0.1-0.8-0.1-1.3C51.3,48.5,51.3,48.5,51.9,49.6L51.9,49.6z M51.7,50.4c-0.2,0.9-0.2,1.7-1.2,1.5
			c-0.3-0.1-0.4-0.9-0.7-1.6L51.7,50.4z M49.9,65.6c0.4-0.3,0.9-0.5,1.4-0.6c1.9-0.2,2.2,0.1,2.2,1.8L50,66.5
			C50,66.1,49.8,65.7,49.9,65.6z M53.5,67.5v1.6c-1.5,0-2.8-0.6-3.9-1.6C50.9,67.2,52.2,67.2,53.5,67.5z M49.7,84.2h0.3
			c0.8,3.4,1.6,6.9,2.5,10.5h-3C49.5,91.1,49.6,87.6,49.7,84.2z M52.1,102.8v2l-1.2-0.4L52.1,102.8z M49.5,101.4v-2.1H52
			C51.8,101.2,51.4,101.5,49.5,101.4z M52.2,107.5h-2.7C49.9,106,50.4,106,52.2,107.5z M49.5,99v-3.4h2.8V99H49.5z M50.7,102.4
			l-1.1,0.8c-0.1-0.2-0.3-0.4-0.3-0.5C49.5,102,50,102.2,50.7,102.4L50.7,102.4z M54,112.1c-0.4,1.3-0.8,2.4-1.1,3.6
			s-0.8,2.1-1.2,3.3c-1.1-0.9-1.3-2.2-2.1-3.2c-0.7-1.1-0.9-2.5-0.4-3.7H54z M61.7,151.7c0.4,1.6-0.6,2.6-1.3,3.7
			c-1.1,1.7-2.1,3.5-3.2,5.2c-0.3,0.6-0.7,1.1-1.1,1.7c-1.7-0.6-3.3-1.1-4.9-1.6c-0.9-0.3-0.9-1.1-1-1.7c-0.9-3.5-1.7-7-2.5-10.5
			c-0.5-2.3-1-4.7-1.4-6.8c0.6-0.6,1.2-1,1.3-1.4s-0.4-1-0.9-1.8c1-5.1,3.3-10.3,5.1-15.9c0.3,0.3,0.5,0.6,0.8,1
			c3.1,5.6,6.2,11.3,9.3,16.9c0.4,0.8,0.3,1.8,0.6,2.6c1.2,2.7,0.5,5.3-0.4,7.9C61.8,151.1,61.6,151.5,61.7,151.7L61.7,151.7z
			 M54.8,246.1c-0.3,0.9-0.5,1.5-0.9,2.5C53.6,246.7,53.6,246.7,54.8,246.1L54.8,246.1z M54,245.4v-6h2.8c-0.6,2.1-1.1,4-1.7,6.1
			L54,245.4z M51.5,245c-0.9-2-0.5-3.6,1.4-5.1v5.4C52.2,245.5,51.8,245.7,51.5,245L51.5,245z M52.4,248.8c-0.2-1.1-0.4-1.8-0.6-2.7
			C53,246.7,53,246.9,52.4,248.8L52.4,248.8z M51.2,252l-1.7-0.3c-0.3-2.6-0.1-4.6,0.6-5.5C50.7,248,51.6,249.8,51.2,252z M51,239.4
			l-0.6,1C49.9,239.5,50,239.2,51,239.4z M52.5,237.1c-0.6,1.6-0.8,1.6-2.8,1.3c-1.2-4.7-2.4-9.3-3.4-14c-0.3-1.6,0-3.3,0.1-5h6.9
			c0,2.2,0,4.3,0,6.4c0,2.6,0,5.1-0.2,7.7C53.1,234.6,52.9,235.9,52.5,237.1L52.5,237.1z M48.4,246.6c0.2,1.6,0.3,3.3,0.1,4.9
			l-2.7-0.6L48.4,246.6z M45.7,247.8v-1.7l1.3,0.1c-0.4,0.7-0.7,1.2-1,1.8L45.7,247.8z M48.2,244.3c-0.6,1-1.2,1.2-2.4,0.8
			c0-2-0.3-4,0.4-6.1l2.3,0.2C48.9,241.1,49.2,242.7,48.2,244.3L48.2,244.3z M46.5,230.6c0.6,2.5,1.3,5,2,7.8l-2.3,0.1
			C45.9,235.9,46.1,233.2,46.5,230.6L46.5,230.6z M46.9,192.9l2.6,0.2c-0.7,2.3-1.5,4.6-2.5,6.8C46.5,197.5,47,195.3,46.9,192.9
			L46.9,192.9z M50.1,167.6v-1.1C50.6,167,50.6,167,50.1,167.6L50.1,167.6z M50.1,171.8c-0.2-1-0.2-2.1,0.1-3.1
			C50.5,169.7,50.9,170.8,50.1,171.8L50.1,171.8z M49,165.7v-4.3l0.4-0.1c0.3,1.4,0.7,2.8,1.1,4.4L49,165.7z M48.7,172.8V168
			C49.4,169.5,49.3,171.3,48.7,172.8L48.7,172.8z M50.3,184.6v6.6l-0.5,0.1c-0.9-2.1-2.8-3.9-2.2-6.6H50.3z M50,201.1
			c-0.5,0-0.8,0-1.1,0c-0.2,0-0.5-0.1-0.7-0.1c0.5-1.6,1-3.2,1.5-4.8C50.6,197.8,50,199.4,50,201.1z M47.3,169.2V168
			C47.7,168.6,47.7,168.6,47.3,169.2z M47.4,170.3v1.4h-0.1L47.4,170.3L47.4,170.3z M48.9,192.4l-1.9-0.2c-0.1-1-0.1-1.9-0.2-2.8
			l0.4-0.1C47.8,190.3,48.3,191.3,48.9,192.4z M48,201.6l1.9,0.3v8.2l-3.2-0.3C46.1,206.8,46.9,204.2,48,201.6z M49.8,210.6v8.3
			l-3.3-0.2v-8.3L49.8,210.6z M50.6,218.8v-8.1l2.9-0.3v8.4H50.6z M50.6,210v-8.2l3-0.4v8.3L50.6,210z M50.8,201.2v-4.6l0.3-0.1
			l2.3,4.4L50.8,201.2z M52.2,195.8c-0.5-0.8-0.9-1.5-1.5-2.6l3-0.3v5.3C52.8,197.5,52.7,196.5,52.2,195.8L52.2,195.8z M51.2,175.1
			c-0.2-1.1-0.4-2,0.6-3.1l0.8,3L51.2,175.1z M52.3,184.7c-0.4,1.1-0.7,2.2-1.1,3.3H51c0-0.9-0.2-1.8-0.1-2.7
			C50.9,184.4,51.4,184.4,52.3,184.7L52.3,184.7z M52.4,167c-0.8-1.7-1.4-3.5-1.6-5.4l2,0.6C53.1,163.8,52.9,165.5,52.4,167z
			 M51,192.5c0.9-2.8,1.8-5.3,2.6-7.8l0.3,0.1v7.4L51,192.5z M54.2,170v4.8C53.4,173.3,53.4,171.5,54.2,170z M53.8,165.2v-2.5
			l1.7,0.5l-1.3,2.1L53.8,165.2z M49.2,23.4c-0.3,0-0.5,0.1-0.8,0.1s-0.6,0-1,0v-2.4C49.3,21.7,49.3,21.7,49.2,23.4z M48.3,48.2
			c-0.7,0.4-0.6,1.2,0.2,1.6s0.7,0.7,0.6,1.3c-0.1,1.3,0,2.6-0.1,4c0,0.5-0.2,0.9-0.4,1.3c-0.9,1.2-0.9,1.2,0.5,2.1
			c-0.1,1.2-0.7,2.3-1.6,3.2v-17c1.2-0.2,1.7,0,1.7,0.9S49.5,47.5,48.3,48.2z M48.9,63.5c0,0.4-0.1,0.8-0.1,1.2h-0.3
			c0.1-0.4,0.1-0.8,0.2-1.2L48.9,63.5z M48.7,69.2v3h-0.3c-0.1-1-0.1-2-0.2-3H48.7z M50.9,120.7c-0.5,1.7-1,3.4-1.5,5.1
			c-0.7,2.4-1.5,4.7-2.2,7c-0.2,0.6-0.5,1.2-0.8,1.7c-0.8-1.6-0.7-14.2,0-19.6c0.6-0.4,1.4-0.2,1.8,0.5c0,0.1,0.1,0.1,0.1,0.2
			l0.1,0.2L50.9,120.7z M46.2,147.7c1,4,1.9,8,2.8,12l-1.1,0.3v5.5l-0.9-0.8c-0.8-0.1-0.5,1.5-1.7,0.7c-0.2-5.8,0.4-11.7,0.3-17.7
			L46.2,147.7z M46.4,166.6c0,1.7,0,3.5,0,5.3c0,0.8-0.5,0.8-1.3,0.6c-0.1-0.5-0.1-1-0.1-1.5c0-1.3,0.2-2.5,0.2-3.8
			C45.3,166.5,45.6,166.3,46.4,166.6z M45.1,173.8c0.1-0.2,0.3-0.4,0.6-0.4c0.3,0,0.5,0.2,0.6,0.5c0,0.4,0,0.8-0.1,1.3
			C45,175.1,45,174.4,45.1,173.8z M46,187.2c-0.2,1.7,0.8,3.5-1.3,4.7c1,0.4,1.5,1.5,1.2,2.5c-0.1,1-0.1,1.9,0,2.9
			c0,1.2,0.1,2.4-1,3.2c1.6,2.4,0.8,4.6-0.4,7.2c-0.1-0.4-0.2-0.8-0.3-1.2c0.1-6,0.3-12.1,0.4-18.1C44.7,187.5,44.7,186.8,46,187.2
			L46,187.2z M45.3,217.7c-0.7-0.6-1.1-1.6-1.1-2.6c0-0.7,0.1-1.5,0.3-2.2c0.2-0.8,0.4-1.6,0.7-2.5l0.4,0.1
			C45.7,212.9,45.6,215.3,45.3,217.7L45.3,217.7z M45.5,219.9L45,220v-1h0.3L45.5,219.9z M45.3,226.2c0,3.9-0.2,7.9-0.3,12h-1.5
			c0.1-5.6,0.3-11.2,0.4-16.7C44.8,222.9,45.3,224.6,45.3,226.2L45.3,226.2z M43.3,246.9c0-0.5,0.2-1,0.8-0.9s0.9,0.5,0.8,1.1
			c-0.1,1.1-0.2,2.2-0.3,3.5l-1.3-0.5C43.3,248.9,43.3,247.9,43.3,246.9L43.3,246.9z M44.9,244.6c-0.1,0.4-0.4,0.6-0.8,0.7
			c-0.4-0.1-0.6-0.4-0.8-0.7c0-1.8,0.2-3.5,0.3-5.4h1.3C44.9,241.1,44.9,242.8,44.9,244.6L44.9,244.6z M43.3,170v-2.5l0.1-0.1
			L43.3,170L43.3,170z M43.5,159.5v5.5C42.8,163.2,42.8,161.3,43.5,159.5L43.5,159.5z M45.6,259c-0.2-0.9-0.3-1.8-0.3-2.7h5.8
			l-2.7,8.2C47.4,262.4,46.4,260.7,45.6,259z M49.7,264.7c0.7-2,1.3-4,2-6c0.2-0.4,0.4-0.9,0.5-1.3c1.1,0,1.1,0.9,1.3,1.5
			c0.8,3.1,1.5,6.3,2.3,9.4c1.3,5.4,2.7,10.8,4,16.2c0.1,0.3,0.1,0.6,0.1,0.9l-0.4,0.1c-0.7-1.2-1.4-2.5-2.1-3.7
			c-2.6-4.8-5.1-9.7-7.7-14.5C49.4,266.5,49.4,265.5,49.7,264.7L49.7,264.7z M55.7,246.8c0.1-0.3,0.8-0.4,1.4-0.6
			c0.2,2.3,0.3,4.3-0.8,6.3h-2.2C54.4,250.5,54.9,248.6,55.7,246.8L55.7,246.8z M56,245.7l1.3-3.9c0.8,1.3-1,2.4,0.3,3.6L56,245.7z
			 M59.8,225.4c0,0.2-0.2,0.3-0.3,0.5c-1.6,2.7-3.3,5.3-4.9,7.9c-0.2,0.2-0.4,0.4-0.6,0.6c0.1-5.2,0.3-10,0.4-14.9l1.1-0.8
			c0-0.2,0-0.4-0.1-0.4c-0.8-0.4-1.2-1.2-1-2.1c0.1-1.4,0.1-2.8,0.1-4.1c0-1-0.2-2,1.5-2.3c-1.1-0.6-1.7-1.9-1.3-3.2
			c0.1-0.9,0.1-1.9,0-2.8l0.4-0.1c0.8,1.4,1.5,3,2.4,4.3c2.3,3.2,2.9,7,4.2,10.6c0.1,0.4,0.1,0.8,0,1.2
			C61,221.6,59.8,223.3,59.8,225.4L59.8,225.4z M61,212.1c-1.8-3.3-3.5-6.7-5.4-10c-0.5-0.8,0.2-1.2,0.1-1.9c-1.1-0.3-1.1-1.2-1-2.1
			c0.1-1.1,0.1-2.3,0.1-3.4s-0.1-2.1,1.3-2.7c-2.4-1.8-0.7-4-1.1-6l0.4-0.1c2.2,8.9,4.4,17.7,6.6,26.6l-0.3,0.2
			C61.5,212.5,61.2,212.4,61,212.1z M55.1,170.2l1.6,0.2c0.6,1.4-0.2,2.4-0.8,3.5C54.6,172.9,55.5,171.5,55.1,170.2z M56.5,175.9
			c0.2-0.8,0.5-1.5,0.8-2.3l0.2,0.1v3.1C56.7,177,56.4,176.7,56.5,175.9z M57.3,170l-2-0.7c0-1.7,0.4-3.3,1-4.8
			c0.1-0.3,0.6-0.5,0.9-0.7c0.2,0.3,0.5,0.7,0.5,1c0.1,1.3,0,2.6,0,3.9C57.6,169.1,57.4,169.6,57.3,170L57.3,170z M57.3,162.7
			l5.4-9.1l0.3,0.2c-1.3,3.8-2.7,7.6-4,11.4h-0.3c-0.1-0.6-0.1-1.2-0.2-1.8L57.3,162.7z M62.7,139.8c-3.2-5.9-6.4-11.8-9.7-17.7
			c-0.5-0.8-0.6-1.8-0.2-2.7c0.8-2,1.4-4.1,2.1-6.1c0.2-0.6,0.4-1.3,1.3-1.2s0.9,0.7,1,1.3c2.1,8.6,4.2,17.1,6.3,25.6
			c0.2,0.6,0.3,1.3,0.4,1.9l-0.4,0.2C63.2,140.7,62.9,140.2,62.7,139.8L62.7,139.8z M60.3,99.1c0-0.5-0.1-1-0.1-1.8
			C61.1,98.2,60.3,98.6,60.3,99.1L60.3,99.1L60.3,99.1c0.1,0.8,0.2,1.5,0.3,2.4l-1.7-0.1C59.5,100.6,59.2,99.5,60.3,99.1L60.3,99.1z
			 M57.7,101.7c-0.5-2-0.6-4.1-0.2-6.2l2.2,0.2C58.8,97.7,58.7,99.7,57.7,101.7z M58.7,102.4h1.9c-0.3,1.8-0.5,3.4-0.7,5.3l-2.3-0.8
			C57.4,105.2,58.2,103.9,58.7,102.4z M57.7,90.3c-0.5-1.1-0.6-7.9,0-13.9h7C63.4,81.1,61.5,84.9,57.7,90.3L57.7,90.3z M57.8,71.1
			v-3.7c0.2-0.1,0.4-0.2,0.5-0.3c1.4-0.8,1.4-1.1,0.1-2.1c-0.4-0.2-0.6-0.6-0.7-1c-0.1-1.1,0-2.2,0-3.3c3.1,3.8,5.4,8.2,6.6,12.9
			L57.8,71.1z M63,74.6c0,0.1,0,0.2,0,0.3h-3.7c0-0.6-0.1-1-0.2-1.8L63,74.6z M57.8,72.7l0.9,0.4l-0.2,0.4L57.6,73L57.8,72.7z
			 M58.7,58.7c0.3-0.7,0.8-1.3,0.7-1.7s-0.9-0.7-1.4-1v-5.6c0.1-0.1,0.3-0.2,0.4-0.3c1.7-0.8,1.7-1,0.2-2.2c-0.3-0.3-0.5-0.6-0.6-1
			C58,45.5,58,44,58,42.4c0.9,1.2,7.1,25.4,7.1,27.8C62.6,66.2,60.7,62.4,58.7,58.7L58.7,58.7z M58.3,30.1c-0.1-1.2,0-2.5,0-3.5
			c0.6-1,0.3,1.2,0.9-0.1c0.5,0.1,1,0.2,1.5,0.4v5.7c-0.8-0.4-0.8-0.4-1.1-2.2C58.6,31,58.3,31,58.3,30.1L58.3,30.1z M57.1,27.2v2.9
			C56.3,29.2,56.9,28.3,57.1,27.2L57.1,27.2z M55.9,43.2c0.2-0.4,0.4-0.8,0.7-1.3C57.2,43.3,57.2,43.3,55.9,43.2L55.9,43.2z
			 M55.3,26.4c-0.2-0.1-0.4-0.3-0.5-0.5c0-0.1,0.3-0.5,0.3-0.5s0.4,0.2,1.1,0.7C55.7,26.3,55.5,26.5,55.3,26.4z M51.9,16.4
			c1.3,0.2,2.6,0.7,3.7,1.5c0.3,0.1,0.4,0.8,0.4,1.2c0,1-0.2,1.9-0.3,3h-3.8V16.4z M52,24.4c0.7,0.8,0.5,1.4-0.2,2.4
			C51.5,25.7,51.3,25,52,24.4L52,24.4z M52.1,26.7v2.6C51.2,28.2,51.2,27.9,52.1,26.7L52.1,26.7z M53.5,42.2v1.2h-2.8
			C50.8,41.9,50.9,41.9,53.5,42.2L53.5,42.2z M47.5,14.3l3.2,1.4v6.1c-1-0.3-1.9-0.8-2.8-1.2c-0.4-0.3-0.6-0.8-0.6-1.3
			C47.3,17.5,47.4,16,47.5,14.3L47.5,14.3z M47.2,24.5h2V28l-2-0.9V24.5z M47.5,76.2c0.3,0.3,0.6,0.5,0.7,0.8
			c0.3,0.8,0.4,1.6,0.4,2.5c0,4.7,0,9.4-0.1,14c0,0.4-0.1,0.8-0.1,1.2h-1.8C46.8,88.4,46.7,82.3,47.5,76.2L47.5,76.2z M46.6,95.6
			l1.8-0.1v6l-1.8-0.1V95.6z M46.6,102.3h1.7v1.3l-1.8-1C46.6,102.5,46.6,102.4,46.6,102.3L46.6,102.3z M46.4,105.1l1.8,0.6
			c-0.1,1.2-0.7,1.6-1.9,1.4C46.4,106.4,46.4,105.9,46.4,105.1L46.4,105.1z M40.4,11.1c1.8,0.7,3.6,1.5,5.3,2.4
			c0.3,0.3,0.5,0.7,0.5,1.2c0,1.5-0.1,3.1-0.2,4.9c-1.7-0.8-3.2-1.5-4.8-2.1c-0.6-0.2-0.9-0.8-0.8-1.4C40.5,14.5,40.5,13,40.4,11.1
			L40.4,11.1z M40.4,18.1c1.9,0.6,3.8,1.4,5.6,2.3v3c-1.8,0.1-3.6,0-5.6,0L40.4,18.1z M46,24.4c-0.1,0.8-0.1,1.3-0.2,1.9
			c-2.4-0.5-2.5-0.6-2.6-1.9H46z M44.4,42.1c0.5,3-1.7,4.5-2.8,6.7c-1-2.1-1.6-4.4-1.8-6.7H44.4z M39.7,48.5c0.5,1.1,1.3,2.2,0,3.5
			C39.5,50.9,39.5,49.7,39.7,48.5z M44.2,67.7c-0.4,0.7-1.3,1.1-2.1,1c-1,0.1-2,0.4-3,0.7c0-0.5-0.1-0.9-0.1-1.3
			c0.1-3.6,0.3-7.2,0.2-10.8c0.1-1.7,0.7-3.3,1.9-4.5c1.2,3.5,3.1,6.6,3.2,10.5l1.2-1c-0.6-2-1.1-3.7-1.7-5.5
			c-0.5-1.5-0.9-3.1-1.4-4.6c-0.3-0.8-0.2-1.7,0.3-2.4c0.8-1.2,1.4-2.5,2.2-3.7c0.9-1.2,1.3-2.7,1.2-4.2c-0.1-0.7,0-1.4,0.1-2.2
			c0,3,0,6.1,0,9.1C46.2,52.9,46,57,46,61.1c-0.2,8.6-0.3,17.2-0.4,25.8c-0.2,6.8-0.4,13.6-0.6,20.4c-0.1,5.1-0.1,10.1-0.2,15.1
			c-0.1,4.7-0.2,9.4-0.3,14.1c0,0.7,0,1.3-0.1,2c-0.1,0.4-0.5,0.7-0.7,1l-0.5-0.3c0.1-1.5-1-3.2,0.8-4.4c-0.8-1.7-1.6-3.3-0.1-4.9
			c-0.4-0.3-1.3-0.6-0.1-1.1c-1-2.1-0.4-4.3-0.5-6.4c0-0.4,0.5-0.8,0.7-1.2c-0.1-0.3-1.4-0.5-0.1-1c-0.7-1.3-0.7-2.8,0-4.1
			c0.4-0.7,0.6-1.4,0.6-2.2c0.1-2,0.1-4,0-5.9c-0.1-0.6-0.2-1.3-0.3-1.9c0-0.4,0-0.8,0-1.2l-1.9,0.3c0.3-1.3,1.6-0.9,2.2-1.7l-0.9-1
			l1.1-0.2c-1.5-1.3-1-2.6-1-3.8s-0.8-2.6,0.9-3.3l-1.3-1.6C42.8,94.4,42,94.9,41,95l1.3,0.6c0,0.8-0.1,1.7-0.1,2.7l-2.1,0.1
			c0-0.6,0-1,0-1.4c0-0.2,0.2-0.5,0.2-0.7C40,95.1,40,94,40,92.9c1.4-5.2,2.8-10.4,4.2-15.7v-0.2c1.1-1,0.8-2.4,0.9-3.7
			c-1.1,0.1-1.1,0.1-1.4,1.4H39c-0.1-0.3-0.1-0.6-0.1-0.8c-0.1-2.7-0.1-2.8,2.4-3.8c0.9-0.4,1.8-0.7,2.7-1.1c0.5-0.3,1-0.7,1.5-1.1
			C45,67.4,44.6,67.1,44.2,67.7z M38.8,76.3h4.7c-1.6,5.7-3.2,11.4-4.9,17.1h-0.3C38.4,87.7,38.6,82.1,38.8,76.3z M38.7,98.7
			c1.6,1.6,0.3,3.4,0.8,5.2h-1.4C38.3,102.2,37.7,100.4,38.7,98.7z M38,109.3c0.3,0,0.7,0,1,0l0.1,0.4c-0.4,0.5-0.8,0.3-1.2,0
			L38,109.3z M39.4,112.1c-0.6,0.9-1,0.6-1.4,0.4c0-0.1,0-0.3,0-0.4H39.4z M39.1,113.5v3.8h-0.2c-0.3-1.2-0.7-2.4-1.1-3.9
			L39.1,113.5z M37.8,118.6c0.2,0.7,0.4,1,0.5,1.4s0.2,0.9,0.4,1.6C37.6,121.1,37.6,121.1,37.8,118.6L37.8,118.6z M38.8,122.2
			l-1,1.6C37.3,122.2,37.3,122.2,38.8,122.2L38.8,122.2z M39,124.8v5.2h-1.5C36.9,128.9,37.6,126.2,39,124.8L39,124.8z M37.2,130.8
			h1.6v7.7c-1.6,0.1-1.6,0.1-1.6-1.3L37.2,130.8z M37.1,139.2l1.7-0.1v7.6l-1.7,0.1V139.2z M39.5,147.6c1-0.2,2-0.3,3.1-0.4
			c-1.1,3.6-2.2,6.9-3.2,10.2l-2.5-0.8v-9C37.8,147,38.5,147.9,39.5,147.6L39.5,147.6z M36.1,184.3h5.1c0.4,1.3,0.2,2.7-0.6,3.9
			c-1,1.3-1.8,2.8-2.8,4.6C37.2,189.7,35.8,187.2,36.1,184.3z M36,195.4v-3.5C36.4,193,37.4,194.1,36,195.4z M37.5,164
			c-0.8,0-1-0.2-1-0.9c0.1-1.8,0.1-3.5,0.1-5.5l2.2,0.6C38.9,160.4,37.8,162.1,37.5,164z M38.4,166.1c0.7,0.8,0.9,2.5,0.4,4.3
			C37.5,169,37.5,169,38.4,166.1L38.4,166.1z M41.2,172.1c-1.1-0.3-1.6-0.8-1.5-1.9s0.1-1.9,0.2-2.8c0.1-1.2,0.1-1.2,1.6-1.2
			C41.5,168.2,41.4,170.2,41.2,172.1L41.2,172.1z M38.7,164.5c0.5-2,1-3.8,1.5-5.6c0.9,0,1.4,0.1,1.4,0.9c0,1.8,0,3.6,0,5.7
			L38.7,164.5z M41.6,154.5c0.1,0.8,0.1,1.3,0.1,1.7s0,1,0,1.8C40.4,157.6,40.4,157.5,41.6,154.5L41.6,154.5z M36.8,25.4
			c0.2,0.7,0.4,1.4-0.5,2.1C35.6,26.2,35.7,26.1,36.8,25.4z M34.1,25.3c0.3-1.7-0.4-3,0.4-4.4c0.8,0.1,0.8,0.7,0.7,1.2
			C35.1,23.1,35.6,24.2,34.1,25.3z M35,14.8h0.2V16h-0.3C34.9,15.6,34.9,15.2,35,14.8z M34.4,20.2c0.1-1,0.2-1.8,0.3-2.6
			C35.5,19.3,35.5,19.4,34.4,20.2L34.4,20.2z M28.2,25.9c1.3-0.7,2.7-1.3,4-1.9l0.2-3.1l0,0c0-1,0.1-2,0.1-3c0-0.6-0.1-1.3-0.1-2
			c0-0.7,0.2-1.5,0.2-2.3c0-0.7-0.1-1.5-0.2-2.2l2.1-0.9c0,1.1,0.2,2-0.5,2.7c-0.1,0.1-0.3,0.4-0.2,0.4c1.2,2.1-0.6,4.3,0.2,6.4
			l-1.6,0.7l0,0l1.3-0.2c0.3,1.9-0.4,3.5-0.6,5.2l-5.8,2.5C27,26.5,27,26.5,28.2,25.9L28.2,25.9z M26.2,308.2
			c-0.2,0.1-0.8,0.1-0.8,0c-0.5-1.2-1.6-0.5-2.6-0.9c1.3-0.1,2.3-0.3,3.3-0.4c0.2,0,0.6,0.4,0.6,0.5C26.7,307.8,26.5,308,26.2,308.2
			L26.2,308.2z M26.5,309v6.3c-1.6,0.2-1.6,0.1-1.5-1c0.1-1.4,0.1-2.9,0.2-4.3C25.1,309,25.5,308.7,26.5,309L26.5,309z M23.8,314.6
			h-1.2v-0.1h1.2L23.8,314.6z M25.9,174.7c0.8-0.3,1.7-0.5,2.6-0.8l0.7,1.6l-4.3,1.2C24.7,175.1,24.7,175.1,25.9,174.7z M29,172.6
			l-6,1.6v-2l5-1.5c0.7-1.3-0.4-3,1.1-4.4C29.6,168.6,29.1,170.6,29,172.6z M28.6,166.1c0.1-0.8-0.8-1.8,0.9-2.3
			C29.4,164.8,30,165.7,28.6,166.1L28.6,166.1z M29.5,163.4c0,0.1-0.4,0.1-0.8,0.3c-0.5-3.1-0.4-3.8,1-4.3
			C30,160.7,29.9,162.1,29.5,163.4L29.5,163.4z M28.7,158.8c-0.1-0.3-0.2-0.6-0.3-1.1l-2.4,0.5l-0.1-0.3l3.9-1.1
			C30.1,158.5,30.1,158.6,28.7,158.8L28.7,158.8z M33.5,28.4l-4.8,2.3c0.5-2.7,2.8-2.3,4.1-3.5L33.5,28.4z M22.6,32l3-1.4l0.7,1.2
			l-4.3,2C21.6,32.9,21.8,32.3,22.6,32z M20.1,73.1c0.1-5.3,0.3-10.7,0.4-16c0.2-6.6,0.4-13.1,0.7-19.6c0.1-1.5,0.6-2,1.9-2
			c1.2,0,1.6,0.3,1.7,1.6c0.1,2.1,0.3,4.2,0.2,6.3c-0.1,5.8-0.4,11.5-0.6,17.3c-0.1,2.2-0.3,4.3-0.3,6.5c0,1.1,0.2,2.3,0.4,3.4
			c0.3,3.2,0.2,6.5-0.2,9.7c-0.3,3.2-0.5,6.5-0.6,9.7c-0.3,9.7-0.6,19.3-0.8,29c-0.1,4.8-0.2,9.6-0.3,14.4
			c-0.2,5.1-0.4,10.2-0.6,15.3c-0.1,3.3-0.3,6.6-0.4,9.8l-2.1,1.2l2.9-0.5l-1.3,2c-1.2-0.3-2.6,0.9-3.8-0.5l2.4-1.1l-1.8,0.1
			c0-0.5,0-0.9,0-1.3c0.1-2.5,0.1-5,0.2-7.6c0.1-5.5,0.2-10.9,0.4-16.4c0.2-7.2,0.5-14.3,0.7-21.4c0.1-4.9,0.3-9.8,0.4-14.8
			L20.1,73.1z M18,161.8c0.5,2.1,0.4,5.4-0.2,6.5c-0.2-0.3-0.4-0.6-0.4-0.8C17.9,165.8,17.1,163.8,18,161.8z M17.4,172.5
			c0-1.2,0.1-2.3,0.2-3.5h0.6v3.8h0.4v-4.3c0.8,0.1,1.3,0.1,1.9,0.2c0.6,0.1,1,0.6,0.9,1.2c-0.2,1,0,2,0.5,2.9c0.3,0.3,0,1,0,1.7
			l-5.8,1.5c-0.3-0.9-0.4-1.7,0.7-2.2C17.4,173.6,17.4,173.1,17.4,172.5L17.4,172.5z M18.7,162.5c0.1-0.4,0.2-0.8,0.4-1.2l2.3,0.6
			c0.1,1.6,0.3,3,0.3,4.4c0.1,0.9-0.7,1.7-1.6,1.8c-0.3,0-0.5,0-0.8-0.1c-0.3-0.1-0.7-0.5-0.6-0.7C19,165.8,18.5,164.2,18.7,162.5
			L18.7,162.5z M17.7,176.9l3.9-1.1c0.1,0.6,0.3,1.1,0.4,1.8l-4.4,1.2C17.6,178.1,17.7,177.6,17.7,176.9L17.7,176.9z M16.5,18.4
			L15.7,21l-2.4,0.1C13.6,19.1,15.3,19.2,16.5,18.4z M15.7,26.5c0.3,0.7-0.2,1.3-1,1.4c-0.5,0-0.9,0-1.4,0v-6.2l2.5,0.3
			c0,0.7,0,1.5,0,2.2C15.6,25,15.5,25.8,15.7,26.5z M6.6,27.4c0.1-1.1,0.2-2.1,0.2-3.2h2V30H7.2C7.4,29,6.4,28.4,6.6,27.4z
			 M8.6,39.9c-0.6-0.9-0.4-1.4,0.3-1.8c1-0.5,2-0.9,3-1.4l0.9,1.3L8.6,39.9z M12.3,28.4c-0.3,0.9,0.2,2.1,0.2,3.1
			c0,4.5,0.5,3.6-3.6,5.5c-0.5,0.3-1.1,0.5-1.7,0.7c-0.1,0-0.3,0-0.4,0c-0.5-2.2-0.5-4.4-0.1-6.7h2.1C8.9,32.3,9,33.5,9,34.7h0.4
			c0.5-1.1,0-2.3,0.4-3.5l1.6-0.5c-0.2-1-1.1-0.3-1.6-1v-5.4l1.9-0.6v-0.4l-4.3-0.2c1.7-1.3,3.5-2.3,5.5-3.1
			C12.5,23,13.2,25.7,12.3,28.4z M13.5,34.8c-0.6-2.3-1-4.3-0.2-6.5l2,0.4l0.5,2.8l3.1-1.2c0.4,1.7,0.4,1.8-0.8,2.3L13.5,34.8z
			 M14.9,37c0.4-2.7,2.7-2.2,3.9-3.4l0.7,1.4L14.9,37z M15,161l0.1,0.3l-1.4,0.5l-0.1-0.3L15,161z M11.5,162.1
			c0,0.5-0.1,0.9-0.1,1.4H9.2C9.6,162.4,10.5,162.4,11.5,162.1L11.5,162.1z M9.3,164.2c2,0,2.2,0.2,2.2,2.1c0,0.9,0.1,1.8,0.1,2.6
			c0,1.4-0.7,1.8-2.5,1.5c-0.3-0.6,0.9-1,0-1.4C8.9,167.4,9,165.8,9.3,164.2L9.3,164.2z M9,178.1v-6.8c2-0.1,2.4,0.3,2.3,2.1
			c0,0.5-0.1,1.1-0.2,1.9l3.7-0.6c0.3,1.9,0.3,1.9-1.3,2.3C12.2,177.3,10.8,177.6,9,178.1z M10.8,180.7c-0.1-1.8-0.1-1.9,1.1-2.2
			c0.9-0.2,1.8-0.4,2.8-0.6c0.1,0.6,0.2,1,0.4,1.7L10.8,180.7z M9.8,308.7H11v0.1H9.8V308.7z M10.4,315.8v0.2H7.6
			c-0.2,1.1-0.9,1.2-1.9,0.9c0.4-1,1.2-0.9,1.9-0.9L10.4,315.8z M5.5,315.6v-5.1l1.9,0.6c0,1.4,0.1,2.5,0,3.6
			C7.3,315.9,7.1,316,5.5,315.6z M8.3,309c-0.8,0.8-1.5,1.5-2.8,0.8C6.3,308.7,7.3,309,8.3,309z M1,326.3l2.5-0.3l1.2-0.1
			c0,0.8,0.1,1.3,0.2,2c-0.4,0.2-0.9,0.4-1.4,0.4c-0.9,0.1-1.7,0.1-2.6-0.1C1,327.5,1,327,1,326.3z M6.5,342.4
			c-0.2,5-0.3,10.1-0.5,15.2c0,0.3,0,0.6-0.1,1H2.8v-0.1c0-2,0-3.8,0-5.7c0.1-4.6,0.1-9.2,0.3-13.7c0.1-1.7-0.1-3.5,0-5.1
			c0-1.4,0.1-2.8,0.4-4.2v-0.1c-0.7,0-1.4,0.5-1.9-0.4l1.9-0.3c0.5-0.1,0.9-0.1,1.4-0.1c1.6,0,2.1,0.6,2.1,2.2
			C6.8,334.9,6.7,338.7,6.5,342.4L6.5,342.4z M11.6,327.6L7.9,328v-2.1l3.8-0.4L11.6,327.6z M11.7,324.4l-5.8,0.5
			c-0.2-2.5-0.3-4.7-0.5-7.2c1.4,0,1.8,0.5,1.8,1.5s0,2.1,0,3.4l4.5-0.3L11.7,324.4z M16.7,337.1c-0.1,6.8-0.3,13.6-0.4,20.3
			c0,0.6-0.1,1.2-0.1,1.9h-3.4c0.3-10.3,0.5-20.5,0.8-31c0.9,0.1,1.5,0.1,2.2,0.2c1,0.1,1.3,0.7,1.3,1.6
			C16.8,332.4,16.8,334.8,16.7,337.1L16.7,337.1z M14.6,327.5c0.1-0.9,0.1-1.5,0.1-2.2c0.7-0.1,1.2-0.2,1.8-0.2c0.6,0,1.2-0.1,2-0.1
			c0,0.6,0.1,1.3,0.1,2L14.6,327.5z M18.7,323.7l-5.8,0.6c-0.1-0.8-0.5-1.5,0.3-2.2c0.3-0.2,0.3-0.9,0.4-1.3c0-1,0-1.9,0-2.9
			s0.4-1.2,1.4-1v5.4c0.5-0.5,0.9-0.8,1-1c0.1-0.7,0.1-1.4,0.2-2.1s0.2-1.2,0.3-1.8c1.1,1.3,0.3,2.8,0.9,4.2l1.4,0.3L18.7,323.7z
			 M16.5,314.3c0.1-1.3,0.3-2.5,0.6-3.8c0.1,1.6,0.3,3.1,0.4,5l-0.6,0.7l-1.1-0.9c-0.7,0.5-1.4,1.4-2.2,0.6c0.1-1.8,0.2-3.4,0.2-5.1
			c0-0.9,0.4-1.3,1.5-1.1v5.2C16.2,315.2,16.5,315,16.5,314.3L16.5,314.3z M18.6,281.1c-0.1,4.1-0.3,8.2-0.5,12.2s-0.4,8.4-0.5,12.6
			c0.1,0.9-0.4,1.7-1.3,2h1.8c-0.6,1.1-1.8,1.6-3,1.4c-0.7-0.1-1.3,0-1.5-0.9l1.7-0.2v-0.2l-1.3-0.3c0-1.1,0-2.3,0-3.5
			c0.1-2.7,0.3-5.4,0.3-8.1c0.2-5.6,0.3-11.3,0.4-16.9c0.2-8.9,0.5-17.8,0.7-26.6c0.1-5.3,0.3-10.7,0.4-16
			c0.2-7.1,0.4-14.2,0.5-21.3c0.1-2.6,0.1-5.2,0.2-7.8c0.1-5.9,0.2-11.9,0.4-17.8c0.1-2.6,0.2-5.3,0.3-7.9c0.1-1.4,0.2-1.6,1.6-1.5
			c0.6,0.1,1.3,0.2,1.9,0.3c0,6,0,11.8,0,17.6c-0.1,5.6-0.2,11.3-0.4,16.9c-0.1,5.9-0.3,11.8-0.5,17.6c-0.3,8.9-0.6,17.9-0.8,26.8
			C18.9,266.7,18.8,273.9,18.6,281.1L18.6,281.1z M19.8,321.7l4.8-0.6c0.5-1.3,0.2-2.6,0.3-3.9c0.1-1,0.5-1.2,1.5-0.9
			c-0.1,2.2-0.3,4.4-0.4,6.7l-6,0.7C19.9,322.9,19.9,322.4,19.8,321.7L19.8,321.7z M21.8,324.7l3.2-0.4c0.2,0,0.4,0,0.7,0v2
			l-4.1,0.5C21.7,325.9,21.8,325.3,21.8,324.7L21.8,324.7z M27.3,330.2c-0.2,9.1-0.5,18.2-0.8,27.3c0,0.8-0.1,1.5-0.2,2.4h-2.4
			c0.1-4.3,0.3-8.5,0.4-12.7c0-1.9,0-3.7,0-5.6c0-3.6,0.1-7.2,0.1-10.8c0-0.7,0.1-1.3,0.1-2s0.3-1.1,1-1s1.5,0.2,1.6,1.1
			C27.3,329.4,27.3,329.8,27.3,330.2L27.3,330.2z M27,322.7v-5.5h0.2c0.1,1.8,0.3,3.7,0.4,5.5H27z M27.3,312.7l0.1-2.2h0.1v2.2
			L27.3,312.7z M28.9,325.8c-0.1-0.8-0.4-1.6,0.6-2.1C30,325.2,30,325.2,28.9,325.8L28.9,325.8z M30.6,193.2c0,1.5,0,3-0.1,4.5
			c-0.1,4.1-0.3,8.3-0.4,12.4c-0.1,5.3-0.1,10.6-0.2,15.8c-0.1,4.6-0.3,9.1-0.5,13.7c-0.1,2.6-0.2,5.3-0.3,7.9
			c-0.1,4.6,0,9.1-0.1,13.7c-0.1,7.3-0.4,14.5-0.5,21.8c-0.1,5.6-0.2,11.2-0.3,16.7c0,1.6-0.2,3.2-0.3,4.9s-0.3,1.9-2,1.9
			c-0.2,0-0.4,0-0.6-0.1c0-2.4,0-4.7,0-7c0.1-4.9,0.2-9.9,0.3-14.8c0.2-7.1,0.4-14.3,0.6-21.4c0-2,0.1-4,0.1-5.9
			c0.1-6.6,0.2-13.2,0.4-19.8c0.2-7.2,0.4-14.4,0.5-21.6c0.1-4.1,0.1-8.3,0.2-12.4c0.1-4.9,0.2-9.8,0.4-14.8c0.1-3,0.2-6,0.4-9
			c0-1.3,0.3-1.7,1.3-1.8c1.1,0,1.6,0.5,1.6,1.9C30.9,184.2,30.7,188.7,30.6,193.2z M30.9,171.6c0,0.2-0.4,0.4-0.8,0.7
			c-0.2-2-0.6-3.8-0.1-5.6c0.6-0.2,1,0,1,0.6C31.1,168.7,31,170.2,30.9,171.6z M30.1,165.9c0.2-0.9-0.4-1.9,1-2.1
			C31.2,164.6,31.6,165.4,30.1,165.9z M30.2,162.9c0.1-1.1,0.2-2.1,0.3-3.4C31.6,160.7,31.6,162.1,30.2,162.9L30.2,162.9z
			 M30.8,158.5l-0.4-0.1l0.6-2C31.6,157.8,31.6,157.8,30.8,158.5L30.8,158.5z M32.7,174.8c-0.4-0.1-0.8-0.2-0.9-0.3
			c-0.1-0.7-0.2-1.4,0.9-1.9V174.8z M32.7,121.1c-0.2,6.8-0.5,13.7-0.7,20.5c-0.1,4.3-0.3,8.5-0.4,12.8c0,0.4-0.1,0.7-0.1,1.2
			l-2.7,1c0-1.7,0-3,0-4.4c0.1-6.1,0.3-12.3,0.5-18.4c0.2-7.8,0.5-15.6,0.7-23.4c0.1-5.5,0.3-10.9,0.4-16.4c0.2-7.5,0.5-15,0.7-22.5
			c0.1-5.8,0.3-11.7,0.4-17.5c0.2-6.6,0.4-13.2,0.6-19.8c0-0.3,0-0.6,0.1-0.9c0.2-1.2,0.6-1.6,1.6-1.5s1.3,0.4,1.3,1.6
			c0,2.7,0,5.4,0,8.1c-0.1,5.1-0.3,10.2-0.4,15.3c-0.2,8.4-0.4,16.8-0.7,25.2c-0.2,6.3-0.5,12.6-0.6,18.9
			C32.9,107.7,32.9,114.4,32.7,121.1L32.7,121.1z M38.8,256c-0.1,0.9-0.8,0.6-1.2,0.6s-1.1,0.3-1.6-0.6H38.8z M36.2,251.1v-5.6
			c1.3,1.5,2.5,3,2,5.3L36.2,251.1z M38.5,261c-0.8,1.2-1.4,2.4-2.1,3.7l-0.2-0.1v-7h2.8C39.3,258.7,39.1,260,38.5,261z M38.8,263.5
			v2l-1.5,0.1l1.3-2.3L38.8,263.5z M36.3,273l0.1,1.6H36c0-0.5-0.1-1-0.1-1.6L36.3,273z M37.6,277.2c0.4,1.4,0.8,2.8,1,4.2
			c0.1,0.5-0.1,1.4-0.5,1.6c-0.7,0.2-1.4,0.2-2.1,0.1c-0.2,0-0.4-0.4-0.4-0.7c0-2.3,0-4.6,0-7.2C36.7,275.4,37.5,276.2,37.6,277.2
			L37.6,277.2z M38.7,275.2v1.4C38.3,276.6,38.3,275.8,38.7,275.2L38.7,275.2z M38.7,284.1c-0.1,2.6-0.2,5.1-0.3,7.7h-2.8v-7.7H38.7
			z M38.2,292.4c0.8,2.7-0.1,7-2.6,12.5h-2.2c0-0.7,0-1.3,0-1.9s0.1-1.3,0.2-2l2.6-0.2v-0.2l-2.6-0.2c0-1.3,0-2.5,0-3.6
			s-0.1-2.1-0.1-3.2c0-1.2,0.1-1.3,1.4-0.9c0.2,0.1,0.5,0.1,0.6,0C36.3,292.1,37.3,292.6,38.2,292.4L38.2,292.4z M38,307
			c-0.7,0.2-1.3,0-1.2-0.6c0.3-1.5,0.8-2.9,1.5-4.3C38.3,303.7,38.1,305.4,38,307z M38.1,309c0,0.2-0.1,0.3-0.1,0.5l-2.1,0.1
			l0.5-1.7l1.7,0.3C38.1,308.7,38.1,308.9,38.1,309L38.1,309z M35.4,305.5c-0.5,1.3-0.5,1.3-1.9,0.8
			C33.8,305.3,33.8,305.3,35.4,305.5L35.4,305.5z M33.8,284h1.1v7.5c-0.7,0.2-1.3,0.3-1.3-0.4C33.8,288.7,33.8,286.3,33.8,284z
			 M33.9,276.3c-0.1-0.8,0.3-1.1,1.2-0.8c0,2.2,0,4.3,0,6.4c0,0.2,0,0.5-0.1,0.7c-0.1,0.2-0.4,0.5-0.6,0.5s-0.4-0.4-0.5-0.6
			s0-0.2,0-0.4C33.8,280.2,34,278.2,33.9,276.3L33.9,276.3z M34.6,266.7c-0.1,0.3-0.1,0.7-0.2,1h-0.3c0-0.3,0.1-0.7,0.1-1H34.6z
			 M34.6,257.3c1,0.8,1,1.4,0.7,5.7C34.3,261.3,34,259.2,34.6,257.3L34.6,257.3z M35.2,269.4c0,1.7,0,3.1,0,4.4
			c0,0.5-0.1,0.5-1.1,0.8C34.3,273,33.5,271.2,35.2,269.4L35.2,269.4z M35,256.8c-0.1,0-0.4-0.2-0.4-0.4s0.2-0.4,0.3-0.4
			s0.4,0.1,0.7,0.2C35.3,256.5,35.2,256.7,35,256.8z M34.6,251.2v-2c0.8-0.3,0.9,0.1,0.9,0.7S35.8,251.3,34.6,251.2L34.6,251.2z
			 M35.5,248.4c-0.4-0.2-0.8-0.3-0.8-0.4c-0.3-1.6-0.1-3.3,0.8-4.8V248.4z M33.4,307.5l1.7,0.1c-0.6,1.3-0.5,2.5-1.7,3.6V307.5z
			 M35.1,312.2c0.4,1,0.4,1-0.3,1.7C34.8,313.3,34.9,312.9,35.1,312.2L35.1,312.2z M35.1,316.4c-0.1-0.3-0.2-0.5-0.3-0.7
			c0-0.2-0.1-0.4-0.1-0.6l0.3-0.1l0.5,1L35.1,316.4z M37,310c0.6,0,1.3-0.1,1.1,1h-2.4C35.6,309.8,36.3,310,37,310z M38,312.2v2.1
			l-1.7-0.4C36.4,312.1,36.4,312.1,38,312.2L38,312.2z M36.4,355.2c-0.2-0.6-0.3-1.2-0.5-1.8l0.2,0c0.2,0.6,0.3,1.2,0.5,1.8
			L36.4,355.2z M36.3,318v-2.6c2-0.2,1.8,0.6,1.5,2.5c-0.1,0.1-0.2,0.1-0.3,0.1C37.2,317.9,36.8,317.9,36.3,318L36.3,318z
			 M38.1,360.5c-0.5-0.6-0.8-1.4-0.6-2.1c0.2-2.1,0.5-4.1,0.5-6.2c0.1-3.8,0.1-7.6,0.2-11.3c0-2.1,0.2-4.2,0.3-6.6
			C39.1,336.3,38.7,358.8,38.1,360.5L38.1,360.5z M38.7,274.5l-0.4,0.1c-0.2-0.3-0.5-0.5-0.5-0.7c-0.4-1.6-0.8-3.2-1.2-4.9
			c-0.6-2.3-0.3-2.6,2.3-2.5C38.8,269.1,39,271.8,38.7,274.5L38.7,274.5z M39.2,307.3c-0.1-0.3-0.2-0.7-0.3-1c0-2.7,0.4-5.4,0.1-8.1
			c-0.1-2.4-0.1-4.7,0.2-7.1c0-0.3,0.1-0.7,0.2-1h0.5C40,295.8,39.8,301.5,39.2,307.3L39.2,307.3z M40.9,267.6
			c-0.2,6.3-0.4,12.5-0.6,18.7c0,0.5-0.1,1.1-0.2,1.6h-0.5c-0.2-1.7-0.9-3.3,0-5c0.1-0.3,0.2-0.7,0.2-1c0-1.9-0.2-3.7-0.1-5.6
			c0.3-2.9-0.2-5.8,0.2-8.7c0.3-1.7-0.1-3.4,0-5c0.1-0.8,0.2-1.5,0.4-2.3c0-0.2,0.2-0.5,0.2-0.7c0-2.4,0-4.8,0-7.3l-1.7-0.2
			c-0.2-1.4,1.4-0.8,1.6-1.4c-0.1-1.2-0.3-2.3-0.3-3.4c0-0.7,0.4-1.4,0.4-2.1s-0.3-1.3-0.4-2c-0.1-0.8-0.1-1.6,0-2.3
			c0.1-0.8,0.3-1.7,0.4-2.6h-3.5l-0.1,0.3c0.1,0.1,0.3,0.2,0.5,0.3c0.2,0.1,0.5,0.1,0.7,0.1v6c-1.3-1.1-2-2.7-1.9-4.4
			c0.2-3.3,1.4-6.3,2.2-9.4c0.8-3.3,1.8-6.6,2.8-9.9c0.1-0.2,0.1-0.5,0.1-0.8l-0.9-0.2c-1.8,6.1-3.6,12.1-5.4,18h-0.3
			c0-0.4-0.1-0.9-0.1-1.3c0.1-7.3,0.3-14.5,0.4-21.8c0.1-5,0.3-10,0.4-15c0-1.7,0.7-3.3,1.8-4.5c0.7,4.5,3.3,8.2,3.4,12.6
			c0.7,0.1,1-0.3,0.9-0.8c0-0.4-0.1-0.8-0.3-1.2c-1-3.5-1.9-7.1-2.9-10.6c-0.3-0.9-0.2-2,0.4-2.8c0.9-1.4,1.7-2.8,2.6-4.1
			c0.7-1,1.1-2.2,1-3.4c0.3,0.6,0.5,1.2,0.3,1.9c-0.2,9.3-0.4,18.5-0.6,27.8c-0.2,8.3-0.5,16.6-0.7,24.9
			C41.4,249.2,41.2,258.4,40.9,267.6L40.9,267.6z M39.3,241v-1h0.1L39.3,241L39.3,241z M42.9,315.7c-0.5,0.6-0.4,1.6-0.5,2.4H42
			v-5.8h1.3C43.3,313.5,43.7,314.6,42.9,315.7L42.9,315.7z M42.2,310.6c0-4.1,0.2-8.2,0.6-12.3c0.8,3.4,1.7,6.8,2.6,10.4h-1.9
			c0.2,0.9,0.3,1.6,0.5,2.4C42.4,311.4,42.2,311.4,42.2,310.6L42.2,310.6z M46,311.3c-1.4,0-1.6-0.4-0.8-1.7
			C46,309.9,45.8,310.6,46,311.3L46,311.3z M46,315c-0.1,0.8-0.6,0.8-1.2,0.5c0-0.9,0-1.7,0-2.5c0-0.2,0.3-0.4,0.5-0.6
			c0.2,0.2,0.6,0.4,0.7,0.6C46,313.7,46,314.4,46,315L46,315z M46.8,315.5c-0.1-0.3-0.2-0.5-0.3-0.8l0.3-0.1
			c0.1,0.3,0.2,0.5,0.2,0.8L46.8,315.5z M47.6,320.5l-0.4-0.1c0.1-0.3,0.2-0.7,0.3-1l0.3,0.1L47.6,320.5z M48.9,314.7l-0.5-0.1
			c0-0.4,0.1-0.9,0.1-1.3l0.7,0.1L48.9,314.7z M49.3,312.4c-1.7,0.1-1.7,0.1-2-2.3c0.3,0,0.6,0,0.9,0c0.3,0,0.7,0.1,1.1,0.2V312.4z
			 M46.9,309c-1.5-6.3-3.5-12.4-4.2-19l1.1-0.8c0-0.2,0-0.4,0-0.4c-1.3-1.5-0.8-3.1-0.3-4.6c1.7-5.3,3.5-10.6,5.3-16.1
			c0.3,0.3,0.6,0.7,0.8,1.1c2.9,5.3,5.7,10.7,8.5,16.1c0.2,0.3,0.3,0.7,0.4,1c0.3,1.4,0.5,2.8,0.9,4.2c0.4,1.3,0.3,2.7-0.1,4
			c-0.6,1.6-1.5,3.2-1.4,5c-0.1,0.3-0.2,0.6-0.4,0.8c-1.9,3.1-3.8,6.3-5.8,9.6L46.9,309z M52.8,363.5v-1.2H53c0,0.4,0.1,0.8,0.1,1.2
			H52.8z M54.6,314.7l-1.6-0.7c0.2-0.4,0.4-0.9,0.6-1.4c-0.4-0.1-0.7-0.3-1.1-0.5c-0.2-0.2-0.3-0.5-0.3-0.8c0.1-0.3,0.4-0.4,0.6-0.5
			c0.6,0.1,1.1,0.2,1.6,0.3L54.6,314.7z M53.1,309.9c2-3.5,3.9-6.7,5.8-9.9l0.4,0.3c-1.1,3.3-2.3,6.6-3.5,10.1L53.1,309.9z
			 M60.4,314.9l-4.4-0.4l1.4-4.1l0.9,0.3c-0.4-1.2-0.4-2.6,0.2-3.8c0.6-1.9,1.4-3.8,2.2-5.6C60.6,305.8,60.5,310.2,60.4,314.9
			L60.4,314.9z M61.5,283.5h-0.5l-6.8-26.9h7.8C61.9,265.6,61.7,274.5,61.5,283.5L61.5,283.5z M60.4,245.5l1.5,0.3
			c-0.1,2.1-0.2,4.1-0.4,6.3l-1.8-0.4c0-2.2-0.4-4.3,0.6-6.3L60.4,245.5z M62,245l-2.2-0.4c0.2-2-0.2-3.8,0.7-5.4l-1.6-0.5
			c1.2-0.7,2.1,0,3.4,0.2c-0.1,1.9-0.2,3.8-0.3,6L62,245z M62.6,238.1l-3.7-0.9c1.2-3.5,2.3-6.9,3.5-10.2h0.2V238.1z M63.3,211.1
			l-0.4,0.1l-6.6-26.7l7.5,0.3c0,8.8-0.5,17.5-0.5,26.2L63.3,211.1z M63.6,180.8l-4.8-1.4c0-3.2,0-6.4,0-9.6
			c0.1-0.5,0.2-1.1,0.5-1.5l4.5-12.9c0.1-0.4,0.3-0.8,0.4-1.1c0.4,2.8-0.2,25.1-0.7,26.4L63.6,180.8z M65.4,139.5h-0.5
			c-2.2-9-4.5-18-6.8-27.2c2.6-0.2,5.1-0.1,7.7,0.3c-0.2,9.1-0.3,18-0.5,26.9L65.4,139.5z M66.2,93.8l-4-1.5L65.8,82l0.3,0.1
			L66.2,93.8z M66.6,67.9h-0.3c-2.1-8.5-4.2-17-6.4-25.7c2.5-0.1,4.8-0.4,7.2,0.6c-0.2,8.3-0.3,16.6-0.5,25L66.6,67.9z"/>
	</g>
</g>
</svg>
