<?xml version="1.0" encoding="utf-8"?>
<!-- Generator: Adobe Illustrator 23.0.6, SVG Export Plug-In . SVG Version: 6.00 Build 0)  -->
<svg version="1.1" id="Layer_1" xmlns="http://www.w3.org/2000/svg" xmlns:xlink="http://www.w3.org/1999/xlink" x="0px" y="0px"
	 viewBox="0 0 321.9 303.3" style="enable-background:new 0 0 321.9 303.3;" xml:space="preserve">
<style type="text/css">
	.st0{fill-rule:evenodd;clip-rule:evenodd;fill:#FFFFFF;}
</style>
<title>Asset 10</title>
<g>
	<g id="_Layer_">
		<path class="st0" d="M168.6,182.8c15.9-0.4,31.8-0.9,47.8-1.3c18.2-0.4,36.5-0.9,54.7-1.3c2.1,0,4.3-0.6,6.4-0.6
			c2.3-0.1,4.7,0.2,7,0.2c5.4-0.1,10.8-0.2,16.1-0.4c2.8-0.1,5.6-0.4,8.4-0.5c4.3-0.1,8.6,0,12.9-0.1v-3c-0.1-0.4-0.1-0.8-0.2-1.3
			c-0.6-17.8-1.2-35.7-1.8-53.5c-0.5-14.5-1-29-1.5-43.5c-0.6-17.7-1.2-35.5-1.9-53.2c-0.1-3.1-0.2-6.2-0.3-9.3
			c0-0.8-0.1-1.6-0.1-2.4c-2.1-1.2-4.4-1-6.6-1.1c-11.9-0.5-23.8-1-35.7-1.4l-42.2-1.7l-36.3-1.4l-47.4-1.9l-36.4-1.4
			C97.8,3.3,84,2.8,70.3,2.2C60.2,1.8,50.1,1.5,40,1.1L16,0.1c-0.3,0-0.7-0.1-1-0.2H1.3c0,0.8-0.1,1.6-0.1,2.4c0,1.1,0,2.2,0,3.4
			L0.8,74.7c-0.2,31.6-0.4,63.2-0.7,94.8c0,0.4-0.1,0.8-0.1,1.2v13.7c4.4,0,8.7,0,13.1,0l59.8-0.3l38.3-0.2c3.7,0,3.9,0.1,4,3.8
			c0.2,7.6,0.3,15.2,0.5,22.8c0.3,13.1,0.7,26.2,1,39.3c0.3,10.4,0.5,20.9,0.7,31.3c0.2,6.5,0.3,13.1,0.5,19.6
			c0,0.6,0.1,1.3,0.1,2.1h1.2l42.9,0.5c0.5,0,0.9,0.1,1.4,0.1h6.4c-0.1-5-0.3-10-0.4-14.9c-0.3-9.9-0.6-19.9-0.9-29.8
			c-0.5-13.9-1-27.7-1.4-41.6c-0.3-10.5-0.6-21.1-1-31.6C166.1,183.3,166.5,182.8,168.6,182.8z M157.6,169.3
			c-10.3,0.1-20.7,0.1-31,0.2c-9.5,0.1-18.9,0-28.4,0.3c-5.6,0.2-11.1,0.2-16.7,0c-1.9-0.1-3.9,0.1-5.8,0.3c-1,0.1-2,0.2-2.9,0.2
			c-9.8,0.1-19.6,0.2-29.4,0.3c-4.2,0-8.4,0.1-12.5,0.1l-18.7,0.2H9.1c0-7.2-0.1-14.1,0-21c0.4-41.3,0.7-82.7,1.1-124
			c0-3.4,0-6.8,0.1-10.2c0-1.6,0.2-3.3,0.4-4.9c0-0.6,0.3-0.8,0.9-0.8l66.9,2.2c15.3,0.5,30.6,1,45.8,1.4l57.8,1.9
			c19.7,0.7,39.4,1.3,59.1,1.9c10.3,0.3,20.6,0.6,30.9,1c2.9,0.1,5.8,0.4,8.6,0.5s5.5-0.1,8.3-0.1c4.9,0,9.8,0.1,14.7,0.2
			c0.9-0.1,1.7,0.5,1.8,1.4c0,0,0,0,0,0c0.2,1.2,0.4,2.3,0.5,3.5c0.1,2.4,0.2,4.8,0.2,7.1c0.1,5.7,0.1,11.4,0.3,17.1
			c0.4,12.2,0.8,24.3,1.2,36.5c0.3,9.7,0.6,19.3,1,29c0.4,12.1,0.8,24.2,1.2,36.3c0.1,4.3,0.3,8.5,0.4,12.8c0.1,0.6,0.3,1.1,0.6,1.6
			c0.1,0.5,0.3,1.1,0.1,1.4c-0.4,0.5-0.9,0.8-1.5,0.9c-3.5,0.2-7,0.3-10.5,0.4c-13.5,0.3-27.1,0.6-40.6,0.9
			c-5.5,0.1-11,0.3-16.5,0.4c-2,0-4-0.2-5.9-0.1c-8.7,0.2-17.3,0.4-26,0.6c-5.8,0.1-11.6,0.1-17.3,0.2
			C181.1,168.9,169.4,169.2,157.6,169.3L157.6,169.3z"/>
	</g>
</g>
</svg>
