<?xml version="1.0" encoding="utf-8"?>
<!-- Generator: Adobe Illustrator 23.0.6, SVG Export Plug-In . SVG Version: 6.00 Build 0)  -->
<svg version="1.1" id="Layer_1" xmlns="http://www.w3.org/2000/svg" xmlns:xlink="http://www.w3.org/1999/xlink" x="0px" y="0px"
	 viewBox="0 0 37 62.2" style="enable-background:new 0 0 37 62.2;" xml:space="preserve">
<style type="text/css">
	.st0{fill-rule:evenodd;clip-rule:evenodd;fill:#FFFFFF;}
</style>
<title>Asset 21</title>
<g>
	<g id="_Layer_">
		<path class="st0" d="M36.1,15.5V7L37,6.9V6l-0.8-0.1c0-0.8-0.1-1.6-0.1-2.5l-1.9,0.1l0.1,0.2l-0.7,1v3.7L34,8.5v5H20V19h-3v-5.5H3
			V8.5l0.5-0.1c0-0.5,0.1-0.9,0.1-1.4h0.3v5.4h29.2V0H3.8v6.4H3.5V4.5L3.4,4.6l-0.7-1H1L0.8,5.9L0,6v0.9L0.9,7v8.6h14v10h-0.2
			L14.3,27L14,27.1v4h9v-4L22.5,27c-0.1-0.5,0.2-1.2-0.5-1.5v-10L36.1,15.5z M19.9,25.7H17c0-1.8,0-3.6,0-5.5h3L19.9,25.7z"/>
		<path class="st0" d="M22.5,59.2v-23l0.4-0.1v-4.5H14V36l0.5,0.1v23L22.5,59.2z"/>
		<path class="st0" d="M19,56.2L19,56.2L19,56.2z"/>
		<path class="st0" d="M14,62.2h8.9v-2.4h-8.3L14,60.2L14,62.2z"/>
		<path class="st0" d="M19,56.2L19,56.2L19,56.2z"/>
	</g>
</g>
</svg>
