<?xml version="1.0" encoding="utf-8"?>
<!-- Generator: Adobe Illustrator 23.0.6, SVG Export Plug-In . SVG Version: 6.00 Build 0)  -->
<svg version="1.1" id="Layer_1" xmlns="http://www.w3.org/2000/svg" xmlns:xlink="http://www.w3.org/1999/xlink" x="0px" y="0px"
	 viewBox="0 0 74.7 66.5" style="enable-background:new 0 0 74.7 66.5;" xml:space="preserve">
<style type="text/css">
	.st0{fill:#FFFFFF;}
</style>
<title>Asset 23</title>
<g>
	<g id="_Layer_">
		<polygon class="st0" points="40.8,18.5 72.6,18.5 74.7,16.4 74.7,3.6 70,3.6 70,5.6 72.6,5.6 72.6,16.4 70.5,16.4 4.2,16.4 
			2.1,14.4 2.1,5.6 5,5.6 5,3.6 0,3.6 0,16.4 2.1,18.5 33.8,18.5 36,20.7 36,52.1 34.5,53.6 34.5,65 36,66.5 38.7,66.5 40.2,65 
			40.2,53.6 38.7,52.1 38.7,20.7 		"/>
		<path class="st0" d="M5,0h64.7c0.9,0,1.6,0.7,1.6,1.6V12c0,0.9-0.7,1.6-1.6,1.6H5c-0.9,0-1.6-0.7-1.6-1.6V1.6C3.4,0.7,4.1,0,5,0z"
			/>
	</g>
</g>
</svg>
