<?xml version="1.0" encoding="utf-8"?>
<!-- Generator: Adobe Illustrator 23.0.6, SVG Export Plug-In . SVG Version: 6.00 Build 0)  -->
<svg version="1.1" id="Layer_1" xmlns="http://www.w3.org/2000/svg" xmlns:xlink="http://www.w3.org/1999/xlink" x="0px" y="0px"
	 viewBox="0 0 14.6 69.7" style="enable-background:new 0 0 14.6 69.7;" xml:space="preserve">
<style type="text/css">
	.st0{fill:#FFFFFF;}
</style>
<title>Asset 25</title>
<g>
	<g id="_Layer_">
		<polygon class="st0" points="12.8,1.3 12.8,1.3 12.8,1.3 		"/>
		<polygon class="st0" points="14.1,17 14.1,17 14.1,17 		"/>
		<polygon class="st0" points="14.1,21.6 14.1,21.6 14.1,21.6 		"/>
		<polygon class="st0" points="14.1,17.5 14.1,17.4 14.1,17.4 		"/>
		<path class="st0" d="M13,22.1L13,22.1z"/>
		<path class="st0" d="M13.7,22l0.1-0.1h-0.3C13.3,22,13.2,22,13,22.1L13.7,22z"/>
		<polygon class="st0" points="13,22.1 13,22.1 13,22.1 		"/>
		<path class="st0" d="M6.2,22.8L6.2,22.8c0.3,0,5.7-0.1,7.4-0.8c-0.2,0-0.5,0.1-0.7,0.1l-0.2,0.1l0.2-0.1
			C10.8,22.4,8.5,22.7,6.2,22.8L6.2,22.8z"/>
		<path class="st0" d="M14.1,21.6L14.1,21.6L14.1,21.6c-0.2,0.2-0.4,0.3-0.6,0.3h0.3c0.2-0.1,0.3-0.2,0.4-0.3l0,0v-4v-0.1l0,0
			L14.1,17l0,0l0,0l0,0V1.9c0,0,0-0.5-1.3-0.6l0,0h-0.1l0,0c-0.2-0.4-0.6-0.7-1-0.9C10.2,0.2,8.7,0,7.2,0L6.9,0.1l0,0
			c1.6,0,3.3,0.2,4.9,0.5c0.4,0.1,0.7,0.4,0.9,0.8h0.1c1.2,0,1.2,0.4,1.2,0.4V17l0.1,0.4l0,0l0,0v0.1L14.1,21.6z"/>
		<path class="st0" d="M5.9,18.1L5.9,18.1v0.1c0.8,0,2.8,0.1,4.7,0c3.4-0.1,3.6-0.5,3.6-0.7v-0.1h-0.1C13.9,18.2,8.1,18.2,5.9,18.1z
			"/>
		<path class="st0" d="M13.1,16L13.1,16L13.1,16z"/>
		<path class="st0" d="M13.1,16L13.1,16L13.1,16L12.8,1.4l-0.1,0l-0.1,0.1L13.1,16L13.1,16c0.3,0.8,0.6,1,0.8,1c0.1,0,0.1,0,0.2,0
			l0,0h-0.2C13.8,16.9,13.5,16.8,13.1,16z"/>
		<path class="st0" d="M12.1,16L12.1,16c0.3,0,0.6,0,0.9,0.1h0.1V16c-0.1-0.1-0.7-0.1-1-0.1L12.1,16z"/>
		<path class="st0" d="M11.9,17.5L11.9,17.5L11.9,17.5c-0.2,0.1-0.6,0.2-0.7,0c-0.2-0.5-0.4-1-0.5-1.6c0-0.1-0.1-15.4-0.1-15.6
			l-0.1-0.1l-0.1,0.1c0,0.2,0.1,15.4,0.1,15.6c0.1,0.6,0.3,1.1,0.6,1.6c0.2,0.3,0.9,0.1,0.9,0.1L11.9,17.5c0.1-0.6,0.2-1.2,0.2-1.8
			c0-0.7-0.2-15-0.2-15.2V0.5l-0.1,0.1c0,0.1,0.2,14.5,0.2,15.2C12.1,16.3,12.1,16.9,11.9,17.5L11.9,17.5z"/>
		<path class="st0" d="M11.9,17.5L11.9,17.5L11.9,17.5z"/>
		<path class="st0" d="M11.2,0.3L11.2,0.3C11.1,0.3,11,0.4,11,9c0,4.2,0,8.5,0,8.5l0.1,0.1l0.1-0.1C11.1,11.7,11.1,0.7,11.2,0.3
			L11.2,0.3L11.2,0.3L11.2,0.3z"/>
		<polygon class="st0" points="7.4,16 7.4,16 10.5,16.1 10.6,16.1 10.5,16 7.4,15.9 		"/>
		<polygon class="st0" points="7.7,0.1 7.6,0.1 7.6,0.1 		"/>
		<polygon class="st0" points="6.4,0.1 6.4,0.2 6.4,0.2 		"/>
		<path class="st0" d="M6.5,0v0.2c0.4,0,0.8,0,1.2,0l0,0l0,0l0,0C7.8,0.6,7.6,8.3,7.4,12c0,1.4-0.1,2.4-0.1,2.6
			c0,0.9-0.1,1.7-0.3,2.6c0,0.1-0.1,0.2-0.2,0.2c-0.3,0.1-0.6,0.1-0.9,0c-0.2-1.1-0.3-2.3-0.2-3.4c0-0.2,0-1.3,0.1-2.9
			c0.1-3.7,0.3-10.6,0.4-11l0,0l0,0l0,0h0.1L6.5,0H6.3C6.2,0,6.2,0,6,4.1c-0.1,2.3-0.2,5-0.2,7.1c0,1.6-0.1,2.7-0.1,2.9
			S5.7,17.3,6,17.5c0.3,0.1,0.6,0.1,0.9,0c0.1-0.1,0.2-0.2,0.2-0.3c0.2-0.9,0.3-1.7,0.3-2.6c0-0.2,0-1.2,0.1-2.6
			c0.1-2.2,0.2-5.1,0.2-7.5C7.9,0,7.8,0,7.7,0C7.3,0,6.9,0,6.5,0z"/>
		<path class="st0" d="M6.6,0.1c0,0,0,0,0,0.3l0,0c0,0.6-0.1,2.5-0.3,8.4C6.1,13.1,6,17.4,6,17.4v0.1l0.1,0
			C6.2,11.6,6.5,0.4,6.6,0.1L6.6,0.1L6.6,0.1z"/>
		<path class="st0" d="M7,17.4L7,17.4c0-0.1,0.2-4.4,0.3-8.7C7.6,0,7.3,0,7.2,0l0,0l0,0v0.1l0,0C7.5,0.4,7.2,10.6,7,17.4L7,17.4z"/>
		<polygon class="st0" points="0.4,17.2 0.4,17.2 0.4,17.2 		"/>
		<polygon class="st0" points="0.3,21.3 0.3,21.3 0.3,21.3 		"/>
		<polygon class="st0" points="0.4,16.7 0.4,16.7 0.4,16.7 		"/>
		<polygon class="st0" points="2.4,1.2 2.4,1.2 2.3,1.2 		"/>
		<path class="st0" d="M5.8,22.8v-0.1c-1.5-0.1-3.1-0.4-4.6-0.7L1,22C2.6,22.4,4.2,22.7,5.8,22.8z"/>
		<path class="st0" d="M0.4,17.3L0.4,17.3l0.1-0.4l0,0L1.1,1.7c0,0,0-0.4,1.2-0.4h0.1c0.2-0.4,0.5-0.7,1-0.8c1-0.1,1.9-0.2,2.9-0.2
			V0.1c-1,0-2,0.1-3,0.2c-0.4,0.1-0.8,0.4-1,0.8l0,0H2.3l0,0C1.1,1.2,1,1.7,1,1.7L0.4,16.9l0,0l0,0l0,0l-0.1,0.4l0,0v0.1l-0.1,4l0,0
			c0.1,0.2,0.4,0.4,0.9,0.5h0.3c-0.6-0.2-0.9-0.3-1-0.5l0,0l0,0L0.4,17.3L0.4,17.3z"/>
		<path class="st0" d="M0.3,17.2L0.3,17.2c0,0.2,0.2,0.6,3.6,0.9c0.7,0,1.5,0.1,2.2,0.1v-0.1C3.5,18,0.5,17.7,0.3,17.2L0.3,17.2z"/>
		<path class="st0" d="M2.3,1.2L1.5,15.8l0,0l0,0l0,0c-0.4,0.7-0.7,0.9-0.9,0.9H0.5H0.4v0.1c0.1,0,0.1,0,0.2,0c0.2,0,0.5-0.2,1-1
			l0,0L2.5,1.2l0,0L2.3,1.2L2.3,1.2z"/>
		<path class="st0" d="M1.5,15.8L1.5,15.8z"/>
		<path class="st0" d="M2.5,15.8L2.5,15.8l0.1-0.1c-0.3,0-0.9-0.1-1,0.1v0.1h0.1C1.9,15.8,2.2,15.8,2.5,15.8z"/>
		<polygon class="st0" points="2.6,17.4 2.6,17.4 2.6,17.4 		"/>
		<path class="st0" d="M3.3,0.4L3.3,0.4H3.2c0,0.2-0.8,14.4-0.8,15c0,0.6,0,1.3,0.1,1.9l0,0c0,0,0.7,0.3,0.9-0.1
			c0.3-0.5,0.5-1.1,0.6-1.6C4,15.6,4.7,0.8,4.8,0.1H4.7C4.6,1.1,4,15.6,4,15.8c-0.1,0.5-0.3,1.1-0.6,1.6c-0.2,0.2-0.6,0.1-0.7,0l0,0
			v0l0,0c-0.1-0.6-0.1-1.2-0.2-1.8C2.5,14.8,3.3,0.6,3.3,0.4z"/>
		<path class="st0" d="M3.4,17.4L3.4,17.4c0.1-0.1,0.3-4.4,0.4-8.6c0.3-6.8,0.3-8.2,0.3-8.5H4c0,0.9-0.4,11.4-0.7,17L3.4,17.4z"/>
		<path class="st0" d="M4,0.3L4,0.3z"/>
		<polygon class="st0" points="4,16 5.8,16 5.8,15.9 4,15.8 4,15.9 		"/>
		<path class="st0" d="M5.8,22.7v0.1c0.2,0,0.4,0,0.6,0v-0.1C6.2,22.7,6,22.7,5.8,22.7z"/>
		<path class="st0" d="M14.6,23L14.6,23L14.6,23l-0.9-1h-0.2l1,1c-0.3,0.2-1.7,0.8-7,0.5c-5.1-0.3-6.5-0.6-6.9-0.7L1.3,22H1
			l-0.8,0.8l0,0l0,0l-0.2,7.4l0,0c0.1,0.1,0.2,0.3,0.3,0.4C0.2,30.7,0.1,31,0,31.2l0,0l2.3,35.9l0,0c1.1,2.6,5.2,2.5,5.2,2.5
			c4.7-0.4,5-2.6,5-2.7s1.2-21.5,1.4-25.4S14,31,14,30.9v-0.1c0.2-0.1,0.3-0.2,0.4-0.4c0-0.1,0-0.2,0-0.3L14.6,23z M13.9,30.9
			c0,0.1,0,6.8-0.2,10.6S12.3,66.8,12.3,67c0,0-0.3,2.1-4.8,2.5c0,0-4,0.1-5-2.4L0.2,31.3c0.1-0.2,0.2-0.5,0.4-0.6
			c0.7,0.6,2.7,1.5,7.5,1.2C11.5,31.7,13.1,31.3,13.9,30.9z M14.3,30.2c0,0,0,0.1,0,0.2c-0.2,0.3-1.1,1-6.2,1.3
			c-6.5,0.4-7.7-1.4-7.8-1.6L0.4,23c0.3,0.1,0.7,0.2,1,0.2c0.9,0.1,2.6,0.3,5.9,0.5c5.1,0.3,6.6-0.2,7.1-0.5L14.3,30.2L14.3,30.2z"
			/>
	</g>
</g>
</svg>
