<?xml version="1.0" encoding="utf-8"?>
<!-- Generator: Adobe Illustrator 23.0.6, SVG Export Plug-In . SVG Version: 6.00 Build 0)  -->
<svg version="1.1" id="Layer_1" xmlns="http://www.w3.org/2000/svg" xmlns:xlink="http://www.w3.org/1999/xlink" x="0px" y="0px"
	 viewBox="0 0 118.7 60.3" style="enable-background:new 0 0 118.7 60.3;" xml:space="preserve">
<style type="text/css">
	.st0{fill:#FFFFFF;}
</style>
<title>Asset 53</title>
<g>
	<g id="_Layer_">
		<path class="st0" d="M83.8,47.1C73,37.3,56.4,38.2,46.7,49c-2.4,2.6-4.2,5.7-5.3,9l7.1-0.4c4.9-9.8,16.9-13.7,26.7-8.8
			c1.6,0.8,3,1.8,4.3,3c0.3,0.3,0.7,0.6,1,1l5.4-3.6C85.2,48.4,84.5,47.7,83.8,47.1z"/>
		<path class="st0" d="M31.9,56.2c-0.2,0.7-0.4,1.3-0.5,2c0.1,0.1,0.2,0.2,0.2,0.4l8.9-0.5c4.7-14.3,20.1-22,34.3-17.3
			c3.6,1.2,6.9,3.1,9.7,5.6c0.8,0.7,1.5,1.4,2.2,2.2l7.3-5c-12.2-14.9-34-17.5-49.3-5.9c0,0.1,0.1,0.2,0.3,0.3
			c-0.2,0.2-0.1,0.3-0.1,0.4c-0.2,0.2-0.1,0-0.1-0.2s-0.1,0.2-0.3,0.2s0,0.2-0.1,0.3c0.1,0,0.2,0,0.2,0.1c-0.3,0.1-0.1,0.1-0.3,0.5
			c0-0.2-0.2-0.2-0.4,0.1c0-0.3-0.3,0-0.3-0.2c-0.3,0.1-0.3,0.6-0.6,0.9c-0.1,0,0-0.2-0.1-0.2c-0.2,0.1-0.1,0.2-0.2,0.3
			c0.2,0,0.1,0.2,0.2,0.2c-0.2,0.2-0.2,0.3-0.1,0.4c-0.1,0.2-0.2,0-0.3,0.2s0.4,0.1,0.3,0.3h-0.1c-0.2,0-0.2,0.1-0.3,0.3
			c-0.2-0.2-0.4,0.1-0.5,0c-0.3,0.3-0.6,0.6-0.9,0.8c0-0.1,0-0.2,0-0.4c0.2,0,0.2-0.1,0.5-0.4c-0.1-0.1-0.4,0.2-0.4-0.1
			c-0.1,0.3-0.4,0.3-0.4,0.8c-0.2-0.1-0.3-0.3-0.2-0.5c0,0,0,0,0,0l-0.2,0.1c0,0.1,0.1,0,0.1,0.2s-0.2,0.3-0.3,0.3s0.1,0,0.2,0.1
			c-0.2,0.2,0,0.2-0.1,0.3c-0.1-0.1-0.3,0.1-0.4-0.1c0.3-0.3,0-0.2,0.5-0.7c-0.1,0-0.3,0.4-0.4,0.2c-0.1,0.1-0.3,0.3-0.1,0.3
			c-0.1,0.1-0.2,0.1-0.3,0.3l-0.1-0.1c-3.1,3.5-5.6,7.6-7.1,12l0.8,0.4v0.2c-0.1,0-0.3,0-0.2,0.1c-0.2,0-0.4-0.2-0.5,0v0.1
			c-0.1,0.1-0.3,0-0.4,0v0.1h0.1c0,0.1-0.1,0.1-0.2,0.1L32,55.9c0.1,0.1,0.2,0.2,0.2,0.4C32,56.3,31.9,56.3,31.9,56.2z"/>
		<path class="st0" d="M55.2,57.3l0.2-0.3c5.3-5.9,14.3-6.3,20.2-1l0,0l3.9-2.7c-0.3-0.3-0.6-0.6-0.8-0.8c-7.8-7-19.7-6.3-26.7,1.4
			c-1,1.1-1.9,2.3-2.6,3.7l1.6-0.1c0-0.3,0.2-0.3,0.3-0.5c0,0.2,0.3,0,0.3,0.1s0.1-0.2,0.2-0.3c-0.1,0-0.3,0.1-0.1,0.2
			c0,0.1-0.2,0-0.3,0c0-0.4-0.1-0.1-0.3-0.2c0-0.2,0.1-0.3-0.1-0.3c0.1-0.2,0.3-0.3,0.5-0.4c0.1,0,0.2,0.2,0.4,0.1l-0.2,0.2
			c0.1,0.2,0.3,0.3,0.3,0.6c0.3-0.1,0.2,0,0.5,0c0.1,0,0.1-0.1,0.1-0.2c0.1,0,0.2,0.1,0.3,0.1c0-0.1-0.1-0.1-0.2-0.1
			s0.1-0.2,0.2-0.2v0.1l0.1-0.2c0,0,0.2,0,0.2,0.1c0-0.2,0.5,0,0.5-0.1c0.1-0.1,0.1,0.3,0.3,0.4c-0.1,0.1-0.3,0.3-0.1,0.4
			c0-0.2,0.2-0.2,0.3-0.3c0.1,0.1-0.2,0.1-0.1,0.3c0.1,0,0.1-0.1,0.1-0.2s0.1,0.1,0.3,0.1c0,0.1,0,0.2,0,0.2H55l0,0h0.1H55.2z
			 M54.9,57.3l-0.1-0.2c0-0.1-0.2,0-0.2-0.1c0.2,0.1,0.2,0,0.4,0C54.9,57.1,55,57.1,54.9,57.3L54.9,57.3z"/>
		<path class="st0" d="M59,18.1v0.2l-0.9,0.3l-0.4-0.1l-0.4,0.2l-0.1-0.2c-20.4,3.9-36.2,20.2-39.3,40.8l12.3-0.7
			c4.4-20,24.2-32.6,44.1-28.2c6.3,1.4,12.1,4.4,16.8,8.6c1.4,1.2,2.7,2.6,3.8,4c1.2-0.8,2.5-1.6,3.7-2.5c2.1-1.4,4.1-2.9,6.1-4.4
			c-9.2-11.7-23.3-18.5-38.2-18.5c0,0.1,0,0.3,0,0.3L66.4,18v-0.1c0,0.1-0.1,0-0.1,0.1c0-0.1-0.1,0.1-0.1,0.1v-0.1H66V18l-0.1,0.1
			v0.1l0,0l0,0c-0.2-0.5-0.3-0.2-0.3-0.2l0,0c-0.2,0.1-0.3-0.1-0.5,0v0.2c-0.1,0-0.6,0.1-0.7-0.1c-0.3-0.2-0.6,0.1-0.8-0.2
			c-0.5-0.2-1.1,0-1.6,0l0,0c-0.1,0-0.2-0.2-0.3,0l0,0h-0.1l0,0c-0.2,0-0.3,0.1-0.4,0.2L61.1,18h-0.2l-0.6,0.1
			c-0.2,0.1-0.4,0.1-0.7,0.2l0-0.3v0.1C59.4,18,59.2,18.4,59,18.1z"/>
		<path class="st0" d="M91.7,5L91.7,5c-34.1-14-73,2.2-87,36.2C2.2,47.3,0.6,53.8,0,60.3c5.5-0.3,11-0.7,16.5-1
			c4-27.5,29.6-46.6,57.1-42.6c9.9,1.4,19.1,5.8,26.5,12.4c2.1,1.9,4.1,4,5.9,6.3c4.3-3.2,8.6-6.6,12.8-9.9c-2.4-3-5-5.8-7.8-8.4
			c-1.7-1.5-3.4-2.9-5.1-4.2l-0.6,0.1l0,0c0-0.2-0.3-0.2-0.3-0.4l0,0c0.2-0.1-0.3-0.1-0.2-0.3c0-0.2-0.2-0.1-0.3-0.1s0.1-0.2,0-0.2
			S104,12,104,12s-0.1-0.2-0.2-0.3l0,0c-0.2-0.2-0.5-0.4-0.7-0.6l-0.5-0.4l-0.1-0.1c-1-0.6-1.9-1.2-2.9-1.8h-0.1l-0.3-0.2
			c-0.6-0.3-1.1-0.6-1.7-0.9l-0.1,0.1V7.8c-0.1,0,0-0.1-0.2,0V7.6l0,0l-0.1,0.1l0.1-0.1c-0.4-0.2-0.9-0.5-1.3-0.7l-0.1,0.2
			c-0.1,0-0.1,0.1-0.1,0L95.7,7c-0.1,0-0.1,0-0.2,0.1c0.1-0.1,0.1-0.2,0.1-0.3l-0.2-0.1h-0.2l0,0l-0.1-0.1l0,0l0,0l0,0H95l0,0l0,0
			l-0.2-0.1h-0.1c-0.1,0.2-0.1,0-0.1-0.1l-0.1,0.1c-0.1-0.2-0.2-0.3-0.4-0.4V6H94h-0.1v0.1c-0.1-0.1-0.1-0.1-0.2-0.2l-0.3-0.1h-0.1
			l-0.1,0.1V5.7L91.7,5z"/>
		<polygon class="st0" points="97.5,7.7 97.4,7.7 97.4,7.7 		"/>
	</g>
</g>
</svg>
