<?xml version="1.0" encoding="utf-8"?>
<!-- Generator: Adobe Illustrator 23.0.6, SVG Export Plug-In . SVG Version: 6.00 Build 0)  -->
<svg version="1.1" id="Layer_1" xmlns="http://www.w3.org/2000/svg" xmlns:xlink="http://www.w3.org/1999/xlink" x="0px" y="0px"
	 viewBox="0 0 43.1 48.3" style="enable-background:new 0 0 43.1 48.3;" xml:space="preserve">
<style type="text/css">
	.st0{fill:#FFFFFF;}
</style>
<g id="Layer_2_00000023264079319936991020000003539322244957901211_">
	<g id="_Layer_">
		<path class="st0" d="M10.4,0L10.4,0c-0.2,2.9-1.1,5.6-2.8,7.9C6,10.1,3.5,11.1,0,11.1c3.6-0.1,6.2,1.1,7.8,3.4
			c1.7,2.5,2.6,5.4,2.6,8.4c0-2.9,0.9-5.8,2.5-8.3c1.6-2.3,4.2-3.4,7.8-3.4c-3.5,0-6.1-1.1-7.7-3.2C11.4,5.6,10.5,2.8,10.4,0z"/>
		<path class="st0" d="M32.9,0L32.9,0c-0.2,2.9-1.1,5.6-2.8,7.9c-1.6,2.2-4.2,3.2-7.6,3.2c3.6-0.1,6.2,1.1,7.8,3.4
			c1.7,2.5,2.6,5.4,2.6,8.4c0-2.9,0.9-5.8,2.5-8.3c1.6-2.3,4.2-3.4,7.8-3.4c-3.5,0-6.1-1.1-7.7-3.2C33.8,5.6,32.9,2.8,32.9,0z"/>
		<path class="st0" d="M10.4,25.4L10.4,25.4c-0.2,2.9-1.1,5.6-2.8,7.9C6,35.5,3.5,36.6,0,36.6c3.6,0,6.2,1.1,7.8,3.4
			c1.7,2.5,2.6,5.4,2.6,8.3c0-3,0.9-5.9,2.5-8.3c1.6-2.3,4.2-3.4,7.8-3.4c-3.5,0-6.1-1.1-7.7-3.2C11.4,31,10.5,28.3,10.4,25.4z"/>
		<path class="st0" d="M32.9,25.4L32.9,25.4c-0.2,2.9-1.1,5.6-2.8,7.9c-1.6,2.2-4.2,3.2-7.6,3.2c3.6-0.1,6.2,1.1,7.8,3.4
			c1.7,2.5,2.6,5.4,2.6,8.3c0-3,0.9-5.9,2.5-8.3c1.6-2.3,4.2-3.4,7.8-3.4c-3.5,0-6.1-1.1-7.7-3.2C33.8,31,32.9,28.3,32.9,25.4z"/>
		<path class="st0" d="M22,2.9h-0.1c-0.2,5.6-2,10.9-5.3,15.4c-3.1,4.2-8.1,6.3-14.9,6.3c7-0.1,12,2.1,15.2,6.6
			c3.3,4.8,5,10.5,5.1,16.2c0-5.7,1.7-11.4,4.9-16.1c3-4.4,8.1-6.6,15.1-6.6c-6.9,0-11.8-2.1-14.9-6.3C23.9,13.8,22.1,8.5,22,2.9z"
			/>
		<path class="st0" d="M22,2.9h-0.1c-0.2,5.6-2,10.9-5.3,15.4c-3.1,4.2-8.1,6.3-14.9,6.3c7-0.1,12,2.1,15.2,6.6
			c3.3,4.8,5,10.5,5.1,16.2c0-5.7,1.7-11.4,4.9-16.1c3-4.4,8.1-6.6,15.1-6.6c-6.9,0-11.8-2.1-14.9-6.3C23.9,13.8,22.1,8.5,22,2.9z"
			/>
	</g>
</g>
</svg>
