<?xml version="1.0" encoding="utf-8"?>
<!-- Generator: Adobe Illustrator 23.0.6, SVG Export Plug-In . SVG Version: 6.00 Build 0)  -->
<svg version="1.1" id="Layer_1" xmlns="http://www.w3.org/2000/svg" xmlns:xlink="http://www.w3.org/1999/xlink" x="0px" y="0px"
	 viewBox="0 0 112.3 111.3" style="enable-background:new 0 0 112.3 111.3;" xml:space="preserve">
<style type="text/css">
	.st0{fill:#FFFFFF;}
</style>
<g id="Layer_2_00000065036453959111192990000006214054729032321433_">
	<g id="_Layer_">
		<path class="st0" d="M63.4,95v16.3c30.7-4,52.5-32.1,48.5-62.8C108.7,23.2,88.7,3.3,63.4,0v16.3c21.7,4.1,36,25,31.9,46.7
			C92.3,79.2,79.6,91.9,63.4,95L63.4,95z"/>
		<path class="st0" d="M48.9,16.3V0C18.1,4-3.5,32.2,0.5,62.9c3.3,25.2,23.1,45.1,48.4,48.4V95c-21.7-4.1-36-25-31.9-46.7
			C20,32.1,32.6,19.4,48.9,16.3L48.9,16.3z"/>
	</g>
</g>
</svg>
