<?xml version="1.0" encoding="utf-8"?>
<!-- Generator: Adobe Illustrator 23.0.6, SVG Export Plug-In . SVG Version: 6.00 Build 0)  -->
<svg version="1.1" id="Layer_1" xmlns="http://www.w3.org/2000/svg" xmlns:xlink="http://www.w3.org/1999/xlink" x="0px" y="0px"
	 viewBox="0 0 448 512" style="enable-background:new 0 0 448 512;" xml:space="preserve">
<style type="text/css">
	.st0{fill:#FFFFFF;}
</style>
<path class="st0" d="M448,80v352c0,26.5-21.5,48-48,48H48c-26.5,0-48-21.5-48-48V80c0-26.5,21.5-48,48-48h352
	C426.5,32,448,53.5,448,80z M360,96H248c-21.3,0-32.1,25.9-17,41l32,32L67.5,364.5c-4.7,4.7-4.7,12.3,0,17l31,31
	c4.7,4.7,12.3,4.7,17,0L311,217l32,32c15,15,41,4.5,41-17V120C384,106.7,373.3,96,360,96z"/>
</svg>
