<?xml version="1.0" encoding="utf-8"?>
<!-- Generator: Adobe Illustrator 23.0.6, SVG Export Plug-In . SVG Version: 6.00 Build 0)  -->
<svg version="1.1" id="Layer_1" xmlns="http://www.w3.org/2000/svg" xmlns:xlink="http://www.w3.org/1999/xlink" x="0px" y="0px"
	 viewBox="0 0 512 512" style="enable-background:new 0 0 512 512;" xml:space="preserve">
<style type="text/css">
	.st0{fill:#FFFFFF;}
</style>
<path class="st0" d="M352.2,425.8L273,505c-9.4,9.4-24.6,9.4-33.9,0l-79.2-79.2c-15.1-15.1-4.4-41,17-41H228l0-100.8H127.2v51.2
	c0,21.4-25.9,32.1-41,17L7,272.9c-9.4-9.4-9.4-24.6,0-33.9l79.2-79.2c15.1-15.1,41-4.4,41,17V228H228V127.2h-51.2
	c-21.4,0-32.1-25.9-17-41L239,7c9.4-9.4,24.6-9.4,33.9,0l79.2,79.2c15.1,15.1,4.4,41-17,41H284V228h100.8v-51.2
	c0-21.4,25.9-32.1,41-17l79.2,79.2c9.4,9.4,9.4,24.6,0,33.9l-79.2,79.2c-15.1,15.1-41,4.4-41-17V284H284v100.8h51.2
	C356.6,384.8,367.3,410.7,352.2,425.8L352.2,425.8z"/>
</svg>
