<?xml version="1.0" encoding="utf-8"?>
<!-- Generator: Adobe Illustrator 23.0.6, SVG Export Plug-In . SVG Version: 6.00 Build 0)  -->
<svg version="1.1" id="Layer_1" xmlns="http://www.w3.org/2000/svg" xmlns:xlink="http://www.w3.org/1999/xlink" x="0px" y="0px"
	 viewBox="0 0 448 512" style="enable-background:new 0 0 448 512;" xml:space="preserve">
<style type="text/css">
	.st0{fill:#FFFFFF;}
</style>
<path class="st0" d="M448,344v112c0,13.2-10.7,24-23.9,24c0,0-0.1,0-0.1,0H312c-21.4,0-32.1-25.9-17-41l36.2-36.2L224,295.6
	L116.8,402.9L153,439c15.1,15.1,4.4,41-17,41H24c-13.2,0-24-10.7-24-23.9c0,0,0-0.1,0-0.1V344c0-21.4,25.9-32.1,41-17l36.2,36.2
	L184.5,256L77.2,148.7L41,185c-15.1,15.1-41,4.4-41-17V56c0-13.2,10.7-24,23.9-24c0,0,0.1,0,0.1,0h112c21.4,0,32.1,25.9,17,41
	l-36.2,36.2L224,216.4l107.2-107.3L295,73c-15.1-15.1-4.4-41,17-41h112c13.2,0,24,10.7,24,23.9c0,0,0,0.1,0,0.1v112
	c0,21.4-25.9,32.1-41,17l-36.2-36.2L263.5,256l107.3,107.3l36.2-36.2C422.1,311.9,448,322.6,448,344z"/>
</svg>
