<?xml version="1.0" encoding="utf-8"?>
<!-- Generator: Adobe Illustrator 23.0.6, SVG Export Plug-In . SVG Version: 6.00 Build 0)  -->
<svg version="1.1" id="Layer_1" xmlns="http://www.w3.org/2000/svg" xmlns:xlink="http://www.w3.org/1999/xlink" x="0px" y="0px"
	 viewBox="0 0 576 512" style="enable-background:new 0 0 576 512;" xml:space="preserve">
<style type="text/css">
	.st0{fill:#FFFFFF;}
</style>
<path class="st0" d="M568.5,177.4l-144,136c-15.2,14.3-40.5,3.7-40.5-17.4v-72c-144.6,1-205.6,35.1-164.8,171.4
	c4.5,15-12.8,26.6-25,17.3c-39-29.6-74.2-86.2-74.2-143.4C120,125.4,237.6,96.8,384,96V24c0-21.2,25.3-31.8,40.5-17.4l144,136
	C578.5,152,578.5,168,568.5,177.4z M384,379.1V448H64V128h50.9c3.3,0,6.4-1.3,8.6-3.7c15-15.6,32.2-27.9,51-37.7
	c11.1-5.8,7-22.6-5.5-22.6H48C21.5,64,0,85.5,0,112v352c0,26.5,21.5,48,48,48h352c26.5,0,48-21.5,48-48v-88.8
	c0-8.3-8.2-14.1-16-11.3c-11,3.9-22.7,5-34.2,3.4C390.5,366.2,384,371.8,384,379.1L384,379.1z"/>
</svg>
