<?xml version="1.0" encoding="utf-8"?>
<!-- Generator: Adobe Illustrator 23.0.6, SVG Export Plug-In . SVG Version: 6.00 Build 0)  -->
<svg version="1.1" id="Layer_1" xmlns="http://www.w3.org/2000/svg" xmlns:xlink="http://www.w3.org/1999/xlink" x="0px" y="0px"
	 viewBox="0 0 512 512" style="enable-background:new 0 0 512 512;" xml:space="preserve">
<style type="text/css">
	.st0{fill:#FFFFFF;}
</style>
<path class="st0" d="M440.6,12.6l4,82.8C397.6,39.9,328.6,7.9,255.8,8C134.7,8,33.9,94.9,12.3,209.8c-1.2,6.5,3.1,12.8,9.6,14
	c0.7,0.1,1.4,0.2,2.2,0.2h49c5.6,0,10.4-3.8,11.7-9.3C107.6,120.3,202.6,62.2,297,84.9c42.8,10.3,80.2,36.3,104.8,72.9l-101.5-4.9
	c-6.6-0.3-12.2,4.8-12.6,11.4c0,0.2,0,0.4,0,0.6v47.4c0,6.6,5.4,12,12,12H500c6.6,0,12-5.4,12-12V12c0-6.6-5.4-12-12-12h-47.4
	c-6.6,0-12,5.4-12,12C440.6,12.2,440.6,12.4,440.6,12.6z M255.8,432c-58.6,0.1-113.4-29.1-146-77.8l101.8,4.9
	c6.6,0.3,12.2-4.8,12.6-11.4c0-0.2,0-0.4,0-0.6v-47.4c0-6.6-5.4-12-12-12H12c-6.6,0-12,5.4-12,12V500c0,6.6,5.4,12,12,12h47.3
	c6.6,0,12-5.4,12-12c0-0.2,0-0.4,0-0.6l-4.2-82.6c47,55.4,116,87.2,188.6,87.2c121.1,0,221.9-86.9,243.6-201.8
	c1.2-6.5-3.1-12.8-9.6-14c-0.7-0.1-1.4-0.2-2.2-0.2h-49c-5.6,0-10.4,3.8-11.7,9.3C407.8,376.3,337.1,432,255.8,432z"/>
</svg>
