<?xml version="1.0" encoding="utf-8"?>
<!-- Generator: Adobe Illustrator 23.0.6, SVG Export Plug-In . SVG Version: 6.00 Build 0)  -->
<svg version="1.1" id="Layer_1" xmlns="http://www.w3.org/2000/svg" xmlns:xlink="http://www.w3.org/1999/xlink" x="0px" y="0px"
	 viewBox="0 0 512 512" style="enable-background:new 0 0 512 512;" xml:space="preserve">
<style type="text/css">
	.st0{fill:#FFFFFF;}
</style>
<path class="st0" d="M255.5,8C189.3,8.1,129.1,34.2,84.7,76.7L49,41c-15.1-15.1-41-4.4-41,17V192c0,13.3,10.7,24,24,24h134.1
	c21.4,0,32.1-25.9,17-41l-41.8-41.8c30.9-28.9,70.8-44.9,113.2-45.3c92.4-0.8,170.3,74,169.5,169.4C423.2,348,349.8,424,256,424
	c-41.1,0-80-14.7-110.6-41.6c-4.7-4.2-11.9-3.9-16.4,0.6l-39.7,39.7c-4.9,4.9-4.6,12.8,0.5,17.4c44,39.7,102.3,63.9,166.2,63.9
	c137,0,248-111,248-248C504,119.2,392.4,7.8,255.5,8z"/>
</svg>
