<?xml version="1.0" encoding="utf-8"?>
<!-- Generator: Adobe Illustrator 23.0.6, SVG Export Plug-In . SVG Version: 6.00 Build 0)  -->
<svg version="1.1" id="Layer_1" xmlns="http://www.w3.org/2000/svg" xmlns:xlink="http://www.w3.org/1999/xlink" x="0px" y="0px"
	 viewBox="0 0 512 512" style="enable-background:new 0 0 512 512;" xml:space="preserve">
<style type="text/css">
	.st0{fill:#FFFFFF;}
</style>
<path class="st0" d="M504,256c0,137-111,248-248,248S8,393,8,256S119,8,256,8S504,119,504,256z M360.4,227.1L288,302.6V120
	c0-13.3-10.7-24-24-24h-16c-13.3,0-24,10.7-24,24v182.6l-72.4-75.5c-9.3-9.7-24.8-9.9-34.3-0.4l-10.9,11c-9.4,9.4-9.4,24.6,0,33.9
	L239,404.3c9.4,9.4,24.6,9.4,33.9,0l132.7-132.7c9.4-9.4,9.4-24.6,0-33.9l-10.9-11C385.2,217.2,369.7,217.4,360.4,227.1L360.4,227.1
	z"/>
</svg>
