<?xml version="1.0" encoding="utf-8"?>
<!-- Generator: Adobe Illustrator 23.0.6, SVG Export Plug-In . SVG Version: 6.00 Build 0)  -->
<svg version="1.1" id="Layer_1" xmlns="http://www.w3.org/2000/svg" xmlns:xlink="http://www.w3.org/1999/xlink" x="0px" y="0px"
	 viewBox="0 0 512 512" style="enable-background:new 0 0 512 512;" xml:space="preserve">
<style type="text/css">
	.st0{fill:#FFFFFF;}
</style>
<path class="st0" d="M8,256C8,119,119,8,256,8s248,111,248,248S393,504,256,504S8,393,8,256z M300,372V256h70.9
	c10.7,0,16.1-13,8.5-20.5L264.5,121.2c-4.7-4.7-12.2-4.7-16.9,0l-115,114.3c-7.6,7.6-2.2,20.5,8.5,20.5H212v116c0,6.6,5.4,12,12,12
	h64C294.6,384,300,378.6,300,372z"/>
</svg>
