<?xml version="1.0" encoding="utf-8"?>
<!-- Generator: Adobe Illustrator 23.0.6, SVG Export Plug-In . SVG Version: 6.00 Build 0)  -->
<svg version="1.1" id="Layer_1" xmlns="http://www.w3.org/2000/svg" xmlns:xlink="http://www.w3.org/1999/xlink" x="0px" y="0px"
	 viewBox="0 0 512 512" style="enable-background:new 0 0 512 512;" xml:space="preserve">
<style type="text/css">
	.st0{fill:#FFFFFF;}
</style>
<path class="st0" d="M256,8c137,0,248,111,248,248S393,504,256,504S8,393,8,256S119,8,256,8z M140,300h116v70.9
	c0,10.7,13,16.1,20.5,8.5l114.3-114.9c4.7-4.7,4.7-12.2,0-16.9l-114.3-115c-7.6-7.6-20.5-2.2-20.5,8.5V212H140c-6.6,0-12,5.4-12,12
	v64C128,294.6,133.4,300,140,300z"/>
</svg>
