<?xml version="1.0" encoding="utf-8"?>
<!-- Generator: Adobe Illustrator 23.0.6, SVG Export Plug-In . SVG Version: 6.00 Build 0)  -->
<svg version="1.1" id="Layer_1" xmlns="http://www.w3.org/2000/svg" xmlns:xlink="http://www.w3.org/1999/xlink" x="0px" y="0px"
	 viewBox="0 0 60.8 66.6" style="enable-background:new 0 0 60.8 66.6;" xml:space="preserve">
<style type="text/css">
	.st0{fill:#FFFFFF;}
</style>
<title>Asset 16</title>
<g>
	<g id="_Layer_">
		<path class="st0" d="M28.5,51.2C27,51,25.6,50.6,24.2,50L18,64c2.7,1.3,5.6,2.1,8.5,2.4L28.5,51.2z"/>
		<path class="st0" d="M30.5,27l16.3-13.5L30.4,0l0.1,5.8C20.2,5.8,10.6,10.9,5,19.5L17.8,28c2.7-4.4,7.5-7,12.7-6.8V27z"/>
		<path class="st0" d="M3.5,22.2C1.2,26.5,0,31.3,0,36.2c0,0.7,0,1.4,0.1,2.1l15.4-1.1c-0.1-0.4-0.1-0.7-0.1-1.1
			c0-2.4,0.6-4.8,1.8-7L3.5,22.2z"/>
		<path class="st0" d="M36.2,66.1l-3-15c-0.9,0.2-1.9,0.3-2.8,0.3c-0.2,0-0.4,0-0.6-0.1l-0.6,15.3h1.2
			C32.4,66.6,34.3,66.5,36.2,66.1z"/>
		<path class="st0" d="M15.8,62.9l7.3-13.5c-1.7-1-3.1-2.2-4.3-3.7l-12,9.6C9.3,58.4,12.3,61,15.8,62.9z"/>
		<path class="st0" d="M18,44.7c-1.2-1.8-2.1-3.9-2.4-6.1L0.4,41c0.7,4.5,2.4,8.7,4.9,12.4L18,44.7z"/>
		<path class="st0" d="M56.8,51.3l-13.3-7.5c-0.3,0.4-0.5,0.8-0.8,1.2l12.6,8.8C55.9,53,56.4,52.1,56.8,51.3z"/>
		<path class="st0" d="M44.5,63.2l-7.1-13.6c-0.9,0.5-1.8,0.8-2.8,1.1l4.2,14.7C40.7,64.9,42.7,64.1,44.5,63.2z"/>
		<path class="st0" d="M59.1,46.4l-14.5-5.1c-0.2,0.5-0.3,0.9-0.5,1.4L58,49.1C58.4,48.2,58.7,47.3,59.1,46.4z"/>
		<path class="st0" d="M60.8,35.5H45.4c0.1,0.7,0.1,1.4,0,2.1l15.3,1.2C60.8,37.7,60.8,36.6,60.8,35.5z"/>
		<path class="st0" d="M60.5,41.2l-15.2-2.4c-0.1,0.5-0.2,1-0.3,1.4l14.8,3.9C60,43.1,60.3,42.2,60.5,41.2z"/>
		<path class="st0" d="M53.8,55.8L42,46c-0.4,0.3-0.7,0.7-1,1.1l10.8,10.8C52.5,57.2,53.2,56.5,53.8,55.8z"/>
		<path class="st0" d="M50.1,59.4l-10-11.7c-0.5,0.5-1.1,0.9-1.7,1.2l8.3,13C47.9,61.2,49.1,60.3,50.1,59.4z"/>
	</g>
</g>
</svg>
