<?xml version="1.0" encoding="utf-8"?>
<!-- Generator: Adobe Illustrator 23.0.6, SVG Export Plug-In . SVG Version: 6.00 Build 0)  -->
<svg version="1.1" id="Layer_1" xmlns="http://www.w3.org/2000/svg" xmlns:xlink="http://www.w3.org/1999/xlink" x="0px" y="0px"
	 viewBox="0 0 512 512" style="enable-background:new 0 0 512 512;" xml:space="preserve">
<style type="text/css">
	.st0{fill:#FFFFFF;}
</style>
<path class="st0" d="M8,256C8,119,119,8,256,8s248,111,248,248S393,504,256,504S8,393,8,256z M239,142.1L103.5,277.6
	c-9.4,9.4-9.4,24.6,0,33.9l17,17c9.4,9.4,24.6,9.4,33.9,0L256,226.9l101.6,101.6c9.4,9.4,24.6,9.4,33.9,0l17-17
	c9.4-9.4,9.4-24.6,0-33.9L273,142.1C263.6,132.7,248.4,132.7,239,142.1z"/>
</svg>
