<?xml version="1.0" encoding="utf-8"?>
<!-- Generator: Adobe Illustrator 23.0.6, SVG Export Plug-In . SVG Version: 6.00 Build 0)  -->
<svg version="1.1" id="Layer_1" xmlns="http://www.w3.org/2000/svg" xmlns:xlink="http://www.w3.org/1999/xlink" x="0px" y="0px"
	 viewBox="0 0 512 512" style="enable-background:new 0 0 512 512;" xml:space="preserve">
<style type="text/css">
	.st0{fill:#FFFFFF;}
</style>
<path class="st0" d="M504,256c0,137-111,248-248,248S8,393,8,256S119,8,256,8S504,119,504,256z M273,369.9l135.5-135.5
	c9.4-9.4,9.4-24.6,0-33.9l-17-17c-9.4-9.4-24.6-9.4-33.9,0L256,285.1L154.4,183.5c-9.4-9.4-24.6-9.4-33.9,0l-17,17
	c-9.4,9.4-9.4,24.6,0,33.9L239,369.9C248.4,379.3,263.6,379.3,273,369.9z"/>
</svg>
