<?xml version="1.0" encoding="utf-8"?>
<!-- Generator: Adobe Illustrator 23.0.6, SVG Export Plug-In . SVG Version: 6.00 Build 0)  -->
<svg version="1.1" id="Layer_1" xmlns="http://www.w3.org/2000/svg" xmlns:xlink="http://www.w3.org/1999/xlink" x="0px" y="0px"
	 viewBox="0 0 108.8 108.8" style="enable-background:new 0 0 108.8 108.8;" xml:space="preserve">
<style type="text/css">
	.st0{fill:#FFFFFF;}
</style>
<title>Asset 112</title>
<g>
	<g id="_Layer_">
		<path class="st0" d="M101.9,80.9c4.5-8.1,6.9-17.3,6.9-26.6c0-3.4-0.3-6.8-1-10.2l-0.6,0.1c0.7,3.3,1,6.7,1,10.1
			c0,9.2-2.3,18.2-6.8,26.3L101.9,80.9z"/>
		<rect x="82.2" y="47" transform="matrix(0.9851 -0.1721 0.1721 0.9851 -6.7226 17.08)" class="st0" width="25.9" height="0.6"/>
		<rect x="94.5" y="49.4" transform="matrix(0.9946 -0.1037 0.1037 0.9946 -4.5904 10.7839)" class="st0" width="14" height="0.4"/>
		<polygon class="st0" points="108.7,52.4 94.7,52.9 94.7,53.3 108.7,52.8 		"/>
		
			<rect x="101.7" y="49.2" transform="matrix(3.996804e-02 -0.9992 0.9992 3.996804e-02 41.6711 155.8257)" class="st0" width="0.4" height="14"/>
		<polygon class="st0" points="94.5,58.6 94.5,58.9 108.4,60.4 108.4,60.1 		"/>
		
			<rect x="97.6" y="52" transform="matrix(0.1761 -0.9844 0.9844 0.1761 19.3493 147.5163)" class="st0" width="0.5" height="20.4"/>
		<rect x="100.1" y="59" transform="matrix(0.2465 -0.9691 0.9691 0.2465 11.5618 146.9243)" class="st0" width="0.4" height="14"/>
		<rect x="99.2" y="62.2" transform="matrix(0.3128 -0.9498 0.9498 0.3128 2.5282 141.9026)" class="st0" width="0.4" height="14"/>
		<polygon class="st0" points="91.8,69.5 91.7,69.8 104.6,75.1 104.7,74.8 		"/>
		
			<rect x="96.7" y="68.3" transform="matrix(0.4431 -0.8965 0.8965 0.4431 -13.602 128.7645)" class="st0" width="0.4" height="14"/>
		<path class="st0" d="M73.5,104.7l0.2,0.6c12-4.6,21.9-13.2,28.2-24.3l-0.5-0.3l0,0C95.2,91.7,85.4,100.2,73.5,104.7z"/>
		
			<rect x="89.9" y="62.2" transform="matrix(0.5021 -0.8648 0.8648 0.5021 -20.1019 115.3987)" class="st0" width="0.6" height="25.9"/>
		<rect x="93.4" y="74" transform="matrix(0.5621 -0.8271 0.8271 0.5621 -25.9824 112.8345)" class="st0" width="0.4" height="14"/>
		<rect x="92" y="76.6" transform="matrix(0.6174 -0.7867 0.7867 0.6174 -30.5253 104.485)" class="st0" width="0.4" height="14"/>
		<polygon class="st0" points="84.4,81.3 84.2,81.6 94.5,91 94.8,90.7 		"/>
		<rect x="87" y="81.5" transform="matrix(0.7207 -0.6933 0.6933 0.7207 -37.0264 85.159)" class="st0" width="0.4" height="14"/>
		
			<rect x="82.4" y="78.1" transform="matrix(0.7681 -0.6404 0.6404 0.7681 -37.3604 73.3859)" class="st0" width="0.5" height="20.4"/>
		
			<rect x="81.9" y="85.8" transform="matrix(0.8101 -0.5862 0.5862 0.8101 -38.8006 65.7314)" class="st0" width="0.4" height="14"/>
		<rect x="79.1" y="87.6" transform="matrix(0.8503 -0.5264 0.5264 0.8503 -37.921 55.9217)" class="st0" width="0.4" height="14"/>
		<polygon class="st0" points="73.4,90 73,90.2 79.5,102.5 79.9,102.4 		"/>
		<rect x="73.3" y="90.7" transform="matrix(0.9165 -0.4 0.4 0.9165 -32.951 37.5455)" class="st0" width="0.4" height="14"/>
		<path class="st0" d="M73.5,104.7L73.5,104.7c-6.1,2.3-12.6,3.5-19.2,3.5c-6,0-12-1-17.6-3l-0.2,0.6c5.7,2,11.8,3,17.8,3
			c6.6,0,13.2-1.2,19.4-3.6L73.5,104.7z"/>
		<polygon class="st0" points="64.4,81 63.8,81.2 72.6,105.6 73.1,105.4 		"/>
		<rect x="67.2" y="92.9" transform="matrix(0.962 -0.2731 0.2731 0.962 -24.7255 22.1918)" class="st0" width="0.4" height="14"/>
		<rect x="63.9" y="93.7" transform="matrix(0.9787 -0.2054 0.2054 0.9787 -19.3113 15.313)" class="st0" width="0.4" height="14"/>
		<rect x="60.7" y="94.3" transform="matrix(0.9908 -0.1352 0.1352 0.9908 -13.1313 9.1593)" class="st0" width="0.4" height="14"/>
		<polygon class="st0" points="57.3,94.6 56.9,94.6 57.9,108.6 58.2,108.5 		"/>
		
			<rect x="44.1" y="98.3" transform="matrix(2.268878e-03 -1 1 2.268878e-03 -44.3586 152.5378)" class="st0" width="20.4" height="0.5"/>
		
			<rect x="44" y="101.4" transform="matrix(7.271596e-02 -0.9974 0.9974 7.271596e-02 -54.0824 145.015)" class="st0" width="14" height="0.4"/>
		<polygon class="st0" points="48.5,94.3 46.5,108.1 46.8,108.2 48.8,94.3 		"/>
		<polygon class="st0" points="45.7,93.8 42.7,107.4 43.1,107.5 46,93.9 		"/>
		
			<rect x="34.2" y="99.6" transform="matrix(0.2807 -0.9598 0.9598 0.2807 -66.1891 111.322)" class="st0" width="14" height="0.4"/>
		<path class="st0" d="M36.7,105.2L36.7,105.2c-11.9-4.2-22-12.4-28.5-23.2l-0.5,0.3c6.6,11,16.8,19.3,28.9,23.5L36.7,105.2z"/>
		
			<rect x="27.3" y="92.9" transform="matrix(0.3446 -0.9387 0.9387 0.3446 -61.1904 98.835)" class="st0" width="25.9" height="0.6"/>
		<rect x="28.1" y="97.4" transform="matrix(0.4094 -0.9123 0.9123 0.4094 -68.306 89.6236)" class="st0" width="14" height="0.4"/>
		
			<rect x="25.1" y="95.9" transform="matrix(0.4724 -0.8814 0.8814 0.4724 -67.7715 79.0037)" class="st0" width="14" height="0.4"/>
		<polygon class="st0" points="32.8,88.4 25.4,100.3 25.7,100.4 33.1,88.6 		"/>
		
			<rect x="19.5" y="92.4" transform="matrix(0.5899 -0.8075 0.8075 0.5899 -63.8986 59.3667)" class="st0" width="14" height="0.4"/>
		
			<rect x="15.8" y="87.8" transform="matrix(0.6448 -0.7644 0.7644 0.6448 -58.098 51.1393)" class="st0" width="20.4" height="0.5"/>
		<rect x="14.7" y="88.4" transform="matrix(0.6971 -0.717 0.717 0.6971 -56.9274 42.4111)" class="st0" width="14" height="0.4"/>
		<rect x="12.2" y="85.7" transform="matrix(0.745 -0.6671 0.6671 0.745 -52.4337 34.676)" class="st0" width="14" height="0.4"/>
		<rect x="10" y="83.2" transform="matrix(0.7899 -0.6132 0.6132 0.7899 -47.5509 27.9521)" class="st0" width="14" height="0.4"/>
		<rect x="8.1" y="80.5" transform="matrix(0.8312 -0.556 0.556 0.8312 -42.3185 22.0091)" class="st0" width="14" height="0.4"/>
		<path class="st0" d="M0.7,45.7C0.2,48.6,0,51.5,0,54.3c0,9.9,2.6,19.5,7.7,28L8.2,82C1.7,71.1-0.7,58.3,1.3,45.8L0.7,45.7z"/>
		<rect x="5.6" y="74.7" transform="matrix(0.867 -0.4983 0.4983 0.867 -34.9233 19.221)" class="st0" width="25.9" height="0.6"/>
		<polygon class="st0" points="18,71.8 5.5,77.9 5.6,78.3 18.2,72.2 		"/>
		<polygon class="st0" points="16.9,69.3 4,74.4 4.1,74.8 17.1,69.6 		"/>
		<rect x="2.4" y="68.7" transform="matrix(0.9523 -0.3052 0.3052 0.9523 -20.58 6.1532)" class="st0" width="14" height="0.4"/>
		<rect x="1.5" y="65.5" transform="matrix(0.9713 -0.238 0.238 0.9713 -15.3977 3.9064)" class="st0" width="14" height="0.4"/>
		<rect x="0.7" y="62" transform="matrix(0.9856 -0.1692 0.1692 0.9856 -10.3721 2.7569)" class="st0" width="20.5" height="0.5"/>
		<rect x="0.4" y="59" transform="matrix(0.9948 -0.1021 0.1021 0.9948 -6.0048 1.0602)" class="st0" width="14" height="0.4"/>
		
			<rect x="0.2" y="55.7" transform="matrix(0.9995 -3.210854e-02 3.210854e-02 0.9995 -1.7909 0.2578)" class="st0" width="14" height="0.4"/>
		
			<rect x="7" y="45.6" transform="matrix(3.769025e-02 -0.9993 0.9993 3.769025e-02 -45.6761 57.7215)" class="st0" width="0.4" height="14"/>
		<rect x="7.2" y="42.3" transform="matrix(0.1082 -0.9941 0.9941 0.1082 -42.4017 51.278)" class="st0" width="0.4" height="14"/>
		<path class="st0" d="M19.2,13.7l-0.4-0.4C9.2,21.6,2.7,33.1,0.7,45.7l0.6,0.1C3.3,33.4,9.7,22,19.2,13.7z"/>
		
			<rect x="13.4" y="34.2" transform="matrix(0.1752 -0.9845 0.9845 0.1752 -35.1237 52.3787)" class="st0" width="0.6" height="25.9"/>
		<polygon class="st0" points="1.8,41 1.7,41.3 15.3,44.7 15.4,44.4 		"/>
		<rect x="9.3" y="32.7" transform="matrix(0.313 -0.9498 0.9498 0.313 -31.1845 36.2389)" class="st0" width="0.4" height="14"/>
		
			<rect x="10.4" y="29.6" transform="matrix(0.3778 -0.9259 0.9259 0.3778 -27.2538 32.5703)" class="st0" width="0.4" height="14"/>
		<polygon class="st0" points="5.8,30.3 5.6,30.6 18.1,36.8 18.3,36.5 		"/>
		<polygon class="st0" points="7.6,26.9 7.4,27.3 25,37.6 25.3,37.2 		"/>
		
			<rect x="15.1" y="20.8" transform="matrix(0.5621 -0.8271 0.8271 0.5621 -16.3184 24.8334)" class="st0" width="0.4" height="14"/>
		
			<rect x="17.1" y="18.2" transform="matrix(0.6185 -0.7857 0.7857 0.6185 -13.1827 23.1498)" class="st0" width="0.4" height="14"/>
		<polygon class="st0" points="14.3,17.8 14.1,18.1 24.4,27.4 24.7,27.2 		"/>
		<rect x="21.5" y="13.3" transform="matrix(0.7219 -0.692 0.692 0.7219 -7.9795 20.6419)" class="st0" width="0.4" height="14"/>
		<path class="st0" d="M53.6,0.6V0C40.8,0.2,28.5,4.9,18.8,13.3l0.4,0.4l0,0C28.8,5.4,41,0.8,53.6,0.6z"/>
		<rect x="27.6" y="9.7" transform="matrix(0.7667 -0.642 0.642 0.7667 -8.0493 23.197)" class="st0" width="0.6" height="25.9"/>
		<rect x="26.5" y="9.1" transform="matrix(0.809 -0.5878 0.5878 0.809 -4.3559 18.7558)" class="st0" width="0.4" height="14"/>
		<polygon class="st0" points="25.9,8.2 25.6,8.4 33,20.3 33.3,20.1 		"/>
		<rect x="32.1" y="5.6" transform="matrix(0.885 -0.4656 0.4656 0.885 -2.1376 16.495)" class="st0" width="0.4" height="14"/>
		<rect x="35.1" y="4.2" transform="matrix(0.9146 -0.4043 0.4043 0.9146 -1.4922 15.2251)" class="st0" width="0.4" height="14"/>
		<polygon class="st0" points="36.3,3.3 35.8,3.4 42.7,22.6 43.2,22.5 		"/>
		<rect x="41.4" y="1.9" transform="matrix(0.9627 -0.2704 0.2704 0.9627 -0.8603 11.5653)" class="st0" width="0.4" height="14"/>
		<rect x="44.6" y="1.1" transform="matrix(0.9793 -0.2023 0.2023 0.9793 -0.7156 9.2185)" class="st0" width="0.4" height="14"/>
		<polygon class="st0" points="47.2,0.6 46.9,0.7 48.8,14.5 49.1,14.4 		"/>
		
			<rect x="51.1" y="0.2" transform="matrix(0.9977 -6.749289e-02 6.749289e-02 0.9977 -0.3697 3.4788)" class="st0" width="0.4" height="14"/>
		<path class="st0" d="M88.4,12.7l0.4-0.5C79.1,4.4,67,0,54.6,0h-1v0.6h1C66.9,0.7,78.8,4.9,88.4,12.7z"/>
		<rect x="54.2" y="0.1" class="st0" width="0.6" height="25.9"/>
		<polygon class="st0" points="58.1,0.2 57.1,14.2 57.5,14.2 58.5,0.3 		"/>
		<polygon class="st0" points="61.9,0.6 59.9,14.5 60.3,14.5 62.3,0.7 		"/>
		<rect x="57.4" y="8" transform="matrix(0.2112 -0.9775 0.9775 0.2112 42.7939 69.3586)" class="st0" width="14" height="0.4"/>
		<polygon class="st0" points="69.4,2.2 65.5,15.6 65.8,15.7 69.7,2.3 		"/>
		
			<rect x="59.4" y="12.8" transform="matrix(0.3461 -0.9382 0.9382 0.3461 33.2875 73.8433)" class="st0" width="20.4" height="0.5"/>
		<rect x="66.8" y="11.1" transform="matrix(0.4109 -0.9117 0.9117 0.4109 33.1939 73.9245)" class="st0" width="14" height="0.4"/>
		<rect x="69.8" y="12.6" transform="matrix(0.4735 -0.8808 0.8808 0.4735 29.2031 74.3377)" class="st0" width="14" height="0.4"/>
		<polygon class="st0" points="83.2,8.4 75.8,20.2 76.1,20.4 83.5,8.6 		"/>
		<rect x="75.4" y="16.1" transform="matrix(0.591 -0.8067 0.8067 0.591 20.568 73.0924)" class="st0" width="14" height="0.4"/>
		<path class="st0" d="M107.8,44.2c-2.4-12.6-9.2-23.9-19.1-32l-0.4,0.5c9.8,8,16.5,19.2,18.9,31.6L107.8,44.2z"/>
		
			<rect x="68.1" y="22.5" transform="matrix(0.6437 -0.7653 0.7653 0.6437 11.4368 70.1378)" class="st0" width="25.9" height="0.6"/>
		<rect x="80.4" y="20.3" transform="matrix(0.6955 -0.7185 0.7185 0.6955 11.8854 68.9777)" class="st0" width="14" height="0.4"/>
		<polygon class="st0" points="94.7,18 84.3,27.4 84.6,27.6 94.9,18.3 		"/>
		<rect x="84.8" y="25.2" transform="matrix(0.7892 -0.6141 0.6141 0.7892 3.7484 61.7069)" class="st0" width="14" height="0.4"/>
		<rect x="86.7" y="27.9" transform="matrix(0.8305 -0.557 0.557 0.8305 0.2421 56.9541)" class="st0" width="14" height="0.4"/>
		
			<rect x="82.5" y="32.3" transform="matrix(0.8677 -0.4971 0.4971 0.8677 -3.8942 50.3641)" class="st0" width="20.4" height="0.5"/>
		<rect x="90" y="33.6" transform="matrix(0.9005 -0.4349 0.4349 0.9005 -5.0573 45.5531)" class="st0" width="14" height="0.4"/>
		<rect x="91.3" y="36.7" transform="matrix(0.9289 -0.3702 0.3702 0.9289 -6.6615 39.0245)" class="st0" width="14" height="0.4"/>
		<rect x="92.5" y="39.8" transform="matrix(0.9527 -0.304 0.304 0.9527 -7.4449 32.1275)" class="st0" width="14" height="0.4"/>
		<rect x="93.4" y="43" transform="matrix(0.9715 -0.237 0.237 0.9715 -7.3715 25.0142)" class="st0" width="14" height="0.4"/>
	</g>
</g>
</svg>
