<?xml version="1.0" encoding="utf-8"?>
<!-- Generator: Adobe Illustrator 23.0.6, SVG Export Plug-In . SVG Version: 6.00 Build 0)  -->
<svg version="1.1" id="Layer_1" xmlns="http://www.w3.org/2000/svg" xmlns:xlink="http://www.w3.org/1999/xlink" x="0px" y="0px"
	 viewBox="0 0 135 124.8" style="enable-background:new 0 0 135 124.8;" xml:space="preserve">
<style type="text/css">
	.st0{fill:#FFFFFF;}
</style>
<title>Asset 120</title>
<g>
	<g id="_Layer_">
		<rect x="67.4" y="34.5" class="st0" width="0.5" height="1"/>
		<rect x="63.2" y="34.9" transform="matrix(0.9853 -0.1709 0.1709 0.9853 -5.1253 11.3636)" class="st0" width="0.5" height="1"/>
		<rect x="60" y="35.8" transform="matrix(0.9395 -0.3425 0.3425 0.9395 -8.8024 22.8359)" class="st0" width="0.5" height="1"/>
		<rect x="56.6" y="37.4" transform="matrix(0.8663 -0.4995 0.4995 0.8663 -11.3444 33.4671)" class="st0" width="0.5" height="1"/>
		<rect x="53.5" y="39.6" transform="matrix(0.766 -0.6428 0.6428 0.766 -13.1867 43.9383)" class="st0" width="0.5" height="1"/>
		<rect x="50.9" y="42.2" transform="matrix(0.6408 -0.7677 0.7677 0.6408 -14.4491 54.5948)" class="st0" width="0.5" height="1"/>
		<rect x="48.7" y="45.3" transform="matrix(0.4995 -0.8663 0.8663 0.4995 -15.1906 65.3517)" class="st0" width="0.5" height="1"/>
		<polygon class="st0" points="47,48.8 46.8,49.3 47.8,49.6 48,49.2 		"/>
		<polygon class="st0" points="45.9,52.5 45.8,53 46.9,53.2 47,52.7 		"/>
		<polygon class="st0" points="46.6,56.3 45.6,56.3 45.6,56.8 46.6,56.8 		"/>
		<rect x="45.9" y="60.1" transform="matrix(0.9843 -0.1762 0.1762 0.9843 -9.9067 9.1221)" class="st0" width="1" height="0.5"/>
		<polygon class="st0" points="47.8,63.5 46.8,63.9 47,64.4 48,64 		"/>
		<polygon class="st0" points="49.3,66.9 48.4,67.4 48.6,67.8 49.5,67.3 		"/>
		<rect x="50.6" y="70.2" transform="matrix(0.7648 -0.6443 0.6443 0.7648 -33.3516 49.4977)" class="st0" width="1" height="0.5"/>
		<rect x="53.3" y="72.8" transform="matrix(0.6413 -0.7673 0.7673 0.6413 -36.7898 67.4804)" class="st0" width="1" height="0.5"/>
		<rect x="56.3" y="75" transform="matrix(0.4964 -0.8681 0.8681 0.4964 -36.6966 87.2537)" class="st0" width="1" height="0.5"/>
		<rect x="59.7" y="76.6" transform="matrix(0.3391 -0.9408 0.9408 0.3391 -32.457 107.4614)" class="st0" width="1" height="0.5"/>
		
			<rect x="63.4" y="77.6" transform="matrix(0.1695 -0.9855 0.9855 0.1695 -23.6238 127.5724)" class="st0" width="1" height="0.5"/>
		<rect x="67.1" y="77.9" class="st0" width="0.5" height="1"/>
		<rect x="71.1" y="77.3" transform="matrix(0.9838 -0.1795 0.1795 0.9838 -12.8068 14.0714)" class="st0" width="0.5" height="1"/>
		<rect x="74.7" y="76.3" transform="matrix(0.9389 -0.3443 0.3443 0.9389 -21.8642 30.5161)" class="st0" width="0.5" height="1"/>
		<polygon class="st0" points="78.3,74.7 77.9,74.9 78.4,75.8 78.9,75.6 		"/>
		<rect x="81.2" y="72.6" transform="matrix(0.7624 -0.6471 0.6471 0.7624 -27.934 70.0763)" class="st0" width="0.5" height="1"/>
		<rect x="83.9" y="69.9" transform="matrix(0.6417 -0.7669 0.7669 0.6417 -23.8707 89.7491)" class="st0" width="0.5" height="1"/>
		<rect x="86" y="66.8" transform="matrix(0.4995 -0.8663 0.8663 0.4995 -15.1774 108.4603)" class="st0" width="0.5" height="1"/>
		<polygon class="st0" points="87.5,63.5 87.3,64 88.3,64.4 88.4,63.9 		"/>
		<polygon class="st0" points="88.4,60 88.3,60.5 89.3,60.7 89.4,60.2 		"/>
		<polygon class="st0" points="89.7,56.3 88.6,56.3 88.7,56.8 89.7,56.8 		"/>
		<polygon class="st0" points="89.3,52.5 88.3,52.7 88.4,53.2 89.4,53 		"/>
		<rect x="87.3" y="49" transform="matrix(0.9397 -0.342 0.342 0.9397 -11.5329 33.0185)" class="st0" width="1" height="0.5"/>
		<polygon class="st0" points="86.6,45.3 85.7,45.9 85.9,46.3 86.8,45.8 		"/>
		<rect x="83.6" y="42.5" transform="matrix(0.7648 -0.6443 0.6443 0.7648 -7.7529 64.2485)" class="st0" width="1" height="0.5"/>
		<rect x="81" y="39.8" transform="matrix(0.6424 -0.7664 0.7664 0.6424 -1.581 76.7715)" class="st0" width="1" height="0.5"/>
		<rect x="77.9" y="37.7" transform="matrix(0.4988 -0.8667 0.8667 0.4988 6.4117 86.9609)" class="st0" width="1" height="0.5"/>
		<rect x="74.4" y="36.1" transform="matrix(0.3401 -0.9404 0.9404 0.3401 15.2875 94.3964)" class="st0" width="1" height="0.5"/>
		<polygon class="st0" points="71.2,34.8 71,35.8 71.5,35.9 71.7,34.9 		"/>
		<path class="st0" d="M67.6,37.5c6.9,0,13.2,3.6,16.7,9.6l0.4-0.3c-5.6-9.5-17.7-12.7-27.2-7.1c-1.4,0.8-2.7,1.8-3.9,3
			c-7.7,7.6-7.7,20-0.1,27.6c0.7,0.8,1.5,1.4,2.4,2.1l0.3-0.4c-8.5-6.2-10.4-18-4.2-26.5c0.6-0.9,1.3-1.6,2.1-2.4
			C57.6,39.5,62.5,37.5,67.6,37.5z"/>
		
			<rect x="64.4" y="38.7" transform="matrix(0.9848 -0.1738 0.1738 0.9848 -5.9829 11.8517)" class="st0" width="0.5" height="2.8"/>
		<rect x="63.3" y="39" transform="matrix(0.9659 -0.2589 0.2589 0.9659 -8.3044 17.834)" class="st0" width="0.5" height="2.8"/>
		
			<rect x="61.6" y="39.4" transform="matrix(0.9389 -0.3443 0.3443 0.9389 -10.2804 23.7938)" class="st0" width="0.5" height="2.8"/>
		<rect x="60.3" y="40" transform="matrix(0.9066 -0.422 0.422 0.9066 -11.8185 29.3973)" class="st0" width="0.5" height="2.8"/>
		<rect x="59" y="40.7" transform="matrix(0.8653 -0.5012 0.5012 0.8653 -13.1104 35.3429)" class="st0" width="0.5" height="2.8"/>
		
			<rect x="57.7" y="41.5" transform="matrix(0.8193 -0.5734 0.5734 0.8193 -14.0975 40.9894)" class="st0" width="0.5" height="2.8"/>
		
			<rect x="56.6" y="42.3" transform="matrix(0.7649 -0.6441 0.6441 0.7649 -14.8166 46.879)" class="st0" width="0.5" height="2.8"/>
		
			<rect x="55.5" y="43.3" transform="matrix(0.7071 -0.7071 0.7071 0.7071 -15.2955 52.5146)" class="st0" width="0.5" height="2.8"/>
		<polygon class="st0" points="53.9,44.7 53.5,45.1 55.7,46.9 56,46.5 		"/>
		
			<rect x="53.6" y="45.6" transform="matrix(0.5734 -0.8193 0.8193 0.5734 -15.4863 64.166)" class="st0" width="0.5" height="2.8"/>
		
			<rect x="52.9" y="46.8" transform="matrix(0.4995 -0.8663 0.8663 0.4995 -15.1753 70.1203)" class="st0" width="0.5" height="2.8"/>
		<polygon class="st0" points="51.3,48.7 51,49.1 53.6,50.3 53.8,49.8 		"/>
		<polygon class="st0" points="50.6,50.1 50.5,50.6 53.1,51.5 53.3,51.1 		"/>
		
			<rect x="51.2" y="50.8" transform="matrix(0.2613 -0.9652 0.9652 0.2613 -12.4134 88.2104)" class="st0" width="0.5" height="2.8"/>
		<polygon class="st0" points="49.8,53.1 49.7,53.6 52.4,54.1 52.5,53.6 		"/>
		
			<rect x="50.7" y="53.7" transform="matrix(8.593860e-02 -0.9963 0.9963 8.593860e-02 -8.3421 101.0728)" class="st0" width="0.5" height="2.8"/>
		<rect x="49.5" y="56.3" class="st0" width="2.8" height="0.5"/>
		<polygon class="st0" points="52.3,57.6 49.5,57.9 49.5,58.4 52.3,58.1 		"/>
		<polygon class="st0" points="52.4,59 49.7,59.4 49.8,59.9 52.5,59.4 		"/>
		<polygon class="st0" points="52.7,60.3 50,61 50.1,61.5 52.8,60.7 		"/>
		<polygon class="st0" points="53.1,61.5 50.5,62.5 50.6,63 53.3,62 		"/>
		<rect x="51" y="63.4" transform="matrix(0.9063 -0.4226 0.4226 0.9063 -21.9741 28.1146)" class="st0" width="2.8" height="0.5"/>
		<rect x="51.7" y="64.6" transform="matrix(0.866 -0.5 0.5 0.866 -25.3358 35.2404)" class="st0" width="2.8" height="0.5"/>
		
			<rect x="52.5" y="65.9" transform="matrix(0.8193 -0.5734 0.5734 0.8193 -28.1814 42.8455)" class="st0" width="2.8" height="0.5"/>
		<polygon class="st0" points="55.7,66.2 53.5,68 53.8,68.4 56,66.6 		"/>
		
			<rect x="54.3" y="68.1" transform="matrix(0.7067 -0.7075 0.7075 0.7067 -32.0125 59.4807)" class="st0" width="2.8" height="0.5"/>
		
			<rect x="55.4" y="69.1" transform="matrix(0.6435 -0.7655 0.7655 0.6435 -32.8352 68.2223)" class="st0" width="2.8" height="0.5"/>
		<rect x="56.6" y="70" transform="matrix(0.5731 -0.8195 0.8195 0.5731 -32.8064 77.4918)" class="st0" width="2.8" height="0.5"/>
		
			<rect x="57.8" y="70.8" transform="matrix(0.5002 -0.8659 0.8659 0.5002 -31.9002 86.7732)" class="st0" width="2.8" height="0.5"/>
		
			<rect x="59.1" y="71.4" transform="matrix(0.4229 -0.9062 0.9062 0.4229 -30.0478 96.1912)" class="st0" width="2.8" height="0.5"/>
		
			<rect x="60.5" y="72" transform="matrix(0.3423 -0.9396 0.9396 0.3423 -27.2224 105.6307)" class="st0" width="2.8" height="0.5"/>
		<rect x="61.8" y="72.4" transform="matrix(0.259 -0.9659 0.9659 0.259 -23.3433 114.94)" class="st0" width="2.8" height="0.5"/>
		
			<rect x="63.3" y="72.8" transform="matrix(0.1733 -0.9849 0.9849 0.1733 -18.4417 124.0326)" class="st0" width="2.8" height="0.5"/>
		<polygon class="st0" points="66,71.8 65.7,74.6 66.2,74.6 66.5,71.8 		"/>
		<path class="st0" d="M40.3,68.8l0.2-0.1c0-0.1-0.1-0.1-0.1-0.2l-0.2,0.1L40.3,68.8z"/>
		<path class="st0" d="M37.6,56.3v0.3h0.3c0-0.1,0-0.2,0-0.3L37.6,56.3z"/>
		<path class="st0" d="M45.8,66.4l-0.1-0.2l-0.2,0.1c0,0.1,0.1,0.2,0.1,0.2L45.8,66.4z"/>
		<polygon class="st0" points="43.7,56.6 43.7,56.6 44,56.6 44,56.6 44,56.6 		"/>
		<path class="st0" d="M44,56.1L37.4,56v0.3c0,0.1,0,0.2,0,0.3c0,4.3,0.9,8.5,2.7,12.3l0.1,0.2l6-2.7L46,66.2c-1.4-3-2.1-6.3-2-9.6
			h-0.3l0,0h-0.3c0,3.3,0.7,6.6,2.1,9.6l0.2-0.1l0.1,0.2l-0.2,0.1c0-0.1-0.1-0.2-0.1-0.2l-5.1,2.3c0,0.1,0.1,0.1,0.1,0.2l-0.2,0.1
			l-0.1-0.2l0.2-0.1c-1.7-3.7-2.5-7.8-2.5-11.9l0,0h-0.3v-0.3h0.3c0,0.1,0,0.2,0,0.3l5.6,0.1l0,0l0,0v-0.2h0.3v0.2H44V56.1L44,56.1z
			"/>
		<polygon class="st0" points="43.7,56.6 43.7,56.6 43.7,56.6 		"/>
		<path class="st0" d="M43.5,56.6L43.5,56.6h0.3l0,0H43.5z"/>
		<polygon class="st0" points="43.7,56.6 43.7,56.4 43.5,56.4 43.5,56.6 43.5,56.6 43.7,56.6 		"/>
		<path class="st0" d="M94.8,40.8L94.6,41c0,0.1,0.1,0.1,0.1,0.2l0.2-0.1L94.8,40.8z"/>
		<path class="st0" d="M89.3,44l0.1,0.2l0.2-0.1l-0.1-0.2L89.3,44z"/>
		<path class="st0" d="M91.4,49.4l0.2-0.1l-0.1-0.2l-0.1-0.2l0.2-0.1c-0.5-1.6-1.2-3.2-2.1-4.7l-0.2,0.1L89.3,44l0.2-0.1l0.1,0.2
			l5.1-3c0-0.1-0.1-0.1-0.1-0.2l0.2-0.1l0.1,0.2l-0.2,0.1c1.1,1.9,2,3.8,2.6,5.9l0.3-0.1l0.1,0.2l-0.2,0.1L97.3,47l-5.6,1.8
			c0,0.1,0.1,0.2,0.1,0.2L91.6,49l0.1,0.2l6.3-2L97.9,47c-0.7-2.2-1.7-4.3-2.9-6.3l-0.1-0.2l-6,3.5l0.1,0.2c0.9,1.6,1.7,3.3,2.3,5
			L91.4,49.4z"/>
		<path class="st0" d="M97.7,47.2L97.6,47l-0.3,0.1l0.1,0.2L97.7,47.2z"/>
		<path class="st0" d="M91.7,48.8l-0.2,0.1l0.1,0.2l0.2-0.1C91.8,49,91.8,48.9,91.7,48.8z"/>
		<path class="st0" d="M90.7,79.5c6.1-6.1,9.6-14.3,9.6-22.9v-0.2h-0.5v0.2c0,8.5-3.4,16.6-9.4,22.6c-12.7,12.6-33.1,12.5-45.7-0.2
			c-3.1-3.1-5.5-6.9-7.1-11l-0.5,0.2C43.6,85,62.6,93.3,79.5,86.8C83.7,85.1,87.5,82.7,90.7,79.5z"/>
		<path class="st0" d="M60.3,85.9l0.2,0.1l0.1-0.3l-0.3-0.1L60.3,85.9z"/>
		<path class="st0" d="M81.8,83.3l-0.1-0.2l-0.2,0.1l0.1,0.2L81.8,83.3z"/>
		<path class="st0" d="M80.7,81.3l-0.2,0.1l0.1,0.2l0.2-0.1L80.7,81.3z"/>
		<path class="st0" d="M60.8,83.7l-0.1,0.2L61,84l0.1-0.2L60.8,83.7z"/>
		<path class="st0" d="M81.9,83.5l0.2-0.1L80.8,81l-0.2,0.1c-4,2.1-8.5,3.2-13,3.2v0.5c4.5,0,9-1.1,13-3.1l-0.1-0.2l0.2-0.1l0.1,0.2
			l-0.2,0.1l0.8,1.6l0.2-0.1l0.1,0.2l-0.2,0.1l-0.1-0.2c-6.4,3.3-13.8,4.2-20.8,2.5L60.5,86l-0.2-0.1l0.1-0.3l0.3,0.1L61,84h-0.3
			l0.1-0.2l0.3,0.1L61,84c2.2,0.5,4.4,0.8,6.6,0.8v-0.5c-2.3,0-4.5-0.3-6.7-0.8l-0.2-0.1L60,86.1l0.2,0.1c2.4,0.6,4.9,0.9,7.4,0.9
			C72.6,87,77.5,85.8,81.9,83.5z"/>
		<path class="st0" d="M86.2,31.3l-0.2,0.2l0.2,0.2l0.2-0.2L86.2,31.3z"/>
		<path class="st0" d="M84.4,33.7l0.2,0.2l0.2-0.2l-0.2-0.2L84.4,33.7z"/>
		<path class="st0" d="M93.2,38.2L93.1,38l-0.2,0.2l0.2,0.2L93.2,38.2z"/>
		<path class="st0" d="M90.5,40.2l0.2,0.2l0.2-0.2L90.8,40l-0.2-0.2l0.2-0.1c-1.7-2.3-3.7-4.3-6-6l-0.2,0.2l-0.2-0.2l0.2-0.2
			l0.2,0.2l1.5-2l-0.2-0.2l0.2-0.2l0.2,0.1l-0.2,0.2c2.5,1.8,4.7,4,6.6,6.5l0.2-0.2l0.2,0.2L93,38.4l-0.2-0.2l-2.1,1.5
			c0,0.1,0.1,0.1,0.2,0.2L90.8,40l0.1,0.2l2.7-1.9l-0.2-0.2c-2-2.7-4.3-5-7-7L86.2,31l-2.1,2.9l0.2,0.2
			C86.7,35.7,88.8,37.8,90.5,40.2z"/>
		<path class="st0" d="M90.8,39.7l-0.2,0.1l0.2,0.2l0.2-0.2C90.9,39.8,90.8,39.7,90.8,39.7z"/>
		<path class="st0" d="M105.2,45.6l-0.1-0.2l-0.3,0.1c0,0.1,0,0.2,0.1,0.2L105.2,45.6z"/>
		<path class="st0" d="M45.4,32.3l0.2-0.2l-0.2-0.2l-0.2,0.2L45.4,32.3z"/>
		<path class="st0" d="M41.3,27.8l0.2,0.2l0.2-0.2l-0.2-0.2L41.3,27.8z"/>
		<path class="st0" d="M67.6,24v-0.5c-8.2,0-16,3-22.2,8.4l0.2,0.2l-0.2,0.2L45.3,32l0.2-0.2l-3.8-4.1L41.5,28l-0.2-0.2l0.2-0.2
			l0.2,0.2C57.8,13.5,82.5,15,96.8,31.1c3.7,4.2,6.5,9.1,8.1,14.4l0.3-0.1l0.1,0.2l-0.2,0.1c0-0.1-0.1-0.2-0.1-0.2L99.5,47
			c0,0.1,0.1,0.2,0.1,0.2l-0.2,0.1l-0.1-0.2l0.2-0.1c-4.3-14-17.3-23.5-31.9-23.5V24c14.5,0,27.3,9.5,31.5,23.4l0.1,0.2l6.3-1.8
			l-0.1-0.2C99.1,24.6,77,12.8,56.2,19.2c-5.6,1.7-10.7,4.6-15,8.4L41,27.8l4.4,4.9l0.2-0.2C51.6,27,59.5,24,67.6,24z"/>
		<path class="st0" d="M99.3,47.3l0.2-0.1c0-0.1,0-0.2-0.1-0.2l-0.2,0.1L99.3,47.3z"/>
		<path class="st0" d="M62.5,91.7h-0.3v0.3h0.2L62.5,91.7z"/>
		<path class="st0" d="M62.1,94.7v-0.3h-0.2v0.3H62.1z"/>
		<path class="st0" d="M33.3,47.5l-3.4-0.9l-0.1,0.2c-0.8,3.2-1.3,6.5-1.3,9.8C28.6,75.9,42.9,92.3,62,95h0.3l0.5-3.5h-0.2
			C45.1,89,32.1,74.2,32.1,56.6h-0.5c0.1,17.7,13.1,32.7,30.6,35.3v-0.3h0.3v0.3h-0.2l-0.4,2.5h0.2v0.3h-0.3v-0.3
			c-18.8-2.8-32.7-18.9-32.8-37.8c0-3.2,0.4-6.3,1.2-9.4L30,47.1l0.1-0.3l0.2,0.1c0,0.1,0,0.2,0,0.2l2.5,0.6l0.1-0.3l0.2,0.1
			l-0.1,0.2l-0.2-0.1c-0.7,2.9-1.1,5.8-1.1,8.8h0.5c0-3,0.4-6,1.1-8.9L33.3,47.5z"/>
		<path class="st0" d="M33,47.6l-0.2-0.1l-0.1,0.3l0.2,0.1L33,47.6z"/>
		<path class="st0" d="M30,46.9L30,47.1l0.3,0.1c0-0.1,0-0.2,0-0.2L30,46.9z"/>
		<path class="st0" d="M36.6,40.1l0.1-0.2l-0.2-0.1L36.4,40L36.6,40.1z"/>
		<path class="st0" d="M33.2,38.4l0.2,0.1l0.1-0.2l-0.2-0.1L33.2,38.4z"/>
		<path class="st0" d="M38.5,37.5l0.1-0.2l-0.2-0.1l-0.1,0.2l-0.1,0.2l-0.2-0.1c-0.5,0.8-1,1.6-1.4,2.4l0.2,0.1l-0.1,0.2L36.4,40
			l0.1-0.2l-2.9-1.5l-0.1,0.2l-0.2-0.1l0.1-0.2l0.2,0.1c0.5-0.9,1-1.8,1.6-2.6l-0.2-0.1l0.1-0.2l0.2,0.1c0,0.1-0.1,0.1-0.1,0.2
			l2.8,1.8l0.1-0.2l0.2,0.1l0.1-0.2L35,35l-0.1,0.2c-0.7,1-1.3,2-1.9,3.1l-0.1,0.2l3.8,2l0.1-0.2C37.3,39.3,37.9,38.4,38.5,37.5z"/>
		<path class="st0" d="M35.1,35.3l-0.1,0.2l0.2,0.1c0-0.1,0.1-0.2,0.1-0.2L35.1,35.3z"/>
		<path class="st0" d="M37.9,37.4l0.2,0.1l0.1-0.2L38,37.2L37.9,37.4z"/>
		<path class="st0" d="M66.9,9.8V9.3C42.4,9.6,22.1,28.4,20.1,52.8h0.5C22.6,28.7,42.6,10,66.9,9.8z"/>
		<path class="st0" d="M17.7,40c-6.6,19.6-0.9,41.3,14.5,55.2l0.3-0.4C17.3,81.1,11.7,59.6,18.2,40.2L17.7,40z"/>
		<path class="st0" d="M34.1,81.7L34,81.5l-0.2,0.2l0.2,0.2L34.1,81.7z"/>
		<path class="st0" d="M31.1,84l0.2-0.2l-0.1-0.2L31,83.8L31.1,84z"/>
		<path class="st0" d="M28.4,72.3l0.2-0.1l-0.1-0.2L28.3,72L28.4,72.3z"/>
		<path class="st0" d="M31,84.4l3.4-2.6l-0.2-0.2c-2.3-3-4.2-6.3-5.5-9.8l-0.1-0.2l-0.2,0.1l0.1,0.2l0.1,0.2l-0.2,0.1
			c1.4,3.4,3.2,6.5,5.4,9.4l0.2-0.2l0.2,0.2l-0.2,0.2l-0.2-0.2l-2.6,2l0.1,0.2l-0.2,0.2l-0.1-0.2l0.2-0.2c-2.4-3.1-4.3-6.6-5.8-10.2
			l-0.2,0.1L25,73.3l0.2-0.1c0,0.1,0.1,0.2,0.1,0.2l3.1-1.2L28.3,72l0.2-0.1l-0.1-0.2l-3.8,1.5l0.1,0.2c1.5,3.9,3.6,7.5,6.1,10.8
			L31,84.4z"/>
		<path class="st0" d="M25,73.3l0.1,0.2l0.2-0.1c0-0.1-0.1-0.2-0.1-0.2L25,73.3z"/>
		<path class="st0" d="M107.8,64.5v0.2h0.2c0-0.1,0-0.2,0-0.2H107.8z"/>
		<path class="st0" d="M134.7,69.7h-0.2c0,0.1,0,0.2,0,0.2h0.3L134.7,69.7z"/>
		<path class="st0" d="M92.8,119.7l0.2-0.1l-0.1-0.2l-0.2,0.1L92.8,119.7z"/>
		<path class="st0" d="M92.8,120c21.6-8.5,37.5-27.4,42.1-50.2l0.1-0.3l-27.3-5.3l-0.1,0.3C104.8,78,95.3,89.2,82.5,94.1l-0.2,0.1
			l0.1,0.2l0.2-0.1l0.2-0.1l0.1,0.2c12.8-5.1,22.3-16.2,25.1-29.7h-0.2v-0.2h0.2c0,0.1,0,0.2,0,0.2l26.4,5.1c0-0.1,0-0.2,0-0.2h0.2
			v0.2h-0.3c-4.6,22.4-20.2,41.1-41.5,49.5l0.1,0.2l-0.2,0.1l-0.1-0.2l0.2-0.1l-10-24.9l-0.2,0.1l-0.1-0.2l-0.2,0.1l10.3,25.6
			L92.8,120z"/>
		<path class="st0" d="M82.9,94.5l-0.1-0.2l-0.2,0.1l0.1,0.2L82.9,94.5z"/>
		<path class="st0" d="M84.1,122.5l-0.1-0.2l-0.2,0.1l0.1,0.2L84.1,122.5z"/>
		<path class="st0" d="M77.4,96l-0.2,0.1l0.1,0.2h0.2L77.4,96z"/>
		<path class="st0" d="M72.9,97.1v-0.2h-0.3v0.3L72.9,97.1z"/>
		<path class="st0" d="M76.2,124.2c2.7-0.3,5.4-0.8,8-1.5l0.3-0.1l-6.9-27h-0.2c-1.6,0.4-3.2,0.7-4.8,0.9h-0.3v0.3h0.3h0.3V97
			c1.5-0.2,2.9-0.4,4.3-0.8L77.1,96l0.2-0.1l0.1,0.2h-0.2l6.6,26l0.2-0.1l0.1,0.2l-0.2,0.1l-0.1-0.2c-2.5,0.6-4.9,1-7.4,1.4v0.3
			h-0.3v-0.3h0.3l-3.5-26.5h-0.3v-0.3h-0.3l3.6,27.4L76.2,124.2z"/>
		<path class="st0" d="M76.2,124h0.3v-0.3h-0.3V124z"/>
		<path class="st0" d="M53.6,95l0.1-0.2l-0.2-0.1l-0.1,0.2L53.6,95z"/>
		<path class="st0" d="M67.1,97.1h-0.3v0.2h0.2L67.1,97.1z"/>
		<path class="st0" d="M67.1,124.5v-0.3h-0.3v0.3L67.1,124.5z"/>
		<path class="st0" d="M44.2,120.4l0.2,0.1l0.1-0.2l-0.2-0.1L44.2,120.4z"/>
		<path class="st0" d="M67.4,124.7V96.9h-0.3c-4.6,0-9.3-0.9-13.6-2.5l-0.2-0.1l-0.1,0.2l0.2,0.1l0.2,0.1L53.6,95
			c4.3,1.5,8.8,2.4,13.3,2.4v-0.2h0.3v0.3h-0.2v26.9h0.3v0.3h-0.3v-0.3c-7.6-0.1-15.2-1.4-22.4-4l-0.1,0.2l-0.2-0.1l0.1-0.2l0.2,0.1
			L53.6,95l-0.2-0.1l0.1-0.2l-0.2-0.1l-9.3,26l0.2,0.1c7.4,2.7,15.2,4.1,23,4.1L67.4,124.7z"/>
		<path class="st0" d="M100.9,0.3l-0.1,0.2l0.2,0.1l0.1-0.2L100.9,0.3z"/>
		<path class="st0" d="M89.3,20l0.2,0.1l0.1-0.2l-0.2-0.1L89.3,20z"/>
		<path class="st0" d="M92.7,22.5l0.2-0.2l-0.2-0.1L92.5,22l0.1-0.2c-1-0.7-2-1.3-3-1.9l-0.1,0.2L89.3,20l0.1-0.2l0.2,0.1L101,0.7
			l-0.2-0.1l0.1-0.2l0.2,0.1L101,0.7c1.6,1,3.2,2,4.8,3.1l0.2-0.2l0.2,0.2L106,3.9l-0.2-0.1l-13.2,18l0.2,0.1l-0.1,0.2l0.2,0.1
			l13.6-18.6l-0.2-0.2c-1.7-1.2-3.4-2.3-5.2-3.4L100.8,0L88.9,20l0.2,0.1c1.2,0.7,2.3,1.4,3.4,2.2L92.7,22.5z"/>
		<path class="st0" d="M92.6,21.8L92.5,22l0.2,0.1l0.1-0.2L92.6,21.8z"/>
		<path class="st0" d="M106.1,3.7l-0.2-0.2l-0.2,0.2l0.2,0.1L106.1,3.7z"/>
		<path class="st0" d="M12.3,45.5l0.1-0.2h-0.2c0,0.1,0,0.2-0.1,0.2H12.3z"/>
		<path class="st0" d="M10.8,45.2H11c0-0.1,0-0.2,0.1-0.2h-0.3L10.8,45.2z"/>
		<path class="st0" d="M14.1,39.5l0.1-0.2L14,39.2l-0.1,0.2l-0.1,0.2l-0.2-0.1c-0.6,1.8-1.1,3.7-1.5,5.6h0.2l-0.1,0.2h-0.2
			c0-0.1,0-0.2,0.1-0.2l-1-0.2c0,0.1,0,0.2-0.1,0.2h-0.3l0.1-0.2h0.3c0.4-1.9,0.9-3.8,1.5-5.7l-0.3-0.1l0.1-0.2l0.2,0.1
			c0,0.1-0.1,0.2-0.1,0.2l1,0.3c0-0.1,0-0.2,0.1-0.2l0.2,0.1l0-0.2l-1.7-0.5l-0.1,0.2C11.6,41,11,43,10.6,45.1v0.3l2,0.4v-0.3
			C13,43.5,13.5,41.5,14.1,39.5z"/>
		<path class="st0" d="M12.4,39l-0.1,0.2l0.3,0.1c0-0.1,0-0.2,0.1-0.2L12.4,39z"/>
		<path class="st0" d="M13.6,39.6l0.2,0.1l0.1-0.2l-0.2-0.1C13.6,39.4,13.6,39.5,13.6,39.6z"/>
		<path class="st0" d="M12.6,66.8l-0.1-0.3h-0.2c0,0.1,0,0.2,0,0.3H12.6z"/>
		<path class="st0" d="M1.4,68.9h0.2c0-0.1,0-0.2,0-0.3H1.4L1.4,68.9z"/>
		<path class="st0" d="M1.2,69.2L12.9,67v-0.3c-0.5-2.7-0.8-5.4-0.9-8.2v-0.3h-0.3v0.5h-0.2c0.1,2.6,0.4,5.2,0.9,7.7h0.2l0.1,0.3
			h-0.3c0-0.1,0-0.2,0-0.3l-10.7,2c0,0.1,0,0.2,0,0.3H1.4l0-0.2h0.3c-0.6-3.1-0.9-6.2-1-9.3H0.3V59h0.2c0,0.1,0,0.2,0,0.3l10.9-0.4
			c0-0.1,0-0.2,0-0.3h0.3v-0.3L0,58.8v0.3c0.1,3.3,0.5,6.7,1.1,9.9L1.2,69.2z"/>
		<path class="st0" d="M11.4,58.9h0.2v-0.3h-0.3C11.4,58.7,11.4,58.8,11.4,58.9z"/>
		<path class="st0" d="M0.3,59v0.3h0.3c0-0.1,0-0.2,0-0.3H0.3z"/>
		<path class="st0" d="M18.4,102.3l0.2-0.2l-0.2-0.2l-0.2,0.2L18.4,102.3z"/>
		<path class="st0" d="M26.8,94.5l-0.2-0.2l-0.2,0.2l0.2,0.2L26.8,94.5z"/>
		<path class="st0" d="M18.4,102.6l8.7-8.1l-0.2-0.2c-5.3-5.6-9.3-12.1-11.9-19.3L15,74.8l-0.2,0.1l0.1,0.2l0.1,0.2l-0.2,0.1
			c2.6,7.1,6.5,13.6,11.7,19.1l0.2-0.2l0.2,0.2l-0.2,0.2l-0.2-0.2l-8,7.4l0.2,0.2l-0.2,0.2l-0.2-0.2l0.2-0.2
			C12.2,95.3,7.5,87.5,4.4,79l-0.3,0.1l-0.1-0.2l0.2-0.1L4.4,79l10.3-3.6l-0.1-0.2l0.2-0.1l-0.1-0.2l-11,3.9l0.1,0.2
			c3.1,8.7,8,16.7,14.4,23.5L18.4,102.6z"/>
		<path class="st0" d="M14.7,75.4l0.2-0.1l-0.1-0.2l-0.2,0.1L14.7,75.4z"/>
		<path class="st0" d="M4.1,78.9l0.1,0.2L4.4,79l-0.1-0.2L4.1,78.9z"/>
		<path class="st0" d="M13,70l0.2-0.1l-0.1-0.2l-0.2,0.1C13,69.8,13,69.9,13,70z"/>
		<path class="st0" d="M3,75.5l0.2-0.1l-0.1-0.2l-0.3,0.1L3,75.5z"/>
		<path class="st0" d="M13.9,72.3l-0.1-0.2l-0.2,0.1c0,0.1,0,0.2,0.1,0.3L13.9,72.3z"/>
		<path class="st0" d="M2.8,75.8l11.4-3.4l-0.1-0.2c-0.3-0.8-0.5-1.7-0.7-2.6l-0.1-0.2l-0.2,0.1l0.1,0.2l0.1,0.2L13,70
			c0.2,0.7,0.4,1.4,0.6,2.1l0.2-0.1l0.1,0.2l-0.2,0.1c0-0.1-0.1-0.2-0.1-0.3L3.1,75.2l0.1,0.2L3,75.5l-0.1-0.2l0.3-0.1
			c-0.3-0.9-0.5-1.8-0.7-2.7l-0.3,0.1l-0.1-0.3l0.2-0.1c0,0.1,0,0.2,0.1,0.3L13,70c0-0.1,0-0.2-0.1-0.2l0.2-0.1l-0.1-0.2L1.8,72.2
			l0.1,0.2c0.3,1.1,0.5,2.1,0.8,3.2L2.8,75.8z"/>
		<path class="st0" d="M2.1,72.4l0.1,0.3l0.3-0.1c0-0.1,0-0.2-0.1-0.3L2.1,72.4z"/>
	</g>
</g>
</svg>
