<?xml version="1.0" encoding="utf-8"?>
<!-- Generator: Adobe Illustrator 23.0.6, SVG Export Plug-In . SVG Version: 6.00 Build 0)  -->
<svg version="1.1" id="Layer_1" xmlns="http://www.w3.org/2000/svg" xmlns:xlink="http://www.w3.org/1999/xlink" x="0px" y="0px"
	 viewBox="0 0 414 552" style="enable-background:new 0 0 414 552;" xml:space="preserve">
<style type="text/css">
	.st0{fill:none;stroke:#FFFFFF;stroke-width:1.5022;stroke-linecap:round;stroke-linejoin:round;}
</style>
<path class="st0" d="M192,408.6L192,408.6"/>
<path class="st0" d="M187.3,408.8L187.3,408.8"/>
<path class="st0" d="M182.7,408.5L182.7,408.5"/>
<path class="st0" d="M178,408.1L178,408.1"/>
<path class="st0" d="M173.4,407.5L173.4,407.5"/>
<path class="st0" d="M168.8,406.6L168.8,406.6"/>
<path class="st0" d="M164.2,405.8L164.2,405.8"/>
<path class="st0" d="M159.6,405L159.6,405"/>
<path class="st0" d="M155.1,403.7L155.1,403.7"/>
<path class="st0" d="M150.6,402.4L150.6,402.4"/>
<path class="st0" d="M146.2,401L146.2,401"/>
<path class="st0" d="M141.8,399.4L141.8,399.4"/>
<path class="st0" d="M137.4,397.9L137.4,397.9"/>
<path class="st0" d="M133.3,395.6L133.3,395.6"/>
<path class="st0" d="M129,393.8L129,393.8"/>
<path class="st0" d="M124.6,392.1L124.6,392.1"/>
<path class="st0" d="M120.7,389.6L120.7,389.6"/>
<path class="st0" d="M116.4,387.6L116.4,387.6"/>
<path class="st0" d="M112.5,385L112.5,385"/>
<path class="st0" d="M109.2,381.7L109.2,381.7"/>
<path class="st0" d="M105.5,378.9L105.5,378.9"/>
<path class="st0" d="M101,376.9L101,376.9"/>
<path class="st0" d="M97.8,373.6L97.8,373.6"/>
<path class="st0" d="M94.4,370.3L94.4,370.3"/>
<path class="st0" d="M90.5,367.6L90.5,367.6"/>
<path class="st0" d="M88.2,363.4L88.2,363.4"/>
<path class="st0" d="M83.9,360.9L83.9,360.9"/>
<path class="st0" d="M82.1,356.4L82.1,356.4"/>
<path class="st0" d="M79.6,352.4L79.6,352.4"/>
<path class="st0" d="M76.8,348.7L76.8,348.7"/>
<path class="st0" d="M72.4,346.1L72.4,346.1"/>
<path class="st0" d="M70.7,341.6L70.7,341.6"/>
<path class="st0" d="M68.2,337.7L68.2,337.7"/>
<path class="st0" d="M66.2,333.5L66.2,333.5"/>
<path class="st0" d="M64.5,329.1L64.5,329.1"/>
<path class="st0" d="M63.2,324.6L63.2,324.6"/>
<path class="st0" d="M59.4,321.2L59.4,321.2"/>
<path class="st0" d="M56.6,317.2L56.6,317.2"/>
<path class="st0" d="M59.2,311.3L59.2,311.3"/>
<path class="st0" d="M53.9,308.2L53.9,308.2"/>
<path class="st0" d="M56.1,302.7L56.1,302.7"/>
<path class="st0" d="M50.9,299.2L50.9,299.2"/>
<path class="st0" d="M54,293.8L54,293.8"/>
<path class="st0" d="M43.1,291L43.1,291"/>
<path class="st0" d="M48.9,285.2L48.9,285.2"/>
<path class="st0" d="M52,280.2L52,280.2"/>
<path class="st0" d="M52.8,275.5L52.8,275.5"/>
<path class="st0" d="M44.7,271.3L44.7,271.3"/>
<path class="st0" d="M47.2,266.5L47.2,266.5"/>
<path class="st0" d="M52.3,261.9L52.3,261.9"/>
<path class="st0" d="M52.1,257.3L52.1,257.3"/>
<path class="st0" d="M48.4,252.4L48.4,252.4"/>
<path class="st0" d="M53.2,248.3L53.2,248.3"/>
<path class="st0" d="M51.1,243.3L51.1,243.3"/>
<path class="st0" d="M51.9,238.8L51.9,238.8"/>
<path class="st0" d="M48.6,233.3L48.6,233.3"/>
<path class="st0" d="M55.4,230.1L55.4,230.1"/>
<path class="st0" d="M56.3,225.6L56.3,225.6"/>
<path class="st0" d="M56.8,220.9L56.8,220.9"/>
<path class="st0" d="M64.9,218.9L64.9,218.9"/>
<path class="st0" d="M66.9,215L66.9,215"/>
<path class="st0" d="M62.3,208.1L62.3,208.1"/>
<path class="st0" d="M59.9,201.9L59.9,201.9"/>
<path class="st0" d="M61.8,197.5L61.8,197.5"/>
<path class="st0" d="M63.2,192.8L63.2,192.8"/>
<path class="st0" d="M69.1,190.7L69.1,190.7"/>
<path class="st0" d="M79.1,191.4L79.1,191.4"/>
<path class="st0" d="M68.6,178.9L68.6,178.9"/>
<path class="st0" d="M73.5,176.5L73.5,176.5"/>
<path class="st0" d="M87.2,181.3L87.2,181.3"/>
<path class="st0" d="M83.7,172.6L83.7,172.6"/>
<path class="st0" d="M87.5,169.8L87.5,169.8"/>
<path class="st0" d="M95.7,171.3L95.7,171.3"/>
<path class="st0" d="M99.4,168.9L99.4,168.9"/>
<path class="st0" d="M85.1,146.4L85.1,146.4"/>
<path class="st0" d="M88.2,142L88.2,142"/>
<path class="st0" d="M113.6,165L113.6,165"/>
<path class="st0" d="M119.7,163L119.7,163"/>
<path class="st0" d="M109.6,145.4L109.6,145.4"/>
<path class="st0" d="M118.1,149.9L118.1,149.9"/>
<path class="st0" d="M115.8,137.4L115.8,137.4"/>
<path class="st0" d="M127.7,142.3L127.7,142.3"/>
<path class="st0" d="M130.7,134.8L130.7,134.8"/>
<path class="st0" d="M124.9,109.7L124.9,109.7"/>
<path class="st0" d="M136.4,123.9L136.4,123.9"/>
<path class="st0" d="M134.5,103.8L134.5,103.8"/>
<path class="st0" d="M145.4,101.4L145.4,101.4"/>
<path class="st0" d="M148.7,91.6L148.7,91.6"/>
<path class="st0" d="M165.1,131.9L165.1,131.9"/>
<path class="st0" d="M168.8,124.2L168.8,124.2"/>
<path class="st0" d="M174.7,140.6L174.7,140.6"/>
<path class="st0" d="M178.4,146.7L178.4,146.7"/>
<path class="st0" d="M177,81.1L177,81.1"/>
<path class="st0" d="M184.1,104L184.1,104"/>
<path class="st0" d="M194.6,105.8L194.6,105.8"/>
<path class="st0" d="M198.9,123.6L198.9,123.6"/>
<path class="st0" d="M207.1,80.6L207.1,80.6"/>
<path class="st0" d="M218.9,83.3L218.9,83.3"/>
<path class="st0" d="M227.3,70.3L227.3,70.3"/>
<path class="st0" d="M234.1,69.5L234.1,69.5"/>
<path class="st0" d="M237.3,83.5L237.3,83.5"/>
<path class="st0" d="M228.3,146.6L228.3,146.6"/>
<path class="st0" d="M239.2,123.7L239.2,123.7"/>
<path class="st0" d="M243.2,130.1L243.2,130.1"/>
<path class="st0" d="M243.5,138.5L243.5,138.5"/>
<path class="st0" d="M244.8,142.8L244.8,142.8"/>
<path class="st0" d="M269.2,101.2L269.2,101.2"/>
<path class="st0" d="M276.5,112.2L276.5,112.2"/>
<path class="st0" d="M267.7,150.7L267.7,150.7"/>
<path class="st0" d="M287.6,126.2L287.6,126.2"/>
<path class="st0" d="M268.3,170.7L268.3,170.7"/>
<path class="st0" d="M286.5,164L286.5,164"/>
<path class="st0" d="M292.2,161L292.2,161"/>
<path class="st0" d="M318.7,141.6L318.7,141.6"/>
<path class="st0" d="M310.4,157.1L310.4,157.1"/>
<path class="st0" d="M307.9,170.3L307.9,170.3"/>
<path class="st0" d="M334.6,151.1L334.6,151.1"/>
<path class="st0" d="M302.3,183.6L302.3,183.6"/>
<path class="st0" d="M307.7,186.4L307.7,186.4"/>
<path class="st0" d="M317.4,183.6L317.4,183.6"/>
<path class="st0" d="M320.6,187.3L320.6,187.3"/>
<path class="st0" d="M337.3,189.6L337.3,189.6"/>
<path class="st0" d="M322.7,202.6L322.7,202.6"/>
<path class="st0" d="M339.6,200.2L339.6,200.2"/>
<path class="st0" d="M310.1,220.7L310.1,220.7"/>
<path class="st0" d="M324.2,217L324.2,217"/>
<path class="st0" d="M333,219L333,219"/>
<path class="st0" d="M330.4,224.8L330.4,224.8"/>
<path class="st0" d="M327.8,231.6L327.8,231.6"/>
<path class="st0" d="M326.8,235.2L326.8,235.2"/>
<path class="st0" d="M364.9,232.5L364.9,232.5"/>
<path class="st0" d="M327.6,244.8L327.6,244.8"/>
<path class="st0" d="M339.5,247.2L339.5,247.2"/>
<path class="st0" d="M345.4,251.5L345.4,251.5"/>
<path class="st0" d="M343.6,256.7L343.6,256.7"/>
<path class="st0" d="M338.3,261.7L338.3,261.7"/>
<path class="st0" d="M329.1,266.7L329.1,266.7"/>
<path class="st0" d="M326.6,270.8L326.6,270.8"/>
<path class="st0" d="M343.1,276.4L343.1,276.4"/>
<path class="st0" d="M344.5,281.5L344.5,281.5"/>
<path class="st0" d="M332.9,284.9L332.9,284.9"/>
<path class="st0" d="M343.2,291.4L343.2,291.4"/>
<path class="st0" d="M341.3,296.1L341.3,296.1"/>
<path class="st0" d="M333.6,299.4L333.6,299.4"/>
<path class="st0" d="M322.3,301.2L322.3,301.2"/>
<path class="st0" d="M328.5,307.7L328.5,307.7"/>
<path class="st0" d="M321.9,310.3L321.9,310.3"/>
<path class="st0" d="M324.4,316.1L324.4,316.1"/>
<path class="st0" d="M319.6,319.1L319.6,319.1"/>
<path class="st0" d="M325.9,326.9L325.9,326.9"/>
<path class="st0" d="M322.3,330.5L322.3,330.5"/>
<path class="st0" d="M316.2,332.6L316.2,332.6"/>
<path class="st0" d="M321.2,340.9L321.2,340.9"/>
<path class="st0" d="M314.6,342.4L314.6,342.4"/>
<path class="st0" d="M314,347.7L314,347.7"/>
<path class="st0" d="M308.9,349.9L308.9,349.9"/>
<path class="st0" d="M309.5,356.4L309.5,356.4"/>
<path class="st0" d="M303.9,358L303.9,358"/>
<path class="st0" d="M300.3,361.1L300.3,361.1"/>
<path class="st0" d="M294.3,361.9L294.3,361.9"/>
<path class="st0" d="M291.7,365.8L291.7,365.8"/>
<path class="st0" d="M286.3,366.8L286.3,366.8"/>
<path class="st0" d="M284.7,371.8L284.7,371.8"/>
<path class="st0" d="M281.7,375.4L281.7,375.4"/>
<path class="st0" d="M278.4,378.7L278.4,378.7"/>
<path class="st0" d="M273.5,379.8L273.5,379.8"/>
<path class="st0" d="M273,387.4L273,387.4"/>
<path class="st0" d="M266.6,386.1L266.6,386.1"/>
<path class="st0" d="M263.2,389.4L263.2,389.4"/>
<path class="st0" d="M259.5,392.4L259.5,392.4"/>
<path class="st0" d="M255,393.9L255,393.9"/>
<path class="st0" d="M250.3,394.8L250.3,394.8"/>
<path class="st0" d="M246.6,398L246.6,398"/>
<path class="st0" d="M242.3,399.6L242.3,399.6"/>
<path class="st0" d="M238.7,403.6L238.7,403.6"/>
<path class="st0" d="M233.4,402.5L233.4,402.5"/>
<path class="st0" d="M229.4,405.6L229.4,405.6"/>
<path class="st0" d="M224.5,405.4L224.5,405.4"/>
<path class="st0" d="M219.8,406L219.8,406"/>
<path class="st0" d="M214.9,404.7L214.9,404.7"/>
<path class="st0" d="M210.6,407.1L210.6,407.1"/>
<path class="st0" d="M206.1,409.7L206.1,409.7"/>
<path class="st0" d="M201.3,407.5L201.3,407.5"/>
<path class="st0" d="M196.6,407.4L196.6,407.4"/>
<path class="st0" d="M192,392.9L192,392.9"/>
<path class="st0" d="M187.8,392.9L187.8,392.9"/>
<path class="st0" d="M183.7,392.8L183.7,392.8"/>
<path class="st0" d="M179.6,392.3L179.6,392.3"/>
<path class="st0" d="M175.4,392L175.4,392"/>
<path class="st0" d="M171.3,391.3L171.3,391.3"/>
<path class="st0" d="M167.2,390.6L167.2,390.6"/>
<path class="st0" d="M163.2,389.6L163.2,389.6"/>
<path class="st0" d="M159.2,388.5L159.2,388.5"/>
<path class="st0" d="M155.1,387.7L155.1,387.7"/>
<path class="st0" d="M151.1,386.4L151.1,386.4"/>
<path class="st0" d="M147.2,385L147.2,385"/>
<path class="st0" d="M143.3,383.5L143.3,383.5"/>
<path class="st0" d="M139.7,381.5L139.7,381.5"/>
<path class="st0" d="M135.9,379.8L135.9,379.8"/>
<path class="st0" d="M132.1,378.1L132.1,378.1"/>
<path class="st0" d="M128.3,376.3L128.3,376.3"/>
<path class="st0" d="M124.9,373.9L124.9,373.9"/>
<path class="st0" d="M121.2,372L121.2,372"/>
<path class="st0" d="M118.1,369.1L118.1,369.1"/>
<path class="st0" d="M114.4,367.2L114.4,367.2"/>
<path class="st0" d="M111.3,364.4L111.3,364.4"/>
<path class="st0" d="M107.9,361.9L107.9,361.9"/>
<path class="st0" d="M104.8,359.2L104.8,359.2"/>
<path class="st0" d="M102.5,355.5L102.5,355.5"/>
<path class="st0" d="M98.9,353.3L98.9,353.3"/>
<path class="st0" d="M96.8,349.5L96.8,349.5"/>
<path class="st0" d="M93.3,347L93.3,347"/>
<path class="st0" d="M90.4,344L90.4,344"/>
<path class="st0" d="M88.5,340.3L88.5,340.3"/>
<path class="st0" d="M86.2,336.8L86.2,336.8"/>
<path class="st0" d="M83.8,333.4L83.8,333.4"/>
<path class="st0" d="M81.1,330.1L81.1,330.1"/>
<path class="st0" d="M79.2,326.4L79.2,326.4"/>
<path class="st0" d="M78.1,322.3L78.1,322.3"/>
<path class="st0" d="M76,318.7L76,318.7"/>
<path class="st0" d="M73,315.4L73,315.4"/>
<path class="st0" d="M71.3,311.6L71.3,311.6"/>
<path class="st0" d="M73.8,306.3L73.8,306.3"/>
<path class="st0" d="M71.6,302.7L71.6,302.7"/>
<path class="st0" d="M68.9,299.2L68.9,299.2"/>
<path class="st0" d="M69.3,294.8L69.3,294.8"/>
<path class="st0" d="M65.6,291.4L65.6,291.4"/>
<path class="st0" d="M64.2,287.4L64.2,287.4"/>
<path class="st0" d="M66,282.9L66,282.9"/>
<path class="st0" d="M64.6,278.8L64.6,278.8"/>
<path class="st0" d="M62.4,274.8L62.4,274.8"/>
<path class="st0" d="M65.5,270.4L65.5,270.4"/>
<path class="st0" d="M64.3,266.3L64.3,266.3"/>
<path class="st0" d="M63.2,262.2L63.2,262.2"/>
<path class="st0" d="M63.2,258L63.2,258"/>
<path class="st0" d="M61.6,253.6L61.6,253.6"/>
<path class="st0" d="M65.7,249.8L65.7,249.8"/>
<path class="st0" d="M65.2,245.5L65.2,245.5"/>
<path class="st0" d="M68.1,241.8L68.1,241.8"/>
<path class="st0" d="M71.6,238.4L71.6,238.4"/>
<path class="st0" d="M67.2,233.1L67.2,233.1"/>
<path class="st0" d="M68,229L68,229"/>
<path class="st0" d="M68.8,224.8L68.8,224.8"/>
<path class="st0" d="M68,220L68,220"/>
<path class="st0" d="M76.6,218.9L76.6,218.9"/>
<path class="st0" d="M77.5,214.8L77.5,214.8"/>
<path class="st0" d="M80.8,211.9L80.8,211.9"/>
<path class="st0" d="M81.7,207.9L81.7,207.9"/>
<path class="st0" d="M72.9,198.2L72.9,198.2"/>
<path class="st0" d="M76.9,195.5L76.9,195.5"/>
<path class="st0" d="M78.4,191.2L78.4,191.2"/>
<path class="st0" d="M85.8,191L85.8,191"/>
<path class="st0" d="M90.1,188.9L90.1,188.9"/>
<path class="st0" d="M100.6,192L100.6,192"/>
<path class="st0" d="M93.7,181.2L93.7,181.2"/>
<path class="st0" d="M103.1,184L103.1,184"/>
<path class="st0" d="M107.9,183.3L107.9,183.3"/>
<path class="st0" d="M103.8,173.4L103.8,173.4"/>
<path class="st0" d="M115.1,179.8L115.1,179.8"/>
<path class="st0" d="M117,174.9L117,174.9"/>
<path class="st0" d="M112,163.7L112,163.7"/>
<path class="st0" d="M111.4,155.9L111.4,155.9"/>
<path class="st0" d="M116.3,155.2L116.3,155.2"/>
<path class="st0" d="M120,152.9L120,152.9"/>
<path class="st0" d="M125.5,153.6L125.5,153.6"/>
<path class="st0" d="M122.7,139.8L122.7,139.8"/>
<path class="st0" d="M129.9,143.6L129.9,143.6"/>
<path class="st0" d="M132.6,138.9L132.6,138.9"/>
<path class="st0" d="M140.2,145.1L140.2,145.1"/>
<path class="st0" d="M152.7,165.3L152.7,165.3"/>
<path class="st0" d="M148.1,127.9L148.1,127.9"/>
<path class="st0" d="M155.9,138.3L155.9,138.3"/>
<path class="st0" d="M156.5,122.6L156.5,122.6"/>
<path class="st0" d="M164.9,134L164.9,134"/>
<path class="st0" d="M165.2,117L165.2,117"/>
<path class="st0" d="M176.5,147.4L176.5,147.4"/>
<path class="st0" d="M181.2,164L181.2,164"/>
<path class="st0" d="M183.1,141.3L183.1,141.3"/>
<path class="st0" d="M184.2,105.4L184.2,105.4"/>
<path class="st0" d="M190,145L190,145"/>
<path class="st0" d="M198.2,147.5L198.2,147.5"/>
<path class="st0" d="M201.3,150.8L201.3,150.8"/>
<path class="st0" d="M205.1,156.1L205.1,156.1"/>
<path class="st0" d="M211.6,136.5L211.6,136.5"/>
<path class="st0" d="M220.3,109.2L220.3,109.2"/>
<path class="st0" d="M225,111.5L225,111.5"/>
<path class="st0" d="M233.5,98.7L233.5,98.7"/>
<path class="st0" d="M234.5,115.7L234.5,115.7"/>
<path class="st0" d="M242.4,142L242.4,142"/>
<path class="st0" d="M240.4,153.3L240.4,153.3"/>
<path class="st0" d="M263.7,112.9L263.7,112.9"/>
<path class="st0" d="M264.1,125L264.1,125"/>
<path class="st0" d="M257.9,151.7L257.9,151.7"/>
<path class="st0" d="M274.5,127.7L274.5,127.7"/>
<path class="st0" d="M291.5,110L291.5,110"/>
<path class="st0" d="M257,170.7L257,170.7"/>
<path class="st0" d="M294.4,126.2L294.4,126.2"/>
<path class="st0" d="M263.8,177.1L263.8,177.1"/>
<path class="st0" d="M302.4,134.2L302.4,134.2"/>
<path class="st0" d="M317.8,125.4L317.8,125.4"/>
<path class="st0" d="M267.4,186.8L267.4,186.8"/>
<path class="st0" d="M280.5,178.9L280.5,178.9"/>
<path class="st0" d="M302.6,164.2L302.6,164.2"/>
<path class="st0" d="M312.5,162.1L312.5,162.1"/>
<path class="st0" d="M307.5,172.8L307.5,172.8"/>
<path class="st0" d="M323.2,173.6L323.2,173.6"/>
<path class="st0" d="M315,185.1L315,185.1"/>
<path class="st0" d="M311.7,201.3L311.7,201.3"/>
<path class="st0" d="M281,222.6L281,222.6"/>
<path class="st0" d="M309,215.8L309,215.8"/>
<path class="st0" d="M324.5,212L324.5,212"/>
<path class="st0" d="M305.2,230.3L305.2,230.3"/>
<path class="st0" d="M303,232.8L303,232.8"/>
<path class="st0" d="M332.8,229L332.8,229"/>
<path class="st0" d="M320.2,237.3L320.2,237.3"/>
<path class="st0" d="M355.9,234.2L355.9,234.2"/>
<path class="st0" d="M329.8,243.8L329.8,243.8"/>
<path class="st0" d="M307.2,251.5L307.2,251.5"/>
<path class="st0" d="M326.1,253.3L326.1,253.3"/>
<path class="st0" d="M318.7,258.1L318.7,258.1"/>
<path class="st0" d="M326.4,262L326.4,262"/>
<path class="st0" d="M329.8,266.4L329.8,266.4"/>
<path class="st0" d="M317.1,270.4L317.1,270.4"/>
<path class="st0" d="M323.8,275L323.8,275"/>
<path class="st0" d="M318.5,278.7L318.5,278.7"/>
<path class="st0" d="M320.5,283.2L320.5,283.2"/>
<path class="st0" d="M312.8,291.5L312.8,291.5"/>
<path class="st0" d="M313.8,294.6L313.8,294.6"/>
<path class="st0" d="M315,299.1L315,299.1"/>
<path class="st0" d="M315.5,303.7L315.5,303.7"/>
<path class="st0" d="M304.3,304.2L304.3,304.2"/>
<path class="st0" d="M317.7,313.5L317.7,313.5"/>
<path class="st0" d="M303.7,312.4L303.7,312.4"/>
<path class="st0" d="M310.1,319.7L310.1,319.7"/>
<path class="st0" d="M306.9,322.8L306.9,322.8"/>
<path class="st0" d="M303.1,325.5L303.1,325.5"/>
<path class="st0" d="M306.7,332.4L306.7,332.4"/>
<path class="st0" d="M301.7,334.3L301.7,334.3"/>
<path class="st0" d="M304.3,341.2L304.3,341.2"/>
<path class="st0" d="M300.6,344L300.6,344"/>
<path class="st0" d="M294.4,344.7L294.4,344.7"/>
<path class="st0" d="M287.1,344.1L287.1,344.1"/>
<path class="st0" d="M289.1,351.3L289.1,351.3"/>
<path class="st0" d="M284.2,352.4L284.2,352.4"/>
<path class="st0" d="M285.6,359.7L285.6,359.7"/>
<path class="st0" d="M282.2,362.4L282.2,362.4"/>
<path class="st0" d="M275.1,360.8L275.1,360.8"/>
<path class="st0" d="M272.5,364.1L272.5,364.1"/>
<path class="st0" d="M272.1,370.4L272.1,370.4"/>
<path class="st0" d="M266.4,369.9L266.4,369.9"/>
<path class="st0" d="M263.6,373.1L263.6,373.1"/>
<path class="st0" d="M256.8,370.2L256.8,370.2"/>
<path class="st0" d="M253.4,372.3L253.4,372.3"/>
<path class="st0" d="M252.7,379.6L252.7,379.6"/>
<path class="st0" d="M247.4,378.3L247.4,378.3"/>
<path class="st0" d="M244.5,381.8L244.5,381.8"/>
<path class="st0" d="M240.8,383.8L240.8,383.8"/>
<path class="st0" d="M238.3,389.1L238.3,389.1"/>
<path class="st0" d="M232,383.6L232,383.6"/>
<path class="st0" d="M229.8,390.5L229.8,390.5"/>
<path class="st0" d="M225,389.3L225,389.3"/>
<path class="st0" d="M220.7,388.9L220.7,388.9"/>
<path class="st0" d="M217.2,392.7L217.2,392.7"/>
<path class="st0" d="M212.6,390.7L212.6,390.7"/>
<path class="st0" d="M209,395L209,395"/>
<path class="st0" d="M204.1,389L204.1,389"/>
<path class="st0" d="M200.1,390L200.1,390"/>
<path class="st0" d="M196.1,390.2L196.1,390.2"/>
<path class="st0" d="M192,377.2L192,377.2"/>
<path class="st0" d="M188.4,377.2L188.4,377.2"/>
<path class="st0" d="M184.7,377L184.7,377"/>
<path class="st0" d="M181.1,376.7L181.1,376.7"/>
<path class="st0" d="M177.5,376.3L177.5,376.3"/>
<path class="st0" d="M173.8,375.9L173.8,375.9"/>
<path class="st0" d="M170.3,375.1L170.3,375.1"/>
<path class="st0" d="M166.7,374.3L166.7,374.3"/>
<path class="st0" d="M163.1,373.7L163.1,373.7"/>
<path class="st0" d="M159.6,372.6L159.6,372.6"/>
<path class="st0" d="M156.2,371.4L156.2,371.4"/>
<path class="st0" d="M152.7,370.3L152.7,370.3"/>
<path class="st0" d="M149.3,368.9L149.3,368.9"/>
<path class="st0" d="M146,367.5L146,367.5"/>
<path class="st0" d="M142.7,365.9L142.7,365.9"/>
<path class="st0" d="M139.4,364.2L139.4,364.2"/>
<path class="st0" d="M136.2,362.5L136.2,362.5"/>
<path class="st0" d="M133.2,360.4L133.2,360.4"/>
<path class="st0" d="M130.1,358.5L130.1,358.5"/>
<path class="st0" d="M127.2,356.3L127.2,356.3"/>
<path class="st0" d="M124,354.5L124,354.5"/>
<path class="st0" d="M121.2,352.2L121.2,352.2"/>
<path class="st0" d="M118.3,349.9L118.3,349.9"/>
<path class="st0" d="M115.5,347.6L115.5,347.6"/>
<path class="st0" d="M112.9,345.1L112.9,345.1"/>
<path class="st0" d="M110.5,342.3L110.5,342.3"/>
<path class="st0" d="M107.8,339.8L107.8,339.8"/>
<path class="st0" d="M106,336.6L106,336.6"/>
<path class="st0" d="M103.1,334.2L103.1,334.2"/>
<path class="st0" d="M101.4,330.9L101.4,330.9"/>
<path class="st0" d="M99,328.1L99,328.1"/>
<path class="st0" d="M96.5,325.4L96.5,325.4"/>
<path class="st0" d="M94.7,322.2L94.7,322.2"/>
<path class="st0" d="M93.4,318.7L93.4,318.7"/>
<path class="st0" d="M92.3,315.2L92.3,315.2"/>
<path class="st0" d="M90.8,311.9L90.8,311.9"/>
<path class="st0" d="M88.8,308.8L88.8,308.8"/>
<path class="st0" d="M87.2,305.5L87.2,305.5"/>
<path class="st0" d="M85.3,302.3L85.3,302.3"/>
<path class="st0" d="M84.4,298.7L84.4,298.7"/>
<path class="st0" d="M84.9,294.8L84.9,294.8"/>
<path class="st0" d="M84.1,291.3L84.1,291.3"/>
<path class="st0" d="M83.4,287.7L83.4,287.7"/>
<path class="st0" d="M82.9,284.1L82.9,284.1"/>
<path class="st0" d="M80.6,280.8L80.6,280.8"/>
<path class="st0" d="M81.4,277L81.4,277"/>
<path class="st0" d="M81.2,273.4L81.2,273.4"/>
<path class="st0" d="M80,269.9L80,269.9"/>
<path class="st0" d="M78.9,266.2L78.9,266.2"/>
<path class="st0" d="M79.1,262.5L79.1,262.5"/>
<path class="st0" d="M79.4,258.9L79.4,258.9"/>
<path class="st0" d="M79,255.2L79,255.2"/>
<path class="st0" d="M81.4,251.7L81.4,251.7"/>
<path class="st0" d="M81.7,248.1L81.7,248.1"/>
<path class="st0" d="M84,244.9L84,244.9"/>
<path class="st0" d="M85.8,241.6L85.8,241.6"/>
<path class="st0" d="M84.2,237.5L84.2,237.5"/>
<path class="st0" d="M82.6,233.3L82.6,233.3"/>
<path class="st0" d="M84.4,229.9L84.4,229.9"/>
<path class="st0" d="M86.7,226.9L86.7,226.9"/>
<path class="st0" d="M84.6,222.1L84.6,222.1"/>
<path class="st0" d="M85.8,218.5L85.8,218.5"/>
<path class="st0" d="M93,217.8L93,217.8"/>
<path class="st0" d="M94.6,214.6L94.6,214.6"/>
<path class="st0" d="M99.1,213L99.1,213"/>
<path class="st0" d="M91.6,204.4L91.6,204.4"/>
<path class="st0" d="M100.6,205.7L100.6,205.7"/>
<path class="st0" d="M104.6,204.2L104.6,204.2"/>
<path class="st0" d="M97.7,194.7L97.7,194.7"/>
<path class="st0" d="M110.5,200L110.5,200"/>
<path class="st0" d="M104.4,190.3L104.4,190.3"/>
<path class="st0" d="M109.3,189.7L109.3,189.7"/>
<path class="st0" d="M111.1,186.4L111.1,186.4"/>
<path class="st0" d="M110.4,180.3L110.4,180.3"/>
<path class="st0" d="M122.1,187.6L122.1,187.6"/>
<path class="st0" d="M113.8,172.4L113.8,172.4"/>
<path class="st0" d="M119.6,173.5L119.6,173.5"/>
<path class="st0" d="M130.3,181.6L130.3,181.6"/>
<path class="st0" d="M127.1,170.9L127.1,170.9"/>
<path class="st0" d="M131.5,170.9L131.5,170.9"/>
<path class="st0" d="M141.2,180.1L141.2,180.1"/>
<path class="st0" d="M135.1,162.3L135.1,162.3"/>
<path class="st0" d="M141.4,166.2L141.4,166.2"/>
<path class="st0" d="M138.5,151.4L138.5,151.4"/>
<path class="st0" d="M145.7,158L145.7,158"/>
<path class="st0" d="M153.6,166.9L153.6,166.9"/>
<path class="st0" d="M156.7,166.2L156.7,166.2"/>
<path class="st0" d="M161.6,167.2L161.6,167.2"/>
<path class="st0" d="M158.4,147.1L158.4,147.1"/>
<path class="st0" d="M164,153L164,153"/>
<path class="st0" d="M163.8,133.9L163.8,133.9"/>
<path class="st0" d="M168.8,137L168.8,137"/>
<path class="st0" d="M172.4,132.5L172.4,132.5"/>
<path class="st0" d="M181.1,131.6L181.1,131.6"/>
<path class="st0" d="M187.3,169.9L187.3,169.9"/>
<path class="st0" d="M191.5,165L191.5,165"/>
<path class="st0" d="M193.7,159.8L193.7,159.8"/>
<path class="st0" d="M197.8,146L197.8,146"/>
<path class="st0" d="M199.7,170.9L199.7,170.9"/>
<path class="st0" d="M204.9,160.9L204.9,160.9"/>
<path class="st0" d="M211.6,132.4L211.6,132.4"/>
<path class="st0" d="M219.8,135.7L219.8,135.7"/>
<path class="st0" d="M225.2,132.2L225.2,132.2"/>
<path class="st0" d="M238.8,118.8L238.8,118.8"/>
<path class="st0" d="M245,116.3L245,116.3"/>
<path class="st0" d="M250.5,116.4L250.5,116.4"/>
<path class="st0" d="M241.1,151.5L241.1,151.5"/>
<path class="st0" d="M232.6,181.6L232.6,181.6"/>
<path class="st0" d="M267.7,117L267.7,117"/>
<path class="st0" d="M275.8,113.5L275.8,113.5"/>
<path class="st0" d="M276,124.3L276,124.3"/>
<path class="st0" d="M227.8,210.5L227.8,210.5"/>
<path class="st0" d="M276,151.2L276,151.2"/>
<path class="st0" d="M280.9,152.4L280.9,152.4"/>
<path class="st0" d="M249,197.6L249,197.6"/>
<path class="st0" d="M267.7,183L267.7,183"/>
<path class="st0" d="M251.3,203.7L251.3,203.7"/>
<path class="st0" d="M275.4,183.9L275.4,183.9"/>
<path class="st0" d="M268.5,198L268.5,198"/>
<path class="st0" d="M294.2,177.8L294.2,177.8"/>
<path class="st0" d="M294.3,183.3L294.3,183.3"/>
<path class="st0" d="M295.2,189.3L295.2,189.3"/>
<path class="st0" d="M301.4,193.9L301.4,193.9"/>
<path class="st0" d="M291.9,205.6L291.9,205.6"/>
<path class="st0" d="M331.6,192.6L331.6,192.6"/>
<path class="st0" d="M277.3,224.3L277.3,224.3"/>
<path class="st0" d="M328.4,205.2L328.4,205.2"/>
<path class="st0" d="M310.5,222L310.5,222"/>
<path class="st0" d="M312.8,225.6L312.8,225.6"/>
<path class="st0" d="M299.7,233.8L299.7,233.8"/>
<path class="st0" d="M321,232L321,232"/>
<path class="st0" d="M326.3,235.3L326.3,235.3"/>
<path class="st0" d="M338.3,237.9L338.3,237.9"/>
<path class="st0" d="M318.9,245.5L318.9,245.5"/>
<path class="st0" d="M299.8,255L299.8,255"/>
<path class="st0" d="M319.6,253.8L319.6,253.8"/>
<path class="st0" d="M300.7,261.5L300.7,261.5"/>
<path class="st0" d="M305.9,262.5L305.9,262.5"/>
<path class="st0" d="M298.9,266.2L298.9,266.2"/>
<path class="st0" d="M298.4,269.9L298.4,269.9"/>
<path class="st0" d="M296.8,273L296.8,273"/>
<path class="st0" d="M285.3,275.4L285.3,275.4"/>
<path class="st0" d="M311.5,281.9L311.5,281.9"/>
<path class="st0" d="M312.2,286L312.2,286"/>
<path class="st0" d="M318.1,291.3L318.1,291.3"/>
<path class="st0" d="M311.9,294.1L311.9,294.1"/>
<path class="st0" d="M290.1,293L290.1,293"/>
<path class="st0" d="M303.9,300L303.9,300"/>
<path class="st0" d="M301.1,303.4L301.1,303.4"/>
<path class="st0" d="M303.5,308.1L303.5,308.1"/>
<path class="st0" d="M289.1,306.2L289.1,306.2"/>
<path class="st0" d="M294.3,312.4L294.3,312.4"/>
<path class="st0" d="M301.2,319.9L301.2,319.9"/>
<path class="st0" d="M278.7,312.3L278.7,312.3"/>
<path class="st0" d="M290.6,323L290.6,323"/>
<path class="st0" d="M281.2,321.4L281.2,321.4"/>
<path class="st0" d="M277.6,323.1L277.6,323.1"/>
<path class="st0" d="M286.2,333.5L286.2,333.5"/>
<path class="st0" d="M272.8,327.9L272.8,327.9"/>
<path class="st0" d="M273.5,332.8L273.5,332.8"/>
<path class="st0" d="M268.4,332.9L268.4,332.9"/>
<path class="st0" d="M270.6,339.5L270.6,339.5"/>
<path class="st0" d="M270.1,344.1L270.1,344.1"/>
<path class="st0" d="M275.3,354.9L275.3,354.9"/>
<path class="st0" d="M269.7,354.5L269.7,354.5"/>
<path class="st0" d="M264.9,354.8L264.9,354.8"/>
<path class="st0" d="M255.3,348.4L255.3,348.4"/>
<path class="st0" d="M255.2,354.1L255.2,354.1"/>
<path class="st0" d="M257.6,364.1L257.6,364.1"/>
<path class="st0" d="M248.8,357.2L248.8,357.2"/>
<path class="st0" d="M251,368.2L251,368.2"/>
<path class="st0" d="M241.6,358.6L241.6,358.6"/>
<path class="st0" d="M238.8,360.9L238.8,360.9"/>
<path class="st0" d="M238.9,369.4L238.9,369.4"/>
<path class="st0" d="M234.1,367.5L234.1,367.5"/>
<path class="st0" d="M230.7,368.8L230.7,368.8"/>
<path class="st0" d="M228,371.8L228,371.8"/>
<path class="st0" d="M223.5,369.7L223.5,369.7"/>
<path class="st0" d="M220.4,371.7L220.4,371.7"/>
<path class="st0" d="M218.2,378.1L218.2,378.1"/>
<path class="st0" d="M213.5,373.9L213.5,373.9"/>
<path class="st0" d="M211,380.8L211,380.8"/>
<path class="st0" d="M206.9,379L206.9,379"/>
<path class="st0" d="M202.7,374.3L202.7,374.3"/>
<path class="st0" d="M199.2,376.2L199.2,376.2"/>
<path class="st0" d="M195.6,376.6L195.6,376.6"/>
<path class="st0" d="M192,361.6L192,361.6"/>
<path class="st0" d="M188.9,361.5L188.9,361.5"/>
<path class="st0" d="M185.7,361.4L185.7,361.4"/>
<path class="st0" d="M182.6,361.2L182.6,361.2"/>
<path class="st0" d="M179.5,360.7L179.5,360.7"/>
<path class="st0" d="M176.4,360.4L176.4,360.4"/>
<path class="st0" d="M173.3,359.7L173.3,359.7"/>
<path class="st0" d="M170.2,359.2L170.2,359.2"/>
<path class="st0" d="M167.2,358.4L167.2,358.4"/>
<path class="st0" d="M164.2,357.5L164.2,357.5"/>
<path class="st0" d="M161.2,356.4L161.2,356.4"/>
<path class="st0" d="M158.2,355.5L158.2,355.5"/>
<path class="st0" d="M155.4,354.3L155.4,354.3"/>
<path class="st0" d="M152.5,353L152.5,353"/>
<path class="st0" d="M149.6,351.8L149.6,351.8"/>
<path class="st0" d="M146.9,350.2L146.9,350.2"/>
<path class="st0" d="M144.1,348.7L144.1,348.7"/>
<path class="st0" d="M141.4,347.2L141.4,347.2"/>
<path class="st0" d="M138.8,345.4L138.8,345.4"/>
<path class="st0" d="M136.1,343.9L136.1,343.9"/>
<path class="st0" d="M133.6,341.9L133.6,341.9"/>
<path class="st0" d="M131.2,339.9L131.2,339.9"/>
<path class="st0" d="M128.8,338L128.8,338"/>
<path class="st0" d="M126.6,335.7L126.6,335.7"/>
<path class="st0" d="M124.4,333.5L124.4,333.5"/>
<path class="st0" d="M121.8,331.6L121.8,331.6"/>
<path class="st0" d="M120.1,328.9L120.1,328.9"/>
<path class="st0" d="M117.7,326.9L117.7,326.9"/>
<path class="st0" d="M115.5,324.6L115.5,324.6"/>
<path class="st0" d="M113.7,322L113.7,322"/>
<path class="st0" d="M112.1,319.3L112.1,319.3"/>
<path class="st0" d="M110.7,316.5L110.7,316.5"/>
<path class="st0" d="M109,313.8L109,313.8"/>
<path class="st0" d="M108.1,310.8L108.1,310.8"/>
<path class="st0" d="M106,308.3L106,308.3"/>
<path class="st0" d="M105.2,305.3L105.2,305.3"/>
<path class="st0" d="M103.7,302.5L103.7,302.5"/>
<path class="st0" d="M101.4,300.1L101.4,300.1"/>
<path class="st0" d="M101.2,296.8L101.2,296.8"/>
<path class="st0" d="M99.2,294.1L99.2,294.1"/>
<path class="st0" d="M99.1,290.9L99.1,290.9"/>
<path class="st0" d="M98.7,287.7L98.7,287.7"/>
<path class="st0" d="M97.9,284.7L97.9,284.7"/>
<path class="st0" d="M99.3,281.3L99.3,281.3"/>
<path class="st0" d="M95.5,278.7L95.5,278.7"/>
<path class="st0" d="M97.2,275.4L97.2,275.4"/>
<path class="st0" d="M94.8,272.4L94.8,272.4"/>
<path class="st0" d="M95.9,269.2L95.9,269.2"/>
<path class="st0" d="M95.8,266.1L95.8,266.1"/>
<path class="st0" d="M96.1,263L96.1,263"/>
<path class="st0" d="M94.1,259.7L94.1,259.7"/>
<path class="st0" d="M94.8,256.6L94.8,256.6"/>
<path class="st0" d="M95,253.4L95,253.4"/>
<path class="st0" d="M96.6,250.4L96.6,250.4"/>
<path class="st0" d="M95.6,247.1L95.6,247.1"/>
<path class="st0" d="M99.1,244.5L99.1,244.5"/>
<path class="st0" d="M99.4,241.4L99.4,241.4"/>
<path class="st0" d="M98.6,237.9L98.6,237.9"/>
<path class="st0" d="M101.8,235.7L101.8,235.7"/>
<path class="st0" d="M104.1,233.2L104.1,233.2"/>
<path class="st0" d="M100.9,228.6L100.9,228.6"/>
<path class="st0" d="M103.7,226.4L103.7,226.4"/>
<path class="st0" d="M102.7,222.4L102.7,222.4"/>
<path class="st0" d="M108,221.5L108,221.5"/>
<path class="st0" d="M108.8,218.5L108.8,218.5"/>
<path class="st0" d="M109.6,215.3L109.6,215.3"/>
<path class="st0" d="M107.3,210.1L107.3,210.1"/>
<path class="st0" d="M114.5,211.1L114.5,211.1"/>
<path class="st0" d="M112.5,205.7L112.5,205.7"/>
<path class="st0" d="M119,206.8L119,206.8"/>
<path class="st0" d="M120.7,204.2L120.7,204.2"/>
<path class="st0" d="M117.1,196.8L117.1,196.8"/>
<path class="st0" d="M125.4,200.3L125.4,200.3"/>
<path class="st0" d="M123.3,193.7L123.3,193.7"/>
<path class="st0" d="M131.3,197.8L131.3,197.8"/>
<path class="st0" d="M133.6,196L133.6,196"/>
<path class="st0" d="M135.9,194.1L135.9,194.1"/>
<path class="st0" d="M134,186.5L134,186.5"/>
<path class="st0" d="M132.9,179.3L132.9,179.3"/>
<path class="st0" d="M138.1,181.1L138.1,181.1"/>
<path class="st0" d="M144.2,185.1L144.2,185.1"/>
<path class="st0" d="M143.6,177.6L143.6,177.6"/>
<path class="st0" d="M151,185L151,185"/>
<path class="st0" d="M150.1,176.2L150.1,176.2"/>
<path class="st0" d="M157.3,184.8L157.3,184.8"/>
<path class="st0" d="M152.7,165.4L152.7,165.4"/>
<path class="st0" d="M164.2,187.1L164.2,187.1"/>
<path class="st0" d="M160.1,165.4L160.1,165.4"/>
<path class="st0" d="M166.3,174.9L166.3,174.9"/>
<path class="st0" d="M169.5,174.9L169.5,174.9"/>
<path class="st0" d="M169.7,161.6L169.7,161.6"/>
<path class="st0" d="M173.9,165.4L173.9,165.4"/>
<path class="st0" d="M177.4,166.5L177.4,166.5"/>
<path class="st0" d="M180.3,163.2L180.3,163.2"/>
<path class="st0" d="M184.7,175.5L184.7,175.5"/>
<path class="st0" d="M187.8,179.4L187.8,179.4"/>
<path class="st0" d="M190.4,165.7L190.4,165.7"/>
<path class="st0" d="M193.5,175.3L193.5,175.3"/>
<path class="st0" d="M197.1,169.3L197.1,169.3"/>
<path class="st0" d="M198.5,186L198.5,186"/>
<path class="st0" d="M205.5,146.9L205.5,146.9"/>
<path class="st0" d="M206.7,165.8L206.7,165.8"/>
<path class="st0" d="M209.9,166.4L209.9,166.4"/>
<path class="st0" d="M214.7,159.8L214.7,159.8"/>
<path class="st0" d="M224.1,152.3L224.1,152.3"/>
<path class="st0" d="M227.4,154.4L227.4,154.4"/>
<path class="st0" d="M232.3,152L232.3,152"/>
<path class="st0" d="M234.7,156.6L234.7,156.6"/>
<path class="st0" d="M223.2,196.8L223.2,196.8"/>
<path class="st0" d="M237.6,168.3L237.6,168.3"/>
<path class="st0" d="M233.2,186L233.2,186"/>
<path class="st0" d="M241.9,174.9L241.9,174.9"/>
<path class="st0" d="M232.2,198.3L232.2,198.3"/>
<path class="st0" d="M228.2,209.7L228.2,209.7"/>
<path class="st0" d="M249.5,181.7L249.5,181.7"/>
<path class="st0" d="M252,183.9L252,183.9"/>
<path class="st0" d="M278.6,155.4L278.6,155.4"/>
<path class="st0" d="M241.4,206.6L241.4,206.6"/>
<path class="st0" d="M282.2,165L282.2,165"/>
<path class="st0" d="M251.4,203.4L251.4,203.4"/>
<path class="st0" d="M233.3,225L233.3,225"/>
<path class="st0" d="M260.9,205.5L260.9,205.5"/>
<path class="st0" d="M270.4,198.2L270.4,198.2"/>
<path class="st0" d="M314.7,173.4L314.7,173.4"/>
<path class="st0" d="M280.1,204.6L280.1,204.6"/>
<path class="st0" d="M309.1,194.3L309.1,194.3"/>
<path class="st0" d="M299.5,209.3L299.5,209.3"/>
<path class="st0" d="M238.3,243L238.3,243"/>
<path class="st0" d="M309.4,213.6L309.4,213.6"/>
<path class="st0" d="M263.8,239.1L263.8,239.1"/>
<path class="st0" d="M290.5,232.9L290.5,232.9"/>
<path class="st0" d="M273.9,242.8L273.9,242.8"/>
<path class="st0" d="M316.9,233.1L316.9,233.1"/>
<path class="st0" d="M341.8,236.9L341.8,236.9"/>
<path class="st0" d="M275.8,258L275.8,258"/>
<path class="st0" d="M303.8,258.9L303.8,258.9"/>
<path class="st0" d="M290.1,264.3L290.1,264.3"/>
<path class="st0" d="M284.3,270.5L284.3,270.5"/>
<path class="st0" d="M282,273.1L282,273.1"/>
<path class="st0" d="M279.8,275.2L279.8,275.2"/>
<path class="st0" d="M292.6,279.3L292.6,279.3"/>
<path class="st0" d="M268.9,278.6L268.9,278.6"/>
<path class="st0" d="M312.1,290.1L312.1,290.1"/>
<path class="st0" d="M307.5,293.1L307.5,293.1"/>
<path class="st0" d="M294.8,293.6L294.8,293.6"/>
<path class="st0" d="M284.7,294.1L284.7,294.1"/>
<path class="st0" d="M302.2,303.5L302.2,303.5"/>
<path class="st0" d="M289.6,302.7L289.6,302.7"/>
<path class="st0" d="M281.6,306.9L281.6,306.9"/>
<path class="st0" d="M270.8,304.7L270.8,304.7"/>
<path class="st0" d="M273.6,309.5L273.6,309.5"/>
<path class="st0" d="M259.4,304.7L259.4,304.7"/>
<path class="st0" d="M280.2,320.8L280.2,320.8"/>
<path class="st0" d="M259.4,311.6L259.4,311.6"/>
<path class="st0" d="M257,315.3L257,315.3"/>
<path class="st0" d="M271.4,326.8L271.4,326.8"/>
<path class="st0" d="M272.4,331.9L272.4,331.9"/>
<path class="st0" d="M258.5,324.1L258.5,324.1"/>
<path class="st0" d="M262,331.4L262,331.4"/>
<path class="st0" d="M263.5,337.4L263.5,337.4"/>
<path class="st0" d="M250.5,328.7L250.5,328.7"/>
<path class="st0" d="M251.4,333.5L251.4,333.5"/>
<path class="st0" d="M250.5,337.2L250.5,337.2"/>
<path class="st0" d="M245.2,335.4L245.2,335.4"/>
<path class="st0" d="M253.2,351.2L253.2,351.2"/>
<path class="st0" d="M247.3,348.7L247.3,348.7"/>
<path class="st0" d="M246,352.7L246,352.7"/>
<path class="st0" d="M238.9,347L238.9,347"/>
<path class="st0" d="M235.8,347.7L235.8,347.7"/>
<path class="st0" d="M230.6,344.1L230.6,344.1"/>
<path class="st0" d="M234.5,359.7L234.5,359.7"/>
<path class="st0" d="M227,350.3L227,350.3"/>
<path class="st0" d="M222.8,347.7L222.8,347.7"/>
<path class="st0" d="M223.3,358L223.3,358"/>
<path class="st0" d="M220.7,360.4L220.7,360.4"/>
<path class="st0" d="M216.2,356.3L216.2,356.3"/>
<path class="st0" d="M215.8,367.9L215.8,367.9"/>
<path class="st0" d="M209.9,355.7L209.9,355.7"/>
<path class="st0" d="M207.4,358.8L207.4,358.8"/>
<path class="st0" d="M204.8,363.1L204.8,363.1"/>
<path class="st0" d="M200.3,355.4L200.3,355.4"/>
<path class="st0" d="M197.8,354.2L197.8,354.2"/>
<path class="st0" d="M195.3,367.9L195.3,367.9"/>
<path class="st0" d="M192,345.9L192,345.9"/>
<path class="st0" d="M189.4,345.8L189.4,345.8"/>
<path class="st0" d="M186.8,345.7L186.8,345.7"/>
<path class="st0" d="M184.1,345.5L184.1,345.5"/>
<path class="st0" d="M181.5,345.2L181.5,345.2"/>
<path class="st0" d="M178.9,344.8L178.9,344.8"/>
<path class="st0" d="M176.4,344.4L176.4,344.4"/>
<path class="st0" d="M173.8,343.8L173.8,343.8"/>
<path class="st0" d="M171.2,343.2L171.2,343.2"/>
<path class="st0" d="M168.7,342.5L168.7,342.5"/>
<path class="st0" d="M166.2,341.7L166.2,341.7"/>
<path class="st0" d="M163.8,340.7L163.8,340.7"/>
<path class="st0" d="M161.3,339.8L161.3,339.8"/>
<path class="st0" d="M158.9,338.9L158.9,338.9"/>
<path class="st0" d="M156.6,337.6L156.6,337.6"/>
<path class="st0" d="M154.2,336.5L154.2,336.5"/>
<path class="st0" d="M151.9,335.2L151.9,335.2"/>
<path class="st0" d="M149.6,333.9L149.6,333.9"/>
<path class="st0" d="M147.5,332.3L147.5,332.3"/>
<path class="st0" d="M145.2,331L145.2,331"/>
<path class="st0" d="M143.2,329.3L143.2,329.3"/>
<path class="st0" d="M141.2,327.7L141.2,327.7"/>
<path class="st0" d="M139,326.1L139,326.1"/>
<path class="st0" d="M137.3,324.2L137.3,324.2"/>
<path class="st0" d="M135.1,322.7L135.1,322.7"/>
<path class="st0" d="M133.3,320.8L133.3,320.8"/>
<path class="st0" d="M131.8,318.5L131.8,318.5"/>
<path class="st0" d="M130,316.6L130,316.6"/>
<path class="st0" d="M128.1,314.8L128.1,314.8"/>
<path class="st0" d="M126.7,312.6L126.7,312.6"/>
<path class="st0" d="M125.2,310.5L125.2,310.5"/>
<path class="st0" d="M123.9,308.1L123.9,308.1"/>
<path class="st0" d="M122.6,305.9L122.6,305.9"/>
<path class="st0" d="M121.6,303.5L121.6,303.5"/>
<path class="st0" d="M119.5,301.5L119.5,301.5"/>
<path class="st0" d="M118.9,298.9L118.9,298.9"/>
<path class="st0" d="M117.7,296.6L117.7,296.6"/>
<path class="st0" d="M116.3,294.3L116.3,294.3"/>
<path class="st0" d="M115.6,291.8L115.6,291.8"/>
<path class="st0" d="M115,289.2L115,289.2"/>
<path class="st0" d="M114.5,286.6L114.5,286.6"/>
<path class="st0" d="M113.6,284.2L113.6,284.2"/>
<path class="st0" d="M113.4,281.5L113.4,281.5"/>
<path class="st0" d="M111.7,279.2L111.7,279.2"/>
<path class="st0" d="M112.9,276.3L112.9,276.3"/>
<path class="st0" d="M112.2,273.8L112.2,273.8"/>
<path class="st0" d="M112.5,271.1L112.5,271.1"/>
<path class="st0" d="M110.5,268.6L110.5,268.6"/>
<path class="st0" d="M111.4,266L111.4,266"/>
<path class="st0" d="M110.2,263.3L110.2,263.3"/>
<path class="st0" d="M110.3,260.6L110.3,260.6"/>
<path class="st0" d="M113,258.2L113,258.2"/>
<path class="st0" d="M112.8,255.6L112.8,255.6"/>
<path class="st0" d="M112.6,252.9L112.6,252.9"/>
<path class="st0" d="M113.1,250.4L113.1,250.4"/>
<path class="st0" d="M114,247.9L114,247.9"/>
<path class="st0" d="M113.7,245.1L113.7,245.1"/>
<path class="st0" d="M114.1,242.5L114.1,242.5"/>
<path class="st0" d="M115.4,240.2L115.4,240.2"/>
<path class="st0" d="M118.6,238.5L118.6,238.5"/>
<path class="st0" d="M118.6,235.8L118.6,235.8"/>
<path class="st0" d="M116.7,232.1L116.7,232.1"/>
<path class="st0" d="M119.1,230.3L119.1,230.3"/>
<path class="st0" d="M119.7,227.7L119.7,227.7"/>
<path class="st0" d="M123.6,226.8L123.6,226.8"/>
<path class="st0" d="M124,224.1L124,224.1"/>
<path class="st0" d="M123.3,220.5L123.3,220.5"/>
<path class="st0" d="M124.7,218.2L124.7,218.2"/>
<path class="st0" d="M128.5,217.7L128.5,217.7"/>
<path class="st0" d="M129.9,215.6L129.9,215.6"/>
<path class="st0" d="M129.2,211.5L129.2,211.5"/>
<path class="st0" d="M133.5,211.8L133.5,211.8"/>
<path class="st0" d="M131.3,206.1L131.3,206.1"/>
<path class="st0" d="M133.5,204.3L133.5,204.3"/>
<path class="st0" d="M135.5,202.5L135.5,202.5"/>
<path class="st0" d="M139,202.3L139,202.3"/>
<path class="st0" d="M144.7,205.3L144.7,205.3"/>
<path class="st0" d="M141.1,196.3L141.1,196.3"/>
<path class="st0" d="M143.5,194.8L143.5,194.8"/>
<path class="st0" d="M147.1,195.2L147.1,195.2"/>
<path class="st0" d="M151.4,197.1L151.4,197.1"/>
<path class="st0" d="M154.4,197.3L154.4,197.3"/>
<path class="st0" d="M151.9,186.8L151.9,186.8"/>
<path class="st0" d="M157.9,192.7L157.9,192.7"/>
<path class="st0" d="M161.7,195L161.7,195"/>
<path class="st0" d="M165.5,197.9L165.5,197.9"/>
<path class="st0" d="M164.2,187.1L164.2,187.1"/>
<path class="st0" d="M169.5,194.9L169.5,194.9"/>
<path class="st0" d="M169.1,184.6L169.1,184.6"/>
<path class="st0" d="M171.8,184.1L171.8,184.1"/>
<path class="st0" d="M176,190.9L176,190.9"/>
<path class="st0" d="M179.3,195.1L179.3,195.1"/>
<path class="st0" d="M178.7,175.1L178.7,175.1"/>
<path class="st0" d="M182.4,181L182.4,181"/>
<path class="st0" d="M186.5,198.3L186.5,198.3"/>
<path class="st0" d="M188.1,184.8L188.1,184.8"/>
<path class="st0" d="M191,201L191,201"/>
<path class="st0" d="M193.4,179.8L193.4,179.8"/>
<path class="st0" d="M196.8,167.7L196.8,167.7"/>
<path class="st0" d="M197.5,197.6L197.5,197.6"/>
<path class="st0" d="M202.6,172.7L202.6,172.7"/>
<path class="st0" d="M203,190.4L203,190.4"/>
<path class="st0" d="M209.8,166.8L209.8,166.8"/>
<path class="st0" d="M208.9,186.8L208.9,186.8"/>
<path class="st0" d="M218.1,160.6L218.1,160.6"/>
<path class="st0" d="M215.3,183.3L215.3,183.3"/>
<path class="st0" d="M224,165.3L224,165.3"/>
<path class="st0" d="M227.4,165.9L227.4,165.9"/>
<path class="st0" d="M218.6,197.7L218.6,197.7"/>
<path class="st0" d="M236.9,161.1L236.9,161.1"/>
<path class="st0" d="M219,208.4L219,208.4"/>
<path class="st0" d="M235.9,179.2L235.9,179.2"/>
<path class="st0" d="M241.8,175.2L241.8,175.2"/>
<path class="st0" d="M233,196.5L233,196.5"/>
<path class="st0" d="M226.2,213.1L226.2,213.1"/>
<path class="st0" d="M242.9,196.1L242.9,196.1"/>
<path class="st0" d="M246.4,196.2L246.4,196.2"/>
<path class="st0" d="M226.3,224.6L226.3,224.6"/>
<path class="st0" d="M264.9,184.2L264.9,184.2"/>
<path class="st0" d="M226.8,231.4L226.8,231.4"/>
<path class="st0" d="M288.9,176.7L288.9,176.7"/>
<path class="st0" d="M239.6,225.8L239.6,225.8"/>
<path class="st0" d="M263.1,208.3L263.1,208.3"/>
<path class="st0" d="M259.7,214.6L259.7,214.6"/>
<path class="st0" d="M286.4,199.3L286.4,199.3"/>
<path class="st0" d="M245.1,233.7L245.1,233.7"/>
<path class="st0" d="M332.3,186.3L332.3,186.3"/>
<path class="st0" d="M283.2,217.8L283.2,217.8"/>
<path class="st0" d="M235.7,244.4L235.7,244.4"/>
<path class="st0" d="M286.2,223.8L286.2,223.8"/>
<path class="st0" d="M307.4,218.9L307.4,218.9"/>
<path class="st0" d="M242.4,247L242.4,247"/>
<path class="st0" d="M289.6,233.2L289.6,233.2"/>
<path class="st0" d="M298.5,234.1L298.5,234.1"/>
<path class="st0" d="M238.4,253.3L238.4,253.3"/>
<path class="st0" d="M276.7,247.7L276.7,247.7"/>
<path class="st0" d="M191.9,209.8L191.9,209.8"/>
<path class="st0" d="M296.7,249L296.7,249"/>
<path class="st0" d="M302.6,252.2L302.6,252.2"/>
<path class="st0" d="M270.4,258.6L270.4,258.6"/>
<path class="st0" d="M265.4,262.4L265.4,262.4"/>
<path class="st0" d="M285.5,263L285.5,263"/>
<path class="st0" d="M273.6,266L273.6,266"/>
<path class="st0" d="M301.5,269.8L301.5,269.8"/>
<path class="st0" d="M267.6,274.4L267.6,274.4"/>
<path class="st0" d="M272.1,276.4L272.1,276.4"/>
<path class="st0" d="M258.4,276.8L258.4,276.8"/>
<path class="st0" d="M262.1,282.8L262.1,282.8"/>
<path class="st0" d="M276.5,289.9L276.5,289.9"/>
<path class="st0" d="M284.2,297.3L284.2,297.3"/>
<path class="st0" d="M288.9,306.1L288.9,306.1"/>
<path class="st0" d="M267.8,303.2L267.8,303.2"/>
<path class="st0" d="M255.8,303.8L255.8,303.8"/>
<path class="st0" d="M272,323.2L272,323.2"/>
<path class="st0" d="M249.7,311L249.7,311"/>
<path class="st0" d="M259.9,325L259.9,325"/>
<path class="st0" d="M248.2,320.6L248.2,320.6"/>
<path class="st0" d="M247.7,322L247.7,322"/>
<path class="st0" d="M236.5,316.5L236.5,316.5"/>
<path class="st0" d="M238.7,322.7L238.7,322.7"/>
<path class="st0" d="M243.9,333.9L243.9,333.9"/>
<path class="st0" d="M235.5,328.9L235.5,328.9"/>
<path class="st0" d="M247.1,348.3L247.1,348.3"/>
<path class="st0" d="M230.1,327L230.1,327"/>
<path class="st0" d="M238.5,346.4L238.5,346.4"/>
<path class="st0" d="M228,333.5L228,333.5"/>
<path class="st0" d="M224.2,340.3L224.2,340.3"/>
<path class="st0" d="M226.8,349.8L226.8,349.8"/>
<path class="st0" d="M221.8,345L221.8,345"/>
<path class="st0" d="M217.6,341.2L217.6,341.2"/>
<path class="st0" d="M214.4,339.4L214.4,339.4"/>
<path class="st0" d="M211.9,340.7L211.9,340.7"/>
<path class="st0" d="M210.4,344.4L210.4,344.4"/>
<path class="st0" d="M206.5,338.8L206.5,338.8"/>
<path class="st0" d="M205.3,346L205.3,346"/>
<path class="st0" d="M203.4,352L203.4,352"/>
<path class="st0" d="M201,356.7L201,356.7"/>
<path class="st0" d="M197,341.3L197,341.3"/>
<path class="st0" d="M194.8,350.7L194.8,350.7"/>
<path class="st0" d="M192,330.2L192,330.2"/>
<path class="st0" d="M189.9,330.1L189.9,330.1"/>
<path class="st0" d="M187.8,330L187.8,330"/>
<path class="st0" d="M185.7,329.9L185.7,329.9"/>
<path class="st0" d="M183.6,329.6L183.6,329.6"/>
<path class="st0" d="M181.5,329.3L181.5,329.3"/>
<path class="st0" d="M179.4,329L179.4,329"/>
<path class="st0" d="M177.3,328.5L177.3,328.5"/>
<path class="st0" d="M175.3,328L175.3,328"/>
<path class="st0" d="M173.3,327.4L173.3,327.4"/>
<path class="st0" d="M171.3,326.8L171.3,326.8"/>
<path class="st0" d="M169.2,326.1L169.2,326.1"/>
<path class="st0" d="M167.3,325.2L167.3,325.2"/>
<path class="st0" d="M165.3,324.5L165.3,324.5"/>
<path class="st0" d="M163.4,323.6L163.4,323.6"/>
<path class="st0" d="M161.5,322.6L161.5,322.6"/>
<path class="st0" d="M159.7,321.6L159.7,321.6"/>
<path class="st0" d="M157.9,320.4L157.9,320.4"/>
<path class="st0" d="M156.1,319.3L156.1,319.3"/>
<path class="st0" d="M154.3,318.2L154.3,318.2"/>
<path class="st0" d="M152.7,316.9L152.7,316.9"/>
<path class="st0" d="M151,315.6L151,315.6"/>
<path class="st0" d="M149.4,314.3L149.4,314.3"/>
<path class="st0" d="M147.7,312.9L147.7,312.9"/>
<path class="st0" d="M146.4,311.3L146.4,311.3"/>
<path class="st0" d="M144.7,309.9L144.7,309.9"/>
<path class="st0" d="M143.5,308.3L143.5,308.3"/>
<path class="st0" d="M142,306.7L142,306.7"/>
<path class="st0" d="M140.6,305.2L140.6,305.2"/>
<path class="st0" d="M139.6,303.2L139.6,303.2"/>
<path class="st0" d="M138.1,301.7L138.1,301.7"/>
<path class="st0" d="M137.2,299.8L137.2,299.8"/>
<path class="st0" d="M136,298.1L136,298.1"/>
<path class="st0" d="M135,296.2L135,296.2"/>
<path class="st0" d="M134.1,294.3L134.1,294.3"/>
<path class="st0" d="M133.1,292.4L133.1,292.4"/>
<path class="st0" d="M132.3,290.4L132.3,290.4"/>
<path class="st0" d="M131.2,288.6L131.2,288.6"/>
<path class="st0" d="M130.3,286.7L130.3,286.7"/>
<path class="st0" d="M129.9,284.6L129.9,284.6"/>
<path class="st0" d="M129.3,282.6L129.3,282.6"/>
<path class="st0" d="M128.7,280.5L128.7,280.5"/>
<path class="st0" d="M128,278.5L128,278.5"/>
<path class="st0" d="M127.5,276.4L127.5,276.4"/>
<path class="st0" d="M127.3,274.3L127.3,274.3"/>
<path class="st0" d="M127.5,272.1L127.5,272.1"/>
<path class="st0" d="M127.3,270L127.3,270"/>
<path class="st0" d="M127.6,267.9L127.6,267.9"/>
<path class="st0" d="M127.5,265.8L127.5,265.8"/>
<path class="st0" d="M127.3,263.7L127.3,263.7"/>
<path class="st0" d="M127,261.6L127,261.6"/>
<path class="st0" d="M127.6,259.5L127.6,259.5"/>
<path class="st0" d="M127.5,257.4L127.5,257.4"/>
<path class="st0" d="M127.8,255.3L127.8,255.3"/>
<path class="st0" d="M128.4,253.2L128.4,253.2"/>
<path class="st0" d="M127.9,251L127.9,251"/>
<path class="st0" d="M128.5,248.9L128.5,248.9"/>
<path class="st0" d="M130.7,247.3L130.7,247.3"/>
<path class="st0" d="M129.9,244.9L129.9,244.9"/>
<path class="st0" d="M129.7,242.6L129.7,242.6"/>
<path class="st0" d="M131.7,241L131.7,241"/>
<path class="st0" d="M131.7,238.7L131.7,238.7"/>
<path class="st0" d="M133.4,237.2L133.4,237.2"/>
<path class="st0" d="M135.2,235.7L135.2,235.7"/>
<path class="st0" d="M136.7,234.2L136.7,234.2"/>
<path class="st0" d="M134.8,230.6L134.8,230.6"/>
<path class="st0" d="M136.2,228.9L136.2,228.9"/>
<path class="st0" d="M137.8,227.4L137.8,227.4"/>
<path class="st0" d="M139.8,226.2L139.8,226.2"/>
<path class="st0" d="M139.5,223.3L139.5,223.3"/>
<path class="st0" d="M140.5,221.2L140.5,221.2"/>
<path class="st0" d="M141.8,219.4L141.8,219.4"/>
<path class="st0" d="M146,220.4L146,220.4"/>
<path class="st0" d="M145,216.3L145,216.3"/>
<path class="st0" d="M151.3,220L151.3,220"/>
<path class="st0" d="M148.1,213.2L148.1,213.2"/>
<path class="st0" d="M153,215.8L153,215.8"/>
<path class="st0" d="M155.6,215.8L155.6,215.8"/>
<path class="st0" d="M153.7,209.6L153.7,209.6"/>
<path class="st0" d="M160.1,215.5L160.1,215.5"/>
<path class="st0" d="M159.3,210.4L159.3,210.4"/>
<path class="st0" d="M162.6,212L162.6,212"/>
<path class="st0" d="M164.6,211.6L164.6,211.6"/>
<path class="st0" d="M164.8,207.5L164.8,207.5"/>
<path class="st0" d="M167.6,208.7L167.6,208.7"/>
<path class="st0" d="M167.8,203.7L167.8,203.7"/>
<path class="st0" d="M168.6,199.4L168.6,199.4"/>
<path class="st0" d="M170.1,196.7L170.1,196.7"/>
<path class="st0" d="M173.2,199.3L173.2,199.3"/>
<path class="st0" d="M177.2,205.8L177.2,205.8"/>
<path class="st0" d="M179.5,207L179.5,207"/>
<path class="st0" d="M180.4,201.5L180.4,201.5"/>
<path class="st0" d="M181.4,193.3L181.4,193.3"/>
<path class="st0" d="M183.9,194.5L183.9,194.5"/>
<path class="st0" d="M187.3,207.9L187.3,207.9"/>
<path class="st0" d="M189.2,207.7L189.2,207.7"/>
<path class="st0" d="M191,203.8L191,203.8"/>
<path class="st0" d="M193.1,199.7L193.1,199.7"/>
<path class="st0" d="M195,204.5L195,204.5"/>
<path class="st0" d="M196.9,204.6L196.9,204.6"/>
<path class="st0" d="M200.2,193.8L200.2,193.8"/>
<path class="st0" d="M202,197.7L202,197.7"/>
<path class="st0" d="M204,198.8L204,198.8"/>
<path class="st0" d="M205.7,201.6L205.7,201.6"/>
<path class="st0" d="M207.8,201.7L207.8,201.7"/>
<path class="st0" d="M210.1,201.6L210.1,201.6"/>
<path class="st0" d="M217.5,185.5L217.5,185.5"/>
<path class="st0" d="M212.1,209.6L212.1,209.6"/>
<path class="st0" d="M220.1,200.2L220.1,200.2"/>
<path class="st0" d="M219.2,207.4L219.2,207.4"/>
<path class="st0" d="M227.7,195.4L227.7,195.4"/>
<path class="st0" d="M220.9,214.7L220.9,214.7"/>
<path class="st0" d="M228,204.8L228,204.8"/>
<path class="st0" d="M232.6,201.9L232.6,201.9"/>
<path class="st0" d="M240.7,194.4L240.7,194.4"/>
<path class="st0" d="M234.3,207.9L234.3,207.9"/>
<path class="st0" d="M236.7,208.5L236.7,208.5"/>
<path class="st0" d="M221.9,229.8L221.9,229.8"/>
<path class="st0" d="M258.5,191.4L258.5,191.4"/>
<path class="st0" d="M249.6,205.3L249.6,205.3"/>
<path class="st0" d="M222.7,235.5L222.7,235.5"/>
<path class="st0" d="M239.3,222L239.3,222"/>
<path class="st0" d="M243.9,220.9L243.9,220.9"/>
<path class="st0" d="M257.1,213.2L257.1,213.2"/>
<path class="st0" d="M258,215.8L258,215.8"/>
<path class="st0" d="M246.7,227.1L246.7,227.1"/>
<path class="st0" d="M274.5,211.5L274.5,211.5"/>
<path class="st0" d="M244.6,237.3L244.6,237.3"/>
<path class="st0" d="M267.4,226L267.4,226"/>
<path class="st0" d="M232,246.4L232,246.4"/>
<path class="st0" d="M263.9,234.4L263.9,234.4"/>
<path class="st0" d="M244.1,244.3L244.1,244.3"/>
<path class="st0" d="M236.1,249.6L236.1,249.6"/>
<path class="st0" d="M223.8,257.3L223.8,257.3"/>
<path class="st0" d="M283.8,244.8L283.8,244.8"/>
<path class="st0" d="M141.8,274.8L141.8,274.8"/>
<path class="st0" d="M235.6,258.6L235.6,258.6"/>
<path class="st0" d="M317.1,249.9L317.1,249.9"/>
<path class="st0" d="M283.2,257.1L283.2,257.1"/>
<path class="st0" d="M299.3,259.2L299.3,259.2"/>
<path class="st0" d="M248.9,263.9L248.9,263.9"/>
<path class="st0" d="M288.9,275.6L288.9,275.6"/>
<path class="st0" d="M246.8,272.9L246.8,272.9"/>
<path class="st0" d="M261.9,278.8L261.9,278.8"/>
<path class="st0" d="M292.4,286L292.4,286"/>
<path class="st0" d="M252.4,280.7L252.4,280.7"/>
<path class="st0" d="M262.7,287.5L262.7,287.5"/>
<path class="st0" d="M261.5,289.4L261.5,289.4"/>
<path class="st0" d="M286.2,301.4L286.2,301.4"/>
<path class="st0" d="M286.6,305.3L286.6,305.3"/>
<path class="st0" d="M286.8,308.9L286.8,308.9"/>
<path class="st0" d="M242.4,291L242.4,291"/>
<path class="st0" d="M266.1,305.4L266.1,305.4"/>
<path class="st0" d="M259.4,304.7L259.4,304.7"/>
<path class="st0" d="M263.2,310.1L263.2,310.1"/>
<path class="st0" d="M249.8,306.1L249.8,306.1"/>
<path class="st0" d="M235.7,297L235.7,297"/>
<path class="st0" d="M244.9,307.5L244.9,307.5"/>
<path class="st0" d="M264.4,325.3L264.4,325.3"/>
<path class="st0" d="M257.7,327.3L257.7,327.3"/>
<path class="st0" d="M250.7,324.4L250.7,324.4"/>
<path class="st0" d="M253.7,331.7L253.7,331.7"/>
<path class="st0" d="M233.5,313L233.5,313"/>
<path class="st0" d="M229.3,311.1L229.3,311.1"/>
<path class="st0" d="M247.2,337.8L247.2,337.8"/>
<path class="st0" d="M221.4,309.6L221.4,309.6"/>
<path class="st0" d="M227.8,324.1L227.8,324.1"/>
<path class="st0" d="M227.7,327.5L227.7,327.5"/>
<path class="st0" d="M223.2,325.7L223.2,325.7"/>
<path class="st0" d="M225.7,334L225.7,334"/>
<path class="st0" d="M222.1,338.5L222.1,338.5"/>
<path class="st0" d="M217.4,340.4L217.4,340.4"/>
<path class="st0" d="M202.7,311.4L202.7,311.4"/>
<path class="st0" d="M202.9,320.4L202.9,320.4"/>
<path class="st0" d="M200.2,315.1L200.2,315.1"/>
<path class="st0" d="M199,318.6L199,318.6"/>
<path class="st0" d="M196.7,323.4L196.7,323.4"/>
<path class="st0" d="M196.5,334.8L196.5,334.8"/>
<path class="st0" d="M194.1,329.5L194.1,329.5"/>
<path class="st0" d="M192,314.5L192,314.5"/>
<path class="st0" d="M190.4,314.5L190.4,314.5"/>
<path class="st0" d="M188.8,314.4L188.8,314.4"/>
<path class="st0" d="M187.2,314.2L187.2,314.2"/>
<path class="st0" d="M185.6,314.1L185.6,314.1"/>
<path class="st0" d="M184,313.8L184,313.8"/>
<path class="st0" d="M182.5,313.5L182.5,313.5"/>
<path class="st0" d="M180.9,313.2L180.9,313.2"/>
<path class="st0" d="M179.3,312.8L179.3,312.8"/>
<path class="st0" d="M177.8,312.4L177.8,312.4"/>
<path class="st0" d="M176.3,311.9L176.3,311.9"/>
<path class="st0" d="M174.8,311.3L174.8,311.3"/>
<path class="st0" d="M173.3,310.8L173.3,310.8"/>
<path class="st0" d="M171.8,310.1L171.8,310.1"/>
<path class="st0" d="M170.4,309.4L170.4,309.4"/>
<path class="st0" d="M168.9,308.7L168.9,308.7"/>
<path class="st0" d="M167.5,307.9L167.5,307.9"/>
<path class="st0" d="M166.2,307.1L166.2,307.1"/>
<path class="st0" d="M164.8,306.3L164.8,306.3"/>
<path class="st0" d="M163.5,305.4L163.5,305.4"/>
<path class="st0" d="M162.2,304.4L162.2,304.4"/>
<path class="st0" d="M160.9,303.4L160.9,303.4"/>
<path class="st0" d="M159.7,302.4L159.7,302.4"/>
<path class="st0" d="M158.5,301.3L158.5,301.3"/>
<path class="st0" d="M157.3,300.2L157.3,300.2"/>
<path class="st0" d="M156.2,299.1L156.2,299.1"/>
<path class="st0" d="M155.2,297.8L155.2,297.8"/>
<path class="st0" d="M154.2,296.6L154.2,296.6"/>
<path class="st0" d="M153.3,295.3L153.3,295.3"/>
<path class="st0" d="M152.1,294.2L152.1,294.2"/>
<path class="st0" d="M151.3,292.8L151.3,292.8"/>
<path class="st0" d="M150.3,291.6L150.3,291.6"/>
<path class="st0" d="M149.5,290.2L149.5,290.2"/>
<path class="st0" d="M148.5,288.8L148.5,288.8"/>
<path class="st0" d="M147.9,287.4L147.9,287.4"/>
<path class="st0" d="M147.1,285.9L147.1,285.9"/>
<path class="st0" d="M146.8,284.4L146.8,284.4"/>
<path class="st0" d="M146.3,282.8L146.3,282.8"/>
<path class="st0" d="M145.9,281.3L145.9,281.3"/>
<path class="st0" d="M145.1,279.9L145.1,279.9"/>
<path class="st0" d="M144.3,278.4L144.3,278.4"/>
<path class="st0" d="M144.1,276.8L144.1,276.8"/>
<path class="st0" d="M144.2,275.2L144.2,275.2"/>
<path class="st0" d="M144.1,273.6L144.1,273.6"/>
<path class="st0" d="M142.8,272.1L142.8,272.1"/>
<path class="st0" d="M143.1,270.5L143.1,270.5"/>
<path class="st0" d="M142.4,268.9L142.4,268.9"/>
<path class="st0" d="M142.6,267.3L142.6,267.3"/>
<path class="st0" d="M143,265.7L143,265.7"/>
<path class="st0" d="M143,264.1L143,264.1"/>
<path class="st0" d="M143.3,262.5L143.3,262.5"/>
<path class="st0" d="M143,260.9L143,260.9"/>
<path class="st0" d="M143.7,259.4L143.7,259.4"/>
<path class="st0" d="M143.3,257.7L143.3,257.7"/>
<path class="st0" d="M144,256.2L144,256.2"/>
<path class="st0" d="M143.4,254.4L143.4,254.4"/>
<path class="st0" d="M144.9,253.1L144.9,253.1"/>
<path class="st0" d="M144,251.3L144,251.3"/>
<path class="st0" d="M145.1,249.9L145.1,249.9"/>
<path class="st0" d="M145.3,248.2L145.3,248.2"/>
<path class="st0" d="M146.3,246.9L146.3,246.9"/>
<path class="st0" d="M146.3,245.1L146.3,245.1"/>
<path class="st0" d="M148.6,244.5L148.6,244.5"/>
<path class="st0" d="M148.2,242.5L148.2,242.5"/>
<path class="st0" d="M150.1,241.7L150.1,241.7"/>
<path class="st0" d="M150.2,239.9L150.2,239.9"/>
<path class="st0" d="M151.9,239.2L151.9,239.2"/>
<path class="st0" d="M150.4,236.2L150.4,236.2"/>
<path class="st0" d="M151.9,235.3L151.9,235.3"/>
<path class="st0" d="M154.3,235.1L154.3,235.1"/>
<path class="st0" d="M155.9,234.4L155.9,234.4"/>
<path class="st0" d="M155.8,232.2L155.8,232.2"/>
<path class="st0" d="M158.1,232.3L158.1,232.3"/>
<path class="st0" d="M156.5,228.3L156.5,228.3"/>
<path class="st0" d="M157.2,226.6L157.2,226.6"/>
<path class="st0" d="M160.8,228.3L160.8,228.3"/>
<path class="st0" d="M161.1,226L161.1,226"/>
<path class="st0" d="M163.6,226.7L163.6,226.7"/>
<path class="st0" d="M165.6,226.9L165.6,226.9"/>
<path class="st0" d="M167.3,226.7L167.3,226.7"/>
<path class="st0" d="M166,221.7L166,221.7"/>
<path class="st0" d="M169.7,225L169.7,225"/>
<path class="st0" d="M171.2,224.6L171.2,224.6"/>
<path class="st0" d="M171.6,221.9L171.6,221.9"/>
<path class="st0" d="M171.4,217.5L171.4,217.5"/>
<path class="st0" d="M173.2,217.6L173.2,217.6"/>
<path class="st0" d="M176.3,221L176.3,221"/>
<path class="st0" d="M176.2,216L176.2,216"/>
<path class="st0" d="M178.7,218.5L178.7,218.5"/>
<path class="st0" d="M181.1,221.6L181.1,221.6"/>
<path class="st0" d="M180.2,210.4L180.2,210.4"/>
<path class="st0" d="M183.2,216.7L183.2,216.7"/>
<path class="st0" d="M184.6,215.3L184.6,215.3"/>
<path class="st0" d="M186.8,220.1L186.8,220.1"/>
<path class="st0" d="M187.8,213.2L187.8,213.2"/>
<path class="st0" d="M189.9,222.3L189.9,222.3"/>
<path class="st0" d="M191.3,222.5L191.3,222.5"/>
<path class="st0" d="M192.8,216.2L192.8,216.2"/>
<path class="st0" d="M194,224.3L194,224.3"/>
<path class="st0" d="M196.2,213.7L196.2,213.7"/>
<path class="st0" d="M196.6,225.6L196.6,225.6"/>
<path class="st0" d="M199.4,215.2L199.4,215.2"/>
<path class="st0" d="M201.2,214.6L201.2,214.6"/>
<path class="st0" d="M201.1,223.1L201.1,223.1"/>
<path class="st0" d="M201.9,225.8L201.9,225.8"/>
<path class="st0" d="M202.5,228.5L202.5,228.5"/>
<path class="st0" d="M208.5,213.7L208.5,213.7"/>
<path class="st0" d="M212.4,208L212.4,208"/>
<path class="st0" d="M211.9,214.6L211.9,214.6"/>
<path class="st0" d="M212.5,217.8L212.5,217.8"/>
<path class="st0" d="M209,229.1L209,229.1"/>
<path class="st0" d="M211.3,227.8L211.3,227.8"/>
<path class="st0" d="M224.5,206.4L224.5,206.4"/>
<path class="st0" d="M213.4,229.4L213.4,229.4"/>
<path class="st0" d="M214.3,230.5L214.3,230.5"/>
<path class="st0" d="M221.7,227.7L221.7,227.7"/>
<path class="st0" d="M216.1,236.7L216.1,236.7"/>
<path class="st0" d="M206.4,249.3L206.4,249.3"/>
<path class="st0" d="M231.9,223.8L231.9,223.8"/>
<path class="st0" d="M222.9,235.2L222.9,235.2"/>
<path class="st0" d="M225.9,234.3L225.9,234.3"/>
<path class="st0" d="M223.2,239.1L223.2,239.1"/>
<path class="st0" d="M220.3,243.1L220.3,243.1"/>
<path class="st0" d="M247,226.8L247,226.8"/>
<path class="st0" d="M224.2,244.3L224.2,244.3"/>
<path class="st0" d="M252.6,228.5L252.6,228.5"/>
<path class="st0" d="M266.8,223.2L266.8,223.2"/>
<path class="st0" d="M266.9,232.3L266.9,232.3"/>
<path class="st0" d="M231.6,252.8L231.6,252.8"/>
<path class="st0" d="M281.8,239L281.8,239"/>
<path class="st0" d="M225.7,256.6L225.7,256.6"/>
<path class="st0" d="M267.1,248.5L267.1,248.5"/>
<path class="st0" d="M237.4,258.2L237.4,258.2"/>
<path class="st0" d="M230.1,261.9L230.1,261.9"/>
<path class="st0" d="M272.1,260.7L272.1,260.7"/>
<path class="st0" d="M239.2,264.1L239.2,264.1"/>
<path class="st0" d="M243.1,266.3L243.1,266.3"/>
<path class="st0" d="M260.2,268.6L260.2,268.6"/>
<path class="st0" d="M285.2,272.1L285.2,272.1"/>
<path class="st0" d="M225.4,269.6L225.4,269.6"/>
<path class="st0" d="M221.3,269.4L221.3,269.4"/>
<path class="st0" d="M219.9,270.5L219.9,270.5"/>
<path class="st0" d="M183.5,263.3L183.5,263.3"/>
<path class="st0" d="M288,291.7L288,291.7"/>
<path class="st0" d="M266.8,288.5L266.8,288.5"/>
<path class="st0" d="M288.4,305.9L288.4,305.9"/>
<path class="st0" d="M275.6,303.8L275.6,303.8"/>
<path class="st0" d="M249.5,294.1L249.5,294.1"/>
<path class="st0" d="M225,284L225,284"/>
<path class="st0" d="M239.9,294.2L239.9,294.2"/>
<path class="st0" d="M221.2,283.7L221.2,283.7"/>
<path class="st0" d="M264.8,314.5L264.8,314.5"/>
<path class="st0" d="M237.8,298.5L237.8,298.5"/>
<path class="st0" d="M263.1,320.4L263.1,320.4"/>
<path class="st0" d="M225.7,293.5L225.7,293.5"/>
<path class="st0" d="M242.9,310.4L242.9,310.4"/>
<path class="st0" d="M213.6,285.7L213.6,285.7"/>
<path class="st0" d="M238.7,312.4L238.7,312.4"/>
<path class="st0" d="M247.7,325.2L247.7,325.2"/>
<path class="st0" d="M217.9,295.1L217.9,295.1"/>
<path class="st0" d="M213.4,291.5L213.4,291.5"/>
<path class="st0" d="M235.9,322.9L235.9,322.9"/>
<path class="st0" d="M236.5,327.9L236.5,327.9"/>
<path class="st0" d="M207.6,288.9L207.6,288.9"/>
<path class="st0" d="M223.8,325.6L223.8,325.6"/>
<path class="st0" d="M220.2,322.8L220.2,322.8"/>
<path class="st0" d="M226.3,341.5L226.3,341.5"/>
<path class="st0" d="M213.4,324.4L213.4,324.4"/>
<path class="st0" d="M212.8,343.3L212.8,343.3"/>
<path class="st0" d="M197.4,288.7L197.4,288.7"/>
<path class="st0" d="M198.3,297.2L198.3,297.2"/>
<path class="st0" d="M197,295.6L197,295.6"/>
<path class="st0" d="M197.3,305.6L197.3,305.6"/>
<path class="st0" d="M199.5,341.6L199.5,341.6"/>
<path class="st0" d="M194.3,306.7L194.3,306.7"/>
<path class="st0" d="M193.5,312L193.5,312"/>
<path class="st0" d="M192,298.8L192,298.8"/>
<path class="st0" d="M190.9,298.8L190.9,298.8"/>
<path class="st0" d="M189.8,298.7L189.8,298.7"/>
<path class="st0" d="M188.7,298.6L188.7,298.6"/>
<path class="st0" d="M187.7,298.5L187.7,298.5"/>
<path class="st0" d="M186.6,298.3L186.6,298.3"/>
<path class="st0" d="M185.5,298.1L185.5,298.1"/>
<path class="st0" d="M184.4,297.9L184.4,297.9"/>
<path class="st0" d="M183.4,297.6L183.4,297.6"/>
<path class="st0" d="M182.3,297.4L182.3,297.4"/>
<path class="st0" d="M181.3,297L181.3,297"/>
<path class="st0" d="M180.3,296.6L180.3,296.6"/>
<path class="st0" d="M179.3,296.2L179.3,296.2"/>
<path class="st0" d="M178.2,295.8L178.2,295.8"/>
<path class="st0" d="M177.3,295.3L177.3,295.3"/>
<path class="st0" d="M176.3,294.9L176.3,294.9"/>
<path class="st0" d="M175.3,294.3L175.3,294.3"/>
<path class="st0" d="M174.4,293.7L174.4,293.7"/>
<path class="st0" d="M173.5,293.2L173.5,293.2"/>
<path class="st0" d="M172.6,292.5L172.6,292.5"/>
<path class="st0" d="M171.7,291.9L171.7,291.9"/>
<path class="st0" d="M170.8,291.3L170.8,291.3"/>
<path class="st0" d="M170,290.6L170,290.6"/>
<path class="st0" d="M169.2,289.8L169.2,289.8"/>
<path class="st0" d="M168.4,289.1L168.4,289.1"/>
<path class="st0" d="M167.6,288.3L167.6,288.3"/>
<path class="st0" d="M166.9,287.5L166.9,287.5"/>
<path class="st0" d="M166.3,286.6L166.3,286.6"/>
<path class="st0" d="M165.5,285.8L165.5,285.8"/>
<path class="st0" d="M164.9,284.9L164.9,284.9"/>
<path class="st0" d="M164.2,284.1L164.2,284.1"/>
<path class="st0" d="M163.7,283.1L163.7,283.1"/>
<path class="st0" d="M163.1,282.2L163.1,282.2"/>
<path class="st0" d="M162.7,281.2L162.7,281.2"/>
<path class="st0" d="M161.9,280.3L161.9,280.3"/>
<path class="st0" d="M161.7,279.3L161.7,279.3"/>
<path class="st0" d="M161,278.4L161,278.4"/>
<path class="st0" d="M160.6,277.3L160.6,277.3"/>
<path class="st0" d="M160.4,276.2L160.4,276.2"/>
<path class="st0" d="M160.1,275.2L160.1,275.2"/>
<path class="st0" d="M159.9,274.1L159.9,274.1"/>
<path class="st0" d="M159.7,273.1L159.7,273.1"/>
<path class="st0" d="M159,272.1L159,272.1"/>
<path class="st0" d="M158.9,271L158.9,271"/>
<path class="st0" d="M158.9,269.9L158.9,269.9"/>
<path class="st0" d="M158.6,268.9L158.6,268.9"/>
<path class="st0" d="M158.8,267.7L158.8,267.7"/>
<path class="st0" d="M158.2,266.7L158.2,266.7"/>
<path class="st0" d="M158.6,265.6L158.6,265.6"/>
<path class="st0" d="M158.6,264.5L158.6,264.5"/>
<path class="st0" d="M158.3,263.4L158.3,263.4"/>
<path class="st0" d="M159.1,262.3L159.1,262.3"/>
<path class="st0" d="M159.2,261.3L159.2,261.3"/>
<path class="st0" d="M158.9,260.1L158.9,260.1"/>
<path class="st0" d="M159.6,259.2L159.6,259.2"/>
<path class="st0" d="M159,257.9L159,257.9"/>
<path class="st0" d="M160.2,257.1L160.2,257.1"/>
<path class="st0" d="M160.4,256.1L160.4,256.1"/>
<path class="st0" d="M160,254.8L160,254.8"/>
<path class="st0" d="M160.9,254L160.9,254"/>
<path class="st0" d="M160.8,252.7L160.8,252.7"/>
<path class="st0" d="M161.7,252L161.7,252"/>
<path class="st0" d="M161.6,250.7L161.6,250.7"/>
<path class="st0" d="M161.8,249.6L161.8,249.6"/>
<path class="st0" d="M163.2,249.1L163.2,249.1"/>
<path class="st0" d="M162.8,247.6L162.8,247.6"/>
<path class="st0" d="M162.9,246.3L162.9,246.3"/>
<path class="st0" d="M164.9,246.4L164.9,246.4"/>
<path class="st0" d="M165.5,245.5L165.5,245.5"/>
<path class="st0" d="M165.7,244.2L165.7,244.2"/>
<path class="st0" d="M167.6,244.4L167.6,244.4"/>
<path class="st0" d="M168.4,243.7L168.4,243.7"/>
<path class="st0" d="M169.1,243L169.1,243"/>
<path class="st0" d="M168.7,241L168.7,241"/>
<path class="st0" d="M169.8,240.6L169.8,240.6"/>
<path class="st0" d="M169.9,239.1L169.9,239.1"/>
<path class="st0" d="M171.6,239.4L171.6,239.4"/>
<path class="st0" d="M172.8,239.2L172.8,239.2"/>
<path class="st0" d="M173.3,238L173.3,238"/>
<path class="st0" d="M173.1,235.7L173.1,235.7"/>
<path class="st0" d="M175,236.7L175,236.7"/>
<path class="st0" d="M174.5,233.7L174.5,233.7"/>
<path class="st0" d="M176.9,235.8L176.9,235.8"/>
<path class="st0" d="M177.2,233.8L177.2,233.8"/>
<path class="st0" d="M179,235.1L179,235.1"/>
<path class="st0" d="M180.3,235.5L180.3,235.5"/>
<path class="st0" d="M180.7,233.6L180.7,233.6"/>
<path class="st0" d="M182,234.1L182,234.1"/>
<path class="st0" d="M183.5,235.3L183.5,235.3"/>
<path class="st0" d="M182.8,228.5L182.8,228.5"/>
<path class="st0" d="M185.3,234.2L185.3,234.2"/>
<path class="st0" d="M186.2,233.5L186.2,233.5"/>
<path class="st0" d="M187.3,233.3L187.3,233.3"/>
<path class="st0" d="M187.9,229.6L187.9,229.6"/>
<path class="st0" d="M189.6,235.9L189.6,235.9"/>
<path class="st0" d="M190.5,234.9L190.5,234.9"/>
<path class="st0" d="M191.6,238L191.6,238"/>
<path class="st0" d="M192.5,235.5L192.5,235.5"/>
<path class="st0" d="M193.4,236.6L193.4,236.6"/>
<path class="st0" d="M194.4,235.6L194.4,235.6"/>
<path class="st0" d="M196.6,225.5L196.6,225.5"/>
<path class="st0" d="M196.6,233.9L196.6,233.9"/>
<path class="st0" d="M199.3,224.9L199.3,224.9"/>
<path class="st0" d="M199,232.6L199,232.6"/>
<path class="st0" d="M202,225.3L202,225.3"/>
<path class="st0" d="M198.7,241.9L198.7,241.9"/>
<path class="st0" d="M202.2,233.3L202.2,233.3"/>
<path class="st0" d="M202.2,236.5L202.2,236.5"/>
<path class="st0" d="M207.5,225.9L207.5,225.9"/>
<path class="st0" d="M206,232.9L206,232.9"/>
<path class="st0" d="M204.1,239.5L204.1,239.5"/>
<path class="st0" d="M211.8,226.5L211.8,226.5"/>
<path class="st0" d="M213.9,225.7L213.9,225.7"/>
<path class="st0" d="M208.8,237L208.8,237"/>
<path class="st0" d="M207.4,241.3L207.4,241.3"/>
<path class="st0" d="M212.7,235.1L212.7,235.1"/>
<path class="st0" d="M216.5,232.1L216.5,232.1"/>
<path class="st0" d="M214.1,237.2L214.1,237.2"/>
<path class="st0" d="M203.3,251.8L203.3,251.8"/>
<path class="st0" d="M204.7,251.2L204.7,251.2"/>
<path class="st0" d="M205.9,250.8L205.9,250.8"/>
<path class="st0" d="M216.9,241L216.9,241"/>
<path class="st0" d="M221.9,238L221.9,238"/>
<path class="st0" d="M224.8,237.2L224.8,237.2"/>
<path class="st0" d="M221,242L221,242"/>
<path class="st0" d="M232.2,235.2L232.2,235.2"/>
<path class="st0" d="M216.8,248L216.8,248"/>
<path class="st0" d="M223.8,244.5L223.8,244.5"/>
<path class="st0" d="M234.7,239.4L234.7,239.4"/>
<path class="st0" d="M232,242.8L232,242.8"/>
<path class="st0" d="M240.3,240.2L240.3,240.2"/>
<path class="st0" d="M237,243.7L237,243.7"/>
<path class="st0" d="M217.9,253.9L217.9,253.9"/>
<path class="st0" d="M227.5,251.5L227.5,251.5"/>
<path class="st0" d="M233.5,253.1L233.5,253.1"/>
<path class="st0" d="M202.2,262.7L202.2,262.7"/>
<path class="st0" d="M244.6,254.5L244.6,254.5"/>
<path class="st0" d="M146.1,274L146.1,274"/>
<path class="st0" d="M225.5,260.1L225.5,260.1"/>
<path class="st0" d="M216.6,262.3L216.6,262.3"/>
<path class="st0" d="M215.4,263.2L215.4,263.2"/>
<path class="st0" d="M206.6,264.5L206.6,264.5"/>
<path class="st0" d="M212.7,264.8L212.7,264.8"/>
<path class="st0" d="M251.3,265.8L251.3,265.8"/>
<path class="st0" d="M260.4,268.1L260.4,268.1"/>
<path class="st0" d="M231.8,269.5L231.8,269.5"/>
<path class="st0" d="M232.8,269.6L232.8,269.6"/>
<path class="st0" d="M211.3,268L211.3,268"/>
<path class="st0" d="M262.5,277.5L262.5,277.5"/>
<path class="st0" d="M228.4,272.8L228.4,272.8"/>
<path class="st0" d="M278.5,286.1L278.5,286.1"/>
<path class="st0" d="M229.6,279.5L229.6,279.5"/>
<path class="st0" d="M275.1,297.2L275.1,297.2"/>
<path class="st0" d="M252.6,290.9L252.6,290.9"/>
<path class="st0" d="M197.1,267.7L197.1,267.7"/>
<path class="st0" d="M203.9,271.4L203.9,271.4"/>
<path class="st0" d="M244.5,298.3L244.5,298.3"/>
<path class="st0" d="M209.3,277L209.3,277"/>
<path class="st0" d="M215.8,282.9L215.8,282.9"/>
<path class="st0" d="M197,269.1L197,269.1"/>
<path class="st0" d="M186.6,260.8L186.6,260.8"/>
<path class="st0" d="M212.6,283.5L212.6,283.5"/>
<path class="st0" d="M237,307.8L237,307.8"/>
<path class="st0" d="M206.1,281.5L206.1,281.5"/>
<path class="st0" d="M207,284.1L207,284.1"/>
<path class="st0" d="M213.7,293.8L213.7,293.8"/>
<path class="st0" d="M205.9,286.9L205.9,286.9"/>
<path class="st0" d="M224,325.6L224,325.6"/>
<path class="st0" d="M195.3,272L195.3,272"/>
<path class="st0" d="M199.7,282.3L199.7,282.3"/>
<path class="st0" d="M213.9,318.4L213.9,318.4"/>
<path class="st0" d="M215.2,327.4L215.2,327.4"/>
<path class="st0" d="M211.3,329.4L211.3,329.4"/>
<path class="st0" d="M201.1,301.7L201.1,301.7"/>
<path class="st0" d="M207.3,331.1L207.3,331.1"/>
<path class="st0" d="M199.2,304.7L199.2,304.7"/>
<path class="st0" d="M196,289.9L196,289.9"/>
<path class="st0" d="M196.5,311.2L196.5,311.2"/>
<path class="st0" d="M195.7,321.3L195.7,321.3"/>
<path class="st0" d="M192.9,291.9L192.9,291.9"/>
<path class="st0" d="M192,283.1L192,283.1"/>
<path class="st0" d="M191.4,283.1L191.4,283.1"/>
<path class="st0" d="M190.8,283L190.8,283"/>
<path class="st0" d="M190.3,283L190.3,283"/>
<path class="st0" d="M189.7,282.9L189.7,282.9"/>
<path class="st0" d="M189.1,282.8L189.1,282.8"/>
<path class="st0" d="M188.6,282.7L188.6,282.7"/>
<path class="st0" d="M188,282.6L188,282.6"/>
<path class="st0" d="M187.4,282.5L187.4,282.5"/>
<path class="st0" d="M186.9,282.3L186.9,282.3"/>
<path class="st0" d="M186.3,282.1L186.3,282.1"/>
<path class="st0" d="M185.8,281.9L185.8,281.9"/>
<path class="st0" d="M185.2,281.7L185.2,281.7"/>
<path class="st0" d="M184.7,281.5L184.7,281.5"/>
<path class="st0" d="M184.2,281.3L184.2,281.3"/>
<path class="st0" d="M183.7,281L183.7,281"/>
<path class="st0" d="M183.2,280.7L183.2,280.7"/>
<path class="st0" d="M182.7,280.4L182.7,280.4"/>
<path class="st0" d="M182.2,280.1L182.2,280.1"/>
<path class="st0" d="M181.7,279.8L181.7,279.8"/>
<path class="st0" d="M181.2,279.5L181.2,279.5"/>
<path class="st0" d="M180.8,279.1L180.8,279.1"/>
<path class="st0" d="M180.3,278.7L180.3,278.7"/>
<path class="st0" d="M179.9,278.3L179.9,278.3"/>
<path class="st0" d="M179.5,277.9L179.5,277.9"/>
<path class="st0" d="M179.1,277.5L179.1,277.5"/>
<path class="st0" d="M178.7,277L178.7,277"/>
<path class="st0" d="M178.4,276.6L178.4,276.6"/>
<path class="st0" d="M178,276.2L178,276.2"/>
<path class="st0" d="M177.6,275.7L177.6,275.7"/>
<path class="st0" d="M177.2,275.3L177.2,275.3"/>
<path class="st0" d="M177,274.8L177,274.8"/>
<path class="st0" d="M176.7,274.2L176.7,274.2"/>
<path class="st0" d="M176.3,273.8L176.3,273.8"/>
<path class="st0" d="M176.2,273.2L176.2,273.2"/>
<path class="st0" d="M175.9,272.7L175.9,272.7"/>
<path class="st0" d="M175.6,272.2L175.6,272.2"/>
<path class="st0" d="M175.5,271.6L175.5,271.6"/>
<path class="st0" d="M175.3,271.1L175.3,271.1"/>
<path class="st0" d="M174.9,270.6L174.9,270.6"/>
<path class="st0" d="M174.9,270L174.9,270"/>
<path class="st0" d="M174.8,269.4L174.8,269.4"/>
<path class="st0" d="M174.5,268.9L174.5,268.9"/>
<path class="st0" d="M174.9,268.3L174.9,268.3"/>
<path class="st0" d="M174.3,267.8L174.3,267.8"/>
<path class="st0" d="M174.2,267.2L174.2,267.2"/>
<path class="st0" d="M174.1,266.6L174.1,266.6"/>
<path class="st0" d="M174.2,266L174.2,266"/>
<path class="st0" d="M174.1,265.4L174.1,265.4"/>
<path class="st0" d="M174.2,264.9L174.2,264.9"/>
<path class="st0" d="M174.6,264.3L174.6,264.3"/>
<path class="st0" d="M174.1,263.7L174.1,263.7"/>
<path class="st0" d="M174.5,263.2L174.5,263.2"/>
<path class="st0" d="M174.4,262.6L174.4,262.6"/>
<path class="st0" d="M174.8,262.1L174.8,262.1"/>
<path class="st0" d="M174.9,261.5L174.9,261.5"/>
<path class="st0" d="M175.1,260.9L175.1,260.9"/>
<path class="st0" d="M175.4,260.4L175.4,260.4"/>
<path class="st0" d="M174.9,259.7L174.9,259.7"/>
<path class="st0" d="M175.2,259.2L175.2,259.2"/>
<path class="st0" d="M176,258.9L176,258.9"/>
<path class="st0" d="M176.1,258.3L176.1,258.3"/>
<path class="st0" d="M176.6,257.9L176.6,257.9"/>
<path class="st0" d="M176,257L176,257"/>
<path class="st0" d="M176.3,256.5L176.3,256.5"/>
<path class="st0" d="M176.6,255.9L176.6,255.9"/>
<path class="st0" d="M177.6,255.9L177.6,255.9"/>
<path class="st0" d="M177,254.8L177,254.8"/>
<path class="st0" d="M177.4,254.4L177.4,254.4"/>
<path class="st0" d="M178.8,254.7L178.8,254.7"/>
<path class="st0" d="M178.8,254L178.8,254"/>
<path class="st0" d="M178.2,252.7L178.2,252.7"/>
<path class="st0" d="M179.6,253.2L179.6,253.2"/>
<path class="st0" d="M179.2,252L179.2,252"/>
<path class="st0" d="M180.5,252.5L180.5,252.5"/>
<path class="st0" d="M180,251L180,251"/>
<path class="st0" d="M180.6,250.8L180.6,250.8"/>
<path class="st0" d="M182.2,252L182.2,252"/>
<path class="st0" d="M181.9,250.7L181.9,250.7"/>
<path class="st0" d="M182.9,251.2L182.9,251.2"/>
<path class="st0" d="M182,248.5L182,248.5"/>
<path class="st0" d="M183.8,250.4L183.8,250.4"/>
<path class="st0" d="M183.4,248.5L183.4,248.5"/>
<path class="st0" d="M184.9,250.3L184.9,250.3"/>
<path class="st0" d="M185.8,250.8L185.8,250.8"/>
<path class="st0" d="M186.3,250.8L186.3,250.8"/>
<path class="st0" d="M185.3,246.5L185.3,246.5"/>
<path class="st0" d="M186.1,246.8L186.1,246.8"/>
<path class="st0" d="M187.5,249.5L187.5,249.5"/>
<path class="st0" d="M187.3,246.5L187.3,246.5"/>
<path class="st0" d="M187.8,245.6L187.8,245.6"/>
<path class="st0" d="M189.4,250.8L189.4,250.8"/>
<path class="st0" d="M189,244.8L189,244.8"/>
<path class="st0" d="M190.4,250.9L190.4,250.9"/>
<path class="st0" d="M190.7,249L190.7,249"/>
<path class="st0" d="M191.3,251L191.3,251"/>
<path class="st0" d="M191.6,243.3L191.6,243.3"/>
<path class="st0" d="M192.3,246.6L192.3,246.6"/>
<path class="st0" d="M193.1,243.6L193.1,243.6"/>
<path class="st0" d="M193.1,251.5L193.1,251.5"/>
<path class="st0" d="M194,247.5L194,247.5"/>
<path class="st0" d="M194.3,250L194.3,250"/>
<path class="st0" d="M194.9,249.3L194.9,249.3"/>
<path class="st0" d="M196.4,244.9L196.4,244.9"/>
<path class="st0" d="M197.6,242.8L197.6,242.8"/>
<path class="st0" d="M198.7,241.8L198.7,241.8"/>
<path class="st0" d="M196.5,251.3L196.5,251.3"/>
<path class="st0" d="M199.5,244.3L199.5,244.3"/>
<path class="st0" d="M197.2,252.2L197.2,252.2"/>
<path class="st0" d="M200.1,246.5L200.1,246.5"/>
<path class="st0" d="M197.7,253.3L197.7,253.3"/>
<path class="st0" d="M197.9,253.8L197.9,253.8"/>
<path class="st0" d="M196.7,256.8L196.7,256.8"/>
<path class="st0" d="M202.8,247.2L202.8,247.2"/>
<path class="st0" d="M202.8,248.4L202.8,248.4"/>
<path class="st0" d="M207.8,242.3L207.8,242.3"/>
<path class="st0" d="M198.3,256.7L198.3,256.7"/>
<path class="st0" d="M201.7,253L201.7,253"/>
<path class="st0" d="M197.3,259L197.3,259"/>
<path class="st0" d="M200.6,255.8L200.6,255.8"/>
<path class="st0" d="M205.7,251L205.7,251"/>
<path class="st0" d="M200.7,256.8L200.7,256.8"/>
<path class="st0" d="M213.8,245.4L213.8,245.4"/>
<path class="st0" d="M195.9,262L195.9,262"/>
<path class="st0" d="M200.3,258.6L200.3,258.6"/>
<path class="st0" d="M212.2,250.2L212.2,250.2"/>
<path class="st0" d="M211.6,251.6L211.6,251.6"/>
<path class="st0" d="M209.7,253.8L209.7,253.8"/>
<path class="st0" d="M204.9,257.5L204.9,257.5"/>
<path class="st0" d="M218.7,250.3L218.7,250.3"/>
<path class="st0" d="M190.7,266L190.7,266"/>
<path class="st0" d="M196.3,263.2L196.3,263.2"/>
<path class="st0" d="M201.5,261.1L201.5,261.1"/>
<path class="st0" d="M228.4,250.6L228.4,250.6"/>
<path class="st0" d="M244.2,246.2L244.2,246.2"/>
<path class="st0" d="M231.6,252.3L231.6,252.3"/>
<path class="st0" d="M200.5,262.8L200.5,262.8"/>
<path class="st0" d="M193.1,265L193.1,265"/>
<path class="st0" d="M191.6,265.4L191.6,265.4"/>
<path class="st0" d="M159.6,271.4L159.6,271.4"/>
<path class="st0" d="M217.6,261.3L217.6,261.3"/>
<path class="st0" d="M210.3,263.1L210.3,263.1"/>
<path class="st0" d="M205.6,264.1L205.6,264.1"/>
<path class="st0" d="M207.3,264.4L207.3,264.4"/>
<path class="st0" d="M213.2,264.8L213.2,264.8"/>
<path class="st0" d="M240,265.7L240,265.7"/>
<path class="st0" d="M239.7,267.2L239.7,267.2"/>
<path class="st0" d="M188.8,265.1L188.8,265.1"/>
<path class="st0" d="M228.2,269.1L228.2,269.1"/>
<path class="st0" d="M198.2,266.2L198.2,266.2"/>
<path class="st0" d="M227.1,271.4L227.1,271.4"/>
<path class="st0" d="M217.9,270.6L217.9,270.6"/>
<path class="st0" d="M232,274.9L232,274.9"/>
<path class="st0" d="M234.3,277L234.3,277"/>
<path class="st0" d="M213.9,272.1L213.9,272.1"/>
<path class="st0" d="M230.3,278.6L230.3,278.6"/>
<path class="st0" d="M196.7,267.1L196.7,267.1"/>
<path class="st0" d="M208.9,272.4L208.9,272.4"/>
<path class="st0" d="M172.4,256.3L172.4,256.3"/>
<path class="st0" d="M205,271.8L205,271.8"/>
<path class="st0" d="M250.9,297.2L250.9,297.2"/>
<path class="st0" d="M250,299.2L250,299.2"/>
<path class="st0" d="M183.7,260.1L183.7,260.1"/>
<path class="st0" d="M175.9,254.4L175.9,254.4"/>
<path class="st0" d="M223.8,288.4L223.8,288.4"/>
<path class="st0" d="M154.6,236.3L154.6,236.3"/>
<path class="st0" d="M231.9,298.3L231.9,298.3"/>
<path class="st0" d="M162.6,239.3L162.6,239.3"/>
<path class="st0" d="M169.7,244.3L169.7,244.3"/>
<path class="st0" d="M215,288.5L215,288.5"/>
<path class="st0" d="M244.9,322.2L244.9,322.2"/>
<path class="st0" d="M175.2,246L175.2,246"/>
<path class="st0" d="M209.4,286.7L209.4,286.7"/>
<path class="st0" d="M173.8,241.4L173.8,241.4"/>
<path class="st0" d="M224.9,311.5L224.9,311.5"/>
<path class="st0" d="M206.2,286.7L206.2,286.7"/>
<path class="st0" d="M228.2,323.9L228.2,323.9"/>
<path class="st0" d="M224,321L224,321"/>
<path class="st0" d="M198.1,276.9L198.1,276.9"/>
<path class="st0" d="M185.5,252.1L185.5,252.1"/>
<path class="st0" d="M193,267.5L193,267.5"/>
<path class="st0" d="M210.6,310.5L210.6,310.5"/>
<path class="st0" d="M189.3,258.1L189.3,258.1"/>
<path class="st0" d="M184,241.5L184,241.5"/>
<path class="st0" d="M206.4,313.2L206.4,313.2"/>
<path class="st0" d="M211.4,338L211.4,338"/>
<path class="st0" d="M192.8,268.8L192.8,268.8"/>
<path class="st0" d="M199.8,304.7L199.8,304.7"/>
<path class="st0" d="M190.4,255.4L190.4,255.4"/>
<path class="st0" d="M196.8,302.1L196.8,302.1"/>
<path class="st0" d="M192.1,266.6L192.1,266.6"/>
<path class="st0" d="M194.8,308.2L194.8,308.2"/>
<path class="st0" d="M191.7,257.4L191.7,257.4"/>
</svg>
