<?xml version="1.0" encoding="utf-8"?>
<!-- Generator: Adobe Illustrator 23.0.6, SVG Export Plug-In . SVG Version: 6.00 Build 0)  -->
<svg version="1.1" id="Layer_1" xmlns="http://www.w3.org/2000/svg" xmlns:xlink="http://www.w3.org/1999/xlink" x="0px" y="0px"
	 viewBox="0 0 512 512" style="enable-background:new 0 0 512 512;" xml:space="preserve">
<style type="text/css">
	.st0{fill:#FFFFFF;}
</style>
<path class="st0" d="M464,64H48C21.5,64,0,85.5,0,112v288c0,26.5,21.5,48,48,48h416c26.5,0,48-21.5,48-48V112
	C512,85.5,490.5,64,464,64z M218.1,287.7c2.8-2.5,7.1-2.1,9.2,0.9l19.5,27.7c1.7,2.4,1.5,5.6-0.5,7.7
	c-53.6,56.8-172.8,32.1-172.8-67.9c0-97.3,121.7-119.5,172.5-70.1c2.1,2,2.5,3.2,1,5.7l-17.5,30.5c-1.9,3.1-6.2,4-9.1,1.7
	c-40.8-32-94.6-14.9-94.6,31.2C125.9,303.1,176.9,325.6,218.1,287.7z M408.5,287.7c2.8-2.5,7.1-2.1,9.2,0.9l19.5,27.7
	c1.7,2.4,1.5,5.6-0.5,7.7C383.2,380.9,264,356.1,264,256.1c0-97.3,121.7-119.5,172.5-70.1c2.1,2,2.5,3.2,1,5.7L420,222.2
	c-1.9,3.1-6.2,4-9.1,1.7c-40.8-32-94.6-14.9-94.6,31.2C316.3,303.1,367.3,325.6,408.5,287.7L408.5,287.7z"/>
</svg>
