<svg xmlns="http://www.w3.org/2000/svg" viewBox="0 0 454.8 454.7"><defs><style>.cls-1{fill:none;stroke:#fff;stroke-width:2px;}</style></defs><g id="Layer_2" data-name="Layer 2"><g id="Layer_1-2" data-name="Layer 1"><path class="cls-1" d="M453.1,227.4V227l-.1-.2-.1-.2-.1-.2-.2-.2-.2-.2-.2-.2-.3-.2-.3-.2-.3-.2-.3-.2-.4-.2-.4-.2-.4-.2-.5-.2-.5-.1-.5-.1-.5-.1-.5-.1-.6-.1-.6-.1-.6-.1-.7-.1-.7-.1-.7-.1-.7-.1-.8-.1h-8.1l-1,.1-1,.1-1.1.1-1.1.1-1.1.1-1.1.1-1.2.1-1.2.2-1.2.2-1.2.2-1.2.2-1.3.2-1.3.2-1.3.3-1.3.3-1.3.3-1.4.3-1.4.3-1.4.3-1.4.4-1.4.4-1.4.4-1.5.4-1.5.4-1.5.4-1.5.5-1.5.5-1.5.5-1.5.5-1.4.5-1.6.6-1.6.6-1.6.6-1.6.6-1.6.6-1.6.7-1.6.7-1.7.7-1.6.7-1.7.7-1.7.8-1.7.8-1.7.8-1.7.8-1.7.8-1.7.9-1.7.9-1.7.9-1.7.9-1.7.9-1.7,1-1.7,1-1.7,1-1.7,1-1.7,1-1.8,1-1.7,1.1-1.8,1.1-1.8,1.1L344,257l-1.8,1.1-1.8,1.2-1.7,1.2-1.8,1.2-1.7,1.2-1.7,1.2-1.7,1.2-1.7,1.3-1.7,1.3-1.7,1.3-1.7,1.3-1.7,1.3-1.7,1.3-1.7,1.4-1.7,1.4-1.7,1.4-1.7,1.4-1.7,1.4-1.7,1.4-1.7,1.4-1.6,1.5-1.7,1.5-1.6,1.5-1.6,1.5-1.6,1.5-1.6,1.5-1.6,1.5-1.6,1.6-1.6,1.6-1.6,1.6-1.5,1.6-1.5,1.6-1.5,1.6-1.5,1.6-1.5,1.6-1.5,1.6-1.5,1.7-1.5,1.7-1.4,1.7-1.4,1.7-1.4,1.7L276,318l-1.4,1.7-1.4,1.7-1.3,1.7-1.3,1.7-1.3,1.7-1.3,1.7-1.3,1.7-1.3,1.7-1.3,1.7-1.2,1.7-1.2,1.7-1.2,1.8-1.2,1.7-1.2,1.8-1.1,1.8-1.1,1.8-1.1,1.7-1.1,1.8-1.1,1.8-1,1.8-1,1.7-1,1.7-1,1.7-1,1.7-1,1.7-.9,1.7-.9,1.7-.9,1.7L243,368l-.8,1.7-.8,1.7-.8,1.7-.8,1.7-.8,1.7-.8,1.7-.7,1.7-.7,1.7-.7,1.7-.7,1.6-.7,1.6-.6,1.6-.6,1.6-.6,1.6-.6,1.6-.6,1.6-.5,1.5-.5,1.5-.5,1.5-.5,1.5-.5,1.5-.5,1.5-.4,1.5-.4,1.5-.4,1.5-.4,1.4-.4,1.4-.4,1.4-.3,1.4-.3,1.4-.3,1.3-.3,1.3-.3,1.3-.2,1.3-.2,1.3-.2,1.2-.2,1.2-.2,1.2-.2,1.2-.1,1.2-.1,1.1-.1,1.1-.1,1.1-.1,1.1-.1,1-.1,1v8.2l.1.8.1.8.1.7.1.7.1.7.1.7.1.6.1.6.1.6.1.5.1.5.1.5.2.5.2.4.2.4.2.4.2.3.2.3.2.3.2.3.2.2.2.2.2.2.2.1.2.1.2.1.2.1h.6l.2-.1.2-.1.2-.1.2-.2.2-.2.2-.2.2-.2.2-.3.2-.3.2-.3.2-.3.2-.4.2-.4.2-.4.2-.5.1-.5.1-.5.1-.5.1-.6.1-.6.1-.6.1-.7.1-.7.1-.7.1-.7.1-.8v-8l-.1-1-.1-1-.1-1-.1-1.1-.1-1.1-.1-1.1-.1-1.1-.2-1.2-.2-1.2-.2-1.2-.2-1.2-.2-1.3-.5-1.7-.3-1.3L229,417l-.3-1.3-.3-1.4-.3-1.4-.3-1.4-.4-1.4-.4-1.4-.4-1.4-.4-1.5-.4-1.5-.4-1.5-.5-1.5-.5-1.5-.5-1.5-.5-1.5-.5-1.6-.5-1.6-.6-1.6-.6-1.6-.6-1.6-.6-1.6-.7-1.6-.7-1.6-.7-1.6-.7-1.7-.7-1.7-.8-1.7-.8-1.7-.8-1.7-.8-1.7-.8-1.7-.8-1.7-.9-1.7-.9-1.7-.9-1.7-.9-1.7-.9-1.7-1-1.7-1-1.7-1-1.7-1-1.7-1-1.8-1-1.7-1.1-1.8-1.1-1.8-1.1-1.8-1.1-1.8-1.1-1.7-1.2-1.8-1.2-1.8-1.2-1.7-1.2-1.7-1.2-1.7-1.3-1.7-1.3-1.7-1.3-1.7-1.3-1.7-1.3-1.7-1.3-1.7-1.4-1.7-1.4-1.7-1.4-1.7-1.4-1.7-1.4-1.7-1.4-1.7-1.5-1.7-1.5-1.6-1.5-1.6-1.5-1.6-1.5-1.6-1.5-1.6-1.5-1.6-1.5-1.6-1.5-1.6-1.6-1.6-1.6-1.6-1.6-1.6-1.6-1.5-1.6-1.5-1.6-1.5-1.6-1.5-1.6-1.5-1.6-1.5-1.7-1.5-1.7-1.4-1.7-1.4-1.7-1.4-1.7-1.4-1.7-1.4-1.7-1.4-1.7-1.4-1.7-1.3-1.7-1.3-1.7-1.3-1.7-1.3-1.7-1.3-1.7-1.3-1.7-1.2-1.7-1.2-1.7-1.2-1.8-1.2-1.8-1.2-1.7-1.1-1.8-1.1-1.8-1.1-1.8-1.1-1.8-1.1-1.8-1-1.7-1-1.7-1-1.8-1-1.7-1-1.7-1-1.7-.9-1.7-.9-1.7-.9-1.7-.9-1.7-.9-1.7-.9-1.7-.8-1.7-.8-1.7-.8-1.7-.8-1.7-.7-1.7-.7-1.6-.7-1.6-.7-1.6-.7-1.6-.7-1.6-.6-1.6-.6-1.6-.6-1.6-.6-1.6-.6-1.5-.5-1.5-.5-1.5-.5-1.5-.5-1.5-.5-1.5-.4-1.5-.4-1.4-.4-1.4-.4-1.4-.4-1.4-.4-1.4-.3-1.4-.3-1.3-.3-1.3-.3-1.3-.3-1.3-.2-1.3-.1-1.3-.2-1.2-.2-1.2-.2-1.2-.2-1.2-.2-1.1-.1-1.1-.1-1.1-.1-1.1-.1-1-.1-1-.1-1-.1H12.9l-.8.1-.8.1-.7.1-.7.1-.7.1-.7.1-.6.1-.6.1-.6.1-.6.1-.5.1-.5.1-.5.2-.4.1-.4.2-.4.2-.3.2-.3.2-.3.2-.3.2-.2.2-.2.2-.2.2-.2.2-.1.2-.1.2-.1.2v.6l.1.2.1.2.1.2.1.2.2.2.2.2.2.2.3.2.3.2.3.2.3.2.4.2.4.2.4.2.5.1.5.2.5.1.5.1.6.1.6.1.6.1.6.1.7.1.7.1.7.1.8.1.8.1h7.1l1-.1,1-.1,1.1-.1,1.1-.1,1.1-.1,1.1-.1,1.1-.1,1.2-.1,1.2-.2,1.2-.2,1.2-.2,1.2-.2,1.3-.2,1.3-.2,1.3-.3,1.3-.3,1.3-.3,1.4-.3,1.4-.3,1.4-.3,1.4-.4,1.4-.4,1.4-.4,1.5-.4,1.5-.4,1.5-.5,1.5-.5,1.5-.5,1.5-.5,1.5-.5,1.6-.5,1.6-.6,1.6-.6,1.6-.6,1.6-.6,1.6-.6,1.6-.7,1.6-.7,1.6-.7,1.7-.7,1.7-.7,1.7-.8,1.7-.8,1.7-.8,1.7-.8,1.7-.8,1.7-.9,1.7-.9,1.7-.9,1.7-.9,1.7-.9,1.7-.9,1.7-1,1.7-1,1.7-1,1.7-1,1.8-1.1,1.8-1.1,1.8-1.1,1.8-1.1,1.7-1.1,1.8-1.1,1.8-1.2,1.7-1.2,1.8-1.2,1.7-1.2,1.7-1.2,1.7-1.3,1.7-1.3,1.7-1.3,1.7-1.3,1.7-1.3,1.7-1.3,1.7-1.3,1.7-1.4,1.7-1.4,1.7-1.4,1.7-1.4,1.7-1.4,1.7-1.4,1.7-1.5,1.6-1.5,1.6-1.5,1.6-1.5,1.6-1.5,1.6-1.5,1.6-1.5,1.6-1.5,1.6-1.6,1.6-1.6,1.6-1.6,1.5-1.6,1.5-1.6,1.5-1.6,1.5-1.6,1.5-1.6,1.5-1.6,1.5-1.6,1.5-1.7,1.4-1.7,1.4-1.7,1.4-1.7,1.4-1.7,1.4-1.7,1.4-1.7,1.3-1.7,1.3-1.7,1.3-1.7,1.3-1.7,1.3-1.7,1.3-1.7,1.2-1.7,1.2-1.7,1.2-1.7,1.2-1.8,1.2-1.7,1.2-1.8,1.1-1.8,1.1-1.8,1.1-1.8,1.1-1.8,1.1-1.7,1-1.8,1-1.7,1-1.8,1-1.7,1-1.7.9-1.7.9-1.7.9-1.7.9-1.7.9-1.7.9-1.7.8-1.7.8-1.7.8-1.7.8-1.7.8-1.7.7-1.7.7-1.7.7-1.6.7-1.6.6-1.6.6-1.6.6-1.6.6-1.6.6-1.6.6-1.6.5-1.6.5-1.5.5-1.5.5-1.5.5-1.5.4-1.5.4-1.5.4-1.4.4-1.4.4-1.4.3-1.4.3-1.4.3-1.4.3-1.4.3-1.3.3-1.3.3-1.3.2-1.3.2-1.3.2-1.2.2-1.2.2-1.2.2-1.2.1-1.1.1-1.1.1-1.1.1-1.1.1-1.1.1-1,.1-1,.1-1V12.7l-.1-.8-.1-.8-.1-.7-.1-.7-.1-.7-.1-.6-.1-.6-.1-.6-.1-.6-.1-.5-.2-.5-.1-.5-.2-.4-.2-.4-.2-.4-.2-.4-.2-.3-.2-.3-.2-.3-.2-.3-.2-.2-.2-.2-.2-.2-.2-.1-.2-.1-.2-.1h-.6l-.2.1-.2.1-.2.1-.2.1-.2.2-.2.2-.2.2-.2.2-.2.3-.2.3-.2.3-.2.4-.2.4-.2.4-.2.4-.2.5-.1.5-.1.5-.1.6-.1.6-.1.6-.1.6-.1.7-.1.7-.1.7-.1.7-.1.8v8.1l.1,1,.1,1,.1,1.1.1,1.1.1,1.1.1,1.1.1,1.2.2,1.2.2,1.2.2,1.2.2,1.2.2,1.3.2,1.3.3,1.3.3,1.3.3,1.3.3,1.4.3,1.4.3,1.4.4,1.4.4,1.4.4,1.4.4,1.5.4,1.5.4,1.5L229,54l.5,1.5L230,57l.5,1.5.5,1.6.5,1.6.6,1.6.6,1.6.6,1.6.6,1.6.7,1.6.7,1.6.7,1.6.7,1.7.7,1.7.8,1.7.8,1.7.8,1.7.8,1.7.8,1.7.8,1.7.9,1.7.9,1.7.9,1.7.9,1.7,1,1.7,1,1.7,1,1.7,1,1.7,1,1.7,1,1.8,1.1,1.8,1.1,1.7,1.1,1.8,1.1,1.8,1.1,1.8,1.2,1.8,1.2,1.7,1.2,1.8,1.2,1.7,1.2,1.7,1.2,1.7,1.3,1.7,1.3,1.7,1.3,1.7,1.3,1.7,1.3,1.7,1.3,1.7,1.4,1.7,1.4,1.7,1.4,1.7,1.4,1.7,1.4,1.7,1.4,1.7,1.5,1.7,1.5,1.6,1.5,1.6,1.5,1.6,1.5,1.6,1.5,1.6,1.5,1.6,1.5,1.6,1.6,1.6,1.6,1.6,1.6,1.6,1.6,1.6,1.6,1.5,1.6,1.5,1.6,1.5,1.6,1.5,1.6,1.5,1.6,1.5,1.7,1.5,1.7,1.4,1.7,1.4,1.7,1.4,1.7,1.4,1.7,1.4,1.7,1.4,1.7,1.3,1.7,1.3,1.7,1.3,1.7,1.3,1.7,1.3,1.7,1.3,1.7,1.3,1.7,1.2,1.7,1.2,1.8,1.2,1.7,1.2,1.8,1.2,1.8,1.1,1.8,1.1,1.8,1.1,1.7,1.1,1.8,1.1,1.8,1,1.7,1,1.8,1,1.7,1,1.7,1,1.7,1,1.7.9,1.7.9,1.7.9,1.7.9,1.7.9,1.7.8,1.7.8,1.7.8,1.7.8,1.7.8,1.7.7,1.7.7,1.6.7,1.6.7,1.6.7,1.6.6,1.6.6,1.6.6,1.6.6,1.6.6,1.6.6,1.6.5,1.5.5,1.5.5,1.5.5,1.5.5,1.5.4,1.5.4,1.4.4,1.4.4,1.4.4,1.4.3,1.4.3,1.3.3,1.3.3,1.3.3,1.3.3,1.3.2,1.3.2,1.2.2,1.2.2,1.2.2,1.2.2,1.2.2,1.1.1,1.1.1,1.1.1,1.1.1,1,.1,1,.1,1,.1h6.3l.8-.1h.8l.8-.1.7-.1.7-.1.7-.1.7-.1.6-.1.6-.1.6-.1.5-.1.5-.1.5-.1.5-.2.4-.2.4-.2.4-.2.3-.2.3-.2.3-.2.3-.2.2-.2.2-.2.2-.2.1-.2.1-.2.1-.2v-.2l.4-.5v-.3l-.1-.2-.1-.2-.1-.2-.2-.2-.2-.2-.2-.2-.2-.2-.3-.2-.3-.2-.3-.2-.3-.2-.4-.2-.4-.2-.4-.2-.5-.1-.5-.1-.5-.1-.5-.1-.6-.1-.6-.1-.6-.1-.7-.1-.7-.1-.7-.1-.7-.1-.8-.1-.8-.1h-7.2l-1,.1-1,.1-1.1.1-1.1.1-1.1.1-1.1.1-1.1.1-1.2.2-1.2.2-1.2.2-1.2.2-1.3.1-1.3.2-1.3.3-1.3.3-1.3.3-1.3.3-1.4.3-1.4.3-1.4.4-1.4.4-1.4.4-1.5.4-1.5.4-1.5.4-1.5.4-1.5.5-1.5.5-1.5.5-1.5.5-1.6.5-1.6.6-1.6.6-1.6.6-1.6.6-1.6.6-1.6.7-1.6.7-1.6.7-1.7.7-1.7.8-1.7.8-1.7.8-1.7.8-1.7.8-1.7.9-1.7.9-1.7.9-1.7.9-1.7.9-1.7.9-1.7,1-1.7,1-1.7,1-1.7,1-1.8,1-1.7,1.1-1.8,1.1-1.8,1.1-1.8,1.1-1.8,1.1-1.8,1.1-1.7,1.2-1.8,1.2-1.7,1.2-1.7,1.2-1.7,1.2-1.7,1.3-1.7,1.3-1.7,1.3-1.7,1.3-1.7,1.3-1.7,1.3-1.7,1.4-1.7,1.4-1.7,1.4-1.7,1.4-1.7,1.4-1.7,1.4-1.7,1.4-1.7,1.5-1.6,1.5-1.6,1.5-1.6,1.5-1.6,1.5-1.6,1.5-1.6,1.5-1.6,1.5-1.6,1.6-1.6,1.6-1.5,1.6-1.5,1.6-1.5,1.6-1.5,1.6-1.5,1.6-1.5,1.6-1.5,1.6-1.5,1.6-1.4,1.7-1.4,1.7-1.4,1.7-1.4,1.7-1.4,1.7-1.4,1.7-1.4,1.7-1.3,1.7-1.3,1.7-1.3,1.7-1.3,1.7-1.3,1.7-1.3,1.7-1.2,1.7-1.2,1.7-1.2,1.8-1.2,1.7-1.2,1.8-1.1,1.8-1.1,1.7-1.1,1.8-1.1,1.8-1.1,1.8-1,1.8-1,1.7-1,1.8-1,1.7-1,1.7-1,1.7-.9,1.7-.9,1.7-.9,1.7-.9,1.7-.9,1.7-.8,1.7-.8,1.7-.8,1.7-.8,1.7-.8,1.7-.7,1.7-.7,1.7-.7,1.7-.7,1.6-.7,1.6-.7,1.6-.6,1.6-.6,1.6-.6,1.6-.6,1.6-.6,1.6-.5,1.5-.5,1.5-.5,1.5-.5,1.5-.5,1.5-.4,1.5-.4,1.5-.4,1.4-.4,1.4-.4,1.4-.4,1.4-.3,1.4-.3,1.4-.3,1.3-.3,1.3-.3,1.3-.4,1.5-.2,1.3-.2,1.3-.2,1.2-.2,1.2-.2,1.2-.2,1.2-.1,1.1-.1,1.1-.1,1.1-.1,1.1-.1,1-.1,1-.1,1v8l.1.8.1.7.1.7.1.7.1.6.1.6.1.6.1.6.1.6.1.5.2.5.2.5.2.4.2.4.2.4.2.3.2.3.2.3.2.3.2.2.2.2.2.2.2.2.2.1.2.1.2.1h.6l.2-.1.2-.1.2-.1.2-.1.2-.2.2-.2.2-.2.2-.3.2-.3.2-.3.2-.4.2-.4.2-.4.2-.4.2-.5.1-.5.1-.5.1-.5.1-.6.1-.6.1-.6.1-.6.1-.7.1-.7.1-.7.1-.8.1-.8v-8l-.1-1-.1-1.1-.1-1.1-.1-1.1-.1-1.1-.1-1.1-.2-1.2-.2-1.2-.2-1.2-.2-1.2-.2-1.3-.2-1.3-.2-1.3-.3-1.3-.3-1.3-.3-1.3-.3-1.4-.3-1.4-.6-1.2-.4-1.4-.4-1.4-.4-1.4-.4-1.5-.4-1.5-.5-1.5-.5-1.5-.5-1.5-.5-1.5-.5-1.5-.5-1.6-.6-1.6-.6-1.6-.6-1.6-.6-1.6-.6-1.6-.7-1.6-.7-1.6-.7-1.7-.7-1.7-.7-1.7-.8-1.7-.8-1.7-.8-1.7-.8-1.7-.8-1.7-.9-1.7-.9-1.7-.9-1.7-.9-1.7-.9-1.7-1-1.7-1-1.7-1-1.7-1-1.7-1-1.7-1-1.8-1.1-1.8-1.1-1.8-1.1-1.8-1.1-1.7-1.1-1.8-1.2-1.8-1.2-1.8-1.1-1.6-1.2-1.7-1.2-1.7-1.3-1.7-1.3-1.7-1.3-1.7-1.3-1.7-1.3-1.7-1.3-1.7-1.4-1.7-1.4-1.7-1.4-1.7-1.4-1.7-1.4-1.7-1.4-1.7-1.4-1.7-1.5-1.7-1.5-1.7-1.5-1.6-1.5-1.6-1.5-1.6-1.5-1.6-1.5-1.6-1.6-1.6-1.6-1.6-1.6-1.6-1.6-1.6-1.6-1.5-1.6-1.5-1.6-1.5-1.6-1.5-1.6-1.5-1.6-1.5-1.7-1.5-1.7-1.5-1.7-1.4-1.7-1.4-1.7-1.4-1.7-1.4-1.7-1.4-1.7-1.4-1.7-1.4-1.7-1.3-1.7-1.3-1.7-1.3-1.7-1.3-1.7-1.3-1.7-1.2-1.7-1.2-1.7-1.2-1.8-1.2-1.8-1.2-1.7-1.1-1.8-1.1-1.8-1.1-1.8-1.1-1.8-1.1-1.7-1.1-1.8-1-1.7-1-1.8-1-1.7-1-1.7-1-1.7-.9-1.7-.9-1.7-.9-1.7-.9-1.7-.9-1.7-.9-1.7-.8-1.7-.8-1.7-.8-1.7-.8-1.7-.8-1.7-.7-1.6-.7-1.7-.7-1.6-.7-1.6-.6-1.6-.6-1.6-.6-1.6-.6-1.6-.6-1.4-.6-1.6-.5-1.5-.5-1.5-.5-1.5-.5-1.5-.5-1.5-.4-1.5-.4-1.5-.4-1.4-.4-1.4-.4-1.4-.4-1.4-.3-1.4-.3-1.3-.3-1.3-.3-1.3-.3-1.3-.3-1.3-.2-1.3-.2-1.2-.2-1.2-.2-1.2-.2-1.2-.2-1.1-.1-1.1-.1-1.1-.1-1.1-.1-1.1-.1-1-.1-1-.1H12.3l-.8.1-.7.1-.7.1-.7.1-.7.1-.6.1-.6.1-.6.1-.5.1-.5.1-.5.1-.5.1-.4.2-.4.2-.4.2-.4.2-.3.2-.3.2-.3.2-.2.2L2,226l-.2.2-.2.2-.1.2-.1.2-.1.2v.8l.1.2.1.2.1.2.2.2.2.2.2.2.3.2.3.2.3.2.3.2.4.2.4.2.4.2.4.1.5.1.5.1.5.1.5.1.6.1.6.1.6.1.7.1.7.1.7.1.8.1.8.1h8l1-.1,1-.1,1.1-.1,1.1-.1,1.1-.1,1.1-.1L28,231l1.2-.2,1.2-.2,1.2-.2,1.2-.2,1.3-.2,1.3-.2,1.3-.3,1.3-.3,1.3-.3,1.4-.3,1.4-.3,1.4-.3,1.4-.4,1.4-.4,1.4-.4,1.5-.4,1.5-.4,1.5-.4,1.5-.5,1.5-.5,1.5-.5,1.5-.5,1.6-.5,1.6-.5L63,222l1.6-.6,1.6-.6,1.6-.6,1.6-.7,1.6-.7,1.7-.7,1.6-.7,1.7-.7,1.7-.8,1.7-.8,1.7-.8,1.7-.8,1.7-.8,1.7-.9,1.7-.9,1.7-.9,1.7-.9,1.7-.9,1.7-.9,1.7-1,1.7-1,1.7-1,1.7-1,1.8-1.1,1.8-1.1,1.7-1.1,1.8-1.1,1.8-1.1,1.8-1.1,1.8-1.2,1.7-1.2,1.8-1.2,1.7-1.2,1.7-1.2,1.7-1.3,1.7-1.3,1.7-1.3,1.7-1.3,1.7-1.3,1.7-1.3,1.7-1.3,1.7-1.4,1.7-1.4,1.7-1.4,1.7-1.4,1.7-1.4,1.7-1.4,1.7-1.5,1.6-1.5,1.7-1.5,1.6-1.5,1.6-1.5,1.6-1.5,1.6-1.5,1.6-1.5,1.6-1.6,1.6-1.6,1.6-1.6,1.5-1.6,1.5-1.6,1.5-1.6,1.5-1.6,1.5-1.6,1.5-1.6,1.5-1.7,1.5-1.6,1.4-1.7,1.4-1.7,1.4-1.7,1.4-1.7,1.4-1.7,1.4-1.7,1.3-1.7,1.3-1.7,1.3-1.7,1.3-1.7,1.3-1.7,1.3-1.7,1.3-1.7,1.2-1.7,1.2-1.7,1.2-1.8,1.2-1.7,1.2-1.8,1.1-1.8,1.1-1.8,1.1-1.8,1.1-1.8,1.1-1.7,1.1-1.8,1-1.7,1-1.8,1-1.7,1-1.7.9-1.7.9-1.7.9-1.7.9-1.7.9-1.7.8-1.7.8-1.7.8-1.7.8-1.7.8-1.7.8-1.7.7-1.7.7-1.7.7-1.7.7-1.6.7-1.6.6-1.6.6-1.6.6-1.6.6-1.6.6-1.6.6-1.6.5-1.5.5-1.5.5-1.5.5-1.5.5-1.5.4-1.5.4-1.5.4-1.4.4-1.4.4-1.4.3-1.4.3-1.4.3-1.4.3-1.3.3-1.3.3-1.3.2-1.3.2-1.3.2-1.3.2-1.2.2-1.2.2-1.2L231,27l.1-1.1.1-1.1.1-1.1.1-1.1.1-1.1.1-1V12.4l-.1-.8-.1-.8-.1-.7-.1-.7-.1-.7-.1-.6-.1-.6-.1-.6-.1-.6-.1-.5-.1-.5-.1-.5-.2-.4L230,4l-.2-.4-.2-.4-.2-.3-.2-.3-.2-.3-.2-.3-.2-.2-.2-.2-.2-.2-.2-.1-.2-.1-.2-.1-.2-.1h-.6l-.2.1-.2.1-.2.1-.2.2-.2.2-.2.2-.2.2-.2.3-.2.3-.2.3-.2.4-.2.4-.2.4-.2.4-.2.5-.1.5-.1.5-.1.6-.1.6-.1.6-.1.6-.1.6-.1.7-.1.7-.1.7-.1.8v.8l-.1.8V21l.1,1,.1,1.1.1,1.1.1,1.1.1,1.1.1,1.1.2,1.2.2,1.2.2,1.2.2,1.2.2,1.3.2,1.3.3,1.3.3,1.3.3,1.3.3,1.4.3,1.4.3,1.4.4,1.4.4,1.4.4,1.4.4,1.4.4,1.5.4,1.5.5,1.5.5,1.5.5,1.5.5,1.5.5,1.6.5,1.6.6,1.6.6,1.6.6,1.6.6,1.6.6,1.6.7,1.6L236,72l.7,1.7.7,1.7.7,1.7.8,1.7.8,1.7.8,1.7.8,1.7.8,1.7.9,1.7.9,1.7.9,1.7.9,1.7.9,1.7,1,1.7,1,1.7,1,1.7,1,1.7,1,1.8,1.1,1.7,1.1,1.8,1.1,1.8,1.1,1.8,1.1,1.8,1.2,1.8,1.2,1.7,1.2,1.8,1.2,1.7,1.2,1.7,1.2,1.7,1.3,1.7,1.3,1.7,1.3,1.7,1.3,1.7,1.3,1.7,1.3,1.7,1.4,1.7,1.4,1.7,1.4,1.7,1.4,1.7,1.4,1.7,1.4,1.7,1.5,1.7,1.5,1.6,1.5,1.6,1.5,1.6,1.5,1.6,1.5,1.6,1.5,1.6,1.5,1.6,1.5,1.6,1.6,1.6,1.6,1.6,1.6,1.5,1.6,1.5,1.6,1.5,1.6,1.5,1.6,1.5,1.6,1.5,1.6,1.5,1.7,1.5,1.7,1.5,1.7,1.4,1.7,1.4,1.7,1.4,1.7,1.4,1.7,1.4,1.7,1.3,1.7,1.3,1.7,1.3,1.7,1.3,1.7,1.3,1.7,1.3,1.7,1.3,1.7,1.2,1.7,1.2,1.8,1.2,1.7,1.2,1.8,1.2,1.8,1.1,1.8,1.1,1.7,1.1,1.8,1.1,1.8,1.1,1.8,1,1.7,1,1.8,1,1.7,1,1.7,1,1.7,1,1.7.9,1.7.9,1.7.9,1.7.9,1.7.9,1.7.9,1.7.8,1.7.8,1.7.8,1.7.8,1.7.8,1.7.7,1.6.7,1.6.7,1.6.7,1.6.6,1.6.6,1.6.6,1.6.6,1.6.6,1.6.5,1.5.5,1.5.5,1.5.5,1.5.5,1.5.4,1.5.4,1.5.4,1.5.4,1.4.4,1.4.4,1.4.4,1.4.3,1.4.3,1.3.3,1.3.3,1.3.3,1.3.2,1.3.2,1.3.2,1.2.2,1.2.2,1.2.2,1.2.1,1.1.1,1.1.1,1.1.1,1.1.1,1,.1,1,.1h8.2l.8-.1.8-.1.7-.1.7-.1.7-.1.6-.1.6-.1.6-.1.6-.1.6-.1.5-.1.5-.1.5-.1.4-.2.4-.2.4-.2.3-.2.3-.2.3-.2.3-.2.2-.2.2-.2.2-.2.2-.2.1-.2.1-.2.1-.2v-.1l-.1-.2-.1-.2-.1-.2-.2-.2-.2-.2-.2-.2-.3-.2-.3-.2-.3-.2-.3-.2-.4-.2-.4-.2-.4-.2-.4-.1-.5-.2-.5-.1-.5-.1-.6-.1-.6-.1-.6-.1-.6-.1-.7-.1-.7-.1-.7-.1-.8-.1-.8-.1h-7.1l-1,.1-1,.1-1,.1-1.1.1-1.1.1-1.1.1-1.1.1-1.2.1-1.2.2-1.2.2-1.2.2-1.3.2-1.3.2-1.3.2-1.3.3-1.3.3-1.3.3-1.4.3-1.4.3-1.4.4-1.4.4-1.4.4-1.4.4-1.5.4-1.5.4-1.5.5-1.5.5-1.5.5-1.5.5-1.5.5-1.6.6-1.6.6-1.6.6-1.6.6-1.6.6-1.6.6-1.6.7-1.6.7-1.7.7-1.7.7-1.7.7-1.7.8-1.7.8-1.7.8-1.7.8-1.7.8-1.7.9-1.7.9-1.7.9-1.7.9-1.7.9-1.7.9-1.7,1-1.7,1-1.7,1-1.8,1-1.7,1-1.8,1.1-1.8,1.1-1.8,1.1-1.8,1.1-1.7,1.1-1.8,1.2-1.8,1.2-1.7,1.2-1.7,1.2-1.7,1.2-1.7,1.3-1.7,1.3-1.7,1.3-1.7,1.3-1.7,1.3-1.7,1.3-1.7,1.4-1.7,1.4-1.7,1.4-1.7,1.4-1.7,1.4-1.7,1.4-1.7,1.4-1.7,1.5-1.6,1.5-1.6,1.5-1.6,1.5-1.6,1.5-1.6,1.5-1.6,1.5-1.6,1.5-1.6,1.6-1.6,1.6-1.6,1.6-1.5,1.6-1.5,1.6-1.5,1.6-1.5,1.6-1.5,1.6-1.5,1.6-1.5,1.7-1.4,1.7-1.4,1.7-1.4,1.7-1.4,1.7-1.4,1.7-1.4,1.7-1.4,1.7-1.3,1.7-1.3,1.7-1.3,1.7-1.3,1.7-1.3,1.7-1.3,1.7-1.3,1.7-1.2,1.7-1.2,1.8L260,339l-1.2,1.8-1.1,1.7-1.1,1.8-1.1,1.8-1.1,1.8-1.1,1.8-1.1,1.8-1,1.7-1,1.8-1,1.7-1,1.7-1,1.7-1,1.7-.9,1.7-.9,1.7-.9,1.7-.9,1.7-.8,1.7L241,372l-.8,1.7-.8,1.7-.8,1.7-.8,1.7-.7,1.7-.7,1.6-.7,1.6-.7,1.6-.7,1.6-.7,1.7-.6,1.6-.6,1.6-.6,1.6-.5,1.6-.5,1.6-.5,1.5-.5,1.5-.5,1.5-.5,1.5-.4,1.5-.4,1.5-.4,1.5-.4,1.4-.4,1.4-.4,1.4-.3,1.4-.3,1.4-.3,1.4-.3,1.3-.3,1.3-.3,1.3-.2,1.3-.2,1.3-.2,1.2-.2,1.2-.2,1.2-.1,1.2-.1,1.2-.1,1.1-.1,1.1-.1,1.1-.1,1.1-.1,1v1l-.1,1v7.2l.1.8.1.7.1.7.1.7.1.7.1.6.1.6.1.6.1.5.1.5.1.5.1.5.2.4.2.4.2.4.2.4.2.3.2.3.2.3.2.3.2.2.2.2.2.2.2.1.2.1.2.1h.8l.2-.1.2-.1.2-.1.2-.2.2-.2.2-.2.2-.2.2-.3.2-.3.2-.3.2-.4.2-.4.2-.4.1-.4.2-.5.2-.5.1-.5.1-.5.1-.6.1-.6.1-.6.1-.7.1-.7.1-.7.1-.7.1-.8v-8.1l-.1-1-.1-1-.1-1.1-.1-1.1-.1-1.1-.1-1.1L231,427l-.2-1.2-.2-1.2-.2-1.2-.2-1.2-.2-1.3-.2-1.3-.3-1.3-.3-1.3-.3-1.3-.3-1.4-.3-1.4-.3-1.4-.4-1.4-.4-1.4-.4-1.4-.4-1.5-.4-1.5-.4-1.5-.5-1.5-.5-1.5-.5-1.5-.5-1.5-.5-1.6-.5-1.6L222,392l-.6-1.6-.6-1.6-.6-1.6-.7-1.6-.7-1.6-.7-1.6-.7-1.7-.7-1.7-.8-1.7-.8-1.7-.8-1.7-.8-1.7-.8-1.7-.9-1.7-.9-1.7-.9-1.7-.9-1.7-.9-1.7-1-1.7-1-1.7-1-1.7-1-1.7-1-1.7-1-1.8-1.1-1.8-1.1-1.8-1.1-1.7-1.1-1.8-1.1-1.8-1.2-1.8-1.2-1.8-1.2-1.7-1.2-1.7-1.3-2.2-1.2-1.7-1.3-1.7-1.3-1.7-1.3-1.7-1.3-1.7-1.3-1.7-1.3-1.7-1.4-1.7-1.4-1.7-1.4-1.7-1.4-1.7-1.4-1.7-1.4-1.7-1.5-1.7-1.5-1.6-1.5-1.6-1.5-1.6-1.5-1.6-1.5-1.6-1.5-1.6-1.5-1.6-1.6-1.6-1.6-1.6-1.6-1.6-1.6-1.5-1.6-1.5-1.6-1.5-1.6-1.5-1.6-1.5-1.6-1.5-1.7-1.5-1.7-1.5-1.7-1.4L140,279l-1.7-1.4-1.7-1.4-1.7-1.4-1.7-1.4-1.7-1.4-1.7-1.3-1.7-1.3-1.7-1.3-1.7-1.3-1.7-1.3-1.7-1.3-1.7-1.2-1.7-1.2-1.8-1.2-1.7-1.2-1.8-1.1-1.8-1.1-1.8-1.1-1.8-1.1-1.8-1.1-1.7-1.1-1.8-1.1-1.8-1-1.7-1-1.7-1-1.7-1-1.7-.9-1.7-.9-1.7-.9-1.7-.9-1.7-.9-1.7-.9-1.7-.8-1.7-.8-1.7-.8-1.7-.8-1.7-.8-1.7-.7-1.7-.7-1.6-.7-1.6-.7-1.6-.7-1.6-.6-1.6-.6-1.6-.6-1.6-.6-1.6-.6-1.6-.6-1.5-.5-1.5-.5-1.5-.5-1.5-.5-1.5-.4-1.5-.4L48,228l-1.4-.4-1.4-.4-1.4-.4-1.4-.3-1.4-.3-1.4-.3-1.3-.3-1.3-.3-1.3-.3-1.3-.2-1.3-.2-1.2-.2-1.2-.2-1.2-.2-1.2-.2-1.2-.2-1.1-.1-1.1-.1-1.1-.1-1.1-.1-1-.1-1-.1H13.3l-.8.1h-.8l-.8.1-.7.1-.7.1-.7.1-.6.1-.6.1-.6.1-.6.1-.5.1-.5.1-.5.1-.4.2-.4.2-.4.2-.4.2-.3.2-.3.2-.3.2-.3.2-.2.2-.2.2-.2.2-.1.2-.1.2-.1.2v.8l.1.2.1.2.1.2.1.2.2.2.2.2.2.2.3.2.3.2.3.2.3.2.4.2.4.2.4.2.5.2.5.1.5.1.5.1.6.1.6.1.6.1.6.1.7.1.7.1.7.1.8.1.8.1h6.2l1-.1h1l1-.1,1.1-.1,1.1-.1,1.1-.1,1.1-.1,1.1-.1,1.2-.2,1.2-.2,1.2-.2,1.2-.2,1.2-.2,1.3-.2,1.3-.3,1.3-.3,1.3-.3,1.4-.3,1.4-.3,1.4-.3,1.4-.4,1.4-.4,1.4-.4,1.4-.4,1.5-.4,1.5-.4,1.5-.5,1.5-.5,1.5-.5,1.5-.5,1.5-.5,1.6-.6,1.6-.6,1.6-.6,1.6-.6,1.6-.6,1.6-.6,1.6-.7,1.7-.7,1.6-.7,1.7-.7,1.7-.8,1.7-.8,1.7-.8,1.7-.8,1.7-.8,1.7-.8,1.7-.9,1.7-.9,1.7-.9,1.7-.9,1.7-.9,1.7-1,1.7-1,1.7-1,1.7-1,1.8-1,1.8-1.1,1.7-1.1,1.8-1.1,1.8-1.1,1.8-1.1,1.8-1.1,1.7-1.2,1.8-1.2,1.7-1.2,1.7-1.2,1.7-1.2,1.7-1.3,1.7-1.3,1.7-1.3,1.7-1.3,1.7-1.3,1.7-1.3,1.7-1.4,1.7-1.4,1.7-1.4,1.7-1.4,1.7-1.4,1.7-1.4,1.7-1.4,1.7-1.5,1.6-1.5,1.6-1.5,1.6-1.5,1.6-1.5,1.6-1.5,1.6-1.5,1.6-1.6,1.6-1.6,1.6-1.6,1.5-1.6,1.5-1.6,1.5-1.6,1.5-1.6,1.5-1.6,1.5-1.6,1.5-1.6,1.5-1.7,1.4-1.7,1.4-1.7,1.4-1.7,1.4-1.7,1.4-1.7,1.4-1.7,1.4-1.7,1.3-1.7,1.3-1.7,1.3-1.7,1.3-1.7,1.3-1.7,1.3-1.7,1.2-1.7,1.2-1.7,1.2-1.8,1.2-1.7,1.2-1.8,1.1-1.8,1.1-1.8,1.1-1.8,1.1-1.7,1.1-1.8,1-1.8,1-1.7,1-1.8,1-1.7,1-1.7,1-1.7.9-1.7.9-1.7.9-1.7.9-1.7.9-1.7.8-1.7.8-1.7.8-1.7.8-1.7.8-1.7.7-1.7.7-1.7.7-1.6.7-1.6L219,69l.6-1.6.6-1.6.6-1.6.6-1.6L222,61l.5-1.6.5-1.6.5-1.5.5-1.5.5-1.5.5-1.5.4-1.5.4-1.5.4-1.4.4-1.4.4-1.4.3-1.4.3-1.4.3-1.4.3-1.3.3-1.3.3-1.3.3-1.3.2-1.3.2-1.3.2-1.2.2-1.2.2-1.2.2-1.2.1-1.2.1-1.1.1-1.1.1-1.1.1-1.1.1-1v-9l-.1-.8-.1-.7-.1-.7-.1-.7-.1-.7-.1-.6-.1-.6-.1-.6-.1-.5-.1-.5-.1-.5-.2-.5-.2-.4-.2-.4-.2-.4-.2-.4-.2-.3-.2-.3-.2-.3-.2-.2-.2-.2-.2-.2-.2-.2-.2-.1-.2-.1-.2-.1h-.6l-.2.1-.2.1-.2.1-.2.1-.2.2L225,2l-.2.2-.2.3-.2.3-.2.3-.2.3-.2.4-.2.4-.2.4-.2.4-.1.5L223,6l-.1.5-.1.6-.1.6-.1.6-.1.7-.1.7-.1.7-.1.7-.1.8-.1.8v8.2l.1,1,.1,1.1.1,1.1.1,1.1.1,1.1.1,1.1.1,1.2.2,1.2.2,1.2.2,1.2.2,1.2.2,1.3.2,1.3.3,1.3.3,1.3.3,1.3.3,1.4.3,1.4.3,1.4.4,1.4.4,1.4.4,1.4.4,1.5.4,1.5.5,1.5.5,1.5.5,1.5.5,1.5.5,1.6.6,1.6.6,1.6.6,1.6.6,1.6.6,1.6.6,1.6.7,1.6.7,1.6.7,1.6.7,1.7.7,1.7.8,1.7.8,1.7.8,1.7.8,1.7.8,1.7.9,1.7.9,1.7.9,1.7.9,1.7.9,1.7,1,1.7,1,1.7,1,1.7,1,1.7,1,1.8,1,1.7,1.1,1.8,1.1,1.8,1.1,1.8,1.1,1.8,1.1,1.8,1.2,1.7,1.2,1.8,1.2,1.7,1.2,1.7,1.2,1.7,1.3,1.7,1.3,1.7,1.3,1.7,1.3,1.7,1.3,1.7,1.3,1.7,1.3,1.7,1.4,1.7,1.4,1.7,1.4,1.7,1.4,1.7,1.4,1.7,1.4,1.7,1.5,1.7,1.5,1.6,1.5,1.6,1.5,1.6,1.5,1.6,1.5,1.6,1.5,1.6,1.6,1.6,1.6,1.6,1.6,1.6,1.6,1.5,1.6,1.6,1.6,1.5,1.6,1.5,1.6,1.5,1.6,1.5,1.6,1.5,1.7,1.5,1.7,1.5,1.7,1.4,1.7,1.4,1.7,1.4,1.7,1.4,1.7,1.4,1.7,1.4,1.7,1.3,1.7,1.3,1.7,1.3,1.7,1.3,1.7,1.3,1.7,1.3,1.7,1.2,1.7,1.2,1.8,1.2,1.7,1.2,1.8,1.2,1.8,1.1,1.7,1.1,1.8,1.1,1.8,1.1,1.8,1.1,1.8,1.1,1.7,1,1.8,1,1.7,1,1.7,1,1.7,1,1.7.9,1.7.9,1.7.9,1.7.9,1.7.9,1.7.9,1.7.8,1.7.8,1.7.8,1.7.8,1.7.8,1.7.7,1.7.7,1.6.7,1.6.7,1.6.6,1.6.6,1.6.6,1.6.6,1.6.6,1.6.5,1.5.5,1.5.5,1.5.5,1.5.5,1.5.5,1.5.4,1.5.4,1.5.4,1.4.4,1.4.4,1.4.4,1.4.3,1.4.3,1.4.3,1.3.3,1.3.3,1.3.3,1.3.2,1.3.2,1.2.2,1.2.2,1.2.2,1.2.2,1.1.1,1.1.1,1.1.1,1.1.1,1.1.1,1,.1,1,.1h8l.8-.1.7-.1.7-.1.7-.1.7-.1.6-.1.6-.1.6-.1.5-.1.5-.1.5-.1.5-.1.5-.2.4-.2.4-.2.4-.2.3-.2.3-.2.3-.2.2-.2.2-.2.2-.2.2-.2.1-.2.1-.2.1-.2v-.2l.8.1V227l-.1-.2-.1-.2-.1-.2-.2-.2-.2-.2-.2-.2-.3-.2-.3-.2-.3-.2-.3-.2-.4-.2-.4-.2-.4-.2-.5-.2-.5-.1-.5-.1-.5-.1-.6-.1-.6-.1-.6-.1-.6-.1-.7-.1-.7-.1-.7-.1-.7-.1-.8-.1h-8.1l-1,.1-1,.1-1.1.1-1.1.1-1.1.1-1.1.1-1.2.2-1.2.1-1.2.2-1.2.2-1.2.2-1.3.2-1.3.2-1.3.3-1.3.3-1.3.3-1.3.3-1.4.3-1.4.3-1.4.4-1.4.4-1.4.4-1.4.4-1.5.4-1.5.4-1.5.5-1.5.5-1.5.5-1.6.5-1.5.5-1.6.5-1.6.6-1.6.6-1.6.6-1.6.6-1.6.6-1.6.7-1.7.8-1.6.7-1.7.7-1.7.8-1.7.8-1.7.8-1.7.8-1.7.8-1.7.9-1.7.9-1.7.9-1.7.9-1.7.9-1.7.9-1.7,1-1.7,1-1.7,1-1.8,1-1.7,1-1.8,1.1-1.8,1.1-1.8,1.1-1.7,1.1-1.8,1.1-1.8,1.2-1.8,1.2-1.7,1.2-1.7,1.2-1.7,1.2-1.7,1.2-1.7,1.3-1.7,1.3-1.7,1.3-1.7,1.3-1.7,1.3-1.7,1.3-1.7,1.4-1.7,1.4-1.7,1.4-1.7,1.4-1.7,1.4-1.7,1.4-1.7,1.5-1.7,1.5-1.6,1.5-1.6,1.5-1.6,1.5-1.6,1.5-1.6,1.5-1.6,1.6-1.6,1.5-1.6,1.6-1.6,1.6-1.5,1.6-1.5,1.6-1.5,1.6-1.5,1.6-1.5,1.6-1.5,1.6-1.5,1.6-1.5,1.7-1.4,1.7-1.4,1.7-1.4,1.7-1.4,1.7-1.4,1.7-1.4,1.7-1.3,1.7-1.3,1.7-1.3,1.7-1.3,1.7-1.3,1.7-1.3,1.7-1.2,1.7-1.2,1.7-1.2,1.8-1.2,1.7-1.2,1.8-1.2,1.7-1.1,1.8-1.1,1.8-1.1,1.8-1.1,1.8-1.1,1.8-1,1.7-1,1.8-1,1.7-1,1.7-1,1.7-1,1.7-.9,1.7-1.1,1.8-.9,1.7-.9,1.7-.8,1.7-.8,1.7-.8,1.7-.8,1.7-.8,1.7-.8,1.7-.7,1.7-.7,1.7-.7,1.7-.7,1.6-.7,1.6-.6,1.6-.6,1.6-.6,1.6-.6,1.6-.6,1.6-.5,1.6-.5,1.5-.5,1.5-.5,1.5-.5,1.5-.4,1.5-.4,1.5-.4,1.5-.4,1.5-.4,1.4-.4,1.4-.3,1.4-.3,1.4-.3,1.4-.3,1.3-.3,1.3-.3,1.3-.2,1.3-.2,1.3-.2,1.2L224,424l-.2,1.2-.2,1.2-.1,1.2-.1,1.1-.1,1.1-.1,1.1-.1,1.1-.1,1-.1,1v8.2l.1.8.1.8.1.7.1.7.1.7.1.6.1.6.1.6.1.6.1.5.1.5.1.5.2.5.2.4.2.4.2.4.2.3.2.3.2.3.2.3.2.2.2.2.2.2.2.1.2.1.2.1h.8l.2-.1.2-.1.2-.1.2-.2.2-.2.2-.2.2-.2.2-.3.2-.3.2-.3.2-.4.2-.4.2-.4.2-.4.2-.5.1-.5.1-.5.1-.6.1-.6.1-.6.1-.6.1-.7.1-.7.1-.7.1-.7.1-.8.1-.8v-8.2l-.1-1-.1-1.1-.1-1.1-.1-1.1-.1-1.1-.1-1.1-.2-1.2-.2-1.2-.2-1.2-.2-1.2-.2-1.3-.2-1.3-.3-1.3-.3-1.3-.3-1.3-.3-1.3-.3-1.4-.3-1.4-.3-1.4-.4-1.4-.4-1.4-.4-1.5-.4-1.5-.4-1.5-.5-1.5-.5-1.5-.5-1.5-.5-1.5-.5-1.5-.6-1.6-.6-1.6-.6-1.6-.6-1.6-.6-1.6-.7-1.6-.7-1.6-.7-1.6-.7-1.7-.7-1.7-.8-1.7-.8-1.7-.8-1.7-.8-1.7-.8-1.7-.8-1.7-.9-1.7-.9-1.7-.9-1.7-.9-1.7-.9-1.7-1-1.7-1-1.7-1-1.7-1-1.7-1-1.8-1.1-1.8-1.1-1.7-1.1-1.8-1.1-1.8-1.1-1.8-1.2-1.8-1.2-1.7-1.2-1.8-1.2-1.7-1.2-1.7-1.2-1.7-1.3-1.7-1.3-1.7-1.3-1.7-1.3-1.7-1.3-1.7-1.3-1.7-1.4-1.7-1.4-1.7-1.4-1.7-1.4-1.7-1.4-1.7-1.4-1.7-1.5-1.7-1.7-1.9-1.5-1.7-1.5-1.6-1.5-1.6-1.5-1.6-1.5-1.6-1.5-1.6-1.5-1.6-1.6-1.6-1.6-1.6-1.6-1.5-1.6-1.5-1.6-1.5-1.6-1.5-1.6-1.5-1.6-1.5-1.7-1.5-1.7-1.5-1.7-1.5-1.7-1.4-1.7-1.4-1.7-1.4-1.7-1.4-1.7-1.4-1.7-1.4-1.7-1.3-1.7-1.3-1.7-1.3-1.7-1.3-1.7-1.3-1.7-1.3-1.7-1.2-1.8-1.2-1.7-1.2-1.7-1.2-1.8-1.2-1.8-1.1-1.8-1.1-1.8-1.1-1.8-1.1-1.7-1.1-1.8-1.1-1.8-1-1.7-1-1.7-1-1.7-1-1.7-1-1.7-.9-1.7-.9-1.7-.9-1.7-.9-1.7-.9-1.7-.8-1.7-.8-1.7-.8-1.7-.8-1.7-.8-1.7-.7-1.7-.7-1.6-.7-1.6-.7-1.6-.7-1.6-.6-1.6-.6-1.6-.6-1.6-.6-1.6-.6-1.6-.5-1.5-.5-1.5-.5-1.5-.5-1.5-.5-1.5-.5-1.5-.4-1.5-.4-1.5-.4-1.4-.4-1.4-.4-1.4-.3-1.4-.3-1.4-.3-1.4-.3-1.3-.3L36,225l-1.3-.2-1.3-.2-1.2-.2-1.2-.2-1.2-.2-1.2-.2-1.2-.1-1.1-.1-1.1-.1-1.1-.1-1.1-.1-1.1-.1-1-.1H12.7l-.8.1-.8.1-.7.1-.7.1-.7.1-.7.1-.6.1-.6.1-.6.1-.5.1-.5.1-.5.2-.5.1-.4.2-.4.2-.4.2-.4.2-.3.2-.3.2-.3.2-.2.2-.2.2-.2.2-.1.2-.1.2-.1.2-.1.2v.6l.1.2.1.2.1.2.1.2.2.2.2.2.2.2.3.2.3.2.3.2.4.2.4.2.4.2.4.2.4.1.5.1.5.1.5.1.6.1.6.1.6.1.6.1.7.1.7.1.7.1.8.1.8.1h7.2l1-.1,1-.1,1-.1,1.1-.1,1.1-.1,1.1-.1,1.1-.1,1.2-.1,1.2-.2,1.2-.2,1.2-.2,1.2-.2,1.3-.2,1.3-.2,1.3-.3,1.3-.3,1.3-.3,1.4-.3,1.4-.3,1.4-.3,1.4-.4,1.4-.4,1.5-.4,1.5-.4,1.5-.4,1.5-.5,1.5-.5,1.5-.5,1.5-.5,1.5-.5,1.6-.5,1.6-.6,1.6-.6,1.6-.6,1.6-.6,1.6-.6,1.6-.7,1.6-.7,1.7-.7,1.6-.7,1.7-.7,1.7-.8,1.7-.8,1.7-.8,1.7-.8,1.7-.8,1.7-.9,1.7-.9L90,210l1.7-.9,1.7-.9,1.7-1,1.7-1,1.7-1,1.7-1,1.8-1,1.7-1,1.8-1.1,1.8-1.1,1.8-1.1,1.8-1.1,1.8-1.1,1.7-1.2,1.8-1.2,1.7-1.2,1.7-1.2,1.7-1.2,1.7-1.3,1.7-1.3,1.7-1.3,1.7-1.3,1.7-1.3,1.7-1.3,1.7-1.4,1.7-1.4,1.7-1.4,1.7-1.4,1.7-1.4,1.7-1.4,1.7-1.4,1.7-1.5,1.6-1.5,1.6-1.5,1.6-1.5,1.6-1.5,1.6-1.5,1.6-1.5,1.6-1.6,1.6-1.6,1.6-1.6,1.5-1.6,1.5-1.6L164,153l1.5-1.6,1.5-1.6,1.5-1.6,1.5-1.6,1.5-1.7,1.4-1.7,1.4-1.7,1.4-1.7,1.4-1.7,1.4-1.7,1.4-1.7,1.4-1.7,1.3-1.7,1.3-1.7,1.3-1.7,1.3-1.7,1.3-1.7,1.3-1.7,1.2-1.7,1.2-1.8,1.2-1.7,1.2-1.7,1.2-1.8,1.2-1.8,1.1-1.8,1.1-1.7,1.1-1.8,1.1-1.8,1-1.8,1-1.7,1-1.8,1-1.7,1-1.7,1-1.7.9-1.7.9-1.7.9-1.7.9-1.7.9-1.7.9-1.7.8-1.7.8-1.7.8-1.7.8-1.7.8-1.7.7-1.7.7-1.7.7-1.6.7-1.6.7-1.6.6-1.6.6-1.6.6-1.6.6-1.6.5-1.6.5-1.6.5-1.5.5-1.5.5-1.5.5-1.5.5-1.5.4-1.5.4-1.4.4-1.4.4-1.4.3-1.4.3-1.4.3-1.4.3-1.3.3-1.3.3-1.3.3-1.3.2-1.3.2-1.3.2-1.2.2-1.2.2-1.2.2-1.2.1-1.2.1-1.1.1-1.1.1-1.1.1-1.1.1-1v-1l.1-1v-7l-.1-.8-.1-.7-.1-.7-.1-.7-.1-.7-.1-.6-.1-.6-.1-.6-.1-.5-.1-.5-.2-.5-.1-.5-.2-.4-.2-.4-.2-.4-.2-.4-.2-.3-.2-.3-.2-.3-.2-.3-.2-.2-.2-.2-.2-.2-.2-.1-.2-.1-.2-.1h-.6l-.2.1-.2.1-.2.1-.2.1-.2.2-.2.2-.2.2-.2.2-.2.3-.2.3-.2.3-.2.4-.2.4-.2.4-.2.4-.2.5-.1.5-.1.5-.1.6-.1.6-.1.6-.1.6-.1.7-.1.7-.1.7-.1.8-.1.8V21l.1,1,.1,1,.1,1.1.1,1.1.1,1.1.1,1.1.1,1.2.2,1.2.2,1.2.2,1.2.2,1.2.2,1.3L224,36l.3,1.3.3,1.3.3,1.3.3,1.4.3,1.4.3,1.4.4,1.4.4,1.4.4,1.4.4,1.5.4,1.5.5,1.5.5,1.5.5,1.5.5,1.5.5,1.5.5,1.6.6,1.6.6,1.6.6,1.6.6,1.6.6,1.6.6,1.6.7,1.6.7,1.7.7,1.6.7,1.7.8,1.7.8,1.7.8,1.7.8,1.7.8,1.7.8,1.7.9,1.7.9,1.7.9,1.7.9,1.7.9,1.7,1,1.7,1,1.7,1,1.7,1,1.8,1,1.7,1.1,1.8,1.1,1.8,1.1,1.8,1.1,1.8,1.1,1.7,1.2,1.8,1.2,1.8,1.2,1.7,1.2,1.7,1.2,1.7,1.2,1.7,1.3,1.7,1.3,1.7,1.3,1.7,1.3,1.7,1.3,1.7,1.3,1.7,1.4,1.7,1.4,1.7,1.4,1.7,1.4,1.7,1.4,1.7,1.4,1.7,1.5,1.7,1.5,1.6,1.5,1.6,1.5,1.6,1.5,1.6,1.5,1.6,1.5,1.6,1.5,1.6,1.6,1.6,1.6,1.6,1.6,1.6,1.6,1.5,1.6,1.5,1.6,1.5,1.6,1.5,1.6,1.5,1.6,1.5,1.7,1.5,1.7,1.4,1.7,1.4,1.7,1.4,1.7,1.4,1.7,1.4,1.7,1.4,1.7,1.4,1.7,1.4,1.7,1.3,1.7,1.3,1.7,1.3,1.7,1.3,1.7,1.3,1.7,1.3L334,192l1.8,1.2,1.7,1.2,1.8,1.2,1.7,1.2,1.8,1.1,1.8,1.1,1.8,1.1,1.8,1.1,1.8,1.1,1.7,1,1.8,1,1.7,1,1.7,1,1.7,1,1.7.9,1.7.9,1.7.9,1.7.9,1.7.9,1.7.9,1.7.8,1.7.8,1.7.8,1.7.8,1.7.8,1.7.7,1.7.7,1.6.7,1.6.7,1.6.6,1.6.6,1.6.6,1.6.6,1.6.6,1.6.6,1.6.5,1.5.5,1.5.5,1.5.5,1.5.5,1.5.5,1.5.4,1.5.4,1.4.4,1.4.4,1.4.4,1.4.4,1.4.3,1.4.3,1.3.3,1.3.3,1.3.3,1.3.2,1.3.2,1.2.2,1.2.2,1.2.2,1.2.2,1.2.1,1.1.1,1.1.1,1.1.1,1.1.1,1.1.1,1,.1h7.3l.8-.1.8-.1.8-.1.7-.1.7-.1.7-.1.6-.1.6-.1.6-.1.6-.1.5-.1.5-.1.5-.1.4-.1.4-.2.4-.2.4-.2.3-.2.3-.2.3-.2.3-.2.2-.2.2-.2.2-.2.1-.2.1-.2.1-.2v-.2l.7-.3v-.3l-.1-.2-.1-.2-.1-.2-.1-.2-.2-.2-.2-.2-.2-.2-.3-.2-.3-.2-.3-.2-.4-.2-.4-.2-.4-.2-.4-.2-.5-.1-.5-.2-.5-.1-.5-.1-.6-.1-.6-.1-.6-.1-.7-.1-.7-.1-.7-.1-.7-.1-.8-.1h-9l-1,.1-1.1.1-1.1.1-1.1.1-1.1.1-1.1.1-1.2.1-1.2.2-1.2.2-1.2.2-1.3.2-1.3.2-1.3.3-1.3.3-1.3.3-1.4.3-1.4.3-1.4.3-1.4.3-1.4.4-1.4.4-1.5.4-1.5.4-1.5.4-1.5.5-1.5.5-1.5.5-1.5.5-1.5.5-1.6.6-1.6.6-1.6.6-1.6.6-1.6.6-1.6.6-1.6.7-1.6.7-1.7.7-1.7.7-1.7.7-1.7.8-1.7.8-1.7.8-1.7.8-1.7,1-1.7.9-1.7.9-1.7.9-1.7.9-1.7.9-1.7,1-1.7,1-1.7,1-1.7,1-1.8,1-1.8,1-1.8,1.1-1.7,1.1-1.8,1.1-1.8,1.2-1.8,1.1-1.8,1.2-1.7,1.2-1.7,1.2-1.7,1.2-1.7,1.2-1.7,1.3-1.7,1.3-1.7,1.3-1.7,1.3-1.7,1.3-1.7,1.3-1.7,1.4-1.7,1.4-1.7,1.4-1.7,1.4-1.7,1.4-1.7,1.4-1.7,1.4-1.7,1.5-1.6,1.5-1.6,1.5-1.6,1.5-1.6,1.5-1.6,1.5-1.6,1.5-1.6,1.5-1.6,1.6-1.6,1.6-1.6,1.6-1.5,1.6-1.5,1.6-1.5,1.6-1.5,1.6-1.5,1.6-1.5,1.6-1.5,1.7-1.4,1.7-1.4,1.7-1.4,1.7-1.4,1.7-1.4,1.7-1.4,1.7-1.3,1.7-1.3,1.7-1.3,1.7-1.3,1.7-1.3,1.7-1.3,1.7-1.3,1.7-1.2,1.7-1.2,1.7-1.2,1.7-1.2,1.8-1.2,1.7-1.1,1.8-1.1,1.8-1.1,1.8-1.1,1.8-1.1,1.7-1.1,1.8-1,1.8-1,1.7-1,1.7-1,1.7-1,1.7-.9,1.7-.9,1.7-.9,1.7-.9,1.7-.9,1.7-.8,1.7-.8,1.7-.8,1.7-.8,1.7-.8,1.7-.8,1.7-.7,1.7-.7,1.7-.7,1.6-.7,1.6-.6,1.6-.6,1.6-.6,1.6-.6,1.6-.6,1.6-.5,1.6-.5,1.5-.5,1.5-.5,1.5-.5,1.5-.5,1.5-.4,1.5-.4,1.5-.4,1.4-.4,1.4-.4,1.4-.3,1.4-.3,1.4-.3,1.4-.3,1.3-.3,1.3-.3,1.3-.2,1.3-.2,1.3-.2,1.3-.2,1.2-.2,1.2-.2,1.2-.1,1.2-.1,1.2-.1,1.1-.1,1.1-.1,1.1-.1,1.1-.1,1v8.2l.1.8.1.8.1.7.1.7.1.7.1.7.1.6.1.6.1.6.1.5.1.5.2.5.1.5.2.4.2.4.2.4.2.4.2.3.2.3.2.3.2.2.2.2.2.2.2.2.2.1.2.1.2.1h.8l.2-.1.2-.1.2-.1.2-.2.2-.2.2-.2.2-.3.2-.3.2-.3.2-.3.2-.4.2-.4.2-.4.2-.5.1-.5.1-.5.1-.5.1-.6.1-.6.1-.6.1-.6.1-.7.1-.7.1-.7.1-.8.1-.8v-8.3l-.1-1-.1-1-.1-1.1-.1-1.1-.1-1.1-.1-1.1-.1-1.2-.2-1.2-.2-1.2-.2-1.2-.2-1.3-.2-1.3-.3-1.3-.3-1.3-.3-1.3-.3-1.3-.3-1.4-.3-1.4-.3-1.4-.4-1.4-.4-1.4-.4-1.4-.4-1.5-.4-1.5-.5-1.5-.5-1.5-.5-1.5-.5-1.5-.5-1.6-.5-1.6-.6-1.6-.6-1.6-.6-1.6-.6-1.6-.6-1.6-.7-1.6-.7-1.6-.7-1.7-.7-1.6-.7-1.7-.8-1.7-1.3-1.6-.8-1.7-.8-1.7-.8-1.7-.9-1.7-.9-1.7-.9-1.7-.9-1.8-.9-1.7-1-1.7-1-1.7-1-1.7-1-1.7-1-1.8-1-1.8-1.1-1.7-1.1-1.8-1.1-1.8-1.1-1.8-1.1-1.8-1.2-1.7-1.2-1.8-1.2-1.7-1.2-1.8-1.2-1.7-1.3-1.7-1.3-1.7-1.3-1.7-1.3-1.7-1.3-1.7-1.3-1.7-1.3-1.7-1.4-1.7-1.4-1.7-1.4-1.7-1.4-1.7-1.4-1.7-1.4-1.7-1.5-1.7-1.5-1.6-1.5-1.6-1.5-1.6-1.5-1.6-1.5-1.6-1.5-1.6-1.5-1.6-1.6-1.6-1.6-1.6-1.6-1.6-1.6-1.5-1.6-1.5-1.6-1.5-1.6-1.5-1.6-1.5-1.6-1.5-1.7-1.5-1.7-1.4-1.7-1.4-1.7-1.4-1.7-1.4-1.7-1.4-1.7-1.4-1.7-1.4-1.7-1.3-1.7-1.3-1.7-1.3-1.7-1.3-1.7-1.3-1.7-1.3-1.7-1.2-1.7-1.2-1.7-1.2-1.7-1.2-1.8-1.2-1.8-1.1-1.8-1.1-1.7-1.1-1.8-1.1-1.8-1.1-1.8-1.1-1.7-1-1.8-1-1.7-1-1.7-1-1.7-1-1.7-1-1.7-.9-1.7-.9-1.7-.9-1.7-.9-1.7-.9-1.7-.8-1.7-.8-1.7-.8-1.7-.8-1.7-.8-1.7-.7-1.7-.7-1.6-.7-1.6-.7-1.6-.6-1.6-.6-1.6-.6-1.6-.6-1.6-.6-1.6-.6-1.6-.5-1.5-.5-1.5-.5-1.5-.5-1.5-.5-1.5-.4-1.5-.4-1.5-.4-1.4-.4-1.4-.4-1.4-.4-1.4-.3-1.4-.3-1.4-.3-1.3-.3-1.3-.3-1.3-.3-1.3-.2-1.3-.2-1.2-.2-1.2-.2-1.2-.2-1.2-.1-1.3-.1-1.1-.1-1.1-.1-1.1-.1-1.1-.1-1-.1-1-.1h-8l-.8.1-.7.1-.7.1-.7.1-.7.1-.6.1-.6.1-.6.1-.6.1-.5.1-.5.1-.5.1-.4.2-.4.2-.4.2-.4.2-.3.2-.3.2-.3.2-.2.2-.2.2-.2.2-.2.2-.1.2-.1.2-.1.2v.8l.1.2.1.2.1.2.2.2.2.2.2.2.3.2.3.2.3.2.3.2.4.2.4.2.4.2.5.2.5.1.5.1.5.1.6.1.6.1.6.1.6.1.7.1.7.1.7.1.8.1.8.1h9.1l1-.1,1.1-.1,1.1-.1,1.1-.1,1.1-.1,1.1-.1,1.2-.2,1.2-.2,1.2-.2,1.2-.2,1.3-.2,1.3-.2,1.3-.3,1.3-.3,1.3-.3,1.4-.3,1.4-.3,1.4-.3,1.4-.4,1.4-.4,1.4-.4,1.5-.4,1.5-.4,1.5-.4,1.5-.5,1.5-.5,1.5-.5,1.5-.5,1.6-.5,1.6-.6,1.6-.6,1.6-.6,1.6-.6,1.6-.6,1.6-.7,1.6-.7,1.6-.7,1.7-.7,1.7-.7,1.7-.8,1.7-.8,1.7-.8,1.7-.8,1.7-.8,1.7-.9L88,211l1.7-.9,1.7-.9,1.7-.9,1.7-.9,1.7-1,1.7-1,1.7-1,1.8-1,1.7-1,1.8-1.1,1.8-1.1,1.8-1.1,1.8-1.1,1.7-1.1,1.8-1.2,1.8-1.2,1.7-1.2,1.8-1.2,1.7-1.2,1.7-1.3,1.7-1.3,1.7-1.3,1.7-1.3,1.7-1.3,1.7-1.3,1.7-1.4,1.7-1.4,1.7-1.4,1.7-1.4,1.7-1.4,1.7-1.4,1.7-1.4,1.7-1.4,1.7-1.5,1.6-1.5,1.6-1.5,1.6-1.5,1.6-1.5,1.6-1.5,1.6-1.5,1.6-1.6,1.6-1.6,1.6-1.6,1.5-1.6,1.5-1.6,1.5-1.6,1.5-1.6,1.5-1.6L170,147l1.5-1.6,1.5-1.7,1.4-1.7,1.4-1.7,1.4-1.7,1.4-1.7,1.4-1.7,1.4-1.7,1.3-1.7,1.3-1.7,1.3-1.7,1.3-1.7,1.3-1.7,1.3-1.7,1.3-1.7,1.2-1.7,1.2-1.7,1.2-1.7,1.2-1.8,1.2-1.8,1.1-1.7,1.1-1.8,1.1-1.8,1.1-1.8L202,104l1-1.7,1-1.8,1-1.7,1-1.7,1-1.7.9-1.7.9-1.7.9-1.7.9-1.7.9-1.7.8-1.7.8-1.7.8-1.7.8-1.7.8-1.7.8-1.7L217,75l.7-1.7.7-1.6.7-1.6.7-1.6.6-1.6.6-1.6.6-1.6.6-1.6.6-1.6.5-1.6.5-1.6.5-1.5.5-1.5.5-1.5.5-1.5.4-1.5.4-1.5.4-1.4.4-1.4.4-1.4.3-1.4.3-1.4.3-1.3.3-1.3.3-1.3.3-1.3.2-1.3.2-1.3.2-1.2.2-1.2.2-1.2.2-1.2.2-1.2.1-1.1.1-1.1.1-1.1.1-1.1.1-1,.1-1V12.9l-.1-.8-.1-.8-.1-.7-.1-.7-.1-.7-.1-.6-.1-.6-.1-.6-.1-.6-.1-.5-.1-.5-.2-.5-.2-.4-.2-.4-.2-.4-.2-.4-.2-.3-.2-.3-.2-.3-.2-.3-.2-.2-.2-.2-.2-.2-.2-.1-.2-.1-.2-.1-.2-.1h-.6l-.2.1-.2.1-.2.1-.2.1-.2.2-.2.2-.2.2-.2.3-.2.3-.2.3-.2.4-.2.4-.2.4L224,5l-.2.5-.1.5-.1.5-.1.6-.1.6-.1.6-.1.6-.1.7-.1.7-.1.7-.1.7-.1.8v9l.1,1,.1,1.1.1,1.1.1,1.1.1,1.1.1,1.1.2,1.2.2,1.2.2,1.2.2,1.2.2,1.3.2,1.3.2,1.3L225,38l.3,1.3.3,1.4.3,1.4.3,1.4.3,1.4.4,1.4.4,1.4.4,1.5.4,1.5.4,1.5.5,1.5.5,1.5.5,1.5.5,1.5.5,1.6.5,1.6.6,1.6.6,1.6.6,1.6.6,1.6.6,1.6.7,1.6.7,1.6.7,1.7.7,1.7.8,1.7.8,1.7.8,1.7.8,1.7.8,1.7.8,1.7.9,1.7.9,1.7.9,1.7.9,1.7.9,1.7,1,1.7,1,1.7,1,1.7,1,1.8,1,1.7,1,1.8,1.1,1.8,1.1,1.8,1.1,1.7,1.1,1.8,1.1,1.8,1.2,1.8,1.2,1.7,1.2,1.8,1.2,1.7,1.2,1.7,1.3,1.7,1.3,1.7,1.3,1.7,1.3,1.7,1.3,1.7,1.3,1.7,1.4,1.7,1.4,1.7,1.4,1.7,1.4,1.7,1.4,1.7,1.4,1.7,1.4,1.7,1.5,1.7,1.5,1.7,1.5,1.6,1.5,1.6,1.5,1.6,1.5,1.6,1.5,1.6,1.5,1.6,1.6,1.6,1.6,1.6,1.6,1.5,1.6,1.5,1.6,1.5,1.6,1.5,1.6,1.5,1.6,1.5,1.7,1.5,1.7,1.5,1.7,1.4,1.7,1.4,1.7,1.4,1.7,1.4,1.7,1.4,1.7,1.4,1.7,1.3,1.7,1.3,1.7,1.3,1.7,1.3,1.7,1.3,1.7,1.3,1.7,1.3,1.7,1.2,1.7,1.2,1.7,1.2,1.8,1.2,1.7,1.2,1.8,1.1,1.8,1.1,1.8,1.1,1.8,1.1,1.8,1.1,1.7,1,1.8,1,1.7,1,1.7,1,1.7,1,1.7,1,1.7.9,1.7.9,1.7.9,1.7.9,1.7.9,1.7.8,1.7.8,1.7.8,1.7.8,1.7.8,1.7.7,1.7.7,1.6.7,1.6.7,1.6.7,1.6.6,1.6.6,1.6.6,1.6.6,1.6.6,1.6.6,1.5.5,1.5.5,1.5.5,1.5.5,1.5.5,1.5.4,1.5.4,1.5.4,1.4.4,1.4.4,1.4.3,1.4.3,1.4.3,1.3.3,1.3.3,1.3.3,1.3.3,1.3.2,1.3.2,1.2.2,1.2.2,1.2.2,1.2.1,1.1.1,1.1.1,1.1.1,1.1.1,1,.1,1,.1h8.2l.8-.1.8-.1.7-.1.7-.1.7-.1.7-.1.6-.1.6-.1.6-.1.5-.1.5-.1.5-.2.5-.1.4-.2.4-.2.4-.2.3-.2.3-.2.3-.2.3-.2.2-.2.2-.2.2-.2.1-.2.1-.2.1-.2.1-.2v-.8l-.1-.2-.1-.2-.1-.2-.2-.2-.2-.2-.2-.2-.3-.2-.3-.2-.3-.2-.3-.2-.4-.2-.4-.2-.4-.2-.5-.1-.5-.1-.5-.1-.5-.1-.6-.1-.6-.1-.6-.1-.6-.1-.7-.1-.7-.1-.7-.1-.8-.1H434l-1,.1-1,.1-1,.1-1.1.1-1.1.1-1.1.1-1.1.1-1.2.1-1.2.2-1.2.2-1.2.2-1.3.2-1.3.2-1.3.2-1.3.3-1.3.3-1.3.3-1.4.3-1.4.3-1.4.3-1.4.4-1.4.4-1.5.4-1.5.4-1.5.4-1.5.5-1.5.5-1.5.5-1.5.5-1.5.5-1.6.5-1.6.6-1.6.6-1.6.6-1.6.6-1.6.7-1.6.7-1.7.7-1.6.7-1.7.7-1.7.7-1.7.8-1.7.8-1.7.8-1.7.8-1.7.8-1.7.9-1.7.9-1.7.9-1.7.9-1.7.9-1.7,1-1.7,1-1.7,1-1.7,1-1.8,1-1.8,1.1-1.7,1.1-1.8,1.1-1.8,1.1-1.8,1.1-1.8,1.1-1.2,1-1.7,1.2-1.7,1.2-1.8,1.2-1.7,1.2-1.7,1.3-1.7,1.3-1.7,1.3-1.7,1.3-1.7,1.3-1.7,1.3-1.7,1.4-1.7,1.4-1.7,1.4-1.7,1.4-1.7,1.4-1.7,1.4-1.7,1.5-1.7,1.4-1.6,1.5-1.6,1.5-1.6,1.5-1.6,1.5-1.6,1.5-1.6,1.5-1.6,1.6-1.6,1.6-1.6,1.6-1.6,1.6-1.5,1.6-1.5,1.6-1.5,1.6-1.5,1.6-1.5,1.6-1.5,1.6-1.5,1.7-1.5,1.7-1.4,1.7-1.4,1.7-1.4,1.7-1.4,1.7-1.4,1.7-1.4,1.7-1.3,1.7-1.3,1.7-1.3,1.7-1.3,1.7-1.3,1.7-1.3,1.7-1.2,1.7-1.2,1.7-1.2,1.7-1.2,1.7-1.2,1.8-1.2,1.8-1.1,1.8-1.1,1.8-1.1,1.7-1.1,1.8-1.1,1.8-1,1.8-1,1.7-1,1.7-1,1.7-1,1.7-.9,1.7-.9,1.7-.9,1.7-.9,1.7-.9,1.7-.8,1.7-.8,1.7-.8,1.7-.8,1.7-.8,1.7-.8,1.7-.7,1.7-.7,1.7-.7,1.6-.7,1.6-.7,1.6-.6,1.6-.6,1.6-.6,1.6-.6,1.6-.5,1.6-.5,1.6-.5,1.5-.5,1.5-.5,1.5-.5,1.5-.4,1.5-.4,1.5-.4,1.5-.4,1.4-.4,1.4-.4,1.4-.3,1.4-.3,1.4-.3,1.3-.3,1.3-.3,1.3-.3,1.3-.2,1.3-.2,1.3-.2,1.2-.2,1.2-.2,1.2-.1,1.2-.1,1.1-.1,1.1-.1,1.1-.1,1.1-.1,1.1-.1,1-.1,1v8.1l.1.8.1.7.1.7.1.7.1.7.1.6.1.6.1.6.1.5.1.5.1.5.1.5.2.4.2.4.2.4.2.3.2.3.2.3.2.3.2.2.2.2.2.2.2.2.2.1.2.1.2.1h.8l.2-.1.2-.1.2-.1.2-.2.2-.2.2-.2.2-.3.2-.3.2-.3.2-.3.2-.4.2-.4.2-.4.2-.5.1-.5.2-.5.1-.5.1-.6.1-.6.1-.6.1-.6.1-.7.1-.7.1-.7.1-.7v-8.9l-.1-1-.1-1-.1-1.1-.1-1.1-.1-1.1-.1-1.1-.1-1.2-.2-1.2-.2-1.2-.2-1.2-.2-1.2-.2-1.3-.2-1.3-.3-1.3-.3-1.3-.3-1.3-.3-1.3-.3-1.4-.3-1.4-.3-1.4-.4-1.4-.4-1.4-.4-1.5-.4-1.5-.4-1.5-.5-1.5-.5-1.5-.5-1.5-.5-1.5-.5-1.6-.6-1.6-.6-1.6-.6-1.6-.6-1.6-.6-1.6-.7-1.6-.7-1.6-.7-1.6-.7-1.7-.7-1.7-.8-1.7L215,375l-.8-1.7-.8-1.7-.8-1.7-.9-1.7-1.1-1.6-.9-1.7-.9-1.7-.9-1.7-1-1.7-1-1.7-1-1.7-1-1.7-1-1.8-1-1.7-1.1-1.8-1.1-1.8-1.1-1.8-1.1-1.8-1.1-1.8-1.2-1.7-1.2-1.8-1.2-1.7-1.2-1.8-1.2-1.7-1.3-1.7-1.3-1.7-1.3-1.7-1.3-1.7-1.3-1.7-1.3-1.7-1.3-1.7-1.4-1.7-1.4-1.7-1.4-1.7-1.4-1.7-1.4-1.7-1.4-1.7-1.3-1.8-1.5-1.6-1.5-1.6-1.5-1.6-1.5-1.6-1.5-1.6-1.5-1.6-1.6-1.6-1.6-1.6-1.6-1.6-1.6-1.6-1.6-1.5-1.6-1.5-1.6-1.5-1.6-1.5-1.6-1.5-1.6-1.5-1.7-1.5-1.7-1.5-1.7-1.4-1.7-1.4-1.7-1.4-1.7-1.4-1.7-1.4-1.7-1.4-1.7-1.3-1.7-1.3-1.7-1.3-1.7-1.3-1.6-1.4-1.7-1.3-1.7-1.3-1.7-1.2-1.9-1.2-1.7-1.2-1.8-1.2-1.8-1.2-1.7-1.1-1.8-1.1-1.8-1.1-1.8-1.1-1.6-1-1.7-1-1.8-1-1.7-1-1.7-1-1.7-1-1.7-1-1.7-.9-1.7-.9-1.7-.9-1.7-.9-1.7-.9-1.7-.8-1.7-.8-1.7-.8-1.7-.8-1.7-.8-1.7-.7-1.7-.7-1.6-.7-1.6-.7-1.6-.7-1.6-.6-1.6-.6-1.6-.6-1.6-.6-1.6-.6-1.6-.5-1.5-.5-1.5-.5-1.5-.5-1.5-.5-1.5-.4-1.5-.4-1.5-.4-1.4-.4-1.4-.4-1.4-.4-1.4-.3-1.4-.3-1.4-.3-1.3-.3-1.3-.3-1.3-.3-1.3-.2-1.3-.2-1.2-.2-1.2-.2-1.2-.2-1.2-.2-1.2-.1-1.1-.1-1.1-.1-1.1-.1-1.1-.1-1-.1-1-.1H13.3l-.8.1-.8.1-.7.1-.7.1-.7.1-.7.1-.7.1-.6.1-.6.1-.6.1-.5.1-.5.1-.5.1-.4.2-.4.2-.4.2-.4.2-.3.2-.3.2-.3.2-.3.2-.2.2-.2.2-.2.2-.1.2-.1.2-.1.2v.8l.1.2.1.2.1.2.1.2.2.2.2.2.2.2.3.2.3.2.3.2.4.2.4.2.4.2.4.2.5.1.5.1.5.1.5.1.6.1.6.1.6.1.7.1.7.1.7.1.7.1.8.1h9l1-.1,1-.1,1.1-.1,1.1-.1,1.1-.1,1.1-.1,1.2-.2,1.2-.2,1.2-.2,1.2-.2,1.3-.2,1.3-.2,1.3-.3,1.3-.3,1.3-.3,1.3-.3,1.4-.3,1.4-.3,1.4-.4,1.4-.4,1.4-.4,1.5-.4,1.5-.4,1.5-.4,1.5-.5,1.5-.5,1.5-.5,1.5-.5,1.6-.5,1.6-.5,1.6-.6,1.6-.6,1.6-.6,1.6-.6,1.6-.7,1.6-.7,1.6-.7,1.7-.7,1.7-.7,1.7-.8,1.7-.8,1.7-.8,1.7-.8,1.7-.8,1.7-.8,1.7-.9,1.7-.9,1.7-.9,1.7-.9,1.7-1,1.7-1,1.7-1,1.7-1,1.8-1,1.7-1,1.8-1,1.8-1.1,1.8-1.1,1.8-1.1,1.7-1.1,1.8-1.1,1.8-1.2,1.7-1.2,1.8-1.2,1.7-1.2,1.7-1.2,1.7-1.3,1.7-1.3,1.7-1.3,1.7-1.3,1.7-1.3,1.7-1.3,1.7-1.4,1.7-1.4,1.7-1.4,1.7-1.4,1.7-1.4,1.7-1.4,1.7-1.5,1.7-1.5,1.6-1.5,1.6-1.5,1.6-1.5,1.6-1.5,1.6-1.5,1.6-1.5,1.6-1.6,1.6-1.6,1.6-1.6,1.5-1.6,1.5-1.6,1.5-1.6,1.5-1.6,1.5-1.6,1.5-1.6,1.5-1.6,1.5-1.7,1.4-1.7,1.4-1.7,1.4-1.7,1.4-1.7,1.4-1.7,1.4-1.7,1.3-1.7,1.3-1.7,1.3-1.7,1.3-1.7,1.3-1.7,1.3-1.7,1.3-1.7,1.2-1.7,1.2-1.7,1.2-1.7,1.2-1.8,1.2-1.7,1.1-1.8,1.1-1.8,1.1-1.8,1.1-1.8,1.1-1.8,1.1-1.7,1-1.8,1-1.7,1-1.7,1-1.7,1-1.7.9-1.7.9-1.7.9-1.7.9-1.7.9-1.7.8-1.7.8-1.7.8-1.7.8-1.7.8-1.7.7-1.7.7-1.6.7-1.7.7-1.6.7-1.6.7-1.6.6-1.6.6-1.6.6-1.6.6-1.6.6-1.6.5-1.6.5-1.5.5-1.5.5-1.5.4-1.5.4-1.5.4-1.5.4-1.4.4-1.4.4-1.4.4-1.4.3-1.4.3-1.4.3-1.3.3-1.3.3-1.3.2-1.3.2-1.3.2-1.3.2-1.2.2-1.2.2-1.2.1-1.2.1-1.2.1-1.1.1-1.1.1-1.1.1-1.1.1-1V13l-.1-.8-.1-.8-.1-.7-.1-.7-.1-.7-.1-.7-.1-.6-.1-.6-.1-.6-.1-.5-.1-.5-.1-.5-.2-.5-.2-.4-.2-.4-.2-.4-.2-.3-.2-.3-.2-.3-.2-.3-.2-.2-.2-.2-.2-.2-.2-.1-.2-.1-.2-.1-.2-.1h-.6l-.2.1-.2.1-.2.1-.2.1-.2.2-.2.2-.2.2-.2.3-.2.3-.2.3-.2.3-.2.4-.2.4-.2.4-.2.5-.1.5-.1.5-.1.5-.1.6L223,8l-.1.6-.1.6-.1.7-.1.7-.1.7-.1.8-.1.8v7.2l.1,1,.1,1,.1,1.1.1,1.1.1,1.1.1,1.1.1,1.1.1,1.2.2,1.2.2,1.2.2,1.2.2,1.3.2,1.3.3,1.3.3,1.3.3,1.3.3,1.3.3,1.4.3,1.4.4,1.4.4,1.4.4,1.4.4,1.4.4,1.5.4,1.5.5,1.5.5,1.5.5,1.5.5,1.5.5,1.6.5,1.6.6,1.6.6,1.6.6,1.6.6,1.6.7,1.6.7,1.6.7,1.6.7,1.6.7,1.7.7,1.7.8,1.7.8,1.7.8,1.7.8,1.7.8,1.7.9,1.7.9,1.7.9,1.7.9,1.7.9,1.7,1,1.7,1,1.7,1,1.7,1,1.8,1,1.7,1.1,1.8,1.1,1.8,1.1,1.7,1.1,1.8,1.1,1.8,1.1,1.8,1.2,1.8,1.2,1.7,1.2,1.8,1.2,1.7L264,122l1.3,1.7,1.3,1.7,1.3,1.7,1.3,1.7,1.3,1.7,1.3,1.7,1.3,1.7,1.4,1.7,1.4,1.7,1.4,1.7,1.4,1.7,1.4,1.7,1.4,1.7,1.5,1.7,1.5,1.6L286,149l1.5,1.6,1.5,1.6,1.5,1.6,1.5,1.6,1.5,1.6,1.6,1.6,1.6,1.6,1.6,1.6,1.6,1.5,1.6,1.5,1.6,1.5,1.6,1.5,1.6,1.5,1.6,1.5,1.6,1.5,1.7,1.5,1.7,1.4,1.7,1.4,1.7,1.4,1.7,1.4,1.7,1.4,1.7,1.4,1.7,1.3,1.7,1.3,1.7,1.3,1.7,1.3,1.7,1.3,1.7,1.3,1.7,1.2,1.7,1.2,1.7,1.2,1.8,1.2,1.7,1.2,1.8,1.2,1.8,1.1,1.8,1.1,1.8,1.1,1.7,1.1,1.8,1.1,1.8,1,1.7,1,1.7,1,1.7,1,1.7,1,1.7.9,1.7.9,1.7.9,1.7.9,1.7.9,1.7.9,1.7.8,1.7.8,1.7.8,1.7.8,1.7.8,1.7.7,1.7.7,1.6.7,1.6.7,1.6.6,1.6.6,1.6.6,1.6.6,1.6.6,1.6.5,1.5.5,1.5.5,1.5.5,1.5.5,1.5.5,1.5.4,1.5.4,1.4.4,1.4.4,1.4.4,1.4.4,1.4.3,1.4.3,1.4.3,1.3.3,1.3.3,1.3.3,1.3.2,1.3.2,1.2.2,1.2.2,1.2.2,1.2.2,1.2.1,1.1.1,1.1.1,1.1.1,1.1.1,1,.1,1,.1h8l.8-.1.7-.1.7-.1.7-.1.7-.1.6-.1.6-.1.6-.1.6-.1.5-.1.5-.1.5-.2.4-.1.4-.2.4-.2.4-.2.3-.2.3-.2.3-.2.2-.2.2-.2.2-.2.1-.2.1-.2.1-.2.1-.2v-.2l.5-.4V227l-.1-.2-.1-.2-.1-.2-.2-.2-.2-.2-.2-.2-.3-.2-.3-.2-.3-.2-.3-.2-.4-.2-.4-.2-.4-.2-.4-.2-.5-.2-.5-.1-.5-.1-.6-.1-.6-.1-.6-.1-.6-.1-.7-.1-.7-.1-.7-.1-.8-.1-.8-.1h-8l-1,.1-1,.1-1.1.1-1.1.1-1.1.1-1.1.1-1.2.1-1.2.1-1.2.2-1.2.2-1.2.2-1.3.2-1.3.2-1.3.3-1.3.3-1.3.3-1.4.3-1.4.3-1.4.3-1.4.4-1.4.4-1.4.4-1.5.4-1.5.4-1.5.4-1.5.5-1.5.5-1.5.5-1.5.5-1.5.5-1.6.6-1.6.6-1.6.6-1.6.6-1.6.6-1.6.7-1.6.7-1.6.7-1.7.7-1.7.7-1.7.8-1.7.8-1.7.8-1.7.8-1.7.8-1.7.9-1.7.9-1.7.9-1.7.9-1.7.9-1.7.9-1.7,1-1.7,1-1.7,1-1.8,1-1.8,1-1.7,1.1-1.8,1.1-1.8,1.1-1.8,1.1-1.8,1.1-1.7,1.2-1.8,1.2-1.7,1.2-1.8,1.2-1.7,1.2-1.7,1.3-1.7,1.3-1.7,1.3-1.7,1.3-1.7,1.3-1.7,1.3-1.7,1.4-1.7,1.4-1.7,1.4-1.7,1.4-1.7,1.4-1.7,1.4-1.7,1.4-1.7,1.5-1.7,1.5-1.6,1.5-1.6,1.5-1.6,1.5-1.6,1.5-1.6,1.5-1.6,1.5-1.6,1.6-1.6,1.6-1.6,1.6-1.5,1.6-1.5,1.6-1.5,1.6-1.5,1.6-1.5,1.6-1.5,1.6-1.5,1.6-1.5,1.7-1.4,1.7-1.4,1.7-1.4,1.7-1.4,1.7-1.4,1.7-1.4,1.7-1.4,1.7-1.3,1.7-1.3,1.7-1.3,1.7-1.3,1.7-1.3,1.7-1.2,1.7-1.2,1.7-1.2,1.7-1.2,1.7-1.2,1.8-1.2,1.8-1.1,1.8-1.2,1.9-1.1,1.8-1.1,1.8-1.1,1.8-1,1.8-1,1.7-1,1.7-1,1.7-1,1.7-1,1.7-.9,1.7-.9,1.7-.9,1.7-.9,1.7-.8,1.7-.8,1.7-.8,1.7-.8,1.7-.8,1.7-.8,1.7-.7,1.7-.7,1.7-.7,1.6-.7,1.6-.7,1.6-.6,1.6-.6,1.6-.6,1.6-.6,1.6-.6,1.6-.5,1.6-.5,1.5-.5,1.5-.5,1.5-.5,1.5-.5,1.5-.4,1.5-.4,1.5-.4,1.4-.4,1.4-.4,1.4-.3,1.4-.3,1.4-.3,1.4-.3,1.3-.3,1.3-.3,1.3-.2,1.3-.2,1.3-.2,1.2-.2,1.2-.2,1.2-.2,1.2-.1,1.2-.1,1.1-.1,1.1-.1,1.1-.1,1.1-.1,1-.1,1v8.2l.1.8.1.8.1.7.1.7.1.7.1.7.1.6.1.6.1.6.1.5.1.5.2.5.1.5.2.4.2.4.2.4.2.3.2.3.2.3.2.3.2.2.2.2.2.2.2.1.2.1.2.1h.8l.2-.1.2-.1.2-.1.2-.2.2-.2.2-.2.2-.2.2-.3.2-.3.2-.3.2-.3.2-.4.2-.4.2-.4.2-.5.1-.5.1-.5.1-.5.1-.6.1-.6.1-.6.1-.7.1-.7.1-.7.1-.7.1-.8v-8l-.1-1-.1-1-.1-1.1-.1-1.1-.1-1.1-.1-1.1-.1-1.1-.3-1.6-.2-1.2-.2-1.2L230,422l-.2-1.3-.2-1.3-.3-1.3-.3-1.3-.3-1.3-.3-1.4-.3-1.4-.3-1.4-.3-1.4-.4-1.4-.4-1.4-.4-1.5-.4-1.5-.4-1.5-.5-1.5-.5-1.5-.5-1.5-.5-1.5-.5-1.5-.5-1.6-.6-1.6-.6-1.6-.6-1.6-.6-1.6-.6-1.6-.7-1.6-.7-1.6-.7-1.7-.7-1.7-.7-1.7-.8-1.7-.8-1.7-.8-1.7-.8-1.7-.8-1.7-.9-1.7-.9-1.7-.9-1.7-.9-1.7-.9-1.7-1-1.7-1-1.7-1-1.7-1-1.8-1-1.7-1.1-1.8-1.1-1.8-1.1-1.8-1.1-1.8-1.1-1.7-1.2-1.8-1.2-1.8-1.2-1.7-1.2-1.8-1.2-1.7-1.2-1.7-1.3-1.7-1.3-1.7-1.3-1.7-1.3-1.7-1.3-1.7L182,322l-1.4-1.7-1.4-1.7-1.4-1.7-1.4-1.7-1.4-1.7-1.4-1.7-1.4-1.7-1.5-1.7-1.5-1.6-1.5-1.6-1.5-1.6-1.5-1.6-1.5-1.6-1.5-1.6-1.5-1.6-1.6-1.6L157,294l-1.6-1.5-1.6-1.5-1.6-1.5-1.6-1.5-1.6-1.5-1.6-1.5-1.7-1.5L144,282l-1.7-1.4-1.7-1.4-1.7-1.4-1.7-1.4-1.7-1.4-1.7-1.4-1.7-1.4-1.7-1.3-1.8-1.3-1.7-1.3-1.7-1.3-1.7-1.3-1.7-1.3-1.7-1.2-1.7-1.2-1.7-1.2-1.8-1.2-1.8-1.2-1.7-1.1-1.8-1.1-1.8-1.1L106,254l-1.8-1.1-1.7-1.1-1.8-1-1.7-1-1.7-1-1.7-1-1.7-1-1.7-.9-1.7-.9-1.7-.9-1.7-.9-1.7-.9-1.7-.8-1.7-.8-1.7-.8-1.7-.8-1.7-.8-1.7-.8-1.7-.7-1.7-.7-1.6-.7-1.6-.7-1.6-.6-1.6-.6-1.6-.6-1.6-.6-1.6-.6-1.6-.5-1.6-.5-1.5-.5-1.5-.5-1.5-.5-1.5-.5-1.5-.4-1.5-.4-1.4-.4-1.4-.4-1.4-.4-1.4-.3-1.4-.3-1.4-.3-1.4-.2-1.3-.3L36,225l-1.3-.3-1.3-.2-1.2-.2-1.2-.2-1.2-.2-1.2-.2-1.2-.2-1.1-.1-1.1-.1-1.1-.1-1.1-.1-1-.1-1-.1H12l-.8.1-.7.1-.7.1-.7.1-.6.1-.6.1-.6.1-.6.1-.5.1-.5.1-.5.1-.5.1-.4.2-.4.2-.4.2-.4.2-.3.2-.3.2-.3.2-.2.2-.2.2-.2.2-.1.2-.1.2-.1.2-.1.2v.6l.1.2.1.2.1.2.1.2.2.2.2.2.2.2.3.2.3.2.3.2.3.2.4.2.4.2.4.2.4.1.5.1.5.1.6.1.6.1.6.1.6.1.7.1.7.1.7.1.7.1.8.1h9l1-.1,1-.1,1.1-.1,1.1-.1,1.1-.1,1.1-.1,1.2-.2,1.2-.2,1.2-.2,1.2-.2,1.2-.2,1.3-.2,1.3-.2,1.3-.3,1.3-.3,1.4-.3,1.4-.3,1.4-.3,1.4-.3,1.4-.4,1.4-.4,1.5-.4,1.5-.4,1.5-.4,1.5-.4,1.5-.5,1.5-.5,1.5-.5,1.5-.5,1.6-.6,1.6-.6,1.6-.6,1.6-.6,1.6-.6,1.6-.6,1.6-.7,1.6-.7,1.7-.7,1.7-.7,1.7-.7,1.7-.8,1.7-.8,1.7-.8,1.7-.8,1.7-.8,1.7-.9,1.7-.9,1.7-.9,1.7-.9,1.7-.9,1.7-1,1.7-1,1.7-1,1.8-1,1.7-1,1.8-1.1,1.8-1.1,1.7-1.1,1.8-1.1,1.8-1.1,1.8-1.1,1.8-1.2,1.7-1.2,1.8-1.2,1.7-1.2,1.7-1.2,1.7-1.3,1.7-1.3,1.7-1.3,1.7-1.3,1.7-1.3,1.7-1.3,1.7-1.4,1.7-1.4,1.7-1.4,1.7-1.4,1.7-1.4,1.7-1.4,1.7-1.4,1.7-1.5,1.6-1.5,1.6-1.5,1.6-1.5,1.6-1.5,1.6-1.5,1.6-1.5,1.6-1.5,1.6-1.6,1.6-1.6,1.5-1.6,1.5-1.6,1.5-1.6,1.5-1.6,1.5-1.6,1.5-1.6,1.5-1.6,1.5-1.6,1.5-1.7,1.4-1.7,1.4-1.7,1.4-1.7,1.4-1.7,1.4-1.7,1.4-1.7,1.3-1.7,1.3-1.7,1.3-1.7,1.3-1.7,1.3-1.7,1.3-1.7,1.2-1.7,1.2-1.7,1.2-1.7,1.2-1.8,1.2-1.7,1.1-1.8,1.1-1.8,1.1-1.8,1.1-1.8,1.1-1.7,1.1-1.8,1-1.8,1-1.7,1-1.7,1-1.7,1-1.7,1-1.7.9-1.7.9-1.7.9-1.7L212,86l.8-1.7.8-1.7.8-1.7.8-1.7.8-1.7.8-1.7.7-1.7.7-1.7.7-1.6.7-1.6.7-1.6.6-1.6.6-1.6.6-1.6.6-1.6.5-1.6.5-1.6.5-1.5.5-1.5.5-1.5.5-1.5.4-1.5.4-1.5.4-1.4.4-1.4.4-1.4.4-1.4.3-1.4.3-1.4.3-1.3.3-1.3.3-1.3.3-1.3.2-1.3.2-1.3.2-1.2.2-1.2.2-1.2.2-1.2.1-1.1.1-1.1.1-1.1.1-1.1.1-1.1.1-1,.1-1V12.4l-.1-.8-.1-.7-.1-.7-.1-.7-.1-.7-.1-.6-.1-.6L231,7l-.1-.6-.1-.5-.1-.5-.2-.5-.2-.4-.2-.4-.2-.4-.2-.4-.2-.3-.2-.3-.2-.3-.2-.2-.2-.2-.2-.2-.2-.1-.2-.1-.2-.1-.2-.1h-.6l-.2.1-.2.1-.2.1-.2.1-.2.2-.2.2-.2.2-.2.3-.2.3-.2.3-.2.3-.2.4-.2.4-.2.4-.1.4-.2.5-.1.5-.1.5-.1.6-.1.6-.1.6-.1.6-.1.7-.1.7-.1.7-.1.8-.1.8v8.1l.1,1,.1,1.1.1,1.1.1,1.1.1,1.1.1,1.1.1,1.2.2,1.2L224,31l.2,1.2.2,1.2.2,1.3.2,1.3.3,1.3.3,1.3.3,1.3.3,1.4.3,1.4.3,1.4.4,1.4.4,1.4.4,1.4.4,1.4.4,1.5.5,1.5.5,1.5.5,1.5.5,1.5.5,1.6.5,1.6.6,1.6.6,1.6.6,1.6.6,1.6.6,1.6.6,1.6.7,1.6.7,1.6.7,1.7.7,1.7.8,1.7.8,1.7.8,1.7.8,1.7.8,1.7.8,1.7.9,1.7.9,1.7.9,1.7.9,1.7.9,1.7,1,1.7,1,1.7,1,1.8,1,1.7,1,1.8,1.1,1.7,1.1,1.8,1.1,1.8,1.1,1.8,1.1,1.8,1.2,1.8,1.2,1.7,1.2,1.8,1.2,1.7,1.2,1.7,1.2,1.7,1.3,1.7,1.3,1.7,1.3,1.7,1.3,1.7,1.3,1.7,1.3,1.7,1.4,1.7,1.4,1.7,1.4,1.7,1.4,1.7,1.4,1.7,1.4,1.7,1.5,1.7,1.5,1.6,1.5,1.6,1.5,1.6,1.5,1.6,1.5,1.6,1.5,1.6,1.5,1.6,1.6,1.6,1.6,1.6,1.6,1.5,1.6,1.6,1.6,1.5,1.6,1.5,1.6,1.5,1.6,1.5,1.6,1.5,1.7,1.5,1.7,1.5,1.7,1.4,1.7,1.4,1.7,1.4,1.7,1.4,1.7,1.4,1.7,1.4,1.7,1.3,1.7,1.3,1.7,1.3L328,187l1.7,1.3,1.7,1.3,1.7,1.2,1.7,1.2,1.7,1.2,1.8,1.2,1.7,1.2,1.8,1.2,1.8,1.1,1.8,1.1,1.7,1.1,1.8,1.1,1.8,1.1,1.8,1,1.7,1,1.7,1,1.7,1,1.7,1,1.7,1,1.7.9,1.7.9,1.7.9,1.7.9,1.7.9,1.7.8,1.7.8,1.7.8,1.7.8,1.7.8,1.7.7,1.7.7,1.6.7,1.6.7,1.6.7,1.6.6,1.6.6,1.6.6,1.6.6,1.6.6,1.5.5,1.5.5,1.5.5,1.5.5,1.5.5,1.5.4,1.5.4,1.5.4,1.4.4,1.4.4,1.4.4,1.4.3,1.4.3,1.3.3,1.3.3,1.3.3,1.3.3,1.3.2,1.3.2,1.2.2,1.2.2,1.2.2,1.2.2,1.2.1,1.1.1,1.1.1,1.1.1,1.1.1,1,.1,1,.1h8.1l.8-.1.8-.1.7-.1.7-.1.7-.1.6-.1.6-.1.6-.1.6-.1.5-.1.5-.1.5-.2.5-.1.4-.2.4-.2.4-.2.3-.2.3-.2.3-.2.3-.2.2-.2.2-.2.2-.2.1-.2.1-.2.1-.2v-.2l.2-.3V227l-.1-.2-.1-.2-.1-.2-.1-.2-.2-.2-.2-.2-.2-.2-.3-.2-.3-.2-.3-.2-.4-.2-.4-.2-.4-.2-.4-.2-.5-.1-.5-.1-.5-.1-.5-.1-.6-.1-.6-.1-.6-.1-.7-.1-.7-.1-.7-.1-.7-.1-.8-.1h-8l-1,.1-1,.1-1.1.1-1.1.1-1.1.1-1.3.1-1.2.1-1.2.1-1.2.2-1.2.2-1.2.2-1.3.2-1.3.2-1.3.3-1.3.3-1.3.3-1.3.3-1.4.3-1.4.3-1.4.4-1.4.4-1.4.4-1.5.4-1.5.4-1.5.4-1.5.5-1.5.5-1.5.5-1.5.5-1.6.5-1.6.6-1.6.6-1.6.6-1.6.6-1.6.6-1.6.6-1.6.7-1.6.7-1.7.7-1.7.7-1.7.8-1.7.8-1.7.8-1.7.8-1.7.8-1.7.8-1.7.9-1.7.9-1.7.9-1.7.9-1.7.9-1.7,1-1.7,1-1.8,1-1.7,1-1.7,1-1.8,1.1-1.8,1.1-1.8,1.1-1.8,1.1-1.8,1.1-1.7,1.2-1.8,1.2-1.7,1.2-1.8,1.2-1.7,1.2-1.7,1.2-1.7,1.3-1.7,1.3-1.7,1.3-1.7,1.3-1.7,1.3-1.7,1.3-1.7,1.4-1.7,1.4-1.7,1.4-1.7,1.4-1.7,1.4-1.7,1.4-1.7,1.4L308,284l-1.6,1.5-1.6,1.5-1.6,1.5-1.6,1.5-1.6,1.5-1.6,1.5-1.6,1.5-1.6,1.6-1.6,1.6-1.5,1.6-1.5,1.6-1.5,1.6-1.5,1.6-1.5,1.6-1.5,1.6-1.5,1.7-1.5,1.7-1.4,1.7-1.4,1.7-1.4,1.7-1.4,1.7-1.4,1.7-1.4,1.7-1.4,1.7-1.3,1.7-1.3,1.7-1.3,1.7-1.3,1.7-1.3,1.7-1.3,1.7-1.2,1.7-1.2,1.7-1.2,1.7-1.2,1.8-1.2,1.8-1.1,1.7-1.1,1.8-1.1,1.8-1.1,1.8-1.1,1.8-1,1.7-1,1.8-1,1.7-1,1.7-1,1.7-.9,1.7-.9,1.7-.9,1.7-.9,1.7-.9,1.7-.9,1.7-.8,1.7-.8,1.7-.8,1.7-.8,1.7-.8,1.7-.7,1.7-.7,1.7-.7,1.6-.7,1.6-.7,1.6-.6,1.6-.6,1.6-.6,1.6-.6,1.6-.6,1.6-.5,1.6-.5,1.5-.5,1.5-.5,1.5-.5,1.5-.5,1.5-.4,1.5-.4,1.5-.4,1.4-.4,1.4-.4,1.4-.4,1.4-.3,1.4-.3,1.6-.3,1.4-.3,1.3-.3,1.3-.2,1.3-.2,1.3-.2,1.2-.2,1.2-.2,1.2-.2,1.2-.1,1.2-.1,1.1-.1,1.1-.1,1.1-.1,1.1-.1,1-.1,1v8.1l.1.8.1.8.1.7.1.7.1.7.1.7.1.6.1.6.1.6.1.5.1.5.2.5.1.5.2.4.2.4.2.4.2.3.2.3.2.3.2.3.2.2.2.2.2.2.2.1.2.1.2.1.2.1h.6l.2-.1.2-.1.2-.1.2-.1.2-.2.2-.2.2-.2.2-.3.2-.3.2-.3.2-.3.2-.4.2-.4.2-.4.1-.5.2-.5.1-.5.1-.6.1-.6.1-.6.1-.6.1-.7.1-.7.1-.7.1-.7.1-.8.1-.8v-8.1l-.1-1-.1-1-.1-1.1-.1-1.1-.1-1.1-.1-1.1-.1-1.2-.2-1.2-.2-1.2-.2-1.2-.2-1.2-.2-1.3-.2-1.3-.3-1.3-.3-1.3-.7-1.3-.3-1.4-.3-1.4-.4-1.4-.4-1.4-.4-1.4-.4-1.4-.4-1.5-.4-1.5-.5-1.5-.5-1.5-.5-1.5-.5-1.5-.5-1.5-.6-1.6-.6-1.6-.6-1.6-.6-1.6-.6-1.6-.6-1.6-.7-1.6-.7-1.6-.7-1.6-.7-1.7-.7-1.7-.8-1.7-.8-1.7-.8-1.7-.8-1.7-.8-1.7-.9-1.7-.9-1.7-.9-1.7-.9-1.7-.9-1.7-1-1.7-1-1.7-1-1.7-1-1.8-1-1.7-1-1.8-1.1-1.8-1.1-1.8-1.1-1.7-1.1-1.8-1.1-1.8-1.2-1.8-1.2-1.7-1.2-1.8-1.2-1.7-1.2-1.7-1.3-1.7-1.3-1.7-1.3-1.7-1.3-1.7-1.3-1.7-1.3-1.7-1.4-1.7-1.4-1.7-1.4-1.7-1.4-1.7-1.4-1.7-1.4-1.7-1.4-1.7-1.5-1.7-1.5-1.6-1.5-1.6-1.5-1.6-1.5-1.6-1.5-1.6-1.5-1.6-1.5-1.6-1.6-1.6-1.6-1.6-1.6-1.6-1.6-1.5-1.6-1.5-1.6-1.5-1.6-1.5-1.6-1.5-1.7-1.5-1.7-1.5-1.7-1.4-1.7-1.4-1.7-1.4-1.7-1.4-1.7-1.4-1.7-1.4-1.7-1.4-1.7-1.3-1.7-1.3-1.7-1.3-1.7-1.3-1.7-1.3-1.7-1.3-1.7-1.2-1.7-1.2-1.7-1.2-1.8-1.2-1.7-1.2-1.8-1.1-1.8-1.1-1.8-1.1-1.8-1.1-1.8-1.1-1.7-1.1-1.8-1-1.7-1-1.7-1-1.7-1-1.7-1-1.7-.9-1.7-.9-1.7-.9-1.7-.9-1.7-.9L84,242l-1.7-.8-1.7-.8-1.7-.8-1.7-.8-1.7-.8-1.7-.7-1.7-.7-1.6-.7-1.6-.7-1.6-.6-1.6-.6-1.6-.6-1.6-.6-1.6-.6-1.6-.5-1.6-.5-1.5-.5-1.5-.5-1.5-.5-1.5-.5-1.5-.4-1.5-.4-1.5-.4-1.4-.4-1.4-.4-1.4-.4-1.4-.3-1.4-.3-1.3-.3-1.3-.3-1.3-.3L35,225l-1.3-.2-1.2-.2-1.2-.2-1.2-.2-1.2-.2-1.2-.1-1.1-.3-1.1-.1-1.1-.1-1.1-.1-1.1-.1-1-.1-1-.1h-8l-.8.1-.7.1-.7.1-.7.1-.7.1-.6.1-.6.1-.6.1-.6.1-.5.1-.5.1-.5.1-.4.2-.4.2-.4.2-.3.2-.3.2-.3.2-.3.2-.2.2-.2.2-.2.2-.2.2-.1.2-.1.2-.1.2v.8l.1.2.1.2.1.2.2.2.2.2.2.2.3.2.3.2.3.2.3.2.4.2.4.2.4.2.5.1.5.2.5.1.5.1.6.1.6.1.6.1.6.1.7.1.7.1.7.1.8.1.8.1h8.2l1-.1,1-.1,1.1-.1,1.1-.1,1.1-.1,1.1-.1,1.2-.1,1.2-.2,1.2-.2,1.2-.2,1.2-.2,1.3-.2,1.3-.2,1.3-.3,1.3-.3,1.3-.3,1.4-.3,1.4-.3,1.4-.3,1.4-.4,1.4-.4,1.4-.4,1.5-.4,1.5-.4,1.5-.5,1.5-.5,1.5-.5,1.5-.5,1.5-.5,1.6-.5,1.6-.6,1.6-.6,1.6-.6,1.6-.6,1.6-.6,1.6-.7,1.6-.7,1.7-.7,1.7-.7,1.7-.7,1.7-.8,1.7-.8,1.7-.8,1.7-.8,1.7-.8,1.7-.9,1.7-.9,1.7-.9,1.7-.9,1.7-.9,1.7-.9,1.7-1,1.7-1,1.8-1,1.7-1,1.8-1,1.7-1.1,1.8-1.1,1.8-1.1,1.8-1.1,1.8-1.1,1.8-1.2,1.7-1.2,1.8-1.2,1.7-1.2,1.7-1.2,1.7-1.2,1.7-1.3,1.7-1.3,1.7-1.3,1.7-1.3,1.7-1.3,1.7-1.3,1.7-1.4,1.7-1.4,1.7-1.4,1.7-1.4,1.7-1.4,1.7-1.4,1.7-1.4,1.7-1.5,1.6-1.5,1.6-1.5,1.6-1.5,1.6-1.5,1.6-1.5,1.6-1.5,1.6-1.6,1.6-1.6,1.6-1.6,1.5-1.6,1.5-1.6,1.5-1.6,1.5-1.6,1.5-1.6,1.5-1.6,1.5-1.6,1.5-1.7,1.4-1.7,1.4-1.7,1.4-1.7,1.4-1.7,1.4-1.7,1.4-1.7,1.3-1.7,1.3-1.7,1.3-1.7,1.3-1.7,1.3-1.7,1.3-1.7,1.3-1.7,1.2-1.7,1.2-1.7,1.2-1.8,1.2-1.7,1.2-1.8,1.1-1.8,1.1-1.8,1.1-1.8,1.1-1.7,1.1-1.8,1-1.8,1-1.7,1-1.7,1-1.7,1-1.7,1-1.7.9-1.7.9-1.7.9-1.7.9-1.7.8-1.7.8-1.7.8-1.7.8-1.7.8-1.7.8-1.7.7-1.7.7-1.7.7-1.6.7-1.6.7-1.6.6-1.6.6-1.6.6-1.6.6-1.6.6-1.6.5-1.6.5-1.5.5-1.5.5-1.5.5-1.5.4-1.5.4-1.5.4-1.5.4-1.4.4-1.4.4-1.4.3-1.4.3-1.4.3-1.4.3-1.3.3-1.3.3-1.3.2-1.3.2-1.3.2-1.2.2-1.2.2-1.2.2-1.2.1-1.2.1-1.1.1-1.1.1-1.1.1-1.1.1-1,.1-1V13l-.1-.8-.1-.7-.1-.7-.1-.7-.1-.7-.1-.6-.1-.6-.1-.6L231,7l-.1-.5-.1-.5-.2-.5-.2-.4-.2-.4-.2-.4-.2-.4-.2-.3-.2-.3-.2-.3-.2-.3-.2-.2-.2-.2-.2-.2-.2-.1-.2-.1-.2-.1H227l-.2.1-.2.1-.2.1-.2.1-.2.2-.2.2-.2.2-.2.3-.2.3-.2.3-.2.3-.2.4-.2.4-.2.4-.2.5-.1.5-.1.5-.1.5-.1.6-.1.6-.1.6-.1.7-.1.7-.1.7-.1.7-.1.8v8l.1,1,.1,1,.1,1.1.1,1.1.1,1.1.1,1.1.1,1.1.2,1.2.2,1.2.2,1.2.2,1.2.2,1.3.2,1.3.3,1.3.3,1.3.3,1.3.3,1.3.3,1.4.3,1.4.4,1.4.4,1.4.4,1.4.4,1.4.4,1.5.4,1.5.5,1.5.5,1.5.5,1.5.5,1.5.5,1.6.6,1.6.6,1.6.6,1.6.6,1.6.6,1.6.7,1.6.7,1.6.7,1.6.7,1.7.7,1.7.8,1.7.8,1.7.8,1.7.8,1.7.8,1.7.8,1.7.9,1.7.9,1.7.9,1.7.9,1.7,1,1.7,1,1.7,1,1.7,1,1.8,1,1.7,1,1.8,1.1,1.7,1.1,1.8,1.1,1.8,1.1,1.8,1.1,1.8,1.2,1.7,1.2,1.8,1.2,1.8,1.2,1.7,1.2,1.7,1.2,1.7,1.3,1.7,1.3,1.7,1.3,1.7,1.3,1.7,1.3,1.7,1.3,1.7,1.4,1.7,1.4,1.7,1.4,1.7,1.4,1.7,1.4,1.7,1.4,1.7,1.4,1.7,1.5,1.7,1.5,1.6,1.5,1.6,1.5,1.6,1.5,1.6,1.5,1.6,1.5,1.6,1.5,1.6,1.6,1.6,1.6,1.6,1.6,1.6,1.6,1.5,1.6,1.5,1.6,1.5,1.6,1.5,1.6,1.5,1.7,1.5,1.7,1.5,1.7,1.4,1.7,1.4,1.7,1.4,1.7,1.4,1.7,1.4,1.7,1.4,1.7,1.4,1.7,1.3,1.7,1.3,1.7,1.3,1.7,1.3,1.7,1.3,1.7,1.3,1.7,1.2,1.7,1.2,1.7,1.2,1.8,1.2,1.8,1.2,1.8,1.1,1.7,1.1,1.8,1.1,1.8,1.1,1.8,1.1,1.8,1,1.7,1,1.7,1,1.7,1,1.7,1,1.7,1,1.7.9,1.7.9,1.7.9,1.7.9,1.7.9,1.7.8,1.7.8,1.7.8,1.7.8,1.7.8,1.7.7,1.7.7,1.7.7,1.6.7,1.6.7,1.6.6,1.6.6,1.6.6,1.6.6,1.6.6,1.6.5,1.5.5,1.5.5,1.5.5,1.5.5,1.5.5,1.5.4,1.5.4,1.5.4,1.4.4,1.4.4,1.4.4,1.4.3,1.4.3,1.3.3,1.3.3,1.3.3,1.3.3,1.3.2,1.3.2,1.2.2,1.2.2,1.2.2,1.2.2,1.2.1,1.1.1,1.1.1,1.1.1,1.1.1,1,.1,1,.1h8l.8-.1.7-.1.7-.1.7-.1.7-.1.6-.1.6-.1.6-.1.5-.1.5-.1.5-.1.5-.1.4-.2.4-.2.4-.2.3-.2.3-.2.3-.2.3-.2.2-.2.2-.2.2-.2.1-.2.1-.2.1-.2.1-.2v-.2"/></g></g></svg>