<?xml version="1.0" encoding="utf-8"?>
<!-- Generator: Adobe Illustrator 23.0.6, SVG Export Plug-In . SVG Version: 6.00 Build 0)  -->
<svg version="1.1" id="Layer_1" xmlns="http://www.w3.org/2000/svg" xmlns:xlink="http://www.w3.org/1999/xlink" x="0px" y="0px"
	 viewBox="0 0 377 377" style="enable-background:new 0 0 377 377;" xml:space="preserve">
<style type="text/css">
	.st0{fill:none;stroke:#FFFFFF;stroke-width:0.1821;stroke-linecap:square;}
</style>
<g id="two-2716" transform="matrix(1 0 0 1 0 0)">
	<path id="two-2727" class="st0" d="M-432-23.6h188.5"/>
	<path id="two-2728" class="st0" d="M-243.5-17.4v-6.3"/>
	<path id="two-2729" class="st0" d="M-432-17.4h125.7"/>
	<path id="two-2730" class="st0" d="M-306.3-13.2v-4.2"/>
	<path id="two-2731" class="st0" d="M-432-13.2h251.3"/>
	<path id="two-2732" class="st0" d="M-180.7-11.1v-2.1"/>
	<path id="two-2733" class="st0" d="M-306.3-17.4H-55"/>
	<path id="two-2734" class="st0" d="M-55-15.3v-2.1"/>
	<path id="two-2735" class="st0" d="M-306.3-15.3h188.5"/>
	<path id="two-2736" class="st0" d="M-117.8-13.2v-2.1"/>
	<path id="two-2737" class="st0" d="M-243.5-23.6h62.8"/>
	<path id="two-2738" class="st0" d="M-180.7-21.5v-2.1"/>
	<path id="two-2739" class="st0" d="M-243.5-21.5h62.8"/>
	<path id="two-2740" class="st0" d="M-180.7-17.4v-4.2"/>
	<path id="two-2741" class="st0" d="M-180.7-23.6H-55"/>
	<path id="two-2742" class="st0" d="M-55-17.4v-6.3"/>
	<path id="two-2743" class="st0" d="M-180.7-13.2h62.8"/>
	<path id="two-2744" class="st0" d="M-117.8-11.1v-2.1"/>
	<path id="two-2745" class="st0" d="M-117.8-15.3H-55"/>
	<path id="two-2746" class="st0" d="M-55-11.1v-4.2"/>
</g>
</svg>
