<?xml version="1.0" encoding="utf-8"?>
<!-- Generator: Adobe Illustrator 23.0.6, SVG Export Plug-In . SVG Version: 6.00 Build 0)  -->
<svg version="1.1" id="Layer_1" xmlns="http://www.w3.org/2000/svg" xmlns:xlink="http://www.w3.org/1999/xlink" x="0px" y="0px"
	 viewBox="0 0 109.1 104" style="enable-background:new 0 0 109.1 104;" xml:space="preserve">
<style type="text/css">
	.st0{fill:#FFFFFF;}
</style>
<title>Asset 150</title>
<g>
	<g id="_Layer_">
		<path class="st0" d="M37.6,9.3h2.8c9.4,0,17.9,4.7,19.3,11.2L62.5,35h4l-3.3-14.5c-1.8-7.6-12-13.1-22.9-13.1h-2.7
			c-11,0-20.8,5.5-22.1,13.1l-0.1,0.4H19l0.1-0.4C19.9,14.1,28.2,9.3,37.6,9.3z"/>
		<path class="st0" d="M37.8,12.2h2.9c7,0,13.2,3.6,14,8.3l0.9,5.7h3.8l-1.1-5.7c-1.1-6-9-10.3-17.7-10.3h-2.8
			c-8.7,0-16.3,4.4-17,10.3h3.6C24.9,15.8,30.9,12.2,37.8,12.2z"/>
		<path class="st0" d="M37.5,6.6h2.7c11.6,0,22.5,5.8,24.5,13.9L77,70.1h5.1L68.3,20.5c-2.6-9.2-15-15.7-28.2-15.7h-2.7
			c-13.2,0-25.2,6.5-27.2,15.7h3.6C15.4,12.4,25.9,6.6,37.5,6.6z"/>
		<path class="st0" d="M37.4,1.6H40c15.7,0,30.8,7.5,34.8,18.4L103,104h6.2L78.4,20.1l0,0C73.7,8,57,0,39.9,0h-2.5
			C20.2,0,3.8,8.2,0,20.5h3.6C6.7,9.3,21.6,1.6,37.4,1.6z"/>
		<path class="st0" d="M37.5,4.1h2.7c13.8,0,26.9,6.8,29.8,16.5l11.3,38.8H86L73.5,20.5C70,9.7,55.3,2.4,40,2.4h-2.6
			C22.2,2.4,8,9.7,5.1,20.5h3.6C11,10.8,23.7,4.1,37.5,4.1z"/>
	</g>
</g>
</svg>
