<?xml version="1.0" encoding="utf-8"?>
<!-- Generator: Adobe Illustrator 23.0.6, SVG Export Plug-In . SVG Version: 6.00 Build 0)  -->
<svg version="1.1" id="Layer_1" xmlns="http://www.w3.org/2000/svg" xmlns:xlink="http://www.w3.org/1999/xlink" x="0px" y="0px"
	 viewBox="0 0 187.4 83.9" style="enable-background:new 0 0 187.4 83.9;" xml:space="preserve">
<style type="text/css">
	.st0{fill:#FFFFFF;}
</style>
<g id="Layer_2_00000172409384829079903480000017011126609428935589_">
	<g id="_Layer_">
		<path class="st0" d="M4,21.4c-0.8,0.8-0.1,2.9,0.3,4.2c0,0.2,0.1,0.3,0.1,0.4c1.2,3.4,2.8,6.7,4.8,9.7
			c4.3,7.1,11.3,16.4,20.7,20.1c3.4,1.4,7,2.1,10.7,2.1c5.5-0.1,10.9-1.4,15.8-3.8c8.2-3.7,15.7-9.6,22.7-15.4
			c11.2-9.3,32.9-23.9,53-17.1c9.6,3.3,18.5,11.1,24.3,17.1c3.7,3.9,7.2,8,10.3,12.3l0.1-0.1c-3.2-4.4-6.6-8.5-10.4-12.3
			c-5.8-6-14.7-13.8-24.3-17.1c-8.4-2.9-17.9-2.3-28.2,1.7c-8.1,3.2-16.5,8.3-24.9,15.4S56.2,57.8,40.6,57.8c-3.6,0-7.2-0.7-10.6-2
			c-9.4-3.7-16.4-13-20.6-20.1c-1.9-3-3.6-6.3-4.8-9.7c0-0.1-0.1-0.3-0.1-0.4C4.1,24.4,3.4,22.2,4,21.4L4,21.4z"/>
		<path class="st0" d="M3.3,21.5C2,23,3.2,27.9,6.7,35.2c3.1,6.6,7,12.8,11.6,18.4c8,9.4,22.1,17.1,35.2,19.3c1.5,0.2,3,0.4,4.6,0.4
			c8.6,0,16-4.1,23.9-9c3.8-2.5,7.4-5.2,10.8-8.2c3.6-3.2,7.5-6.1,11.7-8.7l1.8-1.1C113.7,41.8,125,35,138.6,35l0,0
			c12.5,0,22.9,10.6,26.8,14.6c0.7,0.7,1.2,1.2,1.4,1.4l0.1-0.1c-0.3-0.2-0.8-0.7-1.4-1.4c-3.9-4-14.3-14.6-26.9-14.6l0,0
			c-13.6,0-24.9,6.8-32.4,11.3l-1.8,1.1c-4.1,2.6-8,5.5-11.7,8.7c-3.4,3-7,5.7-10.7,8.2c-9.3,5.7-17.8,10.3-28.5,8.6
			c-13.1-2.1-27.2-9.9-35.2-19.2C10.3,44,0.6,24.6,3.3,21.5L3.3,21.5z"/>
		<path class="st0" d="M42.6,38.9c7.3-0.8,14.4-3,20.9-6.4c5.7-3,11.2-6.5,16.4-10.3c5.2-3.6,10-7,14.7-8.8l3.2-1.3
			c6.6-2.7,12.8-5.2,20.1-4.5c11.1,1,22.4,6.9,31,16.2c5.3,5.6,8.8,11.5,12.1,17.6c0.2,0.3,0.5,0.9,0.9,1.7c1.9,3.8,3.8,7.5,4.9,7.5
			l0,0v-0.1l0,0c-1.1,0-3.5-4.8-4.8-7.4c-0.4-0.8-0.7-1.3-0.9-1.7c-3.4-6.1-6.9-12-12.2-17.7c-8.7-9.2-20-15.1-31.1-16.2
			c-7.4-0.7-13.6,1.8-20.2,4.5c-1.1,0.4-2.2,0.9-3.3,1.3C89.8,15,85,18.4,79.8,22c-10.1,7-21.5,15-37.2,16.7
			c-10.4,1.1-19.8-0.8-27.9-5.8C9.8,30,5.7,26,2.6,21.2l-0.1,0.1C5.6,26,9.7,30,14.6,33C22.8,38,32.2,40,42.6,38.9z"/>
		
			<rect x="33.5" y="8.1" transform="matrix(0.6406 -0.7678 0.7678 0.6406 -24.9092 43.1541)" class="st0" width="0.3" height="80.1"/>
		<polygon class="st0" points="104.3,9 64.3,73.7 64.6,73.9 104.6,9.2 		"/>
		<polygon class="st0" points="165.7,50.7 104.6,8.9 104.4,9.2 165.5,51 		"/>
		<rect x="113.2" y="50.6" class="st0" width="52.4" height="0.3"/>
		
			<rect x="95.1" y="11.1" transform="matrix(0.6613 -0.7501 0.7501 0.6613 5.9879 83.3195)" class="st0" width="0.3" height="47.8"/>
		
			<rect x="53.9" y="31.8" transform="matrix(0.5417 -0.8406 0.8406 0.5417 4.7567 72.7924)" class="st0" width="30.4" height="0.4"/>
		<polygon class="st0" points="61,44.6 60.8,44.9 84.9,67 85.1,66.7 		"/>
		<path class="st0" d="M5.9,22.5c0-1.6-1.3-2.9-2.9-2.9s-2.9,1.3-2.9,2.9s1.3,2.9,2.9,2.9S5.9,24.1,5.9,22.5L5.9,22.5z M0.6,22.5
			c0-1.3,1.1-2.4,2.4-2.4s2.4,1.1,2.4,2.4S4.3,24.9,3,24.9l0,0C1.6,24.9,0.6,23.8,0.6,22.5L0.6,22.5z"/>
		<path class="st0" d="M4.2,17.8c0-0.3-0.2-0.5-0.5-0.5s-0.5,0.2-0.5,0.5s0.2,0.5,0.5,0.5C4,18.4,4.2,18.1,4.2,17.8z"/>
		<path class="st0" d="M65.4,78.9c0-0.3-0.2-0.5-0.5-0.5l0,0c-0.3,0-0.5,0.2-0.5,0.5s0.2,0.5,0.5,0.5S65.4,79.2,65.4,78.9L65.4,78.9
			z"/>
		<path class="st0" d="M58.3,45.6c0-0.2-0.1-0.3-0.3-0.3s-0.3,0.1-0.3,0.3s0.1,0.3,0.3,0.3S58.3,45.8,58.3,45.6z"/>
		<path class="st0" d="M86.2,69.7c0-0.2-0.1-0.3-0.3-0.3c-0.2,0-0.3,0.2-0.3,0.4c0,0.1,0.1,0.2,0.3,0.3C86,70.1,86.2,69.9,86.2,69.7
			z"/>
		<path class="st0" d="M113.5,53.6c0-0.2-0.1-0.3-0.3-0.3s-0.3,0.1-0.3,0.3s0.1,0.3,0.3,0.3l0,0C113.4,53.9,113.5,53.7,113.5,53.6z"
			/>
		<path class="st0" d="M76.4,16.5c0-0.2-0.1-0.3-0.3-0.3c-0.2,0-0.3,0.1-0.3,0.3c0,0.2,0.1,0.3,0.3,0.3S76.4,16.7,76.4,16.5z"/>
		<path class="st0" d="M105,4.4c0-0.3-0.2-0.5-0.5-0.5S104,4.1,104,4.4s0.2,0.5,0.5,0.5S105,4.7,105,4.4L105,4.4z"/>
		<path class="st0" d="M171.4,52.9c0-0.3-0.3-0.5-0.6-0.5s-0.5,0.2-0.5,0.6c0,0.3,0.2,0.5,0.6,0.5C171.2,53.5,171.4,53.2,171.4,52.9
			L171.4,52.9z"/>
		<path class="st0" d="M67.4,73.8c0-1.6-1.3-2.9-2.9-2.9s-2.9,1.3-2.9,2.9s1.3,2.9,2.9,2.9l0,0C66.1,76.7,67.4,75.4,67.4,73.8z
			 M62.1,73.8c0-1.3,1.1-2.4,2.4-2.4s2.4,1.1,2.4,2.4s-1.1,2.4-2.4,2.4l0,0C63.1,76.2,62.1,75.1,62.1,73.8z"/>
		<path class="st0" d="M107.4,9.1c0-1.6-1.3-2.9-2.9-3c-1.6,0-2.9,1.3-3,2.9c0,1.6,1.3,2.9,2.9,3l0,0C106.1,12,107.4,10.7,107.4,9.1
			z M102.1,9.1c0-1.3,1.1-2.4,2.4-2.4s2.4,1.1,2.4,2.4s-1.1,2.4-2.4,2.4C103.2,11.4,102.1,10.4,102.1,9.1z"/>
		<path class="st0" d="M168.6,50.8c0-1.6-1.3-2.9-2.9-2.9c-1.6,0-2.9,1.3-2.9,2.9s1.3,2.9,2.9,2.9l0,0
			C167.2,53.7,168.5,52.4,168.6,50.8z M163.3,50.8c0-1.3,1.1-2.4,2.4-2.4c1.3,0,2.4,1.1,2.4,2.4c0,1.3-1.1,2.4-2.4,2.4l0,0
			C164.3,53.2,163.3,52.1,163.3,50.8L163.3,50.8z"/>
		<path class="st0" d="M86.8,66.8c0-1-0.8-1.8-1.8-1.8s-1.8,0.8-1.8,1.8s0.8,1.8,1.8,1.8l0,0C86,68.7,86.8,67.9,86.8,66.8z
			 M83.5,66.8c0-0.8,0.7-1.5,1.5-1.5s1.5,0.7,1.5,1.5s-0.7,1.5-1.5,1.5S83.5,67.7,83.5,66.8C83.5,66.9,83.5,66.9,83.5,66.8z"/>
		<path class="st0" d="M62.7,44.8c0-1-0.8-1.8-1.8-1.8s-1.8,0.8-1.8,1.8s0.8,1.8,1.8,1.8l0,0C61.9,46.6,62.7,45.8,62.7,44.8z
			 M59.4,44.8c0-0.8,0.7-1.5,1.5-1.5s1.5,0.7,1.5,1.5s-0.7,1.5-1.5,1.5S59.4,45.6,59.4,44.8L59.4,44.8z"/>
		<path class="st0" d="M79.2,19.2c0-1-0.8-1.8-1.8-1.8s-1.8,0.8-1.8,1.8s0.8,1.8,1.8,1.8l0,0C78.4,21,79.2,20.2,79.2,19.2z
			 M75.9,19.2c0-0.8,0.7-1.5,1.5-1.5s1.5,0.7,1.5,1.5s-0.7,1.5-1.5,1.5S75.9,20,75.9,19.2z"/>
		<path class="st0" d="M115,50.8c0-1-0.8-1.8-1.8-1.8s-1.8,0.8-1.8,1.8s0.8,1.8,1.8,1.8l0,0C114.2,52.6,115,51.8,115,50.8z
			 M111.7,50.8c0-0.8,0.7-1.5,1.5-1.5s1.5,0.7,1.5,1.5s-0.7,1.5-1.5,1.5C112.4,52.3,111.7,51.6,111.7,50.8L111.7,50.8z"/>
		<path class="st0" d="M62.8,83.9v-2h-0.2c0,0.3-0.3,0.4-0.6,0.4v0.2h0.5V84L62.8,83.9z"/>
		<path class="st0" d="M65.2,82.9c0-0.5,0-1-0.7-1s-0.7,0.6-0.7,1s0,1,0.7,1C65.2,83.9,65.2,83.3,65.2,82.9z M64.1,82.9
			c0-0.3,0-0.8,0.4-0.8s0.4,0.5,0.4,0.8s0,0.8-0.4,0.8S64.1,83.2,64.1,82.9L64.1,82.9z"/>
		<path class="st0" d="M66.4,82.6c0.2,0,0.3,0.1,0.4,0.3h0.3c0-0.3-0.3-0.6-0.6-0.5l0,0c-0.5,0-0.7,0.3-0.7,0.8
			c0,0.4,0.2,0.7,0.6,0.8h0.1c0.3,0,0.6-0.2,0.7-0.6h-0.3c0,0.2-0.2,0.4-0.4,0.4c-0.3,0-0.4-0.3-0.4-0.6S66.1,82.6,66.4,82.6z"/>
		<path class="st0" d="M67.6,82.4v1.5h0.3V83c0-0.2,0.2-0.4,0.4-0.4c0.2,0,0.3,0.1,0.3,0.3v1h0.2v-1c0-0.2,0.1-0.4,0.3-0.4
			c0,0,0,0,0.1,0c0.3,0,0.3,0.2,0.3,0.3v1h0.2v-1.1c0-0.3-0.2-0.4-0.5-0.4c-0.2,0-0.4,0.1-0.5,0.3c-0.1-0.2-0.2-0.3-0.4-0.3
			c-0.2,0-0.4,0.1-0.5,0.3l0,0v-0.2L67.6,82.4z"/>
		<path class="st0" d="M71.7,82.9c0-0.5,0-1-0.7-1s-0.7,0.6-0.7,1s0,1,0.7,1S71.7,83.3,71.7,82.9z M70.6,82.9c0-0.3,0-0.8,0.4-0.8
			s0.4,0.5,0.4,0.8s0,0.8-0.4,0.8S70.6,83.2,70.6,82.9L70.6,82.9z"/>
		<path class="st0" d="M73.1,83.9v-2H73c-0.1,0.3-0.3,0.4-0.6,0.4v0.2h0.5V84L73.1,83.9z"/>
		<path class="st0" d="M1.1,14.4c0.2,0,0.3,0.1,0.3,0.3l0,0h0.3c0-0.3-0.2-0.5-0.5-0.5l0,0c-0.6,0-0.8,0.5-0.8,1.1s0.1,1,0.7,1
			c0.4,0,0.7-0.2,0.7-0.6v-0.1c0-0.3-0.2-0.6-0.6-0.7c0,0,0,0-0.1,0c-0.2,0-0.4,0.1-0.5,0.3l0,0C0.6,14.8,0.7,14.4,1.1,14.4z
			 M1.1,15.1c0.3,0,0.5,0.2,0.5,0.5S1.4,16,1.1,16c-0.2,0-0.4-0.2-0.4-0.4l0,0C0.7,15.3,0.9,15.1,1.1,15.1L1.1,15.1L1.1,15.1z"/>
		<path class="st0" d="M3,16c-0.2,0-0.4-0.2-0.4-0.4H2.3c0,0.3,0.3,0.6,0.6,0.6c0,0,0,0,0.1,0c0.4,0,0.7-0.2,0.7-0.6c0,0,0,0,0-0.1
			c0-0.4-0.2-0.7-0.6-0.7H3c-0.1,0-0.3,0.1-0.4,0.1l0,0l0.1-0.6h0.8v-0.2h-1l-0.2,1.1h0.2C2.6,15.1,2.7,15,2.9,15s0.5,0.2,0.5,0.4
			c0,0,0,0,0,0.1C3.5,15.7,3.3,16,3,16L3,16z"/>
		<path class="st0" d="M4.9,14.9c0.2,0,0.3,0.1,0.4,0.3h0.3c0-0.3-0.3-0.5-0.6-0.5l0,0c-0.4,0-0.7,0.3-0.7,0.7v0.1
			c0,0.4,0.2,0.7,0.6,0.8H5c0.3,0,0.6-0.2,0.7-0.6l0,0H5.3c0,0.2-0.2,0.4-0.4,0.4c-0.3,0-0.4-0.3-0.4-0.5S4.6,14.9,4.9,14.9z"/>
		<polygon class="st0" points="6.3,16.2 6.7,15.6 7.1,16.2 7.4,16.2 6.8,15.4 7.3,14.7 7,14.7 6.7,15.2 6.3,14.7 6,14.7 6.5,15.4 
			6,16.2 		"/>
		<path class="st0" d="M8.5,16c-0.2,0-0.4-0.2-0.4-0.4c0,0,0,0,0-0.1H7.8c0,0.3,0.2,0.6,0.6,0.7h0.1c0.4,0,0.7-0.2,0.7-0.6
			c0,0,0,0,0-0.1c0-0.2-0.1-0.4-0.4-0.5l0,0c0.2,0,0.3-0.1,0.3-0.3c0-0.4-0.3-0.6-0.6-0.6s-0.6,0.3-0.6,0.6c0,0,0,0,0,0.1h0.3
			c0-0.2,0.1-0.4,0.4-0.4c0.2,0,0.3,0.1,0.4,0.3l0,0C9,14.9,8.8,15,8.6,15H8.4v0.2h0.1c0.2,0,0.4,0.1,0.4,0.4l0,0
			C8.9,15.8,8.7,16,8.5,16L8.5,16z"/>
		<path class="st0" d="M11.1,15.2c0-0.4,0-1-0.7-1s-0.7,0.6-0.7,1s0,1,0.7,1S11.1,15.6,11.1,15.2z M10,15.2c0-0.3,0-0.8,0.4-0.8
			s0.4,0.5,0.4,0.8s0,0.8-0.4,0.8S10,15.5,10,15.2z"/>
		<path class="st0" d="M12.6,16.2v-2h-0.2c-0.1,0.3-0.3,0.4-0.6,0.4v0.2h0.5v1.5L12.6,16.2L12.6,16.2z"/>
		<path class="st0" d="M173.9,54.5c-0.2,0-0.4-0.1-0.4-0.3h-0.2c0,0.3,0.3,0.5,0.6,0.5l0,0c0.5,0,0.7-0.4,0.7-1.1s-0.3-1-0.7-1
			s-0.7,0.3-0.7,0.6c0,0,0,0,0,0.1c0,0.3,0.2,0.6,0.5,0.7h0.1c0.2,0,0.4-0.1,0.5-0.3l0,0C174.4,54.3,174.2,54.5,173.9,54.5z
			 M173.9,53.8c-0.2,0-0.4-0.2-0.4-0.4c0-0.3,0.1-0.5,0.4-0.5c0.2,0,0.4,0.2,0.4,0.4l0,0C174.3,53.6,174.2,53.8,173.9,53.8
			L173.9,53.8z"/>
		<path class="st0" d="M175.8,54.5c-0.2,0-0.3-0.1-0.4-0.3l0,0h-0.3c0,0.3,0.3,0.5,0.6,0.5l0,0c0.5,0,0.7-0.4,0.7-1.1s-0.3-1-0.7-1
			s-0.7,0.3-0.7,0.6c0,0,0,0,0,0.1c0,0.3,0.2,0.6,0.5,0.7h0.1c0.2,0,0.4-0.1,0.5-0.3l0,0C176.3,54.3,176.1,54.5,175.8,54.5z
			 M175.8,53.8c-0.2,0-0.4-0.2-0.4-0.4l0,0c0-0.3,0.1-0.5,0.4-0.5c0.2,0,0.4,0.2,0.4,0.4l0,0C176.2,53.6,176.1,53.8,175.8,53.8
			L175.8,53.8z"/>
		<path class="st0" d="M177.8,52.9c0.2,0,0.3,0.1,0.4,0.3h0.2c0-0.3-0.2-0.5-0.5-0.5l0,0c-0.6,0-0.8,0.5-0.8,1.1s0.1,1,0.7,1
			c0.4,0,0.7-0.3,0.7-0.6c0,0,0,0,0-0.1c0-0.3-0.2-0.6-0.6-0.7c0,0,0,0-0.1,0c-0.2,0-0.4,0.1-0.5,0.3l0,0
			C177.3,53.4,177.4,52.9,177.8,52.9z M177.8,53.6c0.2,0,0.4,0.2,0.4,0.4c0,0,0,0,0,0.1c0,0.2-0.1,0.4-0.4,0.5l0,0
			c-0.2,0-0.4-0.2-0.4-0.4c0,0,0,0,0-0.1C177.3,53.9,177.5,53.7,177.8,53.6C177.7,53.6,177.8,53.6,177.8,53.6L177.8,53.6z"/>
		<polygon class="st0" points="178.9,54.7 180.2,54.7 180.2,54.5 179.2,54.5 180.1,53.4 180.1,53.2 179,53.2 179,53.4 179.8,53.4 
			178.9,54.5 		"/>
		<path class="st0" d="M181.3,54.5c-0.2,0-0.4-0.1-0.4-0.3h-0.2c0,0.4,0.3,0.5,0.6,0.5s0.6-0.1,0.6-0.5s-0.2-0.4-0.5-0.4
			s-0.5-0.1-0.5-0.3s0.2-0.2,0.3-0.2s0.3,0.1,0.3,0.3h0.3c0-0.4-0.3-0.5-0.6-0.5s-0.6,0.1-0.6,0.4s0.3,0.4,0.5,0.4s0.5,0.1,0.5,0.3
			S181.4,54.5,181.3,54.5z"/>
		<path class="st0" d="M183.3,54.7v-2h-0.2c-0.1,0.3-0.3,0.4-0.6,0.4v0.2h0.5v1.5L183.3,54.7z"/>
		<polygon class="st0" points="184.5,54.7 184.9,54.1 185.3,54.7 185.6,54.7 185.1,53.9 185.6,53.2 185.3,53.2 184.9,53.8 
			184.5,53.2 184.2,53.2 184.8,53.9 184.2,54.7 		"/>
		<path class="st0" d="M186.8,52.9c0.2,0,0.3,0.1,0.4,0.3h0.2c0-0.3-0.2-0.5-0.5-0.5l0,0c-0.6,0-0.8,0.5-0.8,1.1s0.1,1,0.7,1
			c0.4,0,0.7-0.2,0.7-0.6v-0.1c0-0.3-0.2-0.6-0.5-0.7h-0.1c-0.2,0-0.4,0.1-0.5,0.3l0,0C186.3,53.4,186.4,52.9,186.8,52.9z
			 M186.8,53.6c0.2,0,0.4,0.2,0.4,0.4c0,0,0,0,0,0.1c0,0.2-0.1,0.4-0.4,0.5l0,0c-0.3,0-0.5-0.2-0.5-0.5S186.5,53.6,186.8,53.6z"/>
		<path class="st0" d="M95.9,1.2c-0.3,0.2-0.6,0.5-0.6,0.8h1.3V1.8h-1.1c0-0.3,0.3-0.4,0.6-0.5c0.3-0.1,0.5-0.4,0.5-0.7S96.4,0,96,0
			c0,0,0,0-0.1,0c-0.4,0-0.7,0.3-0.7,0.6v0.1h0.3c0-0.3,0.1-0.5,0.4-0.5c0.2,0,0.4,0.1,0.4,0.3l0,0C96.4,0.9,96.3,1,95.9,1.2z"/>
		<path class="st0" d="M98,1.9c-0.2,0-0.4-0.2-0.4-0.4c0,0,0,0,0-0.1h-0.3c0,0.4,0.4,0.7,0.8,0.6c0.3,0,0.6-0.3,0.6-0.6
			c0-0.2-0.2-0.4-0.4-0.4l0,0c0.2-0.1,0.3-0.2,0.3-0.4C98.6,0.2,98.3,0,98,0s-0.6,0.2-0.6,0.6v0.1h0.3c0-0.2,0.1-0.4,0.4-0.4
			c0.2,0,0.3,0.1,0.4,0.3c0,0,0,0,0,0.1c0,0.2-0.2,0.3-0.4,0.3l0,0H98v0.2h0c0.2,0,0.4,0.1,0.5,0.3S98.4,1.9,98.2,2
			C98.1,1.9,98,1.9,98,1.9L98,1.9z"/>
		<path class="st0" d="M99.7,1.2c-0.3,0-0.5,0.1-0.5,0.5s0.2,0.4,0.5,0.4c0.2,0,0.4-0.1,0.5-0.2c0,0.2,0.1,0.2,0.2,0.2h0.2V1.9h-0.1
			c-0.1,0-0.1,0-0.1-0.2V0.9c0-0.3-0.3-0.4-0.6-0.4S99.3,0.6,99.2,1h0.3c0-0.2,0.2-0.3,0.4-0.3s0.3,0,0.3,0.3S100,1.2,99.7,1.2z
			 M100.2,1.5c0,0.1-0.1,0.3-0.5,0.3c-0.2,0-0.3-0.1-0.3-0.2s0.1-0.2,0.3-0.3c0.2,0,0.3,0,0.4-0.1L100.2,1.5L100.2,1.5z"/>
		<path class="st0" d="M101.8,0.7c0.2,0,0.3,0.1,0.4,0.3h0.3c0-0.3-0.3-0.6-0.6-0.5l0,0c-0.4,0-0.7,0.3-0.7,0.7v0.1
			c0,0.4,0.2,0.7,0.6,0.8h0.1c0.3,0,0.6-0.2,0.7-0.6h-0.3c0,0.2-0.2,0.4-0.4,0.4l0,0c-0.3,0-0.4-0.3-0.4-0.5S101.4,0.7,101.8,0.7z"
			/>
		<path class="st0" d="M103.6,1.9c-0.2,0-0.4-0.2-0.4-0.4c0,0,0,0,0-0.1h-0.3c0,0.4,0.4,0.7,0.8,0.6c0.3,0,0.6-0.3,0.6-0.6
			c0-0.2-0.1-0.4-0.4-0.5l0,0c0.2-0.1,0.3-0.2,0.3-0.4c0-0.4-0.3-0.6-0.6-0.6c-0.3,0-0.6,0.2-0.6,0.6v0.1h0.2c0-0.2,0.1-0.4,0.4-0.4
			c0.2,0,0.3,0.1,0.4,0.3l0,0c0,0.2-0.2,0.4-0.4,0.3l0,0h-0.1V1h0.2c0.2,0,0.4,0.1,0.4,0.3c0,0,0,0,0,0.1
			C104,1.7,103.8,1.9,103.6,1.9L103.6,1.9z"/>
		<path class="st0" d="M105.7,2V0h-0.2c0,0.3-0.3,0.4-0.6,0.4v0.2h0.5V2H105.7z"/>
		<path class="st0" d="M107.6,2V0h-0.2c-0.1,0.3-0.3,0.4-0.6,0.4v0.2h0.5V2H107.6z"/>
		<path class="st0" d="M108.6,1.5c0,0.4,0.3,0.7,0.7,0.7c0.4,0,0.7-0.3,0.7-0.7c0-0.2-0.1-0.4-0.4-0.5c0.2-0.1,0.3-0.2,0.3-0.4
			c0-0.3-0.2-0.5-0.6-0.5c-0.3,0-0.6,0.2-0.6,0.5l0,0c0,0.2,0.1,0.4,0.3,0.5C108.8,1,108.6,1.2,108.6,1.5z M108.9,0.5
			c0-0.2,0.1-0.3,0.3-0.3l0,0c0.2,0,0.3,0.1,0.3,0.3c0,0,0,0,0,0.1c0,0.2-0.1,0.3-0.3,0.3l0,0C109.1,0.9,108.9,0.8,108.9,0.5z
			 M109.3,1.1c0.2,0,0.4,0.2,0.4,0.4l0,0c0,0.2-0.2,0.4-0.4,0.4s-0.4-0.2-0.4-0.4C108.9,1.2,109.1,1.1,109.3,1.1L109.3,1.1z"/>
		<path class="st0" d="M50.5,45.6c0-0.3,0-0.8-0.5-0.8s-0.5,0.4-0.5,0.8s0,0.8,0.5,0.8S50.5,46,50.5,45.6z M49.6,45.6
			c0-0.2,0-0.6,0.3-0.6s0.3,0.4,0.3,0.6s0,0.6-0.3,0.6S49.6,45.9,49.6,45.6z"/>
		<path class="st0" d="M51.9,45.6c0-0.3,0-0.8-0.5-0.8s-0.5,0.4-0.5,0.8s0,0.8,0.5,0.8S51.9,46,51.9,45.6z M51,45.6
			c0-0.2,0-0.6,0.3-0.6s0.3,0.4,0.3,0.6s0,0.6-0.3,0.6S51,45.9,51,45.6z"/>
		<path class="st0" d="M52.4,45v0.3h-0.2v0.2h0.2v0.7c0,0.2,0.1,0.3,0.3,0.3h0.1v-0.2h-0.1c-0.1,0-0.1,0-0.1-0.1v-0.7h0.2v-0.2h-0.2
			V45H52.4z"/>
		<path class="st0" d="M53.3,45v0.3h-0.2v0.2h0.2v0.7c0,0.2,0.1,0.3,0.3,0.3h0.1v-0.2h-0.1c-0.1,0-0.1,0-0.1-0.1v-0.7h0.2v-0.2h-0.2
			V45H53.3z"/>
		<path class="st0" d="M55.1,45.6c0-0.3,0-0.8-0.5-0.8s-0.5,0.4-0.5,0.8s0,0.8,0.5,0.8S55.1,46,55.1,45.6z M54.3,45.6
			c0-0.2,0-0.6,0.3-0.6s0.3,0.4,0.3,0.6s0,0.6-0.3,0.6S54.3,45.9,54.3,45.6z"/>
		<path class="st0" d="M55.9,46.4c0-0.5,0.2-1,0.6-1.4v-0.1h-1v0.2h0.8c-0.4,0.4-0.6,0.8-0.6,1.3H55.9z"/>
		<path class="st0" d="M114.3,55.5c0-0.3,0-0.8-0.5-0.8s-0.5,0.4-0.5,0.8s0,0.8,0.5,0.8S114.3,55.8,114.3,55.5z M113.5,55.5
			c0-0.2,0-0.6,0.3-0.6s0.3,0.4,0.3,0.6s0,0.6-0.3,0.6S113.5,55.7,113.5,55.5z"/>
		<path class="st0" d="M115.7,55.5c0-0.3,0-0.8-0.5-0.8s-0.5,0.4-0.5,0.8s0,0.8,0.5,0.8S115.7,55.8,115.7,55.5z M114.9,55.5
			c0-0.2,0-0.6,0.3-0.6s0.3,0.4,0.3,0.6s0,0.6-0.3,0.6S114.9,55.7,114.9,55.5z"/>
		<path class="st0" d="M116.2,55.1v1.1h0.2v-0.7c0-0.2,0.1-0.3,0.3-0.3c0.2,0,0.2,0.1,0.2,0.3v0.7h0.2v-0.7c0-0.1,0.1-0.3,0.2-0.3
			l0,0c0.2,0,0.2,0.1,0.2,0.3v0.7h0.2v-0.8c0-0.2-0.2-0.3-0.4-0.3c-0.1,0-0.3,0.1-0.3,0.2c0-0.1-0.2-0.2-0.3-0.2
			c-0.1,0-0.3,0.1-0.4,0.2l0,0L116.2,55.1L116.2,55.1z"/>
		<path class="st0" d="M118.2,55.1v1.1h0.2v-0.7c0-0.2,0.1-0.3,0.3-0.3c0.2,0,0.2,0.1,0.2,0.3v0.7h0.2v-0.7c0-0.2,0.1-0.3,0.3-0.3
			l0,0c0.2,0,0.2,0.1,0.2,0.3v0.7h0.2v-0.8c0-0.2-0.1-0.3-0.4-0.3c-0.1,0-0.3,0.1-0.3,0.2c0-0.1-0.2-0.2-0.3-0.2
			c-0.1,0-0.3,0.1-0.4,0.2l0,0v-0.2H118.2z"/>
		<path class="st0" d="M120.8,54.9c0.1,0,0.2,0.1,0.3,0.2h0.2c0-0.2-0.2-0.4-0.4-0.4l0,0c-0.4,0-0.6,0.4-0.6,0.8s0.1,0.7,0.5,0.7
			c0.3,0,0.5-0.2,0.5-0.4c0,0,0,0,0-0.1c0-0.3-0.2-0.5-0.4-0.5c0,0,0,0-0.1,0c-0.2,0-0.3,0.1-0.4,0.2l0,0
			C120.4,55.2,120.5,54.9,120.8,54.9z M120.8,55.4c0.2,0,0.3,0.2,0.3,0.4c0,0.1-0.1,0.3-0.3,0.3c-0.2,0-0.3-0.1-0.3-0.3l0,0
			C120.5,55.6,120.6,55.5,120.8,55.4L120.8,55.4L120.8,55.4z"/>
		<path class="st0" d="M122.3,54.7l-0.7,1v0.2h0.7v0.4h0.2v-0.4h0.2v-0.2h-0.2v-1H122.3z M122.3,55.7h-0.5l0.5-0.8l0,0V55.7z"/>
		<path class="st0" d="M69.7,15.1c-0.2,0-0.3-0.1-0.3-0.3l0,0h-0.2C69.2,15,69.4,15.2,69.7,15.1L69.7,15.1c0.3,0.1,0.5-0.1,0.5-0.4
			c0,0,0,0,0-0.1c0-0.3-0.2-0.5-0.4-0.5c0,0,0,0-0.1,0s-0.2,0-0.3,0.1l0,0l0.1-0.4h0.6v-0.2h-0.8l-0.2,0.8h0.2
			c0.1-0.1,0.2-0.1,0.3-0.1c0.2,0,0.3,0.1,0.3,0.3l0,0C70.1,15,69.9,15.1,69.7,15.1z"/>
		<path class="st0" d="M71.7,14.5c0-0.3,0-0.8-0.5-0.8s-0.5,0.4-0.5,0.8s0,0.8,0.5,0.8S71.7,14.8,71.7,14.5z M70.8,14.5
			c0-0.2,0-0.6,0.3-0.6s0.3,0.4,0.3,0.6s0,0.6-0.3,0.6S70.8,14.7,70.8,14.5z"/>
		<rect x="72.1" y="14.1" class="st0" width="0.2" height="1.1"/>
		<rect x="72.1" y="13.7" class="st0" width="0.2" height="0.2"/>
		<path class="st0" d="M72.8,14.1v1.1H73v-0.6c0-0.2,0.1-0.3,0.3-0.3c0,0,0,0,0.1,0s0.2,0.1,0.2,0.2l0,0v0.8h0.2v-0.7
			c0-0.2-0.1-0.4-0.4-0.4c-0.1,0-0.3,0.1-0.4,0.2l0,0v-0.2h-0.2V14.1z"/>
		<path class="st0" d="M74.7,15.1c-0.1,0-0.3-0.1-0.3-0.2h-0.2c0,0.2,0.2,0.4,0.4,0.4l0,0c0.4,0,0.5-0.3,0.5-0.8s-0.2-0.7-0.5-0.7
			s-0.5,0.2-0.5,0.5l0,0c0,0.3,0.2,0.5,0.4,0.5h0.1c0.1,0,0.3-0.1,0.3-0.2l0,0C75,14.9,74.9,15.1,74.7,15.1z M74.7,14.5
			c-0.2,0-0.3-0.1-0.3-0.3l0,0c0-0.2,0.1-0.4,0.3-0.4c0.2,0,0.3,0.2,0.3,0.4C74.9,14.4,74.8,14.5,74.7,14.5z"/>
		<path class="st0" d="M76.1,15.1c-0.1,0-0.3-0.1-0.3-0.2h-0.2c0,0.2,0.2,0.4,0.4,0.4l0,0c0.4,0,0.5-0.3,0.5-0.8s-0.2-0.7-0.5-0.7
			s-0.5,0.2-0.5,0.4c0,0,0,0,0,0.1c0,0.3,0.2,0.5,0.4,0.5H76c0.1,0,0.3-0.1,0.3-0.2l0,0C76.4,14.9,76.3,15.1,76.1,15.1z M76.1,14.5
			c-0.2,0-0.3-0.1-0.3-0.3l0,0c0-0.2,0.1-0.4,0.3-0.4c0.2,0,0.3,0.2,0.3,0.4S76.2,14.5,76.1,14.5z"/>
		<path class="st0" d="M85.6,72.5c-0.2,0-0.3-0.1-0.3-0.3c0,0,0,0,0-0.1H85C85.1,72.4,85.4,72.5,85.6,72.5s0.3-0.2,0.4-0.4
			c0-0.2-0.1-0.3-0.3-0.4l0,0c0.1-0.1,0.2-0.2,0.2-0.3c0-0.3-0.2-0.4-0.5-0.4c-0.2,0-0.5,0.2-0.5,0.4c0,0,0,0,0,0.1h0.2
			c0-0.2,0.1-0.3,0.3-0.3c0.1,0,0.3,0.1,0.3,0.2l0,0c0,0.2-0.1,0.3-0.3,0.3h-0.1V72h0.1c0.2,0,0.3,0.1,0.3,0.3l0,0
			C85.8,72.4,85.7,72.5,85.6,72.5z"/>
		<path class="st0" d="M87,72.5c-0.2,0-0.3-0.1-0.3-0.3l0,0h-0.2c0,0.3,0.2,0.5,0.5,0.5c0,0,0,0,0.1,0c0.3,0,0.5-0.2,0.5-0.4l0,0
			c0-0.2-0.1-0.3-0.3-0.4l0,0c0.1-0.1,0.2-0.2,0.2-0.3c0-0.3-0.2-0.4-0.5-0.4c-0.2,0-0.5,0.2-0.5,0.4c0,0,0,0,0,0.1h0.2
			c0-0.2,0.1-0.3,0.3-0.3s0.3,0.1,0.3,0.2s-0.1,0.3-0.3,0.3h-0.1V72H87c0.2,0,0.3,0.1,0.3,0.3l0,0C87.3,72.5,87.2,72.6,87,72.5z"/>
		<path class="st0" d="M89,72.1c0-0.3-0.3-0.5-0.6-0.5c-0.3,0-0.5,0.3-0.5,0.6c0,0.3,0.3,0.5,0.5,0.5C88.8,72.7,89,72.5,89,72.1
			C89,72.2,89,72.1,89,72.1z M88.1,72.1c0-0.3,0.2-0.4,0.3-0.4s0.3,0.2,0.3,0.4s-0.2,0.4-0.3,0.4S88.1,72.4,88.1,72.1L88.1,72.1z"/>
		<polygon class="st0" points="89.3,72.7 90.3,72.7 90.3,72.5 89.6,72.5 90.3,71.7 90.3,71.6 89.4,71.6 89.4,71.7 90,71.7 
			89.3,72.5 		"/>
		<path class="st0" d="M91.3,72.7v-1.5h-0.1c-0.1,0.2-0.2,0.3-0.4,0.3v0.2h0.4L91.3,72.7L91.3,72.7L91.3,72.7z"/>
		<path class="st0" d="M92.5,72.5c-0.2,0-0.3-0.1-0.3-0.3l0,0H92c0,0.3,0.2,0.5,0.4,0.5c0,0,0,0,0.1,0c0.3,0,0.5-0.2,0.5-0.4l0,0
			c0-0.2-0.1-0.3-0.3-0.4l0,0c0.1,0,0.2-0.2,0.2-0.3c0-0.3-0.2-0.4-0.5-0.4c-0.2,0-0.5,0.2-0.5,0.4v0.1h0.2c0-0.2,0.1-0.3,0.3-0.3
			c0.1,0,0.3,0.1,0.3,0.2l0,0c0,0.1-0.1,0.3-0.3,0.3l0,0h-0.1V72h0.1c0.2,0,0.3,0.1,0.3,0.3l0,0C92.8,72.4,92.7,72.5,92.5,72.5z"/>
	</g>
</g>
</svg>
