<?xml version="1.0" encoding="utf-8"?>
<!-- Generator: Adobe Illustrator 23.0.6, SVG Export Plug-In . SVG Version: 6.00 Build 0)  -->
<svg version="1.1" id="Layer_1" xmlns="http://www.w3.org/2000/svg" xmlns:xlink="http://www.w3.org/1999/xlink" x="0px" y="0px"
	 viewBox="0 0 56 77.3" style="enable-background:new 0 0 56 77.3;" xml:space="preserve">
<style type="text/css">
	.st0{fill:#FFFFFF;}
</style>
<title>Asset 139</title>
<g>
	<g id="_Layer_">
		<path class="st0" d="M26.1,19.8V5.6L2.6,29.2l0.1,14.1l1.2-1.2L26.1,19.8z M7,36.9L6.1,36v-1.3l1.6,1.6L7,36.9z M8.7,35.2
			l-2.6-2.6v-0.9l1.3-1.4l3,3L8.7,35.2z M24.7,19.2L11.5,32.4l-3-3l16.2-16.2L24.7,19.2z M24.7,9.1v2l-20,20v8.1l-0.6,0.6v-10
			L24.7,9.1z"/>
		<path class="st0" d="M53.4,33.6L30.8,56.2v14.3l22.3-22.2l0.3-0.3L53.4,33.6z M49.5,39.5l0.1,0.1v2l-1.1-1.1L49.5,39.5z
			 M47.5,41.5l2.2,2.2v1.9l-0.3,0.3l-3.1-3.1L47.5,41.5z M32.2,56.8l13-13l3.1,3.1L32.2,63V56.8z M52,47.4L32.2,67.1v-2l18.9-18.9
			v-8.3L52,37L52,47.4z"/>
		<path class="st0" d="M27.3,76.7l0.5,0.5l28.1-28.1L56,28l-0.2-0.2l-0.1-0.1l0,0L28,0L0,28v21.5L27.3,76.7L27.3,76.7z M54.5,48.5
			L28.7,74.4V55.7l25.9-25.9L54.5,48.5z M54.2,28.2L27.9,54.4L14.2,40.7l1.8-1.8l12.5,12.5l23.7-23.7L30.6,6.1v14.5L44,33.9l-1,1
			L29.3,21.2L28.8,2.8L54.2,28.2z M17,37.9l11.2-11.2l11.5,11.5L28.5,49.4L17,37.9z M48.2,29.8L45,32.9L32.1,20v-6.3L48.2,29.8z
			 M32.2,11.7V9.6l18,18.1l-1,1L32.2,11.7z M1.4,28.6L27.4,2.7l0.5,18.5L1.5,47.6L1.4,28.6z M27.2,74.6L1.8,49.3l26.7-26.7L42,36
			l-1.2,1.2L28.2,24.6l-24,24l21.9,21.9V56L12.5,42.4l0.7-0.7l14,14.1L27.2,74.6z M8.5,46.4l3-3l13.1,13.2v6L8.5,46.4z M24.6,64.6
			v2.5L6.2,48.7l1.3-1.3L24.6,64.6z"/>
	</g>
</g>
</svg>
