<?xml version="1.0" encoding="utf-8"?>
<!-- Generator: Adobe Illustrator 23.0.6, SVG Export Plug-In . SVG Version: 6.00 Build 0)  -->
<svg version="1.1" id="Layer_1" xmlns="http://www.w3.org/2000/svg" xmlns:xlink="http://www.w3.org/1999/xlink" x="0px" y="0px"
	 viewBox="0 0 643.6 566.2" style="enable-background:new 0 0 643.6 566.2;" xml:space="preserve">
<style type="text/css">
	.st0{fill:#FFFFFF;}
</style>
<g id="Layer_2_00000093877501593291221050000010473401085702593189_">
	<g id="Layer_1-2">
		<path class="st0" d="M643.6,566.2c-28.7-1.8-51.4-12.6-77.1-24.3c-12.8-5.8-25.7-11.6-39.6-14.2c-11-2.1-22.8-0.8-33.4-4.7
			c-37.4-13.5-64.5-59.8-88.8-89.5c-20.6-25.2-47.2-65.3-82.9-69.4c-26.1-3-58.6,10-82.9,17.5c-29,8.9-58.4,19.6-88.8,22.5
			c-12.5,1.2-23,1.1-33.4,9c-18,13.7-29.2,37.2-39.6,56.6c-18.7,34.8-35.3,86-77.1,96.5v-24.6c41.9-10.5,58.4-61.8,77.1-96.5
			c10.4-19.4,21.6-42.9,39.6-56.6c10.4-7.9,20.9-7.8,33.4-9c30.4-2.9,59.8-13.6,88.8-22.5c24.3-7.5,56.8-20.4,82.9-17.5
			c35.7,4.1,62.3,44.2,82.9,69.4c24.3,29.6,51.4,75.9,88.8,89.5c10.6,3.8,22.4,2.6,33.4,4.5c13.8,2.4,26.8,7.5,39.7,13
			c25.7,10.8,49.1,21.9,77,25.8L643.6,566.2z"/>
		<path class="st0" d="M643.6,512.2c-27-6.3-51.2-17.7-76.9-27.6c-12.9-5-26.1-9.4-39.8-11.5c-11-1.6-22.8-0.4-33.4-4.2
			c-37.4-13.5-64.5-59.8-88.8-89.5c-20.6-25.2-47.2-65.3-82.9-69.4c-26.1-3-58.6,10-82.9,17.5c-29,8.9-58.4,19.6-88.8,22.5
			c-12.5,1.2-23,1.1-33.4,9c-18,13.7-29.2,37.2-39.6,56.6c-18.7,34.8-35.3,86-77.1,96.5v-24.6C41.9,477,58.4,425.7,77.1,391
			c10.4-19.4,21.6-42.9,39.6-56.6c10.4-7.9,20.9-7.8,33.4-9c30.4-2.9,59.8-13.6,88.8-22.5c24.3-7.5,56.8-20.4,82.9-17.5
			c35.7,4.1,62.3,44.2,82.9,69.4c24.3,29.6,51.4,75.9,88.8,89.5c10.6,3.8,22.4,2.5,33.4,4c13.7,1.8,26.9,5.6,39.9,10.2
			c25.9,9.1,50.5,20.9,76.8,29.1V512.2z"/>
		<path class="st0" d="M643.6,458.2c-25.4-10.3-50.4-22.6-76.6-30.9c-23.8-7.5-50.7-4.1-73.5-12.3c-37.4-13.5-64.5-59.8-88.8-89.5
			c-20.6-25.2-47.2-65.3-82.9-69.4c-26.1-3-58.6,10-82.9,17.5c-29,8.9-58.4,19.6-88.8,22.5c-12.5,1.2-23,1.1-33.4,9
			c-18,13.7-29.2,37.2-39.6,56.6c-18.7,34.8-35.3,86-77.1,96.5v-24.6c76.8-18.9,63.6-155.3,147.2-161.9c29.8-2.3,58.6-12.5,87-21.3
			c26.9-8.3,58.9-21.3,87.6-18.6c34.9,3.2,61,42.6,81.3,67.3c24.2,29.3,50.8,74.5,87.4,89.6c22.1,9.1,49.5,5.3,73,11.6
			c28,7.5,54.1,20.6,80.1,33.3V458.2z"/>
		<path class="st0" d="M643.6,404.2c-25.4-14.8-51.1-28.4-80-34.9c-23.6-5.4-51.1-0.9-73.1-10c-36.6-15.1-63.2-60.3-87.4-89.6
			c-20.4-24.7-46.4-64.1-81.3-67.3c-28.7-2.6-60.7,10.3-87.6,18.6c-28.4,8.8-57.2,19-87,21.3C63.6,248.9,76.8,385.3,0,404.2v-24.6
			c43.2-10.5,60.1-65.7,79.5-100.8c9.4-17,18.7-35.7,33.4-49c13.6-12.3,26.1-10.8,43.1-13.1c29.4-3.9,57.8-14.1,86.1-22.8
			c23.9-7.3,54.5-19.3,79.8-16.5c33.9,3.8,60.1,41.7,79.8,65.6c24.5,29.8,50.4,72.3,86.1,90.5c21,10.7,49.4,4.8,72.6,8.9
			c31,5.5,57.5,19.7,83.4,37v24.8H643.6z"/>
		<path class="st0" d="M643.6,350.2c-25.4-19.5-51.2-34.1-83.3-38.5c-23.2-3.2-51.5,3.4-72.7-7.4c-35.7-18.2-61.6-60.7-86.1-90.5
			c-19.6-23.9-45.9-61.9-79.8-65.6c-25.3-2.8-55.9,9.2-79.8,16.5c-28.3,8.6-56.7,18.9-86.1,22.8c-17,2.2-29.5,0.7-43.1,13.1
			c-14.6,13.2-24,32-33.4,49c-19.4,35-36.2,90.3-79.5,100.7v-24.6c45-10.7,62.6-70.9,82.9-107.1c7.8-13.9,16.6-29.6,28.1-40.8
			c13.3-13,24.7-12.5,42-14.5c55.8-6.3,112.4-44.4,168.9-39.4c36.1,3.2,63.6,45.5,84.4,71c23.8,29.1,49,70.8,84.4,86.4
			c20.9,9.2,48.6,2.3,71.1,4.8c32.5,3.6,57.3,18.6,81.8,39.6L643.6,350.2z"/>
		<path class="st0" d="M643.6,296.2c-23.5-22.6-47.3-38.4-80.5-41.1c-21.8-1.8-48.8,5.6-69.7-2.1c-39.8-14.6-69.1-65.8-94.8-96.8
			c-19.6-23.7-44-58.6-76.9-62.1c-24.8-2.7-53.5,8.5-76.9,15.6c-31.1,9.5-62.2,20.8-94.8,24.3c-14.9,1.6-24.1,1.8-36.1,11.7
			c-14.2,11.8-23.6,29.6-32.4,45.5C61.9,227,44.3,285.9,0,296.2v-24.6c43.8-11.6,61.5-68.3,81.8-104c8.9-15.8,18.4-33.1,32.4-45
			c11.9-10,21.1-10.5,36.1-12.3c32.4-3.8,63.5-14.7,94.6-24c23.2-7,52.3-18.4,76.9-15.6c32.6,3.7,57.3,38.6,76.9,62
			c26,31,55,80.7,94.6,95.8c21,8,47.8,0.9,69.7,2.4c33.4,2.3,57,17.7,80.6,40.7V296.2z"/>
		<path class="st0" d="M643.6,242.2c-24.4-21.7-48.5-34.7-81.4-36.4c-22.1-1.2-48.8,5.1-69.9-3.1c-38.8-15.1-67.5-61-93.9-91
			c-19.7-22.4-44.8-55.9-76.6-59.6c-24.3-2.8-53.4,8.3-76.5,14.8c-30.9,8.7-61.7,18.7-93.7,22.6c-35.7,4.3-50.3,24.7-69,54.8
			C61.1,179,42.5,229.8,0,242.2v-24.6c42-11.9,61.8-58.1,85.1-91.3c19.6-27.8,36.5-44.8,71.1-48.7c28-3.1,55.3-11.2,82.5-18.4
			c25.7-6.8,56.1-17.6,83-15c34.1,3.3,61.8,39.7,83.3,63c24.2,26.3,49.3,61.1,82.9,75.6c21.8,9.4,48.8,3.1,71.9,3.5
			c33,0.6,58,10.8,83.8,31.3V242.2z"/>
		<path class="st0" d="M643.6,188.2c-27.7-18.4-53.8-24.9-86.8-23.7c-24.1,0.9-51.2,7.4-74-2.6c-32.6-14.2-58.3-45.9-83.1-70.1
			c-20.8-20.2-46.9-48.6-77.8-51.8c-24.5-2.5-53.6,6.8-77.3,12.2c-27.3,6.2-54.6,13.4-82.5,16.4c-16.1,1.7-29.2,1.5-43.3,10.9
			S94,102.1,83.4,114.8c-24,28.8-44.7,64.3-83.4,73.4v-24.6C65.6,152,87.3,68.7,156.2,64.8C211,61.7,267,36.6,321.8,40.6
			c66.2,4.9,100.7,88.1,161.5,107.2c24.1,7.6,51,0.9,75.6-1.1c31.2-2.5,57,1.7,84.7,16.9V188.2z"/>
		<path class="st0" d="M643.6,134.2c-29.1-12-55.8-12.7-86.6-8.3c-24.8,3.5-51.6,10.7-76.4,4.7c-59.3-14.5-95.6-84.7-158.8-88.1
			c-53.9-2.9-108.3,15.7-162.1,18.2C129,62.1,108,72.8,83.3,91.3C57.2,110.9,33.7,130.9,0,134.2v-24.6c32.8-1.2,58.4-16.6,86.4-31.9
			c27-14.7,48.8-20.3,79-21c52.1-1.3,104.3-16,156.4-13.2c61.4,3.3,100,64.1,159.3,73.2c25.8,3.9,53.3-4.3,78.4-9.1
			c29.1-5.5,55.5-6.6,84.1,2V134.2z"/>
		<path class="st0" d="M643.6,80.2c-57.5-10.4-108.5,22.9-165,17.5S379.8,44,321.8,41.9c-51.2-1.8-102.1,7.5-153.3,7.8
			c-28.7,0.2-52.5,2.5-80.2,11.7C59,71.3,31.5,80.9,0,80.2V55.6c30.7,1.5,59.7-4.1,89.6-9.8c27.6-5.2,53.2-5.9,81.1-5.5
			c50.4,0.6,100.7-5.4,151.2-4.1C377.5,37.7,422.3,76.6,477,80c57.2,3.6,108.9-29.8,166.7-24.5v24.7H643.6z"/>
		<path class="st0" d="M643.6,26.2C585.8,25.8,533.4,59.1,475.5,56c-53.1-2.8-100-32.8-153.7-34.1c-49.8-1.2-99.6,1.8-149.4,1
			C114.9,22,57.4,28.8,0,26.2V1.6c107.1,0,214.8-3.6,321.8,0C374.6,3.4,422.7,28.4,475,32.5C533.1,37,586.2,4.3,643.6,1.6V26.2z"/>
	</g>
</g>
</svg>
