<svg xmlns="http://www.w3.org/2000/svg" viewBox="0 0 92.9 92.9"><defs><style>.cls-1{fill:#fff;}</style></defs><title>Asset 10</title><g id="Layer_2" data-name="Layer 2"><g id="Layer_1-2" data-name="Layer 1"><path class="cls-1" d="M46.45,92.9A46.45,46.45,0,1,0,0,46.45,46.51,46.51,0,0,0,46.45,92.9m0-92A45.51,45.51,0,1,1,.94,46.45,45.57,45.57,0,0,1,46.45.94"/><path class="cls-1" d="M45.6,89.74c.62,0,1.23,0,1.85,0,24.27-1,43.56-21.16,43-45a41.89,41.89,0,0,0-13.32-29.8A43.38,43.38,0,0,0,45.45,3.2c-24.27,1-43.57,21.16-43,45A41.88,41.88,0,0,0,15.74,78,43.3,43.3,0,0,0,45.6,89.74M3.37,48.19c-.53-23.34,18.36-43.1,42.11-44,.61,0,1.21,0,1.81,0A42.39,42.39,0,0,1,76.51,15.57a40.93,40.93,0,0,1,13,29.14c.54,23.34-18.35,43.1-42.11,44.05a42.47,42.47,0,0,1-31-11.43,41,41,0,0,1-13-29.14"/><path class="cls-1" d="M17.85,76.74A40.43,40.43,0,0,0,44.7,86.66c1.24,0,2.5,0,3.76-.16C71.38,84.56,89.13,65,88,42.93a37.69,37.69,0,0,0-13-26.77A40.8,40.8,0,0,0,44.44,6.39C21.52,8.34,3.77,27.89,4.87,50a37.69,37.69,0,0,0,13,26.77M44.52,7.33c1.24-.1,2.46-.15,3.68-.15a39.52,39.52,0,0,1,26.23,9.68A36.83,36.83,0,0,1,87.09,43C88.16,64.56,70.8,83.66,48.38,85.57A39.87,39.87,0,0,1,18.47,76,36.79,36.79,0,0,1,5.81,49.92C4.73,28.34,22.1,9.24,44.52,7.33"/><path class="cls-1" d="M19.91,75.5a38.3,38.3,0,0,0,24,8.18,40.17,40.17,0,0,0,5.56-.38C71,80.38,87.25,61.48,85.6,41.17A33.74,33.74,0,0,0,73,17.4,38.9,38.9,0,0,0,43.43,9.59C21.86,12.52,5.65,31.42,7.3,51.73A33.77,33.77,0,0,0,19.91,75.5m23.65-65A40,40,0,0,1,49,10.16a37.26,37.26,0,0,1,23.39,8A32.78,32.78,0,0,1,84.66,41.25c1.61,19.82-14.24,38.26-35.32,41.12A37.92,37.92,0,0,1,20.5,74.76,32.79,32.79,0,0,1,8.24,51.65C6.63,31.83,22.48,13.38,43.56,10.53"/><path class="cls-1" d="M21.93,74.28a35.37,35.37,0,0,0,20.93,6.56,39.55,39.55,0,0,0,7.61-.74C70.7,76.21,85.36,58,83.16,39.41A29.84,29.84,0,0,0,71,18.62c-7.8-5.7-18.2-7.82-28.54-5.83C22.2,16.69,7.54,35,9.73,53.49a29.89,29.89,0,0,0,12.2,20.79M42.6,13.72A39.38,39.38,0,0,1,50,13a34.41,34.41,0,0,1,20.37,6.38A28.92,28.92,0,0,1,82.23,39.52C84.37,57.58,70,75.37,50.29,79.18c-10.09,1.95-20.22-.12-27.8-5.66A28.92,28.92,0,0,1,10.67,53.38C8.53,35.32,22.85,17.53,42.6,13.72"/><path class="cls-1" d="M23.9,73.12a32.5,32.5,0,0,0,17.82,5,38.8,38.8,0,0,0,9.76-1.26c18.88-4.87,32-22.49,29.25-39.26A26.21,26.21,0,0,0,69,19.78c-7.62-5-17.67-6.35-27.59-3.78-18.87,4.87-32,22.49-29.24,39.26A26.2,26.2,0,0,0,23.9,73.12M41.65,16.91a37.89,37.89,0,0,1,9.53-1.23,31.54,31.54,0,0,1,17.3,4.89A25.28,25.28,0,0,1,79.8,37.79C82.47,54.1,69.66,71.23,51.25,76c-9.66,2.49-19.44,1.16-26.83-3.66A25.22,25.22,0,0,1,13.1,55.11C10.43,38.8,23.23,21.67,41.65,16.91"/><path class="cls-1" d="M25.81,72A29.71,29.71,0,0,0,40.5,75.7a38,38,0,0,0,12-2C70,67.84,81.59,50.87,78.29,35.87a22.71,22.71,0,0,0-11.21-15C59.62,16.64,49.9,16,40.4,19.2,22.87,25.06,11.3,42,14.61,57a22.73,22.73,0,0,0,11.2,15M40.7,20.1a36.72,36.72,0,0,1,11.7-2,28.74,28.74,0,0,1,14.22,3.55A21.77,21.77,0,0,1,77.37,36.07c3.2,14.55-8.09,31-25.17,36.73C43,75.89,33.51,75.31,26.28,71.21A21.8,21.8,0,0,1,15.53,56.83c-3.21-14.55,8.08-31,25.17-36.73"/><path class="cls-1" d="M27.67,71a26.8,26.8,0,0,0,11.58,2.48,36.89,36.89,0,0,0,14.27-3c16.17-6.84,26.19-23.17,22.33-36.4A19.3,19.3,0,0,0,65.23,21.85c-7.34-3.48-16.76-3.28-25.85.56-16.17,6.84-26.19,23.16-22.33,36.4A19.26,19.26,0,0,0,27.67,71M39.75,23.28a35.92,35.92,0,0,1,13.9-3A26,26,0,0,1,64.82,22.7,18.42,18.42,0,0,1,75,34.35c3.73,12.79-6,28.62-21.8,35.27-8.84,3.74-18,3.94-25.07.57A18.38,18.38,0,0,1,18,58.55C14.22,45.75,24,29.93,39.75,23.28"/><path class="cls-1" d="M29.48,70.2a24,24,0,0,0,8.45,1.45,36.09,36.09,0,0,0,16.61-4.38c14.82-7.81,23.29-23.5,18.87-35a16.56,16.56,0,0,0-10-9.61c-7.13-2.67-16.5-1.58-25.06,2.94-14.82,7.81-23.29,23.5-18.87,35a16.52,16.52,0,0,0,10,9.6M38.8,26.46A35.25,35.25,0,0,1,55,22.19a23.1,23.1,0,0,1,8.13,1.39,15.6,15.6,0,0,1,9.44,9.06c4.25,11-4,26.2-18.43,33.8-8.33,4.39-17.4,5.47-24.29,2.88a15.57,15.57,0,0,1-9.44-9.06c-4.25-11,4-26.2,18.43-33.8"/><path class="cls-1" d="M31.27,69.56a21.57,21.57,0,0,0,5.47.67c6,0,12.66-2.15,18.82-6.17C69,55.26,75.94,40.21,71,30.51a14.13,14.13,0,0,0-9.32-7.17c-7.07-1.87-16.15.19-24.29,5.5C23.86,37.64,17,52.69,22,62.39a14.13,14.13,0,0,0,9.32,7.17M70.11,30.94c4.78,9.28-2,23.78-15.07,32.33-6,3.89-12.44,6-18.18,6C43.11,69,50.23,66,56.58,60.83,68.71,51,74.05,36.63,68.49,28.71a11,11,0,0,0-1-1.22,12.1,12.1,0,0,1,2.64,3.45M44.83,66.58a43.37,43.37,0,0,0,12.77-9C67.2,48,71.24,36,67.66,29.17l.06.08C73,36.78,67.74,50.62,56,60.1a40.47,40.47,0,0,1-11.16,6.48m20.51-39c5.78,5.79,2,19-8.41,29.37S33.35,71.12,27.56,65.34c-2.76-2.77-3.44-7.32-1.9-12.82S30.89,41,36,36c7.11-7.1,15.49-11.11,21.94-11.11a10.2,10.2,0,0,1,7.44,2.71M25.21,63.69l0,0c-5.28-7.53,0-21.37,11.73-30.85a40.7,40.7,0,0,1,11.17-6.49,43.39,43.39,0,0,0-12.78,9c-5.19,5.19-8.94,11.21-10.54,17-1.27,4.53-1.09,8.47.45,11.43M37.86,29.63c6-3.92,12.52-6,18.29-6h.09c-6.3.27-13.5,3.28-19.92,8.46-12.13,9.79-17.47,24.2-11.91,32.12a10,10,0,0,0,1,1.22A12.13,12.13,0,0,1,22.78,62c-4.77-9.28,2-23.78,15.08-32.33"/></g></g></svg>