<?xml version="1.0" encoding="utf-8"?>
<!-- Generator: Adobe Illustrator 23.0.6, SVG Export Plug-In . SVG Version: 6.00 Build 0)  -->
<svg version="1.1" id="Layer_1" xmlns="http://www.w3.org/2000/svg" xmlns:xlink="http://www.w3.org/1999/xlink" x="0px" y="0px"
	 viewBox="0 0 512 512" style="enable-background:new 0 0 512 512;" xml:space="preserve">
<style type="text/css">
	.st0{fill:#FFFFFF;}
</style>
<path class="st0" d="M332.8,320h38.4c6.4,0,12.8-6.4,12.8-12.8V172.8c0-6.4-6.4-12.8-12.8-12.8h-38.4c-6.4,0-12.8,6.4-12.8,12.8
	v134.4C320,313.6,326.4,320,332.8,320z M428.8,320h38.4c6.4,0,12.8-6.4,12.8-12.8V76.8c0-6.4-6.4-12.8-12.8-12.8h-38.4
	c-6.4,0-12.8,6.4-12.8,12.8v230.4C416,313.6,422.4,320,428.8,320z M140.8,320h38.4c6.4,0,12.8-6.4,12.8-12.8v-70.4
	c0-6.4-6.4-12.8-12.8-12.8h-38.4c-6.4,0-12.8,6.4-12.8,12.8v70.4C128,313.6,134.4,320,140.8,320z M236.8,320h38.4
	c6.4,0,12.8-6.4,12.8-12.8V108.8c0-6.4-6.4-12.8-12.8-12.8h-38.4c-6.4,0-12.8,6.4-12.8,12.8v198.4C224,313.6,230.4,320,236.8,320z
	 M496,384H64V80c0-8.8-7.2-16-16-16H16C7.2,64,0,71.2,0,80v336c0,17.7,14.3,32,32,32h464c8.8,0,16-7.2,16-16v-32
	C512,391.2,504.8,384,496,384z"/>
</svg>
