<?xml version="1.0" encoding="utf-8"?>
<!-- Generator: Adobe Illustrator 23.0.6, SVG Export Plug-In . SVG Version: 6.00 Build 0)  -->
<svg version="1.1" id="Layer_1" xmlns="http://www.w3.org/2000/svg" xmlns:xlink="http://www.w3.org/1999/xlink" x="0px" y="0px"
	 viewBox="0 0 576 512" style="enable-background:new 0 0 576 512;" xml:space="preserve">
<style type="text/css">
	.st0{fill:#FFFFFF;}
</style>
<path class="st0" d="M423.5,0C339.5,0.3,272,69.5,272,153.5V224H48c-26.5,0-48,21.5-48,48v192c0,26.5,21.5,48,48,48h352
	c26.5,0,48-21.5,48-48V272c0-26.5-21.5-48-48-48h-48v-71.1c0-39.6,31.7-72.5,71.3-72.9c40-0.4,72.7,32.1,72.7,72v80
	c0,13.3,10.7,24,24,24h32c13.3,0,24-10.7,24-24v-80C576,68,507.5-0.3,423.5,0z"/>
</svg>
