<?xml version="1.0" encoding="utf-8"?>
<!-- Generator: Adobe Illustrator 23.0.6, SVG Export Plug-In . SVG Version: 6.00 Build 0)  -->
<svg version="1.1" id="Layer_1" xmlns="http://www.w3.org/2000/svg" xmlns:xlink="http://www.w3.org/1999/xlink" x="0px" y="0px"
	 viewBox="0 0 512 512" style="enable-background:new 0 0 512 512;" xml:space="preserve">
<style type="text/css">
	.st0{fill:#FFFFFF;}
</style>
<path class="st0" d="M400,54.1c63,45,104,118.6,104,201.9c0,136.8-110.8,247.7-247.5,248C120,504.3,8.2,393,8,256.4
	C7.9,173.1,48.9,99.3,111.8,54.2c11.7-8.3,28-4.8,35,7.7L162.6,90c5.9,10.5,3.1,23.8-6.6,31c-41.5,30.8-68,79.6-68,134.9
	C87.9,348.2,162.5,424,256,424c91.6,0,168.6-74.2,168-169.1c-0.3-51.8-24.7-101.8-68.1-134c-9.7-7.2-12.4-20.5-6.5-30.9l15.8-28.1
	C372.2,49.5,388.4,45.8,400,54.1L400,54.1z M296,264V24c0-13.3-10.7-24-24-24h-32c-13.3,0-24,10.7-24,24v240c0,13.3,10.7,24,24,24
	h32C285.3,288,296,277.3,296,264z"/>
</svg>
