<?xml version="1.0" encoding="utf-8"?>
<!-- Generator: Adobe Illustrator 23.0.6, SVG Export Plug-In . SVG Version: 6.00 Build 0)  -->
<svg version="1.1" id="Layer_1" xmlns="http://www.w3.org/2000/svg" xmlns:xlink="http://www.w3.org/1999/xlink" x="0px" y="0px"
	 viewBox="0 0 576 512" style="enable-background:new 0 0 576 512;" xml:space="preserve">
<style type="text/css">
	.st0{fill:#FFFFFF;}
</style>
<path class="st0" d="M384,64H192C86,64,0,150,0,256s86,192,192,192h192c106,0,192-86,192-192S490,64,384,64z M64,256
	c0-70.7,57.2-128,128-128c70.7,0,128,57.2,128,128c0,70.7-57.2,128-128,128C121.3,384,64,326.8,64,256z M384,384h-48.9
	c65.2-72.9,65.2-183.1,0-256H384c70.7,0,128,57.2,128,128C512,326.7,454.8,384,384,384z"/>
</svg>
