<?xml version="1.0" encoding="utf-8"?>
<!-- Generator: Adobe Illustrator 23.0.6, SVG Export Plug-In . SVG Version: 6.00 Build 0)  -->
<svg version="1.1" id="Layer_1" xmlns="http://www.w3.org/2000/svg" xmlns:xlink="http://www.w3.org/1999/xlink" x="0px" y="0px"
	 viewBox="0 0 512 512" style="enable-background:new 0 0 512 512;" xml:space="preserve">
<style type="text/css">
	.st0{fill:#FFFFFF;}
</style>
<path class="st0" d="M215,71l-89,89H24c-13.3,0-24,10.7-24,24v144c0,13.3,10.7,24,24,24h102.1l89,89c15,15,41,4.5,41-17V88
	C256,66.6,230,56,215,71z M461.6,256l45.6-45.6c6.3-6.3,6.3-16.5,0-22.8l-22.8-22.8c-6.3-6.3-16.5-6.3-22.8,0L416,210.4l-45.6-45.6
	c-6.3-6.3-16.5-6.3-22.8,0l-22.8,22.8c-6.3,6.3-6.3,16.5,0,22.8l45.6,45.6l-45.6,45.6c-6.3,6.3-6.3,16.5,0,22.8l22.8,22.8
	c6.3,6.3,16.5,6.3,22.8,0l45.6-45.6l45.6,45.6c6.3,6.3,16.5,6.3,22.8,0l22.8-22.8c6.3-6.3,6.3-16.5,0-22.8L461.6,256z"/>
</svg>
