<?xml version="1.0" encoding="utf-8"?>
<!-- Generator: Adobe Illustrator 23.0.6, SVG Export Plug-In . SVG Version: 6.00 Build 0)  -->
<svg version="1.1" id="Layer_1" xmlns="http://www.w3.org/2000/svg" xmlns:xlink="http://www.w3.org/1999/xlink" x="0px" y="0px"
	 viewBox="0 0 576 512" style="enable-background:new 0 0 576 512;" xml:space="preserve">
<style type="text/css">
	.st0{fill:#FFFFFF;}
</style>
<path class="st0" d="M215,71l-89,89H24c-13.3,0-24,10.7-24,24v144c0,13.3,10.7,24,24,24h102.1l89,89c15,15,41,4.5,41-17V88
	C256,66.6,230,56,215,71z M448.4,20c-11.2-7.3-26.2-4.2-33.5,7c-7.3,11.2-4.2,26.2,7,33.5C488.1,103.9,527.6,177,527.6,256
	s-39.5,152.1-105.8,195.6c-11.2,7.3-14.3,22.3-7,33.5c7,10.7,21.9,14.6,33.5,7C528.3,439.6,576,351.3,576,256S528.3,72.4,448.4,20z
	 M480,256c0-63.5-32.1-121.9-85.8-156.2c-11.2-7.1-26-3.8-33.1,7.5s-3.8,26.2,7.4,33.4C408.3,166,432,209.1,432,256
	s-23.7,90-63.5,115.4c-11.2,7.1-14.5,22.1-7.4,33.4c6.5,10.4,21.1,15.1,33.1,7.5C447.9,377.9,480,319.5,480,256z M338.2,179.1
	c-11.6-6.3-26.2-2.2-32.6,9.4c-6.4,11.6-2.2,26.2,9.5,32.6C328,228.3,336,241.6,336,256c0,14.4-8,27.7-20.9,34.8
	c-11.6,6.4-15.8,21-9.5,32.6c6.4,11.7,21,15.8,32.6,9.5c28.2-15.5,45.8-45,45.8-76.9S366.5,194.7,338.2,179.1L338.2,179.1z"/>
</svg>
