<?xml version="1.0" encoding="utf-8"?>
<!-- Generator: Adobe Illustrator 23.0.6, SVG Export Plug-In . SVG Version: 6.00 Build 0)  -->
<svg version="1.1" id="Layer_1" xmlns="http://www.w3.org/2000/svg" xmlns:xlink="http://www.w3.org/1999/xlink" x="0px" y="0px"
	 viewBox="0 0 448 512" style="enable-background:new 0 0 448 512;" xml:space="preserve">
<style type="text/css">
	.st0{fill:#FFFFFF;}
</style>
<path class="st0" d="M432,160H16c-8.8,0-16,7.2-16,16v32c0,8.8,7.2,16,16,16h416c8.8,0,16-7.2,16-16v-32
	C448,167.2,440.8,160,432,160z M432,416H16c-8.8,0-16,7.2-16,16v32c0,8.8,7.2,16,16,16h416c8.8,0,16-7.2,16-16v-32
	C448,423.2,440.8,416,432,416z M108.1,96h231.8c6.7,0,12.1-5.4,12.1-12.1c0,0,0,0,0,0V44.1c0-6.7-5.4-12.1-12.1-12.1H108.1
	C101.4,32,96,37.4,96,44.1c0,0,0,0,0,0v39.8C96,90.6,101.4,96,108.1,96z M339.9,352c6.7,0,12.1-5.4,12.1-12.1c0,0,0,0,0,0v-39.8
	c0-6.7-5.4-12.1-12.1-12.1H108.1c-6.7,0-12.1,5.4-12.1,12.1c0,0,0,0,0,0v39.8c0,6.7,5.4,12.1,12.1,12.1c0,0,0,0,0,0H339.9z"/>
</svg>
