<?xml version="1.0" encoding="utf-8"?>
<!-- Generator: Adobe Illustrator 23.0.6, SVG Export Plug-In . SVG Version: 6.00 Build 0)  -->
<svg version="1.1" id="Layer_1" xmlns="http://www.w3.org/2000/svg" xmlns:xlink="http://www.w3.org/1999/xlink" x="0px" y="0px"
	 viewBox="0 0 448 512" style="enable-background:new 0 0 448 512;" xml:space="preserve">
<style type="text/css">
	.st0{fill:#FFFFFF;}
</style>
<path class="st0" d="M12.8,352h262.3c7.1,0,12.8-5.7,12.8-12.8c0,0,0,0,0,0v-38.3c0-7.1-5.7-12.8-12.8-12.8c0,0,0,0,0,0H12.8
	C5.7,288,0,293.7,0,300.8c0,0,0,0,0,0v38.3C0,346.3,5.7,352,12.8,352C12.8,352,12.8,352,12.8,352z M12.8,96h262.3
	c7.1,0,12.8-5.7,12.8-12.8c0,0,0,0,0,0V44.8c0-7.1-5.7-12.8-12.8-12.8c0,0,0,0,0,0H12.8C5.7,32,0,37.7,0,44.8c0,0,0,0,0,0v38.3
	C0,90.3,5.7,96,12.8,96C12.8,96,12.8,96,12.8,96z M432,160H16c-8.8,0-16,7.2-16,16v32c0,8.8,7.2,16,16,16h416c8.8,0,16-7.2,16-16
	v-32C448,167.2,440.8,160,432,160z M432,416H16c-8.8,0-16,7.2-16,16v32c0,8.8,7.2,16,16,16h416c8.8,0,16-7.2,16-16v-32
	C448,423.2,440.8,416,432,416z"/>
</svg>
