<?xml version="1.0" encoding="utf-8"?>
<!-- Generator: Adobe Illustrator 23.0.6, SVG Export Plug-In . SVG Version: 6.00 Build 0)  -->
<svg version="1.1" id="Layer_1" xmlns="http://www.w3.org/2000/svg" xmlns:xlink="http://www.w3.org/1999/xlink" x="0px" y="0px"
	 viewBox="0 0 394.7 484.4" style="enable-background:new 0 0 394.7 484.4;" xml:space="preserve">
<style type="text/css">
	.st0{fill:none;stroke:#FFFFFF;stroke-linecap:round;stroke-linejoin:bevel;}
</style>
<g>
	<g id="Layer_1-2">
		<path class="st0" d="M165.6,168.5c-1.6-1-3.3-2-4.9-2.9c-3,2.2-5.8,4.5-8.5,7.1c2.1,1.2,4.3,2.4,6.4,3.8
			C161,173.6,163.4,170.9,165.6,168.5"/>
		<path class="st0" d="M166.8,215.1c0.9-0.3,1.5-1.1,1.7-1.9l0.4-2.4c0.1-0.7-0.3-1.4-1.1-1.6l-6.9-1.3c-0.7-0.1-1.4,0.3-1.6,1.1
			l-1.1,6.1c-0.1,0.7,0.3,1.4,1.1,1.6c0,0,0,0,0,0l1.6,0.3c0.5,0.1,0.9,0,1.4-0.1L166.8,215.1z"/>
		<path class="st0" d="M141.4,245.8c0.2-0.3,0.4-0.6,0.7-0.8c-0.4,0-0.8,0-1.1,0.1c0,0.1,0,0.3,0.1,0.4
			C141.1,245.6,141.3,245.7,141.4,245.8"/>
		<path class="st0" d="M44.5,292c1.9-5.1,3.2-10.4,4.1-15.8c-4.7-5.4-10.1-10.2-16-14.2c-5.9-4-12.4-7.2-19.1-9.5
			c-4.7,2.8-9.1,6-13.1,9.7c8.4,3.2,16.3,7.4,23.8,12.4C31.5,279.7,38.4,285.5,44.5,292"/>
		<path class="st0" d="M32.2,478.6v-0.2l-0.1,0.1L32.2,478.6"/>
		<path class="st0" d="M138.4,470.1c-9.1-1.6-18.1-4-26.8-7.2c-7.2,5.8-15,10.9-23.1,15.4c8.6,2.8,17.5,4.6,26.6,5.6
			C123.3,480.1,131.1,475.4,138.4,470.1"/>
		<path class="st0" d="M157.1,406.1c-5.3,0.4-10.3,0.7-15,0.7c1.5,4.5,3.3,8.9,5.3,13.1c4.7,0.4,9.5,0.5,14.2,0.4
			C160.1,416,158.6,411.1,157.1,406.1"/>
		<path class="st0" d="M147.6,325.4c0,0.4,0.1,0.9,0.1,1.3s0,0.9,0.1,1.3l1.2-1.4L147.6,325.4"/>
		<path class="st0" d="M122.2,236.8c0.3-0.7,0-1.5-0.8-1.9l-6-2.6c-0.7-0.3-1.5,0-1.8,0.8l-2.9,6.8c-0.3,0.7,0,1.5,0.7,1.8
			c0,0,0,0,0,0l2.4,1c0.9,0.4,1.9,0.3,2.7-0.3l4.1-3c0.4-0.3,0.7-0.7,0.9-1.1L122.2,236.8z"/>
		<path class="st0" d="M106.7,193.5c-1.3-8.4-2.6-17.1-3.7-25.9c-7.2,0.4-14.2,0.6-21,0.7c1.7,8.8,3.6,17.3,5.8,25.1
			C94,193.7,100.3,193.7,106.7,193.5"/>
		<path class="st0" d="M87,200.8c5.9,2,11.7,4.2,17.3,6.7l-0.3-3.3c-3.3-1.4-6.6-2.7-9.9-4L87,200.8z"/>
		<path class="st0" d="M109.2,364.6c-0.8,0.6-1.2,1.6-1.1,2.6l0.3,2.7c0.1,0.8,0.8,1.4,1.6,1.3c0,0,0,0,0,0l7.8-0.8
			c0.8-0.1,1.4-0.8,1.3-1.6c0,0,0,0,0,0l-0.7-6.8c-0.1-0.8-0.8-1.4-1.6-1.3c0,0,0,0,0,0l-1.8,0.2c-0.5,0-1,0.2-1.4,0.5L109.2,364.6z
			"/>
		<path class="st0" d="M133.3,443.5c3.7,1.2,7.7-0.8,9-4.5c1.2-3.7-0.8-7.7-4.5-9c-3.7-1.2-7.7,0.8-8.9,4.5
			C127.6,438.3,129.6,442.3,133.3,443.5C133.3,443.5,133.3,443.5,133.3,443.5"/>
		<path class="st0" d="M76.5,441c-0.4-0.2-1.8,1.5-3.9,5.2c0.5,0.2,1.1,0.4,1.6,0.6s1,0.4,1.6,0.7C76.7,443.4,76.9,441.2,76.5,441"
			/>
		<path class="st0" d="M229,168.5c1.6-1,3.3-2,4.9-2.9c3,2.2,5.8,4.5,8.5,7.1c-2.1,1.2-4.3,2.4-6.4,3.8
			C233.6,173.6,231.2,170.9,229,168.5"/>
		<path class="st0" d="M165.6,315.8c-1.6,1-3.3,2-4.9,2.9c-3-2.2-5.8-4.5-8.5-7.1c2.1-1.2,4.3-2.4,6.4-3.8
			C161,310.7,163.4,313.4,165.6,315.8"/>
		<path class="st0" d="M229,315.8c1.6,1,3.3,2,4.9,2.9c3-2.2,5.8-4.5,8.5-7.1c-2.1-1.2-4.3-2.4-6.4-3.8
			C233.6,310.7,231.2,313.4,229,315.8"/>
		<path class="st0" d="M227.8,215.1c-0.9-0.3-1.5-1.1-1.7-1.9l-0.5-2.4c-0.1-0.7,0.3-1.4,1.1-1.6l6.9-1.3c0.7-0.1,1.4,0.3,1.6,1.1
			c0,0,0,0,0,0l1.1,6.1c0.1,0.7-0.3,1.4-1.1,1.6c0,0,0,0,0,0l-1.6,0.3c-0.5,0.1-0.9,0-1.4-0.1L227.8,215.1z"/>
		<path class="st0" d="M166.8,269.3c0.9,0.3,1.5,1.1,1.7,2l0.4,2.4c0.1,0.7-0.3,1.4-1.1,1.6l-6.9,1.3c-0.7,0.1-1.4-0.3-1.6-1.1
			l-1.1-6.1c-0.1-0.7,0.3-1.4,1.1-1.6l1.6-0.3c0.5-0.1,0.9-0.1,1.4,0.1L166.8,269.3z"/>
		<path class="st0" d="M227.8,269.3c-0.9,0.3-1.5,1.1-1.7,2l-0.5,2.4c-0.1,0.7,0.3,1.4,1.1,1.6c0,0,0,0,0,0l6.9,1.3
			c0.7,0.1,1.4-0.3,1.6-1.1c0,0,0,0,0,0l1.1-6.1c0.1-0.7-0.3-1.4-1.1-1.6l-1.6-0.3c-0.5-0.1-0.9-0.1-1.4,0.1L227.8,269.3z"/>
		<path class="st0" d="M253.3,245.8c-0.2-0.3-0.5-0.6-0.7-0.8l1.1,0.1c0,0.1,0,0.3-0.1,0.4S253.4,245.7,253.3,245.8"/>
		<path class="st0" d="M141.4,238.5c0.2,0.3,0.4,0.6,0.7,0.9l-1.1-0.1c0-0.1,0-0.3,0.1-0.4C141.1,238.7,141.3,238.6,141.4,238.5"/>
		<path class="st0" d="M253.3,238.5c-0.2,0.3-0.5,0.6-0.7,0.9l1.1-0.1c0-0.1,0-0.3-0.1-0.4S253.4,238.6,253.3,238.5"/>
		<path class="st0" d="M350.1,292c-1.9-5.1-3.2-10.4-4-15.8c9.4-10.9,21.6-19,35.2-23.7c4.7,2.8,9.1,6,13.1,9.7
			C377.6,268.8,362.5,278.9,350.1,292"/>
		<path class="st0" d="M44.5,192.4c1.9,5.1,3.2,10.4,4.1,15.8c-4.7,5.4-10.1,10.2-16,14.2c-5.9,4-12.4,7.2-19.1,9.5
			c-4.7-2.8-9.1-6-13.1-9.7c8.4-3.2,16.3-7.4,23.8-12.4C31.6,204.7,38.4,198.9,44.5,192.4"/>
		<path class="st0" d="M350.1,192.4c-1.9,5.1-3.2,10.4-4,15.8c9.4,10.9,21.5,19,35.2,23.7c4.7-2.8,9.1-6,13.1-9.7
			C377.6,215.6,362.5,205.4,350.1,192.4"/>
		<path class="st0" d="M362.5,478.6v-0.2l0.1,0.1L362.5,478.6"/>
		<path class="st0" d="M32.2,5.7v0.2l-0.1-0.1C32.1,5.8,32.1,5.7,32.2,5.7"/>
		<path class="st0" d="M362.5,5.7v0.2l0.1-0.1C362.6,5.8,362.6,5.8,362.5,5.7"/>
		<path class="st0" d="M256.2,470.1c9.1-1.6,18.1-4,26.8-7.2c7.2,5.8,15,10.9,23.1,15.4c-8.6,2.8-17.5,4.6-26.6,5.6
			C271.3,480.1,263.5,475.4,256.2,470.1"/>
		<path class="st0" d="M138.4,14.3c-9.1,1.6-18.1,4-26.8,7.2c-7.2-5.8-15-10.9-23.1-15.4c8.6-2.8,17.5-4.7,26.6-5.6
			C123.3,4.3,131.1,8.9,138.4,14.3"/>
		<path class="st0" d="M256.2,14.3c9.1,1.6,18.1,4,26.8,7.2c7.3-5.8,15-10.9,23.2-15.4c-8.6-2.8-17.5-4.7-26.6-5.6
			C271.4,4.3,263.5,8.9,256.2,14.3"/>
		<path class="st0" d="M237.5,406.1c5.3,0.4,10.3,0.7,15,0.7c-1.5,4.5-3.3,8.9-5.3,13.1c-4.7,0.4-9.5,0.5-14.2,0.4
			C234.6,416,236.1,411.1,237.5,406.1"/>
		<path class="st0" d="M157.1,78.2c-5.3-0.4-10.3-0.7-15-0.7c1.5-4.5,3.3-8.9,5.3-13.2c4.7-0.4,9.5-0.5,14.2-0.4
			C160.1,68.4,158.6,73.2,157.1,78.2"/>
		<path class="st0" d="M237.5,78.2c5.3-0.4,10.3-0.7,15-0.7c-1.5-4.5-3.3-8.9-5.3-13.2c-4.7-0.4-9.5-0.5-14.2-0.4
			C234.6,68.4,236.1,73.2,237.5,78.2"/>
		<path class="st0" d="M247,325.4c0,0.4-0.1,0.9-0.1,1.3s-0.1,0.9-0.1,1.3l-1.2-1.4L247,325.4"/>
		<path class="st0" d="M147.6,159c0-0.4,0.1-0.9,0.1-1.3s0-0.9,0.1-1.3c0.4,0.5,0.8,0.9,1.2,1.4C148.6,158.2,148.1,158.6,147.6,159"
			/>
		<path class="st0" d="M247,159c0-0.4-0.1-0.9-0.1-1.3s-0.1-0.9-0.1-1.3c-0.4,0.5-0.8,0.9-1.2,1.4C246.1,158.2,246.5,158.6,247,159"
			/>
		<path class="st0" d="M272.5,236.8c-0.3-0.7,0-1.5,0.7-1.8c0,0,0,0,0,0l6-2.6c0.7-0.3,1.5,0,1.8,0.7c0,0,0,0,0,0l2.9,6.8
			c0.3,0.7,0,1.5-0.7,1.8c0,0,0,0,0,0l-2.4,1c-0.9,0.4-1.9,0.3-2.7-0.3l-4.1-3c-0.4-0.3-0.7-0.7-0.9-1.1L272.5,236.8z"/>
		<path class="st0" d="M122.2,247.5c0.3,0.7,0,1.5-0.7,1.8c0,0,0,0,0,0l-6,2.6c-0.7,0.3-1.5,0-1.8-0.7l-2.9-6.8
			c-0.3-0.7,0-1.5,0.7-1.8c0,0,0,0,0,0l2.4-1c0.9-0.4,1.9-0.3,2.7,0.3l4.1,3c0.4,0.3,0.7,0.7,0.9,1.1L122.2,247.5z"/>
		<path class="st0" d="M272.5,247.5c-0.3,0.7,0,1.5,0.7,1.8c0,0,0,0,0,0l6,2.6c0.7,0.3,1.5,0,1.9-0.7l2.9-6.8c0.3-0.7,0-1.5-0.7-1.8
			c0,0,0,0,0,0l-2.4-1c-0.9-0.4-1.9-0.3-2.7,0.3l-4.1,3c-0.4,0.3-0.7,0.7-0.9,1.1L272.5,247.5z"/>
		<path class="st0" d="M287.9,193.5c1.3-8.4,2.6-17.1,3.7-25.9c7.2,0.4,14.2,0.6,20.9,0.7c-1.7,8.8-3.6,17.3-5.8,25.1
			C300.6,193.7,294.3,193.7,287.9,193.5"/>
		<path class="st0" d="M106.7,290.9c-1.3,8.4-2.6,17.1-3.7,25.9c-7.2-0.4-14.2-0.6-21-0.7c1.7-8.8,3.6-17.2,5.8-25.1
			C94,290.7,100.3,290.7,106.7,290.9"/>
		<path class="st0" d="M287.9,290.9c1.3,8.4,2.6,17.1,3.7,25.9c7.2-0.4,14.2-0.6,20.9-0.7c-1.7-8.8-3.6-17.2-5.8-25.1
			C300.6,290.7,294.3,290.7,287.9,290.9"/>
		<path class="st0" d="M307.6,200.8c-5.9,2-11.7,4.2-17.3,6.7l0.3-3.3c3.2-1.4,6.6-2.7,9.9-4L307.6,200.8z"/>
		<path class="st0" d="M87,283.5c5.9-2,11.7-4.2,17.3-6.7l-0.3,3.3c-3.3,1.4-6.6,2.7-9.9,4L87,283.5z"/>
		<path class="st0" d="M307.6,283.5c-5.9-2-11.7-4.2-17.3-6.7l0.3,3.3c3.2,1.4,6.6,2.7,9.9,4L307.6,283.5z"/>
		<path class="st0" d="M285.5,364.6c0.8,0.6,1.2,1.6,1.1,2.6l-0.3,2.7c-0.1,0.8-0.8,1.4-1.6,1.3l-7.8-0.8c-0.8-0.1-1.4-0.8-1.3-1.6
			c0,0,0,0,0,0l0.7-6.8c0.1-0.8,0.8-1.4,1.6-1.3c0,0,0,0,0,0l1.8,0.2c0.5,0.1,1,0.2,1.4,0.5L285.5,364.6z"/>
		<path class="st0" d="M109.2,119.7c-0.8-0.6-1.2-1.6-1.1-2.6l0.3-2.7c0.1-0.8,0.8-1.4,1.6-1.3c0,0,0,0,0,0l7.8,0.8
			c0.8,0.1,1.4,0.8,1.3,1.6l-0.7,6.8c-0.1,0.8-0.8,1.4-1.6,1.3l-1.8-0.2c-0.5-0.1-1-0.2-1.4-0.6L109.2,119.7z"/>
		<path class="st0" d="M285.5,119.7c0.8-0.6,1.2-1.6,1.1-2.6l-0.3-2.7c-0.1-0.8-0.8-1.4-1.6-1.3l-7.8,0.8c-0.8,0.1-1.4,0.8-1.3,1.6
			l0.7,6.8c0.1,0.8,0.8,1.4,1.6,1.3l1.8-0.2c0.5-0.1,1-0.3,1.4-0.6L285.5,119.7z"/>
		<path class="st0" d="M261.4,443.5c-3.7,1.2-7.7-0.8-9-4.5c-1.2-3.7,0.8-7.7,4.5-9c3.7-1.2,7.7,0.8,8.9,4.5
			C267.1,438.3,265.1,442.3,261.4,443.5C261.4,443.5,261.4,443.5,261.4,443.5"/>
		<path class="st0" d="M133.3,40.8c3.7-1.2,7.7,0.8,9,4.5s-0.8,7.7-4.5,9c-3.7,1.2-7.7-0.8-8.9-4.5
			C127.6,46.1,129.6,42.1,133.3,40.8C133.3,40.8,133.3,40.8,133.3,40.8"/>
		<path class="st0" d="M261.4,40.8c-3.7-1.2-7.7,0.8-9,4.5c-1.2,3.7,0.8,7.7,4.5,9c3.7,1.2,7.7-0.8,8.9-4.5
			C267.1,46.1,265.1,42.1,261.4,40.8C261.4,40.8,261.4,40.8,261.4,40.8"/>
		<path class="st0" d="M318.2,441c0.4-0.2,1.9,1.5,4,5.2c-0.5,0.2-1,0.4-1.6,0.6s-1,0.4-1.5,0.7C318,443.4,317.8,441.2,318.2,441"/>
		<path class="st0" d="M76.5,43.3c-0.4,0.2-1.8-1.5-3.9-5.2c0.5-0.2,1.1-0.4,1.6-0.6s1-0.4,1.6-0.7C76.7,40.9,76.9,43.1,76.5,43.3"
			/>
		<path class="st0" d="M318.2,43.3c0.4,0.2,1.9-1.5,4-5.2c-0.5-0.2-1-0.4-1.6-0.6s-1-0.4-1.5-0.7C318,40.9,317.8,43.1,318.2,43.3"/>
	</g>
</g>
</svg>
