<?xml version="1.0" encoding="utf-8"?>
<!-- Generator: Adobe Illustrator 23.0.6, SVG Export Plug-In . SVG Version: 6.00 Build 0)  -->
<svg version="1.1" id="Layer_1" xmlns="http://www.w3.org/2000/svg" xmlns:xlink="http://www.w3.org/1999/xlink" x="0px" y="0px"
	 viewBox="0 0 414 552" style="enable-background:new 0 0 414 552;" xml:space="preserve">
<style type="text/css">
	.st0{fill:none;stroke:#FFFFFF;stroke-width:2.6334;}
</style>
<path class="st0" d="M5,166.2l22.6,0"/>
<path class="st0" d="M27.6,166.1l27.6,0"/>
<path class="st0" d="M55.2,166.2l27.6-0.1"/>
<path class="st0" d="M82.8,166.3l27.6,0.1"/>
<path class="st0" d="M110.4,165.9l27.6,0.5"/>
<path class="st0" d="M138,166l27.6-0.3"/>
<path class="st0" d="M165.6,165.1l27.6,1.8"/>
<path class="st0" d="M193.2,166.6l27.6,0.8"/>
<path class="st0" d="M220.8,166.2l27.6-2.7"/>
<path class="st0" d="M248.4,164.9l27.6,7.4"/>
<path class="st0" d="M276,171.5l27.6-10.9"/>
<path class="st0" d="M303.6,162.3l27.6-4"/>
<path class="st0" d="M331.2,169.2l27.6-1.7"/>
<path class="st0" d="M360.4,168.7l26-6.5"/>
<path class="st0" d="M386.4,172.4l22.6-2.8"/>
<path class="st0" d="M5,175.1l22.6,0"/>
<path class="st0" d="M27.6,175.1l27.6-0.1"/>
<path class="st0" d="M55.2,175l27.6,0"/>
<path class="st0" d="M82.8,175.2l27.6-0.3"/>
<path class="st0" d="M110.4,174.8l27.6-0.1"/>
<path class="st0" d="M138,175.6l27.6-0.3"/>
<path class="st0" d="M165.6,175.7l27.6-0.8"/>
<path class="st0" d="M193.2,174.6l27.6,2"/>
<path class="st0" d="M220.8,174.6l27.6,0.9"/>
<path class="st0" d="M248.4,171.5l27.6,1.1"/>
<path class="st0" d="M276,176.5l27.6,7.7"/>
<path class="st0" d="M303.6,167.9l21.3,14.2"/>
<path class="st0" d="M331.2,174.6l27.6,8.2"/>
<path class="st0" d="M358.8,168.1l27.6,11.7"/>
<path class="st0" d="M386.4,177.8l22.6-4"/>
<path class="st0" d="M5,183.9l22.6,0"/>
<path class="st0" d="M27.6,184l27.6,0"/>
<path class="st0" d="M55.2,184l27.6-0.1"/>
<path class="st0" d="M82.8,183.9l27.6,0.2"/>
<path class="st0" d="M110.4,184.1l27.6-0.6"/>
<path class="st0" d="M138,183.7l27.6,0"/>
<path class="st0" d="M165.6,183.9l27.6,1.1"/>
<path class="st0" d="M193.2,183.3l27.6,1.1"/>
<path class="st0" d="M220.8,182.3l27.6,2.9"/>
<path class="st0" d="M248.4,185.8l27.6-7.1"/>
<path class="st0" d="M276,179.1l18.2,7.3"/>
<path class="st0" d="M303.6,187.5l27.6-6.8"/>
<path class="st0" d="M358.8,183l27.6,4.7"/>
<path class="st0" d="M386.4,183.7l22.6,1.1"/>
<path class="st0" d="M5,192.9l22.6,0"/>
<path class="st0" d="M27.6,192.8l27.6,0"/>
<path class="st0" d="M55.2,192.9l27.6-0.1"/>
<path class="st0" d="M82.8,192.8l27.6,0.1"/>
<path class="st0" d="M110.4,192.8l27.6,0.5"/>
<path class="st0" d="M138,192.8l27.6-0.3"/>
<path class="st0" d="M165.6,193.4l27.6-0.8"/>
<path class="st0" d="M193.2,192l27.6,3"/>
<path class="st0" d="M220.8,193.2l27.6,2.8"/>
<path class="st0" d="M248.4,193.5l27.6-5"/>
<path class="st0" d="M276,187.7l27.6-1.7"/>
<path class="st0" d="M303.6,194.3l27.6-12.6"/>
<path class="st0" d="M331.2,188.6l27.6-0.8"/>
<path class="st0" d="M358.8,190.5l27.6-2.5"/>
<path class="st0" d="M386.4,186.4l22.6,2.5"/>
<path class="st0" d="M5,201.8l22.6,0"/>
<path class="st0" d="M27.6,201.8l27.6,0"/>
<path class="st0" d="M55.2,201.8l27.6,0"/>
<path class="st0" d="M82.8,201.7l27.6,0.1"/>
<path class="st0" d="M110.4,201.6l27.6,0.3"/>
<path class="st0" d="M138,201.7l27.6,0.7"/>
<path class="st0" d="M165.6,201.9l27.6-1.1"/>
<path class="st0" d="M193.2,201.6l27.6,0.7"/>
<path class="st0" d="M220.8,202l27.6,0.3"/>
<path class="st0" d="M248.4,204.3l27.6,1.8"/>
<path class="st0" d="M276,203.1l27.6-9.4"/>
<path class="st0" d="M303.6,198.9l17,8.4"/>
<path class="st0" d="M331.2,200.1l27.6,1"/>
<path class="st0" d="M358.8,191.7l27.6,5.9"/>
<path class="st0" d="M386.4,205.9l22.6-7.1"/>
<path class="st0" d="M5,210.7l22.6,0"/>
<path class="st0" d="M27.6,210.7l27.6,0"/>
<path class="st0" d="M55.2,210.7l27.6-0.1"/>
<path class="st0" d="M82.8,210.7l27.6,0.2"/>
<path class="st0" d="M110.4,210.5l27.6,0.4"/>
<path class="st0" d="M138,211l27.6-0.8"/>
<path class="st0" d="M165.6,211.4l27.6,0.5"/>
<path class="st0" d="M193.2,210.7l27.6,1.6"/>
<path class="st0" d="M220.8,208.7l27.6,0.8"/>
<path class="st0" d="M248.4,207.8l27.6,3"/>
<path class="st0" d="M276,212.2l27.6-2.7"/>
<path class="st0" d="M303.6,214l27.6-10.5"/>
<path class="st0" d="M331.2,210.5l27.6-3.9"/>
<path class="st0" d="M358.8,204l27.6,9.7"/>
<path class="st0" d="M386.4,208.5l22.6,2.2"/>
<path class="st0" d="M5,219.6l22.6,0"/>
<path class="st0" d="M27.6,219.6l27.6,0"/>
<path class="st0" d="M55.2,219.6l27.6,0.1"/>
<path class="st0" d="M82.8,219.5l27.6,0"/>
<path class="st0" d="M110.4,219.8l27.6-0.5"/>
<path class="st0" d="M138,219.5l27.6-0.1"/>
<path class="st0" d="M165.6,219l27.6,1.6"/>
<path class="st0" d="M193.2,220.4l27.6-3.1"/>
<path class="st0" d="M220.8,217.6l27.6,5"/>
<path class="st0" d="M248.4,223.1l27.6-3.6"/>
<path class="st0" d="M276,222.5l27.6-9.2"/>
<path class="st0" d="M303.6,221.5l27.6-2.1"/>
<path class="st0" d="M336,222.2l22.8-10.4"/>
<path class="st0" d="M358.8,225.6l27.6-6.6"/>
<path class="st0" d="M386.4,212.9l22.6,3.8"/>
<path class="st0" d="M5,228.5l22.6,0"/>
<path class="st0" d="M27.6,228.5l27.6,0"/>
<path class="st0" d="M55.2,228.5l27.6,0.1"/>
<path class="st0" d="M82.8,228.6l27.6,0"/>
<path class="st0" d="M110.4,228.4l27.6,0.3"/>
<path class="st0" d="M138,228.3l27.6,0.4"/>
<path class="st0" d="M165.6,228.7l27.6-1.5"/>
<path class="st0" d="M193.2,229.7l27.6,0.6"/>
<path class="st0" d="M220.8,227.8l27.6,3.7"/>
<path class="st0" d="M248.4,231.6l27.6-1"/>
<path class="st0" d="M276,226.2l27.6-0.8"/>
<path class="st0" d="M303.6,228.9l27.6-6.4"/>
<path class="st0" d="M331.2,222.6l27.6-1.8"/>
<path class="st0" d="M369.7,231.8l16.7-8"/>
<path class="st0" d="M386.4,227.2l22.6,3"/>
<path class="st0" d="M5,237.4l22.6,0"/>
<path class="st0" d="M27.6,237.4l27.6,0"/>
<path class="st0" d="M55.2,237.4l27.6,0.1"/>
<path class="st0" d="M82.8,237.3l27.6,0"/>
<path class="st0" d="M110.4,237.3l27.6,0.1"/>
<path class="st0" d="M138,237.1l27.6,0"/>
<path class="st0" d="M165.6,236.9l27.6,1.7"/>
<path class="st0" d="M193.2,237.3l27.6-2"/>
<path class="st0" d="M220.8,237l27.6-0.3"/>
<path class="st0" d="M248.4,235.5l27.6-3.6"/>
<path class="st0" d="M276,235.6l27.6-5.1"/>
<path class="st0" d="M303.6,236.3l27.6-6.8"/>
<path class="st0" d="M331.2,240.5l27.6-13.6"/>
<path class="st0" d="M358.8,232.7l27.6-1.6"/>
<path class="st0" d="M386.4,238.5L409,239"/>
<path class="st0" d="M5,246.3l22.6,0"/>
<path class="st0" d="M27.6,246.3l27.6,0"/>
<path class="st0" d="M55.2,246.3l27.6,0"/>
<path class="st0" d="M82.8,246.4l27.6-0.1"/>
<path class="st0" d="M110.4,246.2l27.6,0.4"/>
<path class="st0" d="M138,246.2l27.6,0.4"/>
<path class="st0" d="M165.6,245.7l27.6,1.4"/>
<path class="st0" d="M193.2,246.4l27.6,1.6"/>
<path class="st0" d="M220.8,245.7l27.6,2.6"/>
<path class="st0" d="M248.4,249.5l27.6-2.3"/>
<path class="st0" d="M276,251.1l27.6-6"/>
<path class="st0" d="M303.6,246.7l27.6-9.9"/>
<path class="st0" d="M331.2,240.6l17.5,6.9"/>
<path class="st0" d="M383.3,250.2l3.1-0.2"/>
<path class="st0" d="M386.4,249.8l22.6-2.3"/>
<path class="st0" d="M5,255.2l22.6,0"/>
<path class="st0" d="M27.6,255.2l27.6,0"/>
<path class="st0" d="M55.2,255.2l27.6,0"/>
<path class="st0" d="M82.8,255.2l27.6,0.1"/>
<path class="st0" d="M110.4,255.3l27.6-0.4"/>
<path class="st0" d="M138,255.4l27.6-0.8"/>
<path class="st0" d="M165.6,255.8l27.6-1.3"/>
<path class="st0" d="M193.2,256.2l27.6-2"/>
<path class="st0" d="M220.8,254.6l27.6,2.7"/>
<path class="st0" d="M248.4,253.3l27.6,2.2"/>
<path class="st0" d="M276,252.2l27.6,0.1"/>
<path class="st0" d="M303.6,259.7l27.6-16.9"/>
<path class="st0" d="M331.2,250.7l27.6-4.5"/>
<path class="st0" d="M358.8,248.1l27.6,2.6"/>
<path class="st0" d="M386.4,255.6L409,253"/>
<path class="st0" d="M5,264.1l22.6,0"/>
<path class="st0" d="M27.6,264.1l27.6,0"/>
<path class="st0" d="M55.2,264.1l27.6,0"/>
<path class="st0" d="M82.8,264.2l27.6,0"/>
<path class="st0" d="M110.4,264.1l27.6-0.2"/>
<path class="st0" d="M138,264.4l27.6,0.1"/>
<path class="st0" d="M165.6,264.6l27.6,0"/>
<path class="st0" d="M193.2,263.7l27.6,1.3"/>
<path class="st0" d="M220.8,263.4l27.6,2.6"/>
<path class="st0" d="M248.4,263.9l27.6-0.6"/>
<path class="st0" d="M276,265l27.6-8.4"/>
<path class="st0" d="M308.4,267.7l22.8-9"/>
<path class="st0" d="M331.2,274.7l27.6-10.8"/>
<path class="st0" d="M358.8,266.1l27.6-6"/>
<path class="st0" d="M386.4,269.5l22.6-3.7"/>
<path class="st0" d="M5,273l22.6,0"/>
<path class="st0" d="M27.6,273l27.6,0"/>
<path class="st0" d="M55.2,273l27.6,0"/>
<path class="st0" d="M82.8,273l27.6,0"/>
<path class="st0" d="M110.4,272.9l27.6,0.3"/>
<path class="st0" d="M138,273l27.6,0.2"/>
<path class="st0" d="M165.6,272.8l27.6,0.7"/>
<path class="st0" d="M193.2,273.9l27.6-2.2"/>
<path class="st0" d="M220.8,272.4l27.6-2.1"/>
<path class="st0" d="M248.4,269.9l27.6,4.2"/>
<path class="st0" d="M276,272.8l27.6-2"/>
<path class="st0" d="M303.6,268l27.6-1"/>
<path class="st0" d="M331.2,274.9l27.6,3.5"/>
<path class="st0" d="M358.8,274.4l27.6-8.6"/>
<path class="st0" d="M386.4,277.2l22.6-4.9"/>
<path class="st0" d="M5,281.9l22.6,0"/>
<path class="st0" d="M27.6,281.9l27.6,0"/>
<path class="st0" d="M55.2,281.9l27.6,0"/>
<path class="st0" d="M82.8,282l27.6,0"/>
<path class="st0" d="M110.4,281.9l27.6-0.1"/>
<path class="st0" d="M138,281.7l27.6,0.1"/>
<path class="st0" d="M165.6,282.2l27.6-0.6"/>
<path class="st0" d="M193.2,282.7l27.6,0.2"/>
<path class="st0" d="M220.8,282.1l27.6-3.1"/>
<path class="st0" d="M248.4,278.7l27.6-1.2"/>
<path class="st0" d="M276,277.8l27.6,2.7"/>
<path class="st0" d="M303.6,279.4l22.2,11.5"/>
<path class="st0" d="M331.2,285.1l27.6-2"/>
<path class="st0" d="M358.8,278.3l27.6,1.6"/>
<path class="st0" d="M386.4,277.3l22.6,3.8"/>
<path class="st0" d="M5,290.8l22.6,0"/>
<path class="st0" d="M27.6,290.8l27.6,0"/>
<path class="st0" d="M55.2,290.8l27.6,0"/>
<path class="st0" d="M82.8,290.8l27.6,0"/>
<path class="st0" d="M110.4,290.8l27.6,0.2"/>
<path class="st0" d="M138,291.1l27.6-0.2"/>
<path class="st0" d="M165.6,290.6l27.6,0.5"/>
<path class="st0" d="M193.2,289.7l27.6-0.8"/>
<path class="st0" d="M220.8,290.4l27.6-1.9"/>
<path class="st0" d="M248.4,289l27.6,2"/>
<path class="st0" d="M276,290.6l17.8,3.9"/>
<path class="st0" d="M303.6,296.9l18.1-3.2"/>
<path class="st0" d="M331.3,297.4l27.5-11"/>
<path class="st0" d="M358.8,295.8l24.7-1.8"/>
<path class="st0" d="M386.4,294.5l22.6-5.2"/>
<path class="st0" d="M5,299.7l22.6,0"/>
<path class="st0" d="M27.6,299.7l27.6,0.1"/>
<path class="st0" d="M55.2,299.7l27.6,0"/>
<path class="st0" d="M82.8,299.8l27.6-0.2"/>
<path class="st0" d="M110.4,299.8l27.6,0"/>
<path class="st0" d="M138,299.6l27.6-0.3"/>
<path class="st0" d="M165.6,300.1l27.6-0.7"/>
<path class="st0" d="M193.2,299.4l27.6-1.2"/>
<path class="st0" d="M220.8,301.1l27.6-1.5"/>
<path class="st0" d="M248.4,301l27.6,2.9"/>
<path class="st0" d="M276,297.3l27.6-3.7"/>
<path class="st0" d="M303.6,307.8l27.6-20.5"/>
<path class="st0" d="M331.2,297.3l5.4,2.2"/>
<path class="st0" d="M358.8,306.3l27.6-13.5"/>
<path class="st0" d="M386.4,303.5l22.6-3.2"/>
<path class="st0" d="M5,308.6l22.6,0"/>
<path class="st0" d="M27.6,308.6l27.6,0"/>
<path class="st0" d="M55.2,308.6l27.6,0.1"/>
<path class="st0" d="M82.8,308.6l27.6,0.2"/>
<path class="st0" d="M110.4,308.5l27.6,0.1"/>
<path class="st0" d="M138,308.7l27.6-0.6"/>
<path class="st0" d="M165.6,308l27.6,0.1"/>
<path class="st0" d="M193.2,307.7l27.6,0.1"/>
<path class="st0" d="M220.8,309.5l27.6-2.9"/>
<path class="st0" d="M248.4,306.5l27.6,1.9"/>
<path class="st0" d="M276,307.5l27.6-5.1"/>
<path class="st0" d="M303.6,309.8l25.3-0.4"/>
<path class="st0" d="M331.2,299.9l27.6-0.5"/>
<path class="st0" d="M367.9,316l18.5,0.1"/>
<path class="st0" d="M393.6,312.8l15.4-5.4"/>
<path class="st0" d="M5,317.5l22.6,0"/>
<path class="st0" d="M27.6,317.6l27.6-0.1"/>
<path class="st0" d="M55.2,317.5l27.6-0.1"/>
<path class="st0" d="M82.8,317.4l27.6,0.1"/>
<path class="st0" d="M110.4,317.7l27.6,0.2"/>
<path class="st0" d="M138,317.2l27.6,0.6"/>
<path class="st0" d="M165.6,317.4l27.6,0.8"/>
<path class="st0" d="M193.2,317.3l27.6-1.5"/>
<path class="st0" d="M220.8,318.3l27.6-1.3"/>
<path class="st0" d="M248.4,316.5l27.6,3.5"/>
<path class="st0" d="M276,312.6l27.6,6.7"/>
<path class="st0" d="M303.6,322.3l27.6-13.9"/>
<path class="st0" d="M331.2,307.2l27.6,5.1"/>
<path class="st0" d="M358.8,313.2l27.6,9.8"/>
<path class="st0" d="M386.4,312.9l22.6,0.7"/>
<path class="st0" d="M5,326.4l22.6,0"/>
<path class="st0" d="M27.6,326.5l27.6,0"/>
<path class="st0" d="M55.2,326.5l27.6-0.2"/>
<path class="st0" d="M82.8,326.6l27.6-0.2"/>
<path class="st0" d="M110.4,326.2l27.6,0.3"/>
<path class="st0" d="M138,326.5l27.6-0.7"/>
<path class="st0" d="M165.6,325.8l27.6,1.4"/>
<path class="st0" d="M193.2,327.3l27.6-3.1"/>
<path class="st0" d="M220.8,325.5l27.6-1.6"/>
<path class="st0" d="M248.4,326.8L276,331"/>
<path class="st0" d="M276,326.8l27.6-5.7"/>
<path class="st0" d="M303.6,323.4l27.6,2.2"/>
<path class="st0" d="M331.2,320.2l27.6,13.8"/>
<path class="st0" d="M376.5,329.7l9.9-3.3"/>
<path class="st0" d="M386.4,326.2l22.6,3.5"/>
<path class="st0" d="M5,335.3l22.6,0"/>
<path class="st0" d="M27.6,335.4l27.6-0.1"/>
<path class="st0" d="M55.2,335.3l27.6-0.1"/>
<path class="st0" d="M82.8,335.5l27.6,0.1"/>
<path class="st0" d="M110.4,335.1L138,335"/>
<path class="st0" d="M138,335.6l27.6,0.4"/>
<path class="st0" d="M165.6,335.5l27.6,1.1"/>
<path class="st0" d="M193.2,335.5l27.6,0.8"/>
<path class="st0" d="M220.8,336.5l27.6-1"/>
<path class="st0" d="M248.4,332.1l27.6,7.2"/>
<path class="st0" d="M276,339.1l27.6-10.5"/>
<path class="st0" d="M303.6,336.6l27.6,2"/>
<path class="st0" d="M331.2,327.9l23.7,8"/>
<path class="st0" d="M358.8,333.4l27.6-5.1"/>
<path class="st0" d="M386.4,337.5l22.6-4.8"/>
<path class="st0" d="M5,344.2l22.6,0"/>
<path class="st0" d="M27.6,344.2l27.6-0.1"/>
<path class="st0" d="M55.2,344.3l27.6-0.1"/>
<path class="st0" d="M82.8,344.1l27.6,0.5"/>
<path class="st0" d="M110.4,344.1l27.6-0.3"/>
<path class="st0" d="M138,344.7l27.6-0.4"/>
<path class="st0" d="M165.6,344.3l27.6-1"/>
<path class="st0" d="M193.2,344.8l27.6-0.3"/>
<path class="st0" d="M220.8,345.4l27.6,0.5"/>
<path class="st0" d="M248.4,345.6l27.6-0.4"/>
<path class="st0" d="M276,344.5l27.6,6.7"/>
<path class="st0" d="M303.6,350.6l16.9,0.8"/>
<path class="st0" d="M334.3,345l24.5-10.5"/>
<path class="st0" d="M358.8,352.1l27.6-1.8"/>
<path class="st0" d="M386.4,340.4l22.6,2.2"/>
<path class="st0" d="M5,353.2l22.6,0"/>
<path class="st0" d="M27.6,353.1l27.6,0"/>
<path class="st0" d="M55.2,353.2l27.6-0.2"/>
<path class="st0" d="M82.8,353l27.6,0.3"/>
<path class="st0" d="M110.4,353.2l27.6,0"/>
<path class="st0" d="M138,353.5l27.6-0.1"/>
<path class="st0" d="M165.6,353.3l27.6-0.4"/>
<path class="st0" d="M193.2,354.5l27.6-3.3"/>
<path class="st0" d="M220.8,355.1l27.6-2.2"/>
<path class="st0" d="M248.4,351.8l27.6,2.3"/>
<path class="st0" d="M276,357.9l27.6-6.1"/>
<path class="st0" d="M303.6,357.6l27.6-9.3"/>
<path class="st0" d="M331.2,344.6l27.6,4.7"/>
<path class="st0" d="M358.8,356.2l27.6-2.1"/>
<path class="st0" d="M386.4,348.6l22.6,2.1"/>
<path class="st0" d="M5,362l22.6,0"/>
<path class="st0" d="M27.6,362.1l27.6,0"/>
<path class="st0" d="M55.2,362.1l27.6,0.2"/>
<path class="st0" d="M82.8,362.1l27.6-0.1"/>
<path class="st0" d="M110.4,361.9l27.6,0.8"/>
<path class="st0" d="M138,361.7l27.6,1.1"/>
<path class="st0" d="M165.6,362.7l27.6,1"/>
<path class="st0" d="M193.2,363.1l27.6,0.9"/>
<path class="st0" d="M220.8,361l27.6-2.1"/>
<path class="st0" d="M248.4,361.9l27.6,3.6"/>
<path class="st0" d="M276,359.5l27.1,8.8"/>
<path class="st0" d="M304.2,371.2l27-12.9"/>
<path class="st0" d="M331.2,367l27.6-13.3"/>
<path class="st0" d="M363,365.6l23.4-1.5"/>
<path class="st0" d="M386.4,355.5l22.6,3.1"/>
<path class="st0" d="M5,370.9l22.6,0"/>
<path class="st0" d="M27.6,371l27.6-0.2"/>
<path class="st0" d="M55.2,371l27.6-0.3"/>
<path class="st0" d="M82.8,371.1l27.6-0.2"/>
<path class="st0" d="M110.4,371.1l27.6,0.3"/>
<path class="st0" d="M138,370.6l27.6,1.4"/>
<path class="st0" d="M165.6,370.2l27.6,1.9"/>
<path class="st0" d="M193.2,369.9l27.6,3.9"/>
<path class="st0" d="M220.8,370.6l27.6,3.1"/>
<path class="st0" d="M248.4,372.2l27.6,2"/>
<path class="st0" d="M276,375.8l27.6-7.7"/>
<path class="st0" d="M317.4,378.5l13.8,0.3"/>
<path class="st0" d="M343.6,370.6l15.2,2.2"/>
<path class="st0" d="M358.8,364l27.6,13.1"/>
<path class="st0" d="M386.4,376.2l22.6-6.3"/>
<path class="st0" d="M5,379.8l22.6-0.1"/>
<path class="st0" d="M27.6,379.9l27.6-0.1"/>
<path class="st0" d="M55.2,380l27.6,0.1"/>
<path class="st0" d="M82.8,380l27.6-0.5"/>
<path class="st0" d="M110.4,380l27.6-1"/>
<path class="st0" d="M138,380.4l27.6-0.1"/>
<path class="st0" d="M165.6,380.9l27.6-2.3"/>
<path class="st0" d="M193.2,381.1l27.6-3.8"/>
<path class="st0" d="M220.8,381.1l27.6-0.9"/>
<path class="st0" d="M248.4,376.1l27.6,7.7"/>
<path class="st0" d="M276,381.4l10.6,1.2"/>
<path class="st0" d="M303.6,370.9l27.6,17.2"/>
<path class="st0" d="M331.2,368.4l27.6,6.3"/>
<path class="st0" d="M358.8,377.8l27.6,3.6"/>
<path class="st0" d="M386.4,377.7l22.6,4.1"/>
<path class="st0" d="M5,388.7l22.6,0"/>
<path class="st0" d="M27.6,388.8l27.6-0.2"/>
<path class="st0" d="M55.2,388.7l27.6,0.4"/>
<path class="st0" d="M82.8,389.2l27.6-0.5"/>
<path class="st0" d="M110.4,388.8l27.6-0.7"/>
<path class="st0" d="M138,388l27.6,0.9"/>
<path class="st0" d="M165.6,389.7l27.6-0.3"/>
<path class="st0" d="M193.2,390.2l27.6-0.9"/>
<path class="st0" d="M220.8,386.3l27.6,3.9"/>
<path class="st0" d="M248.4,386.7l27.6,1.5"/>
<path class="st0" d="M276,386.3l27.6-8.1"/>
<path class="st0" d="M303.6,386.3l27.6,7"/>
<path class="st0" d="M331.2,382.6l27.6,13.4"/>
<path class="st0" d="M358.8,391.1l27.6,3.4"/>
<path class="st0" d="M390.6,393.6l18.4-5.1"/>
<path class="st0" d="M5,397.6l22.6,0"/>
<path class="st0" d="M27.6,397.7l27.6,0"/>
<path class="st0" d="M55.2,397.8l27.6,0"/>
<path class="st0" d="M82.8,398l27.6-0.4"/>
<path class="st0" d="M110.4,397.9l27.6,0.5"/>
<path class="st0" d="M138,397.4l27.6,1.4"/>
<path class="st0" d="M165.6,398.9l27.6,0.8"/>
<path class="st0" d="M193.2,397.4l27.6-3.4"/>
<path class="st0" d="M220.8,396.6l27.6-1"/>
<path class="st0" d="M248.4,402.7l27.6-7.9"/>
<path class="st0" d="M276,391.7l27.6,0.4"/>
<path class="st0" d="M303.6,405.8l26.3,3"/>
<path class="st0" d="M344.7,402.9l14.1-0.8"/>
<path class="st0" d="M359.1,403.6l27.3-8.7"/>
<path class="st0" d="M386.4,393.5L409,396"/>
<path class="st0" d="M5,406.5l22.6,0.2"/>
<path class="st0" d="M27.6,406.5l27.6-0.2"/>
<path class="st0" d="M55.2,406.5l27.6,0.2"/>
<path class="st0" d="M82.8,407.1l27.6-0.4"/>
<path class="st0" d="M110.4,406.2l27.6,1.5"/>
<path class="st0" d="M138,406.3l27.6,2.2"/>
<path class="st0" d="M165.6,404.8l27.6,1.2"/>
<path class="st0" d="M193.2,404.1l27.6,1.2"/>
<path class="st0" d="M220.8,404.5l27.6-2.6"/>
<path class="st0" d="M248.4,405.4l14.2,3.7"/>
<path class="st0" d="M276,408.8l27.6-3.4"/>
<path class="st0" d="M308.8,412.8l22.4-4.1"/>
<path class="st0" d="M331.7,404.1l27.1-1.2"/>
<path class="st0" d="M358.8,403.5l27.6,8"/>
<path class="st0" d="M386.4,401.6l22.6,6"/>
<path class="st0" d="M5,415.5l22.6,0.1"/>
<path class="st0" d="M27.6,415.7l27.6,0"/>
<path class="st0" d="M55.2,415.8l27.6-0.1"/>
<path class="st0" d="M82.8,415.8l27.6-1.2"/>
<path class="st0" d="M110.4,415.4L138,416"/>
<path class="st0" d="M138,416.3l27.6,0.1"/>
<path class="st0" d="M165.6,414.2l27.6,3.2"/>
<path class="st0" d="M193.2,416.9l27.6-4.4"/>
<path class="st0" d="M220.8,417.5l27.6-7.6"/>
<path class="st0" d="M248.4,410.4l27.6-1.1"/>
<path class="st0" d="M276,412l27.6,3"/>
<path class="st0" d="M324.6,419.4l6.6-1.2"/>
<path class="st0" d="M331.2,403.9l27.6,13"/>
<path class="st0" d="M358.8,408.2l27.6,12.2"/>
<path class="st0" d="M386.4,413l22.6,3"/>
<path class="st0" d="M5,424.4l22.6,0.1"/>
<path class="st0" d="M27.6,424.2l27.6,0.2"/>
<path class="st0" d="M55.2,424.1l27.6-0.4"/>
<path class="st0" d="M82.8,424.2l27.6-0.5"/>
<path class="st0" d="M110.4,424.5l27.6-1.7"/>
<path class="st0" d="M138,425.7l27.6-2.4"/>
<path class="st0" d="M165.6,423.6l27.6-1.7"/>
<path class="st0" d="M193.2,425.2l27.6,3.2"/>
<path class="st0" d="M220.8,429l27.6-6.4"/>
<path class="st0" d="M248.4,427.4l27.6-11"/>
<path class="st0" d="M276,420.4l27.6-5.3"/>
<path class="st0" d="M303.6,411.2l27.6,11.7"/>
<path class="st0" d="M331.2,421.4l27.6-1.8"/>
<path class="st0" d="M358.8,421l27.6,6"/>
<path class="st0" d="M386.4,428.1l22.6-2.2"/>
<path class="st0" d="M5,433.3l22.6,0"/>
<path class="st0" d="M27.6,433.5l27.6-0.1"/>
<path class="st0" d="M55.2,433.6l27.6-0.7"/>
<path class="st0" d="M82.8,432.6l27.6,1.5"/>
<path class="st0" d="M110.4,432.3l27.6-0.1"/>
<path class="st0" d="M138,434.4l27.6-3"/>
<path class="st0" d="M165.6,430.9l27.6,4.7"/>
<path class="st0" d="M193.2,434.3l27.6,1"/>
<path class="st0" d="M220.8,435.9l27.6-2.3"/>
<path class="st0" d="M248.4,428.6l27.6-2.3"/>
<path class="st0" d="M276,437.7l15.8,1.2"/>
<path class="st0" d="M303.6,428l27.6,0.6"/>
<path class="st0" d="M331.2,442.7l27.6-1.7"/>
<path class="st0" d="M358.8,434.5l27.6-2.8"/>
<path class="st0" d="M386.4,434.5l22.6-2.1"/>
<path class="st0" d="M5,442.1l22.6,0"/>
<path class="st0" d="M27.6,442.1l27.6-0.3"/>
<path class="st0" d="M55.2,441.9l27.6,0.6"/>
<path class="st0" d="M82.8,442.2l27.6-0.6"/>
<path class="st0" d="M110.4,441.4l27.6-0.7"/>
<path class="st0" d="M138,443.5l27.6-2.4"/>
<path class="st0" d="M165.6,443.5l27.6-2.2"/>
<path class="st0" d="M193.2,443.2l27.6-3.4"/>
<path class="st0" d="M220.8,437.2l27.6,3.5"/>
<path class="st0" d="M248.4,436.4l27.6,5.9"/>
<path class="st0" d="M276,447.6l27.6-13.2"/>
<path class="st0" d="M303.6,436.8l21.8,7.5"/>
<path class="st0" d="M331.2,452.7l27.6-7.7"/>
<path class="st0" d="M358.8,440.1l27.6,4.2"/>
<path class="st0" d="M386.4,441.1l22.6,0.4"/>
<path class="st0" d="M5,451.1l22.6,0.2"/>
<path class="st0" d="M27.6,450.9l27.6-0.2"/>
<path class="st0" d="M55.2,451l27.6-0.3"/>
<path class="st0" d="M82.8,451.8l27.6-1.3"/>
<path class="st0" d="M110.4,451l27.6,1.4"/>
<path class="st0" d="M138,449.3l27.6,0.3"/>
<path class="st0" d="M165.6,450.8l27.6-1"/>
<path class="st0" d="M193.2,451.5l27.6,3.2"/>
<path class="st0" d="M220.8,455.6l27.6-10.7"/>
<path class="st0" d="M248.4,448.5l27.6-1"/>
<path class="st0" d="M276,454.4l9.1,0.9"/>
<path class="st0" d="M303.6,449.3l27.6-5.5"/>
<path class="st0" d="M339.5,457.3l19.3-0.6"/>
<path class="st0" d="M358.8,449.2l27.6-0.5"/>
<path class="st0" d="M386.4,451.8l22.6-0.5"/>
<path class="st0" d="M5,460l22.6,0.1"/>
<path class="st0" d="M27.6,460.3l27.6-0.1"/>
<path class="st0" d="M55.2,460.4l27.6-0.8"/>
<path class="st0" d="M82.8,460.1l27.6,1.4"/>
<path class="st0" d="M110.4,461.3l27.6-1"/>
<path class="st0" d="M138,459.2l27.6-0.2"/>
<path class="st0" d="M165.6,463.4l27.6-3.2"/>
<path class="st0" d="M193.2,459.3l27.6,3.6"/>
<path class="st0" d="M220.8,460.9l27.6-0.7"/>
<path class="st0" d="M248.4,468.1l27.6-4.6"/>
<path class="st0" d="M276,458.4l27.6-6.4"/>
<path class="st0" d="M303.6,467l27.6-3.5"/>
<path class="st0" d="M331.2,456.7l27.6,5.1"/>
<path class="st0" d="M358.8,462.1l27.6-6"/>
<path class="st0" d="M386.4,457l22.6,4.3"/>
</svg>
