<?xml version="1.0" encoding="utf-8"?>
<!-- Generator: Adobe Illustrator 23.0.6, SVG Export Plug-In . SVG Version: 6.00 Build 0)  -->
<svg version="1.1" id="Layer_1" xmlns="http://www.w3.org/2000/svg" xmlns:xlink="http://www.w3.org/1999/xlink" x="0px" y="0px"
	 viewBox="0 0 414 552" style="enable-background:new 0 0 414 552;" xml:space="preserve">
<style type="text/css">
	.st0{fill:none;stroke:#FFFFFF;stroke-width:2.6334;}
</style>
<path class="st0" d="M207,349l-15.3-1.3"/>
<path class="st0" d="M191.8,347.5l-14.5-4.9"/>
<path class="st0" d="M177.3,342.8l-13.4-7.5"/>
<path class="st0" d="M163.7,335.6l-11.2-10.5"/>
<path class="st0" d="M152.9,324.7l-10-11.7"/>
<path class="st0" d="M143.8,312.5l-7.7-13.4"/>
<path class="st0" d="M138.6,298.2l-4-14.6"/>
<path class="st0" d="M135.9,283.5l-0.9-15"/>
<path class="st0" d="M135.5,268.5l4.4-14.3"/>
<path class="st0" d="M138,253.6l2.4-16"/>
<path class="st0" d="M142.7,238.9l10.3-11.5"/>
<path class="st0" d="M150,224.6l13.4-8.7"/>
<path class="st0" d="M164.7,217.8l13.9-5.6"/>
<path class="st0" d="M178.3,211.6l11.7-15.2"/>
<path class="st0" d="M193.5,212.4l13.5-17.3"/>
<path class="st0" d="M207,213.5l14.2-4.5"/>
<path class="st0" d="M223.7,197.5l15.2,6.9"/>
<path class="st0" d="M239.3,203.6l11.6,12"/>
<path class="st0" d="M255.1,209.9l5.6,17.8"/>
<path class="st0" d="M264,224.7l11.6,11.7"/>
<path class="st0" d="M268.4,240.6l13,11.3"/>
<path class="st0" d="M281.8,251.7l3,16.1"/>
<path class="st0" d="M279.2,268.4l-4.4,14.7"/>
<path class="st0" d="M278.3,283.5l-3.2,14.6"/>
<path class="st0" d="M280.1,299.7L269.4,312"/>
<path class="st0" d="M268.4,311.4l-7.8,12.8"/>
<path class="st0" d="M262.6,326.1l-11.7,10.3"/>
<path class="st0" d="M250.6,336l-13.5,7.5"/>
<path class="st0" d="M237.1,343.7l-15,3.4"/>
<path class="st0" d="M222.1,346.9L207,349"/>
<path class="st0" d="M207,331.4l-11.6-1.1"/>
<path class="st0" d="M195.5,330.1l-11.1-3.4"/>
<path class="st0" d="M184.5,326.5l-9.9-5.9"/>
<path class="st0" d="M174.5,320.8l-8.4-7.9"/>
<path class="st0" d="M165.7,313.2l-6-9.9"/>
<path class="st0" d="M158.3,304.1l-3.5-11.2"/>
<path class="st0" d="M154.7,293l-1.5-11.3"/>
<path class="st0" d="M151.4,281.8l-1.5-11.9"/>
<path class="st0" d="M149.6,270l5.4-10.9"/>
<path class="st0" d="M153,258.4l8.8-8.6"/>
<path class="st0" d="M160.3,249.1l7.9-8"/>
<path class="st0" d="M169.2,242l5.6-10.2"/>
<path class="st0" d="M175.3,232.4l10.9-3.2"/>
<path class="st0" d="M185.7,228.1l8.8-10.8"/>
<path class="st0" d="M194.2,215.6l12.8,1.6"/>
<path class="st0" d="M207,215.7l13.1-1.4"/>
<path class="st0" d="M221.2,209.2l11.9,8.2"/>
<path class="st0" d="M234.3,214.8l8.2,12.5"/>
<path class="st0" d="M243.9,225.2l-3.2,19.8"/>
<path class="st0" d="M247.4,239.6l10.8,6.8"/>
<path class="st0" d="M260.1,245.3l3.2,12.4"/>
<path class="st0" d="M255,260.4l11.6,9.3"/>
<path class="st0" d="M265.4,269.9l-7,11.5"/>
<path class="st0" d="M264.7,282.1l-8.6,9.9"/>
<path class="st0" d="M256.4,292.1l-3.4,10.5"/>
<path class="st0" d="M253.9,303.1l-5.7,10"/>
<path class="st0" d="M249.9,314.6l-10,6.6"/>
<path class="st0" d="M238.5,319.3l-8.8,7.6"/>
<path class="st0" d="M229,325.5l-10.3,5.8"/>
<path class="st0" d="M218.4,329.8l-11.4,2"/>
<path class="st0" d="M207,313.7l-7.8-0.8"/>
<path class="st0" d="M199.2,312.9l-7.4-2.6"/>
<path class="st0" d="M191.7,310.4l-7-3.6"/>
<path class="st0" d="M184.8,306.6l-5.7-5.5"/>
<path class="st0" d="M179.2,301.1l-4.4-6.5"/>
<path class="st0" d="M173.8,295.2l-2.3-7.6"/>
<path class="st0" d="M170.6,287.8l-0.8-7.9"/>
<path class="st0" d="M169,280l1.3-7.8"/>
<path class="st0" d="M171.3,272.2l0.3-7.8"/>
<path class="st0" d="M173,265l1.2-7.9"/>
<path class="st0" d="M172.7,256.2l8.2-3.7"/>
<path class="st0" d="M180.3,251.9l3-8.6"/>
<path class="st0" d="M181.6,241.1l8.9-2.1"/>
<path class="st0" d="M192.4,243.3l6-7.8"/>
<path class="st0" d="M199.5,240.9l7.5-0.8"/>
<path class="st0" d="M207,241l7.8-1.9"/>
<path class="st0" d="M217.3,227.5l6.1,11.7"/>
<path class="st0" d="M226.8,231.5l-2,20"/>
<path class="st0" d="M224.8,253.7l17.2-9.2"/>
<path class="st0" d="M227.1,257.9l7.3,2.3"/>
<path class="st0" d="M245.4,253.8l-8.8,12.5"/>
<path class="st0" d="M234.9,266.9l14.2,4.6"/>
<path class="st0" d="M246.6,271.8l0.3,8.4"/>
<path class="st0" d="M247.7,280.3l-4.5,7.5"/>
<path class="st0" d="M239.9,286.7l-2.5,6.9"/>
<path class="st0" d="M241.2,295.7l-4.9,6.7"/>
<path class="st0" d="M234.3,300.5l-5.6,5.3"/>
<path class="st0" d="M230.3,308.1l-7.3,4"/>
<path class="st0" d="M222.5,310.8l-7.7,1.8"/>
<path class="st0" d="M214.9,313.2l-7.9,0.2"/>
<path class="st0" d="M207,296l-4.2-0.3"/>
<path class="st0" d="M202.8,295.8l-4-1.4"/>
<path class="st0" d="M198.8,294.5l-3.5-2.4"/>
<path class="st0" d="M195.1,292.3l-3.5-2.5"/>
<path class="st0" d="M191.7,289.7l-2.2-3.6"/>
<path class="st0" d="M189.8,285.9l-1.6-3.8"/>
<path class="st0" d="M186.9,282.5l0-4.4"/>
<path class="st0" d="M187.2,278.1l-1.1-4.3"/>
<path class="st0" d="M186.7,273.9l1.1-4.1"/>
<path class="st0" d="M185.7,269.1l3.1-3.6"/>
<path class="st0" d="M190,266.2l3.9-1.9"/>
<path class="st0" d="M190.4,261.1l3.7-2.8"/>
<path class="st0" d="M196.2,261.1l1.9-5"/>
<path class="st0" d="M198,255.8l6.3,7.6"/>
<path class="st0" d="M204,261.8l3-13.6"/>
<path class="st0" d="M207,261.3l5.5-11.3"/>
<path class="st0" d="M209.1,266.3l1.6,1.3"/>
<path class="st0" d="M214.2,259.8l1,4.9"/>
<path class="st0" d="M225.9,249.9l-7.7,16"/>
<path class="st0" d="M221.5,262.9l8.8-0.4"/>
<path class="st0" d="M216.4,270.6l5.4,0.6"/>
<path class="st0" d="M225.2,270.1l-0.6,4.1"/>
<path class="st0" d="M227.7,273.8l3.3,4.7"/>
<path class="st0" d="M231.9,278.6l-9.5,2.4"/>
<path class="st0" d="M224.6,281.7l-1.2,3.7"/>
<path class="st0" d="M225.4,286.6l-1.8,4.3"/>
<path class="st0" d="M221.6,289.1l-3.7,1.8"/>
<path class="st0" d="M219.8,293.7l-4.1,2"/>
<path class="st0" d="M215,293.9L211,295"/>
<path class="st0" d="M211.2,295.8l-4.2,0.3"/>
</svg>
