<?xml version="1.0" encoding="utf-8"?>
<!-- Generator: Adobe Illustrator 23.0.6, SVG Export Plug-In . SVG Version: 6.00 Build 0)  -->
<svg version="1.1" id="SvgjsSvg1001" xmlns:svgjs="http://svgjs.com/svgjs"
	 xmlns="http://www.w3.org/2000/svg" xmlns:xlink="http://www.w3.org/1999/xlink" x="0px" y="0px" viewBox="0 0 600 600"
	 style="enable-background:new 0 0 600 600;" xml:space="preserve">
<style type="text/css">
	.st0{fill:none;stroke:#FFFFFF;stroke-width:5;}
</style>
<title  id="SvgjsTitle9201">x=x|y=x|dTest=0.1|sd=0.4|sm=0.05|ts=1.0 | generated with FlowLines</title>
<line id="SvgjsPolyline9203" class="st0" x1="324.1" y1="196.9" x2="0" y2="521.1"/>
<polyline id="SvgjsPolyline9204" class="st0" points="308.6,181.4 268,221.9 470.6,19.3 "/>
<polyline id="SvgjsPolyline9205" class="st0" points="339.7,212.5 299.2,253 542.3,9.9 "/>
<line id="SvgjsPolyline9206" class="st0" x1="258.7" y1="293.5" x2="15.6" y2="536.7"/>
<line id="SvgjsPolyline9207" class="st0" x1="227.5" y1="262.4" x2="25" y2="465"/>
<polyline id="SvgjsPolyline9208" class="st0" points="293,165.8 333.5,125.3 9.4,449.4 "/>
<line id="SvgjsPolyline9209" class="st0" x1="364.7" y1="156.4" x2="486.2" y2="34.9"/>
<line id="SvgjsPolyline9210" class="st0" x1="374" y1="84.8" x2="455.1" y2="3.7"/>
<line id="SvgjsPolyline9211" class="st0" x1="274.3" y1="309.1" x2="557.9" y2="25.5"/>
<line id="SvgjsPolyline9212" class="st0" x1="233.7" y1="349.6" x2="31.1" y2="552.2"/>
<polyline id="SvgjsPolyline9213" class="st0" points="277.4,150.2 318,109.7 34.3,393.3 "/>
<line id="SvgjsPolyline9214" class="st0" x1="358.5" y1="69.2" x2="399" y2="28.7"/>
<polyline id="SvgjsPolyline9215" class="st0" points="289.8,324.7 330.3,284.2 46.7,567.8 "/>
<line id="SvgjsPolyline9216" class="st0" x1="370.9" y1="243.6" x2="573.4" y2="41.1"/>
<polyline id="SvgjsPolyline9217" class="st0" points="261.9,134.7 302.4,94.1 18.8,377.8 "/>
<line id="SvgjsPolyline9218" class="st0" x1="342.9" y1="53.6" x2="383.4" y2="13.1"/>
<polyline id="SvgjsPolyline9219" class="st0" points="305.4,340.3 264.9,380.8 589,56.6 "/>
<line id="SvgjsPolyline9220" class="st0" x1="224.4" y1="421.3" x2="62.3" y2="583.4"/>
<line id="SvgjsPolyline9221" class="st0" x1="327.3" y1="38" x2="3.2" y2="362.2"/>
<polyline id="SvgjsPolyline9222" class="st0" points="321,355.8 280.4,396.3 564.1,112.7 "/>
<line id="SvgjsPolyline9223" class="st0" x1="239.9" y1="436.9" x2="77.9" y2="598.9"/>
<polyline id="SvgjsPolyline9224" class="st0" points="311.8,22.5 271.2,63 311.8,22.5 "/>
<line id="SvgjsPolyline9225" class="st0" x1="230.7" y1="103.5" x2="28.1" y2="306.1"/>
<polyline id="SvgjsPolyline9226" class="st0" points="336.5,371.4 296,411.9 579.6,128.3 "/>
<line id="SvgjsPolyline9227" class="st0" x1="255.5" y1="452.4" x2="133.9" y2="574"/>
<line id="SvgjsPolyline9228" class="st0" x1="296.2" y1="6.9" x2="12.6" y2="290.5"/>
<line id="SvgjsPolyline9229" class="st0" x1="271.1" y1="468" x2="595.2" y2="143.9"/>
<line id="SvgjsPolyline9230" class="st0" x1="230.6" y1="508.5" x2="149.5" y2="589.5"/>
<line id="SvgjsPolyline9231" class="st0" x1="240.1" y1="31.9" x2="37.5" y2="234.4"/>
<polyline id="SvgjsPolyline9232" class="st0" points="286.6,483.6 327.1,443.1 205.6,564.6 "/>
<line id="SvgjsPolyline9233" class="st0" x1="367.7" y1="402.5" x2="570.3" y2="199.9"/>
<line id="SvgjsPolyline9234" class="st0" x1="224.5" y1="16.3" x2="21.9" y2="218.9"/>
<polyline id="SvgjsPolyline9235" class="st0" points="302.2,499.1 261.7,539.7 585.8,215.5 "/>
<line id="SvgjsPolyline9236" class="st0" x1="208.9" y1="0.7" x2="6.4" y2="203.3"/>
<polyline id="SvgjsPolyline9237" class="st0" points="317.8,514.7 277.3,555.2 560.9,271.6 "/>
<line id="SvgjsPolyline9238" class="st0" x1="152.9" y1="25.7" x2="31.3" y2="147.2"/>
<polyline id="SvgjsPolyline9239" class="st0" points="333.4,530.3 292.8,570.8 576.5,287.2 "/>
<line id="SvgjsPolyline9240" class="st0" x1="137.3" y1="10.1" x2="15.7" y2="131.6"/>
<line id="SvgjsPolyline9241" class="st0" x1="308.4" y1="586.4" x2="592" y2="302.8"/>
<line id="SvgjsPolyline9242" class="st0" x1="81.2" y1="35" x2="0.2" y2="116.1"/>
<line id="SvgjsPolyline9243" class="st0" x1="364.5" y1="561.4" x2="567.1" y2="358.8"/>
<line id="SvgjsPolyline9244" class="st0" x1="65.6" y1="19.5" x2="25.1" y2="60"/>
<line id="SvgjsPolyline9245" class="st0" x1="380.1" y1="577" x2="582.7" y2="374.4"/>
<line id="SvgjsPolyline9246" class="st0" x1="50.1" y1="3.9" x2="9.6" y2="44.4"/>
<line id="SvgjsPolyline9247" class="st0" x1="395.6" y1="592.6" x2="598.2" y2="390"/>
<line id="SvgjsPolyline9248" class="st0" x1="451.7" y1="567.6" x2="573.3" y2="446.1"/>
<line id="SvgjsPolyline9249" class="st0" x1="467.3" y1="583.2" x2="588.8" y2="461.6"/>
<line id="SvgjsPolyline9250" class="st0" x1="482.9" y1="598.8" x2="563.9" y2="517.7"/>
<line id="SvgjsPolyline9251" class="st0" x1="539" y1="573.8" x2="579.5" y2="533.3"/>
<line id="SvgjsPolyline9252" class="st0" x1="554.5" y1="589.4" x2="595" y2="548.9"/>
</svg>
