<?xml version="1.0" encoding="utf-8"?>
<!-- Generator: Adobe Illustrator 23.0.6, SVG Export Plug-In . SVG Version: 6.00 Build 0)  -->
<svg version="1.1" id="Layer_1" xmlns="http://www.w3.org/2000/svg" xmlns:xlink="http://www.w3.org/1999/xlink" x="0px" y="0px"
	 viewBox="0 0 1256 977" style="enable-background:new 0 0 1256 977;" xml:space="preserve">
<style type="text/css">
	.st0{fill:#FFFFFF;}
</style>
<g>
	<g>
		<path class="st0" d="M477.9,251l54.1,54.1H423.7L477.9,251z"/>
		<path class="st0" d="M693,268h-3l3,3V268z"/>
		<path class="st0" d="M895,387v56.5L838.5,387H895z"/>
		<path class="st0" d="M669.3,535l3.7,3.7l-3.7,3.7l-3.7-3.7L669.3,535z"/>
		<path class="st0" d="M366.6,515l50.6,50.6l-50.6,50.6L316,565.6L366.6,515z"/>
		<path class="st0" d="M622,603h-11.6l11.6,11.6V603z"/>
		<path class="st0" d="M461,616.5l-6.5-6.5l-6.5,6.5l6.5,6.5L461,616.5z"/>
		<path class="st0" d="M750,245L631.7,363.3h-44.4L705.6,245H750z"/>
		<path class="st0" d="M825.4,336l50.6,50.6h-80.9L744.5,336H825.4z"/>
		<path class="st0" d="M646,531L505.3,671.7h-52.7L593.3,531H646z"/>
		<path class="st0" d="M459,669l-22.8,34.2h-68.4l22.8-34.2H459z"/>
		<path class="st0" d="M666,752l-19.9,29.9h-59.8l19.9-29.9H666z"/>
		<path class="st0" d="M624,800.6L584.4,761l-39.6,39.6l39.6,39.6L624,800.6z"/>
		<path class="st0" d="M554,774l48,48h-76.8l-48-48H554z"/>
		<path class="st0" d="M985,671L849.7,806.3h-50.8L934.2,671H985z"/>
		<path class="st0" d="M922,623l-18.5,27.7h-55.4l18.5-27.7H922z"/>
		<path class="st0" d="M742.1,251L688,305.1h108.3L742.1,251z"/>
		<path class="st0" d="M527,268h3l-3,3V268z"/>
		<path class="st0" d="M325,387v56.5l56.5-56.5H325z"/>
		<path class="st0" d="M550.7,535l-3.7,3.7l3.7,3.7l3.7-3.7L550.7,535z"/>
		<path class="st0" d="M853.4,515l-50.6,50.6l50.6,50.6l50.6-50.6L853.4,515z"/>
		<path class="st0" d="M598,603h11.6L598,614.6V603z"/>
		<path class="st0" d="M759,616.5l6.5-6.5l6.5,6.5l-6.5,6.5L759,616.5z"/>
		<path class="st0" d="M470,245l118.3,118.3h44.4L514.4,245H470z"/>
		<path class="st0" d="M394.6,336L344,386.6h80.9l50.6-50.6H394.6z"/>
		<path class="st0" d="M574,531l140.7,140.7h52.7L626.7,531H574z"/>
		<path class="st0" d="M761,669l22.8,34.2h68.4L829.4,669H761z"/>
		<path class="st0" d="M554,752l19.9,29.9h59.8L613.8,752H554z"/>
		<path class="st0" d="M596,800.6l39.6-39.6l39.6,39.6l-39.6,39.6L596,800.6z"/>
		<path class="st0" d="M666,774l-48,48h76.8l48-48H666z"/>
		<path class="st0" d="M235,671l135.3,135.3h50.8L285.8,671H235z"/>
		<path class="st0" d="M298,623l18.5,27.7h55.4L353.4,623H298z"/>
	</g>
</g>
</svg>
