<?xml version="1.0" encoding="utf-8"?>
<!-- Generator: Adobe Illustrator 23.0.6, SVG Export Plug-In . SVG Version: 6.00 Build 0)  -->
<svg version="1.1" id="Layer_1" xmlns="http://www.w3.org/2000/svg" xmlns:xlink="http://www.w3.org/1999/xlink" x="0px" y="0px"
	 viewBox="0 0 414 552" style="enable-background:new 0 0 414 552;" xml:space="preserve">
<style type="text/css">
	.st0{fill:none;stroke:#FFFFFF;stroke-width:0.25;}
</style>
<path class="st0" d="M207,219.7l1.7-0.1l1.7-0.2l1.7-0.2l1.7-0.1l1.7,0l1.7,0.1l1.7,0.3l1.7,0.4l1.7,0.5l1.6,0.7l1.6,0.8l1.6,0.6
	l1.6,0.5l1.6,0.7l1.6,0.7l1.7,0.5l1.7,0.5l1.5,0.8l1.4,1l1.5,0.8l1.6,0.8l1.4,1l1.4,1l1.6,0.9l1.4,1.1l1,1.5l0.9,1.6l1.1,1.4
	l1.2,1.2l1.2,1.3l1,1.4l1,1.4l1,1.5l1,1.4l1,1.5l1,1.4l1.3,1.3l1.2,1.4l1,1.5l0.8,1.6l0.6,1.7l0.5,1.7l0.3,1.8l0.1,1.8l-0.1,1.8
	l-0.2,1.8l-0.1,1.8l0,1.8l0.4,1.7l0.5,1.7l0.2,1.7l-0.2,1.7l-0.4,1.7l-0.1,1.7l0.1,1.7l0,1.7l-0.3,1.7l-0.3,1.7l-0.1,1.7l-0.1,1.8
	l-0.4,1.7l-0.8,1.6l-0.8,1.6l-0.5,1.7l-0.4,1.7l-0.6,1.7l-0.8,1.6l-0.7,1.6l-0.6,1.7l-0.6,1.7l-0.8,1.6l-0.9,1.5l-0.8,1.6l-0.8,1.6
	l-1,1.4l-1.1,1.4l-1.1,1.4l-1,1.5l-1.2,1.4l-1.4,1.1l-1.5,1l-1.6,0.9l-1.4,1.1l-1.4,1.2l-1.5,1l-1.6,0.8l-1.6,0.9l-1.4,1.1l-1.5,1
	l-1.7,0.5l-1.8,0.3l-1.8,0.4l-1.8,0.3l-1.8,0.3l-1.7,0.3l-1.7,0.5l-1.7,0.3l-1.7,0.1l-1.7,0l-1.7,0l-1.7,0l-1.7-0.1l-1.7,0.1
	l-1.7,0.2l-1.7,0.1l-1.7,0l-1.7,0l-1.7,0.1l-1.7,0l-1.7-0.3l-1.6-0.6l-1.6-0.7l-1.6-0.5l-1.7-0.2l-1.7-0.2l-1.7-0.4l-1.5-0.8l-1.5-1
	l-1.5-0.7l-1.7-0.4l-1.9-0.1l-2-0.1l-2-0.2l-2-0.2l-2-0.4l-1.8-0.7l-1.7-0.9l-1.5-1.2l-1.2-1.5l-1-1.6l-1-1.6l-1.2-1.4l-1.4-1.2
	l-1.5-1.2l-1.3-1.4l-1-1.6l-1.1-1.5l-1-1.6l-0.8-1.7l-0.7-1.7l-0.7-1.7l-0.8-1.7l-0.7-1.7l-0.7-1.7l-0.8-1.7l-0.8-1.7l-0.6-1.7
	l-0.3-1.8l0-1.9l-0.1-1.8l-0.1-1.8l0.1-1.8l0.3-1.8l0.3-1.8l0.1-1.8l0-1.8l-0.1-1.8l-0.3-1.8l-0.4-1.8l-0.3-1.8l0-1.8l0.3-1.8
	l0.4-1.8l0.3-1.8l0.3-1.8l0.6-1.7l0.6-1.7l0.6-1.7l0.6-1.7l0.4-1.8l0.5-1.8l0.8-1.6l1.1-1.5l1.5-1.2l1.6-1.1l1.5-1.2l1.2-1.3
	l1.1-1.3l1.2-1.3l1.1-1.3l1.1-1.3l1.2-1.3l1.2-1.2l1.3-1.1l1.6-0.8l1.7-0.7l1.6-0.8l1.3-1l1.3-1l1.5-0.7l1.6-0.6l1.6-0.6l1.4-0.9
	l1.4-0.9l1.4-0.9l1.4-0.9l1.4-1l1.4-1.2l1.4-1.3l1.5-1.2l1.6-0.9l1.6-0.8l1.7-0.9l1.7-0.7l1.8-0.4l1.8-0.1l1.8,0l1.8-0.1l1.8,0"/>
<path class="st0" d="M207,224.7l1.6-0.3l1.6-0.2l1.6,0.1l1.6,0.1l1.6-0.1l1.6,0l1.5,0.3l1.5,0.4l1.5,0.5l1.4,0.7l1.3,0.9l1.3,0.9
	l1.4,0.6l1.3,0.8l1.3,0.8l1.4,0.7l1.4,0.7l1.3,0.9l1.2,1l1.2,0.9l1.3,0.8l1.3,0.8l1.4,0.7l1.6,0.5l1.7,0.5l1.6,0.7l1.3,1l1.1,1.2
	l0.9,1.3l0.9,1.3l1.1,1.1l1.2,1.1l1.3,1.1l1.2,1.2l0.8,1.4l0.7,1.5l0.7,1.5l0.7,1.5l0.6,1.5l0.4,1.6l0.3,1.6l0.3,1.6l0.2,1.6
	l0.2,1.6l0.1,1.6l-0.2,1.7l-0.3,1.6l-0.2,1.6l0.3,1.5l0.4,1.5l0.2,1.5l-0.3,1.6l-0.6,1.5l-0.3,1.5l-0.2,1.5l-0.4,1.5l-0.6,1.4
	l-0.6,1.4l-0.6,1.4l-0.5,1.4l-0.6,1.4l-0.7,1.3l-0.6,1.3l-0.5,1.4l-0.5,1.4l-0.4,1.4l-0.2,1.5l-0.1,1.6l-0.2,1.6l-0.3,1.5l-0.5,1.4
	l-0.7,1.4l-0.8,1.3l-1,1.1l-1.1,1.1l-1,1.2l-1,1.2l-1.1,1.1l-1.3,0.9l-1.3,0.9l-1.1,1l-1.1,1l-1.1,1l-1.1,1.1l-1,1.2l-1.1,1.2
	l-1,1.4l-1,1.5l-1.1,1.4l-1.2,1.2l-1.4,0.9l-1.4,0.9l-1.5,0.8l-1.5,0.7l-1.6,0.4l-1.7,0.2l-1.7,0.1l-1.6,0.2l-1.6,0.5l-1.6,0.6
	l-1.6,0.6l-1.6,0.5l-1.7,0.5l-1.7,0.5l-1.7,0.6l-1.7,0.4l-1.7-0.2L201,333l-1.6-0.7l-1.6-0.6l-1.6-0.6l-1.6-0.6l-1.6-0.6l-1.6-0.6
	l-1.5-0.6l-1.6-0.4l-1.6-0.5l-1.6-0.5l-1.6-0.5l-1.7-0.4l-1.7-0.5l-1.6-0.6l-1.6-0.7l-1.6-0.6l-1.8-0.5l-1.7-0.6l-1.7-0.7l-1.6-0.9
	l-1.4-1.1l-1.3-1.3l-1-1.5l-0.6-1.8l-0.4-2l-0.2-2.1l0-2.1l0.1-2.1l0.1-2l0.2-2l0.3-2l0.2-1.8l-0.2-1.6l-0.5-1.4l-0.6-1.3l-0.5-1.4
	l-0.4-1.4l-0.5-1.4l-0.6-1.3l-0.5-1.3l-0.4-1.4l-0.5-1.4l-0.4-1.4l-0.2-1.4l-0.2-1.4l-0.3-1.4l-0.2-1.5l0.1-1.5l0.3-1.5l0.4-1.4
	l0.1-1.4l0-1.4l-0.1-1.5l-0.1-1.5l-0.2-1.5l-0.2-1.6l-0.1-1.6l0-1.6l-0.1-1.6l0-1.6l0.1-1.6l0.3-1.6l0.5-1.5l0.8-1.4l1.3-1.1l1.3-1
	l1.2-1.1l1.2-1l1.3-0.9l1.4-0.8l1.2-0.9l0.9-1.1l0.8-1.3l0.9-1.1l1.1-1l1-1.1l1.2-0.9l1.5-0.5l1.5-0.4l1.3-0.6l1.2-0.8l1.2-0.7
	l1.2-0.8l1.1-1l1.1-1l1.2-0.9l1.2-0.8l1.2-1l1.1-1.3l1.1-1.4l1.1-1.5l1.3-1.3l1.4-1l1.4-0.9l1.5-1l1.5-0.8l1.6-0.3l1.6-0.1l1.6-0.2
	l1.6-0.2l1.7-0.1"/>
<path class="st0" d="M207,232.1l1.3,0.2l1.3,0.2l1.3,0.3l1.3,0.3l1.3,0.2l1.3,0.3l1.2,0.5l1.2,0.5l1.2,0.3l1.3,0.2l1.3,0.1l1.3,0.2
	l1.3,0.3l1.1,0.7l1,0.8l1.1,0.7l1.1,0.6l1,0.7l0.9,1l0.9,1l1,0.8l1.2,0.6l1.2,0.5l1.2,0.6l1.3,0.5l1.4,0.5l1.3,0.6l1.2,0.8l1,0.9
	l1.2,0.8l1.4,0.7l1.4,0.7l1.3,0.8l1,1l1,1.1l1,1.1l1.1,1.1l1,1.1l0.9,1.2l0.8,1.3l0.7,1.3l0.6,1.4l0.3,1.5l0.1,1.5l-0.1,1.5
	l-0.3,1.6l-0.4,1.5l-0.8,1.6l-0.7,1.5l-0.2,1.4l0,1.4l0.2,1.4l0.1,1.4l0.2,1.4l0.2,1.4l0.2,1.4l0.4,1.5l0.5,1.5l0.1,1.5l-0.4,1.4
	l-0.6,1.4l-0.4,1.4l-0.4,1.4l-0.5,1.4l-0.7,1.3l-0.7,1.3l-0.6,1.3l-0.6,1.3l-0.8,1.2l-0.9,1.1l-0.9,1.1l-1,1l-1.3,0.8l-1.5,0.6
	l-1.5,0.5l-1.1,0.8l-0.9,1l-1.2,0.7l-1.4,0.4l-1.3,0.5l-1.1,0.6l-1.1,0.7l-1.1,0.6l-1.1,0.7l-1,0.8l-1,0.8l-0.9,0.9l-0.9,1l-1,1
	l-1,0.9l-1.1,0.9l-1.1,0.9l-1.1,0.9l-1.1,0.9l-1.2,0.8l-1.3,0.5l-1.3,0.5l-1.3,0.5l-1.3,0.4l-1.3,0.5l-1.3,0.7l-1.4,0.4l-1.4-0.1
	l-1.4-0.4l-1.4-0.3l-1.4-0.2l-1.4-0.2l-1.4-0.3l-1.4,0.1l-1.5,0.7l-1.6,0.9l-1.7,0.8l-1.6,0.3l-1.6,0L191,325l-1.8,0.3l-1.8,0.2
	l-1.7-0.1l-1.8,0l-2,0.4l-2.1,0.4L178,326l-1.7-0.5l-1.7-0.6l-1.9-0.4l-1.9-0.4l-1.8-0.6l-1.7-0.9l-1.7-0.9l-1.7-0.9l-1.7-1
	l-1.4-1.3l-1.1-1.5l-1-1.6l-0.8-1.7L157,312l-0.6-1.8l-0.4-1.9l-0.2-2l0-2.1l0.1-2l-0.1-1.9l-0.2-1.8l-0.2-1.8l-0.2-1.7l-0.1-1.7
	l-0.2-1.6l-0.4-1.6l-0.4-1.6l-0.2-1.6l0-1.7l-0.2-1.6l-0.4-1.6l-0.4-1.6l-0.1-1.6l0.4-1.6l0.5-1.6l0.1-1.6l0-1.6l0.2-1.6l0.4-1.6
	l0.4-1.6l0.1-1.6l-0.1-1.7l0.2-1.6l0.4-1.6l0.5-1.5l0.6-1.5l0.7-1.5l0.8-1.4l0.6-1.5l0.5-1.5l0.4-1.6l0.5-1.6l0.9-1.4l1-1.3l1.3-1.1
	l1.7-0.8l1.7-0.7l1.5-0.7l1.4-0.8l1.4-0.8l1.4-0.7l1.3-0.8l1.2-0.9l1.4-0.6l1.5-0.4l1.5-0.4l1.4-0.5l1.3-0.5l1.3-0.6l1.3-0.5
	l1.4-0.4l1.3-0.5l1.2-0.7l1-1.1l1-1.3l1.1-1.3l1.1-1.3l1.3-0.8l1.4-0.3l1.5-0.1l1.5-0.1l1.5,0l1.5,0.3l1.5,0.4l1.5,0.4l1.4,0.4
	l1.4,0.2"/>
<path class="st0" d="M207,230.4l1.4-0.1l1.4,0.1l1.4,0.1l1.4,0.1l1.4,0.2l1.4,0.2l1.4,0l1.4,0l1.5,0l1.5-0.2l1.6-0.4l1.6,0l1.4,0.6
	l1.2,0.8l1.2,0.8l1.2,0.9l1.1,1l1.1,0.9l1.1,1l1,1l1.1,0.9l1.3,0.7l1.2,0.8l1,1.1l0.9,1.1l1,1l1.5,0.6l1.7,0.4l1.7,0.4l1.7,0.6
	l1.7,0.6l1.8,0.6l1.5,0.9l1.1,1.2l1.1,1.2l1.2,1.2l1.2,1.2l0.9,1.4l0.8,1.5l0.7,1.5l0.7,1.5l1,1.4l0.8,1.5l0.4,1.7l-0.1,1.8
	l-0.2,1.8l-0.1,1.7l-0.2,1.7l-0.1,1.7l0.2,1.6l0.2,1.6l0.1,1.6l-0.3,1.6l-0.3,1.6l-0.2,1.6l-0.3,1.6l-0.2,1.6l0,1.6l0,1.7l0.1,1.7
	l0.2,1.8l0.2,1.8l-0.1,1.7l-0.2,1.7l-0.1,1.8l-0.2,1.8l-0.8,1.6l-1.1,1.4l-1,1.4l-1.1,1.4l-1.4,1.1l-1.6,1l-1.3,1.1l-1.2,1.2
	l-1.2,1.2l-1.1,1.3l-1.1,1.2l-1.3,1l-1.6,0.7l-1.5,0.8l-1.4,0.9l-1.4,0.8l-1.6,0.6l-1.6,0.5l-1.5,0.5l-1.5,0.5l-1.5,0.5l-1.4,0.6
	l-1.3,0.7l-1.3,0.8l-1.3,0.9l-1.3,0.9l-1.4,0.6l-1.5,0.3l-1.5,0.2l-1.5,0.1l-1.5,0.1l-1.6-0.2l-1.6-0.3l-1.5-0.2l-1.5,0.2l-1.4,0.2
	l-1.5-0.2l-1.5-0.5l-1.4-0.5l-1.4-0.3l-1.4-0.3l-1.4-0.4l-1.4-0.4l-1.4-0.1l-1.4,0l-1.4,0l-1.3-0.4l-1.2-0.8l-1.2-0.7l-1.3-0.5
	l-1.4-0.3l-1.3-0.5l-1.3-0.4l-1.5-0.1l-1.6,0.1l-1.6-0.1l-1.6-0.2l-1.6-0.2l-1.6-0.3l-1.4-0.6l-1.4-0.7l-1.4-0.7l-1.5-0.6l-1.6-0.6
	l-1.5-0.7l-1.4-0.9l-1.2-1.1l-1.1-1.2l-1-1.3l-1.2-1.1l-1.5-1l-1.4-1.1l-1.1-1.3l-0.9-1.4l-0.9-1.4l-0.7-1.5l-0.5-1.6l-0.2-1.7
	l0-1.8l0.4-1.9l0.6-1.9l0.5-1.8l0.4-1.7l0.5-1.6l0.5-1.6l0.2-1.5l0-1.5L159,280l0.1-1.5l0.4-1.5l0.6-1.4l0.5-1.4l0.3-1.4l0.4-1.4
	l0.6-1.3l0.8-1.3l0.7-1.2l0.6-1.2l0.5-1.2l0.6-1.2l0.5-1.2l0.4-1.2l0.5-1.2l0.9-1l1.3-0.8l1.3-0.8l1-0.9l0.9-0.9l0.9-0.9l0.7-1
	l0.3-1.3l0.3-1.3l0.6-1.1l0.5-1.2l0.6-1.2l0.9-0.8l1.2-0.6l1-0.8l0.5-1.3l0.4-1.5l0.5-1.4l0.8-1.1l1-0.9l0.9-1l1-0.9l1.2-0.6
	l1.3-0.4l1.2-0.6l1.1-0.8l1.1-1l1.1-0.9l1.2-0.8l1.2-0.7l1.3-0.5l1.4-0.2l1.5,0.1l1.5,0.4l1.4,0.1l1.3-0.4l1.3-0.4l1.3-0.3l1.4-0.6
	l1.4-0.8"/>
<path class="st0" d="M207,218.4l1.7-0.4l1.8-0.4l1.8,0l1.7,0.4l1.7,0.3l1.7,0.2l1.7,0.3l1.8,0l1.8,0l1.8,0.3l1.6,0.9l1.4,1.3
	l1.3,1.5l1.1,1.8l1,1.8l1,1.7l0.9,1.6l1,1.5l0.9,1.5l0.8,1.6l0.7,1.6l0.8,1.4l1.1,1l1.2,0.9l1.2,0.8l1.1,1l0.7,1.3l0.7,1.4l0.7,1.3
	l0.8,1.2l0.8,1.2l0.6,1.3l0.6,1.3l0.6,1.3l0.7,1.2l0.8,1.2l0.9,1.1l0.7,1.3l0.4,1.4l0.2,1.4l0.3,1.4l0.5,1.3l0.3,1.4l0,1.5l-0.5,1.5
	l-0.7,1.5l-0.6,1.4l-0.8,1.4l-0.8,1.4l-0.5,1.3l-0.3,1.2l-0.1,1.2l-0.1,1.2l0.2,1.2l0.4,1.3l0.4,1.3l0.1,1.3l-0.2,1.3l0,1.3l0.4,1.4
	l0.4,1.4l0.2,1.4l0.1,1.4l0,1.5l-0.2,1.4l-0.4,1.3l-0.5,1.3l-0.3,1.4l0,1.6l-0.1,1.6l-0.6,1.3l-0.9,1.1l-0.8,1.2l-0.8,1.2l-0.9,1.1
	l-1.1,1l-1,1l-1.1,0.9l-1.2,0.8l-1.1,0.9l-1.3,0.7l-1.2,0.8l-1.3,0.6l-1.3,0.6l-1.1,0.8l-0.9,1.1l-0.8,1.4l-0.9,1.2l-1.1,1l-1.2,0.8
	l-1.2,0.8l-1.2,0.8l-1.2,1l-1.2,1l-1.3,1l-1.3,1l-1.3,1.3l-1.3,1.4l-1.5,0.8l-1.6,0.3l-1.6,0.2l-1.6,0.5l-1.6,0.5l-1.6,0.2l-1.6-0.3
	l-1.6-0.7l-1.6-0.7l-1.5-0.7l-1.5-0.9l-1.4-1.1l-1.4-1l-1.4-0.5l-1.5-0.2l-1.5-0.4l-1.4-0.7l-1.4-0.6l-1.5-0.2l-1.5-0.3l-1.3-0.8
	l-1-1.3l-0.9-1.5l-1-1.2l-1-1.1l-0.8-1.4l-0.5-1.7l-0.6-1.5l-0.7-1.2l-1-0.9l-1-0.9l-0.9-1l-0.9-1l-0.8-1.1l-0.8-1.1l-0.8-1.1
	l-1.1-0.8l-1.2-0.8l-1.2-0.8l-1.2-0.9l-1.4-0.8l-1.7-0.6l-1.6-0.8l-1.2-1.1l-0.7-1.3l-0.4-1.4L161,293l-0.5-1.4l-0.4-1.4l-0.2-1.5
	l0-1.5l0-1.5l0-1.5l0.3-1.5l0.4-1.5l0.4-1.4l0.4-1.4l0.3-1.4l0.2-1.4l0.2-1.3L162,273l-0.2-1.4l-0.2-1.4l0.1-1.4l0.2-1.4l0-1.4
	l0-1.4l-0.1-1.5l-0.3-1.6l-0.3-1.6l0-1.6l0.7-1.3l1.1-1.1l1.2-1l1.1-1l1.2-0.9l1.5-0.8l1.4-0.7l1.3-0.8l1.4-0.6l1.5-0.5l1.1-0.7
	l0.7-1.1l0.6-1.1l0.7-1.1l0.6-1.3l0.7-1.2l1-0.9l1.2-0.6l1.3-0.5l1.1-0.7l1.1-0.6l1.2-0.5l1.4-0.1l1.5,0.2l1.4-0.1l1.1-0.6l0.9-1
	l1-0.8l1.1-0.6l1.1-0.8l1.1-0.7l1.3-0.3l1.3-0.2l1.2-0.7l1.2-0.9l1.2-0.8l1.3-0.9l1.3-1l1.4-0.6l1.4-0.1"/>
<path class="st0" d="M207,231.6l1.3-0.2l1.4-0.3l1.4-0.2l1.4,0.1l1.3,0.3l1.3,0.7l1.1,1.2l1.1,1.1l1.1,0.9l1.1,0.8l1,1l0.9,1.2
	l0.9,1l1,0.7l1.1,0.5l0.9,0.9l0.7,1.2l0.8,0.9l0.9,0.7l0.8,0.9l0.9,0.8l1.1,0.5l1.3,0.3l1.2,0.4l1.3,0.4l1.2,0.4l1.1,0.6l1.2,0.6
	l1.3,0.5l1.7,0.3l1.9,0.2l1.9,0.3l1.8,0.5l1.3,0.8l1,1.1l1,1.1l1.3,1l1.4,1l1.1,1.2l1.1,1.2l1.3,1.2l1.1,1.3l0.5,1.5l0.3,1.5
	l0.4,1.5l0.1,1.6l-0.1,1.6l-0.2,1.6l-0.2,1.6l-0.3,1.5l-0.2,1.5l0.1,1.5l0.3,1.5l0.1,1.5l0.1,1.5l0.3,1.6l-0.1,1.6l-0.5,1.5
	l-0.6,1.5l-0.6,1.4l-0.7,1.4l-0.9,1.3l-1,1.3l-0.6,1.4l-0.2,1.5l-0.3,1.5l-0.4,1.5l-0.7,1.3l-0.9,1.2l-1.1,1.1l-1.5,0.8l-1.5,0.8
	l-1.2,0.9l-1.3,0.8l-1.6,0.5l-1.5,0.5l-1.3,0.6l-1.4,0.5l-1.5,0.3l-1.4,0.4l-1.2,0.5l-1.4,0.3l-1.5,0.1l-1.4,0.2l-1.1,0.5l-0.8,0.9
	l-0.7,1.1l-0.8,1l-0.9,0.9l-1,0.9l-1,1l-1.1,0.8l-1.1,0.7l-1.2,0.5l-1.2,0.4l-1.1,0.7l-1.2,0.7l-1.2,0.8l-1.2,1l-1.2,0.9l-1.3,0.6
	l-1.4,0.4l-1.4,0.4l-1.4,0.2l-1.4-0.2l-1.4-0.3l-1.4-0.1l-1.4-0.3l-1.3-0.7l-1.3-0.5l-1.3-0.2l-1.3-0.3l-1.3-0.6l-1.2-0.7l-1.2-0.7
	l-1.2-0.6l-1.3-0.3l-1.4-0.1l-1.4-0.3l-1.1-0.7l-1-0.9l-1.1-0.7l-1-0.9l-0.8-1.2l-0.9-1.1l-1.1-0.6l-1.4-0.3l-1.4-0.4l-1.1-0.8
	l-1-0.9l-1-0.9l-0.9-1l-0.7-1.2l-0.6-1.3l-0.9-1l-1-0.9l-0.9-1l-1-1l-1.4-0.8l-1.5-0.7l-1.2-1l-0.7-1.2l-0.4-1.4l-0.6-1.3l-0.8-1.2
	l-0.4-1.4l-0.1-1.4l-0.2-1.4l-0.3-1.4l-0.1-1.4l0.2-1.5l0.2-1.4l0.2-1.4l0.4-1.4l0.2-1.4l0-1.3l0-1.3l0.1-1.3l0.2-1.3l0.1-1.3
	l-0.1-1.3l0-1.4l0.1-1.4l0.2-1.3l0.4-1.3l0.3-1.3l0.4-1.3l0.6-1.2l0.8-1.1l1.3-0.9l1.4-0.8l1.1-0.9l0.7-1l0.6-1.1l1-0.9l1.1-0.7
	l1.1-0.8l0.8-0.9l0.8-0.9l0.8-0.9l0.9-0.8l0.8-0.9l0.6-1.1l0.6-1.2l0.8-1l1-0.7l1.2-0.4l1.3-0.2l1.1-0.5l1.1-0.5l1.1-0.4l1.2-0.3
	l1.1-0.4l1-0.7l1-0.6l1.1-0.4l1-0.6l1-0.7l1-0.8l1.1-0.5l1.1-0.4l1.1-0.5l1.1-0.6l1.1-0.6l1.2-0.4l1.2-0.4l1.2-0.2l1.3,0.2l1.2,0.3"
	/>
<path class="st0" d="M207,231.5l1.3,0.3l1.3,0.3l1.3,0.4l1.3,0.2l1.3-0.1l1.4-0.2l1.4-0.2l1.4-0.2l1.4,0.1l1.4,0.2l1.3,0.5l1.2,0.7
	l1.2,0.7l1.2,0.7l1,0.9l1,1.1l0.9,1l1,0.8l1.2,0.6l1.1,0.7l1,0.8l0.9,1l0.7,1.2l0.6,1.3l0.7,1.1l0.9,0.9l0.9,0.9l0.9,0.9l0.9,0.9
	l1.1,0.7l1.2,0.7l1.2,0.7l1.1,0.8l0.7,1.1l0.5,1.3l0.6,1.2l1.1,0.9l1.2,0.9l0.9,1.1l0.7,1.2l0.6,1.2l0.8,1.2l0.8,1.2l0.9,1.2
	l0.9,1.2l0.7,1.3l0.5,1.4l0.7,1.4l0.7,1.4l0.3,1.5l0.2,1.5l0.2,1.5l0.3,1.5l0.4,1.5l0.3,1.6l0.4,1.6l0.3,1.6l-0.1,1.6l-0.1,1.6
	l-0.1,1.6l-0.1,1.6l-0.2,1.6l-0.3,1.6l-0.2,1.6l-0.3,1.6l-0.5,1.5l-1,1.3l-1.3,1.2l-1.2,1.1l-1.2,1.1l-1.2,1.1l-1.2,1.1l-1.2,1.1
	l-1.1,1.1l-1.1,1.1l-1.2,1l-1.3,0.9l-1.4,0.7l-1.4,0.7l-1.2,0.8l-1.2,0.8l-1.2,0.8l-1.3,0.6l-1.3,0.6l-1.3,0.7l-1.3,0.7l-1.4,0.5
	l-1.4,0.4l-1.4,0.4l-1.3,0.6l-1.1,0.9l-1.1,1l-1.2,1l-1.2,0.9l-1.3,0.8l-1.3,0.7l-1.4,0.6l-1.4,0.7l-1.4,0.8l-1.4,0.6l-1.5,0.3
	l-1.5-0.1l-1.5-0.2l-1.5-0.3l-1.5-0.8l-1.5-0.4l-1.5,0.3l-1.5,0.4l-1.5,0.2l-1.5-0.2l-1.4-0.4l-1.4-0.5l-1.4-0.6l-1.3-0.9l-1.2-1
	l-1.2-0.9l-1.3-0.7l-1.3-0.5l-1.3-0.5l-1.4-0.5l-1.4-0.4l-1.4-0.5l-1.3-0.6l-1.2-0.9l-1-1.1l-1-1l-0.9-1.2l-0.8-1.3l-0.8-1.3
	l-0.7-1.3l-0.7-1.2l-0.5-1.4l-0.3-1.6l-0.4-1.4l-0.9-1l-1.1-0.8l-1-0.9l-1.1-0.9l-1.4-0.7l-1.5-0.7l-1.2-1l-1-1.1l-1-1.1l-0.9-1.2
	l-0.7-1.3l-0.5-1.4l-0.5-1.4l-0.6-1.3l-0.7-1.3l-0.8-1.4l-0.6-1.4l-0.1-1.5l0.2-1.5l0.4-1.5l0.6-1.5l0.7-1.5l0.8-1.4l1-1.4l1.1-1.3
	l1-1.3l0.7-1.2l0.3-1.3l0.3-1.3l0.6-1.2l0.7-1.1l0.7-1.1l0.7-1.1l0.7-1.1l0.9-1l0.7-1.1l0-1.3l-0.3-1.5l-0.2-1.5l-0.2-1.6l-0.2-1.6
	l0.2-1.5l0.7-1.2l0.9-1l1-0.9l1.2-0.8l1.3-0.7l1-0.8l0.8-1.1l0.6-1.3l0.7-1.2l1-0.9l1.2-0.7l1.1-0.8l0.9-1l1-1l1.1-0.9l1.2-0.7
	l1.1-0.8l1-1.1l1.1-0.9l1.3-0.6l1.2-0.8l1.2-0.9l1.3-0.6l1.4-0.2l1.5,0l1.5,0.1l1.4,0l1.4,0l1.4,0.2l1.4,0.4l1.4,0.7l1.4,0.5
	l1.3,0.1"/>
<path class="st0" d="M207,237.6l1.1,0.2l1.1,0.3l1.1,0l1.2-0.2l1.2,0l1.2,0l1.2,0.1l1.3-0.2l1.4-0.5l1.3-0.2l1.2,0.4l1.2,0.4
	l1.3,0.1l1.4-0.1l1.3,0.1l1.2,0.4l1.2,0.5l1.2,0.5l1.3,0.3l1.2,0.6l1,0.9l0.8,1.1l0.5,1.4l0.5,1.3l0.6,1.2l0.9,0.9l1,0.7l1,0.8
	l0.9,0.9l0.8,0.9l0.7,1l0.7,1l0.8,0.9l0.8,1l0.6,1.1l0.6,1.1l0.7,1.1l0.5,1.2l0.3,1.3l0.2,1.3l0.4,1.2l0.7,1.1l0.7,1.1l0.6,1.1
	l0.5,1.2l0.6,1.2l1,1.2l1.2,1.2l1.1,1.2l0.8,1.3l0.8,1.4l1.2,1.4l1.5,1.5l1.2,1.6l0.9,1.6l0.7,1.6l0.7,1.7l0.7,1.8l0.5,1.8l0.2,1.8
	l0.3,1.8l0.4,1.9l0.2,1.9l-0.3,1.8l-1,1.5l-1.3,1.3l-1.3,1.3l-1.1,1.3l-1.2,1.3l-1.4,1.1l-1.6,1l-1.5,1l-1.3,1.1l-1.1,1.2l-1.1,1.2
	l-1.2,1.1l-1.3,1l-1.4,0.8l-1.4,0.8l-1.4,0.8l-1.5,0.6l-1.7,0.4l-1.8,0.1l-1.6,0.3l-1.4,0.5l-1.3,0.6l-1.4,0.4l-1.6,0.1l-1.5,0.2
	l-1.2,0.7l-1.1,1l-1.1,1l-1.2,0.9l-1.2,0.8l-1.3,0.7l-1.4,0.5l-1.5,0.1l-1.5,0l-1.5,0l-1.5-0.1l-1.5-0.5l-1.5-0.9l-1.4-0.8l-1.4-0.5
	l-1.3-0.1l-1.3,0.1l-1.3,0l-1.3-0.2l-1.3-0.6l-1.1-1.2l-1-1.5L198,315l-0.9-1.5l-0.8-1.5l-0.7-1.5l-0.7-1.2l-0.8-1l-0.7-1l-0.7-0.9
	l-0.7-0.8l-0.8-0.6l-0.8-0.7l-0.9-0.5l-1-0.2l-0.9-0.4l-0.7-0.8l-0.4-1.1l-0.4-1.1l-0.6-0.8l-0.6-0.8l-0.6-0.7l-0.4-0.9l-0.4-0.9
	l-0.8-0.6l-1.3-0.2l-1.6,0l-1.4-0.2l-1.5-0.3l-1.8-0.2l-1.7-0.3l-1.4-0.6l-1.1-0.8l-0.9-0.9l-0.4-1.2l0.1-1.3l0.1-1.3l-0.1-1.2
	l0.1-1.2l0.2-1.2l0.1-1.2l-0.1-1.1l0-1.1l0-1.1l0-1.1l0.3-1.1l0.4-1.1l0.1-1.1l-0.2-1.1l-0.1-1.1l0.3-1.1l0.3-1l0.1-1.1l-0.1-1.1
	l0.1-1.1l0.5-1l1-0.8l1.1-0.8l1-0.7l1.1-0.6l1-0.7l0.7-0.8l0.4-0.8l0.3-0.9l0-1.1l-0.3-1.3l-0.1-1.2l0.1-1.2l0-1.3l0-1.3l0.3-1.2
	l0.6-0.9l0.6-0.9l0.5-1l0.7-0.9l1-0.6l1-0.5l0.9-0.6l0.8-0.8l0.4-1.3l0.3-1.6l0.4-1.6l0.6-1.3l0.9-1l0.9-1l1-0.9l0.9-1.1l0.8-1.4
	l0.9-1.4l1-1.4l1.1-1.4l1.1-1.5l1.2-1.2l1.4-0.4l1.5-0.2l1.4-0.4l1.5-0.4l1.5-0.2l1.5-0.2l1.5-0.3"/>
<path class="st0" d="M207,235.5l1.2-0.2l1.2-0.1l1.3-0.2l1.3-0.4l1.3-0.2l1.3,0l1.3,0.1l1.4-0.2l1.4-0.3l1.4-0.2l1.3,0.3l1.2,0.6
	l1.2,0.7l1.2,0.7l1.1,0.8l0.9,1.1l0.8,1.1l0.9,1l0.9,1l0.7,1.1l0.8,1l1.2,0.5l1.3,0.4l1.2,0.6l1.3,0.5l1.4,0.4l1.2,0.7l0.8,1
	l0.8,1.1l1.1,0.8l1.6,0.5l1.5,0.6l1.1,0.9l0.8,1.1l0.9,1.1l1,1l1,1.1l0.9,1.2l1,1.1l0.9,1.2l0.6,1.3l0.3,1.4l-0.1,1.5l-0.4,1.6
	l-0.4,1.5l-0.3,1.5l-0.2,1.4l-0.5,1.4l-0.5,1.4l0,1.3l0.3,1.3l0.2,1.3l0.4,1.3l0.8,1.4l0.9,1.4l0.5,1.4l-0.4,1.4l-0.8,1.3l-0.8,1.2
	l-0.5,1.3l-0.2,1.3l-0.3,1.3l-0.3,1.3l-0.3,1.3l-0.5,1.3l-0.7,1.2l-1,1l-0.8,1.1l-0.4,1.3l-0.4,1.3L245,300l-0.8,1.1l-0.6,1.2
	l-0.9,1l-1.2,0.7l-1.3,0.7l-1.1,0.8l-1.2,0.6l-1.4,0.5l-1.2,0.6l-1,0.8l-1,0.8l-1.3,0.4l-1.4,0.1l-1.4,0.1l-1.4,0.1l-1.3,0.1
	l-1.3,0.1l-1.2,0.2l-1,0.5l-1.1,0.4l-1.2,0.2l-1.1,0.2l-1,0.6l-1,0.7l-1.1,0.5l-1.1,0.5l-1.1,0.4l-1.1,0.3l-1.1,0.3l-1.1,0.9
	l-1.1,1.1l-1.2,0.7l-1.2,0.5l-1.3,0.4l-1.3,0l-1.2-0.6l-1.2-0.7l-1.2-0.5l-1.2-0.4l-1.2-0.4l-1.2-0.4l-1.1-0.4l-1.1-0.4l-1.1-0.5
	l-1.1-0.6l-1.1-0.4l-1.3-0.1l-1.4,0.1l-1.4,0.1l-1.2-0.3l-1.2-0.5l-1.2-0.4l-1.3-0.3l-1.3-0.4l-1-0.8l-0.6-1.3l-0.5-1.4l-0.6-1.2
	l-0.7-1l-0.9-0.8l-0.9-0.8l-0.9-0.8l-1-0.7l-1.1-0.7l-1.3-0.6l-1.3-0.7l-1.1-0.8l-0.8-1l-0.9-1l-1.2-0.9l-1.1-1l-0.5-1.3l0.2-1.5
	l0.3-1.5l0.2-1.4l-0.2-1.3l-0.3-1.2l-0.3-1.3l-0.2-1.3l-0.3-1.2l-0.5-1.2l-0.4-1.2l-0.2-1.3l0-1.3l0-1.3l0-1.3l0.2-1.3l0.4-1.3
	l0.6-1.2l0.8-1.2l1-1.1l1.1-1l1.2-1l1.2-0.9l1.2-0.8l1-0.8l0.9-0.8l1-0.8l1.1-0.7l1.1-0.6l1-0.6l0.8-0.7l0.3-0.9l0-1.1l0.2-1
	l0.5-0.9l0.4-1l0.3-1.1l0.6-0.9l0.7-0.8l0.4-1l0.3-1.2l0.5-1l0.6-0.9l0.5-1.1l0.6-1.1l0.8-0.7l0.9-0.7l0.8-0.8l0.9-0.7l1.2-0.2
	l1.4,0.2l1.2,0.1l1.1-0.3l0.8-0.7l0.8-0.8l0.9-0.6l1-0.6l1.1-0.2l1.2,0.3l1.2,0.6l1.2,0.5l1,0l1-0.4l1-0.6l1-0.7l1.1-0.5l1.1-0.5"/>
<path class="st0" d="M207,241.3l1,0.1l1,0.1l1,0.4l1,0.7l0.9,0.5l1,0.3l1,0.2l1,0.2l1,0.3l0.9,0.4l0.8,0.6l0.7,0.8l0.7,0.8l0.8,0.6
	l0.9,0.2l1.1,0l1.2-0.1l1.3-0.2l1.3-0.2l1.3,0l1.1,0.3l0.9,0.6l1,0.5l1.1,0.3l1,0.5l0.8,0.8l0.9,0.6l1.2,0.4l1,0.6l0.8,0.8l0.8,0.8
	l0.9,0.8l0.6,1l0.4,1.1l0.7,0.9l0.9,0.8l0.6,1l0.8,0.9l1.2,0.7l1.5,0.7l1.3,0.8l0.8,1.1l0.7,1.1l0.8,1.1l1.1,1.1l1.2,1.1l1.1,1.2
	l1,1.3l0.5,1.4l-0.1,1.4l-0.4,1.4l-0.3,1.4l0.4,1.4l0.7,1.4l0.7,1.5l0.3,1.5l-0.4,1.4l-0.5,1.4l-0.5,1.4l0,1.5l0.6,1.7l0.5,1.7
	l0,1.6l-0.5,1.4l-0.6,1.4l-0.5,1.4l-0.6,1.4l-1,1.2l-1.1,1.1l-1,1.1l-0.7,1.3l-0.9,1.2l-1.4,0.8l-1.7,0.6l-1.6,0.5l-1.5,0.6
	l-1.5,0.5l-1.5,0.4l-1.4,0.5l-1,0.9l-0.8,1.1l-0.8,1.1l-1.1,0.8l-1.2,0.6l-1.3,0.5l-1.3,0.4l-1.2,0.5l-1.2,0.5l-1.3,0.4l-1.4,0
	l-1.7-0.6l-1.6-0.8L220,312l-1.4-0.4l-1.1,0.2l-1,0.4l-1.1,0.3l-1.1,0.1l-1.1,0.2L212,313l-1.1,0l-1.1-0.1l-1.1,0.1l-1.1-0.1
	l-1.1-0.7l-1-1.2l-1-1.1l-0.9-1l-0.9-0.6l-1,0l-1.1,0.4l-1.1,0.4l-1.1,0.1l-1-0.1l-1.1,0l-1.2,0.1l-1.3,0.3l-1.4,0.5l-1.4,0.5
	l-1.4,0.3l-1.1-0.3l-0.9-0.8l-0.8-1l-0.9-0.7l-1.3-0.1l-1.5,0.1l-1.7,0.2l-1.6-0.1l-1.2-0.5l-1.2-0.6l-1.2-0.6l-1.3-0.5l-1.2-0.7
	l-1-0.9l-0.8-1.1l-0.6-1.2l-0.4-1.3l-0.3-1.3l-0.1-1.4l0.4-1.7l0.6-1.7l0.5-1.6l0-1.3l-0.6-1l-0.6-1l-0.6-1l-0.4-1.1l-0.4-1.1
	l-0.2-1.2l0.2-1.2l0.2-1.2l-0.1-1.2l-0.1-1.1l0.1-1.2l0.3-1.2l0.1-1.1l-0.1-1.1l0-1.1l0.5-1.1l0.8-1l0.6-1l0.5-1l0.7-1l0.7-0.9
	l0.3-1l-0.3-1.2l-0.5-1.3l-0.4-1.3l-0.3-1.3l-0.4-1.4l-0.2-1.4l0.3-1.2l0.9-0.9l0.9-0.8l0.6-1l0.7-0.9l1-0.7l1.2-0.5l0.9-0.7l0.6-1
	l0.1-1.4l-0.1-1.7l0-1.6l0.2-1.5l0.8-1l1.1-0.6l1.1-0.6l0.9-0.8l0.7-1.1l0.8-1.1l0.8-1l0.9-1l1-0.9l1.2-0.6l1.3-0.4l1.4-0.1l1.5,0.2
	l1.4,0.3l1.3-0.1l1.2-0.2l1.3,0l1.3,0.1l1.2,0l1.1-0.4l1.1-0.5l1.2-0.4l1.2,0l1.2,0.2l1.2,0.1"/>
<path class="st0" d="M207,248.9l0.8-0.5l0.9-0.6l0.9-0.6l0.9-0.2l0.8,0.3l0.8,0.6l0.8,0.5l0.7,0.8l0.5,1.1l0.4,1.4l0.3,1.3l0.5,0.7
	l0.7,0.2l0.9-0.2l1-0.3l1-0.3l1.1-0.4l1.3-0.6l1.2-0.4l1.1,0l1,0.1l1.1,0l1.2-0.1l1.2,0l1,0.3l0.9,0.5l0.9,0.5l0.7,0.7l0.4,0.9
	l0.3,1l0.6,0.8l0.8,0.6l0.7,0.7l0.2,1l-0.1,1.2l-0.3,1.2l-0.3,1.2l-0.1,1l0.2,0.9l0.2,0.9l0.1,0.9l0.1,0.9l0.3,0.8l0.8,0.7l1.2,0.6
	l0.9,0.8l0.6,0.9l0.4,0.9l0.6,0.9l0.8,0.9l0.7,1l0.7,1l0.6,1.1l0.6,1.1l0.5,1.1l0.2,1.1l-0.4,1l-0.8,1l-1,0.9l-0.8,0.9l-0.4,0.9
	l-0.4,1l-0.3,1l-0.2,1l-0.4,1l-0.6,0.9l-0.9,0.7l-1,0.6l-0.7,0.7l-0.6,0.8l-0.6,0.8l-0.7,0.7l-0.6,0.8l-0.6,0.8l-0.6,0.8l-0.3,1
	l-0.2,1.1l-0.2,1.2l-0.4,1l-0.7,0.7l-0.8,0.6l-0.8,0.6l-0.9,0.5l-1.1,0.2l-1.2,0l-1.1,0.1l-1,0.3l-1,0.2l-0.9,0.3l-0.8,0.5l-0.8,0.5
	l-1,0.1l-1,0.1l-1,0l-1-0.2l-1-0.2l-1-0.2l-0.9,0.1l-0.8,0.5l-0.8,0.7l-0.8,0.8l-0.9,0.6l-0.9,0.5l-1,0.5l-1,0.5l-1,0.1l-1-0.3
	l-1-0.2l-1,0.2l-1.1,0.3l-1.1,0.3l-1.2,0.6l-1.2,0.5l-1.1,0.1l-1.1-0.2l-1.1-0.1l-1.1-0.2l-0.9-0.7l-0.8-0.9l-0.9-0.6l-1.1-0.2
	l-1.1-0.2l-1.1-0.3l-1.2-0.2l-1.1-0.3l-1.1-0.4l-1.3-0.2l-1.3-0.2l-1.1-0.5l-0.8-0.9l-0.7-1l-0.7-0.9l-0.7-1l-0.4-1.2L177,299
	l0.1-1.5l0.1-1.4l0.2-1.4l0.3-1.4l0.1-1.2l-0.2-1l0-1.1l0.2-1.2l-0.1-1l-0.5-0.8l-0.5-0.8l-0.6-0.8l-0.8-0.8l-0.8-0.8l-0.4-0.9
	l0.1-1l0.2-1l0.1-1l0.1-1l0.4-1l0.5-1l0.5-0.9l0.2-0.9l-0.1-0.9l0.1-0.9l0.2-0.9l0.4-0.9l0.5-0.8l0.4-0.8l0.5-0.8l0.3-0.8l0-0.9
	l0.1-0.9l0.5-0.8l0.7-0.7l0.5-0.8l0.5-0.7l0.6-0.7l0.4-0.7l0.1-0.9l0.3-0.8l0.6-0.7l0.5-0.7l0.3-0.9l0.5-0.7l0.6-0.6l0.5-0.7
	l0.4-0.8l0.6-0.6l0.7-0.6l0.5-0.8l0.5-0.8l0.6-0.7l0.6-0.7l0.6-0.8l0.7-0.6l0.9-0.4l0.9-0.3l0.9-0.3l0.9-0.2l1.1,0.2l1.2,0.6
	l1.1,0.6l1,0.3l0.9,0.1l0.9,0.1l0.8,0l0.7-0.5l0.8-0.3l0.8,0.1l0.8,0.2l0.8-0.1l0.8-0.3l0.8-0.3"/>
<path class="st0" d="M207,250.2l0.8-1l0.9-1l0.9-1.1l1-0.8l1-0.4l1-0.2l1-0.3l1.1-0.4l1-0.2l1.1-0.2l1.1-0.3l1.1-0.2l1.1,0l1.1,0.1
	l1,0.3l1,0.3l1.1,0.3l1.2,0.1l1.1,0.2l0.9,0.6l0.9,0.6l1.3,0.2l1.3,0.2l0.9,0.7l0.7,0.9l0.6,1l0.7,0.9l0.6,0.9l0.5,1l0.7,0.9
	l0.9,0.7l1.1,0.6l1.2,0.6l0.9,0.8l0.6,1l0.6,1l0.8,0.9l1,0.8l0.7,1l0.5,1.1l0.5,1.1l0.6,1l0.6,1.1l0.5,1.1l0.1,1.2l-0.3,1.3
	l-0.5,1.3l-0.9,1.3l-0.9,1.2l-0.6,1.1l-0.7,1.1l-1,1.1l-1,1l-0.4,1l-0.2,1l0,1l-0.1,1l-0.1,1l-0.2,1l-0.3,1l-0.5,0.9l-0.7,0.8
	l-0.6,0.8l-0.7,0.8l-0.7,0.7l-0.7,0.7l-0.8,0.6l-0.5,0.8l-0.2,0.9l-0.1,1l-0.3,0.9l-0.4,0.9l-0.1,1.1l0,1.2l0,1.2l0.1,1.4l0.1,1.5
	l0,1.5l-0.2,1.3l-0.3,1.3l-0.3,1.4l-0.4,1.3l-0.6,1.2l-0.8,0.9l-1,0.7l-1.2,0.4l-1.2,0.3l-1.1,0.4l-1.1,0.5l-1.1,0.5l-1.1,0.5
	l-1,0.6l-1,0.7l-1,0.8l-1.1,0.5l-1.2,0.1l-1.3-0.3l-1.3-0.2l-1.2,0.2l-1.1,0.3l-1.2,0.2l-1.2,0l-1.2,0.1l-1.2,0.3l-1.2,0.5l-1.2,0.2
	L204,316l-1.2-0.2l-1.2-0.3l-1.1-0.5l-1.1-0.6l-1.2-0.2l-1.3,0.1l-1.2-0.1l-1.2-0.3l-1.3,0.2l-1.5,0.6l-1.5,0.2l-1.3-0.2l-1.2-0.4
	l-1.3-0.3l-1.4-0.2l-1.3-0.3l-1.1-0.7l-1-0.9l-1-0.8l-1.2-0.6L178,310l-1.1-0.7l-0.9-1l-0.7-1.2l-0.7-1.1l-0.6-1.2l-0.4-1.4l0-1.6
	l0.2-1.7l0.1-1.6l0-1.4l-0.1-1.3l-0.3-1.1l-0.4-1.1l-0.2-1.2l-0.1-1.2l-0.3-1.1l-0.5-1l-0.5-1l-0.3-1.1l-0.4-1.1l-0.6-1l-0.7-1
	l-0.5-1.1l-0.1-1.2l0-1.2l0-1.2l-0.3-1.1l-0.6-1.1l-0.7-1.2l-0.6-1.2l-0.5-1.3l-0.4-1.3l-0.1-1.3l0.4-1.2l0.7-1.1l0.6-1.1l0.5-1.1
	l0-1.3l-0.2-1.4l-0.1-1.3l0.4-1.2l0.7-1.1l0.8-1l1.1-0.8l1.6-0.5l1.2-0.7l0.5-1.1l0.3-1.2l0.5-1.1l0.7-1l0.7-0.9l0.8-0.8l0.9-0.8
	l0.7-0.9l0.7-1l0.8-0.9l0.9-0.8l0.9-0.8l0.9-0.8l0.9-0.8l1-0.6l1.1-0.4l1.2-0.3l1.2-0.3l1.1-0.5l1.1-0.4l1.2-0.1l1.4,0.3l1.3,0.2
	l1.2,0l1-0.4l1-0.6l1-0.4l1-0.4l1-0.6l1.1-0.4l1.1,0l1.1,0.2l1.1,0l1.1-0.4l1.1-0.7"/>
<path class="st0" d="M207,240.4l1.1-0.3l1.1-0.3l1.1-0.4l1.1-0.2l1.2-0.1l1.2-0.3l1.3-0.5l1.4-0.8l1.4-0.5l1.4-0.2l1.2,0.3l0.9,1
	l0.8,1.3l0.8,1.2l0.8,1l0.7,1.1l0.6,1.2l0.6,1.1l0.7,0.9l0.7,0.9l0.9,0.6l1.2,0.2l1.2,0.2l1,0.5l1.2,0.3l1.6,0l1.5,0.2l1.2,0.5
	l1.2,0.6l1.3,0.5l1.3,0.5l1.3,0.6l1.6,0.5l1.6,0.6l1.2,0.8l1.2,0.9l1.4,0.8l1.3,0.9l0.9,1.2l0.7,1.3l0.9,1.2l1.3,1.1l1.3,1.2l1,1.3
	l0.4,1.5l0.1,1.5l0.1,1.5l0,1.5l0.3,1.5l0.9,1.5l1.1,1.5l1,1.6l0.9,1.6l0.9,1.7l0.6,1.7l0,1.7l-0.5,1.6l-0.7,1.6l-1.1,1.5l-1.5,1.3
	l-1.4,1.3l-1.1,1.3l-0.9,1.3l-0.9,1.3l-1.4,1.1l-1.7,0.9l-2,0.6l-1.8,0.6l-1.7,0.6l-1.7,0.5l-1.6,0.5l-1.3,0.7l-0.8,0.9l-0.8,0.9
	l-0.9,0.8l-1.1,0.7l-1.3,0.5l-1.5,0.2L233,303l-1.5,0.1l-1.1,0.4l-1.2,0.3l-1.2,0.2l-0.9,0.5l-0.8,0.7l-1,0.4l-1.1,0.2l-1.1,0.2
	l-1,0.2l-1,0.2l-1,0.3l-0.8,0.7l-0.9,0.5l-1,0.3l-0.9,0.4l-1,0.2l-1.2-0.5l-1.2-1l-1.1-0.7l-1-0.5l-1-0.7l-0.9-0.5l-0.9,0l-0.9,0.3
	l-0.9-0.1l-0.8-0.8l-0.8-0.9l-0.8-0.7l-0.8-0.4l-0.7-0.6l-0.6-1l-0.6-0.9l-0.5-0.9l-0.4-1.2l-0.3-1.4l-0.2-1.2l-0.3-0.9l-0.3-0.8
	l-0.2-0.9l-0.1-1l-0.2-0.7l-0.4-0.4l-0.3-0.4l-0.2-0.6l-0.4-0.3l-0.9,0.4l-1.2,0.6l-1.2,0.5l-1.1,0.4l-1.2,0.4l-1,0l-0.8-0.2
	l-0.8-0.2l-0.6-0.4l-0.3-0.7l-0.2-0.7l-0.6-0.4l-0.9-0.2l-1.4,0l-1.4-0.1l-1.2-0.3l-1-0.4l-1.1-0.4l-1.2-0.4l-1.1-0.5l-1.1-0.6
	l-0.8-0.7l-0.5-0.8l-0.6-0.8l-0.5-0.9l-0.6-0.9l-0.3-1l-0.1-1l0.2-1l-0.1-1l-0.4-1l-0.6-1l-0.5-1l-0.5-1.1l-0.8-1.1l-1-1.2l-0.9-1.3
	l-0.6-1.3l-0.4-1.3l-0.5-1.4l-0.9-1.5l-0.7-1.5l-0.2-1.4l0.5-1.2l0.9-1l0.8-1l1.1-0.9l1.4-0.7l1.2-0.7l0.9-0.9l0.8-0.9l1.1-0.7
	l1.3-0.5l1.1-0.6l0.8-0.8l0.5-1.1l0.5-1.1l0.7-1l0.6-1l1-0.7l1.4-0.1l1.7,0.3l1.7,0.5l1.8,0.7l1.7,0.9l1.6,0.9l1.3,0.5l1,0.1l1,0.1
	l1,0.1l0.9-0.1l0.8-0.2l0.8-0.3l0.7-0.3l0.7-0.4l0.6-0.9l0.6-1.3l0.7-1.3l0.8-1l0.9-0.6l0.9-0.3l1,0l0.9-0.3l1-0.6"/>
<path class="st0" d="M207,238.9l1.1-0.5l1.2-0.4l1.1,0.1l1.1,0.3l1.1,0.2l1.1,0.4l1,0.8l0.9,1l0.9,0.9l0.8,1l0.7,1.3l0.5,1.4
	l0.5,1.4l0.4,1.4l0.5,1l0.8,0.5l0.8,0.3l0.8,0.4l0.6,0.8l0.5,0.8l0.4,0.9l0.3,0.9l0.6,0.5l1,0.2l1,0.2l0.7,0.5l0.5,0.7l0.7,0.5
	l1,0.3l1,0.3l0.7,0.6l0.6,0.7l0.8,0.6l0.7,0.6l0.3,0.9l0.1,1l0.2,0.9l0.9,0.6l1.1,0.5l0.9,0.7l0.2,1l-0.4,1.1l-0.4,1.1l-0.2,1l0,0.9
	l0,0.9l0,0.9l0.1,0.9l0.3,0.9l0.2,0.9l0.2,0.9l0.7,0.9l0.8,0.9l0.8,1l1,1.1l1.2,1.2l0.9,1.2l0.2,1.1l-0.1,1.1l0,1.1l0.1,1.2
	l-0.1,1.1l0.1,1.2l0.1,1.2l-0.2,1.2l-0.3,1.1l-0.2,1.2l-0.2,1.2l-0.6,1l-0.9,0.8l-0.9,0.8l-0.5,1.1l-0.3,1.2l-0.4,1.2l-0.6,1l-0.7,1
	l-0.6,1.1l-0.8,0.9l-1,0.7l-1.1,0.6l-1.2,0.5l-1.4,0.1l-1.8-0.4l-1.8-0.7l-1.7-0.7l-1.6-0.7l-1.2-0.1l-0.9,0.4l-0.7,0.7l-0.7,0.7
	l-0.8,0.6l-0.8,0.7l-0.9,0.5l-1,0.2l-1,0.2l-1,0.1l-1,0l-1-0.2l-1,0l-0.9,0.1l-0.9,0.1l-1,0l-1-0.2l-1-0.6l-0.9-0.9l-0.9-0.7
	l-0.8-0.5L204,304l-0.7-0.8l-0.8-0.4l-0.8,0l-0.7-0.4l-0.6-1l-0.5-1l-0.5-0.8l-0.4-1.1l-0.2-1.4l-0.3-1l-0.4-0.6l-0.5-0.5l-0.6-0.2
	l-0.7-0.1l-0.6-0.3l-0.2-0.9l0-1.1l-0.1-0.9l-0.1-0.8l0-0.8l-0.2-0.6l-0.5-0.3l-0.7-0.1l-0.8,0l-0.8,0l-0.6-0.3l-0.5-0.4l-0.5-0.4
	l-0.7-0.3l-0.8-0.3l-0.9-0.2l-1.5,0.1l-2,0.2l-2.2,0.2l-1.9-0.1l-1.3-0.4l-1-0.6l-1.2-0.6l-1.2-0.6l-0.7-0.8l-0.4-0.9l-0.4-0.9
	l-0.7-0.9l-0.7-0.9l-0.5-1l-0.6-1l-1-1l-1.2-1.1l-1.1-1.1l-0.6-1.2l0.1-1.2l0.1-1.2l-0.1-1.2l-0.4-1.2l-0.1-1.2l0.2-1.2l0-1.2
	l0.1-1.2l0.7-1.1l0.9-1l0.7-1l0.3-1.1l0.3-1.1l0.3-1.2l0.2-1.2l0.2-1.3l0.2-1.3l0.2-1.3l0.4-1.3l0.5-1.2l0.5-1.2l0.7-1.1l0.5-1.2
	l0.4-1.4l0.5-1.4l0.8-1.1l1.2-0.6l1.3-0.6l1.2-0.6l1.1-0.8l1-0.9l0.9-1.1l1-0.9l1.1-0.8l1.1-0.8l1.3-0.4l1.6,0.3l1.8,1l1.8,1.2
	l1.6,1.1l1.5,0.9l1.5,1l1.4,1.2l1.3,1l1.1,0.7l1,0.3l1,0.3l1,0.4l0.9,0.4l0.9-0.1l0.9-0.5"/>
<path class="st0" d="M207,242l1,0l1,0.3l1,0l1-0.2l1,0.3l0.9,0.9l0.7,1.3l0.8,0.9l0.9,0.3l0.9,0.2l1,0.1l1.2-0.4l1.4-0.8l1.3-0.5
	l1.1,0.1l1,0.4l1,0.4l1,0.4l1.3,0l1.5-0.3l1.5-0.1l1.2,0.3l0.7,0.9l0.5,1.2l0.4,1.2l0.4,1.2l0.2,1.3l0.2,1.3l0,1.4l0.1,1.2l0.1,1.2
	l-0.1,1.2l0,1.1l-0.2,1.2l-0.3,1.2l-0.2,1.1l-0.1,1l-0.1,1l-0.6,1.2l-1,1.3l-1.1,1.2l-0.8,1l-0.4,0.8l-0.3,0.8l-0.6,0.8l-0.9,0.8
	l-0.7,0.7l-0.4,0.6l-0.3,0.6l-0.6,0.6l-0.7,0.6l-0.8,0.5l-0.3,0.5l0,0.5l0,0.5l0,0.5l0.4,0.5l0.7,0.6l0.4,0.6l-0.1,0.5l-0.2,0.5
	l0,0.6l0,0.6l-0.5,0.4l-0.6,0.3l-0.1,0.5l0.3,0.7l0.7,1l0.6,1l0.5,1l0.5,1l0.1,0.8l-0.4,0.6l-0.4,0.6l-0.1,0.8l-0.2,0.7l-0.5,0.5
	l-0.6,0.4l-0.6,0.4l-0.7,0.3l-0.8,0.1l-0.8,0.1l-0.5,0.4l-0.2,0.9l-0.1,1.1l-0.2,0.9l-0.5,0.6l-0.4,0.7l-0.4,0.9l-0.3,1.2l-0.2,1.5
	l-0.2,1.7l-0.4,1.5l-0.5,1.3l-0.6,1.4l-0.6,1.4l-0.7,1.3l-0.9,1l-0.9,0.9l-0.9,1.1l-1,1.3l-1.1,1.2l-1.2,0.4l-1.2,0.1l-1.2,0.4
	l-1.2,0.5l-1.2,0.1l-1.3,0.2l-1.3,0.4l-1.3,0.1l-1.2-0.6l-1-1.1l-1-1.1l-1-0.9l-0.9-1.1l-0.8-1.3l-0.6-1.5l-0.7-1.1l-0.9-0.5
	l-1.1-0.3l-1.3,0l-1.4,0.2l-1.3,0l-1.2-0.3l-1-0.6l-0.9-0.7l-0.7-1l-0.6-1.1l-0.7-0.9l-0.7-0.9l-0.1-1.5l0.4-1.9l0.3-1.6l0-1.3
	l0.1-1.3l-0.1-1.1l-0.5-0.8l-0.5-0.8l0-1.1l0-1l-0.4-0.8l-0.6-0.7l-0.7-0.7l-0.9-0.6L177,287l-1.3-0.6l-1-0.7l-0.4-1l0.1-1.1
	l0.1-1.1l-0.4-0.9l-0.6-0.9l-0.4-1l0.1-1l0.8-1.1l0.9-1l0.7-1l0.1-0.9l-0.8-1l-1-1.1l-0.7-1.1l-0.3-1.1l-0.2-1.1l-0.1-1.1l0.2-1
	l0.8-0.9l0.9-0.8l0.7-0.8l0.4-0.9l0.4-0.9l0.7-0.8l0.6-0.8l0.2-1l-0.4-1.4l-0.5-1.5l-0.3-1.4l0.2-1.2l0.3-1.2l0.2-1.3l0.3-1.3l0.6-1
	l0.7-0.9l0.7-1l0.7-1l0.7-1l0.8-0.9l0.9-0.8l0.8-1l0.7-1.1l0.6-1.3l0.6-1.5l0.6-1.6l0.9-1l1.3-0.4l1.4-0.1l1.4-0.1l1.4,0l1.4,0.3
	l1.4,0.3l1.3,0.3l1.3,0.3l1.3,0.5l1.3,0.8l1.3,0.7l1.2,0.5l1.1,0.5l1.1,0.5l1.1,0.1l1.1-0.5"/>
<path class="st0" d="M207,248l0.8,1.3l0.7,1.3l0.7,1.1l0.7,0.6l0.6,0.5l0.6,0.5l0.6,0.4l0.6,0.4l0.6,0.4l0.6,0.3l0.6,0.4l0.5,0.6
	l0.5,0.5l0.7,0.1l0.9-0.3l0.9-0.3l0.9-0.1l0.8,0l0.8,0.1l0.8,0.2l0.6,0.5l0.2,0.9l0.3,0.8l0.5,0.5l0.6,0.4l0.6,0.4l0.6,0.4l0.8,0.3
	l0.8,0.3l0.6,0.5l0.3,0.7l0.3,0.7l0.5,0.5l0.7,0.4l0.7,0.5l0.6,0.6l0.3,0.7l0.5,0.6l0.7,0.5l0.4,0.7l-0.2,0.9l-0.4,0.9l-0.3,0.9
	l-0.4,0.9l-0.6,0.9l-0.6,0.8l-0.4,0.7l-0.2,0.7l0.2,0.6l0.5,0.6l0.8,0.6l1,0.7l1.2,0.7l1,0.8l0.8,0.9l0.5,0.9l0.7,0.9l1.3,1.1l1,1.1
	l0.5,1.1l0.1,1l-0.2,0.9l-0.2,0.9l-0.4,0.9l-0.6,0.8l-0.6,0.8l-0.7,0.7l-1,0.5l-1.3,0.3l-1.3,0.3l-0.9,0.4l-1,0.4l-1.2,0.2l-1,0.2
	l-0.6,0.5l-0.2,0.8l-0.2,0.9l-0.2,0.9l-0.3,0.9l-0.4,0.8l-0.5,0.7l-0.5,0.7l-0.6,0.6l-0.6,0.6l-0.6,0.7l-0.6,0.6l-0.6,0.6l-0.6,0.7
	l-0.5,1l-0.3,1.5l-0.4,1.5l-0.5,1.4l-0.5,1.5l-0.5,1.7l-0.7,1.3l-1,0.8l-1,0.6l-1,0.6l-1.1,0.6l-1.1,0.5l-1.1,0.6l-1.2,0.2l-1.2-0.4
	l-1.2-0.5l-1.2-0.2l-1.2,0.1l-1.2-0.1l-1.1-0.3l-1.1-0.4l-1.1-0.6l-0.9-1.1l-0.8-1.3l-0.8-1l-1-0.2l-1.2,0.2l-1.1-0.2l-1-0.4l-1.2,0
	l-1.3,0.3l-1.4,0.3l-1.3,0l-1.4,0l-1.4,0l-1.3-0.1l-1.3-0.3l-1-0.7l-0.8-0.9l-0.7-1l-0.9-0.8l-1-0.7l-0.7-1l-0.6-1.1l-0.8-0.9
	l-0.8-0.9l-0.5-1.2l-0.2-1.3l-0.4-1.1l-0.6-1l-0.7-0.9l-0.6-1l-0.2-1.2l0.4-1.5l0.9-1.6l0.8-1.5l0.6-1.3l0.9-1.4l1.2-1.4l0.8-1.2
	l0.3-1l0.2-0.9l-0.1-0.9l-0.6-0.8l-0.9-0.8l-1-0.8l-0.4-0.9l0.1-0.9l0.6-0.9l0.8-0.9l0.4-0.9l0.1-0.9l0.6-0.8l1-0.7l0.8-0.7l0.4-0.8
	l0.5-0.7l0.7-0.6l0.6-0.6l0.4-0.7l0.5-0.6l0.7-0.5l0.8-0.5l0.6-0.5l0.3-0.7l-0.1-0.9l-0.2-1l0-0.9l0.1-0.9l0-1l0-1l0.1-1l0.4-0.7
	l0.7-0.5l0.6-0.6l0.2-1l0-1.3l0.1-1.3l0.2-1.3l0.1-1.5l0.2-1.4l0.5-1l0.9-0.5l1.2,0l1.1,0l1-0.2l0.9-0.3l1-0.2l1.1,0.2l1.1,0.3
	l1,0.1l1,0.1l1,0.2l0.9,0l0.8-0.7l0.8-0.9l0.9-0.4l0.9-0.3l0.9-0.4l0.9-0.4l1,0.1"/>
<path class="st0" d="M207,246.9l0.9,0.7l0.8,0.8l0.8,0.2l0.9-0.4l0.9-0.4l1-0.6l1.1-0.7l1.1-0.6l1-0.2l1-0.1l1-0.1l1.1-0.1l1.1-0.1
	l1.1-0.1l1.1,0l1.1,0.1l1.1,0.2l0.9,0.5l0.8,0.7l0.7,0.8l0.6,0.9l0.7,0.8l0.9,0.5l1.2,0.2l1.1,0.4l0.8,0.7l0.9,0.6l1,0.5l0.8,0.7
	l0.4,1.1l0.3,1.1l0.5,1l0.3,1.1l0.2,1.1l0.2,1.1l0.2,1.1l0,1.1l0.3,0.9l0.6,0.8l0.6,0.8l0.5,0.9l0.5,0.9l0.6,0.9l0.3,1l-0.2,1.1
	l-0.5,1.1l-0.3,1.1l0,1l0.4,0.9l0.3,1l-0.1,1l-0.8,1l-1.1,0.9l-0.7,0.9l-0.5,0.9l-0.3,0.9l-0.3,0.8l-0.5,0.8l-0.8,0.7l-1,0.6
	l-0.8,0.6l-0.5,0.7l-0.8,0.6l-1.2,0.4l-1.2,0.3l-0.8,0.4l-0.4,0.6l-0.5,0.5l-1.2,0.1l-1.4-0.1l-1.2,0l-0.8,0.2l-0.5,0.3l-0.4,0.4
	l-0.1,0.6l0.3,1l0.3,1.1l0.2,1l-0.2,0.8l-0.2,0.7l-0.1,1l0.1,1.2l0,1.2l-0.4,0.7l-0.6,0.5l-0.6,0.5l-0.6,0.5l-0.6,0.5l-0.5,0.8
	l-0.3,1.2l-0.4,1.1l-0.5,1l-0.5,1.2l-0.5,1.5l-0.6,1.3l-0.8,0.8l-0.8,1l-0.8,1.4l-0.8,1.3l-1,0.9l-1.1,0.4l-1.1,0l-1.1,0l-1.1,0
	l-1.1,0.2l-1.1,0.2l-1.1-0.1l-1.1-0.3l-1-0.6l-1-0.6l-1-0.5l-1-0.5l-1-0.4l-1.1-0.1l-1.1,0l-1-0.3l-1-0.5l-1.1-0.2l-1.2,0l-1.2,0
	l-1.2-0.1l-1.3,0l-1.3-0.1l-1-0.5l-0.9-0.7l-0.7-1l-0.4-1.3l-0.1-1.6l-0.1-1.5l-0.2-1.3l-0.2-1.2l-0.4-1l-0.2-1.1l0-1.3l0.4-1.5
	l0.6-1.6l0.3-1.2l0.2-1.1l0.5-1.2l0.4-1.1l0.4-1l0.4-1l0.3-0.9l0.3-0.9l0.3-0.8l0.6-0.9l0.8-0.9l0.5-0.7l0-0.6l-0.2-0.5l-0.4-0.5
	l-0.4-0.5l-0.4-0.5l-0.4-0.6l-0.7-0.6l-1-0.6l-0.6-0.7l0-0.7l0.5-0.6l0.9-0.6l1.4-0.5l2-0.3l1.5-0.3l0.8-0.3l0.3-0.4l0.1-0.5
	l0.3-0.4l0.3-0.4l0.4-0.4l0.7-0.2l0.9-0.1l0.6-0.2l-0.1-0.5l-0.5-0.8l-0.7-0.9l-0.6-0.9l-0.8-1.1l-1.1-1.4l-1-1.5l-0.8-1.5l-0.3-1.2
	l0-0.9l0-1l-0.3-1.4l-0.4-1.6l-0.1-1.5l0-1.4l0.1-1.5l0.1-1.5l0.3-1.3l0.6-1l0.7-0.8l0.7-0.8l0.7-0.9l0.8-0.7l1.1-0.2l1.1,0l1.1-0.1
	l1-0.1l1.2,0.5l1.3,1.2l1.3,1.5l1.1,1.1l1,0.6l0.9,0.4l0.9,0.3l0.8,0l0.8-0.2l0.8,0"/>
<path class="st0" d="M207,256.6l0.6-0.2l0.6,0l0.6-0.5l0.7-0.8l0.7-0.6l0.8-0.5l0.8-0.6l0.7-0.1l0.6,0.5l0.5,0.8l0.5,0.5l0.7-0.1
	l0.8-0.2l0.8-0.2l0.7,0.2l0.7,0.3l0.7,0.3l0.5,0.6l0.5,0.5l0.7,0.2l0.8,0.1l0.7,0.3l0.5,0.5l0.5,0.5l0.2,0.8l-0.1,1.1l-0.2,1.1
	l-0.3,1.1l-0.5,1.2l-0.5,1.2l-0.3,0.9l-0.1,0.7l-0.5,0.9l-0.8,1l-0.5,0.8l-0.6,0.8l-0.9,0.9l-0.7,0.7l-0.1,0.4l0.2,0.3l0,0.4
	l-0.1,0.4l0.3,0.2l0.7,0.1l0.9,0.1l0.9,0.2l0.9,0.2l0.8,0.3l1,0.3l0.9,0.4l0.6,0.5l0.5,0.5l0,0.5l-0.4,0.5l-0.5,0.5l-0.1,0.5
	l0.5,0.6l0.6,0.6l0,0.6L224,280l-0.6,0.4l-0.2,0.5l-0.1,0.5l-0.7,0.3l-1,0.1l-0.6,0.2l0,0.5l0.2,0.6l-0.1,0.5l-0.2,0.4l0.2,0.7
	l0.6,1l0.4,0.9l-0.1,0.6l-0.6,0.2l-0.5,0.3l-0.1,0.6l-0.1,0.7l-0.4,0.4l-0.7,0.1l-0.6,0.1l-0.4,0.3l-0.2,0.6l-0.3,0.5l-0.5,0.3
	l-0.5,0.2l-0.6,0.1l-0.5,0.2l-0.3,0.5l-0.2,0.8l-0.3,0.8l-0.4,0.7l-0.4,0.6l-0.4,0.6l-0.6,0.3l-0.7-0.2l-0.8-0.6l-0.7-0.7l-0.7-0.6
	l-0.6-0.6l-0.6-0.5l-0.5,0.1l-0.5,0.4l-0.5,0.2l-0.5-0.3l-0.5-0.4l-0.5-0.1l-0.5,0.1l-0.5-0.2l-0.4-0.5l-0.4-0.3l-0.5,0.1l-0.6,0.4
	l-0.7,0.4l-0.6,0.2l-0.5-0.1l-0.5-0.2l-0.5-0.1l-0.6-0.1l-0.6-0.1l-0.8,0.3l-1.2,0.9l-1.2,0.8l-0.9,0.2l-0.7-0.1l-0.9,0l-1,0.1
	l-1.1,0.2l-1.1,0.1l-0.9-0.1l-0.7-0.4l-0.6-0.5l-0.8-0.4l-0.7-0.5l-0.4-0.7l-0.1-0.9l-0.2-0.8l-0.1-0.9l0.1-0.9l-0.3-0.7l-0.7-0.5
	l-0.7-0.5l-0.2-0.7l0.1-0.9l-0.1-0.8l-0.6-0.6l-0.9-0.5l-0.5-0.7l-0.2-0.8l-0.4-0.7l-0.3-0.8l0.1-0.8l0.3-0.8l0.2-0.8l-0.4-0.8
	l-0.4-0.8l0-0.8l0.7-0.8l1.2-0.7l1.2-0.6l0.8-0.6l0.7-0.6l0.8-0.5l0.8-0.5l0.4-0.5l0.1-0.6l0.2-0.6l0.4-0.5l0.5-0.5l0.9-0.3l1-0.2
	l0.7-0.2l0.3-0.4l0.3-0.4l0.6-0.2l0.5-0.3l0.1-0.6l0.2-0.5l0.5-0.3l0.4-0.4l0.3-0.4l0.2-0.5l0-0.7l-0.3-1.1l-0.4-1.3l0-0.9l0.3-0.6
	l0.4-0.5l0.3-0.7l0.4-0.6l0.7-0.1l1.1,0.6l1,0.6l0.8,0.3l0.8,0.4l0.8,0.4l0.6,0l0.5-0.3l0.4-0.6l0.5-0.4l0.5-0.1l0.6,0.1l0.6,0.4
	l0.5,0l0.5-0.5l0.5-0.6l0.5-0.4l0.6-0.4l0.6-0.6"/>
<path class="st0" d="M207,240.6l1.1-0.6l1.1-0.2l1.1,0.4l0.9,1.3l0.8,1.6l0.7,1.7l0.6,1.7l0.7,1l0.8,0.6l0.7,0.7l0.6,0.8l0.6,0.7
	l0.7,0.6l0.4,1.1l0.2,1.4l0.4,0.9l0.5,0.5l0.5,0.7l0.3,0.8l0.4,0.6l0.6,0.3l0.7,0.2l0.4,0.6l0.1,0.9l0,1l0.2,0.7l0.7,0.3l0.8,0.2
	l0.7,0.2l0.6,0.4l0.6,0.4l0.7,0.3l0.7,0.4l1,0.2l1.3,0.1l1.1,0.3l0.4,0.7l0,0.9l0.1,0.8l-0.3,0.9l-1,1.2l-1,1.1l-0.4,0.8l-0.4,0.8
	l-0.5,0.8l-0.3,0.7l0,0.6l-0.3,0.7l-0.9,0.7l-1.2,0.7l-1.3,0.6l-1.5,0.5l-1,0.4l-0.3,0.4l0,0.4l0,0.4l0.4,0.5l0.9,0.6l0.6,0.6l0,0.5
	l0.1,0.5l0.4,0.6l0.5,0.7l0.2,0.6l0,0.6l0.3,0.7l0.7,0.9l0.5,0.9l-0.2,0.6l-0.6,0.4l-0.4,0.5l-0.5,0.4l-1,0l-1,0l-0.7,0.2l-0.5,0.3
	l-0.6,0.2l-0.8-0.1l-0.8-0.1l-0.5,0.2l-0.3,0.4l-0.3,0.4l-0.2,0.6l0.2,1.1l0.3,1.5l0.1,1.3l-0.2,0.9l-0.3,0.8l-0.4,0.6l-0.6,0.3
	l-0.4,0.7l-0.4,1l-0.5,0.8l-0.7,0.3l-0.7,0.1l-0.6,0.4l-0.5,0.8l-0.6,0.9l-0.7,0.6l-0.7,0.4l-0.7,0.5l-0.7,0.9l-0.8,0.8l-0.8,0.3
	l-0.8-0.3l-0.8-1L205,302l-0.7-0.9l-0.7-0.2l-0.8,0.3l-0.8,0.2l-0.8-0.1l-0.7-0.3l-0.7-0.3l-0.7-0.4l-0.6-0.5l-0.6-0.6l-0.6-0.5
	l-0.7-0.3l-0.7-0.3l-0.4-0.9l-0.1-1.3l0.1-1.4l-0.1-1l-0.6-0.2l-0.9,0.1l-0.9,0.1l-0.8,0l-1,0.1l-1.2,0.2l-1.1,0l-1-0.1l-1.2,0
	l-1.2-0.1l-0.8-0.4l0-1l0.4-1.3l0.5-1.2l0.4-1.1l0.3-1l0.2-0.9l-0.2-0.7l-0.4-0.5l-0.2-0.7l-0.1-0.7l-0.6-0.5l-1-0.4l-0.6-0.6
	l0.1-0.8l0.2-0.8l0.1-0.7l0.2-0.7l0.4-0.7l0.3-0.7l-0.3-0.7l-0.8-0.7l-0.6-0.7l0-0.7l0.5-0.7l0.5-0.7l0.4-0.6l0.1-0.7l-0.3-0.7
	l-0.4-0.8l-0.2-0.8l-0.2-0.8l-0.3-0.9l-0.4-1l-0.6-1.1l-0.4-1l-0.4-1.1l-0.6-1.2l-0.6-1.3l-0.1-1.1l0.6-0.7l0.5-0.8l0.1-1l0.4-0.9
	l0.7-0.6l0.7-0.7l0.8-0.5l1.4,0l1.7,0.4l1.5,0.4l0.9-0.2l0.5-0.6l0.4-0.8l0.5-0.7l0.7-0.4l0.7-0.5l0.7-0.4l0.7-0.5l0.5-0.8l0.6-0.7
	l0.8-0.2l1.1,0.5l1.2,0.7l1.1,0.7l1,0.7l0.8,0.3l0.7-0.2l0.7-0.2l0.8,0.4l0.8,0.6l0.7,0.2l0.7,0.3l0.7,0.6l0.6,0.3l0.6-0.5"/>
<path class="st0" d="M207,249.1l0.8,0.4l0.8,0.2l0.7,0.7l0.7,0.9l0.7,0.7l0.6,0.7l0.6,0.8l0.4,1.2l0.4,1.2l0.4,0.9l0.5,0.3l0.8-0.4
	l1-0.7l1.2-1.1l1.2-0.9l1-0.3l0.9,0l1-0.1l1.3-0.5l1.4-0.5l1.2-0.2l0.9,0.3l0.4,1l0.2,1.1l0.2,1l0.5,0.7l1.1,0.1l1.3,0l1.1,0.2
	l0.9,0.5l1,0.4l1.2,0.3l1.3,0.3l0.8,0.7l0.3,1l0.1,1l0,1.1l-0.3,1.2l-1,1.4l-1.3,1.5l-1.1,1.3l-0.7,1.1l-0.6,1l-0.8,1l-0.8,0.9
	l-0.6,0.8l-0.6,0.8l-0.5,0.7l-0.5,0.7l-0.2,0.6l0,0.6l-0.4,0.6l-0.4,0.6l-0.3,0.5l-0.2,0.5l-0.2,0.5l-0.5,0.5l-0.3,0.5l-0.2,0.5
	l0.1,0.6l0.5,0.7l0.3,0.7L225,282l-0.3,0.5l0,0.6l0.2,0.7l-0.2,0.6l-0.3,0.5l-0.1,0.6l-0.1,0.6l-0.7,0.3l-1.1,0l-0.9,0l-0.8,0.1
	l-0.5,0.2l-0.1,0.6l0,0.7l0,0.7l-0.2,0.6l-0.5,0.3l-0.6,0.1l-0.9-0.3l-1-0.4l-0.7-0.1l-0.4,0.2l-0.2,0.6l-0.2,0.7l-0.2,0.7l-0.1,0.9
	l-0.1,1.1l0,1.5l-0.1,1.4l-0.2,1.3l-0.5,0.7l-0.7,0l-0.7,0.1l-0.6,0.5l-0.5,1.1l-0.5,1.1l-0.6,1l-0.7,1.1l-0.7,1.1l-0.8,0.8
	l-0.9,0.6l-0.9,0.5l-0.9,0.3l-0.9,0.2l-0.9,0.1l-1,0.4l-1.1,0.9l-1.2,1l-1.2,0.8l-1.1,0.2l-1.1,0l-1.1-0.2l-0.9-0.7l-0.7-1l-0.7-1.1
	l-0.6-1.1l-0.6-1.1l-0.5-1.1l-0.5-0.9l-0.6-0.7l-0.7-0.6l-0.5-0.8l-0.3-1.1l-0.3-1l-0.4-0.8l-0.4-0.9l-0.3-0.9l-0.4-0.7l-0.8-0.4
	l-0.9-0.3l-1-0.3l-1-0.4l-1.1-0.3l-1.1-0.3l-0.9-0.5l-0.5-0.8l-0.5-0.8l-0.8-0.7l-1-0.6l-0.6-0.8l-0.2-1l-0.1-1l0-1l-0.1-1l-0.2-0.9
	l0.1-1l0.2-1l0.6-1l0.7-1l0.6-1l0.4-0.9l0.1-0.8l0.3-0.8l0.4-0.8l0.4-0.8l0.3-0.8l0.2-0.8l-0.1-0.8l-0.2-0.8l-0.1-0.8l-0.2-0.9
	l-0.7-1l-1-1.2l-0.5-1.1l-0.2-1l-0.1-1l-0.5-1.3l-0.6-1.4l-0.4-1.3l0.1-1.1l0.6-0.8l0.9-0.7l0.7-0.8l0.8-0.7l1.2-0.4l1.3-0.2
	l1.1-0.4l0.9-0.5l1-0.4l1.1-0.2l1.2-0.1l0.9-0.3l0.9-0.3l0.9-0.2l1,0l0.9-0.1l0.6-0.5l0.6-0.6l0.8-0.2l1.1,0.3l1,0.3l0.9,0.2
	l0.7-0.3l0.5-0.7l0.6-0.8l0.7-0.5l0.8,0l0.9,0.4l0.9,0.5l0.8,0.3l0.8,0.5l0.8,0.8l0.8,1.2l0.7,1.3l0.6,0.9l0.6,0.8"/>
<path class="st0" d="M207,259.2l0.5,0.3l0.5,0.2l0.5,0l0.5,0l0.4,0.3l0.4,0.4l0.4,0.3l0.4,0.5l0.3,0.7l0.3,0.4l0.5-0.1l0.4,0.1
	l0.2,0.7l0.1,0.7l0.1,0.8l-0.1,1l-0.1,1l0.1,0.5l0.6-0.3l0.7-0.4l0.7-0.3l0.6-0.1l0.2,0.4L215,267l-0.2,0.7l-0.1,0.6l0.1,0.4
	l0.2,0.2l0.4,0.1l0.8-0.3l1.3-0.5l1.4-0.5l1.6-0.5l1.4-0.3l1.1,0l0.8,0.2l0.2,0.6l-0.1,0.7l-0.2,0.7l-0.3,0.7l-0.2,0.6l0,0.5
	l0.2,0.5l-0.2,0.6l-0.7,0.7l-0.6,0.6l-0.4,0.5l-0.6,0.5l-0.9,0.5l-1,0.5l-0.8,0.4l-0.6,0.3l-0.6,0.3l-0.7,0.3l-0.7,0.2l-0.6,0.2
	l-0.1,0.2l0.5,0.3l0.8,0.4l0.9,0.5l0.8,0.5l0.6,0.5l0.1,0.4l-0.2,0.3l0.3,0.5l0.5,0.7l0.2,0.5l0.2,0.5l0.6,0.8l0.8,1l0.7,1l0.5,1
	l0.3,0.9l-0.2,0.6l-0.7,0.1l-0.5,0.3l0,0.8l-0.1,0.7l-0.6,0.3l-0.7,0.1l-0.6,0.1l-0.6,0.2l-0.5,0.3l-0.5,0.2l-0.6,0l-0.8-0.2
	l-0.8-0.3l-0.6-0.1l-0.6,0l-0.6-0.1l-0.4,0.2l-0.3,0.5l-0.2,0.8l-0.3,0.7l-0.4,0.3l-0.5,0.3l-0.5,0.4l-0.5,0.4l-0.5,0.1l-0.6-0.2
	l-0.5,0l-0.5,0l-0.5-0.2l-0.5-0.2l-0.5,0.2l-0.5,0.3l-0.5-0.1l-0.5-0.5l-0.4-0.6l-0.5,0.1l-0.6,0.5l-0.6,0.4l-0.6,0.1l-0.6,0.1
	l-0.6,0.1l-0.4-0.4l-0.3-0.9l-0.2-0.8L200,291l0-1.2l0-1L200,288l-0.1-0.6l0-0.7l0.2-1l0.4-1.1l0.4-1l0.4-0.9l0.5-0.9l0.4-0.8
	l0.2-0.5l-0.5,0.2l-1,0.6l-0.9,0.4l-0.6,0.1l-0.1-0.3l0.2-0.5l0.3-0.5l0.4-0.5l0.5-0.6l0.6-0.6l0.5-0.4l0.2-0.3l-0.1-0.1l-0.3-0.1
	l-0.2-0.1l-0.2-0.1l-0.1-0.2l-0.1-0.2l0.2-0.2l0.6-0.3l0.7-0.3l0.7-0.2l0.9-0.2l0.6-0.1l0.6-0.1l0.6-0.1l0.4,0l0.1,0l0,0l0.1,0
	l0.4,0l0.4,0.1l0.2,0.1l0.2,0.1l0.4,0.1l0.4,0.2l0.2,0.1l-0.2,0l-0.7-0.2l-0.6-0.3l-0.5-0.2l-0.2-0.1l0.1,0l0,0l-0.4-0.3l-1.1-0.8
	l-1-0.9l-0.8-0.7l-1-1l-1-1.1l-0.5-0.8l0-0.4l0.1-0.2l-0.2-0.7l-0.7-1.3l-0.8-1.5l-0.5-1.3l-0.2-1.1l-0.1-1.1l-0.1-1l0.2-0.8
	l0.4-0.4l0.5-0.2l0.5-0.2l0.3-0.6l0.2-0.9l0.3-0.8l0.5-0.4l0.7,0.2l0.6,0.1l0.5-0.5l0.4-1.1l0.4-1.2l0.6-0.8l0.6-0.9l0.6-1.4
	l0.7-1.1l0.8-0.3"/>
<path class="st0" d="M207,254.7l0.6,0.8l0.6,0.7l0.6,0.4l0.5,0.3l0.5,0.6l0.4,0.7l0.5,0.4l0.5,0.3l0.4,0.4l0.5,0.1l0.7-0.3l0.6-0.1
	l0.4,0.4l0.4,0.3l0.4,0.5l-0.1,1.2l-0.4,1.7l-0.4,1.5l-0.2,1.1l-0.2,1l-0.3,1l-0.4,1.1L212,270l-0.6,1.1l-0.3,0.6l0.2,0l0.3-0.1
	l0.3-0.1l0.6-0.2l1-0.5l1.1-0.5l1-0.3l0.8-0.2l0.3,0.2l-0.1,0.5l-0.4,0.6l-0.3,0.5l0.2,0.2l0.5,0.1l0.3,0.2l0.2,0.3l0.3,0.2l0.7,0.2
	l0.4,0.3l0,0.4l0,0.4l0.3,0.3l0.3,0.3l0.3,0.3l0.6,0.3l0.8,0.4l0.3,0.4l-0.5,0.4l-1.2,0.3l-1.3,0.3l-1.1,0.2l-0.4,0.3l0.1,0.3
	l0.3,0.4l0.1,0.3l0.2,0.4l0.5,0.5l0.4,0.5l0.1,0.4l-0.2,0.3l-0.4,0.2l-0.7,0.1l-0.6,0.1l-0.1,0.3l0,0.4l-0.1,0.3l0,0.4l0.2,0.5
	l-0.1,0.3l-0.4,0.1l-0.3,0.2l-0.1,0.3l-0.2,0.3l-0.2,0.3l0.1,0.6l0.5,1.1l0.4,1.2l0.3,1.1l0.2,1.1l0,1l-0.1,0.8l-0.2,0.7l-0.2,0.8
	l-0.3,0.7l-0.4,0.4l-0.5,0.3l-0.5,0.4l-0.5,0.4l-0.6,0.1l-0.7-0.4l-0.7-0.4l-0.6-0.1l-0.5,0.3l-0.5,0.2l-0.6-0.1l-0.6,0.1l-0.6,0.1
	l-0.6,0l-0.6,0l-0.6,0.1l-0.6,0.3l-0.6,0.5l-0.6,0.4l-0.6,0.2l-0.6,0l-0.6-0.3l-0.5-0.7l-0.4-0.6l-0.6,0.1l-0.8,0.6l-1,0.9l-1.1,1.1
	l-1.2,1.1l-1.2,0.8l-1,0.3l-0.9,0.1l-1,0.2l-1,0l-0.7-0.4l-0.6-0.5l-0.9-0.2l-1.2,0.2l-1.4,0.3l-1-0.3l-0.6-0.7l-0.3-1l-0.3-0.9
	l-0.4-0.8l-0.6-0.7l-0.7-0.6l-0.7-0.6l-0.7-0.6l-0.6-0.7l-0.2-0.9l-0.2-0.9l-0.1-0.9l0.3-1.1l0.5-1.2l0.3-1l0.1-0.9l0.4-1l0.8-1.1
	l0.6-0.9l0.3-0.8l-0.2-0.7l-0.2-0.7l0.1-0.7l0.2-0.7l-0.2-0.7l-0.7-0.7l-0.7-0.7l-0.5-0.7l-0.1-0.8l-0.3-0.8l-0.7-0.8l-0.6-0.9
	l-0.4-0.9l-0.2-0.9l0.2-0.8l0.6-0.7l1.2-0.5l1.3-0.4l1.1-0.4l0.7-0.5l0.6-0.5l0.9-0.4l0.9-0.3l0.6-0.4l1-0.2l1.3,0.1l1,0l0.5-0.3
	l0.3-0.5l0.3-0.5l0.3-0.5l0.4-0.4l0.6-0.2l0.8,0l1,0.2l0.7,0.1l0.5-0.2l0.4-0.3l0.5-0.1l0.7,0.2l0.6,0.1l0.5,0l0.4-0.3l0.3-0.3
	l0.4-0.1l0.6,0.3l0.6,0.4l0.5,0l0.4-0.2l0.4-0.2l0.6,0.4l0.6,0.7l0.5,0.4l0.3-0.2l0.3-0.6l0.3-0.6l0.3-0.7l0.4-0.9l0.4-0.7l0.5-0.2"
	/>
<path class="st0" d="M207,244.6l0.9,0.7l0.9,0.6l0.9,0.5l0.9,0.2l0.9,0.2l0.8,0.5l0.7,0.9l0.7,0.6l0.8,0.3l0.8,0.1l0.8,0.3l0.7,0.5
	l0.8,0.3l0.8,0.1l0.8,0.2l0.5,0.9l0.2,1.3l0.1,1.3l0.3,1l0.3,0.8l0.4,0.6l0.6,0.4l0.8,0.1l0.8,0.2l0.7,0.3l0.3,0.8l-0.4,1.4
	l-0.6,1.5l-0.5,1.3l-0.3,1l-0.5,1.1l-0.7,1.2l-0.3,0.8l-0.1,0.7l-0.4,0.8l-0.8,1l-0.9,0.9l-1,0.9l-1.2,0.9l-1.3,0.8l-1.1,0.7
	l-0.8,0.5l-0.3,0.3l0,0.2l0.2,0.2l0.1,0.2l0.1,0.2l0.1,0.2l0.4,0.2l0.5,0.2l0.3,0.2l-0.3,0.2l-0.9,0.2l-0.7,0.2l-0.5,0.1l-0.1,0.1
	l0.2,0.2l0.5,0.3l0.5,0.3l0.5,0.3l0.8,0.4l0.8,0.5l0.7,0.5l0.5,0.5l0.8,0.7l1.3,1l1.6,1.2l1,1l0.1,0.6l-0.4,0.4l-0.4,0.4l-0.3,0.4
	l-0.5,0.2l-0.9-0.1l-1-0.2l-0.7-0.1l-0.6,0l-0.5,0.1l-0.5,0.1l-0.3,0.2l0,0.5l0,0.7l-0.2,0.4l-0.5,0l-0.4,0.1l-0.2,0.4l-0.1,0.6
	l-0.2,0.5l0,1l0.3,1.7l0.2,1.7l-0.1,1.2l-0.1,1.3l-0.2,1.4l-0.5,0.8l-0.6,0.2l-0.7,0.2l-0.5,1l-0.4,1.7l-0.5,1.7l-0.7,1l-0.8,0.6
	l-0.8,0.9l-0.9,1l-0.9,0.8l-1,0.8l-1,0.9l-1.1,0.8l-1.1,0.7l-1.1,0.3l-1-0.4l-0.8-1.2l-0.6-1.7l-0.4-1.9l-0.3-2l0-2.5l0.1-2.3
	l-0.1-1.6l-0.3-1l-0.3-0.9l-0.4-0.6l-0.6-0.2l-0.7,0l-0.5-0.4l0.1-1.2l0.4-1.5l0.6-1.6l0.5-1.3l0.4-1.1l0.5-1.1l0.5-1l0.5-0.9
	l0.4-0.8l0.3-0.7l0.2-0.5l-0.3-0.1l-0.8,0.2l-0.8,0.2l-0.5-0.1l-0.5-0.1l-0.8,0l-0.6-0.1l-0.3-0.3l-0.8-0.1l-1.3,0l-1-0.1l-0.6-0.3
	l-0.8-0.3l-0.9-0.3l-0.8-0.4l-0.2-0.5l-0.1-0.6l-0.1-0.5l-0.1-0.6l-0.2-0.5l-0.1-0.6l-0.4-0.6l-0.6-0.6l-0.3-0.6l0-0.6l-0.1-0.6
	l-0.3-0.7L186,272l-0.3-0.7l-0.9-0.9l-1.1-1l-0.9-1.1l-0.9-1.1l-1.2-1.3l-0.8-1.3l-0.1-1l0.1-1l-0.2-1.2l-0.2-1.2l0-1.1l0-1.2l0-1.2
	l0.3-1l0.8-0.7l0.9-0.6l0.8-0.6l0.6-0.8l0.7-0.7l1-0.4l1-0.4l0.8-0.5l0.7-0.6l0.8-0.6l1.1-0.2l1-0.3l0.9-0.3l0.9-0.3l1-0.2l1.1,0
	l1,0.1l0.8-0.3l0.6-0.9l0.6-1.1l0.7-1l0.9-0.2l1.1,0.4l1.2,0.9l1.1,1.1l1,0.6l0.9,0.5l0.9,1l0.9,1.6l0.8,1.5l0.7,0.9"/>
<path class="st0" d="M207,278.9l-0.1-1.2l0-1.4l0.1-1.1l0.2-1.1l0.2-1l0.2-0.4l0,0.3l0,0.3l0.2-0.3l0.1-0.2l0.1,0l0.2-0.3l0.4-0.6
	l0.2-0.1l0,0.2l0.2-0.2l0.4-0.4l0.2-0.1l0,0.3l0.1,0.1l0.5-0.4l0.7-0.6l0.5-0.3l0.3,0l0.3,0l0.7-0.4l1.2-0.8l1.1-0.6l1-0.4l0.6,0
	l0.4,0.1l0.6,0l0.7,0l1.4-0.4l1.9-0.6l1.9-0.4l1.4-0.1l1.1,0.2l1.1,0.2l1.1,0.3l0.4,0.6l-0.4,0.8L228,270l0.3,0.6l0.9,0.5l0.7,0.6
	l0.3,0.7l0,0.7l0.2,0.7l0.2,0.7l-0.3,0.7l-1,0.7l-1,0.6l-0.3,0.6l0.2,0.6l0.2,0.7l-0.2,0.6l-0.2,0.6l-0.2,0.6l-0.1,0.6l0,0.6
	l-0.3,0.6l-0.6,0.5L226,283l-0.6,0.4l-0.3,0.5l0.2,0.8l0,0.7l-0.4,0.5l-0.6,0.4l-0.4,0.5l-0.3,0.5l-0.5,0.4l-0.5,0.4l-0.2,0.6
	l0.1,0.9l0.2,1l-0.1,0.8l-0.5,0.4l-0.6,0.3l-0.7,0.2l-1-0.3l-1.1-0.4l-0.6,0.1l-0.4,0.4l-0.4,0.5l-0.7-0.1l-0.9-0.5l-0.9-0.6
	l-0.8-0.5l-0.6-0.2l-0.6-0.2l-0.7-0.5l-0.6-0.3l-0.4,0.3l-0.3,0.6l-0.4,0.2l-0.5-0.3l-0.5-0.3l-0.5-0.3l-0.5-0.6l-0.5-1l-0.4-1.1
	l-0.4-1.2l-0.3-1.4l-0.2-1.5l-0.1-1.4l0-1.3l0-0.7l-0.2,0.2l-0.3,0.8l-0.3,0.7l-0.2,0.2l-0.2-0.1l-0.2,0l-0.1-0.2l-0.2,0.1l-0.4,0.6
	l-0.5,0.7l-0.4,0.2l-0.1-0.3l0-0.4l-0.1-0.3l0-0.3l0.2-0.6l0.1-0.4l-0.4,0.2l-0.9,0.8l-1,0.7l-0.7,0.4l-0.7,0.3l-0.9,0.4l-0.9,0.4
	l-0.5-0.1l0-0.4l0.4-0.7l0.3-0.6l0.1-0.4l0-0.4l0.3-0.5l0.5-0.6l0.3-0.4l-0.2-0.2l-0.6-0.1l-0.5-0.1l-0.7-0.1l-0.6-0.2l-0.1-0.3
	l-0.3-0.3l-1-0.1l-1.3-0.1l-0.8-0.3l-0.6-0.4l-0.9-0.4l-0.9-0.4l-0.1-0.5l0.4-0.5l0.7-0.5l1.1-0.4l1.2-0.3l0.7-0.3l-0.1-0.4
	l-0.1-0.4l0.1-0.4l0.1-0.4l-0.2-0.4l-0.2-0.5l0.1-0.4l0.4-0.3l0.2-0.3l-0.3-0.6l-0.1-0.5l0.7-0.1l0.9,0.1l0.7,0l0.4-0.1l0.4-0.1
	l0.5,0l0.2-0.2l0.2-0.3l-0.2-0.6l-0.3-0.7l0-0.6l0.3-0.3l0.5,0.1l0.3-0.2l0.2-0.4l0.2-0.3l0.1-0.5l0.1-0.5l0.3-0.2l0.6,0.3l0.8,0.8
	l0.8,0.8l0.7,0.9l0.6,0.7l0.4,0.5l0.4,0.4l0.5,0.8l0.4,0.8l0.3,0.4l0.2,0.2l0.2,0.3l0.1,0l0-0.7l0.1-0.9l0.1-0.6l0.2-0.8l0.2-1.2"/>
<path class="st0" d="M207,251.3l0.7,0.5l0.7,0.6l0.7,0.3l0.7,0.2l0.7,0.2l0.7-0.1l0.9-0.9l1.1-1.2l1-0.7l0.9-0.3l0.9-0.1l1-0.2
	l0.9,0l0.6,0.9l0.2,1.5l0.3,1.2l0.3,1l0.1,1.2l-0.1,1.5l0,1.2l0.1,1l0,1.1l-0.1,1l-0.1,1l0,0.8l0.2,0.6l0.4,0.4l0.7,0.1l0.7,0.2
	l0.2,0.6l-0.4,1l-0.7,1.1l-0.6,0.9l0.2,0.4l0.7,0.1l0.8,0.1l0.5,0.3l-0.3,0.7l-0.7,0.8l-0.5,0.7l0.2,0.4l0.4,0.3l0.1,0.4l-0.2,0.5
	l-0.2,0.5l0,0.4l0.1,0.4l0,0.4l0,0.4l0.4,0.4l0.7,0.4l0.7,0.4l0.2,0.5l-0.2,0.5l-0.4,0.4l-0.2,0.4l0.4,0.5l0.3,0.5l-0.1,0.5
	l-0.6,0.4l-0.7,0.3l-0.6,0.3l-0.9,0.1l-1,0.1l-0.4,0.2l0,0.4l0,0.4l-0.7,0l-1.1-0.2l-1-0.2l-0.9-0.2l-0.5,0l-0.2,0.1l0.2,0.5
	l0.5,0.8l0.3,0.6l0.1,0.5l0.5,0.9l0.8,1.3l0.4,1l-0.1,0.6l-0.1,0.6l0.1,0.9l0.1,1l0,0.8l-0.4,0.3l-0.6,0.1l-0.5,0.2l-0.4,0.3
	l-0.4,0.3l-0.5,0.3l-0.4,0.5l-0.4,0.4l-0.6,0.1l-0.7-0.4l-0.7-0.7l-0.7-1l-0.6-0.8l-0.5-0.3l-0.4-0.2l-0.5-0.8l-0.5-1.7l-0.4-1.7
	l-0.3-1.2l-0.2-0.3l-0.2-0.1l-0.2-0.5l-0.2-0.3l-0.2,0l-0.2-0.3l0-0.9l0-0.7l-0.1-0.3l0-0.5l0.1-0.7l0.1-0.6l-0.2,0.2l-0.4,0.6
	l-0.3,0.4L205,280l0.2-0.6l0.1-0.4l0.2-0.4l0.2-0.5l0-0.2l-0.2,0.2l-0.4,0.4l-0.4,0.3l-0.3,0.2l-0.5,0.3l-0.4,0.2l-0.7,0.4l-0.9,0.6
	l-0.7,0.3l-0.1-0.2l-0.1-0.2l-0.8,0.3l-0.9,0.3l-0.4-0.1l-0.2-0.2l-0.3-0.2l-0.1-0.3l0.1-0.3l-0.3-0.2l-0.7-0.1l-0.2-0.3l0.7-0.5
	l1.1-0.6l0.9-0.5l0.4-0.3l0.2-0.2l0.3-0.2l0.3-0.2l-0.2-0.2l-0.9-0.1l-0.8-0.2l-0.8-0.2l-0.4-0.3l-0.2-0.3L197,275l-0.4-0.4
	l-0.4-0.4l-0.3-0.4l0.2-0.3l0.5-0.2l0.3-0.2l-0.4-0.5l-0.7-0.6l-0.5-0.6l0.1-0.3l0.2-0.3l-0.1-0.5l-0.6-0.7l-0.6-0.8l-0.3-0.7l0-0.6
	L194,267l-0.4-0.9l-0.3-0.9l0-0.7l0.2-0.6l0-0.7l-0.1-0.9l0.3-0.5l0.9,0.1l1,0.3l0.7,0.1l0.3-0.5l-0.1-1.1l-0.1-1.2l0-1.1l0.2-0.8
	l0.5-0.5l0.6-0.3l0.5-0.4l0.5-0.4l0.6-0.2l0.6-0.2l0.5-0.7l0.4-1.2l0.5-0.8l0.7-0.2l0.8,0.3l0.8,0.3l0.7,0.3l0.7,0.6l0.7,0.7
	l0.6,0.2l0.6-0.2"/>
<path class="st0" d="M207,283.8l-0.2-0.8l-0.2-0.7l-0.1-1.2l0-1.6l0.1-1.4l0.1-1l0.1-0.7l0.1-0.6l0.2-0.8l0.3-0.9l0.3-0.8l0.4-0.7
	l0.4-0.7l0.4-0.5l0.4-0.4l0.4-0.4l0.3-0.2l0.2,0l0.1,0.1l0.3-0.1l0.3,0l0,0.3l0,0.4l-0.1,0.4l-0.3,0.6l-0.8,1l-0.9,1l-0.5,0.5
	l-0.2,0.3l-0.1,0.1l-0.1,0.1l-0.1,0.1l-0.2,0.2l0,0l0.5-0.2l0.4-0.1l0,0.1l-1,0.5l-1.4,0.6l-1.3,0.5l-0.7,0.2l0.1-0.1l0.4-0.2
	l0.5-0.2l0.4-0.1l0.3-0.1l0.4-0.1l0.8-0.1l1.4-0.1l1.7-0.1l2,0l2.2,0.1l1.6,0.3l0.8,0.3l0.6,0.3l0.9,0.4l1,0.5l0.6,0.5l0.3,0.5
	l-0.1,0.4l-0.5,0.3l-0.7,0.2l-0.7,0.2l-0.4,0.2l-0.3,0.3l-0.3,0.2l-0.5,0.1l-1-0.1l-1.2-0.3l-1.2-0.4l-1-0.4l-0.6-0.1l-0.2,0.1
	l0.2,0.4l0.3,0.4l-0.1,0.2l-0.2,0.1l-0.2,0.1l-0.2,0l-0.5-0.3l-0.8-0.7l-0.8-0.8l-0.5-0.4l-0.1,0l0,0.1l0,0.1l-0.1,0l0,0.2l0,0.3
	l0,0.2l0.1,0.5l0.1,0.7l0,0.5l-0.1,0.2l-0.2-0.1l-0.2-0.1l-0.2-0.2l-0.2-0.4l-0.2-0.4l-0.2-0.4l-0.2-0.5l-0.2-0.9L207,277l0-0.9
	l0-0.3l0,0.2l0,0.4l-0.1,0.4l-0.1,0.3l-0.1,0.1l-0.1,0.1l-0.1,0.2l-0.1,0.3l-0.2,0.3l-0.2,0.3l-0.2,0.3l-0.3,0.6l-0.4,0.6l-0.4,0.5
	l-0.5,0.6l-0.5,0.6l-0.6,0.7l-0.6,0.5l-0.5,0.4l-0.9,0.8l-1.4,1.3l-1.5,1.3l-1.4,1l-1.4,0.8l-1.4,0.7l-1.1,0.3l-0.9,0.1l-1,0
	l-1.1,0.1l-1-0.1l-1.1,0l-1.5,0.2l-1.4,0l-0.7-0.5l-0.6-0.6l-0.9-0.4l-0.6-0.6l-0.1-0.9l-0.3-0.8l-0.6-0.6l-0.8-0.6l-0.4-0.8
	l-0.1-0.9l0.1-0.9l0.3-0.9l0.3-0.9l0.1-0.8l0-0.8l0-0.8l0-0.8l0.3-0.8l0.3-0.8l0.2-0.8l0.3-0.7l0.6-0.7l0.7-0.6l0.6-0.6l0.4-0.6
	l0.3-0.7l0.5-0.6l0.4-0.6l0.3-0.6l0.3-0.6l0.6-0.5l0.9-0.3l0.9-0.3l0.8-0.3l1-0.1l1.4,0.1l1.5,0.3l1.4,0.3l1.2,0.3l1.2,0.4l1.4,0.6
	l1.4,0.7l1.2,0.7l0.8,0.4l0.7,0.4l0.8,0.6l1,0.9l1.1,1.1l0.9,1.1l0.7,1l0.5,0.7l0.3,0.5l0.3,0.6l0.4,0.8l0.4,0.9l0.3,1l0.1,0.7
	l0.1,0.6l0,0.5l-0.1,0.3l-0.2,0.1l-0.3-0.4l-0.4-0.6l-0.3-0.4l-0.2-0.1l-0.2,0l-0.2-0.5l-0.2-0.5l-0.2-0.6l-0.1-1l-0.1-1.3"/>
<path class="st0" d="M207,264.1l0.4-1l0.4-1l0.5-0.4l0.5-0.4l0.5-0.6l0.5-0.2l0.4,0.5l0.4,0.3l0.6-0.3l0.7-0.7l0.7-0.7l0.6-0.2
	l0.6,0l0.5,0.2l0.4,0.3l0.4,0.5l0.2,0.6l0.2,0.6l0.2,0.7l0,0.8l-0.1,0.9l-0.3,1.1l-0.1,0.7l0.3,0.2l0.3,0.3l0.1,0.4l0.5,0.1l1-0.4
	l1-0.3l0.8-0.1l0.9-0.1l1.1-0.2l0.8,0.1l0.6,0.3l0.5,0.4l0.4,0.4l0,0.6l-0.6,0.9l-0.5,0.8l-0.2,0.6l0.4,0.4l1.1,0.2l1.2,0.2l1.6,0.2
	l1.6,0.3l0.9,0.5l0.3,0.6l0.1,0.7l0.3,0.7l0.6,0.6l0.5,0.7l0.4,0.7l-0.3,0.7l-1.2,0.7l-1.4,0.6l-0.9,0.5l-1,0.5l-1.5,0.3l-1.3,0.3
	l-0.9,0.3l-1.2,0.2l-1.6,0l-1.4,0l-0.9,0.1l-0.8,0l-1-0.1l-1-0.2l-1.1-0.3l-1-0.3l-1-0.4l-0.9-0.4l-0.5-0.2l-0.2,0l-0.1,0.1
	l-0.3-0.1l-0.5-0.3l-0.4-0.2l-0.3-0.2l-0.2-0.1l-0.1,0l-0.1,0l-0.1,0l0.1,0.3l0.3,0.5l0.3,0.6l0.2,0.5l-0.2-0.1l-0.4-0.5L208,278
	l-0.2-0.3l0.2,0.5l0.2,0.8l0,0.4l-0.2-0.2l-0.1,0l0,0.4l0,0.4l-0.2-0.2l-0.2-0.7l-0.2-0.8l-0.1-0.5l-0.1-0.1l-0.1-0.1l-0.1-0.3
	l0-0.5l0-0.3l0,0.2l-0.1,0.4l0,0.1l0-0.5l0.1-0.8l0.2-0.9l0.2-0.8l0.3-0.8l0.3-0.7l0.2-0.4l0.1,0.1l0,0.3l0,0.2l0.2-0.1l0.2-0.2
	l0.2-0.1l0.1,0.1L209,273l-0.2,0.4l-0.1,0.3l0,0.1l0,0.1l-0.2,0.4l-0.3,0.4l0.2-0.1l0.5-0.4l-0.1,0.2l-0.4,0.4l-0.2,0.3l-0.3,0.3
	l-0.6,0.5l-0.6,0.4l-0.2,0.1l0,0l-0.1,0.1l0.2-0.1l0.5-0.2l0.4-0.2l0.2-0.1l0.3-0.1l0.8-0.2l0.9-0.2l0.5,0l-0.1,0.1l-0.5,0.2
	l-0.4,0.1l-0.4,0.1l-0.7,0.1l-0.6,0.1l-0.5,0l-0.3,0l-0.4,0l-0.8-0.1l-0.8-0.1l-1-0.2l-0.8-0.2l-0.4-0.2l-0.3-0.2l0.2-0.1l0-0.1
	l-0.2-0.2l-0.1-0.2l0.1-0.1l-0.3-0.3l-1-0.6l-1.1-0.8l-0.4-0.5l0.5,0l0.7,0.2l0.5,0.1l0.4,0l0.6,0.2l0.6,0.2l0-0.2l-0.6-0.8
	l-0.5-0.7l-0.1-0.4l0.3,0l0.5,0.3l0.5,0.3l0.5,0.3l0.3,0.1l0.1-0.1l-0.1-0.4l0-0.4l0-0.3l0-0.5l0-0.5l0.1-0.2l0.4,0.4l0.5,0.7
	l0.4,0.5l0.2,0.2l0.1-0.4l0.1-0.5l0.2-0.1l0.2,0.3l0.2,0.2l0.2-0.2l0.2-0.2l0.2,0.1l0.2-0.1l0.2-0.7"/>
<path class="st0" d="M207,277.9l0-0.6l0-0.6l0,0.1l-0.1,0.3l0-0.2l0-0.4l0-0.3l0.2-0.7l0.4-1.5l0.5-1.3l0.3-0.5l0.1,0.1l0,0.3
	l-0.2,0.8l-0.2,0.6l0,0.1l0,0.1l-0.3,0.6l-0.4,0.7l-0.1,0.2l0.1-0.1l-0.1,0.1l-0.2,0.2l0,0l0.2-0.2l0.2-0.2l0.3-0.2l0.5-0.4l0.8-0.6
	l1.1-0.8l1.3-0.8l1.3-0.7l1.1-0.5l1.1-0.4l1.1-0.3l0.9-0.1l0.5,0.1l-0.2,0.5l-0.3,0.5l0,0.4l0.2,0.3l0.1,0.3l-0.2,0.4l0.2,0.3l1,0.1
	l1.5,0.1l1.2,0.2l0.9,0.3l0.9,0.4l1,0.4l0.7,0.5l0.2,0.5l-0.7,0.5l-0.9,0.5l-0.8,0.4l-0.3,0.4l-0.4,0.4l-1.3,0.2l-1.5,0.1l-1.4,0
	l-1.8-0.1l-2.2-0.4l-1.8-0.4l-1.1-0.2l-0.8-0.2l-0.8-0.3l-0.9-0.3l-1-0.5l-1.1-0.6l-1-0.6l-0.9-0.7l-0.7-0.6l-0.3-0.3l0.1-0.1
	l0.4,0.1l0.7,0.4l0.8,0.6l0.6,0.5l0.2,0.2l0.1,0l0.2,0.1l0.2,0.2l0.3,0.4l0.5,0.7l0.5,0.8l0.6,1l0.8,1.5l0.8,1.8l0.6,1.6l0.2,0.9
	l-0.1,0.4l-0.1,0.5l0,0.9l0.1,1.3l0,1.2l-0.1,1.3l-0.1,1.6l-0.1,1.9l-0.3,1.7l-0.4,1.2l-0.5,1l-0.6,1.1l-0.6,1.1l-0.7,0.6l-0.7-0.2
	L206,299l-0.6-0.9l-0.6-0.7l-0.6-0.6l-0.5-0.9l-0.4-1l-0.4-0.8l-0.4-0.8l-0.1-1.4l0.1-1.8l0-1.2l-0.2-0.7l-0.1-0.9l-0.1-0.7
	l-0.3-0.2l-0.1-0.5l0.3-1.3l0.6-1.5l0.4-1.1l0.1-0.5l0.2-0.6l0.7-1.2l1.2-1.6l1.1-1.3l0.8-0.9l0.7-0.6l0.6-0.5l0.4-0.2l0.2-0.1
	l0.3-0.1l0.4-0.2l0.6-0.3l0.6-0.2l0.6-0.2l0.5-0.1l0.1,0.2l-0.2,0.3l-0.6,0.4l-1.3,0.7l-1.7,0.7l-1.3,0.5l-0.8,0.2l-1,0.2l-1.5,0.3
	l-1.8,0.2l-1.5,0.1l-1.5,0l-1.6-0.1l-1.5-0.2l-1.2-0.3l-0.6-0.4l-0.3-0.4l-0.3-0.4l-0.4-0.4l-0.2-0.5l0-0.4l-0.1-0.5l-0.4-0.5
	l-0.1-0.5l0.7-0.3l1.1-0.2l0.5-0.3l0.4-0.3l1,0l1,0l0.1-0.3l-0.2-0.5l-0.1-0.4l-0.2-0.5l-0.3-0.6l-0.3-0.6l0.4-0.2l1.1,0.4l1.3,0.5
	l1.2,0.6l0.7,0.2l0.4,0l0.4,0l0.3-0.1l0.5,0.1l0.6,0.3l0.3,0.1l-0.1-0.5l-0.5-1l-0.4-1.1l-0.5-1.4l-0.4-1.4l0-0.8l0.3-0.3l0.3-0.4
	l0.2-0.6l0.4-0.2l0.5,0.1l0.4,0l0.5,0.1l0.6,0.7l0.6,1l0.5,0.7l0.4,0.2l0.4,0.3l0.3,0.3l0.3,0.3l0.3,0.2l0.3-0.2"/>
<path class="st0" d="M207,272.5l0.1,0.3l0.1,0.8l0,0.8l0,0.5l0,0.3l0.1-0.1l0.2-0.7l0.1-0.3l0,0.1l0.1-0.1l0.2-0.3l0,0.1l-0.1,0.5
	l-0.1,0.3l0.4-0.7l0.8-1.4l0.9-1.3l0.8-0.9l0.7-0.7l0.8-0.8l0.5-0.3l0,0.5l-0.1,0.6l0.2,0.1l0.3,0l0.1,0.3l-0.2,0.5l0.1,0.3l0.3,0.1
	l0.9-0.4l1.2-0.5l1-0.3l0.7-0.1l0.3,0.3l0.2,0.3l0.3,0.3l-0.1,0.5l0.2,0.3l0.6,0.1l0.8,0.1l0.7,0.2l0.6,0.3l0.7,0.2l0.5,0.3l0.2,0.4
	l-0.2,0.5l-0.6,0.5l-1.1,0.6l-1.1,0.5l-0.6,0.4l-0.6,0.4l-1.3,0.3l-1.8,0.2l-1.6,0.1l-1.7,0l-2.1-0.1l-1.8-0.2l-1-0.2l-0.6-0.1
	l-0.6-0.2l-0.6-0.2l-0.3-0.2l-0.7-0.3l-1-0.5l-0.6-0.4l-0.3-0.3l-0.5-0.4l-0.3-0.4l0.4,0l0.6,0.1l0.1-0.1l-0.3-0.4l0.1-0.2l0.4,0.1
	l0.9,0.5l1.3,0.9l1.5,1.2l1.4,1.3l1.3,1.3l0.9,1.1l0.3,0.5l-0.3-0.2l-0.4-0.4l-0.2-0.1l-0.1,0l-0.1,0.1l-0.3-0.3l-0.2-0.1l0.1,0.4
	l0.4,1l0.2,0.9l-0.1,0.2l-0.1,0.2l0,0.4l0,0.5l-0.1,0.3l-0.2,0.1l-0.1,0.5l0,1.2l0,1.4l-0.2,1.1l-0.3,0l-0.3-0.5l-0.3-0.2l-0.3,0.7
	l-0.4,1.2l-0.4,1.1l-0.5,1.4l-0.7,2l-0.7,1.5l-0.7,0.7l-0.7,0.5l-0.8,0.7l-0.8,0.7l-0.7,0.3l-0.6-0.1l-0.5-0.5l-0.3-0.9l-0.2-1.1
	l-0.1-1.1l0-1.2l0.1-1.2l0.4-1.5l0.6-1.8l0.5-1.4l0.3-0.9l0.1-0.6l0.1-0.6l-0.1-0.4l-0.4,0l-0.6,0.2l-0.6,0.2l-0.5,0l-0.4-0.1
	l-0.1-0.3l-0.5-0.1l-1,0.3l-1.1,0.2l-0.7-0.1l-0.4-0.3l-0.6-0.2l-0.9-0.1l-0.9-0.1l-0.3-0.4l0-0.6l0.1-0.6l0.1-0.5l0.4-0.6l1.2-0.8
	l1.7-0.8l1.4-0.6l0.7-0.4l0.6-0.4l1-0.4l1.4-0.3l1.3-0.2l1.2-0.2l1.2-0.1l1.6,0l1.6,0.1l0.7,0.1l-0.3,0l-0.5-0.1l-0.4-0.1l-0.8-0.2
	l-0.7-0.2l0.1,0l0.3,0.1l0-0.1l-0.1-0.1l0,0l-0.1-0.1l-0.7-0.4l-1.2-0.8l-1.1-0.8l-0.7-0.7l-0.4-0.5l-0.5-0.6l-0.6-0.8l-0.3-0.6
	l0-0.4l-0.3-0.7l-0.6-1l-0.6-1.2l-0.7-1.3l-0.5-1.3l-0.2-1l0.1-0.7l0.4-0.3l0.5-0.2l0.7,0.2l0.7,0.3l0.5,0l0.4-0.2l0.6,0.1l0.7,0.5
	l0.6,0.4l0.5,0.1l0.4,0l0.5,0.4l0.5,0.5l0.4,0.4l0.4,0.1l0.3-0.2l0.4,0.1l0.4,0.2l0.3,0l0.3-0.4l0.3-0.5"/>
<path class="st0" d="M207,269.8l0.2,0.6l0.1,0.9l0.1,0l0.2-0.7l0.3-0.6l0.3-0.7l0.4-0.8l0.5-1.2l0.5-1l0.5-0.7l0.3,0.1l0.1,0.7
	l0,0.7l0,0.8l0.2,0.3l0.5-0.4l0.6-0.5l0.3,0l-0.1,0.7l-0.2,0.8l-0.3,0.9l-0.4,0.9l0,0.3l0.4-0.1l0.3,0l-0.3,0.6l-0.4,0.6l-0.1,0.3
	l-0.4,0.6l-0.6,0.7l-0.2,0.3l0.1,0.1l-0.5,0.5l-0.8,0.6l-0.3,0.3l0.1,0l0,0l-0.1,0.1l-0.1,0.1l0.1,0l0.3,0l-0.2,0.1l-0.7,0.2
	l-0.9,0.3l-0.4,0.1l0.3-0.1l0.5-0.1l0.4,0l-0.2,0l-0.7,0.1l-0.8,0l-1,0l-0.4-0.1l0.1-0.1l0-0.1l-0.3-0.1l0.1-0.1l1,0.1l1.5,0.3
	l1.2,0.3l0.8,0.3l1.1,0.4l1.6,0.6l1.8,0.8l1.1,0.7l0,0.3l-0.7-0.1l-0.6,0l-0.1,0.2l-0.1,0.2l-0.1,0.2l0.2,0.4l0.7,0.8l1,1.1l0.6,0.9
	l0,0.5l-0.1,0.4l0,0.5l0,0.5l-0.1,0.4l-0.3,0.2l-0.4,0.2l-0.3,0.2l-0.2,0.3l-0.2,0.4l-0.1,0.5l-0.4,0l-0.7-0.5l-0.7-0.5l-0.4,0
	l-0.2,0.4l-0.3,0.3L211,287l-0.4,0l-0.4-0.3l-0.6-0.8l-0.7-1.6l-0.6-1.9l-0.5-1.8l-0.4-1.9l-0.4-2.6l-0.2-2.8l0-2l0.1-0.9l0.2-0.2
	l0.2-0.4l0.2-0.5l0.2-0.3l0.2,0.1l0.2,0l0.3-0.4l0.4-0.7l0.4-0.4l0.2,0.3l0.1,0.5l0.3-0.2l0.5-0.6l0.4-0.2l0.2,0.3l0.1,0.4l0,0.6
	l-0.2,0.8l-0.2,0.8l-0.1,0.5l0,0.3l0.1,0.1l0.4-0.2l0.4-0.2l0.1,0.2l-0.1,0.4l0.1,0.2l0.3,0l-0.1,0.3l-0.4,0.6l-0.5,0.6l-0.8,0.7
	l-0.8,0.7l-0.8,0.6l-0.6,0.4l-0.3,0.2l-0.3,0.1l-0.2,0.1l0.1-0.1l0.6-0.3l0.7-0.2l0.1,0l-0.7,0.3l-0.7,0.2l-0.5,0.1l-0.5,0.1
	l-0.9,0.1l-0.9,0.1l-0.7,0l-0.7-0.1l-0.4-0.1l-0.5-0.1l-0.5-0.2l0.1-0.2l0.8-0.1l1,0l0.9,0l0.7,0l0.6,0l0.5,0.1l-0.4-0.1l-0.7-0.3
	l-0.4-0.2l-0.5-0.3l-1.3-0.6l-1.3-0.7l-0.5-0.5l-0.1-0.3l-0.2-0.3L200,272l-0.5-0.6l-0.6-0.7l-0.4-0.6l0.1-0.3l0.4-0.1l0.1-0.3
	l-0.1-0.5l0.1-0.4l0.2-0.2l0.1-0.3l-0.3-0.9l-0.4-1.1l-0.3-1.1l-0.1-0.9l-0.1-0.9l-0.3-1.3l0.1-0.9l0.6-0.1l0.6,0l0.6,0l0.9,0.7
	l1.2,1.6l1.1,1.8l0.9,1.6l0.6,1l0.3,0l0.2-0.2l0.3,0l0.4,0.4l0.4,0.9l0.3,1l0.3,1.1l0.2,0.9l0.1,0.1l0.1-0.3"/>
<path class="st0" d="M207,279.1l-0.1,0.4l-0.1,0.6l-0.1,0.2l-0.1,0.2l-0.2,0.7l-0.3,0.9l-0.3,0.4l-0.1-0.4l0-0.5l-0.1-0.4l-0.1-0.1
	l0-0.4l0.3-1.1l0.3-0.9l0.4-0.9l0.6-1.3l0.8-1.5l0.6-0.9l0,0.1l-0.2,0.4l-0.3,0.5l-0.2,0.4l0.1-0.1l0.2-0.1l0.2-0.1l0.2-0.1l0.2-0.1
	l0.3-0.1l-0.4,0.4l-1,0.8l-0.6,0.4l-0.1,0.1l-0.4,0.3l-0.7,0.4l-0.6,0.3l-0.3,0.1l-0.1,0l-0.3,0l-0.5,0.1l-0.6,0.1l-1.1,0.2l-1,0.2
	l-0.7,0l-0.7,0l-0.4-0.2l0.7-0.4l1.3-0.4l1.6-0.4l1.4-0.3l1.1-0.2l1.1-0.1l1.2,0l1.4,0l1.2,0.1l0.8,0.2l0,0.1l0.2,0.1l1.1,0.3
	l1.6,0.5l1.7,0.6l1.5,0.7l1.4,0.8l1.3,0.8l1.1,0.8l0.7,0.8l0.2,0.6l-0.3,0.4l-0.2,0.4l-0.3,0.4l-0.5,0.2l-1-0.1l-0.9-0.1l-0.2,0.3
	l0.1,0.6l0.2,0.7l0,0.6l-0.2,0.5l-0.1,0.5l-0.4,0.3l-0.8-0.2l-0.9-0.4l-0.7-0.2l-0.5,0l-0.6-0.1l-0.7-0.3l-0.7-0.4l-0.8-0.7
	l-1.1-1.3l-1.1-1.6l-1-1.6l-0.5-0.8l-0.1,0l0,0.3l0,0.5l-0.1,0.3l-0.1,0.1l-0.2-0.1l-0.2-0.2l-0.2-0.3l-0.2-0.3l-0.1-0.1l-0.1,0
	l-0.1,0l-0.1,0.4l-0.1,0.7l-0.2,0.6l-0.2,0.5l-0.2,0.4l-0.2,0.2l-0.2,0.2l-0.2,0l-0.2,0l-0.3,0.3l-0.4,0.5l-0.4,0.3l-0.1-0.4
	l0.1-0.9l0.1-0.8l0.1-0.7l0.2-0.9l0.2-0.7l-0.2,0l-0.4,0.4l-0.5,0.5l-0.4,0.2l0-0.2l0.5-0.9l0.8-1.1l0.3-0.5l-0.2,0.1l-0.5,0.4
	l-0.6,0.4l-0.6,0.4l-0.7,0.4l-0.4,0.1l-0.2-0.1l-0.4,0l-0.5,0.1l-0.6,0.1l-0.4-0.1l0-0.3l0.3-0.4l0.4-0.4l0.6-0.5l0.6-0.4l0.5-0.3
	l0.3-0.2l-0.1-0.1l-0.5,0l-0.9,0l-1.1,0l-0.8-0.1l-0.7-0.2l-0.6-0.2l-0.4-0.3l-0.4-0.3l-0.9-0.3l-1.3-0.4l-0.5-0.4l0.6-0.3l0.7-0.3
	l0.3-0.3l0.3-0.3l0.5-0.2l0.4-0.2l0.1-0.3l-0.1-0.4l-0.1-0.4l0-0.4l0.2-0.3l0.5-0.2l0.6-0.1l0.5-0.1l0.2-0.2l0.1-0.3l0.2-0.2
	l0.4-0.1l0.5,0l0.4-0.1l0-0.3l0-0.4l0.4,0l0.7,0.3l0.6,0.3l0.1-0.2l-0.1-0.4l0.1-0.3l0.4,0.1l0.3,0.1l0-0.5l-0.1-0.6l-0.1-0.7
	l-0.1-0.7l0-0.8l0.1-0.6l0.4,0.1l0.8,1.2l0.9,1.8l1,2.4l0.8,2.2l0.4,1.4l0.3,1.1l0.2,1.1l0.1,1.1l0,0.9l0,0.8l-0.1,0.4l-0.1-0.2
	l-0.1-0.4"/>
<path class="st0" d="M207,270l0.1,1.2l0.1,0.8l0.1,0l0.1-0.1l0,1l-0.2,1.8l-0.4,1.9l-0.3,1.2l-0.3,0.9l-0.4,1l-0.5,1l-0.3,0.4l0-0.4
	l0-0.4l0-0.2l0-0.4l0.2-0.6l0.3-0.8l0.1-0.3l-0.2,0.1l-0.3,0.2l-0.4,0.4l-0.1-0.1l0.1-0.3l0.1-0.2l-0.1,0l-0.3,0.2l-0.2,0.1
	l-0.4,0.2l-0.2,0l0.1-0.2l0.1-0.2l-0.1,0l-0.6,0.2l-0.6,0.2l-0.6,0.1l-1.1,0.3l-1.3,0.4l-1.1,0.2l-1.1,0.1l-0.9,0l-0.3-0.2l0-0.4
	l-0.1-0.3l-0.3-0.3l0.3-0.4l0.8-0.5l0.2-0.3l-0.3-0.3l-0.1-0.3l0.3-0.3l-0.1-0.3l-0.5-0.3l-0.2-0.3l-0.2-0.3l-0.4-0.4l-0.2-0.4
	l-0.1-0.4l-0.2-0.4l-0.4-0.5l0.3-0.3l1.1-0.1l1.2,0l0.8,0l0.4-0.1l0.1-0.3l-0.3-0.5l-0.5-0.6l-0.4-0.6l-0.3-0.5l-0.2-0.5l0-0.5
	l0.2-0.3l0.2-0.3l0.2-0.3l0.6,0.1l0.9,0.4l0.7,0.2l0.2-0.3l-0.1-0.6l0.2-0.2l0.7,0.4l0.9,0.7l0.5,0.3l0.2-0.2l0-0.5l0-0.6l-0.1-0.9
	L202,266l-0.1-0.9l0.2-0.4l0.3-0.3l0.3-0.3l0-1.2l-0.3-2.3l-0.2-2.6l0.1-2.2l0.3-1.6l0.4-1.6l0.5-1.5l0.7-0.8l0.8-0.3l0.8-0.2l0.8,0
	l0.8,0.5l0.8,0.5l0.8,0.2l0.8,0l0.8-0.1l0.8,0.1l0.7,0.5l0.6,0.8l0.4,1.2l0.3,1.5l0.2,1.4l0.3,1.1l0.2,1l0.2,1l0.3,0.6l0.7-0.3
	l0.9-0.6l0.8-0.2l0.8-0.1l1-0.3l1.1-0.5l1.1-0.3l0.9-0.1l0.5,0.5l-0.1,1.1l-0.4,1.4l-0.4,1.3l-0.1,0.9l-0.2,0.9l-0.1,0.9l-0.5,1
	l-0.2,0.8l0.2,0.5l0.2,0.5l-0.2,0.7l-0.5,0.8l-0.3,0.6l0.3,0.3l0.7,0.2l0.7,0.2l0.7,0.3l0.5,0.3l0.4,0.4l0.3,0.4l-0.2,0.6l-0.5,0.6
	l-0.2,0.5l0.1,0.5l0,0.5l-0.2,0.5l-0.5,0.5l-0.6,0.5l-1.2,0.4l-2,0.3l-1.7,0.2l-0.9,0.2l-0.9,0.1l-0.7,0.1l0.2,0.3l1,0.4l1.1,0.5
	l0.3,0.4l-0.4,0.2l-0.5,0.1l-0.4,0.1l-1-0.1l-1.9-0.6l-2-0.8l-1.6-0.7l-0.9-0.5l-0.7-0.4l-0.8-0.5l-1.1-0.8l-1.1-0.9l-1.1-1l-1-1
	l-0.8-1l-0.4-0.7l-0.1-0.5l0.3-0.1l0-0.3l-0.3-0.8l-0.2-0.7l0.3-0.2l0.3-0.1l-0.1-0.7l-0.3-1.1l-0.2-1.1l0.1-0.7l0.2-0.6l0.3-0.3
	l0.4-0.2l0.5,0.1l0.6,0.4l0.5,0.3l0.5,0.2l0.5,0.3l0.5,0.4l0.5,0.8l0.4,0.8l0.4,0.9l0.4,1l0.3,1.2l0.2,1l0.2,0.7"/>
<path class="st0" d="M207,277.3l-0.1,0.4l-0.1,0.3l0-0.4l0-0.6l0-0.1l0-0.2l0.1-0.7l0.1-0.6l0,0.1l0-0.1l0.2-0.6l0.1-0.2l-0.2,0.6
	l-0.3,0.6l-0.3,0.7l-0.7,1.3l-1,1.7l-0.9,1.2l-0.5,0.5l-0.5,0.4l-0.5,0.3l-0.5,0.2l-0.8,0.6l-1.1,0.8l-0.7,0.3l-0.2-0.3l0.1-0.5
	l0.3-0.6l0.7-0.9l1.4-1.5l1.9-1.7l1.8-1.4l1.5-1l0.8-0.5l0.6-0.3l0.4-0.1l0,0.1l0.4-0.1l0.8-0.2l0.5-0.1l0.1,0.1l0.3,0l0.6-0.1
	l0.1,0.1l-0.7,0.3l-0.5,0.2l0,0.1l-0.1,0.1l-0.3,0.1l-0.1,0.1l0.1,0.1l0,0.1l-0.8,0.1l-1.6,0l-1.8-0.1l-1.5-0.2l-0.5-0.2l0.2-0.1
	l0.7,0l0.6,0.1l0.4,0.1l0.6,0.1l0.2,0l0,0l0,0l-0.1-0.1l-0.5-0.3l-0.4-0.2l0.4,0.2l0.6,0.3l0.1,0l0,0l0.2,0.1l-0.2-0.2l-0.7-0.6
	l-0.5-0.5l0.1,0l0.1,0l0-0.1l0.2,0.1l0.6,0.6l0.5,0.6l0.5,0.6l0.5,0.7l0.3,0.5l-0.1-0.1l-0.3-0.3l0,0l-0.1-0.2l-0.4-0.8l-0.3-0.7
	l0-0.2l0.1,0.2l0,0l-0.1-0.5l-0.1-0.4l0,0l0.1,0.2l0-0.4l0-0.7l0-0.3l0.1-0.1l0.1-0.4l0.1-0.2l0.1,0.5l0,0.8l0,0.5l0,0.2l0,0.2
	l0,0.5l-0.1,0.5l0,0.1l0,0l-0.3,0.9l-0.5,1.6l-0.7,1.6l-0.7,1.3l-0.7,1.2l-0.6,0.8l-0.4,0.2l-0.3,0.1l-0.4,0.2l-0.3,0l-0.1-0.4
	l0-0.4l-0.3,0l-0.7,0.4l-0.6,0.3l-0.2-0.3l0.1-0.6l0.1-0.5l-0.4,0l-0.8,0.3l-0.9,0.4l-0.9,0.3l-0.3-0.3l0-0.5l0.1-0.5l0.2-0.5
	l0.3-0.6l0.7-0.7l1-0.8l1-0.7l0.5-0.5l0.4-0.3l0.6-0.4l1.1-0.5l1.2-0.5l1-0.3l0.5-0.2l0.5-0.1l0.5-0.1l0.6-0.1l0.5,0l-0.3,0l-0.6,0
	l-0.3,0l0.1,0l-0.1,0l-0.5-0.1l0,0l0.5,0.1l0.5,0.1l0.6,0.1l1,0.3l1.8,0.6l2,0.7l1.6,0.7l0.9,0.6l0.2,0.4l0.1,0.4l0,0.3l0,0.3
	l0.5,0.6l0.8,0.8l0.2,0.6l-0.6,0l-0.8-0.2l-0.6-0.1l-0.6-0.1l-0.6-0.2l-0.3,0.1l0.1,0.5l0.1,0.5l-0.4,0l-0.9-0.6l-1-0.9l-0.7-0.5
	l-0.2,0l-0.1,0.2l-0.1,0.2l-0.1,0.1l-0.1,0.2l0,0.4l0.2,0.9l0.2,1l-0.1,0.6l-0.2,0.4l-0.2,0.4l0,1l-0.1,0.9l-0.4,0l-0.6-1.2
	l-0.5-1.4l-0.4-0.9l-0.4-1.3l-0.3-2l-0.2-1.7l-0.1-0.7"/>
<path class="st0" d="M207,285.2l-0.2-1.8l-0.1-1.6l-0.1-0.9l-0.1-0.2l-0.1-0.1l-0.2,0.3l-0.4,1.1l-0.5,1.2l-0.4,0.5l-0.3,0.2
	l-0.3,0.1l-0.2-0.1l-0.2-0.3l0-0.5l0.1-0.7l0.2-0.8l0.2-0.8l0.2-0.6l0.3-0.7l0.3-0.7l0.1-0.3l-0.4,0.4l-0.6,0.5l-0.3,0.2l-0.3,0.1
	l-0.8,0.6l-1.3,1l-1.1,0.7l-0.5,0.1l0.3-0.6l0.6-0.8l0.4-0.6l0.5-0.6l0.5-0.5l0.5-0.5l0-0.2l-0.6,0.1l-0.5,0.1l-0.4,0l-0.7,0.1
	l-1.1,0.2l-0.8,0l-0.1-0.2l-0.5-0.1l-1.3,0l-1.3-0.1l-1-0.2l-1.6-0.2l-1.7-0.3l-1-0.4l-0.1-0.5l0.1-0.5l-0.7-0.5l-1.1-0.6l-0.8-0.6
	l-0.4-0.6l-0.1-0.6l-0.3-0.7l0.2-0.6l0.5-0.5l0.3-0.5l0.4-0.5l0.9-0.3l1.4-0.1l1.2-0.1l0.5-0.3l0.2-0.4l-0.2-0.7l-0.4-0.8l-0.2-0.7
	l0.6-0.3l0.9,0l0.9,0l1.2,0.3l1.7,0.8l1.3,0.6l0.6,0.1l0.7,0.2l1.3,0.9l1.5,1.2l1.2,1.1l0.9,0.8l0.4,0.3l0-0.1l-0.1-0.4l-0.2-0.6
	l0.2,0l0.6,0.8l0.8,1.2l0.6,1.1l0.2,0.2l0.1,0.1l0.1,0.3l0.3,0.7l0.2,0.8l0.1,0.3l-0.1-0.2l-0.1-0.2l0,0.2l0,0.2l0,0l-0.1-0.7l0-0.9
	l0-0.7l0-0.3l0,0.7l0,0.9l-0.1,0.5l0-0.1l0,0l-0.1,0.7l-0.3,1.3l-0.4,1.1l-0.3,0.8l-0.4,0.8l-0.5,0.8l-0.6,0.9l-0.5,0.6l-0.2-0.1
	l-0.1-0.3l-0.2,0l-0.4,0.3l-0.4,0.1l0-0.5l0.3-0.8l0.2-0.6l0.2-0.5l0.2-0.5l0.2-0.4l0.1-0.4l0.2-0.4l0.2-0.4l0.1-0.2l-0.4,0.1
	l-1,0.6l-1.3,0.8l-1.4,0.7l-1.3,0.5l-0.9,0.2l-0.5-0.1l-0.1-0.3l0.6-0.6l0.9-0.7l0.5-0.5l0.3-0.4l0.7-0.5l0.9-0.5l0.4-0.3l0.2-0.2
	l0.8-0.4l1-0.3l0.4-0.2l0.2-0.1l0.7-0.2l0.3-0.1l-0.5-0.1l-0.4-0.1l0.4-0.1l0.5-0.1l0-0.1l-0.2-0.1l0.3,0l0.9,0.1l0.5,0.1l-0.2-0.1
	l-1.2-0.4l-1.6-0.6l-1.6-0.7l-1.8-0.9l-1-0.7l-0.1-0.3l0.4-0.1l0.3-0.1l-0.3-0.5l-0.3-0.5l-0.4-0.6l0-0.4l0.6,0l0.7,0.2l1,0.4
	l0.7,0.3l0.5,0.2l0.8,0.5l1,0.8l0.9,0.8l0.4,0.3l0.3,0.2l0.7,0.8l1.3,1.8l1.4,2.2l0.9,1.7l0.3,0.8l0.1,0.5l0.1,0.6l0,0.4l-0.2,0.1
	l-0.1,0.2l-0.1,0.5l-0.1,0.4l-0.3-0.2l-0.4-0.7l-0.4-0.8l-0.2-0.1l-0.1,0.7l-0.1,0.7l-0.1,0.9l-0.2,1l-0.3,0.3l-0.3-0.6"/>
<path class="st0" d="M207,280.7l-0.1,0.1l-0.1-0.2l-0.2,0.2l-0.2,0.5l-0.2,0.2l-0.1-0.3l0-0.6l0-0.6l0.1-0.7l0.1-0.7l0.2-0.7l0.3-1
	l0.5-1.2l0.6-1.2l0.5-0.8l0.6-0.9l0.8-1.3l0.9-1.3l0.9-1l0.6-0.5l0.5-0.3l1-0.8l1.1-0.8l0.8-0.4l0.9-0.4l1.1-0.5l0.6,0l-0.1,0.7
	l-0.6,1.1l-0.4,0.9l-0.1,0.5l-0.1,0.5l-0.1,0.5l-0.3,0.6l-0.6,0.7l-0.7,0.7l-1.2,0.9l-1,0.7l-0.6,0.5l-0.4,0.4l-0.4,0.3l0,0.1
	l0.8-0.1l0.7,0l0.4,0.1l0.6,0.1l0.6,0.1l-0.2,0.3l-0.6,0.3l0.3,0.2l0.7,0.2l0.2,0.2l-0.5,0.2l-0.6,0.2l-0.9,0.1l-1.7,0l-1.5-0.1
	l-0.6,0l0,0.1l0.2,0.1l0.1,0.1l0.3,0.2l0.4,0.2l0.1,0.1l-0.8-0.2l-1.3-0.5l-1.1-0.5l-0.3-0.2l-0.1-0.1l-0.1-0.1l-0.2-0.2l-0.7-0.5
	l-0.7-0.6l-0.7-0.6l-0.3-0.4l0.4,0.2l0.5,0.3l0.3,0.2l0.2,0.1l0.3,0.2l0.5,0.4l0.4,0.4l0-0.1l-0.2-0.3l-0.1-0.2l0.2,0.2l0.2,0.3
	l-0.2-0.4l-0.4-0.9l-0.4-1l-0.2-0.7l-0.1-0.5l-0.1-0.7l-0.1-0.7l0.1-0.5l0.1-0.3l0.1-0.4l0-0.9l0.1-1l0.2-0.8l0.2-0.6l0.3-0.5
	l0.3-0.6l0.3-0.4l0.4,0l0.3,0.2l0.3,0.1l0.3,0.2l0.3,0.1l0.4-0.4l0.5-0.9l0.6-1.1l0.7-0.9l0.7-0.9l0.8-0.9l0.7-0.3l0.4,0.3l0.4,0.5
	l0.4,0.4l0.7-0.2l0.6,0l0.4,0.4l0.5,0.3l0.8-0.2l0.7-0.1l0.4,0.5l0,0.9l0.1,0.8l0.2,0.5l0.1,0.7l-0.2,0.9l-0.5,1.1l-0.3,0.8l0.2,0.4
	l0.5,0.1l0.2,0.4l-0.6,0.9l-0.7,0.9l-0.3,0.6l0,0.4l0.1,0.3l0.4,0.2l0.7,0.1l0.8,0.1l0.7,0.1l1.1,0.1l1.2,0.1l0.4,0.4l-0.5,0.6
	l-1,0.7l-1.5,0.7l-1.7,0.6l-1.4,0.5l-0.4,0.3l0.1,0.3l-0.4,0.3l-0.5,0.3l-0.7,0.2l-1.2,0.1l-1.5,0l-1.3,0l-0.5,0l-0.2,0l-0.8-0.1
	l-1.4-0.3l-1.9-0.5l-2.1-0.7l-2.3-0.9l-2.8-1.3l-2.4-1.3l-1.1-0.9l-0.1-0.5l0.2-0.4l-0.2-0.6l-0.2-0.6l-0.3-0.7l0.1-0.5l0.5-0.2
	l0.4-0.3l0.4-0.3l0.5-0.2l0.4-0.2l0.4-0.2l0.4-0.3l0.3-0.4l0.5-0.1l0.7,0.2l0.9,0.5l1.4,1.4l1.5,1.8l1.1,1.3l0.3,0.2l0.1-0.2l0.2,0
	l0.2,0l0.2-0.1l0.3,0.2l0.3,0.4l0.1-0.1l0.1-0.3l0.2,0l0.2,0.1l0.2,0.2l0.3,0.7l0.3,1.5l0.3,1.9l0.2,1.9l0,1.4l-0.1,1.2"/>
<path class="st0" d="M207,292.4l-0.5,0.2l-0.5,0.2l-0.6,1.2l-0.8,2.1l-0.9,1.7l-0.9,1.2l-0.8,0.5l-0.7-0.1l-0.5-0.8l-0.4-1l-0.4-1
	l-0.4-0.9l-0.3-0.9l-0.1-1.4l0.2-1.7l0.3-1.6l0.4-1.6l0.3-1.3l0.1-0.9l0-0.6l-0.1-0.5l-0.1-0.5l0-0.5l-0.1-0.4l-0.1-0.4l-0.2-0.3
	l-0.5,0.1l-0.9,0.4l-1.1,0.5l-0.6,0l0.2-0.6l0.3-0.7l0.5-0.8l0.7-0.8l1-0.9l1-0.8l0.3-0.4l0.2-0.3l0.4-0.4l0.5-0.4l0.3-0.3l0.1-0.2
	l0.3-0.2l0.1-0.2l0.1-0.2l0.5-0.2l0.4-0.2l0.3-0.1l0-0.1l0-0.1l0.2-0.1l-0.1-0.1l0-0.1l0.4-0.1l0.4,0l0.1-0.1l0-0.1l0.2,0l0.4,0
	l0.3,0l0.1,0l0.3,0.1l0.3,0.1l0.2,0.1l-0.3-0.1l-0.8-0.3l-1.2-0.6l-0.9-0.5l-0.1-0.2l0.2,0l0.5,0.2l0.1,0l-0.3-0.3l-0.4-0.5
	l-0.2-0.3l0.1-0.1l0.2,0l-0.2-0.4l-0.6-0.9l-0.4-0.7l0-0.3l0.4,0.1l0.2-0.1l-0.2-0.6l-0.3-0.8l-0.3-1l-0.5-1.3l-0.7-1.9l-0.7-2.2
	l-0.3-1.7l0.2-0.8l0.3-0.7l0.2-1l0.2-1.1l0.5-0.4l0.7,0.3l0.7,0.4l0.5-0.5l0.3-1.4l0.4-1.4l0.5-1.3l0.6-0.6l0.7-0.3l0.7,0.1l0.7,0.6
	l0.7,0.3l0.7,0.2l0.6,0.4l0.6,0.4l0.7-0.1l0.8-0.6l0.9-0.8l0.9-0.5l0.8,0l0.7,0.2l0.8,0.1l0.9-0.2l1-0.3l0.9-0.1l0.8,0.2l0.6,0.6
	l0.6,0.5l0.9,0.1l1.3-0.5l1.2-0.2l0.8,0.4l0.4,0.8l0.4,0.9l0.5,0.6l0.5,0.7l0.3,0.8l0.2,0.9l0.4,0.7l1,0.2l1.3,0l1.1,0.2l0.9,0.4
	l0.9,0.5l0.6,0.7l0.1,1l-0.2,1.1l0,1l0.5,0.7l0.4,0.8l-0.4,1.1l-1,1.2l-1.4,1.2l-1.2,1.1l-1.2,1l-0.6,0.8l-0.6,0.7l-1.1,0.8
	l-1.2,0.7l-0.7,0.6l0.1,0.5l0.5,0.5l0.4,0.5l-0.1,0.5l-0.8,0.5l-1.2,0.4l-0.8,0.4l-0.3,0.4l-0.5,0.4l-0.9,0.3l-1.6,0l-1.8-0.1
	l-1.3-0.1l-1.2-0.1l-1.2-0.2l-0.8-0.1l-0.1,0.2l0.6,0.5l0.8,0.6l0.4,0.5l0.5,0.6l0.5,0.7l0.6,0.7l0.3,0.6l-0.2,0.3l-0.8-0.2l-1-0.4
	l-0.7-0.3l-0.6-0.2l-0.9-0.5l-1-0.8l-0.7-0.5l-0.3-0.1l0.2,0.6l0.4,0.9l0.2,0.7l0,0.5l-0.1,0.4l0,0.6l0,0.7l-0.3,0.1l-0.5-0.6
	l-0.3,0l0,0.7l-0.1,0.6l-0.1,0.7l-0.2,0.6l-0.3,0.1l-0.5-0.8l-0.4-0.8l-0.2,0.2l-0.2,0.8l-0.2,1l-0.3,0.7l-0.3,0.3"/>
<path class="st0" d="M207,285.2l-0.3-0.1l-0.3-0.1l-0.3,0.5l-0.4,1.2l-0.5,1.2l-0.6,1.2l-0.7,1.2l-0.7,0.9l-0.7,0.7l-0.7,0.5
	l-0.8,0.8l-1.1,1.4l-1.2,1.5l-1.4,1.6l-1.2,0.8l-0.9,0l-0.9,0l-1.2,0.5l-1.3,0.5l-0.7-0.4l-0.4-0.9l-0.6-0.6l-0.4-0.8l0.1-1.3
	l0.2-1.4l-0.1-0.9l-0.4-0.6l-0.2-0.8l-0.1-0.8l0.4-1.2l1.5-1.9l2-2.1l1.9-1.9l1.5-1.4l1.2-1.1l0.9-0.8l0.6-0.6l0.3-0.4l0-0.3
	l-0.2-0.2l-0.3-0.2l-0.6-0.1l-0.6-0.1l-0.6-0.2l-0.1-0.3l0.3-0.4l0-0.3l-0.2-0.3l-1.1-0.2l-1.5-0.2l-1-0.3l0-0.4l1.1-0.4l1.3-0.3
	l1.3-0.2l1.4-0.1l1.4-0.1l1.2,0l1.2,0.1l1,0.1l0.5,0l0.2,0l0-0.1l0.7,0.2l1.6,0.6l1.7,0.8l1.7,0.8l1.2,0.7l1,0.7l0.7,0.6l0.3,0.4
	l0.4,0.5l0.5,0.6l0.1,0.4l-0.5-0.1l-0.8-0.3l-0.6-0.2l-0.3,0l-0.5-0.2l-1.1-0.9l-1.3-1.3l-0.9-0.9l-0.5-0.6l-0.6-0.9l-0.6-0.9
	l-0.2-0.4l0.2,0.3l0.1,0.1l-0.1-0.2l-0.2-0.5l-0.1-0.3l0.1,0l-0.1-0.5l-0.3-1.1l-0.1-0.7l0.2,0.2l0.3,0.7l0.2,0.5l0.1,0l0.1,0l0-0.4
	l0.1-0.3l0.1-0.6l0.1-0.8l0.2-0.8l0.2-1l0.2-0.6l0.3-0.4l0.2-0.1l0.2,0l0.3-0.2l0.2,0.2l0,0.8l-0.2,1.4l-0.4,1.7l-0.5,1.7l-0.3,0.8
	l0.1-0.2l0.3-0.5l0.1,0l0,0.1l0.2-0.2l0.3-0.3l0,0.1l-0.3,0.5l-0.1,0.2l0,0.1l0.2-0.2l-0.1,0.2l-0.7,0.8l-0.9,0.9l-0.6,0.5l0.1-0.2
	l0.5-0.5l0.3-0.2l0.3-0.2l0.9-0.6l1.1-0.7l0.7-0.3l-0.4,0.3l-1,0.6l-0.7,0.4l-0.1,0.1l-0.2,0.1l-0.7,0.3l-1,0.3l-0.5,0.1l-0.1,0
	l-0.1,0l-0.2,0l-0.3,0l0.2-0.1l0.5-0.1l0.7-0.1l0.7-0.1l0.5,0l0,0l-0.2,0l0.2,0l0.5,0.1l0.4,0.1l-0.4,0l-0.7-0.1l0,0l1.1,0.3
	l1.9,0.6l1.5,0.6l0.9,0.5l0.7,0.5l1,0.7l1.1,0.8l0.4,0.5l-0.6,0l-1.1-0.3l-0.9-0.2l-0.7-0.2l-0.4,0l-0.4,0l-0.5-0.1l-0.6-0.2l-1-0.7
	l-1.5-1.3l-1.6-1.5l-1.4-1.5l-1-1.2l-0.8-1.1l-0.4-0.7l0-0.3l0.1-0.2l0.1-0.2l0.2,0l0.5,0.5l0.7,1l0.6,1l0.4,0.8l0.4,0.8l0.6,1.6
	l0.7,2l0.4,1.4l0.1,0.8l0.1,0.9l0,0.7l-0.2,0l-0.3-0.4l-0.2-0.2l-0.2-0.5l-0.2-0.6l-0.1-0.1l-0.1,0.1"/>
<path class="st0" d="M207,284l-0.3,2.4l-0.5,2.3l-0.5,1.7l-0.5,0.7l-0.5,0.2l-0.5-0.1l-0.4-0.4l-0.4-0.2l-0.5,0l-0.4-0.1l-0.5,0.1
	l-0.8,0.8l-0.9,0.8l-0.7,0.2l-0.3-0.7l-0.1-0.9l-0.2-0.7l-0.2-0.6l-0.3-0.3l-0.6,0l-0.8,0.3l-1,0.5l-0.5-0.2l0.1-0.9l0.1-0.9
	l-0.1-0.6l0.3-0.9l0.8-1.3l1-1.4l0.4-0.8l-0.2-0.3l-0.1-0.3l0-0.4l0.4-0.6l0.4-0.6l0.3-0.5l0.3-0.5l0.8-0.6l1.1-0.7l0.7-0.5l0-0.2
	l-0.2-0.1l-0.2-0.1l-0.8,0l-1.6,0.2l-1.6,0.1l-1.1-0.1l-0.8-0.2l-0.3-0.3l0.2-0.4l0.3-0.4l-0.1-0.3l0-0.3l0.2-0.3l0.3-0.3l0.2-0.3
	l0.2-0.3l0.6-0.2l0.2-0.3l-0.4-0.4l-0.5-0.4l-0.5-0.5l-0.6-0.5l-0.8-0.7l-0.7-0.7l-0.4-0.6l-0.3-0.6l-1-1l-1.7-1.5l-1.6-1.6
	l-0.9-1.3l-0.5-1.1l-0.4-1.1l0.1-0.8l0.9-0.2l1.7,0.5l1.6,0.6l1.4,0.5l0.9,0.1l0.6-0.1l0.7-0.1l0.7,0.1l0.6-0.1l0.4-0.3l0.4-0.3
	l0.5-0.2l0.7,0.1l0.7,0.2l0.9,0.6l1.1,1.3l1,1.3l0.8,1.1l0.9,1.6l1,2.1l0.7,1.5l0.3,0.7l0.3,0.7l0.3,1.2l0.3,1.3l0.2,1l0.1,0.8
	l0-0.1l-0.1-0.8l0-0.6l0,0.3l0,0.6l0,0l0-0.5l0.1-0.6l0.1-0.3l0.1-0.5l0.2-0.8l0.2-0.5l-0.1,0.7l-0.4,1.5l-0.3,1l-0.3,0.6l-0.5,1
	l-0.7,1.4l-0.9,1.6l-0.8,1.1l-0.9,1.1l-0.8,0.8l-0.7,0.6l-0.8,0.6l-0.5,0.1l-0.2-0.3l0.1-0.7l0.1-0.6l-0.1-0.4l0.3-0.7l0.3-0.7
	l0.2-0.5l0.1-0.4l0.5-0.7l0.8-0.8l0.4-0.5l0.3-0.4l0.3-0.3l0.4-0.4l0.8-0.6l1.6-0.9l2.2-1l2-0.8l1.9-0.6l2.4-0.7l2.6-0.6l1.6-0.1
	l0.4,0.3l0.1,0.3l-0.2,0.4l-0.9,0.5l-1.2,0.5l-0.9,0.4l-0.4,0.3l-0.2,0.3l0.7,0.3l1.3,0.3l1.1,0.4l0.9,0.4l1.8,0.6l2.5,0.8l1.9,0.9
	l0.8,0.8l0.5,0.7l0.5,0.8l0.3,0.8l0,0.7l0.2,0.8l0.4,0.9l0.4,0.9l0,0.8l-0.6,0.5l-1.3,0.1l-1.8-0.3l-1.7-0.4l-2-0.7l-2.2-1l-1.9-1
	l-1.4-0.7l-0.5,0l-0.1,0.4l-0.4,0.1l-1.1-0.7l-1.5-1.3l-1.3-1.2l-1.1-1.1l-1.1-1.3l-0.9-1.1l-0.4-0.6l0,0l0.2,0.4l0,0.1l-0.2-0.4
	l-0.4-0.8l-0.1-0.2l0.3,0.6l0.2,0.7l0.1,0.5l0.1,0.7l0.3,1.5l0.2,1.5l-0.1,0.4l-0.2-0.2l-0.1,0.1l-0.2,0l-0.2-0.5l-0.2-0.5l-0.1,0.5
	"/>
</svg>
