<?xml version="1.0" encoding="utf-8"?>
<!-- Generator: Adobe Illustrator 23.0.6, SVG Export Plug-In . SVG Version: 6.00 Build 0)  -->
<svg version="1.1" id="Layer_1" xmlns="http://www.w3.org/2000/svg" xmlns:xlink="http://www.w3.org/1999/xlink" x="0px" y="0px"
	 viewBox="0 0 414 552" style="enable-background:new 0 0 414 552;" xml:space="preserve">
<style type="text/css">
	.st0{fill:none;stroke:#FFFFFF;stroke-width:1.5022;stroke-linecap:round;stroke-linejoin:round;}
</style>
<g>
	<path class="st0" d="M207,419.5L207,419.5"/>
	<path class="st0" d="M177.2,416.3L177.2,416.3"/>
	<path class="st0" d="M148.7,407L148.7,407"/>
	<path class="st0" d="M122.6,392.1L122.6,392.1"/>
	<path class="st0" d="M100,372.4L100,372.4"/>
	<path class="st0" d="M82.7,347.8L82.7,347.8"/>
	<path class="st0" d="M71.2,320.1L71.2,320.1"/>
	<path class="st0" d="M65.4,290.9L65.4,290.9"/>
	<path class="st0" d="M68.3,261.4L68.3,261.4"/>
	<path class="st0" d="M71.7,232L71.7,232"/>
	<path class="st0" d="M88.6,205.6L88.6,205.6"/>
	<path class="st0" d="M95.7,175.7L95.7,175.7"/>
	<path class="st0" d="M116.1,150.8L116.1,150.8"/>
	<path class="st0" d="M149.9,147.9L149.9,147.9"/>
	<path class="st0" d="M175.8,129.3L175.8,129.3"/>
	<path class="st0" d="M207,126.1L207,126.1"/>
	<path class="st0" d="M246.8,153.1L246.8,153.1"/>
	<path class="st0" d="M268.1,138.9L268.1,138.9"/>
	<path class="st0" d="M324.6,192.6L324.6,192.6"/>
	<path class="st0" d="M336.3,201.3L336.3,201.3"/>
	<path class="st0" d="M332.7,238.7L332.7,238.7"/>
	<path class="st0" d="M347.4,261.2L347.4,261.2"/>
	<path class="st0" d="M360,292.1L360,292.1"/>
	<path class="st0" d="M345.8,321.1L345.8,321.1"/>
	<path class="st0" d="M331.5,347.9L331.5,347.9"/>
	<path class="st0" d="M312,370.6L312,370.6"/>
	<path class="st0" d="M292.1,393.1L292.1,393.1"/>
	<path class="st0" d="M265,406.2L265,406.2"/>
	<path class="st0" d="M237.2,418.3L237.2,418.3"/>
	<path class="st0" d="M207,403.6L207,403.6"/>
	<path class="st0" d="M180.5,400.9L180.5,400.9"/>
	<path class="st0" d="M155.2,392.3L155.2,392.3"/>
	<path class="st0" d="M132,379.3L132,379.3"/>
	<path class="st0" d="M112.6,361L112.6,361"/>
	<path class="st0" d="M96.3,339.9L96.3,339.9"/>
	<path class="st0" d="M83.7,316.1L83.7,316.1"/>
	<path class="st0" d="M79.1,289.4L79.1,289.4"/>
	<path class="st0" d="M84.5,263.1L84.5,263.1"/>
	<path class="st0" d="M85.6,236.6L85.6,236.6"/>
	<path class="st0" d="M88,207.3L88,207.3"/>
	<path class="st0" d="M101.1,180.7L101.1,180.7"/>
	<path class="st0" d="M139.5,183.1L139.5,183.1"/>
	<path class="st0" d="M163.1,162.5L163.1,162.5"/>
	<path class="st0" d="M201.3,168.9L201.3,168.9"/>
	<path class="st0" d="M207,169.3L207,169.3"/>
	<path class="st0" d="M294.2,159.8L294.2,159.8"/>
	<path class="st0" d="M324.7,170.1L324.7,170.1"/>
	<path class="st0" d="M321.9,209.6L321.9,209.6"/>
	<path class="st0" d="M334.8,234.5L334.8,234.5"/>
	<path class="st0" d="M326.7,274L326.7,274"/>
	<path class="st0" d="M347.8,290.8L347.8,290.8"/>
	<path class="st0" d="M343.4,320.3L343.4,320.3"/>
	<path class="st0" d="M309.7,335.3L309.7,335.3"/>
	<path class="st0" d="M298.6,358.5L298.6,358.5"/>
	<path class="st0" d="M275,372.9L275,372.9"/>
	<path class="st0" d="M257.9,390.3L257.9,390.3"/>
	<path class="st0" d="M233.8,402L233.8,402"/>
	<path class="st0" d="M207,388.1L207,388.1"/>
	<path class="st0" d="M183.7,385.6L183.7,385.6"/>
	<path class="st0" d="M161.5,378.3L161.5,378.3"/>
	<path class="st0" d="M141.1,366.7L141.1,366.7"/>
	<path class="st0" d="M123.6,351.1L123.6,351.1"/>
	<path class="st0" d="M110.1,332L110.1,332"/>
	<path class="st0" d="M100.5,310.6L100.5,310.6"/>
	<path class="st0" d="M96.5,287.6L96.5,287.6"/>
	<path class="st0" d="M96.1,264.3L96.1,264.3"/>
	<path class="st0" d="M100.3,241.3L100.3,241.3"/>
	<path class="st0" d="M110.7,220.4L110.7,220.4"/>
	<path class="st0" d="M124.9,202.1L124.9,202.1"/>
	<path class="st0" d="M142.6,187.3L142.6,187.3"/>
	<path class="st0" d="M155.2,159.7L155.2,159.7"/>
	<path class="st0" d="M216,161.3L216,161.3"/>
	<path class="st0" d="M237.4,132.9L237.4,132.9"/>
	<path class="st0" d="M252.4,174L252.4,174"/>
	<path class="st0" d="M295.3,154.4L295.3,154.4"/>
	<path class="st0" d="M277.8,218.5L277.8,218.5"/>
	<path class="st0" d="M313.8,214.3L313.8,214.3"/>
	<path class="st0" d="M302.4,248.5L302.4,248.5"/>
	<path class="st0" d="M326.4,263.5L326.4,263.5"/>
	<path class="st0" d="M327.1,288.6L327.1,288.6"/>
	<path class="st0" d="M330.9,316.3L330.9,316.3"/>
	<path class="st0" d="M303.4,331.7L303.4,331.7"/>
	<path class="st0" d="M281.6,344.7L281.6,344.7"/>
	<path class="st0" d="M276.8,372.1L276.8,372.1"/>
	<path class="st0" d="M253.3,379.9L253.3,379.9"/>
	<path class="st0" d="M229,379.5L229,379.5"/>
	<path class="st0" d="M207,372.3L207,372.3"/>
	<path class="st0" d="M187,370.2L187,370.2"/>
	<path class="st0" d="M167.8,364.1L167.8,364.1"/>
	<path class="st0" d="M150.5,353.7L150.5,353.7"/>
	<path class="st0" d="M135.2,340.6L135.2,340.6"/>
	<path class="st0" d="M123.8,324L123.8,324"/>
	<path class="st0" d="M114.8,306L114.8,306"/>
	<path class="st0" d="M111.1,286.1L111.1,286.1"/>
	<path class="st0" d="M112.1,266L112.1,266"/>
	<path class="st0" d="M114.6,246L114.6,246"/>
	<path class="st0" d="M117.2,224.1L117.2,224.1"/>
	<path class="st0" d="M134.8,211L134.8,211"/>
	<path class="st0" d="M154.3,203.4L154.3,203.4"/>
	<path class="st0" d="M173.8,201.4L173.8,201.4"/>
	<path class="st0" d="M183.5,165.4L183.5,165.4"/>
	<path class="st0" d="M207,170.7L207,170.7"/>
	<path class="st0" d="M234.3,147.7L234.3,147.7"/>
	<path class="st0" d="M237.3,210.3L237.3,210.3"/>
	<path class="st0" d="M283.9,170.2L283.9,170.2"/>
	<path class="st0" d="M280.6,209.7L280.6,209.7"/>
	<path class="st0" d="M268.9,242L268.9,242"/>
	<path class="st0" d="M305.1,244.1L305.1,244.1"/>
	<path class="st0" d="M304.3,292L304.3,292"/>
	<path class="st0" d="M315.6,311.3L315.6,311.3"/>
	<path class="st0" d="M303.4,331.7L303.4,331.7"/>
	<path class="st0" d="M267.6,350.9L267.6,350.9"/>
	<path class="st0" d="M266.7,358.1L266.7,358.1"/>
	<path class="st0" d="M244.1,359.3L244.1,359.3"/>
	<path class="st0" d="M224.7,359.4L224.7,359.4"/>
	<path class="st0" d="M207,356.6L207,356.6"/>
	<path class="st0" d="M190.3,354.8L190.3,354.8"/>
	<path class="st0" d="M174.2,349.6L174.2,349.6"/>
	<path class="st0" d="M159.7,341.1L159.7,341.1"/>
	<path class="st0" d="M147.2,329.9L147.2,329.9"/>
	<path class="st0" d="M137.5,316.1L137.5,316.1"/>
	<path class="st0" d="M130.5,300.9L130.5,300.9"/>
	<path class="st0" d="M127,284.4L127,284.4"/>
	<path class="st0" d="M127.5,267.6L127.5,267.6"/>
	<path class="st0" d="M128.9,250.6L128.9,250.6"/>
	<path class="st0" d="M134.3,234L134.3,234"/>
	<path class="st0" d="M146,221L146,221"/>
	<path class="st0" d="M162.4,214.6L162.4,214.6"/>
	<path class="st0" d="M174.3,202.5L174.3,202.5"/>
	<path class="st0" d="M189,191.2L189,191.2"/>
	<path class="st0" d="M207,183.6L207,183.6"/>
	<path class="st0" d="M226.4,184.8L226.4,184.8"/>
	<path class="st0" d="M236.9,208.9L236.9,208.9"/>
	<path class="st0" d="M240,230.6L240,230.6"/>
	<path class="st0" d="M274.6,215.1L274.6,215.1"/>
	<path class="st0" d="M268.5,241.8L268.5,241.8"/>
	<path class="st0" d="M282.2,251.6L282.2,251.6"/>
	<path class="st0" d="M302.3,266L302.3,266"/>
	<path class="st0" d="M310.7,286.9L310.7,286.9"/>
	<path class="st0" d="M286.7,301.9L286.7,301.9"/>
	<path class="st0" d="M298.2,328.7L298.2,328.7"/>
	<path class="st0" d="M265.4,339L265.4,339"/>
	<path class="st0" d="M252.4,338.5L252.4,338.5"/>
	<path class="st0" d="M234.7,350.1L234.7,350.1"/>
	<path class="st0" d="M220.5,347.2L220.5,347.2"/>
	<path class="st0" d="M207,340.9L207,340.9"/>
	<path class="st0" d="M193.5,339.5L193.5,339.5"/>
	<path class="st0" d="M180.6,335.2L180.6,335.2"/>
	<path class="st0" d="M168.9,328.5L168.9,328.5"/>
	<path class="st0" d="M158.8,319.4L158.8,319.4"/>
	<path class="st0" d="M150.7,308.5L150.7,308.5"/>
	<path class="st0" d="M145.2,296.1L145.2,296.1"/>
	<path class="st0" d="M142.2,282.8L142.2,282.8"/>
	<path class="st0" d="M143.2,269.3L143.2,269.3"/>
	<path class="st0" d="M145.2,255.9L145.2,255.9"/>
	<path class="st0" d="M153.4,245.1L153.4,245.1"/>
	<path class="st0" d="M157.1,231.1L157.1,231.1"/>
	<path class="st0" d="M167.5,221.6L167.5,221.6"/>
	<path class="st0" d="M182.7,221.3L182.7,221.3"/>
	<path class="st0" d="M192.9,209.6L192.9,209.6"/>
	<path class="st0" d="M207,203.5L207,203.5"/>
	<path class="st0" d="M220.1,214.2L220.1,214.2"/>
	<path class="st0" d="M234.1,215L234.1,215"/>
	<path class="st0" d="M236.2,235.8L236.2,235.8"/>
	<path class="st0" d="M259.1,229.1L259.1,229.1"/>
	<path class="st0" d="M271.6,238.7L271.6,238.7"/>
	<path class="st0" d="M257.3,264.6L257.3,264.6"/>
	<path class="st0" d="M298.3,266.4L298.3,266.4"/>
	<path class="st0" d="M289.3,284.7L289.3,284.7"/>
	<path class="st0" d="M251.6,292.4L251.6,292.4"/>
	<path class="st0" d="M262.5,308L262.5,308"/>
	<path class="st0" d="M268,337.6L268,337.6"/>
	<path class="st0" d="M229.1,306.5L229.1,306.5"/>
	<path class="st0" d="M227.4,342.5L227.4,342.5"/>
	<path class="st0" d="M221.6,348.1L221.6,348.1"/>
	<path class="st0" d="M207,325.2L207,325.2"/>
	<path class="st0" d="M196.8,324.1L196.8,324.1"/>
	<path class="st0" d="M187,320.9L187,320.9"/>
	<path class="st0" d="M178.1,315.8L178.1,315.8"/>
	<path class="st0" d="M170.4,308.9L170.4,308.9"/>
	<path class="st0" d="M164.2,300.7L164.2,300.7"/>
	<path class="st0" d="M160.1,291.2L160.1,291.2"/>
	<path class="st0" d="M157.5,281.2L157.5,281.2"/>
	<path class="st0" d="M158.1,270.9L158.1,270.9"/>
	<path class="st0" d="M160.4,260.8L160.4,260.8"/>
	<path class="st0" d="M164.3,251.3L164.3,251.3"/>
	<path class="st0" d="M169.7,242.4L169.7,242.4"/>
	<path class="st0" d="M178.9,237.4L178.9,237.4"/>
	<path class="st0" d="M188.6,234.6L188.6,234.6"/>
	<path class="st0" d="M197,228.8L197,228.8"/>
	<path class="st0" d="M207,232.6L207,232.6"/>
	<path class="st0" d="M217.6,226L217.6,226"/>
	<path class="st0" d="M223.4,239.1L223.4,239.1"/>
	<path class="st0" d="M235.9,236.2L235.9,236.2"/>
	<path class="st0" d="M231.7,253.8L231.7,253.8"/>
	<path class="st0" d="M250.8,250.7L250.8,250.7"/>
	<path class="st0" d="M193,291.6L193,291.6"/>
	<path class="st0" d="M262.2,281.8L262.2,281.8"/>
	<path class="st0" d="M197.6,269.8L197.6,269.8"/>
	<path class="st0" d="M220.6,294.8L220.6,294.8"/>
	<path class="st0" d="M243.1,357L243.1,357"/>
	<path class="st0" d="M207,309.5L207,309.5"/>
	<path class="st0" d="M200,308.7L200,308.7"/>
	<path class="st0" d="M193.4,306.6L193.4,306.6"/>
	<path class="st0" d="M187.3,303.1L187.3,303.1"/>
	<path class="st0" d="M182.1,298.4L182.1,298.4"/>
	<path class="st0" d="M178,292.7L178,292.7"/>
	<path class="st0" d="M175.3,286.3L175.3,286.3"/>
	<path class="st0" d="M173.8,279.5L173.8,279.5"/>
	<path class="st0" d="M173.9,272.5L173.9,272.5"/>
	<path class="st0" d="M175.1,265.6L175.1,265.6"/>
	<path class="st0" d="M178.5,259.5L178.5,259.5"/>
	<path class="st0" d="M181.6,253.1L181.6,253.1"/>
	<path class="st0" d="M187.6,249.3L187.6,249.3"/>
	<path class="st0" d="M193.5,245.7L193.5,245.7"/>
	<path class="st0" d="M199.9,242.5L199.9,242.5"/>
	<path class="st0" d="M207,237.2L207,237.2"/>
	<path class="st0" d="M213.4,245.9L213.4,245.9"/>
	<path class="st0" d="M222.6,241.1L222.6,241.1"/>
	<path class="st0" d="M221.4,256.1L221.4,256.1"/>
	<path class="st0" d="M228.6,256.5L228.6,256.5"/>
	<path class="st0" d="M201.8,277.7L201.8,277.7"/>
	<path class="st0" d="M260,270.4L260,270.4"/>
	<path class="st0" d="M233.1,280L233.1,280"/>
	<path class="st0" d="M255.4,291.7L255.4,291.7"/>
	<path class="st0" d="M234.6,291.9L234.6,291.9"/>
	<path class="st0" d="M282.1,343.6L282.1,343.6"/>
	<path class="st0" d="M212.5,326.4L212.5,326.4"/>
	<path class="st0" d="M207,293.8L207,293.8"/>
	<path class="st0" d="M203.3,293.4L203.3,293.4"/>
	<path class="st0" d="M199.8,292.2L199.8,292.2"/>
	<path class="st0" d="M196.6,290.4L196.6,290.4"/>
	<path class="st0" d="M193.8,287.9L193.8,287.9"/>
	<path class="st0" d="M191.7,284.8L191.7,284.8"/>
	<path class="st0" d="M190,281.5L190,281.5"/>
	<path class="st0" d="M189.4,277.8L189.4,277.8"/>
	<path class="st0" d="M189.1,274.1L189.1,274.1"/>
	<path class="st0" d="M190.1,270.5L190.1,270.5"/>
	<path class="st0" d="M192.1,267.4L192.1,267.4"/>
	<path class="st0" d="M193.6,263.9L193.6,263.9"/>
	<path class="st0" d="M196.5,261.5L196.5,261.5"/>
	<path class="st0" d="M198.9,257.7L198.9,257.7"/>
	<path class="st0" d="M203.4,258.9L203.4,258.9"/>
	<path class="st0" d="M207,257.9L207,257.9"/>
	<path class="st0" d="M210,262.1L210,262.1"/>
	<path class="st0" d="M214,260.2L214,260.2"/>
	<path class="st0" d="M218,260.9L218,260.9"/>
	<path class="st0" d="M227.3,257.8L227.3,257.8"/>
	<path class="st0" d="M228.9,263.3L228.9,263.3"/>
	<path class="st0" d="M235,266.9L235,266.9"/>
	<path class="st0" d="M217.9,274.9L217.9,274.9"/>
	<path class="st0" d="M233.4,278.8L233.4,278.8"/>
	<path class="st0" d="M197.1,272.8L197.1,272.8"/>
	<path class="st0" d="M215.9,281.1L215.9,281.1"/>
	<path class="st0" d="M272.4,334.9L272.4,334.9"/>
	<path class="st0" d="M199.6,265.8L199.6,265.8"/>
	<path class="st0" d="M216.9,298.1L216.9,298.1"/>
	<path class="st0" d="M222.8,350.2L222.8,350.2"/>
</g>
</svg>
