<?xml version="1.0" encoding="utf-8"?>
<!-- Generator: Adobe Illustrator 23.0.6, SVG Export Plug-In . SVG Version: 6.00 Build 0)  -->
<svg version="1.1" id="Layer_1" xmlns="http://www.w3.org/2000/svg" xmlns:xlink="http://www.w3.org/1999/xlink" x="0px" y="0px"
	 viewBox="0 0 188 74.8" style="enable-background:new 0 0 188 74.8;" xml:space="preserve">
<style type="text/css">
	.st0{fill:#FFFFFF;}
</style>
<title>Asset 152</title>
<g>
	<g id="_Layer_">
		<path class="st0" d="M22.4,47.1c-0.1,0.4-0.3,0.8-0.4,1.1c-0.1,0.2-0.2,0.3-0.3,0.4l-0.2,0.1c-0.1,0.1-0.2,0.1-0.3,0.1
			c-0.3,0-0.6,0-0.9-0.1c-1.1-0.3-2.1-0.7-3.1-1.1c-0.8-0.3-1.6-0.5-2.4-0.7c-1-0.2-1.9-0.3-2.9-0.3c-2.9,0.1-5.6,1.3-7.8,3.2l0,0
			C1.5,52.3,0,55.7,0,59.3c0,3.8,1.4,7.4,3.9,10.2l0,0c2.5,2.8,5.9,4.7,9.6,5.1c3.5,0.5,7.1-0.6,9.8-2.9l0,0
			c1.9-1.6,3.2-3.8,3.9-6.2c0.2-0.8,0.3-1.7,0.3-2.5c0-0.3,0-0.6,0-0.8c0-0.1,0-0.3,0-0.4l0,0c0-0.2,0.1-0.4,0.2-0.6
			c0.1-0.2,0.2-0.4,0.3-0.6c0.1-0.1,0.2-0.2,0.3-0.3l0,0l0,0c0.3-0.2,0.7-0.4,1.1-0.4l0,0c0.5,0.1,1,0.2,1.5,0.3
			c0.5,0.2,1.3,0.4,2.1,0.6c1,0.2,2,0.3,3,0.3l91.3,0.2l-0.1-0.9c-0.3,0-0.9,0.1-0.9,0.1l-90.4-0.2c-0.9,0-1.7,0-2.6-0.2
			c-0.8-0.2-1.5-0.4-2-0.5c-0.5-0.2-1.1-0.3-1.7-0.4l0,0c-0.6,0-1.2,0.2-1.7,0.6l0,0c-0.1,0.1-0.3,0.3-0.4,0.4
			c-0.2,0.2-0.3,0.5-0.4,0.7c-0.1,0.2-0.2,0.5-0.2,0.8l0,0c0,0.1,0,0.3,0,0.5s0,0.5,0,0.8c0,0.8-0.1,1.6-0.3,2.3
			c-0.6,2.3-1.9,4.3-3.6,5.8l0,0c-2.5,2.2-5.9,3.2-9.2,2.8c-3.5-0.4-6.7-2.2-9-4.8l0,0c-2.4-2.6-3.8-6.1-3.8-9.6
			c0-3.4,1.4-6.6,3.8-8.9h0.1c2-1.8,4.6-2.9,7.3-3c0.9,0,1.8,0,2.7,0.3c0.8,0.2,1.5,0.4,2.3,0.7c1.1,0.5,2.1,0.8,3.2,1.2
			c0.4,0.1,0.8,0.1,1.2,0.1l0,0c0.2,0,0.3-0.1,0.5-0.2c0.1-0.1,0.2-0.1,0.3-0.2l0,0c0.2-0.2,0.3-0.4,0.5-0.6
			c0.2-0.4,0.4-0.8,0.5-1.3c0.4-1.3,0.8-2.6,1.4-3.8c0-0.1,0.1-0.2,0.1-0.3s0.3-0.5,0.4-0.8s0.3-0.5,0.5-0.7s0.2-0.2,0.3-0.3
			l0.2-0.2l0.1-0.1l0.2-0.2l0,0l0.2-0.2l0,0l0.2-0.2h0l0.5-0.4l0,0c0.2-0.1,0.3-0.2,0.5-0.3l0,0l0.8-0.5l0.4-0.2l0,0l0.4-0.2l0,0
			l0.3-0.1l0,0l0.3-0.1c0.9-0.3,1.9-0.5,2.9-0.5h0.7H34h0.2h0.1h0.2h0.1h0.2h0.1h0.2h0.1h0.2h0.1l0.6-0.1h0.1l0.2-0.1h0.1h0.2h0.1
			l0.2-0.1h0.1l0.2-0.1h0.1l0.2-0.1h0.1l0.3-0.1l0.3-0.1l0.2-0.1l0,0c1.4-0.6,2.8-1.4,3.9-2.4l0,0l0,0c2.9-2.7,4.6-6.4,4.7-10.4
			c0.1-4-1.3-7.9-3.9-11l0,0L43,13.6l0,0l0,0l-0.3-0.4c-2.5-3.1-6.1-5.2-10.1-5.8c-3.9-0.4-7.8,1-10.6,3.6
			c-2.9,2.7-4.5,6.5-4.5,10.4c0,4.1,1.4,8.1,4.2,11.1c2.2,2.5,5.2,4.3,8.5,5.1c-0.3,0.1-0.5,0.2-0.8,0.3l-0.6,0.3
			c-3-1-5.7-2.7-7.7-5.1c-2.9-3.2-4.4-7.4-4.4-11.8c0-4.2,1.7-8.2,4.8-11.1c3-2.8,7.2-4.2,11.3-3.8c4.2,0.4,8,2.3,10.9,5.4l0,0
			l0.4,0.4c2.9,3.3,4.4,7.6,4.3,11.9c-0.1,4.2-1.9,8.2-5,11l0,0c-1.4,1.2-3,2.1-4.7,2.7c-1.7,0.6-3.5,1-5.3,1
			c-1.1,0-2.1,0.2-3.1,0.7c-1,0.4-2,0.9-2.8,1.7c-0.8,0.7-1.4,1.6-1.9,2.6c-0.5,1.2-1,2.5-1.3,3.8c-0.2,0.5-0.3,0.9-0.6,1.4
			c-0.2,0.3-0.4,0.6-0.6,0.8l0,0c-0.1,0.1-0.3,0.2-0.5,0.3c-0.2,0.1-0.4,0.2-0.7,0.2l0,0c-0.5,0.1-1.1,0.1-1.6-0.1
			c-1.1-0.3-2.3-0.7-3.4-1.2c-0.7-0.3-1.4-0.5-2.1-0.7c-0.8-0.2-1.6-0.3-2.5-0.2c-2.5,0.1-5,1.1-6.9,2.8l0,0l0,0l0,0l0,0l0,0
			c-2.3,2.1-3.6,5.2-3.6,8.3c0,3.3,1.2,6.5,3.4,9l0,0l0,0l0,0l0,0c2.2,2.5,5.2,4.1,8.4,4.5c3.1,0.4,6.2-0.6,8.6-2.6l0,0
			c1.7-1.4,2.8-3.3,3.4-5.4c0.2-0.7,0.2-1.4,0.2-2.2c0-0.3,0-0.6,0-0.8s0-0.5,0-0.6c0.1-0.3,0.2-0.7,0.3-1c0.1-0.3,0.3-0.6,0.5-0.9
			c0.1-0.2,0.3-0.4,0.5-0.5l0,0c0.6-0.6,1.5-0.8,2.3-0.8l0,0c0.6,0.1,1.2,0.2,1.8,0.4c0.6,0.2,1.2,0.4,2,0.5c0.5,0.1,1,0.2,1.5,0.2
			h65.7l-0.6-4.5H34.2l-0.5-0.1c-0.5-0.1-1.1-0.3-1.7-0.5c-0.9-0.3-1.8-0.5-2.8-0.5c-0.8-0.1-1.7,0-2.5,0.3l0,0c0,0-0.4,0.2-0.9,0.4
			l0,0l-0.2,0.1c-0.2,0.1-0.5,0.2-0.7,0.4c-0.1,0.1-0.3,0.2-0.4,0.3l0,0c-0.2,0.2-0.5,0.3-0.7,0.5c-0.3,0.3-0.6,0.6-0.9,1
			c-0.4,0.5-0.7,1.1-0.9,1.7c-0.3,0.6-0.4,1.3-0.5,1.9c-0.1,0.6-0.1,1.2-0.1,1.8l0,0v0.2l0,0c0,0.3,0,0.5,0,0.7c0,0.2,0,0.3-0.1,0.5
			c-0.3,1.3-1.1,2.6-2.1,3.5l0,0c-1.5,1.3-3.5,1.9-5.5,1.7c-2.1-0.3-4.1-1.3-5.4-2.9c-1.4-1.6-2.2-3.6-2.2-5.8l0,0
			c0-2,0.8-3.9,2.3-5.3l0,0c1.2-1.1,2.8-1.8,4.4-1.8c0.6,0,1.2,0.1,1.7,0.3c1,0.3,2.2,0.8,3.6,1.3c0.7,0.3,1.5,0.4,2.3,0.6
			c0.8,0.1,1.7,0.1,2.5,0l0.5-0.1c0.3-0.1,0.6-0.2,0.9-0.3l0,0c0.5-0.2,0.9-0.4,1.3-0.7l0,0c0.3-0.2,0.6-0.5,0.8-0.7l0,0
			c0.6-0.6,1-1.3,1.3-2.1c0.6-1.3,0.9-2.6,1.3-3.7c0.2-0.5,0.4-1,0.6-1.4c0.2-0.3,0.4-0.7,0.7-0.9l0,0c0.5-0.4,1-0.7,1.5-0.9
			c0.3-0.1,0.6-0.2,0.9-0.3c0.3-0.1,0.5-0.1,0.8-0.1c2.3,0,4.5-0.4,6.7-1.2c2.2-0.8,4.3-2,6.1-3.5l0,0c4-3.6,6.3-8.7,6.4-14.1
			c0.1-5.5-1.8-10.8-5.3-15l0,0l-0.2-0.2l-0.2-0.2l0,0L46.8,9c-3.6-4-8.7-6.5-14.1-7c-5.3-0.5-10.5,1.3-14.4,4.9l0,0l0,0l0,0l0,0
			c-3.8,3.7-6,8.8-6,14.1c0,5.5,2,10.9,5.6,15l0,0l0,0l0,0l0,0c1.9,2.2,4.2,3.9,6.9,5.2c-0.2,0.2-0.3,0.5-0.5,0.7
			c-2.7-1.3-5.1-3.2-7.1-5.5l0,0c-3.8-4.3-5.9-9.8-5.9-15.5c0-5.6,2.3-10.9,6.3-14.8l0,0c4.1-3.8,9.6-5.7,15.1-5.2
			c5.7,0.5,10.9,3.1,14.7,7.4l0.3,0.4l0,0c3.9,4.4,6,10.2,5.9,16.1c-0.1,4.3-1.5,8.4-4,11.8c-0.2,0.3-0.5,0.6-0.7,0.9
			s-0.6,0.7-0.9,1L47.6,39L47.5,39l-0.2,0.2l-0.2,0.2l0,0l0,0l0,0l0,0l0,0l0,0l-0.3,0.3l-0.1,0.1L46.4,40l-0.1,0.1L46,40.3l-0.1,0.1
			l-0.2,0.2l-0.1,0.1l-0.3,0.2L45,41l-0.2,0.1l-0.1,0.1l-0.3,0.2l-0.2,0.1L44,41.6l-0.2,0.1l-0.2,0.1L43.3,42l-0.1,0.1L43,42.2
			l-0.1,0l-0.2,0.1l-0.4,0.2L42,42.6l-0.2,0.1l-0.3,0.1L41.1,43l0,0l-0.5,0.2l-0.3,0.1c-1.9,0.6-4,1-6,1.1h-0.7h-0.3H33H33h0h-0.1
			h-0.1l0,0l-0.4,0.1l0,0l-0.4,0.2l0,0l-0.1,0.1h-0.1h-0.1l0,0l0,0l0,0c-0.2,0.1-0.3,0.2-0.5,0.3l0,0c-0.2,0.2-0.4,0.5-0.6,0.7
			c-0.2,0.4-0.4,0.8-0.6,1.3c-0.4,1-0.7,2.3-1.3,3.8c-0.1,0.3-0.3,0.6-0.4,0.9l-0.4,0.7h0.8c0.3,0,0.6,0,0.9,0c1,0.1,2,0.3,3,0.6
			c0.6,0.2,1.2,0.3,1.7,0.5c0.3,0.1,0.7,0.1,1,0.1l49.7-0.4H85l0.7-0.2l-0.1-0.8l-1.3,0.1c-0.1,0-49.7,0.4-50,0.3s-1-0.3-1.6-0.4
			C31.6,52,30.4,52,29.3,52h-0.2l0.1-0.3c0.7-1.5,1-2.9,1.4-3.8c0.1-0.4,0.3-0.8,0.5-1.2c0.1-0.2,0.2-0.4,0.4-0.5l0,0l0,0
			c0.1-0.1,0.3-0.2,0.5-0.3c0.2-0.1,0.4-0.2,0.6-0.3l0,0c0.2-0.1,0.4-0.2,0.7-0.2h0.3h0.2h0.7l153.6-5l-0.1-1L78.2,42.9l0,0
			l-37.7,1.3l0.5-0.2c0.7-0.2,1.4-0.5,2-0.8l134.5-4.6l-0.3-4.6L49.3,38.5c0.3-0.3,0.5-0.6,0.8-0.9L61.6,37l-0.1-0.9l-10.7,0.5
			c2.4-3.5,3.7-7.5,3.8-11.7c0.1-6-1.9-11.8-5.8-16.4l0,0l-0.3-0.4c-4-4.6-9.6-7.5-15.6-8C27-0.4,21.3,1.5,17.1,5.5l0,0
			c-4.2,4-6.5,9.6-6.5,15.4c-0.1,6,2.1,11.8,6.1,16.3l0,0c2,2.3,4.5,4.3,7.3,5.7l-0.1,0.3C23.3,44.4,22.8,45.7,22.4,47.1z
			 M22.3,32.1c-2.6-2.9-4-6.6-3.9-10.5c0-3.7,1.5-7.3,4.2-9.8c2.7-2.5,6.3-3.7,10-3.4c3.8,0.4,7.4,2.2,9.9,5.1
			c2.6,2.9,4,6.8,3.9,10.7c-0.1,3.7-1.7,7.3-4.4,9.8l0,0l0,0c-1.2,1.1-2.7,1.9-4.2,2.4c-1.4,0.5-2.8,0.8-4.2,0.9h-0.1
			C29.2,37.2,25.1,35.3,22.3,32.1L22.3,32.1z"/>
		<path class="st0" d="M20.7,60.1c0.1-0.7,0.3-1.4,0.6-2.1c0.2-0.5,0.4-0.9,0.7-1.4l0.4-0.7h-0.9c-0.5,0-0.9,0-1.4-0.1
			c-0.8-0.1-1.6-0.3-2.4-0.6c-1.4-0.5-2.6-1-3.5-1.3c-0.5-0.2-1-0.2-1.4-0.2c-1.5,0.1-2.9,0.6-4,1.6c-1.3,1.2-2.1,2.9-2.1,4.8v0.4
			l0,0c0.1,1.8,0.8,3.4,2,4.7c1.2,1.4,3,2.4,4.9,2.6c1.8,0.2,3.6-0.3,4.9-1.5l0,0l0,0c0.9-0.8,1.6-1.8,1.9-3l0,0c0-0.1,0-0.2,0-0.3
			c0-0.2,0-0.4,0-0.7l0,0C20.5,61.6,20.6,60.8,20.7,60.1z M20.5,57.6c-0.3,0.7-0.5,1.5-0.6,2.3c-0.1,0.7-0.1,1.5-0.1,2.2l0,0H20
			h-0.3c0,0.3,0,0.5,0,0.6v0.2l0,0l0,0l0,0c-0.3,1-0.9,2-1.7,2.7l0,0l0,0c-1.2,1.1-2.8,1.6-4.4,1.4c-1.7-0.2-3.2-1-4.3-2.3
			c-1.1-1.2-1.7-2.9-1.7-4.5l0,0c0-1.6,0.6-3.1,1.8-4.2c1-0.9,2.2-1.4,3.5-1.4c0.4,0,0.8,0.1,1.2,0.2c0.8,0.2,2,0.8,3.5,1.3
			c0.8,0.3,1.7,0.5,2.6,0.7l0.7,0.1C20.7,57.1,20.6,57.3,20.5,57.6z"/>
	</g>
</g>
</svg>
