<?xml version="1.0" encoding="utf-8"?>
<!-- Generator: Adobe Illustrator 23.0.6, SVG Export Plug-In . SVG Version: 6.00 Build 0)  -->
<svg version="1.1" id="Layer_1" xmlns="http://www.w3.org/2000/svg" xmlns:xlink="http://www.w3.org/1999/xlink" x="0px" y="0px"
	 viewBox="0 0 231.1 78.9" style="enable-background:new 0 0 231.1 78.9;" xml:space="preserve">
<style type="text/css">
	.st0{fill:#FFFFFF;}
</style>
<title>Asset 135</title>
<g>
	<g id="_Layer_">
		<path class="st0" d="M12.8,41.3L200,56.7c0.1,0,0.2-0.1,0.3-0.2v-0.1c0.1-0.1,0-0.3-0.1-0.4l-9.8-9.9l-0.2-0.1L0.6,24.7
			c-0.2,0-0.4,0.1-0.4,0.3c0,0.1,0,0.2,0.1,0.3l12.3,15.9C12.6,41.2,12.7,41.3,12.8,41.3z M190,46.8l9,9L13.1,40.5l-11.6-15
			L190,46.8z"/>
		<path class="st0" d="M0.4,60.3l190.2,7.8c0.1,0,0.2,0,0.3-0.1l9.4-11.4l0,0c0.1-0.1,0.1-0.3,0-0.4c-0.1-0.1-0.2-0.2-0.3-0.2
			L12.9,40.5c-0.1,0-0.3,0.1-0.3,0.2l-12.5,19C0,59.8,0,60,0.1,60.1C0.1,60.2,0.2,60.3,0.4,60.3z M13,41.3l186.2,15.3l-8.8,10.7
			L1,59.6L13,41.3z"/>
		<path class="st0" d="M13.5,78.1l187.6,0.9c0.1,0,0.2-0.1,0.3-0.1v-0.1c0.1-0.1,0-0.3-0.1-0.4l-10.5-10.8c-0.1-0.1-0.2-0.1-0.3-0.1
			L0.4,59.5c-0.1,0-0.3,0.1-0.3,0.2C0,59.9,0,60,0,60.1l13.1,17.8C13.3,78,13.4,78.1,13.5,78.1z M190.5,68.1l9.8,10.1L13.7,77.3
			l-12.5-17L190.5,68.1z"/>
		<path class="st0" d="M13.5,78.1l187.6,0.9c0.1,0,0.2-0.1,0.3-0.1l29.7-35.5l0,0c0.1-0.1,0.1-0.2,0.1-0.4c0-0.1-0.2-0.2-0.3-0.2
			L54.2,17.3c-0.1,0-0.3,0-0.4,0.2l-40.7,60l0.3,0.2l-0.3-0.2c-0.1,0.1-0.1,0.3,0,0.4C13.2,78,13.4,78,13.5,78.1z M54.3,18.1
			L230,43.3l-29.1,34.8L14.2,77.3L54.3,18.1z"/>
		<path class="st0" d="M54.2,17.6l-0.3,0.2l0.2,0.1l176.6,25.4c0.1,0,0.3,0,0.4-0.1v-0.1c0.1-0.1,0-0.3-0.1-0.4l-11.2-10.7l-0.2-0.1
			L39.5,0c-0.2,0-0.3,0-0.4,0.2c-0.1,0.1-0.1,0.3,0,0.4l14.7,17.3L54.2,17.6z M219.4,32.7l10.3,9.8L54.4,17.3L40.4,0.9L219.4,32.7z"
			/>
		<path class="st0" d="M26.1,21l183.7,23.7c0.1,0,0.3,0,0.3-0.1l9.7-11.9l0,0c0.1-0.2,0.1-0.4-0.1-0.5c-0.1,0-0.1-0.1-0.2-0.1
			L39.5,0c-0.1,0-0.3,0-0.4,0.2L25.8,20.4c-0.1,0.1-0.1,0.2,0,0.4C25.9,20.9,26,21,26.1,21z M39.6,0.8l179.2,31.9l-9.2,11.2
			L26.8,20.4L39.6,0.8z"/>
		<path class="st0" d="M26.1,20.7l-0.3,0.2C25.9,21,26,21,26.1,21l183.7,23.6c0.1,0,0.3,0,0.3-0.1v-0.1c0.1-0.1,0-0.3-0.1-0.4
			l-10-9.8l-0.2-0.1L13.5,4.6c-0.2,0-0.4,0.1-0.4,0.3c0,0.1,0,0.2,0.1,0.3l12.7,15.7L26.1,20.7z M199.6,34.8l9.1,8.9L26.4,20.3
			l-12-14.8L199.6,34.8z"/>
		<path class="st0" d="M0.6,25.4l189.5,21.4c0.1,0,0.3,0,0.3-0.1l9.6-12c0.1-0.1,0.1-0.2,0.1-0.4c0-0.1-0.2-0.2-0.3-0.2L13.5,4.6
			c-0.1,0-0.3,0-0.4,0.2L0.3,24.8c-0.1,0.1-0.1,0.3,0,0.4C0.3,25.3,0.4,25.4,0.6,25.4z M13.6,5.4l185.5,29.3L190,46L1.3,24.7
			L13.6,5.4z"/>
	</g>
</g>
</svg>
