<svg xmlns="http://www.w3.org/2000/svg" viewBox="0 0 291 296"><defs><style>.cls-1{fill:none;stroke:#fff;stroke-width:2px;}</style></defs><g id="Layer_2" data-name="Layer 2"><g id="Layer_1-2" data-name="Layer 1"><path class="cls-1" d="M289,148h-7l-.3.1h-.3l-.3.1h-.3l-.3.1h-.3l-.3.1h-.3l-.3.1-.3.1-.4.1-.4.1-.4.1-.4.1-.4.1-.4.1-.4.1-.4.1-.4.1-.4.1-.4.1-.4.1-.4.1-.4.1-.4.1-.4.1-.4.1-.5.1-.5.1-.5.1-.5.1-.5.1-.5.1-.5.1-.5.1-.5.1-.5.1-.5.1-.5.1-.5.1-.5.1-.5.1-.5.1-.5.1-.5.1-.5.2-.5.2-.6.2-.5.2-.5.2-.5.2-.6.2-.6.2-.6.2-.6.2-.6.2-.6.2-.6.2-.6.2-.6.2-.6.2-.6.2-.6.2-.6.2-.6.2-.6.2-.6.2-.6.2-.6.2-.6.2-.6.2-.6.3-.6.2-.6.3-.6.3-.6.3-.6.3-.7.3-.7.3-.7.3-.7.3-.7.3-.7.3-.7.3-.7.3-.7.3-.7.3-.7.3-.7.3-.7.3-.7.3-.7.3-.7.3-.7.3-.7.3-.7.3-.7.3-.7.3-.7.3-.7.3-.7.3-.7.4-.7.4-.7.4-.7.4-.7.4-.7.4-.7.4-.7.4-.7.4-.7.4-.7.4-.7.4-.7.4-.7.4-.7.4-.7.4-.7.4-.7.4-.7.4-.7.4-.7.4-.7.4-.7.4-.8.8-.7.4-.7.4-.7.4-.7.4-.7.4-.7.5-.7.4-.7.5-.7.5-.7.5-.7.5-.7.5-.7.5-.7.5-.7.5-.7.5-.7.5-.7.5-.7.5-.7.5-.7.5-.7.5-.7.5-.7.5-.7.5-.7.5-.7.5-.7.5-.7.5-.7.5-.7.5-.7.5-.7.5-.7.5-.7.5-.7.5-.7.5-.7.5-.7.5-.7.6-.7.5-.7.6-.7.5-.7.6-.7.6-.7.6-.7.6-.7.6-.7.6-.7.6-.7.6-.7.6-.7.6-.7.6-.7.6-.7.6-.7.6-.7.6-.7.6-.7.6-.7.6-.7.6-.7.6-.7.6-.6.6-.7.6-.6.6-.7.6-.7.6-.6.6-.7.6-.6.6-.6.6-.6.6-.6.6-.6.6-.6.6-.6.6-.6.6-.6.6-.6.6-.6.6-.6.6-.6.6-.6.6-.6.6-.6.6-.6.6-.6.6-.6.6-.6.6-.6.6-.6.6-.6.6-.6.6-.6.6-.6.6-.6.6-.5.6-.5.6-.5.6-.5.6-.5.6-.5.6-.5.6-.5.6-.5.6-.5.6-.5.6-.5.6-.5.6-.5.6-.5.6-.5.6-.5.6-.5.6-.5.6-.5.6-.5.6-.5.6-.5.6-.5.6-.5.6-.5.6-.5.6-.4.6-.4.6-.4.6-.4.6-.4.6-.4.6-.4.6-.4.6-.4.6-.4.6-.4.6-.4.6-.4.6-.4.6-.4.6-.4.6-.4.6-.4.6-.4.6-.4.6-.4.6-.4.5-.4.6-.3.5-.3.5-.4.5-.3.5-.3.5-.3.5-.3.5-.3.5-.3.5-.3.5-.3.5-.3.5-.3.5-.3.5-.3.5-.3.5-.3.5-.3.5-.3.5-.3.5-.3.5-.3.5-.3.5-.3.5-.3.5-.3.5-.3.5-.2.5-.2.5-.2.4-.2.4-.2.5-.2.4-.2.4-.2.4-.2.4-.2.4-.2.4-.2.4-.2.4-.2.4-.2.4-.2.4-.2.4-.2.4-.2.4-.2.4-.2.4-.2.4-.2.4-.2.4-.2.4-.1.4-.2.3-.1.3-.1.3-.1.3-.1.3-.1.3-.1.3-.1.3-.1.3-.1.3-.1.3-.1.3-.1.3-.1.3-.1.3-.1.3-.1.3-.1.3-.1.3-.1.2-.1.2-.1.2-.1.2-.1.2-.1.2-.1.2-.1.2-.1.2-.1.2-.1.2v.2l-.1.2v.4l-.1.1v1.7h0v-.1h0V263.5l-.1-.6-.1-.6-.1-.6-.1-.6-.1-.6-.1-.6-.1-.6-.1-.6-.1-.6-.1-.6-.1-.6-.1-.6-.1-.7-.1-.6-.1-.7-.1-.7-.1-.7-.1-.7-.1-.7-.1-.7-.1-.7-.1-.7-.1-.7-.1-.7-.1-.7-.1-.7-.1-.7-.4-.7-.1-.7-.1-.7-.1-.7-.1-.7-.1-.7-.1-.7-.1-.7-.1-.7-.2-.7-.2-.7-.2-.8-.2-.7-.2-.8-.2-.8-.2-.8-.2-.8-.2-.8-.2-.8-.2-.8-.2-.8-.2-.8-.2-.8-.2-.8-.2-.8-.2-.8-.2-.8-.2-.8-.2-.8-.2-.8-.2-.8-.2-.8-.2-.8-.2-.8-.2-.8-.2-.8-.2-.8-.2-.8-.4-.5-.3-.8-.2-.8-.3-.8-.3-.8-.3-.8-.3-.8-.3-.8-.3-.8-.3-.8-.3-.8-.3-.8-.3-.8-.3-.8-.3-.8-.3-.8-.3-.8-.3-.8-.3-.8-.3-.8-.3-.8-.3-.8-.3-.8-.3-.8-.3-.8-.3-.8-.3-.8-.3-.8-.3-.8-.3-.8-.3-.8-.3-.8-.3-.8-.3-.8-.3-.8-.4-.8-.3-.8-.3-.8-.4-.8-.4-.8-.4-.8-.4-.8-.4-.8-.4-.8-.4-.8-.4-.8-.4-.8-.4-.8-.4-.8-.4-.8-.4-.8-.4-.8-.4-.8-.4-.8-.4-.8-.4-.8-.4-.8-.4-.8-.4-.8-.4-.8-.4-.8-.4-.8-.4-.8-.4-.8-.4-.8-.4-.8-.4-.8-.4-.8-.4-.8-.4-.8-.4-.8-.4-.8-.4-.8-.5-.8-.4-.8-.4-.8-.5-.8-.4-.8-.4-.8-.5-.8-.5-.8-.5-.8-.5-.7-.5-.7-.5-.7-.3-1.1-.5-.7-.5-.7-.5-.7-.5-.7-.5-.7-.5-.7-.5-.7-.5-.7-.5-.7-.5-.7-.5-.7-.5-.7-.5-.7-.5-.7-.5-.7-.5-.7v-.8l-.5-.7-.5-.7-.5-.7-.5-.7-.5-.7-.5-.7-.5-.7-.5-.6-.5-.6-.5-.6-.5-.6-.5-.6-.5-.6-.5-.6-.5-.6-.5-.6-.5-.6-.5-.6-.5-.6-.5-.6-.5-.6-.5-.6-.5-.6-.5-.6-.5-.6-.5-.6v-.7l-.5-.6-.5-.6-.5-.6-.5-.6-.5-.5-.5-.5-.5-.6-.5-.5-.5-.5-.5-.5-.5-.5-.5-.5-.5-.5-.5-.5-.5-.5-.5-.5-.5-.5-.5-.5-.5-.5-.5-.5-.5-.5-.5-.5-.5-.5-.5-.5-.5-.5-.4-.5-.5-.5-.5-.5-.5-.4-.5-.5-.4-.4-.4-.4-.4-.4-.4-.4-.4-.4-.4-.4-.4-.4-.4-.4-.4-.4-.4-.4-.4-.4-.4-.4-.4-.4-.4-.4-.4-.4-.4-.4-.4-.4-.4-.3-.4-.4-.4-.3-.4-.3-.4-.3-.4-.3-.4-.3-.4-.3-.4-.3-.4-.3-.4-.3-.4-.3-.4-.3-.4-.3-.4-.3-.4-.3-.3-.3-.3-.3-.3-.3-.3-.3-.3-.3-.3-.3-.3-.3-.3-.3-.3-.2-.3-.2.1-.1-.3-.2-.3-.2-.3-.2-.3-.2-.3-.2L11,88l-.3-.2-.3-.2-.3-.2-.3-.2L9.5,87l-.3-.2-.3-.2-.3-.2-.3-.2L8,86l-.2-.2-.2-.2-.2-.1-.2-.1L7,85.3l-.2-.1-.2-.1L6.4,85l-.2-.1L6,84.8l-.2-.1-.2-.1-.2-.1-.2-.1L5,84.3l-.2-.1-.2-.1L4.4,84l-.1-.1-.2-.1L4,83.7l-.1-.1-.1-.1-.1-.1.1-.2-.1-.1L3.6,83l-.1-.1-.1-.1h.2l.1.1h.1l.1.1H4l.1.1.1.1.2.1.2.1.2.1.2.1.2.1.2.1.2.1.2.1.2.1.2.1.2.1.2.1.2.1.2.1.2.1.3.1.3.1.3.1.3.1.3.1.3.1.3.1.3.1.3.1.3.1.3.1.3.1.3.1.3.1.3.1.3.1.3.1.3.1.4.1.4.1.4.1.4.1.4.1.4.1.4.1.4.1.4.1.4.1.4.1.4.1.4.1.4.1.4.1.5.1.5.1.5.1.5.1.5.1.5.1.5.1.5.1.5.1.5.1.5.1.5.1.5.1.5.1.5.1.5.1.5.1.5.1.5.1.6.1.6.1.6.1.6.1.6.1.6.1.6.1.6.1.6.1.6.1.6.1.6.1.6.1.6.1.6.1.6.1.6.1.6.1.6.1.6.1.7.1.7.1.7.1.7.1.7.1h.7l.7.1.7.1H77.9l.8-.1h.8l.8-.1h.8l.8-.1.8-.1.8-.1.9-.1.8-.1.9-.1.8-.1.9-.1.9-.1.8-.1.9-.1.9-.1.9-.1.9-.1.9-.1.9-.1.9-.1.9-.1.9-.1.9-.1.9-.1.9-.1.9-.1.9-.1.9-.1.9-.1.9-.1.9-.1.9-.1.9-.1.9-.1.9-.2.9-.1.9-.2.9-.2.9-.2.9-.2.9-.2.9-.2.9-.2.9-.2.9-.2.9-.2.9-.2.9-.2.9-.2.9-.2.9-.2.9-.2.9-.2.9-.2.9-.2.9-.2.9-.2.9-.2.9-.2.9-.2.9-.2.9-.2.9-.2.9-.2.9-.2.9-.2.9-.2.9-.2.9-.2.9-.3.8-.3.9-.2.8-.3.9-.3.8-.3.8-.3.8-.3.8-.3.8-.3.8-.3.8-.3.8-.3.8-.3.8-.3.8-.3.8-.3.8-.3.8-.3.8-.3.8-.3.8-.3.8-.3.8-.3.8-.3.8-.3.8-.3.8-.3.8-.3.8-.3.8-.3.8-.3.8-.3.8-.3.8-.3.8-.3.8-.3.8-.3.8-.3.8-.3.8-.3.8-.3.7-.3.8-.3.7-.3.7-.3.7-.3.7-.3.7-.3.7-.3.7-.3.7-.3.7-.3.7-.3.7-.3.7-.3.7-.3.7-.3.7-.3.7-.3.7-.3.7-.3.7-.4.7-.3.7-.3.7-.3.7-.4.6-.3.6-.3.6-.4.6-.3.6-.4.6-.3.6-.3.6-.4.6-.3.6-.4.6-.3.6-.3.6-.4.6-.3.6-.3.6-.4.6-.3.6-.3.6-.3.6-.3.5-.3.5-.3.5-.3.5-.3.5-.3.5-.3.5-.3.5-.3.5-.3.5-.3.5-.3.5-.3.5-.3.5-.3.5-.3.5-.3.5-.3.5-.3.5-.3.5-.3.5-.3.5-.3.4-.3.4-.3.4-.3.4-.3.4-.3.4-.3.4-.3.4-.3.4-.3.4-.3.4-.3.4-.3.4-.3.4-.3.4-.3.4-.3.4-.3.3-.3.4-.3.3-.3.3-.3.3-.3.3-.3.3-.3.3-.3.3-.3.3-.3.3-.3.3-.3.3-.2.3-.3.3-.2.3-.2.3-.2.3-.2.3-.2.3-.2.3-.2.2-.2.2-.2.2-.2.2-.2.2-.2.2-.2.2-.2.2-.2.2-.2.2-.2.2-.2.2-.2.2-.2.2-.2.2-.2.2-.2.2-.2.2-.2.2-.1.1-.2.1-.1.1-.1.1-.1.1-.1.1-.1.1-.1.1-.1.1-.1.1-.1.1-.1.1-.1.1-.1.1-.1.1-.1.1-.1.1-.1.1-.1.1-.1v-.2l.1-.1v-.1h0v.4l-.1.1-.1.1-.1.1-.1.1-.1.1-.1.1-.1.1-.1.1-.1.1-.1.1-.1.1-.1.1-.1.1-.1.1-.1.2-.1.2-.1.2-.1.2-.1.2-.1.2-.1.2-.1.2-.1.2-.1.2-.1.2-.1.2-.1.2-.1.2-.1.2-.1.2-.2.2-.1.3-.1.3-.2.3-.1.3-.2.3-.1.3-.2.3-.2.3-.2.3-.2.3-.2.3-.2.3-.2.3-.2.3-.2.3-.2.3-.2.3-.2.3-.2.4-.2.4-.2.4-.2.4-.2.4-.2.4-.2.4-.2.4-.2.4-.2.4-.2.4-.2.4-.2.4-.2.4-.2.4-.2.4-.2.4-.2.4-.2.5-.2.5-.2.5-.2.5-.2.5-.2.5-.2.5-.2.5-.2.5-.2.5-.2.5-.2.5-.2.5-.2.5-.2.5-.2.5-.2.5-.2.6-.2.5-.2.6-.2.6-.2.6-.2.6-.2.6-.2.6-.2.6-.2.6-.2.6-.2.6-.2.6-.2.6-.2.6-.2.6-.2.6-.2.6-.2.6-.2.6-.2.6-.2.7-.2.6-1.6-1.2-.2.7-.2.7-.2.7-.2.7-.2.7-.2.7-.2.7-.2.7-.2.7-.2.7-.2.7-.2.7-.2.7-.2.7-.2.7-.2.7-.2.7-.2.7-.2.7-.2.8-.2.8-.2.8-.2.8-.2.8-.2.8-.2.8-.2.8-.2.8-.2.8-.2.8-.2.8-.2.8-.2.8-.2.8-.1.8-.2.8-.1.8-.1.8-.1.8-.1.8-.1.8-.1.8-.1.8-.1.8-.1.8-.1.8-.1.8-.1.8-.1.8-.1.8-.1.9-.1.8-.1.9-.1.9-.1.9-.1.9-.1.9-.1.9-.1.9-.1.9-.1.9-.1.9-.1.9-.1.9-.1.9-.1.9-.1.9-.1.9-.1.9-.1.9-.1.9-.1.9-.1.9-.1.9v1.8l-.1.9v30.6l.1.9v1.8l.1.9.1.9.1.9.1.9.1.9.1.9.1.9.1.9.1.9.1.9.1.9.1.9.1.9.1.9.1.9.1.9.1.9.1.9.1.9.1.9.1.9.1.9.1.8.1.9.1.8.1.8.1.8.1.8.1.8.1.8.1.8.1.8.1.8.1.8.1.8.1.8.1.8.1.8.1.8.2.8.2.8.1.8.2.8.1.8.2.8.2.8.2.8.2.8.2.8.2.8.2.8.2.8.2.8.2.8.2.8.2.7.2.7.2.7.2.7.2.7.2.7.2.7.2.7.2.7.2.7.2.7.2.7.2.7.2.7.2.7.2.7.2.7.2.7.2.7.2.7.2.7.2.6.2.6.2.6.2.6.2.6.2.6.2.6.2.6.2.6.2.6.2.6.2.6.2.6.2.6.2.6.2.6.2.6.2.6.2.6.2.6.2.5.2.6.2.5.2.5.2.5.2.5.2.5.2.5.2.5.2.5.2.5.2.5.2.5.2.5.2.5.2.5.2.5.2.5.2.5.2.4.2.5.2.4.2.4.2.4.2.4.2.4.2.4.2.4.2.4.2.4.2.4.2.4.2.4.2.4.2.4.2.4.2.3.2.4.2.3.2.3.2.3.2.3.2.3.2.3.2.3.2.3.2.3.2.3.2.3.2.3.2.3.2.3.2.3.1.3.1.3.2.2.1.2.1.2.1.2.1.2.1.2.1.2.1.2.1.2.1.2.1.2.1.2.1.2.1.2.1.2.1.2.1.1.1.1.1.1.1.1.1.1.1.1.1.1.1.1.1.1.1.1.1.1.1.1.1.1.1.1.1.1v.4h0v-.1l-.1-.1v-.1l-.1-.1v-1.6l-.1-.1-.1-.1-.1-.1-.1-.1-.1-.1-.1-.1-.1-.1-.1-.1-.1-.1-.1-.1h0l-.1-.1-.1-.1-.1-.1-.1-.1-.1-.1-.1-.1-.1-.1-.1-.1-.2-.2-.2-.2-.2-.2-.2-.2-.2-.2-.2-.2-.2-.2-.2-.2-.2-.2-.2-.2-.2-.2-.2-.2-.2-.2-.2-.2-.2-.2-.2-.2-.2-.2-.2-.2-.2-.2-.3-.2-.3-.2-.3-.2-.3-.2-.3-.2-.3-.2-.3-.2-.3-.3-.3-.3-.3-.3-.3-.3-.3-.3-.3-.3-.3-.3-.3-.3-.3-.3-.3-.3-.4-.3-.3-.3-.4-.3-.4-.3-.4-.3-.4-.3-.4-.3-.4-.3-.4-.3-.4-.3-.4-.3-.4-.3-.4-.3-.4-.3-.4-.3-.4-.3-.4-.3-.4-.3-.4-.3-.4-.3-.5-.3-.5-.3-.5-.3-.5-.3-.5-.3-.5-.3-.5-.3-.5-.3-.5-.3-.5-.3-.5-.3-.5-.3-.5-.3-.5-.3-.5-.3-.5-.3-.5-.3-.5-.3-.5-.3-.5-.3-.5-.3-.6-.3-.6-.3-.6-.4-.6-.3-.6-.3-.6-.3-.6-.3-.6-.4-.6-.3-.6-.3-.6-.4-.6-.3-.6-.4-.6-.3-.5-1.1-.6-.4-.6-.3-.6-.4-.6-.3-.6-.3-.6-.4-.7-.3-.7-.3-.7-.4-.7-.3-.7-.3-.7-.3-.7-.3-.7-.3-.7-.3-.7-.3-.7-.3-.7-.3-.7-.3-.7-.3-.7-.3-.7-.3-.7-.3-.7-.3-.7-.3-.7-.3-.7-.3-.7-.3-.7-.3-.7-.3-.8-.3-.8-.3-.8-.3-.8-.3-.8-.3-.8-.3-.8-.3-.8-.3-.8-.3-.8-.3-.8-.3-.8-.3-.8-.3-.8-.3-.8-.3-.8-.3-.8-.3-.8-.3-.8-.3-.8-.3-.8-.3-.8-.3-.8-.3-.8-.3-.8-.3-.8-.3-.8-.3-.8-.3-.8-.3-.8-.3-.8-.3-.8-.3-.8-.3-.8-.3-.8-.3-.8-.3-.8-.3-.8-.3-.9-.3-.8-.3-.9-.3-.9-.3-.8-.2-.9-.3-1-.5-.9-.2-.9-.2-.9-.2-.9-.2-.9-.2-.9-.2-.9-.2-.9-.2-.9-.2-.9-.2-.9-.2-.9-.2-.9-.2-.9-.2-.9-.2-.9-.2-.9-.2-.9-.2-.9-.2-.9-.2-.9-.2-.9-.2-.9-.2-.9-.2-.9-.2-.9-.2-.9-.2-.9-.2-.9-.2-.9-.1-.9-.2-.9-.1-.9-.1-.9-.1-.9-.1-.9-.1-.9-.1-.9-.1-.9-.1-.9-.1-.9-.1L99,207l-.9-.1-.9-.1-.9-.1-.9-.1-.9-.1-.9-.1-.9-.1-.9-.1-.9-.1L90,206l-.9-.1-.9-.1-.8-.1-.9-.1-.9-.1-.8-.1-.9-.1-.8-.1-.9-.1-.8-.1-.8-.1-.8-.1-.8-.1h-.8l-.8-.1-.8-.1h-.8l-.8-.1H45.1l-.7.1h-.7l-.7.1-.7.1h-.7l-.7.1-.7.1-.7.1-.6.1-.7.1-.6.1-.6.1-.6.1-.6.1-.6.1-.6.1-.6.1-.6.1-.6.1-.6.1-.6.1-.6.1-.6.1-.6.1-.6.1-.6.1-.6.1-.6.1-.6.1-.5.1-.5.1-.5.1-.5.1-.5.1-.5.1-.5.1-.5.1-.5.1-.5.1-.5.1-.5.1-.5.1-.5.1-.5.1-.5.1-.5.1-.5.1-.5.1-.4.1-.4.1-.4.1-.4.1-.4.1-.4.1-.4.1-.4.1-.4.1-.4.1-.4.1-.4.1-.4.1-.4.1-.4.1-.4.1-.3.1-.3.1-.3.1-.3.1-.3.1-.3.1-.3.1-.3.1-.3.1-.3.1-.3.1-.3.1-.3.1-.3.1-.3.1-.3.1-.3.1-.2.1-.2.1-.2.1-.2.1-.2.1-.2.1-.2.1-.2.1-.2.1-.2.1-.2.1-.2.1-.2.1-.2.1-.2.1-.1.1-.1.1H2.5l-.1.1-.1.1H2l.1-.1.1-.1.1-.1.1-.1.1-.1.1-.1.1-.1.1-.1.1-.1.1-.1.2-.1.2-.1.2-.1.2-.1.2-.1.2-.1.2-.1.2-.1.2-.1.2-.1.2-.1.2-.1.2-.1.2-.1.2-.1.2-.1.2-.1.2-.2.2-.2.3-.2.3-.2.3-.2.3-.2.3-.2.3-.2.3-.2.3-.2.3-.2.3-.2.3-.2.3-.2.3-.2.3-.2.3-.2.3-.2.3-.2.3-.3.3-.2.3-.3.3-.3.3-.3.3-.3.3-.3.3-.3.3-.3.4-.3.3-.3.4-.3.4-.3.4-.3.4-.3.4-.3.4-.3.4-.3.4-.3.4-.3.4-.3.4-.3.4-.3.4-.4.4-.4.4-.4.4-.4.4-.4.4-.4.4-.4.4-.4.4-.4.4-.4.4-.4.4-.4.4-.4.4-.4.4-.4.4-.4.4-.4.4-.4.4-.4.5-.4.4-.4.5-.4.4-.5.5-.5.5-.5.5-.5.4-.5.5-.5.5-.5.5-.5.5-.5.5-.5.5-.5.5-.5.5-.5.5-.5.5-.5.5-.5.5-.5.5-.5.5-.5.5-.5.5-.5.5-.5.5-.6.5-.5.5-.6.5-.6.5-.6.5-.6.5-.6.5-.6.5-.6.5-.6.5-.6.5-.6.5-.6.5-.6.5-.6.5-.6.5-.6.5-.6.5-.6.5-.6.5-.6.5-.6.5-.6.5-.6.5-.7.5-.7.5-.6.5-.7.5-.7.5-.7.5-.7.5-.7.5-.7.5-.7.5-.7.5-.7.5-.7.5-.7.5-.7.5-.7.5-.7.5-.7.5-.7.5-.7.5-.7.5-.7.5-.7.5-.7.5-.7.5-.7.5-.7.5-.7.5-.7.5-.7.5-.8.4-.8.5-.8.5-.8.4-.8.5-.8.4-.8.4-.8.4-.8.4-.8.4-.8.4-.8.4-.8.4-.8.4-.8.4-.8.4-.8.4-.8.4-.8.4-.8.4-.8.4-.8.4-.8.4-.8.4-.8.4-.8.4-.8.4-.8.4-.8.4-.8.4-.8.4-.8.4-.8.4-.8.4-.8.4-.8.4-.8.4-.8.4-.8.4-.8.4-.8.4-.8.4-.8.3-.8.4-.8.3-.8.3-.8.4-.8.3-.8.3-.8.3-.8.3-.8.3-.8.3-.8.3-.8.3-.8.3-.8.3-.8.3-.8.3-.8.3-.8.3-.8.3-.8.3-.8.3-.8.3-.8.3-.8.3-.8.3-.8.3-.8.3-.8.3-.8.3-.8.3-.8.3-.8.3-.8.3-.8.3-.8.3-.8.3-.8.3-.8.2-.8.2-.8.2-.8.2-.8.2-.8.2-.8.2-.8.2-.8.2-.8.2-.8.2-.8.2-.8.2-.8.2-.8.2-.8.2-.8.2-.8.2-.8.2-.8.2-.8.2-.8.2-.8.2-.8.2-.8.2-.8.2-.8.2-.8.2-.7.2-.7.2-.7.1-.7.1-.7.1-.7.1-.7.1-.7.1-.7.1-.7.1-.7.1-.7.1-.7.1-.7.1-.7.1-.7.1-.7.1-.7.1-.7.1-.7.1-.7.1-.7.1-.7.1-.7.1-.7.1-.7.1-.7.1-.6.1-.6.1-.6.1-.6.1-.6.1-.6.1-.6.1-.6.1-.6.1-.6V34l.1-.6V2h0V4.1l.1.2v.2l.1.2.1.2.1.2.1.2.1.2.1.2.1.2.1.2.1.2.1.2.1.2.1.2.1.3.1.3.1.3.1.3.1.3.1.3.1.3.1.3.1.3.1.3.1.3.1.3.1.3.1.3.1.3.1.3.1.3.1.3.2.3.1.3.2.4.2.4.2.4.2.4.2.4.2.4.2.4.2.4.2.4.2.4.2.4.2.4.2.4.2.4.2.4.2.4.2.4.2.4.2.4.2.4.2.4.2.4.2.4.2.5.2.4.3.5.3.5.3.5.3.5.3.5.3.5.3.5.3.5.3.5.3.5.3.5.3.5.3.5.3.5.3.5.3.5.3.5.3.5.3.5.3.5.3.5.3.5.3.5.3.5.3.6.4.5.3.6.4.6.4.6.4.5.4.6.4.6.4.6.4.6.4.6.4.6.4.6.4.6.4.6.4.6.4.6.4.6.4.6.4.6.4.6.4.6.4.6.4.6.4.6.5.6.5.6.5.6.5.6.5.6.5.6.5.6.5.6.5.6.5.6.5.6.5.6.5.6.5.6.5.6.5.6.5.6.5.6.5.6.5.6.5.6.5.6.5.6.5.6.5.6.5.6.5.6.6.6.5.6.6.6.6.6.6.6.6.6.6.6.6.6.6.6.6.6.6.6.6.6.6.6.6.6.6.6.6.6.6.6.6.6.6.6.6.6.6.6.6.6.6.6.6.6.6.6.6.6.6.6.6.6.6.6.7.6.6.6.7.6.7.6.7.6.7.6.7.6.7.6.7.6.7.6.7.6.7.6.7.6.7.6.7.6.7.6.7.6.7.6.7.6.7.6.7.6.7.6.7.6.7.6.7.6.7.6.7.6.7.5.7.6.7.5.7.5.7.6.7.5.7.5.7.5.7.5.7.5.7.5.7.5.7.5.7.5.7.5.7.5.7.5.7.5.7.5.7.5.7.5.7.5.7.5.7.5.7.5.7.5.7.5.7.5.7.5.7.5.7.5.7.5.7.5.7.5.7.5.7.5.7.5.7.5.7.4.7.4.7.4.7.4.7.4.7.4.7.4.7.4.7.4.7.4.7.4.7.4.7.4.7.4.7.4.7.4.7.4.7.4.7.4.7.4.7.4.7.4.7.4.7.4.7.4.7.4.7.4.7.4.7.4.7.3.7.3.7.3.7.3.7.3.7.3.7.3.7.3.7.3.7.3.7.3.7.3.7.3.7.3.7.3.7.3.7.3.7.3.7.3.7.3.7.3.7.3.6.3.7.3.6.3.6.3.6.3.6.3.6.3.6.2.6.2.6.2.6.2.6.2.6.2.6.2.6.2.6.2.6.2.6.2.6.2.6.2.6.2.6.2.6.2.6.2.6.2.6.2.6.2.5.2.6.2.5.2.5.2.5.2.5.2.5.2.5.1.5.1.5.1.5.1.5.1.5.1.5.1.5.1.5.1.5.1.5.1.5.1.5.1.5.1.5.1.5.1.5.1.4.1.4.1.4.1.4.1.4.1.4.1.4.1.4.1.4.1.4.1.4.1.4.1.4.1.4.1.4.1.4.1.4.1.3.1.4.1.3.1.3.1h.6l.3.1h.3l.3.1H289V148h-8.3l-.3.1-.3.1h-.3l-.3.1-.3.1-.4.1-.3.1-.4.1-.4.1-.4.1-.4.1-.4.1-.4.1-.4.1-.4.1-.4.1-.4.1-.4.1-.4.1-.4.1-.4.1-.4.1-.4.1-.4.1-.5.1-.5.1-.5.1-.5.1-.5.1-.5.1-.5.1-.5.1-.5.1-.5.1-.5.1-.5.1-.5.1-.5.1-.5.1-.5.2-.5.1-.5.2-.5.2-.5.2-.5.2-.6.2-.5.2-.6.2-.6.2-.6.2-.6.2-.6.2-.6.2-.6.2-.6.2-.6.2-.6.2-.6.2-.6.2-.6.2-.6.2-.6.2-.6.2-.6.2-.6.2-.6.2-.6.2-.6.2-.6.3-.6.3-.6.3-.7.3-.7.3-.6.3-.7.3-.7.3-.7.3-.7.3-.7.3-.7.3-.7.3-.7.3-.7.3-.7.3-.7.3-.7.3-.7.3-.7.3-.7.3-.7.3-.7.3-.7.3-.7.3-.7.3-.7.3-.7.4-.7.3-.7.4-.7.4-.7.4-.7.4-.7.4-.7.4-.7.4-.7.4-.7.4-.7.4-.7.4-.7.4-.7.4-.7.4-.7.4-.7.4-.7.4-.7.4-.7.4-.7.4-.7.4-.7.4-.7.4-.7.4-.7.4-.7.4-.7.4-.7.4-.7.5-.7.5-.7.4-.7.5-.7.5-.7.5-.7.5-.7.5-.7.5-.7.5-.7.5-.7.5-.7.5-.7.5-.7.5-.7.5-.7.5-.7.5-.7.5-.7.5-.7.5-.7.5-.7.5-.7.5-.7.5-.7.5-.7.5-.7.5-.7.5-.7.5-.7.5-.7.5-.7.5-.7.5-.7.5-.7.5-.7.5-.7.6-.7.6-1.9,1.1-.7.6-.7.6-.7.6-.7.6-.7.6-.7.6-.7.6-.7.6-.7.6-.7.6-.7.6-.7.6-.7.6-.7.6-.7.6-.7.6-.7.6-.7.6-.4.2-.7.6-.7.6-.7.6-.7.6-.6.6-.7.6-.6.6-.6.6-.6.6-.6.6-.6.6-.6.6-.6.6-.6.6-.6.6-.6.6-.6.6-.6.6-.6.6-.6.6-.6.6-.6.6-.6.6-.6.6-.6.6-.6.6-.6.6-.6.6-.6.6-.6.6-.6.6-.6.6-.6.6-.6.6-.5.6-.5.6-.5.6-.5.6-.5.6-.5.6-.5.6-.5.6-.5.6-.5.6-.5.6-.5.6-.5.6-.5.6-.5.6-.5.6-.5.6-.5.6-.5.6-.5.6-.5.6-.5.6-.5.6-.5.6-.5.6-.5.6-.5.6-.5.6-.5.6-.4.6-.4.6-.4.6-.4.6-.4.6-.4.6-.4.6-.4.6-.4.6-.4.6-.4.6-.4.6-.4.6-.4.6-.4.6-.4.6-.4.6-.4.6-.4.6-.4.6-.4.5-.4.5-.3.6-.4.5-.3.5-.3.5-.3.5-.3.5-.3.5-.3.5-.3.5-.3.5-.3.5-.3.5-.3.5-.3.5-.5,1.1-.3.5-.3.5-.3.5-.3.5-.3.5-.3.5-.3.5-.3.5-.3.5-.3.5-.3.5-.2.5-.3.5-.2.5-.2.4-.2.5-.2.4-.2.4-.2.4-.2.4-.2.4-.2.4-.2.4-.2.4-.2.4-.2.4-.2.4-.2.4-.2.4-.2.4-.2.4-.2.4-.2.4-.2.4-.2.4-.2.4-.1.4-.2.3-.2.3-.1.3-.1.3-.1.3-.1.3-.1.3-.1.3-.1.3-.1.3-.1.3-.1.3-.1.3-.1.3-.1.3-.1.3-.1.3-.1.3-.1.3-.1.2-.1.2-.1.2-.1.2-.1.2-.1.2-.1.2-.1.2-.1.2-.1.2-.1.2-.1.2-.1.2v.6l-.1.1v1.6h0V263.4l-.1-.6-.1-.6-.1-.6-.1-.6-.1-.6-.1-.6-.1-.6-.1-.6-.1-.6-.1-.6-.1-.6-.1-.6-.1-.6-.1-.7-.1-.7-.1-.7-.1-.7-.1-.7-.1-.7-.1-.7-.1-.7-.1-.7-.1-.7-.1-.7-.1-.7-.1-.7-.1-.7.7-.6-.1-.7-.1-.7-.1-.7-.1-.7-.1-.7-.1-.7-.1-.7-.2-.7-.2-.7-.2-.7-.2-.8-.2-.7-.2-.8-.2-.8-.2-.8-.2-.8-.2-.8-.2-.8-.2-.8-.2-.8-.2-.8-.2-.8-.2-.8-.2-.8-.2-.8-.2-.8-.2-.8-.2-.8-.2-.8-.2-.8-.2-.8-.2-.8-.2-.8-.2-.8-.2-.8-.2-.8-.2-.8-.3-.5-.2-.8-.3-.8-.3-.8-.3-.8-.3-.8-.3-.8-.3-.8-.3-.8-.3-.8-.3-.8-.3-.8-.3-.8-.3-.8-.3-.8-.3-.8-.3-.8-.3-.8-.3-.8-.3-.8-.3-.8-.3-.8-.3-.8-.3-.8-.3-.8-.3-.8-.3-.8-.3-.8-.3-.8-.3-.8-.3-.8-.3-.8-.3-.8-.3-.8-.4-.8-.3-.8-.4-.8-.4-.8-.4-.8-.4-.8-.4-.8-.4-.8-.4-.8-.4-.8-.4-.8-.4-.8-.4-.8-.4-.8-.4-.8-.4-.8-.4-.8-.4-.8-.4-.8-.4-.8-.4-.8-.4-.8-.4-.8-.4-.8-.4-.8-.4-.8-.4-.8-.4-.8-.4-.8-.4-.8-.4-.8-.4-.8-.4-.8-.4-.8-.4-.8-.4-.8-.4-.8-.4-.8-.4-.8-.4-.8-.4-.8-.4-.8-.5-.8-.5-.8-.5-.8-.5-.8-.4-.7-.5-.8-.5-.7-.5-.8-.5-.7-.1-1.1-.5-.7-.5-.7-.5-.7-.5-.7-.5-.7-.5-.7-.5-.7-.5-.7-.5-.7-.5-.7-.5-.7-.5-.7-.5-.7-.5-.7-.5-.7-.5-.7v-.8l-.5-.7-.5-.7-.5-.7-.5-.7-.5-.7-.5-.7-.5-.7-.5-.6-.5-.7-.5-.6-.5-.6-.5-.6-.5-.6-.5-.6-.5-.6-.5-.6-.5-.6-.5-.6-.5-.6-.5-.6-.5-.6-.5-.6-.5-.6-.5-.6-.5-.6-.5-.6-.5-.6-.5-.6-.5-.6-.5-.6-.5-.6-.5-.6-.5-.5-.5-.6-.5-.5-.5-.5-.5-.5-.5-.5-.5-.5-.5-.5-.5-.5-.5-.5-.5-.5-.5-.5-.5-.5-.5-.5-.5-.5-.5-.5-.5-.5-.5-.5-.5-.5-.5-.5-.5-.5-.5-.5-.4-.4-.5-.5-.5-.4-.4-.4-.4-.4-.4-.4-.4-.4-.4-.4-.4-.4-.4-.4-.4-.4.6-.4-.4-.4-.4-.4-.4-.4-.4-.4-.4-.4-.4-.4-.4-.4-.4-.4-.4-.4-.4-.4-.4-.4-.4-.3-.4-.3-.4-.3-.4-.3-.4-.3L19,94l-.4-.3-.4-.3-.4-.3-.4-.3-.4-.3-.4-.3-.3-.3-.4-.3-.3-.3-.3-.3-.3-.3-.3-.3-.3-.3-.3-.3-.3-.2-.3-.3-.3-.2-.4.1-.3-.2-.3-.2-.3-.2-.3-.2-.3-.2L11,88l-.3-.2-.3-.2-.3-.2-.3-.2L9.5,87l-.3-.2-.3-.2-.3-.2-.3-.2L8,86l-.2-.2-.2-.2-.2-.1-.2-.2L7,85.2l-.2-.1L6.6,85l-.2-.1-.2-.1L6,84.7l-.2-.1-.2-.1-.2-.1-.2-.1L5,84.2l-.2-.1L4.6,84l-.2-.1-.1-.1-.2-.1L4,83.6l-.1-.1-.1-.1-.1-.1.1-.1-.1-.1L3.6,83H3.5l-.1-.1-.1-.1H3.2l-.1-.1h.6l.1.1h.1l.1.1.1.1.1.1h.1l.2.1.2.1.2.1.2.1.2.1.2.1.2.1.2.1.2.1.2.1.2.1.2.1.2.1.2.1.3.1.3.1.3.1.3.1.3.1.3.1.3.1.3.1.3.1.3.1.3.1.3.1.3.1.3.1.3.1.3.1.3.1.4.1.3.1.4.1.4.1.4.1.4.1.4.1.4.1.4.1.4.1.4.1.4.1.4.1.4.1.4.1.4.1.4.1.5.1.5.1.5.1.5.1.5.1.5.1.5.1.5.1.5.1.5.1.5.1.5.1.5.1.5.1.5.1.5.1.5.1.5.1.5.1.6.1.6.1.6.1.6.1.6.1.6.1.6.1.6.1.6.1.6.1.6.1.6.1.6.1.6.1.6.1.6.1.6.1.6.1.6.1.6.1.7.1.6.1.7.1h.7l.7.1h.7l.7.1h3.5l.7.1H78.1l.8-.1h.8l.8-.1.8-.1.8-.1.8-.1.8-.1.9-.1.8-.1.9-.1.8-.1.9-.1.9-.1.9-.1.8-.1.9-.1.9-.1.9-.1.9-.1.9-.1.9-.1.9-.1.9-.1.9-.1.9-.1.9-.1.9-.1.9-.1.9-.1.9-.1.9-.1.9-.1.9-.1.9-.1.9-.1.9-.1.9-.1.9-.2.9-.2.9-.2.9-.2.9-.2.9-.2.9-.2.9-.2.9-.2.9-.2.9-.2.9-.2.9-.2.9-.2.9-.2.9-.2.9-.2.9-.2.9-.2.9-.2.9-.2.9-.2.9-.2.9-.2.9-.2.9-.2.9-.2.9-.2.9-.2.9-.2.9-.2.9-.2.9-.2.9-.3.9-.2.8-.3.8-.3.9-.3.8-.3.8-.3.8-.3.8-.3.8-.3.8-.3.8-.3.8-.3.8-.3.8-.3.8-.3.8-.3.8-.3.8-.3.8-.3.8-.3.8-.3.8-.3.8-.3.8-.3.8-.3.8-.3.8-.3.8-.3.8-.3.8-.3.8-.3.8-.3.8-.3.8-.3.8-.3.8-.3.8-.3.8-.3.8-.3.8-.3.8-.3.8-.3.7-.3.7-.3.7-.3.7-.3.7-.3.7-.3.7-.3.7-.3.7-.3.7-.3.7-.3.7-.3.7-.3.7-.3.7-.3.7-.3.7-.3.7-.3.7-.3.7-.3.7-.3.7-.3.7-.4.7-.3.6-.3.6-.4.6-.3.6-.4.6-.3.6-.3.6-.4.6-.3.6-.4.6-.3.6-.3.6-.4.6-.3.6-.3.6-.4.6-.3.6-.3.6-.3.6-.3.6-.3.5-.3.5-.3.5-.3.5-.3.5-.3.5-.3.5-.3.5-.3.5-.3.5-.3.5-.3.5-.3.5-.3.5-.3.5-.3.5-.3.5-.3.5-.3.5-.3.4-.3.5-.3.4-.3.4-.3.4-.3.4-.3.4-.3.4-.3.4-.3.4-.3.4-.3.4-.3.4-.3.4-.3.4-.3.4-.3.4-.3.4-.3.4-.3.4-.3.4-.3.3-.3.3-.3.3-.3.3-.3.3-.3.3-.3.3-.3.3-.3.3-.3.3-.3.3-.3.3-.3.3-.3.3-.2.3-.2.3-.2.3-.2.3-.2.3-.2.3-.2.2-.2.2-.2.2-.2.2-.2.2-.2.2-.2.2-.2.2-.2.2-.2.2-.2.2-.2.2-.2.2-.2.2-.2.2-.2.2-.2.2-.2.1-.2.2-.2.1-.1.1-.1.1-.1.1-.1.1-.1.1-.1.1-.1.1-.1.1-.1.1-.1.1-.1.1-.1.1-.1.1-.1.1-.1.1-.1.1-.1.1-.1.1-.1.1-.1v-.3h0v.1h0v.1h0v.1l-.1.1v.1l-.1.1-.1.1-.1.1-.1.1-.1.1-.1.1-.1.1-.1.1-.1.1-.1.1-.1.1-.1.1-1.2-1.6-.1.1-.1.2-.1.2-.1.2-.1.2-.1.2-.1.2-.1.2-.1.2-.1.2-.1.2-.1.2-.1.2-.1.2-.1.2-.1.2-.2.2-.1.3-.2.3-.2.3-.1.3-.2.3-.1.3-.2.3-.2.3-.2.3-.2.3-.2.3-.2.3-.2.3-.2.3-.2.3-.2.3-.2.3-.2.4-.2.4-.2.3-.2.4-.2.4-.2.4-.2.4-.2.4-.2.4-.2.4-.2.4-.2.4-.2.4-.2.4-.2.4-.2.4-.2.4-.2.4-.2.4-.2.5-.2.5-.2.5-.2.5-.2.5-.2.5-.2.5-.2.5-.2.5-.2.5-.2.5-.2.5-.2.5-.2.5-.2.5-.2.5-.2.5-.2.5-.2.6-.2.6-.2.6-.2.6-.2.6-.2.6-.2.6-.2.6-.2.6-.2.6-.2.6-.2.6-.2.6-.2.6-.2.6-.2.6-.2.6-.2.6-.2.6-.2.6-.2.6-.2.7-.2.7-.2.7-.2.7-.2.7-.2.7-.2.7-.2.7-.2.7-.2.7-.2.7-.2.7-.2.7-.2.7-.2.7-.2.7-.2.7-.2.7-.2.7-.2.7-.2.8-.2.7-.2.8-.2.8-.2.8-.2.8-.2.8-.2.8-.2.8-.2.8-.2.8-.2.8-.2.8-.2.8-.2.8-.2.8-.1.8-.2.8-.1.8-.1.8-.1.8-.1.8-.1.8-.1.8-.1.8-.1.8-.1.8-.1.8-.1.8-.1.8-.1.8-.1.8-.1.8-.1.8-.1.9-.1.9-.1.9-.1.8-.1.9-.1.9-.1.9-.1.9-.1.9-.1.9-.1.9-.1.9-.1.9-.1.9-.1.9-.1.9-.1.9-.1.9-.1.9-.1.9-.1.9v.9l-.1.9v.9l-.1.9v30.6l.1.9v.9l.1.9.1.9.1.9.1.9.1.9.1.9.1.9.1.9.1.9.1.9.1.9.1.9.1.9.1.9.1.9.1.9.1.9.1.9.1.9.1.9.1.9.1.9.1.9.1.8.1.9.1.8.1.8.1.8.1.8.1.8.1.8.1.8.1.8.1.8.1.8.1.8.1.8.2.8.1.8.1.8.2.8.2.8.2.8.2.8.2.8.2.8.2.8.2.8.2.8.2.8.2.8.2.8.2.8.2.8.2.8.2.7.2.7.2.7.2.7.2.7.2.7.2.7.2.7.2.7.2.7.2.7.2.7.2.7.2.7.2.7.2.7.2.7.2.7.2.7.2.7.2.7.2.7.2.6.2.7.2.6.2.6.2.6.2.6.2.6.2.6.2.6.2.6.2.6.2.6.2.6.2.6.2.6.2.6.2.6.2.6.2.6.2.6.2.6.2.5.2.5.2.5.2.5.2.5.2.5.2.5.2.5.2.5.2.5.2.5.2.5.2.5.2.5.2.5.2.5.2.5.2.5.2.4.2.5.2.4.2.4.2.4.2.4.2.4.2.4.2.4.2.4.2.4.2.4.2.4.2.4.2.4.2.4.2.4.2.4.2.4.2.3.2.3.2.3.2.3.2.3.2.3.2.3.2.3.2.3.2.3.2.3.2.3.1.3.2.3.1.3.2.3.1.2.1.3.1.2.1.2.1.2.1.2.1.2.1.2.1.2.1.2.1.2.1.2.1.2.1.2.1.2.1.2.1.2.1.1.1.1.1.1.1.1.1.1.1.1.1.1.1.1.1.1.1.1.1.1.1.1.1.1v.1l.1.1.1.1v.2h0v-.1l-.1-.1v-.1l-.1-.1-.3-1.3-.1-.1-.1-.1-.1-.1-.1-.1-.1-.1-.1-.1-.1-.1-.1-.1-.1-.1-.1-.1h0l-.1-.1-.1-.1-.1-.1-.1-.1-.1-.1-.1-.1-.1-.2-.1-.1-.2-.2-.2-.2-.2-.2-.2-.2-.2-.2-.2-.2-.2-.2-.2-.2-.2-.2-.2-.2-.2-.2-.2-.2-.2-.2-.2-.2-.2-.2-.2-.2-.2-.2-.3-.2-.2-.2-.3-.2-.3-.2-.3-.2-.3-.2-.3-.2-.3-.3-.3-.2-.3-.3-.3-.3-.3-.3-.3-.3-.3-.3-.3-.3-.3-.3-.3-.3-.3-.3-.3-.3-.3-.3-.4-.3-.3-.3-.4-.3-.4-.3-.4-.3-.4-.3-.4-.3-.4-.3-.4-.3-.4-.3-.4-.3-.4-.3-.4-.3-.4-.3-.4-.3-.4-.3-.4-.3-.4-.3-.4-.3-.5-.3-.5-.3-.5-.3-.5-.3-.5-.3-.5-.3-.5-.3-.5-.3-.5-.3-.5-.3-.5-.3-.5-.3-.5-.3-.5-.3-.5-.3-.5-.3-.5-.3-.5-.3-.5-.3-.6-.3-.5-.3-.5-.3-.6-.3-.6-.3-.6-.3-.6-.3-.6-.4-.6-.3-.6-.3-.6-.3-.6-.3-.6-.3-.6-.3-.6-.3-.6-.3-.5-1.2-.6-.3-.6-.3-.6-.3-.6-.4-.6-.3-.7-.3-.6-.4-.7-.3-.7-.3-.7-.3-.7-.3-.7-.4-.7-.3-.7-.3-.7-.3-.7-.3-.7-.3-.7-.3-.7-.3-.7-.3-.7-.3-.7-.3-.7-.3-.7-.3-.7-.3-.7-.3-.7-.3-.7-.3-.7-.3-.7-.3-.8-.3-.8-.3-.8-.3-.8-.3-.8-.3-.8-.3-.8-.3-.8-.3-.8-.3-.8-.3-.8-.3-.8-.3-.8-.3-.8-.3-.8-.3-.8-.3-.8-.3-.8-.3-.8-.3-.8-.3-.8-.3-.8-.3-.8-.3-.8-.3-.8-.3-.8-.3-.8-.3-.8-.3-.8-.3-.8-.3-.8-.3-.8-.3-.8-.3-.8-.3-.8-.3-.8-.3-.8-.3-.8-.3-.9-.3-.8-.3-.9-.3-.9-.3-.8-.2-.9-.2-.9-.2-.9-.2-.9-.2-.9-.2-.9-.2-.9-.2-.9-.2-.9-.2-.9-.2-.9-.2-.9-.2-.9-.2-.9-.2-.9-.2-.9-.2-.9-.2-.9-.2-.9-.2-.9-.2-.9-.2-.9-.2-.9-.2-.9-.2-.9-.2-.4-.9-.9-.2-.9-.2-.9-.2-.9-.2-.9-.2-.9-.2-.9-.2-.9-.1-.9-.1-.9-.1-.9-.1-.9-.1-.9-.1-.9-.1-.9-.1-.9-.1-.9-.1-.9-.1-.9-.1-.9-.1-.9-.1-.9-.1-.9-.1-.9-.1-.9-.1-.9-.1-.9-.1-.9-.1-.9-.1-.9-.1v-.3l-.9-.1-.8-.1-.9-.1-.8-.1-.8-.1-.9-.1-.8-.1-.8-.1-.8-.1-.8-.1-.8-.1h-.8l-.8-.1H46.6l-.7.1h-.7l-.7.1-.7.1-.7.1-.7.1-.7.1-.7.1-.7.1-.7.1-.6.1-.6.1-.6.1-.6.1-.6.1-.6.1-.6.1-.6.1-.6.1-.6.1-.6.1-.6.1-.6.1-.6.1-.6.1-.6.1-.6.1-.6.1-.6.1-.5.1-.5.1-.5.1-.5.1-.5.1-.5.1-.5.1-.5.1-.5.1-.5.1-.5.1-.5.1-.5.1-.5.1-.5.1-.5.1-.5.1-.5.1-.4.1-.5.1-.4.1-.4.1-.4.1-.4.1-.4.1-.4.1-.4.1-.4.1-.4.1-.4.1-.4.1-.4.1-.4.1-.4.1-.3.1-.4.1-.3.1-.3.1-.3.1-.3.1-.3.1-.3.1-.3.1-.3.1-.3.1-.3.1-.3.1-.3.1-.3.1-.3.1-.3.1-.2.1-.3.1-.2.1-.2.1-.2.1-.2.1-.2.1-.2.1-.2.1-.2.1-.2.1-.2.1-.2.1-.2.1-.2.1-.2.1-.2.1H3.9l-.1.1H3.7l-.1.1H3.5l-.1.1H3.2l.1-.1h.1l.1-.1.1-.1.1-.1.1-.1.1-.1.1-.1.1-.1.1-.1.1-.1.2-.1.2-.1.2-.1.2-.1.2-.1.2-.1.2-.1.2-.1.2-.1.2-.1.2-.1.2-.1.2-.1.2-.1.2-.1.2-.2.2-.2.2-.2.3-.2.2-.2.3-.2L9,210l.3-.2.3-.2.3-.2.3-.2.3-.2.3-.2.3-.2.3-.2.3-.2.3-.2.3-.2.3-.2.3-.2.3-.2.3-.2.3-.3.3-.3.3-.3.3-.3.3-.3.3-.3.4-.3.3-.3.4-.3.4-.3.4-.3.4-.3.4-.3.4-.3.4-.3.4-.3.4-.3.4-.3.4-.3.4-.3.4-.3.4-.3.4-.3.4-.4.4-.4.4-.4.4-.4.4-.4.4-.4.4-.4.4-.4.4-.4.4-.4.4-.4.4-.4.4-.4.4-.4.4-.4.4-.4.4-.4.4-.4.4-.4.4-.4.5-.5.5-.4.5-.5.5-.5.5-.5.5-.5.5-.5.5-.5.5-.5.5-.5.5-.5.5-.5.5-.5.5-.5.5-.5.5-.5.5-.5.5-.5.5-.5.5-.5.5-.5.5-.5.5-.5.5-.5.5-.6.5-.6.5-.6.5-.6.5-.6.5-.6.5-.6.5-.6.5-.6.5-.6.5-.6.5-.6.5-.6.5-.6.5-.6.5-.6.5-.6.5-.6.5-.6.5-.6.5-.6.5-.6.5-.6.5-.6.5-.6.5-.7.5-.7.5-.7.5-.7.5-.7.5-.7.5-.7.5-.7.5-.7.5-.7.5-.7.5-.7.5-.7.5-.7.5-.7.5-.7.5-.7.5-.7.5-.7.5-.7.5-.7.5-.7.5-.7.5-.7.5-.7.5-.7.5-.7.4-.8.5-.7.5-.8.5-.8.4-.8.5-.8.4-.8.5-.8.4-.8.4-.8.4-.8.4-.8.4-.8.4-.8.4-.8.4-.8.4-.8.4-.8.4-.8.4-.8.4-.8.4-.8.4-.8.4-.8.4-.8.4-.8.4-.8.4-.8.4-.8.4-.8.4-.8.4-.8.4-.8.4-.8.4-.8.4-.8.4-.8.4-.8.4-.8.4-.8.4-.8.4-.8.4-.8.4-.8.4-.8.3-.8.4-.8.3-.8.3-.8.3-.8.3-.8.3-.8.3-.8.3-.8.3-.8.3-.8.3-.8.3-.8.3-.8.3-.8.3-.8.3-.8L92,96l.3-.8.3-.8.3-.8.3-.8.3-.8.3-.8.3-.8.3-.8.3-.8L95,88l.3-.8.3-.8.3-.8.3-.8.3-.8.3-.8.3-.8.3-.8.2-.8.3-.8.2-.8.2-.8.2-.8.2-.8.2-.8.2-.8.2-.8.2-.8.2-.8.2-.8.2-.8.2-.8.2-.8.2-.8.2-.8.2-.8.2-.8.2-.8.2-.8.2-.8.2-.8.2-.8.2-.8.2-.8.2-.7.2-.8.1-.7.2-.7.1-.7.2-.7.1-.7.1-.7.1-.7.1-.7.1-.7.1-.7.1-.7.1-.7.1-.7.1-.7.1-.7.1-.7.1-.7.1-.7.1-.7.1-.7.1-.7.1-.7.1-.7.1-.7.1-.7.1-.7.1-.7.1-.6.1-.6.1-.6.1-.6.1-.6.1-.6.1-.6.1-.6.1-.6.1-.6.1-.6.1-.6V1.2h0V3l.1.1v.6l.1.2.1.2.1.2.1.2.1.2.1.2.1.2.1.2.1.2.1.2.1.2.1.2.1.2.1.3.1.3.1.3.1.3.1.3.1.3.1.3.1.3.1.3.1.3.1.3.1.3.1.3.1.3.1.3.1.3.1.3.2.3.1.3.2.4.2.3.2.4.2.4.2.4.2.4.2.4.2.4.2.4.2.4.2.4.2.4.2.4.2.4.2.4.2.4.2.4.2.4.2.4.2.4.2.4.2.4.2.5.2.5.3.5.3.5.3.5.3.5.3.5.3.5.3.5.3.5.3.5.3.5.3.5.3.5.3.5.3.5.3.5.3.5.3.5.3.5.3.5.3.5.3.5.3.5.3.5.3.5.3.5.4.5.3.6.4.6.4.5.4.6.4.6.4.6.4.6.4.6.4.6.4.6.4.6.4.6.4.6.4.6.4.6.4.6.4.6.4.6.4.6.4.6.4.6.4.6.4.6.4.6.4.6.5.6.5.6.5.6.5.6.5.6.5.6.5.6.5.6.5.6.5.6.5.6.5.6.5.6.5.6.5.6.5.6.5.6.5.6.5.6.5.6.5.6.5.6.5.6.5.6.5.6.5.6.6.6.5.6.6.6.6.6.6.6.6.6.6.6.6.6.6.6.6.6.6.6.6.6.6.6.6.6.6.6.6.6.6.6.6.6.6.6.6.6.6.6.6.6.6.6.6.6.6.6.6.6.6.6.6.6.6.6.6.6.7.6.6.6.7.6.7.6.7.6.7.6.7.6.7.6.7.6.7.6.7.6.7.6.7.6.7.6.7.6.7.6.7.6.7.6.7.6.7.6.7.6.7.6.7.6.7.6.7.6.7.6.7.5.7.5.7.6.7.5.7.6.7.5.7.5.7.5.7.5.7.5.7.5.7.5.7.5.7.5.7.5.7.5.7.5.7.5.7.5.7.5.7.5.7.5.7.5.7.5.7.5.7.5.7.5.7.5.7.5.7.5.7.5.7.5.7.5.7.5.7.5.7.5.7.4.7.5.7.4.7.4.7.4.7.4.7.4.7.4.7.4.7.4.7.4.7.4.7.4.7.4.7.4.7.4.7.4.7.4.7.4.7.4.7.4.7.4.7.4.7.4.7.4.7.4.7.4.7.4.7.4.7.4.7.4.7.4.7.3.7.3.7.3.7.3.7.3.7.3.7.3.7.3.7.3.7.3.7.3.7.3.7.3.7.3.7.3.7.3.7.3.7.3.7.3.7.3.7.3.7.3.6.3.7.3.6.3.7.3.6.3.6.3.6.2.6.2.6.2.6.2.6.2.6.2.6.2.6.2.6.2.6.2.6.2.6.2.6.2.6.2.6.2.6.2.6.2.6.2.6.2.6.2.5.2.6.2.6.2.5.2.5.2.5.2.5.2.5.1.5.2.5.1.5.1.5.1.5.1.5.1.5.1.5.1.5.1.5.1.5.1.5.1.5.1.5.1.4.1.5.1.5.1.4.1.4.1.4.1.4.1.4.1.4.1.4.1.4.1.4.1.4.1.4.1.4.1.4.1.4.1.4.1.4.1.3.1.3.1.3.1.3.1.3.1h.3l.3.1H289v.2h-8l-.3.1h-.3l-.3.1h-.3l-.3.1-.3.1-.3.1-.4.1-.4.1-.4.1-.4.1-.4.1-.4.1-.4.1-.4.1-.4.1-.4.1-.4.1-.4.1-.4.1-.4.1-.4.1-.4.1-.4.1-.4.1-.5.1-.4.1-.5.1-.5.1-.5.1-.5.1-.5.1-.5.1-.5.1-.5.1-.5.1-.5.1-.5.1-.5.1-.5.1-.5.1-.5.2-.5.2-.5.2-.5.2-.5.2-.5.2-.5.2-.6.2-.6.2-.6.2-.6.2-.6.2-.6.2-.6.2-.6.2-.6.2-.6.2-.6.2-.6.2-.6.2-.6.2-.6.2-.6.2-.6.2-.6.2-.6.2-.6.2-.6.2-.6.3-.6.3-.6.3-.6.3-.7.3-.7.3-.7.3-.7.3-.7.3-.7.3-.7.3-.7.3-.7.3-.7.3-.7.3-.7.3-.7.3-.7.3-.7.3-.7.3-.7.3-.7.3-.7.3-.7.3-.7.3-.7.3-.7.3-.7.3-.7.4-.7.4-.7.4-.7.4-.7.4-.7.4-.7.4-.7.4-.7.4-.7.4-.7.4-.7.4-.7.4-.7.4-.7.4-.7.4-.7.4-.7.4-.7.4-.7.4-.7.4-.7.4-.7.4-.7.4-.7.4-.7.4-.7.4-.7.4-.7.4-.7.5-.7.5-.7.4-.7.5-.7.5-.7.5-.7.5-.7.5-.7.5-.7.5-.7.5-.7.5-.7.5-.7.5-.7.5-.7.5-.7.5-.7.5-.7.5-.7.5-.7.5-.7.5-.7.5-.7.5-.7.5-.7.5-.7.5-.7.5-.7.5-.7.5-.7.5-.7.5-.7.6-.7.5-.7.5-.7.5-.7.6-.7.6-.7.5-.7.6-.7.6-.7.6-.7.6-.7.6-.7.6-.7.6-.7.6-.7.6-.7.6-.7.6-.7.6-.7.6-.7.6-.7.6-.7.6-.7.6-.7.6-.7.6-1.8.6-.7.6-.7.6-.6.6-.7.6-.7.6-.6.6-.6.6-.6.6-.6.6-.6.6-.6.6-.6.6-.6.6-.6.6-.6.6-.6.6-.6.6-.6.6-.6.6-.6.6-.6.6-.6.6-.6.6-.6.6-.6.6-.6.6-.6.6-.6.6-.6.6-.6.6-.6.6-.6.6-.6.6-.6.6-.5.6-.5.6-.6.6-.5.6-.5.6-.5.6-.5.6-.5.6-.5.6-.5.6-.5.6-.5.6-.5.6-.5.6-.5.6-.5.6-.5.6-.5.6-.5.6-.5.6-.5.6-.5.6-.5.6-.5.6-.5.6-.5.6-.5.6-.4.6-.4.6-.5.6-.4.6-.4.6-.4.6-.4.6-.7,1.2-.4.6-.4.6-.4.6-.4.6-.4.6-.4.6-.4.6-.4.6-.4.6-.4.6-.4.6-.4.6-.4.5-.4.6-.4.6-.4.5-.3.6-.4.5-.3.5-.3.5-.3.5-.3.5-.3.5-.3.5-.3.5-.3.5-.3.5-.3.5-.3.5-.3.5-.3.5-.3.5-.3.5-.3.5-.3.5-.3.5-.3.5-.3.5-.3.5-.3.5-.3.5-.3.5-.2.5-.2.4-.2.5-.2.4-.2.5-.2.4-.2.4-.2.4-.2.4-.2.4-.2.4-.2.4-.2.4-.2.4-.2.4-.2.4-.2.4-.2.4-.2.4-.2.4-.2.4-.2.4-.2.4-.2.4-.2.3-.2.4-.1.4-.1.3-.1.3-.1.3-.1.3-.1.3-.1.3-.1.3-.1.3-.1.3-.1.3-.1.3-.1.3-.1.3-.1.3-.1.3-.1.3-.1.3-.1.3-.1.2-.1.2-.1.2-.1.2-.1.2-.1.2-.1.2-.1.2-.1.2-.1.2-.1.2-.1.2v.2l-.1.2v2h0V265.8l-.1-.6V264l-.1-.6v-.6l-.1-.6-.1-.6-.1-.6-.1-.6-.1-.6-.1-.6-.1-.6-.1-.6-.1-.6-.1-.6-.1-.7-.1-.6-.1-.7-.1-.7-.1-.7-.1-.7-.1-.7-.1-.7-.1-.7-.1-.7-.1-.7-.1-.7-.1-.7-.1-.7-.1-.7-.1-.7-.1-.7-.1-.7-.1-.7-.1-.7-.1-.7-.1-.7-.1-.7-.1-.7-.1-.7-.2-.7-.2-.7-.2-.7-.2-.8-.2-.8-.2-.8-.2-.8-.2-.8-.2-.8-.2-.8-.2-.8-.2-.8-.2-.8-.2-.8-.2-.8-.2-.8-.2-.8-.2-.8-.2-.8-.2-.8-.2-.8-.2-.8-.2-.8-.2-.8-.2-.8-.2-.8-.2-.8-.2-.8-.2-.8-.3-.8-.2-.8-.3-.8-.3-.8-.3-.8-.3-.8-.3-.8-.3-.8-.3-.8-.3-.8-.3-.8-.3-.8-.3-.8-.3-.8-.3-.8-.3-.8-.3-.8-.3-.8-.3-.8-.3-.8-.3-.8-.3-.8-.3-.8-.3-.8-.3-.8-.3-.8-.3-.8-.3-.8-.3-.8-.3-.8-.3-.8-.3-.8-.3-.8-.3-.8-.3-.8-.3-.8-.4-.8-.4-.8-.4-.8-.4-.8-.4-.8-.4-.8-.4-.8-.4-.8-.4-.8-.4-.8-.4-.8-.4-.8-.4-.8-.4-.8-.4-.8-.4-.8-.4-.8-.4-.8-.4-.8.5-1.3-.4-.8-.4-.8-.4-.8-.4-.8-.4-.8-.4-.8-.4-.8-.4-.8-.4-.8-.4-.8-.4-.8-.4-.8-.4-.8-.4-.8-.4-.8-.4-.8-.4-.8-.4-.8-.4-.8-.4-.8-.5-.8-.4-.8-.5-.8-.5-.8-.5-.8-.5-.7-.5-.8-.5-.7-.5-.7-.5-.7-.5-.7-.5-.7-.5-.7-.5-.7-.5-.7-.5-.7-.5-.7-.5-.7-.5-.7-.5-.7-.5-.7-.5-.7-.5-.7-.5-.7-.5-.7-.5-.7-.5-.7-.5-.7-.5-.7-.5-.7-.5-.7-.5-.7-.5-.7-.5-.6-.5-.6-.5-.6-.5-.7-.5-.6-.5-.6-.5-.6-.5-.6-.5-.6-.5-.6-.5-.6-.5-.6-.5-.6-.5-.6-.5-.6-.5-.6-.5-.6-.5-.6-.5-.6-.5-.6-.5-.6-.5-.6-.5-.6-.5-.6-.5-.6-.5-.5-.5-.6-.5-.5-.5-.5-.5-.5-.5-.5-.5-.5-.5-.5-.5-.5-.5-.5-.5-.5-.5-.5-.5-.5-.5-.5-.5-.5-.5-.5-.5-.5-.5-.5-.5-.5-.5-.5-.5-.5-.5-.5-.5-.5-.5-.4-.4-.5-.5-.4-.4-.4-.4-.4-.4-.4-.4-.4-.4-.4-.4-.4-.4-.4-.4-.4,1-.1-.4-.4-.4-.4-.4-.4-.4-.4-.4-.4-.4-.4-.4-.4-.4-.4-.4-.4-.4-.4-.4-.3-.4-.3-.4-.3-.4-.3-.4-.3-.4-.3-.4-.3-.4-.3-.4-.3-.4-.3-.4-.3-.4-.3-.4-.3-.4-.3-.3-.3-.4-.3-.3-.3-.3-.3-.3-.3-.3-.3-.3-.3-.3-.3-.3-.3-.3-.2-.3.1-.3-.2-.3-.2-.3-.2-.3-.2-.3-.2L11,88l-.3-.2-.3-.2-.3-.2-.3-.2L9.5,87l-.3-.2-.3-.2-.3-.2-.3-.2L8.1,86l-.2-.2-.2-.2-.2-.1-.2-.1-.2-.1-.2-.1-.2-.1L6.5,85l-.2-.1-.2-.1-.2-.1-.2-.1-.2-.1-.2-.1-.2-.1-.2-.1-.2-.1L4.5,84l-.1-.1-.2-.1-.1-.1L4,83.6l-.1-.1-.1-.1v-.2l-.1-.1L3.6,83l-.1-.1H3.4l-.1-.1h.2l.1.1h.1l.1.1h.1l.1.1.1.1.1.1.2.1.2.1.2.1.2.1.2.1.2.1.2.1.2.1.2.1.2.1.2.1.2.1.2.1.2.1.2.1.3.1.3.1.3.1.3.1.3.1.3.1.3.1.3.1.3.1.3.1.3.1.3.1.3.1.3.1.3.1.3.1.3.1.3.1.4.1.4.1.4.1.4.1.4.1.4.1.4.1.4.1.4.1.4.1.4.1.4.1.4.1.4.1.4.1.4.1.5.1.5.1.5.1.5.1.5.1.5.1.5.1.5.1.5.1.5.1.5.1.5.1.5.1.5.1.5.1.5.1.5.1.5.1.5.1.6.1.6.1.6.1.6.1.6.1.6.1.6.1.6.1.6.1.6.1.6.1.6.1.6.1.6.1.6.1.6.1.6.1.6.1.7.1.7.1.6.1.7.1.7.1.7.1h.7l.7.1.7.1h1.4l.7.1h.7l.7.1H78.4l.8-.1.8-.1h.8l.8-.1.8-.1.8-.1.8-.1.9-.1.8-.1.8-.1.8-.1.9-.1.9-.1.9-.1.8-.1.9-.1.9-.1.9-.1.9-.1.9-.1.9-.1.9-.1.9-.1.9-.1.9-.1.9-.1.9-.1.9-.1.9-.1.9-.1.9-.1.9-.1.9-.1.9-.1.9-.1.9-.1.9-.1.9-.2.9-.2.9-.2.9-.2.9-.2.9-.2.9-.2.9-.2.9-.2.9-.2.9-.2.9-.2.9-.2.9-.2.9-.2.9-.2.9-.2.9-.2.9-.2.9-.2.9-.2.9-.2.9-.2.9-.2.9-.2.9-.2.9-.2.9-.2.9-.2.9-.2.9-.2.9-.3.9-.2.9-.2.9-.3.8-.3.8-.3.9-.3.8-.3.8-.3.8-.3.8-.3.8-.3.8-.3.8-.3.8-.3.8-.3.8-.3.8-.3.8-.3.8-.3.8-.3.8-.3.8-.3.8-.3.8-.3.8-.3.8-.3.8-.3.8-.3.8-.3.8-.3.8-.3.8-.3.8-.3.8-.3.8-.3.8-.3.8-.3.8-.3.8-.3.8-.3.8-.3.8-.3.8-.3.8-.3.7-.3.7-.3.7-.3.7-.3.7-.3.7-.3.7-.3.7-.3.7-.3.7-.3.7-.3.7-.3.7-.3.7-.3.7-.3.7-.3.7-.3.7-.3.7-.3.7-.3.7-.4.7-.3.7-.3.6-.3.7-.3.6-.3.6-.3.6-.3.6-.3.6-.3.6-.3.6-.3.6-.3.6-.4.6-.3.6-.3.6-.4.6-.3.6-.3.6-.3.6-.3.6-.3.6-.3.6-.3.6-.3.5-.3.5-.3.5-.3.5-.3.5-.3.5-.3.5-.3.5-.3.5-.3.5-.3.5-.3.5-.3.5-.3.5-.3.5-.3.5-.3.5-.3.5-.3.5-.3.5-.3.4-.3.4-.3.4-.3.4-.3.4-.3.4-.3.4-.3.4-.3.4-.3.4-.3.4-.3.4-.3.4-.3.4-.3.4-.3.4-.3.4-.3.4-.3.4-.3.3-.3.3-.3.3-.3.3-.3.3-.3.3-.3.3-.3.3-.3.3-.3.3-.3.3-.3.3-.3.3-.2.3-.3.3-.2.3-.2.3-.2.3-.2.3-.2.2-.2.2-.2.2-.2.2-.2.2-.2.2-.2.2-.2.2-.2.2-.2.2-.2.2-.2.2-.2.2-.2.2-.2.2-.2.2-.2.2-.2.2-.2.1-.2.2-.1.1-.1.1-.1.1-.1.1-.1.1-.1.1-.1.1-.1.1-.1.1-.1.1-.1.1-.1.1-.1.1-.1.1-.1.1-.1.1-.1.1-.1.1-.1.1-.1V33h0v.6l-.1.1-.1.1-.1.1-.1.1-.1.1-.1.1-.1.1-.1.1-.1.1-.1.1-.1.1-.1.1-1.5-2.6-.1.2-.1.1-.1.2-.1.2-.1.2-.1.2-.1.2-.1.2-.1.2-.1.2-.1.2-.1.2-.1.2-.1.2-.1.2-.1.2-.2.3-.1.3-.2.3-.1.3-.2.3-.2.3-.2.3-.2.3-.2.3-.2.3-.2.3-.2.3-.2.3-.2.3-.2.3-.2.3-.2.3-.2.3-.2.4-.2.4-.2.4-.2.4-.2.4-.2.4-.2.4-.2.4-.2.4-.2.4-.2.4-.2.4-.2.4-.2.4-.2.4-.2.4-.2.4-.2.4-.2.5-.2.5-.2.5-.2.5-.2.5-.2.5-.2.5-.2.5-.2.5-.2.5-.2.5-.2.5-.2.5-.2.5-.2.5-.2.5-.2.5-.2.6-.2.5-.2.6-.2.6-.2.6-.2.6-.2.6-.2.6-.2.6-.2.6-.2.6-.2.6-.2.6-.2.6-.2.6-.2.6-.2.6-.2.6-.2.6-.2.6-.2.6-.2.6-.2.7-.2.7-.2.7-.2.7-.2.7-.2.7-.2.7-.2.7-.2.7-.2.7-.2.7-.2.7-.2.7-.2.7-.2.7-.2.7-.2.7-.2.7-.2.7-.2.7-.2.7-.2.7-.2.8v.5l-.2.8-.2.8-.2.8-.2.8-.2.8-.2.8-.2.8-.2.8-.2.8-.2.8-.1.8-.2.8-.1.8-.2.8-.2.8-.1.8-.2.8-.1.8-.1.8-.1.8-.1.8-.1.8-.1.8-.1.8-.1.8-.1.8-.1.8-.1.8-.1.8-.1.8-.1.8-.1.8-.1.9-.1.9-.1.8-.1.9-.1.9-.1.9-.1.9-.1.9-.1.9-.1.9-.1.9-.1.9-.1.9-.1.9-.1.9-.1.9-.1.9-.1.9-.1.9-.1.9-.1.9v1.8l-.1.9v31.5l.1.9v.9l.1.9.1.9.1.9.1.9.1.9.1.9.1.9.1.9.1.9.1.9.1.9.1.9.1.9.1.9.1.9.1.9.1.9.1.9.1.9.1.9.1.9.1.9.1.8.1.9.1.8.1.8.1.8.1.8.1.8.1.8.1.8.1.8.1.8.1.8.1.8.1.8.2.8.1.8.1.8.2.8.2.8.2.8.2.8.2.8.2.8.2.8.2.8.2.8.2.8.2.8.2.8.2.8.2.8.2.8.2.7.2.8.2.7.2.7.2.7.2.7.2.7.2.7.2.7.2.7.2.7.2.7.2.7.2.7.2.7.2.7.2.7.2.7.2.7.2.7.2.7.2.6.2.6.2.6.2.7.2.6.2.6.2.6.2.6.2.6.2.6.2.6.2.6.2.6.2.6.2.6.2.6.2.6.2.6.2.6.2.6.2.6.2.6.2.5.2.5.2.5.2.5.2.5.2.5.2.5.2.5.2.5.2.5.2.5.2.5.2.5.2.5.2.5.2.5.2.5.2.5.2.4.2.4.2.4.2.4.2.4.2.4.2.4.2.4.2.4.2.4.2.4.2.4.2.4.2.4.2.4.2.4.2.4.2.4.2.3.2.3.2.3.2.3.2.3.2.3.2.3.2.3.2.3.2.3.2.3.2.3.2.3.1.3.2.3.1.3.2.3.1.3.1.2.1.2.1.2.1.2.1.2.1.2.1.2.1.2.1.2.1.2.1.2.1.2.1.2.1.2.1.2.1.2.1.1.1.1.1.1.1.1.1.1.1.1.1.1.1.1.1.1.1.1.1.1.1.1.1.1.1.1v.1l.1.1v.2h0v.1h0v-.1l-.1-.1v-.1l-.4-1.4-.1-.1-.1-.1-.1-.1-.1-.1-.1-.1-.1-.1-.1-.1-.1-.1-.1-.1-.1-.1-.1-.1-.1-.1-.1-.1-.1-.1-.1-.1-.1-.1-.1-.1-.1-.1-.2-.2-.2-.1-.2-.2-.2-.2-.2-.2-.2-.2-.2-.2-.2-.2-.2-.2-.2-.2-.2-.2-.2-.2-.2-.2-.2-.2-.2-.2-.2-.2-.2-.2-.2-.2-.2-.2-.3-.2-.3-.2-.3-.2-.3-.2-.3-.2-.3-.2-.3-.2-.3-.3-.3-.3-.3-.3-.3-.3-.3-.3-.3-.3-.3-.3-.3-.3-.3-.3-.3-.3-.3-.3-.3-.3-.4-.3-.4-.3-.3-.3-.4-.3-.4-.3-.4-.3-.4-.3-.4-.3-.4-.3-.4-.3-.4-.3-.4-.3-.4-.3-.4-.3-.4-.3-.4-.3-.4-.3-.4-.3-.4-.3-.5-.3-.5-.3-.5-.3-.5-.3-.5-.3-.5-.3-.5-.3-.5-.3-.5-.3-.5-.3-.5-.3-.5-.3-.5-.3-.5-.3-.5-.3-.5-.3-.5-.3-.5-.3-.5-.3-.5-.3-.5-.3-.5-.3-.6-.3-.6-.3-.6-.3-.6-.3-.6-.3-.6-.3-.6-.4-.6-.3-.6-.3-.6-.4-.6-.3-.6-.4-.6-.3-.6-.3-.6-.4-.6-.3-.6-.3-.6-.3-.6-.3-.7-.4-.7-.3-.7-.3-.7-.3-.7-.4-.7-.3-.7-.3-.7-.3-.7-.3-.7-.3-.7-.3-.7-.3-.7-.3-.7-.3-.7-.3-.7-.3-.7-.3-.7-.3-.7-.3-.7-.3-.7-.3-.7-.3-.7-.3-.7-.3-.8-.3-.7-.3-.8-.3-.8-.3-.8-.3-.8-.3-.8-.3-.8-.3-.8-.3-.8-.3-.8-.3-.8-.3-.8-.3-.8-.3-.8-.3-.8-.3-.8-.3-.8-.3-.8-.3-.8-.3-.8-.3-.8-.3-.8-.3-.8-.3-.8-.3-.8-.3-.8-.3-.8-.3-.8-.3-.8-.3-.8-.3-.8-.3-.8-.3-.8-.3-.8-.3-.8-.3-.8-.3-.8-.3-.8-.3-.9-.3-.8-.3-.9-.3-.9-.2-.8-.3-.9-.2-.9-.2-.9-.2-.9-.2-.9-.2-.9-.2-.9-.2-.9-.2-.9-.2-.9-.2-.9-.2-.9-.2-.9-.2-.9-.2-.9-.2-.9-.2-.9-.2-.9-.2-.9-.2-.9-.2-.9-.2-.9-.2-.9-.2-.9-.2-.9-.2-.1-1.6-.9-.2-.9-.2-.9-.2-.9-.2-.9-.2-.9-.2-.9-.1-.9-.1-.9-.2-.9-.1-.9-.1-.9-.1-.9-.1-.9-.1-.9-.1-.9-.1-.9-.1-.9-.1-.9-.1-.9-.1-.9-.1-.9-.1-.9-.1-.9-.1-.9-.1-.9-.1-.9-.1-.9-.1-.9-.1-.9-.1v-.3l-.9-.1-.8-.1-.9-.1-.8-.1-.8-.1-.8-.1-.8-.1-.8-.1-.8-.1-.8-.1-.8-.1H79l-.8-.1H48.1l-.7.1H46l-.7.1h-.7l-.7.1-.7.1-.7.1-.7.1-.7.1-.7.1-.6.1-.7.1-.6.1-.7.1-.6.1-.6.1-.6.1-.6.1-.6.1-.6.1-.6.1-.6.1-.6.1-.6.1-.6.1-.6.1-.6.1-.6.1-.6.1-.5.1-.5.1-.6.1-.5.1-.5.1-.5.1-.5.1-.5.1-.5.1-.5.1-.5.1-.5.1-.5.1-.5.1-.5.1-.5.1-.5.1-.5.1-.5.1-.4.1-.4.1-.4.1-.4.1-.4.1-.4.1-.4.1-.4.1-.4.1-.4.1-.4.1-.4.1-.4.1-.4.1-.4.1-.4.1-.4.1-.3.1-.3.1-.3.1-.3.1-.3.1-.3.1-.3.1-.3.1-.3.1-.3.1-.3.1-.3.1-.3.1-.3.1-.3.1-.3.1-.3.1-.2.1-.2.1-.2.1-.2.1-.2.1-.2.1-.2.1-.2.1-.2.1-.2.1-.2.1-.2.1-.2.1-.2.1-.2.1-.2.1-.1.1H3.8l-.1.1H3.6l-.1.1H3l.1-.1h.1l.1-.1h.2l.1-.1.1-.1.1-.1.1-.1.1-.1.1-.1.1-.1.1-.1.2-.1.2-.1.2-.1.2-.1.2-.1.2-.1.2-.1.2-.1.2-.1.2-.1.2-.1.2-.1.2-.1.2-.1.2-.1.2-.1.2-.1.2-.2.2-.2.2-.2.3-.2.3-.2.3-.2.3-.2.3-.2.3-.2.3-.2.3-.2.3-.2.3-.2.3-.2.3-.2.3-.2.3-.2.3-.2.3-.2.3-.2.3-.2.3-.3.3-.3.3-.3.3-.3.3-.3.3-.3.3-.3.3-.3.4-.3.4-.3.4-.3.4-.3.4-.3.4-.3.4-.3.4-.3.4-.3.4-.3.4-.3.4-.3.4-.3.4-.3.4-.4.4-.3.4-.4.4-.4.4-.4.4-.4.4-.4.4-.4.4-.4.4-.4.4-.4.4-.4.4-.4.4-.4.4-.4.4-.4.4-.4.4-.4.4-.4.5-.4.4-.4.5-.5.4-.4.5-.5.5-.5.5-.5.5-.5.5-.5.5-.5.5-.5.5-.5.5-.5.5-.5.5-.5.5-.5.5-.5.5-.5.5-.5.5-.5.5-.5.5-.5.5-.5.5-.5.5-.5.5-.6.5-.6.5-.6.5-.6.5-.6.5-.6.5-.6.5-.6.5-.6.5-.6.5-.6.5-.6.5-.6.5-.6.5-.6.5-.6.5-.6.5-.6.5-.6.5-.6.5-.6.5-.6.5-.6.5-.6.5-.6.5-.7.5-.7.5-.7.5-.7.5-.7.5-.7.5-.7.5-.7.5-.7.5-.7.5-.7.5-.7.5-.7.5-.7.5-.7.5-.7.5-.7.5-.7.5-.7.5-.7.5-.7.5-.7.5-.7.5-.7.5-.7.5-.7.5-.7.5-.8.5-.7.5-.8.4-.8.5-.8.5-.8.5-.8.4-.8.5-.8.4-.8.4-.8.4-.8.4-.8.4-.8.4-.8.4-.8.4-.8.4-.8.4-.8.4-.8.4-.8.4-.8.4-.8.4-.8.4-.8.4-.8.4-.8.4-.8.4-.8.4-.8.4-.8.4-.8.4-.8.4-.8.4-.8.4-.8.4-.8.4-.8.4-.8.4-.8.4-.8.4-.8.4-.8.4-.8.4-.8.3-.8.4-.8.3-.8.4-.8.3-.8.3-.8.3-.8.3-.8.3-.8.3-.8.3-.8.3-.8.3-.8.3-.8.3-.8.3-.8.3-.8.3-.8.3-.8.3-.8.3-.8.3-.8.3-.8.3-.8.3-.8.3-.8.3-.8.3-.8.3-.8.3-.8.3-.8.3-.8.3-.8.3-.8.3-.8.3-.8.3-.8.2-.8.2-.8.2-.8.2-.8.2-.8.2-.8.2-.8.2-.8.2-.8.2-.8.2-.8.2-.8.2-.8.2-.8.2-.8.2-.8.2-.8.2-.8.2-.8.2-.8.2-.8.2-.8.2-.8.2-.8.2-.8.2-.8.2-.8.2-.7.1-.8.2-.7.1-.7.2-.7.1-.7.1-.7.1-.7.1-.7.1-.7.1-.7.1-.7.1-.7.1-.7.1-.7.1-.7.1-.7.1-.7.1-.7.1-.7.1-.7.1-.7.1-.7.1-.7.1-.7.1-.7.1-.7.1-.6.1-.6.1-.6.1-.6.1-.6.1-.6.1-.6.1-.6.1-.6.1-.6v-.6l.1-.6.1-.6V1.1h0V2.8l.1.2v.4l.1.2v.2l.1.2.1.2.1.2.1.2.1.2.1.2.1.2.1.2.1.2.1.2.1.2.1.2.1.3.1.3.1.3.1.3.1.3.1.3.1.3.1.3.1.3.1.3.1.3.1.3.1.3.1.3.1.3.1.3.1.3.1.3.2.4.2.4.2.4.2.4.2.4.2.4.2.4.2.4.2.4.2.4.2.4.2.4.2.4.2.4.2.4.2.4.2.4.2.4.2.4.2.4.2.4.2.4.2.4.2.4.2.4.3.5.2.5.3.5.3.5.3.5.3.5.3.5.3.5.3.5.3.5.3.5.3.5.3.5.3.5.3.5.3.5.3.5.3.5.3.5.3.5.3.5.3.5.3.5.3.5.3.5.3.5.3.6.3.6.4.6.4.6.4.5.4.6.4.6.4.6.4.6.4.6.4.6.4.6.4.6.4.6.4.6.4.6.4.6.4.6.4.6.4.6.4.6.4.6.4.6.4.6.5.6.5.6.4.6.5.6.5.6.5.6.5.6.5.6.5.6.5.6.5.6.5.6.5.6.5.6.5.6.5.6.5.6.5.6.5.6.5.6.5.6.5.6.5.6.5.6.5.6.5.6.6.6.5.6.6.6.6.6.6.6.6.6.6.6.6.6.6.6.6.6.6.6.6.6.6.6.6.6.6.6.6.6.6.6.6.6.6.6.6.6.6.6.6.6.6.6.6.6.6.6.6.6.6.6.6.6.6.6.6.6.6.6.7.6.6.6.7.6.7.6.7.6.7.6.7.6.7.6.7.6.7.6.7.6.7.6.7.6.7.6.7.6.7.6.7.6.7.6.7.6.7.6.7.6.7.6.7.6.7.6.7.6.7.6.7.6.7.5.7.5.7.6.7.5.7.5.7.5.7.5.7.5.7.5.7.5.7.5.7.5.7.5.7.5.7.5.7.5.7.5.7.5.7.5.7.5.7.5.7.5.7.5.7.5.7.5.7.5.7.5.7.5.7.5.7.5.7.5.7.5.7.5.7.5.7.5.7.4.7.5.7.4.7.4.7.4.7.4.7.4.7.4.7.4.7.4.7.4.7.4.7.4.7.4.7.4.7.4.7.4.7.4.7.4.7.4.7.4.7.4.7.4.7.4.7.4.7.4.7.4.7.4.7.4.7.4.7.4.7.3.7.4.7.3.7.3.7.3.7.3.7.3.7.3.7.3.7.3.7.3.7.3.7.3.7.3.7.3.7.3.7.3.7.3.7.3.7.3.7.3.6.3.7.3.6.3.6.3.7.3.6.3.6.3.6.2.6.3.6.2.6.2.6.2.6.2.6.2.6.2.6.2.6.2.6.2.6.2.6.2.6.2.6.2.6.2.6.2.6.2.6.2.6.2.6.2.5.2.6.2.5.2.5.2.5.2.5.2.5.1.5.1.5.1.5.1.5.1.5.1.5.1.5.1.5.1.5.1.5.1.5.1.5.1.5.1.5.1.5.1.5.1.5.1.4.1.4.1.4.1.4.1.4.1.4.1.4.1.4.1.4.1.4.1.4.1.4.1.4.1.4.1.4.1.4.1.4.1.4.1.3.1.3.1.3.1.3.1h.3l.3.1H289v.5h-7.9l-.3.1h-.3l-.3.1-.3.1-.3.1h-.4l-.3.1-.3.1-.4.1-.4.1-.4.1-.4.1-.4.1-.4.1-.4.1-.4.1-.4.1-.4.1-.4.1-.4.1-.4.1-.4.1-.4.1-.4.1-.5.1-.5.1-.5.1-.5.1-.5.1-.5.1-.5.1-.5.1-.5.1-.5.1-.5.1-.5.1-.5.1-.5.1-.5.1-.5.1-.5.1-.5.1-.5.2-.5.2-.5.2-.5.2-.5.2-.6.2-.6.2-.6.2-.6.2-.6.2-.6.2-.6.2-.6.2-.6.2-.6.2-.6.2-.6.2-.6.2-.6.2-.6.2-.6.2-.6.2-.6.2-.6.2-.6.2-.6.3-.6.2-.6.3-.6.3-.6.3-.7.3-.6.3-.7.3-.7.3-.7.3-.7.3-.7.3-.7.3-.7.3-.7.3-.7.3-.7.3-.7.3-.7.3-.7.3-.7.3-.7.3-.7.3-.7.3-.7.3-.7.3-.7.3-.7.3-.7.3-.7.4-.7.3-.7.4-.7.4-.7.4-.7.4-.7.4-.7.4-.7.4-.7.4-.7.4-.7.4-.7.4-.7.4-.7.4-.7.4-.7.4-.7.4-.7.4-.7.4-.7.4-.7.4-.7.4-.7.4-.7.4-.7.4-.7.4-.7.4-.7.5-.7.4-.7.5-.7.5-.7.5-.7.5-.7.5-.7.5-.7.5-.7.5-.7.5-.7.5-.7.5-.7.5-.7.5-.7.5-.7.5-.7.5-.7.5-.7.5-.7.5-.7.5-.7.5-.7.5-1.8.6-.7.5-.7.5-.7.5-.7.5-.7.5-.7.5-.7.5-.7.5-.7.5-.7.5-.7.5-.7.5-.7.5-.7.6-.7.6-.7.5-.7.6-.7.6-.7.6-.7.6-.7.6-.7.6-.7.6-.7.6-.7.6-.7.6-.7.6-.7.6-.7.6-.7.6-.7.6-.7.6-.7.6-.7.6-.7.6-.7.6-.7.6-.7.6-.7.6-.6.6-.7.6-.6.6-.6.6-.6.6-.6.6-.6.6-.6.6-.6.6-.6.6-.6.6-.6.6-.6.6-.6.6-.6.6-.6.6-.6.6-.6.6-.6.6-.6.6-.6.6-.6.6-.6.6-.6.6-.6.6-.6.6-.6.6-.6.6-.6.6-.6.6-.6.6-.6.6-.5.6-.5.6-.5.6-.5.6-.5.6-.5.6-.5.6-.5.6-.5.6-.5.6-.5.6-.5.6-.5.6-.5.6-.5.6-.5.6-.5.6-.5.6-.5.6-.5.6-.5.6-.5.6-.5.6-.5.6-.5.6-.5.6-.5.6-.4.6-.5.6-.4.6-.4.6-.4.6-.4.6-.4.6-.4.6-.4.6-.4.6-.4.6-.4,1-.4.6-.4.6-.4.6-.4.6-.4.6-.4.6-.4.6-.4.5-.4.6-.4.5-.4.6-.4.5-.3.5-.3.5-.3.5-.3.5-.3.5-.3.5-.3.5-.3.5-.3.5-.3.5-.3.5-.3.5-.3.5-.3.6-.3.5-.3.5-.3.5-.3.5-.3.5-.3.5-.3.5-.3.5-.3.5-.3.5-.3.5-.3.5-.2.4-.2.5-.2.4-.2.4-.2.4-.2.4-.2.4-.2.4-.2.4-.2.4-.2.4-.2.4-.2.4-.2.4-.2.4-.2.4-.2.4-.2.4-.2.4-.2.4-.2.4-.2.4-.2.4-.1.3-.2.4-.2.3-.1.3-.1.3-.1.3-.1.3-.1.3-.1.3-.1.3-.1.3-.1.3-.1.3-.1.3-.1.3-.1.3-.1.3-.1.3-.1.3-.1.3-.1.2-.1.3-.1.2-.1.2-.1.2-.1.2-.1.2-.1.2-.1.2-.1.2-.1.2-.1.2-.1.2-.1.2v2.2h0v.1h0V265.7l-.1-.6v-2.4l-.1-.6-.1-.6-.1-.6-.1-.6-.1-.6-.1-.6-.1-.6-.1-.6-.1-.6-.1-.6-.1-.6-.1-.7-.1-.6-.1-.7-.1-.7-.1-.7-.1-.7-.1-.7-.1-.7-.1-.7-.1-.7-.1-.7-.1-.7-.1-.7-.1-.7-.1-.7-.1-.7-.1-.7-.1-.7-.1-.7-.1-.7-.1-.7-.1-.7-.2-.7-.2-.7-.1-.7-.2-.7-.2-.7-.2-.8-.2-.8-.2-.8-.2-.8-.2-.8-.2-.8-.2-.8-.2-.8-.2-.8-.2-.8-.2-.8-.2-.8-.2-.8-.2-.8-.2-.8-.2-.8-.2-.8-.2-.8-.2-.8-.2-.8-.2-.8-.2-.8.5-.5-.2-.8-.2-.8-.2-.8L96,216l-.3-.8-.3-.8-.3-.8-.3-.8-.3-.8-.3-.8-.3-.8-.3-.8-.3-.8L93,208l-.3-.8-.3-.8-.3-.8-.3-.8-.3-.8-.3-.8-.3-.8-.3-.8-.3-.8L90,200l-.3-.8-.3-.8-.3-.8-.3-.8-.3-.8-.3-.8-.3-.8-.3-.8-.3-.8L87,192l-.3-.8-.3-.8-.3-.8-.3-.8-.3-.8-.4-.8-.4-.8-.4-.8-.4-.8-.4-.8-.4-.8-.4-.8-.4-.8-.4-.8-.4-.8-.4-.8-.4-.8-.4-.8-.4-.8-.1-1.6-.4-.8-.4-.8-.4-.8-.4-.8-.4-.8-.4-.8-.4-.8-.4-.8-.4-.8-.4-.8-.4-.8-.4-.8-.4-.8-.4-.8-.4-.8-.4-.8-.4-.8-.4-.8-.4-.8-.4-.8-.4-.8-.4-.8-.4-.8-.4-.8-.5-.8-.4-.8-.5-.8-.5-.8-.5-.8-.4-.8-.5-.8-.5-.7-.5-.7-.5-.7-.5-.7-.5-.7-.5-.7-.5-.7-.5-.7-.5-.7-.5-.7-.5-.7-.5-.7-.5-.7-.5-.7-.5-.7-.5-.7-.5-.7-.5-.7-.5-.7-.5-.7-.5-.7-.5-.7-.5-.7-.5-.7-.5-.7-.5-.7-.5-.7-.5-.7-.5-.7-.5-.6-.5-.6-.5-.6-.5-.6-.5-.6-.5-.6-.5-.6-.5-.6-.5-.6-.5-.6-.5-.6-.5-.6-.5-.6-.5-.6-.5-.6-.5-.6-.5-.6-.5-.6-.5-.6-.5-.6-.5-.6-.5-.6-.5-.6-.5-.5-.5-.6-.5-.5-.5-.6-.5-.5-.5-.5-.5-.5-.5-.5-.5-.5-.5-.5-.5-.5-.5-.5-.5-.5-.5-.5-.5-.5-.5-.5-.5-.5-.5-.5-.5-.5-.5-.5-.5-.5-.5-.5-.5-.5-.4-.4-.5-.5-.4-.4-.4-.4-.4-.4-.4-.4-.4-.4-.4-.4-.4-.4-.4-.4-.4-.4.9.1-.4-.4-.4-.4-.4-.4-.4-.4-.4-.4-.4-.4-.4-.4-.4-.4-.4-.4-.4-.4-.4-.3-.4-.3-.4-.3-.4-.3-.4-.3-.4-.3-.4-.3-.4-.3-.4-.3-.4-.3-.4-.3-.4-.3-.4-.3-.3-.3-.4-.3-.3-.3-.4-.3-.3-.3-.3-.3-.3-.3-.3-.3-.3-.3-.3-.2-.3-.2-.3-.2-.3-.2-.3-.2-.3-.2-.3-.2-.3-.2-.3-.2-.3-.2-.3-.2-.3-.2L9.8,87l-.3-.2-.3-.2-.3-.2-.3-.2L8.3,86l-.2-.2-.2-.2-.2-.2-.2-.1-.2-.1-.2-.1L6.9,85l-.2-.1-.2-.1-.2-.1-.2-.1-.2-.1-.2-.1-.2-.1-.2-.1-.2-.1L4.9,84l-.2-.1-.1-.1-.2-.1-.2-.1-.1-.1L4,83.4l-.1-.1-.1-.1h0l-.1-.1L3.6,83l-.1-.1H3.4l-.1-.1h.5l.1.1h.2l.1.1.1.1.2.1.1.1.2.1.2.1.2.1.2.1.2.1.2.1L6,84l.2.1.2.1.2.1.2.1.2.1.2.1.2.1.3.1.3.1.3.1.3.1.3.1.3.1.3.1.3.1.3.1.3.1.3.1.3.1.3.1.3.1.3.1.3.1.4.1.3.1.4.1.4.1.4.1.4.1.4.1.4.1.4.1.4.1.4.1.4.1.4.1.4.1.4.1.4.1.4.1.5.1.5.1.5.1.5.1.5.1.5.1.5.1.5.1.5.1.5.1.5.1.5.1.5.1.5.1.5.1.5.1.5.1.5.1.5.1.6.1.6.1.6.1.6.1.6.1.6.1.6.1.6.1.6.1.6.1.6.1.6.1.6.1.6.1.6.1.6.1.6.1.6.1.6.1.7.1.7.1.7.1.7.1.7.1.7.1h.7l.7.1.7.1h.7l.7.1H75.9l.8-.1h.8l.8-.1h.8l.8-.1.8-.1.8-.1.8-.1.8-.1.8-.1.9-.1.8-.1.8-.1.9-.1.8-.1.9-.1.9-.1.8-.1.9-.1.9-.1.9-.1.9-.1.9-.1.9-.1.9-.1.9-.1.9-.1.9-.1.9-.1.9-.1.9-.1.9-.1.9-.1.9-.1.9-.1.9-.1.9-.1.9-.1.9-.2.9-.1.9-.2.9-.2.9-.2.9-.2.9-.2.9-.2.9-.2.9-.2.9-.2.9-.2.9-.2.9-.2.9-.2.9-.2.9-.2.9-.2.9-.2.9-.2.9-.2.9-.2.9-.2.9-.2.9-.2.9-.2.9-.2.9-.2.9-.2.9-.2.9-.2.9-.2.9-.2.9-.2.8-.3.9-.2.9-.3.8-.3.8-.3.9-.3.8-.3.8-.3.8-.3.9-.3.8-.3.8-.3.8-.3.8-.3.8-.3.8-.3.8-.3.8-.3.8-.3.8-.3.8-.3.8-.3.8-.3.8-.3.8-.3.8-.3.8-.3.8-.3.8-.3.8-.3.8-.3.8-.3.8-.3.8-.3.8-.3.8-.3.8-.3.8-.3.8-.3.8-.3.8-.3.8-.3.8-.3.7-.3.7-.3.7-.3.7-.3.7-.3.7-.3.7-.3.7-.3.7-.3.7-.3.7-.3.7-.3.7-.3.7-.3.7-.3.7-.3.7-.3.7-.3.7-.4.7-.3.7-.3.7-.3.7-.3.7-.4.7-.3.6-.3.7-.4.6-.3.6-.3.6-.4.6-.3.6-.4.6-.3.6-.3.6-.3.6-.3.6-.4.6-.3.6-.3.6-.4.6-.3.6-.3.6-.3.6-.3.6-.3.5-.3.5-.3.5-.3.5-.3.5-.3.5-.3.5-.3.5-.3.5-.3.5-.3.5-.3.5-.3.5-.3.5-.3.5-.3.5-.3.5-.3.5-.3.5-.3.5-.3.5-.3.4-.3.5-.3.4-.3.4-.3.4-.3.4-.3.4-.3.4-.3.4-.3.4-.3.4-.3.4-.3.4-.3.4-.3.4-.3.4-.3.4-.3.4-.3.3-.3.3-.3.3-.3.3-.3.3-.3.3-.3.3-.3.3-.3.3-.3.3-.3.3-.3.3-.3.3-.3.3-.2.3-.2.3-.2.3-.2.3-.2.3-.2.3-.2.2-.2.2-.2.2-.2.2-.2.2-.2.2-.2.2-.2.2-.2.2-.2.2-.2.2-.2.2-.2.2-.2.2-.2.2-.2.2-.2.2-.2.2-.2.2-.2.2-.1.1-.2.1-.1.1-.1.1-.1.1-.1.1-.1.1-.1.1-.1.1-.1.1-.1.1-.1.1-.1.1-.1.1-.1.1-.1.1-.1.1-.1.1-.1.1-.1v-.1l.1-.1V32h0v.5l-.1.1-.1.1-.1.1-.1.1-.1.1-.1.1-.1.1-.1.1-.1.1-.1.1-.1.1-.1.1-.1.1-1.4-1.6-.1.2-.1.2-.1.2-.1.2-.1.2-.1.2-.1.2-.1.2-.1.2-.1.2-.1.2-.1.2-.1.2-.1.2-.1.2-.2.2-.1.2-.2.3-.2.3-.1.3-.2.3-.2.3-.2.3-.2.3-.2.3-.2.3-.2.3-.2.3-.2.3-.2.3-.2.3-.2.3-.2.3-.2.3-.2.4-.2.4-.2.4-.2.4-.2.4-.2.4-.2.4-.2.4-.2.4-.2.4-.2.4-.2.4-.2.4-.2.4-.2.4-.2.4-.2.4-.2.4-.2.5-.2.5-.2.5-.2.5-.2.5-.2.5-.2.5-.2.5-.2.5-.2.5-.2.5-.2.5-.2.5-.2.5-.2.5-.2.5-.2.5-.2.5-.2.5-.2.6-.2.6-.2.6-.2.6-.2.6-.2.6-.2.6-.2.6-.2.6-.2.6-.2.6-.2.6-.2.6-.2.6-.2.6-.2.6-.2.6-.2.6-.2.6-.2.6-.2.7-.2.7-.2.7-.2.7-.2.7-.2.7-.2.7-.2.7-.2.7-.2.7-.2.7-.2.7-.1.4-.2.7-.2.7-.2.7-.2.7-.2.7-.2.7-.2.7-.2.7-.2.7-.2.8v.9l-.2.8-.2.8-.2.8-.2.8-.2.8-.2.8-.2.8-.2.8-.2.8-.2.8-.1.8-.2.8-.1.8-.2.8-.1.8-.1.8-.2.8-.1.8.1.6-.1.8-.1.8-.1.8-.1.8-.1.8-.1.8-.1.8-.1.8-.1.8-.1.8-.1.9-.1.8-.1.8-.1.9-.1.9-.1.9-.1.9-.1.9-.1.9-.1.9-.1.9-.1.9-.1.9-.1.9-.1.9-.1.9-.1.9-.1.9-.1.9-.1.9-.1.9-.1.9-.1.9v1.8l-.1.9v32.4l.1.9.1.9v.9l.1.9.1.9.1.9.1.9.1.9.1.9.1.9.1.9.1.9.1.9.1.9.1.9.1.9.1.9.1.9.1.9.1.9.1.9.1.8.1.9.1.9.1.8.1.9.1.8.1.8.1.8.1.8.1.8.1.8.1.8.1.8.1.8.1.8.1.8.1.8.2.8.1.8.1.8.2.8.2.8.2.8.2.8.2.8.2.8.2.8.2.8.2.8.2.8.2.8.2.8.2.8.2.8.2.8.2.8.2.7.2.7.2.7.2.7.2.7.2.7.2.7.2.7.2.7.2.7.2.7.2.7.2.7.2.7.2.7.2.7.2.7.2.7.2.7.2.7.2.7.2.7.2.6.2.6.2.6.2.6.2.6.2.6.2.6.2.6.2.6.2.6.2.6.2.6.2.6.2.6.2.6.2.6.2.6.2.6.2.6.2.5.2.6.2.5.2.5.2.5.2.5.2.5.2.5.2.5.2.5.2.5.2.5.2.5.2.5.2.5.2.5.2.5.2.5.2.5.2.4.2.4.2.4.2.4.2.4.2.4.2.4.2.4.2.4.2.4.2.4.2.4.2.4.2.4.2.4.2.4.2.4.2.4.2.4.2.3.2.3.2.3.2.3.2.3.2.3.2.3.2.3.2.3.2.3.2.3.2.3.2.3.2.3.1.3.2.3.1.3.2.2.1.2.1.2.1.2.1.2.1.2.1.2.1.2.1.2.1.2.1.2.1.2.1.2.1.2.1.2.1.2.1.1.1.1.1.1.1.1.1.1.1.1.1.1.1.1.1.1.1.1.1.1.1.1.1.1.1.1v.1l.1.1v.1h0v.1h0v-.1l-.1-.1-.1-.1-.9-1.4-.1-.1-.1-.1-.1-.1-.1-.1-.1-.1-.1-.1-.1-.1-.1-.1-.1-.1-.1-.1-.1-.1-.1-.1-.1-.1-.1-.1-.1-.1-.1-.1-.1-.1-.1-.1-.2-.2-.2-.1-.2-.2-.2-.2-.2-.2-.2-.2-.2-.2-.2-.2-.2-.2-.2-.2-.2-.2-.2-.2-.2-.2-.2-.2-.2-.2-.2-.3-.2-.2-.2-.2-.2-.2-.3-.2-.3-.2-.3-.2-.3-.2-.3-.2-.3-.2-.3-.2-.3-.3-.3-.2-.3-.3-.3-.3-.3-.3-.3-.3-.3-.3-.3-.3-.3-.3-.3-.3-.3-.3-.3-.3-.3-.3-.3-.3-.4-.3-.4-.3-.4-.3-.4-.3-.4-.3-.4-.3-.4-.3-.4-.3-.4-.3-.4-.3-.4-.3-.4-.3-.4-.3-.4-.3-.4-.3-.4-.3-.4-.3-.4-.3-.5-.3-.5-.3-.5-.3-.5-.3-.5-.3-.5-.3-.5-.3-.5-.3-.5-.3-.5-.3-.5-.3-.5-.3-.5-.3-.5-.3-.5-.3-.5-.3-.5-.3-.5-.3-.5-.3-.6-.3-.5-.3-.6-.3-.7-.9-.6-.3-.6-.3-.6-.3-.6-.4-.6-.3-.6-.3-.6-.4-.6-.3-.6-.4-.6-.3-.6-.3-.6-.4-.6-.3-.6-.4-.6-.3-.6-.3-.7-.4-.6-.3-.7-.3-.6-.4-.7-.3-.7-.3-.7-.3-.7-.3-.7-.3-.7-.3-.7-.3-.7-.3-.7-.3-.7-.3-.7-.3-.7-.3-.7-.3-.7-.3-.7-.3-.7-.3-.7-.3-.7-.3-.7-.3-.7-.3-.7-.3-.8-.3-.8-.3-.8-.3-.8-.3-.8-.3-.8-.3-.8-.3-.8-.3-.8-.3-.8-.3-.8-.3-.8-.3-.8-.3-.8-.3-.8-.3-.8-.3-.8-.3-.8-.3-.8-.3-.8-.3-.8-.3-.8-.3-.8-.3-.8-.3-.8-.3-.8-.3-.8-.3-.8-.3-.8-.3-.8-.3-.8-.3-.8-.3-.8-.3-.8-.3-.8-.3-.8-.3-.9-.3-.8-.3-.8-.3-.9-.3-.8-.3-.9-.3-.9-.2-.8-.3-.9-.2-.9-.2-.9-.2-.9-.2-.9-.2-.9-.2-.9-.2-.9-.2-.9-.2-.9-.2-.9-.2-.9-.2-.9-.2-.9-.2-.9-.2-.9-.2-.9-.2-.9-.2-.9-.2-.9-.2-.9-.2-.9-.2-.9-.2-.9-.2-.9-.2-.9-.2-.9-.2-.9-.2-.9-.2-.9-.2-.9-.2-.9-.2-.9-.1-.9-.1-.9-.1-.9-.2-.9-.1-.9-.1-.9-.1-.9-.1-.9-.1-.9-.1-.9-.1-.9-.1-.9-.1-.9-.1-.9-.1-.9-.1-.9-.1-.9-.1-.9-.1-.9-.1-.9-.1-.9-.1-.9-.1-.9-.1-.9-.1-.9-.1-.8-.1-.9-.1-.8-.1-.8-.1-.8-.1-.8-.1-.8-.1-.8-.1-.8-.1L78,205l-.8-.1H47.1l-.7.1H44.3l-.7.1h-.7l-.7.1-.7.1-.7.1-.7.1-.7.1-.7.1-.7.1-.6.1-.6.1-.6.1-.6.1-.6.1-.6.1-.6.1-.6.1-.6.1-.6.1-.6.1-.6.1-.6.1-.6.1-.6.1-.6.1-.6.1-.6.1-.6.1-.5.1-.5.1-.5.1-.5.1-.5.1-.5.1-.5.1-.5.1-.5.1-.5.1-.5.1-.5.1-.5.1-.5.1-.5.1-.5.1-.5.1-.5.1-.5.1-.4.1-.4.1-.4.1-.4.1-.4.1-.4.1-.4.1-.4.1-.4.1-.4.1-.4.1-.4.1-.4.1-.4.1-.4.1-.3.1-.4.1-.3.1-.3.1-.3.1-.3.1-.3.1-.3.1-.3.1-.3.1-.3.1-.3.1-.3.1-.3.1-.3.1-.3.1-.3.1-.3.1-.2.1-.2.1-.2.1-.2.1-.2.1-.2.1-.2.1-.2.1-.2.1-.2.1-.2.1-.2.1-.2.1-.2.1-.2.1-.2.1-.1.1-.1.1H2l-.1.1H1.5l.1-.1h.1l.1-.1.1-.1.1-.1.1-.1.1-.1.1-.1.1-.1.1-.1.1-.1.2-.1.2-.1.2-.1.2-.1.2-.1.2-.1.2-.1.2-.1.2-.1.2-.1.2-.1.2-.1.2-.1.2-.1.2-.1.2-.1.2-.1.2-.2.2-.2.2-.2.3-.2.3-.2.3-.2.3-.2.3-.2.3-.2.3-.2.3-.2.3-.2.3-.2.3-.2.3-.2.3-.2.3-.2.3-.2.3-.2.3-.2.3-.2.3-.2.3-.3.3-.3.3-.3.3-.3.3-.3.3-.3.3-.3.4-.3.4-.3.4-.3.4-.3.4-.3.4-.3.4-.3.4-.3.4-.3.4-.3.4-.3.4-.3.4-.3.4-.4.4-.3.4-.4.4-.4.4-.4.4-.4.4-.4.4-.4.4-.4.4-.4.4-.4.4-.4.4-.4.4-.4.4-.4.4-.4.4-.4.4-.4.4-.4.4-.4.4-.4.5-.4.4-.5.5-.4.5-.5.4-.5.5-.5.5-.5.5-.5.5-.5.5-.5.5-.5.5-.5.5-.5.5-.5.5-.5.5-.5.5-.5.5-.5.5-.5.5-.5.5-.5.5-.5.5-.5.5-.5.5-.6.5-.5.5-.6.5-.6.5-.6.5-.6.5-.6.5-.6.5-.6.5-.6.5-.6.5-.6.5-.6.5-.6.5-.6.5-.6.5-.6.5-.6.5-.6.5-.6.5-.6.5-.6.5-.6.5-.6.5-.6.5-.7.5-.6.5-.7.5-.7.5-.7.5-.7.5-.7.5-.7.5-.7.5-.7.5-.7.5-.7.5-.7.5-.7.5-.7.5-.7.5-.7.5-.7.5-.7.5-.7.5-.7.5-.7.5-.7.5-.7.5-.7.5-.7.5-.7.5-.7.5-.7.5-.8.5-.8.5-.8.5-.8.4-.8.5-.8.4-.8.4-.8.4-.8.4-.8.4-.8.4-.8.4-.8.4-.8.4-.8.4-.8.4-.8.4-.8.4-.8.4-.8.4-.8.4-.8.4-.8.4-.8.4-.8.4-.8.4-.8.4-.8.4-.8.4-.8.4-.8.4-.8.4-.8.4-.8.4-.8.4-.8.4-.8.4-.8.4-.8.4-.8.4-.8.4-.8.4-.8.4-.8.3-.8.4-.8.3-.8.4-.8.3-.8.3-.8.3-.8.3-.8.3-.8.3-.8.3-.8.3-.8.3-.8.3-.8.3-.8.3-.8.3-.8.3-.8.3-.8.3-.8.3-.8.3-.8.3-.8.3-.8.3-.8.3-.8.3-.8.3-.8.3-.8.3-.8.3-.8.3-.8.3-.8.3-.8.3-.8.2-.8.3-.8.2-.8.2-.8.2-.8.2-.8.2-.8.2-.8.2-.8.2-.8.2-.8.2-.8.2-.8.2-.8.2-.8.2-.8.2-.8.2-.8.2-.8.2-.8.2-.8.2-.8.2-.8.2-.8.2-.8.2-.8.2-.8.2-.8.2-.8.2-.7.2-.7.1-.7.2-.7.1-.7.1-.7.1-.7.1-.7.1-.7.1-.7.1-.7.1-.7.1-.7.1-.7.1-.7.1-.7.1-.7.1-.7.1-.7.1-.7.1-.7.1-.7.1-.7.1-.7.1-.7.1-.7.1-.7.1-.6.1-.6.1-.6.1-.6.1-.6.1-.6.1-.6.1-.6.1-.6.1-.6v-.6l.1-.6.1-.6V.9h0V3l.1.2v.2l.1.2.1.2.1.2.1.2.1.2.1.2.1.2.1.2.1.2.1.2.1.2.1.2.1.3.1.3.1.3.1.3.1.3.1.3.1.3.1.3.1.3.1.3.1.3.1.3.1.3.1.3.1.3.1.3.1.3.1.3.1.3.2.3.1.4.2.3.2.4.2.4.2.4.2.4.2.4.2.4.2.4.2.4.2.4.2.4.2.4.2.4.2.4.2.4.2.4.2.4.2.4.2.4.2.4.2.4.2.4.2.4.2.5.3.5.3.5.3.5.3.5.3.5.3.5.3.5.3.5.3.5.3.5.3.5.3.5.3.5.3.5.3.5.3.5.3.5.3.5.3.5.3.5.3.5.3.5.3.5.3.5.3.5.3.6.4.5.4.6.4.6.4.6.4.6.4.6.4.6.4.6.4.6.4.6.4.6.4.6.4.6.4.6.4.6.4.6.4.6.4.6.4.6.4.6.4.6.4.6.5.6.4.6.5.6.5.6.5.6.5.6.5.6.5.6.5.6.5.6.5.6.5.6.5.6.5.6.5.6.5.6.5.6.5.6.5.6.5.6.5.6.5.6.5.6.5.6.5.6.5.6.5.6.5.6.5.6.6.6.6.6.6.6.6.6.6.6.6.6.6.6.6.6.6.6.6.6.6.6.6.6.6.6.6.6.6.6.6.6.6.6.6.6.6.6.6.6.6.6.6.6.6.6.6.6.6.6.6.6.6.6.6.6.6.6.6.6.7.6.7.6.7.6.7.6.7.6.7.6.7.6.7.6.7.6.7.6.7.6.7.6.7.6.7.6.7.6.7.6.7.6.7.6.7.6.7.6.7.6.7.6.7.6.7.6.7.5.7.6.7.6.7.5.7.6.7.5.7.6.7.5.7.5.7.5.7.5.7.5.7.5.7.5.7.5.7.5.7.5.7.5.7.5.7.5.7.5.7.5.7.5.7.5.7.5.7.5.7.5.7.5.7.5.7.5.7.5.7.5.7.5.7.5.7.5.7.5.7.5.7.4.7.5.7.4.7.4.7.4.7.4.7.4.7.4.7.4.7.4.7.4.7.4.7.4.7.4.7.4.7.4.7.4.7.4.7.4.7.4.7.4.7.4.7.4.7.4.7.4.7.4.7.4.7.4.7.4.7.4.7.3.7.4.7.3.7.3.7.3.7.3.7.3.7.3.7.3.7.3.7.3.7.3.7.3.7.3.7.3.7.3.7.3.7.3.7.3.7.3.7.3.7.3.7.3.7.3.7.3.6.3.7.3.6.3.6.3.6.2.6.2.6.2.6.2.6.2.6.2.6.2.6.2.6.2.6.2.6.2.6.2.6.2.6.2.6.2.6.2.6.2.6.2.6.2.6.2.6.2.5.2.6.2.5.2.5.2.5.2.5.2.5.2.5.1.5.1.5.1.5.1.5.1.5.1.5.1.5.1.5.1.5.1.5.1.5.1.5.1.5.1.5.1.5.1.5.1.4.1.4.1.4.1.4.1.4.1.4.1.4.1.4.1.4.1.4.1.4.1.4.1.4.1.4.1.4.1.4.1.4.1.3.1.3.1.3.1.3.1.3.1.3.1h9v.8h-6.9l-.3.1h-.3l-.3.1h-.3l-.3.1h-.3l-.3.1-.3.1-.3.1-.3.1-.4.1-.4.1-.4.1-.4.1-.4.1-.4.1-.4.1-.4.1-.4.1-.4.1-.4.1-.4.1-.4.1-.1.2-.4.1-.4.1-.4.1-.4.1-.5.1-.5.1-.5.1-.5.1-.5.1-.5.1-.5.1-.5.1-.5.1-.5.1-.5.1-.5.1-.5.1-.5.1-.5.1-.5.1-.5.2-.5.2-.5.1-.5.2-.5.2-.5.2-.6.2-.5.2-.6.2-.7.3-.6.2-.6.2-.6.2-.6.2-.6.2-.6.2-.6.2-.6.2-.6.2-.6.2-.6.2-.6.2-.6.2-.6.2-.6.2-.6.2-.6.2-.6.2-.6.3-.6.2-.6.3-.6.3-.7.3-.6.3-.7.3-.7.3-.7.3-.7.3-.7.3-.7.3-.7.3-.7.3-.7.3-.7.3-.7.3-.7.3-.7.3-.7.3-.7.3-.7.3-.7.3-.7.3-.7.3-.7.3-.7.3-.7.3-.7.3-.7.4-.7.4-.7.4-.7.4-.7.4-.7.4-.7.4-.7.4-.7.4-.7.4-.7.4-.7.4-.7.4-.7.4-.6.2-.7.4-.7.4-.7.4-.7.4-.7.4-.7.4-.7.4-.7.4-.7.4-.7.4-.7.4-.7.4-.7.4-.7.4-.7.4-.7.5-.7.5-.7.5-.7.5-.7.5-.7.5-.7.5-.7.5-.7.5-.7.5-.7.5-.7.5-.7.5-.7.5-.7.5-.7.5-.7.5-.7.5-.7.5-.7.5-.7.5-1.8.5-.7.5-.7.5-.7.5-.7.5-.7.5-.7.5-.7.5-.7.5-.7.5-.7.5-.7.6-.7.5-.7.5-.7.5-.7.6-.7.6-.7.6-.7.6-.7.6-.7.6-.7.6-.7.6-.7.6-.7.6-.7.6-.7.6-.7.6-.7.6-.7.6-.7.6-.7.6-.7.6-.7.6-.7.6-.7.6-.7.6-.7.6-.7.6-.7.6-.6.6-.7.6-.6.6-.6.6-.6.6-.6.6-.6.6-.6.6-.6.6-.6.6-.6.6-.6.6-.6.6-.6.6-.6.6-.6.6-.6.6-.6.6-.6.6-.6.6-.6.6-.6.6-.6.6-.6.6-.6.6-.6.6-.6.6-.6.6-.6.6-.6.6-.6.6-.5.6-.5.6-.5.6-.5.6-.5.6-.5.6-.5.6-.5.6-.5.6-.5.6-.5.6-.5.6-.5.6-.5.6-.5.6-.5.6-.5.6-.5.6-.5.6-.5.6-.5.6-.5.6-.5.6-.5.6-.5.6-.5.6-.5.6-.5,1.1-.5.6-.4.6-.4.6-.4.6-.4.6-.4.6-.4.6-.4.6-.4.6-.4.6-.4.6-.5.4-.4.6-.4.6-.4.6-.4.6-.4.6-.4.6-.4.6-.4.6-.4.6-.4.5-.3.6-.3.5-.4.6-.3.5-.3.5-.3.5-.3.5-.3.5-.3.5-.3.5-.3.5-.3.5-.3.5-.3.5-.3.5-.4.4-.3.5-.3.5-.3.5-.3.5-.3.5-.3.5-.3.5-.3.5-.3.5-.3.5-.3.5-.3.5-.2.5-.2.5-.2.4-.2.4-.2.4-.2.4-.2.4-.2.4-.2.4-.2.4-.2.4-.2.4-.2.4-.2.4-.2.4-.2.4-.2.4-.2.4-.2.4-.2.4-.2.4-.2.4-.2.4-.1.4-.2.4-.1.3-.1.3-.1.3-.1.3-.1.3-.1.3-.1.3-.1.3-.1.3-.1.3-.1.3-.1.3-.1.3-.1.3-.1.3-.1.3-.1.3-.1.3-.1.3-.1.2-.1.2-.1.2-.1.2-.1.2-.1.2-.1.2-.1.2-.1.2-.1.2-.1.2-.1.2-.1.2v2.2h0V263.2l-.1-.6V262l-.1-.6-.1-.6-.1-.6-.1-.6-.1-.6-.1-.6-.1-.6-.1-.6-.1-.6-.1-.6-.1-.6-.1-.7-.1-.7-.1-.7-.1-.7-.1-.7-.1-.7-.1-.7-.1-.7-.1-.7-.1-.7-.1-.7-.1-.7-.1-.7-.1-.7-.1-.7-.1-.7-.1-.7-.1-.7-.1-.7-.1-.7-.1-.7-.2-.7-.1-.7-.2-.7-.2-.7-.2-.8-.2-.7-.2-.8-.2-.8-.2-.8-.2-.8-.2-.8-.2-.8-.2-.8-.2-.8-.2-.8-.2-.8-.2-.8-.2-.8-.2-.8-.2-.8-.2-.8-.2-.8-.2-.8-.2-.8-.2-.8-.2-.8-.2-.8-.2-.8-.2-.8-.2-.8-.2-.8-.2-.8-.3-.8-.3-.8-.3-.8-.3-.8-.3-.8-.3-.8-.3-.8-.3-.8-.3-.8-.3-.8-.3-.8-.3-.8-.3-.8-.3-.8-.3-.8-.3-.8-.3-.8-.3-.8-.3-.8-.3-.8-.3-.8-.3-.8-.3-.8-.3-.8-.3-.8-.3-.8-.3-.8-.3-.8-.3-.8-.3-.8-.3-.8-.3-.8-.3-.8-.3-.8-.3-.8-.4-.8-.4-.8-.4-.8-.4-.8-.4-.8-.4-.8-.4-.8-.4-.8-.4-.8-.4-.8-.4-.8-.4-.8-.4-.8-.4-.8-.4-.8-.4-.8-.4-.8-.4-.8-.4-.8-.4-.8-.4-.8-.4-.8-.4-.8-.4-.8-.4-.8-.4-.8-.4-.8-.4-.8-.4-.8-.4-.8-.4-.8-.4-.8-.4-.8-.4-.8-.4-.8-.4-.8-.4-.8-.4-.8-.4-.8-.5-.8-.4-.8-.4-.8-.5-.8-.5-.8-.5-.7-.5-.8-.5-.7-.5-.7-.5-.7-.5-.7-.5-.7-.5-.7-.5-.7-.5-.7-.5-.7-.5-.7-.5-.7-.5-.7-.5-.7-.5-.7-.5-.7-.5-.7-.5-.7-.5-.7-.5-.7-.5-.7-.5-.7-.5-.7-.5-.7-.5-.7-.5-.7-.5-.7-.5-.7-.5-.7-.5-.6-.5-.6-.5-.6-.5-.6-.5-.6-.5-.6-.5-.6-.5-.6-.5-.6-.5-.6-.5-.6-.5-.6-.5-.6-.5-.6-.5-.6-.5-.6-.5-.6-.5-.6-.5-.6-.5-.6-.5-.6-.5-.6-.5-.6-.5-.6-.5-.5-.5-.5-.5-.5-.5-.5-.5-.5-.5-.5-.5-.5-.5-.5-.5-.5-.5-.5-.5-.5-.5-.5-.5-.5-.5-.5-.5-.5-.5-.5-.5-.5-.5-.5-.5-.5-.5-.5-.5-.5-.5-.5-.5-.5-.5-.5-.5-.4-.4-.4-.4-.4-.4-.4-.4-.4-.4-.4-.4-.4-.4-.4-.4-.4-.4-.4-.4-.4-.4-.4-.4-.4-.4-.4-.4-.4-.4-.4-.4-.4-.4-.4-.4-.4-.4-.4-.4-.4-.4-.4-.4-.3-.4-.3-.4-.3-.4-.3-.4-.3-.4-.3-.4-.3-.4-.3,1.8-.5-.4-.3-.4-.3-.4-.3-.4-.3-.3-.3-.4-.3-.3-.3-.3-.3-.3-.3-.3-.3-.3-.3-.3-.3-.3-.2-.3-.2-.3-.2-.3-.2-.3-.2-.3-.2-.3-.2-.3-.2-.3-.2-.3-.2-.3-.2-.3-.2L9.8,87l-.3-.2-.3-.2-.3-.2-.3-.2L8.3,86,8,85.8l-.2-.2-.2-.2-.2-.2-.2-.1L7,85l-.2-.1-.2-.1-.2-.1-.2-.1L6,84.5l-.2-.1-.2-.1-.2-.1-.2-.1L5,84l-.2-.1-.2-.1-.1-.1-.2-.1-.1-.1-.1-.1L4,83.3l-.1-.1-.1-.1v.1l-.1-.1L3.6,83l-.1-.1-.1-.1h.4l.1.1H4l.1.1h.1l.1.1.2.1.2.1.2.1.2.1.2.1.2.1.2.1.2.1.2.1.2.1.2.1.2.1.2.1.2.1.2.1.2.1.3.1.3.1.3.1.3.1.3.1.3.1.3.1.3.1.3.1.3.1.3.1.3.1.3.1.3.1.3.1.3.1.3.1.4.1.4.1.4.1.4.1.4.1.4.1.4.1.4.1.4.1.4.1.4.1.4.1.4.1.4.1.4.1.5.1.5.1.4.1.5.1.5.1.5.1.5.1.5.1.5.1.5.1.5.1.5.1.5.1.5.1.5.1.5.1.5.1.5.1.5.1.6.1.6.1.6.1.6.1.6.1.6.1.6.1.6.1.6.1.6.1.6.1.6.1.6.1.6.1.6.1.6.1.6.1.6.1.6.1.6.1.7.1.7.1.7.1.7.1.7.1.7.1.7.1h.7l.7.1H77.7l.8-.1h.8l.8-.1.8-.1.8-.1.8-.1.8-.1.8-.1.9-.1.8-.1.8-.1.9-.1.8-.1.9-.1.9-.1.9-.1.9-.1.9-.1.9-.1.9-.1.9-.1.9-.1.9-.1.9-.1.9-.1.9-.1.9-.1.9-.1.9-.1.9-.1.9-.1.9-.1.9-.1.9-.1.9-.1.9-.1.9-.1.9-.2.9-.1.9-.2.9-.2.9-.2.9-.2.9-.2.9-.2.9-.2.9-.2.9-.2.9-.2.9-.2.9-.2.9-.2.9-.2.9-.2.9-.2.9-.2.9-.2.9-.2.9-.2.9-.2.9-.2.9-.2.9-.2.9-.2.9-.2.9-.2.9-.2.9-.2.9-.2.9-.2.8-.2.9-.3.9-.3.8-.3.8-.3.9-.3.8-.3.8-.3.8-.3.9-.3.8-.3.8-.3.8-.3.8-.3.8-.3.8-.3.8-.3.8-.3.8-.3.8-.3.8-.3.8-.3.8-.3.8-.3.8-.3.8-.3.8-.3.8-.3.8-.3.8-.3.8-.3.8-.3.8-.3.8-.3.8-.3.8-.3.8-.3.8-.3.8-.3.8-.3.8-.3.8-.3.8-.3.7-.3.8-.3.7-.3.7-.3.7-.3.7-.3.7-.3.7-.3.7-.3.7-.3.7-.3.7-.3.7-.3.7-.3.7-.3.7-.3.7-.3.7-.3.7-.3.7-.3.7-.3.7-.4.7-.3.7-.3.7-.3.6-.4.6-.3.6-.4.6-.3.6-.3.6-.4.6-.3.6-.4.6-.3.6-.3.6-.4.6-.3.6-.3.6-.4.6-.3.6-.3.6-.3.6-.4.6-.3.5-.3.6-.3.5-.3.5-.3.5-.3.5-.3.5-.3.5-.3.5-.3.5-.3.5-.3.5-.3.5-.3.5-.3.5-.3.5-.3.5-.3.5-.3.5-.3.5-.3.5-.3.5-.3.4-.3.4-.3.4-.3.4-.3.4-.3.4-.3.4-.3.4-.3.4-.3.4-.3.4-.3.4-.3.4-.3.4-.3.4-.3.4-.3.4-.3.3-.3.4-.3.3-.3.3-.3.3-.3.3-.3.3-.3.3-.3.3-.3.3-.3.3-.3.3-.3.3-.3.3-.2.3-.3.3-.2.3-.2.3-.2.3-.2.3-.2.3-.2.3-.2.2-.2.2-.2.2-.2.2-.2.2-.2.2-.2.2-.2.2-.2.2-.2.2-.2.2-.2.2-.2.2-.2.2-.2.2-.2.2-.2.2-.2.2-.1.1-.2.1-.1.1-.1.1-.1.1-.1.1-.1.1-.1.1-.1.1-.1.1-.1.1-.1.1-.1.1-.1.1-.1.1-.1.1-.1.1-.1.1-.1.1-.1v-.1l.1-.1v-.2l.1-.1h0v.5l-.1.1-.1.1-.1.1-.1.1-.1.1-.1.1-.1.1-.1.1-.1.1-.1.1-.1.1-.1.1-1.7-1.7-.1.1-.1.2-.1.2-.1.2-.1.2-.1.2-.1.2-.1.2-.1.2-.1.2-.1.2-.1.2-.1.2-.1.2-.1.2-.1.2-.1.2-.2.3-.1.3-.2.3-.2.3-.2.3-.4.2-.2.3-.2.3-.2.3-.2.3-.2.3-.2.3-.2.3-.2.3-.2.3-.2.3-.2.3-.2.4-.2.3-.2.4-.2.4-.2.4-.2.4-.2.4-.2.4-.2.4-.2.4-.2.4-.2.4-.2.4-.2.4-.2.4-.2.4-.2.4-.2.4-.2.5-.2.5.2.6-.2.5-.2.5-.2.5-.2.5-.2.5-.2.5-.2.5-.2.5-.2.5-.2.5-.2.5-.2.5-.2.5-.2.5-.2.5-.2.6-.2.6-.2.6-.2.6-.2.6-.2.6-.2.6-.2.6-.2.6-.2.6-.2.6-.2.6-.2.6-.2.6-.2.6-.2.6-.2.6-.2.6-.2.6-.2.6-.2.7-.2.6-.2.7-.2.7-.2.7-.2.7-.2.7-.2.7-.2.7-.2.7-.2.7-.2.7-.2.7-.2.7-.2.7-.2.7-.2.7-.2.7-.2.7-.2.7-.2.7-.2.7-.2.8-.2.7-.2.8-.2.8-.2.8-.2.8-.2.8-.2.8-.2.8-.2.8-.2.8-.2.8-.2.8-.2.8-.2.8-.1.8-.2.8-.1.8-.1.8-.2.8-.1.8.2.5-.1.8-.1.8-.1.8-.1.8-.1.8-.1.8-.1.8-.1.8-.1.8-.1.8-.1.9-.1.8-.1.9-.1.9-.1.9-.1.9-.1.9-.1.9-.1.9-.1.9-.1.9-.1.9-.1.9-.1.9-.1.9-.1.9-.1.9-.1.9-.1.9-.1.9-.1.9-.1.9-.1.9-.1.9v34.2l.1.9.1.9.1.9.1.9.1.9.1.9.1.9.1.9.1.9.1.9.1.9.1.9.1.9.1.9.1.9.1.9.1.9.1.9.1.9.1.9.1.9.1.8.1.9.1.9.1.8.1.9.1.8.1.8.1.8.1.8.1.8.1.8.1.8.1.8.1.8.1.8.1.8.1.8.1.8.2.8.1.8.2.8.2.8.1.8.2.8.2.8.2.8.2.8.2.8.2.8.2.8.2.8.2.8.2.8.2.8.2.7.2.8.2.7.2.7.2.7.2.7.2.7.2.7.2.7.2.7.2.7.2.7.2.7.2.7.2.7.2.7.2.7.2.7.2.7.2.7.2.7.2.7.2.7.2.6.2.6.2.6.2.6.2.6.2.6.2.6.2.6.2.6.2.6.2.6.2.6.2.6.2.6.2.6.2.6.2.6.2.6.2.6.2.6.2.5.2.5.2.5.2.5.2.5.2.5.2.5.2.5.2.5.2.5.2.5.2.5.2.5.2.5.2.5.2.5.2.5.2.5.2.5.2.4.2.4.2.4.2.4.2.4.2.4.2.4.2.4.2.4.2.4.2.4.2.4.2.4.2.4.2.4.2.4.2.4.2.4.2.3.2.3.2.3.2.3.2.3.2.3.2.3.2.3.2.3.2.3.2.3.2.3.2.3.2.3.1.3.2.3.2.3.1.3.2.2.1.2.1.2.1.2.1.2.1.2.1.2.1.2.1.2.1.2.1.2.1.2.1.2.1.2.1.2.1.2.1.1.1.1.1.1.1.1.1.1.1.1.1.1.1.1.1.1.1.1.1.1.1.1.1.1v.1l.1.1v.3h0v-.1h0l-.1-.1-.1-.1-.8-1.1-.1-.1-.1-.1-.1-.1-.1-.1-.1-.1-.1-.1-.1-.1-.1-.1-.1-.1-.1-.1-.1-.1-.1-.1-.1-.1-.1-.1-.1-.1-.1-.1-.1-.1-.1-.1-.2-.2-.1-.2-.2-.2-.2-.2-.2-.2-.2-.2-.2-.2-.2-.2-.2-.2-.2-.2-.2-.2-.2-.2-.2-.2-.2-.2-.2-.2-.3-.2-.2-.2-.2-.2-.3-.2-.3-.2-.3-.2-.3-.2-.3-.2-.3-.2-.3-.2-.3-.3-.3-.2-.3-.3-.3-.3-.3-.3-.3-.3-.3-.3-.3-.3-.3-.3-.3-.3-.3-.3-.3-.3-.3-.3-.4-.3-.2-.1-.3-.3-.4-.3-.4-.3-.4-.3-.4-.3-.4-.3-.4-.3-.4-.3-.4-.3-.4-.3-.4-.3-.4-.3-.4-.3-.4-.3-.4-.3-.4-.3-.5-.3-.5-.3-.4-.3-.5-.3-.5-.3-.5-.3-.5-.3-.5-.3-.5-.3-.3-.5-.5-.3-.5-.3-.5-.3-.5-.3-.5-.3-.5-.3-.5-.3-.5-.3-.5-.3-.5-.3-.6-.3-.5-.3-.5-.3-.6-.3-.8-.8-.6-.3-.6-.4-.6-.3-.6-.3-.6-.3-.6-.4-.6-.3-.6-.4-.6-.3-.6-.3-.6-.4-.6-.3-.6-.4-.6-.3-.6-.3-.6-.4-.6-.3-.6-.4-.7-.3-.7-.3-.7-.3-.7-.4-.7-.3-.7-.3-.7-.3-.7-.3-.7-.3-.7-.3-.7-.3-.7-.3-.7-.3-.7-.3-.7-.3-.7-.3-.7-.3-.7-.3-.7-.3-.7-.3-.7-.3-.7-.3-.7-.3-.7-.3-.8-.3-.8-.3-.8-.3-.8-.3-.8-.3-.8-.3-.8-.3-.8-.3-.8-.3-.8-.3-.8-.3-.6-1.3-.8-.3-.8-.3-.8-.3-.8-.3-.8-.3-.8-.3-.8-.3-.8-.3-.8-.3-.8-.3-.8-.3-.8-.3-.8-.3-.8-.3-.8-.3-.8-.3-.8-.3-.8-.3-.8-.3-.8-.3-.8-.3-.8-.3-.8-.3-.9-.3-.8-.3-.9-.3-.8-.3-.8-.3-.9-.3-.9-.3-.8-.2-.9-.2-.9-.2-.9-.2-.9-.2-.9-.2-.9-.2-.9-.2-.9-.2-.9-.2-.9-.2-.9-.2-.9-.2-.9-.2-.9-.2-.9-.2-.9-.2-.9-.2-.9-.2-.9-.2-.9-.2-.9-.2-.9-.2-.9-.2-.9-.2-.9-.2-.9-.2-.9-.2-.9-.2-.9-.2-.9-.2-.9-.2-.9-.2-.9-.2-.9-.1-.9-.1-.9-.1-.9-.1-.9-.1-.9-.1-.9-.1-.9-.1-.9-.1-.9-.1-.9-.1-.9-.1-.9-.1-.9-.1-.9-.1-.9-.1-.9-.1-.9-.1-.9-.1-.9-.1-.9-.1-.9-.1-.9-.1-.9-.1-.9-.1-.8-.1-.9-.1-.8-.1-.8-.1-.8-.1-.8-.1-.8-.1-.8-.1h-.8l-.8-.1-.8-.1h-.8l-.8-.1H47.3l-.7.1H44.5l-.7.1-.7.1h-.7l-.7.1-.7.1-.7.1-.7.1-.7.1-.6.1-.7.1-.6.1-.6.1-.6.1-.6.1-.6.1-.6.1-.6.1-.6.1-.6.1-.6.1-.6.1-.6.1-.6.1-.6.1-.6.1-.6.1-.6.1-.5.1-.5.1-.5.1-.5.1-.5.1-.5.1-.5.1-.5.1-.5.1-.5.1-.5.1-.5.1-.5.1-.5.1-.5.1-.5.1-.5.1-.5.1-.5.1-.5.1-.4.1-.4.1-.4.1-.4.1-.4.1-.4.1-.4.1-.4.1-.4.1-.4.1-.4.1-.4.1-.4.1-.4.1-.4.1-.3.1-.3.1-.3.1-.3.1-.3.1-.3.1-.3.1-.3.1-.3.1-.3.1-.3.1-.3.1-.3.1-.3.1-.3.1-.3.1-.3.1-.3.1-.2.1-.2.1-.2.1-.2.1-.2.1-.2.1-.2.1-.2.1-.2.1-.2.1-.2.1-.2.1-.2.1-.2.1-.2.1-.2.1-.1.1-.1.1H2.4l-.1.1H1.9l.1-.1h.1l.1-.1.1-.1.1-.1.1-.1.1-.1.1-.1.1-.1.1-.1.2-.1.2-.1.2-.1.2-.1.2-.1.2-.1.2-.1.2-.1.2-.1.2-.1.2-.1.2-.1.2-.1.2-.1.2-.1.2-.1.2-.2.2-.2.2-.2.2-.2.3-.2.3-.2.3-.2.3-.2.3-.2.3-.2L9,209l.3-.2.3-.2.3-.2.3-.2.3-.2.3-.2.3-.2.3-.2.3-.2.3-.2.3-.2.3-.3.3-.3.3-.3.3-.3.3-.3.3-.3.3-.3.3-.3.4-.3.4-.3.4-.3.4-.3.4-.3.4-.3.4-.3.4-.3.4-.3.4-.3.4-.3.4-.3.4-.3.4-.3.4-.4.4-.4.4-.4.4-.4.4-.4.4-.4.4-.4.4-.4.4-.4.4-.4.4-.4.4-.4.4-.4.4-.4.4-.4.4-.4.4-.4.4-.4.4-.4.4-.4.5-.4.5-.5.4-.4.5-.5.5-.5.5-.5.4-.5.5-.5.5-.5.5-.5.5-.5.5-.5.5-.5.5-.5.5-.5.5-.5.5-.5.5-.5.5-.5.5-.5.5-.5.5-.5.5-.5.5-.5.5-.6.5-.6.5-.6.5-.6.5-.6.5-.6.5-.6.5-.6.5-.6.5-.6.5-.6.5-.6.5-.6.5-.6.5-.6.5-.6.5-.6.5-.6.5-.6.5-.6.5-.6.5-.6.5-.6.5-.6.5-.7.5-.6.5-.7.5-.7.5-.7.5-.7.5-.7.5-.7.5-.7.5-.7.5-.7.5-.7.5-.7.5-.7.5-.7.5-.7.5-.7.5-.7.5-.7.5-.7.5-.7.5-.7.5-.7.5-.7.5-.7.5-.7.5-.7.5-.7.5-.7.5-.8.5-.7.5-.8.5-.8.4-.8.5-.8.5-.8.4-.8.4-.8.4-.8.4-.8.4-.8.4-.8.4-.8.4-.8.4-.8.4-.8.4-.8.4-.8.4-.8.4-.8.4-.8.4-.8.4-.8.4-.8.4-.8.4-.8.4-.8.4-.8.4-.8.4-.8.4-.8.4-.8.4-.8.4-.8.4-.8.4-.8.4-.8.4-.8.4-.8.4-.8.4-.8.4-.8.4-.8.4-.8.4-.8.3-.8.4-.8.3-.8.4-.8.3-.8.3-.8.3-.8.3-.8.3-.8.3-.8.3-.8.3-.8.3-.8.3-.8.3-.8.3-.8.3-.8.3-.8.3-.8.3-.8.3-.8.3-.8.3-.8.3-.8.3-.8.3-.8.3-.8.3-.8.3-.8.3-.8.3-.8.3-.8.3-.8.3-.8.3-.8.3-.8.2-.8.2-.8.2-.8.2-.8.2-.8.2-.8.2-.8.2-.8.2-.8.2-.8.2-.8.2-.8.2-.8.2-.8.2-.8.2-.8.2-.8.2-.8.2-.8.2-.8.2-.8.2-.8.2-.8.2-.8.2-.8.2-.7.2-.8.2-.7.1-.7.2-.7.2-.7.1-.7.1-.7.1-.7.1-.7.1-.7.1-.7.1-.7.1-.7.1-.7.1-.7.1-.7.1-.7.1-.7.1-.7.1-.7.1-.7.1-.7.1-.7.1-.7.1-.7.1-.7.1-.7.1-.6.1-.7.1-.6.1-.6.1-.6.1-.6.1-.6.1-.6.1-.6.1-.6.1-.6.1-.6v-.6l.1-.6V1.5h0v.2h0V3.4l.1.2v.2l.1.2v.2l.1.2.1.2.1.2.1.2.1.2.1.2.1.2.1.2.1.2.1.2.1.2.1.3.1.3.1.3.1.3.1.3.1.3.1.3.1.3.1.3.1.3.1.3.1.3.1.3.1.3.1.3.1.3.1.3.1.3.2.3.2.4.1.3.2.4.2.4.2.4.2.4.2.4.2.4.2.4.2.4.2.4.2.4.2.4.2.4.2.4.2.4.2.4.2.4.2.4.2.4.2.4.2.4.2.4.2.4.2.4.2.5.3.5.3.5.3.5.3.5.3.5.3.5.3.5.3.5.3.5.3.5.3.5.3.5.3.5.3.5.3.5.3.5.3.5.3.5.3.5.3.5.3.5.3.5.3.5.3.5.3.5.3.6.4.5.4.6.4.6.4.6.4.6.4.6.4.6.4.6.4.6.4.6.4.6.4.6.4.6.4.6.4.6.4.6.4.6.4.6.4.6.4.6.4.6.4.6.5.6.5.6.5.6.5.6.5.6.5.6.5.6.5.6.5.6.5.6.5.6.5.6.5.6.5.6.5.6.5.6.5.6.5.6.5.6.5.6.5.6.5.6.5.6.5.6.5.6.6.6.5.6.5.6.5.6.6.6.6.6.6.6.6.6.6.6.6.6.6.6.6.6.6.6.6.6.6.6.6.6.6.6.6.6.6.6.6.6.6.6.6.6.6.6.6.6.6.6.6.6.6.6.6.6.6.6.6.6.6.6.7.6.6.6.6.6.7.6.7.6.7.6.7.6.7.6.7.6.7.6.7.6.7.6.7.6.7.6.7.6.7.6.7.6.7.6.7.6.7.6.7.6.7.6.7.6.7.6.7.6.7.6.7.6.7.5.7.6.7.5.7.6.7.5.7.5.7.5.7.5.7.5.7.5.7.5.7.5.7.5.7.5.7.5.7.5.7.5.7.5.7.5.7.5.7.5.7.5.7.5.7.5.7.5.7.5.7.5.7.5.7.5.7.5.7.5.7.5.7.5.7.5.7.5.7.5.7.5.7.5.7.5.7.4.7.4.7.4.7.4.7.4.7.4.7.4.7.4.7.4.7.4.7.4.7.4.7.4.7.4.7.4.7.4.7.4.7.4.7.4.7.4.7.4.7.4.7.4.7.4.7.4.7.4.7.4.7.4.7.3.7.3.7.3.7.3.7.3.7.3.7.3.7.3.7.3.7.3.7.3.7.3.7.3.7.3.7.3.7.3.7.3.7.3.7.3.7.3.7.3.7.3.7.3.6.3.7.3.6.3.6.3.6.3.6.3.6.3.6.2.6.2.6.2.6.2.6.2.6.2.6.2.6.2.6.2.6.2.6.2.6.2.6.2.6.2.6.2.6.2.6.2.6.2.6.2.6.2.6.2.6.2.5.2.5.2.5.2.5.2.5.1.5.2.5.1.5.1.5.1.5.1.5.1.5.1.5.1.5.1.5.1.5.1.5.1.5.1.5.1.5.1.5.1.5.1.4.1.4.1.4.1.4.1.4.1.4.1.4.1.4.1.4.1.4.1.4.1.4.1.4.1.4.1.4.1.4.1.4.1.4.1.3.1.3.1h.3l.3.1.3.1h.3l.3.1h.3l.3.1H289v.1h-7.5l-.3.1h-.6l-.3.1H280l-.3.1-.3.1-.4.1-.2.7-.4.1-.4.1-.4.1-.4.1-.4.1-.4.1-.4.1-.4.1-.4.1-.4.1-.4.1-.4.1-.2-.2-.4.1-.4.1-.4.1-.4.1-.4.1-.5.1-.5.1-.5.1-.5.1-.5.1-.5.1-.5.1-.5.1-.5.1-.5.1-.5.1-.5.1-.5.1-.5.1-.5.1-.5.1-.5.2-.5.1-.5.2-.5.2-.5.2-.5.2-.5.2-.6.2-.9.4-.6.2-.6.2-.6.2-.6.2-.6.2-.6.2-.6.2-.6.2-.6.2-.6.2-.6.2-.6.2-.6.2-.6.2-.6.2-.6.2-.6.2-.6.2-.6.2-.6.3-.6.3-.6.3-.6.3-.7.3-.6.3-.7.3-.7.3-.7.3-.7.3-.7.3-.7.3-.7.3-.7.3-.7.3-.7.3-.7.3-.7.3-.7.3-.7.3-.7.3-.7.3-.7.3-.7.3-.7.3-.7.3-.7.3-.7.3-.7.4-.7.4-.7.4-.7.4-.7.4-.7.4-.7.4-.7.4-.7.4-.7.4-.7.4-.7.4-.7.4-.7.4-.7.2-.7.4-.7.4-.7.4-.7.4-.7.4-.7.4-.7.4-.7.4-.7.4-.7.4-.7.4-.7.4-.7.4-.7.4-.7.4-.7.5-.7.5-.7.5-.7.5-.7.5-.7.5-.7.5-.7.5-.7.5-.7.5-.7.5-.7.5-.7.5-.7.5-.7.5-.7.5-.7.5-.7.5-.7.5-.7.5-.7.5-1.8.5-.7.5-.7.5-.7.5-.7.5-.7.5-.7.5-.7.5-.7.5-.7.5-.7.5-.7.6-.7.5-.7.6-.7.5-.7.5-.7.6-.7.6-.7.6-.7.6-.7.6-.7.6-.7.6-.7.6-.7.6-.7.6-.7.6-.7.6-.7.6-.7.6-.7.6-.7.6-.7.6-.7.6-.7.6-.7.6-.7.6-.7.6-.7.6-.7.6-.7.6-.6.6-.7.6-.6.6-.6.6-.6.6-.6.6-.6.6-.6.6-.6.6-.6.6-.6.6-.6.6-.6.6-.6.6-.6.6-.6.6-.6.6-.6.6-.6.6-.6.6-.6.6-.6.6-.6.6-.6.6-.6.6-.6.6-.6.6-.6.6-.6.6-.6.6-.5.6-.6.6-.5.6-.5.6-.5.6-.5.6-.5.6-.5.6-.5.6-.5.6-.5.6-.5.6-.5.6-.5.6-.5.6-.5.6-.5.6-.5.6-.5.6-.5.6-.5.6-.5.6-.5.6-.5.6-.5.6-.5.6-.5.6-.3,1.1-.5.6-.4.6-.4.6-.4.6-.4.6-.4.6-.4.6-.4.6-.4.6-.4.6-.4.6-.4.6-.4.6-.4.6-.4.6-.4.6-.4.6-.4.6-.4.6-.4.5-.4.6-.4.6-.4.5-.4.5-.3.5-.4.5-.3.5-.3.5-.3.5-.3.5-.3.5-.3.5-.3.5-.3.5-.3.5-.3.5-.3.5-.3.5-.3.5-.3.5-.3.5-.3.5-.3.5-.3.5-.3.5-.3.5-.3.5-.3.5-.3.5-.2.5-.2.5-.2.5-.2.4-.2.4-.2.4-.2.4-.2.4-.2.4-.2.4-.2.4-.2.4-.2.4-.2.4-.2.4-.2.4-.2.4-.2.4-.2.4-.2.4-.2.4-.2.4-.2.4-.2.4-.2.4-.2.4-.1.3-.1.3-.1.3-.1.3-.1.3-.1.3-.1.3-.1.3-.1.3-.1.3-.1.3-.1.3-.1.3-.1.3-.1.3-.1.3-.1.3-.1.3-.1.3-.1.2-.1.2-.1.2-.1.2-.1.2-.1.2-.1.2-.1.2-.1.2-.1.2-.1.2-.1.2-.1.2-.1.2v.5l-.1.1V295h0V263.9l-.1-.6v-.6l-.1-.6-.1-.6-.1-.6-.1-.6-.1-.6-.1-.6-.1-.6-.1-.6-.1-.6-.1-.6-.1-.6-.1-.6-.1-.7-.1-.7-.1-.7-.1-.7-.1-.7.7-.8-.1-.7-.1-.7-.1-.7-.1-.7-.1-.7-.1-.7-.1-.7-.1-.7-.1-.7-.1-.7-.1-.7-.1-.7-.1-.7-.1-.7-.1-.7-.2-.7-.1-.7-.2-.7-.1-.8-.2-.7-.2-.8-.2-.8-.2-.8-.2-.8-.2-.8-.2-.8-.2-.8-.2-.8-.2-.8-.2-.8-.2-.8-.2-.8-.2-.8-.2-.8-.2-.8-.2-.8-.2-.8-.2-.8-.2-.8-.2-.8-.2-.8-.2-.8-.2-.8-.2-.8-.2-.8-.2-.8-.3-.8-.2-.8-.3-.8-.3-.8-.3-.8-.3-.8-.3-.8-.3-.8-.3-.8-.3-.8-.3-.8-.3-.8-.3-.8-.3-.8-.3-.8-.3-.8-.3-.8-.3-.8-.3-.8-.3-.8-.3-.8-.3-.8-.3-.8-.3-.8-.3-.8-.3-.8-.3-.8-.3-.8-.3-.8-.3-.8-.3-.8-.3-.8-.3-.8-.3-.8-.3-.8-.4-.8-.3-.8-.4-.8-.4-.8-.4-.8-.4-.8-.4-.8-.4-.8-.4-.8-.4-.8-.4-.8-.4-.8-.4-.8-.4-.8-.4-.8-.4-.8-.4-.8-.4-.8-.4-.8-.4-.8-.4-.8-.4-.8-.4-.8-.4-.8-.4-.8-.4-.8-.4-.8-.4-.8-.4-.8-.4-.8-.4-.8-.4-.8-.4-.8-.4-.8-.4-.8-.4-.8-.4-.8-.4-.8-.4-.8-.4-.8-.5-.8-.5-.8-.4-.8-.8-.7-.5-.8-.5-.8-.5-.7-.5-.8-.5-.7-.5-.7-.5-.7-.5-.7-.5-.7-.5-.7-.5-.7-.5-.7-.5-.7-.5-.7-.5-.7-.5-.7-.5-.7-.5-.7-.5-.7-.5-.7-.5-.7-.5-.7-.5-.7-.5-.7-.5-.7-.5-.7-.5-.7-.5-.7-.5-.7-.5-.7-.5-.7-.5-.6-.5-.6-.5-.6-.5-.6-.5-.6-.5-.6-.5-.6-.5-.6-.5-.6-.5-.6-.5-.6-.5-.6-.5-.6-.5-.6-.5-.6-.5-.6-.5-.6-.5-.6-.5-.6-.5-.6-.5-.6-.5-.6-.5-.6-.5-.6-.5-.6-.5-.5-.5-.5-.5-.5-.5-.5-.5-.5-.5-.5-.5-.5-.5-.5-.5-.5-.5-.5-.5-.5-.5-.5-.5-.5-.5-.5-.5-.5-.5-.5-.5-.5-.5-.5-.5-.5-.5-.5-.5-.5-.5-.5-.4-.5-.5-.4-.4-.4-.5-.4-.4-.4-.4-.4-.4-.4-.4-.4-.4-.4-.4-.4-.4-.4-.4-.4-.4-.4-.4-.4-.4-.4-.4-.4-.4-.4-.4-.4-.4-.4-.4-.4-.4-.4-.4-.4-.4-.3-.4-.4-.4-.3-.4-.3-.4-.3-.4-.3-.4-.3-.4-.3-.4-.3,1.6-.3-.4-.3-.4-.3-.4-.3-.4-.3-.3-.3-.3-.3-.4-.3-.3-.3-.3-.3-.3-.3-.3-.3-.3-.2-.3-.3-.3-.2-.3-.2-.3-.2-.3-.2-.3-.2-.3-.2-.3-.2-.3-.2-.3-.2-.3-.2-.3-.2L9.8,87l-.3-.2-.3-.2-.3-.2-.3-.2L8.3,86l-.2-.2-.2-.2-.2-.1-.2-.1-.2-.1-.2-.1-.2-.1L6.7,85l-.2-.1-.2-.1-.2-.1-.2-.1-.2-.1-.2-.1-.2-.1-.2-.1-.2-.1L4.7,84l-.2-.1-.2-.1-.1-.1-.1-.1L4,83.5l-.1-.1-.1-.1-.1-.1-.1-.1L3.5,83l-.1-.1H3.2l-.1-.1h.5l.1.1h.1l.1.1h.2l.1.1.2.1.2.1.2.1.2.1.2.1.2.1.2.1.2.1L6,84l.2.1.2.1.2.1.2.1.2.1.2.1.3.1.3.1.3.1.3.1.3.1.3.1.3.1.3.1.3.1.3.1.3.1.3.1.3.1.3.1.3.1.3.1.4.1.3.1.3.1.4.1.4.1.4.1.4.1.4.1.4.1.4.1.4.1.4.1.4.1.4.1.4.1.4.1.4.1.4.1.5.1.5.1.5.1.5.1.5.1.5.1.5.1.5.1.5.1.5.1.5.1.5.1.5.1.5.1.5.1.5.1.5.1.6.1.5.1.6.1.6.1.6.1.6.1.6.1.6.1.6.1.6.1.6.1.6.1.6.1.6.1.6.1.6.1.6.1.6.1.6.1.6.1.7.1.6.1.7.1.7.1.7.1.7.1.7.1.7.1h.7l.7.1h2.1l.7.1H77.7l.8-.1h1.6l.8-.1.8-.1.8-.1.8-.1.8-.1L85,92l.8-.1.9-.1.8-.1.8-.1.9-.1.9-.1.9-.1.9-.1.9-.1.9-.1.9-.1.9-.1.9-.1.9-.1.9-.1.9-.1.9-.1.9-.1.9-.1.9-.1.9-.1.9-.1.9-.1.9-.1.9-.1.9-.1.9-.1.9-.1.9-.2.9-.1.9-.2.9-.2.9-.2.9-.2.9-.2.9-.2.9-.2.9-.2.9-.2.9-.2.9-.2.9-.2.9-.2.9-.2.9-.2.9-.2.9-.2.9-.2.9-.2.9-.2.9-.2.9-.2.9-.2.9-.2.9-.2.9-.2.9-.2.9-.2.9-.2.9-.2.9-.2.8-.2.9-.3.9-.2.8-.3.8-.3.9-.3.8-.3.8-.3.8-.3.9-.3.8-.3.8-.3.8-.3.8-.3.8-.3.8-.3.8-.3.8-.3.8-.3.8-.3.8-.3.8-.3.8-.3.8-.3.8-.3.8-.3.8-.3.8-.3.8-.3.8-.3.8-.3.8-.3.8-.3.8-.3.8-.3.8-.3.8-.3.8-.3.8-.3.8-.3.8-.3.8-.3.8-.3.8-.3.7-.3.7-.3.7-.3.7-.3.7-.3.7-.3.7-.3.7-.3.7-.3.7-.3.7-.3.7-.3.7-.3.7-.3.7-.3.7-.3.7-.3.7-.3.7-.4.7-.3.7-.3.7-.3.7-.4.6-.3.7-.3.6-.4.6-.3.6-.3.6-.4.6-.3.6-.4.6-.3.6-.3.6-.4.6-.3.6-.4.6-.3.6-.3.6-.3.6-.4.6-.3.6-.3.6-.3.6-.3.6-.3.5-.3.5-.3.5-.3.5-.3.5-.3.5-.3.5-.3.5-.3.5-.3.5-.3.5-.3.5-.3.5-.3.5-.3.5-.3.5-.3.5-.3.5-.3.4-.3.5-.3.5-.3.4-.3.4-.3.4-.3.4-.3.4-.3.4-.3.4-.3.4-.3.4-.3.4-.3.4-.3.4-.3.4-.3.4-.3.4-.3.4-.3.4-.3.3-.3.3-.3.3-.3.3-.3.3-.3.3-.3.3-.3.3-.3.3-.3.3-.3.3-.3.3-.2.3-.3.3-.3.3-.2.3-.2.3-.2.3-.2.3-.2.3-.2.3-.2.2-.2.2-.2.2-.2.2-.2.2-.2.2-.2.2-.2.2-.2.2-.2.2-.2.2-.2.2-.2.2-.2.2-.2.2-.2.2-.2.2-.2.2-.2.1-.1.1-.2.1-.1.1-.1.1-.1.1-.1.1-.1.1-.1.1-.1.1-.1.1-.1.1-.1.1-.1.1-.1.1-.1.1-.1.1-.1.1-.1.1-.1.1-.1v-.2h0v-.1h0V33l-.1.1v.1l-.1.1-.1.1-.1.1-.1.1-.1.1-.1.1-.1.1-.1.1-.1.1-.1.1-.1.1-1.7-2.1-.1.2-.1.2-.1.2-.1.2-.1.2-.1.2-.1.2-.1.2-.1.2-.1.2-.1.2-.1.2-.1.2-.1.2-.1.2-.1.2-.1.3-.2.3-.1.3-.2.3-.1.3-.2.3h-.5l-.2.3-.2.3-.2.3-.2.3-.2.3-.2.3-.2.3-.2.3-.2.3-.2.3-.2.3-.2.3-.2.4-.2.4-.2.4-.2.4-.2.4-.2.4-.2.4-.2.4-.2.4-.2.4-.2.4-.2.4-.2.4-.2.4-.2.4-.2.4-.2.4-.2.5-.2.5.2.6-.2.5-.2.5-.2.5-.2.5-.2.5-.2.5-.2.5-.2.5-.2.5-.2.5-.2.5-.2.5-.2.5-.2.5-.2.5-.2.6-.2.6-.2.6-.2.6-.2.6-.2.6-.2.6-.2.6-.2.6-.2.6-.2.6-.2.6-.2.6-.2.6-.2.6-.2.6-.2.6-.2.6-.2.6-.2.6-.2.6-.2.6-.2.7-.2.7-.2.7-.2.7-.2.7-.2.7-.2.7-.2.7-.2.7-.2.7-.2.7-.2.7-.2.7-.2.7-.2.7-.2.7-.2.7-.2.7-.2.7-.2.7-.2.8-.2.8-.2.8-.2.8-.2.8-.2.8-.2.8-.2.8-.2.8-.2.8-.2.8-.2.8-.2.8-.2.8-.1.8-.2.8-.2.8-.1.8-.1.8-.2.8-.1.8-.1.8-.1.8-.1.8-.1.8-.1.8-.1.8-.1.8-.1.8-.1.8-.1.8-.1.8-.1.9-.1.8-.1.9-.1.9-.1.9-.1.9-.1.9-.1.9-.1.9-.1.9-.1.9-.1.9-.1.9-.1.9-.1.9-.1.9-.1.9-.1.9-.1.9-.1.9-.1.9-.1.9-.1.9-.1.9v35.1l.1.9.1.9.1.9.1.9.1.9.1.9.1.9.1.9.1.9.1.9.1.9.1.9.1.9.1.9.1.9.1.9.1.9.1.9.1.9.1.9.1.8.1.9.1.9.1.8.1.9.1.8.1.8.1.8.1.8.1.8.1.8.1.8.1.8.1.8.1.8.1.8.1.8.1.8.2.8.2.8.1.8.2.8.1.8.2.8.2.8.2.8.2.8.2.8.2.8.2.8.2.8.2.8.2.8.2.8.2.8.2.7.2.8.2.7.2.7.2.7.2.7.2.7.2.7.2.7.2.7.2.7.2.7.2.7.2.7.2.7.2.7.2.7.2.7.2.7.2.7.2.7.2.7.2.6.2.6.2.6.2.6.2.6.2.6.2.6.2.6.2.6.2.6.2.6.2.6.2.6.2.6.2.6.2.6.2.6.2.6.2.6.2.6.2.6.2.5.2.6.2.5.2.5.2.5.2.5.2.5.2.5.2.5.2.5.2.5.2.5.2.5.2.5.2.5.2.5.2.5.2.5.2.4.2.4.2.4.2.4.2.4.2.4.2.4.2.4.2.4.2.4.2.4.2.4.2.4.2.4.2.4.2.4.2.4.2.4.2.3.2.3.2.3.2.3.2.3.2.3.2.3.2.3.2.3.2.3.2.3.2.3.2.3.2.3.1.3.2.3.1.3.1.2.2.2.1.2.1.2.1.2.1.2.1.2.1.2.1.2.1.2.1.2.1.2.1.2.1.2.1.2.1.2.1.1.1.1.1.1.1.1.1.1.1.1.1.1.1.1.1.1.1.1.1.1.1.1.1.1.1.1.1.1v.4h0v.1h0V267h0v-.2l-.1-.1-.4-1.5-.1-.1-.1-.1-.1-.1-.1-.1-.1-.1-.1-.1-.1-.1-.1-.1-.1-.1-.1-.1-.1-.1-.1-.1-.1-.1-.1-.1-.1-.1-.1-.1-.1-.1-.1-.1-.2-.2-.2-.2-.2-.2-.2-.2-.2-.2-.2-.2-.2-.2-.2-.2-.2-.2-.2-.2-.2-.2-.2-.2-.2-.2-.2-.2-.2-.2-.2-.2-.2-.2-.2-.2-.3-.2-.2-.2-.3-.2-.3-.2-.3-.2-.3-.2-.3-.2-.3-.2-.3-.3-.3-.3-.3-.3-.3-.3-.3-.3-.3-.3-.3-.3-.3-.3-.3-.3-.3-.3-.3-.3-.4-.3-.3-.3-.3-.1-.4-.3-.4-.3-.4-.3-.4-.3-.4-.3-.4-.3-.4-.3-.4-.3-.4-.3-.4-.3-.4-.3-.4-.3-.4-.3-.4-.3-.4-.3-.4-.3-.4-.3-.5-.3-.5-.3-.5-.3-.5-.3-.5-.3-.5-.3-.5-.3-.5-.3-.5-.3-.5-.3-.5-.3-.5-.3-.5-.3-.5-.3-.5-.3-.5-.3-.5-.3-.5-.3-.5-.3-.5-.3-.5-.3-.6-.3-.6-.3-.5-1-.6-.3-.6-.3-.6-.3-.6-.4-.6-.3-.6-.3-.6-.4-.6-.3-.6-.3-.6-.4-.6-.3-.6-.4-.6-.3-.6-.4-.6-.3-.6-.3-.7-.4-.7-.3-.6-.3-.7-.4-.7-.3-.7-.3-.7-.3-.7-.3-.7-.3-.7-.3-.7-.3-.7-.3-.7-.3-.7-.3-.7-.3-.7-.3-.7-.3-.7-.3-.7-.3-.7-.3-.7-.3-.7-.3-.7-.3-.7-.3-.7-.3-.7-.3-.8-.3-.8-.3-.8-.3-.8-.3-.8-.3-.8-.3-.8-.3-.8-.3-.8-.3-.8-.3-.8-.3-.8-.3-.8-.3-.8-.3-.8-.3-.8-.3-.8-.3-.8-.3-.8-.3-.8-.3-.8-.3-.5-1.4-.8-.3-.8-.3-.8-.3-.8-.3-.8-.3-.8-.3-.8-.3-.8-.3-.8-.3-.8-.3-.8-.3-.8-.3-.8-.3-.9-.3-.8-.3-.9-.3-.8-.3-.8-.3-.9-.3-.9-.3-.9-.2-.9-.2-.9-.2-.9-.2-.9-.2-.9-.2-.9-.2-.9-.2-.9-.2-.9-.2-.9-.2-.9-.2-.9-.2-.9-.2-.9-.2-.9-.2-.9-.2-.9-.2-.9-.2-.9-.2h-.6l-.9-.2-.9-.2-.9-.2-.9-.2-.9-.2-.9-.2-.9-.2-.9-.2-.9-.2-.9-.2-.9-.2-.9-.2-.9-.1-.9-.2-.9-.1-.9-.1-.9-.1-.9-.1-.9-.1-.9-.1-.9-.1-.9-.1-.9-.1-.9-.1-.9-.1-.9-.1-.9-.1-.9-.1-.9-.1-.9-.1-.9-.1-.9-.1-.9-.1-.9-.1-.8-.1-.9-.1-.9-.1-.9-.1-.8-.1-.9-.1-.8-.1-.8-.1-.8-.1-.8-.1-.8-.1-.8-.1-.8-.1h-.8l-.8-.1H77l-.2.1h-30l-.7.1H44.7l-.7.1-.7.1h-.7l-.7.1-.7.1-.7.1-.7.1-.6.1-.6.1-.6.1-.6.1-.6.1-.6.1-.6.1-.6.1-.6.1-.6.1-.6.1-.6.1-.6.1-.6.1-.6.1-.6.1-.6.1-.6.1-.6.1-.5.1-.5.1-.5.1-.5.1-.5.1-.5.1-.5.1-.5.1-.5.1-.5.1-.5.1-.5.1-.5.1-.5.1-.5.1-.5.1-.5.1-.5.1-.5.1-.5.1-.4.1-.4.1-.4.1-.4.1-.4.1-.4.1-.4.1-.4.1-.4.1-.4.1-.4.1-.4.1-.4.1-.4.1-.4.1-.4.1-.3.1-.3.1-.3.1-.3.1-.3.1-.3.1-.3.1-.3.1-.3.1-.3.1-.3.1-.3.1-.3.1-.3.1-.3.1-.3.1-.2.1-.2.1-.2.1-.2.1-.2.1-.2.1-.2.1-.2.1-.2.1-.2.1-.2.1-.2.1-.2.1-.2.1-.2.1-.2.1H3.9l-.1.1-.1.1H3.5l-.1.1H3l.1-.1.1-.1h.1l.1-.1.1-.1.1-.1.1-.1.1-.1.1-.1L4,213l.2-.1.2-.1.2-.1.2-.1.2-.1.2-.1.2-.1.2-.1.2-.1L6,212l.2-.1.2-.1.2-.1.2-.1.2-.1.2-.1.2-.2.2-.1.2-.2.3-.2.2-.2.3-.2.3-.2.3-.2.3-.2.3-.2.3-.2.3-.2.3-.2.3-.2.3-.2.3-.2.3-.2.3-.2.3-.2.3-.2.3-.2.3-.2.3-.3.3-.3.3-.3.3-.3.3-.3.3-.3.3-.3.4-.3.3-.3.4-.3.4-.3.4-.3.4-.3.4-.3.4-.3.4-.3.4-.3.4-.3.4-.3.4-.3.4-.3.4-.3.4-.4.4-.4.4-.4.4-.4.4-.4.4-.4.4-.4.4-.4.4-.4.4-.4.4-.4.4-.4.4-.4.4-.4.4-.4.4-.4.4-.4.4-.4.4-.4.4-.4.5-.5.5-.4.5-.5.5-.5.4-.5.5-.5.5-.5.5-.5.5-.5.5-.5.5-.5.5-.5.5-.5.5-.5.5-.5.5-.5.5-.5.5-.5.5-.5.5-.5.5-.5.5-.5.5-.5.5-.5.5-.6.5-.6.5-.6.5-.6.5-.6.5-.6.5-.6.5-.6.5-.6.5-.6.5-.6.5-.6.5-.6.5-.6.5-.6.5-.6.5-.6.5-.6.5-.6.5-.6.5-.6.5-.6.5-.6.5-.6.5-.6.5-.6.5-.7.5-.7.5-.7.5-.7.5-.7.5-.7.5-.7.5-.7.5-.7.5-.7.5-.7.5-.7.5-.7.5-.7.5-.7.5-.7.5-.7.5-.7.5-.7.5-.7.5-.7.5-.7.5-.7.5-.7.5-.7.5-.7.5-.7.4-.8.5-.8.5-.8.5-.8.4-.8.4-.8.5-.8.4-.8.4-.8.4-.8.4-.8.4-.8.4-.8.4-.8.4-.8.4-.8.4-.8.4-.8.4-.8.4-.8.4-.8.4-.8.4-.8.4-.8.4-.8.4-.8.4-.8.4-.8.4-.8.4-.8.4-.8.4-.8.4-.8.4-.8.4-.8.4-.8.4-.8.4-.8.4-.8.4-.8.4-.8.4-.8.4-.8.4-.8.4-.8.4-.8.3-.8.3-.8.4-.8.3-.8.3-.8.3-.8.3-.8.3-.8.3-.8.3-.8.3-.8.3-.8.3-.8.3-.8.3-.8.3-.8.3-.8.3-.8.3-.8.3-.8.3-.8.3-.8.3-.8.3-.8.3-.8.3-.8.3-.8.3-.8.3-.8.3-.8.3-.8.3-.8.3-.8.3-.8.3-.8.2-.8.2-.8.2-.8.2-.8.2-.8.2-.8.2-.8.2-.8.2-.8.2-.8.2-.8.2-.8.2-.8.2-.8.2-.8.2-.8.2-.8.2-.8.2-.8.2-.8.2-.8.2-.8.2-.8.2-.8.2-.8.2-.8.2-.8.2-.7.2-.7.1-.7.2-.7.1-.7.1-.7.1-.7.1-.7.1-.7.1-.7.1-.7.1-.7.1-.7.1-.7.1-.7.1-.7.1-.7.1-.7.1-.7.1-.7.1-.7.1-.7.1-.7.1-.7.1-.7.1-.7.1-.7.1-.6.1-.7.1-.6.1-.6.1-.6.1-.6.1-.6.1-.6.1-.6.1-.6.1-.6V32.9l.1-.6V30.5l.1-.6V1.8h0V3.7l.1.2v.2l.1.2.1.2.1.2.1.2.1.2.1.2.1.2.1.2.1.2.1.2.1.2.1.2.1.2.1.2.1.3.1.3.1.3.1.3.1.3.1.3.1.3.1.3.1.3.1.3.1.3.1.3.1.3.1.3.1.3.1.3.1.3.2.3.1.3.2.4.2.4.2.4.2.4.2.4.2.4.2.4.2.4.2.4.2.4.2.4.2.4.2.4.2.4.2.4.2.4.2.4.2.4.2.4.2.4.2.4.2.4.2.4.2.5.3.5.3.5.3.5.3.5.3.5.3.5.3.5.3.5.3.5.3.5.3.5.3.5.3.5.3.5.3.5.3.5.3.5.3.5.3.5.3.5.3.5.3.5.3.5.3.5.3.5.3.5.4.5.3.6.4.6.4.6.4.6.4.6.4.6.4.6.4.6.4.6.4.6.4.6.4.6.4.6.4.6.4.6.4.6.4.6.4.6.4.6.4.6.4.6.5.6.4.6.4.6.5.6.5.6.5.6.5.6.5.6.5.6.5.6.5.6.5.6.5.6.5.6.5.6.5.6.5.6.5.6.5.6.5.6.5.6.5.6.5.6.5.6.5.6.5.6.5.6.5.6.6.6.5.6.6.6.6.6.6.6.6.6.6.6.6.6.6.6.6.6.6.6.6.6.6.6.6.6.6.6.6.6.6.6.6.6.6.6.6.6.6.6.6.6.6.6.6.6.6.6.6.6.6.6.6.6.6.6.6.6.7.6.6.6.7.6.7.6.7.6.7.6.7.6.7.6.7.6.7.6.7.6.7.6.7.6.7.6.7.6.7.6.7.6.7.6.7.6.7.6.7.6.7.6.7.6.7.6.7.6.7.6.7.6.7.6.7.5.7.6.7.5.7.5.7.5.7.5.7.5.7.5.7.5.7.5.7.5.7.5.7.5.7.5.7.5.7.5.7.5.7.5.7.5.7.5.7.5.7.5.7.5.7.5.7.5.7.5.7.5.7.5.7.5.7.5.7.5.7.5.7.5.7.5.7.5.7.5.7.5.7.4.7.4.7.4.7.4.7.4.7.4.7.4.7.4.7.4.7.4.7.4.7.4.7.4.7.4.7.4.7.4.7.4.7.4.7.4.7.4.7.4.7.4.7.4.7.4.7.4.7.4.7.4.7.4.7.4.7.4.7.3.7.3.7.3.7.3.7.3.7.3.7.3.7.3.7.3.7.3.7.3.7.3.7.3.7.3.7.3.7.3.7.3.7.3.7.3.7.3.7.3.7.3.7.3.6.3.6.3.6.3.6.3.6.3.6.2.6.2.6.2.6.2.6.2.6.2.6.2.6.2.6.2.6.2.6.2.6.2.6.2.6.2.6.2.6.2.6.2.6.2.6.2.6.2.5.2.5.2.5.2.5.2.5.2.5.2.5.1.5.2.5.1.5.1.5.1.5.1.5.1.5.1.5.1.5.1.5.1.5.1.5.1.5.1.5.1.5.1.5.1.5.1.5.1.4.1.4.1.4.1.4.1.4.1.4.1.4.1.4.1.4.1.4.1.4.1.4.1.4.1.4.1.4.1.4.1.3.1.3.1.3.1.3.1h.3l.3.1h.3l.3.1H289V148h-8.3l-.3.1h-.3l-.3.1-.3.1-.3.1-.4.8-.4.1-.4.1-.4.1-.4.1-.4.1-.4.1-.4.1-.4.1-.4.1-.4.1-.4.1-.4.1-.4.1-.4.1-.4.1-.4.1-.4.1-.5.1-.5.1-.5.1-.5.1-.5.1-.5.1-.5.1-.5.1-.5.1-.5.1-.5.1-.5.1-.2.1-.5.1-.5.1-.5.1-.5.1-.5.2-.5.2-.5.2-.5.2-.5.2-.6.2-.6.2-.6.2h-.7l-.6.2-.6.2-.6.2-.6.2-.6.2-.6.2-.6.2-.6.2-.6.2-.6.2-.6.2-.6.2-.6.2-.6.2-.6.2-.6.2-.6.2-.6.2-.6.2-.6.3-.6.3-.6.3-.6.3-.7.3-.7.3-.7.3-.7.3-.7.3-.7.3-.7.3-.7.3-.7.3-.7.3-.7.3-.7.3-.7.3-.7.3-.7.3-.7.3-.7.3-.7.3-.7.3-.7.3-.7.3-.7.3-.7.3-.7.4-.7.4-.7.3-.7.4-.7.4-.7.4-.7.4-.7.4-.7.4-.7.4-.7.4-.7.4-.7.4-.7.4-.7.4-.7.4-.7.4-.7.4-.7.4-.7.4-.7.4-.7.4-.7.4-.7.4-.7.4-.7.4-.7.4-.7.4-.7.4-.7.4-.7.5-.7.4-.7.5-.7.5-.7.5-.7.5-.7.5-.7.5-.7.5-.7.5-.7.5-.7.5-.7.5-.7.5-.7.5-.7.5-.7.5-.7.5-.7.5-.7.5-.7.5-.7.5-.7.5-.7.5-.7.5-.7.5-.7.5-.7.5-.7.5-.7.5-.7.5-.7.5-.7.5-.7.5-.7.5-.7.5-.7.6-.7.5-.7.6-.7.6-.7.6-.7.6-.7.6-.7.6-.7.6-.7.6-.7.6-.7.6-.7.6-.7.6-.7.6-.7.6-.7.6-.7.6-.7.6-.7.6-.7.6-.7.6-.7.6-.7.6-.7.6-.7.6-.7.6-.6.6-.6.6-.7.6-.6.6-.6.6-.6.6-.6.6-.6.6-.6.6-.6.6-.6.6-.6.6-.6.6-.6.6-.6.6-.6.6-.6.6-.6.6-.6.6-.6.6-.6.6-.6.6-.6.6-.6.6-.6.6-.6.6-.6.6-.6.6-.6.6-1.5.8-.6.6-.5.6-.5.6-.5.6-.5.6-.5.6-.5.6-.5.6-.5.6-.5.6-.5.6-.5.6-.5.6-.5.6-.5.6-.5.6-.5.6-.5.6-.5.6-.5.6-.5.6-.5.6-.5.6-.5.6-.5.6-.5.6-.5.6-.4.8-.4.6-.4.6-.4.6-.4.6-.4.6-.4.6-.4.6-.4.6-.4.6-.4.6-.4.6-.4.6-.4.6-.4.6-.4.6-.4.6-.4.6-.4.6-.4.6-.4.5-.4.6-.4.6-.3.5-.4.5-.3.5-.3.5-.3.5-.6.4-.3.5-.3.5-.3.5-.3.5-.3.5-.3.5-.3.5-.3.5-.3.5-.3.5-.3.5-.3.5-.3.5-.3.5-.3.5-.3.5-.3.5-.3.5-.3.5-.3.5-.3.5-.2.5-.2.4-.2.5-.2.4-.2.4-.2.4-.2.4-.2.4-.2.4-.2.4-.2.4-.2.4-.2.4-.2.4-.2.4-.2.4-.2.4-.2.4-.2.4-.2.4-.2.4-.2.4-.2.4-.2.4-.2.4-.1.4-.2.4-.1.3-.1.3-.1.3-.1.3v.3l-.1.3-.1.3-.1.3-.1.3-.1.3-.1.3-.1.3-.1.3-.1.3-.1.3-.1.3-.1.3-.1.3-.1.2-.1.2-.1.2-.1.2-.1.2-.1.2-.1.2-.1.2-.1.2-.1.2-.1.2-.1.2-.1.2-.1.2v2h0v-.1h0V265.1l-.1-.6v-1.2l-.1-.6v-.6l-.1-.6-.1-.6-.1-.6-.1-.6-.1-.6-.1-.6-.1-.6-.1-.6-.1-.6-.1-.6-.1-.7-.1-.6-.1-.7-.1-.7-.1-.7-.1-.7.5-.8-.1-.7-.1-.7-.1-.7-.1-.7-.1-.7-.1-.7-.1-.7-.1-.7-.1-.7-.1-.7-.1-.7-.1-.7-.1-.7-.1-.7-.1-.7-.1-.7-.2-.7-.2-.7-.2-.7-.2-.7-.2-.8-.2-.8-.2-.8-.2-.8-.2-.8-.2-.8-.2-.8-.2-.8-.2-.8-.2-.8-.2-.8-.2-.8-.2-.8-.2-.8-.2-.8-.2-.8-.2-.8-.2-.8-.2-.8-.2-.8-.2-.8-.2-.8-.2-.8-.2-.8-.2-.8-.2-.8-.2-.8-.3-.8-.3-.8-.3-.8-.3-.8-.3-.8-.3-.8-.3-.8-.3-.8-.3-.8-.3-.8-.3-.8-.3-.8-.3-.8-.3-.8-.3-.8-.3-.8-.3-.8-.1-.8-.3-.8-.3-.8-.3-.8-.3-.8-.3-.8-.3-.8-.3-.8-.3-.8-.3-.8-.3-.8-.3-.8-.3-.8-.3-.8-.3-.8-.3-.8-.3-.8-.3-.8-.4-.8L85,186l-.4-.8-.4-.8-.4-.8-.4-.8L83,182l-.4-.8-.4-.8-.4-.8-.4-.8L81,178l-.4-.8-.4-.8-.4-.8-.4-.8L79,174l-.4-.8-.4-.8-.4-.8-.4-.8L77,170l-.4-.8-.4-.8-.4-.8-.4-.8L75,166l-.4-.8-.4-.8-.4-.8-.4-.8L73,162l-.4-.8-.4-.8-.4-.8-.4-.8L71,158l-.4-.8-.5-.8-.4-.8-.5-.8-.4-.8-.5-.8-.5-.8-.5-.8-.5-.8-.5-.7-.5-.7-.5-.7-.5-.7-.5-.7-.5-.7-.5-.7-.5-.7-.5-.7-.5-.7-.5-.7-.5-.7-.5-.7-.5-.7-.5-.7-.5-.7-.5-.7-.5-.7-.5-.7-.5-.7-.5-.7-.5-.7-.5-.7-.5-.7-.5-.7-.5-.7-.5-.6-.5-.7-.5-.6-.5-.6-.5-.6-.5-.6-.5-.6-.5-.6-.5-.6-.5-.6-.5-.6-.5-.6-.5-.6-.5-.6-.5-.6-.5-.6-.5-.6-.5-.6-.5-.6-.5-.6-.5-.6-.5-.6-.5-.6-.5-.6-.5-.6-.5-.5-.5-.6-.5-.6-.5-.5-.5-.5-.5-.5-.5-.5-.5-.5-.5-.5-.5-.5-.5-.5-.5-.5-.5-.5-.5-.5-.5-.5-.5-.5-.5-.5-.5-.5-.5-.5-.5-.5-.5-.5-.4-.5-.5-.5-.5-.4-.4-.5-.5-.4-.4-.4-.4-.4-.4-.4-.4-.4-.4-.4-.4-.4-.4-.4-.4-.4-.4-.4-.4-.4-.4-.4-.4-.4-.4-.4-.4-.4-.4-.4-.4-.4-.4-.4-.4-.4-.4-.4-.4-.3-.4-.4-.4-.3-.4-.3-.4-.3-.4-.3-.4-.3-.4-.3-.4-.3-.4-.3-.4-.3-.4-.3-.4-.3-.4-.3-.3-.3-.4-.3-.3-.3-.3-.3-.3-.3-.3-.3-.3-.3-.3-.3-.3-.3-.3-.3-.3-.2-.3-.2-.3-.2-.3-.2-.3-.2-.3-.2-.3-.2L9.8,88l-.3-.2-.3-.2-.3-.2-.3-.2L8.3,87,8,86.8l-.3-.2-.3-.2-.3-.2L6.9,86l-.2-.2-.2-.2-.2-.1-.2-.1-.2-.1-.2-.1-.2-.1L5.3,85l-.2-.1-.2-.1-.2-.1-.2-.1-.2-.1-.2-.1-.2-.1-.2-.1-.2-.1L3.3,84l-.2-.1L3,83.8l-.1-.1-.1-.1-.1-.1-.1-.1-.1-.1-.1-.1-.1-.1L2.2,83H2l-.1-.1h.4l.1.1h.1l.1.1h.1l.1.1h.1l.1.1.2.1.1.1.2.1.2.1.2.1.2.1.2.1.2.1.2.1.2.1.2.1.2.1.2.1.2.1.2.1.2.1.3.1.3.1.3.1.3.1.3.1.3.1.3.1.3.1.3.1.3.1.3.1.3.1.3.1.3.1.3.1.3.1.3.1.4.1.4.1.4.1.4.1.4.1.4.1.4.1.4.1.4.1.4.1.4.1.4.1.4.1.4.1.4.1.4.1.5.1.5.1.5.1.5.1.5.1.5.1.5.1.5.1.5.1.5.1.5.1.5.1.5.1.5.1.5.1.5.1.5.1.5.1.5.1.5.1.6.1.6.1.6.1.6.1.6.1.6.1.6.1.6.1.6.1.6.1.6.1.6.1.6.1.6.1.6.1.6.1.6.1.6.1.7.1.7.1.7.1.7.1.7.1h.7l.7.1.7.1.7.1h2.1l.7.1H76.8l.8-.1h1.6l.8-.1.8-.1.8-.1.8-.1.8-.1.9-.1.8-.1.9-.1.8-.1.8-.1.9-.1.9-.1.9-.1.9-.1.9-.1.9-.1.9-.1.9-.1.9-.1.9-.1.9-.1.9-.1.9-.1.9-.1.9-.1.9-.1.9-.1.9-.1.9-.1.9-.1.9-.1.9-.1.9-.1.9-.2.9-.2.9-.1.9-.2.9-.2.9-.2.9-.2.9-.2.9-.2.9-.2.9-.2.9-.2.9-.2.9-.2.9-.2.9-.2.9-.2.9-.2.9-.2.9-.2.9-.2.9-.2.9-.2.9-.2.9-.2.9-.2.9-.2.9-.2.9-.2.9-.2.9-.2.9-.2.9-.2.9-.2.8-.3.9-.2.9-.3.8-.3.9-.3.8-.3.8-.3.8-.3.8-.3.8-.3.8-.3.8-.3.8-.3.8-.3.8-.3.8-.3.8-.3.8-.3.8-.3.8-.3.8-.3.8-.3.8-.3.8-.3.8-.3.8-.3.8-.3.8-.3.8-.3.8-.3.8-.3.8-.3.8-.3.8-.3.8-.3.8-.3.8-.3.8-.3.8-.3.8-.3.8-.3.8-.3.8-.3.7-.3.7-.3.7-.3.7-.3.7-.3.7-.3.7-.3.7-.3.7-.3.7-.3.7-.3.7-.3.7-.3.7-.3.7-.3.7-.3.7-.3.7-.3.7-.3.7-.3.7-.3.7-.3.6-.4.7-.3.6-.3.6-.4.6-.3.6-.3.6-.4.6-.3.6-.4.6-.3.6-.3.6-.4.6-.3.6-.4.6-.3.6-.3.6-.4.6-.3.6-.3.6-.3.6-.3.6-.3.5-.3.5-.3.5-.3.5-.3.5-.3.5-.3.5-.3.5-.3.5-.3.5-.3.5-.3.5-.3.5-.3.5-.3.5-.3.5-.3.5-.3.5-.3.5-.3.5-.3.5-.3.5-.3.5-.3.4-.3.4-.3.4-.3.4-.3.4-.3.4-.3.4-.3.4-.3.4-.3.4-.3.4-.3.4-.3.4-.3.4-.3.4-.3.4-.3.4-.3.3-.3.3-.3.3-.3.3-.3.3-.3.3-.3.3-.3.3-.3.3-.3.3-.3.3-.3.3-.3.3-.3.3-.2.3-.2.3-.2.3-.2.3-.2.3-.2.3-.2.2-.2.2-.2.2-.2.2-.2.2-.2.2-.2.2-.2.2-.2.2-.2.2-.2.2-.2.2-.2.2-.2.2-.2.2-.2.2-.2.2-.2.2-.2.2-.1.1-.2.1-.1.1-.1.1-.1.1-.1.1-.1.1-.1.1-.1.1-.1.1-.1.1-.1.1-.1.1-.1.1-.1.1-.1.1-.1.1-.1.1-.1.1-.1.1-.1.1-.1v-.2h0v-.1h0v.5l-.1.1-.1.1-.1.1-.1.1-.1.1-.1.1-.1.1-.1.1-.1.1-.1.1-.1.1-.1.1-.1.1-.2-2.2-.1.1-.1.2-.1.2-.1.2-.1.2-.1.2-.1.2-.1.2-.1.2-.1.2-.1.2-.1.2-.1.2-.1.2-.1.2-.1.2-.1.3-.2.3-.1.3-.2.3-.2.3-.2.3-.4.1-.2.3-.2.3-.2.3-.2.3-.2.3-.2.3-.2.3-.2.3-.2.3-.2.3-.2.4-.2.4-.2.3-.2.4-.2.4-.2.4-.2.4-.2.4-.2.4-.2.4-.2.4-.2.4-.2.4-.2.4-.2.4-.2.4-.2.4-.2.4-.2.5-.2.4-.2.5.2.5-.2.5-.2.5-.2.5-.2.5-.2.5-.2.5-.2.5-.2.5-.2.5-.2.5-.2.5-.2.5-.2.5-.2.5-.2.5-.2.5-.2.6-.2.6-.2.6-.2.6-.2.6-.2.6-.2.6-.2.6-.2.6-.2.6-.2.6-.2.6-.2.6-.2.6-.2.6-.2.6-.2.6-.2.6-.2.6-.2.7-.2.7-.2.7-.2.7-.2.7-.2.7-.2.7-.2.7-.2.7-.2.7-.2.7-.2.7-.2.7-.2.7-.2.7-.2.7-.2.7-.2.7-.2.7-.2.7-.2.7-.2.7-.2.7-.2.8-.2.8-.2.8-.2.8-.2.8-.2.8-.2.8-.2.8-.2.8-.2.8-.2.8-.2.8-.2.8-.1.8-.2.8-.1.8-.2.8-.1.8-.1.8-.1.8-.1.8-.1.8-.1.8-.1.8-.1.8-.1.8-.1.8-.2.9-.1.8-.1.8-.1.8-.1.9-.1.8-.1.9-.1.9-.1.9-.1.9-.1.9-.1.9-.1.9-.1.9-.1.9-.1.9-.1.9-.1.9-.1.9-.1.9-.1.9v.4l-.1.9-.1.9-.1.9-.1.9-.1.9v.9l-.1.9v1.8l-.1.9v31.5l.1.9.1.9.1.9.1.9.1.9.1.9.1.9.1.9.1.9.1.9.1.9.1.9.1.9.1.9.1.9.1.9.1.9.1.9.1.9.1.9.1.9.1.8.1.9.1.8.1.9.1.8.1.8.1.8.1.8.1.8.1.8.1.8.1.8.1.8.1.8.1.8.1.8.1.8.2.8.1.8.2.8.2.8.2.8.2.8.2.8.2.8.2.8.2.8.2.8.2.8.2.8.2.8.2.8.2.8.2.8.2.8.2.7.2.7.2.7.2.7.2.7.2.7.2.7.2.7.2.7.2.7.2.7.2.7.2.7.2.7.2.7.2.7.2.7.2.7.2.7.2.7.2.7.2.6.2.6.2.6.2.6.2.6.2.6.2.6.2.6.2.6.2.6.2.6.2.6.2.6.2.6.2.6.2.6.2.6.2.6.2.6.2.6.2.5.2.5.2.5.2.5.2.5.2.5.2.5.2.5.2.5.2.5.2.5.2.5.2.5.2.5.2.5.2.5.2.5.2.5.2.5.2.4.2.4.2.4.2.4.2.4.2.4.2.4.2.4.2.4.2.4.2.4.2.4.2.4.2.4.2.4.2.4.2.4.2.4.2.3.2.3.2.3.2.3.2.3.2.3.2.3.2.3.2.3.2.3.2.3.2.3.2.3.2.3.2.3.2.3.1.3.1.3.2.2.1.2.1.2.1.2.1.2.1.2.1.2.1.2.1.2.1.2.1.2.1.2.1.2.1.2.1.2.1.1.1.1.1.1.1.1.1.1.1.1.1.1.1.1.1.1.1.1.1.1.1.1.1.1.1.1v.3l.1.1v.1h0v.1h0v-.1h0v-.2l-.1-.1-.6-1-.1-.1-.1-.1-.1-.1-.1-.1-.1-.1-.1-.1-.1-.1-.1-.1-.1-.1-.1-.1-.1-.1-.1-.1-.1-.1-.1-.1-.1-.1-.1-.1-.1-.1-.2-.2-.1-.1-.2-.2-.2-.2-.2-.2-.2-.2-.2-.2-.2-.2-.2-.2-.2-.2-.2-.2-.2-.2-.2-.2-.2-.2-.2-.2-.2-.2-.2-.2-.2-.2-.2-.2-.2-.2-.3-.2-.3-.2-.3-.2-.3-.2-.3-.2-.3-.2-.3-.2-.3-.3-.3-.3-.3-.3-.3-.3-.3-.3-.3-.3-.3-.3-.3-.3-.3-.3-.3-.3-.3-.3-.3-.3-.3-.3-.4-.1-.4-.3-.4-.3-.4-.3-.4-.3-.4-.3-.4-.3-.4-.3-.4-.3-.4-.3-.4-.3-.4-.3-.4-.3-.4-.3-.4-.3-.4-.3-.4-.3-.4-.3-.5-.3-.5-.3-.5-.3-.5-.3-.5-.3-.5-.3-.5-.3-.5-.3-.5-.3-.5-.3-.5-.3-.5-.3-.5-.3-.5-.3-.5-.3-.5-.3-.5-.3-.5-.3-.5-.3-.5-.3-.5-.3-.6-.3-.6-.3-.6-.3-.6-.3-.6-.3-.6-.3-.6-.3-.6-.3-.6-.3-.6-.3-.6-.3-.6-.4-.6-.3-.6-.3-.6-.3-.6-.3-.6-.3-.6-.3-.6-.3-.6-.3-.7-.3-.7-.3-.7-.3-.7-.3-.7-.3-.7-.4-.7-.3-.7-.3-.7-.3-.7-.3-.7-.3-.7-.3-.7-.3-.7-.3-.7-.3-.7-.3-.7-.3-.7-.3-.7-.3-.7-.3-.7-.3-.7-.3-.7-.3-.7-.3-.8-.3-.8-.3-.8-.3-.8-.3-.8-.3-.8-.3-.8-.3-.8-.3-.8-.3-.8-.3-.8-.3-.8-.3-.8-.3-.8-.3-.8-.3-.8-.3-.8-.3-.8-.3-.8-.3-.8-.3-.8-.3-.8-.3-.8-.3-.8-.3-.8-.3-.8-.3-.8-.3-.8-.3-.8-.3-.8-.3-.8-.3-.8-.3-.8-.3-.8-.3-.8-.3-.8-.3-.9-.3-.8-.3-.9-.3-.8-.3-.8-.3-.9-.3-.8-.2-.9-.3-.9-.2-.9-.2-.9-.2-.9-.2-.9-.2-.9-.2-.9-.2-.9-.2-.9-.2-.9-.2-.9-.2-.9-.2-.9-.2-.9-.2-.9-.2-.9-.2-.9-.2-.9-.2-.9-.2-.2-2.3-.9-.2-.9-.2-.9-.2-.9-.2-.9-.2-.9-.2-.9-.2-.9-.2-.9-.2-.9-.2-.9-.2-.9-.2-.9-.1-.9-.2-.9-.1-.9-.2-.9-.1-.9-.1-.9-.1-.9-.1-.9-.1-.9-.1-.9-.1-.9-.1-.9-.1-.9-.1-.9-.1-.9-.1-.9-.1-.9-.1-.9-.1-.9-.1-.9-.1-.9-.1-.8-.1-.9-.1-.9-.1-.8-.1-.8-.1-.9-.1-.8-.1-.8-.1-.8-.1-.8-.1-.8-.1-.8-.1h-.8l-.8-.1h-.8l-.8-.1H75.5l-.8-.1H48.3l-.7.1h-.7l-.7.1H44.8l-.7.1h-.7l-.7.1-.7.1-.7.1-.7.1-.7.1-.6.1-.6.1-.6.1-.6.1-.6.1-.6.1-.6.1-.6.1-.6.1-.6.1-.6.1-.6.1-.6.1-.6.1-.6.1-.6.1-.6.1-.6.1-.6.1-.6.1-.5.1-.5.1-.5.1-.5.1-.5.1-.5.1-.5.1-.5.1-.5.1-.5.1-.5.1-.5.1-.5.1-.5.1-.5.1-.5.1-.5.1-.5.1-.4.1-.4.1-.4.1-.4.1-.4.1-.4.1-.4.1-.4.1-.4.1-.4.1-.4.1-.4.1-.4.1-.4.1-.4.1-.4.1-.3.1-.4.1-.3.1-.3.1-.3.1-.3.1-.3.1-.3.1-.3.1-.3.1-.3.1-.3.1-.3.1-.3.1-.3.1-.3.1-.3.1-.3.1-.2.1-.2.1-.2.1-.2.1-.2.1-.2.1-.2.1-.2.1-.2.1-.2.1-.2.1-.2.1-.2.1-.2.1-.2.1-.1.1H3.8l-.1.1-.1.1H3.5l-.1.1H3.1l.1-.1.1-.1.1-.1.1-.1.1-.1.1-.1.1-.1.1-.1.1-.1.2-.1.1-.1.2-.1.2-.1.2-.1.2-.1.2-.1.2-.1.2-.1.2-.1.2-.1.2-.1.2-.1.2-.1.2-.1.2-.1.2-.1.2-.2.2-.1.2-.2.2-.2.3-.2.3-.2.3-.2.3-.2.3-.2.3-.2.3-.2.3-.2.3-.2.3-.2.3-.2.3-.2.3-.2.3-.2.3-.2.3-.2.3-.2.3-.2.3-.3.3-.3.3-.3.3-.3.3-.3.3-.3.3-.3.3-.3.4-.3.3-.3.4-.3.4-.3.4-.3.4-.3.4-.3.4-.3.4-.3.4-.3.4-.3.4-.3.4-.3.4-.4.4-.3.4-.4.4-.4.4-.4.4-.4.4-.4.4-.4.4-.4.4-.4.4-.4.4-.4.4-.4.4-.4.4-.4.4-.4.4-.4.4-.4.4-.4.4-.4.5-.4.4-.5.5-.5.4-.4.5-.5.5-.5.5-.5.5-.5.5-.5.5-.5.5-.5.5-.5.5-.5.5-.5.5-.5.5-.5.5-.5.5-.5.5-.5.5-.5.5-.5.5-.5.5-.5.5-.5.5-.5.5-.5.5-.6.5-.6.5-.6.5-.6.5-.6.5-.6.5-.6.5-.6.5-.6.5-.6.5-.6.5-.6.5-.6.5-.6.5-.6.5-.6.5-.6.5-.6.5-.6.5-.6.5-.6.5-.6.5-.6.5-.7.5-.7.5-.6.5-.7.5-.7.5-.7.5-.7.5-.7.5-.7.5-.7.5-.7.5-.7.5-.7.5-.7.5-.7.5-.7.5-.7.5-.7.5-.7.5-.7.5-.7.5-.7.5-.7.5-.7.5-.7.5-.7.5-.7.4-.7.5-.7.5-.7.5-.8.4-.8.5-.8.5-.8.5-.8.4-.8.4-.8.4-.8.4-.8.4-.8.4-.8.4-.8.4-.8.4-.8.4-.8.4-.8.4-.8.4-.8.4-.8.4-.8.4-.8.4-.8.4-.8.4-.8.4-.8.4-.8.4-.8.4-.8.4-.8.4-.8.4-.8.4-.8.4-.8.4-.8.4-.8.4-.8.4-.8.4-.8.4-.8.4-.8.4-.8.4-.8.4-.8.4-.8.4-.8.4-.8.3-.8.3-.8.3-.8.3-.8.3-.8.3-.8.3-.8.3-.8.3-.8.3-.8.3-.8.3-.8.3-.8.3-.8.3-.8.3-.8.3-.8.3-.8.3-.8.3-.8.3-.8.3-.8.3-.8.3-.8.3-.8.3-.8.3-.8.3-.8.3-.8.3-.8.3-.8.3-.8.3-.8.3-.8.2-.8.2-.8.2-.8L98,78l.2-.8.2-.8.2-.8.2-.8L99,74l.2-.8.2-.8.2-.8.2-.8.2-.8.2-.8.2-.8.2-.8.2-.8.2-.8.2-.8.2-.8.2-.8.2-.8.2-.8.2-.8.2-.8.2-.8.2-.8.2-.7.2-.7.2-.7.1-.7.1-.7.1-.7.1-.7.1-.7.1-.7.1-.7.1-.7.1-.7.1-.7.1-.7.1-.7.1-.7.1-.7.1-.7.1-.7.1-.7.1-.7.1-.7.1-.7.1-.7.1-.7.1-.7.1-.6.1-.6.1-.6.1-.6.1-.6.1-.6.1-.6.1-.6.1-.6.1-.6.1-.6.1-.6V32.2l.1-.6V1.1h0v2l.1.2.1.2v.2l.1.2.1.2.1.2.1.2.1.2.1.2.1.2.1.2.1.2.1.2.1.2.1.3.1.2.1.3.1.3.1.3.1.3.1.3.1.3.1.3.1.3.1.3.1.3.1.3.1.3.1.3.1.3.1.3.1.3.1.3.2.3.1.4.2.3.2.4.2.4.2.4.2.4.2.4.2.4.2.4.2.4.2.4.2.4.2.4.2.4.2.4.2.4.2.4.2.4.2.4.2.4.2.4.2.4.2.4.2.4.2.5.3.5.2.5.3.5.3.5.3.5.3.5.3.5.3.5.3.5.3.5.3.5.3.5.3.5.3.5.3.5.3.5.3.5.3.5.3.5.3.5.3.5.3.5.3.5.3.5.3.5.3.6.3.5.4.5.3.6.4.6.4.6.4.6.4.6.4.6.4.6.4.6.4.6.4.6.4.6.4.6.4.6.4.6.4.6.4.6.4.6.4.6.4.6.4.6.4.6.4.6.5.6.5.6.5.6.5.6.5.6.5.6.5.6.5.6.5.6.5.6.5.6.5.6.5.6.5.6.5.6.5.6.5.6.5.6.5.6.5.6.5.6.5.6.5.6.5.6.5.6.5.6.5.6.5.6.6.6.6.6.6.6.6.6.6.6.6.6.6.6.6.6.6.6.6.6.6.6.6.6.6.6.6.6.6.6.6.6.6.6.6.6.6.6.6.6.6.6.6.6.6.6.6.6.6.6.6.6.6.6.7.6.6.6.7.6.7.6.7.6.7.6.7.6.7.6.7.6.7.6.7.6.7.6.7.6.7.6.7.6.7.6.7.6.7.6.7.6.7.6.7.6.7.6.7.6.7.6.7.6.7.6.7.6.7.5.7.6.7.5.7.5.7.5.7.5.7.5.7.5.7.5.7.5.7.5.7.5.7.5.7.5.7.5.7.5.7.5.7.5.7.5.7.5.7.5.7.5.7.5.7.5.7.5.7.5.7.5.7.5.7.5.7.5.7.5.7.5.7.5.7.5.7.5.7.5.7.5.7.5.7.5.7.4.7.4.7.4.7.4.7.4.7.4.7.4.7.4.7.4.7.4.7.4.7.4.7.4.7.4.7.4.7.4.7.4.7.4.7.4.7.4.7.4.7.4.7.4.7.4.7.4.7.4.7.3.7.4.7.3.7.4.7.3.7.3.7.3.7.3.7.3.7.3.7.3.7.3.7.3.7.3.7.3.7.3.7.3.7.3.7.3.7.3.7.3.7.3.7.3.7.3.7.3.7.3.6.3.7.3.6.3.6.3.6.3.6.2.6.3.6.2.6.2.6.2.6.2.6.2.6.2.6.2.6.2.6.2.6.2.6.2.6.2.6.2.6.2.6.2.6.2.6.2.6.2.6.2.5.2.5.2.6.2.5.2.5.2.5.2.5.2.5.2.5.2.5.1.5.1.5.1.5.1.5.1.5.1.5.1.5.1.5.1.5.1.5.1.5.1.5.1.5.1.5.1.4.1.4.1.4.1.4.1.4.1.4.1.4.1.4.1.4.1.4.1.4.1.4.1.4.1.4.1.4.1.4.1.4.1.3.1.3.1.3.1h.6l.3.1H289v.5h-8.4l-.3.1-.3.1h-.3l-.3.1-.3.1-.3.8-.4.1-.4.1-.4.1-.4.1-.4.1-.4.1-.4.1-.4.1-.4.1-.4.1-.4.1-.4.1-.4.1-.4.1-.4.1-.4.1-.4.1-.4.1-.5.1-.5.1-.5.1-.5.1-.5.1-.5.1-.5.1-.5.1-.5.1-.5.1-.5.1-.5.1-.5.1-.5.1-.5.2-.5.1-.5.2-.5.2-.5.2-.5.2-.5.2-.6.2-.5.2-.6.2-.6.2-.6.2-.6.2-.6.2-.6.2-.6-.1-.6.2-.6.2-.6.2-.6.2-.6.2-.6.2-.6.2-.6.2-.6.2-.6.2-.6.2-.6.2-.6.2-.6.3-.6.3-.6.3-.7.3-.6.3-.6.3-.7.3-.6.3-.7.3-.7.3-.7.3-.7.3-.7.3-.7.3-.7.3-.7.3-.7.3-.7.3-.7.3-.7.3-.7.3-.7.3-.7.3-.7.3-.7.3-.7.3-.7.3-.7.3-.7.3-.7.4-.7.4-.7.3-.7.4-.7.4-.7.4-.7.4-.7.4-.7.4-.7.4-.7.4-.7.4-.7.4-.7.4-.7.4-.7.4-.7.4-.7.4-.7.4-.7.4-.7.4-.7.4-.7.4-.7.4-.7.4-.7.4-.7.4-.7.4-.7.4-.7.5-.7.5-.7.5-.7.5-.7.5-.7.5-.7.5-.7.5-.7.5-.7.5-.7.5-.7.5-.7.5-.7.5-.7.5-.7.5-.7.5-.7.5-.7.5-.7.5-.7.5-.7.5-.7.5-.7.5-.7.5-.7.5-.7.5-.7.5-.7.5-.7.5-.7.5-.7.5-.7.5-2.1.7-.7.6-.7.5-.7.5-.7.6-.7.6-.7.6-.7.6-.7.6-.7.6-.7.6-.7.6-.7.6-.7.6-.7.6-.7.6-.7.6-.7.6-.7.6-.7.6-.7.6-.7.6-.7.6-.7.6-.7.6-.7.6-.7.6-.7.6-.7.6-.7.6-.6.6-.6.6-.6.6-.6.6-.6.6-.6.6-.6.6-.6.6-.6.6-.6.6-.6.6-.6.6-.6.6-.6.6-.6.6-.6.6-.6.6-.6.6-.6.6-.6.6-.6.6-.6.6-.6.6-.6.6-.6.6-.6.6-.6.6-.6.6-.6.6-.3.4-.6.6-.5.6-.5.6-.5.6-.5.6-.5.6-.5.6-.5.6-.5.6-.5.6-.5.6-.5.6-.5.6-.5.6-.5.6-.5.6-.5.6-.5.6-.5.6-.5.6-.5.6-.5.6-.5.6-.5.6-.5.6-.4.6-.5.6-.5.6-.4.6-.4.6-.4.6-.4.6-.4.6-.4.6-.4.6-.4.6-.4.6-.4.6-.4.6-.4.6-.4.6-.4.6-.4.6-.4.6-.4.6-.4.6-.4.6-.4.6-.4.5-.4.6-.4.5-.3.5-.3.5-.3.5-.3.5-.6.6-.3.5-.3.5-.3.5-.3.5-.3.5-.3.5-.3.5-.3.5-.3.5-.3.5-.3.5-.3.5-.3.5-.3.5-.3.5-.3.5-.3.5-.3.5-.3.5-.3.5-.3.5-.3.5-.2.4-.2.5-.2.4-.2.4-.2.4-.2.4-.2.4-.2.4-.2.4-.2.4-.2.4-.2.4-.2.4-.2.4-.2.4-.2.4-.2.4-.2.4-.2.4-.2.4-.2.4-.2.4-.2.4-.2.4-.1.4-.2.3-.1.3-.1.3-.1.3-.1.3.1.4-.1.3-.1.3-.1.3-.1.3-.1.3-.1.3-.1.3-.1.3-.1.3-.1.3-.1.3-.1.3-.1.2-.1.2-.1.2-.1.2-.1.2-.1.2-.1.2-.1.2-.1.2-.1.2-.1.2-.1.2-.1.2v.2l-.1.2-.1.2v1.9h0v-.1h0V264.9l-.1-.6v-1.2l-.1-.6-.1-.6-.1-.6-.1-.6-.1-.6-.1-.6-.1-.6-.1-.6-.1-.6-.1-.6-.1-.6-.1-.6-.1-.6-.1-.7-.1-.7-.1-.7-.1-.7-.1-.7-.1-.7-.1-.7-.1-.7-.1-.7-.1-.7-.1-.7-.1-.7-.1-.7-.1-.7-.1-.7-.1-.7-.1-.7-.1-.7-.1-.7-.1-.7-.1-.7-.1-.7-.2-.7-.2-.7-.2-.7-.2-.8-.2-.7-.2-.8-.2-.8-.2-.8-.2-.8-.2-.8-.2-.8-.2-.8-.2-.8-.2-.8-.2-.8-.2-.8-.2-.8-.2-.8-.2-.8-.2-.8-.2-.8-.2-.8-.2-.8-.2-.8-.2-.8-.2-.8-.2-.8-.2-.8-.2-.8-.2-.8-.2-.8-.3-.8-.3-.8-.3-.8-.3-.8-.3-.8-.3-.8-.3-.8-.3-.8-.3-.8-.3-.8-.3-.8-.3-.8-.3-.8-.3-.8-.3-.8-.3-.8-.3-.8.6-.7-.3-.8-.3-.8-.3-.8-.3-.8-.3-.8-.3-.8-.3-.8-.3-.8-.3-.8-.3-.8-.3-.8-.3-.8-.3-.8-.4-.8-.3-.8-.3-.8-.4-.8-.3-.8-.4-.8-.4-.8-.4-.8-.4-.8-.4-.8-.4-.8-.4-.8-.4-.8-.4-.8-.4-.8-.4-.8-.4-.8-.4-.8-.4-.8-.4-.8-.4-.8-.4-.8-.4-.8-.4-.8-.4-.8-.4-.8-.4-.8-.4-.8-.4-.8-.4-.8-.4-.8-.4-.8-.4-.8-.4-.8-.4-.8-.4-.8-.4-.8-.4-.8-.4-.8-.4-.8-.4-.8-.4-.8-.4-.8-.4-.8-.5-.8-.5-.8-.5-.8-.4-.8-.5-.7-.5-.8-.5-.7-.5-.7-.5-.7-.5-.7-.5-.7-.5-.7-.5-.7-.5-.7-.5-.7-.5-.7-.5-.7-.5-.7-.5-.7-.5-.7-.5-.7-.5-.7-.5-.7-.5-.7-.5-.7-.5-.7-.5-.7-.5-.7-.5-.7-.5-.7-.5-.7-.5-.7-.5-.7-.5-.7-.5-.7-.5-.6-.5-.6-.5-.6-.5-.6-.5-.6-.5-.6-.5-.6-.5-.6-.5-.6-.5-.6-.5-.6-.5-.6-.5-.6-.5-.6-.5-.6-.5-.6-.5-.6-.5-.6-.5-.6-.5-.6-.5-.6-.5-.6-.5-.5-.5-.6-.5-.5-.5-.5-.5-.5-.5-.5-.5-.5-.5-.5-.5-.5-.5-.5-.5-.5-.5-.5-.5-.5-.5-.5-.5-.5-.5-.5-.5-.5-.5-.5-.5-.5-.5-.5-.5-.5-.5-.5-.5-.5-.4-.4-.5-.5-.4-.4-.5-.4-.4-.4-.4-.4-.4-.4-.4-.4-.4-.4-.4-.4-.4-.4-.4-.4-.4-.4-.4-.4-.4-.4-.4-.4-.4-.4-.4-.4-.4-.4-.4-.4-.4-.4-.4-.4-.4-.3-.4-.3-.4-.3-.4-.3-.4-.3-.4-.3-.4-.3-.4-.3-.4-.3-.4-.3-.4-.3-.4-.3-.4-.3-.4-.3-.4-.3-.3-.3-.4-.3-.3-.3-.3-.3-.3-.3-.3-.3-.3-.3-.3-.3-.3-.2-.3-.2-.3-.2-.3-.2-.3-.2-.3-.2-.3-.2-.3-.2-.3-.2L9.2,88l-.3-.2-.3-.2-.3-.2L8,87.2,7.7,87l-.3-.2-.3-.2-.3-.2-.2-.2L6.4,86l-.2-.1L6,85.7l-.2-.1-.2-.1-.2-.1-.2-.1L5,85.2l-.2-.1L4.6,85l-.2-.1-.2-.1L4,84.7l-.2-.1-.2-.1-.2-.1-.2-.1L3,84.2l-.1-.1L2.7,84l-.1-.1-.1-.1-.1-.1-.1-.1-.1-.1-.1-.1L2,83.3l-.1-.1-.1-.1h.3l.1.1h.1l.1.1.1.1h.1l.1.1.2.1.2.1.2.1.2.1.2.1.2.1.2.1.2.1.2.1.2.1.2.1.2.1.2.1.2.1.2.1.2.1.3.1.3.1.3.1.3.1.3.1.3.1.3.1.3.1.3.1.3.1.3.1.3.1.3.1.3.1.3.1.3.1.4.1.4.1.4.1.4.1.4.1.4.1.4.1.4.1.4.1.4.1.4.1.4.1.4.1.4.1.4.1.4.1.4.1.5.1.5.1.5.1.5.1.5.1.5.1.5.1.5.1.5.1.5.1.5.1.5.1.5.1.5.1.5.1.5.1.5.1.5.1.6.1.6.1.6.1.6.1.6.1.6.1.6.1.6.1.6.1.6.1.6.1.6.1.6.1.6.1.6.1.6.1.6.1.6.1.6.1.6.1.7.1.7.1.7.1.7.1.7.1h.7l.7.1h1.4l.7.1h.7l.7.1H76.2l.8-.1h.8l.8-.1h.8l.8-.1.8-.1.8-.1.8-.1.9-.1.8-.1.9-.1L86,92l.8-.1.9-.1.9-.1.9-.1.9-.1.9-.1.9-.1.9-.1.9-.1.9-.1.9-.1.9-.1.9-.1.9-.1.9-.1.9-.1.9-.1.9-.1.9-.1.9-.1.9-.1.9-.1.9-.1.9-.1.9-.1.9-.2.9-.2.9-.2.9-.2.9-.2.9-.2.9-.2.9-.2.9-.2.9-.2.9-.2.9-.2.9-.2.9-.2.9-.2.9-.2.9-.2.9-.2.9-.2.9-.2.9-.2.9-.2.9-.2.9-.2.9-.2.9-.2.9-.2.9-.2.9-.2.9-.2.9-.2.9-.2.9-.2.9-.2.8-.3.9-.3.8-.3.9-.3.8-.3.8-.3.8-.3.8-.3.8-.3.8-.3.8-.3.8-.3.8-.3.8-.3.8-.3.8-.3.8-.3.8-.3.8-.3.8-.3.8-.3.8-.3.8-.3.8-.3.8-.3.8-.3.8-.3.8-.3.8-.3.8-.3.8-.3.8-.3.8-.3.8-.3.8-.3.8-.3.8-.3.8-.3.8-.3.8-.3.8-.3.8-.3.7-.3.7-.3.7-.3.7-.3.7-.3.7-.3.7-.3.7-.3.7-.3.7-.3.7-.3.7-.3.7-.3.7-.3.7-.3.7-.3.7-.3.7-.3.7-.3.7-.3.7-.3.7-.3.7-.3.6-.3.7-.3.6-.3.6-.3.6-.4.6-.3.6-.3.6-.3.6-.3.6-.3.6-.3.6-.3.6-.3.6-.3.6-.3.6-.3.6-.3.6-.3.6-.3.6-.3.6-.3.5-.3.6-.3.5-.3.5-.3.5-.3.5-.3.5-.3.5-.3.5-.3.5-.3.5-.3.5-.3.5-.3.5-.3.5-.3.5-.3.5-.3.5-.3.5-.3.5-.3.5-.3.5-.3.4-.3.4-.3.4-.3.4-.3.4-.3.4-.3.4-.3.4-.3.4-.3.4-.3.4-.3.4-.3.4-.3.4-.3.4-.3.4-.3.4-.3.4-.3.3-.3.3-.3.3-.3.3-.3.3-.3.3-.3.3-.3.3-.3.3-.3.3-.3.3-.3.3-.3.3-.3.3-.2.3-.2.3-.2.3-.2.3-.2.3-.2.3-.2.2-.2.2-.2.2-.2.2-.2.2-.2.2-.2.2-.2.2-.2.2-.2.2-.2.2-.2.2-.2.2-.2.2-.2.2-.2.2-.2.2-.2.2-.2.1-.1.2-.2.1-.1.1-.1.1-.1.1-.1.1-.1.1-.1.1-.1.1-.1.1-.1.1-.1.1-.1.1-.1.1-.1.1-.1.1-.1.1-.1.1-.1.1-.1.1-.1v-.4h0v.1h0v.1l-.1.1v.3l-.1.1-.1.1-.1.1-.1.1-.1.1-.1.1-.1.1-.1.1-.1.1-.1.1-.1.1-.1.1.4-2.9-.1.1-.1.2-.1.2-.1.2-.1.2-.1.2-.1.2-.1.2-.1.2-.1.2-.1.2-.1.2-.1.2-.1.2-.1.2-.2.2-.1.2-.1.3-.2.3-.2.3-.2.3-.2.3-.2.3-.2.3-.2.3-.2.3-.2.3-.2.3-.2.3-.2.3-.2.3-.2.3-.2.3-.2.3-.2.3-.2.4-.2.4-.2.4-.2.4-.2.4-.2.4-.2.4-.2.4-.2.4-.2.4-.2.4-.2.4-.2.4-.2.4-.2.4-.2.5-.2.4-.2.5-.2.5.1.4-.2.5-.2.5-.2.5-.2.5-.2.5-.2.5-.2.5-.2.5-.2.5-.2.5-.2.5-.2.5-.2.5-.2.5-.2.6-.2.5-.2.6-.2.6-.2.6-.2.6-.2.6-.2.6-.2.6-.2.6-.2.6-.2.6-.2.6-.2.6-.2.6-.2.6-.2.6-.2.6-.2.6-.2.6-.2.6-.2.6-.2.6-.2.7-.2.7-.2.7-.2.7-.2.7-.2.7-.2.7-.2.7-.2.7-.2.7-.2.7-.2.7-.2.7-.2.7-.2.7-.2.7-.2.7-.2.7-.2.7-.2.7-.2.8-.2.7-.2.8-.2.8-.2.8-.2.8-.2.8-.2.8-.2.8-.2.8-.2.8-.2.8-.2.8-.2.8-.2.8-.2.8-.1.8-.2.8-.1.8-.1.8-.1.8-.1.8-.1.8-.1.8-.1.8-.1.8-.1.8-.1.8-.1,1-.1.8-.1.8-.1.8-.1.9-.1.8-.1.9-.1.9-.1.9-.1.9-.1.9-.1.9-.1.9-.1.9-.1.9-.1.9-.1.9-.1.9-.1.9-.1.9-.1.9-.1.9-.1.9-.1.9-.1.9-.1.9-.1.9-.1.9v31.5l.1.9v1.8l.1.9v.9l.1.9.1.9.1.9.1.9.1.9.1.9.1.9.1.9.1.9.1.9.1.9.1.9.1.9.1.9.1.9.1.9.1.9.1.8.1.9.1.9.1.8.1.9.1.8.1.9.1.8.1.8.1.8.1.8.1.8.1.8.1.8.1.8.1.8.1.8.1.8.1.8.2.8.2.8.1.8.2.8.1.8.2.8.1.8.2.8.2.8.2.8.2.8.2.8.2.8.2.8.2.8.2.8.2.8.2.7.2.8.2.7.2.7.2.7.2.7.2.7.2.7.2.7.2.7.2.7.2.7.2.7.2.7.2.7.2.7.2.7.2.7.2.7.2.7.2.7.2.7.2.7.2.7.2.6.2.6.2.6.2.6.2.6.2.6.2.6.2.6.2.6.2.6.2.6.2.6.2.6.2.6.2.6.2.6.2.6.2.6.2.6.2.5.2.5.2.5.2.5.2.5.2.5.2.5.2.5.2.5.2.5.2.5.2.5.2.5.2.5.2.5.2.5.2.5.2.5.2.5.2.4.2.4.2.4.2.4.2.4.2.4.2.4.2.4.2.4.2.4.2.4.2.4.2.4.2.4.2.4.2.4.2.4.2.4.2.4.2.3.2.3.2.3.2.3.2.3.2.3.2.3.2.3.2.3.2.3.2.3.2.3.2.3.2.3.1.3.2.3.1.3.1.2.1.2.1.2.1.2.1.2.1.2.1.2.1.2.1.2.1.2.1.2.1.2.1.2.1.2.1.2.1.2.1.1.1.1.1.1.1.1.1.1.1.1.1.1.1.1.1.1.1.1.1.1.1.1.1.1.1.1v.5h0v-.1h0V267h0l-.1-.1-.1-.1-.4-1.6-.1-.1-.1-.1-.1-.1-.1-.1-.1-.1-.1-.1-.1-.1-.1-.1-.1-.1-.1-.1-.1-.1-.1-.1-.1-.1-.1-.1-.1-.1-.1-.1-.1-.1-.1-.2-.2-.2-.2-.2-.2-.2-.2-.2-.2-.2-.2-.2-.2-.2-.2-.2-.2-.2-.2-.2-.2-.2-.2-.2-.2-.2-.2-.2-.2-.2-.2-.1-.2-.2-.2-.2-.2-.2-.3-.2-.3-.2-.3-.2-.3-.2-.3-.2-.3-.2-.3-.2-.3-.3-.3-.3-.3-.3-.3-.3-.3-.3-.3-.3-.3-.3-.3-.3-.3-.3-.3-.3-.3-.3-.3-.3-.3-.3-.4-.3-.4-.3-.4-.3-.4-.3-.4-.3-.4-.3-.4-.3-.4-.3-.4-.3-.4-.3-.4-.3-.4-.3-.4-.3-.4-.3-.4-.3-.4-.3-.4-.3-.4-.3-.5-.3-.5-.3-.5-.3-.5-.3-.5-.3-.5-.3-.5-.3-.5-.3-.5-.3-.5-.3-.5-.3-.5-.3-.5-.3-.5-.3-.5-.3-.5-.3-.5-.3-.5-.3-.6-.3-.5-.3-.5-.3-.6-.3-.6-.3-.6-.3-.6-.3-.6-.3-.6-.3-.6-.3-.6-.4-.6-.3-.6-.4-.6-.3-.6-.3-.6-.4-.6-.3-.6-.4-.6-.3-.6-.3-.6-.4-.6-.3-.7-.4-.6-.3-.7-.3-.7-.3-.7-.4-.7-.3-.7-.3-.7-.3-.7-.3-.7-.3-.7-.3-.7-.3-.7-.3-.7-.3-.7-.3-.7-.3-.7-.3-.7-.3-.7-.3-.7-.3-.7-.3-.6-1.7-.7-.3-.7-.3-.8-.3-.7-.3-.8-.3-.8-.3-.8-.3-.8-.3-.8-.3-.8-.3-.8-.3-.8-.3-.8-.3-.8-.3-.8-.3-.8-.3-.8-.3-.8-.3-.8-.3-.8-.3-.8-.3-.8-.3-.8-.3-.8-.3-.8-.3-.8-.3-.8-.3-.8-.3-.8-.3-.8-.3-.8-.3-.8-.3-.8-.3-.8-.3-.8-.3-.8-.3-.8-.3-.8-.3-.8-.3-.9-.3-.8-.3-.9-.3-.8-.3-.8-.3-.9-.3-.8-.2-.9-.2-.9-.3-.9-.2-.9-.2-.9-.2-.9-.2-.9-.2-.9-.2-.9-.2-.9-.2-.9-.2-.9-.2-.9-.2-.9-.2-.9-.2-.9-.2-.9-.2-.9-.2-.9-.2-.9-.2-.9-.2-.9-.2-.9-.2-.9-.2-.9-.2-.9-.2-.9-.2-.9-.2-.9-.2-.9-.2-.9-.2-.9-.2-.9-.2-.9-.2-.9-.2-.9-.1-.9-.1-.9-.1-.9-.1-.9-.1-.9-.1-.9-.1-.9-.1-.9-.1-.9-.1-.9-.1-.9-.1-.9-.1-.9-.1-.9-.1-.9-.1-.9-.1-.9-.1-.9-.1-.9-.1-.9-.1-.8-.1-.9-.1-.8-.1-.8-.1-.9-.1-.8-.1-.8-.1-.8-.1-.8-.1-.8-.1-.8-.1-.8-.1H77.2l-.8-.1H48.1l-.7.1H45.3l-.7.1-.7.1-.7.1h-.7l-.7.1-.7.1-.7.1-.7.1-.6.1-.6.1-.6.1-.6.1-.6.1-.6.1-.6.1-.6.1-.6.1-.6.1-.6.1-.6.1-.6.1-.6.1-.6.1-.6.1-.6.1-.6.1-.6.1-.5.1-.5.1-.5.1-.5.1-.5.1-.5.1-.5.1-.5.1-.5.1-.5.1-.5.1-.5.1-.5.1-.5.1-.5.1-.5.1-.5.1-.5.1-.5.1-.4.1-.4.1-.4.1-.4.1-.4.1-.4.1-.4.1-.4.1-.4.1-.4.1-.4.1-.4.1-.4.1-.4.1-.4.1-.4.1-.4.1-.3.1-.3.1-.3.1-.3.1-.3.1-.3.1-.3.1-.3.1-.3.1-.3.1-.3.1-.3.1-.3.1-.3.1-.3.1-.3.1-.3.1-.2.1-.2.1-.2.1-.2.1-.2.1-.2.1-.2.1-.2.1-.2.1-.2.1-.2.1-.2.1-.2.1-.2.1-.1.1-.2.1-.1.1H3.6l-.1.1H3.4l-.1.1H3.2l-.1.1H2.7l.1-.1H3l.1-.1.1-.1.1-.1.1-.1.1-.1.1-.1.1-.1.1-.1.1-.1.2-.1.2-.1.2-.1.2-.1.2-.1.2-.1.2-.1.2-.1.2-.1.2-.1.2-.1.2-.1.2-.1.2-.1.2-.1.2-.1.2-.1.2-.2.2-.2.2-.2.3-.2.3-.2.3-.2.3-.2.3-.2.3-.2.3-.2.3-.2.3-.2.3-.2.3-.2.3-.2.3-.2.3-.2.3-.2.3-.2.3-.2.3-.3.3-.2.3-.3.3-.3.3-.3.3-.3.3-.3.3-.3.4-.3.3-.3.4-.3.4-.3.4-.3.4-.3.4-.3.4-.3.4-.3.4-.3.4-.3.4-.3.4-.3.4-.3.4-.3.4-.4.4-.4.4-.4.4-.4.4-.4.4-.4.4-.4.4-.4.4-.4.4-.4.4-.4.4-.4.4-.4.4-.4.4-.4.4-.4.4-.4.4-.4.4-.4.4-.4.4-.5.5-.5.5-.4.5-.5.5-.5.5-.5.5-.5.5-.5.5-.5.5-.5.5-.5.5-.5.5-.5.5-.5.5-.5.5-.5.5-.5.5-.5.5-.5.5-.5.5-.5.5-.5.5-.5.5-.6.5-.5.5-.6.5-.6.5-.6.5-.6.5-.6.5-.6.5-.6.5-.6.5-.6.5-.6.5-.6.5-.6.5-.6.5-.6.5-.6.5-.6.5-.6.5-.6.5-.6.5-.6.5-.6.5-.6.5-.6.5-.6.5-.6.5-.7.5-.7.5-.7.5-.7.5-.7.5-.7.5-.7.5-.7.5-.7.5-.7.5-.7.5-.7.5-.7.5-.7.5-.7.5-.7.5-.7.5-.7.5-.7.5-.7.5-.7.5-.7.5-.7.5-.7.5-.7.5-.7.5-.7.5-.8.5-.7.5-.8.5-.8.4-.8.5-.8.4-.8.4-.8.5-.8.4-.8.4-.8.4-.8.4-.8.4-.8.4-.8.4-.8.4-.8.4-.8.4-.8.4-.8.4-.8.4-.8.4-.8.4-.8.4-.8.4-.8.4-.8.4-.8.4-.8.4-.8.4-.8.4-.8.4-.8.4-.8.4-.8.4-.8.4-.8.4-.8.4-.8.4-.8.4-.8.4-.8.4-.8.4-.8.4-.8.4-.8.3-.8.4-.8.3-.8.3-.8.3-.8.3-.8.3-.8.3-.8.3-.8.3-.8.3-.8.3-.8.3-.8.3-.8.3-.8.3-.8.3-.8.3-.8.3-.8.3-.8.3-.8.3-.8.3-.8.3-.8.3-.8.3-.8.3-.8.3-.8.3-.8.3-.8.3-.8.3-.8.3-.8.3-.8.2-.8.3-.8.2-.8.2-.8.2-.8.2-.8.2-.8.2-.8.2-.8.2-.8.2-.8.2-.8.2-.8.2-.8.2-.8.2-.8.2-.8.2-.8.2-.8.2-.8.2-.8.2-.8.2-.8.2-.8.2-.8.2-.8.2-.8.2-.7.2-.8.2-.7.2-.7.2-.7.1-.7.1-.7.1-.7.1-.7.1-.7.1-.7.1-.7.1-.7.1-.7.1-.7.1-.7.1-.7.1-.7.1-.7.1-.7.1-.7.1-.7.1-.7.1-.7.1-.7.1-.7.1-.7.1-.6.1-.6.1-.7.1-.6.1-.6.1-.6.1-.6.1-.6.1-.6.1-.6.1-.6v-.6l.1-.6V32.5l.1-.6V1.1h0V3.3l.1.2.1.2.1.2.1.2.1.2.1.2.1.2.1.2.1.2.1.2.1.2.1.2.1.2.1.2.1.3.1.3.1.3.1.3.1.3.1.3.1.3.1.3.1.3.1.3.1.3.1.3.1.3.1.3.1.3.1.3.1.3.1.3.2.4.1.3.2.4.2.4.2.4.2.4.2.4.2.4.2.4.2.4.2.4.2.4.2.4.2.4.2.4.2.4.2.4.2.4.2.4.2.4.2.4.2.4.2.4.2.5.2.4.2.4.2.5.3.5.3.5.3.5.3.5.3.5.3.5.3.5.3.5.3.5.3.5.3.5.3.5.3.5.3.5.3.5.3.5.3.5.3.5.3.5.3.5.3.5.3.5.3.5.3.5.3.6.4.5.3.6.4.6.4.6.4.6.4.6.4.6.4.6.4.6.4.6.4.6.4.6.4.6.4.6.4.6.4.6.4.6.4.6.4.6.4.6.4.6.4.6.4.6.4.6.4.6.5.6.5.6.5.6.5.6.5.6.5.6.5.6.5.6.5.6.5.6.5.6.5.6.5.6.5.6.5.6.5.6.5.6.5.6.5.6.5.6.5.6.5.6.5.6.5.6.5.6.5.6.6.6.6.6.6.6.6.6.6.6.6.6.6.6.6.6.6.6.6.6.6.6.6.6.6.6.6.6.6.6.6.6.6.6.6.6.6.6.6.6.6.6.6.6.6.6.6.6.6.6.6.6.6.6.6.6.6.6.7.6.6.6.7.6.6.6.7.6.7.6.7.6.7.6.7.6.7.6.7.6.7.6.7.6.7.6.7.6.7.6.7.6.7.6.7.6.7.6.7.6.7.6.7.6.7.6.7.6.7.6.7.5.7.6.7.6.7.5.7.5.7.5.7.5.7.5.7.5.7.5.7.5.7.5.7.5.7.5.7.5.7.5.7.5.7.5.7.5.7.5.7.5.7.5.7.5.7.5.7.5.7.5.7.5.7.5.7.5.7.5.7.5.7.5.7.5.7.5.7.5.7.5.7.5.7.4.7.5.7.4.7.4.7.4.7.4.7.4.7.4.7.4.7.4.7.4.7.4.7.4.7.4.7.4.7.4.7.4.7.4.7.4.7.4.7.4.7.4.7.4.7.4.7.4.7.4.7.4.7.4.7.4.7.3.7.4.7.3.7.4.7.3.7.3.7.3.7.3.7.3.7.3.7.3.7.3.7.3.7.3.7.3.7.3.7.3.7.3.7.3.7.3.7.3.7.3.7.3.7.3.7.3.7.3.6.3.7.3.6.3.6.3.6.2.6.2.6.2.6.2.6.2.6.2.6.2.6.2.6.2.6.2.6.2.6.2.6.2.6.2.6.2.6.2.6.2.6.2.6.2.6.2.6.2.6.2.5.2.5.2.5.2.5.2.5.2.5.2.5.1.5.1.5.1.5.1.5.1.5.1.5.1.5.1.5.1.5.1.5.1.5.1.5.1.5.1.5.1.5.1.4.1.5.1.4.1.4.1.4.1.4.1.4.1.4.1.4.1.4.1.4.1.4.1.4.1.4.1.4.1.4.1.4.1.4.1.4.1.3.1.3.1h.3l.3.1.3.1H289v.4h0"/></g></g></svg>