<svg xmlns="http://www.w3.org/2000/svg" viewBox="0 0 324.9 319.6"><defs><style>.cls-1{fill:none;stroke:#fff;stroke-width:2px;}</style></defs><g id="Layer_2" data-name="Layer 2"><g id="Layer_1-2" data-name="Layer 1"><path class="cls-1" d="M323.9,159.5h0v.6l-.1.1-.1.1-.1.1-.1.1-.1.1-.1.1-.1.1-.1.1-.1.1-.1.1-.1.1-.1.1-.1.1-.1.1-.1.1-.1.1-.2.1-.2.1-.2.1-.2.1-.2.1-.2.1-.2.1-.2.1-.2.1-.2.1-.2.1-.2.1-.2.1-.3.1-.3.1-.3.1-.3.1-.3.1-.3.1-.3.1-.3.1-.3.1-.3.1-.3.1-.3.1-.3.1-.3.1-.3.1-.3.1-.3.1-.4.1-.3.1-.4.1-.4.1-.4.1-.4.1-.4.1-.4.1-.4.1-.4.1-.4.1-.4.2-.4.2-.4.1-.4.2-.4.2-.5.2-.4.2-.5.2-.5.2-.5.2-.5.2-.5.2-.5.2-.5.2-.5.2-.5.2-.5.2-.4-.4-.5.2-.5.2-.5.2-.5.2-.5.2-.5.2-.5.2-.5.2-.5.2-.5.2-.6.2-.6.2-.6.2-.6.2-.6.3-.6.3-.6.3-.6.3-.6.3-.6.3-.6.3-.6.3-.6.3-.6.3-.6.3-.6.3-.6.3-.6.3-.6.3-.6.3-.6.3-.6.3-.6.3-.7.3-.6.3-.7.3-.7.3-.7.3-.7.3-.7.3-.7.3-.7.3-.7.3-.7.4-.7.4-.7.4-.7.4-.7.4-.7.4-.7.4-.7.4-.7.4-.7.4-.7.4-.7.4-.7.4-.7.4-.7.4-.7.4-.7.4-.7.4-.7.4-.7.4-.7.4-.7.4-.7.4-.7.4-.7.4-.7.4-.7.4-.7.4-.7.4-.7.5-.7.5-.7.5-.7.5-.7.5-.8.5-.7.5-.8.5-.7.5-.8.5-.7.5-.8.5-.8.5-.8.5-.8.5-.8.5-.8.5-.8.5-.8.5-.8.5-.8.5-.8.5-.8.5-.8.5-.8.5-.8.5-.8.5-.8.5-.8.5-.8.5-.8.5-.7.5-.8.5-.8.6-.7.6-.8.5-.7.6-.8.6-.7.6-.7.6-.8.6-.7.6-.7.6-.7.6-.7.6-.7.6-.7.6-.7.6-.7.6-.7.6-.7.6-.7.6-.7.6-.7.6-.7.6-.7.6-.7.6-.7.6-.7.6-.7.6-.7.6-.7.6-.7.6-.7.6-.7.6-.7.6-.7.6-.7.6-.7.6-.7.6-.7.6-.7.6-.7.6-.7.6-.7.6-.7.6-.7.6-.7.6-.7.6-.7.6-.7.6-.7.6-.7.6-.7.6-.7.6-.6.6-.7.7-.7.6-.6.6-.6.7-.6.6-.6.6-.6.6-.6.6-.6.7-.6.7-.6.7-.6.6-.6.6-.6.6-.6.6-.6.7-.6.7-.6.6-.6.6-.6.6-.6.6-.6.7-.6.6-.6.6-.6.6-.6.6-.6.6-.5.6-.6.6-.6.6-.5.6-.5.6-.5.6-.5.6-.5.6-.5.6-.5.6-.5.6-.5.6-.5.6-.5.6-.5,2.3-.5.6-.5.6-.5.6-.5.6-.5.6-.5.6-.5.6-.5.6-.5.6-.5.6-.5.6-.5.6-.5.6-.5.6-.4.6-.4.6-.4.6-.4.6-.4.6-.4.6-.4.6-.4.6-.4.6-.4.6-.4.6-.4.6-.4.6-.4.6-.4.6-.4.6-.4.6-.4.5-.4.5-.4.6-.4.5-.4.5-.4.5-.4.5-.3.5-.4.5-.3.5-.3.5-.3.5-.3.5-.3.5-.3.5-.3.5-.3.5-.3.5-.3.5-.3.5-.3.5-.3.5-.3.5-.3.5-.3.5-.3.5-.3.5-.3.4-.3.5-.3.4-.3.4-.3.4-.3.4-.3.4-.3.4-.2.4-.2.4-.2.4-.2.4-.2.4-.2.4-.2.4-.2.4-.2.4-.2.4-.2.4-.2.4-.2.4-.2.4-.2.3-.2.3-.2.3-.2.3-.2.3-.2.3-.2.3-.2.3-.2.3-.2.3-.2.3-.2.3-.2.3-.2.3-.1.3-.2.3-.2.2-.1.3-.2.2-.1.2-.1.2-.1.2-.1.2-.1.2-.1.2-.1.2-.1.2-.1.2-.1.2-.1.2-.1.2-.1.2-.1.2-.1.1-.1.1-.1.1-.1.1-.1.1-.1.1-.1.1-.1.1-.1.1-.1.1-.1.1-.1.1-.1.1-.1.1h-1.5l-.1-.1-.1-.1-.1-.1-.1-.1-.1-.1-.1-.1v-.1l-.1-.1v-.2l-.1-.1-.1-.1v-.6l-.1-.2v-.8l-.1-.2v-.8l-.1-.2v-1l-.1-.3-.1-.3v-.6l-.1-.3v-.6l-.1-.3-.1-.3.5-.1-.1-.3v-.3l-.1-.3-.1-.3-.1-.4-.1-.4-.1-.4-.1-.4-.1-.4-.1-.4-.1-.4-.1-.4-.1-.4-.1-.4-.1-.4-.1-.4-.1-.4-.1-.4-.1-.4-.1-.4-.1-.5-.1-.4-.1-.5-.1-.5-.1-.5-.1-.5-.1-.5-.1-.5-.1-.5-.1-.5-.1-.5-.1-.5-.1-.5-.1-.5-.1-.5-.1-.5.5-.5-.1-.5-.1-.6-.1-.5-.1-.6-.1-.6-.1-.6-.1-.6-.1-.6-.1-.6-.1-.6-.1-.6-.1-.6-.1-.6-.1-.6-.1-.6-.2-.6-.1-.6-.2-.6-.1-.6-.2-.6-.2-.6-.2-.6-.2-.6-.2-.7-.2-.7-.2-.7-.2-.7-.2-.7-.2-.7-.2-.7-.2-.7-.2-.7-.2-.7-.2-.7-.2-.7-.2-.7-.2-.7-.2-.7-.2-.7-.2-.7-.2-.7-.2-.7-.2-.7-.2-.7-.2-.7-.2-.7-.2-.8-.2-.7-.2-.8-.2-.8-.3-.8-.3-.8-.3-.8-.3-.8-.3-.8-.3-.8-.3-.8-.3-.8-.3-.8-.3-.8-.3-.8-.3-.8-.3-.8-.3-.8-.3-.8-.3-.8-.3-.8-.3-.8-.3-.8-.3-.8-.3-.8-.3-.8-.3-.8-.3-.8-.3-.8-.3-.8-.3-.8-.3-.8-.3-.8-.3-.8-.3-.8-.4-.8-.3-.8-.4-.8-.3-.8-.4-.8-.4-.8-.4-.8-.4-.8-.4-.8-.4-.8-.4-.8-.4-.8-.4-.8-.4-.8-.4-.8-.4-.8-.4-.8-.4-.8-.4-.8-.4-.8-.4-.8-.4-.8-.4-.8-.4-.8-.4-.8-.4-.8-.4-.8-.4-.8-.4-.8-.4-.8-.4-.8-.4-.8-.4-.8-.4-.8-.4-.8-.5-.8-.5-.8-.5-.8-.5-.8-.5-.8-.5-.8-.5-.8-.5-.8-.5-.8-.5-.8-.5-.8-.5-.8-.5-.8-.5-.8-.5-.8-.5-.8-.5-.8-.5-.8-.5-.8-.5-.8-.5-.8-.5-.8-.5-.8-.5-.8-.5-.8-.5-.8-.5-.8-.5-.8-.5-.8-.5-.8-.5-.8-.5-.8-.5-.8-.5-.8-.5-.8-.5-.8-.5-.8-.5-.8-.5-.8-.5-.8-.5-.8-.5-.8-.5-.8-.5-.8-.5-.7-.5-.7-.5-.7-.5-.7-.6-1.4-.5-.7-.5-.7-.5-.7-.5-.7-.5-.7-.5-.7-.5-.7-.5-.7-.5-.7-.5-.7-.5-.7-.5-.7-.5-.7-.5-.7-.5-.7-.5-.7-.5-.7-.5-.7-.5-.7-.5-.7-.5-.6-.5-.7-.5-.6-.5-.6-.5-.7-.5-.6-.5-.6-.5-.6-.5-.6-.5-.6-.5-.6-.5-.6-.5-.6-.5-.6-.5-.6-.5-.6-.5-.6-.5-.6-.5-.6-.5-.6-.5-.6-.5-.6-2-.6-.5-.6-.5-.6-.5-.5-.5-.6-.5-.5-.5-.5-.5-.5-.5-.5-.5-.5-.5-.5-.5-.5-.5-.5-.5-.5-.5-.5-.5-.5-.5-.5-.5-.5-.5-.5-.5-.5-.5-.5-.5-.5-.5-.5-.5-.5-.5-.5-.5-.5-.5-.5-.5-.4-.5-.4-.5-.4-.5-.4-.5-.4L34,126l-.5-.4-.4-.4-.5-.4-.4-.4-.4-.4-.4-.4-.4-.4-.4-.4-.4-.4-.4-.4-.4-.4-.4-.4-.4-.4-.4-.4-.4-.4-.4-.3-.4-.4-.4-.4-.4-.3-.4-.3-.4-.3-.4-.3-.4-.3-.4-.3-.4-.3-.4-.3-.4-.3-.3-.3-.4-.3-.3-.3-.3-.3-.3-.3-.3-.3-.3-.3-.3-.3-.3-.3-.3-.3-.3-.3-.3-.3-.3-.3-.3-.3-.3-.2-.4-.1-.3-.2-.3-.2-.3-.2-.3-.2-.3-.2-.3-.2-.3-.2-.2-.2-.2-.2-.2-.2-.2-.2-.2-.2-.2-.2-.2-.2-.2-.2-.2-.2-.2-.2-.2-.2-.2-.2-.2-.2-.2-.1-.2-.2-.2-.1-.2-.1-.1-.1-.1-.1-.1-.1-.1-.1-.1-.1-.1-.1-.1-.1-.1-.1-.1-.1-.1-.1-.1-.1-.1-.1-.1-.1-.1-.1-.1-.1-.1-.1-.1-.1V104h0l.1-.1.1-.1h.1l.1-.1H46.8l.7-.1h.7l.7-.1h.7l.7-.1.7-.1h.7l.7-.1.7-.1.7-.1.7-.1.7-.1.7-.1.7-.1.7-.1.7-.1.7-.1.7-.1.7-.1.7-.1.7-.1.8-.1.8-.1.8-.1.8-.1.8-.1.8-.1.8-.1.8-.1.8-.1.8-.1.8-.1.8-.1.8-.1.8-.1.8-.1.8-.1.8-.1.8-.1.8-.1.8-.1.8-.1.8-.1.8-.1.8-.1.8-.2.8-.2.8-.1.8-.2.8-.2.8-.2.8-.2.9-.2.8-.2.8-.2.9-.2.9-.2.9-.2.9-.2.9-.2.9-.2.9-.2L96,96l.9-.2.9-.2.9-.2.9-.2.9-.2.9-.2.9-.2.9-.2.9-.2.9-.2.9-.2.9-.2.9-.2.9-.2.9-.2.9-.3.9-.2.9-.3.9-.3.9-.3.9-.3.9-.3.9-.3.9-.3.9-.3.9-.3.9-.3.9-.3.9-.3.9-.3.9-.3.9-.3.9-.3.9-.3.9-.3.9-.3.9-.3.9-.3.9-.3.9-.3.9-.3.9-.3.9-.3.9-.3.9-.3.9-.3.9-.3.9-.3.9-.3.9-.3.9-.3.9-.3.9-.3.9-.3.9-.4.9-.4.9-.4.9-.3.9-.4.9-.4.9-.4.9-.4.9-.4.9-.4.9-.4.9-.4.8-.4.9-.4.8-.4.9-.4.8-.4.8-.4.8-.4.8-.4.8-.4.8-.4.8-.4.8-.4.8-.4.8-.4.8-.4.8-.4.8-.4.8-.4.8-.4.8-.4.8-.4.8-.4.8-.4.8-.4.8-.4.8-.4.8-.4.8-.4.8-.4.8-.4.8-.4.8-.4.8-.4.8-.4.8-.4.8-.4.8-.4.7-.4.7-.4.7-.4.7-.4.7-.4.7-.4.7-.4.7-.4.7-.4.7-.4.7-.4.7-.4.7-.4.7-.4.7-.4.7-.4.7-.4.7-.4.7-.4.7-.4.7-.4.7-.4.6-.4.7-.4.6-.4.6-.4.6-.4.6-.4.6-.4.6-.4.6-.4.6-.4.6-.4.6-.4.6-.4.6-.4.6-.4.6-.4.6-.4.6-.4.6-.4.6-.4.6-.4.6-.4.5-.4.5-.4.5-.4.5-.4.5-.4.5-.4.5-.4.5-.4.5-.4.5-.4.5-.4.5-.4.5-.4.5-.4.5-.4.5-.4.5-.4.5-.4.5-.4.4-.4.5-.4.4-.3.4-.3.4-.4.4-.3.4-.3.4-.3.4-.3.4-.3.4-.3.4-.3.4-.3.4-.3.4-.3.4-.3.4-.3.4-.3.4-.3.4-.3.3-.3.4-.3.3-.3.3-.3.3-.3.3-.3.3-.3.3-.3.3-.3.3-.3.3-.3.3-.3.3-.3.3-.3.3-.2.3-.2.3-.2.3-.2.3-.2.3-.2.3-.2.3-.2.2-.2.2-.2.2-.2.2-.2.2-.2.2-.2.2-.2.2-.2.2-.2.2-.2.2-.2.2-.1.2-.1.2-.1.2-.1.2-.1.2-.1.2-.1.2-.1.2-.1.2-.1.2-.1.2-.1.1-.1.1-.1.1-.1.1-.1.1-.1.1-.1.1-.1h.1l.1-.1h1.5l.1.1V28l-.1.3v.3l-.1.3-.1.3-.1.3-.1.3-.1.3-.1.4-.1.4-.1.4-.1.4-.1.4-.1.4-.1.4-.1.4-.1.4-.1.4-.1.4-.1.4-.1.4-.1.4-.1.4-.1.4-.1.4-.1.5-.1.5-.1.5-.1.5-.1.5-.1.5-.1.5-.1.5-.1.5-.1.5-.1.5-.1.5-.1.5-.1.5-.1.5-.1.6-.1.6-.1.6-.1.6-.1.6-.1.6-.1.6-.1.6-.1.6-.1.6-.1.6-.1.6-.1.6-.1.6-.1.6-.1.6-.1.6-.1.6-.1.6-.1.7-.1.7-.1.7-.1.7-.1.7-.1.7-.1.7-.1.7-.1.7-.1.7-.1.7-.1.7-.1.7-.1.7v.7l-.1.7v1.4l-.1.7v39.3l.1.9.1.9.1.9.1.9.1.9.1.9.1.9.1.9.1.9.1.9.1.9.1.9.1.9.1.9.1.9.1.9.1.9.1.9.1.9.1.9.1.9.1.9.1.9.1.9.1.9.1.9.1.9.1.9.1.9.1.9.1.9.1.9.1.9.1.9.1.9.1.9.2.9.1.9.2.9.2.9.2.9.2.9.2.9.2.9.2.9.2.9.2.9.2.9.2.9.2.9.2.9.2.9.2.9.2.9.2.9.2.9.2.9.2.9.2.9.2.9.2.9.2.9.2.9.2.9.2.9.2.9.2.9.2.9.2.9.2.9.2.9.2.9.2.9.2.9.2.9.2.9.2.9.3.9.2.9.3.9.3.9.3.9.3.9.3.9.3.9.3.9.3.9.3.9.3.9.3.8.3.8.3.8.3.8.3.8.3.8.3.8.3.8.3.8.3.8.3.8.3.8.3.8.3.8.3.8.3.8.3.8.3.8.3.8.3.8.3.8.3.8.3.8.3.8.3.8.3.8.3.8.3.7.3.7.3.7.3.7.3.7.3.7.3.7.3.7.3.7.3.7.3.7.3.7.3.7.3.7.3.7.3.7.3.7.3.7.3.7.3.7.3.7.3.6.3.6.3.6.3.6.3.6.3.6.3.6.3.6.3.6.3.6.3.6.3.6.3.6.3.6.3.6.3.6.3.6.3.6.3.6.3.5.3.5.3.5.3.5.3.5.3.5.3.5.3.5.3.5.3.5.3.5.3.5.3.5.3.5.3.5.3.5.3.5.3.5.3.4.3.5.2.4.3.4.2.4.2.4.2.4.2.4.2.4.2.4.2.4.2.4.2.4.2.4.2.4.2.4.2.4.2.4.2.4.2.4.2.3.2.3.2.3.2.3.2.3.2.3.2.3.2.3.2.3.2.3.2.3.2.3.2.3.2.3.1.3.2.3.1.3.1.3.1.2.1.2.1.2.1.2.1.2.1.2.1.2.1.2.1.2.1.2.1.2.1.2.1.2.1.2.1.2.1.2.1.2.1.1.1.1v.3l.1.1v1.6h0v.1h-3.2l-.2-.1-.2-.1-.2-.1-.2-.1-.2-.1-.2-.1-.2-.1-.2-.1-.2-.1-.2-.1-.3-.1-.3-.1-.3-.1-.3-.1-.3-.1-.3-.1-.3-.1-.3-.1-.3-.1-.3-.1-.3-.1-.3-.1-.3-.1-.3-.1-.3-.1-.3-.1-.3-.1-.4-.1-.4-.1-.4-.1-.4-.1-.4-.1-.4-.1-.4-.1-.4-.2-.4-.1-.4-.1-.4-.1-.4-.2-.4-.2-.4-.1-.4-.2-.4-.2-.4-.1-.5-.2-.5-.2-.5-.2-.5-.2-.5-.2-.5-.2-.5-.2-.5-.2-.5-.2-.5-.2-.5-.2-.5-.2-.5-.2-.5-.2-.5-.2-.5-.2-.5-.2-.6-.2-.6-.2-.6-.2-.6-.2-.6-.2-.6-.2-.6-.2-.6-.2-.6-.2-.6-.2-.6-.2-.6-.2-.6-.2-.6-.2-.6-.2-.6-.2-.6-.2-.6-.2-.7-.2-.7-.2-.7-.2-.7-.2-.7-.2-.7-.2-.7-.2-.7-.2-.7-.2-.7-.2-.7-.2-.7-.2-.7-.2-.7-.2-.7-.2-.7-.2-.7-.2-.7-.2-.7-.2-.7-.2-.8-.2-.8-.2-.8-.2-.8-.2-.8-.2-.8-.2-.8-.2-.8-.2-.8-.2-.8-.2-.8-.2-.8-.2-.8-.2-.8-.1-.8-.2-.8-.1-.8-.1-.8-.2-.8-.1-.8-.1-.8-.1-.8-.1-.8-.1-.8-.1-.8-.1-.8-.1-.8-.1-.9-.1-.8-.1-.9-.1-.9-.1-.9-.1-.9-.1-.9-.1-.9-.1-.9-.1-.9-.1-.9-.1-.9-.1-.9-.1-.9-.1-.9-.1-.9-.1-.9-.1-.9-.1-.9-.1-.9-.1-.9-.1-2.5-.5-.9-.1-.9-.1-.9-.1-.9-.1-.9-.1-.9-.1-.9-.1-.9-.1-.9-.1-.9-.1-.9-.1-.9-.1-.9-.1-.9-.1-.9-.1h-2.7l-.9-.1H145.3l-.9.1-.9.1-.9.1-.9.1-.9.1-.9.1-.9.1-.9.1-.9.1-.9.1-.9.1-.9.1-.9.1-.9.1-.9.1-.9.1-.9.1-.9.1-.9.1-.9.1-.9.1-.9.1-.9.1-.9.1-2.7.2-.9.1-.9.1-.9.1-.9.1-.9.1-.9.1-.9.1-.7.3-.9.1-.8.1-.8.1-.9.1-.8.1-.8.1-.8.1-.8.1-.8.1-.8.1-.8.1-.8.1-.8.1-.8.1-.8.1-.8.2-.8.2-.8.2-.8.2-.8.2-.8.2-.8.2-.8.2-.8.2-.8.2-.8.2-.8.2-.8.2-.8.2-.8.2-.7.2-.7.2-.7.2-.7.2-.7.2-.7.2-.7.2-.9.1-.7.2-.7.2-.7.2-.7.2-.7.2-.7.2-.7.2-.7.2-.7.2-.7.2-.7.2-.7.2-.6.2-.7.2-.6.2-.6.2-.6.2-.6.2-.6.2-.6.2-.6.2-.6.2-.6.2-.6.2-.6.2-.6.2-.6.2-.6.2-.6.2-.6.2-.5.2-.5.2-.5.2-.5.2-.5.2-.5.2-.5.2-.5.2-.5.2-.5.2-.5.2-.5.2-.5.2-.5.2-.5.2-.5.2-.5.2-.5.2-.5.2-.4.2-.4.1-.4.2-.4.1-.4.1-.4.1-.4.2-.4.1-.4.1-.4.1-.4.1-.4.1-.4.1-.4.1-.4.1-.3.1-.4.1-.3.1-.3.1-.3.1-.3.1-.3.1-.3.1-.3.1-.3.1-.3.1-.3.1-.3.1-.3.1-.3.1-.3.1-.3.1-.3.1-.3.1-.2.1-.2.1-.2.1-.2.1-.2.1-.2.1-.2.1h-.2l-.2.1-.2.1h-.2l-.2.1H38.3v-2l.1-.1.1-.2.1-.2.1-.2.1-.2.1-.2.1-.2.1-.2.1-.2.1-.2.1-.2.1-.2.1-.2.1-.2.1-.2.1-.2.1-.2.1-.2.1-.2.1-.2.1-.3.2-.3.1-.3.2-.3.2-.3.2-.3.2-.3.2-.3.2-.3.2-.3.2-.3.2-.3.2-.3.2-.3.2-.3.2-.3.2-.3.2-.3.2-.4.2-.4.2-.4.2-.4.2-.4.2-.4.2-.4.2-.4.2-.4.2-.4.2-.4.2-.4.2-.4.2-.4.2-.4.3-.4.2-.4.3-.4.3-.5.3-.4.3-.5.3-.5.3-.5.3-.5.3-.5.3-.5.3-.5.3-.5.3-.5.3-.5.3-.5.3-.5.3-.5.3-.5.3-.5.3-.5.3-.5.3-.6.3-.6.3-.6.3-.6.3-.6.3-.6.3-.6.3-.6.3-.6.3-.6.3-.6.3-.6.3-.6.3-.6.3-.6.3-.6.3-.6.3-.6.3-.6.3-.6.3-.7.3-.7.3-.7.3-.7.3-.7.3-.7.3-.7.3-.7.3-.7.3-.7.3-.7.3-.7.3-.7.3-.7.3-.7.3-.7.3-.7.3-.7.3-.7.3-.7.3-.7.3-.8.3-.8.3-.8.3-.8.3-.8.3-.8.3-.8.3-.8.3-.8.3-.8.3-.8.3-.8.3-.8.3-.8.3-.8.3-.8.3-.8.3-.8.3-.8.3-.8.3-.8.3-.8.3-.8.3-.8.3-.8.3-.8.3-.9.3-.8.3-.9.3-.8.3-.9.3-.9.3-.9.3-.9.3-.9.3-.9.3-.9.3-.9.2-.9.2-.9.3-.9.2-.9.2-.9.2-.9.2-.9.2-.9.2-.9.2-.9.2-.9.2-.9.2-.9.2-.9.2-.9.2-.9.2-.9.2-.9.2-.9.2-.9.2-.9.2-.9.2-.9.2-.9.2-.9.2-.9.2-.9.2-.9.2-.9.2-.9.2-.9.2-.9.2-.9.2-.9.2-.9.2-.9.2-.9.2-.9.2-.9.2-.9.2-.9.1-.9.1-.9.2-.9.1-.9.1-.9.1-.9.1-.9.1-.9.1-.9.1-.9.1-.9.1-.9.1-.9.1-.9.1-.9.1-.9.1-.9.1-.9.1-.9.1-.9.1-.9.1-.9.1-.9.1-.9.1-.9.1-.9.1-.9.1-.9.1-.9.1-.9.1-.9.1-.9.1-.9.1-.9.1-.9v-.9l.1-.9V68l-.1-.7V65.9l-.1-.7-.1-.7v-.7l-.1-.7-.1-.7-.1-.7-.1-.7-.1-.7-.1-.7-.1-.7-.1-.7-.1-.7-.1-.7-.1-.7-.1-.7-.1-.6-.1-.6-.1-.6L87,53l-.1-.6-.1-.6-.1-.6-.1-.6-.1-.6-.1-.6-.1-.6-.1-.6-.1-.6L86,47l-.1-.6-.1-.6-.1-.6-.1-.6-.1-.6-.1-.5-.1-.5-.1-.5-.1-.5-.1-.5-.1-.5-.1-.5-.1-.5L84,38.7l-.1-.5-.1-.5-.1-.5-.1-.5-.1-.5-.1-.5-.1-.4-.1-.4-.1-.4-.1-.4-.1-.4-.1-.4-.1-.4-.1-.4-.1-.4-.1-.4-.1-.4-.1-.4-.1-.4-.1-.4-.1-.4-.1-.4-.1-.4-.1-.3-.1-.3-.1-.3-.1-.3-.1-.3-.1-.3V25.9l-.1-.3V19.3h1.4l.1.1.1.1.1.1.1.1.1.1.1.1.1.1.1.1.1.1.2.1.1.1.1.1.2.1.2.1.2.1.2.1.2.1.2.1.2.1.2.1.2.1.2.2.2.2.2.2.2.2.2.2.2.2.2.2.2.2.2.2.2.2.2.2.2.2.3.2.3.2.3.2.3.2.3.2.3.2.3.2.3.2.3.2.3.3.3.3.3.3.3.3.3.3.3.3.3.3.3.3.3.3.3.3.3.3.3.3.3.3.4.3.4.3.4.3.4.3.4.3.4.3.4.3.4.3.4.3.4.3.4.3.4.3.4.3.4.3.4.3.4.4.4.3.5.4.5.3.5.4.5.4.5.4.5.4.5.4.5.4.5.4.5.4.5.4.5.4.5.4.5.4.5.4.5.4.5.4.5.4.5.4.5.4.5.4.6.4.5.4.6.4.6.4.6.4.6.4.6.4.6.4.6.4.6.4.6.4.6.4.6.4.6.4.6.4.6.4.6.4.6.4.6.4.6.4.6.4.6.4.7.4.7.4.7.4.7.4.7.4.7.4.7.4.7.4.7.4.7.4.7.4.7.4.7.4.7.4.7.4.7.4.7.4.7.4.7.4.7.4.7.4.7.4.7.4.7.4.8.4.8.4.8.4.8.4.8.4.8.4.8.4.8.4.8.4.8.4.8.4.8.4.8.4.8.4.8.4.8.4.8.4.8.4.8.4.8.4.8.4.8.4.8.4.8.4.8.4.8.4.8.4.8.4.8.4.8.4.8.4.8.4.8.4.8.4.8.4.9.4.8.4.9.4.9.4.9.4.9.4.9.4.9.4.9.4.9.3.9.4.9.4.9.4.9.3.9.3.9.3.9.3.9.3.9.3.9.3.9.3.9.3.9.3.9.3.9.3.9.3.9.3.9.3.9.3.9.3.9.3.9.3.9.3.9.3.9.3.9.3.9.3.9.3.9.3.9.3.9.3.9.3.9.3.9.3.9.3.9.3.9.3.9.3.9.3.9.3.9.3.9.2.9.2.9.2.9.2.9.2.9.2.9.2.9.2.9.2.9.2.9.2.9.2.9.2.9.2.9.2.9.2.9.2.9.2.9.2.9.2.9.2.9.2.8.2.9.2.9.2.8.2.9.2.8.2.8.2.8.2.8.2.8.2.8.1.8.1.8.1.8.1.8.1.8.1.8.1.8.1.8.1.8.1.8.1.8.1.8.1.8.1.8.1.8.1.8.1.8.1.8.1.8.1.8.1.8.1.8.1.8.1.8.1.8.1.8.1.7.1.7.1.7.1.7.1.7.1.7.1.7.1.7.1.7.1.7.1.7.1.7.1h.7l.7.1h.7l.7.1h.7l.7.1h36.8l.1.1h.2v.2h0v1.4l-.1.1-.1.1-.1.1-.1.1-.1.1-.1.1-.1.1-.1.1-.1.1-.1.1-.1.1-.1.1-.1.1-.1.1-.1.1-.1.1-.1.1-.2.1-.2.1-.2.2-.2.2-.2.2-.2.2-.2.2-.2.2-.2.2-.2.2-.2.2-.2.2-.2.2-.2.2-.2.2-.2.2-.3.2-.3.2-.3.2-.3.2-.3.2-.3.2-.3.2-.9,1.4-.3.2-.3.2-.3.3-.3.3-.3.3-.3.3-.3.3-.3.3-.3.3-.3.3-.3.3-.3.3-.3.3-.4.3-.3.3-.4.3-.4.3-.4.3-.4.3-.4.3-.4.3-.4.3-.4.3-.4.3-.4.3-.4.4-.4.4-.4.3-.4.4-.4.4-.4.4-.4.4-.4.4-.4.4-.4.4-.4.4-.4.4-.4.4-.4.4-.4.4-.5.4-.5.4-.5.4-.5.4-.5.4-.5.4-.5.4-.5.4-.5.5-.5.5-.5.5-.5.5-.5.5-.5.5-.5.5-.5.5-.5.5-.5.5-.5.5-.5.5-.5.5-.5.5-.5.5-.5.5-.5.5-.5.5-.5.5-.5.5-.5.5-.5.5-.5.5-.5.6-.5.6-.5.6-.4.3-.5.6-.5.6-.5.6-.5.6-.5.6-.5.6-.5.6-.5.6-.5.6-.5.6-.5.6-.5.6-.5.6-.5.6-1,.6-.5.6-.5.6-.5.6-.5.6-.5.6-.5.6-.5.7-.5.7-.5.7-.5.7-.5.7-.5.7-.5.7-.5.7-.5.7-.5.7-.5.7-.5.7-.5.7-.5.7-.5.7-.5.7-.5.7-.5.7-.5.7-.5.7-.5.7-.5.7-.5.7-.5.7-.5.7-.5.7-.5.7-.5.7-.5.8-.5.8-.5.8-.5.8-.5.8-.5.8-.5.8-.5.8-.5.8-.5.8-.5.8-.5.8-.5.8-.5.8-2,.6-.5.8-.5.8-.5.8-.5.8-.5.8-.5.8-.5.8-.5.8-.5.8-.5.8-.5.8-.5.8-.5.8-.5.8-.5.8-.5.8-.5.8-.5.8-.5.8-.5.8-.5.8-.5.8-.5.8-.5.8-.5.8-.4.8-.5.8-.5.8-.4.8-.4.8-.4.8-.4.8-.4.8-.4.8-.4.8-.4.8-.4.8-.4.8-.4.8-.4.8-.4.8-.4.8-.4.8-.4.8-.4.8-.4.8-.4.8-.4.8-.4.8-.4.8-.4.8-.4.8-.4.8-.4.8-.4.8-.4.8-.4.8-.4.8-.4.8-.3.8-.4.8-.3.8-.3.8-.3.8-.3.8-.3.8-.3.8-.3.8-.3.8-.3.8-.3.8-.3.8-.3.8-.3.8-.3.8-.3.8-.3.8-.3.8-.3.8-.3.8-.3.8-.3.8-.3.8-.3.8-.3.8-.3.8-.3.8-.3.8-.3.8-.3.8-.3.8-.3.8-.3.8-.3.8-.2.8-.2.8-.2.7-.2.7-.2.7-.2.7-.2.7-.2.7-.2.7-.2.7-.2.7-.2.7-.2.7-.2.7-.2.7-.2.7-.2.7-.2.7-.2.7-.2.7-.2.7-.2.7-.2.7-.2.7-.2.7-.2.7-.2.7-.2.6-.2.6-.2.7-.2.6-.2.6-.2.6-.1.6-.2.6-.1.6-.1.6-.1.6-.1.6-.1.6-.1.6-.1.6-.1.6-.1.6-.1.6-.1.6-.1.6-.1.6-.1.5.2,1.5-.1.5-.1.5-.1.5-.1.5-.1.5-.1.5-.1.5-.1.5-.1.5-.1.5-.1.5-.1.5-.1.5-.1.5-.1.5-.1.5-.1.5-.1.4-.1.4-.1.4-.1.4-.1.4-.1.4-.1.4-.1.4-.1.4-.1.4-.1.4-.1.4-.1.4-.1.4-.1.4-.1.4-.1.3-.1.3-.1.3v.3l-.1.3-.1.3-.1.3-.1.3v.9l-.1.3v.3l-.1.3v.9l-.1.2v.8l-.1.2v.8l-.1.1v.4l-.1.1-.1.1v.2l-.1.1v.1l-.1.1v.1l-.1.1-.1.1-.1.1h-.1l-.1.1h-1.5l-.1-.1-.1-.1-.1-.1-.1-.1-.1-.1-.1-.1-.1-.1-.1-.1-.1-.1-.1-.1-.1-.1-.1-.1-.1-.1-.1-.1-.1-.1-.1-.2-.1-.2-.1-.2-.1-.2-.1-.2-.1-.2-.1-.2-.1-.2-.1-.2-.1-.2-.1-.2-.1-.2-.1-.2-.1-.2-.1-.2-.2-.3-.1-.3-.2-.3-.2-.3-.2-.3-.2-.3-.2-.3-.2-.3-.2-.3-.2-.3-.2-.3-.2-.3-.2-.3-.2-.3-.2-.3-.2-.3-.2-.3-.2-.4-.2-.4-.2-.4-.2-.4-.2-.4-.2-.4-.2-.4-.2-.4-.2-.4-.2-.4-.2-.4-.2-.4-.2-.4-.2-.4-.3-.4-.3-.4-.3-.4-.3-.4-.3-.4-.3-.4-.3-.5-.3-.4-.3-.5-.3-.5-.3-.5-.3-.5-.3-.5-.3-.5-.3-.5-.3-.5-.3-.5-.3-.5-.3-.5-.3-.5-.3-.5-.3-.5-.3-.5-.3-.5-.3-.5-.3-.5-.3-.5-.4-.5-.3-.5-.4-.5-.4-.5-.4-.6-.4-.5.4-.6-.4-.6-.4-.6-.4-.6-.4-.6-.4-.6-.4-.6-.4-.6-.4-.6-.4-.6-.4-.6-.4-.6-.4-.6-.4-.6-.4-.6-.4-.6-.4-.6-.4-.6-.4-.6-.5-.6-.5-.6-.5-.6-.5-.6-.5-.6-.5-.6-.5-.6-.5-.6-.5-.6-.5-.6-.5-.6-.5-.6-.5-.6-.5-.6-.5-.6-.5-.6-.5-.6-.5-.6-.5-.6-.5-.6-.5-.6-.5-.6-.5-.6-.5-.6-.5-.6-.6-.6-.5-.6-.5-.6-.6-.6-.6-.6-.6-.6-.6-.6-.6-.6-.6-.7-.6-.6-.6-.6-.6-.6-.6-.6-.6-.7-.6-.6-.6-.6-.6-.6-.6-.7-.6-.6-.6-.6-.6-.7-.6-.6-.6-.6-.6-.7-.6-.6-.6-.6-.6-.7-.6-.6-.6-.6-.6-.6-.7-.7-.6-.6-.7-.6-.7-.7-.7-.6-.7-.6-.7-.6-.7-.6-.7-.6-.7-.6-.7-.6-.7-.6-.7-.6-.7-.6-.7-.6-.7-.6-.7-.6-.7-.6-.7-.6-.7-.6-.7-.6-.7-.6-.7-.6-.7-.6-.7-.6-.7-.6-.7-.6-.7-.6-.7-.6-.7-.6-.7-.6-.7-.6-.7-.6-.7-.6-.7-.6-.7-.6-.7-.6-.7-.6-.7-.6-.7-.6-.7-.6-.7-.6-.7-.6-.7-.6-.7-.6-1.1-2.4-.7-.6-.7-.6-.8-.6-.7-.6-.8-.6-.7-.5-.8-.6-.8-.5-.7-.5-.8-.6-.8-.5-.8-.5-.8-.5-.8-.5-.8-.5-.8-.5-.8-.5-.8-.5-.8-.5-.8-.5-.8-.5-.8-.5-.8-.5-.8-.5-.8-.5-.8-.5-.8-.5-.8-.5-.7-.5-.8-.5-.8-.5-.7-.5-.8-.5-.7-.5-.8-.5-.7-.5-.7-.5-.7-.5-.7-.5-.7-.5-.7-.4-.7-.4-.7-.4-.7-.4-.7-.4-.7-.4-.7-.4-.7-.4-.7-.4-.7-.4-.7-.4-.7-.4-.7-.4-.7-.4-.7-.4-.7-.4-.7-.4-.7-.4-.7-.4-.7-.4-.7-.4-.7-.4-.7-.4-.7-.4-.7-.4-.7-.4-.7-.4-.7-.4-.7-.4-.7-.4-.7-.3-.7-.3-.7-.3-.7-.3-.7-.3-.7-.3-.7-.3-.7-.3-.6-.3-.7-.3-.6-.3-.6-.3-.6-.3-.6-.3-.6-.3-.6-.3-.6-.3-.2-.2-.6-.3-.6-.3-.6-.3-.6-.3-.6-.3-.6-.3-.6-.3-.6-.3-.6-.3-.6-.2-.6-.3-.6-.2-.6-.2-.6-.2-.6-.2-.5-.2-.5-.2-.5-.2-.5-.2-.5-.2-.5-.2-.5-.2-.5-.2-.5-.2-.5-.2-.5-.2-.5-.2-.5-.2-.5-.2-.5-.2-.5-.2-.5-.2-.5-.2-.5-.2-.5-.2-.5-.2-.4-.2-.5-.2-.4-.2-.4-.2-.4-.2-.4.2-.4-.1-.4-.1-.4-.2-.4-.1-.4-.1-.4-.1-.4-.1-.4-.1-.4-.1-.4-.1-.4-.1-.3-.1-.3-.1-.3-.1-.3-.1-.3-.1-.3-.1-.3-.1-.3-.1-.3-.1-.3-.1-.3-.1-.3-.1-.3-.1-.3-.1-.3-.1-.3-.1-.3-.1-.3-.1-.2-.1-.2-.1-.2-.1-.2-.1-.2-.1-.2-.1-.2-.1-.2-.1-.2-.1-.2-.1-.2-.1-.2-.1-.2-.1-.1-.1-.2-.1-.1-.1-.1-.1-.1-.1-.1-.1-.1-.1-.1-.1-.1-.1-.1-.1-.1-.1-.1-.1-.1-.1-.1-.1v-.1l-.1-.1v-1.4l.1-.1.1-.1.1-.1.1-.1.1-.1.1-.1.1-.1.1-.1.1-.1.1-.1.1-.1.1-.1.1-.1.1-.1.1-.1.2-.1.2-.1.2-.1.2-.1.2-.1.2-.1.2-.1.2-.1.2-.1.2-.1.2-.1.2-.1.2-.1.2-.1.3-.1.3-.1.3-.1.3-.1.3-.1.3-.1.3-.1.3-.1.3-.1.3-.1.3-.1.3-.1.3-.1.3-.1.3-.1.3-.1.4-.1.3-.1.4-.1.4-.1.4-.1.4-.1.4-.1.4-.1.4-.1.4-.1.4-.2.4-.1.4-.1.4-.1.4-.2.4-.2.4-.2.4-.2.4-.2.5-.2.5-.2.5-.2.5-.2.5-.2.5-.2.5-.2.5-.2.5-.2.5-.2.5-.2.5-.2.5-.2.5-.2.5-.2.5-.2.5-.2.5-.2.5-.2.5-.2.6-.2.6-.2.6-.2.6-.2.6-.3.6-.2.6-.3.6-.3.6-.3.6-.3.6-.3.6-.3.6-.3.6-.3.6-.3.6-.3.6-.3.6-.3.6-.3.6-.3.6-.3.6-.3.6-.3.6-.3.7-.3.7-.3.7-.3.7-.3.7-.3.7-.3.7-.3.7-.3.7-.3.7-.3.7-.4.7-.4.7-.4.7-.4.7-.4.7-.4.7-.4.7-.4.7-.4.7-.4.7-.4.7-.4.7-.4.7-.4.7-.4.7-.4.7-.4.7-.4.7-.4.7-.4.7-.4.7-.4.7-.4.7-.4.7-.4.7-.4.7-.4.7-.4.7-.4.7-.5.7-.4.7-.5.7-.5.7-.5.7-.5.8-.5.7-.5.8-.5.7-.5.8-.5.8-.5.8-.5.7-.5.8-.5.8-.5.8-.5.8-.5.8-.5.8-.5.8-.5.8-.5.8-.5.8-.5.8-.5.8-.5.8-.5.7-.5.8-.5.8-.5.8-.5.8-.5.8-.6.7-.5.8-.6.8-.6.7-.6.7-.6.8-.6.7-.6.7-.6.7-.6.7-.6.7-.6.7-.6.7-.6.7-.6.7-.6.7-.6.7-.6.7-.6.7-.6.7-.6.7-.6.7-.6.7-.6.7-.6.7-.6.7-.6.7-.6.7-.6.7-.6.7-.6.7-.6.7-.6.7-.6.7-.6.7-.6.7-.6.7-.6.7-.6.7-.6.7-.6.7-.6.7-.6.7-.6.7-.6.7-.6.7-.6.7-.6.7-.6.7-.6.7-.7.7-.6.7-.6.6-.7.7-.6.7-.6.6-.6.6-.7.6-.6.6-.6.6-.6.6-.6.6-.7.6-.6.6-.7.6-.6.6-.6.6-.6.6-.7.6-.6.6-.7.6-.6.6-.6.6-.6.6-.6.6-.7.6-.6.6-.6.6-.6.6-.6.6-.6.6-.6.6-.6.5-.6.5-.6.5-.7.5-.6.5-.6.5-.6.5-.6.5-.6.5-.6.5-.6.5-.6.5-.6.5-.6.5-.6.5-.6.5-.6.5-.6.5-.6.5-.6.5-.6.5-.6.5-.6.5-.6.5-.6.5-.6.5-.6.4-.6.4-.6.4-.6.4-.6.4-.6.4-.6.4-.6.4-.6.4-.6.4-.6.4-.6.4-.6.4-.6.4-.6.4-.6.4-.6.4-.6.4-.6.4-.6.4-.6.4-.6.4-.5.4-.6.3-.5.3-.5.4-.5.3-.5.3-.5.3-.5.3-.5.3-.5.3-.5.3-.5.3-.5.3-.5.3-.5.3-.5.3-.5.3-.5.3-.5.3-.5.3-.5.3-.5.3-.5.3-.5.3-.4.3-.4.3-.4.3-.4.3-.4.3-.4.3-.4.2-.4.2-.4.2-.4.2-.4.2-.4.2-.4.2-.4.2-.4.2-.4.2-.4.2-.4.2-.4.2-.3.2-.4.2-.3.2-.3.2-.3.2-.3.2-.3.2-.3.2-.3.2-.3.2-.3.2-.3.2-.3.2-.3.2-.3.2-.3.2-.3.1-.3.2-.3.1-.3.1-.2.1-.2.1-.2.1-.2.1-.2.1-.2.1-.2.1-.2.1-.2.1-.2.1-.2.1-.2.1-.2.1-.2.1-.1.1-.2.1-.1.1-.1.1-.1.1-.1.1-.1.1-.1.1-.1.1-.1.1-.1.1-.1.1-.1.1-.1.1-.1.1-.1.1-.1h1.3l.1.1.1.1.1.1.1.1.1.1.1.1.1.1.1.1V2l.1.1v.1l.1.1.1.1v.5l.1.2v.8l.1.2v.8l.1.2V6.2l.1.3v.3l.1.3v.6l.1.3v.3l.1.3.1.3v.3l.1.3.1.3.1.3.1.4.1.4.1.4.1.4.1.4.1.4.1.4.1.4.1.4.1.4.1.4.1.4.1.4.1.4.1.4.1.4.1.4.1.4.1.5.1.5.1.5.1.5.1.5.1.5.1.5.1.5.1.5.1.5.1.5.1.5.1.5.1.5.1.5.1.6.1.6.1.6.1.6.1.6.1.6.1.6.1.6.1.6.1.6.1.6.1.6.1.6.1.6.2.6.1.6.1.6.2.6.2.6.2.6.2.6.2.7.2.6.2.7.2.7.2.7.2.7.2.7.2.7.2.7.2.7.2.7.2.7.2.7.2.7.2.7.2.7.2.7.2.7.2.7.2.7.2.7.2.7.2.7.2.7.2.7.2.7.2.8.2.8.2.8.3.8.3.8.3.8.3.8.3.8.3.8.3.8.3.8.3.8.3.8.3.8.3.8.3.8.3.8.3.8.3.8.3.8.3.8.3.8.3.8.3.8.3.8.3.8.3.8.3.8.3.8.3.8.3.8.3.8.3.8.3.8.3.8.4.8.3.8.3.8.4.8.4.8.4.8.4.8.4.8.4.8.4.8.4.8.4.8.4.8.4.8.4.8.4.8.4.8.4.8.4.8.4.8.4.8.4.8.4.8.4.8.4.8.4.8.4.8.4.8.4.8.4.8.4.8.4.8.4.8.4.8.4.8.5.8.5.8.5.8.4.8.5.8.5.8.5.8.5.8.5.8.5.8.5.8.5.8.5.8.5.8.5.8.5.8.5.8.5.8.5.8.5.8.5.8.5.8.5.8.5.8.5.8.5.8.5.8.5.8.5.8.5.8.5.8.5.8.5.8.5.8.5.8.5.8.5.8.5.8.5.8.5.8.5.8.5.8.5.7.5.7.5.7.5.7.5.7.5.7.5.7.5.7.5.7.5.7.5.7.5.7.5.7.5.7.5.7.5.7.5.7.5.7.5.7.5.7.5.7.5.7.5.7.5.7.5.7.5.7.5.7.5.7.5.6.5.6.5.6.5.6.5.6.5.6.5.6.5.6.5.6.5.6.5.6.5.6.5.6.5.6.5.6.5.6.5.6.5.6.5.6.5.6.5.6.5.6.5.6.5.5.5.6.5.5.5.5.5.5.5.5.5.5.5.5.5.5.5.5.5.5.5.5.5.5.5.5.5.5.5.5.5.5.5.5.5.5.5.5.5.5.5.5.5.5.5.4.5.5.5.4.5.4.5.4.5.4.5.4.5.4.5.4.4.4.4.4.4.4.4.4.4.4.4.4.4.4.4.4.4.4.4.4.4.4.4.4.4.4.4.3.4.4.4.4.4.3.4.3.4.3.4.3.4.3.4.3.4.3.4.3.4.3.3.3.3.3.4.3.3.3.3.3.3.3.3.3.3.3.3.3.3.3.3.3.3.3.3.3.3.2.3.2.3.2.3.2.3.2.3.2.3.2.3.2.3.2.3.2.2.2.2.2.2.2.2.2.2.2.2.2.2.2.2.2.2.2.2.2.2.2.2.2.2.2.2.2.2.1.2.2.1.1.2.1.2.1.1.1.1.1.1.1.1.1.1.1.1.1.1.1.1.1.1.1.1.1.1.1.1.1.1.1.1.1.1.1v1.5l-.1.1h0l-.1.1H276.3l-.7.1h-.7l-.7.1-.7.1h-.7l-.7.1-.7.1-.7.1-.7.1-.7.1-.7.1-.7.1-.7.1-.7.1-.7.1-.7.1-.7.1-.8.1-.8.1-.8.1-.8.1-.8.1-.8.1-.8.1-.8.1-.8.1-.8.1-.8.1-.8.1-.8.1-.8.1-.8.1-.8.1-.8.1-.8.1-.8.1-.8.1-.8.1-.8.1-.8.1-.8.1-.8.1-.8.1-.8.1-.8.2-.8.2-.8.2-.8.2-.8.2-.8.2-.9.2-.8.2-.9.2-.8.2-.9.2-.9.2-.9.2-.9.2-.9.2-.9.2-.9.2-.9.2-.9.2-.9.2-.9.2-.9.2-.9.2-.9.2-.9.2-.9.2-.9.2-.9.2-.9.2-.9.2-.9.2-.9.3-.9.3-.9.3-.9.3-.9.3-.9.3-.9.3-.9.3-.9.3-.9.3-.9.3-.9.3-.9.3-.9.3-.9.3-.9.3-.9.3-.9.3-.9.3-.9.3-.9.3-.9.3-.9.3-.9.3-.9.3-.9.3-.9.3-.9.3-.9.3-.9.3-.9.3-.9.3-.9.3-.9.3-.9.3-.9.3-.9.3-.9.3-.9.3-.9.4-.9.4-.9.4-.9.3-.9.4-.9.4-.9.4-.9.4-.9.4-.8.4-.9.4-.9.4-.8.4-.9.4-.8.4-.8.4-.8.4-.8.4-.8.4-.8.4-.8.4-.8.4-.8.4-.8.4-.8.4-.8.4-.8.4-.8.4-.8.4-.8.4-.8.4-.8.4-.8.4-.8.4-.8.4-.8.4-.8.4-.8.4-.8.4-.8.4-.8.4-.8.4-.8.4-.8.4-.8.4-.8.4-.8.4-.8.4-.7.4-.8.4-.7.4-.7.4-.7.4-.7.4-.7.4-.7.4-.7.4-.7.4-.7.4-.7.4-.7.4-.7.4-.7.4-.7.4-.7.4-.7.4-.7.4-.7.4-.7.4-.7.4-.7.4-.6.4-.7.4-.6.4-.6.4-.6.4-.6.4-.6.4-.6.4-.6.4-.6.4-.6.4-.6.4-.6.4-.6.4-.6.4-.6.4-.6.4-.6.4-.6.4-.6.4-.6.4-.5.4-.5.4-.5.4-.5.4-.5.4-.5.4-.5.4-.5.4-.5.4-.5.4-.5.4-.5.4-.5.4-.5.4-.5.4-.5.4-.5.4-.5.4-.5.4-.5.4-.5.4-.5.3-.4.4-.4.3.7,1.2-.4.3-.4.3-.4.3-.4.3-.4.3-.4.3-.4.3-.4.3-.4.3-.4.3-.4.3-.4.3-.4.3-.4.3-.4.3-.3.3-.3.3-.3.3-.3.3-.3.3-.3.3-.3.3-.3.3-.3.3-.3.3-.3.3-.3.3-.3.2-.3.3-.3.2-.3.2-.3.2-.3.2-.3.2-.3.4-.3.2-.3.2-.2.2-.2.2-.2.2-.2.2-.2.2-.2.2-.2.2-.2.2-.2.2-.2.2-.2.2-.2.2-.2.1-.2.1-.2.1-.2.1-.2.1-.2.1-.2.1-.2.1-.1.1-.2.1-.1.1-.1.1-.1.1-.1.1-.1.1-.1.1-.1.1-.1.1h-.1l-.1.1H81.6v-6.5l.1-.3v-1.2l.1-.3.1-.3.1-.3.1-.3.1-.3.1-.4.1-.4.1-.4.1-.4.1-.4.1-.4.1-.4.1-.4.1-.4.1-.4.1-.4.1-.4.1-.4.1-.4.1-.4.1-.4.1-.4.1-.5.1-.5.1-.5.1-.5.1-.5.1-.5.1-.5.1-.5.1-.5.1-.5.1-.5.1-.5.1-.5.1-.5.1-.5.1-.5.1-.6.1-.5.1-.6.1-.6.1-.6.1-.6.1-.6.1-.6.1-.6.1-.6.1-.6.1-.6.1-.6.1-.6.1-.6.1-.6.1-.6.1-.6.1-.6.1-.6.1-.7.1-.7.1-.7.1-.7.1-.7.1-.7.1-.7.1-.7.1-.7.1-.7v-.7l.1-.7.1-.7V252l.1-.7V249l.1-.8V212.8l-.1-.9-.1-.9v-.9l-.1-.9-.1-.9-.1-.9-.1-.9-.1-.9-.1-.9-.1-.9-.1-.9-.1-.9-.1-.9-.1-.9-.1-.9-.1-.9-.1-.9-.1-.9-.1-.9-.1-.9-.1-.9-.1-.9-.1-.9-.1-.9-.1-.9-.1-.9-.1-.9-.1-.9-.1-.9-.1-.9-.1-.9-.1-.9-.1-.9-.1-.9-.1-.9-.1-.9-.2-.9-.2-.9-.1-.9-.2-.9-.1-.9-.2-.9-.2-.9-.2-.9-.2-.9-.2-.9-.2-.9-.2-.9-.2-.9-.2-.9-.2-.9-.2-.9-.2-.9-.2-.9-.2-.9-.2-.9-.2-.9-.2-.9-.2-.9-.2-.9-.2-.9-.2-.9-.2-.9-.2-.9-.2-.9-.2-.9-.2-.9-.2-.9-.2-.9-.2-.9-.2-.9-.2-.9-.2-.9-.2-.9-.2-.9-.2-.9-.2-.9-.2-.9-.3-.9-.2-.9-.3-.9-.3-.9-.3-.9-.3-.9-.3-.9-.3-.9-.3-.9-.3-.9-.3-.8-.3-.8-.3-.8-.3-.8-.3-.8-.3-.8-.3-.8-.3-.8-.3-.8-.3-.8-.3-.8-.3-.8-.3-.8-.3-.8-.3-.8-.3-.8-.3-.8-.3-.8-.3-.8-.3-.8-.3-.8-.3-.8-.3-.8-.3-.8-.3-.8-.3-.8-.3-.8-.3-.8-.3-.7-.3-.8L65,109l-.3-.7-.3-.7-.3-.7-.3-.7-.8-1.5-.3-.7-.3-.7-.3-.7-.3-.7-.3-.7-.3-.7-.3-.7-.3-.7-.3-.7-.3-.7-.3-.7-.3-.7-.3-.6-.3-.6-.3-.6-.3-.6-.3-.6-.3-.6-.3-.6-.3-.6-.3-.6-.3-.6-.3-.6-.3-.6-.3-.6-.3-.6-.3-.6-.3-.6-.3-.6-.3-.6-.3-.6-.3-.6-.3-.6-.3-.6-.3-.5-.3-.5-.3-.5-.3-.5-.3-.5-.3-.5-.3-.5-.3-.5-.3-.5-.3-.5-.3-.5-.3-.5-.3-.5-.3-.5-.3-.5-.3-.5-.3-.5-.3-.5-.3-.5-.2-.4-.3-.4-.2-.4-.2-.4-.2-.4-.2-.4-.2-.4-.2-.4-.2-.4-.2-.4-.2-.4-.2-.4-.2-.4-.2-.4-.2-.4-.2-.4-.2-.4-.2-.4-.2-.3-.2-.3-.2-.3-.2-.3-.2-.3-.2-.3-.2-.3-.2-.3-.2-.3-.2-.3-.2-.3-.2-.3-.2-.3-.1-.3-.2-.3-.2-.3.7.1-.1-.3-.1-.2-.1-.2-.1-.2-.1-.2-.1-.2-.1-.2-.1-.2-.1-.2-.1-.2-.1-.2-.1-.2-.1-.2-.1-.2-.1-.2-.1-.2-.1-.2-.1-.2-.1-.2-.1-.1-.1-.1V55.5h2.9l.2.1.2.1.2.1.2.1.2.1.2.1.2.1.2.1.2.1.2.1.2.1.2.1.3.1.3.1.3.1.3.1.3.1.3.1.3.1.3.1.3.1.3.1.3.1.3.1.3.1.3.1.3.1.3.1.4.1.3.1.4.1.4.1.4.1.4.1.4.1.4.1.4.1.4.1.4.1.4.1.4.2.4.1.4.1.4.2.4.2.5.2.4.2.5.2.5.2.5.2.5.2.5.2.5.2.5.2.5.2.5.2.5.2.5.2.5.2.5.2.5.2.5.2.6.2.5.2.6.2.6.2.6.2.6.2.6.2.6.2.6.2.6.2.6.2.6.2.6.2.6.2.6.2.6.2.6.2.6.2.6.2.7.2.6.2.7.2.7.2.7.2.7.2.7.2.7.2.7.2.7.2.7.2.7.2.7.2.7.2.7.2.7.2.7.2.7.2.7.2.7.2.7.2.8.2.8.2.8.2.8.2.8.2.8.2.8.2.8.2.8.2.8.2.8.2.8.2.8.2.8.2.8.1.8.2.8.1.8.1.8.1.8.1.8.1.8.1.8.1.8.1.8.1.9.1.8.1.9.1.8.1.9.1.9.1.9.1.9.1.9.1.9.1.9.1.9.1.9.1.9.1.9.1.9.1.9.1.9.1.9.1.9.1.9.1.9.1.9.1.9.1.9.1.9.1.9.1.9.1.9.1.9.1.9.1.9.1.9.1.9.1.9.1.9.1h.9l.9.1.9.1h.9l.9.1h31.6l.9-.1H181l.9-.1.9-.1.9-.1.9-.1.9-.1.9-.1.9-.1.9-.1.9-.1.9-.1.9-.1.9-.1.9-.1.9-.1.9-.1.9-.1.9-.1.9-.1.9-.1.9-.1.9-.1.9-.1.9-.1.9-.1.9-.1.9-.1.9-.1.9-.1.9-.1.9-.1.9-.1.9-.1.8-.1.9-.1.8-.1.8-.1.8-.1.8-.1.8-.1.8-.1.8-.1.8-.1.8-.1.8-.1.8-.1.8-.1.8-.2.8-.1.8-.2.8-.1.8-.2.8-.2.8-.2.8-.2.8-.2.8-.2.8-.2.8-.2.8-.2.8-.2.8-.2.8-.2.7-.2.7-.2.7-.2.7-.2.7-.2.7-.2.7-.2.7-.2.7-.2.7-.2.7-.2.7-.2.7-.2.7-.2.7-.2.7-.2.7-.2.7-.2.7-.2.6-.2.7-.2.6-.2.6-.2.6-.2.6-.2.6-.2.6-.2.6-.2.6-.2.6-.2.6-.2.6-.2.6-.2.6-.2.6-.2.6-.2.6-.2.6-.2.5-.2.5-.2.5-.2.5-.2.5-.2.5-.2.5-.2.5-.2.5-.2.5-.2.5-.2.5-.2.5-.2.5-.2.5-.2.5-.2.5-.2.4-.2.5-.2.4-.2.4-.2.4-.1.4-.2.4-.2.4-.1.4-.1.4-.1.4-.1.4-.1.4-.1.4-.1.4-.1.4-.1.4-.1.4-.1.3-.1.3-.1.3-.1.3-.1.3-.1.3-.1.3-.1.3-.1.3-.1.3-.1.3-.1.3-.1.3-.1.3-.1.3-.1.3-.1.3-.1.3-.1.2-.1.2-.1.2-.1.2-.1.2-.1.2-.1.2-.1.2-.1.2-.1h.2l.2-.1h2.6l.1.1h0v1.9l-.1.2V58l-.1.1-.1.2-.1.2-.1.2-.1.2-.1.2-.1.2-.1.2-.1.2-.1.2-.1.2-.1.2-.1.2-.1.2-.1.2-.1.2-.1.2-.1.2-.1.3,1.2-.1-.2.3-.1.3-.2.3-.2.3-.2.3-.2.3-.2.3-.2.3-.2.3-.2.3-.2.3-.2.3-.2.3-.2.3-.2.3-.2.3-.2.3-.2.4-.2.4-.2.4-.2.4-.2.4-.2.4-.2.4-.2.4-.2.4-.2.4-.2.4-.2.4-.2.4-.2.4-.2.4-.3.4-.2.4-.3.4-.3.4-.3.5-.3.5-.3.5-.3.5-.3.5-.3.5-.3.5-.3.5-.3.5-.3.5-.3.5-.3.5-.3.5-.3.5-.3.5-.3.5-.3.5-.3.6-.3.5-.3.6-.3.6-.3.6-.3.6-.3.6-.3.6-.3.6-.3.6-.3.6-.3.6-.3.6-.3.6-.3.6-.3.6-.3.6-.3.6-.3.6-.3.6-.3.7-.3.6-.3.7-.3.7-.3.7-.3.7-.3.7-.3.7-.3.7-.3.7-.3.7-.3.7-.3.7-.3.7-.3.7-.3.7-.3.7-.3.7-.3.7-.3.7-.3.7-.3.7-.3.8-.3.8-.3.8-.3.8-.3.8-.3.8-.3.8-.3.8-.3.8-.3.8-.3.8-.3.8-.3.8-.3.8-.3.8-.3.8-.3.8-.3.8-.3.8-.3.8-.3.8-.3.8-.3.8-.3.8-.3.8-.3.8-.3.8-.3.8-.3.9-.3.9-.3.9-.3.9-.3.9-.3.9-.3.9-.3.9-.3.9-.3.9-.2.9-.3.9-.2.9-.2.9-.2.9-.2.9-.2.9-.2.9-.2.9-.2.9-.2.9-.2.9-.2.9-.2.9-.2.9-.2.9-.2.9-.2.9-.2.9-.2.9-.2.9-.2.9-.2.9-.2.9-.2.9-.2.9-.2.9-.2.9-.2.9-.2.9-.2.9-.2.9-.2.9-.2.9-.2.9,1.6.7-.2.9-.2.9-.2.9-.1.9-.2.9-.1.9-.1.9-.2.9-.1.9-.1.9-.1.9-.1.9-.1.9-.1.9-.1.9-.1.9-.1.9-.1.9-.1.9-.1.9-.1.9-.1.9-.1.9-.1.9-.1.9-.1.9-.1.9-.1.9-.1.9-.1.9-.1.9-.1.9-.1.9-.1.9-.1.9-.1.9-.1.9-.1.9-.1.9-.1.9-.1.9v.9l-.1.9v39l.1.7v.7l.1.7v.7l.1.7.1.7.1.7.1.7.1.7.1.7.1.7.1.7.1.7.1.7.1.7.1.7.1.7.1.6.1.6.1.6.1.6.1.6.1.6.1.6.1.6.1.6.1.6.1.6.1.6.1.6.1.6.1.6.1.6.1.6.1.5.1.6.1.5.1.5.1.5.1.5.1.5.1.5.1.5.1.5.1.5.1.5.1.5.1.5.1.5.1.5.1.5.1.5.1.4.1.4.1.4.1.4.1.4.1.4.1.4.1.4.1.4.1.4.1.4.1.4.1.4.1.4.1.4.1.4.1.3.1.3.1.3.1.3v.3l.1.3.1.3.1.3v.9l.1.3v6.1H243l-.1-.1-.1-.1-.1-.1-.1-.1-.1-.1-.1-.1-.1-.1-.1-.1-.1-.1-.2-.1-.2-.1-.2-.1-.2-.1-.2-.1-.2-.1-.2-.1-.2-.1-.2-.1-.2-.1-.2-.1-.2-.2-.2-.2-.2-.2-.2-.2-.2-.2-.2-.2-.2-.2-.2-.2-.2-.2-.2-.2-.3-.2-.3-.2-.3-.2-.3-.2-.3-.2-.3-.2-.3-.2-.3-.2-.3-.2-.3-.2-.3-.3-.3-.3-.3-.3-.3-.3-.3-.3-.3-.3-.3-.3-.3-.3-.3-.3-.3-.3-.3-.3-.4-.3-.3-.3-.4-.3-.4-.3-.4-.3-.4-.3-.4-.3-.4-.3-.4-.3-.4-.3-.4-.3-.4-.3-.4-.3-.4-.3-.4-.3-.4-.3-.4-.3-.4-.4-.4-.3-.4-.4-.5-.4-.5-.4-.5-.4-.5-.4-.5-.4-.5-.4-.5-.4-.5-.4-.5-.4-.5-.4-.5-.4-.5-.4-.5-.4-.5-.4-.5-.4-.5-.4-.5-.4-.5-.4-.5-.4-.6-.4-.5-.4-.6-.4-.6-.4-.6-.4-.6-.4-.6-.4-.6-.4-.6-.4-.6-.4-.6-.4-.6-.4-.6-.4-.6-.4-.6-.4-.6-.4-.6-.4-.6-.4-.6-.4-.6-.4-.6-.4-.6-.4-.6-.4-.7-.4-.7-.4-.7-.4-.7-.4-.7-.4-.7-.4-.7-.4-.7-.4-.7-.4-.7-.4-.7-.4-.7-.4-.7-.4-.7-.4-.7-.4-.7-.4-.7-.4-.7-.4-.7-.4-.7-.4-.7-.4-.7-.4-.7-.4-.8-.4-1.6-.1-.8-.4-.8-.4-.8-.4-.8-.4-.8-.4-.8-.4-.8-.4-.8-.4-.8-.4-.8-.4-.8-.4-.8-.4-.8-.4-.8-.4-.8-.4-.8-.4-.8-.4-.8-.4-.8-.4-.8-.4-.8-.4-.8-.4-.8-.4-.8-.4-.8-.4-.8-.4-.8-.4-.8-.4-.8-.4-.8-.4-.8-.4-.8-.4-.8-.4-.8-.4-.9-.4-.8-.4-.8-.4-.9-.4-.9-.4-.9-.4-.9-.4-.9-.4-.9-.4-.9-.4-.9-.3-.9-.4-.9-.4-.9-.3-.9-.3-.9-.3-.9-.3-.9-.3-.9-.3-.9-.3-.9-.3-.9-.3-.9-.3-.9-.3-.9-.3-.9-.3-.9-.3-.9-.3-.9-.3-.9-.3-.9-.3-.9-.3-.9-.3-.9-.3-.9-.3-.9-.3-.9-.3-.9-.3-.9-.3-.9-.3-.9-.3-.9-.3-.9-.3-.9-.3H115l-.9-.3-.9-.3-.9-.3-.9-.3-.9-.3-.9-.3-.9-.2-.9-.2-.9-.2-.9-.2-.9-.2-.9-.2-.9-.2-.9-.2-.9-.2-.9-.2-.9-.2-.9-.2-.9-.2-.9-.2-.9-.2-.9-.2-.9-.2-.9-.2-.9-.2-.9-.2-.9-.2-.9-.2-.9-.2-.8-.2-.9-.2-.8-.2-.8-.2-.9-.2-.8-.2-.8-.2-.8-.2-.8-.2-.8-.2-.8-.1-.8-.1-.8-.1-.8-.1-.8-.1-.8-.1-.8-.1-.8-.1-.8-.1-.8-.1-.8-.1-.8-.1-.8-.1-.8-.1-.5-.2-.8-.1-.8-.1-.8-.1-.8-.1-.8-.1-.8-.1-.8-.1-.8-.1-.8-.1-.8-.1-.7-.1-.8-.1-.7-.1-.7-.1-.7-.1-.7-.1L56,217l-.7-.1-.7-.1-.7-.1-.7-.1-.7-.1-.7-.1-.7-.1h-.7l-.7-.1H49l-.7-.1H11.2l-.1-.1h-.3v-1.7l.1-.1.1-.1.1-.1.1-.1.1-.1.1-.1.1-.1.1-.1.1-.1.1-.1.1-.1.1-.1.1-.1.1-.1.1-.1.1-.1.2-.1.2-.1.2-.1.2-.2.2-.2.2-.2.2-.2.2-.2.2-.2.2-.2.2-.2.2-.2.2-.2.2-.2.2-.2.2-.2.2-.2.3-.2.3-.2.3-.2.3-.2.3-.2.3-.2.3-.2.3-.2.3-.2.3-.2.3-.3.3-.3.3-.3.3-.3.3-.3.3-.3.3-.3.3-.3.3-.3.3-.3.3-.3.3-.3.4-.3.4-.3.4-.3.4-.3.4-.3.4-.3.4-.3.4-.3.4-.3.4-.3.4-.4.4-.3.4-.4.4-.4.4-.4.4-.4.4-.4.4-.4.4-.4.4-.4.4-.4.4-.4.4-.4.4-.4.4-.4.4-.4.4-.4.5-.4.5-.4.5-.4.5-.4.5-.4.5-.4.5-.4.5-.5.5-.5.5-.5.5-.5.5-.5.5-.5.5-.5.5-.5.5-.5.5-.5.5-.5.5-.5.5-.5.5-.5.5-.5.5-.5.5-.5.5-.5.5-.5.5-.5.5-.5.5-.5.5-.6.5-.5.5-.6.5-.6.5-.6.5-.6.5-.6.5-.6.5-.6.5-.6.5-.6.5-.6.5-.6.5-.6.5-.6.5-.6.5-.6.5-.6.5-.6.5-.6.5-.6.5-.6.5-.6.5-.6.5-.6.5-.7.5-.6.5-.7.5-.7.5-.7.5-.7.5-.7.5-.7.5-.7.5-.7.5-.7.5-.7.5-.7.5-.7.5-.7.5-.7.5-.7.5-.7.5-.7.5-.7.5-.7.5-.7.5-.7.5-.7.5-.7.5-.7.5-.7.5-.8.5-.7.5-.8.5-.8.5-.8.5-.8.5-.8.5-.8.5-.8.5-.8.5-.8.5-.8.5-.8.5-.8.5-.8.5-.8.5-.8.5-.8.5-.8.5-.8.5-.8.5-.8.5-.8.5-.8.5-.8.5-.8.5-.8.5-.8.5-.8.5-.8.5-.8.5-.8.5-.8.5-.8.5-.8.5-.8.5-.8.5-.8.5-.8.5-.8.4-.8.5-.8.5-.8.5-.8.4-.8.4-.8.4-.8.4-.8.4-.8.4-.8.4-.8.4-.8.4-.8.4-.8.4-.8.4-.8.4-.8.4-.8.4-.8.4-.8.4-.8.4-.8.4-.8.4-.8.4-.8.4-.8.4-.8.4-.8.4-.8.4-.8.4-.8.4-.8.4-.8.4-.8.4-.8.4-.8.4-.8.4-.8.3-.8.4-.8.3-.8.3-.8.3-.8.3-.8.3-.8.3-.8.3-.8.3-.8.3-.8.3-.8.3-.8.3-.8.3-.8.3-.8.3-.8.3-.8.3-.8.3-.8.3-.8.3-.8.3-.8.3-.8.3-.8.3-.8.3-.8.3-.8.3-.8.3-.8.3-.8.3-.8.3-.8.2-.8.2-.8.2-.8.2-.7.2-.7.2-.7.2-.7.2-.7.2-.7.2-.7.2-.7.2-.7.2-.7.2-.7.2-.7.2-.7.2-.7.2-.7.2-.7.2-.7.2-.7.2-.7.2-.7.2-.7.2-.7.2-.7.2-.6.2-.7.2-.6.2-.6.1-.6.2-.6.1-.6.2-.6.1-.6.1-.6.1-.6.1-.6.1-.6.1-.6.1-.6.1-.6.1-.6.1-.6.1-.6.1-.6.1-.6.1-.6.1-.5.1-.5.1-.5.1-.5.1-.5.1-.5.1-.5.1-.5.1-.5.1-.5.1-.5.1-.5.1-.5.1-.5.1-.5.1-.5.1-.5.1-.4.1-.4.1-.4.1-.4.1-.4.1-.4.1-.4.1-.4.1-.4.1-.4.1-.4.1-.4.1-.4.1-.4.1-.4.1-.4.1-.3.1-.4.1-.3.1-.3V9.8l.1-.3.1-.3V8.9l.1-.3.1-.3V8l.1-.3V6.8l.1-.3.1-.3V5.6l.1-.2V4.6l.1-.2V3.6l.1-.2.1-.2V2.9l.1-.1.1-.1V2.5l.1-.1V2.3l.1-.1.1-.1V2l.1-.1.1-.1h.1l.1-.1h1.3l.1.1.1.1.1.1.1.1.1.1.1.1.1.1.1.1.1.1.1.1.1.1.1.1.1.1.1.1.1.2.1.1.1.2.1.2.1.2.1.2.1.2.1.2.1.2.1.2.1.2.1.2.1.2.1.2.1.2.1.2.2.2.1.3.1.3.2.3.1.3.2.3.2.3.2.3.2.3.2.3.2.3.2.3.2.3.2.3.2.3.2.3.2.3.2.3.2.3.2.4.2.4.2.4.2.4.2.4.2.4.2.4.2.4.2.4.2.4.2.4.2.4.2.4.3.4.3.4.3.4.3.4.3.4.3.4.3.4.3.5.3.4.3.5.3.5.3.5.3.5.3.5.3.5.3.5.3.5.3.5.3.5.3.5.3.5.3.5.3.5.3.5.3.5.3.5.4.5.3.5.4.5.4.5.4.5.4.6.4.6.4.5.4.6.4.6.4.6.4.6.4.6.4.6.4.6.4.6.4.6.4.6.4.6.4.6.4.6.4.6.4.6.4.6.4.6.4.6.5.6.5.6.5.6.5.6.5.6.5.6.5.6.5.6.5.6.5.6.5.6.5.6.5.6.5.6.5.6.5.6.5.6.5.6.5.6.5.6.5.6.5.6.5.6.5.7.5.6.5.6.5.6.5.6.6.7.6.6.6.6.6.6.6.6.6.6.6.6.6.6.6.7.6.6.6.7.6.6.6.6.6.6.6.6.6.7.6.7.6.6.6.6.6.6.6.6.6.7.6.6.6.6.6.6.6.6.6.7.7.6.6.6.7.6.7.6.7.6.7.6.7.6.7.6.7.6.7.6.7.6.7.6.7.6.7.6.7.6.7.6.7.6.7.6.7.6.7.6.7.6.7.6.7.6.7.6.7.6.7.6.7.6.7.6.7.6.7.6.7.6.7.6.7.6.7.6.7.6.7.6.7.6.7.6.7.6.7.6.7.6.7.6.7.6.7.6.7.6.7.6.7.6.7.6.7.6.8.6.7.6.8.6.7.6.8.5.8.6.8.5.8.5.8.5.7.5.8.5.8.5.8.5.8.5.8.5.8.5.8.5.8.5.8.5.8.5.8.5.8.5.8.5.7.5.8.5.8.5.8.5.8.5.7.5.8.5.7.5.7.5.8.5.7.5.7.5.7.5.7.4.7.5.7.4.7.4.7.4.7.4.7.4.7.4.7.4.7.4.7.4.7.4.7.4.7.4.7.4.7.4.7.4.7.4.7.4.7.4.7.4.7.4.7.4.7.4.7.4.7.4.7.4.7.4.7.4.7.3.7.4.7.3.7.3.7.3.7.3.7.3.7.3.7.3.7.3.6.3.7.3.7.3.6.3.6.3.6.3.6.3.6.3.6.3.6.3.6.3.6.3.6.3.6.3.6.3.6.3.6.3.6.3.6.3.6.2.6.3.6.2.6.2.6.2.6.2.5.2.5.2.5.2.5.2.5.2.5.2.5.2.5.2.5.2.5.2.5.2.5.2.5.2.5.2.5.2.5.2.5.2.5.2.5.2.5.2.5.2.4.2.4.2.4.2.4.2.4.2.4.2.4.1.4.1.4.1.4.1.4.1.4.1.4.1.4.1.4.1.4.1.4.1.4.1.3.1.3.1.3.1.3.1.3.1.3.1.3.1.3.1.3.1.3.1.3.1.3.1.3.1.3.1.3.1.3.1.2.1.2.1.2.1.2.1.2.1.2.1.2.1.2.1.2.1.2.1.2.1.2.1.2.1.2.1.2.1.2.1.1.1.1.1.1.1.1.1.1.1.1.1.1.1.1.1.1.1.1.1.1.1.1.1.1.1.1.1v.5l.7.1h0v.7l-.1.1-.1.1-.1.1-.1.1-.1.1-.1.1-.1.1-.1.1-.1.1-.1.1-.1.1-.1.1-.1.1-.1.1-.2.1-.2.1-.2.1-.2.1-.2.1-.2.1-.2.1-.2.1-.2.1-.2.1-.2.1-.2.1-.2.1-.2.1-.2.1-.3.1-.3.1-.3.1-.3.1-.3.1-.3.1-.3.1-.3.1-.3.1-.3.1-.3.1-.3.1-.3.1-.3.1-.3.1-.3.1-.4.1-.4.1-.4.1-.4.1-.4.1-.4.1-.4.1-.4.1-.4.1-.4.1-.4.2-.4.1-.4.2-.4.1-.4.2-.4.2-.4.2-.5.2-.5.2-.5.2-.5.2-.5.2-.5.2-.5.2-.5.2-.5.2-.5.2-.5.2-.5.2-.5.2-.5.2-.5.2-.5.2-.5.2-.5.2-.5.2-.5.2-.5.2-.6.2-.6.2-.6.2-.6.2-.6.3-.6.2-.6.3-.6.3-.6.3-.6.3-.6.3-.6.3-.6.3-.6.3-.6.3-.6.3-.6.3-.6.3-.6.3-.6.3-.6.3-.6.3-.6.3-.6.3-.7.3-.7.3-.6.3-.7.3-.7.3-.7.3-.7.3-.7.3-.7.3-.7.3-.7.3-.7.4-.7.4-.7.4-.7.4-.7.4-.7.4-.7.4-.7.4-.7.4-.7.4-.7.4-.7.4-.7.4-.7.4-.7.4-.7.4-.7.4-.7.4-.7.4-.7.4-.7.4-.7.4-.7.4-.7.4-.7.4-.7.4-.7.5-.7.4-.7.4-1.1-.1-.7.5-.7.5-.8.5-.7.5-.7.5-.8.5-.7.5-.8.5-.8.5-.7.5-.8.5-.8.5-.8.5-.8.5-.8.5-.8.5-.8.5-.8.5-.8.5-.8.5-.8.5-.8.5-.8.5-.8.5-.8.5-.8.5-.8.5v.5l-.8.5-.8.6-.7.5-.8.6-.8.5-.7.6-.8.6-.7.6-.7.6-.8.6-.7.6-.7.6-.7.6-.7.6-.7.6-.7.6-.7.6-.7.6-.7.6-.7.6-.7.6-.7.6-.7.6-.7.6-.7.6-.7.6-.7.6-.7.6-.7.6-.7.6-.7.6-.7.6-.7.6-.7.6-.7.6-.7.6-.7.6-.7.6-.7.6-.7.6-.7.6-.7.6-.7.6-.7.6-.7.6-.7.6-.7.6-.7.6-.7.6-.7.6-.7.6-.7.6-.7.6-.7.6-.7.6-.7.6-.6.6-.6.6-.6.7-.6.6-.6.6-.6.6-.6.6-.6.7-.6.6-.6.6-.6.6-.6.7-.6.6-.6.6-.6.7-.6.6-.6.6-.6.6-.6.7-.6.6-.6.6-.6.7-.6.6-.6.6-.6.6-.6.6-.6.6-.5.6-.6.6-.5.6-.5.6-.6.6-.5.6-.8,2.3-.5.6-.5.6-.5.6-.5.6-.5.6-.5.6-.5.6-.5.6-.5.6-.5.6-.5.6-.5.6-.5.6-.5.6-.5.6-.5.6-.5.6-.5.6-.5.6-.5.6-.5.6-.5.6-.4.6-.4.6-.4.6-.4.6-.4.6-.4.6-.4.6-.4.6-.4.6-.4.6-.4.6-.4.6-.4.6-.4.6-.4.6-.4.6-.4.6-.4.6-.4.5-.4.6-.4.5-.4.5-.3.5-.4.5-.3.5-.4.5-.3.5-.3.5-.2.9-.3.5-.3.5-.3.5-.3.5-.3.5-.3.5-.3.5-.3.5-.3.5-.3.5-.3.5-.3.5-.3.5-.3.5-.3.5-.3.5-.3.4-.3.4-.3.4-.3.4-.3.4-.3.4-.2.4-.2.4-.2.4-.2.4-.2.4-.2.4-.2.4-.2.4-.2.4-.2.4-.2.4-.2.4-.2.4-.2.3-.2.4-.2.3-.2.3-.2.3-.2.3-.2.3-.2.3-.2.3-.2.3-.2.3-.2.3-.2.3-.2.3-.2.3-.2.3-.2.3-.2.3-.1.3-.1.2-.1.2-.1.2-.1.2-.1.2-.1.2-.1.2-.1.2-.1.2-.1.2-.1.2-.1.2-.1.2-.1.2-.1.2-.1.1-.1.1-.1.1-.1.1-.1.1-.1.1-.1.1-.1.1-.1.1-.1.1-.1.1-.1.1-.1.1-.1.1-.1.1h-1.6l-.1-.1-.1-.1v-.1l-.1-.1-.1-.1-.1-.1-.1-.1v-.2l-.1-.1v-.1l-.1-.1v-.6l-.1-.2v-.8l-.1-.2v-.8l-.1-.2v-.8l-.1-.3v-.3l-.1-.3v-.3l-.1-.3v-.6l-.1-.3v-.7l-.1-.3-.1-.3v-.3l-.1-.3-.1-.4-.1-.4-.1-.4-.1-.4-.1-.4-.1-.4-.1-.4-.1-.4-.1-.4-.1-.4-.1-.4-.1-.4-.1-.4-.1-.4-.1-.4-.1-.5-.1-.4-.1-.5-.1-.5-.1-.5-.1-.5-.1-.5.5-.4-.1-.5-.1-.5-.1-.5-.1-.5-.1-.5-.1-.5-.1-.5-.1-.5-.1-.5-.1-.5-.1-.5-.1-.5-.1-.6-.1-.6-.1-.6-.1-.6-.1-.6-.1-.6-.1-.6-.1-.6-.1-.6-.1-.6-.1-.6-.1-.6-.2-.6-.1-.6-.2-.6-.2-.6-.2-.6-.2-.6-.2-.6-.2-.6-.2-.7-.2-.6-.2-.7-.2-.7-.2-.7-.2-.7-.2-.7-.2-.7-.2-.7-.2-.7-.2-.7-.2-.7-.2-.7-.2-.7-.2-.7-.2-.7-.2-.7-.2-.7-.2-.7-.2-.7-.2-.7-.2-.7-.2-.7-.2-.7-.2-.8-.2-.7-.2-.8-.3-.8-.2-.8-.3-.8-.3-.8-.3-.8-.3-.8-.3-.8-.3-.8-.3-.8-.3-.8-.3-.8-.3-.8-.3-.8-.3-.8-.3-.8-.3-.8-.3-.8-.3-.8-.3-.8-.3-.8-.3-.8-.3-.8-.3-.8-.3-.8-.3-.8-.3-.8-.3-.8-.3-.8-.3-.8-.3-.8-.3-.8-.3-.8-.4-.8-.3-.8-.4-.8-.4-.8-.3-.8-.4-.8-.4-.8-.4-.8-.4-.8-.4-.8-.4-.8-.4-.8-.4-.8-.4-.8-.4-.8-.4-.8-.4-.8-.4-.8-.4-.8-.4-.8-.4-.8-.4-.8-.4-.8-.4-.8-.4-.8-.4-.8-.4-.8-.4-.8-.4-.8-.4-.8-.4-.8-.4-.8-.4-.8-.5-.8-.4-.8-.5-.8-.5-.8-.4-.8-.5-.8-.5-.8-.5-.8-.5-.8-.5-.8-.5-.8-.5-.8-.5-.8-.5-.8-.5-.8-.5-.8-.5-.8-.5-.8-.5-.8-.5-.8-.5-.8-.5-.8-.5-.8-.5-.8-.5-.8-.5-.8-.5-.8-.5-.8-.5-.8-.5-.8-.5-.8-.5-.8-.5-.8-.5-.8-.5-.8-.5-.8-.5-.8-.5-.8-.5-.8-.5-.8-.5-.8-.5-.8-.5-.8-.5-.8-.5-.7-.5-.8-.5-.7-.5-.7-.5-.7-.5-.7-.5-.7-.5-.7-.5-.7-.5-.7-.5-.7-.5-.7-.5-.7-.5-.7-.5-.7-.5-.7-.5-.7-.5-.7-.5-.7-.5-.7-.5-.7-.5-.7-.5-.7-.5-.7-.5-.7-.5-.7-.5-.7-.5-.7-.5-.6-.5-.6-.5-.6-.5-.6-.5-.6-.5-.6-.5-.6-.5-.6-.5-.6-.5-.6-.5-.6-.5-.6-.5-.6-.5-.6-.5-.6-.5-.6-.5-.6-.5-.6-.5-.6-.5-.6-.5-.6-.5-.6-.5-.6-.5-.6-.5-.6-.5-.5-.5-.6-.5-.5-.5-.5-.5-.5-.5-.5-.5-.5-.5-.5-.5-.5-.5-.5-.5-.5-.5-.5-.5-.5-.5-.5-.5-.5-.5-.5-.5-.5-.5-.5-.5-.5-.5-.5-.5-.5-.5-.5-.5-.4-.5-.5-.5-.4-.5-.4-.5-.4-.5-.4-.5-.4-.5-.4-.5-.4-.5-.4-.4-.4-.4-.4-.4-.4-.4-.4-.4-.4-.4-.4-.4-.4-.4-.4-.4-.4-.4-.4-.4-.4-.4-.4-.4-.4-.4-.3-.4-.4-.4-.3-.4-.3-.4-.3-.4-.3-.4-.3-.4-.3-.4-.3-.4-.3-.4-.3-.4-.3-.3-.3-.3-.3-.3-.3-.3-.3-.3-.3-.3-.3-.3-.3-.3-.3-.3-.3-.3-.3-.3-.3-.3-.3-.3-.2-.3-.2-1.7-1-.3-.2-.3-.2-.3-.2-.3-.2-.3-.2-.3-.2-.3-.2-.2-.2-.2-.2-.2-.2-.2-.2-.2-.2-.2-.2-.2-.2-.2-.2-.2-.2-.2-.2-.2-.2-.2-.2-.2-.2-.2-.2-.2-.2-.2-.1-.2-.1-.2-.2-.1-.1-.1-.1-.1-.1-.1-.1-.1-.1-.1-.1-.1-.1-.1-.1-.1-.1-.1-.1-.1-.1-.1-.1-.1-.1-.1-.1-.1-.1v-.1l-.1-.1v-1.4h.2l.1-.1h.1l.1-.1H48.8l.7-.1h.7l.7-.1.7-.1.7-.1.7-.1.7-.1.7-.1.7-.1.7-.1.7-.1.7-.1.7-.1.7-.1.7-.1.7-.1.7-.1.8-.1.8-.1.8-.1.8-.1.8-.1.8-.1.8-.1.8-.1.8-.1.8-.1.8-.1.8-.1.8-.1.8-.1.8-.1.8-.1.8-.1.8-.1.8-.1.8-.1.8-.1.8-.1.8-.1.8-.1.8-.2.8-.1.8-.2.8-.1.8-.2.8-.2.8-.2.9-.2.8-.2.9-.2.8-.2.8-.2.9-.2.9-.2.9-.2.9-.2.9-.2.9-.2L96,96l.9-.2.9-.2.9-.2.9-.2.9-.2.9-.2.9-.2.9-.2.9-.2.9-.2.9-.2.9-.2.9-.2.9-.2.9-.3.9-.2.9-.3.9-.3.9-.3.9-.3.9-.3.9-.3.9-.3.9-.3.9-.3.9-.3.9-.3.9-.3.9-.3.9-.3.9-.3.9-.3.9-.3.9-.3.9-.3.9-.3.9-.3.9-.3.9-.3.9-.3.9-.3.9-.3.9-.3.9-.3.9-.3.9-.3.9-.3.9-.3.9-.3.9-.3.9-.3.9-.3.9-.3.9-.3.9-.4.9-.4.9-.4.9-.4.9-.4.9-.4.9-.4.9-.4.9-.4.9-.4.8-.4.9-.4.8-.4.8-.4.8-.4.8-.4.8-.4.8-.4.8-.4.8-.4.8-.4.8-.4.8-.4.8-.4.8-.4.8-.4.8-.4.8-.4.8-.4.8-.4.8-.4.8-.4.8-.4.8-.4.8-.4.8-.4.8-.4.8-.4.8-.4.8-.4.8-.4.8-.4.8-.4.8-.4.8-.4.8-.4.8-.4.8-.4.7-.4.7-.4.7-.4.7-.4.7-.4.7-.4.7-.4.7-.4.7-.4.7-.4.7-.4.7-.4.7-.4.7-.4.7-.4.7-.4.7-.4.7-.4.7-.4.7-.4.7-.4.6-.4.7-.4.6-.4.6-.4.6-.4.6-.4.6-.4.6-.4.6-.4.6-.4.6-.4.6-.4.6-.4.6-.4.6-.4.6-.4.6-.4.6-.4.6-.4.6-.4.6-.4.6-.4.6-.4.5-.4.5-.4.5-.4.5-.4.5-.4.5-.4.5-.4.5-.4.5-.4.5-.4.5-.4.5-.4.5-.4.5-.4.5-.4.5-.4.5-.4.5-.4.5-.4.5-.4.5-.3.5-.4.4-.3.4-.3.4-.3.4-.3.4-.3.4-.3.4-.3.4-.3.4-.3.4-.3.4-.3.4-.3.4-.3.4-.3.4-.3.4-.3.4-.3.3-.3.4-.3.3-.3.3-.3.3-.3.3-.3.3-.3.3-.3.3-.3.3-.3.3-.3.3-.3.3-.3.3-.3.3-.2.3-.2.3-.2.3-.2.3-.2.3-.2.3-.2.3-.2.3-.2.2-.2.2-.2.2-.2.2-.2.2-.2.2-.2.2-.2.2-.2.2-.2.2-.2.2-.2.2-.1.2-.1.2-.2.2-.1.2-.1.2-.1.2-.1.2-.1.2-.1.2-.1.2-.1.1-.1.1-.1.1-.1.1-.1.1-.1.1-.1.1-.1.1-.1.1-.1h.1l.1-.1h1.3l.1.1v6.5l-.1.3v.9l-.1.3-.1.3V29l-.1.3-.1.3-.1.4-.1.3-.1.4-.1.4-.1.4-.1.4-.1.4-.1.4-.1.4-.1.4-.1.4-.1.4-.1.4-.1.4-.1.4-.1.4-.1.4-.1.4-.1.5-.1.5-.1.5-.1.5-.1.5-.1.5-.1.5-.1.5-.1.5-.1.5-.1.5-.1.5-.1.5-.1.5-.1.5-.1.5-.1.6-.1.6-.1.6-.1.6-.1.6-.1.6-.1.6-.1.6-.1.6-.1.6-.1.6-.1.6-.1.6-.1.6-.1.6-.1.6-.1.6-.1.7-.1.6-.1.7-.1.7-.1.7-.1.7-.1.7-.1.7-.1.7-.1.7-.1.7-.1.7-.1.7-.1.7-.1.7V66l-.1.7v2.1l-.1.7v35l.1.9v2.7l.1.9.1.9.1.9.1.9.1.9.1.9.1.9.1.9.1.9.1.9.1.9.1.9.1.9.1.9.1.9.1.9.1.9.1.9.1.9.1.9.1.9.1.9.1.9.1.9.1.9.1.9.1.9.1.9.1.9.1.9.1.9.1.9.1.9.1.9.1.9.1.9.1.9.2.9.2.9.2.9.2.9.2.9.2.9.2.9.2.9.2.9.2.9.2.9.2.9.2.9.2.9.2.9.2.9.2.9.2.9.2.9.2.9.2.9.2.9.2.9.2.9.2.9.2.9.2.9.2.9.2.9.2.9.2.9.2.9.2.9.2.9.2.9.2.9.2.9.2.9.2.9.2.9.3.9.3.9.3.9.3.9.3.9.3.9.3.9.3.9.3.9.3.9.3.8.3.9.3.8.3.8.3.8.3.8.3.8.3.8.3.8.3.8.3.8.3.8.3.8.3.8.3.8.3.8.3.8.3.8.3.8.3.8.3.8.3.8.3.8.3.8.3.8.3.8.3.8.3.8.3.8.3.7.3.7.3.7.3.7.3.7.3.7.3.7.3.7.3.7.3.7.3.7.3.7.3.7.3.7.3.7.3.7.3.7.3.7.3.7.3.6.3.6.3.6.3.6.3.6.3.6.3.6.3.6.3.6.3.6.3.6.3.6.3.6.3.6.3.6.3.6.3.6.3.6.3.6.3.6.3.6.3.5.3.5.3.5.3.5.3.5.3.5.3.5.3.5.3.5.3.5.3.5.3.5.3.5.3.5.3.5.3.5.3.5.3.5.3.5.3.4.3.4.2.4.2.4.2.4.2.4.2.4.2.4.2.4.2.4.2.4.2.4.2.4.2.4.2.4.2.4.2.4.2.4.2.4.2.3.2.3.2.3.2.3.2.3.2.3.2.3.2.3.2.3.2.3.2.3.2.3.2.3.1.3.2.3.1.3.2.3.1.3.1.2.1.2.1.2.1.2.1.2.1.2.1.2.1.2.1.2.1.2.1.2.1.2.1.2.1.2.1.2.1.2.1.2.1.1.1.1v1.9h0v.1h-2.8l-.2-.1h-.4l-.2-.1-.2-.1-.2-.1-.2-.1-.2-.1-.2-.1-.2-.1-.2-.1-.3-.1-.3-.1-.3-.1-.3-.1-.3-.1-.3-.1-.3-.1-.3-.1-.3-.1-.3-.1-.3-.1-.3-.1-.3-.1-.3-.1-.3-.1-.3-.1-.3-.1-.3-.1-.4-.1-.4-.1-.4-.1-.4-.1-.4-.1-.4-.1-.4-.1-.4-.1-.4-.1-.4-.1-.4-.2-.4-.1-.4-.1-.4-.2-.4-.1-.5-.2-.5-.2-.5-.2-.5-.2-.5-.2-.5-.2-.5-.2-.5-.2-.5-.2-.5-.2-.5-.2-.5-.2-.5-.2-.5-.2-.5-.2-.5-.2-.5-.2-.5-.2-.5-.2-.5-.2-.6-.2-.6-.2-.6-.2-.6-.2-.6-.2-.6-.2-.6-.2-.6-.2-.6-.2-.6-.2-.6-.2-.6-.2-.6-.2-.6-.2-.6-.2-.6-.2-.6-.2-.7-.2-.6-.2-.7-.2-.7-.2-.7-.2-.7-.2H245l-.7-.2-.7-.2-.7-.2-.7-.2-.7-.2-.7-.2-.7-.2-.7-.2-.7-.2-.7-.2-.7-.2-.7-.2-.7-.2-.8-.2-.8-.2-.8-.2-.8-.2-.8-.2-.8-.2-.8-.2-.8-.2-.8-.2-.8-.2-.8-.2-.8-.2-.8-.1-.8-.2-.8-.1-.8-.2-.8-.1-.8-.2-.8-.1-.8-.1-.8-.1-.8-.1-.8-.1-.8-.1-.8-.1-.8-.1-.8-.1-.8-.1-.9-.1-.9-.1-.9-.1-.9-.1-.9-.1-.9-.1-.9-.1-.9-.1-.9-.1-.9-.1-.9-.1-.9-.1-.9-.1-.9-.1-.9-.1-.9-.1-.9-.1-.9-.1-.9-.1-.9-.1-.9-.1-.9-.1-.9-.1-.9-.1-.9-.1-.9-.1-.9-.1-.9-.1-.9-.1-.9-.1-.9-.1-.9-.1-.9-.1-.9-.1-.9.3h-.9l-.9-.1H146.8l-.9.1H145l-.9.1h-.9l-.9.1-.9.1-.9.1-.9.1-.9.1-.9.1-.9.1-.9.1-.9.1-.9.1-.9.1-.9.1-.9.1-.9.1-.9.1-.9.1-.9.1-.9.1-.9.1-.9.1-.9.1-.9.1-.9.1-.9.1-.9.1-.9.1-.9.1-.9.1-.9.1-.9.1-.9.1-.9.1-.9.1-.8.1-.8.1-.9.1-.8.1-.8.1-.8.1-.8.1-.8.1-.8.1-.8.1-.8.1-.8.1-.8.2-.8.1-.8.2-.8.2-.8.2-.8.2-.8.2-.8.2-.8.2-.8.2-.8.2-.8.2-.8.2-.8.2-.8.2-.8.2-.8.2-.7.2-.7.2-.7.2-.7.2-.7.2-.7.2-.7.2-.7.2-.7.2-.7.2-.7.2-.7.2-.7.2-.7.2-.7.2-.7.2-.7.2-.7.2-.7.2-.6.2-.6.2-.6.2-.6.2-.6.2-.6.2-.6.2-.6.2-.6.2-.6.2-.6.2-.6.2-.6.2-.6.2-.6.2-.6.2-.6.2-.6.2-.5.2-.5.2-.5.2-.5.2-.5.2-.5.2-.5.2-.5.2-.5.2-.5.2-.5.2-.5.2-.5.2-.5.2-.5.2-.5.2-.5.2-.5.2-.5.2-.4.1-.4.2-.4.2-.4.1-.4.1-.4.1-.4.2-.4.1-.4.1-.4.1-.4.1-.4.1-.4.1-.4.1-.4.1-.4.1-.3.1-.3.1-.3.1-.3.1-.3.1-.3.1-.3.1-.3.1-.3.1-.3.1-.3.1-.3.1-.3.1-.3.1-.3.1-.3.1-.3.1-.3.1-.2.1-.2.1-.2.1-.2.1-.2.1-.2.1-.2.1-.2.1-.2.1H38.8v-1.8l.1-.1.1-.1.1-.2.1-.1.1-.2.1-.2.1-.2.1-.2.1-.2.1-.2.1-.2.1-.2.1-.2.1-.2.1-.2.1-.2.1-.2.1-.2.1-.2.1-.2.1-.3.1-.3.1-.3.1-.3.2-.3.2-.3.2-.3.2-.3.2-.3.2-.3.2-.3.2-.3.2-.3.2-.3.2-.3.2-.3.2-.3.2-.3.2-.4.2-.3.2-.4.2-.4.2-.4.2-.4.2-.4.2-.4.2-.4.2-.4.2-.4.2-.4.2-.4.2-.4.2-.4.2-.4.2-.4.2-.4.3-.4.3-.5.3-.5.3-.5.3-.5.3-.5.3-.5.3-.5.3-.5.3-.5.3-.5.3-.5.3-.5.3-.5.3-.5.3-.5.3-.5.3-.5.3-.5.3-.5.3-.5.3-.6.3-.6.3-.6.3-.6.3-.6.3-.6.3-.6.3-.6.3-.6.3-.6.3-.6.3-.6.3-.6.3-.6.3-.6.3-.6.3-.6.3-.6.3-.7.3-.6.3-.7.3-.7.3-.7.3-.7.3-.7.3-.7.3-.7.3-.7.3-.7.3-.7.3-.7.3-.7.3-.7.3-.7.3-.7.3-.7.3-.7.3-.7.3-.7.3-.7.3-.8.3-.8.3-.8.3-.8.3-.8.3-.8.3-.8.3-.8.3-.8.3-.8.3-.8.3-.8.3-.8.3-.8.3-.8.3-.8.3-.8.3-.8.3-.8.3-.8.3-.8.3-.8.3-.8.3-.8.3-.8.3-.8.3-.9.3-.8.3-.9.3-.9.3-.9.3-.9.3-.9.3-.9.3-.9.3-.9.3-.9.3-.9.2-.9.3-.9.2-.9.2-.9.2-.9.2-.9.2-.9.2-.9.2-.9.2-.9.2-.9.2-.9.2-.9.2-.9.2-.9.2-.9.2-.9.2-.9.2-.9.2-.9.2-.9.2-.9.2-.9.2-.9.2-.9.2-.9.2-.9.2-.9.2-.9.2-.9.2-.9.2-.9.2-.9.2-.9.2-.9.2-.9.2-.9.2-.9.2-.9.2-.9.2-.9.1-.9.2-.9.1-.9.1-.9.1-.9.1-.9.1-.9.1-.9.1-.9.1-.9.1-.9.1-.9.1-.9.1-.9.1-.9.1-.9.1-.9.1-.9.1-.9.1-.9.1-.9.1-.9.1-.9.1-.9.1-.9.1-.9.1-.9.1-.9.1-.9.1-.9.1-.9.1-.9.1-.9.1-.9.1-.9v-1.8l.1-.9V71.2l-.1-.8V68.3l-.1-.7-.1-.7v-.7l-.1-.7-.1-.7v-.7l-.1-.7-.1-.7-.1-.7-.1-.7-.1-.7-.1-.7-.1-.7-.1-.7-.1-.7-.1-.7-.1-.6-.1-.7-.1-.6-.1-.6L86,52.7l-.1-.6-.1-.6-.1-.6-.1-.6-.1-.6-.1-.6-.1-.6-.1-.6-.1-.6-.1-.6-.1-.6-.1-.6-.1-.6-.1-.6-.1-.5-.1-.5-.1-.5-.1-.5-.1-.5-.1-.5-.1-.5-.1-.5-.1-.5-.1-.5.4-.6-.1-.5-.1-.5-.1-.5-.1-.5-.1-.5-.1-.5-.1-.4-.1-.4-.1-.4-.1-.4-.1-.4-.1-.4-.1-.4-.1-.4-.1-.4-.1-.4-.1-.4-.1-.4-.1-.4-.1-.4-.1-.4-.1-.4-.1-.4-.1-.3-.1-.3-.1-.3-.1-.3v-.3l-.1-.3V19.4h1.6l.1.1.1.1.1.1.1.1.1.1.1.1.1.1.1.1.1.1.2.1.2.1.2.1.2.1.2.1.2.1.2.1.2.1.2.1.2.1.2.2.2.2.2.2.2.2.2.2.2.2.2.2.2.2.2.2.2.2.2.2.3.2.3.2.3.2.3.2.3.2.3.2.3.2.3.2.3.2.3.2.3.3.3.3.3.3.3.3.3.3.3.3.3.3.3.3.3.3.3.3.3.3.3.3.3.3.4.3.4.3.4.3.4.3.4.3.4.3.4.3.4.3.4.3.4.3.4.3.4.3.4.3.4.3.4.3.4.4.4.3.5.4.5.4.4.3.5.4.5.4.5.4.5.4.5.4.5.4.5.4.5.4.5.4.5.4.5.4.5.4.5.4.5.4.5.4.5.4.5.4.5.4.5.4.6.4.6.4.6.4.6.4.6.4.6.4.6.4.6.4.6.4.6.4.6.4.6.4.6.4.6.4.6.4.6.4.6.4.6.4.6.4.6.4.7.4.7.4.7.4.7.4.7.4.7.4.7.4.7.4.7.4.7.4.7.4.7.4.7.4.7.4.7.4.7.4.7.4.7.4.7.4.7.4.7.4.7.4.7.4.7.4.8.4.8.4.8.4.8.4.8.4.8.4.8.4.8.4.8.4.8.4.8.4.8.4.8.4.8.4.8.4.8.4.8.4.8.4.8.4.8.4.8.4.8.4.8.4.8.4.8.4.8.4.8.4.8.4.8.4.8.4.8.4.8.4.9.4.8.4.9.4.8.4.8.4.9.4.9.4.9.4.9.4.9.4.9.4.9.4.9.4.9.4.9.3.9.4.9.4.9.3.9.3.9.3.9.3.9.3.9.3.9.3.9.3.9.3.9.3.9.3.9.3.9.3.9.3.9.3.9.3.9.3.9.3.9.3.9.3.9.3.9.3.9.3.9.3.9.3.9.3.9.3.9.3.9.3.9.3.9.3.9.3.9.3.9.3.9.3.9.3.9.3.9.3.9.2.9.2.9.2.9.2.9.2.9.2.9.2.9.2.9.2.9.2.9.2.9.2.9.2.9.2.9.2.9.2.9.2.9.2.9.2.9.2.9.2.9.2.9.2.8.2.8.2.9.2.8.2.8.2.8.2.8.2.8.2.8.1.8.2.8.1.8.1.8.1.8.1.8.1.8.1.8.1.8.1.8.1.8.1.8.1.8.1.8.1.8.1.8.1.8.1.8.1.8.1.8.1.8.1.8.1.8.1.8.1.8.1.8.1.7.1.7.1.7.1.7.1.7.1.7.1.7.1.7.1.7.1.7.1.7.1.7.1.7.1.7.1.7.1h1.4l.7.1h37.4l.1.1h.1v1.6l-.1.1-.1.1-.1.1-.1.1-.1.1-.1.1-.1.1-.1.1-.1.1-.1.1-.1.1-.1.1-.1.1-.1.1-.1.1-.1.1-.2.1-.2.1-.2.1-.2.2-.2.2-.2.2-.2.2-.2.2-.2.2-.2.2-.2.2-.2.2-.2.2-.2.2-.2.2-.2.2-.2.2-.3.2-.3.2-.3.2-.3.2-.3.2-.3.2-.3.2-.3.2-.3.2-.3.2-.3.3-.3.3-.3.3-.3.3-.3.3-.3.3-.3.3-.3.3-.3.3-.3.3-.3.3-.3.3-.3.3-.4.3-.4.3-1.4,1.4-.4.3-.4.3-.4.3-.4.3-.4.3-.4.3-.4.4-.4.3-.4.4-.4.4-.4.4-.4.4-.4.4-.4.4-.4.4-.4.4-.4.4-.4.4-.4.4-.4.4-.5.4-.4.4-.5.4-.5.4-.5.4-.5.4-.5.4-.5.4-.5.4-.5.4-.5.4-.5.5-.5.5-.5.5-.5.5-.5.5-.5.5-.5.5-.5.5-.5.5-.5.5-.5.5-.5.5-.5.5-.5.5-.5.5-.5.5-.5.5-.5.5-.5.5-.5.5-.5.5-.5.5-.5.6-.5.6-.5.6-.5.6-.5.6-.5.6-.5.6-.5.6-.5.6-.5.6-.5.6-.5.6-.5.6-.5.6-.5.6-.5.6-.5.6-.5.6-.5.6-.5.6-.5.6-.5.6-.5.6-.5.6-.5.7-.5.6-.5.7-.5.7-.5.7-.5.7-.5.7-.5.7-.5.7-.5.7-.5.7-.5.7-.5.7-.5.7-.5.7-.5.7-.5.7-.5.7-.5.7-.5.7-.5.7-.5.7-.5.7-.5.7-.5.7-.5.7-.5.7-.5.7-.5.8-.5.8-.5.8-.5.8-.5.8-.5.8-.5.8-.5.8-.5.8-.5.8-.5.8-2.1.6-.5.8-.5.8-.5.8-.5.8-.5.8-.5.8-.5.8-.5.8-.5.8-.5.8-.5.8-.5.8-.5.8-.5.8-.5.8-.5.8-.5.8-.5.8-.5.8-.5.8-.5.8-.5.8-.5.8-.5.8-.5.8-.5.8-.5.8-.5.8-.4.8-.5.8-.1,1-.5.8-.4.8-.4.8-.4.8-.4.8-.4.8-.4.8-.4.8-.4.8-.4.8-.4.8-.4.8-.4.8-.4.8-.4.8-.4.8-.4.8-.4.8-.4.8-.4.8-.4.8-.4.8-.4.8-.4.8-.4.8-.4.8-.4.8-.4.8-.4.8-.4.8-.4.8-.4.8-.4.8-.3.8-.4,1.8-.3.8-.3.8-.3.8-.3.8-.3.8-.3.8-.3.8-.3.8-.3.8-.3.8-.3.8-.3.8-.3.8-.3.8-.3.8-.3.8-.3.8-.3.8-.3.8-.3.8-.3.8-.3.8-.3.8-.3.8-.3.8-.3.8-.3.8-.3.8-.3.8-.3.8-.3.8-.2.8-.3.8-.2.8-.2.7-.2.7-.2.7-.2.7-.2.7-.2.7-.2.7-.2.7-.2.7-.2.7-.2.7-.2.7-.2.7-.2.7-.2.7-.2.7-.2.7-.2.7-.2.7-.2.7-.2.7-.2.7-.2.7-.2.7-.2.6-.2.6-.2.7-.2.6-.2.6-.1.6-.2.6-.2.6-.1.6-.1.6-.1.6-.1.6-.1.6-.1.6-.1.5-.1.6-.1.6-.1.6-.1.6-.1.6-.1.6-.1.6-.1.5-.1.5-.1.5-.1.5-.1.5-.1.5-.1.5-.1.5-.1.5-.1.5-.1.5-.1.5-.1.5-.1.5-.1.5-.1.5-.1.5-.1.4-.1.5-.1.4-.1.4-.1.4-.1.4-.1.4-.1.4-.1.4-.1.4-.1.4-.1.4-.1.4-.1.4-.1.4-.1.4-.1.4-.1.4-.1.3-.1.3-.1.3-.1.3v.3l-.1.3v.3l-.1.3-.1.3v.6l-.1.3v.3l-.1.3v.9l-.1.2v.8l-.1.2v.8l-.1.2v.3l-.1.1v.1l-.1.1v.1l-.1.1v.1l-.1.1v.1l-.1.1-.1.1-.1.1h-1.7l-.1-.1-.1-.1-.1-.1-.1-.1-.1-.1-.1-.1-.1-.1-.1-.1-.1-.1-.1-.1-.1-.1-.1-.1-.1-.1-.1-.1-.1-.2-.1-.2-.1-.2-.1-.2-.1-.2-.1-.2-.1-.2-.1-.2-.1-.2-.1-.2-.1-.2-.1-.2-.1-.2-.1-.2-.1-.2-.2-.2-.1-.3-.2-.3-.1-.3-.2-.3-.2-.3-.2-.3-.2-.3-.2-.3-.2-.3-.2-.3-.2-.3-.2-.3-.2-.3-.2-.3-.2-.3-.2-.3-.2-.3-.2-.4-.2-.4-.2-.4-.2-.4-.2-.4-.2-.4-.2-.4-.2-.4-.2-.4-.2-.4-.2-.4-.2-.4-.2-.4-.3-.4-.2-.4-.3-.4-.3-.4-.3-.4-.3-.4.4-.4-.3-.5-.3-.5-.3-.4-.3-.5-.3-.5-.3-.5-.3-.5-.3-.5-.3-.5-.3-.5-.3-.5-.3-.5-.3-.5-.3-.5-.3-.5-.3-.5-.3-.5-.3-.5-.3-.5-.3-.5-.3-.5-.4-.5-.3-.5-.4-.5-.4-.5-.4-.5-.4-.5-.4-.6-.4-.6-.4-.6-.4-.6-.4-.6-.4-.6-.4-.6-.4-.6-.4-.6-.4-.6-.4-.6-.4-.6-.4-.6-.4-.6-.4-.6-.4-.6-.4-.6-.5-.6-.4-.6-.5-.6-.5-.6-.5-.6-.5-.6-.5-.6-.5-.6-.5-.6-.5-.6-.5-.6-.5-.6-.5-.6-.5-.6-.5-.6-.5-.6-.5-.6-.5-.6-.5-.6-.5-.6-.5-.6-.5-.6-.5-.6-.5-.6-.5-.6-.5-.6-.5-.6-.5-.6-.5-.6-.5-.6-.6-.6-.6-.6-.6-.6-.6-.7-.6-.6-.7-1.3-.6-.6-.6-.6-.6-.7-.6-.6-.6-.7-.6-.6-.6-.6-.6-.6-.6-.7-.6-.6-.6-.7-.6-.6-.6-.6-.6-.6-.6-.6-.6-.7-.6-.6-.6-.6-.6-.6-.6-.6-.6-.7-.7-.6-.6-.6-.7-.7-.6-.6-.7-.6-.7-.6-.7-.6-.7-.6-.7-.6-.7-.6-.7-.6-.7-.6-.7-.6-.7-.6-.7-.6-.7-.6-.7-.6-.7-.6-.7-.6-.7-.6-.7-.6-.7-.6-.7-.6-.7-.6-.7-.6-.7-.6-.7-.6-.7-.6-.7-.6-.7-.6-.7-.6-.7-.6-.7-.6-.7-.6-.7-.6-.7-.6-.7-.6-.7-.6-1-1.9-.7-.6-.7-.6-.7-.6-.7-.6-.7-.6-.7-.6-.7-.6-.7-.6-.8-.6-.7-.6-.7-.6-.8-.6-.7-.5-.8-.6-.8-.6-.8-.5-.7-.5-.8-.5-.8-.5-.8-.5-.8-.5-.8-.5-.8-.5-.8-.5-.8-.5-.8-.5-.8-.5-.8-.5-.8-.5-.8-.5-.8-.5-.8-.5-.8-.5-.8-.5-.8-.5-.8-.5-.7-.5-.8-.5-.8-.5-.7-.5-.8-.5-.7-.5-.7-.5-.8-.5-.7-.4-.7-.5-.7-.4-.7-.5-.7-.4-.7-.4-.7-.4-.7-.4-.7-.4-.7-.4-.7-.4-.7-.4-.7-.4-.7-.4-.7-.4-.7-.4-.7-.4-.7-.4-.7-.4-.7-.4-.7-.4-.7-.4-.7-.4-.7-.4-.7-.4-.7-.4-.7-.4-.7-.4-.7-.4-.7-.4-.7-.4-.7-.3-.7-.4-.7-.3-.7-.3-.7-.3-.7-.3-.7-.3-.7-.3-.7-.3-.7-.3-.6-.3-.7-.3-.6-.3-.6-.3-.6-.3-.6-.3-.6-.3-.6-.3-.6-.3-.6-.3-.6-.3-.6-.3-.6-.3-.6-.3-.6-.3-.6-.3-.6-.3-.6-.3-.6-.3-.6-.3-.6-.2-.6-.2-.6-.2-.6-.2-.6-.2-.5-.2-.6-.2L26,170l-.5-.2-.5-.2-.5-.2-.5-.2-.5-.2-.5-.2-.5-.2-.5-.2-.5-.2L21,168l-.5-.2-.5-.2-.5-.2-.5-.2-.5-.2-.5-.2-.4-.2-.5-.2-.4-.2-.4-.2-.4-.2-.4-.2-.4-.1-.1.2-.4-.1-.4-.1-.4-.1-.4-.1-.4-.1-.4-.1-.4-.1-.4-.1-.4-.1-.4-.1-.4-.1-.3-.1-.3-.1-.3-.1-.3-.1-.3-.1-.3-.1-.3-.1-.3-.1-.3-.1-.3-.1-.3-.1-.3-.1-.3-.1-.3-.1-.3-.1-.3-.1-.3-.1-.2-.1-.2-.1-.2-.1-.2-.1-.2-.1-.2-.1-.2-.1-.2-.1-.2-.1-.2-.1-.2-.1-.2-.1-.2-.1-.2-.1-.2-.1-.1-.1-.1-.1-.1-.1-.1-.1-.1-.1-.1-.1-.1-.1-.1-.1-.1-.1-.1-.1-.1-.1-.1-.1-.1-.1V160l-.1-.1v-1.4l.1-.1.1-.1.1-.1.1-.1.1-.1.1-.1.1-.1.1-.1.1-.1.1-.1.1-.1.1-.1.1-.1.1-.1.2-.1.2-.1.2-.1.2-.1.2-.1.2-.1.2-.1.2-.1.2-.1.2-.1.2-.1.2-.1.2-.1.2-.1.2-.1.2-.1.3-.1.3-.1.3-.1.3-.1.3-.1.3-.1.3-.1.3-.1.3-.1.3-.1.3-.1.3-.1.3-.1.3-.1.3-.1.4-.1.3-.1.4-.1.4-.1.4-.1.4-.1.4-.1.4-.1.4-.1.4-.1.4-.1.4-.1.4-.1.4-.2.4-.2.4-.2.4-.2.4-.2.5-.2.5-.2.5-.2.5-.2.5-.2.5-.2.5-.2.5-.2.5-.2.5-.2.5-.2.5-.2.5-.2.5-.2.5-.2.5-.2.5-.2.5-.2.5-.2.5-.2.5-.2.6-.2.6-.2.6-.2.6-.2.6-.2.6-.2.6-.3.6-.3.6-.3.6-.3.6-.3.6-.3.6-.3.6-.3.6-.3.6-.3.6-.3.6-.3.6-.3.6-.3.6-.3.6-.3.6-.3.6-.3.6-.3.7-.3.6-.3.7-.3.7-.3.7-.3.7-.3.7-.3.7-.3.7-.3.7-.3.7-.4.7-.4.7-.4.7-.4.7-.4.7-.4.7-.4.7-.4.7-.4.7-.4.7-.4.7-.4.7-.4.7-.4.7-.4.7-.4.7-.4.7-.4.7-.4.7-.4.7-.4.7-.4.7-.4.7-.4.7-.4.7-.4.7-.4.7-.5.7-.4.7-.5.7-.5.7-.5.7-.5.8-.5.7-.5.7-.5.8-.5.8-.5.7-.5.8-.5.8-.5.8-.5.8-.5.8-.5.8-.5.8-.5.8-.5.8-.5.8-.5.8-.5.8-.5.8-.5.8-.5.8-.5.8-.5.8-.5.8-.5.8-.5.7-.6.8-.5.8-.5.8-.6.7-.5.8-.6.7-.6.8-.6.7-.6.7-.6.7-.6.7-.6.7-.6.7-.6.7-.6.7-.6.7-.6.7-.6.7-.6.7-.6.7-.6.7-.6.7-.6.7-.6.7-.6.7-.6.7-.6.7-.6.7-.6.7-.6.7-.6.7-.6.7-.6.7-.6.7-.6.7-.6.7-.6.7-.6.7-.6.7-.6.7-.6.7-.6.7-.6.7-.6.7-.6.7-.6.7-.6.7-.6.7-.6.7-.6.7-.6.7-.7.7-.6.7-.6.7-.6.7-.6.6-.6.6-.6.6-.7.6-.6.6-.6.6-.6.6-.6.6-.7.6-.6.6-.6.6-.6.6-.6.6-.7.6-.7.6-.7.6-.6.6-.6.6-.6.6-.6.6-.7.6-.6.6-.6.6-.6.6-.6.6-.7.6-.6.6-.6.5-.6.6-.6.5-.6.5-.7.5-.6.5-.6.5-.6.5-.6.5-.6.5-.6.5-.6.5-.6.5-.6.5-.6.5-.6.5-.6.5-.6.5-.6.5-.6.5-.6.5-.6.5-.6.5-.6.5-.6.5-.6.5-.6.5-.6.5-.6.4-.6.5-.6.4-.6.4-.6.4-.6.4-.6.4-.6.4-.6.4-.6.4-.6.4-.6.4-.6.4-.6.4-.6.4-.6.4-.6.4-.6.4-.5.4-.6.4-.5.4-.6.4-.5.4-.5.4-.5.3-.5.3-.5.3-.5.3-.5.3-.5.3-.5.3-.5.3-.5.3-.5.3-.5.3-.5.3-.5.3-.5.3-.5.3-.5.3-.5.3-.5.3-.5.3-.5.3-.5.3-.5.3-.4.3-.4.3-.4.3-.4.3-.4.3-.4.3-.4.2-.4.2-.4.2-.4.2-.4.2-.4.2-.4.2-.4.2-.4.2-.4.2-.4.2-.4.2-.4.2-.4.2-.3.2-.3.2-.3.2-.3.2-.3.2-.3.2-.3.2-.3.2-.3.2-.3.2-.3.2-.3.2-.3.2-.3.2-.3.1-.3.2-.3.1-.3.2-.3.1-.2.1-.2.1-.2.1-.2.1-.2.1-.2.1-.2.1-.2.1-.2.1-.2.1-.2.1-.2.1-.2.1-.2.1-.1.1-.2.1-.1.1-.1.1-.1.1-.1.1-.1.1-.1.1-.1.1-.1.1-.1.1-.1.1-.1.1-.1.1-.1.1-.1.1-.1h1.4l.1.1.1.1.1.1.1.1.1.1v.1l.1.1v.2l.1.1v.2l.1.1.1.1v.7l.1.2v.8l.1.2v.8l.1.2V7l.1.3.1.3v.6l.1.3v.3l.1.3.1.3.1.3.1.3.1.3.1.3.1.4.1.4.1.4.1.4.1.4.1.4.1.4.1.4.1.4.1.4.1.4.1.4.1.4.1.4.1.4.1.4.1.4.1.4.1.5.1.5.1.5.1.5.1.5.1.5.1.5.1.5.1.5.1.5.1.5.1.5.1.5.1.5.1.5.1.5.1.6.1.6.1.6.1.6.1.6.1.6.1.6.1.6.1.6.1.6.1.6.1.6.2.6.1.6.2.6.2.6.1.6.2.6.1.6.2.6.2.7.2.7.2.7.2.7.2.7.2.7.2.7.2.7.2.7.2.7.2.7.2.7.2.7.2.7.2.7.2.7.2.7.2.7.2.7.2.7.2.7.2.7.2.7.2.7.2.7.2.7.2.8.2.8.3.7.3.8.3.8.3.8.3.8.3.8.3.8.3.8.3.8.3.8.3.8.3.8.3.8.3.8.3.8.3.8.3.8.3.8.3.8.3.8.3.8.3.8.3.8.3.8.3.8.3.8.3.8.3.8.3.8.3.8.3.8.3.8.3.8.4.8.3.8.4.8.4.8.4.8.4.8.4.8.4.8.4.8.4.8.4.8.4.8.4.8.4.8.4.8.4.8.4.8.4.8.4.8.4.8.4.8.4.8.4.8.4.8.4.8.4.8.4.8.4.8.4.8.4.8.4.8.4.8.4.8.4.8.5.8.5.8.5.8.5.8.5.8.5.8.5.8.5.8.5.8.5.8.5.8.5.8.5.8.5.8.5.8.5.8.5.8.5.8.5.8.5.8.5.8.5.8.5.8.5.8.5.8.5.8.5.8.5.8.5.8.5.8.5.8.5.8.5.8.5.8.5.8.5.8.5.8.5.8.5.8.5.8.5.8.5.8.5.8.5.7.5.8.5.7.5.7.5.7.5.7.5.7.5.7.5.7.5.7.5.7.5.7.5.7.5.7.5.7.5.7.5.7.5.7.5.7.5.7.5.7.5.7.5.7.5.7.5.7.5.7.5.7.5.6.5.6.5.7.5.6.5.6.5.6.5.6.5.6.5.6.5.6.5.6.5.6.5.6.5.6.5.6.5.6.5.6.5.6.5.6.5.6.5.6.5.6.5.6.5.6.5.5.5.6.5.5.5.5.5.5.5.5.5.5.5.5.5.5.5.5.5.5.5.5.5.5.5.5.5.5.5.5.5.5.5.5.5.5.5.5.5.5.5.5.5.5.5.5.5.4.5.4.5.4.5.4.5.4.5.4.5.4.4.4.5.4.4.4.4.4.4.4.4.4.4.4.4.4.4.4.4.4.4.4.4.4.4.4.4.4.4.4.4.3.4.4.4.3.4.3.4.3.4.3.4.3.4.3.4.3.4.3.4.3.3.3.3.3.4.3.3.3.3.3.3.3.3.3.3.3.3.3.3.3.3.3.3.3.3.3.3.3.3.2.3.2.3.2.3.2.3.2.3.2.3.2.3.2.3.2.3.2.2.2.2.2.2.2.2.2.2.2.2.2.2.2.2.2.2.2.2.2.2.2.2.2.2.2.2.1.2.2.2.1.1.1.1.1.1.1.1.1.1.1.1.1.1.1.1.1.1.1.1.1.1.1.1.1.1.1.1.1.1.1.1.1.1.1v1.6h-.2l-.1.1H278.9l-.7.1h-.6l-.7.1h-.7l-.7.1-.7.1h-.7l-.7.1-.7.1-.7.1-.7.1-.7.1-.7.1-.7.1-.7.1-.7.1-.7.1-.7.1-.7.1-.7.1-.8.1-.7.1-.8.1-.8.1-.8.1-.8.1-.8.1-.8.1-.8.1-.8.1-.8.1-.8.1-.8.1-.8.1-.8.1-.8.1-.8.1-.8.1-.8.1-.8.1-.8.1-.8.1-.8.1-.8.1-.8.2-.8.1-.8.2-.8.1-.8.2-.8.1-.8.2-.8.2-.9.2-.8.2-.8.2-.9.2-.8.2-.9.2-.9.2-.9.2-.9.2-.9.2-.9.2-.9.2-.9.2-.9.2-.9.2-.9.2-.9.2-.9.2-.9.2-.9.2-.9.2-.9.2-.9.2-.9.2-.9.2-.9.2-.9.3-.9.2-.9.3-.9.3-.9.3-.9.3-.9.3-.9.3-.9.3-.9.3-.4.3-.9.3-.9.3-.9.3-.9.3-.9.3-.9.3-.9.3-.9.3-.9.3-.9.3-.9.3-.9.3-.9.3-.9.3-.9.3-.9.3-.9.3-.9.3-.9.3-.9.3-.9.3-.9.3-.9.3-.9.3-.9.3-.9.3-.9.3-.9.3-.9.4-.9.3-.9.4-.9.4-.9.4-.9.4-.9.4-.9.4-.9.4-.9.4-.9.4-.8.4-.8.4-.9.4-.8.4-.9.4-.8.4-.8.4-.8.4-.8.4-.8.4-.8.4-.8.4-.8.4-.8.4-.8.4-.8.4-.8.4-.8.4-.8.4-.8.4-.8.4-.8.4-.8.4-.8.4-.8.4-.8.4-.8.4-.8.4-.8.4-.8.4-.8.4-.8.4-.8.4-.8.4-.8.4-.8.4-.8.4-.8.4-.8.4-.7.4-.7.4-.7.4-.7.4-.7.4-.7.4-.7.4-.7.4-.7.4-.7.4-.7.4-.7.4-.7.4-.7.4-.7.4-.7.4-.7.4-.7.4-.7.4-.7.4-.7.4-.7.4-.6.4-.6.4-.6.4-.6.4-.6.4-.6.4-.6.4-.6.4-.6.4-.6.4-.6.4-.6.4-.6.4-.6.4-.6.4-.6.4-.6.4-.6.4-.6.4-.6.4-.6.4-.5.4-.5.4-.5.4-.5.4-.5.4-.5.4-.5.4-.5.4-.5.4-.5.4-.5.4-.5.4-.5.4-.5.4-.5.4-.5.4-.5.4-.5.4-.5.4-.5.4-.5.4-.4.3-.4.4-.4.4-.4.3-.4.3-.4.3-.4.3-.4.3-.4.3-.4.3-.4.3-.4.3-.4.3-.4.3-.4.3-.4.3-.4.3-.4.3-.4.3-.3.3-.3.3-.3.3-.3.3-.3.3-.3.3-.3.3-.3.3-.3.3-.3.3-.3.3-.3.3-.3.3-.3.2-.3.2-.3.2-.3.2-.3.2-.3.2.3.1-.3.2-.3.2-.3.2-.2.2-.2.2-.2.2-.2.2-.2.2-.2.2-.2.2-.2.2-.2.2-.2.2-.2.1-.2.1-.2.1-.2.1-.2.1-.2.1-.2.1-.2.1-.2.1-.2.1-.1.1-.1.1-.2.1-.1.1-.1.1-.1.1-.1.1-.1.1-.1.1H81.5v-7.1l.1-.3v-.6l.1-.3.1-.3.1-.3.1-.3.1-.3.1-.4.1-.4.1-.4.1-.4.1-.4.1-.4.1-.4.1-.4.1-.4.1-.4.1-.4.1-.4.1-.4.1-.4.1-.4.1-.4.1-.5.1-.5.1-.5.1-.5.1-.5.1-.5.1-.5.1-.5.1-.5.1-.5.1-.5.1-.5.1-.5.1-.5.1-.5.1-.5.1-.6.1-.5.1-.6.1-.6.1-.6.1-.6.1-.6.1-.6.1-.6.1-.6.1-.6.1-.6.1-.6.1-.6.1-.6.1-.6.1-.6.1-.6.1-.6.1-.7.1-.6.1-.7.1-.7.1-.7.1-.7.1-.7.1-.7.1-.7.1-.7.1-.7.1-.7.1-.7.1-.7.1-.7v-2.8l.1-.8V211.5l-.1-.9-.1-.9-.1-.9-.1-.9-.1-.9-.1-.9-.1-.9-1.1-.5-.1-.9-.1-.9-.1-.9-.1-.9-.1-.9-.1-.9-.1-.9-.1-.9-.1-.9-.1-.9-.1-.9-.1-.9-.1-.9-.1-.9-.1-.9-.1-.9-.1-.9-.1-.9-.1-.9-.1-.9-.1-.9-.1-.9-.1-.9-.1-.9-.1-.9-.1-.9-.1-.9-.2-.9-.1-.9-.2-.9-.1-.9-.2-.9-.2-.9-.2-.9-.2-.9-.2-.9-.2-.9-.2-.9-.2-.9-.1-1.9-.2-.9-.2-.9-.2-.9-.2-.9-.2-.9-.2-.9-.2-.9-.2-.9-.2-.9-.2-.9-.2-.9-.2-.9-.2-.9-.2-.9-.2-.9-.2-.9-.2-.9-.2-.9-.2-.9-.2-.9-.2-.9-.2-.9-.2-.9-.2-.9-.2-.9-.2-.9-.2-.9-.2-.9-.3-.9-.2-.9-.3-.9-.3-.9L75,138l-.3-.9-.3-.9-.3-.9-.3-.9-.3-.9-.3-.9-.3-.9-.3-.8-.3-.8-.3-.8-.3-.8-.3-.8-.3-.8-.3-.8-.3-.8-.3-.8-.3-.8-.3-.8-.3-.8-.3-.8-.3-.8-.3-.8-.3-.8-.3-.8-.3-.8-.3-.8-.3-.8-.3-.8-.3-.8-.3-.8-.3-.8-.3-.8-.3-.8-.3-.8-.3-.8-.3-.7-.3-.7-.3-.7-.3-.7-.3-.7-.3-.7-.3-.7-.3-.7-.3-.7-.3-.7-.3-.7-.3-.7-.3-.7-.3-.7-.3-.7-.3-.7.3-.4-.3-.7-.3-.7-.3-.7-.3-.6-.3-.6-.3-.6-.3-.6-.3-.6-.3-.6-.3-.6-.3-.6-.3-.6-.3-.6-.3-.6-.3-.6-.3-.6-.3-.6-.3-.6-.3-.6-.3-.6-.3-.6-.3-.6-.3-.6-.3-.5-.3-.5-.3-.5-.3-.5-.3-.5-.3-.5-.3-.5-.3-.5-.3-.5-.3-.5-.3-.5-.3-.5-.3-.5-.3-.5-.3-.5-.3-.5-.3-.5-.3-.5-.3-.4.6-.5-.3-.4-.2-.4-.2-.4-.2-.4-.2-.4-.2-.4-.2-.4-.2-.4-.2-.4-.2-.4-.2-.4-.2-.4-.2-.4-.2-.4-.2-.4-.2-.4-.2-.4-.2-.4-.2-.3-.2-.3-.2-.3-.2-.3-.2-.3-.2-.3-.2-.3-.2-.3-.2-.3-.2-.3-.2-.3-.2-.3-.1-.3-.2-.3-.1-.3-.2-.3-.1-.3-.1-.2-.1-.3-.1-.2-.1-.2-.1-.2-.1-.2-.1-.2-.1-.2-.1-.2-.1-.2-.1-.2-.1-.2-.1-.2-.1-.2-.1-.2-.1-.2-.1-.2-.1-.2-.1-.1-.3.1-.1-.1v-2h2.9l.2.1.2.1.2.1.2.1.2.1.2.1.2.1.2.1.2.1.2.1.3.1.3.1.3.1.3.1.3.1.3.1.3.1.3.1.3.1.3.1.3.1.3.1.3.1.3.1.3.1.3.1.3.1.4.1.4.1.4.1.4.1.4.1.4.1.4.1.4.1.4.1.4.1.4.1.4.1.4.1.4.2.4.1.4.2.5.2.4.2.5.2.5.2.5.2.5.2.5.2.5.2.5.2.5.2.5.2.5.2.5.2.5.2.5.2.5.2.5.2.5.2.5.2.5.2.6.2.6.2.6.2.6.2.6.2.6.2.6.2.6.2.6.2.6.2.6.2.6.2.6.2.6.2.6.2.6.2.6.2.7.2.6.2.7.2.7.2.7.2.7.2.7.2.7.2.7.2.7.2.7.2.7.2.7.2.7.2.7.2.7.2.7.2.7.2.7.2.7.2.8.2.8.2.8.2.8.2.8.2.8.2.8.2.8.2.8.2.8.2.8.2.8.2.8.2.8.1.8.2.8.1.8.1.8.1.8.2.8.1.8.1.8.1.8.1.8.1.8.1.8.1.8.1.9.1.8.1.9.1.9.1.9.1.9.1.9.1.9.1.9.1.9.1.9.1.9.1.9.1.9.1.9.1.9.1.9.1.9.1.9.1.9.1.9.1.9.1.9.1.9.1.9.1.9.1.9.1.9.1.9.1.9.1.9.1.9.1.9.1.9.1.9.1h1.8l.9.1h.9l.9.1h30.8l.9-.1h.9l.9-.1h.9l.9-.1.9-.1.9-.1.9-.1.9-.1.9-.1.9-.1.9-.1.9-.1.9-.1.9-.1.9-.1.9-.1.9-.1.9-.1.9-.1.9-.1.9-.1.9-.1.9-.1.9-.1.9-.1.9-.1.9-.1.9-.1.9-.1.9-.1.9-.1.9-.1.9-.1.9-.1.9-.1.9-.1.8-.1.9-.1.8-.1.8-.1.8-.1.8-.1.8-.1.8-.1.8-.1.8-.1.8-.2.8-.1.8-.1.8-.1.8-.2.8-.1.8-.2.8-.2.8-.2.8-.2.8-.2.8-.2.8-.2.8-.2.8-.2.8-.2.8-.2.8-.2.8-.2.7-.2.7-.2.7-.2.7-.2.7-.2.7-.2.7-.2.7-.2.7-.2.7-.2.7-.2.7-.2.7-.2.7-.2.7-.2.7-.2.7-.2.7-.2.7-.2.7-.2.6-.2.7-.2.6-.2.6-.2.6-.2.6-.2.6-.2.6-.2.6-.2.6-.2.6-.2.6-.2.6-.2.6-.2.6-.2.6-.2.6-.2.6-.2.5-.2.5-.2.5-.2.5-.2.5-.2.5-.2.5-.2.5-.2.5-.2.5-.2.5-.2.5-.2.5-.2.5-.2.5-.2.5-.2.5-.2.5-.2.5-.2.4-.2.4-.2.4-.2.4-.1.4-.1.4-.1.4-.1.4-.1.4-.1.4-.1.4-.1.4-.1.4-.1.4-.1.4-.1.4-.1.3-.1.3-.1.3-.1.3-.1.3-.1.3-.1.3-.1.3-.1.3-.1.3-.1.3-.1.3-.1.3-.1.3-.1.3-.1.3-.1.3-.1.2-.1.2-.1.2-.1.2-.1.2-.1.2-.1.2-.1.2-.1.2-.1.2-.1.2-.1.2-.1h2.7v2.1l-.1.1-.1.1-.1.2-.1.2-.1.2-.1.2-.1.2-.1.2-.1.2-.1.2-.1.2.9.3-.1.2-.1.2-.1.2-.1.2-.1.2-.1.2-.1.2-.1.3-.1.3-.1.3-.1.3-.2.3-.1.3-.2.3-.2.3-.2.3-.2.3-.2.3-.2.3-.2.3-.2.3-.2.3-.2.3-.2.3-.2.3-.2.4-.2.4-.2.4-.2.4-.2.4-.2.4-.2.4-.2.4-.2.4-.2.4-.2.4-.2.4-.2.4-.2.4-.2.4-.2.4-.2.4-.3.4-.2.5-.3.5-.3.4-.3.5-.3.5-.3.5-.3.5-.3.5-.3.5-.3.5-.3.5-.3.5-.3.5-.3.5-.3.5-.3.5-.3.5-.3.5-.3.5-.3.5-.3.6-.3.6-.3.6-.3.6-.3.6-.3.6-.3.6-.3.6-.3.6-.3.6-.3.6-.3.6-.3.6-.3.6-.3.6-.3.6-.3.6-.3.6-.3.7-.3.6-.3.7-.3.7-.3.7-.3.7-.3.7-.3.7-.3.7-.3.7-.3.7-.3.7-.3.7-.3.7-.3.7-.3.7-.3.7-.3.7-.3.7-.3.7-.3.7-.3.7-.3.8-.3.8-.3.8-.3.8-.3.8-.3.8.2.2-.3.8-.3.8-.3.8-.3.8-.3.8-.3.8-.3.8-.3.8-.3.8-.3.8-.3.8-.3.8-.3.8-.3.8-.3.8-.3.8-.3.8-.3.8-.3.8-.3.8-.3.8-.3.9-.3.8-.3.9-.3.9-.3.9-.3.9-.3.9-.3.9-.3.9-.3.9-.2.9-.3.9-.2.9-.2.9-.2.9-.2.9-.2.9-.2.9-.2.9-.2.9-.2.9-.2.9-.2.9-.2.9-.2.9-.2.9-.2.9-.2.9-.2.9-.2.9-.2.9-.2.9-.2.9-.2.9-.2.9-.2.9-.2.9-.2.9-.2.9-.2.9-.2.9-.2.9-.2.9-.2.9-.2.9-.2.9-.2.9-.2.9-.2.9-.1.9-.2.9-.1.9-.2.9-.1.9-.1.9-.1.9-.1.9-.1.9-.1.9-.1.9-.1.9-.1.9-.1.9-.1.9-.1.9-.1.9-.1.9-.1.9-.1.9-.1.9-.1.9-.1.9-.1.9-.1.9-.1.9-.1.9-.1.9-.1.9-.1.9-.1.9-.1.9-.1.9-.1.9-.1.9-.1.9-.1.9-.1.9-.1.9v41.6l.1.7.1.7v.7l.1.7.1.7.1.7.1.7.1.7.1.7.1.7.1.7.1.7.1.7.1.7.1.7.1.6.1.6.1.6.1.6.1.6.1.6.1.6.1.6.1.6.1.6.1.6.1.6.1.6.1.6.1.6.1.6.1.6.1.6.1.5.1.6.1.5.1.5.1.5.1.5.1.5.1.5.1.5.1.5.1.5.1.5.1.5.1.5.1.5.1.5.1.5.1.4.1.5.1.4.1.4.1.4.1.4.1.4.1.4.1.4.1.4.1.4.1.4.1.4.1.4.1.4.1.4.1.4.1.4.1.3.1.3.1.3v.3l.1.3.1.3.1.3v.9l.1.3v5.9h0v.1h-1.6l-.1-.1-.1-.1-.1-.1-.1-.1-.1-.1-.1-.1-.1-.1-.1-.1-.1-.1-.2-.1-.1-.1-.2-.1-.2-.1-.2-.1-.2-.1-.2-.1-.2-.1-.2-.1-.2-.1-.2-.2-.2-.2-.2-.2-.2-.2-.2-.2-.2-.2-.2-.2-.2-.2-.2-.2-.2-.2-.2-.2-.3-.2-.3-.2-.3-.2-.3-.2-.3-.2-.3-.2-.3-.2-.3-.2-.3-.2-.3-.3-.3-.2-.3-.3-.3-.3-.3-.3-.3-.3-.3-.3-.3-.3-.3-.3-.3-.3-.3-.3-.3-.3-.4-.3-.4-.3-.4-.3-.4-.3-.4-.3-.4-.3-.4-.3-.4-.3-.4-.3-.4-.3-.4-.3-.4-.3-.4-.3-.4-.3-.4-.3-.4-.3-.4-.3-.4-.4-.4-.4-.5-.4-.5-.3-.5-.4-.5-.4-.5-.4-.5-.4-.5-.4-.5-.4-.5-.4-.5-.4-.5-.4-.5-.4-.5-.4-.5-.4-.5-.4-.5-.4-.5-.4-.5-.4-.5-.4-.5-.4-.5-.4-1.1.6-.6-.4-.6-.4-.6-.4-.6-.4-.6-.4-.6-.4-.6-.4-.6-.4-.6-.4-.6-.4-.6-.4-.6-.4-.6-.4-.6-.4-.6-.4-.6-.4-.4-.6-.6-.4-.6-.4-.6-.4-.7-.4-.7-.4-.7-.4-.7-.4-.7-.4-.7-.4-.7-.4-.7-.4-.6-.6-.7-.4-.7-.4-.7-.4-.7-.4-.7-.4-.7-.4-.7-.4-.7-.4-.7-.4-.7-.4-.7-.4-.7-.4-.7-.4-.7-.4-.8-.4-.7-.4-.8-.4-.8-.4-.8-.4-.8-.4-.8-.4-.8-.4-.8-.4-.8-.4-.8-.4-.8-.4-.8-.4-.8-.4-.8-.4-.8-.4-.8-.4-.8-.4-.8-.4-.8-.4-.8-.4-.8-.4-.8-.4-.8-.4-.8-.4-.8-.4-.8-.4-.8-.4-.8-.4-.8-.4-.8-.4-.8-.4-.8-.4-.8-.4-.8-.4-.8-.4-.9-.4-.9-.4-.9-.4-.9-.4-.8-.4-.9-.4-.9-.4-.9-.4-.9-.4-.9-.4-.9-.4-.9-.4-.9-.3-.9-.4-.9-.3-.9-.3-.9-.3-.9-.3-.9-.3-.9-.3-.9-.3-.9-.3-.9-.3-.9-.3-.9-.3-.9-.3-.9-.3-.9-.3-.9-.3-.9-.3-.9-.3-.9-.3-.9-.3-.9-.3-.9-.3-.9-.3-.9-.3-.9-.3-.9-.3-.9-.3-.9-.3-.9-.3-.9-.3-.9-.3-.9-.3-.9-.3-.9-.3-.9-.3-.9-.3-.9-.3-.9-.3-.9-.3-.9-.2-.9-.2-.9-.2-.9-.2-.9-.2-.9-.2-.9-.2-.9-.2-.9-.2-.9-.2-.9-.2-.9-.2-.9-.2-.9-.2-.9-.2-.9-.2-.9-.2-.9-.2-.9-.2-.9-.2-.9-.2-.9-.2-.8-.2-.9-.2-.8-.2-.8-.2-.8-.2-.8-.2-.8-.2-.8-.2-.8-.2-.8-.2.1.3-.8-.1-.8-.1-.8-.2-.8-.1-.8-.1-.8-.1-.8-.1-.8-.1-.8-.1-.8-.1-.8-.1-.8-.1-.8-.1-.8-.1-.8-.1-.8-.1-.8-.1-.8-.1-.8-.1-.8-.1-.8-.1-.8-.1-.8-.1-.8-.1-.8-.1-.8-.1-.7-.1-.7-.1-.7-.1-.7-.1-.7-.1-.7-.1-.7-.1-.7-.1-.7-.1-.7-.1-.7-.1-.7-.1-.7-.1-.7-.1-.7-.1H49l-.7-.1h-.7l-.7-.1H11.1l-.1-.1h-.1v-.1h0v-1.6l.1-.1.1-.1.1-.1.1-.1.1-.1.1-.1.1-.1.1-.1.1-.1.1-.1.1-.1.1-.1.1-.1.1-.1.1-.1.2-.1.1-.2.2-.2.2-.2.2-.2.2-.2.2-.2.2-.2.2-.2.2-.2.2-.2.2-.2.2-.2.2-.2.2-.2.2-.2.2-.2.3-.2.3-.2.3-.2.3-.2.3-.2.3-.2.3-.2.3-.2.3-.2.3-.3.3-.2.3-.3.3-.3.3-.3.3-.3.3-.3.3-.3.3-.3.3-.3.3-.3.4-.3.3-.3.4-.3.4-.3.4-.3.4-.3.4-.3.4-.3.4-.3.4-.3.4-.3.4-.3.4-.4.4-.3.4-.4.4-.4.4-.4.4-.4.4-.4.4-.4.4-.4.4-.4.4-.4.4-.4.4-.4.4-.4.4-.4.4-.4.5-.4.5-.4.5-.4.4-.4.5-.4.5-.4.5-.5.5-.4.5-.4.5-.5.5-.5.5-.5.5-.5.5-.5.5-.5.5-.5.5-.5.5-.5.5-.5.5-.5.5-.5.5-.5.5-.5.5-.5.5-.5.5-.5.5-.5.5-.5.5-.5.5-.5.5-.6.5-.5.5-.6.5-.6.5-.6.5-.6.5-.6.5-.6.5-.6.5-.6.5-.6.5-.6.5-.6.5-.6.5-.6.5-.6.5-.6.5-.6.5-.6.5-.6.5-.6.5-.6.5-.6.5-.6.5-.6.5-.6.5-.7.5-.7.5-.7.5-.7.5-.7.5-.7.5-.7.5-.7.5-.7.5-.7.5-.7.5-.7.5-.7.5-.7.5-.7.5-.7.5-.7.5-.7.5-.7.5-.7.5-.7.5-.7.5-.7.5-.7.5-.7.5-.7.5-.8.5-.7.5-.8.5-.8.5-.8.5-.8.5-.8.5-.8.5-.8.5-.8.5-.8.5-.8.5-.8.5-.8.5-.8.5-.8.5-.8.5-.8.5-.8.5-.8.5-.8.5-.8.5-.8.5-.8.5-.8.5-.8.5-.8.5-.8.5-.8.5-.8.5-.8.5-.8.5-.8.5-.8.5-.8.5-.8.5-.8.5-.8.5-.8.5-.8.5-.8.5-.8.5-.8.4-.8.5-.8.4-.8.4-.8.4-.8.4-.8.4-.8.4-.8.4-.8.4-.8.4-.8.4-.8.4-.8.4-.8.4-.8.4-.8.4-.8.4-.8.4-.8.4-.8.4-.8.4-.8.4-.8.4-.8.4-.8.4-.8.4-.8.4-.8.4-.8.4-.8.4-.8.4-.8.3-.8.4-.8.4-.8.3-.8.3-.8.3-.8.3-.8.3-.8.3-.8.3-.8.3-.8.3-.8.3-.8.3-.8.3-.8.3-.8.3-.8.3-.8.3-.8.3-.8.3-.8.3-.8.3-.8.3-.8.3-.8.3-.8.3-.8.3-.8.3-.8.3-.8.3-.8.3-.8.3-.8.3-.8.3-.8.2-.8.3-.8.2-.7.2-.8.2-.7.2-.7.2-.7.2-.7.2-.7.2-.7.2-.7.2-.7.2-.7.2-.7.2-.7.2-.7.2-.7.2-.7.2-.7.2-.7.2-.7.2-.7.2-.7.2-.7.2-.7.2-.7.2-.7.2-.6.2-.7.2-.6.2-.6.2-.6.1-.6.2-.6.1-.6.1-.6.1-.6.1-.6.1-.6.1-.6.1-.6.1-.6.1-.6.1-.6.1-.6.1-.6.1-.6.1-.6.1-.6.1-.6.1-.5.1-.5.1-.5.1-.5.1-.5.1-.5.1-.5.1-.5.1-.5.1-.5.1-.5.1-.5.1-.5.1-.5.1-.5.1-.5.1-.4.1-.4.1-.4.1-.4.1-.4.1-.4.1-.4.1-.4.1-.4.1-.4.1-.4.1-.4.1-.4.1-.4.1-.4.1-.4.1-.4.1-.3.1-.3.1-.3V9.9l.1-.3.1-.3V9l.1-.3V8.4l.1-.3.1-.3V6.9l.1-.3v-1l.1-.2V4.6l.1-.2V3.6l.1-.1V3.4l.1-.1V3l.1-.1.1-.1V2.7l.1-.1V2.5l.1-.1.1-.1V2.2l.1-.1.1-.1H134l.1.1.1.1.1.1.1.1.1.1.1.1.1.1.1.1.1.1.1.1.1.1.1.1.1.1.1.1.1.1.1.2.1.2.1.2.1.2.1.2.1.2.1.2.1.2.1.2.1.2.1.2.1.2.1.2.1.2.2.2.1.2.1.3.2.3.1.3.2.3.2.3.2.3.2.3.2.3.2.3.2.3.2.3.2.3.2.3.2.3.2.3.2.3.2.3.2.4.2.3.2.4.2.4.2.4.2.4.2.4.2.4.2.4.2.4.2.4.2.4.2.4.3.4.2.4.3.4.3.4.3.4.3.4.3.4.3.4.3.5.3.4.3.5.3.5.3.5.3.5.3.5.3.5.3.5.3.5.3.5.3.5.3.5.3.5.3.5.3.5.3.5.3.5.3.5.3.5.3.5.4.5.4.5.4.6.4.5.4.6.4.6.4.6.4.6.4.6.4.6.4.6.4.6.4.6.4.6.4.6.4.6.4.6.4.6.4.6.4.6.4.6.4.6.5.6.4.6.5.6.5.6.5.6.5.6.5.6.5.6.5.6.5.6.5.6.5.6.5.6.5.6.5.6.5.6.5.6.5.6.5.6.5.6.5.6.5.6.5.6.5.6.5.6.5.6.5.6.5.6.6.6.6.7.6.6.6.6.6.7.6.6.6.6.6.6.6.6.6.7.6.6.6.6.6.6.6.7.6.6.6.6.6.7.6.6.6.6.6.7.6.6.6.6.6.6.6.7.6.6.6.6.6.6.6.6.6.6.7.6.6.6.7.6.7.6.7.6.7.6.7.6.7.6.7.6.7.6.7.6.7.6.7.6.7.6.7.6.7.6.7.6.7.6.7.6.7.6.7.6.7.6.7.6.7.6.7.6.7.6.7.6.7.6.7.6.7.6.7.6.7.6.7.6.7.6.7.6.7.6.7.6.7.6.7.6.7.6.7.6.7.6.7.6.7.6.7.6.7.6.7.6.7.6.8.6.7.6.8.6.7.6.8.6.7.5.8.6.8.5.8.6.8.5.8.5.8.5.8.5.8.5.8.5.8.5.8.5.8.5.8.5.8.5.8.5.8.5.8.5.8.5.8.5.8.5.7.5.8.5.8.5.7.5.8.5.7.5.8.5.7.5.7.5.7.5.7.5.7.5.7.4.7.4.7.4.7.4.7.4.7.4.7.4.7.4.7.4.7.4.7.4.7.4.7.4.7.4.7.4.7.4.7.4.7.4.7.4.7.4.7.4.7.4.7.4.7.4.7.4.7.4.7.4.7.4.7.3.7.4.7.3.7.3.7.3.7.3.7.3.7.3.7.3.7.3.6.3.7.3.6.3.6.3.6.3.6.3.6.3.6.3.6.3.6.3.6.3.6.3.6.3.6.3.6.3.6.3.6.3.6.3.6.3.6.3.6.2.6.2.6.2.6.2.6.2.6.2.5.2.5.2.5.2.5.2.5.2.5.2.5.2.5.2.5.2.5.2.5.2.5.2.5.2.5.2.5.2.5.2.5.2.5.2.5.2.5.2.4.2.4.2.4.2.4.2.4.2.4.1.4.1.4.1.4.1.4.1.4.1.4.1.4.1.4.1.4.1.4.1.4.1.4.1.3.1.3.1.3.1.3.1.3.1.3.1.3.1.3.1.3.1.3.1.3.1.3.1.3.1.3.1.3.1.3.1.2.1.2.1.2.1.2.1.2.1.2.1.2.1.2.1.2.1.2.1.2.1.2.1.2.1.2.1.2.1.1.1.1.1.1.1.1.1.1.1.1.1.1.1.1.1.1.1.1.1.1.1.1.1.1.1.1.1v.6l.7-.2h0v.8l-.1.1-.1.1-.1.1-.1.1-.1.1-.1.1-.1.1-.1.1-.1.1-.1.1-.1.1-.1.1-.1.1-.2.1-.1.1-.2.1-.2.1-.2.1-.2.1-.2.1-.2.1-.2.1-.2.1-.2.1-.2.1-.2.1-.2.1-.2.1-.3.1-.3.1-.3.1-.3.1-.3.1-.3.1-.3.1-.3.1-.3.1-.3.1-.3.1-.3.1-.3.1-.3.1-.3.1-.3.1-.3.1-.4.1-.4.1-.4.1-.4.1-.4.1-.4.1-.4.1-.4.1-.4.1-.4.1-.4.2-.4.1-.4.1-.4.2-.4.2-.4.2-.4.2-.5.2-.5.2-.5.2-.5.2-.5.2-.5.2-.5.2-.5.2-.5.2-.5.2-.5.2-.5.2-.5.2-.5.2-.5.2-.5.2-.5.2-.5.2-.6.2-.5.2-.5.2-.6.2-.6.2-.6.2-.6.2-.6.2-.6.3-.6.3-.6.3-.6.3-.6.3-.6.3-.6.3-.6.3-.6.3-.6.3-.6.3-.6.3-.6.3-.6.3-.6.3-.6.3-.6.3-.7.3-.6.3-.6.3-.7.3-.6.3-.7.3-.7.3-.7.3-.7.3-.7.3-.7.3-.7.4-.7.3-.7.4-.7.4-.7.3-.7.4-.7.4-.7.4-.7.4-.7.4-.7.4-.7.4-.7.4-.7.4-.7.4-.7.4-.7.4-.7.4-.7.4-.7.4-.7.4-.7.4-.7.4-.7.4-.8-.3-.7.4-.7.4-.7.4-.7.4-.7.4-.7.5-.7.4-.7.5-.8.5-.7.5-.7.5-.8.5-.7.5-.8.5-.7.5-.8.5-.8.5-.8.5-.7.5-.8.5-.8.5-.8.5-.8.5-.8.5-.8.5-.8.5-.8.5-.8.5-.8.5-.8.5-.8.5-.8.5-.7.5-.8.5-.8.5-.8.5-.8.5-.8.5-.7.6-.8.6-.7.6-.8.6-.7.6-.8.6-.7.6-.7.6-.7.6-.7.6-.7.6-.7.6-.7.6-.7.6-.7.6-.7.6-.7.6-.7.6-.7.6-.7.6-.7.6-.7.6-.7.6-.7.6-.7.6-.7.6-.7.6-.7.6-.7.6-.7.6-.7.6-.7.6-.7.6-.7.6-.7.6-.7.6-.7.6-.7.6-.7.6-.7.6-.7.6-.7.6-.7.6-.7.6-.7.6-.7.6-.7.6-.7.6-.7.6-.7.6-.7.6-.7.6-.7.6-.6.6-.7.6-.6.6-.6.6-.6.6-.6.7-.6.6-.6.6-.6.7-.6.6-.6.6-.6.6-.6.7-.6.6-.6.7-.6.6-.6.6-.6.6-.6.7-.6.6-.6.6-.6.6-.3,2.1-.6.7-.6.6-.6.6-.6.6-.5.7-.6.6-.5.6-.5.6-.5.6-.5.6-.5.6-.5.6-.5.6-.5.6-.5.6-.5.6-.5.6-.5.6-.5.6-.5.6-.5.6-.5.6-.5.6-.5.6-.5.6-.5.6-.5.6-.5.6-.5.6-.5.6-.5.6-.5.6-.4.6-.4.6-.4.6-.4.6-.4.6-.4.6-.4.6-.4.6-.4.6-.4.6-.4.6-.4.6-.4.6-.4.6-.4.6-.4.6-.4.6-.4.6-.4.6-.4.5-.4.5-.4.5-.4.5-.3,1.2-.4.5-.3.5-.3.5-.3.5-.3.5-.3.5-.3.5-.3.5-.3.5-.3.5-.3.5-.3.5-.3.5-.3.5-.3.5-.3.5-.3.5-.3.5-.3.5-.3.5-.3.4-.3.5-.3.5-.3.4-.3.4-.3.4-.3.4-.3.4-.3.4-.2.4-.2.4-.2.4-.2.4-.2.4-.2.4-.2.4-.2.4-.2.4-.2.4-.2.4-.2.4-.2.4-.2.3-.2.3-.2.3-.2.3-.2.3-.2.3-.2.3-.2.3-.2.3-.2.3-.2.3-.2.3-.2.3v.1l-.2.3-.2.3-.1.3-.1.3-.1.2-.1.2-.1.2-.1.2-.1.2-.1.2-.1.2-.1.2-.1.2-.1.2-.1.2-.1.2-.1.2-.1.2-.1.2-.1.1-.1.1-.1.1-.1.1-.1.1-.1.1-.1.1-.1.1-.1.1-.1.1-.1.1-.1.1-.1.1-.1.1h-.1l-.1.1h-1.5l-.1-.1-.1-.1v-.1l-.1-.1-.1-.1-.1-.1-.1-.1v-.2l-.1-.1v-.2l-.1-.1v-.7l-.1-.2v-.8l-.1-.2v-.8l-.1-.2v-.8l-.1-.3v-.3l-.1-.3v-.3l-.1-.3v-.3l-.1-.3V311l-.1-.3-.1-.3-.1-.3-.1-.3-.1-.3-.1-.4-.1-.4-.1-.4-.1-.4-.1-.4-.1-.4-.1-.4-.1-.4-.1-.4-.1-.4-.1-.4-.1-.4-.1-.4-.1-.4-.1-.4-.1-.5-.1-.5-.1-.4-.1-.5-.1-.5-.1-.5-.1-.5-.1-.5-.1-.5-.1-.5-.1-.5-.1-.5-.1-.5-.1-.5-.1-.5-.1-.5-.1-.5-.1-.5-.1-.5-.1-.5-.1-.6-.1-.6-.1-.6-.1-.6-.1-.6-.1-.6-.1-.6-.1-.6-.1-.6-.1-.6-.1-.6-.1-.6-.1-.6-.2-.6-.1-.6-.2-.6-.2-.6-.2-.6-.2-.6-.2-.6-.2-.6-.2-.7-.2-.7-.2-.7-.2-.7-.2-.7-.2-.7-.2-.7-.2-.7-.2-.7-.2-.7-.2-.7-.2-.7-.2-.7-.2-.7-.2-.7-.2-.7-.2-.7-.2-.7-.2-.7-.2-.7-.2-.7-.2-.7-.2-.7-.2-.7-.2-.8-.3-.8-.2-.8-.3-.8-.3-.8-.3-.8-.3-.8.2-.9-.3-.8-.3-.8-.3-.8-.3-.8-.3-.8-.3-.8-.3-.8-.3-.8-.3-.8-.3-.8-.3-.8-.3-.8-.3-.8-.1-.6-.3-.8-.3-.8-.3-.8-.3-.8-.3-.8-.3-.8-.3-.8-.3-.8-.3-.8-.3-.8-.3-.8-.3-.8-.4-.8-.3-.8-.4-.8-.4-.8-.4-.8-.4-.8-.4-.8-.4-.8-.4-.8-.4-.8-.4-.8-.4-.8-.4-.8-.4-.8-.4-.8-.4-.8-.4-.8-.4-.8-.4-.8-.4-.8-.4-.8-.4-.8-.4-.8-.4-.8-.4-.8-.4-.8-.4-.8-.4-.8-.4-.8-.4-.8-.4-.8-.4-.8-.4-.8-.5-.8-.4-.8-.5-.8-.4-.8-.5-.8-.5-.8-.5-.8-.5-.8-.5-.8-.5-.8-.5-.8-.5-.8-.5-.8-.5-.8-.5-.8-.5-.8-.5-.8-.5-.8-.5-.8-.5-.8-.5-.8-.5-.8-.5-.8-.5-.8-.5-.8-.5-.8-.5-.8-.5-.8-.5-.8-.5-.8-.5-.8-.5-.8-.5-.8-.5-.8-.5-.8-.5-.8-.5-.8-.5-.8-.5-.8-.5-.8-.5-.8-.5-.8-.5-.8-.5-.8-.5-.8-.5-.7-.5-.7-.5-.7-.5-.7-.5-.7-.5-.7-.5-.7-.5-.7-.5-.7-.5-.7-.5-.7-.5-.7-.5-.7-.5-.7-.5-.7-.5-.7-.5-.7-.5-.7-.5-.7-.5-.7-.5-.7-.5-.7-.5-.7-.5-.7-.5-.7-.5-.7-.5-.7-.5-.6-.5-.6L61,154l-.5-.6-.5-.6-.5-.6-.5-.6-.5-.6-.5-.6-.5-.6-.5-.6-.5-.6L56,148l-.5-.6-.5-.6-.5-.6-.5-.6-.5-.6-.5-.6-.5-.6-.5-.6-.5-.6L51,142l-.5-.6-.5-.6-.5-.5-.5-.5-.5-.5-.5-.5-.5-.5-.5-.5-.5-.5-.5-.5-.5-.5-.5-.5-.5-.5-.5-.5-.5-.5-.5-.5-.5-.5-.5-.5-.5-.5-.5-.5-.5-.5-.5-.5-.5-.5-.5-.5-.5-.5-.5-.4-.5-.4-.5-.4-.5-.4-.5-.4-2-1.6-.5-.4-.5-.4-.5-.4-.4-.4-.4-.4-.4-.4-.4-.4-.4-.4-.4-.4-.4-.4-.4-.4-.4-.4-.4-.4-.4-.4-.4-.4-.4-.4-.4-.3-.4-.4-.4-.3-.4-.3-.4-.3-.4-.3-.4-.3-.4-.3-.4-.3-.4-.3-.4-.3-.4-.3-.3-.3-.3-.3-.3-.3-.3-.3-.3-.3-.3-.3-.3-.3-.3-.3-.3-.3-.3-.3-.3-.3-.3-.3-.3-.3-.3-.2-.3-.2-.3-.2-.3-.2-.3-.2-.3-.2-.3-.2-.3-.2-.2-.2-.3-.2-.2-.2-.2-.2-.2-.2-.2-.2-.2-.2-.2-.2-.2-.2-.2-.2-.2-.2-.2-.2-.2-.2-.2-.2-.2-.2-.2-.1-.2-.1-.2-.1-.1-.1-.1-.1-.1-.1-.1-.1-.1-.1-.1-.1-.1-.1-.1-.1-.1-.1-.1-.1-.1-.1-.1-.1-.1-.1-.1-.1-.1-.1-.1-.1v-1.7h.2l.1-.1H47.7l.7-.1h.7l.7-.1h.7l.7-.1h.7l.7-.1.7-.1.7-.1.7-.1.7-.1.7-.1.7-.1.7-.1.7-.1.7-.1.7-.1.7-.1.7-.1.8-.1.8-.1.8-.1.8-.1.8-.1.8-.1.8-.1.8-.1.8-.1.8-.1.8-.1.8-.1.8-.1.8-.1.8-.1.8-.1.8-.1.8-.1.8-.1.8-.1.8-.1.8-.1.8-.1.8-.1.8-.2.8-.1.8-.1.8-.2.8-.2.8-.2.8-.2.8-.2.9-.2.8-.2.9-.2.9-.2.8-.2.9-.2.9-.2.9-.2.9-.2.9-.2.9-.2.9-.2.9-.2.9-.2.9-.2.9-.2.9-.2.9-.2.9-.2.9-.2.9-.2.9-.2.9-.2.9-.2.9-.2.9-.2.9-.2.9-.3.9-.3.9-.3.9-.3.9-.3.9-.3.9-.3.9-.3.9-.3.9-.3.9-.3.9-.3.9-.3.9-.3.9-.3.9-.3.9-.3.9-.3.9-.3.9-.3.9-.3.9-.3.9-.3.9-.3.9-.3.9-.3.9-.3.9-.3.9-.3.9-.3.9-.3.9-.3.9-.3.9-.3.9-.3.9-.3.9-.3.9-.4.9-.3.9-.4.9-.4.9-.4.9-.4.9-.4.9-.4.9-.4.9-.4.8-.4.9-.4.8-.4.9-.4.8-.4.8-.4.9-.4.8-.4.8-.4.8-.4.8-.4.8-.4.8-.4.8-.4.8-.4.8-.4.8-.4.8-.4.8-.4.8-.4.8-.4.8-.4.8-.4.8-.4.8-.4.8-.4.8-.4.8-.4.8-.4.8-.4.8-.4.8-.4.8-.4.8-.4.8-.4.8-.4.8-.4.8-.4.8-.4.7-.4.7-.4.7-.4.7-.4.7-.4.7-.4.7-.4.7-.4.7-.4.7-.4.7-.4.7-.4.7-.4.7-.4.7-.4.7-.4.7-.4.7-.4.7-.4.7-.4.7-.4.7-.4.7-.4.7-.4.6-.4.6-.4.6-.4.6-.4.6-.4.6-.4.6-.4.6-.4.6-.4.6-.4.6-.4.6-.4.6-.4.6-.4.6-.4.6-.4.6-.4.6-.4.6-.4.6-.4.5-.4.5-.4.5-.4.5-.4.5-.4.5-.4.5-.4.5-.4.5-.4.5-.4.5-.4.5-.4.5-.4.5-.4.5-.4.5-.4.5-.4.5-.4.5-.4.5-.4.5-.3.5-.4.4-.3.4-.4.4-.3.4-.3.4-.3.4-.3.4-.3.4-.3.4-.3.4-.3.4-.3.4-.3.4-.3.4-.3.4-.3.4-.3.4-.3.4-.3.3-.3.3-.3.3-.3.3-.3.3-.3.3-.3.3-.3.3-.3.3-.3.3-.3.3-.3.3-.3.3-.3.3-.2.3-.2.3-.2.3-.2.3-.2.3-.2.3-.2.3-.2.2-.2.3-.2.2-.2.2-.2.2-.2.2-.2.2-.2.2-.2.2-.2.2-.2.2-.2.2-.1.2-.2.2-.1.2-.1.2-.1.2-.1.2-.1.2-.1.2-.1.2-.1.2-.1.1-.1.2-.1.1-.1.1-.1.1-.1.1-.1.1-.1.1-.1.1-.1.1-.1h1.5v.1l.1.1v6.7l-.1.3v.6l-.1.3-.1.3V29l-.1.3-.1.3-.1.4-.1.3-.1.4-.1.4-.1.4-.1.4-.1.4-.1.4-.1.4-1.6-.4-.1.4-.1.4-.1.4-.1.4-.1.4-.1.4-.1.4-.1.4-.1.5-.1.5-.1.5-.1.5-.1.5-.1.5-.1.5-.1.5-.1.5-.1.5-.1.5-.1.5-.1.5-.1.5-.1.5-.1.6-.1.6-.1.6-.1.6-.1.6-.1.6-.1.6-.1.6-.1.6-.1.6-.1.6-.1.6-.1.6-.1.6-.1.6-.1.6-.1.6-.1.6-.1.6-.1.6-.1.7-.1.7-.1.7-.1.7-.1.7-.1.7-.1.7-.1.7-.1.7-.1.7-.1.7-.1.7-.1.7-.1.7v.7l-.1.7v41.6l.1.9.1.9.1.9.1.9.1.9.1.9.1.9.1.9.1.9.1.9.1.9.1.9.1.9.1.9.1.9.1.9.1.9.1.9.1.9.1.9.1.9.1.9.1.9.1.9.1.9.1.9.1.9.1.9.1.9.1.9.1.9.1.9.1.9.1.9.1.9.2.9.2.9.2.9.2.9.2.9.2.9.2.9.2.9.2.9.2.9.2.9.2.9.2.9.2.9.2.9.2.9.2.9.2.9.2.9.2.9.2.9.2.9.2.9.2.9.2.9.2.9.2.9.2.9.2.9.2.9.2.9.2.9.2.9.2.9.2.9.2.9.2.9.2.9.2.9.2.9.3.9.2.9.3.9.3.9.3.9.3.9.3.9.3.9.3.9.3.9.3.9.3.8.3.9.3.8.3.8.3.8.3.8.3.8.3.8.3.8.3.8.3.8.3.8.3.8.3.8.3.8.3.8.3.8.3.8.3.8.3.8.3.8.3.8.3.8.3.8.3.8.3.8.3.8.3.8.3.7.3.7.3.7.3.7.3.7.3.7.3.7.3.7.3.7.3.7.3.7.3.7.3.7.3.7.3.7.3.7.3.7.3.7.3.7.3.7.3.7.3.6.3.6.3.6.3.6.3.6.3.6.3.6.3.6.3.6.3.6.3.6.3.6.3.6.3.6.3.6.3.6.3.6.3.6.3.6.3.6.3.5.3.6.3.5.3.5.3.5.3.5.3.5.3.5.3.5.3.5.3.5.3.5.3.5.3.5.3.5.3.5.3.5.3.4.3.5.2.5.3.4.2.4.2.4.2.4.2.4.2.4.2.4.2.4.2.4.2.4.2.4.2.4.2.4.2.4.2.4.2.4.2.4.2.4.2.3.2.3.2.3.2.3.2.3.2.3.2.3.2.3.2.3.2.3.2.3.2.3.2.3.2.3.1.3.2.3.1.3.1.3.1.2.1.2.1.2.1.2.1.2.1.2.1.2.1.2.1.2.1.2.1.2.1.2.1.2.1.2.1.2.1.2.1.2.1.2.1.1v2h-3.1l-.2-.1h-.2l-.2-.1-.2-.1-.2-.1-.2-.1-.2-.1-.2-.1-.2-.1-.2-.1-.3-.1-.3-.1-.3-.1-.3-.1-.3-.1-.3-.1-.3-.1-.3-.1-.3-.1-.3-.1-.3-.1-.3-.1-.3-.1-.3-.1-.3-.1-.3-.1-.3-.1-.3-.1-.4-.1-.4-.1-.4-.1-.4-.1-.4-.1-.4-.1-.4-.1-.4-.1-.4-.1-.4-.1-.4-.1-.4-.2-.4-.1-.4-.2-.4-.1-.5-.2-.5-.2-.5-.2-.5-.2-.5-.2-.5-.2-.5-.2-.5-.2-.5-.2-.5-.2-.5-.2-.5-.2-.5-.2-.5-.2-.5-.2H262l-.5-.2-.5-.2-.5-.2-.6-.2-.6-.2-.6-.2-.6-.2-.6-.2-.6-.2-.6-.2-.6-.2-.6-.2-.6-.2-.6-.2-.6-.2-.6-.2-.6-.2-.6-.2-.6-.2-.6-.2-.6-.2-.7-.2-.7-.2-.7-.2-.7-.2-.7-.2-.7-.2-.7-.2-.7-.2-.7-.2-.7-.2-.7-.2-.7-.2-.7-.2-.7-.2-.7-.2-.7-.2-.7-.2-.7-.2-.7-.2-.8-.2-.7-.2-.8-.2-.8-.2-.8-.2-.8-.2-.8-.2-.8-.2-.8-.2-.8-.2-.8-.2-.8-.2-.8-.1-.8-.2-.8-.2-.8-.1-.8-.2-.8-.2-.8-.2-.8-.1-.8-.1-.8-.2-.8-.1-.8-.1-.8-.1-.8-.1-.9-.1-.8-.1-.9-.1-.9-.1-.8-.1-.9-.1-.9-.1-.9-.1-.9-.1-.9-.1-.9-.1-.9-.1-.9-.1-.9-.1-.9-.1-.9-.1-.9-.1-.9-.1-.9-.1-.9-.1-.9-.1-.9-.1-.9-.1-.9-.1-.9-.1-.9-.1-.9-.1-.9-.1-.9-.1-.9-.1-.9-.1-.9-.1-.9-.1-.9-.1-.9-.1-.9-.1-.9-.1-.9-.1h-1.8l-.9-.1H145.6l-.9.1-.9.1h-.9l-.9.1-.9.1-.9.1-.9.1-.9.1-.9.1-.9.1-.9.1-.9.1-.9.1-.9.1-.9.1-.9.1-.9.1-.9.1-.9.1-.9.1-.9.1-.9.1-.9.1-.9.1-.9.1-.9.1-.9.1-.9.1-.9.1-.9.1-.9.1-.9.1-.9.1-.9.1-.9.1-.9.1-.8.1-.8.1-.8.1-.8.1-.8.1-.8.1-.8.1-.8.1-.8.1-.8.1-.8.1-2.4,1.7-.8.2-.8.1-.8.2-.8.1-.8.2-.8.2-.8.2-.8.2-.8.2-.8.2-.8.2-.8.2-.8.2-.8.2-.8.2-.7.2-.8.2-.7.2-.7.2-.7.2-.7.2-.7.2-.7.2-.7.2-.7.2-.7.2-.7.2-.7.2-.7.2-.7.2-.7.2-.7.2-.7.2-.7.2-.6.2-.7.2-.6.2-.6.2-.6.2-.6.2-.6.2-.6.2-.6.2-.6.2-.6.2-.6.2-.6.2-.6.2-.6.2-.6.2-.6.2-.6.2-.6.2-.6.2-.5.2-.5.2-.5.2-.5.2-.5.2-.5.2-.5.2-.5.2-.5-1.2-.5.2-.5.2-.5.2-.5.2-.5.2-.5.2-.5.2-.5.2-.4.2-.5.2-.4.1-.4.2-.4.1-.4.2-.4.1-.4.1-.4.1-.4.1-.4.1-.4.1-.4.1-.4.1-.4.1-.4.1-.4.1-.1.3-.3.1-.3.1-.3.1-.3.1-.3.1-.3.1-.3.1-.3.1-.3.1-.3.1-.3.1-.3.1-.3.1-.3.1-.3.1-.3.1-.3.1-.2.1-.2.1-.2.1-.2.1-.2.1-.2.1-.2.1-.2.1-.2.1h-.4l-.2.1H38.8v-.1h0v-1.9l.1-.1.1-.2.1-.1.1-.2.1-.2.1-.2.1-.2.1-.2.1-.2.1-.2.1-.2.1-.2.1-.2.1-.2.1-.2.1-.2.1-.2.1-.2.1-.3.1-.2.1-.3.1-.3.2-.3.1-.3.2-.3.2-.3.2-.3.2-.3.2-.3.2-.3.2-.3.2-.3.2-.3.2-.3.2-.3.2-.3.2-.3.2-.4.2-.4.2-.4.2-.4.2-.4.2-.4.2-.4.2-.4.2-.4.2-.4.2-.4.2-.4.2-.4.2-.4.2-.4.2-.4.2-.4.3-.4.2-.5.3-.4.3-.5.3-.5.3-.5.3-.5.3-.5.3-.5.3-.5.3-.5.3-.5.3-.5.3-.5.3-.5.3-.5.3-.5.3-.5.3-.5.3-.5.3-.6.3-.5.3-.6.3-.6.3-.6.3-.6.3-.6.3-.6.3-.6.3-.6.3-.6.3-.6.3-.6.3-.6.3-.6.3-.6.3-.6.3-.6.3-.6.3-.6.3-.6.3-.7.3-.6.3-.7.3-.7.3-.7.3-.7.3-.7.3-.7.3-.7.3-.7.3-.7.3-.7.3-.7.3-.7.3-.7.3-.7.3-.7.3-.7.3-.7.3-.7.3-.7.3-.8.3-.8.3-.8.3-.8.3-.8.3-.8.3-.8.3-.8.3-.8.3-.8.3-.8.3-.8.3-.8.3-.8.3-.8.3-.8.3-.8.3-.8.3-.8.3-.8.3-.8.3-.8.3-.8.3-.8.3-.8.3-.8.3-.9.3-.8.3-.9.3-.9.3-.8.3-.9.3-.9.3-.9.3-.9.3-.9.3-.9.2-.9.3-.9.2-.9.2-.9.2-.9.2-.9.2-.9.2-.9.2-.9.2-.9.2-.9.2-.9.2-.9.2-.9.2-.9.2-.9.2-.9.2-.9.2-.9.2-.9.2-.9.2-.9.2-.9.2-.9.2-.9.2-.9.2-.9.2-.9.2-.9.2-.9.2-.9.2-.9.2-.9.2-.9.2-.9.2-.9.2-.9.2-.9.2-.9.2-.9.1-.9.2-.9.2-.9.1-.9.2-.9.1-.9.1-.9.1-.9.1-.9.1-.9.1-.9.1-.9.1-.9.1-.9.1-.9.1-.9.1-.9.1-.9.1-.9.1-.9.1-.9.1-.9.1-.9.1-.9.1-.9.1-.9.1-.9.1-.9.1-.9.1-.9.1-.9.1-.9.1-.9.1-.9.1-.9.1-.9.1-.9v-2.7l.1-.9V70.1l-.1-.8V66.5l-.1-.7v-.7l-.1-.7-.1-.7V63l-.1-.7-.1-.7-.1-.7-.1-.7-.1-.7-.1-.7-.1-.7-.1-.7-.1-.7-.1-.7-.1-.7-.1-.6-.1-.6-.1-.6-.1-.6-.1-.6-.1-.6-.1-.6-.1-.6-.1-.6-.1-.6-.1-.6-.1-.6-.1-.6-.1-.6-.1-.6-.1-.6-.1-.6-.1-.6-.1-.6-.1-.5-.1-.5-.1-.5-.1-.5-.1-.5-.1-.5-.1-.5-.1-.5-.1-.5-.1-.5-.1-.5-.1-.5-.1-.5-.1-.5-.1-.5-.1-.4-.1-.4-.1-.4-.1-.4-.1-.4-.1-.4-.1-.4-.1-.4-.1-.4-.1-.4-.1-.4-.1-.4-.1-.4-.1-.4-.1-.4-.1-.4-.1-.4-.1-.3-.1-.3-.1-.3-.1-.3-.1-.3v-.3l-.1-.3-.1-.3V20h0v-.1h1.5l.1.1.1.1.1.1.1.1.1.1.1.1.1.1.1.1.1.1.2.1.1.1.2.1.2.1.2.1.2.1.2.1.2.1.2.1.2.1.2.2.2.1.2.2.2.2.2.2.2.2.2.2.2.2.2.2.2.2.2.2.3.2.2.2.3.2.3.2.3.2.3.2.3.2.3.2.3.2.3.2.3.3.3.3.3.3.3.3.3.3.3.3.3.3.3.3.3.3.3.3.3.3.3.3.3.3.4.3.4.3.4.3.4.3.4.3.4.3.4.3.4.3.4.3.4.3.4.3.4.3.4.3.4.3.4.3.4.4.4.3.4.4.5.3.4.4.5.4.5.3.5.4.5.4.5.4.5.4.5.4.5.4.5.4.5.4.5.4.5.4.5.4.5.4.5.4.5.4.5.4.5.4.5.4.6.4.6.4.6.4.6.4.6.4.6.4.6.4.6.4.6.4.6.4.6.4.6.4.6.4.6.4.6.4.6.4.6.4.6.4.6.4.6.4.7.4.6.4.7.4.6.4.7.4.7.4.7.4.7.4.7.4.7.4.7.4.7.4.7.4.7.4.7.4.7.4.7.4.7.4.7.4.7.4.7.4.7.4.7.4.7.4.7.4.8.4.8.4.8.4.8.4.8.4.8.4.8.4.8.4.8.4.8.4.8.4.8.4.8.4.8.4.8.4.8.4.8.4.8.4.8.4.8.4.8.4.8.4.8.4.8.4.8.4.8.4.8.4.8.4.8.4.8.4.8.4.8.4.8.4.8.4.8.4.9.4.8.4.9.4.9.4.9.4.9.4.9.4.9.4.9.4.9.4.9.4.9.4.9.3.9.4.9.3.9.3.9.3.9.3.9.3.9.3.9.3.9.3.9.3.9.3.9.3.9.3.9.3.9.3.9.3.9.3.9.3.9.3.9.3.9.3.9.3.9.3.9.3.9.3.9.3.9.3.9.3.9.3.9.3.9.3.9.3.9.3.9.3.9.3.9.3.9.3.9.3.9.2.9.3.9.2.9.2.9.2.9.2.9.2.9.2.9.2.9.2.9.2.9.2.9.2.9.2.9.2.9.2.9.2.9.2.9.2.9.2.9.2.9.2.9.2.9.2.9.2.8.2.8.2.9.2.8.2.8.2.8.2.8.2.8.1.8.1.8.2.8.1.8.1.8.1.8.1.8.1.8.1.8.1.8.1.8.1.8.1.8.1.8.1.8.1.8.1.8.1.8.1.8.1.8.1.8.1.8.1.8.1.8.1.8.1.8.1.7.1.7.1.7.1.7.1.7.1.7.1.7.1.7.1.7.1.7.1.7.1.7.1.7.1h.7l.7.1.7.1h.7l.7.1h2l.6.1h34.5l.1.1h.1l.1.1h0V105l-.1.1-.1.1-.1.1-.1.1-.1.1-.1.1-.1.1-.1.1-.1.1-.1.1-.1.1-.1.1-.1.1-.1.1-.1.1-.2.1-.1.1-.2.1-.2.1-.2.2-.2.1-.2.2-.2.2-.2.2-.2.2-.2.2-.2.2-.2.2-.2.2-.2.2-.2.2-.2.2-.3.2-.2.2-.3.2-.3.2-.3.2-.3.2-.3.2-.3.2-.3.2-.3.2-.3.3-.3.3-.3.3-.3.3-.3.3-.3.3-.3.3-.3.3-.3.3-.3.3-.3.3-.3.3-.3.3-.4.3-.3.3-.4.3-.4.3-.4.3-.4.3-.4.3-.4.3-.4.3-.4.3-.4.4-.4.3-.4.4-.4.4-.4.4-.4.4-.4.4-.4.4-.4.4-.4.4-.4.4-.4.4-.4.4-.4.4-.5.4-2,.5-.4.4-.5.4-.5.4-.5.4-.5.4-.5.4-.5.4-.5.4-.5.5-.5.5-.5.5-.5.5-.5.5-.5.5-.5.5-.5.5-.5.5-.5.5-.5.5-.5.5-.5.5-.5.5-.5.5-.5.5-.5.5-.5.5-.5.5-.5.5-.5.5-.5.6-.5.5-.5.5-.5.6-.5.6-.5.6-.5.6-.5.6-.5.6-.5.6-.5.6-.5.6-.5.6-.5.6-.5.6-.5.6-.5.6-.5.6-.5.6-.5.6-.5.6-.5.6-.5.6-.5.6-.5.6-.5.6-.5.6-.5.7-.5.7-.5.7-.5.7-.5.7-.5.7-.5.7-.5.7-.5.7-.5.7-.5.7-.5.7-.5.7-.5.7-.5.7-1.6.8-.5.7-.5.7-.5.7-.5.7-.5.7-.5.7-.5.7-.5.7-.5.7-.5.7-.5.7-.5.8-.5.8-.5.8-1,.9-.5.8-.5.8-.5.8-.5.8-.5.8-.5.8-.5.8-.5.8-.5.8-.5.8-.5.8-.5.8-.5.8-.5.8-.5.8-.5.8-.5.8-.5.8-.5.8-.5.8-.5.8-.5.8-.5.8-.5.8-.5.8-.5.8-.5.8-.5.8-.5.8-.5.8-.5.8-.5.8-.5.8-.5.8-.5.8-.5.8-.5.8-.5.8-.5.8-.5.8-.4.8-.4.8-.4.8-.4.8-.4.8-.4.8-.4.8-.4.8-.4.8-.4.8-.4.8-.4.8-.4.8-.4.8-.4.8-.4.8-.4.8-.4.8-.4.8-.4.8-.4.8-.4.8-.2,1.4-.4.8-.4.8-.4.8-.4.8-.4.8-.4.8-.4.8-.4.8-.4.8-.3.8-.4.8-.3.8-.3.8-.3.8-.3.8-.3.8-.2,1.2-.3.8-.3.8-.3.8-.3.8-.3.8-.3.8-.3.8-.3.8-.3.8-.3.8-.3.8-.3.8-.3.8-.3.8-.3.8-.3.8-.3.8-.3.8-.3.8-.3.8-.3.8-.3.8-.3.8-.3.8-.3.8-.3.8-.2.8-.2.8-.2.8-.2.7-.2.7-.2.7-.2.7-.2.7-.2.7-.2.7-.2.7-.2.7-.2.7-.2.7-.2.7-.2.4-.2.7-.2.7-.2.7-.2.7-.2.7-.2.7-.2.7-.2.7-.2.7-.2.6-.2.7-.2.6-.2.6-.2.6-.2.6-.2.6-.2.6-.1.6-.1.6-.2.6-.1.6-.1.6-.1.6-.1.6-.1.6-.1.6-.1.6-.1.6-.1.6-.1.6-.1.5-.1.6-.1.5-.1.6-.1.5-.1.5-.1.5-.1.5-.1.5-.1.5-.1.5-.1.5-.1.5-.1.5-.1.5-.1.5-.1.5-.1.5-.1.4-.1.5-.1.4-.1.4-.1.4-.1.4-.1.4-.1.4-.1.4-.1.4-.1.4-.1.4-.1.4-.1.4-.1.4-.1.4-.1.4-.1.4-.1.3-.1.3-.1.3-.1.3-.1.3v.3l-.1.3v.6l-.1.3v.6l-.1.3v.6l-.1.2v.9l-.1.2v.8l-.1.2v.8l-.1.2v.3l-.1.1v.1l-.1.1-.1.1v.1l-.1.1v.1l-.1.1-.1.1-.1.1H189l-.1-.1-.1-.1-.1-.1-.1-.1-.1-.1-.1-.1-.1-.1-.1-.1-.1-.1-.1-.1-.1-.1-.1-.1-.1-.1-.1-.2-.1-.1-.1-.2-.1-.2-.1-.2-.1-.2-.1-.2-.1-.2-.1-.2-.1-.2-.1-.2-.1-.2-.1-.2-.1-.2-.1-.2-.1-.2-.1-.3-.2-.3-.2-.3-.2-.3-.2-.3-.2-.3-.2-.3-.2-.3-.2-.3-.2-.3-.2-.3-.2-.3-.2-.3-.2-.3-.2-.3-.2-.3-.2-.3-.2-.3-.2-.3-.2-.4-.2-.4-.2-.4-.2-.4-.2-.4-.2-.4-.2-.4-.2-.4-.2-.4-.2-.4-.2-.4-.2-.4-.2-.4-.3-.4-.3-.4-.3-.4-.3-.4-.3-.4-.3-.4-.3-.4-.3-.5-.3-.5-.3-.5-.3-.5-.3-.5-.3-.5-.3-.5-.3-.5-.3-.5-.3-.5-.3-.5-.3-.5-.3-.5-.3-.5-.3-.5-.3-.5-.3-.5-.3-.5-.4-.5-.3-.5-.4-.5-.4-.5-.4-.5-.4-.6-.4-.5-.4-.6-.4-.6-.4-.5-.4-.6-.4-.6-.4-.6.8-.4-.4-.6-.4-.6-.4-.6-.4-.6-.4-.6-.4-.6-.4-.6-.4-.6-.4-.6-.4-.6-.4-.6-.5-.6-.4-.6-.5-.6-.5-.6-.5-.6-.5-.6-.5-.6-.5-.6-.5-.6-.5-.6-.5-.6-.5-.6-.5-.6-.5-.6-.5-.6-.5-.6-.5-.6-.5-.6-.5-.6-.5-.6-.5-.6-.5-.6-.5-.6-.5-.6-.5-.6-.5-.6-.5-.6-.6-.6-.6-.6-.5-.7-.6-.6-.6-.6-.6-.7-.6-.6-.6-.6-.6-.6-.6-.6-.6-.7-.6-.6-.6-.6-.6-.6-.6-.6-.6-.7-.6-.7-.6-.7-.6-.6-.6-.6-.6-.6-.6-.6-.6-.7-.6-.7-.6-.6-.6-.6-.6-.6-.6-.6-.7-.6-.6-.6-.7-.6-.7-.6-.6-.6-.7-.6-.7-.6-.7-.6-.7-.6-.7-.6-.7-.6-.7-.6-.7-.6-.7-.6-.7-.6-.7-.6-.7-.6-.7-.6-.7-.6-.7-.6-.7-.6-.7-.6-.7-.6-.7-.6-.7-.6-.7-.6-.7-.6-.7-.6-.7-.6-.7-.6-.7-.6-.7-.6-.7-.6-.6-2.8-.7-.6-.7-.6-.7-.6-.7-.6-.7-.6-.7-.6-.7-.6-.7-.6-.7-.6-.7-.6-.7-.6-.7-.6-.7-.6-.7-.6-.8-.6-.7-.6-.7-.6-.8-.6-1.2-.2-.8-.5-.7-.6-.8-.6-.8-.5-.8-.5-.8-.5-.8-.5-.7-.5L89,205l-.8-.5-.8-.5-.8-.5-.8-.5-.8-.5-.8-.5-.8-.5-.8-.5-.8-.5L81,200l-.8-.5-.8-.5-.7-.5-.8-.5-.8-.5-.8-.5-.7-.5-.8-.5-.7-.5-.8-.5-.7-.5-.8-.5-.7-.5-.7-.5-.7-.5L69,192l-.7-.4-.7-.4-.7-.4-.7-.4-.7-.4-.7-.4-.7-.4-.7-.4-.7-.4L62,188l-.7-.4-.7-.4-.7-.4-.7-.4-.7-.4-.7-.4-.7-.4-.7-.4-.7-.4L55,184l-.7-.4-.7-.4-.7-.4-.7-.4-.7-.4-.7-.4-.7-.4-.7-.4-.7-.4-.7-.3-.7-.3-.7-.3-.7-.3-.7-.3-.7-.3-.7-.3-.6-.3-.7-.3-.6-.3-.6-.3-.7-.3-.6-.3-.6-.3-.6-.3-.6-.3-.6-.3L37,175l-.6-.3-.6-.3-.6-.3-.2-.4-.6-.3-.6-.3-.6-.3-.6-.3-.6-.3-.6-.3-.6-.3-.6-.2-.6-.2L29,171l-.6-.2-.4-.1-.5-.2-.5-.2-.5-.2-.5-.2-.5-.2-.5-.2-.5-.2-.5-.2-.5-.2-.5-.2-.5-.2-.5-.2-.5-.2-.5-.2-.5-.2-.5-.2-.5-.2-.5-.2-.5-.2-.5-.2-.5-.2-.4-.2-.4-.2-.4-.2-.4-.2-.4-.1-.4-.1-.4-.2-.4-.1-.4-.1-.4-.1-.4-.1-.4-.1-.4-.1-.4-.1-.4-.1-.4-.1-.4-.1-.3-.1-.3-.1-.3-.1-.3-.1-.3-.1-.3-.1-.3-.1-.3-.1-.3-.1-.3-.1-.3-.1-.3-.1-.3-.1-.3-.1-.3-.1-.3-.1-.3-.1-.2-.1-.2-.1-.2-.1-.2-.1-.2-.1-.2-.1-.2-.1-.2-.1-.2-.1-.2-.1-.2-.1-.2-.1-.2-.1-.2-.1-.1-.1-.2-.1-.1-.1-.1-.1-.1-.1-.1-.1-.1-.1-.1-.1-.1-.1-.1-.1-.1-.1-.1-.1-.1-.1-.1-.1v-1.6l.1-.1.1-.1.1-.1.1-.1.1-.1.1-.1.1-.1.1-.1.1-.1.1-.1.1-.1.1-.1.1-.1.1-.1.2-.1.1-.1.2-.1.2-.1.2-.1.2-.1.2-.1.2-.1.2-.1.2-.1.2-.1.2-.1.2-.1.2-.1.2-.1.3-.1.3-.1.3-.1.3-.1.3-.1.3-.1.3-.1.3-.1.3-.1.3-.1.3-.1.3-.1.3-.1.3-.1.3-.1.3-.1.3-.1.3-.1.4-.1.4-.1.4-.1.4-.1.4-.1.4-.1.4-.1.4-.1.4-.1.4-.1.4-.1.4-.2.4-.2.4-.2.4-.2.4-.2.5-.2.5-.2.5-.2.5-.2.5-.2.5-.2.5-.2.5-.2.5-.2.5-.2.5-.2.5-.2.5-.2.5-.2.5-.2.5-.2.5-.2.5-.2.5-.2.5-.2.5-.2.6-.2.6-.2.6-.2.6-.2.6-.2.6-.3.6-.3.6-.3.6-.3.6-.3.6-.3.6-.3.6-.3.6-.3.6-.3.6-.3.6-.3.6-.3.6-.3.6-.3.6-.3.6-.3.6-.3.7-.3.6-.3.7-.3.7-.3.7-.3.7-.3.7-.3.7-.3.7-.3.7-.3.7-.3.7-.3.7-.4.7-.4.7-.4.7-.4.7-.4.7-.4.7-.4.7-.4.7-.4.7-.4.7-.4.7-.4.7-.4.7-.4.7-.4.7-.4.7-.4.7-.4.7-.4.7-.4.7-.4.7-.4.7-.4.7-.4.7-.4.7-.4.7-.4.7-.5.7-.5.7-.4.7-.5.7-.5.7-.5.8-.5.7-.5.8-.5.7-.5.8-.5.8-.5.7-.5.8-.5.8-.5.8-.5.8-.5.8-.5.8-.5.8-.5.8-.5.8-.5.8-.5.8-.5.8-.5.8-.5.8-.5.8-.5.8-.5.8-.5.8-.5.8-.5.8-.5.7-.6.8-.6.8-.5.7-.6.7-.6.8-.6.7-.6.7-.6.7-.6.7-.6.7-.6.7-.6.7-.6.7-.6.7-.6.7-.6.7-.6.7-.6.7-.6.7-.6.7-.6.7-.6.7-.6.7-.6.7-.6.7-.6.7-.6.7-.6.7-.6.7-.6.7-.6.7-.6.7-.6.7-.6.7-.6.7-.6.7-.6.7-.6.7-.6.7-.6.7-.6.7-.6.7-.6.7-.6.7-.6.7-.6.7-.6.7-.6.7-.7.7-.6.6-.6.7-.6.6-.6.7-.6.6-.6.6-.6.7-.6.6-.6.6-.6.6-.7.6-.6.6-.6.6-.6.6-.7.6-.6.6-.7.6-.6.6-.6.6-.6.6-.7.6-.6.6-.6.6-.7.6-.6.6-.6.6-.6.6-.6.6-.7.6-.6.6-.6.6-.7.6-.6.6-.6.5-.6.5-.6.5-.6.5-.6.5-.6.5-.6.5-.6.5-.6.5-.6.5-.6.5-.6.5-.6.5-.6.5-.6.5-.6.5-.6.5-.6.5-.6.5-.6.5-.6.5-.6.5-.6.5-.6.5-.6.4-.6.5-.6.4-.6.5-.6.4-.6.4-.6.4-.6.4-.6.4-.6.4-.6.4-.6.4-.6.4-.6.4-.6.4-.6.4-.6.4-.6.4-.6.4-.6.4-.6.4-.6.4-.6.4-.5.4-.6.4-.5.4-.5.3-.5.4-.5.3-.5.3-.5.3-.5.3-.5.3-.5.3-.5.3-.5.3-.5.3-.5.3-.5.3-.5.3-.5.3-.5.3-.5.3-.5.3-.5.3-.5.3-.5.3-.4.3-.5.3-.4.3-.4.3-.4.3-.4.3-.4.2-.4.3-.4.2-.4.2-.4.2-.4.2-.4.2-.4.2-.4.2-.4.2-.4.2-.4.2-.4.2-.4.2-.4.2-.3.2-.3.2-.3.2-.3.2-.3.2-.3.2-.3.2-.3.2-.3.2-.3.2-.3.2-.3.2-.3.2-.3.2-.3.2-.3.1-.3.2-.3.1-.2.1-.2.1-.2.1-.2.1-.2.1-.2.1-.2.1-.2.1-.2.1-.2.1-.2.1-.2.1-.2.1-.2.1-.2.1-.2.1-.1.1-.1.1-.1.1-.1.1-.1.1-.1.1-.1.1-.1.1-.1.1-.1.1-.1.1-.1.1-.1.1-.1.1-.1h.1l.1-.1h1.3l.1.1.1.1.1.1.1.1.1.1v.1l.1.1.1.1V2l.1.1v.3l.1.1.1.2v.7l.1.2v.8l.1.2v.8l.1.3V6.9l.1.3.1.3v.3l.1.3v.3l.1.3.1.3v.3l.1.3.1.3.1.3.1.4.1.4.1.4.1.4.1.4.1.4.1.4.1.4.1.4.1.4.1.4.1.4.1.4.1.4.1.4.1.5.1.4.1.4.1.5.1.5.1.5.1.5.1.5.1.5.1.5.1.5.1.5.1.5.1.5.1.5.1.5.1.5.1.5.1.5.1.6.1.6.1.6.1.6.1.6.1.6.1.6.1.6.1.6.1.6.1.6.1.6.1.6.2.6.1.6.1.6.2.6.1.6.2.6.2.7.2.6.2.6.2.7.2.7.2.7.2.7.2.7.2.7.2.7.2.7.2.7.2.7.2.7.2.7.2.7.2.7.2.7.2.7.2.7.2.7.2.7.2.7.2.7.2.7.2.7.2.8.2.7.3.8.2.8.3.8.3.8.3.8.3.8.3.8.3.8.3.8.3.8.3.8.3.8.3.8.3.8.3.8.3.8.3.8.3.8.3.8.3.8.3.8.3.8.3.8.3.8.3.8.3.8.3.8.3.8.3.8.3.8.3.8.3.8.3.8.3.8.4.8.3.8.4.8.4.8.4.8.4.8.4.8.4.8.4.8.4.8.4.8.4.8.4.8.4.8.4.8.4.8.4.8.4.8.4.8.4.8.4.8.4.8.4.8.4.8.4.8.4.8.4.8.4.8.4.8.4.8.4.8.4.8.5.8.4.8.5.8.5.8.4.8.5.8.5.8.5.8.5.8.5.8.5.8.5.8.5.8.5.8.5.8.5.8.5.8.5.8.5.8.5.8.5.8.5.8.5.8.5.8.5.8.5.8.5.8.5.8.5.8.5.8.5.8.5.8.5.8.5.8.5.8.5.8.5.8.5.8.5.8.5.8.5.8.5.8.5.8.5.8.5.7.5.8.5.7.5.7.5.7.5.7.5.7.5.7.5.7.5.7.5.7.5.7.5.7.5.7.5.7.5.7.5.7.5.7.5.7.5.7.5.7.5.7.5.7.5.7.5.7.5.7.5.7.5.6.5.7.5.7.5.6.5.6.5.6.5.6.5.6.5.6.5.6.5.6.5.6.5.6.5.6.5.6.5.6.5.6.5.6.5.6.5.6.5.6.5.6.5.6.5.6.5.6.5.5.5.5.5.6.5.5.5.5.5.5.5.5.5.5.5.5.5.5.5.5.5.5.5.5.5.5.5.5.5.5.5.5.5.5.5.5.5.5.5.5.5.5.5.5.5.4.5.5.5.4.5.4.5.4.5.4.5.4.4.4.5.4.4.4.5.4.4.4.4.4.4.4.4.4.4.4.4.4.4.4.4.4.4.4.4.4.4.4.4.3.4.3.4.4.4.3.4.3.4.3.4.3.4.3.4.3.4.3.4.3.4.3.4.3.3.3.4.3.3.3.3.3.3.3.3.3.3.3.3.3.3.3.3.3.3.3.3.2.3.3.3.2.3.2.3.2.3.2.3.2.3.2.3.2.3.2.3.2.2.2.2.2.2.2.2.2.2.2.2.2.2.2.2.2.2.2.2.2.2.2.2.2.2.2.2.2.2.2.2.2.2.1.1.1.2.1.1.1.1.1.1.1.1.1.1.1.1.1.1.1.1.1.1.1.1.1.1.1.1.1.1.1.1.1v1.5h0v.1l-.1.1H275.9l-.7.1-.7.1h-.7l-.7.1-.7.1-.7.1-.7.1-.7.1-.7.1-.7.1-.7.1-.7.1-.7.1-.7.1-.7.1-.7.1-.7.9-.8.1-.8.1-.8.1-.8.1-.8.1-.8.1-.8.1-.8.1-.8.1-.8.1-.8.1-.8.1-.8.1-.8.1-.8.1-.8.1-.8.1-.8.1-.8.1-.8.1-.8.1-.8.1-.8.2-.8.1-.8.1-.8.1-.8.2-.8.2-.8.2-.8.2-.8.2-.8.2-.8.2-.8.2-.9.2-.9.2-.9.2-.9.2-.9.2-.9.2-.9.2-.9.2-.9.2-.9.2-.9.2-.9.2-.9.2-.9.2-.9.2-.9.2-.9.2-.5.3-.9.2-.9.2-.9.2-.9.2-.9.2-.9.2-.9.3-.9.2-.9.3-.9.3-.9.3-.9.3-.9.3-.9.3-.9.3-.9.3-.9.3-.9.3-.9.3-.9.3-.9.3-.9.3-.9.3-.9.3-.9.3-.9.3-.9.3-.9.3-.9.3-.9.3-.9.3-.9.3-.9.3-.9.3-.9.3-.5.2-.9.3-.9.3-.9.3-.9.3-.9.3-.9.3-.9.3-.9.3-.9.4-.9.3-.9.4-.9.4-.9.4-.9.4-.9.4-.9.4-.9.4-.9.4-.9.4-.9.4-.8.4-.8.4-.9.4-.8.4-.8.4-.8.4-.8.4-.8.4-.8.4-.8.4-.8.4-.8.4-.8.4-.8.4-.8.4-.8.4-.8.4-.8.4-.8.4-.8.4-.8.4-.8.4-.8.4-.8.4-.8.4-.8.4-.8.4-.8.4-.8.4-.8.4-.8.4-.8.4-.8.4-.8.4-.8.4-.8.4-.7.4-.8.4-.7.4-.7.4-.7.4-.7.4-.7.4-.7.4-.4.3-.7.4-.7.4-.7.4-.7.4-.7.4-.7.4-.7.4-.7.4-.7.4-.7.4-.7.4-.7.4-.7.4-.7.4-.7.4-.7.4-.6.4-.6.4-.6.4-.6.4-.6.4-.6.4-.6.4-.6.4-.6.4-.6.4-.6.4-.6.4-.6.4-.6.4-.6.4-.6.4-.6.4-.6.4-.6.4-.6.4-.6.4-.5.4-.5.4-.5.4-.5.4-.5.4-.5.4-.5.4-.5.4-.5.4-.5.4-.5.4-.5.4-.5.4-.5.4-.5.4-.5.4-.5.4-.5.3-.4.4-.5.4-.5.3-.4.4-.4.4-.4.3-.4.3-.4.3-.4.3-.4.3-.4.3-.4.3-.4.3-.4.3-.4.3-.4.3-.4.3-.2.6-.4.3-.4.3-.4.3-.3.3-.3.3-.3.3-.3.3-.3.3-.3.3-.3.3-.3.3-.3.3-.3.3-.3.3-.3.3-.3.3-.3.2-.3.2-.3.2-.3.2-.3.2-.3.2-.3.2-.3.2-.3.2-.2.2-.2.2-.2.2-.2.2-.2.2-.2.2-.2.2-.2.2-.2.2-.2.2-.2.2-.2.1-.2.1-.2.1-.2.1-.2.1-.2.1-.2.1-.2.1-.2.1-.2.1-.2.1-.1.1-.1.1-.1.1-.1.1-.1.1-.1.1-.1.1-.1.1-.1.1H81.4v-6.8l.1-.3.1-.3v-.6l.1-.3.1-.3.1-.3.1-.3.1-.3.1-.4.1-.4.1-.4.1-.4.1-.4.1-.4.1-.4.1-.4.1-.4.1-.4.1-.4.1-.4.1-.4.1-.4.1-.4.1-.5.1-.4.1-.5.1-.5.1-.5.1-.5.1-.5.1-.5.1-.5.1-.5.1-.5.1-.5.1-.5.1-.5.1-.5.1-.5.1-.5.1-.5.1-.6.1-.6.1-.6.1-.6.1-.6.1-.6.1-.6.1-.6.1-.6.1-.6.1-.6.1-.6.1-.6.1-.6.1-.6.1-.6.1-.6.1-.6.1-.7.1-.7.1-.7.1-.7.1-.7.1-.7.1-.7.1-.7.1-.7.1-.7.1-.7.1-.7v-.7l.1-.7.1-.7.1-.7V211.3l-.1-.9v-.9l-.1-.9-.1-.9-.1-.9-.1-.9-.1-.9-.1-.9-.1-.9-.1-.9-.1-.9-.1-.9-.1-.9-.1-.9-.1-.9-.1-.9-.1-.9-.1-.9-.1-.9-.1-.9-.1-.9-.1-.9-.1-.9-.1-.9-.1-.9-.1-.9-.1-.9-.1-.9-.1-.9-.1-.9-.1-.9-.1-.9-.1-.9-.1-.9-.1-.9-.1-.9L85,178l-.2-.9-.2-.9-.2-.9-.2-.9-.2-.9-.2-.9-.2-.9-.2-.9-.2-.9L83,169l-.2-.9-.2-.9-.2-.9-.2-.9-.2-.9-.2-.9-.2-.9-.2-.9-.2-.9L81,160l-.2-.9-.2-.9-.2-.9-.2-.9-.2-.9-.2-.9-.2-.9-.2-.9-.2-.9L79,151l-.2-.9-.2-.9-.2-.9-.2-.9-.2-.9-.2-.9-.2-.9-.2-.9-.3-.9-.2-.9-.3-.9-.2-.9-.3-.9-.3-.9-.3-.9-.3-.9-.3-.9-.3-.9-.3-.9L74,133l-.3-.9-.3-.8-.3-.8-.3-.8-.3-.8-.3-.8-.3-.8-.3-.8-.3-.8-.3-.8-.3-.8-.3-.8-.3-.8-.3-.8-.3-.8-.3-.8-.3-.8-.3-.8-.3-.8-.3-.8-.3-.8-.3-.8-.3-.8-.3-.8-.3-.8-.3-.8-.3-.8-.3-.8-.3-.8L65,109l-.3-.7-.3-.7-.3-.7-.3-.7-.3-.7-.3-.7-.3-.7-.3-.7-.3-.7L62,102l-.3-.7-.3-.7-.3-.7-.3-.7-.3-.7-.3-.7-.3-.7-.3-.7-.3-.7-.3-.6-.3-.6-.3-.6-.3-.6-.3-.6-.3-.6-.3-.6-.3-.6-.3-.6-.3-.6-.3-.6-.3-.6-.3-.6-.3-.6-.3-.6-.3-.6-.3-.6-.3-.6-.3-.6-.3-.5-.3-.6-.3-.5-.3-.5-.3-.5-.3-.5-.3-.5-.3-.5-.3-.5-.3-.5-.3-.5-.3-.5-.3-.5-.3-.5-.3-.5-.3-.5-.3-.5-.3-.5-.3-.4-.3-.5-.3-.4-.2-.4-.2-.4-.3-.4-.2-.4-.2-.4-.2-.4-.2-.4-.2-.4-.2-.4-.2-.4-.2-.4-.2-.4-.2-.4-.2-.4-.2-.4-.2-.4-.2-.4-.2-.4-.2-.3-.2-.3-.2-.3-.2-.3-.2-.3-.2-.3-.2-.3-.2-.3-.2-.3-.2-.3-.2-.3-.2-.3-.2-.3-.2-.3-.2-.3-.1-.3-.1-.3-.1-.3-.1-.2-.1-.2-.1-.2-.1-.2-.1-.2-.1-.2.3-.4-.1-.2-.1-.2-.1-.2-.1-.2-.1-.2-.1-.2-.1-.2-.1-.2-.1-.2-.1-.2-.1-.1-.1-.1V55.4h2.9l.2.1.2.1.2.1.2.1.2.1.2.1.2.1.2.1.2.1.2.1.2.1.3.1.3.1.3.1.3.1.3.1.3.1.3.1.3.1.3.1.3.1.3.1.3.1.3.1.3.1.3.1.3.1.3.1.4.1.4.1.4.1.4.1.4.1.4.1.4.1.4.1.4.1.4.1.4.1.4.1.4.1.4.2.4.2.4.2.4.2.5.2.5.2.5.2.5.2.5.2.5.2.5.2.5.2.5.2.5.2.5.2.5.2.5.2.5.2.5.2.5.2.5.2.5.2.6.2.6.2.6.2.6.2.6.2.6.2.6.2.6.2.6.2.6.2.6.2.6.2.6.2.6.2.6.2.6.2.6.2.6.2.6.2.7.2.7.2.7.2.7.2.7.2.7.2.7.2.7.2.7.2.7.2.7.2.7.2.7.2.7.2.7.2.7.2.7.2.7.2.7.2.8.2.8.2.8.2.8.2.8.2.8.2.8.2.8.2.8.2.8.2.8.2.8.2.8.2.8.1.8.2.8.1.8.1.8.1.8.2.8.1.8.1.8.1.8.1.8.1.8.1.8.1.8.1.8.1.9.1.9.1.9.1.9.1.9.1.9.1.9.1.9.1.9.1.9.1.9.1.9.1.9.1.9.1.9.1.9.1.9.1.9.1.9.1.9.1.9.1.9.1.9.1.9.1.9.1.9.1.9.1.9.1.9.1.9.1.9.1.9.1.9.1.9.1.9.1h1.8l.9.1h31.6l.9-.1h1.8l.9-.1.9-.1.9-.1.9-.1.9-.1.9-.1.9-.1.9-.1.9-.1.9-.1.9-.1.9-.1.9-.1.9-.1.9-.1.9-.1.9-.1.9-.1.9-.1.9-.1.9-.1.9-.1.9-.1.9-.1.9-.1.9-.1.9-.1.9-.1.9-.1.9-.1.9-.1.9-.1.9-.1.9-.1.9-.1.8-.1.9-.1.8-.1.8-.1.8-.1.8-.1.8-.1.8-.1.8-.1.8-.2.8-.1.8-.1.8-.1.8-.1.8-.2.8-.2.8-.2.8-.2.8-.2.8-.2.8-.2.8-.2.8-.2.8-.2.8-.2.8-.2.8-.2.8-.2.7-.2.7-.2.7-.2.7-.2.7-.2.7-.2.7-.2.7-.2.7-.2.7-.2.7-.2.7-.2.7-.2.7-.2.7-.2.7-.2.7-.2.7-.2.6-.2.7-.2.6-.2.6-.2.6-.2.6-.2.6-.2.6-.2.6-.2.6-.2.6-.2.6-.2.6-.2.6-.2.6-.2.6-.2.6-.2.6-.2.6-.2.5-.2.5-.2.5-.2.5-.2.5-.2.5-.2.5-.2.5-.2.5-.2.5-.2.5-.2.5-.2.5-.2.5-.2.5-.2.5-.2.5-.2.5-.2.5-.2.5-.2.4-.2.4-.2.4-.2.4-.1.4-.1.4-.1.4-.1.4-.1.4-.1.4-.2.4-.1.4-.1.4-.1.4-.1.4-.1.4-.1.3-.1.3-.1.3-.1.3-.1.3-.1.3-.1.3-.1.3-.1.3-.1.3-.1.3-.1.3-.1.3-.1.3-.1.3-.1.3-.1.3-.1.2-.1.2-.1.2-.1.2-.1.2-.1.2-.1.2-.1.2-.1.2-.1.2-.1.2-.1H285v2l-.1.1-.1.1-.1.1-.1.2-.1.2-.1.2-.1.2-.1.2-.1.2-.1.2-.1.2-.1.2,1.2.3-.1.2-.1.2-.1.2-.1.2-.1.2-.1.2-.1.2-.1.2-.1.3-.1.3-.2.3-.1.3-.2.3-.2.3-.2.3-.2.3-.2.3-.2.3-.2.3-.2.3-.2.3-.2.3-.2.3-.2.3-.2.3-.2.3-.2.4-.2.4-.2.4-.2.4-.2.4-.2.4-.2.4-.2.4-.2.4-.2.4-.2.4-.2.4-.2.4-.2.4-.2.4-.2.4-.3.4-.3.5-.3.4-.3.5-.3.5-.3.5-.3.5-.3.5-.3.5-.3.5-.3.5-.3.5-.3.5-.3.5-.3.5-.3.5-.3.5-.3.5-.3.5-.3.6-.3.5-.3.6-.3.5-.3.6-.3.6-.3.6-.3.6-.3.6-.3.6-.3.6-.3.6-.3.6-.3.6-.3.6-.3.6-.3.6-.3.6-.3.6-.3.6-.3.6-.3.6-.3.6-.3.7-.3.7-.3.7-.3.7-.3.7-.3.7-.3.7-.3.7-.3.7-.3.7-.3.7-.3.7-.3.7-.3.7-.3.7-.3.7-.3.7-.3.7-.3.7-.3.8-.3.8-.3.8-.3.8-.3.8-.3.8-.3.8-.3.8-.3.8-.3.8-.3.8-.3.8-.3.8-.3.8-.3.8-.3.8-.3.8-.3.8-.3.8-.3.8-.3.8-.3.8-.3.8-.3.8-.3.8-.3.8-.3.8-.3.8-.3.9-.3.9-.3.8-.3.9-.3.9-.3.9-.3.9,1.1.8-.3.9-.3.9-.3.9-.2.9-.2.9-.2.9-.2.9-.2.9-.2.9-.2.9-.2.9-.2.9-.2.9-.2.9-.2.9-.2.9-.2.9-.2.9-.2.9-.2.9-.2.9-.2.9-.2.9-.2.9-.2.9-.2.9-.2.9-.2.9-.2.9-.2.9-.2.9-.2.9-.2.9-.2.9-.2.9-.2.9-.2.9-.2.9-.2.9-.2.9-.2.9-.2.9-.1.9-.2.9-.2.9-.1.9-.1.9-.1.9-.1.9-.1.9-.1.9-.1.9-.1.9-.1.9-.1.9-.1.9-.1.9-.1.9-.1.9-.1.9-.1.9-.1.9-.1.9-.1.9-.1.9-.1.9-.1.9-.1.9-.1.9-.1.9-.1.9-.1.9-.1.9-.1.9-.1.9-.1.9-.1.9v.9l-.1.9-.1.9v37.9l.1.7v2.9l.1.7.1.7v.7l.1.7.1.7.1.7.1.7.1.7.1.7.1.7.1.7.1.7.1.7.1.7.1.6.1.7.1.6.1.6.1.6.1.6.1.6.1.6.1.6.1.6.1.6.1.6.1.6.1.6.1.6.1.6.1.6.1.6.1.6.1.6.1.5.1.5.1.5.1.5.1.5.1.5.1.5.1.5.1.5.1.5.1.5.1.5.1.5.1.5.1.5.1.5.1.5.1.4.1.4.1.4.1.4.1.4.1.4.1.4.1.4.1.4.1.4.1.4.1.4.1.4.1.4.1.4.1.4.1.4.1.3.1.3.1.3v.3l.1.3v.3l.1.3.1.3v6.7h-1.5l-.1-.1-.1-.1-.1-.1-.1-.1-.1-.1-.1-.1-.1-.1-.1-.1-.1-.1-.2-.1-.1-.1-.2-.1-.2-.1-.2-.1-.2-.1-.2-.1-.2-.1-.2-.1-.2-.1-.2-.1-.2-.2-.2-.2-.2-.2-.2-.2-.2-.2-.2-.2-.2-.2-.2-.2-.2-.2-.2-.2-.2-.2-.3-.2-.3-.2-.3-.2-.3-.2-.3-.2-.3-.2-.3-.2-.3-.2-.3-.2-.3-.3-.3-.3-.3-.3-.3-.3-.3-.3-.3-.3-.3-.3-.3-.3-.3-.3-.3-.3-.3-.3-.3-.3-.3-.3-.4-.3-.4-.3-1.7.7-.4-.3-.4-.3-.4-.3-.4-.3-.4-.3-.4-.3-.4-.3-.4-.3-.4-.3-.4-.3-.4-.3-.4-.3-.4-.4-.4-.3-.4-.4-.5-.4-.5-.3-.4-.4-.5-.4-.5-.4-.5-.4-.5-.4-.5-.4-.5-.4-.5-.4-.5-.4-.5-.4-.5-.4-.5-.4-.5-.4-.5-.4-.5-.4-.5-.4-.5-.4-.5-.4-.5-.4-.5-.4-.6-.4-.6-.4-.6-.4-.6-.4-.6-.4-.6-.4-.6-.4-.6-.4-.6-.4-.6-.4-.6-.4-.6-.4-.6-.4-.6-.4-.6-.4-.6-.4-.6-.4-.6-.4-.6-.4-.6-.4-.6-.4-.7-.4-.6-.4-.7-.4-.7-.4-.7-.4-.7-.4-.7-.4-.7-.4-.7-.4-.7-.4-.7-.4-.7-.4-.7-.4-.7-.4-.8-.6-.7-.4-.7-.4-.7-.4-.7-.4-.7-.4-.7-.4-.7-.4-.8-.4-.7-.4-.8-.4-.8-.4-.8-.4-.8-.4-.8-.4-.8-.4-.8-.4-.8-.4-.8-.4-.8-.4-.8-.4-.8-.4-.8-.4-.8-.4-.8-.4-.8-.4-.8-.4-.8-.4-.8-.4-.8-.4-.8-.4-.8-.4-.8-.4-.8-.4-.8-.4-.8-.4-.8-.4-.8-.4-.8-.4-.8-.4-.8-.4-.8-.4-.9-.4-.8-.4-.8-.4-.9-.4-.8-.4-.9-.4-.9-.4-.9-.4-.9-.4-.9-.4-.9-.4-.9-.4-.9-.3-.9-.4-.9-.3-.9-.4-.9-.3-.9-.3-.9-.3-.9-.3-.9-.3-.9-.3-.9-.3-.6-.3-.9-.3-.9-.3-.9-.3-.9-.3-.9-.3-.9-.3-.9-.3-.9-.3-.9-.3-.9-.3-.9-.3-.9-.3-.9-.3-.9-.3-.9-.3-.9-.3-.9-.3-.9-.3-.9-.3-.9-.3-.9-.3-.9-.3-.9-.3-.9-.3-.9-.3-.9-.3-.9-.3-.9-.3-.9-.3-.9-.2-.9-.3-.9-.2-.9-.2-.9-.2-.9-.2H104l-.9-.2-.9-.2-.9-.2-.9-.2-.9-.2-.9-.2-.9-.2-.9-.2-.9-.2-.9-.2-.9-.2-.9-.2-.9-.2-.9-.2-.9-.2-.9-.2-.8-.2-.9-.2-.9-.2-.8-.2-.9-.2-.8-.2-.9-.2-.8-.2-.8-.2-.8-.1-.8-.2-.8-.1-.8-.1-.8-.1-.8-.1-.8-.1-.8-.1-.8-.1-.8-.1-.8-.1-.8-.1-.8-.1-.8-.1-.8-.1-.8-.1-.8-.1-.8-.1-.8-.1-.8-.1-.8-.1-.8-.1-.8-.1-.8-.1-.8-.1-.8-.1-.8-.1-.7-.1-.7-.1-.7-.1-.7-.1-.7-.1-.7-.1-.7-.1-.7-.1-.7-.1-.7-.1-.7-.1-.7-.1-.7-.1-.3.1h-.7l-.7-.1-.7-.1H11.1l-.1-.1h-.1l-.1-.1v-.1h0v-1.4l.1-.1v-.1l.1-.1.1-.1.1-.1.1-.1.1-.1.1-.1.1-.1.1-.1.1-.1.1-.1.1-.1.1-.1.1-.1.1-.1.2-.1.1-.1.2-.2.2-.1.2-.2.2-.2.2-.2.2-.2.2-.2.2-.2.2-.2.2-.2.2-.2.2-.2.2-.2.2-.2.2-.2.2-.2.3-.2.3-.2.3-.2.3-.2.3-.2.3-.2.3-.2.3-.2.3-.2.3-.2.3-.3.3-.3.3-.3.3-.3.3-.3.3-.3.3-.3.3-.3.3-.3.3-.3.4-.3.3-.3.3-.3.4-.3.4-.3.4-.3.4-.3.4-.3.4-.3.4-.3.4-.3.4-.3.4-.4.4-.3.4-.4.4-.4.4-.4.4-.4.4-.4.4-.4.4-.4.4-.4.4-.4.4-.4.4-.4.4-.4.5-.4.4-.4.5-.4.5-.4.5-.4.5-.4.5-.4.5-.4.5-.4.5-.5.5-.5.5-.5.5-.5.5-.5.5-.5.5-.5.5-.5.5-.5.5-.5.5-.5.5-.5.5-.5.5-.5.5-.5.5-.5.5-.5.5-.5.5-.5.5-.5.5-.5.5-.5.5-.5.5-.5.5-.6.5-.6.5-.6.5-.6.5-.6.5-.6.5-.6.5-.6.5-.6.5-.6.5-.6.5-.6.5-.6.5-.6.5-.6.5-.6.5-.6.5-.6.5-.6.5-.6.5-.6.5-.6.5-.6.5-.6.5-.6.5-.7.5-.7.5-.7.5-.7.5-.7.5-.7.5-.7.5-.7.5-.7.5-.7.5-.7.5-.7.5-.7.5-.7.5-.7.5-.7.5-.7.5-.7.5-.7.5-.7.5-.7.5-.7.5-.7.5-.7.5-.7.5-.7.5-.7.5-.8.5-.8.5-.8.5-.8.5-.8.5-.8.5-.8.5-.8.5-.8.5-.8.5-.8.5-.8.5-.8.5-.8.5-.8.5-.8.5-.8.5-.8.5-.8.5-.8.5-.8.5-.8.5-.8.5-.8.5-.8.5-.8.5-.8.5-.8.5-.8.5-.8.5-.8.5-.8.5-.8.5-.8.5-.8.5-.8.5-.8.5-.8.5-.8.5-.8.4-.8.5-.8.5-.8.4-.8.5-.8.4-.8.4-.8.4-.8.4-.8.4-.8.4-.8.4-.8.4-.8.4-.8.4-.8.4-.8.4-.8.4-.8.4-.8.4-.8.4-.8.4-.8.4-.8.4-.8.4-.8.4-.8.4-.8.4-.8.4-.8.4-.8.4-.8.4-.8.4-.8.4-.8.4-.8.3-.8.4-.8.3-.8.3-.8.3-.8.3-.8.3-.8.3-.8.3-.8.3-.8.3-.8.3-.8.3-.8.3-.8.3-.8.3-.8.3-.8.3-.8.3-.8.3-.8.3-.8.3-.8.3-.8.3-.8.3-.8.3-.8.3-.8.3-.8.3-.8.3-.8.3-.8.3-.8.3-.8.3-.8.3-.8.2-.8.2-.8.2-.7.2-.7.2-.7.2-.7.2-.7.2-.7.2-.7.2-.7.2-.7.2-.7.2-.7.2-.7.2-.7.2-.7.2-.7.2-.7.2-.7.2-.7.2-.7.2-.7.2-.7.2-.7.2-.7.2-.6.2-.7.2-.6.2-.6.2-.6.2-.6.2-.6.1-.6.2-.6.1-.6.1-.6.1-.6.1-.6.1-.6.1-.6.1-.6.1-.6.1-.6.1-.6.1-.6.1-.6.1-.6.1-.6.1-.5.1-.5.1-.5.1-.5.1-.5.1-.5.1-.5.1-.5.1-.5.1-.5.1-.5.1-.5.1-.5.1-.5.1-.5.1-.5.1-.4.1-.4.1-.4.1-.4.1-.4.1-.4.1-.4.1-.4.1-.4.1-.4.1-.4.1-.4.1-.4.1-.4.1-.4.1-.4.1-.4.1-.4.1-.3.1-.3.1-.3v-.3l.1-.3.1-.3V9.4l.1-.3V8.8l.1-.3.1-.3V7l.1-.3V5.9l.1-.2V4.9l.1-.2V4l.1-.2.1-.1V3.3l.1-.1.1-.1.1-.1V2.9l.1-.1.1-.1.1-.1V2.5l.1-.1.1-.1h1.3l.1.1.1.1.1.1.1.1.1.1.1.1.1.1.1.1.1.1.1.1.1.1.1.1.1.1.1.1.1.1.1.2.1.1.1.2.1.2.1.2.1.2.1.2.1.2.1.2.1.2.1.2.1.2.1.2.1.2.1.2.1.2.2.3.2.3.1.3.2.3.2.3.2.3.2.3.2.3.2.3.2.3.2.3.2.3.2.3.2.3.2.3.2.3.2.3.2.4.2.3.2.4.2.3.2.4.2.4.2.4.2.4.2.4.2.4.2.4.2.4.2.4.2.4.2.4.3.4.3.4.3.4.3.4.3.4.3.4.3.4.3.4.3.5.3.5.3.5.3.5.3.5.3.5.3.5.3.5.3.5.3.5.3.5.3.5.3.5.3.5.3.5.3.5.3.5.3.5.3.5.3.5.4.5.4.5.4.5.4.6.4.5.4.6.4.5.4.6.4.6.4.6.4.6.4.6.4.6.4.6.4.6.4.6.4.6.4.6.4.6.4.6.4.6.4.6.5.6.4.6.5.6.5.6.5.6.5.6.5.6.5.6.5.6.5.6.5.6.5.6.5.6.5.6.5.6.5.6.5.6.5.6.5.6.5.6.5.6.5.6.5.6.5.6.5.6.5.6.5.6.5.6.6.7.5.6.6.6.6.6.6.7.6.6.6.6.6.7.6.6.6.7.6.6.6.6.6.6.6.6.6.7.6.6.6.7.6.6.6.6.6.6.6.7.6.6.6.6.6.6.6.6.6.7.6.6.6.6.7.6.6.6.7.6.7.6.7.6.7.6.7.6.7.6.7.6.7.6.7.6.7.6.7.6.7.6.7.6.7.6.7.6.7.6.7.6.7.6.7.6.7.6.7.6.7.6.7.6.7.6.7.6.7.6.7.6.7.6.7.6.7.6.7.6.7.6.7.6.7.6.7.6.7.6.7.6.7.6.7.6.7.6.7.6.7.6.7.6.7.6.7.6.7.6.7.6.8.6.7.6.8.5.7.6.8.6.8.6.8.5.7.5.8.5.8.5.8.5.8.5.8.5.8.5.8.5.8.5.8.5.8.5.8.5.8.5.8.5.8.5.8.5.8.5.8.5.8.5.8.5.7.5.8.5.8.5.7.5.8.5.7.5.7.5.7.5.7.5.7.5.7.4.7.5.7.4.7.4.7.4.7.4.7.4.7.4.7.4.7.4.7.4.7.4.7.4.7.4.7.4.7.4.7.4.7.4.7.4.7.4.7.4.7.4.7.4.7.4.7.4.7.4.7.4.7.4.7.4.7.4.7.3.7.3.7.3.7.3.7.3.7.3.7.3.6.3.7.3.7.3.6.3.7.3.6.3.6.3.6.3.6.3.6.3.6.3.6.3.6.3.6.3.6.3.6.3.6.3.6.3.6.3.6.3.6.3.6.2.6.3.6.2.6.2.6.2.6.2.5.2.5.2.6.2.5.2.5.2.5.2.5.2.5.2.5.2.5.2.5.2.5.2.5.2.5.2.5.2.5.2.5.2.5.2.5.2.4.2.5.2.4.2.4.2.4.2.4.2.4.1.4.2.4.1.4.1.4.1.4.1.4.1.4.1.4.1.4.1.4.1.4.1.3.1.4.1.3.1.3.1.3.1.3.1.3.1.3.1.3.1.3.1.3.1.3.1.3.1.3.1.3.1.3.1.3.1.2.1.3.1.2.1.2.1.2.1.2.1.2.1.2.1.2.1.2.1.2.1.2.1.2.1.2.1.2.1.2.1.1.1.1.1.1.1.1.1.1.1.1.1.1.1.1.1.1.1.1.1.1.1.1.1.1.1.1.1v.1l.1.1v.4l.4-.4"/></g></g></svg>