<?xml version="1.0" encoding="utf-8"?>
<!-- Generator: Adobe Illustrator 23.0.6, SVG Export Plug-In . SVG Version: 6.00 Build 0)  -->
<svg version="1.1" id="Layer_1" xmlns="http://www.w3.org/2000/svg" xmlns:xlink="http://www.w3.org/1999/xlink" x="0px" y="0px"
	 viewBox="0 0 643.6 650.8" style="enable-background:new 0 0 643.6 650.8;" xml:space="preserve">
<style type="text/css">
	.st0{fill:#FFFFFF;}
</style>
<g id="Layer_2_00000110443199248064653220000017674698009059322791_">
	<g id="Layer_1-2">
		<path class="st0" d="M643.6,649.4c-66.4-7.8-103.9-78.3-173-78.3c-49,0-100-4.1-148.8,0c-59,5-92.4,66-148.8,77.1
			c-25.8,5-55.8,1.3-82,1.3H0v-24.6h91c26.2,0,56,3.7,81.9-1c57.3-10.3,89.2-74.6,149.2-79.2c49-3.7,99.7,0,148.9,0
			c70.2,0,105.2,73.8,172.7,80.1L643.6,649.4z"/>
		<path class="st0" d="M643.6,595.4c-37.2-3.4-62.5-29.1-90.1-51.8c-25.8-21.1-48-34.4-81.5-34.4c-49.1,0-99.9-3.8-148.8,0
			c-61.7,4.8-91.6,74.5-150.3,85.4c-25.8,4.8-55.8,0.9-81.9,0.9H0v-24.6h91c25.9,0,56.4,4.1,81.9-1.1c60.1-12.3,88.2-87.5,151.6-93
			c48.8-4.2,99.9,0,148.8,0c73.5,0,100.4,86.7,170.2,94L643.6,595.4z"/>
		<path class="st0" d="M643.6,541.4C572.5,531.7,551,436,475.4,436c-48.7,0-100.4-5-148.8,0c-65.9,6.7-91.6,89.2-153.6,104
			c-25.1,6-56.5,1.4-82,1.4H0v-24.6h91c25.2,0,57.4,5,82.1-1.8c63.5-17.4,87.4-106.3,155.4-114.3c48.1-5.7,100.4,0,148.8,0
			c77.2,0,94.3,103.9,166.4,116L643.6,541.4z"/>
		<path class="st0" d="M643.6,487.4c-72.8-15.3-85.1-128.9-164.1-128.9h-75.9c-23.4,0-49.7-3.2-72.9,0
			c-70.5,9.6-92.4,106.1-157.5,126.7c-24.1,7.6-57.3,2.3-82.1,2.3H0v-24.6h91c24.6,0,58.5,5.6,82.2-2.6
			c66.4-23.1,86.9-125.8,159.3-136.6c23-3.5,49.7,0,72.9,0h75.9c80.2,0,89.2,121.5,162.3,139.1V487.4z"/>
		<path class="st0" d="M643.6,433.4c-73.7-19.8-78.8-149.7-160.5-149.7h-75.9c-23.1,0-50.1-3.7-72.9,0c-33.8,5.4-58.2,40-78.3,64.5
			c-22.4,27.2-48.3,69.4-82.7,82.3c-23.3,8.7-57.9,2.9-82.2,2.9H0v-24.6h91c24.2,0,59.1,6,82.3-2.9c35-13.5,61.1-57.9,83.4-86
			c19.9-25.1,44.5-61.7,78.8-67.4c22.8-3.8,49.9,0,72.9,0h75.9c82.9,0,84.8,135.8,159.3,156.4V433.4z"/>
		<path class="st0" d="M643.6,379.4c-76.3-20-73.7-160.8-158.5-160.8h-75.9c-23,0-50.1-3.7-72.9,0c-34.9,5.7-59.3,43.4-79.1,69.2
			c-22.1,28.6-48.5,75.4-83.9,88.9c-23.1,8.8-58.1,2.8-82.2,2.8H0v-24.6h91c24.1,0,59.1,6,82.2-2.8c35.4-13.5,61.9-60.3,84-88.9
			c19.8-25.7,44.3-63.6,79.1-69.2c22.8-3.7,49.9,0,72.9,0h75.9c85,0,82,141,158.5,160.9V379.4z"/>
		<path class="st0" d="M643.6,325.4c-74.8-20.4-75.3-156.7-158.5-156.7h-75.9c-23,0-50.1-3.8-72.9,0c-34.3,5.7-59.1,42.4-79.1,67.5
			c-22.5,28.2-48.9,72.7-84,86.2c-23.1,8.9-58,2.9-82.2,2.9H0v-24.6h91c24.3,0,58.9,5.9,82.2-2.9c34.7-13,61.2-55.4,84-82.7
			c20.4-24.4,45.2-59.3,79.1-64.8c22.8-3.7,49.9,0,72.9,0h75.9c81.9,0,84.6,130.8,158.5,150.4V325.4z"/>
		<path class="st0" d="M643.6,271.4c-73-17.6-78.2-140.4-158.5-140.4h-75.9c-23.2,0-49.9-3.4-72.9,0c-33.4,5-58.1,36.9-79.1,60.5
			c-23.1,26-49.8,65.5-84,77.3c-23.7,8.2-57.6,2.6-82.2,2.6H0v-24.6h91c24.9,0,58,5.3,82.2-2.3c66.7-21,91.2-118.7,163.1-128.5
			c23.2-3.2,49.5,0,72.9,0h75.9c78.8,0,86.3,115.3,158.5,130.7V271.4z"/>
		<path class="st0" d="M643.6,217.4c-71-12.4-81.7-118.6-158.5-118.6c-48.5,0-100.8-5.6-148.8,0c-70.1,8.2-97.4,98.8-163.1,116.7
			c-24.7,6.8-56.9,1.8-82.2,1.8H0v-24.6h91c25.6,0,57,4.6,82.2-1.5C238,175.7,267.7,91.1,336.3,84.1c48.5-5,100.1,0,148.8,0
			c74.8,0,88.7,98.5,158.5,108.6V217.4z"/>
		<path class="st0" d="M643.6,163.4c-36.8-4.3-58.2-33.4-82.3-58.7c-22.9-24-42.7-39.1-76.1-39.1c-49,0-100.1-4.2-148.8,0
			c-66.8,5.8-99.5,83.6-163.1,96.7c-25.6,5.3-56.2,1.2-82.2,1.2H0v-24.6h91c26.2,0,56.3,3.8,82.2-1c62.6-11.7,97.6-84.3,163.1-89.4
			c48.9-3.8,99.8,0,148.8,0c32.7,0,52.7,13.4,76.1,36.1c24.6,23.9,46.3,50.7,82.3,54.3L643.6,163.4z"/>
		<path class="st0" d="M643.6,109.4c-35.3-3.7-57.3-28.1-82.3-50.8c-23.7-21.4-44.2-33.9-76.1-33.9c-49.1,0-99.9-3.8-148.8,0
			c-64.2,5-101.5,72.4-163.1,83.6c-26,4.7-55.9,1.1-82.2,1.1H0V84.8h91c26.2,0,56.3,3.8,82.2-1.3c60.9-12,99.8-76.2,163.1-81.6
			c48.8-4.2,99.9,0,148.8,0c67.4,0,94.5,74.8,158.5,83V109.4z"/>
	</g>
</g>
</svg>
