<svg xmlns="http://www.w3.org/2000/svg" viewBox="0 0 371.5 367.8"><defs><style>.cls-1{fill:none;stroke:#fff;stroke-width:2px;}</style></defs><g id="Layer_2" data-name="Layer 2"><g id="Layer_1-2" data-name="Layer 1"><path class="cls-1" d="M367.1,184.2v1.4l-.1.2-.1.2-.1.2-.2.2-.1.2-.1.2-.1.2-.1.2-.1.2-.1.2-.1.2-.1.2-.1.2-.1.2-.2.2-.2.2-.2.2-.2.2-.2.2-.2.2-.2.2-.2.2-.2.2-.2.2-.2.2-.2.2-.2.2-.3.2-.3.2-.3.2-.3.2-.3.2-.3.2-.3.2-.3.2-.3.3-.3.2-.3.3-.3.3-.3.3-.3.3-.3.3-.4.3-.4.3-.4.3-.4.3-.4.3-.4.3-.4.3-.4.3-.4.3-.4.3-.4.3-.4.3-.4.3-.4.3-.5.3-.5.3-.5.3-.5.3-.5.3-.5.3-.5.3-.5.3-.5.3-.5.3-.5.3-.5.3-.5.3-.5.3-.5.3-.5.3-.5.3-.5.4-.5.3-.5.4-.6.4-.6.4-.6.4-.6.4-.6.4-.6.4-.6.4-.6.4-.6.4-.6.4-.6.4-.6.4-.6.4-.6.4-.6.4-.6.4-.6.4-.6.4-.6.4-.6.4-.6.4-.7.4-.7.4-.7.4-.7.4-.7.4-.7.4-.7.4-.7.5-.7.4-.7.5-.7.5-.7.5-.7.5-.7.5-.7.5-.7.5-.7.5-.7.5-.7.5-.7.5-.7.5-.7.5-.7.5-.7.5-.7.5-.7.5-.7.5-.7.5-.7.5-.7.5-.7.5-.8.5-.7.5-.8.5-.8.5-.8.6-.8.6-.8.5-.8.6-.8.6-.8.6-.8.6-.8.6-.8.6-.8.6-.8.6-.8.6-.8.6-.8.6-.8.6-.8.6-.8.6-.8.6-.8.6-.8.6-.8.6-.8.6-.8.6-.8.6-.8.6-.8.6-.8.6-.8.6-.8.6-.8.6-.8.6-.8.6-.8.7-.8.6-.8.7-.8.6-.8.7-.8.7-.8.7-.8.7-.8.7-.8.7-.8.7-.8.7-.8.7-.8.7-.8.7-.8.7-.8.7-.8.7-.8.7-.8.7-.8.7-.8.7-.8.7-.8.7-.8.7-.8.7-.8.7-.7.7-.8.7-.7.7-.8.7-.7.7-.7.7-.7.7-.7.7-.7.7-.7.7-.7.7-.7.7-.7.7-.7.7-.7.7-.7.7-.7.7-.7.7-.7.7-.7.7-.7.7-.7.7-.7.7-.7.7-.7.7-.7.7-.7.7-.7.7-.7.7-.7.7-.7.7-.7.7-.7.7-.7.7-.7.7-.7.7-.7.7-.6.7-.7.7-.6.7-.7.7-.6.7-.6.7-.6.7-.6.7-.6.7-.6.7-.6.7-.6.7-.6.7-.6.7-.6.7-.6.7-.6.7-.6.7-.6.7-.6.7-.6.7-.6.7.8,2.2-.6.7-.6.7-.6.7-.6.7-.6.7-.5.7-.6.7-.5.7-.5.7-.5.7-.5.7-.5.7-.5.7-.5.7-.5.7-.5.7-.5.7-.5.7-.5.7-.5.7-.5.7-.5.6-.5.6-.5.6-.5.7-.5.6-.5.6-.5.6-.5.6-.5.6-.5.6-.5.6-.5.6-.5.6-.5.6-.4.6-.4.6-.4.6-.4.6-.4.6-.4.6-.4.6-.4.6-.4.6-.4.6-.4.6-.4.6-.4.5-.4.5-.4.5-.4.5-.4.5-.4.5-.4.5-.4.5-.4.5-.4.5-.4.5-.4.5-.4.5-.4.5-.3.5-.3.5-.3.5-.3.5-.3.5-.3.5-.3.5-.3.4-.3.4-.3.4-.3.4-.3.4-.3.4-.3.4-.3.4-.3.4-.3.4-.3.4-.3.4-.3.4-.3.4-.3.4-.3.3-.3.3-.3.3-.3.3-.3.3-.3.3-.3.3-.3.3-.3.3-.3.3.1.1-.3.3-.3.3-.3.3-.1.1-.3.3-.3.2-.2.2-.2.3-.2.2-.2.2-.2.2-.2.2-.2.2-.2.2-.2.2-.2.2-.2.2-.2.2-.2.1-.2.1-.2.1-.2.1-.2.1-.2.1-.2.1-.2.1-.2.1-.2.1-.2.1-.2.1-.2.1-.2.1h-2.6l-.2-.1-.2-.1-.2-.1-.2-.1-.2-.1-.2-.1-.2-.1-.2-.1-.2-.1-.2-.1-.2-.1-.2-.1-.2-.2-.2-.1-.2-.2-.2-.2-.2-.2-.2-.2-.2-.2-.2-.2-.2-.2-.2-.2-.2-.2-.2-.2-.2-.2-.2-.2-.2-.3-.2-.3-.2-.3-.2-.3-.2-.3-.2-.3-.2-.3-.2-.3-.2-.3-.2-.3-.2-.3-.2-.3-.2-.3-.2-.3-.2-.4-.2-.3-.2-.3-.2-.4-.2-.4-.2-.4-.2-.4-.2-.4-.2-.4-.3-.4-.3-.4-.2-.4-.3-.4-.3-.4-.3-.4-.3-.5-.3-.5-.3-.5-.3-.5-.3-.5-.3-.5-.3-.5-.3-.5-.3-.5-.3-.5-.3-.5-.3-.5-.3-.5-.3-.5-.3-.5-.3-.5-.3-.5-.3-.5-.3-.5-.3-.6-.3-.6-.3-.6-.3-.6-.3-.6-.3-.6-.3-.6-.3-.6-.3-.6-.3-.6-.3-.6-1.1-.4-.3-.6-.3-.6-.4-.6-.3-.6-.4-.6-.4-.6-.4-.6-.4-.6-.4-.7-.4-.7-.4-.7-.4-.7-.4-.7-.4-.7-.4-.7-.4-.7-.4-.7-.4-.7-.4-.7-.4-.7-.4-.7-.4-.7-.4-.7-.4-.7-.4-.7-.4-.7-.4-.7-.4-.7-.4-.7-.4-.7-.4-.7-.4-.7-.5-.7-.5-.8-.5-.8-.5-.8-.5-.8-.5-.8-.5-.8-.5-.8-.5-.8-.5-.8-.5-.8-.5-.8-.5-.8-.5-.8-.5-.8-.5-.8-.5-.8-.5-.8-.5-.8-.5-.8-.5-.8-.5-.8-.5-.8-.5-.8-.5-.8-.5-.8-.5-.8-.5-.8-.5-.8-.5-.8-.5-.8-.6-.8-.6-.8-.5-.8-.6-.8-.6-.8-.6-.8-.6-.8-.6-.8-.6-.8-.6-.8-.6-.8-.6-.8-.6-.8-.6-.8-.6-.8-.6-.8-.6-.8-.6-.8-.6-.8-.6-.8-.6-.8-.6-.8-.6-.8-.6-.8-.6-.8-.6-.8-.6-.8-.6-.8-.6-.8-.6-.8-.6-.8-.6-.8-.6-.8-.6-.8-.6-.8-.6-.8-.6-.8-.7-.8-.6-.8-.7-.8-.7-.8-.7-.8-.7-.8-.7-.8-.7-.8-.7-.8-.7-.8-.7-.8-.7-.8-.7-.8-.7-.8-.7-.8-.7-.8-.7-.8-.7-.8-.7-.8-.7-.8-.7-.8-.7-.8-.7-.8-.7-.8-.7-.8-.7-.8-.7-.8-.7-.8-.7-.7-.7-.8-.7-.7-.7-.7-.7-.7-.7-.7-.7-.7-.7-.7-.7-.7L74,231l-.7-.7-.7-.7-.7-.7-.7-.7-.7-.7-.7-.7-.7-.7-.7-.7-.7-.7L67,224l-.7-.7-.7-.7-.7-.7-.7-.7-.7-.7-.7-.7-.7-.7-.7-.7-.7-.6-.7-.7-.7-.6-.7-.6-.7-.6-.7-.6-.7-.6-.7-.6-.7-.6-.7-.6-.7-.6-.7-.6-.7-.6-.7-.6-.7-.6-.7-.6-.7-.6-.7-.6-.7-.6-.6-.6-.7-.6-.6-.6-.7-.6-.7-.6-.6-.6-.6-.6-.6-.6-.6-.6-.6-.6-.6-.5-.6-.5-.6-.5-.6-.5-.6-.5-.6-.5-.6-.5-.6-.5.6-.5-.6-.5-.6-.5-.6-.5-.6-.5-.6-.5-.6-.5-.6-.5-.6-.5-.6-.5-.6-.5-.6-.5-.6-.5-.6-.5-.5-.5-.6-.5-.5-.5-.5-.4-.5-.4-.5-.4-.5-.4-.5-.4-.5-.4-.5-.4-.5-.4-.5-.4-.5-.4-.5-.4-.5-.4-.5-.4-.5-.4-.5-.4-.5-.4-.5-.4-.5-.4-.5-.4-.4-.4-.5-.4-.4-.4-.4-.4-.4-.4-.4-.4-.4-.4-.4-.4-.4-.3-.4-.4-.4-.3-.4-.3-.4-.3-.4-.3-.4-.3-.4-.3-.4-.3-.3-.3-.4-.3-.3-.3-.3-.3-.3-.3-.3-.3-.3-.3-.3-.3-.3-.3-.3-.3-.3-.3-.3-.3-.3-.3-.3-.3-.3-.3-.3-.3-.3-.3-.2-.3-.2-.3-.2-.3-.2-.3-.2-.3-.2-.3-.2-.3-.2-.3-.2-.3-.2-.2-.2-.3-.2-.2-.2-.2-.1-.2-.2-.2-.1-.2-.1-.2-.1-.2-.1-.2-.1-.2-.1-.2-.1-.2-.1-.2-.1-.2-.1-.2-.1-.2-.1-.2-.1-.2v-2.8l.1-.2.1-.2.1-.2.1-.2.1-.2.1-.2.1-.2.1-.2.1-.2.1-.2.1-.2.1-.2.1-.2.2-.2.2-.2.2-.2.2-.2.2-.2.2-.2.2-.2.2-.2.2-.2.2-.2.2-.2.2-.2.2-.2.3-.2.3-.2.3-.2.3-.2.3-.2.3-.2.3-.2.3-.2.3-.2.3-.2.3-.2.3-.2.3-.2.4-.2.3-.2.3-.2.4-.2.4-.2.4-.2.4-.2.4-.2.4-.2.4-.2.4-.2.4-.2.4-.2.4-.2.4-.2.4-.2.5-.2.5-.2.5-.2.5-.2.5-.2.5-.2.5-.2.5-.2.5-.2.5-.3.5-.2.5-.3.5-.3.5-.3.5-.3.5-.3.6-.3.5-.3.6-.3.6-.3.6-.3.6-.3.6-.3.6-.3.6-.3.6-.3.6-.3.6-.3.6-.3.6-.3.6-.3.6-.3.6-.3.6-.3.7-.3.6-.3.7-.3.7-.3.7-.3.7-.3.7-.3.7-.3.7-.3.7-.3.7-.3.7-.3.7-.3.7-.3.7-.4.7-.3.7-.4.7-.4.7-.4.7-.4.7-.4.7-.4.7-.4.8-.4.8-.4.8-.4.8-.4.8-.4.8-.4.8-.4.8-.4.8-.4.8-.4.8-.4.8-.4.8-.4.8-.4.8-.4.8-.4.8-.4.8-.4.8-.4.8-.4.8-.4.8-.4.8-.5.8-.4.8-.5.8-.5.8-.5.8-.5.8-.5.8-.5.8-.5.8-.5.8-.5.8-.5.8-.5.8-.5.8-.5.8-.5.8-.5.8-.5.8-.5.8-.5.8-.5.8-.5.8-.5.8-.5.8-.5.9-.5.8-.5.8-.5.8-.5.8-.5.9-.5.8-.6.9-.5.9-.6.8-.5.9-.6.8-.6.8-.6.9-.6.8-.6.9-.6.8-.6.8-.6.9-.6.8-.6.9-.6.8-.6.8-.6.8-.6.8-.6.8-.6.8-.6.8-.6.8-.6.8-.6.8-.6.8-.6.8-.6.8-.6.8-.6.8-.6.8-.6.8-.6.8-.6.8-.6.8-.6.8-.6.8-.6.8-.6.8-.6.8-.6.8-.6.8-.6.8-.6.8-.6.8-.6.8-.6.8-.6.8-.6.8-.6.8-.6.8-.6.8-.6.8-.6.8-.6.8-.6.8-.6.8-.6.8-.7.8-.6.8-.6.8-.6.8-.6.8-.7.8-.6.8-.6.8-.6.7-.7.7-.6.7-.6.7-.6.7-.6.7-.7.7-.6.7-.6.7-.6.7-.6.7-.6.7-.6.7-.6.7-.6.7-.6.7-.6.7-.6.7-.6.7-.6.7-.6.7-.6.7-.6.7-.6.7-.6.7-.6.7-.6.6-.6.6-.6.6-.6.6-.6.6-.6.6-.6.6-.6.6-.6.6-.6.6-.6.6-.6.6-.6.6-.6.6-.6.6-.6.6-.6.6-.6.6-.6.6-.6.6-.6.6-.6.6-.6.6-.6.5-.6.6-.6.5-.6.5-.6.5-.6.5-.6.5-.6.5-.6.5-.5.5-.6.5-.5.5-.5.5-.5.5-.5.5-.5.5-.5.5-.5.5-.5.5-.5.5-.5.5-.5.5-.5.5-.5.5-.5.5-.5.4-.5.4-.5.4-.5.4-.5.4-.4.4-.5.4-.4.4-.4.4-.4.4-.4.4-.4.4-.4.4-.4.4-.4.4-.4.4-.4.4-.4.4-.4.4-.4.4-.4.4-.4.4-.4.4-.4.4-.4.4-.4.3-.4.3-.3.3-.3.3-.3.3-.3.3-.3.3-.3.3-.3.3-.3.3-.3.3-.3.3-.3.3-.3.3-.3.3-.3.3-.3.3-.3.3-.3.3-.2.3-.2.3-.2.3-.2.3-.2.3-.2.3-.2.3-.2.3-.2.3-.2.3-.2.3-.2.3-.2.3-.2.3-.1.2-.1.3-.1.2-.1.2-.1.2-.1.2-.1.2-.1.2-.1.2-.1.2-.1.2-.1.2-.1.2-.1.2-.1H217l.2.1.2.1.2.1.2.1.2.1.2.1.2.1.2.1.2.1.2.1.2.1.2.1.2.1.2.1.2.2.2.1.2.2.2.2.2.2.2.2.2.2.2.2.2.2.2.2.2.2.2.2.2.2.2.3.2.3.2.3.2.3.2.3.2.3.2.3.2.3.2.3.2.3.2.3.2.3.2.3.2.3.2.3.2.4.2.4.2.4.2.4.2.4.2.4.2.4.2.4.2.4.2.4.2.4.2.4.2.4.2.4.2.4.2.5.2.5.2.5.2.5.2.5.2.5.2.5.2.5.2.5.2.5.2.5.2.5.2.5.2.5.2.6.2.5.2.6.2.6.2.6.2.6.2.6.2.6.2.6.2.6.2.6.2.6.3.6.2.6.3.6.3.6.3.6.3.7.3.6.3.7.3.7.3.7.3.7.3.7.3.7.3.7.3.7.3.7.3.7.3.7.3.7.3.7.3.7.3.7.3.7.3.7.3.7.3.8.3.7.3.8.3.8.3.8.3.8.3.8.3.8.3.8.3.8.3.8.3.8.3.8.3.8.3.8.4.8.4.8.4.8.4.8.4.8.4.8.4.8.4.8.4.8.4.8.4.8.4.8.4.8.4.8.4.8.4.8.4.9.4.8.4.9.4.8.4.9.4.9.4.8.4.9.4.9.4.9.4.9.4.9.4.9.4.9.5.9.5.9.5.9.5.9.5.9.5.9.5.9.5.9.5.9.5.9.5.9.5.9.5.9.5.9.5.9.5.9.5.9.5.9.5.9.5.9.5.9.5.9.5.9.5.9.5.9.5.9.5.9.5.9.5.9.5.9.5.9.5.9.5.9.5.9.5.9.5.9.5.9.6.9.5.9.5.9.5.9.6.9.5.9.6.9.5.9.6.9.6.9.6.9.6.9.6.9.6.9.6.9.6.9.6.8.6.9.6.9.6.9.6.8.6.9.6.8.6.8.6.8.6.8.6.8.6.8.6.8.6.8.6.8.6.8.6.8.6.8.6.8.6.8.6.8.6.8.6.8.6.8.6.8.6.8.6.8.6.8.6.8.6.8.6.8.6.8.6.8.6.8.6.8.6.8.6.8.6.8.6.8.6.7.6.7.6.7.6.7.6.7.6.7.6.7.6.7.6.7.6.7.6.7.6.7.6.7.6.7.6.7.6.7.6.7.6.7.6.7.6.7.6.7.6.7.6.6.6.7.6.6.6.6.6.6.6.6.6.6.6.6.5.6.6.6.5.6.5.6.5.6.5.6.5.6.5.6.5.6.5.6.5.6.5.6.5.6.5.6.5.6.5.5.5.6.5.5.5.5.5.5.5.5.5.5.5.5.5.5.5.5.5.5.5.5.5.5.5.5.5.5.5.5.5.5.5.5.5.5.4.5.4.5.4.5.4.5.4.5.4.5.4.4.4.4.4.4.4.4.4.4.4.4.4.4.4.4.4.4.4.4.4.4.4.4.4.4.3.4.4.4.3.4.3.4.3.4.3.4.3.4.3.4.3.4.3.4.3.4.3.4.3.3.3.3.3.3.3.3.3.3.3.3.3.3.2.3.2.3.2.3.2.3.2.3.2.3.2.3.2.3.2.3.2.3.2.3.2.3.2.3.2.3.2.3.1.3.1.3.1.3.1.3.1.3.1.3.1.3.1.3.1.2.1.2.1.2.1.2.1.2.1.2.1.2v3l-.1.2-.1.2-.1.2-.1.2-.1.2-.1.2-.1.2-.1.2-.1.2-.1.2-.1.2-.1.2-.1.2-.2.2-.2.2-.2.2-.2.2-.2.2-.2.2-.2.2-.2.2-.2.2-.2.2-.2.2-.2.2-.2.2-.3.2-.3.2-.3.2-.3.2-.3.2-.3.2-.3.2-.3.2-.3.2-.3.2-.3.2-.3.2-.4-3.5-.3.2-.3.2-.4.2-.4.2-.4.2-.4.2-.4.2-.4.2-.4.2-.4.2-.4.2-.4.2-.4.2-.4.2-.4.2-.5.2-.5.2-.5.2-.5.2-.5.2-.5.2-.5.2-.5.2-.5.2-.5.2-.5.2-.5.2-.5.2-.5.2-.5.2-.5.2-.6.2-.6.2-.6.2-.6.2-.6.2-.6.2-.6.2-.6.2-.6.2-.6.2-.6.2-.6.2-.6.2-.6.2-.6.2-.6.2-.7.2-.6.2-.7.2-.7.2-.7.2-.7.2-.7.2-.7.2-.7.2-.7.2-.7.2-.7.2-.7.2-.7.2-.7.2-.7.2-.7.3-.7.3-.7.3-.7.3-.8.3-.8.3-.8.3-.8.3-.8.3-.8.3-.8.3-.8.3-.8.3-.8.3-.8.3-.8.3-.8.3-.8.3-.8.3-.8.3-.8.3-.8.3-.8.3-.8.3-.8.3-.8.3-.8.3-.8.3-.8.3-.8.3-.8.3-.9.3-.9.3-.8.3-.9.3-.9.3-.9.3-.9.4-.9.4-.9.4-.9.4-.9.4-.9.4-.9.4-.9.4-.9.4-.9.4-.9.4-.9.4-.9.4-.9.4-.9.4-.9.4-.9.4-.9.4-.9.4-.9.4-.9.4-.9.4-.9.4-.9.4-.9.4-.9.4-.9.4-.9.4-.9.4-.9.4-.9.4-.9.4-.9.4-.9.5-.9.4-.9.4-.9.5-.9.4-.9.5-.9.5-.9.5-.9.5-.9.5-.9.5-.9.5-.9.5-.9.5-.9.5-.9.5-.9.5-.9.5-.9.5-.9.5-.9.5-.9.5-.9.5-.9.5-.9.5-.9.5-.9.5-.9.5-.9.5-.9.5-.9.5-.9.5-.9.5-.9.5-.9.5-.9.5-.9.5-.9.5-.9.5-.9.5-.9.5-.9.5-.9.5-.9.5-.9.5-.9.5-.7-.6-.9.5-.8.5-.9.5-.8.5-.8.5-.8.5-.8.5-.8.5-.8.5-.8.5-.8.5-.8.5-.8.5-.8.5-.8.6-.8.5-.8.5-.8.5-.8.5-.8.6-.8.5-.8.5-.8.5-.8.6-.8.5-.8.5-.8.5-.8.6-.8.5-.8.5-.8.5-.8.5-.8.5-.8.6-.8.5-.8.5-.7.6-.7.5-.7.5-.7.5-.7.5-.7.5-.7.5-.7.5-.7.5-.7.5-.7.5-.7.5-.7.5-.7.5-.7.5-.7.5-.7.5-.7.5-.7.5-.7.5-.7.5-.7.5-.6.5-.6.5-.6.5-.6.5-.6.5-.6.5-.6.5-.6.5-.6.5-.6.5-.6.5-.6.5-.6.5-.6.5-.6.5-.6.5-.6.5-.6.5-.6.5-.6.5-.6.5-.5.5-.5.5-.5.5-.5.4-.5.4-.5.4-.5.4-.5.4-.5.4-.5.4-.5.4-.5.4-.5.4-.5.4-.5.4-.5.4-.5.4-.5.4-.5.4-.5.4-.5.4-.5.4-.5.4-.4.4-.4.4-.4.3-.4.4-.4.3-.4.3-.4.3-.4.3-.4.3-.4.3-.4.3-.4.3-.4.3-.4.3-.4.3-.4.3-.4.3-.4.3-.4.3-.4.3-.3.3-.4.3-.3.3-.3.2-.3.2-.3.2-.3.2-.3.2-.3.2-.3.2-.3.2-.3.2-.3.2-.3.2-.3.2-.3.2-.3.2-.3.2-.3.2-.3.1-.3.1-.3.1-.3.1-.5,1.6-.3.1-.3.1-.3.1-.3.1-.3.1-.3.1-.3.1-.2.1-.2.1-.2.1h-3l-.2-.1-.2-.1-.2-.1-.2-.1-.2-.1-.2-.1-.2-.1-.2-.1-.2-.1-.2-.1-.2-.1-.2-.1-.2-.1-.2-.1-.2-.2-.2-.2-.2-.2-.2-.2-.2-.2-.2-.2-.2-.2-.2-.2-.1-.2-.2-.2-.2-.2-.1-.2-.2-.2-.1-.3-.1-.3-.2-.3-.1-.3-.2-.3-.1-.3-.1-.3-.1-.3-.1-.3-.1-.3-.1-.3-.1-.3-.1-.3-.1-.3-.1-.3-.1-.4-.1-.4-.1-.4-.1-.4-.1-.4-.1-.4-.1-.4-.1-.4-.1-.4-.1-.4-.1-.4-.1-.4-.1-.4-.1-.5-.1-.5-.1-.5-.1-.5-.1-.5-.1-.5-.1-.5-.1-.5-.1-.5-.1-.5-.1-.5-.1-.5-.2-.5-.1-.5-.1-.5-.2-.6-.1-.6-.1-.6-.2-.6-.1-.6-.2-.6-.1-.6-.2-.6-.1-.6-.2-.6-.2-.6-.2-.6-.2-.6-.2-.6-.2-.6-.2-.6-.2-.6-.2-.7-.2-.7-.2-.7-.2-.7-.2-.7-.2-.7-.2-.7-.2-.7-.2-.7-.2-.7-.2-.7-.2-.7-.2-.7-.2-.7-.2-.7-.2-.7-.2-.7-.2-.7-.2-.8-.2-.8-.2-.8-.2-.8-.2-.8-.2-.8-.2-.8-.2-.8-.2-.8-.2-.8-.2-.8-.2-.8-.2-.8-.2-.8-.2-.8-.2-.8-.2-.8-.2-.8-.2-.8-.3-.8-.3-.8-.3-.8-.3-.8-.3-.8-.3-.8-.3-.9-.3-.9-.3-.9-.3-.9-.3-.9-.3-.9-.3-.9-.3-.9-.3-.9-.3-.9-.3-.9-.3-.9-.3-.9-.3-.9-.3-.9-.3-.9-.3-.9-.3-.9-.3-.9-.3-.9-.3-.9-.3-.9-.3-.9-.3-.9-.3-.9-.3-.9-.3-.9-.3-.9-.3-.9-.3-.9-.3-.9-.3-.9-.4-.9-.3-.9-.4-.9-.4-.9-.4-.9-.4-.9-.4-.9-.4-.9-.4-.9-.4-.9-.4-.9-.4-.9-.4-.9-.4-.9-.4-.9-.4-.9-.4-.9-.4-.9-.4-.9-.4-.9-.4-.9-.4-.9-.4-.9-.4-.9-.4-.9-.4-.9-.4-.9-.4-.9-.4-.9-.4-.9-.4-.9-.4-.9-.4-.9-.4-.9-.4-.9-.4-.9-.4-.9-.4-.9-.4-.9-.5-.9-.5-.9-.5-.9-.5-.9-.5-.9-.5-.9-.5-.9-.5-.9-.5-.9-.5-.9-.5-.9-.5-.9-.5-.9-.5-.9-.5-.9-.5-.9-.5-.9-.5-.9-.5-.9-.5-.9-.5-.9-.5-.9-.5-.9-.5-.9-.5-.9-.5-.9-.3-2.7-.5-.9-.5-.9-.5-.9-.5-.9-.5-.9-.5-.9-.5-.9-.5-.9-.5-.9-.5-.8-.5-.8-.5-.8-.5-.8-.5-.8-.5-.8-.5-.8-.5-.8-.5-.8-.5-.8-.5-.8-.5-.8-.5-.8-.5-.8-.5-.8-.5-.8-.5-.8-.5-.8-.5-.8-.5-.8-.5-.8-.5-.8-.5-.8-.5-.8-.5-.8-.5-.8-.5-.8-.5-.8-.5-.7-.5-.7-.5-.7-.5-.7-.5-.7-.5-.7-.5-.7-.5-.7-.5-.7-.5-.7-.5-.7-.5-.7-.5-.7-.5-.7-.5-.7-.5-.7-.5-.7-.5-.7-.5-.7-.5-.6-.5-.7-.5-.6-.4-.6-.5-.6-.5-.6-.4-.6-.5-.6-.4-.6-.4-.6-.4-.6-.4-.6-.4-.6-.4-.6-.4-.6-.4-.6-.4-.6-.4-.6-.4-.6-.4-.6-.4-.6-.4-.5-.4-.6-.4-.5-.4-.5-.4-.5-.4-.5-.4-.5-.4-.5-.4-.5-.4-.5-.4-.5-.4-.5-.4-.5-.3-.5-.4-.5-.3-.5-.3-.5-.3-.5-.3-.5-.3-.5-.3-.5-.3-.5-.3-.5-.3-.4-.3-.4-.3-.4-.3-.4-.3-.4-.3-.4-.3-.4-.3-.4-.3-.4-.3-.4-.3-.4-.3-.4-.3-.4-.2-.4-.3-.4-.2-.4-.2-.4-.2-.4-.2-.4-.2-.4-.2-.4-.2-.3-.2-.3.3.1-.2-.3-.2-.3-.2-.3-.2-.3-.2-.3-.2-.3-.2-.3-.1-.3-.1-.3-.1-.3-.1-.3-.1-.3-.1-.4-.1-.3-.1-.3-.1-.3-.1-.3-.1-.3-.1-.3-.1-.3-.1-.3-.1-.3v-3.3l.1-.2.1-.2.1-.2.1-.2.1-.2.1-.2.1-.2.1-.2.1-.2.1-.2.1-.2.1-.2.1-.2.1-.2.2-.2.2-.2.2-.1.2-.2.2-.1.2-.1.2-.1.2-.1.2-.1.2-.2.2-.1.2-.1.2-.1.3-.1.3-.1.3-.1.3-.1.3-.1.3-.1.3-.1.3-.1.3-.1.3-.1.3-.1.3-.1.3-.1.3-.1.3-.1.4-.1.4-.1.4-.1.4-.1.4-.1.4-.1.4-.1.4-.1.4-.1.4-.1.4-.1.4-.1.4-.1.4-.1.5-.1.5-.1.5-.1.5-.1.5-.1.5-.1.5-.1.5-.1.5-.1.5-.1.5-.1.5-.1.5-.1.5-.1.6-.1.5-.1.6-.1.6-.1.6-.1.6-.1.6-.1.6-.1.6-.1.6-.1.6-.1.6-.1.6-.1.6-.1.6-.1.6-.1.6-.1.7-.1.7-.1.7-.1.7-.1.7-.1.7-.1.7-.1.7-.1.7-.1.7-.1.7-.1.7-.1.7-.1.7-.1.7-.1.7-.1.7-.1.7-.1.8-.1.8-.2.8-.1.8-.2.8-.1.8-.2.8-.2.8-.2.8-.2.8-.2.8-.2.8-.2.8-.2.8-.2.8-.2.8-.2.8-.2.8-.2.8-.2.8-.2.9-.2.8-.2.9-.2.8-.2.9-.2.9-.2.9-.2.9-.2.9-.2.9-.2.9-.2.9-.2.9-.2.9-.2.9-.2.9-.2.9-.2.9-.2.9-.2.9-.2.9-.2.9-.2.9-.3.9-.3.9-.3.9-.3.9-.3.9-.3.9-.3.9-.3.9-.3.9-.3.9-.3.9-.3.9-.3.9-.3,1-.3.9-.3,1-.3.9-.3,1-.3,1-.3,1-.3,1-.3,1-.3,1-.3,1-.3,1-.3,1-.3,1-.3,1-.3,1-.3,1-.3,1-.3,1-.3,1-.3,1-.3,1-.3,1-.4,1-.3,1-.4,1-.3,1-.4,1-.4,1-.4,1-.4,1-.4,1-.4,1-.4,1-.4,1-.4,1-.4,1-.4,1-.4,1-.4,1-.4,1-.4,1-.4,1-.4,1-.4,1-.4.9-.4,1-.4,1-.4,1-.4.9-.4,1-.4.9-.4.9-.4.9-.4.9-.4.9-.4.9-.4.9-.4.9-.4.9-.4.9-.4.9-.4.9-.4.9-.4.9-.4.9-.4.9-.4.9-.4.9-.4.9-.4.9-.4.9-.4.9-.4.9-.4.9-.4.9-.4.9-.4.9-.4.9-.4.9-.4.9-.4.9-.4.9-.4.9-.5.9-.4.8-.4.9-.5.8-.4.8-.5.8-.4.8-.4.8-.4.8-.4.8-.4.8-.4.8-.4.8-.4.8-.4.8-.4.8-.4.8-.4.8-.4.8-.4.8-.4.8-.4.8-.4.8-.4.8-.4.8-.4.8-.4.8-.4.8-.4.7-.4.7-.4.7-.4.7-.4.7-.4.7-.4.7-.4.7-.4.7-.4.7-.4.7-.4.7-.4.7-.4.7-.4.7-.4.7-.4.7-.4.7-.4.7-.4.6-.4.7-.4.6-.4.6-.4.6-.4.6-.4.6-.4.6-.4.6-.4.6-.4.6-.4.6-.4.6-.4.6-.4.6-.4.6-.4.6-.4.6-.4.6-.4.6-.4.6-.3.5-.4.5-.4.5-.3.5-.3.5-.3.5-.3.5-.3.5-.3.5-.3.5-.3.5-.3.5-.3.5-.3.5-.3.5-.3.5-.3.5-.3.5-.3.5-.3.5-.3.5-.3.4-.3.4-.3.4-.3.4-.3.4-.3.4-.3.4-.2.4-.2.4-.2.4-.2.4-.2.4-.2.4-.2.4-.2.4-.2.4-.2.4-.2.4-.2.4-.2.3-.2.4-.2.3-.2.3-.2.3-.2.3-.1.3-.1.3-.1.3-.1.3-.1.3-.1.3-.1.3-.1.3-.1.3-.1.3-.1.3-.1.3-.1.3-.1.3-.1.3-.1.3-.1.3-.1h2.7l.2.1.2.1.2.1.2.1.2.1.2.1.2.1.2.1.2.1.2.1.2.1.2.1.2.1.2.1.2.1.2.2.2.1.1.2.2.2.1.2.1.2.1.2.1.2.1.2.1.2.1.2.1.2.1.2.1.2.1.3.1.3.1.3.1.3.1.3.1.3.1.3.1.3.1.3.1.3.1.3.1.3.1.3.1.3.1.3.1.4.1.4.1.4.1.4.1.4.1.4.1.4.1.4.1.4.1.4.1.4.1.4.1.4.1.4.1.5.1.5.1.5.1.5.1.5.1.5.1.5.1.5.1.5.1.5.1.5.1.5.1.5.1.5.1.5.1.5.1.6.1.6.1.6.1.6.1.6.1.6.1.6.1.6.1.6.1.6.1.6.1.6.1.6.1.6.1.6.1.7.1.6.1.7.1.7.1.7.1.7.1.7.1.7.1.7.1.7.1.7.1.7.1.7.1.7.1.7.1.7.1.7.1.8.1.8.1.8.1.8.1.8.1.8.1.8.1.8.1.8.1.8.1.8.1.8.1.8.1.8.1.8.1.8.1.8.1.8.1.8.1.8.1.9.1.8.1.9.1.8.1.9.2.9.1.9.2.9.2.9.1.9.2.9.2.9.2.9.2.9.2.9.2.9.2.9.2.9.2.9.2.9.2.9.2.9.2.9.2.9.2.9.2.9.2.9.2.9.2.9.2.9.2.9.2,1,.2.9.2,1,.2,1,.2,1,.2,1,.2,1,.2,1,.2,1,.2,1,.2,1,.2,1,.2,1,.2,1,.2,1,.3,1,.3,1,.3,1,.3,1,.3,1,.3,1,.3,1,.3,1,.3,1,.3,1,.3,1,.3,1,.3,1,.3,1,.3,1,.3,1,.3,1,.3,1,.3,1,.3,1,.3,1,.3,1,.3,1,.3,1,.3,1,.3,1,.3,1,.3,1,.3,1,.3,1,.3,1,.3,1,.3,1,.3,1,.3,1,.3,1,.3,1,.3,1,.3,1,.3,1,.3,1,.3,1,.3,1,.3,1,.3,1,.3,1,.4,1,.3,1,.4,1,.4,1,.4,1,.4,1,.4.9.4,1,.4.9.4.9.4.9.4.9.4.9.4.9.4.9.4.9.4.9.4.9.4.9.4.9.4.9.4.9.4.9.4.9.4.9.4.9.4.9.4.9.4.9.4.9.4.9.4.9.4.9.4.9.4.9.4.9.4.9.4.9.4.9.4.9.4.8.4.9.4.8.4.8.4.8.4.8.4.8.4.8.4.8.4.8.4.8.4.8.4.8.4.8.4.8.4.8.4.8.4.8.4.8.4.8.4.8.4.8.4.8.4.8.4.7.4.7.4.7.4.7.4.7.4.7.4.7.4.7.4.7.4.7.4.7.4.7.4.7.4.7.4.7.4.7.4.7.4.7.4.6.3.6.4.6.3.6.3.6.3.6.3.6.3.6.3.6.3.6.3.6.3.6.3.6.3.6.3.6.3.6.3.6.3.6.3.6.3.5.3.6.3.5.3.5.3.5.3.5.3.5.3.5.3.5.3.5.3.5.3.5.3.5.3.5.3.5.3.5.3.5.2.5.2.5.2.5.2.4.2.4.2.4.2.4.2.4.2.4.2.4.2.4.2.4.2.4.2.4.2.4.2.4.2.4.2.4.2.4.2.4.1.4.2.3.1.4.1.4.1.3.1.3.1.3.1.3.1.3.1.3.1.3.1.3.1.3.1.3.1.3.1.3.1.3.1.3v4.3l-.1.2-.1.2-.1.2-.1.2-.1.2-.1.2-.1.2-.1.2-.1.2-.1.2-.1.2-.1.2-.1.2-.1.1-.1.2-.2.1-.2.1-.2.1-.2.1-.2.1-.2.1-.2.1-.2.1-.2.1-.2.1-.2.1-.2.1-.2.1-4-3.9-.3.1-.3.1-.3.1-.3.1-.3.1-.3.1-.3.1-.3.1-.3.1-.3.1-.3.1-.3.1-.3.1-.3.1-.3.1-.4.1-.4.1-.4.1-.4.1-.4.1-.4.1-.4.1-.4.1-.3-.3-.4.1h-.4l-.4.1h-.8l-.5.1-.5.1h-.5l-.5.1h-.5l-.5.1h-3l-.5.1H308.6l-.7.1h-.7l-.7.1h-.7l-.7.1H303l-.7.1h-.8l-.8.1-.8.1h-.8l-.8.1-.8.1-.8.1-.8.1-.8.1-.8.1-.8.1-.8.1-.8.1-.8.1-.8.1-.8.1-.8.1-.8.1-.8.1-.8.1-.8.1-.9.1-.8.1-.9.1-.9.1-.9.1-.9.1-.9.1-.9.1-.9.1-.9.1-.9.1-.9.1-.9.1-.9.1-.9.1-.9.1-.9.1-.9.1-.9.1-.9.1-.9.1-.9.1-.9.1-.9.1-.9.1-.9.1-1,.1-.9.1-1,.1-.9.1-1,.1-1,.1-1,.1-1,.2-1,.1-1,.2-1,.2-1,.2-1,.2-1,.2-1,.2-1,.2-1,.2-1,.2-1,.2-1,.2-1,.2-1,.2-1,.2-1,.2-1,.2-1,.2-1,.2-1,.2-1,.2-1,.2-1,.2-1,.2-1,.2-1,.2-1,.2-1,.2-1,.2-1,.2-1,.2-1,.2-1,.2-1,.2-1,.2-1,.2-1,.3-1,.2-1,.3-1,.3-1,.3-1,.3-1,.3-1,.3-1,.3-1,.3-1,.3-1,.3-1,.3-1,.3-1,.3-1,.3-1,.3-1,.3-1,.3-1,.3-1,.3-1,.3-1,.3-1,.3-1,.3-1,.3-1,.3-1,.3-1,.3-1,.3-1,.3-1,.3-1,.3-1,.3-1,.3-1,.3-1,.3-1,.3-1,.3-.9.3-.9.3-.9.3-.9.3-.9.3-.9.3-.9.3-.9.3-.9.3-.9.3-.9.3-.9.3-.9.3-.9.3-.9.3-.9.3-.9.3-.9.3-.9.3-.9.3-.9.3-.9.3-.9.3-.9.3-.9.3-.9.3-.9.3-.8.3-.9.3-.8.3-.8.4-.8.3-.8.3-.8.3-.8.3-.8.4-.8.3-.8.3-.8.3-.8.3-.8.3-.8.3-.8.3-.8.3-.8.3v2.1l-.8.3-.8.3-.8.3-.8.3-.8.3-.8.3-.7.3-.7.3-.7.3-.7.3-.7.3-.7.3-.7.3-.7.3-.6.8-.7.3-.7.3-.7.3-.7.3-.7.3-.7.3-.7.3-.7.3-.6.3-.7.3-.6.3-.6.3-.6.3-.6.3-.6.3-.6.3-.6.3-.6.3-.6.3-.6.3-.6.3-.6.3-.6.3-.6.3-.6.3-.6.3-.5.3-.5.3-.6.3-.5.3-.5.3-.5.2-.5.2-.5.2-.5.2-.5.2-.5.2-.5.2-.5.2-.5.2-.5.2-.5.2-.5.2-.5.2-.4.1-.5.2-.5.2-.4.2-.4.2-.4.2-.4.2-.4.2-.4.2-.4.2-.4.2-.4.1-.4.2-.4.1-.4.1-.4.1-.4.1-.4.1-.4.1-.3.1-.4.1-.3.1-.3.1-.3.1-.3.1-.3.1-.3.1-.3.1-.3.1-.3.1-.3.1-.3.1H88l-.2-.1h-.2l-.2-.1-.2-.1-.2-.1-.2-.1-.2-.1-.2-.1-.2-.1-.2-.1-.2-.1-.2-.1-.2-.1-.2-.1-.1-.1-.2-.1-.1-.2-.1-.1-.1-.2-.1-.2-.1-.2-.1-.2-.1-.2-.1-.2-.1-.2-.1-.2-.1-.2-.1-.2-.1-.2-.1-.2-.1-.2-.1-.3-.1-.3-.1-.3L83,334l-.1-.3-.1-.3-.1-.3-.1-.3-.1-.3-.1-.3-.1-.3-.1-.3-.1-.3L82,331l-.1-.3-.1-.4v-.4l-.1-.4V266.6l-.1-.9-.1-.9v-.9l-.1-.9v-.9l-.1-.9-.1-.9-.1-.9-.1-.9-.1-.9-.1-.9-.1-.9-.1-1-.1-.9-.1-1-.1-1-.1-1-.1-1-.1-1-.1-1-.1-1-.1-1-.1-1-.1-1-.1-1-.1-1-.1-1-.1-1-.1-1-.1-1-.1-1-.1-1-.1-1-.1-1-.1-1-.1-1-.1-1-.1-1-.1-1-.1-1-.1-1-.2-1-.1-1-.2-1-.2-1-.1-1-.2-1-.1-1-.2-1-.2-1-.2-1-.2-1-.2-1-.2-1-.2-1-.2-1-.2-1-.2-1-.2-1-.2-1-.2-1-.2-1-.2-1-.2-1-.2-1-.2-1-.2-1-.2-1-.2-1-.2-1-.2-1-.2-1-.2-1-.2-1-.2-1-.2-1-.2-1-.2-1-.2-1-.2-1-.2-1-.2-1-.2-1-.2-1-.2-1-.3-1-.2-1-.2-1-.3-1-.3-1-.3-1-.3-1-.3-1-.3-1-.3-1-.3-1-.3-1-.3-1-.3-1-.3-1-.3-.9-.3-1-.3-.9-.3-.9-.3-.9-.3-.9-.3-.9-.3-.9-.3-.9-.3-.9-.3-.9-.3-.9-.3-.9-.5-.7-.3-.9-.3-.9-.3-.9-.3-.9-.3-.9-.3-.9-.3-.9-.3-.9-.3-.9-.3-.9-.3-.9-.3-.9-.3-.9-.3-.9-.3-.9-.3-.8-.3-.8-.3-.8-.3-.8-.3-.8-.3-.8-.3-.8-.3-.8-.3-.8-.3-.8-.3-.8-.3-.8-.3-.8-.3-.8-.3-.8-.3-.8-.3-.8-.3-.8-.3-.8-.3-.8-.3-.8-.3-.7-.3-.7-.3-.7-.3-.7-.3-.7-.3-.7-.3-.7-.3-.7-.3-.7-.3-.7-.3-.7-.3-.7-.3-.7-.3-.7-.3-.7-.3-.7-.3-.7-.3-.6-.3-.7-.3-.6-.3-.6-.3-.6-.3-.6-.3-.6,1-.5-.3-.6-.2-.6-.2-.6-.2-.6-.2-.6-.2-.6-.2-.6-.2-.6-.2-.6-.2-.6-.2-.6-.2-.5-.2-.5-.2-.5-.2-.5-.2-.5-.2-.5-.2-.5-.2-.5-.2-.5-.2-.5-.2-.5-.2-.5-.2-.5-.2-.5-.2-.5-.2-.5-.2-.5-.2-.5-.2-.4-.2-.4-.1-.4-.1-.4-.1-.4-.1-.4-.1-.4-.1-.4-.1-.4-.1-.4-.1-.4-.1-.4-.1-.4-.1-.4-.1-.4-.1-.4-.1-.4-.1-.3-.1-.4-.1-.3-.1-.3-.1-.3-.1-.3-.1-.3V78.5l.1-.2.1-.2.1-.2.1-.2.1-.2.1-.2.1-.2.1-.2.1-.2.1-.2.1-.2.1-.2.1-.2.1-.1.1-.1.1-.2.2-.1.2-.1.2-.1.2-.1.2-.1.2-.1.2-.1.2-.1.2-.1.2-.1.2-.1.2-.1.2-.1.2-.1.2-.1.3-.1.3-.1.3-.1.3-.1.3-.1.3-.1.3-.1.3-.1.3-.1.3-.1.3-.1h.3l.3-.1H70.5l.7.1h.7l.7.1h2.8l.7.1h3.5l.8.1h54.7l1-.1h1l1-.1h1l1-.1,1-.1,1-.1,1-.1,1-.1,1-.1,1-.1,1-.1,1-.1,1-.1,1-.1,1-.1,1-.1,1-.1,1-.1,1-.1,1-.1,1-.1,1-.1,1-.1,1-.1,1-.1,1-.1,1-.1,1-.1,1-.1,1-.1,1-.1,1-.1,1-.1,1-.1,1-.1,1-.1,1-.1,1-.1,1-.1,1-.1,1-.1,1-.1,1-.2,1-.1,1-.2,1-.1,1-.2,1-.2,1-.2,1-.2,1-.2,1-.2,1-.2,1-.2,1-.2,1-.2,1-.2,1-.2,1-.2,1-.2,1-.2,1-.2,1-.2,1-.2,1-.2,1-.2,1-.2,1-.2,1-.2,1-.2,1-.2,1-.2,1-.2,1-.2,1-.2.9-.2,1-.2,1-.2.9-.2.9-.2.9-.2.9-.2.9-.2.9-.2.9-.2.9-.2.9-.2.9-.2.9-.2.9-.2.9-.2.9-.2.9-.2.9-.2.9-.2.9-.2.9-.2.9-.2.9-.2.9-.2.9-.2.9-.2.9-.2.8-.2.8-.2.8-.2.8-.2.8-.2.8-.2.8-.2.8-.2.8-.2.8-.2.8-.2.8-.2.8-.2.8-.2.8-.2.8-.2.8-.2.8-.2.8-.2.8-.2.8-.2.8-.2.7-.2.7-.2.7-.2.7-.2.7-.2.7-.2.7-.2.7-.2.7-.2.7-.2.7-.2.7-.2.7-.2.7-.2.7-.2.7-.2.7-.2.6-.2.6-.2.6-.2.6-.2.6-.2.6-.2.6-.2.6-.2.6-.2.6-.2.6-.2.6-.2.6-.2.6-.2.6-.2.6-.2.5-.2.5-.2.5-.2.5-.2.5-.2.5-.2.5-.2.5-.2.5-.1.5-.1.5-.2.5-.1.5-.1.5-.1.5-.1.5-.1.5-.1.5-.1.4-.1.4-.1.4-.1.4-.1.4-.1.4-.1.4-.1.4-.1.4-.1.4-.1.4-.1.4-.1.4-.1.4-.1.4-.1.4-.1.3-.1h.4l.3-.1.3-.1.3-.1h4.9l.2.1h.2l.2.1.2.1.2.1.2.1.2.1.2.1.2.1.2.1.2.1.2.1.2.1.2.1.2.1.2.1.2.1.2.1.1.1.1.1.1.2.1.2.1.2.1.2.1.2.1.2.1.2.1.2.1.2.1.2.1.2.1.2.1.2.1.2.1.3.1.2.1.3.1.3.1.3V60.4l-.1.5v1.5l-.1.5-.1.5-.1.5-.1.5-.1.5-.1.6-.1.6-.1.6-.1.6-.1.6-.1.6-.1.6-.1.6-.1.6-.1.6-.1.6-.1.6-.1.6-.1.6-.1.6-.1.6-.1.6-.1.7-.1.7-.1.7-.1.7-.1.7-.1.7-.1.7-.1.7-.1.7-.1.7-.1.7-.1.7-.1.7-.1.7-.1.7-.1.7-.1.8-.1.8-.1.8-.1.8-.1.8-.1.8-.1.8-.1.8-.1.8-.1.8-.1.8-.1.8-.1.8-.1.8-.1.8-.1.8-.1.8-.1.8-.1.8-.1.9-.1.8-.1.9-.1.9-.1.9-.1.9-.1.9-.1.9-.1.9,1.1.9-.1.9-.1.9-.1.9-.1.9-.1.9-.1.9-.1.9-.1.9-.1.9-.1.9-.1.9v.9l-.1.9v1.8l-.1.9v43.9l.1,1v3l.1,1,.1,1,.1,1,.1,1,.1,1,.1,1,.1,1,.1,1,.1,1,.1,1,.1,1,.1,1,.1,1,.1,1,.1,1,.1,1,.1,1,.1,1,.1,1,.1,1,.1,1,.1,1,.1,1,.1,1,.1,1,.1,1,.1,1,.1,1,.1,1,.1,1,.1,1,.1,1,.1,1,.1,1,.1,1,.1,1,.1,1,.1,1,.1,1,.1,1,.1,1,.1,1,.2,1,.1,1,.2,1,.2,1,.2,1,.2,1,.2,1,.2.9.2,1,.2.9.2.9.2.9.2.9.2.9.2.9.2.9.2.9.2.9.2.9.2.9.2.9.2.9.2.9.2.9.2.9.2.9.2.9.2.9.2.9.2.9.2.9.2.9.2.9.2.9.2.8.2.9.2.8.2.8.2.8.2.8.2.8.2.8.2.8.2.8.2.8.2.8.2.8.2.8.2.8.2.8.2.8.2.8.2.8.2.8.2.8.2.8.2.7.2.7.2.7.2.7.2.7.2.7.2.7.2.7.2.7.2.7.2.7.2.7.2.7.2.7.2.7.2.7.2.6.2.6.2.6.2.6.2.6.2.6.2.6.2.6.2.6.2.6.2.6.1.6.2.6.1.6.1.6.1.6.1.6.1.5.1.5.1.5.1.5.1.5.1.5.1.5.1.5.1.5.1.5.1.5.1.5.1.5.1.5.1.5.1.5.1.4.1.4.1.4.1.4.1.4.1.4.1.4.1.4.1.4.1.4.1.4v8.1l-.1.2-.1.2-.1.2-.1.2-.1.2-.1.2-.1.2-.1.2-.1.2-.1.2-.1.2-.1.2-.1.2-.1.2-.1.1-.1.1-.1.1-.2.1-.2.1-.2.1-.2.1-.2.1-.2.1-.2.1-.2.1-.2.1-.2.1-.2.1-.2.1-.2.1-.2.1-.2.1-.2.1-.2.1-.3.1h-.6l-.3.1h-8.3l-.4-.1h-.4l-.4-.1-.4-.1-.4-.1-.5-.1-.5-.1-.5-.1-.5-.1-.5-.1-.5-.1-.5-.1-.5-.1-.5-.1-.5-.1-.5-.1-.5-.1-.5-.1-.5-.1-.5-.1-.5-.1-.6-.1-.6-.1-.6-.1-.6-.1-.6-.1-.6-.1-.6-.1-.6-.1-.6-.1-.6-.1-.6-.1-.6-.1-.6-.1-.6-.1-.6-.1-.6-.1-.6-.1-.7-.1-.7-.1-.7-.1-.7-.1-.7-.1-.7-.1-.7-.1-.7-.1-.7-.1-.7-.1-.7-.1-.7-.1-.7-.1-.7-.1-.7-.1-.7-.1-.7-.1-.8-.1-.8-.1-.8-.1-.8-.1-.8-.1-.8-.1-.8-.1-.8-.1-.8-.1-.8-.1-.8-.1-.8-.1-.8-.1-.8-.1-.8-.1-.8-.1-.8-.1-.8-.1-.8-.1-.8-.1-.9-.1-.9-.1-.9-.1-.9-.1-.9-.1-.9-.1-.9-.1-.9-.1-.9-.1-.9-.1-.9-.1-.9-.1-.9-.1-.9-.1-.9-.1-.9-.1-.9-.1-.9-.1-.9-.1-.9-.1-.9-.1-.9-.1-.9-.1-.9-.1-1-.1-.9-.1-1-.1-1-.1-1-.1-1-.1-1-.1-1-.1-1-.1-1-.1-1-.1-1-.1-1-.1-1-.1-1-.1-1-.1-1-.1-1-.1-1-.1-1-.1-1-.1-1-.1-1-.1-1-.1-1-.1-1-.1h-1l-1-.1h-42l-1,.1h-1l-1,.1-1,.1h-1l-1,.1-1,.1-1,.1-1,.1-1,.1-1,.1-1,.1-1,.1-1,.1-1,.1-1,.1-1,.1-1,.1-1,.1-1,.1-1,.1-1,.1-1,.1-1,.1-1,.1-1,.1-1,.1-1,.1-1,.1-1,.1-1,.1-1,.1-.9.1-.9.1-.9.1-.9.1-.9.1-.9.1-.9.1-.9.1-.9.1-.9.1-.9.1-.9.1-.9.1-.9.1-.9.1-.9.1-.9.1-.9.1-.9.1-.9.1-.9.1-.9.1-.8.1-.9.1-.8.1-.8.1-.8.1-.8.1-.8.1-.8.1-.8.1-.8.1-.8.1-.8.1-.8.1-.8.1-.8.1-.8.1-.8.1-.8.1-.8.1-.8.1-.8.1-.8.1-.7.1-.7.1-.7.1-.7.1-.7.1-.7.1-.7.1-.7.1-.7.1-.7.1-.7.1-.7.1-.7.1-.7.1-.7.1-.7.1-.6.1-.7.1-.6.1-.6.1-.6.1-.6.1-.6.1-.6.1-.6.1-.6.1-.6.1-.6.1-.6.1-2.1.9-.6.1-.6.1-.6.1-.6.1-.5.1-.5.1-.5.1-.5.1-.5.1-.5.1-.5.1-.5.1-.5.1-.5.1-.5.1-.5.1-.5.1-.5.1-.5.1-.5.1-.4.1h-.4l-.4.1H55.2l-.3-.1h-.3v-.1l-.3-.1-.2-.1-.2-.1-.2-.1-.2-.1-.2-.1-.2-.1-.2-.1-.2-.1-.2-.1-.2-.1-.2-.1-.2-.1-.2-.1-.2-.1-.2-.1-.2-.1-.1-.1-.1-.1-.1-.1-.1-.2-.1-.1-.1-.2-.1-.2-.1-.2-.1-.2-.1-.2-.1-.2-.1-.2-.1-.2-.1-.2-.1-.2-.1-.2-.1-.2-.1-.2v-.2l-.1-.2v-7.5l.1-.4.1-.4.1-.4.1-.4.1-.4.1-.4.1-.4.1-.4.1-.4.1-.4.1-.4.1-.4.1-.5.1-.5.1-.5.1-.5.1-.5.1-.5.1-.5.1-.5.1-.5.1-.5.1-.5.1-.5.1-.5.1-.5.1-.5.1-.6.1-.6.1-.6.1-.6.2-.6.1-.6.2-.6.2-.6.2-.6.2-.6.2-.6.2-.6.2-.6.2-.6.2-.6.2-.6.2-.6.2-.7.2-.6.2-.7.2-.7.2-.7.2-.7.2-.7.2-.7.2-.7.2-.7.2-.7.2-.7.2-.7.2-.7.2-.7.2-.7.2-.7.2-.8.2-.8.2-.8.2-.8.2-.8.2-.8.2-.8.2-.8.2-.8.2-.8.2-.8.2-.8.2-.8.2-.8.2-.8.2-.8.2-.8.2-.8.2-.8.2-.8.2-.8.2-.9.2-.9.2-.9.2-.9.2-.9.2-.9.2-.9.2-.9.2-.9.2-.9.2-.9.2-.9.2-.9.2-.9.2-.9.2-.9.2-.9.2-.9.2-.9.2-.9.2-.9.2-.9.2-.9.2-.9.2-.9.2-.9.2-1,.2-.9.2-1,.2-1,.2-1,.1-1,.2-1,.2-1,.1-1,.2-1,.1-1,.1-1,.1-1,.1-1,.1-1,.1-1,.1-1,.1-1,.1-1,.1-1,.1-1,.1-1,.1-1,.1-1,.1-1,.1-1,.1-1,.1-1,.1-1,.1-1,.1-1,.1-1,.1-1,.1-1,.1-1,.1-1,.1-1,.1-1,.1-1,.1-1,.1-1,.1-1,.1-1,.1-1,.1-1,.1-1,.1-1,.1-1,.1-1,.1-1,.1-1v-1l.1-1v-2l.1-1V124.4l-.1-.9-.1-.9v-.9l-.1-.9v-.9l-.1-.9-.1-.9-.1-.9-.1-.9-.1-.9-.1-.9-.1-.9-.1-.9-.1-.9-.1-.9-.1-.9-.1-.9-.1-.9-.1-.9-.1-.9-.1-.9-.1-.9-.1-.9-.1-.9-.1-.8-.1-.8-.1-.8-.1-.8-.1-.8-.1-.8-.1-.8-.1-.8-.1-.8-.1-.8-.1-.8-.1-.8-.1-.8-.1-.8-.1-.8-.1-.8-.1-.8-.1-.8-.1-.8-.1-.8-.1-.7-.1-.7-.1-.7-.1-.7-.1-.7-.1-.7-.1-.7-.1-.7-.1-.7-.1-.7-.1-.7-.1-.7-.1-.7-.1-.7-.1-.7-.1-.6-.1-.7-.1-.6-1.1-1-.1-.6-.1-.6-.1-.6-.1-.6-.1-.6-.1-.6-.1-.6-.1-.6-.1-.6-.1-.6-.1-.6-.1-.6-.1-.6-.1-.6-.1-.5L65,64l-.1-.5-.1-.5-.1-.5V47.6l.1-.3.1-.3.1-.3.1-.3.1-.2.1-.2.1-.2.1-.2.1-.2.1-.2.1-.2.1-.2.1-.2.1-.2.1-.2.1-.2.1-.2.1-.2.1-.2.1-.1.2-.2L67,43l.2-.1.2-.1.2-.1.2-.1.2-.1.2-.1.2-.1.2-.1.2-.1L69,42l.2-.1.2-.1.2-.1.2-.1.2-.1h.2l.2-.1h5.2l.3.1.4.1.3.1.4.1.4.1.4.1.4.1.4.1.4.1.4.1.4.1.4.1.4.1.4.1.4.1.4.1.4.1.4.1.4.1.5.1.5.1.5.1.5.1.5.1.5.1.5.1.5.1.5.2.5.1.5.2.5.2.5.2.5.2.5.2.5.2.5.2.5.2.6.2.6.2.6.2.6.2.6.2.6.2.6.2.6.2.6.2.6.2.6.2.6.2.6.2.6.2.6.2.6.2.7.2.6.2.7.2.7.2.7.2.7.2.7.2.7.2.7.2.7.2.7.2.7.2.7.2.7.2.7.2.7.2.7.2.7.2.8.2.8.2.8.2.8.2.8.2.8.2.8.2.8.2.8.2.8.2.8.2.8.2.8.2.8.2.8.2.8.2.8.2.8.2.8.2.8.2.9.2.8.2.8.2.9.2.9.2.9.2.9.2.9.2.9.2.9.2.9.2.9.2.9.2.9.2.9.2.9.2.9.2.9.2.9.2.9.2.9.2.9.2.9.2.9.2.9.2.9.2.9.2,1,.2,1,.2,1,.2,1,.2,1,.2,1,.2,1,.2,1,.2,1,.2,1,.2,1,.2,1,.2,1,.2,1,.2,1,.2,1,.2,1,.2,1,.2,1,.2,1,.2,1,.2,1,.2,1,.2,1,.2,1,.2,1,.2,1,.2,1,.2,1,.2,1,.2,1,.2,1,.2,1,.2,1,.1,1,.1,1,.2,1,.1,1,.1,1,.2,1,.1,1,.1,1,.1,1,.1,1,.1,1,.1,1,.1,1,.1,1,.1,1,.1,1,.1,1,.1,1,.1,1,.1,1,.1,1,.1,1,.1,1,.1,1,.1,1,.1,1,.1,1,.1,1,.1,1,.1,1,.1,1,.1,1,.1,1,.1,1,.1,1,.1,1,.1,1,.1,1,.1,1,.1,1,.1,1,.1,1,.1,1,.1,1,.1,1,.1h1l1,.1h52.6l.8-.1H290l.7-.1h2.8l.7-.1H297l.7-.1h2.1l.6-.1h24.7l.3.1h.3l.3.1h.3l.3.1.3.1.3.1.3.1.3.1.3.1.3.1.2.1.2.1.2.1.2.1.2.1.2.1.2.1.2.1.2.1.2.1.2.1.2.1.2.1.2.1.2.1.1.1.1.1.1.2.1.2.1.2.1.2.1.2.1.2.1.2.1.2.1.2.1.2.1.2.1.2.1.2.1.2V84l-.1.3-.1.3-.1.3-.1.3-.1.3-.1.4-.1.4-.1.4-.1.4-.1.4-.1.4-.1.4-.1.4-.1.4-.1.4-.1.4-.1.4-.1.4-.1.4-.1.4-.1.4-.2.4-.1.4-.2.4-.2.5-.2.5-.2.5-.2.5v.3l-.2.5-.2.5-.2.5-.2.5-.2.5-.2.5-.2.5-.2.5-.2.5-.2.5-.2.5-.2.6-.2.5-.2.6-.2.6-.2.6-.2.6-.2.6-.2.6-.2.6-.2.6-.2.6-.2.6-.2.6-.3.6-.3.6-.3.6-.3.6-.3.6-.3.7-.3.6-.3.6-.3.7-.3.7-.3.7-.3.7-.3.7-.3.7v.7l-.3.7-.3.7-.3.7-.3.7-.3.7-.3.7-.3.7-.3.7-.3.7-.3.8v.9l-.3.8-.3.8-.3.8-.3.8-.3.8-.3.8-.3.8-.3.8-.3.8-.3.8-.3.8-.3.8-.3.8-.1.6-.3.8-.3.8-.3.8-.3.8-.3.8-.3.9-.3.8-.3.9-.3.9-.3.9-.3.9-.3.9-.3.9-.3.9-.3.9-.3.9-.3.9-.3.9-.3.9-.3.9-.3.9-.3.9-.3.9-.3.9-.3.9-.3.9-.3.9-.3.9-.3.9-.3.9-.3.9-.3.9-.3,1-.3,1-.3.9-.3,1-.3,1-.3,1-.3,1-.3,1-.3,1-.3,1-.3,1-.3,1-.3,1-.3,1-.2,1-.3,1-.2,1-.2,1-.2,1-.2,1-.2,1-.2,1-.2,1-.2,1-.2,1-.2,1-.2,1-.2,1-.2,1-.2,1-.2,1-.2,1-.2,1-.2,1-.2,1-.2,1-.2,1-.2,1-.2,1-.2,1-.2,1-.2,1-.2,1-.2,1-.2,1-.2,1-.2,1-.2,1-.2,1-.2,1-.2,1-.2,1-.2,1-.2,1-.2,1-.2,1-.1,1-.2,1-.1,1-.1,1-.2,1-.1,1-.1,1-.1,1-.1,1-.1,1-.1,1-.1,1-.1,1-.1,1-.1,1-.1,1-.1,1-.1,1-.1,1-.1,1-.1,1-.1,1-.1,1-.1,1-.1,1-.1,1-.1,1-.1,1-.1,1-.1,1-.1,1-.1,1-.1,1-.1.9-.1,1-.1.9-.1.9-.1.9-.1.9-.1.9-.1.9-.1.9-.1.9v.9l-.1.9v1.8l-.1.9V330l-.1.4-.1.4v.4l-.1.3-.1.3-.1.3-.1.3h-.4l-.1.3-.1.3-.1.3-.1.3-.1.3-.1.3-.1.3-.1.3-.1.3-.1.2-.1.2-.1.2-.1.2-.1.2-.1.2-.1.2-.1.2-.1.2-.1.2-.1.2-.1.2-.1.2-.1.2-.1.2-.2.1-.1.1-.2.1-.2.1-.2.1-.2.1-.2.1-.2.1-.2.1-.2.1-.2.1-.2.1-.2.1-.2.1h-5.1l-.3-.1-.3-.1-.3-.1-.3-.1-.3-.1-.3-.1-.3-.1-.3-.1-.3-.1-.3-.1-.3-.1-.4-.1-.4-.1-.4-.1-.4-.1-.4-.1-.4-.1-.4-.1-.4-.1-.4-.2-.4-.1-.4-.2-.4-.2-.4-.2-.4-.2-.4-.2-.4-.2-.4-.2-.5-.2-.5-.2-.5-.2-.5-.2-.5-.2-.5-.2-.5-.2-.5-.2-.5-.2-.5-.2-.5-.2-.5-.2-.5-.2-.5-.2-.5-.2-.5-.3-.5-.3-.5-.3-.5-.3-.5-.3-.6-.3-.6-.3-.6-.3-.6-.3-.6-.3-.6-.3-.6-.3-.6-.3-.6-.3-.6-.3-.6-.3-.6-.3-.6-.3-.6-.3-.6-.3-.6-.3-.6-.3-.6-.3-.7-.3-.7-.3-.7-.3-.7-.3-.7-.3-.7-.3-.7-.3-.7-.3-.7-.3-.7-.3-.7-.3-.7-.3-.7-.3-.7-.3-.7-.3-.7-.3-.7-.3-.7-.3-.8-.3-.8-.3-.8-.3-.8-.3-.8-.3-.8-.3-.8-.3-.8-.3-.8-.3-.8-.3-.8-.3-.8-.3-.8-.3-.8-.3-.8-.3-.8-.3-.8-.3-.8-.4-.8-.3-.8-.3-.8-.3-.8-.3-.8-.4-.9-.3-.9-.3-.9-.3-.9-.3-.9-.3-.9-.3-.9-.3-.9-.3-.9-.3-.9-.3-.9-.3-.9-.3-.9-.3-.9-.3-.9-.3-.9-.3-.9-.3-.9-.3-.9-.3-.9-.3-.9-.3-.9-.3-.9-.3-.9-.3-.9-.3-.9-.3-.9-.3-1-.3-.9-.3-1-.3-1-.3-.9-.3-1-.3-1-.3-1-.3-1-.3-1-.3-1-.3-1-.3-1-.3-1-.3-1-.3-1-.3-1-.3-1-.3-1-.3-1-.3-1-.3-1-.3-1-.3-1-.3-1-.3-1-.3-1-.3-1-.3-1-.3-1-.3-1-.3-1-.3-1-.3-1-.3-1-.3-1-.3-1-.3-1-.3-1-.3-1-.2-1-.2-1-.2-1-.2-1-.2-1-.2-1-.2-1-.2-1-.2-1-.2-1-.2-1-.2-1-.2-1-.2-1-.2-1-.2-1-.2-1-.2-1-.2-1-.2-1-.2-1-.2-1-.2-1-.2-1-.2-1-.2-1-.2-1-.2-1-.2-1-.2-1-.2-1-.2-1-.2-1-.2-1-.2-1-.2-1-.1-1-.2-1-.1-1-.1-1-.1-1-.1-1-.1-1-.1-.9-.1-.9-.1-.9-.1-.9-.1-.9-.1-.9-.1-.9-.1-.9-.1-.9-.1-.9-.1-.9-.1-.9-.1-.9-.1-.9-.1-.9-.1L92,284l-.9-.1-.9-.1-.9-.1-.9-.1-.9-.1-.9-.1-.9-.1-.9-.1-.9-.1L83,283l-.8-.1-.8-.1-.8-.1-.8-.1-.8-.1-.8-.1-.8-.1-.8-.1-.8-.1L75,282l-.8-.1-.8-.1-.8-.1-.8-.1-.8-.1-.8-.1-.8-.1-.8-.1-.8-.1H67l-.8-.1-.8-.1H64l-.7-.1H59.1l-.7-.1H39l-.5-.1H38l-.5-.1-.5-.1h-.5l-.5-.1-.4-.1h-.4l-.4-.1-.4-.1-.4-.1-.4-.1-.4-.1-.4-.1-.4-.1-.4-.1-.4-.1-.4-.1-.4-.1-.3-.1-.3-.1-.3-.1-.3-.1-.3-.1-.3-.1-.3-.1-.3-.1-.3-.1-.3-.1-.3-.1-.3-.1-.3-.1-.3-.1,1-2.3-.2-.1-.2-.1-.2-.1-.2-.1-.2-.1-.2-.1-.2-.1-.2-.1-.2-.1-.2-.1-.2-.1-.2-.1-.2-.1-.2-.1-.2-.2-.1-.2-.1-.2-.1-.2-.1-.2-.1-.2-.1-.2-.1-.2-.1-.2-.1-.2-.1-.2-.1-.2-.1-.2-.1-.2-.1-.2v-4l.1-.3.1-.3.1-.3.1-.3.1-.3.1-.3.1-.3.1-.3.1-.3.1-.3.1-.3.1-.3.1-.3.1-.3.1-.3.1-.4.1-.4.1-.4.2-.4.2-.4.2-.4.2-.4.2-.4.2-.4.2-.4.2-.4.2-.4.2-.4.2-.4.2-.4.2-.4.2-.4.2-.4.2-.4.2-.4.2-.5.2-.4.2-.5.3-.5.2-.5.3-.5.3-.5.3-.5.3-.5.3-.5.3-.5.3-.5.3-.5.3-.5.3-.5.3-.5.3-.5.3-.5.3-.5.3-.6.3-.5.3-.6.3-.6.3-.6.3-.6.3-.6.3-.6.3-.6.3-.6.3-.6.3-.6.3-.6.3-.6.3-.6.3-.6.3-.6.3-.6.4-.6.4-.6.3-.7.4-.7.4-.7.4-.7.4-.7.4-.7.4-.7.4-.7.4-.7.4-.7.4-.7.4-.7.4-.7.4-.7.4-.7.4-.7.4-.7.4-.7.4-.8.4-.7.4-.8.4-.8.4-.8.4-.8.4-.8.4-.8.4-.8.4-.8.4-.8.4-.8.4-.8.4-.8.4-.8.4-.8.4-.8.4-.8.4-.8.4-.8.4-.8.4-.8.4-.8.4-.8.4-.8.4-.9.4-.9.4-.9.4-.9.4-.9.4-.9.4-.9.4-.9.4-.9.4-.9.4-.9.4-.9.4-.9.4-.9.4-.9.4-.9.4-.9.4-.9.4-.9.4-.9.4-.9.4-.9.4-.9.4-.9.4-.9.4-.9.4-.9.4-.9.4-.9.4-.9.4-.9.4-.9.4-.9.4-1,.4-1,.4-1,.3-1,.4-1,.4-1,.3-1,.4-1,.3-1,.3-1,.3-1,.3-1,.3-1,.3-1,.3-1,.3-1,.3-1,.3-1,.3-1,.3-1,.3-1,.3-1,.3-1,.3-1,.3-1,.3-1,.3-1,.3-1,.3-1,.3-1,.3-1,.3-1,.3-1,.3-1,.3-1,.3-1,.3-1,.3-1,.3-1,.3-1,.3-1,.3-1,.3-1,.3-1,.3-1,.3-1,.3-1,.3-1,.3-1,.3-1,.3-1,.3-1,.2-1,.2-1,.2-1,.2-1,.2-1,.2-1,.2-1,.2-1,.2-1,.2-1,.2-1,.2-1,.2-1,.2-.9.2-.9.2-1,.2-.9.2-.9.2-.9.2-.9.2-.9.2-.9.2-.9.2-.9.2-.9.2-.9.2-.9.2-.9.2-.9.2-.9.2-.9.2-.9.2-.9.2-.9.2-.9.2-.9.1-.9.2-.9.2-.9.1-.9.2-.9.1-.9.1-.9.1-.8.1-.9.1-.9.1-.8.1-.8.1-.8.1-.8.1-.8.1-.8.1-.8.1-.8.1-.8.1-.8.1-.8.1-.8.1-.8.1-.8.1-.8.1-.8.1-.8.1-.8.1-.8.1-.8.1-.7.1-.7.1-.7.1-.7.1-.7.1-.7.1-.7.1-.7.1-.7.1-.7.1-.7.1-.7.1-.7.1-.7.1-.7.1-.7.1-.7.1-.6.1-.6.1-.6L99,46l.1-.6.1-.6.1-.6.1-.6.1-.6.1-.6.1-.6.1-.6.1-.6.1-.6.1-.6.1-.6.1-.6.1-.5.1-.5.1-.5.1-.5.1-.5.1-.5.1-.5.1-.5.1-.5.1-.5.1-.5.1-.5.1-.5.1-.4.1-.4.1-.4.1-.4.1-.4.1-.4.1-.4.1-.4.1-.4.1-.4.1-.4.1-.4.1-.4.1-.4.1-.4.1-.4.1-.3.1-.3.1-.3.1-.3.1-.3.1-.3.1-.3.1-.3.1-.3.1-.3.1-.3.1-.3.1-.3.1-.3.1-.2.1-.2.1-.2.1-.2.1-.2.1-.2.1-.2.1-.2.1-.2.1-.2.1-.2.1-.2.2-.2.2-.2.2-.1.2-.1.2-.1.2-.1.2-.1.2-.1.2-.1.2-.1.2-.1.2-.1.2-.1.2-.1.2-.1.2-.1h.2l.2-.1h2.8l.3.1.3.1.3.1.3.1.3.1.3.1.3.1.3.1.3.1.3.1.3.1.3.1.3.1.3.1.3.1.3.1.3.1.3.2.3.1.3.2.3.2.3.2.4.2.3.2.4.2.4.2.4.2.4.2.4.2.4.2.4.2.4.2.4.2.4.2.4.2.4.2.4.2.4.3.4.3.4.3.4.3.4.3.5.3.4.3.5.3.5.3.5.3.5.3.5.3.5.3.5.3.5.3.5.3.5.3.5.3.5.3.5.3.5.3.5.3.5.3.5.3.5.4.5.4.5.3.6.4.6.4.6.4.6.4.6.4.6.4.6.4.6.4.6.4.6.4.6.4.6.4.6.4.6.4.6.4.6.4.6.4.7.4.6.4.7.4.7.4.7.4.7.4.7.4.7.4.7.4.7.4.7.4.7.4.7.4.7.4.7.4.7.4.7.4.7.4.7.4.7.4.7.4.7.4.8.4.8.4.8.4.8.4.8.4.8.4.8.5.8.4.8.4.8.5.8.4.8.5.8.4.8.5.8.4.8.5.8.4.8.4.8.4.8.4.8.4.8.4.8.4.8.4.8.4.9.4.8.4.9.4.9.4.9.4.9.4.9.4.9.4.9.4.9.4.9.4.9.4.9.4.9.4.9.4.9.4.9.4.9.4.9.4.9.4.9.4.9.4.9.4.9.4.9.4.9.4.9.4.9.4.9.4.9.4.9.4.9.4.9.4.9.4.9.4.9.4,1,.4.9.4.9.4,1,.4,1,.4,1,.4,1,.4,1,.4,1,.4,1,.4,1,.4,1,.4,1,.4,1,.4,1,.4,1,.4,1,.4,1,.4,1,.4,1,.4,1,.4,1,.4,1,.4,1,.4,1,.4,1,.4,1,.4,1,.3,1,.3,1,.3,1,.3,1,.3,1,.3,1,.3,1,.3,1,.3,1,.3,1,.3,1,.3,1,.3,1,.3,1,.3,1,.3,1,.3,1,.3.9.3,1,.3,1,.3,1,.3.9.3.9.3.9.3.9.3.9.3.9.3.9.3.9.3.9.3.9.3.9.3.9.3.9.3.9.3.9.3.9.2.9.3.9.2.9.2.9.2.9.2.9.2.9.2.9.2.9.2.9.2.9.2.9.2.9.2.9.2.9.2.9.2.9.2.9.2.9.2.8.2.8.2.8.2.8.2.8.2.8.2.8.2.8.2.8.2.8.2.8.2.8.2.8.2.8.2.8.2.8.2.8.2.8.2.8.2.8.2.8.1.8.1.8.1.7.2.7.1.7.1.7.1.7.1.7.1.7.1.7.1.7.1.7.1.7.1.7.1.7.1.7.1.7.1.7.1.7.1.6.1.6.1.6.1.6.1.6.1.6.1.6.1.6.1.6.1.6.1.6.1.6.1.6.1.6.1.6.1.6.1.5.1.5.1.5.1.5.1.5.1.5.1.5.1.5.1.5.1.5.1.5.1.5.1.5.1.5.1.5.1.5.1.4.1.4.1.4.1.4.1.4.1.4.1.4.1.4.1.4.1.4.1.4.1.4.1.3.1.4.1.3.1.3.1.3.1.3.1.3.1.3.1.3.1.3.1.3.1.3.1.3.1.3.1.3.1.3.1.2.1.2.1.2.1.2.1.2.1.2.1.2.1.2.2.2.1.2.1.2.1.2.2.2.1.1.2.1.2.1.2.1.2.1.2.1.2.1.2.1.2.1.2.1.2.1.2.1.2.1.2.1.2.1.2v3.3l-.1.3-.1.3-.1.3-.1.3-.1.3-.1.3-.1.3-.1.3-.1.3-.1.3-.1.3-.1.3-.1.3-.1.3-.2.3-.2.3-.2.3-.2.3-.2.3-.2.3-.2.3-.2.3-.2.3-.2.3-.2.4-.2.4-.2.3-.2.4-.2.4-.2.4-.2.4-.2.4-.3.4-.3.4-.3.4-.3.4-.3.4-.3.4-.3.4-.3.4-.3.4-.3.4-.3.4-.3.4-.3.4-.3.5-.3.4-.3.5-.3.5-.3.5-.3.5-.3.5-.4.5-.3.5-.3.5-.4.5-.4.5-.4.5-.4.5-.4.5-.4.5-.4.5-.4.5-.4.5-.4.5-.4.5-.4.5-.4.6-.4.5-.4.6-.4.6-.4.6-.4.6-.4.6-.4.6-.4.6-.4.6-.4.6-.4.6-.4.6-.4.6-.5.6-.4.6-.4.6-.5.6-.5.6-.5.6-.5.6-.5.7-.5.6-.5.7-.5.7-.5.7-.5.7-.5.7-.5.7-.5.7-.5.7-.5.7-.5.7-.5.7-.5.7-.5.7-.5.7-.5.7-.5.7-.5.7-.5.7-.5.7-.5.8-.5.8-.5.8-.5.8-.5.8-.5.8-.5.8-.5.8-.5.8-.5.8-.5.8-.5.8-.5.8-.5.8-.5.8-.5.8-.5.8-.5.8-.5.8-.5.8-.5.8-.5.8-.5.8-.5.8-.5.8-.5.8-.5.9-.5.8-.5.9-.5.9-.5.8-.5.9-.5.9-.5.9-.5.9-.5.9-.5.9-.5.9-.5.9-.5.9-.5.9-.5.9-.5.9-.5.9-.5.9-.5.9-.5.9-.5.9-.5.9-.5.9-.5.9-.5.9-.5.9-.5.9-.5.9-.5.9-.5.9-.5.9-.5.9-2,4.5-.5.9-.5.9-.5.9-.4.9-.5.9-.4.9-.4.9-.4.9-.4.9-.4.9-.4.9-.4.9-.4.9-.4.9-.4.9-.4.9-.4.9-.4.9-.4.9-.4.9-.4.9-.4.9-.4.9-.4,1-.4.9-.4.9-.4.9-.4.9-.4.9-.4.9-.6,1.9-.4.9-.4.9-.4.9-.4.9-.4.9-.4.9-.4.9-.4.9-.4.9-.4.9-.4.9-.3.9-.4.9-.3.9-.3.9-.3.9-.3.9-.3.9-.3.9-.3.9-.3.9-.3.9-.3.9-.3.9-.3.9-.3.9-.3.9-.3.9-.3.9-.3.9-.3.9-.3.9-.3.9-.3.9-.3.9-.3.9-.3.9-.3.9-.3.9-.3.9-.3.9-.3.9-.3.9-.3.9-.3.8-.3.9-.3.8-.3.8-.3.8-.2.8-.3.8-.2.8-.2.8-.2.8-.2.8-.2.8-.2.8-.2.8-.2.8-.2.8-.2.8-.2.8-.2.8-.2.8-.2.8-.2.8-.2.8-.2.8-.2.8-.2.8-.2.7-.2.7-.2.7-.2.7-.2.7-.2.7-.2.7-.2.7-.2.7-.2.7-.2.7-.2.7-.2.7-.2.7-.2.7-.2.7-.2.6-.2.7-.2.6-.2.6-.2.6-.2.6-.2.6-.1.6-.2.6-.2.6-.1.6-.2.6-.1.6-.2.6-.2.6-.1.6-.1.6-.1.6-.1.5-.2.5-.1.5-.1.5-.1.5-.1.5-.1.5-.1.5-.1.5-.1.5-.1.5-.1.5-.1.5-.1.5-.1.5-.1.4-.1.4-.1.4-.1.4-.1.4-.1.4-.1.4-.1.4-.1.4-.1.4-.1.4-.1.4-.1.4-.1.3-.1.3-.1.3-.1.3-.1.3-.1.3-.1.3-.1.3-.1.3-.1.3-.1.3-.1.3-.1.3-.2.3-.1.3-.1.3-.2.2-.2.2-.2.2-.2.2-.2.2-.2.2-.2.2-.2.2-.2.2-.2.2-.2.2-.2.1-.2.2-.2.1-.2.1-.2.1-.2.1-.2.1-.2.1-.2.1-.2.1-.2.1-.2.1-.2.1-.2.1-.2.1-.2.1h-2.8l-.2-.1-.3-.1-.2-.1-.3-.1-.3-.1-.3-.1-.3-.1-.3-.1-.3-.1-.3-.1-.3-.1-.3-.1-.3-.1-.3-.1-.3-.1-.3-.2-.2-.3-.3-.2-.3-.2-.3-.2-.3-.2-.3-.2-.3-.2-.3-.2-.3-.2-.3-.2-.3-.2-.3-.2-.3-.2-.3-.2-.3-.2-.3-.3-.4-.3-.4-.3-.4-.3-.4-.3-.4-.3-.4-.3-.4-.3-.4-.3-.4-.3-.4-.3-.4-.3-.4-.3-.4-.3-.4-.3-.4-.3-.4-.3-.4-.3-.4-.3-.4-.3-.4-.4-.4-.4-.5-.4-.4-.4-.5-.4-.5-.4-.5-.4-.5-.4-.5-.4-.5-.4-.5-.4-.5-.4-.5-.4-.5-.4-.5-.4-.5-.4-.5-.4-.5-.4-.5-.4-.5-.4-.5-.4-.5-.4-.5-.4-.5-.5-.5-.5-.5-.5-.6-.5-.6-.5-.6-.5-.6-.5-.6-.5-.6-.5-.6-.5-.6-.5-.6-.5-.6-.5-.6-.5-.6-.5-.6-.5-.6-.5-.6-.5-.6-.5-.6-.5-.6-.5-.6-.5-.6-.5-.7-.5-.6-.5-.7-.5-.7-.5-.7-.5-.7-.5-.7-.5-.7-.5-.7-.5-.7-.5-.7-.5-.7-.5-.7-.5-.7-.5-.7-.5-.7-.5-.7-.5-.7-.5-.7-.5-.7-.5-.7-.5-.7-.5-.7-.5-.8-.5-.8-.5-.8-.5-.8-.5-.8-.6-.8-.5-.8-.6-.8-.5-.8-.6-.8-.5-.8-.6-.8-.5-.8-.5-.8-.5-.8-.6-.8-.5-.8-.5-.8-.6-.8-.5-.8-.6-.8-.5-.8-.5-.8-.5-.8-.6-.8-.5-.8-.5-.8-.6-.8-.5-.8-.5-.8-.5-.8-.5-.9-.5-.8-.5-.9-.5-.9-.5-.9-.5-.9-.5-.9-.5-.9-.5-.9-.5-.9-.5-.9-.5-.9-.5-.9-.5-.9-.5-.9-.5-.9-.5-.9-.5-.9-.5-.9-.5-.9-.5-.9-.5-.9-.5-.9-.5-.9-.5-.9-.5-.9-.5-.9-.5-.9-.5-.9-.5-.9-.5-.9-.5-.9-.5-.9-.5-.8-2.1-.9-.5-.9-.5-.9-.5-.9-.5-.9-.5-.9-.5-.9-.5-.9-.5-.9-.5-.9-.5-.9-.5-.9-.5-.9-.4-.9-.5-.9-.5-.9-.4-.9-.5-.9-.4-.9-.4-.9-.4-.9-.4-1.1-.1-.9-.4-.9-.4-.9-.4-.9-.4-.9-.4-.9-.4-.9-.4-.9-.4-.9-.4-.9-.4-.9-.4-.9-.4-.9-.4-.9-.4-.9-.4-.9-.4-.9-.4-.9-.4-.9-.4-.9-.4-.9-.4-.9-.4-.9-.4-.9-.4-.9-.4-.9-.4-.9-.4-.9-.4-.9-.3-.9-.4-.9-.3-.9-.3-.8-.3-.8-.3-.9-.3-.8-.3-.9-.3-.8-.3-.8-.3-.8-.3-.8-.3-.8-.3-.8-.3-.8-.3-.8-.3-.8-.3-.8-.3-.8-.3-.8-.3-.8-.3-.8-.3-.8-.3-.8-.3-.8-.3-.8-.3-.8-.3-.8-.3-.8-.3-.8-.3-.8-.3-.8-.3-.8-.3-.7-.3-.7-.3-.7-.3-.7-.2-.7-.3-.7-.2-.7-.2-.7-.2-.7-.2-.7-.2-.7-.2-.7-.2-.7-.2-.7-.2-.7-.2-.7-.2-.7-.2-.7-.2-.7-.2-.6-.2-.6-.2-.6-.2-.6-.2-.6-.2-.6-.2-.6-.2-.6-.2-.6-.2-.6-.2-.6-.2-.6-.2-.6-.2-.6-.2-.6-.2-.6-.2-.6-.2-.5-.2-.5-.2-.5-.2-.5-.2-.5-.2-.5-.2-.5-.2-.5-.2-.5-.2-.5-.2-.5-.2-.5-.2-.5-.2-.5-.2-.5-.2-.4-.2-.4-.2-.4-.2-.4-.2-.4-.2-.4-.2-.4-.2-.4-.2-.4-.2-.4-.2-.4-.2-.4-.2-.4-.2-.4-.2-.3-.2-.1,1.1-.3-.2L14,236l-.3-.1-.3-.2-.3-.2-.3-.2-.3-.2-.3-.2-.3-.2-.3-.2-.3-.2-.3-.2-.3-.2-.2-.2-.2-.2-.2-.2-.2-.2-.2-.2-.2-.2-.2-.2-.2-.2-.2-.2-.2-.2-.2-.2-.2-.2-.2-.2-.2-.2-.1-.2-.1-.2-.1-.2-.1-.2-.1-.2-.1-.2-.1-.2-.1-.2-.1-.2-.1-.2-.1-.2-.1-.2v-3l.1-.2.1-.2.1-.2.1-.2.1-.2.1-.3.1-.2.1-.3.1-.3.1-.3.1-.3.1-.3.1-.3.1-.3.2-.3.2-.3.2-.3.2-.3.2-.3.2-.3.2-.3.2-.3.2-.3.2-.3.2-.3.2-.3.2-.3.2-.3.2-.3.3-.3.3-.3.3-.3.3-.3.3-.3.3-.3.3-.3.3-.3.3-.3.3-.4.3-.4.3-.4.3-.4.3-.4.3-.4.3-.4.3-.4.3-.4.3-.4.4-.4.4-.4.4-.4.4-.4.4-.4.4-.4.4-.4.4-.4.4-.4.4-.4.4-.4.4-.4.4-.4.4-.4.4-.5.4-.5.4-.5.4-.5.4-.5.4-.5.5-.5.5-.5.5-.5.5-.5.5-.5.5-.5.5-.5.5-.5.5-.5.5-.5.5-.5.5-.5.5-.5.5-.5.5-.5.5-.5.5-.6.5-.5.5-.6.5-.6.5-.6.5-.6.5-.6.5-.6.5-.6.5-.6.5-.6.5-.6.5-.6.6-.6.5-.6.5-.6.5-.6.6-.6.6-.6.6-.6.6-.6.6-.6.6-.6.6-.6.6-.7.6-.7.6-.7.6-.7.6-.7.6-.7.6-.7.6-.7.6-.7.6-.7.6-.7.6-.7.6-.7.6-.7.6-.7.6-.7.6-.7.6-.7.6-.7.6-.7.6-.7.6-.7.6-.7.6-.8.6-.7.6-.8.6-.8.6-.8.6-.8.6-.8.6-.8.6-.8.6-.8.6-.8.6-.8.6-.8.6-.8.6-.8.6-.8.6-.8.6-.8.6-.8.6-.8.6-.8.6-.8.6-.8.6-.8.6-.8.6-.8.6-.8.6-.8.6-.8.6-.8.6-.8.6-.8.6-.8.6-.8.6-.8.6-.9.6-.9.6-.8.6-.9.6-.9.6-.9.6-.9.6-.9.6-.9.6-.9.6-.9.6-.9.6-.9.5-.9.6-.9.5-.9.6-.9.5-.9.5-.9.5-.9.5-.9.5-.9.5-.9.5-.9.5-.9.5-.9.5-.9.5-.9.5-.9.5-.9.5-.9.5-.9.5-.9.5-.9.5-.9.5-.9.5-.9.5-.9.5-.9.5-.9.5-.9.5-.9.5-.9.5-.9.5-.9.5-.9.5-.9.5-.9.5-.9.5-.9.5-.9.5-.9.5-.9.5-.9.5-.9.5-.9.4-.9.5-.9.4-.9.4-.9.4-.9.4-.9.4-.9.4-.9.4-.9.4-.8.4-.9.4-.9.4-.9.4-.8.4-.8.4-.8.4-.8.4-.8.4-.8.4-.8.4-.8.4-.8.4-.8.4-.8.4-.8.4-.8.4-.8.4-.8.4-.8.4-.8.4-.8.4-.8.3-.8.3-.8.3-.8.3-.8.3-.8.3-.8.3-.8.3-.8.3-.8.3-.8.3-.8.3-.8.3-.8.3-.8.3-.7.3-.7.3-.7.3-.7.3-.7.3-.7.3-.7.3-.7.3-.7.3-.7.3-.7.3-.7.3-.7.3-.7.3-.7.3-.7.3-.7.3-.7.3-.6.3-.7.3-.6.3-.6.3-.6.2-.6.3-.6.2-.6.2-.6.2-.6.2-.6.2-.6.2-.6.2-.6.2-.6.2-.6.2-.6.2-.6.2-.6.2-.5.2-.5.2-.5.2-.5.2-.5.2-.5.2-.5.2-.5.2-.5.2-.5.2-.5.2-.5.2-.5.2-.5.2-.4.2-.4.2-.4.2-.4.2-.4.2-.4.2-.4.2-.4.2-.4.2-.4.2-.4.2-.4.2-.4.2-.4.2-.4.2-.4.2-.3.2-.3.2-.3.2-.3.2-.3.2-.3.2-.3.2-.3.2-.3.2-.3.2-.3.2-.3.2-.3.2-.3.2-.2.2-.2.2-.2.2-.2.2-.2.2-.2.2-.2.2-.2.2-.2.2-.2.2-.2.2-.2.2-.2.2-.1.2-.1.2-.1L149,3l.2-.1.2-.1.2-.1.2-.1.2-.1.2-.1.2-.1.2-.1.2-.1h.2l.2-.1h2.6l.2.1.2.1.2.1.2.1.2.1.2.1.2.1.2.1.2.1.2.1.3.1.2.1.3.1.3.1.3.2.3.2.3.2.3.2.3.2.3.2.3.2.3.2.3.2.3.2.3.2.3.2.3.2.3.2.3.3.3.3.3.3.3.3.3.3.3.3.3.3.3.3.3.3.3.3.3.3.3.3.3.3.3.3.3.3.4.3.3.3.4.4.4.4.3.4.4.4.4.4.4.4.4.4.4.4.4.4.4.4.4.4.4.4.4.4.4.4.4.4.4.4.4.4.4.4.4.4.4.5.4.4.4.5.4.5.4.5.4.5.5.5.5.5.5.5.5.5.5.5.5.5.5.5.5.5.5.5.5.5.5.5.5.5.5.5.5.5.5.5.5.5.5.5.5.6.5.6.5.5.5.6.5.6.5.6.5.6.6.6.6.6.5.6.6.6.6.6.6.6.6.6.6.6.6.6.6.6.6.6.6.6.6.6.6.6.6.6.6.6.6.6.6.6.6.6.6.6.6.6.6.6.6.6.7.6.6.6.7.6.7.6.7.6.7.6.7.6.7.6.7.6.7.6.7.6.7.6.7.6.7.6.7.6.7.6.7.6.7.6.7.6.7.6.7.7.7.6.7.6.7.6.7.6.7.7.7.6.8.6.7.6.8.7.8.6.8.6.8.6.8.6.8.7.8.6.8.6.8.6.8.6.8.6.8.6.8.6.8.6.8.6.8.6.8.6.8.6.8.6.8.6.8.6.8.6.8.6.8.6.8.6.8.6.8.6.8.6.8.6.8.6.8.6.8.6.8.6.8.6.8.6.8.6.8.6.8.6.8.6.8.6.8.6.8.6.8.6.8.6.8.6.8.6.9.6.8.6.9.6.8.6.9.6.8.6.8.6.9.6.8.6.9.6.8.6.8.6.9.6.8.5.9.6.8.5.8.5.9.5.8.5.9.5.8.5.8.5.9.5.8.5.9.5.8.5.9.5.8.5.8.5.8.5.9.5.8.5.8.5.8.5.8.5.8.5.8.5.8.5.8.5.8.5.8.5.8.5.8.5.8.5.8.5.8.5.8.5.8.5.8.5.8.4.8.4.8.4.8.4.8.4.8.4.8.4.8.4.8.4.8.4.8.4.8.4.8.4.8.4.8.4.8.4.8.4.8.4.8.4.8.4.8.4.8.4.8.4.7.4.7.4.7.4.7.4.7.4.7.3.7.4.7.4.7.3.7.4.7.3.7.3.7.3.7.3.7.3.7.3.7.3.7.3.7.3.7.3.7.3.7.3.6.3.6.3.6.3.6.3.6.3.6.3.6.3.6.3.6.3.6.3.6.3.6.3.6.3.6.3.6.3.6.3.6.3.5.3.5.3.5.3.5.3.5.3.5.3.5.2.5.3.5.2.5.2.5.2.5.2.5.2.5.2.5.2.5.2.5.2.5.2.4.2.4.2.4.2.4.2.4.2.4.2.4.2.4.2.4.2.4.2.4.2.4.2.4.2.4.2.3.2.3.2.3.2.3.2.3.2.3.2.3.2.3.2.3.2.3.2.3.2.3.2.3.2.3.2.3.2.2.2.2.2.2.2.2.2.2.2.2.2.2.2.2.2.2.2.2.2.2.2.2.2.2.2.1.2.1.2.1.2.1.2.1.2.1.2.1.2.1.2.1.2.1.2.1.2.1.2.1.2v3l-.1.2-.1.2-.1.2-.1.2-.1.2-.1.2-.1.2-.1.2-.1.2-.1.2-.1.2-.2.2-.1.2-.2.2-.2.2-.2.2-.2.2-.2.3-.2.3-.2.3-1.1,4.6-.2.3-.2.3-.2.3-.2.3-.2.3-.3.3-.3.3-.3.3-.3.3-.3.3-.3.3-.3.3-.3.3-.3.3-.3.3-.3.3-.3.3-.3.3-.3.3-.3.3-.3.3-.3.3-.4.3-.4.3-.4.3-.4.3-.4.3-.4.3-.4.3-.4.3-.4.3-.4.3-.4.4-.4.4-.4.4-.4.4-.4.4-.4.4-.4.4-.5.4-.5.4-.5.4-.5.4-.5.4-.5.4-.5.4-.5.4-.5.4-.5.4-.5.4-.5.4-.5.4-.5.4-.5.4-.5.4-.5.4-.5.4-.5.4-.5.4-.5.5-.6.5-.5.5-.6.5-.6.5-.6.5-.6.5-.6.5-.6.5-.6.5-.6.5-.6.5-.6.5-.6.5-.6.5-.6.5-.6.5-.6.5-.6.5-.6.5-.6.5-.6.5-.6.5-.6.5-.6.5-.6.6-.7.5-.6.6-.6.6-.6.6-.7.6-.6.6-.7.6-.7.6-.7.6-.7.6-.6.6-.7.6-.7.6-.7.6-.7.6-.7.6-.7.6-.7.6-.7.6-.7.6-.7.6-.7.6-.7.6-.7.6-.7.6-.7.6-.7.7-.7.7-.7.7-.7.7-.7.7-.7.7-.7.7-.7.7-.7.7-.7.7-.7.7-.7.7-.7.7-.7.7-.7.7-.7.7-.7.7-.7.7-.7.7-.7.7-.7.7-.7.7-.7.7-.7.7-.7.7-.7.7-.7.7-.7.7-.7.8-.7.8-.7.7-.7.8-.7.8-.7.8-.7.8-.7.8-.7.8-.7.8-.7.8-.7.8-.7.8-.7.8-.7.8-.7.8-.7.8-.7.8-.7.8-.7.8-.7.8-.7.8-.7.8-.7.8-.7.8-.6.8-.7.8-.6.8-.7.8-.6.8-.7.8-.6.8-.6.8-.6.8-.6.8-.6.8-.6.8-.6.8-.6.8-.6.8-.6.8-.6.8-.6.8-.6.8-.6.8.4.5-.6.8-.6.8-.6.8-.6.8-.6.8-.6.8-.6.8-.6.8-.6.8-.6.8-.6.8-.6.8-.6.8-.6.8-.6.8-.6.8-.6.8-.6.8-.5.8-.5.8-.6.8-.5.8-.5.8-.5.8-.5.8-.5.8-.5.8-.5.8-.5.8-.5.8-.5.8-.5.8-.5.8-.5.8-.5.8-.6,1-.5.8-.5.8-.5.8-.5.8-.5.8-.5.8-.5.8-.5.8-.5.8-.5.8-.5.8-.5.8-.5.8-.4.8-.5.8-.5.7-.1.3-.4.7-.4.7-.4.7-.4.7-.4.7-.4.7-.4.7-.4.7-.4.7-.4.7-.4.7-.4.7-.4.7-.4.7-.4.7-.4.7-.6.8-.4.7-.4.7-.4.7-.4.7-.4.7-.4.6-.4.6-.4.6-.3.6-.3.6-.4.6-.3.6-.3.6-.3.6-.3.6-.3.6-.3.6-.3.6-.3.6-.3.6-.3.6-.3.6-.3.6-.3.6-.3.6-.3.5-.3.5-.3.5-.3.5-.3.5-.3.5-.3.5-.3.5-.3.5-.3.5-.3.5-.3.5-.3.5-.3.5-.3.5-.3.5-.3.5-.3.5-.3.5-.3.4-.3.4-.3.4-.3.4-.3.4-.3.4-.2.4-.2.4-.2.4-.2.4-.2.4-.2.4-.2.4-.2.4-.2.3-.2.4-.2.3-.2.3-.2.3-.2.3-.2.3-.2.3-.2.3-.2.3-.2.3-.2.3-.2.3-.2.3-.2.3-.2.2-.2.2-.2.2-.2.2-.2.2-.2.2-.2.2-.2.2-.2.2-.2.2-.2.2-.2.2-.2.2-.2.2-.2.1-.2.1-.2.1-.2.1-.2.1-.2.1-.2.1-.2.1-.2.1-.2.1-.2.1-.2.1-.2.1h-2.8l-.2-.1-.2-.1-.2-.1-.2-.1-.2-.1-.2-.1-.2-.1-.2-.1-.2-.1-.2-.1-.2-.1-.2-.1-.2-.2-.2-.2-.2-.2-.2-.2-.2-.2-.2-.2-.2-.2-.2-.2-.2-.2-.2-.2-.2-.2-.2-.2-.2-.2-.3-.2-1-.3-.3-.3-.3-.3-.3-.3-.3-.3-.3-.3-.3-.3-.3-.3-.3-.3-.3-.3-.3-.3-.3-.3-.3-.3-.3-.3-.3-.3-.3-.3-.3-.3-.3-.4-.3-.4-.3-.4-.3-.4-.3-.4-.3-.4-.3-.4-.3-.4-.3-.4-.3-.4-.3-.4-.3-.4-.3-.4-.3-.4-.3-.5-.3-.4-.3-.5-.3-.5-.3-.5-.3-.5-.3-.5-.4-.5-.3-.5-.4-.5-.4-.5-.4-.5-.4-.5-.4-.5-.4-.5-.4-.5-.4-.5-.4-.5-.4-.5-.4-.5-.4-.5-.4-.6-.4-.6-.4-.6-.4-.6-.4-.6-.4-.6-.4-.6-.4-.6-.4-.6-.4-.6-.4-.6-.4-.6-.4-.6-.5-.6-.5-.6-.5-.6-.5-.6-.5-.6-.5-.6-.5-.6-.5-.6-.5-.6-.5-.6-.5-.6-.5-.6-.5-.7-.5-.7-.5-.7-.5-.7-.5-.7-.5-.7-.5-.7-.5-.7-.5-.7-.5-.7-.5-.7-.5-.7-.5-.7-.5-.7-.5-.7-.6-.7-.5-.7-.6-.7-.6-.7-.6-.7-.6-.7-.6-.7-.6-.7-.6-.7-.6-.7-.6-.7-.6-.7-.6-.7-.6-.7-.6-.7-.6-.7-.6-.7-.6-.7-.6-.7-.6-.7-.6-.7-.6-.7-.6-.7-.6-.7-.6-.7-.6-.7-.6-.7-.7-.7-.6-.7-.7-.7-.7-.7-.7-.7-.7-.7-.7-.7-.7-.7-.7-.7-.7-.7-.7-.7-.7-.7-.7-.7-.7-.7-.7-.7-.7-.7-.7-.7-.7-.7-.7-.7-.7-.7-.7-.7-.7-.7-.7-.7-.7-.7-.7-.7-.7-.7-.7-.7-.7-.7-.7-.7-.7-.7-.7-.7-.7-.7-.7-.7-.7-.7-.7-.7-.8-.7-.7-.7-.7-.7-.8-.7-.8-.7-.8-.7-.8-.7-.8-.7-.8-.7-.8-.7-.8-.7-.8-.7-.8-.7-.8-.7-.8-.7-.8-.7-.8-.7-.8-.7-.8-.7-.8-.7-.8-.7-.8-.7-.8-.7-.8-.7-.8-.7-.8-.7-.8-.7-.8-.7-.8-.7-.8-.6-.8-.7-.8-.6-.8-.6-.8-.6-.8-.6-.8-.6-.8-.6-.8-.6-.8-.6-.8-.6-.8-.6-.8-.6-.8-.6-.8-.6-.8-.6-.8-.6-.8-.6-.8-.6-.8-.6-.8-.6-.8-.6-.8-.6-.8-.6-.8-.6-.8-.6-.8-.6-.8-.6-.8-.6-.8-.6-.8-.6-.8-.6-.8-.5-.8-.6-.8-.5L60,231l-.8-.5-.8-.5-.7-.5L57,229l-.7-.5,1.3-2.1-.7-.5-.7-.5-.7-.5-.7-.5-.7-.5-.7-.5-.7-.5-.7-.5-.7-.5-.7-.5-.7-.5-.7-.5-.7-.5-.7-.5-.7-.5-.7-.5-.7-.5-.7-.5-.7-.5-.7-.5-.7-.4-.7-.4-.7-.4-.7-.4-.7-.4-.7-.4-.7-.4-.6-.4-.6-.4-.7-.4-.6-.4-.6-.4-.6-.4-.6-.4-.6-.4-.6-.4-.6-.4-.6-.4-.6-.4-.8-.4L30,208l-.6-.4-.6-.4-.6-.4-.6-.4L27,206l-.6-.4-.6-.4-.6-.3-.5-.4-.5-.3-.5-.3-.5-.3-.5-.3-.5-.3-.5-.3-.5-.3-.5-.3-.5-.3-.6-.4-.5-.3-.5-.3-.5-.3-.5-.3-.5-.3-.5-.3-.5-.3-.5-.3-.4-.3-.4-.3-.4-.3-.4-.3-.4-.3-.4-.3-.4-.3-.4-.3-.4-.3-.4-.3-.4-.3-.4-.3h-.2l-.4-.3-.4-.3-.4-.3-.3-.3-.3-.3-.3-.3-.3-.2-.3-.3-.3-.2-.3-.2-.3-.2-.3-.2-.3-.2-.3-.2-.3-.2-.3-.2-.3-.2-.3-.2-.2-.2-.2-.2-.2-.2-.2-.2-.2-.2-.2-.2-.2-.2-.2-.2-.2-.2-.2-.2-.2-.2-.1-.2-.2-.2-.2-.2-.1-.2-.1-.2-.1-.2-.1-.2-.1-.2-.1-.2-.1-.2-.1-.2-.1-.2-.1-.2-.1-.2v-.2l-.1-.2v-2.6l.1-.2.1-.2.1-.2.1-.2.1-.2.1-.2.1-.2.1-.2.1-.2.1-.2.1-.2.1-.2.1-.2.2-.2.2-.2.2-.2.2-.2.2-.2.2-.2.2-.2.2-.2.2-.2.2-.2.2-.2.2-.2.2-.2.3-.2.3-.2.3-.2.3-.2.3-.2.3-.2.3-.2.3-.2.3-.2.3-.3.3-.2.3-.3.3-.3.3-.3.3-.3.3-.3.4-.3.4-.3.4-.3.4-.3.4-.3.4-.3.4-.3.4-.3.4-.3.4-.3.4-.3.4-.3.4-.3.4-.3.4-.3.5-.3.5-.3.5-.3.5-.3.5-.3.5-.3.5-.3.5-.3.5-.3.5-.3.5-.3.5-.3.5-.3.5-.3.5-.3.5-.3.5-.4.5-.3.6-.3.6-.4.6-.4.6-.4.6-.4.6-.4.6-.4.6-.4.6-.4.6-.4.6-.4.6-.4.6-.4.6-.4.6-.4.6-.4.6-.4.6-.4.6-.4.6-.4.6-.4.7-.4.7-.4.7-.4.7-.4.7-.4.7-.4.7-.4.7-.5.7-.5.7-.4.7-.5.7-.5.7-.5.7-.5.7-.5.7-.5.7-.5.7-.5.7-.5.7-.5.7-.5.7-.5.7-.5.7-.5.7-.5.7-.5.7-.5.7-.5.7-.5.7-.5.7-.5.7-.5.8-.5.7-.5.8-.5.8-.5.8-.5.8-.6.8-.6.8-.6.8-.6.8-.6.8-.6.8-.6.8-.6.8-.6.8-.6.8-.6.8-.6.8-.6.8-.6.8-.6.8-.6.8-.6.8-.6.8-.6.8-.6.8-.6.8-.6.8-.6.8-.6.8-.6.8-.6.8-.6.8-.6.8-.6.8-.6.8-.6.8-.7.8-.6.8-.7.8-.7.8-.7.8-.7.8-.7.8-.7.8-.7.8-.7.8-.7.8-.7.8-.7.8-.7.8-.7.8-.7.8-.7.8-.7.8-.7.8-.7.8-.7.8-.7.8-.7.8-.7.8-.7.8-.7.8-.7.8-.7.7-.7.8-.7.7-.7.7-.7.7-.7.7-.7.7-.7.7-.7.7-.7.7-.7.7-.7.7-.7.7-.7.7-.7.7-.7.7-.7.7-.7.7-.7.7-.7.7-.7.7-.7.7-.7.7-.7.7-.7.7-.7.7-.7.7-.7.7-.7.7-.7.7-.7.7-.7.7-.7.7-.7.7-.7.7-.7.7-.7.7-.7.6-.7.7-.7.6-.7.6-.7.6-.7.6-.7.6-.7.6-.7.6-.7.6-.7.6-.7.6-.7.6-.7.6-.7.6-.7.6-.7.6-.7.6-.7.6-.7.6-.7.6-.7.6-.7.6-.7.6-.7.6-.7.6-.7.6-.7.6-.7.6-.7.5-.7.5-.7.5-.7.5-.7.5-.7.5-.7.5-.7.5-.7.5-.7.5-.7.5-.7.5-.7.5-.7.5-.7.5-.7.5-.6.5-.6.5-.6.5-.6.5-.6.5-.6.5-.6.5-.6.5-.6.5-.6.5-.6.4-.6.5-.6.4-.6.4-.6.4-.6.4-.6.4-.6.4-.6.4-.6.4-.6.4-.6.4-.6.4-.6.4-.5.4-.6.4-.5.4-.5.4-.5.4-.5.4-.5.4-.5.4-.5.4-.5.4-.5.4-.5.4-.5.4-.5.4-.5.3-.5.4-.5.3-.5.3-.5.3-.4.3-.4.3-.4.3-.4.3-.4.3-.4.3-.4.3-.4.3-.4.3-.4.3-.4.3-.4.3-.4.3-.4.3-.4.3-.4.3-.4.3-.4.3-.3.3-.3.3-.3.3-.3.3-.3.3-.3.3-.3.3-.3.3-.3.3-.3.3-.3.3-.3.3-.3.3-.3.3-.3.3-.2.2-.2.3-.2.2-.2.2-.2.2-.2.2-.2.2-.2.2-.2.2-.2.2-.2.2-.2.2-.2.2-.1.2-.1.2-.1.2-.1.2-.1.2-.1.2-.1.2-.1.2-.1.2-.1.2-.1.2-.1.2-.1.2-.1.2-.1h2.6l.2.1.2.1.2.1.2.1.2.1.2.1.2.1.2.1.2.1.2.1.2.1.2.1.2.1.2.1.2.2.2.2.2.2.2.2.2.2.2.2.2.2.2.2.2.2.2.2.2.2.2.2.2.2.2.3.2.3.2.3.2.3.2.3.2.3.2.3.2.3.2.3.2.3.2.3.2.3.2.3.2.4.2.4.2.4.2.4.2.4.2.4.2.4.2.4.2.4.3.4.2.4.3.4.3.4.3.4.3.4.3.4.3.4.3.5.3.5.3.5.3.5.3.5.3.5.3.5.3.5.3.5.3.5.3.5.3.5.3.5.3.5.3.5.3.6.3.6.3.6.3.6.3.6.3.6.3.6.3.6.3.6.3.6.3.6.3.6.3.6.3.6.3.6.3.6.4.6.3.6.3.6.4.6.4.6.4.6.4.7.4.7.4.7.4.7.4.7.4.7.4.7.4.7.4.7.4.7.4.7.4.7.4.7.4.7.4.7.4.7.4.7.4.7.4.7.4.7.4.7.4.7.4.7.5.7.4.8.5.7.5.8.5.8.5.8.5.8.5.8.5.8.5.8.5.8.5.8.5.8.5.8.5.8.5.8.5.8.5.8.5.8.5.8.5.8.5.8.5.8.5.8.5.8.5.8.5.8.5.8.5.8.5.8.5.8.5.8.6.8.6.8.5.8.6.8.6.8.6.8.6.8.6.8.6.8.6.8.6.8.6.8.6.8.6.8.6.8.6.8.6.8.6.8.6.8.6.8.6.8.6.8.6.8.6.8.6.8.6.8.6.8.6.8.6.8.6.8.6.8.6.8.6.8.6.8.6.8.6.8.7.8.6.8.7.8.7.8.7.8.7.8.7.8.7.8.7.8.7.8.7.8.7.8.7.8.7.8.7.8.7.8.7.8.7.8.7.8.7.8.7.8.7.8.7.8.7.8.7.8.7.8.7.8.7.8.7.8.7.8.7.7.7.7.7.7.7.7.7.7.7.7.7.7.7.7.7.7.7.7.7.7.7.7.7.7.7.7.7.7.7.7.7.7.7.7.7.7.7.7.7.7.7.7.7.7.7.7.7.7.7.7.7.7.7.7.7.6.7.6.7.7.7.6.7.6.7.6.7.6.7.6.7.6.7.6.7.6.7.6.7.6.7.6.7.6.7.6.7.6.6.6.7.6.6.6.6.6.7.6.6.6.7.6.6.6.6.6.6.5.6.6.6.5.6.5.6.5.6.5.6.5.6.5.6.5.6.5.6.5.6.5.6.5.6.5.6.5.6.5.6.5.6.5.6.5.6.5.6.5.6.5.6.5.6.5.5.4.6.5.5.4.5.4.5.5.5.4.5.4.5.4.5.4.5.4.5.4.5.4.5.4.5.4.5.4.5.4.5.4.5.4.5.4.5.4.5.4.5.4.4.4.4.4.4.4.4.4.4.4.4.4.4.4.4.3.4.3.4.3.4.3.4.3.4.3.4.3.4.3.4.3.4.3.3.3.4.3.3.3.3.3.3.3.3.3.3.3.3.3.3.3.3.3.3.3.3.3.3.3.3.3.3.3.3.3.3.3.2.3.2.3.2.3.2.3.2.3.2.3.2.3.2.3.2.2.2.3.2.2.2.2.2.2.2.2.1.2.1.2.1.2.1.2.1.2.1.2.1.2.1.2.1.2.1.2.1.2.1.2.1.2v2.8l-.1.2-.1.2-.1.2-.1.2-.1.2-.1.2-.1.2-.1.2-.1.2-.1.2-.1.2-.1.2-.1.2-.2.2-.2.2-.2.2-.2.2-.2.2-.2.2-.2.2-.2.2-.2.2-.2.2-.2.2-.2.2-.2.2-.3.2-.3.2-.3.2-.3.2-.3.2-.3.2-.3.2-.3.2-.3.2-.3.2-.3.2-.3.2-.3.2-.3.2-.3.2-.4.2-.4.2-.4.2-.4.2-.4.2-.4.2-.4.2-.4.2-.4.2-.4.2-.4.2-.4.2-.4.2-.4.2-.5.2-.4.2-.5.2-.5.2-.5.2-.5.2-.5.2-.5.2-.5.2-.5.2-.5.2-.5.3-.5.3-.5.3-.5.3-.5.3-.5.3-.5.3-.6.3-.6.3-.6.3-.6.3-.6.3-.6.3-.6.3-.6.3-.6.3-.6.3-.6.3-.6.3-.6.3-.6.3-.6.3-.6.3-.6.3-.6.3-.7.3-.7.3-.7.3-.7.3-.7.3-.7.3-.7.3-.7.3-.7.3-.7.3-.7.3-.7.3-.7.3-.7.4-.7.4-.7.4-.7.4-.7.4-.7.4-.7.4-.7.4-.8.4-.8.4-.8.4-.8.4-.8.4-.8.4-.8.4-.8.4-.8.4-.8.4-.8.4-.8.4-.8.4-.8.4-.8.4-.8.4-.8.4-.8.4-.8.4-.8.4-.8.4-.8.4-.8.4-.8.5-.8.4-.8.5-.8.5-.8.5-.8.5-.8.5-.8.5-.8.5-.8.5-.8.5-.8.5-.8.5-.8.5-.8.5-.8.5-.8.5-.8.5-.8.5-.9.5-.8.5-.9.5-.8.5-.9.5-.8.5-3.4-1.6-.8.5-.8.5-.9.5-.8.5-.9.5-.8.5-.8.5-.9.6-.8.5-.9.6-.8.6-.8.6-.9.6-.8.6-.9.6-.8.6-.8.6-.9.6-.8.6-.9.6-.8.6-.8.6-.8.6-.8.6-.8.6-.8.6-.8.6-.8.6-.8.6-.8.6-.8.6-.8.6-.8.6-.8.6-.8.6-.8.6-.8.6-.8.6-.8.6-.8.6-.8.6-.8.6-.8.6-.8.6-.8.6-.8.6-.8.6-.8.6-.8.6-.8.6-.8.6-.8.6-.8.6-.8.6-.8.6-.8.6-.8.6-.8.6-.8.6-.8.6-.8.6-.8.6-.8.7-.8.6-.8.6-.8.6-.8.6-.8.7-.8.6-.7.6-.8.6-.7.6-.7.6-.7.6-.7.6-.7.6-.7.6-.7.6-.7.6-.7.6-.7.6-.7.6-.7.6-.7.6-.7.6-.7.6-.7.6-.7.6-.7.6-.7.6-.7.6-.7.6-.7.6-.7.6-.7.6-.7.6-.6.6-.6.6-.7.6-.6.6-.6.6-.6.6-.6.6-.6.6-.6.6-.6.6-.6.6-.6.6-.6.6-.6.6-.6.6-.6.6-.6.6-.6.6-.6.6-.6.6-.6.6-.6.6-.6.6-.6.6-.5.6-.6.6-.5.6-.5.6-.5.6-.5.6-.5.5-.5.5-.5.5-.5.5-.5.5-.5.5-.5.5-.5.5-.5.5-.5.5-.5.5-.5.5-.5.5-.5.5-.5.5-.5.5-.5.5-.5.5-.5.5-.9,2.5-.4.5-.4.5-.4.5-.4.5-.4.5-.4.5-.4.4-.4.4-.4.4-.4.4-.4.4-.4.4-.4.4-.4.4-.4.4-.4.4-.4.4-.4.4-.4.4-.4.4-.4.4-.4.4-.4.4-.4.4-.3.4-.3.3-.3.3-.3.3-.3.3-.3.3-.3.3-.3.3-.3.3-.3.3-.3.3-.3.3-.3.3-.3.3-.3.3-.3.3-.6-.1-.3.2-.3.2-.3.2-.3.2-.3.2-.3.2-.3.2-.3.2-.3.2-.3.2-.3.2-.3.2-.3.2-.3.2.2.2-.3.1-.2.1-.3.1-.2.1-.2.1-.2.1-.2.1-.4.3-.2.1-.2.1-.2.1-.2.1-.2.1-.2.1h-2.8l-.2-.1-.2-.1-.2-.1-.2-.1-.2-.1-.2-.1-.2-.1-.2-.1-.2-.1-.2-.1-.2-.1-.2-.1-.2-.1-.2-.2-.2-.2-.2-.2-.2-.2-.2-.2-.2-.2-.2-.2-.2-.2-.2-.2-.2-.2-.2-.2-.2-.2-.2-.2-.2-.3-.2-.3-.2-.3-.2-.3-.2-.3-.2-.3-.2-.3-.2-.3-.2-.3-.2-.3-.2-.3-.2-.3-.2-.3-.2-.3-.2-.3-.2-.4-.2-.4-.2-.4-.2-.4-.2-.4-.2-.4-.2-.4-.2-.4-.2-.4-.2-.4-.2-.4-.2-.4-.2-.4-.2-.4-.2-.5-.2-.5-.2-.5-.2-.5-.2-.5-.2-.5-.2-.5-.2-.5-.2-.5-.2-.5-.2-.5-.2-.5-.2-.5-.2-.5-.2-.5-.2-.5-.2-.5-.2-.6-.2-.6-.2-.6-.2-.6-.2-.6-.2-.6-.2-.6-.2-.6-.2-.6-.2-.6-.2-.6-.3-.6-.3-.6-.3-.6-.3-.6-.3-.6-.3-.6-.3-.7-.3-.7-.3-.7-.3-.7-.3-.7-.3-.7-.3-.7-.3-.7-.3-.7-.3-.7-.3-.7-.3-.7-.3-.7-.3-.7-.3-.7-.3-.7-.3-.7-.3-.7-.3-.8-.3-.7-.3-.8-.3-.8-.3-.8-.3-.8-.3-.8-.3-.8-.3-.8-.3-.8-.3-.8-.3-.8-.4-.8-.3-.8-.4-.8-.4-.8-.3-.8.2-.8-.4-.8-.4-.8-.4-.8-.4-.8-.4-.8-.4-.8-.4-.8-.4-.8-.4-.8-.4-.8-.4-.8-.4-.8-.4-.9-.4-.8-.4-.9-.4-.8-.4-.9-.2-1.1-.4-.9-.4-.9-.4-.9-.4-.9-.4-.9-.4-.9-.6-.6-.4-.9-.5-.9-.4-.9-.4-.9-.5-.9-.5-.9-.5-.9-.5-.9-.5-.9-.5-.9-.5-.9-.5-.9-.5-.9-.5-.9-.5-.9-.5-.9-.5-.9-.5-.9-.5-.9-.5-.9-.5-.9-.5-.9-.5-.9-.5-.9-.5-.9-.5-.9-.5-.9-.5-.9-.5-.9-.5-.9-.5-.9-.5-.9-.3-.2-.5-.9-.5-.9-.5-.9-.5-.9-.5-.9-.5-.9-.5-.9-.5-.9-.5-.9-.5-.9-.6-.9-.6-.9-.5-.9-.6-.9-.6-.9-.6-.9-.6-.9-.6-.9-.6-.9-.6-.9-.6-.9-.6-.9-.6-.9-.6-.9-.6-.9-.6-.8-.6-.9-.6-.8-.6-.8-.6-.8-.6-.8-.6-.8-.6-.8-.6-.8-.6-.8-.6-.8-.6-.8-.6-.8-.6-.8-.6-.8-.6-.8-.6-.8-.6-.8-.6-.8-.6-.8-.6-.8-.6-.8-.6-.8-.6-.8-.6-.8-.6-.8-.6-.8-.6-.8-.6-.8-.6-.8-.6-.8-.6-.8-.6-.8-.6-.8-.6-.8-.6-.8-.6-.7-.6-.7-.6-.7-.6-.7-.6-.7-.6-.7-.6-.7-.6-.7-.6-.7-.6-.7-.6-.7-.6-.7-.6-.7-.6-.7-.6-.7-.6-.7-.6-.7-.6-.7-.6-.7-.6-.7-.6-.7.1.1-.6-.7-.6-.7-.6-.6-.6-.6-.6-.6-.6-.6-.6-.6-.6-.6-.5-.6-.5-.6-.5-.6-.5-.6-.6-.6-.5-.6-.5-.6-.5-.6-.5-.6-.5-.6-.5-.6-.5-.6-.5-.6-.5-.6-.5-.6-.5-.5-.5-.5-.5-.6-.5-.5-.5-.5-.5-.5-.5-.5-.5-.5-.5-.5-.5-.5-.5-.5-.5-.5-.5-.5-.5-.5-.5-.5-.5-.5-.4-.5-.5-.5-.4-.5-.5-.5-.4-.5-.4-.5-.4-.5-.4-.4-.4-.5-.4-.4-.4-.4-.4-.4-.4-.4-.4-.4-.4-.4-.4-.4-.4-.4-.4-.4-.4-.4-.4-.4-.4-.4-.4-.4-.3-.4-.3-.4-.3-.4-.3-.4-.3-.4-.3-.4-.3-.4-.3-.4-.3-.4-.3-.4-.6-.3-.3-.4-.3-.3-.3-.3-.3-.3-.3-.3-.3-.3-.3-.3-.3-.3-.3-.3-.2-.3-.2-.3-.2-.3-.2-.3-.2-.3-.2-.3-.2-.3-.2-.3-.2-.3-.2-.3-.2-.3-.2-.3-.2-.3-.2-.3-.2-.3-.1-.3-.1-.3-.1-.3-.1-.3-.1-.3-.1-.3-.1-.2-.1-.3-.1-.2-.1-.2-.1-.2-.1-.2-.1-.2-.1-.2v-2.8l.1-.2.1-.2.1-.2.1-.2.1-.2.1-.2.1-.2.1-.2.1-.2.1-.2.1-.2.1-.2.1-.2L8,136l.1-.2.2-.2.2-.2.2-.2.2-.2.2-.2.2-.2.2-.2.2-.2.2-.2.2-.2.2-.2.2-.2.3-.2.3-.2.3-.2.3-.2.3-.2.3-.2.3-.2.3-.2.3-.2.3-.2.3-.2.3-.2.3-.2.3-.2.4-.2.4-.2.4-.2.4-.2.4-.2.4-.2.4-.2.4-.2.4-.2.4-.2.4-.2.4-.2.4-.2.4-.2.5-.2.5-.2.5-.2.5-.2.5-.2.5-.2.5-.2.5-.2.5-.2.5-.2.5-.2.5-.2.5-.2.5-.2.5-.2.5-.2.6-.2.6-.2.6-.2.6-.2.6-.2.6-.2.6-.2.6-.2.6-.2.6-.2.6-.2.6-.2.6-.2.6-.2.6-.2.6-.2.6-.2.7-.2.7-.2.7-.2.7-.2.7-.2.7-.2.7-.2.7-.2.7-.2.7-.2.7-.2.7-.2.7-.2.7-.2.7-.2.7-.3.7-.2.7-.3.8-.3.8-.3.8-.3.8-.3.8-.3.8-.3.8-.3.8-.3.8-.3.8-.3.8-.3.8-.3.8-.3.8-.3.8-.3.8-.3.8-.3.8-.3.8-.3.8-.3.8-.3.8-.3.8-.3.8-.3.8-.3.8-.3.9-.3.8-.3.8-.3.9-.3.9-.3.9-.3.9-.3.9-.4.9-.4.9-.3.9-.4.9-.4.9-.4.9-.4.9-.4.9-.4.9-.4.9-.4.9-.4.9-.4.9-.4.9-.4.9-.4.9-.4.9-.4.9-.4.9-.4.9-.4.9-.4.9-.4.9-.4.9-.4.9-.4.9-.4.9-.4.9-.4.9-.4.9-.4.9-.4.9-.4.9-.4.9-.4.9-.5.9-.4.9-.5.9-.5.9-.4.9-.5.9-.5.9-.5.9-.5.9-.5.9-.5.9-.5.9-.5.9-.5.9-.5.9-.5.9-.5.9-.5.9-.5.9-.5.9-.5.9-.5.9-.5.9-.5.9-.5.9-.5.9-.5.9-.5.9-.5.9-.5.9-.5.9-.5.9-.5.9-.5.9-.5.9-.5.9-.5.9-.5.9-.5.9-.5.9-.5.9-.5.9-.5.9-.5.9-.5.9-.5.9-.5.9-.5.9-.5.9-.5.8-.5.9-.5.8-.5.8-.5.8-.5.8-.6.8-.5.8-.6.8-.5.8-.6.8-.5.8-.6.8-.6.8-.6.8-.5.8-.6.8-.6.8-.6.8-.5.8-.5.8-.6.8-.6.8-.5.8-.6.8-.5.8-.5.8-.6.8-.5.8-.5.8-.5.8-.5.7-.6.7-.5.7-.5.7-.5.7-.5.7-.5.7-.5.7-.5.7-.5.7-.5.7-.5.7-.5.7-.5.7-.5.7-.5.7-.5.7-.5.7-.5.7-.5.7-.5.7-.5.7-.5.6-.5.7-.5.6-.5.6-.5.6-.5.6-.5.6-.5.6-.5.6-.5.6-.5.6-.5.6-.5.6-.5.6-.5.6-.5.6-.5.6-.5.6-.5.6-.5.6-.5.6-.5.6-.5.5-.4.5-.4.5-.5.5-.4.5-.4.5-.4.5-.4.5-.4.5-.4.5-.4.5-.4.5-.4.5-.4.5-.4.5-.4.5-.4.5-.4.5-.4.5-.4.5-.4.5-.4.5-.4.5-.4.4-.4.4-.4.4-.4.4-.3.4-.4.4-.3.4-.3.4-.3.4-.3.4-.3.4-.3.4-.3.4-.3.4-.3.4-.3.4-.3.4-.3.4-.3.4-.3.4-.3.4-.3.3-.3.4-.2.3-.3.3-.2.3-.2.3-.2.3-.2.3-.2.3-.2.3-.2.3-.2.3-.2.3-.2.3-.2.3-.2.3-.2.3-.2.3-.2.3-.1.3-.1.3-.1.3-.1.3-.1.3-.1.3-.1.3-.1.3-.1.3-.1.3-.1.2-.1.3-.1.2-.1.2-.1h2.6l.2.1h.2l.2.1.2.1.2.1.2.1.2.1.2.1.2.1.2.1.2.1.2.1.2.1.2.1.2.2.2.1.2.2.2.2.2.2.2.2.2.2.2.2.2.2.1.2.2.2.2.2.2.2.1.2.1.3.2.3.1.3.1.3.2.3.1.3.1.3.1.3.2.3.1.3.1.3.1.3.1.3.1.3.1.4.1.4.1.4.1.4.1.4.1.4.1.4.1.4.1.4.1.4.1.4.1.4.1.4.1.4.1.5.1.4.1.5.1.5.1.5.1.5.1.5.1.5.1.5.1.5.1.5.1.5.1.5.1.5.1.5.1.6.1.6.2.6.1.6.2.6.1.6.2.6.2.6.1.6.2.6.2.6.2.6.2.6.2.6.2.6.2.6.2.6.2.6.2.7.2.7.2.7.2.7.2.7.2.7.2.7.2.7.2.7.2.7.2.7.2.7.2.7.2.7.2.7.2.7.2.7.2.7.2.8.2.8.2.8.2.8.2.8.2.8.2.8.2.8.2.8.2.8.2.8.2.8.2.8.2.8.2.8.2.8.2.8.3.8.2.8.3.8.3.8.3.8.3.8.3.8.3.9.3.9.3.9.3.9.3.9.3.9.3.9.3.9.3.9.3.9.3.9.3.9.3.9.3.9.3.9.3.9.3.9.3.9.3.9.3.9.3.9.3.9.3.9.3.9.3.9.3.9.3.9.3.9.3.9.3.9.3.9.4.9.3.9.4.9.4.9.3.9.4.9.4.9.4.9.4.9.4.9.4.9.4.9.4.9.4.9.4.9.4.9.4.9.4.9.4.9.4.9.4.9.4.9.4.9.4.9.4.9.4.9.4.9.4.9.4.9.4.9.4.9.4.9.4.9.4.9.4.9.4.9.4.9.4.9.4.9.5.9.4.9.5.9.4.9.5.9.5.9.5.9.5.9.5.9.5.9.5.9.5.9.5.9.5.9.5.9.5.9.5.9.5.9.5.9.5.9.5.9.5.9.5.9.5.9.5.9.5.9.5.9.5.9.5.9.5.9.5.9.5.9.5.9.5.9.5.9.5.9.5.8.5.9.5.8.5.9.5.8.5.8.5.8.5.8.5.8.5.8.5.8.5.8.5.8.5.8.5.8.5.8.5.8.5.8.5.8.5.8.5.8.5.8.5.8.5.8.5.8.5.8.5.8.5.8.5.8.5.7.5.7.5.7.5.7.5.7.5.7.5.7.5.7.5.7.5.7.5.7.5.7.5.7.5.7.5.7.5.7.5.7.5.7.5.7.5.7.5.7.5.6.5.6.5.6.5.6.4.6.4.6.5.6.4.6.4.6.4.6.4.6.4.6.4.6.4.6.4.6.4.6.4.6.4.6.4.6.4.5.4.6.4.5.4.5.4.5.4.5.4.5.4.5.4.5.4.5.4.5.4.5.4.5.4.5.4.5.3.5.3.5.3.5.3.5.3.5.3.5.3.4.3.5.3.4.3.4.3.4.3.4.3.4.3.4.3.4.3.4.3.4.3.4.3.4.3.4.3.4.3.4.3.4.2.4.2.4.2.4.2.4.2.4.2.4.2.4.2.3.2.3.2.3.2.3.2.3.2.3.2.3.2.3.2.3.1.3.1.3.1.3.1.3.1.3.1.3.1.3.1.3.1.3.1.3.1.3.1.3.1.3.1.3.1.3.1.3v3.3l-.1.2-.1.2-.1.2-.1.2-.1.2-.1.2-.1.2-.1.2-.1.2-.1.2-.1.2-.1.2-.1.2-.1.2-.2.2-.2.2-.2.2-.2.1-.2.1-.2.1-.2.1-.2.1-.2.1-.2.1-.2.1-.2.1-.2.1-.2.1-.3.1-.3.1-.3.1-.3.1-.3.1-.3.1-.3.1-.3.1-.3.1-.3.1-.3.1-.3.1-.3.1-.3.1-.3.1-.4.1-.4.1-.4.1-.4.1-.4.1-.4.1-.4.1-.4.1-.4.1-.4.1-.4.1-.4.1-.4.1-.5.1-.5.1-.5.1-.5.1-.5.1-1.7,3.2-.5.1-.5.1-.5.1-.5.1-.5.1-.5.1-.5.1-.5.1-.5.1-.6.1-.6.1-.6.1-.6.1-.6.1-.6.1-.6.1-.6.1-.6.1-.6.1-.6.1-.6.1-.6.1-.6.1-.6.1-.7.1-.6.1-.7.1-.7.1-.7.1-.7.1-.7.1-.7.1-.7.1-.7.1-.7.1-.7.1-.7.1-.7.1-.7.1-.7.1-.7.2-.7.1-.8.1-.8.1-.8.2-.8.2-.8.1-.8.2-.8.2-.8.2-.8.2-.8.2-.8.2-.8.2-.8.2-.8.2-.8.2-.8.2-.8.2-.8.2-.8.2-.8.2-.8.2-.8.2-.8.2-.9.2-.8.2-.9.2-.9.2-.9.2-.9.2-.9.2-.9.2-.9.2-.9.2-.9.2-.9.2-.9.2-.9.2-.9.2-.9.2-.9.2-.9.2-.9.3-.9.2-.9.3-.9.3-.9.3-.9.3-.9.3-.9.3-.9.3-.9.3-.9.3-.9.3-.9.3-.9.3-.9.3-.9.3-.9.3-1,.3-1,.3-1,.3-1,.3-.9.3-1,.3-1,.3-1,.3-1,.3-1,.3-1,.3-1,.3-1,.3-1,.3-1,.3-1,.3-1,.3-1,.3-1,.3-1,.3-1,.3-1,.4-1,.3-1,.4-1,.4-1,.4-1,.4-1,.4-1,.4-1,.4-1,.4-1,.4-1,.4-1,.4-1,.4-1,.4-1,.4-1,.4-1,.4-1,.4-1,.4-1,.4-1,.4-1,.4-1,.4-1,.4-.9.4-1,.4-.9.4-.9.4-1,.4-.9.4-.9.4-.9.4-.9.4-.9.4-.9.4-.9.4-.9.4-.9.4-.9.4-.9.4-.9.4-.9.4-.9.4-.9.4-.9.4-.9.4-.9.4-.9.4-.9.4-.9.4-.9.4-.9.4-.9.4-.9.4-.9.4-.9.4-.9.4-.9.4-.9.4-.9.4-.9.5-.9.4-.8.4-.8.4-.9.5-.8.4-.8.4-.8.5-.8.4-.8.4-.8.4-.8.5-.8.4-.8.4-.8.5-.8.4-.8.4-.8.4-.8.5-.8.4-.8.5-.8.4-.8.4-.8.4-.8.4-.8.4-.8.4-.8.4-.8.4-.7.4-.7.4-.7.4-.7.4-.7.4-.7.4-.7.4-.7.4-.7.4-.7.4-.7.4-.7.4-.7.4-.7.4-.7.4-.7.4-.7.4-.7.4-.7.4-.7.4-.6.4-.6.4-.6.4-.6.4-.6.4-.6.4-.6.4-.6.4-.6.4-.6.4-.6.4-.6.4-.6.4-.6.4-.6.4-.6.4-.6.4-.6.4-.6.4-.6.4-.5.3-.5.4-.5.3-.5.3-.5.3-.5.3-.5.3-.5.3-.5.3-.5.3-.5.3-.5.3-.5.3-.5.3-.5.3-.5.3-.5.3-.5.3-.5.3-.5.3-.4.3-.4.3-.4.3-.4.3-.4.3-.4.3-.4.2-.4.2-.4.2-.4.2-.4.2-.4.2-.4.2-.4.2-.4.2-.4.2-.4.2-.4.2,1,1.6-.4.2-.3.2-.3.2-.3.2-.3.2h-.4l-.3.1-.3.1-.3.1-.3.1-.3.1-.3.1-.3.1-.3.1-.3.1-.3.1-.3.1-.3.1-.3.1-.3.1-.3.1h-3.7l-.2-.1-.2-.1-.2-.1-.2-.1-.2-.1-.2-.1-.2-.1-.2-.1-.2-.1-.2-.1-.2-.1-.2-.1-.2-.1-.2-.1-.2-.1-.2-.1-.2-.2-.2-.2-.1-.2-.2-.2-.1-.2-.1-.2-.1-.2-.1-.2-.1-.2-.1-.2-.1-.2-.1-.2-.1-.2-.1-.2-.1-.3-.1-.3-.1-.3-.1-.3-.1-.3-.1-.3-.1-.3-.1-.3-.1-.3-.1-.3-.1-.3-.1-.3-.1-.3-.1-.4-.1-.3-.1-.4-.1-.4-.1-.4-.1-.4-.1-.4-.1-.4-.1-.4-.1-.4-.1-.4-.1-.4-.1-.4-.1-.4-.1-.4-.1-.5-.1-.5-.1-.5-.1-.5-.1-.5-.1-.5-.1-.5-.1-.5-.1-.5-.1-.5-.1-.5-.1-.5-.1-.5-.1-.5-.1-.5-.1-.5-.1-.6-.1-.6-.1-.6-.1-.6-.1-.6-.1-.6-.1-.6-.1-.6-.1-.6-.1-.6-.1-.6-.1-.6-.1-.6-.1-.6-.1-.6-.1-.7-.1-.6-.1-.7-.1-.7-.1-.7-.1-.7-.1-.7-.1-.7-.1-.7-.1-.7,1-.4-.1-.7-.1-.7-.1-.7-.1-.7-.1-.7-.1-.7-.1-.8-.1-.8-.1-.8-.1-.8-.1-.8-.1-.8-.1-.8-.1-.8-.1-.8-.1-.8-.1-.8-.1-.8-.1-.8-.1-.8-.1-.8-.1-.8-.1-.8-.1-.8-.1-.8-.1-.8-.1-.8-.1-.9-.1-.9-.1-.9-.1-.9-.1-.9-.2-.9-.1-.9-.2-.9-.2-.9-.2-.9-.2-.9-.2-.9-.2-.9-.2-.9-.2-.9-.2-.9-.2-.9-.2-.9-.2-.9-.2-.9-.2-.9-.2-.9-.2-.9-.2-.9-.2-.9-.2-.9-.2-.9-.2-.9-.2-.9-.2-1-.2-.9-.2-.9-.2-1-.2-1-.2-1-.2-1-.2-1-.2-1-.2-1-.2-1-.2-1-.2-1-.2-1-.2-1-.2-1-.3-1-.2-1-.3-1-.3-1-.3-1-.3-1-.3-1-.3-1-.3-1-.3-1-.3-1-.3-1-.3-1-.3-1-.3-1-.3-1-.3-1-.3-1-.3-1-.3-1-.3-1-.3-1-.3-1-.3-1-.3-1-.3-1-.3-1-.3-1-.3-1-.3-1-.3-1-.3-1-.3-1-.3-1-.3-1-.3-1-.3-1-.3-1-.3-1-.3-1-.3-1-.3-1-.4-1-.3-1-.4-1-.3-1-.4-1-.3-1-.4-1-.4-.9-.4-1-.4-.9-.4-1-.4-1-.4-.9-.4-.9-.4-.9-.4-.9-.4-.9-.4-.9-.4-.9-.4-.9-.4-.9-.4-.9-.4-.9-.4-.9-.4-.9-.4-.9-.4-.9-.4-.9-.4-.9-.4-.9-.4-.9-.4-.9-.4-.9-.4-.9-.4-.9-.4-.9-.4-.9-.4-.9-.4-.9-.4-.9-.4-.9-.4-.9-.4-.9-.4-.9-.4-.9-.4-.8-.4-.8-.4-.8-.4-.8-.4-.8-.4-.8-.4-.8-.4-.8-.4-.8-.4-.8-.4-.8-.4-.8-.4-.8-.4-.8-.4-.8-.4-.8-.4-.8-.4-.8-.4-.8-.4-.8-.4-.8-.4-.8-.4-.8-.4-.7-.4-.7-.4-.7-.4-.7-.4-.7-.4-.7-.4-.7-.4-.7-.4-.7-.4-.7-.4-.7-.4-.7-.4-.7-.4-.7-.4-.7-.4-.7-.4-.7L39,134l-.4-.6-.3-.6-.3-.6-.4-.6-.3-.6-.4-.6-.3-.6-.3-.6-.3-.6-.3-.6-.3-.6-.3-.6-.3-.6-.3-.6-.3-.6-.3-.6-.3-.6-.3-.6-.3-.6-.3-.5-.3-.6-.3-.5-.3-.5-.3-.5-.3-.5-.3-.5-.3-.5-.3-.5-.3-.5-.3-.5-.3-.5-.3-.5-.3-.5-.3-.5-.3-.5-.3-.5-.2-.5-.2-.5-.2-.5-.2-.4-.2-.4-.2-.4-.2-.4-.2-.4-.2-.4-.2-.4-.2-.4-.2-.4-.2-.4-.2-.4-.2-.4-.2-.4-.2-.4-.2-.4-.2-.4-.2-.4-.2-.4-.1-.4-.1-.4-.1-.3-.1-.3-.1-.3-.1-.3L23,103l-.1-.3-.1-.3-.1-.3-.1-.3-.1-.3-.1-.3-.1-.3-.1-.3-.1-.3L22,100V95.7l.1-.2.1-.2.1-.2.1-.2.1-.2.1-.2.1-.2.1-.2.1-.2.1-.2.1-.2.1-.2.1-.1.1-.2.2-.1.2-.1.2-.1.2-.1.2-.1.2-.1.2-.1.2-.1.2-.1.2-.1.2-.1.2-.1.2-.1.2-.1.2-.1.3-.1.3-.1.3-.1.3-.1.3-.1.3-.1.3-.1.3-.1.3-.1.3-.1.3-.1.3-.1.3-.1.3-.1.3-.1.4-.1.4-.1.4-.1.4-.1.4-.1.4-.1.4-.1.4-.1.4-.1.4-.1h.4l.4-.1.4-.1.5-.1h.9l.5-.1h1.5l.5-.1h1l.5-.1H62l.7-.1h2.1l.8-.1.8-.1h.8L68,88l.8-.1.8-.1.8-.1.8-.1.8-.1.8-.1.8-.1.8-.1.8-.1L76,87l.8-.1.8-.1.8-.1.8-.1.8-.1.9-.1.8-.1.9-.1.9-.1.9-.1.9-.1.9-.1.9-.1.9-.1.9-.1.9-.1.9-.1.9-.1.9-.1.9-.1.9-.1.9-.1.9-.1.9-.1.9-.1.9-.1.9-.1.9-.1.9-.1.9-.1.9-.1.9-.1.9-.1.9-.1,1-.1,1-.1,1-.1,1-.1.9-.1,1-.1,1-.2,1-.2,1-.1,1-.2,1-.2,1-.2,1-.2,1-.2,1-.2,1-.2,1-.2,1-.2,1-.2,1-.2,1-.2,1-.2,1-.2,1-.2,1-.2,1-.2,1-.2,1-.2,1-.2,1-.2,1-.2,1-.2,1-.2,1-.2,1-.2,1-.2,1-.2,1-.2,1-.2,1-.2,1-.2,1-.2,1-.2,1-.2,1-.3,1-.2,1-.3,1-.3,1-.3,1-.3,1-.3,1-.3,1-.3,1-.3,1-.3,1-.3,1-.3,1-.3,1-.3,1-.3,1-.3,1-.3,1-.3,1-.3,1-.3,1-.3,1-.3,1-.3,1-.3,1-.3,1-.3,1-.3,1-.3,1-.3,1-.3,1-.3,1-.3,1-.3,1-.3.9-.3,1-.3,1-.3.9-.3.9-.3.9-.3.9-.3.9-.3.9-.3.9-.3.9-.3.9-.3.9-.3.9-.3.9-.3.9-.3.9-.3.9-.3.9-.3.9-.3.9-.3.9-.3.9-.3.9-.3.9-.3.9-.3.9-.3.9-.3.9-.3.9-.3.8-.3.9-.3.8-.3.9-.4.8-.3.8-.3.8-.3.8-.3.8-.3.8-.4.8-.3.8-.3.8-.3.8-.3.8-.3.8-.3.8-.3.8-.3.8-.3.8-.3.8-.3.8-.3.8-.3.8-.3.7-.3.7-.3.7-.3.7-.3.7-.3.7-.3.7-.3.7-.3.7-.3.7-.3.7-.3.7-.3.7-.3.7-.3.7-.3.7-.3.7-.3.7-.3.7-.3.7-.3.6-.3.6-.3.6-.3.6-.3.6-.3.6-.3.6-.3.6-.3.6-.3.6-.3.6-.3.6-.3.6-.3.6-.3.6-.3.6-.3.5-.3.5-.3.5-.3.5-.3.5-.2.5-.3.5-.2.5-.2.5-.2.5-.2.5-.2.5-.2.5-.2.5-.2.5-.2.5-.2.5-.2.5-.2.5-.2.4-.2.4-.2.4-.2.4-.2.4-.2.4-.2.4-.2.4-.2.4-.2.4-.2.4-.1.4-.1.4-.1.4-.1.4-.1.4-.1.4-.1.4-.1.3-.1.3-.1.3-.1.3-.1.3-.1.3-.1.3-.1.3-.1.3-.1.3-.1.3-.1.3-.1.3-.1.3-.1h3.8l.2.1.2.1.2.1.2.1.2.1.2.1.2.1.2.1.2.1.2.1.2.1.2.1.2.1.2.1.2.1.1.1.1.1.1.2.1.2.1.2.1.2.1.2.1.2.1.2.1.2.1.2.1.2.1.2.1.2.1.2.1.2.1.3.1.3.1.3.1.3.1.3.1.3.1.3.1.3.1.3.1.3.1.3.1.3.1.3.1.3v.3l.1.3v.8l.1.4V100l.1.9v1.8l.1.9v.9l.1.9.1.9.1.9.1.9.1.9.1.9.1.9.1.9.1.9.1.9.1,1,.1.9.1,1,.1,1,.1,1,.1,1,.1,1,.1,1,.1,1,.1,1,.1,1,.1,1,.1,1,.1,1,.1,1,.1,1,.1,1,.1,1,.1,1,.1,1,.1,1,.1,1,.1,1,.1,1,.1,1,.1,1,.1,1,.1,1,.1,1,.1,1,.2,1,.1,1,.1,1,.2,1,.1,1,.2,1,.2,1,.2,1,.2,1,.2,1,.2,1,.2,1,.2,1,.2,1,.2,1,.2,1,.2,1,.2,1,.2,1,.2,1,.2,1,.2,1,.2,1,.2,1,.2,1,.2,1,.2,1,.2,1,.2,1,.2,1,.2,1,.2,1,.2,1,.2,1,.2,1,.2,1,.2,1,.2,1,.2,1,.2,1,.2,1,.2,1,.2,1,.2,1,.3,1,.2,1,.3,1,.3,1,.3,1,.3,1,.3,1,.3,1,.3,1,.3,1,.3,1,.3,1,.3,1,.3,1,.3.9.3,1,.3.9.3.9.3.9.3.9.3.9.3.9.3.9.3.9.3.9.3.9.3.9.3.9.3.9.3.9.3.9.3.9.3.9.3.9.3.9.3.9.3.9.3.9.3.9.3.9.3.9.3.9.3.9.3.8.3.8.3.8.3.8.3.8.3.8.3.8.3.8.3.8.3.8.3.8.3.8.3.8.3.8.3.8.3.8.3.8.3.8.3.8.3.8.3.8.3.7.3.7.3.7.3.7.3.7.3.7.3.7.3.7.3.7.3.7.3.7.3.7.3.7.3.7.3.7.3.7.3.7.3.7.3.6.3.6.3.6.3.6.3.6.3.6.2.6.2.6.2.6.2.6.2.6.2.6.2.6.2.6.2.6.2.6.2.5.2.6.2.5.2.6.2.5.2.5.2.5.2.5.2.5.2.5.2.5.2.5.2.5.2.5.2.5.2.5.2.5.2.5.2.5.2.5.2.4.2.4.1.4.1.4.1.4.1.4.1.4.1.4.1.4.1.4.1.4.1.4.1.4.1.4.1.4.1.4.1.4.1.4.1.4.1.3.1.3.1.3.1.3v.3l.1.3v5l-.1.2-.1.2-.1.2-.1.2-.1.2-.1.2-.1.2-.1.2-.1.2-.1.2-.1.2-.1.2-.1.1-.1.1-.1.1-.1.1-.2.1-.2.1-.2.1-.2.1-.2.1-.2.1-.2.1-.2.1-.2.1-.2.1-.2.1-.2.1-.2.1-.2.1-.3.1-.3.1-.3.1-.7-1.3-.3.1-.3.1-.3.1-.3.1-.3.1h-.3l-.3.1H290.6l-.7-.1h-1.5l-.8-.1H232l-1,.1-1,.1h-1l-1,.1-1,.1-1,.1-1,.1-1,.1-1,.1-1,.1-1,.1-1,.1-1,.1-1,.1-1,.1-1,.1-1,.1-1,.1-1,.1-1,.1-1,.1-1,.1-1,.1-1,.1-1,.1-1,.1-1,.1-1,.1-1,.1-1,.1-1,.1-1,.1-1,.1-1,.1-1,.1-1,.1-1,.1-1,.1-1,.1-1,.1-1,.1-1,.1-1,.2-1,.1-1,.1-1,.2-1,.2-1,.2-1,.2-1,.2-1,.2-1,.2-1,.2-1,.2-1,.2-1,.2-1,.2-1,.2-1,.2-1,.2-1,.2-1,.2-1,.2-1,.2-1,.2-1,.2-1,.2-1,.2-1,.2-1,.2-1,.2-1,.2-1,.2-1,.2-1,.2-1,.2-1,.2-1,.2-.9.2-.9.2-.9.2-.9.2-.9.2-.9.2-.9.2-.9.2-.9.2-.9.2-.9.2-.9.2-.9.2-.9.2-.9.2-.9.2-.9.2-.9.2-.9.2-.9.2-.9.2-.9.2-.9.2-.9.2-.9.2-.8.2-.8.2-.8.2-.8.2-.8.2-.8.2-.8.2-.8.2-.8.2-.8.2-.8.2-.8.2-.8.2-.8.2-.8.2-.8.2-.8.2-.8.2-.8.2-.8.2-.8.2-.8.2-.7.2-.7.2-.7.2-.7.2-.7.2-.8.1-.7.2-.7.2-.7.2-.7.2-.7.2-.7.2-.7.2-.7.2-.7.2-.7.2-.6.2-.7.2-.6.2-.6.2-.6.2-.6.2-.6.2-.6.2-.6.2-.6.2-.6.2-.6.2-.6.2-.6.2-.6.2-.6.2-.6.2-.5.2-.5.2-.5.2-.5.2-.5.2-.5.2-.5.2-.5.2-.5.2-.5.1-.5.1-.5.1-.5.1-.5.1-.5.1-.5.1-.5.1-.5.1-.4.1-.5.1-.4.1-.4.1-.4.1-.4.1-.4.1-.4.1-.4.1-.4.1-.4.1-.4.1-.4.1-.4.1-.4.1-.4.1-.3.1-.4.1-.3.1H69.9l-.2-.1-.2-.1-.2-.1-.2-.1-.2-.1-.2-.1-.2-.1-.2-.1-.2-.1-.2-.1-.2-.1-.2-.1-.2-.1-.2-.1-.2-.1-.1-.1-.1-.1-.1-.2-.1-.1-.1-.2-.1-.2-.1-.2-.1-.2-.1-.2-.1-.2-.1-.2-.1-.2-.1-.2v-.2l-.1-.2-.1-.2-.1-.2-.1-.2-.1-.3L65,321l-.1-.3v-.3l-.1-.3V307.2l.1-.5v-1.5l.1-.5.1-.5.1-.5.1-.5.1-.5.1-.5.1-.6.1-.6.1-.6.1-.6.1-.6.1-.6.1-.6.1-.6.1-.6.1-.6.1-.6.1-.6.1-.6.1-.6.1-.6.1-.7.1-.7.1-.7.1-.7.1-.7.1-.7.1-.7.1-.7.1-.7.1-.7.1-.7.1-.7.1-.7.1-.7.1-.7.1-.7.1-.7.1-.8.1-.8.1-.8.1-.8.1-.8.1-.8.1-.8.1-.8.1-.8.1-.8.1-.8.1-.8.1-.8.1-.8.1-.8.1-.8.1-.8.1-.8.1-.8.1-.8.1-.8.1-.9.1-.9.1-.9.1-.9.1-.9.1-.9.1-.9.1-.9.1-.9.1-.9.1-.9.1-.9.1-.9.1-.9.1-.9.1-.9.1-.9.1-.9.1-.9v-.9l.1-.9v-1.8l.1-.9V198l-.1-1v-1l-.1-1v-1l-.1-1-.1-1-.1-1-.1-1-.1-1-.1-1-.1-1-.1-1-.1-1-.1-1-.1-1-.1-1-.1-1-.1-1-.1-1-.1-1-.1-1-.1-1-.1-1-.1-1-.1-1-.1-1-.1-1-.1-1-.1-1-.1-1-.1-1-.1-1-.1-1-.1-1-.1-1-.1-1-.1-1-.1-1-.1-1-.1-1-.1-1-.1-1-.2-1-.1-1-.1-1-.1-1-.2-1-.1-1-.2-1-.2-1-.2-1-.2-1-.2-.9-.2-1-.2-.9-.2-.9-.2-.9-.2-.9-.2-.9-.2-.9-.2-.9-.2-.9-.2-.9-.2-.9-.2-.9-.2-.9-.2-.9-.2-.9-.2-.9-.2-.9-.2-.9-.2-.9-.7-1.5-.2-.9-.2-.9-.2-.9-.2-.9-.2-.9-.2-.9-.2-.9-.2-.8-.2-.8-.2-.8-.2-.8-.2-.8-.2-.8-.2-.8-.2-.8-.2-.8-.2-.8-.2-.8-.2-.8-.2-.8-.2-.8-.2-.8-.2-.8-.2-.8-.2-.8-.2-.8-.2-.8-.2-.7-.2-.7-.2-.7-.2-.7-.2-.7-.2-.7-.2-.7-.2-.7-.2-.7-.2-.7-.2-.7-.2-.7-.2-.7-.2-.7-.2-.7-.2-.7-.2-.6-.2-.6-.2-.6-.2-.6-.2-.6-.2-.6-.2-.6-.2-.6-.2-.6-.2-.6-.1-.6-.2-.6-.1-.6-.1-.6-.1-.6-.2-.6-.1-.6-.1-.5-.1-.6-.1-.5-.1-.5-.1-.5-.1-.5-.1-.5-.1-.5-.1-.5-.1-.5-.1-.5-.1-.5-.1-.5-.1-.5-.1-.5-.1-.5-.1-.5-.1-.4-.1-.4-.1-.4-.1-.4-.1-.4-.1-.4-.1-.4-.1-.4-.1-.4-.1-.4-.1-.4-.1-.4V61.5l.1-.2.1-.2.1-.2.1-.2.1-.2.1-.2.1-.2.1-.2.1-.2.1-.2.1-.2.1-.2.1-.2.1-.2.1-.1.1-.2.1-.1.1-.1.2-.1.2-.1.2-.1.2-.1.2-.1.2-.1.2-.1.2-.1.2-.1.2-.1.2-.1.2-.1.2-.1.2-.1.2-.1.2-.1.3-.1.3-.1.3-.1h8.5l.4.1.4.1h.4l.4.1.5.1.5.1.5.1.5.1.5.1.5.1.5.1.5.1.5.1.5.1.5.1.5.1.5.1.5.1.5.1.5.1.5.1.6.1.5.1.6.1.6.1.6.1.6.1.6.1.6.1.6.1.6.1.6.1.6.1.6.1.6.1.6.1.6.1.7.1.7.1.7.1.7.1.7.1.7.1.7.1.7.1.7.1.7.1.7.1.7.1.7.1.7.1.7.1.7.1.7.1.8.1.8.1.8.1.8.1.8.1.8.1.8.1.8.1.8.1.8.1.8.1.8.1.8.1.8.1.8.1.8.1.8.1.8.1.8.1.8.1.8.1.8.1.9.1.9.1.9.1.9.1.9.1.9.1.9.1.9.1.9.1.9.1.9.1.9.1.9.1.9.1.9.1.9.1.9.1.9.1.9.1.9.1.9.1.9.1.9.1.9.1,1,.1,1,.1,1,.1,1,.1,1,.1,1,.1,1,.1,1,.1,1,.1,1,.1,1,.1,1,.1,1,.1,1,.1,1,.1,1,.1,1,.1,1,.1,1,.1,1,.1,1,.1,1,.1,1,.1,1,.1,1,.1,1,.1,1,.1,1,.1,1,.1h1l1,.1h38l1-.1h1l1-.1,1-.1,1-.1,1-.1,1-.1,1-.1,1-.1,1-.1,1-.1,1-.1,1-.1,1-.1,1-.1,1-.1,1-.1,1-.1,1-.1,1-.1,1-.1,1-.1,1-.1,1-.1,1-.1,1-.1,1-.1,1-.1,1-.1,1-.1.9-.1,1-.1.9-.1.9-.1.9-.1.9-.1.9-.1.9-.1.9-.1.9-.1.9-.1.9-.1.9-.1.9-.1.9-.1.9-.1.9-.1.9-.1.9-.1.9-.1.9-.1.9-.1.9-.1.9-.1.8-.1.9-.1.8-.1.8-.1.8-.1.8-.1.8-.1.8-.1.8-.1.8-.1.8-.1.8-.1.8-.1.8-.1.8-.1.8-.1.8-.1.8-.1.8-.1.8-.1.8-.1.8-.1.7-.1.7-.1.7-.1.7-.1.7-.1.7-.1.7-.1.7-.1.7-.1.7-.1.7-.1.7-.1.7-.1.7-.1.7-.1.7-.1.7-.1.6-.1.6-.1.6-.1.6-.1.6-.1.6-.1.6-.1.6-.1.6-.1.6-.1.6-.1.6-.1.6-.1.6-.1.6-.1.6-.1.5-.1.5-.1.5-.1.5-.1.5-.1.5-.1.5-.1.5-.1.5-.1.5-.1.5-.1.5-.1.5-.1.5-.1.5-.1.5-.1.4-.1.4-.1.4-.1.4-.1h.4l.4-.1h7.9l.3.1h.3l.3.1.3.1.2.1.2.1.2.1.2.1.2.1.2.1.2.1.2.1.2.1.2.1.2.1.2.1.2.1.2.1.2.1.1.1.2.1.2.1.1.2.1.1.1.2.1.2.1.2.1.2.1.2.1.2.1.2.1.2.1.2.1.2.1.2.1.2.1.2.1.2.1.2v7.5l-.1.4V70l-.1.4-.1.4-.1.4-.1.4-.1.4-.1.4-.1.4-.1.4-.1.4-.1.4-.1.5-.1.5-.1.5-.1.5-.1.5-.1.5-.1.5-.1.5-.1.5-.1.5-.1.5-.1.5-.1.5-.1.5-.1.5-.1.5-.1.6-.1.5-.1.6-.1.6-.1.6-.2.6-.1.6-.2.6-.2.6-.2.6-.2.6-.2.6-.2.6-.2.6-.2.6-.2.6-.2.7-.2.6-.2.7-.2.7-.2.7-.2.7-.2.7-.2.7-.2.7-.2.7-.2.7-.2.7-.2.7-.2.7-.2.7-.2.7-.2.7-.2.8-.2.7-.2.8-.2.8-.2.8-.2.8-.2.8-.2.8-.2.8-.2.8-.2.8-.2.8-.2.8-.2.8-.2.8-.2.8-.2.8-.2.8-.2.8-.2.8-.2.8-.2.8-.2.9-.2.9-.2.9-.2.9-.2.9-.2.9-.2.9-.2.9-.2.9-.2.9-.2.9-.2.9-.2.9-.2.9-.2.9-.2.9-.2.9-.2.9-.2.9-.2.9-.2.9-.2.9-.2.9-.2,1-.2.9-.2,1-.2,1-.2.9-.1,1-.2,1-.2,1-.2,1-.1,1-.1,1-.2,1-.1,1-.1,1-.1,1-.1,1-.1,1-.1,1-.1,1-.1,1-.1,1-.1,1-.1,1-.1,1-.1,1-.1,1-.1,1-.1,1-.1,1-.1,1-.1,1-.1,1-.1,1-.1,1-.1,1-.1,1-.1,1-.1,1-.1,1-.1,1-.1,1-.1,1-.1,1-.1,1-.1,1-.1,1-.1,1-.1,1-.1,1-.1,1-.1,1-.1,1-.1,1v1l-.1,1v45l.1,1v1.8l.1.9v.9l.1.9.1.9.1.9.1.9.1.9.1.9.1.9.1.9.1.9.1.9.1.9.1.9.1.9.1.9.1.9.1.9.1.9.1.9.1.9.1.9.1.9.1.8.1.8.1.8.1.8.1.8.1.8.1.8.1.8.1.8.1.8.1.8.1.8.1.8.1.8.1.8.1.8.1.8.1.8.1.8.1.8.1.7.1.7.1.7.1.7.1.7.1.7.1.7.1.7.1.7.1.7.1.7.1.7.1.7.1.7.1.7.1.7.1.6.1.6.1.6.1.6.1.6.1.6.1.6.1.6.1.6.1.6.1.6.1.6.1.6.1.6.1.6.1.6.1.6.1.5.1.5.1.5v.5l.1.5v.5l.1.5.1.5v13.5l-.1.3v.3l-.1.3-.1.3-.1.3-.1.2-.1.2,1.1.8-.1.2-.1.2-.1.2-.1.2-.1.2-.1.2-.1.2-.1.2-.1.2-.1.2-.1.2-.1.2-.1.1-.1.1-.2.1-.1.1-.2.1-.2.1-.2.1-.2.1-.2.1-.2.1-.2.1-.2.1-.2.1-.2.1-.2.1-.2.1h-.2l-.2.1h-5.7l-.3-.1h-.4l-.3-.1-.4-.1-.4-.1-.4-.1-.4-.1-.4-.1-.4-.1-.4-.1-.4-.1-.4-.1-.4-.1-.4-.1-.4-.1-.4-.1-.4-.1-.4-.1-.4-.1-.5-.1-.5-.1-.5-.1-.5-.1-.5-.1-.5-.1-.5-.1-.5-.1-.5-.2-.5-.1-.5-.2-.5-.2-.5-.2-.5-.2-.5-.2-.5-.2-.5-.2-.5-.2-.6-.2-.6-.2-.6-.2-.6-.2-.6-.2-.6-.2-.6-.2-.6-.2-.6-.2-.6-.2-.6-.2-.6-.2-.6-.2-.6-.2-.6-.2-.7-.2-.6-.2-.7-.2-.7-.2-.7-.2-.7-.2-.7-.2-.6-.2-.7-.2-.7-.2-.7-.2-.7-.2-.7-.2-.7-.2-.7-.2-.7-.2-.7-.2-.7-.2-.8-.2-.8-.2-.8-.2-.8-.2-.8-.2-.8-.2-.8-.2-.8-.2-.8-.2-.8-.2-.8-.2-.8-.2-.8-.2-.8-.2-.8-.2-.8-.2-.8-.2-.8-.2-.8-.2-.8-.2-.8-.2-.8-.2-.8-.2-.9-.2-.9-.2-.9-.2-.9-.2-.9-.2-.9-.2-.9-.2-.9-.2-.9-.2-.9-.2-.9-.2-.9-.2-.9-.2-.9-.2-.9-.2-.9-.2-.9-.2-.9-.2-.9-.2-.9-.2-.9-.2-.9-.2-.9-.2-.9-.2-1-.2-1-.2-.9-.2-1-.2-1-.2-1-.2-1-.2-1-.2-1-.2-1-.2-1-.2-1-.2-1-.2-1-.2-1-.2-1-.2-1-.2-1-.2-1-.2-1-.2-1-.2-1-.2-1-.2-1-.2-1-.2-1-.2-1-.2-1-.2-1-.2-1-.2-1-.2-1-.2-1-.2-1-.2-1-.2-1-.1-1-.1-1-.1-1-.1-1-.1-1-.1-1-.1-1-.1-1-.1-1-.1-1-.1-1-.1-1-.1-1-.1-1-.1-1-.1-1-.1-1-.1-1-.1-1-.1-1-.1-1-.1-1-.1-1-.1-1-.1-1-.1-1-.1-1-.1-1-.1-1-.1-1-.1-1-.1-1-.1-1-.1-1-.1-1-.1-1-.1-1-.1-1-.1-1-.1-1-.1-1-.1h-1l-1-.1H80.1l-.8.1H77.8l-.7.1H74.3l-.7.1H42.4l-.3-.1-.3-.1-.3-.1-.3-.1-.3-.1-.3-.1-.3-.1-.3-.1-.3-.1-.2-.1-.2-.1-.2-.1-.2-.1-.2-.1-.2-.1-.2-.1-.2-.1-.2-.1-.2-.1-.2-.1-.2-.1-.2-.1-.2-.1-.1-.1-.2-.1-.1-.1-.1-.2-.1-.2-.1-.1-.1-.2-.1-.2-.1-.2-.1-.2-.1-.2-.1-.2-.1-.2-.1-.2-.1-.2-.1-.2-.1-.2v-.2l-.1-.2v-5.2l.1-.3.1-.3.1-.3.1-.3.1-.3.1-.3.1-.4.1-.4.1-.4.1-.4.1-.4.1-.4.1-.4.1-.4.1-.4.1-.4.1-.4.1-.4.1-.4.1-.4.2-.4.1-.4.2-.4.2-.4.2-.5.2-.5.2-.5.2-.5.2-.5.2-.5.2-.5.2-.5.2-.5.2-.5.2-.5.2-.5.2-.5.2-.5.2-.5.2-.5.2-.5.2-.5.2-.6.2-.6.2-.6.2-.6.2-.6.2-.6.2-.6.2-.6.2-.6.2-.6.3-.6.2-.6.3-.6.3-.6.3-.6.3-.6.3-.6.3-.6.3-.7.3-.7.3-.7.3-.7.3-.7.3-.7.3-.7.3-.7.3-.7.3-.7.3-.7.3-.7.3-.7.3-.7.3-.7.3-.7.3-.7.3-.8.3-.8.3-.8.3-.8.3-.8.3-.8.3-.8.3-.8.3-.8.3-.8.3-.8.3-.8.3-.8.3-.8.3-.8.3-.8.3-.8.3-.8.3-.8.3-.8.3-.8.3-.8.3-.8.3-.9.3-.9.3-.9.3-.9.3-.9.3-.9.3-.9.3-.9.3-.9.3-.9.3-.9.3-.9.3-.9.3-.9.3-.9.3-.9.3-.9.3-.9.3-.9.3-.9.3-.9.3-.9.3-.9.3-.9.3-.9.3-1,.3-1,.3-.9.3-1,.3-1,.3-1,.3-1,.3-1,.3-1,.3-1,.3-1,.3-1,.3-1,.2-1,.3-1,.2-1,.3-1,.2-1,.2-1,.2-1,.2-1,.2-1,.2-1,.2-1,.2-1,.2-1,.2-1,.2-1,.2-1,.2-1,.2-1,.2-1,.2-1,.2-1,.2-1,.2-1,.2-1,.2-1,.2-1,.2-1,.2-1,.2-1,.2-1,.2-1,.2-1,.2-1,.2-1,.2-1,.2-1,.2-1,.2-1,.2-1,.2-1,.2-1,.2-1,.2-1,.2-1,.1-1,.2-1,.1-1,.1-1,.1-1,.1-1,.1-1,.1-1,.1-1,.1-1,.1-1,.1-1,.1-1,.1-1,.1-1,.1-1,.1-1,.1-1,.1-1,.1-1,.1-1,.1-1,.1-1,.1-1,.1-1,.1-1,.1-1,.1-1,.1-1,.1-1,.1-.9.1-1,.1-.9.1-1,.1-.9.1-.9.1-.9.1-.9.1-.9.1-.9.1-.9.1-.9.1-.9V101l.1-.9V39.6l.1-.4v-.8l.1-.4v-.3l.1-.3.1-.3.1-.3.1-.3.1-.3.1-.3.1-.3.1-.3.1-.3.1-.3.1-.3.1-.3.1-.3.1-.3.1-.3.1-.2.1-.2.1-.2.1-.2.1-.2.1-.2.1-.2.1-.2.1-.2.1-.2.1-.2.1-.2.1-.2.1-.2.2-.1.1-.1.2-.1.2-.1.2-.1.2-.1.2-.1.2-.1.2-.1.2-.1.2-.1.2-.1.2-.1.2-.1.2-.1.2-.1h.2l.2-.1H93l.3.1.3.1.3.1.3.1.3.1.3.1.3.1.3.1.3.1.3.1.3.1.4.1.3.1.4.1.4.1.4.1.4.1.4.1.4.1.4.1.4.2.4.1.4.2.4.2.4.2.4.2.4.2.4.2.4.2.4.2.4.2.5.2.5.2.5.2.5.2.5.2.5.2.5.2.5.2.5.2.5.2.5.2.5.2.5.2.5.2.5.3.5.3.5.3.6.3.5.3.6.3.6.3.6.3.6.3.6.3.6.3.6.3.6.3.6.3.6.3.6.3.6.3.6.3.6.3.6.3.6.3.6.3.7.3.7.3.7.3.7.3.7.3.7.3.7.3.7.3.7.3.7.3.7.3.7.3.7.3.7.3.7.3.7.3.7.3.7.3.7.3.8.3.8.3.8.3.8.3.8.3.8.3.8.3.8.3.8.3.8.3.8.3.8.3.8.3.8.3.8.3.8.3.8.3.8.4.8.3.8.3.8.3.8.3.8.3.8.4.9.3.8.3.9.3.9.3.9.3.9.3.9.3.9.3.9.3.9.3.9.3.9.3.9.3.9.3.9.3.9.3.9.3.9.3.9.3.9.3.9.3.9.3.9.3.9.3.9.3.9.3.9.3.9.3,1,.3,1,.3,1,.3,1,.3,1,.3,1,.3,1,.3,1,.3,1,.3,1,.3,1,.3,1,.3,1,.3,1,.3,1,.3,1,.3,1,.3,1,.3,1,.3,1,.3,1,.3,1,.3,1,.3,1,.3,1,.3,1,.3,1,.3,1,.3,1,.3,1,.3,1,.3,1,.3,1,.3,1,.3,1,.3,1,.3,1,.2,1,.3,1,.2,1,.2,1,.2,1,.2,1,.2,1,.2,1,.2,1,.2,1,.2,1,.2,1,.2,1,.2,1,.2,1,.2,1,.2,1,.2,1,.2,1,.2,1,.2,1,.2,1,.2,1,.2,1,.2,1,.2,1,.2,1,.2,1,.2,1,.2,1,.2,1,.2,1,.2,1,.2,1,.2,1,.2,1,.2,1,.1,1,.1,1,.1,1,.2,1,.1,1,.1.9.1,1,.1.9.1.9.1.9.1.9.1.9.1.9.1.9.1.9.1.9.1.9.1.9.1.9.1.9.1.9.1.9.1.9.1.9.1.9.1.9.1.9.1.9.1.9.1.9.1.9.1.9.1.9.1.9.1.8.1.8.1.8.1.8.1.8.1.8.1.8.1.8.1.8.1.8.1.8.1.8.1.8.1.8.1.8.1.8.1.8.1h.8l.8.1.8.1h.8l.7.1h1.4l.7.1h21.2l.5.1h2.5l.5.1h.5l.5.1h.8l.4.1h.4l.4.1.4.1.4.1.4.1.4.1.4.1.4.1.4.1.4.1.4.1.3.1.4.1.3.1.3.1.3.1.3.1.3.1.3.1.3.1.3.1.3.1.3.1.3.1.3.1.3.1.3.1.2.1.2.1.2.1.2.1.2.1.2.1.2.1.2.1.2.1.2.1.2.1.2.1.2.1.2.1.1.1.1.1.1.2.1.2.1.2.1.2.1.2.1.2.1.2.1.2.1.2.1.2.1.2.1.2v.2l.1.2v4.2l-.1.3-.1.3-.1.3-.1.3-.1.3-.1.3-.1.3-.1.3-.1.3-.1.3-.1.3-.1.3-.1.3-.1.3-.1.4-.2.3-.2.4-.1.4-.2.4-.2.4-.2.4-.2.4-.2.4-.2.4-.2.4-.2.4-.2.4-.2.4-.2.4-.2.4-.2.4-.2.4-.2.4-.2.4-2.1,3-.2.5-.2.5-.2.5-.3.5-.3.5-.3.5-.3.5-.3.5-.3.5-.3.5-.3.5-.3.5-.3.5-.3.5-.3.5-.3.5-.3.5-.3.5-.3.6-.3.6-.3.6-.3.6-.3.6-.3.6-.1.4-.3.6-.3.6-.3.6-.3.6-.3.6-.3.6-.3.6-.3.6-.4.6-.3.6-.4.6-.3.6-.4.7-.4.6-.4.7-.4.7-.4.7-.4.7-.4.7-.4.7-.4.7-.4.7-.4.7-.4.7-.4.7-.4.7-.4.7-.4.7-.4.7-.4.7-.4.7-.4.8-.4.8-.4.8-.4.8-.4.8-.4.8-.4.8-.4.8-.4.8-.4.8-.4.8-.4.8-.4.8-.4.8-.4.8-.4.8-.4.8-.4.8-.4.8-.4.8-.4.8-.4.8-.4.8-.4.9-.4.8-.4.9-.4.9-.4.9-.4.9-.4.9-.4.9-.4.9-.4.9-.4.9-.4.9-.4.9-.4.9-.4.9-.4.9-.4.9-.4.9-.4.9-.4.9-.4.9-.4.9-.4.9-.4.9-.4.9-.4.9-.4.9-.4.9-.4.9-.4.9-.4.9-.4.9-.4,1-.4.9-.4.9-.4,1-.4,1-.4,1-.4,1-.3,1-.4,1-.3,1-.3,1-.4,1-.3,1-.4,1-.3,1-.3,1-.3,1-.3,1-.3,1-.3,1-.3,1-.3,1-.3,1-.3,1-.3,1-.3,1-.3,1-.3,1-.3,1-.3,1-.3,1-.3,1-.3,1-.3,1-.3,1-.3,1-.3,1-.3,1-.3,1-.3,1-.3,1-.3,1-.3,1-.3,1-.3,1-.3,1-.3,1-.3,1-.3,1-.3,1-.3,1-.3,1-.3,1-.3,1-.2,1-.3,1-.2,1-.2,1-.2,1-.2,1-.2,1-.2,1-.2,1-.2,1-.2,1-.2,1-.2,1-.2,1-.2.9-.2.9-.2,1-.2.9-.2.9-.2.9-.2.9-.2.9-.2.9-.2.9-.2.9-.2.9-.2.9-.2.9-.2.9-.2.9-.2.9-.2.9-.2.9-.2.9-.2.9-.2.9-.1.9-.2.9-.1.9-.2.9-.2.9-.1.9-.1.9-.2.9-.1.9-.1.9-.1.8-.1.8-.1.8-.1.8-.1.8-.1.8-.1.8-.1.8-.1.8-.1.8-.1.8-.1.8-.1.8-.1.8-.1.8-.1.8-.1.8-.1.8-.1.8-.1.8-.1.8-.1.7-.1.7-.1.7-.1.7-.1.7-.1.7-.1.7-.1.7-.1.7-.1.7-.1.7-.1.7-.1.7-.1.7-.1.7-.1.7-.1.7-.1.6-.1.6-.1.6-.1.6-.1.6-.1.6-.1.6-.1.6-.1.6-.1.6-.1.6-.1.6-.1.6-.1.6-.1.6-.1.6-.1.5-.1.5-.1.5-.1.5-.1.5-.1.5-.1.5-.1.5-.1.5-.1.5-.1.5-.1.5-.1.5-.1.5-.1.5-.1.4-.1.4-.1.4-.1.4-.1.4-.1.4-.1.4-.1.4-.1.4-.1.4-.1.4-.1.4-.1.4-.1.3-.1.3-.1.3-.1.3-.1.3-.1.3-.1.3-.1.3-.1.3-.1.3-.1.3-.1.3-.1.3-.1.3-.1.3-.1.3-.1.2-.1.2-.1.2-.1.2-.1.2-.1.2,1.7-1.2-.1.2-.1.2-.1.2-.2.2-.2.2-.1.2-.2.1-.2.2-.2.1-.2.1-.2.1-.2.1-.2.1-.2.1-.2.1-.2.1-.2.1-.2.1-.2.1-.2.1h-3.7l-.3-.1-.3-.1-.3-.1-.3-.1-.3-.1-.3-.1-.3-.1-.3-.1-.3-.1-.3-.1-.3-.1-.3-.1-.3-.1-.3-.1-.3-.1-.3-.1-.3-.2-.3-.1-.3-.2-.3-.2-.3-.2-.4-.2-.4-.2-.4-.2-.4-.2-.4-.2-.4-.2-.4-.2-.4-.2-.4-.2-.4-.2-.4-.2-.4-.2-.4-.2-.4-.3-.4-.2-.4-.3-.4-.3-.4-.3-.4-.3-.5-.3-.4-.3-.5-.3-.5-.3-.5-.3-.5-.3-.5-.3-.5-.3-.5-.3-.5-.3-.5-.3-.5-.3-.5-.3-.5-.3-.5-.3-.5-.3-.5-.3-.5-.3-.5-.3-.5-.3-.5-.4-.6-.4-.5-.4-.6-.4-.6-.4-.6-.4-.6-.4-.6-.4-.6-.4-.6-.4-.6-.4-.6-.4-.6-.4-.6-.4-.6-.4-.6-.4-.6-.4-.6-.4-.6-.4-.6-.4-.6-.4-.7-.4-.7-.4-.7-.4-.7-.4-.7-.4-.7-.4-.7-.4-.7-.4-.7-.4-.7-.4-.7-.4-.7-.4-.7-.4-.7-.4-.7-.4-.7-.4-.7-.4-.7-.4-.7-.4-.7-.4-.8-.4-.8-.4-.8-.4-.8-.4-.8-.4-.8-.4-.8-.5-.8-.4-.8-.4-.8-.4-.8-.4-.8-.4-.8-.5-.8-.4-.8-.4-.8-.5-.8-.4-.8-.4-.8-.5-.8-.4-.8-.4-.8-.4-.8-.5-.8-.4-.9-.4-.8-.5-.9-.4-.9-.5-.9-.4-.9-.4-.9-.5-.9-.4-.9-.4-.9-.4-.9-.4-.9-.4-.9-.4-.9-.4-.9-.4-.9-.4-.9-.4-.9-.4-.9-.4-.9-.4-.9-.4-.9-.4-.9-.4-.9-.4-.9-.4-.9-.4-.9-.4-.9-.4-.9-.4-.9-.4-.9-.4-.5-1.7-.9-.4-.9-.4-.9-.4-.9-.4-.9-.4-.9-.4-.9-.4-1-.4-1-.4-1-.4-1-.4-.9-.4-1-.4-1-.4-1-.4-1-.4-1-.4-1-.4-.9-.4-1-.4-1-.4-1-.4-1-.4-1-.4-1-.4-1-.4-1-.4-1-.4-1-.4-1-.4-1-.4-1-.3-1-.4-1-.3-1-.3-1-.3-1-.3-1-.3-1-.3-1-.3-1-.3-1-.3-1-.3-1-.3-1-.3-1-.3-1-.3-1-.3-1-.3-1-.3-1-.3-1-.3-1-.3-.9-.3-.9-.3-1-.3-.9-.3-.9-.3-.9-.3-.9-.3-.9-.3-.9-.3-.9-.3.2.1-.9-.3-.9-.3-.9-.3-.9-.3-.9-.3-.9-.2-.9-.3-.9-.2-.9-.2-.9-.2-.9-.2-1.1-.2-.9-.2-.9-.2-.9-.2-.9-.2-.9-.2-.9-.2-.9-.2-.9-.2-.9-.2-.9-.2-.9-.2-.9-.2-.9-.2-.8-.2-.8-.2-.8-.2-.8-.2-.8-.2-.8-.2-.8-.2-.8-.2-.8-.2-.8-.2-.8-.2-.8-.2-.8-.2-.8-.2-.8-.2-.8-.2-.8-.2h-.7l-.8-.2L60,265l-.8-.1-.8-.1-.8-.1-.8-.2-.7-.1-.7-.1-.7-.1-.7-.1-.7-.1-.7-.1-.7-.1-.7-.1-.7-.1-.7-.1-.7-.1-.7-.1-.7-.1-.7-.1-.7-.1-.7-.1-.6-.1-.7-.1-.6-.1-.6-.1-.6-.1-.6-.1-.6-.1-.6-.1-.6-.1-.6-.1-.6-.1-.6-.1-.6-.1-.6-.1-.6-.1-.6-.1-.6-.1-.5-.1-.5-.1-.5-.1-.5-.1-.5-.1-.5-.1-.5-.1-.5-.1-.5-.1-.5-.1-.5-.1-.5-.1-.5-.1-.5-.1-.5-.1-.5-.1-.4-.1-.3-1.1-.4-.1-.4-.1-.4-.1L25,258l-.4-.1-.4-.1-.4-.1-.4-.1-.4-.1-.4-.1-.4-.1-.3-.1-.3-.1-.3-.1-.3-.1-.3-.1-.3-.1-.3-.1-.3-.1-.3-.1-.3-.1-.3-.1-.3-.1-.3-.1-.3-.1-.3-.1-.2-.1-.2-.1-.2-.1-.2-.1-.2-.1-.2-.1-.2-.1-.2-.2-.2-.1-.2-.1-.2-.2-.2-.1-.2-.2L15,254l-.2-.2-.1-.2-.1-.2-.1-.2-.1-.2-.1-.2-.1-.2-.1-.2-.1-.2-.1-.2-.1-.2-.1-.2-.1-.2v-3.3l.1-.3.1-.3.1-.3.1-.3.1-.3.1-.3.1-.3.1-.3.1-.3.1-.3.1-.3.1-.3.1-.3.1-.3.1-.3.2-.3.2-.3.2-.3.2-.3.2-.3.2-.3.2-.3.2-.3.2-.3.2-.3.2-.4.2-.4.2-.4.2-.4.2-.4.2-.4.2-.4.3-.4.3-.4.3-.4.3-.4.3-.4.3-.4.3-.4.3-.4.3-.4.3-.4.3-.4.3-.4.3-.4.3-.4.3-.5.3-.4.3-.5.3-.5.3-.5.3-.5.3-.5.3-.5.4-.5.3-.5.4-.5.4-.5.4-.5.4-.5.4-.5.4-.5.4-.5.4-.5.4-.5.4-.5.4-.5.4-.5.4-.6.4-.6.4-.6.4-.6.4-.6.4-.6.4-.6.4-.6.4-.6.4-.6.4-.6.4-.6.4-.6.4-.6.4-.6.4-.6.5-.6.5-.6.4-.6.5-.7.5-.6.4-.7.5-.7.5-.7.5-.7.5-.7.5-.7.5-.7.5-.7.5-.7.5-.7.5-.7.5-.7.5-.7.5-.7.5-.7.5-.7.5-.7.5-.7.5-.7.5-.7.5-.7.5-.8.5-.8.5-.8.5-.8.5-.8.5-.8.5-.8.5-.8.5-.8.5-.8.5-.8.5-.8.5-.8.5-.8.5-.8.5-.8.5-.8.5-.8.5-.8.5-.8.5-.8.5-.8.5-.8.5-.8.5-.8.5-.9.5-.8.5-.9.5-.9.5-.9.5-.9.5-.9.5-.9.5-.9.5-.9.5-.9.5-.9.5-.9.5-.9.5-.9.5-.9.5-.9.5-.9.5-.9.5-.9.5-.9.5-.9.5-.9.5-.9.5-.9.5-.9.5-.9.5-.9.5-.9.5-.9.5-.9.5-.9.5-.9.4-.9.5-.9.5-.9.5-.9.4-.9.5-.9.4-.9.4-.9.4-.9.4-.9.4-.9.4-.9.4-.9.4-.9.4-.9.4-.9.4-.9.4-.9.4-.9.4-.9.4-.9.4-.9.4-.9.4-.9.4-.9.4-.9.4-.9.4-1,.4-.9.4-.9.4-.9.4-.9.4-.9.4-.9.4-.9.4-.9.4-.9.4-.9.4-.9.4-.9.4-.9.3-.9.4-.9.4-.9.3-.9.3-.9.3-.9.3-.9.3-.9.3-.9.3-.9.3-.9.3-.9.3-.9.3-.9.3-.9.3-.9.3-.9.3-.9.3-.9.3-.9.3-.9.3-.9.3-.9.3-.9.3-.9.3-.9.3-.9.3-.9.3-.9.3-.9.3-.9.3-.9.3-.9.3-.9.3-.9.3-.8.3-.9.3-.8.3-.8.3-.8.2-.8.3-.8.2-.8.2-.8.2-.8.2-.8.2-.8.2-.8.2-.8.2-.8.2-.8.2-.8.2-.8.2-.8.2-.8.2-.8.2-.8.2-.8.2-.8.2-.8.2-.7.2-.8.2-.7.2-.7.2-.7.2-.7.2-.7.2-.7.2-.7.2-.7.2-.7.2-.7.2-.7.2-.7.2-.7.2-.7.2-.7.2-.7.2-.6.2-.6.2-.6.2-.6.2-.6.2-.6.2-.6.2-.6.1-.6.2-.6.1-.6.2-.6.2-.6.1-.6.2-.6.1-.6.1-.6.1-.6.2-.5.1-.5.1-.5.1-.5.1-.5.1-.5.1-.5.1-.5.1-.5.1-.5.1-.5.1-.5.1-.5.1-.4.1-.5.1-.4.1-.4.1-.4.1-.4.1-.4.1-.4.1-.4.1-.4.1-.4.1-.4.1-.4.1-.4.1-.4.1-.4.1-.3.1-.3.1-.3.1-.3.1-.3.1-.3.1-.3.2-.3.1-.3.1-.3.1-.3.1-.3.2-.3.1-.3.2-.2.1-.2.2-.2.2-.2.2-.2.2-.2.2-.2.2-.2.2-.2.2-.2.2-.2.2-.2.2-.2.2-.1.2-.1.2-.1.2-.1.2-.1.2-.1.2-.1.2-.1.2-.1.2-.1.2-.1.2-.1.2-.1.2-.1.2-.1H131l.2.1.2.1.2.1.2.1.3.1.2.1.3.1.3.1.3.1.3.1.3.1.3.1.3.1.3.1.3.1.3.1.3.1.3.2.3.2.3.2.3.2.3.2.3.2.3.2.3.2.3.2.3.2.3.2.3.2.3.2.3.2.3.2.3.3.4.3.4.3.4.3.4.3.4.3.4.3.4.3.4.3.4.3.4.3.4.3.4.3.4.3.4.3.4.3.4.3.4.3.4.3.4.3.4.4.4.4.5.4.4.4.5.4.5.4.5.4.5.4.5.4.5.4.5.4.5.4.5.4.5.4.5.4.5.4.5.4.5.4.5.4.5.4.5.4.5.4.5.4.5.5.5.4.5.4.5.5.6.5.6.5.6.5.6.5.6.5.6.5.6.5.6.5.6.5.6.5.6.5.6.5.6.5.6.5.6.5.6.5.6.5.6.5.6.5.6.5.6.5.7.5.7.5.7.5.7.5.7.5.7.5.7.5.7.5.7.5.7.5.7.5.7.5.7.5.7.5.7.5.7.5.7.5.7.5.7.5.7.5.7.6.7.5.8.5.8.6.8.5.8.6.8.5.8.5.8.6.8.5.8.5.8.6.8.6.8.6.8.5.8.6.8.6.8.6.8.5.8.5.8.6.8.5.8.5.8.6.8.5.8.5.8.6.8.5.8.5.8.5.8.5.9.5.8.5.9.5.9.5.8.5.9.5.9.5.9.5.9.5.9.5.9.5.9.5.9.5.9.5.9.5.9.5.9.5.9.5.9.5.9.5.9.5.9.5.9.5.9.5.9.5.9.5.9.5.9.5.9.5.9.5.9.5.9.5.9.5.9.5.9.5.9.5.9.5.9.5.9.5.9.5.9.5.9.5.9.5.9.5.9.5.9.5.9.5.9.5.9.5.9.4.9.5.9.4.9.5.9.4.9.4.9.4.9.4.9.4.9.4.9.4.9.4.9.4.9.4.9.4.9.4.9.4.9.4.9.4.9.4.9.4.9.4.9.4.9.4.9.4.9.4.9.4.9.4.9.4.9.4.9.4.9.4.9.4.9.4.9.4.9.4.9.3.9.3.9.4.9.3.8.3.9.3.8.3.9.3.8.3.8.3.8.3.8.3.8.3.8.3.8.3.8.3.8.3.8.3.8.3.8.3.8.3.8.3.8.3.8.3.8.3.8.3.8.3.8.3.8.3.8.3.8.3.8.3.8.3.8.3.8.3.7.3.7.3.7.2.7.3.7.2.7.2.7.2.7.2.7.2.7.2.7.2.7.2.7.2.7.2.7.2.7.2.7.2.7.2.6.2.7.2.6.2.6.2.6.2.6.2.6.2.6.2.6.2.6.2.6.2.6.2.6.2.6.2.6.2.6.2.6.2.6.2.5.2.5.2.5.2.5.2.5.2.5.2.5.2.5.2.5.2.5.2.5.2.5.2.5.2.5.2.5.2.4.2.4.2.4.2.4.2.4.2.4.2.4.2.4.2.4.2.4.2.4.2.4.2.4.2.3.2.4.2.3.1.3.2.3.2.3.2.3.2.3.2.3.2.3.2.3.2.3.2.3.2.3.2.3.2.3.2.2.2.2.2.2.2.2.2.2.2.2.2.2.2.2.2.2.2.2.2.2.2.2.2.1.2.1.2.1.2.1.2.1.2.1.2.1.2.1.2.1.2.1.2.1.2.1.2.1.2v3l-.1.2v.2l-.1.2-.1.2-.1.2-.1.2-.1.2-.1.3-.1.2-.1.3-.1.3-.1.3-.1.3-.2.3-.1.3-.2.3-.2.3-.2.3-.2.3-.2.3-.2.3-.2.3-.2.3-.2.3-.2.3-.2.3-.2.3-.2.3-.2.3-.2.3-.3.3-.3.3-.3.3-.3.3-.3.3-.3.3-.3.3-.3.3-.3.4-.3.4-.3.4-.3.4-.3.4-.3.4-.3.4-.3.4-.3.4-.4.4-.3.4-.4.4-.4.4-.4.4-.4.4-.4.4-.4.4-.4.4-.4.4-.4.4-.4.4-.4.4-.4.4-.4.4-.4.5-.4.5-.4.5-.4.5-.4.5-.4.5-.5.5-1.1-2.1-.5.5-.5.5-.5.5-.5.5-.5.5-.5.5-.5.5-.5.5-.5.5-.5.5-.5.5-.5.5-.5.5-.5.5-.5.5-.5.5-.5.6-.5.6-.5.6-.5.6-.5.6-.5.6-.5.6-.5.6-.5.6-.5.6-.5.6-.5.6-.6.6-.5.6-.5.6-.5.6-.6.6-.6.6-.6.6-.6.6-.6.6-.6.7-.6.6-.6.6-.6.7-.6.7-.6.7-.6.7-.6.7-.6.7-.6.7-.6.7-.6.7-.6.7-.6.7-.6.7-.6.7-.6.7-.6.7-.6.7-.6.7-.6.7-.6.7-.6.7-.6.7-.6.7-.6.8-.6.8-.6.8-.6.8-.6.8-.6.8-.6.8-.6.8-.6.8-.6.8-.6.8-.6.8-.6.8-.1.7-.6.8-.6.8-.6.8-.6.8-.6.8-.6.8-.6.8-.6.8-.6.8-.6.8-.6.8-.6.8-.6.8-.6.8-.6.8-.6.8-.6.8-.6.8-.6.8-.6.8-.6.9-.4,1.1-.6.8-.6.9-.6.9-.6.9-.6.8-.6.9-.4.8-.6.9-.6.9-.6.9-.6.9-.5.9-.6.9-.6.9-.5.9-.6.9-.5.9-.5.9-.5.9-.5.9-.5.9-.5.9-.5.9-.5.9-.5.9-.5.9-.5.9-.5.9-.5.9-.5.9-.8.3-.5.9-.5.9-.5.9-.5.9-.5.9-.5.9-.5.9-.5.7-.5.9-.5.9-.5.9-.5.9-.5.9-.5.9-.5.9-.5.9-.5.9-.5.9-.5.9-.5.9-.5.9-.5.9-.5.9-.5.9v.6l-.4.9-.4.9-.4.9-.4.9-.4.9-.4.9-.4.9-.4.9-.4.9-.4.9-.4.9-.4.9-.4.9-.8.3-.4.8-.4.8-.4.8-.4.8-.4.8-.4.8-.4.8-.4.8-.4.8-.4.8-.4.8-.4.8-.4.8-.4.8-.4.8-.4.8-.3.8-.4.8-.3.8-.3.8-.3.8-.3.8-.3.8-.3.8-.3.8-.3.8-.3.8-.3.8-.3.8-.3.7-.3.8-.3.7-.3.7-.3.7-.3.7-.3.7-.3.7-.3.7-.3.7-.3.7-.3.7-.3.7-.3.7-.3.7-.3.7-.3.7-.3.7-.3.7-.3.7-.3.6-.3.6-.3.6-.3.6-.2.6-.3.6-.3.6-.2.6-.2.6-.2.6-.2.6-.2.6-.2.6-.2.6-.2.6-.2.6-.2.6-.2.6-.2.6-.2.5-.2.5-.2.5-.2.5-.2.5-.2.5-.2.5-.2.5-.2.5-.2.5-.2.5-.2.5-.2.5-.2.5-.2.5-.2.4-.2.4-.2.4-.2.4-.2.4-.2.4-.2.4-.2.4-.2.4-.2.4-.2.4-.2.4-.2.4-.2.4-.2.4-.2.3-.2.3-.2.3-.2.3-.2.3-.2.3-.2.3-.2.3-.2.3-.2.3-.2.3-.2.3-.2.3-.2.3-.2.2-.2.2-.2.2-.2.2-.2.2-.2.2-.2.2-.2.2-.2.2-.2.2-.2.2-.2.2-.2.2-.2.1-.2.1-.2.1-.2.1-.2.1-.2.1-.2.1-.2.1-.2.1-.2.1-.2.1-.2.1h-.2l-.2.1h-2.4l-.2-.1h-.4l-.2-.1-.2-.1-.2-.1.6.1-.2-.1-.2-.1-.2-.1-.2-.1-.2-.1-.2-.1-.3-.1-.3-.1-.3-.2-.3-.2-.3-.2-.3-.2-.3-.2-.3-.2-.3-.2-.3-.2-.3-.2-.3-.2-.3-.2-.3-.2-.3-.2-.3-.2-.3-.2-.3-.3-.3-.3-.3-.3-.3-.3-.3-.3-.3-.3-.3-.3-.3-.3-.3-.3-.3-.3-.3-.3-.3-.3-.3-.3-.3-.3-.3-.3-.4-.3-.3-.3-.4-.4-.4-.4-.4-.4-.4-.4-.4-.4-.4-.4-.4-.4-.4-.4-.4-.4-.4-.4-.4-.4-.4-.4-.4-.4-.4-.4-.4-.4-.4-.4-.4-.4-.4-.4-.4-.4-.4-.5-.4-.5-.1-.5-.4-.5-.4-.5-.5-.5-.5-.5-.5-.5-.5-.5-.5-.5-.5-.5-.5-.5-.5-.5-.5-.5-.5-.5-.5-.5-.5-.5-.5-.5-.5-.5-.5-.5-.5-.5-.5-.5-.5-.6-.5-.5-.5-.5-.5-.6-.5-.6-.5-.6-.5-.6-.5-.6-.6-.6-.6-.6-.5-.6-.6-.6-.6-.6-.6-.6-.6-.6-.6-.6-.6-.6-.6-.6-.6-.6-.6-.6-.6-.6-.6-.6-.6-.6-.6-.6-.6-.6-.6-.6-.6-.6-.6-.6-.6-.6-.6-.6-.6-.6-.6-.6-.6-.6-.7-.6-.6-.6-.7-.6-.7-.6-.7-.6-.7-.6-.7-.6-.7-.6-.7-.6-.7-.6-.7-.6-.7-.6-.7-.6-.7-.6-.7-.6-.7-.6-.7-.6-.7-.6-.7-.6-.7-.7-.7-.6-.7-.6-.7-.6-.7-.6-.7-.6-.8-.6-.7-.6-.8-.7-.8-.6-.8-.6-.8-.6-.8-.6-.8-.6-.8-.6-.8-.6-.5-1.7-.8-.6-.8-.6-.8-.6-.8-.6-.8-.6-.8-.6-.8-.6-.8-.6-.8-.6-.8-.6-.8-.6-.8-.6-.8-.6-.8-.6-.8-.6-.8-.6-.8-.6-.8-.6-.8-.6-.8-.6-.8-.6-.8-.6-.8-.6-.8-.6-.8-.6-.8-.6-.8-.6-.8-.6-.8-.6-.8-.6-.8-.6-1.2-1.4-.8-.6-.8-.6-.8-.6-.8-.6-.8-.6-.8-.6-.8-.6-.8-.6-.8-.6-.8-.6-.9-.6-.8-.6-.8-.6-.8-.6-.9-.6-.8-.6-.8-.6-.9-.6-.8-.5-.8-.6-.9-.5-.8-.6-.9-.5-.8-.6-.8-.5-.9-.5-.8-.5-.9-.5-.8-.5-.9-.5-.8-.5-.8-.5-.8-.5-.8-.5-.8-.5-.8-.5-.8-.5-.8-.5-.8-.5-.8-.5-.8-.5-.8-.5-.8-.5-.8-.5-.8-.5-.8-.5-.8-.5-.8-.5-.8-.5-.8-.5-.8-.5-.8-.5-.8-.5-.8-.4-.8-.4-.8-.5-.8-.4-.8-.4-.8-.4-.8-.4-.8-.4-.8-.4-.8-.4-.8-.4-.8-.4-.8-.4-.8-.4-.8-.4-.8-.4-.8-.4-.8-.4-.8-.4-.8-.4-.8-.4-.8-.4-.8-.4-.8-.4-.7-.4-.7-.4-.7-.4-.7-.4-.7-.4-.7-.4-.7-.3-.7-.4-.7-.3-.7-.4-.7-.3-.7-.3-.7-.3-.7-.3-.7-.3-.7-.3-.7-.3-.7-.3-.7-.3-.7-.3-.7-.3-.6-.3-.7-.3-.6-.3-.6-.3-.6-.3-.6-.3-.6-.3-.6-.3-.6-.3-.6-.3-.6-.3-.6-.3-.6-.3-.6-.3-.6-.3-.6-.3-.6-.3-.6-.3-.5-.3-.5-.3-.5-.3-.5-.3-.5-.3-.5-.3-.5-.3-.5-.3-.5-.2-.5-.2-.5-.2-.5-.2-.5-.2-.5-.2-.5-.2-.5-.2-.5-.2-.5-.2-.4-.2-.4-.2-.4-.2-.4-.2-.4-.2-.4-.2-.4-.2-.4-.2-.4-.2-.4-.2-.4-.2-.4-.2-.4-.2-.4-.2-.3-.2-.3-.2-.3-.2-.3-.2-.3-.2-.3-.2-.3-.2-.3-.2-.3-.2-.3-.2-.3-.2-.3-.2-.3-.2-.3-.2-.2-.2-.2-.2-.2-.2-.2-.2-.2-.2-.2-.2-.2-.2-.2-.2-.2-.2-.2-.2-.2-.2-.2-.2-.2-.2-.1-.2-.2-.2-.1-.2-.1-.2-.1-.2-.1-.2-.1-.2-.1-.2-.1-.2-.1-.2-.1-.2-.1-.2-.1-.2v-2.6l.1-.2.1-.2.1-.2.1-.2.1-.2.1-.2.1-.2.1-.2.1-.2.1-.2.1-.2.1-.2.2-.2.2-.2.2-.2.2-.2.2-.3.2-.3.2-.3.2-.3.2-.3.2-.3.2-.3.2-.3.2-.3.2-.3.3-.3.3-.3.3-.3.3-.3.3-.3.3-.3.3-.3.3-.3.3-.3.3-.3.3-.3.3-.3.3-.3.3-.3.3-.3.3-.3.3-.3.3-.3.4-.3.4-.3.4-.3.4-.3.4-.3.4-.3.4-.3.4-.4.4-.4.4-.3.4-.4.4-.4.4-.4.4-.4.5-.4.4-.4.5-.4.5-.4.5-.4.5-.4.5-.4.5-.4.5-.4.5-.4.5-.4.5-.4.5-.4.5-.4.5-.4.5-.4.5-.4.5-.4.5-.4.5-.4.5-.4.5-.5.5-.5.6-.5.6-.5.6-.5.6-.5.6-.5.6-.5.6-.5.6-.5.6-.5.6-.5.6-.5.6-.5.6-.5.6-.5.6-.5.6-.5.6-.5.6-.5.6-.5.6-.5.6-.5.6-.5.6-.6.6-.5.6-.5.6-.6.6-.6.6-.6.6-.6.6-.6.6-.6.7-.6.7-.6.7-.6.7-.6.7-.6.7-.6.7-.6.7-.6.7-.6.7-.6.7-.6.7-.6.7-.6.7-.6.7-.6.7-.6.7-.6.7-.6.7-.6.7-.6.7-.7.7-.7.7-.7.7-.7.7-.7.7-.7.7-.7.7-.7.7-.7.7-.7.7-.7.7-.7.7-.7.7-.7.7-.7.7-.7.7-.7.7-.7.7-.7.7-.7.7-.7.7-.7.7-.7.7-.7.7-.7.7-.7.7-.7.7-.8.7-.7.7-.8.7-.8.7-.8.7-.8.7-.8.7-.8.7-.8.7-.8.7-.8.7-.8.7-.8.7-.8.7-.8.7-.8.7-.8.7-.8.7-.8.7-.8.7-.8.7-.8.7-.8.7-.8.7-.8.7-.8.7-.8.6-.8.7-.8.6-.8.7-.8.6-.8.6-.8.6-.8.6-.8.6-.8.6-.8.6-.8.6-.8.6-.8.6-.8.6-.8.6-.8.6-.8.6-.8.6-.8.6-.8.6-.8.6-.8.6-.8.6-.8.6-.8.6-.8.6-.8.6-.8.6-.8.6-.8.6-.8.6-.8.6-.8.6-.8.6-.8.6-.8.6-.8.5-.8.6-.8.5-.8.6-.8.5-.8.5-.8.5-.8.5-.8.5-.8.5-.8.5-.8.5-.8.5-.8.5-.8.5-.8.5-.8.5-.8.5-.8.5-.8.5-.8.5-.8.5-.8.5-.8.5-.8.5-.8.5-.8.5-.8.5-.8.5-.8.5-.8.5-.8.5-.8.5-.7.4-.8.4-.8.4-.7.4-.7.4-.7.4-.7.4-.7.4-.7.4-.7.4-.7.4-.7.4-.7.4-.7.4-.7.4-.7.4-.7.4-.7.4-.7.4-.7.4-.7.4-.7.4-.7.4-.7.4-.7.4-.7.4-.7.4-.6.4-.7.4-.6.3-.6.4-.6.3-.6.3-.6.3-.6.3-.6.3-.6.3-.6.3-.6.3-.6.3-.6.3-.6.3-.6.3-.6.3-.6.3-.6.3-.6.3-.6.3-.5.3-.5.3-.5.3-.5.3-.5.3-.5.3-.5.3-.5.3-.5.3-.5.3-.5.3-.5.3-.5.3-.5.3-.5.3-.4.3-.4.3-.4.3-.4.3-.4.3-.4.3-.4.2-.4.3-.4.2-.4.2-.4.2-.4.2-.4.2-.4.2-.4.2-.4.2-.3.2-.3.2-.3.2-.3.2-.3.2-.3.2-.3.2-.3.2-.3.2-.3.2-.3.2-.3.2-.3.2-.3.2-.3.2-.2.2-.2.2-.2.2-.2.2-.2.2-.2.2-.2.2-.2.2-.2.2-.2.2-.2.2-.2.2-.1.2-.2.2-.1.2-.1.2-.1.2-.1.2-.1.2-.1.2-.1.2-.1.2-.1.2-.1.2-.1.2-.1.2-.1h2.4l.2.1.2.1.2.1.2.1.2.1.2.1.2.1.2.1.2.1.2.1.2.1.2.1.2.1.2.2.2.1.2.1.2.2.2.2.2.2.2.2.2.2.2.2.2.2.2.2.2.2.2.2.3.2.2.3.3.2.3.3.3.3.3.3.3.3.3.3.3.3.3.3.3.3.3.3.3.3.3.3.3.3.3.3.3.3.3.4.3.4.3.4.3.4.3.4.3.4.3.4.3.4.3.4.3.4.3.4.3.4.3.4.3.4.3.4.3.4.3.4.3.4.3.5.4.5.3.5.4.5.3.5.4.5.4.5.4.5.4.5.4.5.4.5.4.5.4.5.4.5.4.5.4.5.4.5.4.6.4.5.4.6.4.6.4.6.4.6.4.6.4.6.4.6.4.6.4.6.4.6.4.6.5.6.5.6.4.6.5.6.5.6.5.6.5.6.5.6.5.6.5.6.5.6.5.6.5.6.5.6.5.7.5.7.5.7.5.7.5.7.5.7.5.7.5.7.5.7.5.7.5.7.5.7.5.7.5.7.5.7.6.7.6.7.6.7.6.7.6.7.6.7.6.7.6.7.6.7.6.7.6.7.6.7.6.7.6.7.6.7.6.7.6.7.6.7.6.7.6.7.6.7.6.7.6.7.6.7.6.7.6.7.7.7.6.7.7.7.7.7.7.7.7.7.7.7.7.7.7.7.7.7.7.7.7.7.7.7.7.7.7.7.7.7.7.7.7.7.7.7.7.7.7.7.7.7.7.7.7.7.7.7.7.7.7.7.7.7.7.7.7.7.7.7.7.7.7.7.7.7.7.7.7.7.7.7.7.7.7.7.8.7.8.7.8.7.8.7.8.7.8.7.8.7.8.7.8.7.8.7.8.7.8.7.8.7.8.7.8.7.8.7.8.7.8.7.8.7.8.7.8.7.8.7.8.7.8.7.8.7.8.7.8.7.8.7.8.7.8.6.8.6.8.6.8.6.8.6.8.6.8.6.8.6.8.6.8.6.8.6.8.6.8.6.8.6.8.6.8.6.8.6.8.6.8.6.8.6.8.6.8.6.8.6.8.6.8.6.8.6.8.6.8.6.8.5.8.6.8.5.8.6.8.5.7.5.8.5.7.5.7.5.7.5.7.5.7.5.7.5.7.5.7.5.7.5.7.5.7.5.7.5.7.5.7.5.7.5.7.5.7.5.7.5.7.5.7.5.7.5.7.5.7.5.7.4.7.5.7.4.7.4.7.4.7.4.7.4.7.4.7.4.6.4.6.4.6.4.6.4.6.4.6.4.6.4.6.4.6.4.6.4.6.4.6.4.6.4.6.4.6.4.6.4.6.4.6.4.6.4.6.4.6.4.5.4.5.3.5.3.5.3.5.3.5.3.5.3.5.3.5.3.5.3.5.3.5.3.5.3.5.3.5.3.5.3.5.3.5.3.5.3.4.3.4.3.4.3.4.3.4.3.4.3.4.3.4.3.4.3.4.3.4.3.4.3.4.3.4.3.3.3.3.3.3.3.3.3.3.3.3.3.3.2.3.3.3.2.3.2.3.2.3.2.3.2.3.2.3.2.3.2.2.2.2.2.2.2.2.2.2.2.2.2.2.2.2.2.2.2.2.2.2.2.2.2.2.2.1.2.1.2.1.2.1.2.1.2.1.2.1.2.1.2.1.2.1.2.1.2.1.2.1.2v1.4"/></g></g></svg>