<?xml version="1.0" encoding="utf-8"?>
<!-- Generator: Adobe Illustrator 23.0.6, SVG Export Plug-In . SVG Version: 6.00 Build 0)  -->
<svg version="1.1" id="Layer_1" xmlns="http://www.w3.org/2000/svg" xmlns:xlink="http://www.w3.org/1999/xlink" x="0px" y="0px"
	 viewBox="0 0 374.9 394.2" style="enable-background:new 0 0 374.9 394.2;" xml:space="preserve">
<style type="text/css">
	.st0{fill-rule:evenodd;clip-rule:evenodd;fill:#FFFFFF;}
</style>
<title>Asset 6</title>
<g>
	<g id="_Layer_">
		<path class="st0" d="M236.7,2.1c0.8,0.4,1.6,0.9,2.2,0.7c0.3-0.6,0.6-1.2,0.9-1.8c-0.3-0.9-1.2-1.3-2.1-1
			C236.9,0.4,236.4,1.3,236.7,2.1z"/>
		<path class="st0" d="M217.3,2.8l0.6-1.2L216.7,1C216,2,216.2,2.5,217.3,2.8z"/>
		<path class="st0" d="M229.8,12.8c0.6-2-1.1-2.3-1.8-2.3C223,10.2,228.5,17.2,229.8,12.8z"/>
		<path class="st0" d="M239,23.4l0.6-1.2l-1.2-0.6C237.7,22.5,237.9,23.1,239,23.4z"/>
		<path class="st0" d="M218.1,21.1c-2.2-0.5-2.4,0.3-2.8,1.2c-1.1,2.9,5.1,4.8,4.6,0.4C219.7,21.9,219,21.2,218.1,21.1z"/>
		<path class="st0" d="M226.7,34c0.5,0.9,1.6,1.3,2.6,0.8c0.7-0.4,1.1-1.2,1-2c-0.5-0.9-1.6-1.3-2.6-0.8
			C226.9,32.4,226.5,33.2,226.7,34z"/>
		<path class="st0" d="M185.9,14.2l0.6-1.2l-1.2-0.6C184.6,13.3,184.8,13.9,185.9,14.2z"/>
		<path class="st0" d="M195.4,23.5c0.2,0.2,0.4,0.6,0.3,0.9c0.7,0.6,0.9-0.3,1.5,0c0.3-0.5,0.1-1.1-0.4-1.4
			c-0.5-0.3-1.1-0.1-1.4,0.4C195.4,23.4,195.4,23.4,195.4,23.5z"/>
		<path class="st0" d="M205.3,33.4c0.1,0.8,0.4,1.5,0.8,2.2c1.2,0.5,2.5,0,3.1-1.1c0.3-1.1-0.3-2.2-1.4-2.5
			C206.8,31.7,205.6,32.3,205.3,33.4L205.3,33.4z"/>
		<path class="st0" d="M217.9,41.5c-1.3-0.2-2.1,1-2.8,2.7c0.6,4.7,7.8,2.1,5.3-1.9C219.6,42.2,218.5,41,217.9,41.5z"/>
		<path class="st0" d="M174.3,24c0.3,0.2,0.3,0.5,0.3,0.9c0.7,0.6,0.9-0.3,1.5,0c0.3-0.5,0.1-1.1-0.4-1.4c-0.5-0.3-1.1-0.1-1.4,0.4
			C174.3,23.9,174.3,24,174.3,24z"/>
		<path class="st0" d="M227.5,54.5c0.2,0.2,0.4,0.6,0.3,0.9c1.1,0.7,2,0.6,2.5-0.6c0.1-0.8-0.5-1.5-1.3-1.5
			C228.2,53.2,227.5,53.8,227.5,54.5L227.5,54.5z"/>
		<path class="st0" d="M184.6,34.5c0.2,0.2,0.4,0.6,0.3,0.9c1.1,0.7,2,0.6,2.5-0.6c0.1-0.8-0.4-1.5-1.2-1.6
			c-0.8-0.1-1.5,0.4-1.6,1.2C184.7,34.3,184.7,34.4,184.6,34.5z"/>
		<path class="st0" d="M194.1,41.5c-5.8,6.4,6.1,10.3,7.2,3.4c0.3-2.1-1.6-4-4.2-4.2C196,40.6,194.9,40.9,194.1,41.5z"/>
		<path class="st0" d="M205,60.3c6.8,3.6,13.8-8.5,4.1-10.9C201.8,47.6,199.9,57.6,205,60.3z"/>
		<path class="st0" d="M238.8,64.7c0.3,0.2,0.3,0.6,0.3,0.9c0.7,0.6,0.9-0.3,1.5,0c0.3-0.5,0.2-1.1-0.3-1.4
			c-0.5-0.3-1.1-0.2-1.4,0.3C238.8,64.6,238.8,64.6,238.8,64.7z"/>
		<path class="st0" d="M164,34.9c0.3,0.2,0.4,0.6,0.3,0.9c0.7,0.6,0.9-0.3,1.5,0c0.3-0.5,0.1-1.1-0.4-1.4c-0.5-0.3-1.1-0.1-1.4,0.4
			C164,34.8,164,34.8,164,34.9z"/>
		<path class="st0" d="M214.9,63.2c-3.5,6.4,6.3,9.1,8,3.1c0.6-2,0-4.5-3.8-5.1C217.4,60.7,215.6,61.6,214.9,63.2z"/>
		<path class="st0" d="M177.8,45.8c0.6-2-1.1-2.3-1.8-2.3C170.9,43.3,176.4,50.3,177.8,45.8z"/>
		<path class="st0" d="M188.4,51.3c-3-1.1-4.9-0.2-6,1.9c-4,7.4,10.9,10.6,9.2,1.5C191.1,53.1,189.9,51.8,188.4,51.3z"/>
		<path class="st0" d="M90.5,6.1l0.6-1.2l-1.2-0.6C89.1,5.2,89.3,5.8,90.5,6.1z"/>
		<path class="st0" d="M227,76.3c0.5,1.3,2,2,3.4,1.5c1.1-0.4,1.8-1.6,1.6-2.8c-0.5-1.3-2-2-3.4-1.5C227.5,74,226.8,75.1,227,76.3z"
			/>
		<path class="st0" d="M144.1,36.4l0.6-1.2l-1.2-0.6C142.8,35.6,143,36.2,144.1,36.4z"/>
		<path class="st0" d="M194.2,69.8c6.7,4.9,12.4-6.9,4.1-8.7C192.6,59.9,191.1,67.5,194.2,69.8z"/>
		<path class="st0" d="M240,85.1c-0.5-0.2-0.6,0.6-0.9,1.1C240.4,88.8,242.8,84.5,240,85.1z"/>
		<path class="st0" d="M155,46.7l0.6-1.2l-1.2-0.6C153.7,45.9,153.9,46.5,155,46.7z"/>
		<path class="st0" d="M211.8,77.5c0.9-2.3-0.3-4.2-2.9-4.7C199.8,71.2,208.3,86.3,211.8,77.5z"/>
		<path class="st0" d="M165.2,55.3c-0.5-0.2-0.6,0.6-0.9,1C165.5,59,168,54.7,165.2,55.3z"/>
		<path class="st0" d="M80.2,16.9c0.2-0.4,0.4-0.8,0.6-1.2l-1.2-0.6C78.8,16.1,79,16.6,80.2,16.9z"/>
		<path class="st0" d="M178.3,67c0.6-2.1-1.1-2.3-1.8-2.3C171.5,64.4,177,71.5,178.3,67z"/>
		<path class="st0" d="M217.7,87.3c0.8,0.4,1.6,0.9,2.2,0.7c0.3-0.6,0.6-1.2,0.9-1.8c-0.3-0.9-1.2-1.3-2.1-1
			C217.9,85.5,217.4,86.4,217.7,87.3z"/>
		<path class="st0" d="M189.8,77.6c0.5-1.3,0.1-2.9-2.1-3.2C181,73.3,187.5,83.8,189.8,77.6z"/>
		<path class="st0" d="M142.8,57.7c1.8,1.2,2.9,0.8,3.5-1.3C145.7,53.8,141.6,55.2,142.8,57.7z"/>
		<path class="st0" d="M230.4,97.7l0.6-1.2l-1.2-0.6C229,96.8,229.2,97.4,230.4,97.7z"/>
		<path class="st0" d="M194.9,85.9c-1.6,4.2,4.7,6.3,6.3,2.2c0.7-1.8,0.3-3.8-2.7-4.2C197,83.5,195.4,84.3,194.9,85.9
			C194.9,85.9,194.9,85.9,194.9,85.9z"/>
		<path class="st0" d="M282.7,127c0.3,0.2,0.3,0.6,0.3,0.9c0.7,0.6,0.9-0.3,1.5,0c0.3-0.5,0.1-1.1-0.4-1.4s-1.1-0.1-1.4,0.4
			C282.7,126.9,282.7,127,282.7,127z"/>
		<path class="st0" d="M153.6,68c1.8,1.2,2.9,0.8,3.5-1.3C156.5,64.1,152.4,65.5,153.6,68z"/>
		<path class="st0" d="M176.7,85.7c-5,1.4,1.5,6.7,2.3,2.2c0.2-1-0.5-2-1.6-2.2C177.2,85.6,177,85.6,176.7,85.7z"/>
		<path class="st0" d="M218.3,107.7c0.2,0.2,0.4,0.6,0.3,0.9c1.2,0.7,2,0.6,2.5-0.6c0.1-0.8-0.5-1.5-1.3-1.5
			C219,106.3,218.3,106.9,218.3,107.7z"/>
		<path class="st0" d="M261.5,127.6c0.3,0.2,0.3,0.6,0.3,0.9c0.7,0.6,0.9-0.3,1.5,0c0.3-0.5,0.1-1.1-0.4-1.4s-1.1-0.1-1.4,0.4
			C261.6,127.5,261.6,127.5,261.5,127.6z"/>
		<path class="st0" d="M133.8,66.6c-0.5-0.2-0.6,0.6-0.9,1C134.1,70.4,136.6,66.1,133.8,66.6z"/>
		<path class="st0" d="M91,46.6c-0.5-0.2-0.6,0.6-0.9,1C91.3,50.4,93.7,46,91,46.6z"/>
		<path class="st0" d="M184.2,96.2c-2.5,5.2,5,7.9,7.2,3.4c1.1-2.4,0.6-4.7-2.9-5.4C186.2,93.7,185,94.4,184.2,96.2z"/>
		<path class="st0" d="M230.4,116c-5,1.4,1.4,6.7,2.3,2.2c0.2-1-0.6-2-1.6-2.2C230.8,116,230.6,116,230.4,116z"/>
		<path class="st0" d="M143.4,77.9c0.3,0.2,0.4,0.6,0.3,0.9c1.2,0.7,2,0.6,2.5-0.6c0.1-0.8-0.4-1.5-1.2-1.6s-1.5,0.4-1.6,1.2
			C143.5,77.7,143.5,77.8,143.4,77.9z"/>
		<path class="st0" d="M241.8,124.4c-2.8-0.4-3.3,0.9-3.7,1.6c-4.6,7.2,10.1,8.9,7.3,0.9C244.7,125.4,243.4,124.5,241.8,124.4z"/>
		<path class="st0" d="M155.4,85.8c-5.5,1.2,1.6,8.7,3,2.2C158.3,87,156.8,85.4,155.4,85.8z"/>
		<path class="st0" d="M198.4,106.3c-5,1.4,1.4,6.7,2.3,2.2c0.2-1-0.6-2-1.6-2.2C198.9,106.2,198.6,106.2,198.4,106.3z"/>
		<path class="st0" d="M283.2,148.2c0.2,0.2,0.4,0.6,0.3,0.9c0.7,0.6,0.9-0.3,1.5,0c0.3-0.5,0.2-1.1-0.3-1.4
			c-0.5-0.3-1.1-0.2-1.4,0.3C283.3,148,283.3,148.1,283.2,148.2z"/>
		<path class="st0" d="M162.4,96.4c-2.8,5.9,6.1,9.4,8.5,3.7c1-2.5,0.4-5.1-3.4-6C165,93.5,163.5,94.2,162.4,96.4z"/>
		<path class="st0" d="M210.4,115.7c-2-0.6-3.3,0.2-3.8,1.1c-3.3,5.6,7.1,6.3,6.1,1.1C212.4,116.8,211.5,115.9,210.4,115.7z"/>
		<path class="st0" d="M249,139.2c0.2,1.4,2.8,2.9,4.3,2.4c1.1-0.4,2.1-2.4,2.1-3.7C254.4,134.5,248.8,134.7,249,139.2z"/>
		<path class="st0" d="M82.9,58.9c0.6-2-1.1-2.3-1.8-2.3C76.1,56.3,81.6,63.3,82.9,58.9z"/>
		<path class="st0" d="M173.7,106.6c-3.5,6.5,6.3,9.1,8,3.1c0.6-2,0-4.5-3.8-5.1C176.2,104.1,174.4,105,173.7,106.6z"/>
		<path class="st0" d="M218.9,132.5c5,2,7.2-6,2.4-7.3C215.9,123.8,214.9,130.9,218.9,132.5z"/>
		<path class="st0" d="M265,149.4c0.6-2.1-1.1-2.3-1.8-2.3C258.2,146.8,263.7,153.9,265,149.4z"/>
		<path class="st0" d="M136.9,89.4c0.6-1.6-0.4-2.6-2-2.8C129.2,86,134.9,95,136.9,89.4z"/>
		<path class="st0" d="M144.8,104.9c6.4,0.9,9-8.8,2.8-11.2C138.9,90.5,137.2,103.8,144.8,104.9z"/>
		<path class="st0" d="M186.5,124.4c6.9,2.6,11-8.8,2.9-10.7C181.8,111.9,181.1,122.3,186.5,124.4z"/>
		<path class="st0" d="M228.3,135.9c-5.7,6.4,6.1,10.3,7.2,3.4c0.3-2.1-1.6-4-4.2-4.2C230.2,134.9,229.1,135.2,228.3,135.9z"/>
		<path class="st0" d="M274.1,156.6c-1.5-0.1-2.5-0.2-2.9,2.3c-0.8,5.7,8.6,1.5,4.9-1.7C275.4,156.8,274.7,156.6,274.1,156.6z"/>
		<path class="st0" d="M227.9,174.2c3.2-6.7-5.1-12.8-10.5-9.4c5-7.4-4.9-13.8-10.1-11.8c1.2-2.8,0.2-4.9-0.7-6.9
			c4.9,1.8,8.6-0.1,10.1-3.6c3.5-8.1-9.4-14.8-13.4-5.7c-1.1,2.5,0.2,4.9,0.1,6.7c-2.8-2.1-5.6-0.4-7-0.8c0.7-2.9,0-6-1.9-8.3
			c9.3,6.7,15.9-7.8,7.3-11.5c-6.7-2.9-12.7,6.2-7.6,11.4c-3.3-3.2-7.9-1.6-9.8-1c4.4-9.3-9-14.2-12.9-6.9
			c-3.5,6.7,4.4,12.9,10.2,10c-1.8,3-0.1,6-0.3,7.6c-3.1-1.9-6,0.4-7.5,0.4c2.6-5,0.6-10.1-5.2-11.3c-8.4-1.8-12.4,12.9-2.1,15.1
			c1.8,0.4,3.7-1,5.3-1.1c-2.5,3.5-0.2,6.7,0,8.4c-10.9-6-16,12.6-4,13.8c1.5,0.1,3.1-1.1,4.6-1.1c-5.8,11.1,12.6,16.4,14.3,4.6
			c0.2-1.4-0.9-3.2-0.5-4.3c2.6,1.4,5.6-0.2,6.9,0c-3.4,6.2,4.1,12.4,9.7,10.5c4.6-1.6,5.6-7.2,4.8-10.9c2.9,1.2,5.1,0.3,7.2-0.6
			C210.7,177,224.3,181.9,227.9,174.2z M174.5,166.3c1.1-3.3,1.8-6.4-0.3-8.6c2.9,0.9,5.7,1.6,7.7,0c-0.3,2.6-0.9,5.3,0.6,7.2
			C179.6,164.7,176.5,163.9,174.5,166.3L174.5,166.3z M185.7,154.4c0.6-2.5,0.9-5-0.4-6.8c2.2,0.1,4.7,1,6.4-0.3
			c0.5,2-0.8,4.6,0.7,6.2C190.1,153.7,187.5,153,185.7,154.4z M196.9,164.9c0.4-2.3,0.4-4.7,0-7c1.9,1,4.1,0.9,5.9-0.1
			c-0.2,2.3-0.6,4.7,0.6,6.5C201.1,164.1,198.5,163.2,196.9,164.9z"/>
		<path class="st0" d="M157.2,102.7c-7.3-1.3-9.4,8.6-5.6,11.6c8.5,6.8,14.3-6.3,9.3-10.2C159.9,103.4,158.6,102.9,157.2,102.7z"/>
		<path class="st0" d="M59.5,58c-0.5-0.2-0.6,0.6-0.9,1.1C59.8,61.8,62.3,57.4,59.5,58z"/>
		<path class="st0" d="M241.8,146.7c-1.3-0.2-2.1,1-2.8,2.7c0.6,4.7,7.8,2.1,5.3-1.9C243.5,147.4,242.3,146.2,241.8,146.7z"/>
		<path class="st0" d="M283.3,169.5c0.2,0.2,0.4,0.6,0.3,0.9c1.2,0.7,2,0.6,2.5-0.6c0.1-0.8-0.4-1.5-1.2-1.6
			c-0.8-0.1-1.5,0.4-1.6,1.2C283.3,169.3,283.3,169.4,283.3,169.5z"/>
		<path class="st0" d="M69.1,70.2c1.8,1.2,2.9,0.8,3.5-1.2C72,66.2,67.8,67.7,69.1,70.2z"/>
		<path class="st0" d="M162.9,123c6.2,6.6,15-6.4,5.2-8.5C162.1,113.2,160.9,120.9,162.9,123z"/>
		<path class="st0" d="M120.4,96.9c-2.6,4.2,0.5,6.5,2.8,7.2c5.3,1.5,8.8-7.7,1.8-9.1C123.2,94.6,121.4,95.3,120.4,96.9z"/>
		<path class="st0" d="M216,145.4c-4.6,5.8,0,10.1,3.9,11c6.9,1.5,11.2-11,1.7-12.8C219.6,143.3,217.5,144,216,145.4z"/>
		<path class="st0" d="M251.4,160.4c0.8,0.4,1.6,0.9,2.2,0.7c0.3-0.6,0.6-1.2,0.9-1.8c-0.3-0.8-1.3-1.2-2.1-0.9
			C251.5,158.8,251.1,159.6,251.4,160.4z"/>
		<path class="st0" d="M132.3,115.8c7.8,3.7,13.3-9.1,5-11.9C129.6,101.2,124.9,112.2,132.3,115.8z"/>
		<path class="st0" d="M260.4,170.6c0.2,1.4,2.8,2.9,4.3,2.4c1.1-0.4,2.1-2.4,2.1-3.7C265.8,165.9,260.2,166.2,260.4,170.6z"/>
		<path class="st0" d="M145.4,126c6.4,0.9,9-8.8,2.8-11.1C139.5,111.7,137.7,124.9,145.4,126z"/>
		<path class="st0" d="M227.6,157.9c-3.6,6.7,6.4,9.6,8.5,3.7c0.9-2.4,0.2-5.1-3.8-5.8C230.4,155.3,228.5,156.2,227.6,157.9z"/>
		<path class="st0" d="M271.9,181.2c1.9,5,8.7-2.4,3-3.3c-1.4-0.3-2.8,0.7-3.1,2.1C271.7,180.4,271.8,180.8,271.9,181.2z"/>
		<path class="st0" d="M103,97.4c-1.3-0.2-2.1,1-2.8,2.7c0.6,4.7,7.8,2.1,5.3-1.9C104.7,98.1,103.5,96.8,103,97.4z"/>
		<path class="st0" d="M152.1,128.1c-3.1,6.5,6.9,10.8,9.7,4.3c1.1-2.7,0.4-5.8-3.7-6.9C155.3,124.7,153.4,125.4,152.1,128.1z"/>
		<path class="st0" d="M59.3,79.9c0.3,0.2,0.3,0.6,0.3,0.9c0.7,0.6,0.9-0.3,1.5,0c0.3-0.5,0.1-1.1-0.4-1.4c-0.5-0.3-1.1-0.1-1.4,0.4
			C59.4,79.8,59.3,79.8,59.3,79.9z"/>
		<path class="st0" d="M110,107.3c-5.2,7.7,7.6,11.6,9.2,3.7c0.4-2.2-0.5-4.9-4.7-5.5C112.8,105.1,111,105.8,110,107.3z"/>
		<path class="st0" d="M240,171.2c0.5,1.3,2,2,3.4,1.5c1.1-0.4,1.8-1.6,1.6-2.7c-0.5-1.3-2-2-3.4-1.5
			C240.5,168.9,239.9,170,240,171.2z"/>
		<path class="st0" d="M283.9,191.4c0.8,0.4,1.7,0.9,2.2,0.7c0.3-0.6,0.6-1.2,0.9-1.8c-0.3-0.8-1.3-1.2-2.1-0.9
			C284,189.7,283.6,190.5,283.9,191.4z"/>
		<path class="st0" d="M121.1,116.3c-8.1,7.9,8.6,15.1,9.6,4.6c0.2-2.1-0.7-4.4-4.4-5.4C124.5,114.8,122.6,115.2,121.1,116.3z"/>
		<path class="st0" d="M251.2,181.6c0.8,0.8,1.9,1.4,3,1.4c0.8-0.8,1.4-1.9,1.4-3C254,177.8,251,178.8,251.2,181.6z"/>
		<path class="st0" d="M80.4,101.7c1.8,1.2,2.9,0.8,3.5-1.3C83.3,97.7,79.2,99.1,80.4,101.7z"/>
		<path class="st0" d="M131.5,134.4c6.2,6.6,15-6.4,5.2-8.5C130.7,124.6,129.4,132.3,131.5,134.4z"/>
		<path class="st0" d="M267,192.1c0.6-1.7,0.4-3.5-2.6-3.8C257.2,187.6,264.3,199.2,267,192.1z"/>
		<path class="st0" d="M89.2,110.2c-1.1,4.2,6,6.7,7.4,1.3c0.4-1.7,0-3.8-3.5-4.2C91.2,107.1,89.9,107.4,89.2,110.2z"/>
		<path class="st0" d="M148.1,136.5c-3.5-1.1-5.2,0.1-6.3,2.5c-4.1,8.6,12.8,10.1,9.9,0.7C151.1,138.1,149.7,136.9,148.1,136.5z"/>
		<path class="st0" d="M228.2,179.1c-3.6,6.7,6.4,9.6,8.5,3.7c0.9-2.5,0.2-5.1-3.8-5.9C231,176.4,229,177.3,228.2,179.1z"/>
		<path class="st0" d="M100,119c-3.5,6.5,6.3,9.1,8,3.1c0.6-2,0-4.5-3.8-5.1C102.5,116.6,100.7,117.4,100,119z"/>
		<path class="st0" d="M277.9,202.4c0.6-1.7,0.4-3.5-2.6-3.8C268.1,197.9,275.2,209.5,277.9,202.4z"/>
		<path class="st0" d="M154.9,157.7c7.8,3.4,13.4-9.5,4.4-12.2C151.2,143.1,148,154.7,154.9,157.7z"/>
		<path class="st0" d="M111.2,135.4c6.7,4.9,12.4-6.9,4.1-8.7C109.6,125.5,108.1,133.1,111.2,135.4z"/>
		<path class="st0" d="M244,188.8c-2-0.6-3.3,0.2-3.8,1.1c-3.3,5.6,7.1,6.3,6.1,1.1C245.9,189.9,245.1,189.1,244,188.8z"/>
		<path class="st0" d="M208.4,188.3c8.6,3.7,13.1-9.8,5-12.7C204.5,172.6,201.2,185.2,208.4,188.3z"/>
		<path class="st0" d="M286.2,212.6l0.6-1.2l-1.2-0.6C284.9,211.8,285.1,212.4,286.2,212.6z"/>
		<path class="st0" d="M70,112.1c0.5,0.9,1.6,1.3,2.6,0.8c0.7-0.4,1.1-1.2,1-2c-0.5-0.9-1.6-1.3-2.6-0.8
			C70.2,110.4,69.8,111.3,70,112.1z"/>
		<path class="st0" d="M120.1,139.2c-3.4,7.1,7.4,12.1,10.7,5.1c1.6-3.3,0.6-6.8-3.8-8.1C123.9,135.4,121.5,136.2,120.1,139.2z"/>
		<path class="st0" d="M254,199.4c-1.5-0.1-2.6-0.2-2.9,2.3c-0.8,5.7,8.6,1.5,4.9-1.7C255.4,199.6,254.7,199.4,254,199.4z"/>
		<path class="st0" d="M85.4,122.7c0.6-1.7,0.4-3.5-2.6-3.8C75.6,118.2,82.7,129.8,85.4,122.7z"/>
		<path class="st0" d="M138.6,158.7c5.8-2.1,6-11-0.4-13C126.2,142,127.5,162.6,138.6,158.7z"/>
		<path class="st0" d="M217.7,195.7c6.2,6.6,15-6.4,5.2-8.5C216.9,185.9,215.6,193.5,217.7,195.7z"/>
		<path class="st0" d="M261.5,212.9c0.3,1.4,2.9,2.9,4.3,2.4c1.1-0.4,2.1-2.4,2.1-3.7C266.9,208.2,261.3,208.4,261.5,212.9z"/>
		<path class="st0" d="M94.4,129.2c-2-0.6-3.3,0.2-3.8,1.1c-3.3,5.6,7,6.3,6.1,1.1C96.4,130.3,95.5,129.5,94.4,129.2z"/>
		<path class="st0" d="M187.2,188.9c7.6,3.3,14.6-9.8,4.6-12.8C183.5,173.5,180,185.8,187.2,188.9z"/>
		<path class="st0" d="M143.3,158c-8.1,7.9,8.6,15.1,9.6,4.6c0.2-2.1-0.7-4.4-4.4-5.4C146.7,156.5,144.8,156.9,143.3,158z"/>
		<path class="st0" d="M271.7,220.7c-2.5,5.3,5.7,8.7,7.9,3.4c0.9-2.1,0.2-4.6-2.9-5.4C274.4,218.1,272.7,218.7,271.7,220.7z"/>
		<path class="st0" d="M229,200.4c-3.5,6.5,6.3,9.1,8,3.1c0.6-2,0-4.5-3.8-5.1C231.5,197.9,229.7,198.8,229,200.4z"/>
		<path class="st0" d="M100.8,138.9c-6.2,7.4,6.9,11.5,8.3,4c0.5-2.6-1.5-4.7-4.5-5.1C103.3,137.5,101.8,137.9,100.8,138.9z"/>
		<path class="st0" d="M198.5,198.3c6.6,2.8,12.2-8.3,4.1-10.9C195.1,185,192.6,195.8,198.5,198.3z"/>
		<path class="st0" d="M153.7,168.5c-8.2,9.1,9.6,14.8,10.4,4.2c0.2-2.9-1.8-5.1-5.3-5.8C157,166.4,155,167,153.7,168.5z"/>
		<path class="st0" d="M60,123c0.8,0.4,1.7,0.9,2.2,0.7c0.3-0.6,0.6-1.2,0.8-1.8c-0.3-0.9-1.2-1.3-2.1-1
			C60.1,121.3,59.7,122.2,60,123z"/>
		<path class="st0" d="M110.9,156.1c6.2,6.6,15-6.4,5.2-8.5C110.1,146.3,108.8,154,110.9,156.1z"/>
		<path class="st0" d="M246.4,213.8c0.6-1.7,0.4-3.5-2.6-3.8C236.6,209.3,243.7,220.9,246.4,213.8z"/>
		<path class="st0" d="M288.4,233.4c0.6-2-1.1-2.3-1.8-2.3C281.5,230.9,287,237.9,288.4,233.4z"/>
		<path class="st0" d="M164.4,188.3c8.6,6.2,16.2-9.2,5.6-11.6C162.8,175,159.6,184.8,164.4,188.3z"/>
		<path class="st0" d="M70.3,132c0.2,0.8,0.4,1.5,0.8,2.2c1.2,0.5,2.5,0,3.1-1.1c0.3-1.1-0.3-2.2-1.4-2.5
			C71.8,130.3,70.7,130.9,70.3,132z"/>
		<path class="st0" d="M208,198.4c-6.6,6.2,3.6,14.4,8,8.6c3.4-4.5,0.7-8.5-3.6-9.4C210.4,197.2,209,197.4,208,198.4z"/>
		<path class="st0" d="M126.6,157.8c-7.2-1.2-7.4,9-1.7,10.5c6.1,1.6,7.7-7.1,4.8-9.4C128.8,158.2,127.7,157.8,126.6,157.8z"/>
		<path class="st0" d="M251.6,222.1c-1.5,4,6.3,6.2,5.9,0.6c-0.2-1.3-1.3-2.2-2.6-2.3C252.6,220,252,221.1,251.6,222.1z"/>
		<path class="st0" d="M79.9,143.5c0.2,1.4,2.8,2.9,4.3,2.4c1.1-0.4,2.1-2.4,2.2-3.7C85.3,138.8,79.7,139.1,79.9,143.5z"/>
		<path class="st0" d="M296.2,243c0.3,0.2,0.4,0.6,0.3,0.9c0.7,0.6,0.9-0.3,1.5,0c0.3-0.5,0.1-1.1-0.4-1.4c-0.5-0.3-1.1-0.1-1.4,0.4
			C296.3,242.9,296.3,243,296.2,243z"/>
		<path class="st0" d="M174.8,188.8c-4.6,5.8,0,10.2,3.9,11c6.9,1.5,11.2-11,1.7-12.8C178.4,186.7,176.3,187.3,174.8,188.8z"/>
		<path class="st0" d="M42.4,123.8c0.6-1.6-0.4-2.6-2-2.8C34.7,120.5,40.5,129.4,42.4,123.8z"/>
		<path class="st0" d="M261.8,229.9c-6.1,7.4,6.9,11.5,8.4,4c0.5-2.6-1.5-4.7-4.5-5.1C264.3,228.5,262.8,229,261.8,229.9z"/>
		<path class="st0" d="M218.6,211.5c-2.7,5.6,5.8,8.7,7.9,3.4c0.9-2.3,0.4-4.8-3.2-5.6C220.9,208.8,219.5,209.5,218.6,211.5z"/>
		<path class="st0" d="M95.7,148.9c-3-1.1-4.9-0.2-6,1.9c-4,7.4,11,10.6,9.2,1.5C98.4,150.7,97.2,149.4,95.7,148.9z"/>
		<path class="st0" d="M132.6,171.3c-2.7,5.7,6.1,9.4,8.5,3.7c1-2.4,0.3-4.9-3.1-5.9C135.5,168.3,133.8,168.9,132.6,171.3z"/>
		<path class="st0" d="M47.4,131.7c-2.5,5.2,5,7.9,7.2,3.4c1.2-2.4,0.6-4.7-2.9-5.4C49.4,129.3,48.3,129.9,47.4,131.7z"/>
		<path class="st0" d="M188.6,209c6.9,2.6,11-8.8,2.9-10.7C184,196.5,183.2,206.9,188.6,209z"/>
		<path class="st0" d="M142.2,185.7c4.5,10.8,18.7-5.3,6.2-7.7c-3.1-0.6-6,1.5-6.5,4.5C141.7,183.6,141.8,184.7,142.2,185.7z"/>
		<path class="st0" d="M99.4,165.7c4.5,10.8,18.7-5.3,6.2-7.7c-3.1-0.6-6,1.5-6.5,4.5C98.9,163.6,99,164.7,99.4,165.7z"/>
		<path class="st0" d="M272.8,240.7c-5.2,6.6,6.2,10.5,7.8,3.7c0.6-2.6-1.1-4.3-3.9-4.8C275.3,239.2,273.8,239.7,272.8,240.7z"/>
		<path class="st0" d="M234.3,220.8c-2-0.6-3.3,0.2-3.8,1.1c-3.3,5.6,7,6.3,6.1,1.1C236.2,221.9,235.4,221.1,234.3,220.8z"/>
		<path class="st0" d="M58.1,143.1c-1.1,4.2,6,6.7,7.4,1.3c0.4-1.7,0-3.8-3.5-4.2C60.1,140,58.8,140.3,58.1,143.1z"/>
		<path class="st0" d="M318.2,263.8c0.2,0.2,0.4,0.6,0.3,0.9c0.7,0.6,0.9-0.3,1.5,0c0.2-0.5,0-1.1-0.5-1.3S318.5,263.3,318.2,263.8z
			"/>
		<path class="st0" d="M197.1,218.9c8.4,6.1,15.8-8.7,5.3-11.1C194.7,206.1,193.5,216.2,197.1,218.9z"/>
		<path class="st0" d="M156.2,199.4c6.6,2.8,12.2-8.3,4.1-10.9C152.8,186.1,150.3,196.8,156.2,199.4z"/>
		<path class="st0" d="M113.4,179.3c6.5,2.8,12.2-8.3,4.1-10.9C110,166,107.5,176.8,113.4,179.3z"/>
		<path class="st0" d="M69.5,150.7c-5.2,6.6,6.2,10.5,7.8,3.7c0.6-2.6-1.1-4.3-3.9-4.8C72,149.3,70.5,149.7,69.5,150.7z"/>
		<path class="st0" d="M284.5,254.6c0.5,1.3,2,2,3.4,1.5c1.1-0.4,1.8-1.6,1.6-2.8c-0.5-1.3-2-2-3.4-1.5
			C285,252.3,284.3,253.5,284.5,254.6z"/>
		<path class="st0" d="M241.9,234.7c0.8,0.8,1.9,1.4,3,1.4c0.8-0.8,1.4-1.9,1.4-3C244.7,230.9,241.8,232,241.9,234.7z"/>
		<path class="st0" d="M329.8,273.3c-0.5-0.2-0.6,0.6-0.9,1C330.1,277.1,332.6,272.8,329.8,273.3z"/>
		<path class="st0" d="M165,208.7c7.8,6.4,16.3-8.6,5-10.4C163.2,197.1,162.1,206.4,165,208.7z"/>
		<path class="st0" d="M207.1,221.8c-3.2,6.8,7.4,11.5,10.3,4.5c1.2-2.9,0.3-6.2-3.8-7.3C210.7,218.2,208.4,219,207.1,221.8z"/>
		<path class="st0" d="M125,189.6c6.4,2,10.8-9.1,2.6-10.9C120,177.1,119.2,187.8,125,189.6z"/>
		<path class="st0" d="M251.3,242.1c-3.5,6.4,6.3,9.1,8,3.1c0.6-2,0-4.5-3.8-5.1C253.8,239.6,252,240.5,251.3,242.1z"/>
		<path class="st0" d="M80.2,167.5c6.3,5.3,12.5-6.9,3.8-8.1C79.9,158.9,76.8,164.7,80.2,167.5z"/>
		<path class="st0" d="M296.2,263.9c-0.1,0.9,0.5,1.8,1.4,1.9c0.8,0.1,1.6-0.3,1.9-1.1c0.1-0.9-0.5-1.8-1.4-1.9
			C297.2,262.7,296.5,263.1,296.2,263.9z"/>
		<path class="st0" d="M134.9,200.2c7.3,3.1,12.6-8.7,4.4-11.5C131.3,186,128.6,197.5,134.9,200.2z"/>
		<path class="st0" d="M174.8,211.9c-3.4,7.1,7.4,12.1,10.7,5.1c1.6-3.3,0.6-6.8-3.9-8.1C178.6,208.1,176.3,208.8,174.8,211.9z"/>
		<path class="st0" d="M266.5,249.4c-7.2-1.2-7.4,9-1.7,10.5c6.1,1.6,7.7-7.1,4.9-9.4C268.7,249.8,267.6,249.4,266.5,249.4z"/>
		<path class="st0" d="M218.8,232.5c-2.7,5.7,6.1,9.4,8.5,3.7c1-2.4,0.3-4.9-3.1-5.9C221.7,229.6,220,230.1,218.8,232.5z"/>
		<path class="st0" d="M90.3,177.8c6.2,6.6,15-6.4,5.2-8.5C89.5,168,88.2,175.6,90.3,177.8z"/>
		<path class="st0" d="M307.2,275.4c0.5,0.9,1.7,1.3,2.6,0.8c0.7-0.4,1.1-1.2,1-2c-0.5-0.9-1.7-1.3-2.6-0.8
			C307.4,273.8,307,274.6,307.2,275.4z"/>
		<path class="st0" d="M54.4,155.6c0.7-1.7,0.4-3.5-2.6-3.8C44.6,151,51.7,162.7,54.4,155.6z"/>
		<path class="st0" d="M188.6,230.6c7.2,3.1,12.6-8.7,4.4-11.5C185,216.4,182.3,227.8,188.6,230.6z"/>
		<path class="st0" d="M144.1,209.4c7.4,5.7,15.7-8.3,5-10.4C142.1,197.5,140.9,206.9,144.1,209.4z"/>
		<path class="st0" d="M101,181.4c-5.2,8,8.1,12.3,9.8,4c0.6-2.8-1.1-5.3-4.8-6C104.1,179,102.1,179.8,101,181.4z"/>
		<path class="st0" d="M237.1,245.6c0.5-1.6,0.2-3.5-2.9-3.9C225.8,240.5,234.5,254.3,237.1,245.6z"/>
		<path class="st0" d="M274,265.8c1.9,5,8.7-2.5,3-3.3c-1.4-0.3-2.8,0.7-3.1,2.1C273.9,265,273.9,265.4,274,265.8z"/>
		<path class="st0" d="M318,285.7c0.5,0.9,1.6,1.3,2.5,0.8c0.8-0.4,1.2-1.2,1-2.1c-0.5-0.9-1.6-1.3-2.5-0.8
			C318.2,284,317.8,284.9,318,285.7z"/>
		<path class="st0" d="M154.2,210.5c-4.6,5.8,0,10.1,3.9,11c6.9,1.5,11.2-11,1.7-12.8C157.8,208.4,155.7,209,154.2,210.5z"/>
		<path class="st0" d="M62.2,163c-5,1.4,1.5,6.7,2.3,2.2c0.2-1-0.6-2-1.6-2.2C62.6,163,62.4,163,62.2,163z"/>
		<path class="st0" d="M200,239.7c5.3,2.2,10.3-7.4,2.9-9.2C196.9,229,194.9,237.5,200,239.7z"/>
		<path class="st0" d="M112,192.9c-2.8,5.9,6.2,9.4,8.5,3.7c1-2.5,0.4-5.1-3.4-6C114.6,190,113.1,190.7,112,192.9z"/>
		<path class="st0" d="M247.2,255.9c0.5-1.4,0.1-2.9-2.1-3.2C238.4,251.7,245,262.2,247.2,255.9z"/>
		<path class="st0" d="M329.2,295.4c0.2,0.2,0.4,0.6,0.3,0.9c1.2,0.7,2,0.6,2.5-0.6c0.1-0.8-0.5-1.5-1.3-1.5
			S329.2,294.6,329.2,295.4L329.2,295.4z"/>
		<path class="st0" d="M286,275.2c0.2,0.2,0.4,0.6,0.3,0.9c1.2,0.7,2,0.6,2.5-0.6c0.1-0.8-0.4-1.5-1.2-1.6c-0.8-0.1-1.5,0.4-1.6,1.2
			C286,275,286,275.1,286,275.2z"/>
		<path class="st0" d="M75.2,175.7c0.6-2.1-1.1-2.3-1.8-2.3C68.3,173.1,73.8,180.2,75.2,175.7z"/>
		<path class="st0" d="M122.8,201c-8.2,9.1,9.6,14.8,10.4,4.2c0.2-2.9-1.8-5.1-5.3-5.8C126.1,198.9,124.1,199.5,122.8,201z"/>
		<path class="st0" d="M169.1,230.8c6.3,1.4,9-9.3,1.4-10.7C163.4,218.8,162.5,229.2,169.1,230.8z"/>
		<path class="st0" d="M216.1,246.6c0.9-2.3-0.3-4.2-2.9-4.7C204.1,240.3,212.6,255.4,216.1,246.6z"/>
		<path class="st0" d="M340,305.7c0.2,0.2,0.4,0.6,0.3,0.9c1.2,0.7,2,0.6,2.5-0.6c0.1-0.8-0.4-1.5-1.2-1.6c-0.8-0.1-1.5,0.4-1.6,1.2
			C340,305.5,340,305.6,340,305.7z"/>
		<path class="st0" d="M253.9,266.5c1.8,1.2,2.9,0.8,3.5-1.3C256.8,262.5,252.7,264,253.9,266.5z"/>
		<path class="st0" d="M297.2,285.6c0.3,0.2,0.4,0.5,0.3,0.9c1.2,0.7,2,0.6,2.5-0.6c0.1-0.8-0.4-1.5-1.2-1.6
			c-0.8-0.1-1.5,0.4-1.6,1.2C297.2,285.5,297.2,285.6,297.2,285.6z"/>
		<path class="st0" d="M135.2,221.2c7,3.3,14-9.2,4.1-11.6C131.6,207.7,129.4,218.4,135.2,221.2z"/>
		<path class="st0" d="M43.5,166.1c0.6-1.6-0.4-2.6-2-2.8C35.8,162.8,41.6,171.7,43.5,166.1z"/>
		<path class="st0" d="M86,186c0.6-2.1-1.1-2.3-1.8-2.3C79.2,183.5,84.7,190.5,86,186z"/>
		<path class="st0" d="M182.4,231.3c-2.9-1.1-4.9-0.2-6,1.9c-4,7.4,11,10.6,9.2,1.5C185.1,233.1,183.9,231.8,182.4,231.3z"/>
		<path class="st0" d="M223.6,253.1c-1.5-0.1-2.6-0.2-2.9,2.3c-0.8,5.7,8.6,1.5,4.9-1.7C225,253.3,224.3,253.1,223.6,253.1z"/>
		<path class="st0" d="M308,295.9c0.2,0.2,0.4,0.6,0.3,0.9c1.1,0.7,2,0.6,2.5-0.6c0.1-0.8-0.4-1.5-1.2-1.6c-0.8-0.1-1.5,0.4-1.6,1.2
			C308,295.8,308,295.8,308,295.9z"/>
		<path class="st0" d="M94.7,193.1c-1.3-0.2-2.1,1-2.8,2.7c0.6,4.7,7.8,2.1,5.3-1.9C96.4,193.8,95.3,192.6,94.7,193.1z"/>
		<path class="st0" d="M143.4,223.3c-3.4,7.1,7.4,12,10.7,5.1c1.6-3.3,0.6-6.8-3.9-8.1C147.2,219.5,144.8,220.2,143.4,223.3z"/>
		<path class="st0" d="M51.8,174.8c-0.5-0.1-0.6,0.6-0.9,1C52.1,178.6,54.6,174.3,51.8,174.8z"/>
		<path class="st0" d="M187.6,245.1c-1.2,4.6,6.5,7.3,8,1.6c0.5-1.8,0-4.1-3.6-4.7C189.9,241.7,188.3,242.1,187.6,245.1z"/>
		<path class="st0" d="M362.1,326.1c0.3,0.2,0.4,0.6,0.3,0.9c0.7,0.6,0.9-0.3,1.5,0c0.3-0.5,0.1-1.1-0.4-1.4
			c-0.5-0.3-1.1-0.1-1.4,0.4C362.2,326,362.2,326.1,362.1,326.1z"/>
		<path class="st0" d="M102.5,206.7c0.2,1.4,2.8,2.9,4.3,2.4c1.1-0.4,2.1-2.4,2.1-3.7C107.9,202,102.3,202.3,102.5,206.7z"/>
		<path class="st0" d="M232.9,266c0.2,0.2,0.4,0.6,0.3,0.9c1.1,0.7,2,0.6,2.5-0.6c0.1-0.8-0.4-1.5-1.2-1.6c-0.8-0.1-1.5,0.4-1.6,1.2
			C232.9,265.8,232.9,265.9,232.9,266z"/>
		<path class="st0" d="M276.9,285.1c-0.5-0.2-0.6,0.6-0.9,1C277.2,288.9,279.7,284.5,276.9,285.1z"/>
		<path class="st0" d="M157.2,241.2c6.9,3.3,11.2-7.8,4.1-10.1C154.6,228.9,151.3,238.4,157.2,241.2z"/>
		<path class="st0" d="M114,221.7c6.6,3.1,13.4-8.7,3.8-11C110.4,209,108.7,219.2,114,221.7z"/>
		<path class="st0" d="M61.9,185.9c0.2,0.2,0.4,0.6,0.3,0.9c0.7,0.6,0.9-0.3,1.5,0c0.3-0.5,0.1-1.1-0.4-1.4
			C62.8,185.2,62.2,185.3,61.9,185.9C61.9,185.8,61.9,185.9,61.9,185.9z"/>
		<path class="st0" d="M204.6,256.9c0.6-1.6-0.4-2.6-2-2.8C197,253.5,202.7,262.5,204.6,256.9z"/>
		<path class="st0" d="M329.7,316.5c0.2,0.2,0.4,0.6,0.3,0.9c1.2,0.7,2,0.6,2.5-0.6c0.1-0.8-0.4-1.5-1.2-1.6
			c-0.8-0.1-1.5,0.4-1.6,1.2C329.7,316.4,329.7,316.4,329.7,316.5z"/>
		<path class="st0" d="M374.3,337.4c0.2-0.4,0.4-0.8,0.6-1.2l-1.2-0.6C373,336.6,373.2,337.2,374.3,337.4z"/>
		<path class="st0" d="M122.8,221.9c-8.7,9.2,9.8,16.9,11.3,5.4c0.3-2.5-0.7-5.3-4.6-6.6C126.4,219.6,123.9,220.7,122.8,221.9z"/>
		<path class="st0" d="M245.5,277.1c0.2-0.4,0.4-0.8,0.6-1.2l-1.2-0.6C244.2,276.3,244.4,276.9,245.5,277.1z"/>
		<path class="st0" d="M72.3,196.3c0.2,0.2,0.4,0.6,0.3,0.9c1.2,0.7,2,0.6,2.5-0.6c0.1-0.8-0.5-1.5-1.3-1.5S72.4,195.6,72.3,196.3z"
			/>
		<path class="st0" d="M29.5,176.3c0.2,0.2,0.4,0.6,0.3,0.9c1.2,0.7,2,0.6,2.5-0.6c0.1-0.8-0.4-1.5-1.2-1.6
			c-0.8-0.1-1.5,0.4-1.6,1.2C29.5,176.1,29.5,176.2,29.5,176.3z"/>
		<path class="st0" d="M166.7,245.8c-1.1,4.2,6,6.7,7.4,1.3c0.4-1.7,0-3.8-3.5-4.2C168.7,242.6,167.4,243,166.7,245.8z"/>
		<path class="st0" d="M340.5,326.8c0.2,0.2,0.4,0.6,0.3,0.9c1.2,0.7,2,0.6,2.5-0.6c0.1-0.8-0.4-1.5-1.2-1.6
			c-0.8-0.1-1.5,0.4-1.6,1.2C340.6,326.7,340.6,326.7,340.5,326.8z"/>
		<path class="st0" d="M298.2,306.6c0.2,0.2,0.4,0.6,0.3,0.9c0.7,0.6,0.9-0.3,1.5,0C300.7,306,298.8,305.1,298.2,306.6z"/>
		<path class="st0" d="M211.8,266.5c0.2,0.2,0.4,0.6,0.3,0.9c1.2,0.7,2,0.6,2.5-0.6c0.1-0.8-0.5-1.5-1.3-1.5
			S211.8,265.7,211.8,266.5L211.8,266.5z"/>
		<path class="st0" d="M86.8,207.3c0.6-1.6-0.4-2.6-2-2.8C79.2,204,84.9,212.9,86.8,207.3z"/>
		<path class="st0" d="M256.4,287.4c0.2-0.4,0.4-0.8,0.6-1.2l-1.2-0.6C255,286.6,255.3,287.2,256.4,287.4z"/>
		<path class="st0" d="M139.9,241.4c4.1-1.4,3.4-7.2,0-8.4C131.4,230,132.8,243.9,139.9,241.4z"/>
		<path class="st0" d="M182.1,259.7c2.5-0.6,2.7-4.8,0-5.5C176.4,252.6,178.3,260.6,182.1,259.7z"/>
		<path class="st0" d="M351.4,337.1c0.2,0.2,0.4,0.6,0.3,0.9c1.2,0.7,2,0.6,2.5-0.6c0.1-0.8-0.4-1.5-1.2-1.6
			c-0.8-0.1-1.5,0.4-1.6,1.2C351.4,337,351.4,337,351.4,337.1z"/>
		<path class="st0" d="M98.7,217.7c0.5-1.6,0.2-3.5-2.9-3.9C87.4,212.6,96.1,226.4,98.7,217.7z"/>
		<path class="st0" d="M310.4,317.9l0.6-1.2l-1.2-0.6C309,317.1,309.2,317.7,310.4,317.9z"/>
		<path class="st0" d="M144.5,242.5c-8.7,9.2,9.8,16.9,11.3,5.4c0.3-2.5-0.7-5.3-4.6-6.6C148.1,240.2,145.6,241.3,144.5,242.5z"/>
		<path class="st0" d="M267.2,297.7l0.6-1.2l-1.2-0.6C265.9,296.9,266.1,297.5,267.2,297.7z"/>
		<path class="st0" d="M224.4,277.7l0.6-1.2l-1.2-0.6C223.1,276.8,223.3,277.4,224.4,277.7z"/>
		<path class="st0" d="M51.6,196.7c0.2,0.2,0.4,0.6,0.3,0.9c0.7,0.6,0.9-0.3,1.5,0C54.1,196.1,52.2,195.2,51.6,196.7z"/>
		<path class="st0" d="M107,222c-7.2-1.2-7.4,9-1.7,10.5c6.1,1.6,7.7-7.1,4.8-9.4C109.2,222.5,108.1,222.1,107,222z"/>
		<path class="st0" d="M194,267.6c0.6-2-1.1-2.3-1.8-2.3C187.2,265,192.7,272,194,267.6z"/>
		<path class="st0" d="M364,348.3l0.6-1.2l-1.2-0.6C362.7,347.4,362.9,348,364,348.3z"/>
		<path class="st0" d="M277,307.1c0.2,0.2,0.4,0.6,0.3,0.9c0.7,0.6,0.9-0.3,1.5,0c0.2-0.5,0-1.1-0.5-1.3S277.2,306.7,277,307.1z"/>
		<path class="st0" d="M65.4,207.7c0.6-2.1-1.1-2.3-1.8-2.3C58.6,205.1,64.1,212.2,65.4,207.7z"/>
		<path class="st0" d="M112.1,235.1c-3.3,6.8,7.4,11.5,10.3,4.5c1.2-2.9,0.3-6.2-3.8-7.3C115.7,231.5,113.4,232.3,112.1,235.1z"/>
		<path class="st0" d="M156.1,253.5c-5.3,6.1,3.8,12.9,7.8,8.1c3.7-4.2,0.9-8.8-3.6-9.4C158.8,252,157.2,252.4,156.1,253.5z"/>
		<path class="st0" d="M74,215.1c-5.5,1.2,1.6,8.7,3,2.2C76.9,216.4,75.3,214.7,74,215.1z"/>
		<path class="st0" d="M201.9,277.2c0.3,0.2,0.4,0.6,0.3,0.9c0.7,0.6,0.9-0.3,1.5,0c0.3-0.5,0.1-1.1-0.4-1.4
			c-0.5-0.3-1.1-0.1-1.4,0.4C201.9,277.1,201.9,277.2,201.9,277.2z"/>
		<path class="st0" d="M131.4,249.1c0.9-2.3-0.3-4.2-2.9-4.7C119.4,242.8,127.9,257.9,131.4,249.1z"/>
		<path class="st0" d="M167.6,268.5c0.2,1.4,2.8,2.9,4.3,2.4c1.1-0.4,2.1-2.4,2.1-3.7C173,263.8,167.4,264,167.6,268.5z"/>
		<path class="st0" d="M88,228.7c0.6-1.7,0.4-3.5-2.6-3.8C78.2,224.2,85.3,235.9,88,228.7z"/>
		<path class="st0" d="M342.9,348.8l0.6-1.2l-1.2-0.6C341.5,348,341.8,348.6,342.9,348.8z"/>
		<path class="st0" d="M214.1,288.5c0.2-0.4,0.4-0.8,0.6-1.2l-1.2-0.6C212.8,287.7,213,288.3,214.1,288.5z"/>
		<path class="st0" d="M40.8,207.7c0.2,0.2,0.4,0.6,0.3,0.9c1.2,0.7,2,0.6,2.5-0.6c0.1-0.8-0.5-1.5-1.3-1.5
			C41.6,206.4,40.9,207,40.8,207.7L40.8,207.7z"/>
		<path class="st0" d="M97.5,233.3c-3.5-1.1-5.2,0.1-6.3,2.5c-4.1,8.6,12.8,10.1,9.9,0.7C100.5,234.9,99.2,233.7,97.5,233.3z"/>
		<path class="st0" d="M135.7,254.8c-5.5,6.4,6.3,11.6,7.8,3.7c0.4-2-0.6-4.2-4.4-4.6C137.8,253.6,136.6,253.9,135.7,254.8z"/>
		<path class="st0" d="M353.1,357.4c-0.5-0.2-0.6,0.6-0.9,1C353.4,361.1,355.9,356.8,353.1,357.4z"/>
		<path class="st0" d="M182.2,276.2c-2.2-0.5-2.4,0.3-2.8,1.2c-1.1,2.9,5.1,4.8,4.6,0.4C183.8,277,183.1,276.3,182.2,276.2z"/>
		<path class="st0" d="M310.9,339.1l0.6-1.2l-1.2-0.6C309.6,338.2,309.8,338.8,310.9,339.1z"/>
		<path class="st0" d="M268.1,319c0.2-0.4,0.4-0.8,0.6-1.2l-1.2-0.6C266.7,318.2,266.9,318.8,268.1,319z"/>
		<path class="st0" d="M225,298.8c0.2-0.4,0.4-0.8,0.6-1.2c-0.4-0.2-0.8-0.4-1.2-0.6C223.6,298,223.8,298.5,225,298.8z"/>
		<path class="st0" d="M51.7,218c0.2,0.2,0.4,0.6,0.3,0.9c1.2,0.7,2,0.6,2.5-0.6c0.1-0.8-0.4-1.5-1.2-1.6c-0.8-0.1-1.5,0.4-1.6,1.2
			C51.7,217.8,51.7,217.9,51.7,218z"/>
		<path class="st0" d="M108.5,244c-3-1.1-4.9-0.2-6,1.9c-4,7.4,11,10.6,9.2,1.5C111.2,245.8,110.1,244.6,108.5,244z"/>
		<path class="st0" d="M146.2,264.9c-6.1,7.4,6.9,11.5,8.4,4c0.5-2.6-1.6-4.7-4.5-5.1C148.7,263.5,147.2,264,146.2,264.9z"/>
		<path class="st0" d="M364.6,369.4c0.2-0.4,0.4-0.8,0.6-1.2l-1.2-0.6C363.2,368.6,363.4,369.2,364.6,369.4z"/>
		<path class="st0" d="M191,287.8c-0.2,0.9,0.5,1.8,1.4,2c0.8,0.1,1.6-0.3,1.9-1.1c0.2-0.9-0.5-1.8-1.4-2
			C192.1,286.5,191.3,287,191,287.8z"/>
		<path class="st0" d="M66.3,229c0.6-1.6-0.4-2.6-2-2.8C58.6,225.6,64.3,234.6,66.3,229z"/>
		<path class="st0" d="M235.8,309.1l0.6-1.2l-1.2-0.6C234.4,308.3,234.6,308.9,235.8,309.1z"/>
		<path class="st0" d="M20.1,208.1c0.2,0.2,0.4,0.5,0.3,0.9c0.7,0.6,0.9-0.3,1.5,0c0.3-0.5,0.1-1.1-0.3-1.4
			c-0.5-0.3-1.1-0.1-1.4,0.3C20.2,208,20.2,208.1,20.1,208.1z"/>
		<path class="st0" d="M156.3,276.7c-2.7,5.7,6.1,9.4,8.5,3.7c1-2.4,0.3-4.9-3.1-5.9C159.2,273.8,157.5,274.3,156.3,276.7z"/>
		<path class="st0" d="M114,258c-1.1,4.2,6,6.7,7.4,1.4c0.4-1.7,0-3.8-3.5-4.2C116,254.9,114.7,255.2,114,258z"/>
		<path class="st0" d="M75.8,235.8c-2-0.6-3.3,0.2-3.8,1.1c-3.3,5.6,7,6.3,6.1,1.1C77.8,236.9,76.9,236.1,75.8,235.8z"/>
		<path class="st0" d="M331.2,358.7c0.3,0.2,0.4,0.6,0.3,0.9c0.7,0.6,0.9-0.3,1.5,0c0.3-0.5,0.1-1.1-0.4-1.4
			c-0.5-0.3-1.1-0.1-1.4,0.4C331.3,358.6,331.3,358.6,331.2,358.7z"/>
		<path class="st0" d="M245.3,318.4c0.3,0.2,0.3,0.5,0.3,0.9c0.7,0.6,0.9-0.3,1.5,0C247.8,317.8,245.9,316.9,245.3,318.4z"/>
		<path class="st0" d="M202.5,298.4c0.3,0.2,0.3,0.5,0.3,0.9c0.7,0.6,0.9-0.3,1.5,0C205,297.8,203.1,296.9,202.5,298.4z"/>
		<path class="st0" d="M31.9,216.6c-5,1.4,1.4,6.7,2.3,2.2c0.2-1-0.6-2-1.6-2.2C32.3,216.6,32.1,216.6,31.9,216.6z"/>
		<path class="st0" d="M81.5,246.9c-2.7,5.7,6.1,9.4,8.5,3.7c1-2.4,0.3-4.9-3.1-5.9C84.4,244,82.7,244.5,81.5,246.9z"/>
		<path class="st0" d="M167.8,287.3c-2.5,5.2,5,7.9,7.2,3.4c1.1-2.4,0.6-4.7-2.9-5.4C169.8,284.9,168.6,285.5,167.8,287.3z"/>
		<path class="st0" d="M132,270.2c0.9-2.3-0.3-4.2-2.9-4.7C120,263.9,128.4,279,132,270.2z"/>
		<path class="st0" d="M256.4,328.8c0.2,0.2,0.4,0.6,0.3,0.9c0.7,0.6,0.9-0.3,1.5,0c0.3-0.5,0.1-1.1-0.4-1.4
			c-0.5-0.3-1.1-0.1-1.4,0.4C256.5,328.8,256.4,328.8,256.4,328.8z"/>
		<path class="st0" d="M214.6,309.6l0.6-1.2l-1.2-0.6C213.3,308.8,213.5,309.4,214.6,309.6z"/>
		<path class="st0" d="M42.7,226.9c-5,1.4,1.5,6.7,2.3,2.2c0.2-1-0.6-2-1.6-2.2C43.1,226.9,42.9,226.9,42.7,226.9z"/>
		<path class="st0" d="M93.7,256c-5.1,5,4.4,10.8,6.9,4.8c0.8-1.9,0.7-4.1-2.6-5.3C95.9,254.8,94.4,255.3,93.7,256z"/>
		<path class="st0" d="M139.8,275.4c-2.8-0.4-3.3,0.9-3.7,1.5c-4.6,7.2,10.1,8.9,7.3,0.9C142.7,276.5,141.3,275.5,139.8,275.4z"/>
		<path class="st0" d="M183,302.3c2.5-0.6,2.7-4.8,0.1-5.5C177.3,295.2,179.2,303.2,183,302.3z"/>
		<path class="st0" d="M354.3,380.3l0.6-1.2l-1.2-0.6C352.9,379.4,353.1,380,354.3,380.3z"/>
		<path class="st0" d="M311.5,360.2c0.2-0.4,0.4-0.8,0.6-1.2l-1.2-0.6C310.1,359.4,310.3,360,311.5,360.2z"/>
		<path class="st0" d="M224.1,318.9c0.2,0.2,0.4,0.6,0.3,0.9c0.7,0.6,0.9-0.3,1.5,0C226.7,318.4,224.8,317.5,224.1,318.9z"/>
		<path class="st0" d="M268.6,340.1l0.6-1.2l-1.2-0.6C267.3,339.3,267.5,339.9,268.6,340.1z"/>
		<path class="st0" d="M53.5,237.2c-5,1.4,1.5,6.7,2.3,2.2c0.2-1.1-0.6-2-1.6-2.2C54,237.2,53.7,237.2,53.5,237.2z"/>
		<path class="st0" d="M146.5,287.4c-3.5,6.5,6.3,9.1,8.1,3.1c0.6-2,0-4.5-3.8-5.1C149,284.9,147.2,285.8,146.5,287.4z"/>
		<path class="st0" d="M104.5,266.3c-5.8,6.4,6.1,10.3,7.2,3.4c0.3-2.1-1.6-4-4.2-4.2C106.4,265.3,105.3,265.6,104.5,266.3z"/>
		<path class="st0" d="M61.9,247.4c-3.4,5.1,5.4,7.8,6.3,2.3c0.3-1.9-1.3-3.3-3.5-3.5C63.6,246,62.5,246.5,61.9,247.4z"/>
		<path class="st0" d="M322.3,370.5l0.6-1.2l-1.2-0.6C320.9,369.7,321.1,370.3,322.3,370.5z"/>
		<path class="st0" d="M235.7,328.5c-0.5-0.2-0.6,0.6-0.9,1C236,332.3,238.5,327.9,235.7,328.5z"/>
		<path class="st0" d="M21.8,226.9c-1.5-0.1-2.5-0.2-2.9,2.3c-0.8,5.7,8.6,1.5,4.9-1.7C23.2,227,22.5,226.9,21.8,226.9z"/>
		<path class="st0" d="M114.3,277.2c-2.6,4.2,0.5,6.5,2.8,7.2c5.3,1.5,8.8-7.7,1.8-9C117.1,274.9,115.3,275.6,114.3,277.2z"/>
		<path class="st0" d="M157.2,298c-2.7,5.6,5.8,8.7,7.9,3.4c0.9-2.3,0.4-4.8-3.2-5.6C159.5,295.3,158.1,296,157.2,298z"/>
		<path class="st0" d="M71.7,257.6c-3.5,6.5,6.3,9.1,8,3.1c0.6-2,0-4.5-3.8-5.1C74.2,255.1,72.4,256,71.7,257.6z"/>
		<path class="st0" d="M35.8,240.5c0.5-1.6,0.2-3.5-2.9-3.9C24.5,235.4,33.2,249.2,35.8,240.5z"/>
		<path class="st0" d="M204.2,320.8l0.6-1.2l-1.2-0.6C202.9,320,203.1,320.5,204.2,320.8z"/>
		<path class="st0" d="M130.6,285.3c-3.5-1.1-5.2,0.1-6.3,2.5c-4.1,8.6,12.8,10.1,9.9,0.7C133.6,286.9,132.3,285.8,130.6,285.3z"/>
		<path class="st0" d="M82.5,267.9c-3.5,6.5,6.3,9.1,8,3.1c0.6-2,0-4.5-3.8-5.1C85,265.4,83.2,266.3,82.5,267.9z"/>
		<path class="st0" d="M169.2,308.1c-3.4,5.1,5.4,7.8,6.3,2.3c0.3-1.9-1.3-3.3-3.5-3.5C170.9,306.7,169.8,307.2,169.2,308.1z"/>
		<path class="st0" d="M257,350c0.2,0.2,0.4,0.6,0.3,0.9c0.7,0.6,0.9-0.3,1.5,0c0.3-0.5,0.1-1.1-0.4-1.4
			C257.9,349.3,257.3,349.5,257,350C257,350,257,350,257,350z"/>
		<path class="st0" d="M215.1,331.1c0.2-0.4,0.4-0.8,0.6-1.2l-1.2-0.6C213.7,330.3,213.9,330.8,215.1,331.1z"/>
		<path class="st0" d="M41.7,250.6c0.5,0.9,1.6,1.3,2.6,0.8c0.7-0.4,1.1-1.2,1-2c-0.5-0.9-1.6-1.3-2.6-0.8
			C41.9,249,41.5,249.8,41.7,250.6z"/>
		<path class="st0" d="M135.6,297.2c-5.2,7.9,8.1,12.2,9.8,4c0.6-2.8-1.1-5.3-4.9-6C138.6,294.8,136.6,295.6,135.6,297.2z"/>
		<path class="st0" d="M93.6,276.9c-6.2,7.4,6.9,11.5,8.3,4c0.5-2.6-1.6-4.7-4.5-5.1C96.1,275.5,94.6,275.9,93.6,276.9z"/>
		<path class="st0" d="M57.1,261.3c0.6-1.7,0.4-3.5-2.6-3.8C47.3,256.7,54.4,268.4,57.1,261.3z"/>
		<path class="st0" d="M14.3,241.2c0.6-1.7,0.4-3.5-2.6-3.8C4.5,236.7,11.6,248.3,14.3,241.2z"/>
		<path class="st0" d="M181.3,320.5c0.2,0.2,0.4,0.6,0.3,0.9c1.2,0.7,2,0.6,2.5-0.6c0.1-0.8-0.4-1.5-1.2-1.6
			c-0.8-0.1-1.5,0.4-1.6,1.2C181.3,320.3,181.3,320.4,181.3,320.5z"/>
		<path class="st0" d="M225.3,339.6c-0.5-0.2-0.6,0.6-0.9,1C225.6,343.4,228.1,339.1,225.3,339.6z"/>
		<path class="st0" d="M146.3,307.8c-4.6,7.6,7.4,11.5,9.7,4.3c0.8-2.6,0-5.5-4.3-6.4C149.6,305,147.4,305.9,146.3,307.8z"/>
		<path class="st0" d="M103.6,287.5c-5.2,7.9,8.1,12.2,9.8,4c0.6-2.8-1.1-5.3-4.8-6C106.7,285,104.7,285.8,103.6,287.5z"/>
		<path class="st0" d="M61.9,267.2c-5.5,6.4,6.3,11.6,7.8,3.7c0.3-2-0.6-4.2-4.4-4.7C64.1,266.1,62.9,266.4,61.9,267.2z"/>
		<path class="st0" d="M18.8,251.8c2.5,7,11.6-2.8,4.4-4.5c-1.9-0.6-3.8,0.5-4.4,2.3C18.5,250.3,18.5,251.1,18.8,251.8z"/>
		<path class="st0" d="M235.2,351c0.2,0.2,0.4,0.6,0.3,0.9c1.2,0.7,2,0.6,2.5-0.6c0.1-0.8-0.4-1.5-1.2-1.6c-0.8-0.1-1.5,0.4-1.6,1.2
			C235.2,350.8,235.2,350.9,235.2,351z"/>
		<path class="st0" d="M280,371.6l0.6-1.2l-1.2-0.6C278.7,370.8,278.9,371.3,280,371.6z"/>
		<path class="st0" d="M114.6,296.7c-8.2,9.1,9.6,14.8,10.4,4.2c0.2-2.9-1.8-5.1-5.3-5.8C117.8,294.6,115.8,295.3,114.6,296.7z"/>
		<path class="st0" d="M193.9,331.6l0.6-1.2l-1.2-0.6C192.6,330.8,192.8,331.4,193.9,331.6z"/>
		<path class="st0" d="M71.9,277.9c-5.2,7.8,7.6,11.6,9.2,3.7c0.4-2.2-0.5-4.9-4.7-5.5C74.7,275.6,72.9,276.3,71.9,277.9z"/>
		<path class="st0" d="M158.7,317.8c-5.8,6.4,6.1,10.3,7.2,3.4c0.3-2.1-1.6-4-4.2-4.2C160.6,316.8,159.6,317.1,158.7,317.8z"/>
		<path class="st0" d="M290.9,381.9l0.6-1.2l-1.2-0.6C289.5,381,289.7,381.6,290.9,381.9z"/>
		<path class="st0" d="M127.2,317c7.2,3.1,12.6-8.7,4.4-11.5C123.6,302.9,120.9,314.3,127.2,317z"/>
		<path class="st0" d="M204.8,341.9l0.6-1.2l-1.2-0.6C203.4,341.1,203.6,341.7,204.8,341.9z"/>
		<path class="st0" d="M31.4,261.5c0.5,0.9,1.6,1.3,2.6,0.8c0.7-0.4,1.1-1.2,1-2c-0.5-0.9-1.6-1.3-2.6-0.8
			C31.6,259.8,31.2,260.6,31.4,261.5z"/>
		<path class="st0" d="M82.9,295.5c7.6,5.8,14.5-8,4.7-9.9C81,284.4,79.9,293.3,82.9,295.5z"/>
		<path class="st0" d="M171,332.1c0.8,0.4,1.6,0.9,2.2,0.7c0.3-0.6,0.6-1.2,0.9-1.8c-0.3-0.9-1.2-1.3-2.1-1
			C171.1,330.3,170.7,331.2,171,332.1z"/>
		<path class="st0" d="M215.3,350.6c-0.5-0.2-0.6,0.6-0.9,1C215.6,354.4,218.1,350,215.3,350.6z"/>
		<path class="st0" d="M258.7,372.4l0.6-1.2l-1.2-0.6C257.4,371.6,257.6,372.2,258.7,372.4z"/>
		<path class="st0" d="M41.8,271.9c0.8,0.8,1.9,1.4,3,1.4c0.8-0.8,1.4-1.9,1.4-3C44.6,268.1,41.6,269.1,41.8,271.9z"/>
		<path class="st0" d="M93.1,297.1c-7.4,8.3,10,16.9,11,4.5c0.2-2.9-2-5.5-5.4-6.3S94.1,296,93.1,297.1z"/>
		<path class="st0" d="M136.2,317.3c-8.2,9.1,9.6,14.8,10.4,4.2c0.2-2.9-1.8-5.1-5.3-5.8C139.5,315.2,137.5,315.8,136.2,317.3z"/>
		<path class="st0" d="M51.2,279.7c-2.5,5.2,5,7.9,7.2,3.4c1.2-2.4,0.6-4.7-2.9-5.4C53.2,277.3,52.1,277.9,51.2,279.7z"/>
		<path class="st0" d="M224.9,361.8c0.3,0.2,0.3,0.5,0.3,0.9c1.1,0.7,2,0.6,2.5-0.6c0.1-0.8-0.4-1.5-1.2-1.6
			c-0.8-0.1-1.5,0.4-1.6,1.2C224.9,361.7,224.9,361.8,224.9,361.8z"/>
		<path class="st0" d="M105.6,317.8c7.8,3.7,13.3-9.1,5-11.9C102.9,303.2,98.2,314.2,105.6,317.8z"/>
		<path class="st0" d="M9.8,262.1c0.8,0.8,1.9,1.4,3,1.4c0.8-0.8,1.3-1.9,1.4-3C12.6,258.3,9.6,259.4,9.8,262.1z"/>
		<path class="st0" d="M183.6,342.5c0.2-0.4,0.4-0.8,0.6-1.2l-1.2-0.6C182.3,341.6,182.5,342.2,183.6,342.5z"/>
		<path class="st0" d="M61.4,295.2c6.2,6.6,15-6.4,5.2-8.5C60.6,285.4,59.4,293,61.4,295.2z"/>
		<path class="st0" d="M147.8,335.3c6.3,5.3,12.5-6.9,3.8-8.1C147.5,326.7,144.5,332.5,147.8,335.3z"/>
		<path class="st0" d="M235.8,372.1c0.2,0.2,0.4,0.6,0.3,0.9c1.2,0.7,2,0.6,2.5-0.6c0.1-0.8-0.5-1.5-1.3-1.5
			S235.9,371.4,235.8,372.1L235.8,372.1z"/>
		<path class="st0" d="M194.4,352.8l0.6-1.2l-1.2-0.6C193.1,351.9,193.3,352.5,194.4,352.8z"/>
		<path class="st0" d="M21.2,271.3c-0.2,0.9,0.4,1.8,1.3,2c0.8,0.2,1.7-0.3,1.9-1.1c0.2-0.9-0.4-1.8-1.3-2
			C22.3,270,21.4,270.4,21.2,271.3z"/>
		<path class="st0" d="M72,297.7c-5.5,6.6,4.4,14.3,9,8.7c2.9-3.5,1.6-9.8-3.9-10.3C75,296.1,73.1,296.4,72,297.7z"/>
		<path class="st0" d="M115.1,317.9c-5.9,7.2,4.3,13.3,8.4,8.4c3.7-4.5,0.8-9.1-3.7-9.8C118.1,316.2,116.4,316.7,115.1,317.9z"/>
		<path class="st0" d="M160.2,341.6c0.2,0.8,0.4,1.5,0.8,2.2c1.2,0.5,2.5,0,3.1-1.1c0.3-1.1-0.3-2.2-1.4-2.5
			C161.6,339.9,160.5,340.5,160.2,341.6L160.2,341.6z"/>
		<path class="st0" d="M247.8,381.5c-0.5-0.2-0.6,0.6-0.9,1C248.1,385.3,250.6,381,247.8,381.5z"/>
		<path class="st0" d="M35.6,282.5c0.6-2.1-1.1-2.3-1.8-2.3C28.7,280,34.3,287,35.6,282.5z"/>
		<path class="st0" d="M82.4,308.1c-5.6,7.3,4.5,14.1,9.5,8.5c3.8-4.2,1.4-9.5-3.4-10.4C86.2,305.8,83.9,306.5,82.4,308.1z"/>
		<path class="st0" d="M205.6,363.2l0.6-1.2l-1.2-0.6C204.2,362.4,204.4,363,205.6,363.2z"/>
		<path class="st0" d="M125.7,329.5c-4.6,7.6,7.4,11.5,9.7,4.3c0.8-2.6,0-5.5-4.3-6.4C129,326.7,126.8,327.6,125.7,329.5z"/>
		<path class="st0" d="M41.8,290.3c-3.4,5.1,5.4,7.8,6.3,2.3c0.3-1.9-1.3-3.3-3.5-3.5C43.5,288.8,42.4,289.3,41.8,290.3z"/>
		<path class="st0" d="M172.8,350.5c-5,1.5,1.4,6.7,2.3,2.2c0.2-1.1-0.6-2-1.6-2.2C173.2,350.5,173,350.5,172.8,350.5z"/>
		<path class="st0" d="M215.1,372.5c0.2,0.2,0.4,0.6,0.3,0.9c0.7,0.6,0.9-0.3,1.5,0c0.3-0.5,0.1-1.1-0.4-1.4
			C216,371.8,215.4,372,215.1,372.5C215.1,372.5,215.1,372.5,215.1,372.5z"/>
		<path class="st0" d="M95.9,328.1c7.1,3,12.1-8.6,3.8-11C92.3,315,89.9,325.6,95.9,328.1z"/>
		<path class="st0" d="M0,271.8c-0.2,0.9,0.4,1.8,1.3,2c0.8,0.2,1.7-0.3,1.9-1.1c0.2-0.9-0.4-1.8-1.3-2C1.1,270.5,0.3,271,0,271.8z"
			/>
		<path class="st0" d="M51.3,299.5c-5.2,7.8,7.6,11.6,9.2,3.7c0.5-2.2-0.5-4.9-4.7-5.5C54.1,297.3,52.3,298,51.3,299.5z"/>
		<path class="st0" d="M137.3,342c-1.1,4.2,6,6.7,7.4,1.3c0.4-1.7,0-3.8-3.5-4.2C139.3,338.9,138,339.2,137.3,342z"/>
		<path class="st0" d="M15.8,283.3c0.5-1.6,0.2-3.5-2.9-3.9C4.4,278.2,13.1,292,15.8,283.3z"/>
		<path class="st0" d="M226.6,382.1c-0.5-0.2-0.6,0.6-0.9,1C227,385.8,229.4,381.5,226.6,382.1z"/>
		<path class="st0" d="M65.6,318.8c6.3,0.9,8.9-8.8,2.7-11.1C59.7,304.4,57.9,317.7,65.6,318.8z"/>
		<path class="st0" d="M105.3,329.3c-5.1,6.3,3.9,11.8,7.5,7.3c3.2-3.9,0.7-7.9-3.3-8.5C108,327.7,106.4,328.2,105.3,329.3z"/>
		<path class="st0" d="M236.8,393.1c0.2,0.2,0.4,0.6,0.3,0.9c0.7,0.6,0.9-0.3,1.5,0c0.3-0.5,0.1-1.1-0.4-1.4
			c-0.5-0.3-1.1-0.1-1.4,0.4C236.8,393,236.8,393.1,236.8,393.1z"/>
		<path class="st0" d="M23.9,290.9c-2.2-0.5-2.5,0.3-2.8,1.2c-1,2.9,5.1,4.7,4.6,0.4C25.5,291.6,24.8,291,23.9,290.9z"/>
		<path class="st0" d="M151.5,352.1c-0.5-0.1-0.6,0.6-0.9,1C151.9,355.9,154.3,351.5,151.5,352.1z"/>
		<path class="st0" d="M74.5,328.5c6.6,3.1,13.4-8.7,3.8-11C70.9,315.8,69.1,326,74.5,328.5z"/>
		<path class="st0" d="M116,341.4c-2.7,5.6,5.8,8.7,7.9,3.4c1-2.3,0.4-4.8-3.2-5.6C118.3,338.7,116.9,339.4,116,341.4z"/>
		<path class="st0" d="M34.3,306.8c3.5,0.1,4.7-5.6,1.1-6.8C29.6,298.1,29.4,306.7,34.3,306.8z"/>
		<path class="st0" d="M164.6,363.8c0.6-2-1.1-2.3-1.8-2.3C157.8,361.3,163.3,368.3,164.6,363.8z"/>
		<path class="st0" d="M83.5,330.3c-5.2,7.9,8,12.2,9.8,4c0.6-2.8-1.1-5.3-4.8-6C86.6,327.8,84.6,328.6,83.5,330.3z"/>
		<path class="st0" d="M41,311.1c-3.6,6.7,6.4,9.6,8.5,3.7c0.9-2.5,0.2-5.1-3.8-5.8C43.8,308.4,41.8,309.4,41,311.1z"/>
		<path class="st0" d="M128.2,354.2c0.5,1.3,2,2,3.4,1.5c1.1-0.4,1.8-1.6,1.6-2.8c-0.5-1.3-2-2-3.4-1.5
			C128.7,351.9,128.1,353,128.2,354.2z"/>
		<path class="st0" d="M172.5,373.5c0.2,0.2,0.4,0.6,0.3,0.9c0.7,0.6,0.9-0.3,1.5,0c0.3-0.5,0.1-1.1-0.4-1.4
			c-0.5-0.3-1.1-0.1-1.4,0.4C172.5,373.4,172.5,373.4,172.5,373.5z"/>
		<path class="st0" d="M57.6,319.4c-2.9-1.1-4.9-0.2-6,1.9c-4,7.4,11,10.6,9.2,1.5C60.3,321.2,59.1,320,57.6,319.4z"/>
		<path class="st0" d="M95,341.6c-3.5,6.5,6.3,9.1,8,3.1c0.6-2,0-4.5-3.8-5.1C97.5,339.2,95.7,340,95,341.6z"/>
		<path class="st0" d="M11.4,303.3c-0.2,0.9,0.3,1.8,1.2,2s1.8-0.3,2-1.2l0,0c0.2-0.9-0.3-1.8-1.2-2
			C12.6,301.8,11.7,302.3,11.4,303.3z"/>
		<path class="st0" d="M63.3,330.5c-6.2,7.4,6.9,11.5,8.4,4c0.5-2.6-1.6-4.7-4.5-5.1C65.7,329.1,64.3,329.6,63.3,330.5z"/>
		<path class="st0" d="M112.4,355.1c0.6-1.7,0.4-3.5-2.6-3.8C102.6,350.5,109.7,362.2,112.4,355.1z"/>
		<path class="st0" d="M26.7,314.9c0.6-1.7,0.4-3.5-2.6-3.8C16.9,310.4,24,322.1,26.7,314.9z"/>
		<path class="st0" d="M74,342.6c-2.5,5.2,5.1,7.9,7.2,3.4c1.2-2.4,0.6-4.7-2.9-5.4C76,340.2,74.9,340.8,74,342.6z"/>
		<path class="st0" d="M31.6,323.1c-1.6,4.2,4.7,6.3,6.3,2.3c0.7-1.8,0.3-3.8-2.8-4.2C33.6,320.7,32.1,321.6,31.6,323.1
			C31.6,323.1,31.6,323.1,31.6,323.1z"/>
		<path class="st0" d="M120.1,363.5c-0.5-0.1-0.6,0.6-0.9,1C120.4,367.3,122.9,362.9,120.1,363.5z"/>
		<path class="st0" d="M48.4,335.5c0.6-1.7,0.4-3.5-2.6-3.8C38.6,331,45.7,342.7,48.4,335.5z"/>
		<path class="st0" d="M85.9,355.3c0.5,1.3,2,2.1,3.3,1.6c1.2-0.4,1.9-1.6,1.7-2.9c-0.5-1.3-2-2.1-3.3-1.6
			C86.4,352.8,85.7,354,85.9,355.3z"/>
		<path class="st0" d="M53.9,345.5c0.5,1.3,2,2,3.4,1.5c1.1-0.4,1.8-1.6,1.6-2.7c-0.5-1.3-2-2-3.4-1.5
			C54.5,343.2,53.8,344.3,53.9,345.5z"/>
		<path class="st0" d="M98.2,364.8c0.2,0.2,0.4,0.6,0.3,0.9c0.7,0.6,0.9-0.3,1.5,0c0.3-0.5,0.1-1.1-0.4-1.4
			C99.1,364.1,98.5,364.2,98.2,364.8C98.2,364.7,98.2,364.8,98.2,364.8z"/>
		<path class="st0" d="M26,336.6c1.2-1.5,0.7-3.1-1.4-3.2C20.4,333.1,23.8,339.2,26,336.6z"/>
		<path class="st0" d="M65.7,354.8c-0.2,0.9,0.3,1.8,1.2,2c0.9,0.2,1.8-0.3,2-1.2l0,0c0.2-0.9-0.3-1.8-1.2-2
			C66.8,353.3,65.9,353.8,65.7,354.8z"/>
		<path class="st0" d="M33.4,344.9c0.1,0.8,0.4,1.5,0.8,2.2c1.1,0.5,2.5,0,3.1-1.1c0.3-1.1-0.3-2.2-1.4-2.5
			C34.8,343.2,33.7,343.8,33.4,344.9L33.4,344.9z"/>
		<path class="st0" d="M78.4,366.3c0.2-0.4,0.4-0.8,0.6-1.2l-1.2-0.6C77.1,365.5,77.3,366.1,78.4,366.3z"/>
		<path class="st0" d="M56.1,365.6c0.6,0.1,1.6,1.2,1.9,0.6C57.8,365.1,56.8,364.7,56.1,365.6z"/>
	</g>
</g>
</svg>
